<?xml version="1.0" encoding="UTF-8" standalone="no"?>
<!-- Created with Inkscape (http://www.inkscape.org/) -->
<svg
   xmlns:dc="http://purl.org/dc/elements/1.1/"
   xmlns:cc="http://web.resource.org/cc/"
   xmlns:rdf="http://www.w3.org/1999/02/22-rdf-syntax-ns#"
   xmlns:svg="http://www.w3.org/2000/svg"
   xmlns="http://www.w3.org/2000/svg"
   xmlns:xlink="http://www.w3.org/1999/xlink"
   xmlns:sodipodi="http://sodipodi.sourceforge.net/DTD/sodipodi-0.dtd"
   xmlns:inkscape="http://www.inkscape.org/namespaces/inkscape"
   width="640"
   height="640"
   id="svg2"
   sodipodi:version="0.32"
   inkscape:version="0.45.1"
   sodipodi:docbase="D:\Dateien\Desktop\Secret Maryo Chronicles\Drafts\Game\BowserJr"
   sodipodi:docname="star.svg"
   inkscape:output_extension="org.inkscape.output.svg.inkscape"
   version="1.0"
   inkscape:export-filename="N:\Dokumente und Einstellungen\FluXy\Desktop\star_2.png"
   inkscape:export-xdpi="18"
   inkscape:export-ydpi="18">
  <defs
     id="defs4">
    <linearGradient
       inkscape:collect="always"
       id="linearGradient9100">
      <stop
         style="stop-color:#fff028;stop-opacity:1;"
         offset="0"
         id="stop9102" />
      <stop
         style="stop-color:#fff028;stop-opacity:0;"
         offset="1"
         id="stop9104" />
    </linearGradient>
    <linearGradient
       inkscape:collect="always"
       id="linearGradient9090">
      <stop
         style="stop-color:#fff028;stop-opacity:1;"
         offset="0"
         id="stop9092" />
      <stop
         style="stop-color:#fff028;stop-opacity:0;"
         offset="1"
         id="stop9094" />
    </linearGradient>
    <linearGradient
       id="linearGradient6105">
      <stop
         style="stop-color:#ffffff;stop-opacity:1;"
         offset="0"
         id="stop6107" />
      <stop
         style="stop-color:#fefec1;stop-opacity:0.60784316;"
         offset="1"
         id="stop6109" />
    </linearGradient>
    <radialGradient
       inkscape:collect="always"
       xlink:href="#linearGradient6105"
       id="radialGradient6115"
       cx="125.16845"
       cy="151.02016"
       fx="125.16845"
       fy="151.02016"
       r="176.31789"
       gradientTransform="matrix(0.2280201,0.3190998,-0.3774823,0.2697387,112.61253,156.82489)"
       gradientUnits="userSpaceOnUse" />
    <filter
       inkscape:collect="always"
       id="filter7126">
      <feGaussianBlur
         inkscape:collect="always"
         stdDeviation="11.155329"
         id="feGaussianBlur7128" />
    </filter>
    <filter
       inkscape:collect="always"
       id="filter8115">
      <feGaussianBlur
         inkscape:collect="always"
         stdDeviation="4.8162425"
         id="feGaussianBlur8117" />
    </filter>
    <radialGradient
       inkscape:collect="always"
       xlink:href="#linearGradient9090"
       id="radialGradient9096"
       cx="327.28943"
       cy="422.02701"
       fx="327.28943"
       fy="422.02701"
       r="125.25892"
       gradientTransform="matrix(1.4032258,0,0,1.2096775,-131.97154,-88.489535)"
       gradientUnits="userSpaceOnUse" />
    <radialGradient
       inkscape:collect="always"
       xlink:href="#linearGradient9100"
       id="radialGradient9106"
       cx="329.17877"
       cy="418.49146"
       fx="329.17877"
       fy="418.49146"
       r="229.80971"
       gradientTransform="matrix(0.745042,3.1163845e-8,-3.1079761e-8,0.7318813,81.532404,112.20537)"
       gradientUnits="userSpaceOnUse" />
    <filter
       inkscape:collect="always"
       id="filter3228">
      <feGaussianBlur
         inkscape:collect="always"
         stdDeviation="6.7096567"
         id="feGaussianBlur3230" />
    </filter>
  </defs>
  <sodipodi:namedview
     id="base"
     pagecolor="#ffffff"
     bordercolor="#666666"
     borderopacity="1.0"
     gridtolerance="10000"
     guidetolerance="10"
     objecttolerance="10"
     inkscape:pageopacity="0"
     inkscape:pageshadow="2"
     inkscape:zoom="0.49497475"
     inkscape:cx="555.98923"
     inkscape:cy="586.39547"
     inkscape:document-units="px"
     inkscape:current-layer="layer1"
     inkscape:window-width="1280"
     inkscape:window-height="938"
     inkscape:window-x="0"
     inkscape:window-y="51"
     width="640px"
     height="640px" />
  <metadata
     id="metadata7">
    <rdf:RDF>
      <cc:Work
         rdf:about="">
        <dc:format>image/svg+xml</dc:format>
        <dc:type
           rdf:resource="http://purl.org/dc/dcmitype/StillImage" />
      </cc:Work>
    </rdf:RDF>
  </metadata>
  <g
     inkscape:label="Layer 1"
     inkscape:groupmode="layer"
     id="layer1">
    <path
       sodipodi:type="arc"
       style="opacity:1;fill:url(#radialGradient9106);fill-opacity:1;stroke-width:1;stroke-linecap:round;stroke-miterlimit:4;stroke-dasharray:none;stroke-opacity:1"
       id="path9098"
       sodipodi:cx="318.70313"
       sodipodi:cy="418.49146"
       sodipodi:rx="229.80971"
       sodipodi:ry="203.54573"
       d="M 548.51283 418.49146 A 229.80971 203.54573 0 1 1  88.893417,418.49146 A 229.80971 203.54573 0 1 1  548.51283 418.49146 z"
       transform="matrix(1.6637362,0,0,1.6637362,-216.74802,-362.7587)" />
    <path
       sodipodi:type="star"
       style="opacity:1;fill:#f5ec0a;fill-opacity:1;stroke-width:1;stroke-linecap:round;stroke-miterlimit:4;stroke-dasharray:none;stroke-opacity:1;filter:url(#filter8115)"
       id="path2160"
       sodipodi:sides="5"
       sodipodi:cx="114.28571"
       sodipodi:cy="252.36218"
       sodipodi:r1="189.95166"
       sodipodi:r2="96.685394"
       sodipodi:arg1="0.36933366"
       sodipodi:arg2="1.0070032"
       inkscape:flatsided="false"
       inkscape:rounded="0.06"
       inkscape:randomized="0"
       d="M 291.42857,320.93361 C 288.62994,327.96697 172.31404,329.97905 165.95401,334.08398 C 159.67517,338.13651 111.26808,442.50679 103.81056,442.02479 C 96.256616,441.53656 58.399426,331.53534 52.530047,326.75508 C 46.735591,322.03584 -67.485056,308.25016 -69.331145,301.00869 C -71.201104,293.67359 21.717757,223.67702 24.450313,216.61772 C 27.147987,209.64854 4.9628335,96.758243 11.279405,92.764771 C 17.677653,88.719663 112.96186,155.46062 120.52005,155.87799 C 127.98176,156.29004 228.49123,100.30568 234.24117,105.07905 C 240.06547,109.91414 206.03548,221.15889 207.97414,228.47613 C 209.88806,235.69997 294.19148,313.99004 291.42857,320.93361 z "
       transform="matrix(1.5447653,0.6178336,-0.6178336,1.5447653,308.62511,-128.62713)" />
    <path
       sodipodi:type="inkscape:offset"
       inkscape:radius="-10.667147"
       inkscape:original="M 11.28125 92.75 C 4.9646781 96.743472 27.135174 209.65582 24.4375 216.625 C 21.704944 223.68429 -71.213708 293.66489 -69.34375 301 C -67.497661 308.24147 46.736793 322.03078 52.53125 326.75 C 58.40063 331.53026 96.258554 441.54303 103.8125 442.03125 C 111.27002 442.51325 159.68991 338.14628 165.96875 334.09375 C 172.32878 329.98882 288.63888 327.97084 291.4375 320.9375 C 294.20041 313.99393 209.88266 235.69259 207.96875 228.46875 C 206.03009 221.15151 240.0743 109.92884 234.25 105.09375 C 228.50005 100.32038 127.99296 156.28705 120.53125 155.875 C 112.97306 155.45763 17.679497 88.704892 11.28125 92.75 z "
       style="opacity:1;fill:url(#radialGradient6115);fill-opacity:1;stroke-width:1;stroke-linecap:round;stroke-miterlimit:4;stroke-dasharray:none;stroke-opacity:1;filter:url(#filter7126)"
       id="path3172"
       d="M 10.84375,103.125 C 10.828934,103.12124 11.156988,103.5808 12.09375,103.625 C 11.620009,103.4471 10.859683,103.12904 10.84375,103.125 z M 21.4375,108.375 C 21.546999,109.66165 21.511018,110.29485 21.65625,111.71875 C 22.766573,122.60472 24.86146,137.24692 27.0625,152 C 29.26354,166.75308 31.564869,181.64821 33.1875,193.4375 C 33.998815,199.33215 34.635272,204.44385 35,208.53125 C 35.182364,210.57495 35.326169,212.34867 35.34375,214.03125 C 35.361331,215.71383 35.862606,216.62566 34.375,220.46875 C 32.902983,224.27156 31.895678,224.63007 30.75,225.875 C 29.604322,227.11993 28.329947,228.36962 26.8125,229.78125 C 23.777605,232.60452 19.84458,236.02024 15.25,239.90625 C 6.0608405,247.67828 -5.741837,257.31969 -17.375,266.9375 C -29.008163,276.55531 -40.468532,286.16916 -48.6875,293.625 C -49.845634,294.6756 -50.293549,295.2294 -51.3125,296.1875 C -50.064631,296.47832 -49.480608,296.70095 -48.09375,297 C -37.397764,299.30641 -22.835848,301.849 -8.125,304.3125 C 6.5858476,306.776 21.473986,309.15174 33.1875,311.25 C 39.044257,312.29913 44.093669,313.27179 48.09375,314.1875 C 50.09379,314.64536 51.800469,315.09065 53.40625,315.59375 C 55.012031,316.09685 56.085417,315.86595 59.28125,318.46875 C 62.44319,321.04396 62.45121,322.11942 63.28125,323.59375 C 64.11129,325.06808 64.907418,326.68292 65.78125,328.5625 C 67.528915,332.32166 69.566996,337.11619 71.84375,342.6875 C 76.397258,353.83011 81.914535,368.02455 87.46875,382.0625 C 93.022965,396.10045 98.603631,409.97143 103.15625,420.09375 C 103.79966,421.52431 104.18311,422.13767 104.78125,423.40625 C 105.44978,422.29956 105.84203,421.80167 106.5625,420.5625 C 112.0617,411.10416 118.98554,398.07141 125.875,384.84375 C 132.76446,371.61609 139.63428,358.17786 145.25,347.6875 C 148.05786,342.44232 150.54912,337.95837 152.65625,334.4375 C 153.70982,332.67707 154.65028,331.18404 155.625,329.8125 C 156.59972,328.44096 156.72529,327.3596 160.1875,325.125 C 163.61295,322.91413 164.62275,323.20891 166.28125,322.875 C 167.93975,322.54109 169.72387,322.31287 171.78125,322.0625 C 175.896,321.56176 181.06112,321.10036 187.0625,320.65625 C 199.06526,319.76803 214.3099,318.91425 229.375,317.96875 C 244.4401,317.02325 259.37414,315.98386 270.40625,314.78125 C 271.95952,314.61193 272.64467,314.42626 274.03125,314.25 C 273.1875,313.2751 272.82796,312.75209 271.875,311.6875 C 264.57694,303.5346 254.29773,292.92112 243.84375,282.28125 C 233.38977,271.64138 222.74361,260.95758 214.5,252.375 C 210.3782,248.08371 206.88555,244.34203 204.1875,241.25 C 202.83848,239.70399 201.69095,238.31963 200.6875,236.96875 C 199.68405,235.61787 198.71191,235.17198 197.65625,231.1875 C 196.61186,227.24559 197.21106,226.36808 197.40625,224.6875 C 197.60144,223.00692 197.91452,221.25262 198.3125,219.21875 C 199.10847,215.15101 200.28556,210.09407 201.71875,204.25 C 204.58514,192.56187 208.49116,177.80514 212.25,163.1875 C 216.00884,148.56986 219.6077,134.04951 221.875,123.1875 C 222.19301,121.66398 222.23968,120.96217 222.5,119.59375 C 221.3167,120.09289 220.70753,120.26915 219.40625,120.84375 C 209.39888,125.26265 196.12861,131.75531 182.78125,138.40625 C 169.43389,145.05719 155.98954,151.84591 145.28125,157.03125 C 139.9271,159.62392 135.27395,161.8278 131.5,163.4375 C 129.61303,164.24235 127.96967,164.90089 126.375,165.4375 C 124.78033,165.97411 124.05147,166.75843 119.9375,166.53125 C 115.8656,166.3064 115.22562,165.4549 113.6875,164.75 C 112.14938,164.0451 110.56176,163.19453 108.75,162.1875 C 105.12648,160.17344 100.67926,157.51292 95.5625,154.34375 C 85.328988,148.0054 72.495005,139.74887 59.75,131.65625 C 47.004995,123.56363 34.320594,115.60719 24.6875,110.09375 C 23.328257,109.3158 22.665353,109.04887 21.4375,108.375 z "
       transform="matrix(1.5447653,0.6178336,-0.6178336,1.5447653,308.62511,-128.62713)"
       inkscape:transform-center-x="-78.51922"
       inkscape:transform-center-y="7.8346876" />
    <path
       transform="matrix(1.5447653,0.6178336,-0.6178336,1.5447653,308.62511,-128.62713)"
       d="M 291.42857,320.93361 C 288.62994,327.96697 172.31404,329.97905 165.95401,334.08398 C 159.67517,338.13651 111.26808,442.50679 103.81056,442.02479 C 96.256616,441.53656 58.399426,331.53534 52.530047,326.75508 C 46.735591,322.03584 -67.485056,308.25016 -69.331145,301.00869 C -71.201104,293.67359 21.717757,223.67702 24.450313,216.61772 C 27.147987,209.64854 4.9628335,96.758243 11.279405,92.764771 C 17.677653,88.719663 112.96186,155.46062 120.52005,155.87799 C 127.98176,156.29004 228.49123,100.30568 234.24117,105.07905 C 240.06547,109.91414 206.03548,221.15889 207.97414,228.47613 C 209.88806,235.69997 294.19148,313.99004 291.42857,320.93361 z "
       inkscape:randomized="0"
       inkscape:rounded="0.06"
       inkscape:flatsided="false"
       sodipodi:arg2="1.0070032"
       sodipodi:arg1="0.36933366"
       sodipodi:r2="96.685394"
       sodipodi:r1="189.95166"
       sodipodi:cy="252.36218"
       sodipodi:cx="114.28571"
       sodipodi:sides="5"
       id="path2244"
       style="opacity:1;fill:none;fill-opacity:1;stroke:#ffffff;stroke-width:16;stroke-linecap:round;stroke-miterlimit:4;stroke-dasharray:none;stroke-opacity:1;filter:url(#filter3228)"
       sodipodi:type="star" />
  </g>
</svg>
