<?xml version="1.0" encoding="UTF-8" standalone="no"?>
<!-- Created with Inkscape (http://www.inkscape.org/) -->
<svg
   xmlns:dc="http://purl.org/dc/elements/1.1/"
   xmlns:cc="http://creativecommons.org/ns#"
   xmlns:rdf="http://www.w3.org/1999/02/22-rdf-syntax-ns#"
   xmlns:svg="http://www.w3.org/2000/svg"
   xmlns="http://www.w3.org/2000/svg"
   xmlns:xlink="http://www.w3.org/1999/xlink"
   xmlns:sodipodi="http://sodipodi.sourceforge.net/DTD/sodipodi-0.dtd"
   xmlns:inkscape="http://www.inkscape.org/namespaces/inkscape"
   width="512"
   height="512"
   id="svg2"
   sodipodi:version="0.32"
   inkscape:version="0.46"
   version="1.0"
   sodipodi:docname="water.svg"
   inkscape:output_extension="org.inkscape.output.svg.inkscape"
   inkscape:export-filename="C:\Users\Fabian Bissig\Pictures\Secret Maryo Chronicles\water.png"
   inkscape:export-xdpi="90"
   inkscape:export-ydpi="90">
  <defs
     id="defs4">
    <linearGradient
       id="linearGradient3170">
      <stop
         style="stop-color:#0900bc;stop-opacity:1;"
         offset="0"
         id="stop3172" />
      <stop
         style="stop-color:#4192ff;stop-opacity:1;"
         offset="1"
         id="stop3174" />
    </linearGradient>
    <linearGradient
       inkscape:collect="always"
       xlink:href="#linearGradient3170"
       id="linearGradient3181"
       gradientUnits="userSpaceOnUse"
       x1="256.03891"
       y1="353.48148"
       x2="256"
       y2="-0.64533061"
       gradientTransform="matrix(1.0114871,0,0,0.6247732,-2.9800442,35.154244)" />
    <filter
       id="filter3185"
       inkscape:label="Wasser">
      <feTurbulence
         id="feTurbulence2390"
         result="result1"
         baseFrequency="0.059999999999999998"
         numOctaves="1"
         in="SourceAlpha"
         type="fractalNoise" />
      <feColorMatrix
         id="feColorMatrix2402"
         result="result2"
         values="0"
         type="luminanceToAlpha"
         in="result1" />
      <feDisplacementMap
         id="feDisplacementMap3163"
         result="result3"
         in="result2"
         scale="25.789473684210527"
         in2="result2" />
      <feMorphology
         id="feMorphology3173"
         result="result7"
         radius="3.6923076923076925"
         operator="dilate" />
      <feGaussianBlur
         stdDeviation="3.5"
         id="feGaussianBlur3187"
         result="result0"
         in="SourceGraphic" />
      <feComposite
         id="feComposite2392"
         in2="result0"
         operator="atop"
         in="result7"
         result="result9" />
    </filter>
    <filter
       id="filter3165"
       inkscape:label="Weichzeichnen">
      <feGaussianBlur
         stdDeviation="3"
         id="feGaussianBlur3167" />
    </filter>
    <linearGradient
       inkscape:collect="always"
       xlink:href="#linearGradient3170"
       id="linearGradient3175"
       gradientUnits="userSpaceOnUse"
       gradientTransform="matrix(1.0114871,0,0,0.6247732,-2.9800442,35.154244)"
       x1="256.03891"
       y1="353.48148"
       x2="256"
       y2="-0.64533061" />
    <linearGradient
       inkscape:collect="always"
       xlink:href="#linearGradient3170"
       id="linearGradient3177"
       gradientUnits="userSpaceOnUse"
       gradientTransform="matrix(1.0114871,0,0,0.6247732,-2.9800442,35.154244)"
       x1="256.03891"
       y1="353.48148"
       x2="256"
       y2="-0.64533061" />
  </defs>
  <sodipodi:namedview
     id="base"
     pagecolor="#ffffff"
     bordercolor="#666666"
     borderopacity="1.0"
     inkscape:pageopacity="0.0"
     inkscape:pageshadow="2"
     inkscape:zoom="0.64"
     inkscape:cx="341.90625"
     inkscape:cy="230.94339"
     inkscape:document-units="px"
     inkscape:current-layer="layer1"
     showgrid="true"
     objecttolerance="8"
     gridtolerance="8"
     guidetolerance="8"
     inkscape:object-paths="true"
     inkscape:object-nodes="true"
     inkscape:window-width="1680"
     inkscape:window-height="1000"
     inkscape:window-x="-8"
     inkscape:window-y="-8">
    <inkscape:grid
       type="xygrid"
       id="grid2396"
       visible="true"
       enabled="true"
       empspacing="32" />
  </sodipodi:namedview>
  <metadata
     id="metadata7">
    <rdf:RDF>
      <cc:Work
         rdf:about="">
        <dc:format>image/svg+xml</dc:format>
        <dc:type
           rdf:resource="http://purl.org/dc/dcmitype/StillImage" />
      </cc:Work>
    </rdf:RDF>
  </metadata>
  <g
     inkscape:label="Ebene 1"
     inkscape:groupmode="layer"
     id="layer1">
    <path
       style="fill:url(#linearGradient3175);fill-opacity:1;fill-rule:evenodd;stroke:#00124f;stroke-width:6.03991318000000010;stroke-linecap:butt;stroke-linejoin:miter;marker-start:none;stroke-miterlimit:4;stroke-dasharray:none;stroke-dashoffset:0;stroke-opacity:1"
       d="M -2.9059606,66.114 C -2.9059606,66.114 94.203765,-7.1273439 94.203765,14.022393 C 94.203765,35.678099 126.57368,66.114357 126.57368,66.114357 C 126.57368,66.114357 223.6834,-11.021821 223.6834,14.022393 C 223.6834,35.017904 256.03937,66.114357 256.03937,66.114357 C 256.03937,66.114357 353.16304,-11.021821 353.16304,14.022393 C 353.16304,34.570541 385.5097,66.114357 385.5097,66.114357 C 385.5097,66.114357 482.64268,-2.9698474 482.64268,14.022393 C 482.64268,31.014632 514.98005,66.114357 514.98005,66.114357 L 576,66.114 L 576,576 L -64,576 L -64,66.114 L -2.9059606,66.114 z"
       sodipodi:nodetypes="czczczczcccccc"
       id="path15" />
    <path
       id="path3169"
       sodipodi:nodetypes="czczczczcccccc"
       d="M -2.9059606,66.114 C -2.9059606,66.114 94.203765,-7.1273439 94.203765,14.022393 C 94.203765,35.678099 126.57368,66.114357 126.57368,66.114357 C 126.57368,66.114357 223.6834,-11.021821 223.6834,14.022393 C 223.6834,35.017904 256.03937,66.114357 256.03937,66.114357 C 256.03937,66.114357 353.16304,-11.021821 353.16304,14.022393 C 353.16304,34.570541 385.5097,66.114357 385.5097,66.114357 C 385.5097,66.114357 482.64268,-2.9698474 482.64268,14.022393 C 482.64268,31.014632 514.98005,66.114357 514.98005,66.114357 L 576,66.114 L 576,576 L -64,576 L -64,66.114 L -2.9059606,66.114 z"
       style="fill:url(#linearGradient3177);fill-opacity:1;fill-rule:evenodd;stroke:#001f8c;stroke-width:6.03991318000000010;stroke-linecap:butt;stroke-linejoin:miter;marker-start:none;stroke-miterlimit:4;stroke-dasharray:none;stroke-dashoffset:0;stroke-opacity:1;filter:url(#filter3165)" />
    <path
       id="path3195"
       sodipodi:nodetypes="czczczczcccccc"
       d="M -2.9059606,66.114 C -2.9059606,66.114 94.203765,-7.1273439 94.203765,14.022393 C 94.203765,35.678099 126.57368,66.114357 126.57368,66.114357 C 126.57368,66.114357 223.6834,-11.021821 223.6834,14.022393 C 223.6834,35.017904 256.03937,66.114357 256.03937,66.114357 C 256.03937,66.114357 353.16304,-11.021821 353.16304,14.022393 C 353.16304,34.570541 385.5097,66.114357 385.5097,66.114357 C 385.5097,66.114357 482.64268,-2.9698474 482.64268,14.022393 C 482.64268,31.014632 514.98005,66.114357 514.98005,66.114357 L 576,66.114 L 576,576 L -64,576 L -64,66.114 L -2.9059606,66.114 z"
       style="fill:url(#linearGradient3181);fill-opacity:1;fill-rule:evenodd;stroke:#91aaff;stroke-width:6.03991318000000010;stroke-linecap:butt;stroke-linejoin:miter;marker-start:none;stroke-miterlimit:4;stroke-dasharray:none;stroke-dashoffset:0;stroke-opacity:1;filter:url(#filter3185);opacity:0.29999999999999999" />
  </g>
</svg>
