<?xml version="1.0" encoding="UTF-8" standalone="no"?>
<!-- Created with Inkscape (http://www.inkscape.org/) -->
<svg
   xmlns:dc="http://purl.org/dc/elements/1.1/"
   xmlns:cc="http://creativecommons.org/ns#"
   xmlns:rdf="http://www.w3.org/1999/02/22-rdf-syntax-ns#"
   xmlns:svg="http://www.w3.org/2000/svg"
   xmlns="http://www.w3.org/2000/svg"
   xmlns:xlink="http://www.w3.org/1999/xlink"
   xmlns:sodipodi="http://sodipodi.sourceforge.net/DTD/sodipodi-0.dtd"
   xmlns:inkscape="http://www.inkscape.org/namespaces/inkscape"
   width="1024"
   height="512"
   id="svg2"
   sodipodi:version="0.32"
   inkscape:version="0.46"
   version="1.0"
   sodipodi:docname="cave_back-foregrounds.svg"
   inkscape:output_extension="org.inkscape.output.svg.inkscape"
   sodipodi:docbase="D:\Dateien\Desktop\Secret Maryo Chronicles\Drafts\Game\youngheart80\Backgrounds"
   inkscape:export-filename="D:\Dateien\Desktop\Secret Maryo Chronicles\SMC\data\pixmaps\game\background\stalagtites_background_1.png"
   inkscape:export-xdpi="360"
   inkscape:export-ydpi="360">
  <defs
     id="defs4">
    <inkscape:perspective
       sodipodi:type="inkscape:persp3d"
       inkscape:vp_x="0 : 256 : 1"
       inkscape:vp_y="0 : 1000 : 0"
       inkscape:vp_z="1024 : 256 : 1"
       inkscape:persp3d-origin="512 : 170.66667 : 1"
       id="perspective152" />
    <linearGradient
       id="linearGradient3331">
      <stop
         id="stop3333"
         offset="0"
         style="stop-color:#000000;stop-opacity:1;" />
      <stop
         style="stop-color:#000000;stop-opacity:0.12371134;"
         offset="0.35188472"
         id="stop3335" />
      <stop
         id="stop3337"
         offset="1"
         style="stop-color:#000000;stop-opacity:0;" />
    </linearGradient>
    <linearGradient
       id="linearGradient3323">
      <stop
         id="stop3325"
         offset="0"
         style="stop-color:#000000;stop-opacity:1;" />
      <stop
         style="stop-color:#000000;stop-opacity:0.12371134;"
         offset="0.4166255"
         id="stop3327" />
      <stop
         id="stop3329"
         offset="1"
         style="stop-color:#000000;stop-opacity:0;" />
    </linearGradient>
    <linearGradient
       id="linearGradient3315">
      <stop
         id="stop3317"
         offset="0"
         style="stop-color:#000000;stop-opacity:1;" />
      <stop
         style="stop-color:#000000;stop-opacity:0.12371134;"
         offset="0.36102778"
         id="stop3319" />
      <stop
         id="stop3321"
         offset="1"
         style="stop-color:#000000;stop-opacity:0;" />
    </linearGradient>
    <linearGradient
       id="linearGradient3307">
      <stop
         style="stop-color:#000000;stop-opacity:1;"
         offset="0"
         id="stop3309" />
      <stop
         id="stop3311"
         offset="0.38685235"
         style="stop-color:#000000;stop-opacity:0;" />
      <stop
         style="stop-color:#000000;stop-opacity:0;"
         offset="1"
         id="stop3313" />
    </linearGradient>
    <linearGradient
       id="linearGradient3299">
      <stop
         style="stop-color:#000000;stop-opacity:1;"
         offset="0"
         id="stop3301" />
      <stop
         id="stop3303"
         offset="0.37586117"
         style="stop-color:#000000;stop-opacity:0;" />
      <stop
         style="stop-color:#000000;stop-opacity:0;"
         offset="1"
         id="stop3305" />
    </linearGradient>
    <linearGradient
       id="linearGradient3291">
      <stop
         style="stop-color:#000000;stop-opacity:1;"
         offset="0"
         id="stop3293" />
      <stop
         id="stop3295"
         offset="0.32955864"
         style="stop-color:#000000;stop-opacity:0;" />
      <stop
         style="stop-color:#000000;stop-opacity:0;"
         offset="1"
         id="stop3297" />
    </linearGradient>
    <linearGradient
       id="linearGradient3283">
      <stop
         style="stop-color:#000000;stop-opacity:1;"
         offset="0"
         id="stop3285" />
      <stop
         id="stop3287"
         offset="0.5107469"
         style="stop-color:#000000;stop-opacity:0;" />
      <stop
         style="stop-color:#000000;stop-opacity:0;"
         offset="1"
         id="stop3289" />
    </linearGradient>
    <linearGradient
       id="linearGradient4583">
      <stop
         id="stop4585"
         offset="0"
         style="stop-color:#000000;stop-opacity:1;" />
      <stop
         style="stop-color:#000000;stop-opacity:0;"
         offset="0.30000001"
         id="stop4587" />
      <stop
         id="stop4589"
         offset="1"
         style="stop-color:#000000;stop-opacity:0;" />
    </linearGradient>
    <linearGradient
       id="linearGradient3159">
      <stop
         style="stop-color:#000000;stop-opacity:1;"
         offset="0"
         id="stop3161" />
      <stop
         id="stop8062"
         offset="0.30000001"
         style="stop-color:#000000;stop-opacity:0.12371134;" />
      <stop
         style="stop-color:#000000;stop-opacity:0;"
         offset="1"
         id="stop3163" />
    </linearGradient>
    <filter
       inkscape:collect="always"
       id="filter6110">
      <feGaussianBlur
         inkscape:collect="always"
         stdDeviation="8.1721058"
         id="feGaussianBlur6112" />
    </filter>
    <filter
       inkscape:collect="always"
       x="-0.20744862"
       width="1.4148972"
       y="-0.1174693"
       height="1.2349386"
       id="filter14140">
      <feGaussianBlur
         inkscape:collect="always"
         stdDeviation="6.3162617"
         id="feGaussianBlur14142" />
    </filter>
    <filter
       inkscape:collect="always"
       x="-0.1314583"
       width="1.2629166"
       y="-0.080690548"
       height="1.1613811"
       id="filter14160">
      <feGaussianBlur
         inkscape:collect="always"
         stdDeviation="10.052452"
         id="feGaussianBlur14162" />
    </filter>
    <filter
       inkscape:collect="always"
       x="-0.12200301"
       width="1.244006"
       y="-0.071297675"
       height="1.1425953"
       id="filter14164">
      <feGaussianBlur
         inkscape:collect="always"
         stdDeviation="8.7619295"
         id="feGaussianBlur14166" />
    </filter>
    <filter
       inkscape:collect="always"
       x="-0.052659214"
       width="1.1053184"
       y="-0.16639015"
       height="1.3327802"
       id="filter14172">
      <feGaussianBlur
         inkscape:collect="always"
         stdDeviation="7.583751"
         id="feGaussianBlur14174" />
    </filter>
    <filter
       inkscape:collect="always"
       x="-0.15383607"
       width="1.3076721"
       y="-0.098364778"
       height="1.1967295"
       id="filter14180">
      <feGaussianBlur
         inkscape:collect="always"
         stdDeviation="5.131875"
         id="feGaussianBlur14182" />
    </filter>
    <filter
       inkscape:collect="always"
       x="-0.12522183"
       width="1.2504437"
       y="-0.098077767"
       height="1.1961555"
       id="filter14184">
      <feGaussianBlur
         inkscape:collect="always"
         stdDeviation="7.5074407"
         id="feGaussianBlur14186" />
    </filter>
    <filter
       inkscape:collect="always"
       x="-0.2092983"
       width="1.4185966"
       y="-0.14312629"
       height="1.2862526"
       id="filter15213">
      <feGaussianBlur
         inkscape:collect="always"
         stdDeviation="1.2328978"
         id="feGaussianBlur15215" />
    </filter>
    <filter
       inkscape:collect="always"
       x="-0.085699499"
       width="1.171399"
       y="-0.60072559"
       height="2.2014513"
       id="filter15217">
      <feGaussianBlur
         inkscape:collect="always"
         stdDeviation="3.4136498"
         id="feGaussianBlur15219" />
    </filter>
    <filter
       inkscape:collect="always"
       x="-0.12195166"
       width="1.2439033"
       y="-0.34350795"
       height="1.6870159"
       id="filter15221">
      <feGaussianBlur
         inkscape:collect="always"
         stdDeviation="3.087678"
         id="feGaussianBlur15223" />
    </filter>
    <linearGradient
       inkscape:collect="always"
       xlink:href="#linearGradient3159"
       id="linearGradient2408"
       gradientUnits="userSpaceOnUse"
       gradientTransform="matrix(0.5117561,0,0,0.62577,0.244122,8.7585436)"
       x1="1678.1101"
       y1="772.90936"
       x2="1678.1101"
       y2="512.44568" />
    <linearGradient
       inkscape:collect="always"
       xlink:href="#linearGradient3159"
       id="linearGradient2411"
       gradientUnits="userSpaceOnUse"
       gradientTransform="matrix(0.5117561,0,0,0.62577,0.244122,-41.812885)"
       x1="1657.1428"
       y1="71.424026"
       x2="1657.1428"
       y2="363.32242" />
    <linearGradient
       inkscape:collect="always"
       xlink:href="#linearGradient3159"
       id="linearGradient2414"
       gradientUnits="userSpaceOnUse"
       gradientTransform="matrix(0.5117561,0,0,0.62577,0.244122,8.7585436)"
       x1="790"
       y1="790.00861"
       x2="790"
       y2="472.3876" />
    <linearGradient
       inkscape:collect="always"
       xlink:href="#linearGradient3315"
       id="linearGradient2417"
       gradientUnits="userSpaceOnUse"
       gradientTransform="matrix(0.5117561,0,0,0.62577,0.244122,-43.812885)"
       x1="1270"
       y1="68.968018"
       x2="1270"
       y2="115.72751" />
    <linearGradient
       inkscape:collect="always"
       xlink:href="#linearGradient3159"
       id="linearGradient2420"
       gradientUnits="userSpaceOnUse"
       gradientTransform="matrix(0.5117561,0,0,0.62577,-508.3273,15.901401)"
       x1="1292.8572"
       y1="797.14288"
       x2="1292.8572"
       y2="537.91187" />
    <linearGradient
       inkscape:collect="always"
       xlink:href="#linearGradient3159"
       id="linearGradient2423"
       gradientUnits="userSpaceOnUse"
       gradientTransform="matrix(0.5117561,0,0,0.62577,-45.470164,-45.241456)"
       x1="902.85712"
       y1="64.891289"
       x2="902.85712"
       y2="324.86969" />
    <linearGradient
       inkscape:collect="always"
       xlink:href="#linearGradient3159"
       id="linearGradient2426"
       gradientUnits="userSpaceOnUse"
       gradientTransform="matrix(0.5117561,0,0,0.62577,0.244122,10.758544)"
       x1="591.42859"
       y1="805.96918"
       x2="591.42859"
       y2="689.74542" />
    <linearGradient
       inkscape:collect="always"
       xlink:href="#linearGradient3323"
       id="linearGradient2429"
       gradientUnits="userSpaceOnUse"
       gradientTransform="matrix(0.5117561,0,0,0.62577,0.244122,-43.812885)"
       x1="545"
       y1="71.398659"
       x2="545"
       y2="115.44159" />
    <linearGradient
       inkscape:collect="always"
       xlink:href="#linearGradient3331"
       id="linearGradient2432"
       gradientUnits="userSpaceOnUse"
       gradientTransform="matrix(0.5117561,0,0,0.62577,0.244122,-45.812885)"
       x1="457.14285"
       y1="65.714287"
       x2="457.14285"
       y2="340.71118" />
    <linearGradient
       inkscape:collect="always"
       xlink:href="#linearGradient3159"
       id="linearGradient2454"
       gradientUnits="userSpaceOnUse"
       gradientTransform="matrix(0.52372,0,0,0.7977301,354.1621,-122.82703)"
       spreadMethod="reflect"
       x1="282.85715"
       y1="142.5155"
       x2="282.85715"
       y2="471.25955" />
    <linearGradient
       inkscape:collect="always"
       xlink:href="#linearGradient4583"
       id="linearGradient2595"
       gradientUnits="userSpaceOnUse"
       gradientTransform="matrix(0.6179508,0,0,0.62577,-591.04311,8.4974547)"
       x1="1678.1101"
       y1="772.90936"
       x2="1678.1101"
       y2="512.44568" />
    <linearGradient
       inkscape:collect="always"
       xlink:href="#linearGradient4583"
       id="linearGradient2598"
       gradientUnits="userSpaceOnUse"
       gradientTransform="matrix(-0.6811044,0,0,0.829699,1587.7206,-54.812465)"
       x1="1657.1428"
       y1="71.424026"
       x2="1657.1428"
       y2="363.32242" />
    <linearGradient
       inkscape:collect="always"
       xlink:href="#linearGradient4583"
       id="linearGradient2601"
       gradientUnits="userSpaceOnUse"
       gradientTransform="matrix(0.4794981,0,0,0.7906589,272.10664,-123.8117)"
       x1="790"
       y1="790.00861"
       x2="790"
       y2="472.3876" />
    <linearGradient
       inkscape:collect="always"
       xlink:href="#linearGradient4583"
       id="linearGradient2604"
       gradientUnits="userSpaceOnUse"
       gradientTransform="matrix(-0.2908258,0,0,-2.1899677,676.43056,669.01639)"
       x1="1270"
       y1="68.968018"
       x2="1270"
       y2="115.72751" />
    <linearGradient
       inkscape:collect="always"
       xlink:href="#linearGradient3299"
       id="linearGradient2607"
       gradientUnits="userSpaceOnUse"
       gradientTransform="matrix(-0.151362,0,0,-0.5085031,479.66509,402.90739)"
       x1="1292.8572"
       y1="797.14288"
       x2="1292.8572"
       y2="537.91187" />
    <linearGradient
       inkscape:collect="always"
       xlink:href="#linearGradient3283"
       id="linearGradient2610"
       gradientUnits="userSpaceOnUse"
       gradientTransform="matrix(-0.8058737,0,0,0.62577,1537.7563,-45.113465)"
       x1="902.85712"
       y1="64.891289"
       x2="902.85712"
       y2="324.86969" />
    <linearGradient
       inkscape:collect="always"
       xlink:href="#linearGradient3291"
       id="linearGradient2613"
       gradientUnits="userSpaceOnUse"
       gradientTransform="matrix(-1.0971219,0,0,-2.9108571,1276.1962,2334.2486)"
       x1="591.42859"
       y1="805.96918"
       x2="591.42859"
       y2="689.74542" />
    <linearGradient
       inkscape:collect="always"
       xlink:href="#linearGradient4583"
       id="linearGradient2616"
       gradientUnits="userSpaceOnUse"
       gradientTransform="matrix(-1.6170187,0,0,-1.9742151,1733.9814,659.80445)"
       x1="544.28571"
       y1="79.959541"
       x2="544.28571"
       y2="122.86102" />
    <linearGradient
       inkscape:collect="always"
       xlink:href="#linearGradient4583"
       id="linearGradient2619"
       gradientUnits="userSpaceOnUse"
       gradientTransform="matrix(-0.75791,0,0,-0.2573207,1288.987,531.66445)"
       x1="457.14285"
       y1="65.714287"
       x2="457.14285"
       y2="340.71118" />
    <linearGradient
       inkscape:collect="always"
       xlink:href="#linearGradient3159"
       id="linearGradient2641"
       gradientUnits="userSpaceOnUse"
       gradientTransform="matrix(-0.8582174,0,0,0.7999063,357.33397,-118.85257)"
       spreadMethod="reflect"
       x1="282.85715"
       y1="142.5155"
       x2="282.85715"
       y2="471.25955" />
    <linearGradient
       inkscape:collect="always"
       xlink:href="#linearGradient3307"
       id="linearGradient4597"
       gradientUnits="userSpaceOnUse"
       gradientTransform="matrix(-1.78595,0,0,-0.4142869,2321.4754,330.89782)"
       x1="790"
       y1="790.00861"
       x2="790"
       y2="472.3876" />
    <filter
       inkscape:collect="always"
       id="filter3275"
       x="-0.14769475"
       width="1.2953895"
       y="-0.086311734"
       height="1.1726235">
      <feGaussianBlur
         inkscape:collect="always"
         stdDeviation="8.8392008"
         id="feGaussianBlur3277" />
    </filter>
    <filter
       inkscape:collect="always"
       id="filter3279"
       x="-0.10152767"
       width="1.2030553"
       y="-0.32080242"
       height="1.6416048">
      <feGaussianBlur
         inkscape:collect="always"
         stdDeviation="12.184644"
         id="feGaussianBlur3281" />
    </filter>
  </defs>
  <sodipodi:namedview
     id="base"
     pagecolor="#000000"
     bordercolor="#666666"
     borderopacity="1.0"
     gridtolerance="10000"
     guidetolerance="10"
     objecttolerance="10"
     inkscape:pageopacity="0"
     inkscape:pageshadow="2"
     inkscape:zoom="0.9899495"
     inkscape:cx="256.21156"
     inkscape:cy="249.2155"
     inkscape:document-units="px"
     inkscape:current-layer="layer1"
     width="1024px"
     height="512px"
     inkscape:window-width="971"
     inkscape:window-height="773"
     inkscape:window-x="206"
     inkscape:window-y="112"
     showgrid="false" />
  <metadata
     id="metadata7">
    <rdf:RDF>
      <cc:Work
         rdf:about="">
        <dc:format>image/svg+xml</dc:format>
        <dc:type
           rdf:resource="http://purl.org/dc/dcmitype/StillImage" />
      </cc:Work>
    </rdf:RDF>
  </metadata>
  <g
     inkscape:label="Layer 1"
     inkscape:groupmode="layer"
     id="layer1"
     style="display:inline">
    <path
       sodipodi:nodetypes="csssssssssssssssssccsssssssssssssssc"
       d="M 561.34001,515.29324 C 560.62668,511.07344 557.64024,509.06352 554.31149,499.51961 C 551.51591,491.50439 549.81918,485.69942 548.26808,475.46822 C 546.79368,465.74305 546.15775,451.80253 545.24715,441.59085 C 545.15759,440.58658 539.29458,424.58348 538.3114,420.02423 C 535.81391,408.44265 533.54825,416.57578 531.72112,396.08595 C 530.37849,381.02937 529.03585,365.97275 527.69322,350.91614 C 526.54267,338.01367 520.62211,331.24695 518.65676,318.28335 C 516.91698,306.80765 516.11304,289.75742 515.03164,277.63051 C 513.68876,262.57096 514.55667,255.97475 514.19818,243.30059 C 513.761,227.84306 513.25032,222.30619 514.45846,208.74437 C 515.39623,198.21765 514.34113,190.21258 516.41665,180.73735 C 518.45053,171.45225 520.05463,168.59295 520.41823,156.90787 C 520.77342,145.49359 521.30201,137.23721 521.62816,126.7555 C 522.14844,110.03569 520.42835,106.80971 523.18357,94.231479 C 524.95908,86.125841 524.85821,75.337187 525.14176,66.224448 C 525.41318,57.50217 523.63908,43.127166 522.6677,32.233937 C 521.60144,20.276641 524.09258,12.635486 524.4245,1.9684199 C 524.66342,-5.7096693 533.03784,-8.367444 533.20126,-8.4012519 C 506.7021,-2.5613088 480.44298,-8.182039 469.76234,-8.736 C 463.25283,-17.720577 472.99261,26.82906 473.62556,37.285157 C 474.22721,47.224099 473.62556,61.168148 473.62556,71.473586 C 473.62556,72.487081 478.02119,89.54655 478.59256,94.26588 C 480.04396,106.25408 483.00766,98.659441 483.00766,119.3374 C 483.00766,134.53227 483.00766,149.72713 483.00766,164.92199 C 483.00766,177.94294 488.27644,185.86186 489.07843,199.11042 C 489.78837,210.83838 489.07843,227.89829 489.07843,240.13655 C 489.07843,255.33439 487.63557,261.69265 486.87088,274.32499 C 485.93825,289.73149 485.95504,295.3227 483.55955,308.51342 C 481.70017,318.7521 482.03832,326.90065 479.14444,335.86418 C 476.30863,344.64782 474.46649,347.15226 473.07367,358.65646 C 471.71314,369.89407 470.45982,377.96697 469.21046,388.28645 C 467.21754,404.74746 468.63693,408.29672 464.79534,420.19566 C 462.31978,427.86353 461.46644,438.57471 460.38024,447.54639 C 459.34058,456.13367 459.82835,470.74158 459.82835,481.73484 C 459.82835,493.80194 455.49438,504.79127 454.22291,515.29324"
       style="fill:#c8beb7;fill-opacity:1;fill-rule:evenodd;stroke:#000000;stroke-width:1.04348934px;stroke-linecap:butt;stroke-linejoin:miter;stroke-opacity:1"
       id="path4136" />
    <path
       style="fill:#4e4a3b;fill-opacity:1;fill-rule:evenodd;stroke:none;stroke-width:1px;stroke-linecap:butt;stroke-linejoin:miter;stroke-opacity:1;filter:url(#filter6110)"
       d="M 293.02679,133.125 C 269.57275,134.32655 246.11843,135.53738 222.65179,136.46875 C 232.5559,160.45486 240.58203,206.8506 237.84375,232.71875 C 237.0086,244.99596 243.58377,255.55233 246.38961,267.06999 C 249.13239,276.63168 255.81456,284.90843 255.75,295.28125 C 256.31709,309.23153 255.4063,323.20117 255.79768,337.15572 C 255.15143,353.15054 255.23986,369.80897 262.875,384.21875 C 268.23755,397.04706 268.50171,411.09163 267.94992,424.78121 C 268.32169,459.54107 264.68029,494.14135 259.48491,528.36021 C 256.19537,543.57555 254.2635,559.14621 249.19865,573.86896 C 245.0381,584.46394 237.96989,593.84115 236.3125,605.34375 C 232.59015,625.17493 228.40223,644.72289 226,664.78125 C 223.50087,679.97779 214.49619,693.51491 213.34375,709.03125 C 208.40127,733.74285 216.02783,760.31292 205.75,784.0625 C 201.48971,791.01211 208.17157,810.81433 215.20089,809.69643 C 271.49451,809.57488 328.85572,809.95859 384.48214,809.41518 C 367.94181,785.81877 361.51378,737.5888 358.78125,709.625 C 355.25787,699.70807 348.68763,691.13471 345.40625,681.15625 C 339.47361,672.70353 333.53593,663.83493 333.27903,653.10639 C 330.13713,633.65291 328.6318,613.97422 325.125,594.65625 C 322.92201,580.06656 311.6334,569.28702 308.40625,555.15625 C 304.71993,541.633 304.38009,527.43045 302.14375,513.61141 C 299.20828,485.88485 298.64439,457.94776 298.78767,430.09494 C 299.82085,414.38704 299.96522,398.50693 302.59041,382.99223 C 304.93833,371.25695 311.47746,360.71355 311.46163,348.50376 C 312.78115,328.04198 313.80383,307.57109 313.79994,287.06375 C 314.47238,272.38556 320.79288,258.61086 320.34375,243.78125 C 321.74107,222.10347 314.23386,201.07426 315.50437,179.47357 C 316.36249,170.22339 313.89977,141.08187 315.55804,131.9375 C 308.04762,132.33333 300.53721,132.72917 293.02679,133.125 z"
       id="path4138"
       sodipodi:nodetypes="cccccccccccccccccccccccccccccc"
       transform="matrix(0.52372,0,0,0.7977301,353.8676,-122.49206)" />
    <path
       id="path7083"
       style="fill:url(#linearGradient2454);fill-opacity:1;fill-rule:evenodd;stroke:#000000;stroke-width:1.04348934px;stroke-linecap:butt;stroke-linejoin:miter;stroke-opacity:1"
       d="M 561.63449,514.95827 C 560.92117,510.73849 557.93473,508.72857 554.60597,499.18466 C 551.81038,491.16943 550.11367,485.36445 548.56256,475.13325 C 547.08817,465.40809 546.45222,451.46756 545.54163,441.2559 C 545.45208,440.25163 539.58905,424.24853 538.60588,419.68926 C 536.1084,408.1077 533.84273,416.24083 532.01561,395.751 C 530.67297,380.69442 529.33033,365.6378 527.9877,350.58119 C 526.83715,337.67871 520.9166,330.91199 518.95125,317.94839 C 517.21146,306.4727 516.40752,289.42247 515.32613,277.29556 C 513.98324,262.23601 514.85114,255.6398 514.49267,242.96563 C 514.05548,227.50811 513.5448,221.97123 514.75295,208.4094 C 515.69071,197.8827 514.6356,189.87761 516.71113,180.40238 C 518.745,171.11728 520.3491,168.25798 520.71272,156.5729 C 521.0679,145.15864 521.5965,136.90225 521.92265,126.42054 C 522.44292,109.70073 520.72282,106.47476 523.47805,93.896527 C 525.25357,85.790889 525.15268,75.002234 525.43625,65.889496 C 525.70766,57.167211 523.93356,42.792207 522.96219,31.89898 C 521.89592,19.941682 524.38706,12.300526 524.71898,1.6334601 C 524.9579,-6.044628 533.33232,-8.7021921 533.49574,-8.736 C 533.65916,-8.7698068 461.13443,-7.282001 463.98606,-8.736 C 466.83769,-10.189999 467.60167,1.7391766 470.05683,11.878677 C 472.11873,20.394102 473.2871,26.494102 473.92005,36.950199 C 474.5217,46.889141 473.92005,60.833189 473.92005,71.138623 C 473.92005,72.152129 478.31567,89.211586 478.88704,93.930928 C 480.33844,105.91913 483.30214,98.324478 483.30214,119.00244 C 483.30214,134.1973 483.30214,149.39217 483.30214,164.58703 C 483.30214,177.60799 488.57092,185.52691 489.37291,198.77546 C 490.08287,210.50343 489.37291,227.56333 489.37291,239.80159 C 489.37291,254.99944 487.93006,261.35769 487.16537,273.99004 C 486.23273,289.39654 486.24952,294.98773 483.85404,308.17846 C 481.99465,318.41714 482.3328,326.5657 479.43893,335.52923 C 476.60312,344.31286 474.76096,346.81731 473.36815,358.32151 C 472.00763,369.55911 470.7543,377.63202 469.50493,387.95149 C 467.51201,404.41249 468.93142,407.96174 465.08983,419.8607 C 462.61425,427.52856 461.76091,438.23976 460.67472,447.21144 C 459.63507,455.79871 460.12284,470.40662 460.12284,481.39988 C 460.12284,493.46698 455.78886,504.45632 454.5174,514.95827"
       sodipodi:nodetypes="csssssssssssssssssccssssssssssssssssc" />
    <path
       style="fill:#c8beb7;fill-opacity:1;fill-rule:evenodd;stroke:#000000;stroke-width:1px;stroke-linecap:butt;stroke-linejoin:miter;stroke-opacity:1"
       d="M 207.1398,-4.07121 C 207.87629,-0.561861 210.53696,6.712484 211.69062,10.000305 C 214.0849,14.868958 215.4886,20.515443 215.28105,26.221746 C 215.84525,33.918655 217.48271,41.48009 217.47888,49.238775 C 218.25881,55.46195 222.55274,60.09416 223.03099,66.43662 C 223.31817,70.54881 226.04499,74.03292 229.5719,73.38238 C 233.15817,74.41017 235.74994,71.05675 235.69614,66.87118 C 237.03994,62.52008 238.37989,58.1665 239.19298,53.604384 C 240.51411,46.128347 242.63814,38.797289 242.88976,31.096013 C 242.6827,27.52985 243.79951,24.334486 245.65103,21.616855 C 247.40102,18.273779 246.30787,14.166613 246.77214,10.453394 C 246.86628,6.973674 248.63085,3.895074 251.20791,2.457279 C 252.59148,1.435654 254.10985,-2.097591 254.66001,-4.071"
       id="path8064"
       sodipodi:nodetypes="ccccccccccccc" />
    <path
       style="fill:#c8beb7;fill-opacity:1;fill-rule:evenodd;stroke:#000000;stroke-width:1px;stroke-linecap:butt;stroke-linejoin:miter;stroke-opacity:1"
       d="M 272.20593,-0.96 C 274.82152,-3.358739 273.42055,11.479373 276.59242,12.44901 C 277.56719,12.746995 278.54196,13.044981 279.51674,13.342966 C 282.67094,14.307196 280.25596,5.277429 281.70998,1.721522 C 281.72953,1.673701 285.38403,-0.30698 286.09646,-0.960346"
       id="path8066"
       sodipodi:nodetypes="csssc" />
    <path
       style="fill:#c8beb7;fill-opacity:1;fill-rule:evenodd;stroke:#000000;stroke-width:1px;stroke-linecap:butt;stroke-linejoin:miter;stroke-opacity:1"
       d="M 283.38626,514.797 C 284.59856,511.83225 288.23662,504.15119 291.42815,503.17555 C 298.04065,501.15413 294.64307,499.84958 300.93219,501.38764 C 302.42742,501.75331 305.49721,508.64845 308.24299,510.32721 C 310.96709,511.99271 311.80965,511.00413 313.36055,514.79699"
       id="path8068"
       sodipodi:nodetypes="csssc" />
    <path
       style="fill:#c8beb7;fill-opacity:1;fill-rule:evenodd;stroke:#000000;stroke-width:1px;stroke-linecap:butt;stroke-linejoin:miter;stroke-opacity:1"
       d="M 377.09416,-3.391331 C 383.25024,4.0649 379.07753,16.868029 385.68818,24.110124 C 389.89556,28.719395 394.15901,34.567792 394.19624,42.146649 C 394.22839,48.691483 399.26161,53.600605 400.57984,59.66573 C 401.76574,65.12209 402.00183,72.62816 407.24152,74.70122 C 412.72428,76.87045 412.97096,85.42478 412.89767,91.49279 C 412.83452,96.72095 418.6815,107.35884 420.64454,102.9594 C 425.70233,91.62415 434.92838,72.30926 438.73048,55.167829 C 440.52814,47.063248 437.28301,37.053863 442.14608,29.791258 C 445.68554,24.505354 445.29102,17.060285 446.06208,10.556081 C 446.70793,5.108103 451.46953,1.466872 451.66434,-4.285287"
       id="path8070"
       sodipodi:nodetypes="cssssssssss" />
    <path
       style="fill:#c8beb7;fill-opacity:1;fill-rule:evenodd;stroke:#000000;stroke-width:1px;stroke-linecap:butt;stroke-linejoin:miter;stroke-opacity:1"
       d="M 55.335502,517.51981 C 59.932812,509.35631 68.854102,506.8563 73.087602,498.28084 C 80.496292,491.19062 82.712762,477.39802 92.291612,473.49488 C 99.516536,467.75261 105.09729,457.44047 114.40552,456.76653 C 124.98219,452.54747 136.20699,452.5581 147.18672,453.2475 C 155.52855,453.26792 165.14726,451.65716 171.88458,459.08029 C 176.89391,464.06712 182.29375,469.84903 189.18056,469.52618 C 198.77726,472.33364 202.11442,485.02032 208.15217,493.07114 C 211.61743,501.47147 212.90214,513.60017 222.56015,513.97887 C 224.42423,515.1182 226.06481,517.48921 225.67711,520.20168"
       id="path8072" />
    <path
       style="fill:#c8beb7;fill-opacity:1;fill-rule:evenodd;stroke:#000000;stroke-width:1px;stroke-linecap:butt;stroke-linejoin:miter;stroke-opacity:1"
       d="M 619.469,0 C 623.60461,0 624.93348,7.365068 628.24199,10.399264 C 630.62861,12.588057 636.30189,11.29322 639.20815,11.29322 C 643.35097,11.29322 647.49374,11.29322 651.63651,11.29322 C 656.16186,11.29322 658.36431,8.475553 661.14059,5.929477 C 662.82032,4.388987 671.90763,4.649426 673.56894,4.141564 C 677.35722,2.983489 679.83719,1.531371 682.34187,0"
       id="path8074"
       sodipodi:nodetypes="csssssc" />
    <path
       style="fill:#c8beb7;fill-opacity:1;fill-rule:evenodd;stroke:#000000;stroke-width:1px;stroke-linecap:butt;stroke-linejoin:miter;stroke-opacity:1"
       d="M 382.59905,513.953 C 384.49458,510.50632 384.60774,505.27885 385.40626,501.34791 C 386.09897,497.11662 386.09835,492.76031 386.697,488.52849 C 388.07891,482.68783 391.99371,477.64906 391.3819,471.21568 C 391.53452,462.92154 390.69648,454.41803 392.71423,446.35342 C 393.59594,443.84979 393.00396,440.16995 394.15517,438.32367 C 397.58861,437.18813 400.74833,439.92394 404.05317,440.54707 C 408.16698,442.14573 409.26669,447.79766 410.22168,452.31226 C 410.71716,455.41723 411.95029,458.20372 412.8355,461.13221 C 413.61476,465.27403 413.11778,469.67209 414.46275,473.68199 C 415.89045,479.69857 418.93366,484.8632 422.38092,489.39634 C 424.7754,492.79355 426.23548,497.09822 426.30416,501.5993 C 426.44379,505.3975 426.33523,509.32564 427.67172,512.86208 L 427.80522,513.40519 L 427.92601,513.95278"
       id="path8076"
       sodipodi:nodetypes="ccccccccccccccc" />
    <path
       style="fill:#c8beb7;fill-opacity:1;fill-rule:evenodd;stroke:#000000;stroke-width:1px;stroke-linecap:butt;stroke-linejoin:miter;stroke-opacity:1"
       d="M 802.23906,-5.914 C 809.8502,9.063918 823.4166,24.803129 827.21378,42.572806 C 830.39353,58.75884 835.257,74.47089 837.87494,90.78763 C 838.89646,108.01523 846.72556,122.90652 851.76303,138.57034 C 853.36575,146.40571 853.57193,159.20471 861.82385,160.66571 C 870.11343,159.49306 868.45078,147.25655 868.63015,139.92276 C 868.71551,129.76884 869.61349,118.65374 875.57443,110.89108 C 883.14043,95.69343 876.25813,76.58936 883.01203,61.03554 C 887.67567,46.696406 889.88205,31.127117 889.17015,15.704825 C 890.02238,8.396814 893.01344,1.581334 892.89297,-5.913701"
       id="path8078"
       sodipodi:nodetypes="cccccccccc" />
    <path
       style="fill:#c8beb7;fill-opacity:1;fill-rule:evenodd;stroke:#000000;stroke-width:1px;stroke-linecap:butt;stroke-linejoin:miter;stroke-opacity:1"
       d="M 820.51607,516.111 C 820.85659,497.14362 822.16782,472.14617 836.6674,460.96269 C 843.23881,447.54213 839.68154,430.65655 842.17512,415.79434 C 843.62969,399.81758 846.14814,384.08269 847.95515,368.22183 C 849.89814,354.62772 869.11852,343.06698 871.7424,362.43288 C 873.53052,378.82602 884.29772,390.5793 889.44092,405.55722 C 894.79179,424.41676 888.24848,447.38222 894.14426,466.09167 C 898.549,482.12256 900.33022,499.69191 903.12809,516.11098"
       id="path8080"
       sodipodi:nodetypes="cccccccc" />
    <path
       style="fill:#4e433b;fill-opacity:1;fill-rule:evenodd;stroke:none;stroke-width:1px;stroke-linecap:butt;stroke-linejoin:miter;stroke-opacity:1;filter:url(#filter14140)"
       d="M 416,75.5 C 422.66577,89.027792 429.2851,103.2901 428.75236,118.69381 C 431.18431,131.57082 430.68696,145.19088 435.16289,157.56941 C 439.06897,165.24395 442.80621,173.36489 444.65625,181.65625 C 447.55775,184.30998 453.23655,183.08674 452.73273,178.47297 C 458.93449,158.01271 465.31843,137.44569 466.875,116.0625 C 467.09435,109.97777 471.91397,105.772 473.53125,100.34375 C 473.70488,93.120183 472.60656,85.41876 476.8125,79.0625 C 477.91453,75.670324 467.62498,78.387685 464.63564,77.192865 C 448.57168,76.723003 431.34162,75.481795 416,75.5 z"
       id="path11031"
       transform="matrix(0.5117561,0,0,0.62577,0.244122,-45.812885)" />
    <path
       style="fill:#4e433b;fill-opacity:1;fill-rule:evenodd;stroke:none;stroke-width:1px;stroke-linecap:butt;stroke-linejoin:miter;stroke-opacity:1;filter:url(#filter15213)"
       d="M 536.3125,74 C 538.02928,78.339451 536.60544,84.961401 540.625,88 C 543.03594,88.289255 547.88664,91.57188 547.0625,86.875 C 547.37065,81.968075 546.17385,76.810039 548.09375,72.15625 C 544.16667,72.770833 540.23958,73.385417 536.3125,74 z"
       id="path11033"
       transform="matrix(0.5117561,0,0,0.62577,0.244122,-45.812885)" />
    <path
       style="fill:#4e433b;fill-opacity:1;fill-rule:evenodd;stroke:none;stroke-width:1px;stroke-linecap:butt;stroke-linejoin:miter;stroke-opacity:1;filter:url(#filter15221)"
       d="M 580,785 C 573.71625,788.31788 565.63185,788.45778 561.1875,794.90625 C 559.9431,796.89128 553.56373,802.04488 559.62146,800.92689 C 575.33353,801.46811 593.45429,803.01253 607.6875,802.9375 C 601.99077,801.05738 596.59055,798.02653 593.1875,792.84375 C 590.30011,789.12387 587.61623,784.36094 582.09375,785.09375 C 581.41731,785.01404 580.66453,784.90442 580,785 z"
       id="path11035"
       transform="matrix(0.5117561,0,0,0.62577,0.244122,8.7585436)" />
    <path
       style="fill:#4e433b;fill-opacity:1;fill-rule:evenodd;stroke:none;stroke-width:1px;stroke-linecap:butt;stroke-linejoin:miter;stroke-opacity:1;filter:url(#filter14184)"
       d="M 958.8125,73.34375 C 943.18,74.461143 927.3949,73.441799 911.68938,74.038906 C 887.5325,74.275937 863.37563,74.512969 839.21875,74.75 C 842.61166,86.364411 840.45663,101.47046 852.125,108.78125 C 861.78683,117.59013 867.28081,130.43005 868.125,143.34375 C 873.41735,154.52112 881.60877,164.86002 881.96875,177.6875 C 884.00914,185.29097 893.44094,185.22328 897.25,191.21875 C 904.75541,200.34116 902.63341,213.0181 905.25,223.71875 C 906.68789,230.04285 908.70078,223.58577 910.39194,220.75143 C 922.26371,198.7337 935.47093,176.34488 939.125,151.3125 C 938.81687,137.83348 938.87646,122.61368 948.34375,112.03125 C 953.65202,99.63908 949.79677,84.081175 959.125,73.3125 L 958.8125,73.34375 z"
       id="path11037"
       transform="matrix(0.5117561,0,0,0.62577,-45.470164,-45.241456)" />
    <path
       style="fill:#4e433b;fill-opacity:1;fill-rule:evenodd;stroke:none;stroke-width:1px;stroke-linecap:butt;stroke-linejoin:miter;stroke-opacity:1;filter:url(#filter14172)"
       d="M 1257.125,706.40625 C 1239.0608,707.11334 1220.5102,709.44541 1204.125,717.28125 C 1192.2596,725.49897 1182.3975,736.57583 1169.2813,742.84375 C 1157.4184,753.52743 1151.4912,769.29739 1139.5313,779.84375 C 1134.7812,785.56987 1128.5278,789.72152 1122.375,793.875 C 1218.3854,795.10417 1314.3958,796.33333 1410.4063,797.5625 C 1398.526,787.30119 1397.3159,769.94239 1386.875,758.625 C 1379.5169,748.01581 1372.1343,733.24302 1357.5313,732.46875 C 1337.8519,731.81329 1327.2277,710.57797 1308.5625,707.4375 C 1291.5388,705.61357 1274.234,707.53411 1257.125,706.40625 z"
       id="path11039"
       transform="matrix(0.5117561,0,0,0.62577,-508.3273,15.901401)" />
    <path
       style="fill:#4e433b;fill-opacity:1;fill-rule:evenodd;stroke:none;stroke-width:1px;stroke-linecap:butt;stroke-linejoin:miter;stroke-opacity:1;filter:url(#filter15217)"
       d="M 1244.5,73.5 C 1237.4005,73.756806 1228.4198,73.064207 1222.4375,73.9375 C 1225.421,79.298677 1229.8941,86.581394 1237.2188,84.46875 C 1251.1272,83.365529 1265.3525,85.292411 1279.0938,83.03125 C 1285.629,79.697424 1291.0606,72.913792 1299.1875,73.75 C 1307.9482,73.29623 1294.4286,73.579331 1291.75,73.5 C 1275.9999,73.528037 1260.25,73.438505 1244.5,73.5 z"
       id="path11041"
       transform="matrix(0.5117561,0,0,0.62577,0.244122,-43.812885)" />
    <path
       style="fill:#4e433b;fill-opacity:1;fill-rule:evenodd;stroke:none;stroke-width:1px;stroke-linecap:butt;stroke-linejoin:miter;stroke-opacity:1;filter:url(#filter14180)"
       d="M 775.8125,695.5 C 772.41205,707.70503 771.64597,720.20444 772.4375,732.8125 C 772.8949,743.62889 770.83591,754.60837 764.875,763.71875 C 760.24601,774.58873 762.15421,786.81885 758.59375,798.03125 C 780.83252,798.42328 803.07049,798.89609 825.3125,799.0625 C 824.35422,789.35847 825.2662,777.70334 816.62556,771.15122 C 805.0773,758.46689 799.08499,741.59503 797.98893,724.64755 C 794.67327,716.44823 793.14464,707.26895 789.09375,699.53125 C 785.57167,696.21822 780.38858,696.06116 775.96875,694.71875 L 775.8125,695.5 z"
       id="path11043"
       transform="matrix(0.5117561,0,0,0.62577,0.244122,8.7585436)" />
    <path
       style="fill:#4e433b;fill-opacity:1;fill-rule:evenodd;stroke:none;stroke-width:1px;stroke-linecap:butt;stroke-linejoin:miter;stroke-opacity:1;filter:url(#filter14160)"
       d="M 1582.4375,73.21875 C 1599.2546,92.93698 1620.5897,111.90013 1625.2042,138.83835 C 1633.4497,168.82993 1643.5969,198.57663 1647.9688,229.4375 C 1655.6786,255.26623 1672.174,278.24851 1675.7813,305.46875 C 1677.0475,309.48953 1680.3258,316.98223 1685.625,314.46875 C 1691.3383,308.40417 1687.6283,299.23593 1688.8438,291.75 C 1688.6372,273.09701 1691.711,252.80824 1704.2188,238.46875 C 1715.7868,216.79136 1705.6788,190.63495 1714.7366,168.14989 C 1719.9742,154.60086 1725.478,141.26982 1727.1563,126.78125 C 1729.7559,112.54584 1728.518,97.74331 1730.5313,83.46875 C 1732.0528,77.581045 1734.1533,71.810383 1735.375,65.8125 C 1684.3958,68.28125 1633.4167,70.75 1582.4375,73.21875 z"
       id="path11045"
       transform="matrix(0.5117561,0,0,0.62577,0.244122,-41.812885)" />
    <path
       style="fill:#4e433b;fill-opacity:1;fill-rule:evenodd;stroke:none;stroke-width:1px;stroke-linecap:butt;stroke-linejoin:miter;stroke-opacity:1;filter:url(#filter14164)"
       d="M 1686.6563,556.75 C 1672.7418,557.84147 1662.2547,571.69951 1662.9068,585.3628 C 1656.8407,622.77799 1650.4096,660.04412 1650.0625,698.03125 C 1648.6385,710.95189 1645.4516,725.84965 1633.5938,733.09375 C 1616.0612,748.07222 1612.2836,772.33979 1611.2813,794.21875 C 1610.9053,796.55702 1610.0053,800.32188 1614.0927,798.79779 C 1660.916,800.03186 1707.7392,801.26593 1754.5625,802.5 C 1749.6979,773.70319 1743.2628,745.22144 1734.8836,717.32863 C 1729.904,688.18512 1740.7621,656.32277 1726.125,629.09375 C 1713.7753,607.60949 1696.7738,587.26345 1693.875,561.8125 C 1692.647,559.02707 1689.9061,556.38167 1686.6563,556.75 z"
       id="path11047"
       transform="matrix(0.5117561,0,0,0.62577,0.244122,8.7585436)" />
    <path
       sodipodi:nodetypes="ccccccccccccc"
       id="path15243"
       d="M 207.1398,-4.071 C 207.87629,-0.561651 210.53696,6.712484 211.69062,10.000305 C 214.0849,14.868958 215.4886,20.515443 215.28105,26.221746 C 215.84525,33.918655 217.48271,41.48009 217.47888,49.238775 C 218.25881,55.46195 222.55274,60.09416 223.03099,66.43662 C 223.31817,70.54881 226.04499,74.03292 229.5719,73.38238 C 233.15817,74.41017 235.74994,71.05675 235.69614,66.87118 C 237.03994,62.52008 238.37989,58.1665 239.19298,53.604384 C 240.51411,46.128347 242.63814,38.797289 242.88976,31.096013 C 242.6827,27.52985 243.79951,24.334486 245.65103,21.616855 C 247.40102,18.273779 246.30787,14.166613 246.77214,10.453394 C 246.86628,6.973674 248.63085,3.895074 251.20791,2.457279 C 252.59148,1.435654 254.10985,-2.097591 254.66001,-4.071"
       style="fill:url(#linearGradient2432);fill-opacity:1;fill-rule:evenodd;stroke:#000000;stroke-width:1px;stroke-linecap:butt;stroke-linejoin:miter;stroke-opacity:1" />
    <path
       id="path15245"
       d="M 272.20593,-0.96 C 274.82152,-3.358739 273.42055,11.479373 276.59242,12.44901 C 277.56719,12.746995 278.54196,13.044981 279.51674,13.342966 C 282.67094,14.307196 280.25596,5.277429 281.70998,1.721522 C 281.72953,1.673701 285.38403,-0.306634 286.09646,-0.96"
       style="fill:url(#linearGradient2429);fill-opacity:1;fill-rule:evenodd;stroke:#000000;stroke-width:1px;stroke-linecap:butt;stroke-linejoin:miter;stroke-opacity:1"
       sodipodi:nodetypes="csssc" />
    <path
       id="path15247"
       d="M 283.38626,514.797 C 284.59856,511.83225 288.23662,504.15119 291.42815,503.17555 C 298.04065,501.15413 294.64307,499.84958 300.93219,501.38764 C 302.42742,501.75331 305.49721,508.64845 308.24299,510.32721 C 310.96709,511.99271 311.80965,511.00414 313.36055,514.797"
       style="fill:url(#linearGradient2426);fill-opacity:1;fill-rule:evenodd;stroke:#000000;stroke-width:1px;stroke-linecap:butt;stroke-linejoin:miter;stroke-opacity:1"
       sodipodi:nodetypes="csssc" />
    <path
       sodipodi:nodetypes="cssssssssss"
       id="path15249"
       d="M 377.09416,-3.391331 C 383.25024,4.0649 379.07753,16.868029 385.68818,24.110124 C 389.89556,28.719395 394.15901,34.567792 394.19624,42.146649 C 394.22839,48.691483 399.26161,53.600605 400.57984,59.66573 C 401.76574,65.12209 402.00183,72.62816 407.24152,74.70122 C 412.72428,76.87045 412.97096,85.42478 412.89767,91.49279 C 412.83452,96.72095 418.6815,107.35884 420.64454,102.9594 C 425.70233,91.62415 434.92838,72.30926 438.73048,55.167829 C 440.52814,47.063248 437.28301,37.053863 442.14608,29.791258 C 445.68554,24.505354 445.29102,17.060285 446.06208,10.556081 C 446.70793,5.108103 451.46953,1.466872 451.66434,-4.285287"
       style="fill:url(#linearGradient2423);fill-opacity:1;fill-rule:evenodd;stroke:#000000;stroke-width:1px;stroke-linecap:butt;stroke-linejoin:miter;stroke-opacity:1" />
    <path
       id="path15251"
       d="M 55.335502,517.51981 C 59.932812,509.35631 68.854102,506.8563 73.087602,498.28084 C 80.496292,491.19062 82.712762,477.39802 92.291612,473.49488 C 99.516536,467.75261 105.09729,457.44047 114.40552,456.76653 C 124.98219,452.54747 136.20699,452.5581 147.18672,453.2475 C 155.52855,453.26792 165.14726,451.65716 171.88458,459.08029 C 176.89391,464.06712 182.29375,469.84903 189.18056,469.52618 C 198.77726,472.33364 202.11442,485.02032 208.15217,493.07114 C 211.61743,501.47147 212.90214,513.60017 222.56015,513.97887 C 224.42423,515.1182 226.06481,517.48921 225.67711,520.20168"
       style="fill:url(#linearGradient2420);fill-opacity:1;fill-rule:evenodd;stroke:#000000;stroke-width:1px;stroke-linecap:butt;stroke-linejoin:miter;stroke-opacity:1" />
    <path
       id="path15253"
       d="M 619.469,-0.328223 C 623.60461,-0.328223 624.93348,7.365068 628.24199,10.399264 C 630.62861,12.588057 636.30189,11.29322 639.20815,11.29322 C 643.35097,11.29322 647.49374,11.29322 651.63651,11.29322 C 656.16186,11.29322 658.36431,8.475553 661.14059,5.929477 C 662.82032,4.388987 671.90763,4.649426 673.56894,4.141564 C 677.35722,2.983489 679.83719,1.203148 682.34187,-0.328223"
       style="fill:url(#linearGradient2417);fill-opacity:1;fill-rule:evenodd;stroke:#000000;stroke-width:1px;stroke-linecap:butt;stroke-linejoin:miter;stroke-opacity:1" />
    <path
       id="path15255"
       d="M 382.59905,513.953 C 384.49458,510.50632 384.60774,505.27885 385.40626,501.34791 C 386.09897,497.11662 386.09835,492.76031 386.697,488.52849 C 388.07891,482.68783 391.99371,477.64906 391.3819,471.21568 C 391.53452,462.92154 390.69648,454.41803 392.71423,446.35342 C 393.59594,443.84979 393.00396,440.16995 394.15517,438.32367 C 397.58861,437.18813 400.74833,439.92394 404.05317,440.54707 C 408.16698,442.14573 409.26669,447.79766 410.22168,452.31226 C 410.71716,455.41723 411.95029,458.20372 412.8355,461.13221 C 413.61476,465.27403 413.11778,469.67209 414.46275,473.68199 C 415.89045,479.69857 418.93366,484.8632 422.38092,489.39634 C 424.7754,492.79355 426.23548,497.09822 426.30416,501.5993 C 426.44379,505.3975 426.33523,509.32564 427.67172,512.86208 L 427.80522,513.40519 L 427.92601,513.953"
       style="fill:url(#linearGradient2414);fill-opacity:1;fill-rule:evenodd;stroke:#000000;stroke-width:1px;stroke-linecap:butt;stroke-linejoin:miter;stroke-opacity:1"
       sodipodi:nodetypes="ccccccccccccccc" />
    <path
       id="path15257"
       d="M 802.23906,-5.914 C 809.8502,9.063918 823.4166,24.803129 827.21378,42.572806 C 830.39353,58.75884 835.257,74.47089 837.87494,90.78763 C 838.89646,108.01523 846.72556,122.90652 851.76303,138.57034 C 853.36575,146.40571 853.57193,159.20471 861.82385,160.66571 C 870.11343,159.49306 868.45078,147.25655 868.63015,139.92276 C 868.71551,129.76884 869.61349,118.65374 875.57443,110.89108 C 883.14043,95.69343 876.25813,76.58936 883.01203,61.03554 C 887.67567,46.696406 889.88205,31.127117 889.17015,15.704825 C 890.02238,8.396814 893.01344,1.581035 892.89297,-5.914"
       style="fill:url(#linearGradient2411);fill-opacity:1;fill-rule:evenodd;stroke:#000000;stroke-width:1px;stroke-linecap:butt;stroke-linejoin:miter;stroke-opacity:1"
       sodipodi:nodetypes="cccccccccc" />
    <path
       id="path15259"
       d="M 820.51607,516.111 C 820.85659,497.14362 822.16782,472.14617 836.6674,460.96269 C 843.23881,447.54213 839.68154,430.65655 842.17512,415.79434 C 843.62969,399.81758 846.14814,384.08269 847.95515,368.22183 C 849.89814,354.62772 869.11852,343.06698 871.7424,362.43288 C 873.53052,378.82602 884.29772,390.5793 889.44092,405.55722 C 894.79179,424.41676 888.24848,447.38222 894.14426,466.09167 C 898.549,482.12256 900.33022,499.69193 903.12809,516.111"
       style="fill:url(#linearGradient2408);fill-opacity:1;fill-rule:evenodd;stroke:#000000;stroke-width:1px;stroke-linecap:butt;stroke-linejoin:miter;stroke-opacity:1"
       sodipodi:nodetypes="cccccccc" />
  </g>
  <g
     inkscape:groupmode="layer"
     id="layer2"
     inkscape:label="Layer 2"
     style="display:none">
    <path
       sodipodi:nodetypes="csssssssssssssssssccssssssssssssssssc"
       d="M 17.832555,521.00848 C 19.001482,516.77717 23.895359,514.76177 29.350162,505.19182 C 33.931271,497.15473 36.711698,491.33392 39.253483,481.07481 C 41.669555,471.32311 42.71166,457.34456 44.203861,447.10502 C 44.350616,446.09802 53.958299,430.05126 55.569438,425.47957 C 59.662054,413.8664 63.37479,422.02172 66.3689,401.47599 C 68.56906,386.37833 70.76922,371.28064 72.9694,356.18296 C 74.85479,343.24529 84.5568,336.46011 87.77741,323.46115 C 90.62837,311.95414 91.94579,294.85739 93.71786,282.6974 C 95.91845,267.59677 94.49621,260.98257 95.08366,248.27383 C 95.80006,232.77413 96.63692,227.22216 94.65714,213.62334 C 93.12043,203.0679 94.8494,195.04099 91.44826,185.53991 C 88.11536,176.22948 85.48672,173.36238 84.89089,161.64543 C 84.30885,150.20001 83.44265,141.92111 82.90818,131.41082 C 82.0556,114.64539 84.87432,111.41061 80.35932,98.798068 C 77.44981,90.670317 77.61512,79.852231 77.15046,70.714633 C 76.70568,61.968552 79.6129,47.554338 81.20469,36.631393 C 82.95197,24.641473 78.86976,16.979472 78.32583,6.2833063 C 77.9343,-1.4157233 64.21118,-4.0807506 63.9434,-4.1146441 C 63.67561,-4.1485486 182.52156,2.0163157 177.8486,0.55834792 C 173.17562,-0.89961984 171.92372,6.3893124 167.90045,16.556474 C 164.5216,25.095131 162.60703,31.211771 161.56983,41.696394 C 160.58391,51.662445 161.56983,65.64453 161.56983,75.978091 C 161.56983,76.99435 154.36672,94.100357 153.43042,98.832562 C 151.05201,110.85347 146.19541,103.23811 146.19541,123.97248 C 146.19541,139.20878 146.19541,154.4451 146.19541,169.68141 C 146.19541,182.73788 137.56149,190.6784 136.24726,203.9631 C 135.0839,215.72306 136.24726,232.82951 136.24726,245.10116 C 136.24726,260.34046 138.61169,266.71607 139.86479,279.38286 C 141.39306,294.8314 141.36556,300.43785 145.29104,313.66456 C 148.338,323.93117 147.78386,332.10195 152.52605,341.08993 C 157.17307,349.89754 160.1918,352.40881 162.4742,363.94439 C 164.70368,375.21266 166.7575,383.30758 168.80482,393.65521 C 172.07061,410.16112 169.74466,413.72006 176.03985,425.65147 C 180.09654,433.34025 181.49491,444.08066 183.27485,453.07682 C 184.97854,461.68752 184.17925,476.33528 184.17925,487.35853 C 184.17925,499.45855 191.2813,510.47786 193.36482,521.00848"
       style="fill:#c8beb7;fill-opacity:1;fill-rule:evenodd;stroke:#000000;stroke-width:0.99999994px;stroke-linecap:butt;stroke-linejoin:miter;stroke-opacity:1"
       id="path2459" />
    <path
       style="fill:#4e4a3b;fill-opacity:1;fill-rule:evenodd;stroke:none;stroke-width:1px;stroke-linecap:butt;stroke-linejoin:miter;stroke-opacity:1;filter:url(#filter6110)"
       d="M 293.02679,133.125 C 269.57275,134.32655 246.11843,135.53738 222.65179,136.46875 C 232.5559,160.45486 240.58203,206.8506 237.84375,232.71875 C 237.0086,244.99596 243.58377,255.55233 246.38961,267.06999 C 249.13239,276.63168 255.81456,284.90843 255.75,295.28125 C 256.31709,309.23153 255.4063,323.20117 255.79768,337.15572 C 255.15143,353.15054 255.23986,369.80897 262.875,384.21875 C 268.23755,397.04706 268.50171,411.09163 267.94992,424.78121 C 268.32169,459.54107 264.68029,494.14135 259.48491,528.36021 C 256.19537,543.57555 254.2635,559.14621 249.19865,573.86896 C 245.0381,584.46394 237.96989,593.84115 236.3125,605.34375 C 232.59015,625.17493 228.40223,644.72289 226,664.78125 C 223.50087,679.97779 214.49619,693.51491 213.34375,709.03125 C 208.40127,733.74285 216.02783,760.31292 205.75,784.0625 C 201.48971,791.01211 208.17157,810.81433 215.20089,809.69643 C 271.49451,809.57488 328.85572,809.95859 384.48214,809.41518 C 367.94181,785.81877 361.51378,737.5888 358.78125,709.625 C 355.25787,699.70807 348.68763,691.13471 345.40625,681.15625 C 339.47361,672.70353 333.53593,663.83493 333.27903,653.10639 C 330.13713,633.65291 328.6318,613.97422 325.125,594.65625 C 322.92201,580.06656 311.6334,569.28702 308.40625,555.15625 C 304.71993,541.633 304.38009,527.43045 302.14375,513.61141 C 299.20828,485.88485 298.64439,457.94776 298.78767,430.09494 C 299.82085,414.38704 299.96522,398.50693 302.59041,382.99223 C 304.93833,371.25695 311.47746,360.71355 311.46163,348.50376 C 312.78115,328.04198 313.80383,307.57109 313.79994,287.06375 C 314.47238,272.38556 320.79288,258.61086 320.34375,243.78125 C 321.74107,222.10347 314.23386,201.07426 315.50437,179.47357 C 316.36249,170.22339 313.89977,141.08187 315.55804,131.9375 C 308.04762,132.33333 300.53721,132.72917 293.02679,133.125 z"
       id="path2461"
       sodipodi:nodetypes="cccccccccccccccccccccccccccccc"
       transform="matrix(-0.8582174,0,0,0.7999063,357.81657,-118.5167)" />
    <path
       id="path2463"
       style="opacity:1;fill:url(#linearGradient2641);fill-opacity:1;fill-rule:evenodd;stroke:#000000;stroke-width:0.99999994px;stroke-linecap:butt;stroke-linejoin:miter;stroke-opacity:1"
       d="M 17.350012,520.67259 C 18.518909,516.4413 23.412771,514.4259 28.867604,504.85595 C 33.448713,496.81885 36.22911,490.99804 38.77091,480.73893 C 41.186982,470.98723 42.229102,457.00868 43.721288,446.76916 C 43.868043,445.76215 53.475756,429.7154 55.08688,425.14369 C 59.179481,413.53053 62.89223,421.68585 65.88632,401.14013 C 68.0865,386.04247 70.28666,370.94477 72.48683,355.84709 C 74.37222,342.90941 84.07421,336.12423 87.29483,323.12527 C 90.14581,311.61827 91.46323,294.52153 93.23529,282.36154 C 95.43589,267.26091 94.01366,260.6467 94.60107,247.93796 C 95.31751,232.43826 96.15436,226.88628 94.17457,213.28746 C 92.63787,202.73204 94.36685,194.70511 90.96569,185.20404 C 87.6328,175.89361 85.00418,173.02651 84.40831,161.30955 C 83.82628,149.86414 82.96008,141.58523 82.4256,131.07494 C 81.57304,114.30952 84.39176,111.07474 79.87677,98.462202 C 76.96724,90.334451 77.13258,79.516365 76.66789,70.378767 C 76.22313,61.632686 79.13033,47.218461 80.7221,36.295527 C 82.4694,24.305607 78.38719,16.643606 77.84327,5.9474404 C 77.45176,-1.7516002 63.72862,-4.4166166 63.46083,-4.450521 C 63.19304,-4.4844255 182.03898,1.6804388 177.36601,0.22247105 C 172.69307,-1.2354858 171.44113,6.0534464 167.41788,16.220609 C 164.03906,24.759254 162.12446,30.875905 161.08724,41.360517 C 160.10132,51.326579 161.08724,65.308664 161.08724,75.642214 C 161.08724,76.658485 153.88416,93.76448 152.94785,98.496696 C 150.56946,110.5176 145.71285,102.90223 145.71285,123.6366 C 145.71285,138.87291 145.71285,154.10922 145.71285,169.34554 C 145.71285,182.40201 137.07893,190.34254 135.76471,203.62724 C 134.60131,215.3872 135.76471,232.49364 135.76471,244.76528 C 135.76471,260.00459 138.1291,266.38019 139.3822,279.047 C 140.9105,294.49553 140.883,300.10198 144.80846,313.32869 C 147.85542,323.5953 147.3013,331.76609 152.04348,340.75406 C 156.6905,349.56166 159.70924,352.07294 161.99163,363.60852 C 164.22111,374.87678 166.27494,382.97171 168.32228,393.31934 C 171.58805,409.82525 169.26208,413.38418 175.55726,425.31559 C 179.614,433.00438 181.01235,443.74479 182.79229,452.74095 C 184.49596,461.35164 183.69666,475.9994 183.69666,487.02265 C 183.69666,499.12267 190.79873,510.14199 192.88226,520.67259"
       sodipodi:nodetypes="csssssssssssssssssccssssssssssssssssc" />
    <path
       style="fill:#c8beb7;fill-opacity:1;fill-rule:evenodd;stroke:#000000;stroke-width:1px;stroke-linecap:butt;stroke-linejoin:miter;stroke-opacity:1"
       d="M 982.57495,514.5 C 981.48421,513.05693 977.54376,510.06567 975.83519,508.7137 C 972.28926,506.71168 970.21039,504.38981 970.51777,502.04334 C 969.68219,498.87832 967.25711,495.76901 967.26279,492.57859 C 966.10771,490.01957 959.74841,488.11478 959.04012,485.50672 C 958.61481,483.81576 954.57639,482.38307 949.35304,482.65058 C 944.04178,482.22794 940.20337,483.60689 940.28305,485.32802 C 938.29289,487.11722 936.30842,488.90744 935.10424,490.78342 C 933.14765,493.85761 930.00196,496.87219 929.62931,500.03901 C 929.93597,501.50544 928.28197,502.81939 925.53988,503.9369 C 922.94814,505.31159 924.5671,507.00049 923.87951,508.52739 C 923.74009,509.95827 921.12677,511.22421 917.31015,511.81544 C 915.26108,512.23554 913.01238,512.71186 912.19759,513.52334"
       id="path2465"
       sodipodi:nodetypes="ccccccccccccc" />
    <path
       style="fill:#c8beb7;fill-opacity:1;fill-rule:evenodd;stroke:#000000;stroke-width:1px;stroke-linecap:butt;stroke-linejoin:miter;stroke-opacity:1"
       d="M 874.65166,516.14989 C 866.38706,523.71757 870.81377,485.36526 860.79147,482.30622 C 857.71144,481.3661 854.63142,480.42602 851.55136,479.4859 C 841.58489,476.4439 849.21561,504.93153 844.62128,516.14989"
       id="path2467"
       sodipodi:nodetypes="csss" />
    <path
       style="fill:#c8beb7;fill-opacity:1;fill-rule:evenodd;stroke:#000000;stroke-width:1px;stroke-linecap:butt;stroke-linejoin:miter;stroke-opacity:1"
       d="M 669.18559,-10.357 C 666.58662,3.4339515 658.78721,39.163299 651.94509,43.701626 C 637.76897,53.104545 645.05282,59.172843 631.56997,52.018341 C 628.36444,50.317375 621.78331,18.243662 615.89681,10.434674 C 610.05678,2.6873661 608.25047,7.2860211 604.92559,-10.357"
       id="path2469"
       sodipodi:nodetypes="csssc" />
    <path
       style="fill:#c8beb7;fill-opacity:1;fill-rule:evenodd;stroke:#000000;stroke-width:1px;stroke-linecap:butt;stroke-linejoin:miter;stroke-opacity:1"
       d="M 872.33487,-3.2633457 C 862.64075,4.1928847 869.21161,16.996015 858.80167,24.238115 C 852.17622,28.847385 845.46247,34.695785 845.40384,42.274635 C 845.35321,48.819475 837.42729,53.728595 835.35144,59.793725 C 833.48398,65.250085 833.1122,72.756155 824.86115,74.829215 C 816.22732,76.998445 815.83887,85.552775 815.95428,91.620785 C 816.05372,96.84895 806.84635,107.48684 803.75511,103.0874 C 795.7905,91.752146 781.26203,72.437255 775.27478,55.295825 C 772.44396,47.191235 777.55414,37.181855 769.89616,29.919245 C 764.32249,24.633345 764.94375,17.188275 763.72954,10.684075 C 762.71251,5.2360947 755.21431,1.5948643 754.90754,-4.1572957"
       id="path2471"
       sodipodi:nodetypes="cssssssssss" />
    <path
       style="fill:#c8beb7;fill-opacity:1;fill-rule:evenodd;stroke:#000000;stroke-width:1px;stroke-linecap:butt;stroke-linejoin:miter;stroke-opacity:1"
       d="M 312.95061,-4.7096722 C 311.59085,1.9240194 308.9522,3.9555369 307.70006,10.92399 C 305.50881,16.68553 304.85323,27.89345 302.0201,31.065156 C 299.88319,35.731348 298.23257,44.111033 295.47948,44.658681 C 292.35121,48.087107 289.03125,48.078466 285.78378,47.518258 C 283.31652,47.501665 280.47159,48.810575 278.4789,42.778511 C 276.99729,38.726191 275.40018,34.027788 273.36327,34.290137 C 270.52485,32.008785 269.53782,21.699539 267.75204,15.157412 C 266.72711,8.3312707 266.34714,-1.5245576 263.49058,-1.8322907 C 262.93925,-2.7581145 262.45401,-4.6848065 262.56869,-6.8889701"
       id="path2473" />
    <path
       style="fill:#c8beb7;fill-opacity:1;fill-rule:evenodd;stroke:#000000;stroke-width:1px;stroke-linecap:butt;stroke-linejoin:miter;stroke-opacity:1"
       d="M 324.53142,516.83588 C 322.1812,516.83588 321.42602,489.91215 319.54582,479.29356 C 318.18953,471.63359 314.96546,476.16506 313.31386,476.16506 C 310.95954,476.16506 308.60525,476.16506 306.25096,476.16506 C 303.67924,476.16506 302.42762,486.02584 300.84988,494.9362 C 299.89531,500.32735 294.73108,499.41591 293.78698,501.19323 C 291.63414,505.24609 290.2248,511.47664 288.80141,516.83588"
       id="path2475" />
    <path
       style="fill:#c8beb7;fill-opacity:1;fill-rule:evenodd;stroke:#000000;stroke-width:1px;stroke-linecap:butt;stroke-linejoin:miter;stroke-opacity:1"
       d="M 630.36018,513.37048 C 632.13623,509.01561 632.24226,503.54051 632.99044,498.57378 C 633.63949,493.22755 633.63891,487.72336 634.19982,482.37647 C 635.49462,474.99681 639.16266,468.63034 638.58942,460.50178 C 638.73241,450.02215 637.9472,439.27798 639.83776,429.08837 C 640.66389,425.92504 640.10923,421.27557 641.18787,418.9428 C 644.40489,417.50805 647.36544,420.96474 650.46196,421.75206 C 654.31647,423.77196 655.34685,430.91316 656.24165,436.61735 C 656.7059,440.54047 657.8613,444.06119 658.69071,447.76133 C 659.42085,452.99451 658.95519,458.55145 660.21539,463.61795 C 661.5531,471.21989 664.40448,477.74538 667.63444,483.473 C 669.87799,487.76536 671.24604,493.2043 671.31038,498.89141 C 671.44122,503.69042 671.3395,508.65362 672.59174,513.1219 L 672.71683,513.80812 L 672.83,514.5"
       id="path2477" />
    <path
       style="fill:#c8beb7;fill-opacity:1;fill-rule:evenodd;stroke:#000000;stroke-width:1px;stroke-linecap:butt;stroke-linejoin:miter;stroke-opacity:1"
       d="M 520.3328,-7.214 C 510.20301,12.645001 492.14727,33.512695 487.09355,57.073245 C 482.86157,78.534075 476.3887,99.36645 472.90444,121.00057 C 471.54488,143.84238 461.12501,163.58651 454.42056,184.35493 C 452.28747,194.74373 452.01306,211.71373 441.03045,213.65085 C 429.99771,212.09605 432.21056,195.87184 431.97184,186.14808 C 431.85823,172.68515 430.66309,157.94782 422.72958,147.65543 C 412.65987,127.50509 421.81964,102.1753 412.83076,81.552715 C 406.62385,62.540665 403.68734,41.897585 404.63482,21.449395 C 403.50057,11.759815 399.51973,2.72356 399.68006,-7.214"
       id="path2479"
       sodipodi:nodetypes="cccccccccc" />
    <path
       style="fill:#c8beb7;fill-opacity:1;fill-rule:evenodd;stroke:#000000;stroke-width:0.99999994px;stroke-linecap:butt;stroke-linejoin:miter;stroke-opacity:1"
       d="M 399.44375,515.85 C 399.85494,496.88262 401.43826,471.88508 418.94665,460.7016 C 426.8817,447.28104 422.58626,430.39546 425.59728,415.53325 C 427.35369,399.55649 430.39475,383.8216 432.57673,367.96074 C 434.92291,354.36663 458.13172,342.80589 461.30008,362.17179 C 463.45925,378.56493 476.46076,390.31821 482.67123,405.29613 C 489.13246,424.15567 481.23134,447.12113 488.35056,465.83058 C 493.66933,481.86147 495.82017,499.43093 499.19863,515.85"
       id="path2481"
       sodipodi:nodetypes="cccccccc" />
    <path
       style="fill:#4e433b;fill-opacity:1;fill-rule:evenodd;stroke:none;stroke-width:1px;stroke-linecap:butt;stroke-linejoin:miter;stroke-opacity:1;filter:url(#filter14140)"
       d="M 416,75.5 C 422.66577,89.027792 429.2851,103.2901 428.75236,118.69381 C 431.18431,131.57082 430.68696,145.19088 435.16289,157.56941 C 439.06897,165.24395 442.80621,173.36489 444.65625,181.65625 C 447.55775,184.30998 453.23655,183.08674 452.73273,178.47297 C 458.93449,158.01271 465.31843,137.44569 466.875,116.0625 C 467.09435,109.97777 471.91397,105.772 473.53125,100.34375 C 473.70488,93.120183 472.60656,85.41876 476.8125,79.0625 C 477.91453,75.670324 467.62498,78.387685 464.63564,77.192865 C 448.57168,76.723003 431.34162,75.481795 416,75.5 z"
       id="path2485"
       transform="matrix(-0.7579099,0,0,-0.2573207,1288.987,531.66446)" />
    <path
       style="fill:#4e433b;fill-opacity:1;fill-rule:evenodd;stroke:none;stroke-width:1px;stroke-linecap:butt;stroke-linejoin:miter;stroke-opacity:1;filter:url(#filter15213)"
       d="M 536.3125,74 C 538.02928,78.339451 536.60544,84.961401 540.625,88 C 543.03594,88.289255 547.88664,91.57188 547.0625,86.875 C 547.37065,81.968075 546.17385,76.810039 548.09375,72.15625 C 544.16667,72.770833 540.23958,73.385417 536.3125,74 z"
       id="path2487"
       transform="matrix(-1.6170187,0,0,-1.9742151,1733.9814,659.80446)" />
    <path
       style="fill:#4e433b;fill-opacity:1;fill-rule:evenodd;stroke:none;stroke-width:1px;stroke-linecap:butt;stroke-linejoin:miter;stroke-opacity:1;filter:url(#filter15221)"
       d="M 580,785 C 573.71625,788.31788 565.63185,788.45778 561.1875,794.90625 C 559.9431,796.89128 553.56373,799.00845 559.62146,797.89046 C 575.33353,798.43168 593.45429,797.96549 607.6875,797.89046 C 601.99077,796.01034 596.59055,803.07324 593.1875,797.89046 C 590.30011,794.17058 587.61623,784.36094 582.09375,785.09375 C 581.41731,785.01404 580.66453,784.90442 580,785 z"
       id="path2489"
       transform="matrix(-1.0971219,0,0,-2.9108571,1276.1962,2324.5611)"
       sodipodi:nodetypes="ccccccc" />
    <path
       style="fill:#4e433b;fill-opacity:1;fill-rule:evenodd;stroke:none;stroke-width:1px;stroke-linecap:butt;stroke-linejoin:miter;stroke-opacity:1;filter:url(#filter14184)"
       d="M 958.8125,73.34375 C 943.18,74.461143 927.3949,73.441799 911.68938,74.038906 C 887.5325,74.275937 863.37563,74.512969 839.21875,74.75 C 842.61166,86.364411 840.45663,101.47046 852.125,108.78125 C 861.78683,117.59013 867.28081,130.43005 868.125,143.34375 C 873.41735,154.52112 881.60877,164.86002 881.96875,177.6875 C 884.00914,185.29097 893.44094,185.22328 897.25,191.21875 C 904.75541,200.34116 902.63341,213.0181 905.25,223.71875 C 906.68789,230.04285 908.70078,223.58577 910.39194,220.75143 C 922.26371,198.7337 935.47093,176.34488 939.125,151.3125 C 938.81687,137.83348 938.87646,122.61368 948.34375,112.03125 C 953.65202,99.63908 949.79677,84.081175 959.125,73.3125 L 958.8125,73.34375 z"
       id="path2491"
       transform="matrix(-0.8058737,0,0,0.62577,1537.7562,-45.113465)" />
    <path
       style="fill:#4e433b;fill-opacity:1;fill-rule:evenodd;stroke:none;stroke-width:1px;stroke-linecap:butt;stroke-linejoin:miter;stroke-opacity:1;filter:url(#filter3279)"
       d="M 1257.125,706.40625 C 1239.0608,707.11334 1220.5102,709.44541 1204.125,717.28125 C 1192.2596,725.49897 1182.3975,736.57583 1169.2813,742.84375 C 1157.4184,753.52743 1151.4912,769.29739 1139.5313,779.84375 C 1134.7812,785.56987 1128.5278,789.72152 1122.375,793.875 C 1218.3854,795.10417 1314.3958,796.33333 1410.4063,797.5625 C 1398.526,787.30119 1397.3159,769.94239 1386.875,758.625 C 1379.5169,748.01581 1372.1343,733.24302 1357.5313,732.46875 C 1337.8519,731.81329 1327.2277,710.57797 1308.5625,707.4375 C 1291.5388,705.61357 1274.234,707.53411 1257.125,706.40625 z"
       id="path2493"
       transform="matrix(-0.1303194,0,0,-0.4427295,453.01704,356.38322)" />
    <path
       style="fill:#4e433b;fill-opacity:1;fill-rule:evenodd;stroke:none;stroke-width:1px;stroke-linecap:butt;stroke-linejoin:miter;stroke-opacity:1;filter:url(#filter15217)"
       d="M 1244.5,73.5 C 1237.4005,73.756806 1228.4198,73.064207 1222.4375,73.9375 C 1225.421,79.298677 1229.8941,86.581394 1237.2188,84.46875 C 1251.1272,83.365529 1265.3525,85.292411 1279.0938,83.03125 C 1285.629,79.697424 1291.0606,72.913792 1299.1875,73.75 C 1307.9482,73.29623 1294.4286,73.579331 1291.75,73.5 C 1275.9999,73.528037 1260.25,73.438505 1244.5,73.5 z"
       id="path2495"
       transform="matrix(-0.2908258,0,0,-2.1899677,676.43058,669.01636)" />
    <path
       style="fill:#4e433b;fill-opacity:1;fill-rule:evenodd;stroke:none;stroke-width:1px;stroke-linecap:butt;stroke-linejoin:miter;stroke-opacity:1;filter:url(#filter14180)"
       d="M 775.8125,695.5 C 772.41205,707.70503 771.64597,720.20444 772.4375,732.8125 C 772.8949,743.62889 770.83591,754.60837 764.875,763.71875 C 760.24601,774.58873 762.15421,786.81885 758.59375,798.03125 C 780.83252,798.42328 803.07049,798.89609 825.3125,799.0625 C 824.35422,789.35847 825.2662,777.70334 816.62556,771.15122 C 805.0773,758.46689 799.08499,741.59503 797.98893,724.64755 C 794.67327,716.44823 793.14464,707.26895 789.09375,699.53125 C 785.57167,696.21822 780.38858,696.06116 775.96875,694.71875 L 775.8125,695.5 z"
       id="path2497"
       transform="matrix(0.4492171,0,0,0.6744868,296.08772,-35.947227)" />
    <path
       style="fill:#4e433b;fill-opacity:1;fill-rule:evenodd;stroke:none;stroke-width:1px;stroke-linecap:butt;stroke-linejoin:miter;stroke-opacity:1;filter:url(#filter14160)"
       d="M 1582.4375,65.812379 C 1599.2546,85.530609 1620.5897,111.90013 1625.2042,138.83835 C 1633.4497,168.82993 1643.5969,198.57663 1647.9688,229.4375 C 1655.6786,255.26623 1672.174,278.24851 1675.7813,305.46875 C 1677.0475,309.48953 1680.3258,316.98223 1685.625,314.46875 C 1691.3383,308.40417 1687.6283,299.23593 1688.8438,291.75 C 1688.6372,273.09701 1691.711,252.80824 1704.2188,238.46875 C 1715.7868,216.79136 1705.6788,190.63495 1714.7366,168.14989 C 1719.9742,154.60086 1725.478,141.26982 1727.1563,126.78125 C 1729.7559,112.54584 1728.518,97.74331 1730.5313,83.46875 C 1732.0528,77.581045 1734.1533,71.810262 1735.375,65.812379 C 1684.3958,68.281129 1633.4167,63.343629 1582.4375,65.812379 z"
       id="path2499"
       transform="matrix(-0.6811044,0,0,0.829699,1587.7206,-54.812465)"
       sodipodi:nodetypes="cccccccccccc" />
    <path
       style="fill:#4e433b;fill-opacity:1;fill-rule:evenodd;stroke:none;stroke-width:1px;stroke-linecap:butt;stroke-linejoin:miter;stroke-opacity:1;filter:url(#filter3275)"
       d="M 1686.6563,556.75 C 1672.7418,557.84147 1662.2547,571.69951 1662.9068,585.3628 C 1656.8407,622.77799 1650.4096,660.04412 1650.0625,698.03125 C 1648.6385,710.95189 1645.4516,725.84965 1633.5938,733.09375 C 1616.0612,748.07222 1612.2836,772.33979 1611.2813,794.21875 C 1610.9053,796.55702 1610.0053,800.32188 1614.0927,798.79779 C 1660.916,800.03186 1707.7392,801.26593 1754.5625,802.5 C 1749.6979,773.70319 1743.2628,745.22144 1734.8836,717.32863 C 1729.904,688.18512 1740.7621,656.32277 1726.125,629.09375 C 1713.7753,607.60949 1696.7738,587.26345 1693.875,561.8125 C 1692.647,559.02707 1689.9061,556.38167 1686.6563,556.75 z"
       id="path2501"
       transform="matrix(0.5448968,0,0,0.580561,-468.1118,41.358333)" />
    <path
       sodipodi:nodetypes="ccccccccccccc"
       id="path2503"
       d="M 982.57495,514.5 C 981.48421,513.05693 977.54376,510.06567 975.83519,508.7137 C 972.28926,506.71168 970.21039,504.38981 970.51777,502.04334 C 969.68219,498.87832 967.25711,495.76901 967.26279,492.57859 C 966.10771,490.01957 959.74841,488.11478 959.04012,485.50672 C 958.61481,483.81576 954.57639,482.38307 949.35304,482.65058 C 944.04178,482.22794 940.20337,483.60689 940.28305,485.32802 C 938.29289,487.11722 936.30842,488.90744 935.10424,490.78342 C 933.14765,493.85761 930.00196,496.87219 929.62931,500.03901 C 929.93597,501.50544 928.28197,502.81939 925.53988,503.9369 C 922.94814,505.31159 924.5671,507.00049 923.87951,508.52739 C 923.74009,509.95827 921.12677,511.22421 917.31015,511.81544 C 915.26108,512.23554 913.01238,512.71186 912.19759,513.52334"
       style="opacity:1;fill:url(#linearGradient2619);fill-opacity:1;fill-rule:evenodd;stroke:#000000;stroke-width:1px;stroke-linecap:butt;stroke-linejoin:miter;stroke-opacity:1" />
    <path
       id="path2505"
       d="M 874.65166,516.14989 C 866.38706,523.71757 870.81377,485.36526 860.79147,482.30622 C 857.71144,481.3661 854.63142,480.42602 851.55136,479.4859 C 841.58489,476.4439 849.21561,504.93153 844.62128,516.14989"
       style="opacity:1;fill:url(#linearGradient2616);fill-opacity:1;fill-rule:evenodd;stroke:#000000;stroke-width:1px;stroke-linecap:butt;stroke-linejoin:miter;stroke-opacity:1"
       sodipodi:nodetypes="csss" />
    <path
       id="path2507"
       d="M 669.18559,-10.357 C 666.58662,3.4339515 658.78721,39.163299 651.94509,43.701626 C 637.76897,53.104545 645.05282,59.172843 631.56997,52.018341 C 628.36444,50.317375 621.78331,18.243662 615.89681,10.434674 C 610.05678,2.6873661 608.25047,7.2860211 604.92559,-10.357"
       style="opacity:1;fill:url(#linearGradient2613);fill-opacity:1;fill-rule:evenodd;stroke:#000000;stroke-width:1px;stroke-linecap:butt;stroke-linejoin:miter;stroke-opacity:1"
       sodipodi:nodetypes="csssc" />
    <path
       sodipodi:nodetypes="cssssssssss"
       id="path2509"
       d="M 872.33487,-4.157 C 862.64075,3.2992304 869.21161,16.996015 858.80167,24.238115 C 852.17622,28.847385 845.46247,34.695785 845.40384,42.274635 C 845.35321,48.819475 837.42729,53.728595 835.35144,59.793725 C 833.48398,65.250085 833.1122,72.756155 824.86115,74.829215 C 816.22732,76.998445 815.83887,85.552775 815.95428,91.620785 C 816.05372,96.84895 806.84635,107.48684 803.75511,103.0874 C 795.7905,91.752146 781.26203,72.437255 775.27478,55.295825 C 772.44396,47.191235 777.55414,37.181855 769.89616,29.919245 C 764.32249,24.633345 764.94375,17.188275 763.72954,10.684075 C 762.71251,5.2360947 755.21431,1.59516 754.90754,-4.157"
       style="opacity:1;fill:url(#linearGradient2610);fill-opacity:1;fill-rule:evenodd;stroke:#000000;stroke-width:1px;stroke-linecap:butt;stroke-linejoin:miter;stroke-opacity:1" />
    <path
       id="path2511"
       d="M 312.95061,-4.7096722 C 311.59085,1.9240194 308.9522,3.9555369 307.70006,10.92399 C 305.50881,16.68553 304.85323,27.89345 302.0201,31.065156 C 299.88319,35.731348 298.23257,44.111033 295.47948,44.658681 C 292.35121,48.087107 289.03125,48.078466 285.78378,47.518258 C 283.31652,47.501665 280.47159,48.810575 278.4789,42.778511 C 276.99729,38.726191 275.40018,34.027788 273.36327,34.290137 C 270.52485,32.008785 269.53782,21.699539 267.75204,15.157412 C 266.72711,8.3312707 266.34714,-1.5245576 263.49058,-1.8322907 C 262.93925,-2.7581145 262.45401,-4.6848065 262.56869,-6.8889701"
       style="opacity:1;fill:url(#linearGradient2607);fill-opacity:1;fill-rule:evenodd;stroke:#000000;stroke-width:1px;stroke-linecap:butt;stroke-linejoin:miter;stroke-opacity:1" />
    <path
       id="path2513"
       d="M 324.53142,516.83588 C 322.1812,516.83588 321.42602,489.91215 319.54582,479.29356 C 318.18953,471.63359 314.96546,476.16506 313.31386,476.16506 C 310.95954,476.16506 308.60525,476.16506 306.25096,476.16506 C 303.67924,476.16506 302.42762,486.02584 300.84988,494.9362 C 299.89531,500.32735 294.73108,499.41591 293.78698,501.19323 C 291.63414,505.24609 290.2248,511.47664 288.80141,516.83588"
       style="opacity:1;fill:url(#linearGradient2604);fill-opacity:1;fill-rule:evenodd;stroke:#000000;stroke-width:1px;stroke-linecap:butt;stroke-linejoin:miter;stroke-opacity:1" />
    <path
       id="path2515"
       d="M 630.36018,514.49968 C 632.13623,510.14481 632.24226,503.54051 632.99044,498.57378 C 633.63949,493.22755 633.63891,487.72336 634.19982,482.37647 C 635.49462,474.99681 639.16266,468.63034 638.58942,460.50178 C 638.73241,450.02215 637.9472,439.27798 639.83776,429.08837 C 640.66389,425.92504 640.10923,421.27557 641.18787,418.9428 C 644.40489,417.50805 647.36544,420.96474 650.46196,421.75206 C 654.31647,423.77196 655.34685,430.91316 656.24165,436.61735 C 656.7059,440.54047 657.8613,444.06119 658.69071,447.76133 C 659.42085,452.99451 658.95519,458.55145 660.21539,463.61795 C 661.5531,471.21989 664.40448,477.74538 667.63444,483.473 C 669.87799,487.76536 671.24604,493.2043 671.31038,498.89141 C 671.44122,503.69042 671.3395,508.65362 672.59174,513.1219 L 672.71683,513.80812 L 672.83,514.49968"
       style="opacity:1;fill:url(#linearGradient2601);fill-opacity:1;fill-rule:evenodd;stroke:#000000;stroke-width:1px;stroke-linecap:butt;stroke-linejoin:miter;stroke-opacity:1"
       sodipodi:nodetypes="ccccccccccccccc" />
    <path
       id="path2517"
       d="M 520.3328,-7.214 C 510.20301,12.645001 492.14727,33.512695 487.09355,57.073245 C 482.86157,78.534075 476.3887,99.36645 472.90444,121.00057 C 471.54488,143.84238 461.12501,163.58651 454.42056,184.35493 C 452.28747,194.74373 452.01306,211.71373 441.03045,213.65085 C 429.99771,212.09605 432.21056,195.87184 431.97184,186.14808 C 431.85823,172.68515 430.66309,157.94782 422.72958,147.65543 C 412.65987,127.50509 421.81964,102.1753 412.83076,81.552715 C 406.62385,62.540665 403.68734,41.897585 404.63482,21.449395 C 403.50057,11.759815 399.51973,2.72356 399.68006,-7.214"
       style="opacity:1;fill:url(#linearGradient2598);fill-opacity:1;fill-rule:evenodd;stroke:#000000;stroke-width:1px;stroke-linecap:butt;stroke-linejoin:miter;stroke-opacity:1"
       sodipodi:nodetypes="cccccccccc" />
    <path
       id="path2519"
       d="M 399.44375,515.85 C 399.85494,496.88262 401.43826,471.88508 418.94665,460.7016 C 426.8817,447.28104 422.58626,430.39546 425.59728,415.53325 C 427.35369,399.55649 430.39475,383.8216 432.57673,367.96074 C 434.92291,354.36663 458.13172,342.80589 461.30008,362.17179 C 463.45925,378.56493 476.46076,390.31821 482.67123,405.29613 C 489.13246,424.15567 481.23134,447.12113 488.35056,465.83058 C 493.66933,481.86147 495.82017,499.43093 499.19863,515.85"
       style="opacity:1;fill:url(#linearGradient2595);fill-opacity:1;fill-rule:evenodd;stroke:#000000;stroke-width:0.99999994px;stroke-linecap:butt;stroke-linejoin:miter;stroke-opacity:1"
       sodipodi:nodetypes="cccccccc" />
    <path
       id="path4591"
       d="M 987.11572,-3.1 C 980.50061,-0.8181482 980.1057,2.1798133 977.31899,4.7822662 C 974.90154,7.583564 974.90369,10.46763 972.81451,13.269279 C 967.99185,17.136049 954.32981,20.471934 956.46492,24.731111 C 955.9323,30.222192 958.85693,35.851885 951.8153,41.191007 C 948.73827,42.848519 950.80418,45.284733 946.78665,46.50705 C 934.80447,47.258827 923.77753,45.447602 912.24415,45.035063 C 897.88758,43.97668 894.04977,40.234857 890.71699,37.245996 C 888.98785,35.190371 884.68441,33.345594 881.59517,31.406806 C 878.87567,28.664741 880.61006,25.753035 875.91631,23.098307 C 870.93386,19.115069 860.31353,15.69586 848.28312,12.694725 C 839.92676,10.445624 834.8313,7.595745 834.59162,4.6158349 C 834.10433,2.1012618 834.48319,-0.4993375 829.81904,-2.8406144 L 829.35315,-3.2001768 L 828.93162,-3.1"
       style="fill:#c8beb7;fill-opacity:1;fill-rule:evenodd;stroke:#000000;stroke-width:1px;stroke-linecap:butt;stroke-linejoin:miter;stroke-opacity:1"
       sodipodi:nodetypes="ccccccccccccccc" />
    <path
       transform="matrix(-1.7859498,0,0,-0.3368388,2321.4753,273.34279)"
       id="path4593"
       d="M 775.8125,695.5 C 772.41205,707.70503 771.64597,720.20444 772.4375,732.8125 C 772.8949,743.62889 770.83591,754.60837 764.875,763.71875 C 760.24601,774.58873 762.15421,786.81885 758.59375,798.03125 C 780.83252,798.42328 803.07049,798.89609 825.3125,799.0625 C 824.35422,789.35847 825.2662,777.70334 816.62556,771.15122 C 805.0773,758.46689 799.08499,741.59503 797.98893,724.64755 C 794.67327,716.44823 793.14464,707.26895 789.09375,699.53125 C 785.57167,696.21822 780.38858,696.06116 775.96875,694.71875 L 775.8125,695.5 z"
       style="fill:#4e433b;fill-opacity:1;fill-rule:evenodd;stroke:none;stroke-width:1px;stroke-linecap:butt;stroke-linejoin:miter;stroke-opacity:1;filter:url(#filter14180)" />
    <path
       style="opacity:1;fill:url(#linearGradient4597);fill-opacity:1;fill-rule:evenodd;stroke:#000000;stroke-width:1px;stroke-linecap:butt;stroke-linejoin:miter;stroke-opacity:1"
       d="M 987.11572,-3.563 C 980.50061,-1.2811482 980.1057,2.1798133 977.31899,4.7822662 C 974.90154,7.583564 974.90369,10.46763 972.81451,13.269279 C 967.99185,17.136049 954.32981,20.471934 956.46492,24.731111 C 955.9323,30.222192 958.85693,35.851885 951.8153,41.191007 C 948.73827,42.848519 950.80418,45.284733 946.78665,46.50705 C 934.80447,47.258827 923.77753,45.447602 912.24415,45.035063 C 897.88758,43.97668 894.04977,40.234857 890.71699,37.245996 C 888.98785,35.190371 884.68441,33.345594 881.59517,31.406806 C 878.87567,28.664741 880.61006,25.753035 875.91631,23.098307 C 870.93386,19.115069 860.31353,15.69586 848.28312,12.694725 C 839.92676,10.445624 834.8313,7.595745 834.59162,4.6158349 C 834.10433,2.1012618 834.48319,-0.4993375 829.81904,-2.8406144 L 829.35315,-3.2001768 L 828.93162,-3.5627051"
       id="path4595"
       sodipodi:nodetypes="ccccccccccccccc" />
  </g>
</svg>
