<?xml version="1.0" encoding="UTF-8" standalone="no"?>
<!-- Created with Inkscape (http://www.inkscape.org/) -->

<svg
   xmlns:dc="http://purl.org/dc/elements/1.1/"
   xmlns:cc="http://creativecommons.org/ns#"
   xmlns:rdf="http://www.w3.org/1999/02/22-rdf-syntax-ns#"
   xmlns:svg="http://www.w3.org/2000/svg"
   xmlns="http://www.w3.org/2000/svg"
   xmlns:xlink="http://www.w3.org/1999/xlink"
   xmlns:sodipodi="http://sodipodi.sourceforge.net/DTD/sodipodi-0.dtd"
   xmlns:inkscape="http://www.inkscape.org/namespaces/inkscape"
   width="128"
   height="128"
   id="svg2"
   sodipodi:version="0.32"
   inkscape:version="0.47pre2 r22153"
   version="1.0"
   sodipodi:docname="berry.svg"
   inkscape:output_extension="org.inkscape.output.svg.inkscape"
   inkscape:export-filename="C:\Dateien\Desktop\Secret Maryo Chronicles\SMC\data\pixmaps\ground\jungle_1\berry_1.png"
   inkscape:export-xdpi="90"
   inkscape:export-ydpi="90">
  <defs
     id="defs4">
    <linearGradient
       id="linearGradient11055">
      <stop
         style="stop-color:#1aad00;stop-opacity:1;"
         offset="0"
         id="stop11057" />
      <stop
         style="stop-color:#72ff0e;stop-opacity:1;"
         offset="1"
         id="stop11059" />
    </linearGradient>
    <linearGradient
       id="linearGradient9102">
      <stop
         style="stop-color:#aad400;stop-opacity:1;"
         offset="0"
         id="stop9104" />
      <stop
         style="stop-color:#88aa00;stop-opacity:0;"
         offset="1"
         id="stop9106" />
    </linearGradient>
    <linearGradient
       id="linearGradient7077">
      <stop
         style="stop-color:#ff458f;stop-opacity:1;"
         offset="0"
         id="stop7079" />
      <stop
         style="stop-color:#aa0044;stop-opacity:1;"
         offset="1"
         id="stop7081" />
    </linearGradient>
    <filter
       inkscape:collect="always"
       id="filter6100">
      <feGaussianBlur
         inkscape:collect="always"
         stdDeviation="0.50085874"
         id="feGaussianBlur6102" />
    </filter>
    <clipPath
       clipPathUnits="userSpaceOnUse"
       id="clipPath6104">
      <path
         sodipodi:type="arc"
         style="opacity:1;fill:#aa0044;fill-opacity:1;fill-rule:evenodd;stroke:#000000;stroke-width:0.40000001;stroke-linecap:round;stroke-linejoin:miter;marker:none;marker-start:none;marker-mid:none;marker-end:none;stroke-miterlimit:4;stroke-dasharray:none;stroke-dashoffset:0;stroke-opacity:1;visibility:visible;display:inline;overflow:visible;enable-background:accumulate"
         id="path6106"
         sodipodi:cx="15.967677"
         sodipodi:cy="16.064646"
         sodipodi:rx="5.8505049"
         sodipodi:ry="5.8505049"
         d="M 21.818182,16.064646 A 5.8505049,5.8505049 0 1 1 10.117172,16.064646 A 5.8505049,5.8505049 0 1 1 21.818182,16.064646 z" />
    </clipPath>
    <radialGradient
       inkscape:collect="always"
       xlink:href="#linearGradient7077"
       id="radialGradient8074"
       gradientUnits="userSpaceOnUse"
       cx="14.603756"
       cy="14.485368"
       fx="14.603756"
       fy="14.485368"
       r="6.0725908" />
    <radialGradient
       inkscape:collect="always"
       xlink:href="#linearGradient7077"
       id="radialGradient8082"
       gradientUnits="userSpaceOnUse"
       cx="14.603756"
       cy="14.485368"
       fx="14.603756"
       fy="14.485368"
       r="6.0725908" />
    <radialGradient
       inkscape:collect="always"
       xlink:href="#linearGradient7077"
       id="radialGradient8090"
       gradientUnits="userSpaceOnUse"
       cx="14.603756"
       cy="14.485368"
       fx="14.603756"
       fy="14.485368"
       r="6.0725908" />
    <radialGradient
       inkscape:collect="always"
       xlink:href="#linearGradient7077"
       id="radialGradient8098"
       gradientUnits="userSpaceOnUse"
       cx="14.603756"
       cy="14.485368"
       fx="14.603756"
       fy="14.485368"
       r="6.0725908" />
    <radialGradient
       inkscape:collect="always"
       xlink:href="#linearGradient7077"
       id="radialGradient8106"
       gradientUnits="userSpaceOnUse"
       cx="14.603756"
       cy="14.485368"
       fx="14.603756"
       fy="14.485368"
       r="6.0725908" />
    <radialGradient
       inkscape:collect="always"
       xlink:href="#linearGradient7077"
       id="radialGradient8114"
       gradientUnits="userSpaceOnUse"
       cx="14.603756"
       cy="14.485368"
       fx="14.603756"
       fy="14.485368"
       r="6.0725908" />
    <radialGradient
       inkscape:collect="always"
       xlink:href="#linearGradient9102"
       id="radialGradient9108"
       cx="-58.785572"
       cy="26.971685"
       fx="-58.785572"
       fy="26.971685"
       r="2.9684455"
       gradientUnits="userSpaceOnUse" />
    <linearGradient
       inkscape:collect="always"
       xlink:href="#linearGradient11055"
       id="linearGradient11061"
       x1="-61.155556"
       y1="12.953945"
       x2="-58.828281"
       y2="12.953945"
       gradientUnits="userSpaceOnUse"
       gradientTransform="matrix(3.9747879,0,0,3.9747879,301.14934,-67.465172)" />
  </defs>
  <sodipodi:namedview
     id="base"
     pagecolor="#ffffff"
     bordercolor="#666666"
     borderopacity="1.0"
     inkscape:pageopacity="0.0"
     inkscape:pageshadow="2"
     inkscape:zoom="2"
     inkscape:cx="21.193954"
     inkscape:cy="97.732684"
     inkscape:document-units="px"
     inkscape:current-layer="layer1"
     width="32px"
     height="32px"
     inkscape:window-width="1024"
     inkscape:window-height="696"
     inkscape:window-x="114"
     inkscape:window-y="58"
     showgrid="false"
     inkscape:window-maximized="0" />
  <metadata
     id="metadata7">
    <rdf:RDF>
      <cc:Work
         rdf:about="">
        <dc:format>image/svg+xml</dc:format>
        <dc:type
           rdf:resource="http://purl.org/dc/dcmitype/StillImage" />
        <dc:title></dc:title>
      </cc:Work>
    </rdf:RDF>
  </metadata>
  <g
     inkscape:label="Ebene 1"
     inkscape:groupmode="layer"
     id="layer1">
    <g
       id="g8084"
       transform="matrix(3.4996797,0,0,3.4996797,55.135175,37.146836)">
      <path
         transform="matrix(0.936464,0,0,0.9309391,-1.522852,-1.2663185)"
         d="m 21.818182,16.064646 c 0,3.231144 -2.61936,5.850505 -5.850505,5.850505 -3.231145,0 -5.850505,-2.619361 -5.850505,-5.850505 0,-3.231145 2.61936,-5.850505 5.850505,-5.850505 3.231145,0 5.850505,2.61936 5.850505,5.850505 z"
         sodipodi:ry="5.8505049"
         sodipodi:rx="5.8505049"
         sodipodi:cy="16.064646"
         sodipodi:cx="15.967677"
         id="path8086"
         style="fill:url(#radialGradient8090);fill-opacity:1;fill-rule:evenodd;stroke:#000000;stroke-width:0.48656341;stroke-linecap:round;stroke-linejoin:miter;marker:none;marker-start:none;marker-mid:none;marker-end:none;stroke-miterlimit:4;stroke-dasharray:none;stroke-dashoffset:0;stroke-opacity:1;visibility:visible;display:inline;overflow:visible;enable-background:accumulate"
         sodipodi:type="arc" />
      <path
         clip-path="url(#clipPath6104)"
         transform="matrix(0.9005524,0,0,0.9005524,-0.9595285,-0.8003887)"
         d="m 21.818182,16.064646 c 0,3.231144 -2.61936,5.850505 -5.850505,5.850505 -3.231145,0 -5.850505,-2.619361 -5.850505,-5.850505 0,-3.231145 2.61936,-5.850505 5.850505,-5.850505 3.231145,0 5.850505,2.61936 5.850505,5.850505 z"
         sodipodi:ry="5.8505049"
         sodipodi:rx="5.8505049"
         sodipodi:cy="16.064646"
         sodipodi:cx="15.967677"
         id="path8088"
         style="fill:none;fill-opacity:1;fill-rule:evenodd;stroke:#550022;stroke-width:1.26117873;stroke-linecap:round;stroke-linejoin:miter;marker:none;marker-start:none;marker-mid:none;marker-end:none;stroke-miterlimit:4;stroke-dasharray:none;stroke-dashoffset:0;stroke-opacity:1;visibility:visible;display:inline;overflow:visible;filter:url(#filter6100);enable-background:accumulate"
         sodipodi:type="arc" />
    </g>
    <g
       id="g8070"
       transform="matrix(3.9747876,0,0,3.9747876,48.818564,-0.3996594)">
      <path
         transform="matrix(0.936464,0,0,0.9309391,-1.522852,-1.2663185)"
         d="m 21.818182,16.064646 c 0,3.231144 -2.61936,5.850505 -5.850505,5.850505 -3.231145,0 -5.850505,-2.619361 -5.850505,-5.850505 0,-3.231145 2.61936,-5.850505 5.850505,-5.850505 3.231145,0 5.850505,2.61936 5.850505,5.850505 z"
         sodipodi:ry="5.8505049"
         sodipodi:rx="5.8505049"
         sodipodi:cy="16.064646"
         sodipodi:cx="15.967677"
         id="path3151"
         style="fill:url(#radialGradient8074);fill-opacity:1;fill-rule:evenodd;stroke:#000000;stroke-width:0.42840427;stroke-linecap:round;stroke-linejoin:miter;marker:none;marker-start:none;marker-mid:none;marker-end:none;stroke-miterlimit:4;stroke-dasharray:none;stroke-dashoffset:0;stroke-opacity:1;visibility:visible;display:inline;overflow:visible;enable-background:accumulate"
         sodipodi:type="arc" />
      <path
         clip-path="url(#clipPath6104)"
         transform="matrix(0.9005524,0,0,0.9005524,-0.9595285,-0.8003887)"
         d="m 21.818182,16.064646 c 0,3.231144 -2.61936,5.850505 -5.850505,5.850505 -3.231145,0 -5.850505,-2.619361 -5.850505,-5.850505 0,-3.231145 2.61936,-5.850505 5.850505,-5.850505 3.231145,0 5.850505,2.61936 5.850505,5.850505 z"
         sodipodi:ry="5.8505049"
         sodipodi:rx="5.8505049"
         sodipodi:cy="16.064646"
         sodipodi:cx="15.967677"
         id="path4124"
         style="fill:none;fill-opacity:1;fill-rule:evenodd;stroke:#550022;stroke-width:1.11042953;stroke-linecap:round;stroke-linejoin:miter;marker:none;marker-start:none;marker-mid:none;marker-end:none;stroke-miterlimit:4;stroke-dasharray:none;stroke-dashoffset:0;stroke-opacity:1;visibility:visible;display:inline;overflow:visible;filter:url(#filter6100);enable-background:accumulate"
         sodipodi:type="arc" />
    </g>
    <g
       id="g8092"
       transform="matrix(3.0389839,0,0,3.0389839,34.560106,64.756553)">
      <path
         transform="matrix(0.936464,0,0,0.9309391,-1.522852,-1.2663185)"
         d="m 21.818182,16.064646 c 0,3.231144 -2.61936,5.850505 -5.850505,5.850505 -3.231145,0 -5.850505,-2.619361 -5.850505,-5.850505 0,-3.231145 2.61936,-5.850505 5.850505,-5.850505 3.231145,0 5.850505,2.61936 5.850505,5.850505 z"
         sodipodi:ry="5.8505049"
         sodipodi:rx="5.8505049"
         sodipodi:cy="16.064646"
         sodipodi:cx="15.967677"
         id="path8094"
         style="fill:url(#radialGradient8098);fill-opacity:1;fill-rule:evenodd;stroke:#000000;stroke-width:0.56032413;stroke-linecap:round;stroke-linejoin:miter;marker:none;marker-start:none;marker-mid:none;marker-end:none;stroke-miterlimit:4;stroke-dasharray:none;stroke-dashoffset:0;stroke-opacity:1;visibility:visible;display:inline;overflow:visible;enable-background:accumulate"
         sodipodi:type="arc" />
      <path
         clip-path="url(#clipPath6104)"
         transform="matrix(0.9005524,0,0,0.9005524,-0.9595285,-0.8003887)"
         d="m 21.818182,16.064646 c 0,3.231144 -2.61936,5.850505 -5.850505,5.850505 -3.231145,0 -5.850505,-2.619361 -5.850505,-5.850505 0,-3.231145 2.61936,-5.850505 5.850505,-5.850505 3.231145,0 5.850505,2.61936 5.850505,5.850505 z"
         sodipodi:ry="5.8505049"
         sodipodi:rx="5.8505049"
         sodipodi:cy="16.064646"
         sodipodi:cx="15.967677"
         id="path8096"
         style="fill:none;fill-opacity:1;fill-rule:evenodd;stroke:#550022;stroke-width:1.45236742;stroke-linecap:round;stroke-linejoin:miter;marker:none;marker-start:none;marker-mid:none;marker-end:none;stroke-miterlimit:4;stroke-dasharray:none;stroke-dashoffset:0;stroke-opacity:1;visibility:visible;display:inline;overflow:visible;filter:url(#filter6100);enable-background:accumulate"
         sodipodi:type="arc" />
    </g>
    <g
       id="g8108"
       transform="matrix(3.567552,0,0,3.567552,-14.255142,14.73339)">
      <path
         transform="matrix(0.936464,0,0,0.9309391,-1.522852,-1.2663185)"
         d="m 21.818182,16.064646 c 0,3.231144 -2.61936,5.850505 -5.850505,5.850505 -3.231145,0 -5.850505,-2.619361 -5.850505,-5.850505 0,-3.231145 2.61936,-5.850505 5.850505,-5.850505 3.231145,0 5.850505,2.61936 5.850505,5.850505 z"
         sodipodi:ry="5.8505049"
         sodipodi:rx="5.8505049"
         sodipodi:cy="16.064646"
         sodipodi:cx="15.967677"
         id="path8110"
         style="fill:url(#radialGradient8114);fill-opacity:1;fill-rule:evenodd;stroke:#000000;stroke-width:0.47730654;stroke-linecap:round;stroke-linejoin:miter;marker:none;marker-start:none;marker-mid:none;marker-end:none;stroke-miterlimit:4;stroke-dasharray:none;stroke-dashoffset:0;stroke-opacity:1;visibility:visible;display:inline;overflow:visible;enable-background:accumulate"
         sodipodi:type="arc" />
      <path
         clip-path="url(#clipPath6104)"
         transform="matrix(0.9005524,0,0,0.9005524,-0.9595285,-0.8003887)"
         d="m 21.818182,16.064646 c 0,3.231144 -2.61936,5.850505 -5.850505,5.850505 -3.231145,0 -5.850505,-2.619361 -5.850505,-5.850505 0,-3.231145 2.61936,-5.850505 5.850505,-5.850505 3.231145,0 5.850505,2.61936 5.850505,5.850505 z"
         sodipodi:ry="5.8505049"
         sodipodi:rx="5.8505049"
         sodipodi:cy="16.064646"
         sodipodi:cx="15.967677"
         id="path8112"
         style="fill:none;fill-opacity:1;fill-rule:evenodd;stroke:#550022;stroke-width:1.23718488;stroke-linecap:round;stroke-linejoin:miter;marker:none;marker-start:none;marker-mid:none;marker-end:none;stroke-miterlimit:4;stroke-dasharray:none;stroke-dashoffset:0;stroke-opacity:1;visibility:visible;display:inline;overflow:visible;filter:url(#filter6100);enable-background:accumulate"
         sodipodi:type="arc" />
    </g>
    <g
       id="g8100"
       transform="matrix(3.6572955,0,0,3.6572955,-6.852395,45.771134)">
      <path
         transform="matrix(0.936464,0,0,0.9309391,-1.522852,-1.2663185)"
         d="m 21.818182,16.064646 c 0,3.231144 -2.61936,5.850505 -5.850505,5.850505 -3.231145,0 -5.850505,-2.619361 -5.850505,-5.850505 0,-3.231145 2.61936,-5.850505 5.850505,-5.850505 3.231145,0 5.850505,2.61936 5.850505,5.850505 z"
         sodipodi:ry="5.8505049"
         sodipodi:rx="5.8505049"
         sodipodi:cy="16.064646"
         sodipodi:cx="15.967677"
         id="path8102"
         style="fill:url(#radialGradient8106);fill-opacity:1;fill-rule:evenodd;stroke:#000000;stroke-width:0.46559435;stroke-linecap:round;stroke-linejoin:miter;marker:none;marker-start:none;marker-mid:none;marker-end:none;stroke-miterlimit:4;stroke-dasharray:none;stroke-dashoffset:0;stroke-opacity:1;visibility:visible;display:inline;overflow:visible;enable-background:accumulate"
         sodipodi:type="arc" />
      <path
         clip-path="url(#clipPath6104)"
         transform="matrix(0.9005524,0,0,0.9005524,-0.9595285,-0.8003887)"
         d="m 21.818182,16.064646 c 0,3.231144 -2.61936,5.850505 -5.850505,5.850505 -3.231145,0 -5.850505,-2.619361 -5.850505,-5.850505 0,-3.231145 2.61936,-5.850505 5.850505,-5.850505 3.231145,0 5.850505,2.61936 5.850505,5.850505 z"
         sodipodi:ry="5.8505049"
         sodipodi:rx="5.8505049"
         sodipodi:cy="16.064646"
         sodipodi:cx="15.967677"
         id="path8104"
         style="fill:none;fill-opacity:1;fill-rule:evenodd;stroke:#550022;stroke-width:1.20682669;stroke-linecap:round;stroke-linejoin:miter;marker:none;marker-start:none;marker-mid:none;marker-end:none;stroke-miterlimit:4;stroke-dasharray:none;stroke-dashoffset:0;stroke-opacity:1;visibility:visible;display:inline;overflow:visible;filter:url(#filter6100);enable-background:accumulate"
         sodipodi:type="arc" />
    </g>
    <g
       id="g8076"
       transform="matrix(4.9987044,0,0,4.9987044,-0.6809693,3.2497802)">
      <path
         transform="matrix(0.936464,0,0,0.9309391,-1.522852,-1.2663185)"
         d="m 21.818182,16.064646 c 0,3.231144 -2.61936,5.850505 -5.850505,5.850505 -3.231145,0 -5.850505,-2.619361 -5.850505,-5.850505 0,-3.231145 2.61936,-5.850505 5.850505,-5.850505 3.231145,0 5.850505,2.61936 5.850505,5.850505 z"
         sodipodi:ry="5.8505049"
         sodipodi:rx="5.8505049"
         sodipodi:cy="16.064646"
         sodipodi:cx="15.967677"
         id="path8078"
         style="fill:url(#radialGradient8082);fill-opacity:1;fill-rule:evenodd;stroke:#000000;stroke-width:0.34065145;stroke-linecap:round;stroke-linejoin:miter;marker:none;marker-start:none;marker-mid:none;marker-end:none;stroke-miterlimit:4;stroke-dasharray:none;stroke-dashoffset:0;stroke-opacity:1;visibility:visible;display:inline;overflow:visible;enable-background:accumulate"
         sodipodi:type="arc" />
      <path
         clip-path="url(#clipPath6104)"
         transform="matrix(0.9005524,0,0,0.9005524,-0.9595285,-0.8003887)"
         d="m 21.818182,16.064646 c 0,3.231144 -2.61936,5.850505 -5.850505,5.850505 -3.231145,0 -5.850505,-2.619361 -5.850505,-5.850505 0,-3.231145 2.61936,-5.850505 5.850505,-5.850505 3.231145,0 5.850505,2.61936 5.850505,5.850505 z"
         sodipodi:ry="5.8505049"
         sodipodi:rx="5.8505049"
         sodipodi:cy="16.064646"
         sodipodi:cx="15.967677"
         id="path8080"
         style="fill:none;fill-opacity:1;fill-rule:evenodd;stroke:#550022;stroke-width:0.88297307;stroke-linecap:round;stroke-linejoin:miter;marker:none;marker-start:none;marker-mid:none;marker-end:none;stroke-miterlimit:4;stroke-dasharray:none;stroke-dashoffset:0;stroke-opacity:1;visibility:visible;display:inline;overflow:visible;filter:url(#filter6100);enable-background:accumulate"
         sodipodi:type="arc" />
    </g>
    <path
       style="fill:#44aa00;fill-opacity:1;fill-rule:evenodd;stroke:#17280b;stroke-width:3.97478747;stroke-linecap:round;stroke-linejoin:miter;marker:none;marker-start:none;marker-mid:none;marker-end:none;stroke-miterlimit:4;stroke-dashoffset:0;stroke-opacity:1;visibility:visible;display:inline;overflow:visible;enable-background:accumulate"
       d="M 57.848766,21.456504 C 59.46902,21.456631 66.708436,4.1115026 77.825134,5.3870397 C 75.909752,13.745731 85.291045,21.807446 87.547993,18.462324 C 91.311945,12.883611 112.25858,7.7590761 115.00429,13.533022 C 115.55385,14.292147 99.927292,26.248885 97.75069,30.561127 C 96.942302,32.162693 115.75514,35.390316 123.50766,47.076386 C 113.51347,45.93306 89.243761,41.954226 83.907727,47.992707 C 80.708488,51.613106 84.626536,54.537334 86.683342,61.135644 C 74.559229,56.62015 71.223429,54.344802 63.971592,54.226156 C 56.719755,54.107508 57.371858,61.284679 53.737471,71.562915 C 48.047441,63.854239 53.482546,49.800381 44.810051,50.693594 C 40.293492,51.158777 18.469755,66.899165 10.256413,69.61519 C 9.6036651,58.444723 27.900586,43.55732 31.639258,43.040804 C 35.854419,42.458463 22.351842,43.924734 4.603382,43.189839 C 7.2153342,38.918453 28.012993,27.668568 38.577069,28.908229 C 44.775487,29.635595 34.025864,18.044129 30.153027,11.584253 C 38.467822,11.401988 53.949264,21.456203 57.848766,21.456504 z"
       id="path8116"
       sodipodi:nodetypes="ccscscscscscscscs" />
    <path
       sodipodi:type="arc"
       style="opacity:1;fill:url(#radialGradient9108);fill-opacity:1;fill-rule:evenodd;stroke:none;stroke-width:1;stroke-linecap:round;stroke-linejoin:miter;marker:none;marker-start:none;marker-mid:none;marker-end:none;stroke-miterlimit:4;stroke-dasharray:none;stroke-dashoffset:0;stroke-opacity:1;visibility:visible;display:inline;overflow:visible;enable-background:accumulate"
       id="path8119"
       sodipodi:cx="-58.785572"
       sodipodi:cy="26.971685"
       sodipodi:rx="2.4684455"
       sodipodi:ry="2.4684455"
       d="M -56.317127,26.971685 A 2.4684455,2.4684455 0 1 1 -61.254018,26.971685 A 2.4684455,2.4684455 0 1 1 -56.317127,26.971685 z"
       transform="matrix(8.882108,0,0,6.3837978,584.84252,-135.00222)" />
    <path
       style="fill:url(#linearGradient11061);fill-opacity:1;fill-rule:evenodd;stroke:#112b00;stroke-width:1.58991504;stroke-linecap:round;stroke-linejoin:miter;marker:none;marker-start:none;marker-mid:none;marker-end:none;stroke-miterlimit:4;stroke-dasharray:none;stroke-dashoffset:0;stroke-opacity:1;visibility:visible;display:inline;overflow:visible;enable-background:accumulate"
       d="M 58.068977,-69.777769 L 67.319393,-69.777769 L 67.319393,35.574174 C 63.435159,38.57703 60.848836,38.575653 58.068977,35.574174 L 58.068977,-69.777769 z"
       id="rect10083"
       sodipodi:nodetypes="ccccc" />
  </g>
</svg>
