<?xml version="1.0" encoding="UTF-8" standalone="no"?>
<!-- Created with Inkscape (http://www.inkscape.org/) -->

<svg
   xmlns:dc="http://purl.org/dc/elements/1.1/"
   xmlns:cc="http://creativecommons.org/ns#"
   xmlns:rdf="http://www.w3.org/1999/02/22-rdf-syntax-ns#"
   xmlns:svg="http://www.w3.org/2000/svg"
   xmlns="http://www.w3.org/2000/svg"
   xmlns:xlink="http://www.w3.org/1999/xlink"
   xmlns:sodipodi="http://sodipodi.sourceforge.net/DTD/sodipodi-0.dtd"
   xmlns:inkscape="http://www.inkscape.org/namespaces/inkscape"
   width="64"
   height="64"
   id="svg2"
   sodipodi:version="0.32"
   inkscape:version="0.47pre2 r22153"
   version="1.0"
   sodipodi:docname="berry2.svg"
   inkscape:output_extension="org.inkscape.output.svg.inkscape"
   inkscape:export-filename="C:\Dateien\Desktop\Secret Maryo Chronicles\SMC\data\pixmaps\ground\jungle_1\berry_2.png"
   inkscape:export-xdpi="180"
   inkscape:export-ydpi="180">
  <defs
     id="defs4">
    <linearGradient
       id="linearGradient3623">
      <stop
         style="stop-color:#ffff68;stop-opacity:1;"
         offset="0"
         id="stop3625" />
      <stop
         style="stop-color:#ffff00;stop-opacity:1;"
         offset="1"
         id="stop3627" />
    </linearGradient>
    <linearGradient
       id="linearGradient11055">
      <stop
         style="stop-color:#1aad00;stop-opacity:1;"
         offset="0"
         id="stop11057" />
      <stop
         style="stop-color:#72ff0e;stop-opacity:1;"
         offset="1"
         id="stop11059" />
    </linearGradient>
    <linearGradient
       inkscape:collect="always"
       xlink:href="#linearGradient11055"
       id="linearGradient11061"
       x1="-61.155556"
       y1="12.953945"
       x2="-58.828281"
       y2="12.953945"
       gradientUnits="userSpaceOnUse"
       gradientTransform="matrix(2.4980692,0,0,2.0033458,182.88816,-43.307347)" />
    <filter
       inkscape:collect="always"
       id="filter3690"
       x="-0.092604727"
       width="1.1852095"
       y="-0.14922222"
       height="1.2984444">
      <feGaussianBlur
         inkscape:collect="always"
         stdDeviation="0.58519223"
         id="feGaussianBlur3692" />
    </filter>
    <clipPath
       clipPathUnits="userSpaceOnUse"
       id="clipPath3696">
      <path
         style="opacity:1;fill:#00ff00;fill-opacity:1;fill-rule:evenodd;stroke:#000000;stroke-width:0.34999999;stroke-linecap:butt;stroke-linejoin:miter;marker:none;marker-start:none;marker-mid:none;marker-end:none;stroke-miterlimit:4;stroke-dasharray:none;stroke-dashoffset:0;stroke-opacity:1;visibility:visible;display:inline;overflow:visible;enable-background:accumulate"
         d="M 44.070462,24.420964 C 43.273979,24.31656 42.047247,25.263633 41.138495,26.721485 C 40.099921,28.387602 39.86251,30.122812 40.61493,30.590544 C 41.295888,31.013854 42.544733,30.230279 43.546896,28.847725 C 43.409888,30.401952 43.78563,31.662052 44.524218,31.810518 C 45.36625,31.979777 46.345155,30.646227 46.758097,28.812869 C 47.196956,30.534119 48.113357,31.763961 48.922168,31.60138 C 49.617151,31.46168 50.005045,30.343804 49.934394,28.917438 C 50.943546,30.338801 52.210316,31.15949 52.901265,30.72997 C 53.653685,30.262237 53.416274,28.527028 52.3777,26.860911 C 51.339126,25.194794 49.884014,24.197226 49.131594,24.664959 C 48.943489,24.781892 48.815454,25.003351 48.747646,25.257517 C 48.367256,24.790968 47.916451,24.551615 47.525993,24.630102 C 47.153038,24.705071 46.861228,25.071264 46.688289,25.606081 C 46.512835,25.179643 46.246217,24.904735 45.920393,24.83924 C 45.562309,24.767261 45.158027,24.968764 44.803453,25.362086 C 44.7597,24.992673 44.627358,24.67644 44.384601,24.525533 C 44.290548,24.467066 44.184245,24.435879 44.070462,24.420964 z"
         id="path3698" />
    </clipPath>
    <filter
       inkscape:collect="always"
       id="filter3587"
       x="-0.17520946"
       width="1.3504189"
       y="-0.065967582"
       height="1.1319352">
      <feGaussianBlur
         inkscape:collect="always"
         stdDeviation="0.71556877"
         id="feGaussianBlur3589" />
    </filter>
    <clipPath
       clipPathUnits="userSpaceOnUse"
       id="clipPath3601">
      <path
         style="fill:none;fill-opacity:1;fill-rule:evenodd;stroke:#000000;stroke-width:0.34999999;stroke-linecap:butt;stroke-linejoin:miter;marker:none;marker-start:none;marker-mid:none;marker-end:none;stroke-miterlimit:4;stroke-dasharray:none;stroke-dashoffset:0;stroke-opacity:1;visibility:visible;display:inline;overflow:visible;enable-background:accumulate"
         d="M 38.248513,26.660605 C 37.687113,26.799988 37.392213,27.749874 37.306095,29.170265 C 36.954487,28.028798 36.536656,27.28802 36.049538,27.28802 C 35.450476,27.28802 34.859168,28.448482 34.30432,30.215956 C 34.319881,28.254475 34.005943,26.968597 33.326998,26.80003 C 32.853295,26.68242 32.267526,27.147505 31.651589,28.020004 C 31.667218,27.639912 31.54944,27.384415 31.267641,27.28802 C 30.372313,26.981754 28.172337,29.17674 26.206508,32.586191 C 23.682208,36.971621 26.677812,41.246975 27.497969,41.718563 C 27.522215,43.90844 27.468657,46.380144 29.068666,47.818431 C 29.694087,48.380637 30.556214,48.427746 31.264254,48.348503 C 31.352257,49.786487 33.454835,52.304081 36.049538,52.245192 C 38.372709,52.192466 39.788213,49.860809 39.889018,48.688253 C 41.214165,48.589235 41.488169,48.741197 42.441539,47.874923 C 44.001965,46.457051 43.939213,43.658733 44.077542,41.75342 C 44.897699,41.281831 47.893301,37.006478 45.369003,32.621047 C 43.403174,29.211595 41.203196,26.981754 40.307871,27.28802 C 40.058836,27.373208 39.936143,27.60529 39.923923,27.915435 C 39.307985,27.042935 38.722217,26.542996 38.248513,26.660605 z"
         id="path3603"
         sodipodi:nodetypes="ccscscsccscscsccscc" />
    </clipPath>
    <clipPath
       clipPathUnits="userSpaceOnUse"
       id="clipPath3606">
      <path
         style="fill:none;fill-opacity:1;fill-rule:evenodd;stroke:#000000;stroke-width:0.34999999;stroke-linecap:butt;stroke-linejoin:miter;marker:none;marker-start:none;marker-mid:none;marker-end:none;stroke-miterlimit:4;stroke-dasharray:none;stroke-dashoffset:0;stroke-opacity:1;visibility:visible;display:inline;overflow:visible;enable-background:accumulate"
         d="M 38.248513,26.660605 C 37.687113,26.799988 37.392213,27.749874 37.306095,29.170265 C 36.954487,28.028798 36.536656,27.28802 36.049538,27.28802 C 35.450476,27.28802 34.859168,28.448482 34.30432,30.215956 C 34.319881,28.254475 34.005943,26.968597 33.326998,26.80003 C 32.853295,26.68242 32.267526,27.147505 31.651589,28.020004 C 31.667218,27.639912 31.54944,27.384415 31.267641,27.28802 C 30.372313,26.981754 28.172337,29.17674 26.206508,32.586191 C 23.682208,36.971621 26.677812,41.246975 27.497969,41.718563 C 27.522215,43.90844 27.468657,46.380144 29.068666,47.818431 C 29.694087,48.380637 30.556214,48.427746 31.264254,48.348503 C 31.352257,49.786487 33.454835,52.304081 36.049538,52.245192 C 38.372709,52.192466 39.788213,49.860809 39.889018,48.688253 C 41.214165,48.589235 41.488169,48.741197 42.441539,47.874923 C 44.001965,46.457051 43.939213,43.658733 44.077542,41.75342 C 44.897699,41.281831 47.893301,37.006478 45.369003,32.621047 C 43.403174,29.211595 41.203196,26.981754 40.307871,27.28802 C 40.058836,27.373208 39.936143,27.60529 39.923923,27.915435 C 39.307985,27.042935 38.722217,26.542996 38.248513,26.660605 z"
         id="path3608"
         sodipodi:nodetypes="ccscscsccscscsccscc" />
    </clipPath>
    <clipPath
       clipPathUnits="userSpaceOnUse"
       id="clipPath3610">
      <path
         style="fill:none;fill-opacity:1;fill-rule:evenodd;stroke:#000000;stroke-width:0.34999999;stroke-linecap:butt;stroke-linejoin:miter;marker:none;marker-start:none;marker-mid:none;marker-end:none;stroke-miterlimit:4;stroke-dasharray:none;stroke-dashoffset:0;stroke-opacity:1;visibility:visible;display:inline;overflow:visible;enable-background:accumulate"
         d="M 38.248513,26.660605 C 37.687113,26.799988 37.392213,27.749874 37.306095,29.170265 C 36.954487,28.028798 36.536656,27.28802 36.049538,27.28802 C 35.450476,27.28802 34.859168,28.448482 34.30432,30.215956 C 34.319881,28.254475 34.005943,26.968597 33.326998,26.80003 C 32.853295,26.68242 32.267526,27.147505 31.651589,28.020004 C 31.667218,27.639912 31.54944,27.384415 31.267641,27.28802 C 30.372313,26.981754 28.172337,29.17674 26.206508,32.586191 C 23.682208,36.971621 26.677812,41.246975 27.497969,41.718563 C 27.522215,43.90844 27.468657,46.380144 29.068666,47.818431 C 29.694087,48.380637 30.556214,48.427746 31.264254,48.348503 C 31.352257,49.786487 33.454835,52.304081 36.049538,52.245192 C 38.372709,52.192466 39.788213,49.860809 39.889018,48.688253 C 41.214165,48.589235 41.488169,48.741197 42.441539,47.874923 C 44.001965,46.457051 43.939213,43.658733 44.077542,41.75342 C 44.897699,41.281831 47.893301,37.006478 45.369003,32.621047 C 43.403174,29.211595 41.203196,26.981754 40.307871,27.28802 C 40.058836,27.373208 39.936143,27.60529 39.923923,27.915435 C 39.307985,27.042935 38.722217,26.542996 38.248513,26.660605 z"
         id="path3613"
         sodipodi:nodetypes="ccscscsccscscsccscc" />
    </clipPath>
    <clipPath
       clipPathUnits="userSpaceOnUse"
       id="clipPath3615">
      <path
         style="fill:none;fill-opacity:1;fill-rule:evenodd;stroke:#000000;stroke-width:0.34999999;stroke-linecap:butt;stroke-linejoin:miter;marker:none;marker-start:none;marker-mid:none;marker-end:none;stroke-miterlimit:4;stroke-dasharray:none;stroke-dashoffset:0;stroke-opacity:1;visibility:visible;display:inline;overflow:visible;enable-background:accumulate"
         d="M 38.248513,26.660605 C 37.687113,26.799988 37.392213,27.749874 37.306095,29.170265 C 36.954487,28.028798 36.536656,27.28802 36.049538,27.28802 C 35.450476,27.28802 34.859168,28.448482 34.30432,30.215956 C 34.319881,28.254475 34.005943,26.968597 33.326998,26.80003 C 32.853295,26.68242 32.267526,27.147505 31.651589,28.020004 C 31.667218,27.639912 31.54944,27.384415 31.267641,27.28802 C 30.372313,26.981754 28.172337,29.17674 26.206508,32.586191 C 23.682208,36.971621 26.677812,41.246975 27.497969,41.718563 C 27.522215,43.90844 27.468657,46.380144 29.068666,47.818431 C 29.694087,48.380637 30.556214,48.427746 31.264254,48.348503 C 31.352257,49.786487 33.454835,52.304081 36.049538,52.245192 C 38.372709,52.192466 39.788213,49.860809 39.889018,48.688253 C 41.214165,48.589235 41.488169,48.741197 42.441539,47.874923 C 44.001965,46.457051 43.939213,43.658733 44.077542,41.75342 C 44.897699,41.281831 47.893301,37.006478 45.369003,32.621047 C 43.403174,29.211595 41.203196,26.981754 40.307871,27.28802 C 40.058836,27.373208 39.936143,27.60529 39.923923,27.915435 C 39.307985,27.042935 38.722217,26.542996 38.248513,26.660605 z"
         id="path3617"
         sodipodi:nodetypes="ccscscsccscscsccscc" />
    </clipPath>
    <clipPath
       clipPathUnits="userSpaceOnUse"
       id="clipPath3619">
      <path
         style="fill:none;fill-opacity:1;fill-rule:evenodd;stroke:#000000;stroke-width:0.34999999;stroke-linecap:butt;stroke-linejoin:miter;marker:none;marker-start:none;marker-mid:none;marker-end:none;stroke-miterlimit:4;stroke-dasharray:none;stroke-dashoffset:0;stroke-opacity:1;visibility:visible;display:inline;overflow:visible;enable-background:accumulate"
         d="M 38.248513,26.660605 C 37.687113,26.799988 37.392213,27.749874 37.306095,29.170265 C 36.954487,28.028798 36.536656,27.28802 36.049538,27.28802 C 35.450476,27.28802 34.859168,28.448482 34.30432,30.215956 C 34.319881,28.254475 34.005943,26.968597 33.326998,26.80003 C 32.853295,26.68242 32.267526,27.147505 31.651589,28.020004 C 31.667218,27.639912 31.54944,27.384415 31.267641,27.28802 C 30.372313,26.981754 28.172337,29.17674 26.206508,32.586191 C 23.682208,36.971621 26.677812,41.246975 27.497969,41.718563 C 27.522215,43.90844 27.468657,46.380144 29.068666,47.818431 C 29.694087,48.380637 30.556214,48.427746 31.264254,48.348503 C 31.352257,49.786487 33.454835,52.304081 36.049538,52.245192 C 38.372709,52.192466 39.788213,49.860809 39.889018,48.688253 C 41.214165,48.589235 41.488169,48.741197 42.441539,47.874923 C 44.001965,46.457051 43.939213,43.658733 44.077542,41.75342 C 44.897699,41.281831 47.893301,37.006478 45.369003,32.621047 C 43.403174,29.211595 41.203196,26.981754 40.307871,27.28802 C 40.058836,27.373208 39.936143,27.60529 39.923923,27.915435 C 39.307985,27.042935 38.722217,26.542996 38.248513,26.660605 z"
         id="path3621"
         sodipodi:nodetypes="ccscscsccscscsccscc" />
    </clipPath>
    <radialGradient
       inkscape:collect="always"
       xlink:href="#linearGradient3623"
       id="radialGradient3629"
       cx="33.611382"
       cy="38.646214"
       fx="33.611382"
       fy="38.646214"
       r="4.9008913"
       gradientTransform="matrix(0.9200479,-2.6650712e-2,7.5463637e-2,2.6051896,-0.229082,-62.466945)"
       gradientUnits="userSpaceOnUse" />
    <radialGradient
       inkscape:collect="always"
       xlink:href="#linearGradient3623"
       id="radialGradient3631"
       gradientUnits="userSpaceOnUse"
       gradientTransform="matrix(0.9200479,-2.6650712e-2,7.5463637e-2,2.6051896,-0.229082,-62.466945)"
       cx="38.437096"
       cy="37.79314"
       fx="38.437096"
       fy="37.79314"
       r="4.9008913" />
    <radialGradient
       inkscape:collect="always"
       xlink:href="#linearGradient3623"
       id="radialGradient3633"
       gradientUnits="userSpaceOnUse"
       gradientTransform="matrix(0.9200479,-2.6650712e-2,7.5463637e-2,2.6051896,-0.229082,-62.466945)"
       cx="41.548359"
       cy="37.072941"
       fx="41.548359"
       fy="37.072941"
       r="4.9008913" />
    <radialGradient
       inkscape:collect="always"
       xlink:href="#linearGradient3623"
       id="radialGradient3635"
       gradientUnits="userSpaceOnUse"
       gradientTransform="matrix(0.9200479,-2.6650712e-2,7.5463637e-2,2.6051896,-0.229082,-62.466945)"
       cx="28.611845"
       cy="37.29155"
       fx="28.611845"
       fy="37.29155"
       r="4.9008913" />
    <radialGradient
       inkscape:collect="always"
       xlink:href="#linearGradient3623"
       id="radialGradient3637"
       gradientUnits="userSpaceOnUse"
       gradientTransform="matrix(0.9200479,-2.6650712e-2,7.5463637e-2,2.6051896,-0.229082,-62.466945)"
       cx="26.084297"
       cy="36.087509"
       fx="26.084297"
       fy="36.087509"
       r="4.9008913" />
  </defs>
  <sodipodi:namedview
     id="base"
     pagecolor="#ffffff"
     bordercolor="#666666"
     borderopacity="1.0"
     inkscape:pageopacity="0.0"
     inkscape:pageshadow="2"
     inkscape:zoom="3.828125"
     inkscape:cx="-10.589647"
     inkscape:cy="48.47878"
     inkscape:document-units="px"
     inkscape:current-layer="layer1"
     width="32px"
     height="32px"
     inkscape:window-width="1024"
     inkscape:window-height="696"
     inkscape:window-x="104"
     inkscape:window-y="92"
     showgrid="false"
     inkscape:window-maximized="0" />
  <metadata
     id="metadata7">
    <rdf:RDF>
      <cc:Work
         rdf:about="">
        <dc:format>image/svg+xml</dc:format>
        <dc:type
           rdf:resource="http://purl.org/dc/dcmitype/StillImage" />
        <dc:title></dc:title>
      </cc:Work>
    </rdf:RDF>
  </metadata>
  <g
     inkscape:label="Ebene 1"
     inkscape:groupmode="layer"
     id="layer1">
    <path
       style="opacity:1;fill:url(#radialGradient3637);fill-opacity:1;fill-rule:evenodd;stroke:#d45500;stroke-width:1.34328139;stroke-linecap:butt;stroke-linejoin:miter;marker:none;marker-start:none;marker-mid:none;marker-end:none;stroke-miterlimit:4;stroke-dasharray:none;stroke-dashoffset:0;stroke-opacity:1;visibility:visible;display:inline;overflow:visible;filter:url(#filter3587);enable-background:accumulate"
       d="M 27.113799,41.175223 C 25.952672,39.915549 25.209147,37.730198 25.303032,35.853061 C 25.373451,34.445082 25.708452,33.478755 26.651342,31.963781 C 27.940175,29.89297 29.355313,28.233984 30.311038,27.673469 C 31.000819,27.268926 31.286683,27.374008 31.286683,28.032108 C 31.286683,28.34673 31.227503,28.520831 30.855555,29.300435 C 28.8818,33.437437 27.99855,36.433747 27.590855,40.37551 C 27.528628,40.977143 27.456843,41.469387 27.431333,41.469387 C 27.405823,41.469387 27.262932,41.337013 27.113799,41.175223 L 27.113799,41.175223 z"
       id="path3229"
       clip-path="url(#clipPath3619)"
       transform="matrix(2.498069,0,0,2.0033458,-56.886056,-41.873793)" />
    <path
       style="opacity:1;fill:url(#radialGradient3635);fill-opacity:1;fill-rule:evenodd;stroke:#c14d00;stroke-width:1.34328139000000000;stroke-linecap:butt;stroke-linejoin:miter;marker:none;marker-start:none;marker-mid:none;marker-end:none;stroke-miterlimit:4;stroke-dasharray:none;stroke-dashoffset:0;stroke-opacity:1;visibility:visible;display:inline;overflow:visible;filter:url(#filter3587);enable-background:accumulate"
       d="M 30.040671,48.064632 C 29.42386,47.960233 28.970624,47.634752 28.518511,46.971523 C 27.733416,45.819825 27.42225,43.757784 27.658665,41.273469 C 28.104827,36.585072 28.945833,33.609302 31.02701,29.355102 C 31.563301,28.258851 31.731051,27.977844 32.070991,27.606267 C 32.293752,27.362777 32.559606,27.120327 32.661777,27.067492 C 33.382908,26.694582 33.758369,27.354044 33.924748,29.285776 C 34.009984,30.275402 34.008057,30.349363 33.885619,30.787817 C 33.670264,31.559003 33.13795,33.86576 32.92773,34.938775 C 32.278511,38.252553 31.847946,41.169283 31.352054,45.612685 C 31.203962,46.939661 31.068159,48.049048 31.050272,48.077991 C 31.010918,48.141668 30.452132,48.134272 30.040672,48.064631 L 30.040671,48.064632 z"
       id="path3231"
       clip-path="url(#clipPath3615)"
       transform="matrix(2.498069,0,0,2.0033458,-56.886056,-41.873793)" />
    <path
       style="opacity:1;fill:url(#radialGradient3629);fill-opacity:1;fill-rule:evenodd;stroke:#a34100;stroke-width:1.34328139000000000;stroke-linecap:butt;stroke-linejoin:miter;marker:none;marker-start:none;marker-mid:none;marker-end:none;stroke-miterlimit:4;stroke-dasharray:none;stroke-dashoffset:0;stroke-opacity:1;visibility:visible;display:inline;overflow:visible;filter:url(#filter3587);enable-background:accumulate"
       d="M 34.836858,51.854272 C 33.698405,51.555812 32.612288,50.741852 31.85247,49.61771 C 31.584169,49.220762 31.488945,48.98589 31.302181,48.26042 C 31.259286,48.093801 31.318949,47.352321 31.52026,45.550216 C 32.220812,39.278954 32.893325,35.347857 34.042256,30.808163 C 34.125324,30.479945 34.220885,30.236735 34.266781,30.236735 C 34.341062,30.236735 34.48066,29.919975 34.684101,29.289796 C 34.948689,28.470214 35.415162,27.688046 35.739341,27.520407 C 35.927547,27.423082 35.951855,27.424301 36.105157,27.538758 C 36.306506,27.689086 36.616396,28.226954 36.809043,28.760475 C 36.910236,29.040727 36.99049,29.164912 37.079158,29.178465 C 37.186317,29.194843 37.246525,29.376715 37.479119,30.386628 C 38.416152,34.455174 39.024938,38.584783 39.348811,43.069387 C 39.539315,45.70726 39.642277,48.304377 39.564996,48.522449 C 39.545903,48.576326 39.481162,48.811428 39.421129,49.044898 C 39.267734,49.641438 38.858346,50.300034 38.279845,50.880911 C 37.302059,51.862715 36.131426,52.193662 34.836857,51.854273 L 34.836858,51.854272 z"
       id="path3233"
       clip-path="url(#clipPath3610)"
       transform="matrix(2.498069,0,0,2.0033458,-56.886056,-41.873793)" />
    <path
       style="opacity:1;fill:url(#radialGradient3631);fill-opacity:1;fill-rule:evenodd;stroke:#b54800;stroke-width:1.34328139000000000;stroke-linecap:butt;stroke-linejoin:miter;marker:none;marker-start:none;marker-mid:none;marker-end:none;stroke-miterlimit:4;stroke-dasharray:none;stroke-dashoffset:0;stroke-opacity:1;visibility:visible;display:inline;overflow:visible;filter:url(#filter3587);enable-background:accumulate"
       d="M 39.776052,48.213488 C 39.775196,47.72314 39.642823,45.059645 39.546358,43.591836 C 39.24498,39.006056 38.588351,34.449504 37.645391,30.400425 C 37.362884,29.187344 37.357972,29.147084 37.42221,28.571854 C 37.529741,27.608958 37.780714,26.965398 38.095259,26.845978 C 38.611926,26.64982 39.64589,27.777792 40.402085,29.362548 C 42.276366,33.290468 43.127868,36.14973 43.566716,39.989064 C 43.711515,41.255861 43.724783,41.969588 43.627072,43.235925 C 43.450518,45.524043 43.053799,46.745831 42.213814,47.588354 C 41.667492,48.136326 41.303648,48.312243 40.61534,48.361208 C 40.315601,48.38253 40.004234,48.413399 39.923418,48.429804 C 39.791804,48.456521 39.776435,48.433959 39.776051,48.213489 L 39.776052,48.213488 z"
       id="path3235"
       clip-path="url(#clipPath3606)"
       transform="matrix(2.498069,0,0,2.0033458,-56.886056,-41.873793)" />
    <path
       style="opacity:1;fill:url(#radialGradient3633);fill-opacity:1;fill-rule:evenodd;stroke:#bb4b00;stroke-width:1.34328139000000000;stroke-linecap:butt;stroke-linejoin:miter;marker:none;marker-start:none;marker-mid:none;marker-end:none;stroke-miterlimit:4;stroke-dasharray:none;stroke-dashoffset:0;stroke-opacity:1;visibility:visible;display:inline;overflow:visible;filter:url(#filter3587);enable-background:accumulate"
       d="M 43.869667,41.338775 C 43.851318,41.248979 43.802866,40.808163 43.761997,40.359183 C 43.415151,36.548882 42.503388,33.412369 40.551511,29.314962 C 40.232999,28.646335 39.972397,28.013683 39.972397,27.909068 C 39.972397,27.804453 40.02048,27.650211 40.079247,27.566309 C 40.59925,26.823897 42.949735,29.175567 44.799205,32.28865 C 45.630156,33.687333 45.901901,34.537436 45.960448,35.921395 C 45.988519,36.584971 45.971158,36.962778 45.890978,37.433165 C 45.65267,38.831234 44.978132,40.309004 44.167859,41.208163 C 43.90797,41.496565 43.902411,41.498999 43.869669,41.338775 L 43.869667,41.338775 z"
       id="path3237"
       clip-path="url(#clipPath3601)"
       transform="matrix(2.498069,0,0,2.0033458,-56.886056,-41.873793)" />
    <path
       style="fill:url(#linearGradient11061);fill-opacity:1;fill-rule:evenodd;stroke:#005500;stroke-width:0.80133837;stroke-linecap:round;stroke-linejoin:miter;marker:none;marker-start:none;marker-mid:none;marker-end:none;stroke-miterlimit:4;stroke-dasharray:none;stroke-dashoffset:0;stroke-opacity:1;visibility:visible;display:inline;overflow:visible;enable-background:accumulate"
       d="M 30.117353,-44.472928 L 35.931042,-44.472928 L 35.931042,8.625853 C 33.489886,10.139333 31.864437,10.138638 30.117353,8.625853 L 30.117353,-44.472928 z"
       id="rect10083"
       sodipodi:nodetypes="ccccc" />
    <path
       style="fill:none;fill-opacity:1;fill-rule:evenodd;stroke:#552200;stroke-width:1.00167298;stroke-linecap:butt;stroke-linejoin:miter;marker:none;marker-start:none;marker-mid:none;marker-end:none;stroke-miterlimit:4;stroke-dasharray:none;stroke-dashoffset:0;stroke-opacity:1;visibility:visible;display:inline;overflow:visible;enable-background:accumulate"
       d="M 38.450006,11.335382 C 37.047588,11.614614 36.310906,13.517564 36.09578,16.363099 C 35.217437,14.076345 34.173667,12.592311 32.956811,12.592311 C 31.460314,12.592311 29.983187,14.917117 28.597135,18.45798 C 28.636009,14.528455 27.851772,11.952397 26.155719,11.614698 C 24.972377,11.379085 23.509085,12.31081 21.970431,14.058728 C 22.009472,13.297272 21.715254,12.785423 21.011302,12.592311 C 18.774711,11.978754 13.279019,16.37607 8.3682422,23.20638 C 2.0623662,31.991912 9.545592,40.556925 11.594401,41.501678 C 11.654969,45.88876 11.521178,50.840438 15.51811,53.721823 C 17.080456,54.848117 19.234108,54.942493 21.00284,54.783741 C 21.222677,57.664519 26.475064,62.708131 32.956811,62.590156 C 38.760256,62.484528 42.296281,57.813414 42.5481,55.464378 C 45.858408,55.26601 46.542887,55.570443 48.924473,53.834997 C 52.822525,50.994509 52.665767,45.388511 53.011321,41.57151 C 55.06013,40.626752 62.54335,32.061743 56.23748,23.276208 C 51.326703,16.445898 45.831006,11.978754 43.594421,12.592311 C 42.972316,12.762972 42.665822,13.227913 42.635295,13.849239 C 41.096638,12.101321 39.63335,11.099771 38.450006,11.335382 z"
       id="path2529"
       sodipodi:nodetypes="ccscscsccscscsccscc" />
    <path
       style="opacity:1;fill:#00ff00;fill-opacity:1;fill-rule:evenodd;stroke:#008000;stroke-width:1.79104173;stroke-linecap:butt;stroke-linejoin:miter;marker:none;marker-start:none;marker-mid:none;marker-end:none;stroke-miterlimit:4;stroke-dasharray:none;stroke-dashoffset:0;stroke-opacity:1;visibility:visible;display:inline;overflow:visible;filter:url(#filter3690);enable-background:accumulate"
       d="M 43.695462,24.045964 C 42.898979,23.94156 41.672247,24.888633 40.763495,26.346485 C 39.724921,28.012602 39.48751,29.747812 40.23993,30.215544 C 40.920888,30.638854 42.169733,29.855279 43.171896,28.472725 C 43.034888,30.026952 43.41063,31.287052 44.149218,31.435518 C 44.99125,31.604777 45.970155,30.271227 46.383097,28.437869 C 46.821956,30.159119 47.738357,31.388961 48.547168,31.22638 C 49.242151,31.08668 49.630045,29.968804 49.559394,28.542438 C 50.568546,29.963801 51.835316,30.78449 52.526265,30.35497 C 53.278685,29.887237 53.041274,28.152028 52.0027,26.485911 C 50.964126,24.819794 49.509014,23.822226 48.756594,24.289959 C 48.568489,24.406892 48.440454,24.628351 48.372646,24.882517 C 47.992256,24.415968 47.541451,24.176615 47.150993,24.255102 C 46.778038,24.330071 46.486228,24.696264 46.313289,25.231081 C 46.137835,24.804643 45.871217,24.529735 45.545393,24.46424 C 45.187309,24.392261 44.783027,24.593764 44.428453,24.987086 C 44.3847,24.617673 44.252358,24.30144 44.009601,24.150533 C 43.915548,24.092066 43.809245,24.060879 43.695462,24.045964 z"
       id="path3612"
       clip-path="url(#clipPath3696)"
       transform="matrix(2.498069,0,0,2.0033458,-83.544922,-43.966726)" />
    <path
       style="opacity:1;fill:none;fill-opacity:1;fill-rule:evenodd;stroke:#165016;stroke-width:1.00167298;stroke-linecap:butt;stroke-linejoin:miter;marker:none;marker-start:none;marker-mid:none;marker-end:none;stroke-miterlimit:4;stroke-dasharray:none;stroke-dashoffset:0;stroke-opacity:1;visibility:visible;display:inline;overflow:visible;enable-background:accumulate"
       d="M 26.514913,4.7315335 C 24.525242,4.5223765 21.46078,6.419691 19.190653,9.340274 C 16.596224,12.678081 16.003155,16.154306 17.882753,17.091335 C 19.583833,17.939372 22.703535,16.3696 25.207008,13.599866 C 24.864753,16.71352 25.803382,19.237937 27.648424,19.535365 C 29.751878,19.87445 32.197251,17.202888 33.228809,13.530038 C 34.325111,16.978296 36.614341,19.442096 38.63481,19.116389 C 40.370926,18.836522 41.33991,16.59703 41.163422,13.739525 C 43.684351,16.587008 46.84883,18.231131 48.574867,17.370654 C 50.454465,16.433623 49.861398,12.957399 47.266967,9.619591 C 44.672538,6.2817826 41.037567,4.2833095 39.157969,5.2203408 C 38.68807,5.4545975 38.368229,5.8982569 38.198841,6.4074385 C 37.248599,5.4727803 36.122459,4.9932731 35.147067,5.1505095 C 34.215399,5.300699 33.486438,6.0343097 33.054427,7.1057332 C 32.616128,6.2514299 31.9501,5.7006949 31.136167,5.5694855 C 30.241648,5.4252867 29.231725,5.8289663 28.345975,6.616927 C 28.236676,5.8768652 27.906076,5.2433404 27.299651,4.9410221 C 27.064701,4.8238921 26.799149,4.7614138 26.514913,4.7315335 z"
       id="path3694" />
  </g>
</svg>
