<?xml version="1.0" encoding="UTF-8" standalone="no"?>
<!-- Created with Inkscape (http://www.inkscape.org/) -->
<svg
   xmlns:dc="http://purl.org/dc/elements/1.1/"
   xmlns:cc="http://web.resource.org/cc/"
   xmlns:rdf="http://www.w3.org/1999/02/22-rdf-syntax-ns#"
   xmlns:svg="http://www.w3.org/2000/svg"
   xmlns="http://www.w3.org/2000/svg"
   xmlns:xlink="http://www.w3.org/1999/xlink"
   xmlns:sodipodi="http://sodipodi.sourceforge.net/DTD/sodipodi-0.dtd"
   xmlns:inkscape="http://www.inkscape.org/namespaces/inkscape"
   width="64"
   height="128"
   id="svg2"
   sodipodi:version="0.32"
   inkscape:version="0.45.1"
   sodipodi:docbase="D:\Dateien\Desktop\Secret Maryo Chronicles\Drafts\Game\Sauer2\ghost light"
   sodipodi:docname="3.svg"
   inkscape:output_extension="org.inkscape.output.svg.inkscape"
   version="1.0"
   inkscape:export-filename="D:\Dateien\Desktop\Secret Maryo Chronicles\Drafts\Game\Sauer2\green_ghost_light.png"
   inkscape:export-xdpi="360"
   inkscape:export-ydpi="360">
  <defs
     id="defs4">
    <linearGradient
       inkscape:collect="always"
       id="linearGradient3167">
      <stop
         style="stop-color:#ffffff;stop-opacity:1;"
         offset="0"
         id="stop3169" />
      <stop
         style="stop-color:#ffffff;stop-opacity:0;"
         offset="1"
         id="stop3171" />
    </linearGradient>
    <linearGradient
       id="linearGradient3157">
      <stop
         style="stop-color:#d9ff81;stop-opacity:1;"
         offset="0"
         id="stop3159" />
      <stop
         style="stop-color:#33ff43;stop-opacity:0;"
         offset="1"
         id="stop3161" />
    </linearGradient>
    <linearGradient
       inkscape:collect="always"
       xlink:href="#linearGradient3157"
       id="linearGradient3163"
       x1="314.69156"
       y1="539.50507"
       x2="425.30844"
       y2="1028.0765"
       gradientUnits="userSpaceOnUse"
       gradientTransform="matrix(0.1190648,0,0,0.1190648,-13.230286,-2.4555609)" />
    <linearGradient
       inkscape:collect="always"
       xlink:href="#linearGradient3167"
       id="linearGradient3173"
       x1="-324.71371"
       y1="311.00867"
       x2="-448.71194"
       y2="542.43726"
       gradientUnits="userSpaceOnUse" />
    <linearGradient
       inkscape:collect="always"
       xlink:href="#linearGradient3167"
       id="linearGradient3176"
       gradientUnits="userSpaceOnUse"
       x1="-324.71371"
       y1="311.00867"
       x2="-448.71194"
       y2="542.43726"
       gradientTransform="translate(768.57143,102.85715)" />
    <filter
       inkscape:collect="always"
       id="filter4132">
      <feGaussianBlur
         inkscape:collect="always"
         stdDeviation="0.42345532"
         id="feGaussianBlur4134" />
    </filter>
    <filter
       inkscape:collect="always"
       id="filter4140">
      <feGaussianBlur
         inkscape:collect="always"
         stdDeviation="4.019523"
         id="feGaussianBlur4142" />
    </filter>
    <filter
       inkscape:collect="always"
       id="filter5129">
      <feGaussianBlur
         inkscape:collect="always"
         stdDeviation="1.347866"
         id="feGaussianBlur5131" />
    </filter>
  </defs>
  <sodipodi:namedview
     id="base"
     pagecolor="#000000"
     bordercolor="#666666"
     borderopacity="1.0"
     inkscape:pageopacity="0"
     inkscape:pageshadow="2"
     inkscape:zoom="1.979899"
     inkscape:cx="73.688285"
     inkscape:cy="43.023779"
     inkscape:document-units="px"
     inkscape:current-layer="layer1"
     inkscape:window-width="826"
     inkscape:window-height="581"
     inkscape:window-x="176"
     inkscape:window-y="240"
     showgrid="true"
     width="64px"
     height="128px" />
  <metadata
     id="metadata7">
    <rdf:RDF>
      <cc:Work
         rdf:about="">
        <dc:format>image/svg+xml</dc:format>
        <dc:type
           rdf:resource="http://purl.org/dc/dcmitype/StillImage" />
      </cc:Work>
    </rdf:RDF>
  </metadata>
  <g
     inkscape:label="Ebene 1"
     inkscape:groupmode="layer"
     id="layer1">
    <path
       style="fill:#33ff43;fill-opacity:0.59595959;fill-rule:nonzero;stroke:#067100;stroke-width:0.52842683;stroke-linecap:round;stroke-linejoin:round;stroke-miterlimit:4;stroke-dasharray:none;stroke-dashoffset:0;stroke-opacity:1;filter:url(#filter5129)"
       d="M 46.604919,73.686981 C 48.428103,87.115983 53.715386,118.02794 48.838618,122.90242 C 45.049047,126.69021 46.435757,120.37534 42.347634,117.50881 C 36.144861,113.15951 40.916833,123.00383 29.12276,123.14654 C 19.441717,123.26367 24.484123,110.63254 16.342153,117.82715 C 14.064378,119.83987 16.129743,126.188 11.202457,122.2627 C 5.5875765,117.7896 11.50568,86.592926 12.320993,73.686981 C 13.758153,50.937422 20.000581,32.391866 29.462956,32.391866 C 38.925314,32.391866 46.604919,50.892083 46.604919,73.686981 z "
       id="path2160"
       sodipodi:nodetypes="csssssssc"
       transform="matrix(1.29817,0,0,1.29817,-7.2866496,-37.635726)" />
    <path
       style="fill:#33ff43;fill-opacity:0.59595959;fill-rule:nonzero;stroke:none;stroke-width:3.29999995;stroke-linecap:round;stroke-linejoin:round;stroke-miterlimit:4;stroke-dashoffset:0;stroke-opacity:1"
       d="M 49.09267,59.671076 C 51.165028,74.631187 57.565666,107.55168 52.022434,112.98195 C 47.714999,117.20157 48.900395,111.68259 44.253586,108.48924 C 37.203167,103.64408 42.627259,114.61079 29.221419,114.76975 C 18.217371,114.90026 23.948871,100.82898 14.69421,108.84387 C 12.105155,111.08611 15.386821,117.71638 9.7861738,113.34353 C 3.4039519,108.36042 9.1967833,74.048494 10.123513,59.671076 C 11.757087,34.327761 18.852615,13.66773 29.608091,13.66773 C 40.363589,13.66773 49.09267,34.277246 49.09267,59.671076 z "
       id="path3153"
       sodipodi:nodetypes="csssssssc" />
    <path
       style="fill:url(#linearGradient3163);fill-opacity:1;fill-rule:nonzero;stroke:none;stroke-width:3.29999995;stroke-linecap:round;stroke-linejoin:round;stroke-miterlimit:4;stroke-dashoffset:0;stroke-opacity:1;filter:url(#filter4132)"
       d="M 39.572815,69.518333 C 40.82295,77.282439 46.37274,94.707945 43.028768,97.526177 C 40.430314,99.716123 39.456819,96.511663 36.653629,94.854351 C 32.400443,92.33976 35.672544,98.031355 27.585459,98.11385 C 20.947257,98.181577 24.40478,90.878766 18.821895,95.038394 C 17.260053,96.202062 17.092106,100.21249 13.713506,97.943037 C 9.8634315,95.35688 15.505569,76.98003 16.064635,69.518333 C 17.050089,56.365464 21.330465,45.643155 27.818717,45.643155 C 34.306968,45.643155 39.572815,56.339236 39.572815,69.518333 z "
       id="path3155"
       sodipodi:nodetypes="csssssssc"
       transform="matrix(1.29817,0,0,1.29817,-7.2866496,-37.635726)" />
    <path
       style="fill:none;fill-opacity:0.59595959;fill-rule:evenodd;stroke:url(#linearGradient3176);stroke-width:22.29999924;stroke-linecap:round;stroke-linejoin:miter;stroke-miterlimit:4;stroke-dasharray:none;stroke-opacity:1;filter:url(#filter4140)"
       d="M 267.5875,595.05598 C 266.71654,508.56597 316.2632,364.64226 369.04946,441.3337"
       id="path3165"
       sodipodi:nodetypes="cs"
       transform="matrix(0.1545663,0,0,0.1545663,-24.461812,-38.615366)" />
  </g>
</svg>
