<?xml version="1.0" encoding="UTF-8" standalone="no"?>
<!-- Created with Inkscape (http://www.inkscape.org/) -->

<svg
   xmlns:dc="http://purl.org/dc/elements/1.1/"
   xmlns:cc="http://creativecommons.org/ns#"
   xmlns:rdf="http://www.w3.org/1999/02/22-rdf-syntax-ns#"
   xmlns:svg="http://www.w3.org/2000/svg"
   xmlns="http://www.w3.org/2000/svg"
   xmlns:xlink="http://www.w3.org/1999/xlink"
   xmlns:sodipodi="http://sodipodi.sourceforge.net/DTD/sodipodi-0.dtd"
   xmlns:inkscape="http://www.inkscape.org/namespaces/inkscape"
   width="128"
   height="256"
   id="svg2"
   sodipodi:version="0.32"
   inkscape:version="0.47pre2 r22153"
   version="1.0"
   sodipodi:docname="plant_1.svg"
   inkscape:output_extension="org.inkscape.output.svg.inkscape"
   inkscape:export-filename="C:\Dateien\Desktop\Secret Maryo Chronicles\SMC\data\pixmaps\game\background\jungle_forest_1.png"
   inkscape:export-xdpi="90"
   inkscape:export-ydpi="90">
  <sodipodi:namedview
     id="base"
     pagecolor="#061700"
     bordercolor="#666666"
     borderopacity="1.0"
     inkscape:pageopacity="0"
     inkscape:pageshadow="2"
     inkscape:zoom="1"
     inkscape:cx="70.5"
     inkscape:cy="322.27629"
     inkscape:document-units="px"
     inkscape:current-layer="layer1"
     showgrid="false"
     inkscape:window-width="1280"
     inkscape:window-height="967"
     inkscape:window-x="-4"
     inkscape:window-y="-4"
     showguides="true"
     inkscape:guide-bbox="true"
     inkscape:window-maximized="1"
     inkscape:snap-nodes="false" />
  <defs
     id="defs4">
    <inkscape:perspective
       sodipodi:type="inkscape:persp3d"
       inkscape:vp_x="0 : 128 : 1"
       inkscape:vp_y="0 : 1000 : 0"
       inkscape:vp_z="128 : 128 : 1"
       inkscape:persp3d-origin="64 : 85.333333 : 1"
       id="perspective126" />
    <linearGradient
       inkscape:collect="always"
       id="linearGradient6339">
      <stop
         style="stop-color:#18ae00;stop-opacity:1;"
         offset="0"
         id="stop6341" />
      <stop
         style="stop-color:#128500;stop-opacity:1"
         offset="1"
         id="stop6343" />
    </linearGradient>
    <linearGradient
       id="linearGradient4861">
      <stop
         style="stop-color:#115b09;stop-opacity:1;"
         offset="0"
         id="stop4863" />
      <stop
         style="stop-color:#0f3817;stop-opacity:1;"
         offset="1"
         id="stop4865" />
    </linearGradient>
    <linearGradient
       id="linearGradient4385">
      <stop
         id="stop4387"
         offset="0"
         style="stop-color:#ffd879;stop-opacity:1;" />
      <stop
         id="stop4389"
         offset="1"
         style="stop-color:#ffc53a;stop-opacity:1;" />
    </linearGradient>
    <linearGradient
       id="linearGradient4377">
      <stop
         id="stop4379"
         offset="0"
         style="stop-color:#129a00;stop-opacity:1" />
      <stop
         id="stop4381"
         offset="1"
         style="stop-color:#107814;stop-opacity:1" />
    </linearGradient>
    <filter
       inkscape:collect="always"
       id="filter3983"
       color-interpolation-filters="sRGB">
      <feGaussianBlur
         inkscape:collect="always"
         stdDeviation="2.158253"
         id="feGaussianBlur3985" />
    </filter>
    <filter
       id="filter8314"
       inkscape:collect="always"
       color-interpolation-filters="sRGB">
      <feGaussianBlur
         id="feGaussianBlur8316"
         stdDeviation="0.94255064"
         inkscape:collect="always" />
    </filter>
    <filter
       id="filter4304"
       inkscape:collect="always"
       color-interpolation-filters="sRGB">
      <feGaussianBlur
         id="feGaussianBlur4306"
         stdDeviation="1.1711243"
         inkscape:collect="always" />
    </filter>
    <filter
       id="filter4313"
       inkscape:collect="always"
       color-interpolation-filters="sRGB">
      <feGaussianBlur
         id="feGaussianBlur4315"
         stdDeviation="0.54117206"
         inkscape:collect="always" />
    </filter>
    <filter
       id="filter4333"
       inkscape:collect="always"
       color-interpolation-filters="sRGB">
      <feGaussianBlur
         id="feGaussianBlur4335"
         stdDeviation="0.59109375"
         inkscape:collect="always" />
    </filter>
    <filter
       inkscape:collect="always"
       id="filter6491"
       color-interpolation-filters="sRGB">
      <feGaussianBlur
         inkscape:collect="always"
         stdDeviation="0.74370385"
         id="feGaussianBlur6493" />
    </filter>
    <filter
       inkscape:collect="always"
       id="filter6495"
       color-interpolation-filters="sRGB">
      <feGaussianBlur
         inkscape:collect="always"
         stdDeviation="0.74370385"
         id="feGaussianBlur6497" />
    </filter>
    <filter
       inkscape:collect="always"
       id="filter6499"
       color-interpolation-filters="sRGB">
      <feGaussianBlur
         inkscape:collect="always"
         stdDeviation="0.74370385"
         id="feGaussianBlur6501" />
    </filter>
    <filter
       inkscape:collect="always"
       id="filter6503"
       color-interpolation-filters="sRGB">
      <feGaussianBlur
         inkscape:collect="always"
         stdDeviation="0.74370385"
         id="feGaussianBlur6505" />
    </filter>
    <filter
       inkscape:collect="always"
       id="filter6507"
       color-interpolation-filters="sRGB">
      <feGaussianBlur
         inkscape:collect="always"
         stdDeviation="0.74370385"
         id="feGaussianBlur6509" />
    </filter>
    <filter
       inkscape:collect="always"
       id="filter6511"
       color-interpolation-filters="sRGB">
      <feGaussianBlur
         inkscape:collect="always"
         stdDeviation="0.74370385"
         id="feGaussianBlur6513" />
    </filter>
    <filter
       inkscape:collect="always"
       id="filter6515"
       color-interpolation-filters="sRGB">
      <feGaussianBlur
         inkscape:collect="always"
         stdDeviation="0.74370385"
         id="feGaussianBlur6517" />
    </filter>
    <filter
       inkscape:collect="always"
       id="filter6519"
       color-interpolation-filters="sRGB">
      <feGaussianBlur
         inkscape:collect="always"
         stdDeviation="0.74370385"
         id="feGaussianBlur6521" />
    </filter>
    <filter
       inkscape:collect="always"
       id="filter6523"
       color-interpolation-filters="sRGB">
      <feGaussianBlur
         inkscape:collect="always"
         stdDeviation="0.74370385"
         id="feGaussianBlur6525" />
    </filter>
    <filter
       inkscape:collect="always"
       id="filter6527"
       color-interpolation-filters="sRGB">
      <feGaussianBlur
         inkscape:collect="always"
         stdDeviation="0.74370385"
         id="feGaussianBlur6529" />
    </filter>
    <filter
       inkscape:collect="always"
       id="filter6531"
       color-interpolation-filters="sRGB">
      <feGaussianBlur
         inkscape:collect="always"
         stdDeviation="0.74370385"
         id="feGaussianBlur6533" />
    </filter>
    <filter
       inkscape:collect="always"
       id="filter6535"
       color-interpolation-filters="sRGB">
      <feGaussianBlur
         inkscape:collect="always"
         stdDeviation="0.74370385"
         id="feGaussianBlur6537" />
    </filter>
    <filter
       inkscape:collect="always"
       id="filter6539"
       color-interpolation-filters="sRGB">
      <feGaussianBlur
         inkscape:collect="always"
         stdDeviation="0.74370385"
         id="feGaussianBlur6541" />
    </filter>
    <filter
       inkscape:collect="always"
       id="filter6543"
       color-interpolation-filters="sRGB">
      <feGaussianBlur
         inkscape:collect="always"
         stdDeviation="0.74370385"
         id="feGaussianBlur6545" />
    </filter>
    <filter
       inkscape:collect="always"
       id="filter6547"
       color-interpolation-filters="sRGB">
      <feGaussianBlur
         inkscape:collect="always"
         stdDeviation="0.74370385"
         id="feGaussianBlur6549" />
    </filter>
    <filter
       inkscape:collect="always"
       id="filter6551"
       color-interpolation-filters="sRGB">
      <feGaussianBlur
         inkscape:collect="always"
         stdDeviation="0.74370385"
         id="feGaussianBlur6553" />
    </filter>
    <filter
       inkscape:collect="always"
       id="filter6555"
       color-interpolation-filters="sRGB">
      <feGaussianBlur
         inkscape:collect="always"
         stdDeviation="0.74370385"
         id="feGaussianBlur6557" />
    </filter>
    <filter
       inkscape:collect="always"
       id="filter6559"
       color-interpolation-filters="sRGB">
      <feGaussianBlur
         inkscape:collect="always"
         stdDeviation="0.74370385"
         id="feGaussianBlur6561" />
    </filter>
    <filter
       id="filter4080"
       inkscape:label="lighting"
       inkscape:menu="ABCs"
       inkscape:menu-tooltip="Basic diffuse bevel to use for building textures">
      <feGaussianBlur
         id="feGaussianBlur4082"
         stdDeviation="16"
         in="SourceGraphic"
         result="result0" />
      <feDiffuseLighting
         id="feDiffuseLighting4084"
         diffuseConstant="1"
         surfaceScale="10"
         result="result5">
        <feDistantLight
           id="feDistantLight4086"
           elevation="25"
           azimuth="240" />
      </feDiffuseLighting>
      <feComposite
         id="feComposite4088"
         in2="SourceGraphic"
         k1="1"
         in="result5"
         result="result4"
         operator="arithmetic"
         k2="0"
         k3="0.59999999999999998" />
      <feMorphology
         id="feMorphology4092"
         operator="erode"
         radius="1" />
      <feGaussianBlur
         stdDeviation="1"
         id="feGaussianBlur4090" />
    </filter>
    <linearGradient
       inkscape:collect="always"
       xlink:href="#linearGradient6339"
       id="linearGradient4150"
       gradientUnits="userSpaceOnUse"
       x1="-1136.2821"
       y1="390.82217"
       x2="-1136.2822"
       y2="867.2196"
       gradientTransform="matrix(0.35335433,0,0,0.35335433,462.43464,-52.197184)" />
    <linearGradient
       inkscape:collect="always"
       xlink:href="#linearGradient4385"
       id="linearGradient4158"
       gradientUnits="userSpaceOnUse"
       gradientTransform="translate(1248,-751.12977)"
       x1="-1143.432"
       y1="411.48773"
       x2="-1139.8887"
       y2="465.80258" />
    <linearGradient
       inkscape:collect="always"
       xlink:href="#linearGradient6339"
       id="linearGradient4166"
       gradientUnits="userSpaceOnUse"
       x1="-1136.2821"
       y1="390.82217"
       x2="-1136.2822"
       y2="867.2196" />
    <linearGradient
       inkscape:collect="always"
       xlink:href="#linearGradient4377"
       id="linearGradient4210"
       gradientUnits="userSpaceOnUse"
       x1="-1055.7581"
       y1="347.36841"
       x2="-1055.7581"
       y2="454.51624" />
    <linearGradient
       inkscape:collect="always"
       xlink:href="#linearGradient4377"
       id="linearGradient4212"
       gradientUnits="userSpaceOnUse"
       x1="-1042.6356"
       y1="508.17572"
       x2="-1042.6356"
       y2="635.44403" />
    <linearGradient
       inkscape:collect="always"
       xlink:href="#linearGradient4377"
       id="linearGradient4214"
       gradientUnits="userSpaceOnUse"
       gradientTransform="translate(0,-234.79785)"
       x1="-1217.615"
       y1="622.95251"
       x2="-1217.615"
       y2="736.97778" />
    <linearGradient
       inkscape:collect="always"
       xlink:href="#linearGradient4861"
       id="linearGradient4216"
       gradientUnits="userSpaceOnUse"
       x1="-1042.6356"
       y1="508.17572"
       x2="-1042.6356"
       y2="635.44403" />
    <linearGradient
       inkscape:collect="always"
       xlink:href="#linearGradient4385"
       id="linearGradient4220"
       gradientUnits="userSpaceOnUse"
       gradientTransform="translate(1248,-751.12977)"
       x1="-1143.432"
       y1="411.48773"
       x2="-1139.8887"
       y2="465.80258" />
  </defs>
  <metadata
     id="metadata7">
    <rdf:RDF>
      <cc:Work
         rdf:about="">
        <dc:format>image/svg+xml</dc:format>
        <dc:type
           rdf:resource="http://purl.org/dc/dcmitype/StillImage" />
        <dc:title />
      </cc:Work>
    </rdf:RDF>
  </metadata>
  <g
     id="layer1"
     inkscape:groupmode="layer"
     inkscape:label="main"
     style="display:inline">
    <g
       transform="matrix(0.35335433,0,0,0.35335433,455.40311,-22.566177)"
       id="g4853">
      <path
         style="fill:url(#linearGradient4216);fill-opacity:1;fill-rule:nonzero;stroke:#002a08;stroke-width:5.89823818;stroke-linecap:round;stroke-linejoin:round;stroke-miterlimit:4;stroke-opacity:1;stroke-dasharray:none;stroke-dashoffset:0;marker:none;visibility:visible;display:inline;overflow:visible;enable-background:accumulate"
         d="m -1100.0018,608.57892 c 65.361,20.99443 134.9829,34.83308 159.38387,19.74456 4.70099,-20.65577 -62.43027,-98.29205 -106.87507,-117.01599 -61.0051,1.60312 -73.4259,83.99478 -52.5088,97.27143 z"
         id="path4855"
         sodipodi:nodetypes="cccc" />
      <path
         sodipodi:nodetypes="ccccccccccccccccccccsscccccccccccccccc"
         id="path4857"
         d="m -517.5625,886.0625 c -3.20328,1.86894 -8.80229,12.68554 -11.30886,14.88486 -2.59291,-1.24267 -9.50014,-7.77221 -12.26085,-8.62903 l -2.9375,3.74708 c 2.5917,0.72641 8.77129,7.72434 11.1671,8.7257 -3.73128,3.92216 -15.38346,12.93223 -18.1003,16.7544 l 2.99854,4.05537 c 2.2246,-4.0315 15.131,-15.22782 18.85176,-19.18477 1.12686,0.5117 5.56759,2.68473 6.65625,3.25 -3.03097,3.54463 -16.90514,11.23171 -15.75801,16.99727 l 4.625,2.8125 c -1.24662,-5.96106 11.7963,-14.24113 14.78926,-17.80977 1.05408,0.58567 5.22809,2.99423 6.25,3.625 -2.59236,2.82205 -14.63827,11.80642 -13.00801,16.96602 l 4.625,0.875 c -1.72729,-5.29071 9.38001,-12.78307 11.88301,-15.62227 1.33406,0.86927 6.55673,4.47111 7.84375,5.40625 -1.70126,1.74991 -10.47285,6.88228 -8.13301,11.21602 l 4.625,1.15625 c -2.42322,-4.40969 5.35506,-8.04987 6.91426,-9.84102 l 12.49636,8.89639 c 0.76421,0.54405 5.14686,-3.05618 4.35171,-3.55454 l -12.91057,-8.09185 c 1.27435,-0.55818 1.72523,-4.66056 3.68386,-4.79106 l -2.625,-5.15625 c -1.61149,0.32433 -3.29104,6.8555 -4.49636,7.44736 -1.38856,-0.98937 -6.99778,-4.83709 -8.40625,-5.78125 1.79182,-1.37735 4.92209,-8.55909 7.68386,-9.41611 l -4.625,-2.875 c -2.36242,1.05096 -4.73735,8.60843 -6.49636,10.00986 -1.04332,-0.67617 -5.25213,-3.30032 -6.3125,-3.9375 2.12241,-1.91586 6.81996,-11.15093 10.02761,-12.50986 l -4.625,-2.84375 c -2.81381,1.56887 -6.8492,11.29432 -8.96511,13.25986 -1.02544,-0.5855 -5.17259,-2.83702 -6.21875,-3.375 2.50753,-2.15147 8.74367,-12.53612 12.34011,-14.22861 l -4.625,-2.4375 0,-5e-5 z"
         style="fill:#033307;fill-opacity:0.50196078;fill-rule:nonzero;stroke:none;filter:url(#filter4333)"
         transform="matrix(2.2245194,0,0,2.1140869,120.21377,-1351.6867)" />
    </g>
    <use
       height="1024"
       width="2048"
       transform="matrix(-0.61013793,0,0,0.61013793,90.057279,81.990275)"
       id="use6321"
       xlink:href="#g4853"
       y="0"
       x="0" />
    <use
       height="1024"
       width="2048"
       transform="matrix(0.4282023,0,0,0.4282023,50.763119,38.865887)"
       id="use6323"
       xlink:href="#g4853"
       y="0"
       x="0" />
    <use
       height="1024"
       width="2048"
       transform="matrix(-0.63612874,0,0,0.63612874,92.480924,-24.616266)"
       id="use6327"
       xlink:href="#g4853"
       y="0"
       x="0" />
    <path
       style="fill:url(#linearGradient4150);fill-opacity:1;fill-rule:nonzero;stroke:#001b05;stroke-width:3.3922019;stroke-linecap:round;stroke-linejoin:miter;stroke-miterlimit:4;stroke-opacity:1;stroke-dashoffset:0"
       d="M 90.045682,61.987837 38.140225,60.495702 c -10.213954,-0.29362 3.930467,33.180637 3.378209,46.151728 -0.424979,9.9817 -4.979364,19.80189 -4.56131,29.79223 0.662257,15.82557 2.077724,31.68183 1.945463,47.56487 -0.145299,17.44963 0.0471,34.96632 -0.245652,52.3661 -0.10643,6.32685 -5.363883,25.20884 -0.237807,25.20884 l 52.088355,0 c 7.055461,0 -6.506667,-22.7058 -6.904438,-32.75847 C 82.267471,195.06581 81.28557,161.18519 82.020335,127.38763 82.318,113.69617 79.270847,99.78724 80.980873,86.415496 82.058849,77.986321 95.53808,62.145727 90.045682,61.987837 z"
       id="path4351"
       sodipodi:nodetypes="csssssssssss" />
    <path
       d="m 38.125,60.5 c -10.213954,-0.29362 3.958508,33.185159 3.40625,46.15625 -0.424979,9.9817 -4.980554,19.79091 -4.5625,29.78125 0.662257,15.82557 2.069761,31.67946 1.9375,47.5625 -0.145299,17.44963 0.04275,34.97522 -0.25,52.375 -0.10643,6.32685 -5.376076,25.21875 -0.25,25.21875 l 52.09375,0 c 7.055461,0 -6.508479,-22.72858 -6.90625,-32.78125 C 82.258176,195.05731 81.296485,161.17256 82.03125,127.375 82.328915,113.68354 79.258724,99.777994 80.96875,86.40625 82.046726,77.977075 95.523648,62.15789 90.03125,62 L 38.125,60.5 z"
       inkscape:href="#path4351"
       id="path4094"
       style="fill:url(#linearGradient4166);fill-opacity:1;fill-rule:nonzero;stroke:none;filter:url(#filter4080)"
       xlink:href="#path4351"
       inkscape:original="M 38.125 60.5 C 27.911046 60.20638 42.083508 93.685159 41.53125 106.65625 C 41.106271 116.63795 36.550696 126.44716 36.96875 136.4375 C 37.631007 152.26307 39.038511 168.11696 38.90625 184 C 38.760951 201.44963 38.949002 218.97522 38.65625 236.375 C 38.54982 242.70185 33.280174 261.59375 38.40625 261.59375 L 90.5 261.59375 C 97.555461 261.59375 83.991521 238.86517 83.59375 228.8125 C 82.258176 195.05731 81.296485 161.17256 82.03125 127.375 C 82.328915 113.68354 79.258724 99.777994 80.96875 86.40625 C 82.046726 77.977075 95.523648 62.15789 90.03125 62 L 38.125 60.5 z "
       inkscape:radius="0"
       sodipodi:type="inkscape:offset" />
    <use
       height="1024"
       width="2048"
       transform="matrix(-0.58414713,0,0,0.58414713,95.405761,116.72504)"
       id="use4822"
       xlink:href="#g4808"
       y="0"
       x="0" />
    <g
       transform="matrix(0.35335433,0,0,0.35335433,461.15617,-45.085746)"
       id="g4816">
      <path
         sodipodi:nodetypes="cccc"
         id="path4355"
         d="m -1153.8537,478.11189 c -61.6313,24.246 -107.5619,34.17876 -134.139,20.4426 -5.636,-29.46814 33.9625,-88.48734 74.5562,-110.50204 59.4971,-3.76635 78.7758,75.31523 59.5828,90.05944 z"
         style="fill:url(#linearGradient4214);fill-opacity:1;fill-rule:nonzero;stroke:#004d0e;stroke-width:5.76196527;stroke-linecap:round;stroke-linejoin:round;stroke-miterlimit:4;stroke-opacity:1;stroke-dasharray:none;stroke-dashoffset:0;marker:none;visibility:visible;display:inline;overflow:visible;enable-background:accumulate" />
      <path
         style="fill:#05600e;fill-opacity:0.50196078;fill-rule:nonzero;stroke:none;filter:url(#filter4304)"
         d="m -592.9375,874.625 -4.125,2.96875 c 7.15448,4.26576 13.25428,7.07819 18.0625,12.6875 -2.52443,1.2722 -4.97829,2.64616 -7.4375,4.0625 -4.56842,-4.56161 -10.43702,-8.40387 -16.875,-11.875 l -2.5625,4.90625 c 7.29859,2.97215 11.37168,4.56858 15.875,9.03125 -2.59349,1.57488 -5.14849,3.21118 -7.6875,4.90625 -3.66826,-3.03008 -8.21608,-5.5309 -13.1875,-7.75 l -4.65625,5.09375 c 5.77017,1.77518 10.62718,2.06841 14.34375,5.03125 -2.83141,1.9564 -5.64823,3.98225 -8.4375,6.03125 -2.43386,-1.15825 -5.37853,-1.99121 -8.625,-2.59375 l -4.5625,5.25 c 3.92238,0.2017 7.2195,-1.20278 9.78125,-0.125 -5.14911,3.84526 -8.27761,7.76887 -13.40625,11.65625 l 3,4.9375 c 5.31099,-4.84114 8.73939,-9.50417 14.375,-13.90625 3.16013,3.53233 2.91846,7.32675 -1.8125,16.21875 l 4.59375,-1.21875 c 4.56622,-8.7376 4.04547,-14.1396 0.59375,-17.59375 2.53815,-1.90218 5.14822,-3.72683 7.78125,-5.5 5.07034,5.91454 6.54264,10.00852 3.21875,21.15625 l 4.625,-1.09375 c 3.13041,-10.86314 0.93089,-16.56844 -4.3125,-22.4375 2.44778,-1.56058 4.9556,-3.03979 7.5,-4.46875 5.08355,6.79711 7.01363,13.36183 4.875,24.375 l 4.5625,-0.875 c 1.95385,-10.61489 -0.5494,-18.80777 -5.75,-25.5 2.40427,-1.26053 4.87369,-2.43434 7.375,-3.5625 6.30522,9.06436 9.49717,12.0197 8.59375,25.71875 l 4.15625,-2.9375 c 0.74994,-13.03189 -2.88983,-15.49103 -9.09375,-24.375 4.10946,-1.7068 8.34681,-3.25679 12.75,-4.5625 l -3,-4.9375 c -4.46585,1.45966 -8.79983,3.24046 -13.03125,5.21875 -4.9152,-5.88561 -10.9628,-9.09047 -17.5,-13.9375 z"
         transform="matrix(1.9947592,0,0,1.8493037,-37.437109,-1221.2529)"
         id="path4357"
         sodipodi:nodetypes="ccccccccccccccccccccccccccccccccccccc" />
    </g>
    <g
       id="g4808"
       transform="matrix(0.35335433,0,0,0.35335433,449.01075,-62.864349)">
      <path
         sodipodi:nodetypes="cccc"
         id="path4359"
         d="m -1100.0018,608.57892 c 65.361,20.99443 134.9829,34.83308 159.38387,19.74456 4.70099,-20.65577 -62.43027,-98.29205 -106.87507,-117.01599 -61.0051,1.60312 -73.4259,83.99478 -52.5088,97.27143 z"
         style="fill:url(#linearGradient4212);fill-opacity:1;fill-rule:nonzero;stroke:#004d0e;stroke-width:5.89823818;stroke-linecap:round;stroke-linejoin:round;stroke-miterlimit:4;stroke-opacity:1;stroke-dasharray:none;stroke-dashoffset:0;marker:none;visibility:visible;display:inline;overflow:visible;enable-background:accumulate" />
      <path
         style="fill:#05600e;fill-opacity:0.50196078;fill-rule:nonzero;stroke:none;filter:url(#filter4333)"
         d="m -517.5625,886.0625 c -6.40656,3.73788 -10.36187,5.72635 -15.375,10.125 -5.18582,-2.48534 -3.48652,-2.94885 -9.00794,-4.66248 l -2.9375,3.74708 c 5.1834,1.45281 3.12258,2.75643 7.91419,4.75915 -7.46255,7.84432 -11.85338,13.07661 -10.78125,24.6875 l 4.625,2.46875 c -1.2434,-12.02956 2.46474,-17.61735 9.90625,-25.53125 2.25371,1.02339 4.47893,2.11946 6.65625,3.25 -6.06195,7.08927 -9.10676,11.81262 -6.8125,23.34375 l 4.625,2.8125 c -2.49325,-11.92212 -0.14217,-17.01896 5.84375,-24.15625 2.10816,1.17134 4.20619,2.36345 6.25,3.625 -5.18472,5.6441 -7.32301,12.9933 -4.0625,23.3125 l 4.625,0.875 c -3.45457,-10.58143 -2.0685,-16.29036 2.9375,-21.96875 2.66811,1.73854 5.2697,3.53597 7.84375,5.40625 -3.40253,3.49982 -3.86718,8.89502 0.8125,17.5625 l 4.625,1.15625 c -4.84643,-8.81937 -5.14965,-12.60519 -2.03125,-16.1875 l 16.5625,13.65625 c 1.44509,1.19152 5.84504,-2.42406 4.35171,-3.55454 l -16.97671,-12.85171 c 2.54871,-1.11636 3.83275,0.2298 7.75,-0.0312 l -2.625,-5.15625 c -3.22299,0.64867 -6.15186,1.50379 -8.5625,2.6875 -2.77713,-1.97874 -5.58932,-3.89293 -8.40625,-5.78125 3.58363,-2.75471 6.22647,-2.94222 11.75,-4.65625 l -4.625,-2.875 c -4.72484,2.10193 -7.04449,2.44714 -10.5625,5.25 -2.08665,-1.35234 -4.19176,-2.66314 -6.3125,-3.9375 4.24482,-3.83172 7.67845,-5.03214 14.09375,-7.75 l -4.625,-2.84375 c -5.62763,3.13774 -8.79942,4.56893 -13.03125,8.5 -2.05088,-1.17101 -4.12643,-2.29905 -6.21875,-3.375 5.01506,-4.30295 9.21337,-6.08378 16.40625,-9.46875 l -4.625,-2.4375 0,-5e-5 z"
         transform="matrix(2.2245194,0,0,2.1140869,120.21377,-1351.6867)"
         id="path4361"
         sodipodi:nodetypes="ccccccccccccccccccccsscccccccccccccccc" />
    </g>
    <g
       id="g4812"
       transform="matrix(0.35335433,0,0,0.35335433,456.04232,-45.678369)">
      <path
         sodipodi:nodetypes="cccc"
         id="path4365"
         d="m -1045.8753,348.5534 c 42.491,44.79617 71.98194,83.38298 71.24745,92.92679 -8.2601,10.32924 -91.06945,17.39004 -126.41655,-4.3389 -27.334,-42.89662 35.4592,-98.14012 55.1691,-88.58789 z"
         style="fill:url(#linearGradient4210);fill-opacity:1;fill-rule:nonzero;stroke:#004d0e;stroke-width:4.90949631;stroke-linecap:round;stroke-linejoin:round;stroke-miterlimit:4;stroke-opacity:1;stroke-dasharray:none;stroke-dashoffset:0;marker:none;visibility:visible;display:inline;overflow:visible;enable-background:accumulate" />
      <path
         style="fill:#05600e;fill-opacity:0.50196078;fill-rule:nonzero;stroke:none;filter:url(#filter4313)"
         d="m 462.53125,1234.2812 c 1.28809,4.3213 2.33324,8.6245 3.21875,12.9063 -10.14181,-0.1571 -16.37765,0.6292 -25.93792,8.34 l 0,5.9063 c 10.01809,-8.2348 16.48006,-9.7011 26.84417,-9.6526 0.61151,3.4683 1.08318,6.929 1.46875,10.375 -9.14869,-1.0468 -18.9529,0.5791 -25.68011,6.4904 l 1.95537,4.7461 c 8.98384,-7.5192 14.92735,-7.6902 24.16224,-6.7052 0.25464,2.9698 0.48166,5.9191 0.59375,8.875 -7.97318,-1.752 -12.59846,-1.0556 -21.6604,4.0905 l 0.92726,4.5017 c 8.58249,-5.1724 12.87006,-5.7837 20.82689,-4.0922 0.0476,3.0578 0.016,6.1108 -0.0625,9.1563 -4.55986,-1.2152 -11.13609,-2.4266 -15.40998,6.4692 l 3.68708,3.7774 c 4.30979,-9.1422 7.11869,-6.7032 11.5979,-5.7779 -0.32918,7.4883 0.56174,9.1217 -0.28541,16.5592 l 3.34002,-3.6871 c 0.20768,-6.7517 1.06322,-4.0013 1.22664,-10.7471 2.23064,1.7241 2.35988,0.6811 4.65252,4.0942 l 2.12873,-2.2192 c -2.24645,-2.6022 -4.48788,-4.8121 -6.71875,-6.375 0.0566,-3.3173 0.0833,-6.6307 0.0625,-9.9375 4.04637,1.6872 6.01376,0.8519 10.18377,4.6254 l 2.12873,-2.2192 c -4.14289,-2.917 -8.26728,-5.3733 -12.375,-6.9374 -0.0638,-3.122 -0.16738,-6.237 -0.34375,-9.3438 5.90352,1.4946 9.75764,0.9634 15.87127,5.4067 l 2.12873,-2.1879 c -6.13264,-3.4681 -12.25092,-6.2788 -18.3125,-7.7188 -0.2841,-3.6531 -0.65307,-7.2827 -1.15625,-10.9062 8.84573,0.9899 13.76149,1.906 23.52936,5.1668 l 1.40441,-4.9789 c -9.31185,-4.1798 -16.49241,-3.7339 -25.65252,-4.7505 -0.74997,-4.4424 -1.68387,-8.867 -2.875,-13.25 l -5.46875,0 z"
         transform="matrix(0.84981971,-1.3645994,1.4719308,0.78785186,-3310.6297,47.638396)"
         id="path4367"
         sodipodi:nodetypes="ccccccccccccccccccccccccccccccccccccc" />
    </g>
    <use
       height="1024"
       width="2048"
       transform="matrix(-1,0,0,1,121.27046,62.817749)"
       id="use4820"
       xlink:href="#g4812"
       y="0"
       x="0" />
    <g
       transform="matrix(0.42508975,0,0,0.45222033,746.4855,-128.20449)"
       id="g4371">
      <path
         id="path4373"
         d="m -219.9102,199.86705 c 0,30.64035 -13.62171,55.50788 -30.4056,55.50788 -16.78388,0 -30.40559,-24.86753 -30.40559,-55.50788 0,-30.64035 13.62171,-55.50788 30.40559,-55.50788 16.78389,0 30.4056,24.86753 30.4056,55.50788 z"
         style="fill:#6bb0ff;fill-opacity:1;fill-rule:nonzero;stroke:#0052f2;stroke-width:10.88309002;stroke-linecap:butt;stroke-linejoin:miter;stroke-miterlimit:4;stroke-opacity:1;stroke-dasharray:none;stroke-dashoffset:0;marker:none;visibility:visible;display:inline;overflow:visible;filter:url(#filter3983);enable-background:accumulate"
         transform="matrix(1.3726878,-0.4513291,0.1273689,1.1363104,-1287.0205,24.371274)" />
      <g
         id="g4375"
         transform="translate(-262,10)">
        <path
           sodipodi:type="arc"
           style="opacity:0.6;fill:#6bb0ff;fill-opacity:1;fill-rule:nonzero;stroke:#0052f2;stroke-width:1;stroke-linecap:butt;stroke-linejoin:miter;stroke-miterlimit:4;stroke-opacity:1;stroke-dasharray:none;stroke-dashoffset:0;marker:none;visibility:visible;display:inline;overflow:visible;filter:url(#filter6559);enable-background:accumulate"
           id="path4377"
           sodipodi:cx="-312.89474"
           sodipodi:cy="256.08203"
           sodipodi:rx="9.5459414"
           sodipodi:ry="9.8994951"
           d="m -303.3488,256.08203 a 9.5459414,9.8994951 0 1 1 -19.09189,0 9.5459414,9.8994951 0 1 1 19.09189,0 z"
           transform="matrix(1.4042723,0.2208295,-0.3832534,1.4698754,-779.60834,63.173104)" />
        <path
           sodipodi:type="arc"
           style="opacity:0.6;fill:#6bb0ff;fill-opacity:1;fill-rule:nonzero;stroke:#0052f2;stroke-width:1;stroke-linecap:butt;stroke-linejoin:miter;stroke-miterlimit:4;stroke-opacity:1;stroke-dasharray:none;stroke-dashoffset:0;marker:none;visibility:visible;display:inline;overflow:visible;filter:url(#filter6491);enable-background:accumulate"
           id="path4379"
           sodipodi:cx="-312.89474"
           sodipodi:cy="256.08203"
           sodipodi:rx="9.5459414"
           sodipodi:ry="9.8994951"
           d="m -303.3488,256.08203 a 9.5459414,9.8994951 0 1 1 -19.09189,0 9.5459414,9.8994951 0 1 1 19.09189,0 z"
           transform="matrix(1.4042723,0.2208295,-0.3832534,1.4698754,-800.8993,94.150232)" />
        <path
           sodipodi:type="arc"
           style="opacity:0.6;fill:#6bb0ff;fill-opacity:1;fill-rule:nonzero;stroke:#0052f2;stroke-width:1;stroke-linecap:butt;stroke-linejoin:miter;stroke-miterlimit:4;stroke-opacity:1;stroke-dasharray:none;stroke-dashoffset:0;marker:none;visibility:visible;display:inline;overflow:visible;filter:url(#filter6555);enable-background:accumulate"
           id="path4381"
           sodipodi:cx="-312.89474"
           sodipodi:cy="256.08203"
           sodipodi:rx="9.5459414"
           sodipodi:ry="9.8994951"
           d="m -303.3488,256.08203 a 9.5459414,9.8994951 0 1 1 -19.09189,0 9.5459414,9.8994951 0 1 1 19.09189,0 z"
           transform="matrix(1.4042723,0.2208295,-0.3832534,1.4698754,-783.79055,84.599524)" />
        <path
           sodipodi:type="arc"
           style="opacity:0.6;fill:#6bb0ff;fill-opacity:1;fill-rule:nonzero;stroke:#0052f2;stroke-width:1;stroke-linecap:butt;stroke-linejoin:miter;stroke-miterlimit:4;stroke-opacity:1;stroke-dasharray:none;stroke-dashoffset:0;marker:none;visibility:visible;display:inline;overflow:visible;filter:url(#filter6551);enable-background:accumulate"
           id="path4383"
           sodipodi:cx="-312.89474"
           sodipodi:cy="256.08203"
           sodipodi:rx="9.5459414"
           sodipodi:ry="9.8994951"
           d="m -303.3488,256.08203 a 9.5459414,9.8994951 0 1 1 -19.09189,0 9.5459414,9.8994951 0 1 1 19.09189,0 z"
           transform="matrix(1.4042723,0.2208295,-0.3832534,1.4698754,-796.1563,42.540149)" />
        <path
           sodipodi:type="arc"
           style="opacity:0.6;fill:#6bb0ff;fill-opacity:1;fill-rule:nonzero;stroke:#0052f2;stroke-width:1;stroke-linecap:butt;stroke-linejoin:miter;stroke-miterlimit:4;stroke-opacity:1;stroke-dasharray:none;stroke-dashoffset:0;marker:none;visibility:visible;display:inline;overflow:visible;filter:url(#filter6547);enable-background:accumulate"
           id="path4385"
           sodipodi:cx="-312.89474"
           sodipodi:cy="256.08203"
           sodipodi:rx="9.5459414"
           sodipodi:ry="9.8994951"
           d="m -303.3488,256.08203 a 9.5459414,9.8994951 0 1 1 -19.09189,0 9.5459414,9.8994951 0 1 1 19.09189,0 z"
           transform="matrix(1.4042723,0.2208295,-0.3832534,1.4698754,-817.44726,73.517278)" />
        <path
           sodipodi:type="arc"
           style="opacity:0.6;fill:#6bb0ff;fill-opacity:1;fill-rule:nonzero;stroke:#0052f2;stroke-width:1;stroke-linecap:butt;stroke-linejoin:miter;stroke-miterlimit:4;stroke-opacity:1;stroke-dasharray:none;stroke-dashoffset:0;marker:none;visibility:visible;display:inline;overflow:visible;filter:url(#filter6543);enable-background:accumulate"
           id="path4388"
           sodipodi:cx="-312.89474"
           sodipodi:cy="256.08203"
           sodipodi:rx="9.5459414"
           sodipodi:ry="9.8994951"
           d="m -303.3488,256.08203 a 9.5459414,9.8994951 0 1 1 -19.09189,0 9.5459414,9.8994951 0 1 1 19.09189,0 z"
           transform="matrix(1.4042723,0.2208295,-0.3832534,1.4698754,-800.33851,63.966569)" />
        <path
           sodipodi:type="arc"
           style="opacity:0.6;fill:#6bb0ff;fill-opacity:1;fill-rule:nonzero;stroke:#0052f2;stroke-width:1;stroke-linecap:butt;stroke-linejoin:miter;stroke-miterlimit:4;stroke-opacity:1;stroke-dasharray:none;stroke-dashoffset:0;marker:none;visibility:visible;display:inline;overflow:visible;filter:url(#filter6539);enable-background:accumulate"
           id="path4390"
           sodipodi:cx="-312.89474"
           sodipodi:cy="256.08203"
           sodipodi:rx="9.5459414"
           sodipodi:ry="9.8994951"
           d="m -303.3488,256.08203 a 9.5459414,9.8994951 0 1 1 -19.09189,0 9.5459414,9.8994951 0 1 1 19.09189,0 z"
           transform="matrix(1.4042723,0.2208295,-0.3832534,1.4698754,-811.21707,21.810031)" />
        <path
           sodipodi:type="arc"
           style="opacity:0.6;fill:#6bb0ff;fill-opacity:1;fill-rule:nonzero;stroke:#0052f2;stroke-width:1;stroke-linecap:butt;stroke-linejoin:miter;stroke-miterlimit:4;stroke-opacity:1;stroke-dasharray:none;stroke-dashoffset:0;marker:none;visibility:visible;display:inline;overflow:visible;filter:url(#filter6535);enable-background:accumulate"
           id="path4392"
           sodipodi:cx="-312.89474"
           sodipodi:cy="256.08203"
           sodipodi:rx="9.5459414"
           sodipodi:ry="9.8994951"
           d="m -303.3488,256.08203 a 9.5459414,9.8994951 0 1 1 -19.09189,0 9.5459414,9.8994951 0 1 1 19.09189,0 z"
           transform="matrix(1.4042723,0.2208295,-0.3832534,1.4698754,-832.50803,52.78716)" />
        <path
           sodipodi:type="arc"
           style="opacity:0.6;fill:#6bb0ff;fill-opacity:1;fill-rule:nonzero;stroke:#0052f2;stroke-width:1;stroke-linecap:butt;stroke-linejoin:miter;stroke-miterlimit:4;stroke-opacity:1;stroke-dasharray:none;stroke-dashoffset:0;marker:none;visibility:visible;display:inline;overflow:visible;filter:url(#filter6531);enable-background:accumulate"
           id="path4394"
           sodipodi:cx="-312.89474"
           sodipodi:cy="256.08203"
           sodipodi:rx="9.5459414"
           sodipodi:ry="9.8994951"
           d="m -303.3488,256.08203 a 9.5459414,9.8994951 0 1 1 -19.09189,0 9.5459414,9.8994951 0 1 1 19.09189,0 z"
           transform="matrix(1.4042723,0.2208295,-0.3832534,1.4698754,-815.39928,43.236452)" />
        <path
           sodipodi:type="arc"
           style="opacity:0.6;fill:#6bb0ff;fill-opacity:1;fill-rule:nonzero;stroke:#0052f2;stroke-width:1;stroke-linecap:butt;stroke-linejoin:miter;stroke-miterlimit:4;stroke-opacity:1;stroke-dasharray:none;stroke-dashoffset:0;marker:none;visibility:visible;display:inline;overflow:visible;filter:url(#filter6527);enable-background:accumulate"
           id="path4396"
           sodipodi:cx="-312.89474"
           sodipodi:cy="256.08203"
           sodipodi:rx="9.5459414"
           sodipodi:ry="9.8994951"
           d="m -303.3488,256.08203 a 9.5459414,9.8994951 0 1 1 -19.09189,0 9.5459414,9.8994951 0 1 1 19.09189,0 z"
           transform="matrix(1.4042723,0.2208295,-0.3832534,1.4698754,-777.26299,48.571513)" />
        <path
           sodipodi:type="arc"
           style="opacity:0.6;fill:#6bb0ff;fill-opacity:1;fill-rule:nonzero;stroke:#0052f2;stroke-width:1;stroke-linecap:butt;stroke-linejoin:miter;stroke-miterlimit:4;stroke-opacity:1;stroke-dasharray:none;stroke-dashoffset:0;marker:none;visibility:visible;display:inline;overflow:visible;filter:url(#filter6523);enable-background:accumulate"
           id="path4398"
           sodipodi:cx="-312.89474"
           sodipodi:cy="256.08203"
           sodipodi:rx="9.5459414"
           sodipodi:ry="9.8994951"
           d="m -303.3488,256.08203 a 9.5459414,9.8994951 0 1 1 -19.09189,0 9.5459414,9.8994951 0 1 1 19.09189,0 z"
           transform="matrix(1.4042723,0.2208295,-0.3832534,1.4698754,-783.60707,22.223501)" />
        <path
           sodipodi:type="arc"
           style="opacity:0.6;fill:#6bb0ff;fill-opacity:1;fill-rule:nonzero;stroke:#0052f2;stroke-width:1;stroke-linecap:butt;stroke-linejoin:miter;stroke-miterlimit:4;stroke-opacity:1;stroke-dasharray:none;stroke-dashoffset:0;marker:none;visibility:visible;display:inline;overflow:visible;filter:url(#filter6519);enable-background:accumulate"
           id="path4400"
           sodipodi:cx="-312.89474"
           sodipodi:cy="256.08203"
           sodipodi:rx="9.5459414"
           sodipodi:ry="9.8994951"
           d="m -303.3488,256.08203 a 9.5459414,9.8994951 0 1 1 -19.09189,0 9.5459414,9.8994951 0 1 1 19.09189,0 z"
           transform="matrix(1.4042723,0.2208295,-0.3832534,1.4698754,-791.64648,2.5975334)" />
        <path
           sodipodi:type="arc"
           style="opacity:0.6;fill:#6bb0ff;fill-opacity:1;fill-rule:nonzero;stroke:#0052f2;stroke-width:1;stroke-linecap:butt;stroke-linejoin:miter;stroke-miterlimit:4;stroke-opacity:1;stroke-dasharray:none;stroke-dashoffset:0;marker:none;visibility:visible;display:inline;overflow:visible;filter:url(#filter6515);enable-background:accumulate"
           id="path4402"
           sodipodi:cx="-312.89474"
           sodipodi:cy="256.08203"
           sodipodi:rx="9.5459414"
           sodipodi:ry="9.8994951"
           d="m -303.3488,256.08203 a 9.5459414,9.8994951 0 1 1 -19.09189,0 9.5459414,9.8994951 0 1 1 19.09189,0 z"
           transform="matrix(1.4042723,0.2208295,-0.3832534,1.4698754,-826.41846,74.504716)" />
        <path
           sodipodi:type="arc"
           style="opacity:0.6;fill:#6bb0ff;fill-opacity:1;fill-rule:nonzero;stroke:#0052f2;stroke-width:1;stroke-linecap:butt;stroke-linejoin:miter;stroke-miterlimit:4;stroke-opacity:1;stroke-dasharray:none;stroke-dashoffset:0;marker:none;visibility:visible;display:inline;overflow:visible;filter:url(#filter6511);enable-background:accumulate"
           id="path4404"
           sodipodi:cx="-312.89474"
           sodipodi:cy="256.08203"
           sodipodi:rx="9.5459414"
           sodipodi:ry="9.8994951"
           d="m -303.3488,256.08203 a 9.5459414,9.8994951 0 1 1 -19.09189,0 9.5459414,9.8994951 0 1 1 19.09189,0 z"
           transform="matrix(1.4042723,0.2208295,-0.3832534,1.4698754,-809.13551,-3.2130009)" />
        <path
           sodipodi:type="arc"
           style="opacity:0.6;fill:#6bb0ff;fill-opacity:1;fill-rule:nonzero;stroke:#0052f2;stroke-width:1;stroke-linecap:butt;stroke-linejoin:miter;stroke-miterlimit:4;stroke-opacity:1;stroke-dasharray:none;stroke-dashoffset:0;marker:none;visibility:visible;display:inline;overflow:visible;filter:url(#filter6495);enable-background:accumulate"
           id="path4406"
           sodipodi:cx="-312.89474"
           sodipodi:cy="256.08203"
           sodipodi:rx="9.5459414"
           sodipodi:ry="9.8994951"
           d="m -303.3488,256.08203 a 9.5459414,9.8994951 0 1 1 -19.09189,0 9.5459414,9.8994951 0 1 1 19.09189,0 z"
           transform="matrix(1.4042723,0.2208295,-0.3832534,1.4698754,-815.40819,93.729805)" />
        <path
           sodipodi:type="arc"
           style="opacity:0.6;fill:#6bb0ff;fill-opacity:1;fill-rule:nonzero;stroke:#0052f2;stroke-width:1;stroke-linecap:butt;stroke-linejoin:miter;stroke-miterlimit:4;stroke-opacity:1;stroke-dasharray:none;stroke-dashoffset:0;marker:none;visibility:visible;display:inline;overflow:visible;filter:url(#filter6507);enable-background:accumulate"
           id="path4408"
           sodipodi:cx="-312.89474"
           sodipodi:cy="256.08203"
           sodipodi:rx="9.5459414"
           sodipodi:ry="9.8994951"
           d="m -303.3488,256.08203 a 9.5459414,9.8994951 0 1 1 -19.09189,0 9.5459414,9.8994951 0 1 1 19.09189,0 z"
           transform="matrix(-1.4042723,0.2208295,0.3832534,1.4698754,-1912.548,28.155962)" />
        <path
           sodipodi:type="arc"
           style="opacity:0.6;fill:#6bb0ff;fill-opacity:1;fill-rule:nonzero;stroke:#0052f2;stroke-width:1;stroke-linecap:butt;stroke-linejoin:miter;stroke-miterlimit:4;stroke-opacity:1;stroke-dasharray:none;stroke-dashoffset:0;marker:none;visibility:visible;display:inline;overflow:visible;filter:url(#filter6503);enable-background:accumulate"
           id="path4410"
           sodipodi:cx="-312.89474"
           sodipodi:cy="256.08203"
           sodipodi:rx="9.5459414"
           sodipodi:ry="9.8994951"
           d="m -303.3488,256.08203 a 9.5459414,9.8994951 0 1 1 -19.09189,0 9.5459414,9.8994951 0 1 1 19.09189,0 z"
           transform="matrix(-1.4042723,0.2208295,0.3832534,1.4698754,-1904.5085,8.5299945)" />
        <path
           sodipodi:type="arc"
           style="opacity:0.6;fill:#6bb0ff;fill-opacity:1;fill-rule:nonzero;stroke:#0052f2;stroke-width:1;stroke-linecap:butt;stroke-linejoin:miter;stroke-miterlimit:4;stroke-opacity:1;stroke-dasharray:none;stroke-dashoffset:0;marker:none;visibility:visible;display:inline;overflow:visible;filter:url(#filter6499);enable-background:accumulate"
           id="path4412"
           sodipodi:cx="-312.89474"
           sodipodi:cy="256.08203"
           sodipodi:rx="9.5459414"
           sodipodi:ry="9.8994951"
           d="m -303.3488,256.08203 a 9.5459414,9.8994951 0 1 1 -19.09189,0 9.5459414,9.8994951 0 1 1 19.09189,0 z"
           transform="matrix(-1.4042723,0.2208295,0.3832534,1.4698754,-1887.0195,2.71946)" />
      </g>
    </g>
    <path
       sodipodi:nodetypes="cccsscccssssc"
       id="path4414"
       d="m 24.777699,-356.12977 40.25,40 3.7777,-33.29149 c 0,0 19.1303,27.87543 34.722301,33.29149 10.7929,3.74905 23.9088,1.58923 34.4515,-2.72873 14.3135,-5.86237 34.4516,-29.56276 34.4516,-29.56276 l -1.4585,32.29149 39.25,-40 c -0.5983,21.33185 -6.4632,39.72828 -15.2223,53 -4.8826,7.39801 -18.3207,10.20026 -27,12 -31.5796,6.54831 -77.015001,9.52705 -107.500001,-1 -6.9763,-2.40906 -16.122,-8.43788 -19.5,-15 -6.7324,-13.07825 -15.2893,-27.6735 -16.2223,-49 z"
       style="fill:url(#linearGradient4220);fill-opacity:1;fill-rule:nonzero;stroke:#f9bc00;stroke-width:6.96734285;stroke-linecap:round;stroke-linejoin:round;stroke-miterlimit:4;stroke-opacity:1;stroke-dasharray:none;stroke-dashoffset:0;filter:url(#filter8314)"
       transform="matrix(0.35335433,0,0,0.35335433,21.448439,171.12276)" />
    <use
       x="0"
       y="0"
       xlink:href="#g4816"
       id="use4845"
       transform="matrix(-0.78078521,0,0,0.78078521,106.46578,126.02936)"
       width="2048"
       height="1024" />
  </g>
</svg>
