<?xml version="1.0" encoding="UTF-8" standalone="no"?>
<!-- Created with Inkscape (http://www.inkscape.org/) -->
<svg
   xmlns:ns="http://creativecommons.org/ns#"
   xmlns:dc="http://purl.org/dc/elements/1.1/"
   xmlns:cc="http://web.resource.org/cc/"
   xmlns:rdf="http://www.w3.org/1999/02/22-rdf-syntax-ns#"
   xmlns:svg="http://www.w3.org/2000/svg"
   xmlns="http://www.w3.org/2000/svg"
   xmlns:xlink="http://www.w3.org/1999/xlink"
   xmlns:sodipodi="http://sodipodi.sourceforge.net/DTD/sodipodi-0.dtd"
   xmlns:inkscape="http://www.inkscape.org/namespaces/inkscape"
   width="256"
   height="128"
   id="svg2"
   sodipodi:version="0.32"
   inkscape:version="0.45.1"
   version="1.0"
   sodipodi:docname="1.svg"
   inkscape:output_extension="org.inkscape.output.svg.inkscape"
   inkscape:export-filename="/home/needcoffee/Desktop/smc-graphics/jungle/jungle_grass1.png"
   inkscape:export-xdpi="90"
   inkscape:export-ydpi="90"
   sodipodi:docbase="D:\Dateien\Desktop\Secret Maryo Chronicles\Drafts\Game\needcoffee\level\jungle\grass">
  <sodipodi:namedview
     id="base"
     pagecolor="#000000"
     bordercolor="#666666"
     borderopacity="1.0"
     inkscape:pageopacity="0"
     inkscape:pageshadow="2"
     inkscape:zoom="1"
     inkscape:cx="96.302636"
     inkscape:cy="85.00393"
     inkscape:document-units="px"
     inkscape:current-layer="layer2"
     showgrid="false"
     inkscape:showpageshadow="false"
     inkscape:window-width="1254"
     inkscape:window-height="979"
     inkscape:window-x="18"
     inkscape:window-y="10"
     showguides="true"
     inkscape:guide-bbox="true" />
  <defs
     id="defs4">
    <linearGradient
       id="linearGradient3132">
      <stop
         style="stop-color:#000000;stop-opacity:1;"
         offset="0"
         id="stop3134" />
      <stop
         id="stop3140"
         offset="0.5"
         style="stop-color:#000000;stop-opacity:0;" />
      <stop
         style="stop-color:#000000;stop-opacity:1;"
         offset="1"
         id="stop3136" />
    </linearGradient>
    <linearGradient
       id="linearGradient3092">
      <stop
         style="stop-color:#709c24;stop-opacity:1"
         offset="0"
         id="stop3094" />
      <stop
         style="stop-color:#6f9b23;stop-opacity:0.3671875;"
         offset="1"
         id="stop3096" />
    </linearGradient>
    <linearGradient
       id="linearGradient3067">
      <stop
         style="stop-color:#6b8e23;stop-opacity:1"
         offset="0"
         id="stop3069" />
      <stop
         style="stop-color:#006400;stop-opacity:1;"
         offset="1"
         id="stop3072" />
    </linearGradient>
    <radialGradient
       inkscape:collect="always"
       xlink:href="#linearGradient3067"
       id="radialGradient3074"
       cx="280.84741"
       cy="1317.9896"
       fx="280.84741"
       fy="1317.9896"
       r="79"
       gradientTransform="matrix(1.3291139,-8.00401e-2,1.6530654e-2,0.5420056,32.28198,92.38594)"
       gradientUnits="userSpaceOnUse" />
    <filter
       inkscape:collect="always"
       id="filter3124">
      <feGaussianBlur
         inkscape:collect="always"
         stdDeviation="2.2096558"
         id="feGaussianBlur3126" />
    </filter>
    <radialGradient
       inkscape:collect="always"
       xlink:href="#linearGradient3092"
       id="radialGradient3128"
       cx="287.17188"
       cy="1211.252"
       fx="287.17188"
       fy="1211.252"
       r="63.578125"
       gradientTransform="matrix(1,0,0,0.5131779,127.5,199.16421)"
       gradientUnits="userSpaceOnUse" />
    <linearGradient
       inkscape:collect="always"
       xlink:href="#linearGradient3132"
       id="linearGradient2497"
       gradientUnits="userSpaceOnUse"
       gradientTransform="translate(129,-309)"
       x1="180.84743"
       y1="1205.0837"
       x2="393.84741"
       y2="1205.0837" />
    <linearGradient
       inkscape:collect="always"
       xlink:href="#linearGradient3132"
       id="linearGradient2535"
       gradientUnits="userSpaceOnUse"
       gradientTransform="translate(75.652583,-1061.8338)"
       x1="-102.15259"
       y1="1188.3337"
       x2="181.34741"
       y2="1188.3337" />
    <radialGradient
       inkscape:collect="always"
       xlink:href="#linearGradient3092"
       id="radialGradient2538"
       gradientUnits="userSpaceOnUse"
       gradientTransform="matrix(1.6554728,-0.1306884,6.5344919e-2,0.8277457,-36.414253,-944.06649)"
       cx="43.171875"
       cy="1258.9938"
       fx="43.171875"
       fy="1258.9938"
       r="63.578125" />
    <radialGradient
       inkscape:collect="always"
       xlink:href="#linearGradient3067"
       id="radialGradient2541"
       gradientUnits="userSpaceOnUse"
       gradientTransform="matrix(1.5509656,-3.5018622e-2,-2.2497931e-2,0.7975935,17.692517,-1039.1484)"
       cx="83.375092"
       cy="1466.9982"
       fx="83.375092"
       fy="1466.9982"
       r="79" />
    <radialGradient
       inkscape:collect="always"
       xlink:href="#linearGradient3067"
       id="radialGradient3142"
       gradientUnits="userSpaceOnUse"
       gradientTransform="matrix(1.5509656,-3.5018622e-2,-2.2497931e-2,0.7975935,17.692517,-1039.1484)"
       cx="83.375092"
       cy="1466.9982"
       fx="83.375092"
       fy="1466.9982"
       r="79" />
    <radialGradient
       inkscape:collect="always"
       xlink:href="#linearGradient3092"
       id="radialGradient3144"
       gradientUnits="userSpaceOnUse"
       gradientTransform="matrix(1.6554728,-0.1306884,6.5344919e-2,0.8277457,-36.414253,-944.06649)"
       cx="43.171875"
       cy="1258.9938"
       fx="43.171875"
       fy="1258.9938"
       r="63.578125" />
    <linearGradient
       inkscape:collect="always"
       xlink:href="#linearGradient3132"
       id="linearGradient3146"
       gradientUnits="userSpaceOnUse"
       gradientTransform="translate(75.652583,-1061.8338)"
       x1="-102.15259"
       y1="1188.3337"
       x2="181.34741"
       y2="1188.3337" />
  </defs>
  <metadata
     id="metadata7">
    <rdf:RDF>
      <ns:Work
         rdf:about="">
        <dc:format>image/svg+xml</dc:format>
        <dc:type
           rdf:resource="http://purl.org/dc/dcmitype/StillImage" />
      </ns:Work>
      <cc:Work
         rdf:about="">
        <dc:format>image/svg+xml</dc:format>
        <dc:type
           rdf:resource="http://purl.org/dc/dcmitype/StillImage" />
      </cc:Work>
    </rdf:RDF>
  </metadata>
  <g
     transform="translate(-56.847417,-735.33378)"
     inkscape:label="plants"
     id="layer2"
     inkscape:groupmode="layer">
    <g
       id="g3137"
       transform="matrix(1.0495495,0,0,1,-3.3865837,-1.5)">
      <path
         id="path2493"
         transform="translate(56.847417,735.33378)"
         d="M 142.5,3.5 C 177,33 158,83.5 158,83.5 C 146,67.5 122.5,61 122.5,61 C 140.5,69 143.5,88.5 143.5,88.5 C 108,102.5 114,73 114,73 C 101.5,80 100.5,93.5 100.5,93.5 C 92,57 119,36.5 119,36.5 C 90.5,43.5 75.000003,74 75,74 C 75,61.5 61.499999,45.5 61.5,45.5 C 64,52.5 57.999999,62.5 58,62.5 C 32.499995,41 41.500002,11.5 41.5,11.5 C 15,55.5 44.499999,94.5 44.5,94.5 C 36.999995,88.5 13,89.5 13,89.5 C 20.880688,95.947836 25.921493,116.71088 28.15625,128 L 229.71875,128 C 226.39118,114.31546 232,96 232,96 C 221.5,98 211,107 211,107 C 216.5,100.5 217.5,80 217.5,80 C 213,97 191,101.5 191,101.5 C 188,79.5 207.5,52 207.5,52 C 187,60 178.5,85 178.5,85 C 178.5,23 142.5,3.5 142.5,3.5 z"
         style="fill:url(#radialGradient3142);fill-opacity:1;fill-rule:evenodd;stroke:#002800;stroke-width:2.92832851;stroke-linecap:butt;stroke-linejoin:miter;marker:none;marker-start:none;marker-mid:none;marker-end:none;stroke-miterlimit:4;stroke-dasharray:none;stroke-dashoffset:0;stroke-opacity:1;visibility:visible;display:inline;overflow:visible;enable-background:accumulate" />
      <path
         id="path2501"
         transform="translate(56.847417,735.33378)"
         d="M 36.90625,42.21875 C 34.523356,61.532208 41.736868,80.6015 52.21875,96.46875 C 53.637909,102.27039 45.188921,103.84835 42.125,100 C 37.312468,96.834468 30.201076,95.63413 25.375,96.03125 C 28.624046,101.99437 30.890679,117.45206 32.75,128 L 222.84375,128 C 222.58265,120.51045 222.80462,109.21804 223.03125,106.03125 C 215.92648,110.69432 208.71552,115.60885 200.1875,117.40625 C 201.83248,112.35622 206.3598,105.15669 206.8125,101.65625 C 200.40266,105.3248 193.23184,107.42825 186,108.8125 C 183.73949,99.447568 184.5906,89.59188 187.1875,80.40625 C 182.92617,88.350028 179.52394,96.72859 175.46875,104.78125 C 172.37896,88.338548 172.70116,71.33639 169.25,55.03125 C 168.81242,69.366758 164.99573,83.30092 159.59375,96.5 C 156.28827,90.945888 152.63958,85.51706 147.75,81.21875 C 148.5644,84.791018 150.92862,89.96133 149.25,92.71875 C 138.06328,97.629338 122.69134,102.24809 112.71875,92.5625 C 110.90384,90.994088 109.79646,88.29011 109.03125,86.4375 C 105.20085,94.297908 104.73718,103.11012 101.90625,111.3125 C 91.494333,94.432798 89.91009,72.57327 98.125,54.5 C 85.075463,65.380258 78.45731,81.3256 68.8125,95.03125 C 69.302553,83.891988 70.73925,71.77824 65.21875,61.59375 C 63.714333,65.223718 61.09284,72.0735 56,69.15625 C 47.645079,61.871758 40.458815,52.8587 36.90625,42.21875 z M 187.1875,80.40625 C 187.37127,80.446378 187.25887,79.80842 187.1875,80.40625 z"
         style="fill:url(#radialGradient3144);fill-opacity:1;fill-rule:evenodd;stroke:none;stroke-width:3;stroke-linecap:butt;stroke-linejoin:miter;marker:none;marker-start:none;marker-mid:none;marker-end:none;stroke-miterlimit:4;stroke-dasharray:none;stroke-dashoffset:0;stroke-opacity:1;visibility:visible;display:inline;overflow:visible;filter:url(#filter3124);enable-background:accumulate" />
      <path
         id="path2519"
         transform="translate(56.847417,735.33378)"
         d="M 142.5,3.5 C 177,33 158,83.5 158,83.5 C 146,67.5 122.5,61 122.5,61 C 140.5,69 143.5,88.5 143.5,88.5 C 108,102.5 114,73 114,73 C 101.5,80 100.5,93.5 100.5,93.5 C 92,57 119,36.5 119,36.5 C 90.5,43.5 75.000003,74 75,74 C 75,61.5 61.499999,45.5 61.5,45.5 C 64,52.5 57.999999,62.5 58,62.5 C 32.499995,41 41.500002,11.5 41.5,11.5 C 15,55.5 44.499999,94.5 44.5,94.5 C 36.999995,88.5 13,89.5 13,89.5 C 20.879862,95.947159 24.878363,116.71007 26.53125,128 L 227.84375,128 C 224.91877,114.315 232,96 232,96 C 221.5,98 211,107 211,107 C 216.5,100.5 217.5,80 217.5,80 C 213,97 191,101.5 191,101.5 C 188,79.5 207.5,52 207.5,52 C 187,60 178.5,85 178.5,85 C 178.5,23 142.5,3.5 142.5,3.5 z"
         style="opacity:0.734767;fill:url(#linearGradient3146);fill-opacity:1;fill-rule:evenodd;stroke:none;stroke-width:3;stroke-linecap:butt;stroke-linejoin:miter;marker:none;marker-start:none;marker-mid:none;marker-end:none;stroke-miterlimit:4;stroke-dasharray:none;stroke-dashoffset:0;stroke-opacity:1;visibility:visible;display:inline;overflow:visible;enable-background:accumulate" />
    </g>
  </g>
</svg>
