<?xml version="1.0" encoding="UTF-8" standalone="no"?>
<!-- Created with Inkscape (http://www.inkscape.org/) -->
<svg
   xmlns:ns="http://creativecommons.org/ns#"
   xmlns:dc="http://purl.org/dc/elements/1.1/"
   xmlns:cc="http://web.resource.org/cc/"
   xmlns:rdf="http://www.w3.org/1999/02/22-rdf-syntax-ns#"
   xmlns:svg="http://www.w3.org/2000/svg"
   xmlns="http://www.w3.org/2000/svg"
   xmlns:xlink="http://www.w3.org/1999/xlink"
   xmlns:sodipodi="http://sodipodi.sourceforge.net/DTD/sodipodi-0.dtd"
   xmlns:inkscape="http://www.inkscape.org/namespaces/inkscape"
   width="256"
   height="128"
   id="svg2"
   sodipodi:version="0.32"
   inkscape:version="0.45.1"
   version="1.0"
   sodipodi:docname="2.svg"
   inkscape:output_extension="org.inkscape.output.svg.inkscape"
   inkscape:export-filename="/home/needcoffee/Desktop/smc-graphics/jungle/jungle_grass2.png"
   inkscape:export-xdpi="90"
   inkscape:export-ydpi="90"
   sodipodi:docbase="D:\Dateien\Desktop\Secret Maryo Chronicles\Drafts\Game\needcoffee\level\jungle\grass">
  <sodipodi:namedview
     id="base"
     pagecolor="#000000"
     bordercolor="#666666"
     borderopacity="1.0"
     inkscape:pageopacity="0"
     inkscape:pageshadow="2"
     inkscape:zoom="0.70710678"
     inkscape:cx="219.97092"
     inkscape:cy="17.797406"
     inkscape:document-units="px"
     inkscape:current-layer="layer2"
     showgrid="false"
     inkscape:showpageshadow="false"
     inkscape:window-width="1254"
     inkscape:window-height="979"
     inkscape:window-x="18"
     inkscape:window-y="10"
     showguides="true"
     inkscape:guide-bbox="true" />
  <defs
     id="defs4">
    <linearGradient
       id="linearGradient3132">
      <stop
         style="stop-color:#000000;stop-opacity:1;"
         offset="0"
         id="stop3134" />
      <stop
         id="stop3140"
         offset="0.5"
         style="stop-color:#000000;stop-opacity:0;" />
      <stop
         style="stop-color:#000000;stop-opacity:1;"
         offset="1"
         id="stop3136" />
    </linearGradient>
    <linearGradient
       id="linearGradient3092">
      <stop
         style="stop-color:#709c24;stop-opacity:1"
         offset="0"
         id="stop3094" />
      <stop
         style="stop-color:#6f9b23;stop-opacity:0.3671875;"
         offset="1"
         id="stop3096" />
    </linearGradient>
    <linearGradient
       id="linearGradient3067">
      <stop
         style="stop-color:#6b8e23;stop-opacity:1"
         offset="0"
         id="stop3069" />
      <stop
         style="stop-color:#006400;stop-opacity:1;"
         offset="1"
         id="stop3072" />
    </linearGradient>
    <filter
       inkscape:collect="always"
       id="filter3124">
      <feGaussianBlur
         inkscape:collect="always"
         stdDeviation="2.2096558"
         id="feGaussianBlur3126" />
    </filter>
    <linearGradient
       inkscape:collect="always"
       xlink:href="#linearGradient3132"
       id="linearGradient3218"
       gradientUnits="userSpaceOnUse"
       gradientTransform="matrix(1.024123,0,0,1,443.3031,106.33376)"
       x1="-406.15259"
       y1="757"
       x2="-104.65259"
       y2="757" />
    <radialGradient
       inkscape:collect="always"
       xlink:href="#linearGradient3092"
       id="radialGradient3220"
       gradientUnits="userSpaceOnUse"
       gradientTransform="matrix(2.4891782,-9.8471831e-7,3.6302091e-7,1.0190368,137.6962,-829.6574)"
       cx="17.297544"
       cy="1663.2465"
       fx="17.297544"
       fy="1663.2465"
       r="63.578125" />
    <radialGradient
       inkscape:collect="always"
       xlink:href="#linearGradient3067"
       id="radialGradient3222"
       gradientUnits="userSpaceOnUse"
       gradientTransform="matrix(1.6967365,0.112668,-3.7181521e-2,0.3841657,-85.30327,483.18987)"
       cx="178.34843"
       cy="917.96069"
       fx="178.34843"
       fy="917.96069"
       r="79" />
  </defs>
  <metadata
     id="metadata7">
    <rdf:RDF>
      <ns:Work
         rdf:about="">
        <dc:format>image/svg+xml</dc:format>
        <dc:type
           rdf:resource="http://purl.org/dc/dcmitype/StillImage" />
      </ns:Work>
      <cc:Work
         rdf:about="">
        <dc:format>image/svg+xml</dc:format>
        <dc:type
           rdf:resource="http://purl.org/dc/dcmitype/StillImage" />
      </cc:Work>
    </rdf:RDF>
  </metadata>
  <g
     transform="translate(-56.847417,-735.33378)"
     inkscape:label="plants"
     id="layer2"
     inkscape:groupmode="layer">
    <g
       id="g2355">
      <path
         id="path3177"
         d="M 185.73615,739.33378 C 185.73615,739.33378 161.78066,768.31416 152.48415,813.92753 C 128.47189,793.33441 103.80631,782.33378 103.80631,782.33378 C 103.8063,782.33378 116.08294,800.10748 125.66493,825.27128 C 125.25167,825.37718 124.82731,825.47568 124.41678,825.58378 C 114.71736,822.56925 104.83043,823.33378 104.83043,823.33378 C 104.83043,823.33378 105.22836,826.64862 102.23812,833.02128 C 100.20663,833.87548 98.232169,834.7618 96.317407,835.67753 C 87.749134,828.5341 86.396215,816.33378 86.396215,816.33378 C 86.396215,816.33378 72.578644,827.92166 72.378531,851.58378 C 68.499061,855.29521 65.374651,859.23365 63.097417,863.33378 L 303.25426,863.33378 C 298.06899,853.96791 288.46462,845.49285 275.57094,838.49003 C 276.05105,838.13665 276.50167,837.7476 276.88309,837.33378 C 286.1002,827.33378 292.24494,803.33378 292.24494,803.33378 C 292.24494,803.33378 279.19331,816.77882 260.43312,826.24003 C 265.41647,790.08698 286.1002,762.33378 286.1002,762.33378 C 286.1002,762.33378 265.13269,774.18237 246.76748,795.08378 C 248.86911,781.17919 249.23177,771.33378 249.23177,771.33378 C 249.23177,771.33378 244.08726,787.14698 221.80448,809.42753 C 213.16927,802.74309 201.09799,797.33378 201.09799,797.33378 C 201.09799,797.33378 208.49403,803.24214 211.85128,818.74003 C 211.44226,819.09994 211.02073,819.47163 210.60313,819.83378 C 201.77152,818.85782 192.60611,818.33378 183.17584,818.33378 C 182.62847,818.33378 182.08936,818.36157 181.54364,818.36503 C 174.19221,777.80032 185.73615,739.33378 185.73615,739.33378 z"
         style="opacity:1;fill:url(#radialGradient3222);fill-opacity:1;fill-rule:evenodd;stroke:#002800;stroke-width:3;stroke-linecap:butt;stroke-linejoin:miter;marker:none;marker-start:none;marker-mid:none;marker-end:none;stroke-miterlimit:4;stroke-dasharray:none;stroke-dashoffset:0;stroke-opacity:1;visibility:visible;display:inline;overflow:visible;enable-background:accumulate" />
      <path
         transform="matrix(1.024123,0,0,1,-1.5221019,0)"
         sodipodi:nodetypes="cccccccccccccccccccccccc"
         id="path3208"
         d="M 171,770.78125 C 162.75067,788.08028 157.32334,806.53965 154.28125,825.40625 C 143.33358,815.28202 131.18458,805.57281 118.75,798.09375 C 123.90369,808.09896 128.20327,818.46204 132,829.0625 C 124.88067,833.53045 116.66021,829.66675 109.15625,829.21875 C 108.26258,836.88593 99.261238,843.60522 92,840.59375 C 88.318943,837.6203 85.6653,833.57262 83.53125,829.375 C 78.994234,837.07385 78.611076,850.42103 77.5,858.75 C 72.374944,862.62696 79.435396,861.06532 82.90625,861.34375 C 82.90625,861.34375 285.8125,861.34375 285.8125,861.34375 C 278.50035,853.49337 268.94445,844.32873 259.59375,839.3125 C 266.47757,835.51306 271.31735,829.04625 274.25,821.84375 C 266.16666,827.70028 257.41121,832.4766 248.4375,836.78125 C 249.85304,818.54132 254.52286,800.61464 261.96875,783.90625 C 251.32576,793.16788 242.28542,804.16826 233.375,815.1875 C 234.23369,809.48843 235.14577,803.6769 235.9375,798.03125 C 230.67696,804.98264 224.72224,811.22134 218.65625,817.46875 C 216.53867,816.43635 211.95567,810.92384 213.96875,815.96875 C 216.28336,822.04047 209.73265,826.4265 204.25,825.71875 C 194.16087,824.24655 183.91798,824.1089 173.71875,824.59375 C 170.19259,806.69496 169.54312,788.27855 171.3125,770.125 L 171,770.78125 z M 261.96875,783.90625 C 262.0645,783.94598 262.04213,783.63735 261.96875,783.90625 z"
         style="opacity:1;fill:url(#radialGradient3220);fill-opacity:1;fill-rule:evenodd;stroke:none;stroke-width:3;stroke-linecap:butt;stroke-linejoin:miter;marker:none;marker-start:none;marker-mid:none;marker-end:none;stroke-miterlimit:4;stroke-dasharray:none;stroke-dashoffset:0;stroke-opacity:1;visibility:visible;display:inline;overflow:visible;filter:url(#filter3124);enable-background:accumulate" />
      <path
         style="opacity:0.734767;fill:url(#linearGradient3218);fill-opacity:1;fill-rule:evenodd;stroke:none;stroke-width:3;stroke-linecap:butt;stroke-linejoin:miter;marker:none;marker-start:none;marker-mid:none;marker-end:none;stroke-miterlimit:4;stroke-dasharray:none;stroke-dashoffset:0;stroke-opacity:1;visibility:visible;display:inline;overflow:visible;enable-background:accumulate"
         d="M 185.73615,739.33378 C 185.73615,739.33378 161.78066,768.31416 152.48416,813.92753 C 128.47189,793.33441 103.80631,782.33378 103.80631,782.33378 C 103.80631,782.33378 116.08294,800.10748 125.66493,825.27128 C 125.25167,825.37718 124.82731,825.47568 124.41678,825.58378 C 114.71736,822.56925 104.83043,823.33378 104.83043,823.33378 C 104.83043,823.33378 105.22836,826.64862 102.23812,833.02128 C 100.20664,833.87548 98.232171,834.7618 96.317408,835.67753 C 87.749135,828.5341 86.396216,816.33378 86.396216,816.33378 C 86.396216,816.33378 72.578645,827.92166 72.378532,851.58378 C 68.499062,855.29521 65.374651,859.23365 63.097417,863.33378 L 303.25427,863.33378 C 298.069,853.96791 288.46463,845.49285 275.57095,838.49003 C 276.05106,838.13665 276.50168,837.7476 276.8831,837.33378 C 286.10021,827.33378 292.24495,803.33378 292.24495,803.33378 C 292.24495,803.33378 279.19332,816.77882 260.43313,826.24003 C 265.41648,790.08698 286.10021,762.33378 286.10021,762.33378 C 286.10021,762.33378 265.1327,774.18237 246.76748,795.08378 C 248.86912,781.17919 249.23178,771.33378 249.23178,771.33378 C 249.23178,771.33378 244.08727,787.14698 221.80449,809.42753 C 213.16927,802.74309 201.098,797.33378 201.098,797.33378 C 201.098,797.33378 208.49404,803.24214 211.85129,818.74003 C 211.44226,819.09994 211.02074,819.47163 210.60314,819.83378 C 201.77152,818.85782 192.60611,818.33378 183.17584,818.33378 C 182.62847,818.33378 182.08936,818.36157 181.54365,818.36503 C 174.19222,777.80032 185.73615,739.33378 185.73615,739.33378 z"
         id="path3216" />
    </g>
  </g>
</svg>
