<?xml version="1.0" encoding="UTF-8" standalone="no"?>
<!-- Created with Inkscape (http://www.inkscape.org/) -->
<svg
   xmlns:ns="http://creativecommons.org/ns#"
   xmlns:dc="http://purl.org/dc/elements/1.1/"
   xmlns:cc="http://web.resource.org/cc/"
   xmlns:rdf="http://www.w3.org/1999/02/22-rdf-syntax-ns#"
   xmlns:svg="http://www.w3.org/2000/svg"
   xmlns="http://www.w3.org/2000/svg"
   xmlns:xlink="http://www.w3.org/1999/xlink"
   xmlns:sodipodi="http://sodipodi.sourceforge.net/DTD/sodipodi-0.dtd"
   xmlns:inkscape="http://www.inkscape.org/namespaces/inkscape"
   width="256"
   height="512"
   id="svg2"
   sodipodi:version="0.32"
   inkscape:version="0.45.1"
   version="1.0"
   sodipodi:docname="4.svg"
   inkscape:output_extension="org.inkscape.output.svg.inkscape"
   inkscape:export-filename="/home/needcoffee/Desktop/smc-graphics/jungle/jungle_grass4.png"
   inkscape:export-xdpi="90"
   inkscape:export-ydpi="90"
   sodipodi:docbase="D:\Dateien\Desktop\Secret Maryo Chronicles\Drafts\Game\needcoffee\level\jungle\grass">
  <sodipodi:namedview
     id="base"
     pagecolor="#000000"
     bordercolor="#666666"
     borderopacity="1.0"
     inkscape:pageopacity="0"
     inkscape:pageshadow="2"
     inkscape:zoom="1"
     inkscape:cx="224.5922"
     inkscape:cy="191.53059"
     inkscape:document-units="px"
     inkscape:current-layer="layer2"
     showgrid="false"
     inkscape:showpageshadow="false"
     inkscape:window-width="1254"
     inkscape:window-height="979"
     inkscape:window-x="18"
     inkscape:window-y="10"
     showguides="true"
     inkscape:guide-bbox="true" />
  <defs
     id="defs4">
    <linearGradient
       id="linearGradient3132">
      <stop
         style="stop-color:#000000;stop-opacity:1;"
         offset="0"
         id="stop3134" />
      <stop
         id="stop3140"
         offset="0.5"
         style="stop-color:#000000;stop-opacity:0;" />
      <stop
         style="stop-color:#000000;stop-opacity:1;"
         offset="1"
         id="stop3136" />
    </linearGradient>
    <linearGradient
       id="linearGradient3092">
      <stop
         style="stop-color:#709c24;stop-opacity:1"
         offset="0"
         id="stop3094" />
      <stop
         style="stop-color:#6f9b23;stop-opacity:0.3671875;"
         offset="1"
         id="stop3096" />
    </linearGradient>
    <linearGradient
       id="linearGradient3067">
      <stop
         style="stop-color:#6b8e23;stop-opacity:1"
         offset="0"
         id="stop3069" />
      <stop
         style="stop-color:#006400;stop-opacity:1;"
         offset="1"
         id="stop3072" />
    </linearGradient>
    <filter
       inkscape:collect="always"
       id="filter3124">
      <feGaussianBlur
         inkscape:collect="always"
         stdDeviation="2.2096558"
         id="feGaussianBlur3126" />
    </filter>
    <radialGradient
       inkscape:collect="always"
       xlink:href="#linearGradient3067"
       id="radialGradient3081"
       gradientUnits="userSpaceOnUse"
       gradientTransform="matrix(1.0302036,-3.3031989,1.1419353,0.6282188,62.105252,-404.66638)"
       cx="-228.0302"
       cy="262.54749"
       fx="-228.0302"
       fy="262.54749"
       r="79" />
    <radialGradient
       inkscape:collect="always"
       xlink:href="#linearGradient3092"
       id="radialGradient3083"
       gradientUnits="userSpaceOnUse"
       gradientTransform="matrix(3.0973014,-1.576867e-6,1.3145925e-6,4.7580948,-81.204383,-10977.546)"
       cx="68.14724"
       cy="2413.4778"
       fx="68.14724"
       fy="2413.4778"
       r="63.578125" />
    <linearGradient
       inkscape:collect="always"
       xlink:href="#linearGradient3132"
       id="linearGradient3085"
       gradientUnits="userSpaceOnUse"
       gradientTransform="matrix(1.024123,0,0,1,1100.5589,-150.69956)"
       x1="-1363.4789"
       y1="662.69958"
       x2="-511.84274"
       y2="662.69958" />
  </defs>
  <metadata
     id="metadata7">
    <rdf:RDF>
      <ns:Work
         rdf:about="">
        <dc:format>image/svg+xml</dc:format>
        <dc:type
           rdf:resource="http://purl.org/dc/dcmitype/StillImage" />
      </ns:Work>
      <cc:Work
         rdf:about="">
        <dc:format>image/svg+xml</dc:format>
        <dc:type
           rdf:resource="http://purl.org/dc/dcmitype/StillImage" />
      </cc:Work>
    </rdf:RDF>
  </metadata>
  <g
     transform="translate(-56.847417,-735.33378)"
     inkscape:label="plants"
     id="layer2"
     inkscape:groupmode="layer">
    <g
       id="g3076"
       transform="translate(0,-1.5)">
      <path
         id="path3013"
         transform="translate(56.847417,735.33378)"
         d="M 16.65625,36.78125 C 89.748873,122.33056 125.44011,195.63689 143.9375,282.3125 C 132.5402,311.4524 121.28304,345.0467 112.375,381.625 C 79.579853,327.75659 43,305.15625 43,305.15625 C 43,305.15625 69.25857,351.888 83.125,439.5 C 80.292563,437.2366 77.46176,435.1056 74.625,433.0625 C 61.800923,403.20461 47,387.90625 47,387.90625 C 46.999999,387.90624 51.66702,397.0494 49.90625,417.5625 C 27.488159,405.3312 10,400.28125 10,400.28125 C 10,400.28125 28.897877,411.7717 47.03125,436 C 42.839116,454.97421 33.872971,480.02674 16.15625,512 L 239.625,512 C 232.20576,475.58658 244,454.625 244,454.625 C 244,454.62501 236.38957,457.11555 227,463.71875 C 229.74128,391.21786 217,331.09375 217,331.09375 C 217,331.09375 214.67412,348.98685 203.375,372.21875 C 193.07083,333.59376 181.62484,298.92365 169.5625,267.96875 C 183.29033,209.70942 198,170.46875 198,170.46875 C 198,170.46875 180.51148,198.4246 159.90625,244.3125 C 94.293883,89.720791 16.65625,36.78125 16.65625,36.78125 z"
         style="opacity:1;fill:url(#radialGradient3081);fill-opacity:1;fill-rule:evenodd;stroke:#002800;stroke-width:3;stroke-linecap:butt;stroke-linejoin:miter;marker:none;marker-start:none;marker-mid:none;marker-end:none;stroke-miterlimit:4;stroke-dasharray:none;stroke-dashoffset:0;stroke-opacity:1;visibility:visible;display:inline;overflow:visible;enable-background:accumulate" />
      <path
         id="path3047"
         transform="translate(56.847417,735.33378)"
         d="M 89.21875,125.96875 C 89.677083,126.73958 90.13542,127.51042 90.59375,128.28125 C 118.21749,175.29325 139.12471,226.81407 149.4375,280.375 C 150.15384,289.00061 143.9038,296.01375 142.09375,304.21875 C 131.01077,334.66926 122.07305,365.7603 114.71875,397.3125 C 99.765193,370.7913 81.42547,345.69605 58.75,325.28125 C 75.991009,367.31184 85.3448,412.0275 92,456.875 C 86.044933,446.97741 74.71131,442.9485 68.21875,433.8125 C 64.536953,425.909 61.07256,417.89735 56.28125,410.53125 C 56.180409,416.11244 55.67266,421.67315 55.0625,427.21875 C 50.574679,424.73744 46.08649,422.24795 41.53125,419.90625 C 45.566319,424.84774 51.06117,429.8296 53.28125,435.5 C 47.928099,460.21051 37.94203,483.7004 26.15625,506 C 94.947921,506.00001 163.73958,505.9999 232.53125,506 C 230.54477,492.97641 230.57634,479.4269 233.59375,466.5625 C 229.15779,469.4001 224.87242,472.47605 220.53125,475.46875 C 222.56851,436.64254 220.87557,397.4112 215.53125,359.0625 C 211.65568,369.4512 206.63891,379.38995 201.6875,389.34375 C 191.22214,348.32204 178.79543,307.8421 163.28125,268.4375 C 166.31293,255.71277 169.4697,243.01883 172.9375,230.40625 C 168.38241,239.95488 164.03952,249.59324 159.71875,259.25 C 140.38902,212.66236 117.90226,167.46133 89.21875,125.96875 z"
         style="opacity:1;fill:url(#radialGradient3083);fill-opacity:1;fill-rule:evenodd;stroke:none;stroke-width:2.94765377;stroke-linecap:butt;stroke-linejoin:miter;marker:none;marker-start:none;marker-mid:none;marker-end:none;stroke-miterlimit:4;stroke-dasharray:none;stroke-dashoffset:0;stroke-opacity:1;visibility:visible;display:inline;overflow:visible;filter:url(#filter3124);enable-background:accumulate" />
      <path
         id="path3067"
         transform="translate(56.847417,735.33378)"
         d="M 16.65625,36.78125 C 89.748873,122.33056 125.44011,195.63689 143.9375,282.3125 C 132.5402,311.4524 121.28304,345.0467 112.375,381.625 C 79.579853,327.75659 43,305.15625 43,305.15625 C 43,305.15625 69.25857,351.888 83.125,439.5 C 80.292563,437.2366 77.46176,435.1056 74.625,433.0625 C 61.800923,403.20461 47,387.90625 47,387.90625 C 46.999999,387.90624 51.66702,397.0494 49.90625,417.5625 C 27.488159,405.3312 10,400.28125 10,400.28125 C 10,400.28125 28.897877,411.7717 47.03125,436 C 42.839116,454.97421 33.872971,480.02674 16.15625,512 L 239.625,512 C 232.20576,475.58658 244,454.625 244,454.625 C 244,454.62501 236.38957,457.11555 227,463.71875 C 229.74128,391.21786 217,331.09375 217,331.09375 C 217,331.09375 214.67412,348.98685 203.375,372.21875 C 193.07083,333.59376 181.62484,298.92365 169.5625,267.96875 C 183.29033,209.70942 198,170.46875 198,170.46875 C 198,170.46875 180.51148,198.4246 159.90625,244.3125 C 94.293883,89.720791 16.65625,36.78125 16.65625,36.78125 z"
         style="opacity:0.734767;fill:url(#linearGradient3085);fill-opacity:1;fill-rule:evenodd;stroke:none;stroke-width:3;stroke-linecap:butt;stroke-linejoin:miter;marker:none;marker-start:none;marker-mid:none;marker-end:none;stroke-miterlimit:4;stroke-dasharray:none;stroke-dashoffset:0;stroke-opacity:1;visibility:visible;display:inline;overflow:visible;enable-background:accumulate" />
    </g>
  </g>
</svg>
