<?xml version="1.0" encoding="UTF-8" standalone="no"?>
<!-- Created with Inkscape (http://www.inkscape.org/) -->
<svg
   xmlns:dc="http://purl.org/dc/elements/1.1/"
   xmlns:cc="http://creativecommons.org/ns#"
   xmlns:rdf="http://www.w3.org/1999/02/22-rdf-syntax-ns#"
   xmlns:svg="http://www.w3.org/2000/svg"
   xmlns="http://www.w3.org/2000/svg"
   xmlns:xlink="http://www.w3.org/1999/xlink"
   xmlns:sodipodi="http://sodipodi.sourceforge.net/DTD/sodipodi-0.dtd"
   xmlns:inkscape="http://www.inkscape.org/namespaces/inkscape"
   width="256"
   height="256"
   id="svg2"
   sodipodi:version="0.32"
   inkscape:version="0.46"
   version="1.0"
   sodipodi:docname="top.svg"
   inkscape:output_extension="org.inkscape.output.svg.inkscape"
   inkscape:export-filename="D:\Dateien\Desktop\Secret Maryo Chronicles\SMC\data\pixmaps\ground\candy_1\candy_cane_top.png"
   inkscape:export-xdpi="180"
   inkscape:export-ydpi="180">
  <defs
     id="defs4">
    <inkscape:perspective
       sodipodi:type="inkscape:persp3d"
       inkscape:vp_x="0 : 128 : 1"
       inkscape:vp_y="0 : 1000 : 0"
       inkscape:vp_z="256 : 128 : 1"
       inkscape:persp3d-origin="128 : 85.333333 : 1"
       id="perspective40" />
    <linearGradient
       id="linearGradient3237">
      <stop
         style="stop-color:#ffc921;stop-opacity:0.33644861;"
         offset="0"
         id="stop3239" />
      <stop
         style="stop-color:#ffaa21;stop-opacity:0.20560747;"
         offset="1"
         id="stop3241" />
    </linearGradient>
    <filter
       inkscape:collect="always"
       id="filter3217">
      <feGaussianBlur
         inkscape:collect="always"
         stdDeviation="0.14828161"
         id="feGaussianBlur3219" />
    </filter>
    <filter
       inkscape:collect="always"
       id="filter3221">
      <feGaussianBlur
         inkscape:collect="always"
         stdDeviation="0.20506426"
         id="feGaussianBlur3223" />
    </filter>
    <filter
       inkscape:collect="always"
       id="filter3225">
      <feGaussianBlur
         inkscape:collect="always"
         stdDeviation="0.17465516"
         id="feGaussianBlur3227" />
    </filter>
    <filter
       inkscape:collect="always"
       id="filter3233">
      <feGaussianBlur
         inkscape:collect="always"
         stdDeviation="3.7262085"
         id="feGaussianBlur3235" />
    </filter>
    <linearGradient
       inkscape:collect="always"
       xlink:href="#linearGradient3237"
       id="linearGradient3243"
       x1="-71.832985"
       y1="-139.35623"
       x2="1.530519"
       y2="0.68559301"
       gradientUnits="userSpaceOnUse" />
    <filter
       inkscape:collect="always"
       id="filter3249">
      <feGaussianBlur
         inkscape:collect="always"
         stdDeviation="0.22625522"
         id="feGaussianBlur3251" />
    </filter>
    <linearGradient
       y2="919.76123"
       x2="-275.85815"
       y1="394.47388"
       x1="-848.78064"
       gradientTransform="matrix(0.2299045,0,0,0.2212455,492.45854,139.87943)"
       gradientUnits="userSpaceOnUse"
       id="linearGradient1981"
       xlink:href="#linearGradient4135"
       inkscape:collect="always" />
    <linearGradient
       id="linearGradient4135">
      <stop
         style="stop-color:#ffffff;stop-opacity:1"
         offset="0"
         id="stop4137" />
      <stop
         id="stop3381"
         offset="0.10472063"
         style="stop-color:#d1f4fe;stop-opacity:1" />
      <stop
         style="stop-color:#ffffff;stop-opacity:1"
         offset="0.34223014"
         id="stop3383" />
      <stop
         id="stop3421"
         offset="0.85409576"
         style="stop-color:#d4f0ff;stop-opacity:1" />
      <stop
         id="stop4139"
         offset="1"
         style="stop-color:#f0faff;stop-opacity:1" />
    </linearGradient>
    <filter
       inkscape:collect="always"
       id="filter3195">
      <feGaussianBlur
         inkscape:collect="always"
         stdDeviation="1.588294"
         id="feGaussianBlur3197" />
    </filter>
  </defs>
  <sodipodi:namedview
     id="base"
     pagecolor="#000000"
     bordercolor="#5cee22"
     borderopacity="1"
     inkscape:pageopacity="0"
     inkscape:pageshadow="2"
     inkscape:zoom="2"
     inkscape:cx="88.638655"
     inkscape:cy="142.22097"
     inkscape:document-units="px"
     inkscape:current-layer="layer1"
     showgrid="false"
     inkscape:showpageshadow="false"
     borderlayer="true"
     showborder="true"
     inkscape:window-width="1187"
     inkscape:window-height="846"
     inkscape:window-x="67"
     inkscape:window-y="78" />
  <metadata
     id="metadata7">
    <rdf:RDF>
      <cc:Work
         rdf:about="">
        <dc:format>image/svg+xml</dc:format>
        <dc:type
           rdf:resource="http://purl.org/dc/dcmitype/StillImage" />
      </cc:Work>
    </rdf:RDF>
  </metadata>
  <g
     inkscape:label="Ebene 1"
     inkscape:groupmode="layer"
     id="layer1">
    <rect
       style="opacity:0.98999999;fill:#ff2b1a;fill-opacity:1;fill-rule:nonzero;stroke:none;stroke-width:2;stroke-linecap:round;stroke-linejoin:round;stroke-miterlimit:4;stroke-dasharray:none;stroke-dashoffset:0;stroke-opacity:1"
       id="rect3245"
       width="64"
       height="20"
       x="192"
       y="256" />
    <path
       sodipodi:type="inkscape:offset"
       inkscape:radius="0"
       inkscape:original="M 152.59375 109.59375 C 127.68825 109.4155 73 135.80166 73 208.0625 C 73 238.44689 131.46874 236.56376 131.96875 207.03125 C 132.17022 195.13111 137.50895 174 154.9375 174 C 179.46154 174 193 219.35044 193 256.1875 L 255 256.1875 C 252.32391 185.41792 225.95322 110.09375 152.59375 109.59375 z "
       xlink:href="#path2394"
       style="fill:#ffffff;fill-opacity:1;fill-rule:evenodd;stroke:none;stroke-width:2;stroke-linecap:butt;stroke-linejoin:miter;stroke-miterlimit:4;stroke-dasharray:none;stroke-opacity:1"
       id="path3247"
       inkscape:href="#path2394"
       d="M 152.59375,109.59375 C 127.68825,109.4155 73,135.80166 73,208.0625 C 73,238.44689 131.46874,236.56376 131.96875,207.03125 C 132.17022,195.13111 137.50895,174 154.9375,174 C 179.46154,174 195.33378,213.6653 193.125,256 L 255.15625,255.96875 C 255.03714,184.49206 225.95322,110.09375 152.59375,109.59375 z" />
    <path
       style="fill:#ff0000;fill-opacity:1;stroke:none;stroke-width:4.12599993;stroke-linecap:round;stroke-linejoin:round;stroke-miterlimit:4;stroke-opacity:1;filter:url(#filter3225)"
       d="M 192.11734,237.30875 L 248.53861,208.07805 C 248.53861,208.07805 253.93427,230.37026 254.46884,256.95929 C 238.54038,256.95929 208.70786,256.10983 193.33755,256.10983 C 193.50212,242.74832 192.11734,237.30875 192.11734,237.30875 z"
       id="path3167"
       sodipodi:nodetypes="ccccc" />
    <path
       style="fill:#ff0000;fill-opacity:1;stroke:none;stroke-width:4.12599992999999990;stroke-linecap:round;stroke-linejoin:round;stroke-miterlimit:4;stroke-opacity:1;filter:url(#filter3249)"
       d="M 77.153747,219.23359 L 126.81124,219.80708 C 118.45056,226.41974 109.11213,229.72333 101.32164,229.70363 C 83.891432,229.65956 77.153747,219.23359 77.153747,219.23359 z"
       id="path3173"
       sodipodi:nodetypes="ccsc" />
    <path
       style="fill:#ff0000;fill-opacity:1;stroke:none;stroke-width:4.12599993;stroke-linecap:round;stroke-linejoin:round;stroke-miterlimit:4;stroke-opacity:1;filter:url(#filter3217)"
       d="M 132.38529,202.15512 C 117.31948,201.52378 79.18302,199.25544 73.511966,199.57014 C 75.160799,178.44284 81.530926,162.61112 88.353067,151.3664 C 96.575614,157.42648 135.75921,186.96669 135.75921,186.96669 C 135.75921,186.96669 132.85824,194.03331 132.38529,202.15512 z"
       id="path2392"
       sodipodi:nodetypes="ccccc" />
    <path
       style="fill:#ff0000;fill-opacity:1;stroke:none;stroke-width:4.12599993;stroke-linecap:round;stroke-linejoin:round;stroke-miterlimit:4;stroke-opacity:1;filter:url(#filter3221)"
       d="M 149.40094,174.09821 C 149.0638,166.68439 147.89396,122.37674 146.843,110.35993 C 188.11822,107.21086 215.63294,131.91038 230.05605,156.57994 C 217.01411,165.50272 178.11346,189.81735 178.11346,189.81735 C 178.11346,189.81735 166.04251,168.36262 149.40094,174.09821 z"
       id="path3169"
       sodipodi:nodetypes="ccccc" />
    <path
       style="fill:none;fill-opacity:1;fill-rule:evenodd;stroke:#000000;stroke-width:2;stroke-linecap:butt;stroke-linejoin:miter;stroke-miterlimit:4;stroke-dasharray:none;stroke-opacity:1"
       d="M 193,256.2 C 193,219.36295 179.45192,173.98953 154.92788,173.98953 C 137.49934,173.98953 132.16147,195.13769 131.96,207.03783 C 131.46,236.57034 73,238.45822 73,208.07383 C 73,135.813 127.69354,109.4015 152.59904,109.57975 C 225.95851,110.07975 252.32391,185.43042 255,256.2"
       id="path2394"
       sodipodi:nodetypes="cssssc" />
    <path
       transform="matrix(0.9618829,0,0,0.9618829,190.81046,252.95405)"
       style="fill:url(#linearGradient3243);fill-opacity:1;fill-rule:evenodd;stroke:none;stroke-width:2;stroke-linecap:butt;stroke-linejoin:miter;stroke-miterlimit:4;stroke-opacity:1;filter:url(#filter3233)"
       d="M -39.28125,-146.15625 C -56.100347,-145.23181 -117.40474,-112.93337 -118.875,-47.65625 C -119.23093,-31.85335 -104.08885,-26.470301 -89.665893,-28.686584 C -76.364729,-30.730488 -63.675172,-39.23757 -64.317016,-51.995575 C -64.915031,-63.882392 -56.938982,-85.7932 -36.202372,-86.160766 C -6.9047718,-86.689451 6.1132601,-33.450093 6.7634579,8.3647916 L 63.28125,8.3647916 C 58.751382,-69.728046 14.597328,-147.12651 -39.28125,-146.15625 z"
       id="path3229"
       sodipodi:nodetypes="cssssccc" />
    <g
       style="opacity:1"
       id="g3363"
       inkscape:label="Layer 1"
       transform="translate(-188.21967,-112.22836)">
      <path
         id="path1900"
         d="M 302.6,234.58463 C 297.05862,238.8969 293.4332,241.73569 287.12375,248.36784 C 280.66666,255.15518 274.25023,265.95148 269.17826,274.07909 C 265.56596,279.86764 259.41676,312.45949 261.42097,321.36264 C 263.88137,332.29229 272.23795,321.86418 278.18557,314.96203 C 284.47092,307.66794 282.23999,296.22868 286.579,290.08098 C 289.6615,285.71356 292.28562,287.49852 299.29146,284.83045 C 305.50817,282.46291 309.73185,271.97595 315.12474,269.55971 C 320.04456,267.35543 327.04652,270.96525 333.7514,270.71318 C 341.27267,270.43042 348.54929,266.45063 354.63438,266.81961 C 358.67485,267.06461 365.85408,266.77911 370.4123,269.91649 C 374.43667,272.68643 375.75644,278.67574 380.53694,282.16415 C 384.51252,285.0652 391.60248,284.93329 395.90254,288.15299 C 399.8725,291.12552 403.01242,296.72829 403.85954,302.83772 C 406.44708,321.49917 418.94901,315.4858 425.72872,329.2241 C 431.2849,340.48303 430.04253,359.06028 441.30247,357.6591 C 446.67271,356.99083 433.68718,296.28696 425.27136,281.43893 L 414.74324,262.33669 C 412.94022,259.05019 407.44809,251.40412 400.48181,245.38216 C 393.50096,239.3476 380.78621,230.27401 374.09036,227.73001 C 367.15079,225.09341 355.50105,221.04353 344.94942,221.18934 C 335.21453,221.32386 325.68783,223.94198 319.09541,225.83161 C 312.22831,227.79997 310.29207,228.59871 302.6,234.58463 z"
         style="opacity:1;fill:url(#linearGradient1981);fill-opacity:1;stroke:none;stroke-width:0.5;stroke-linecap:butt;stroke-linejoin:round;stroke-miterlimit:4;stroke-dasharray:none;stroke-opacity:0.44871796;filter:url(#filter3195)"
         sodipodi:nodetypes="csssssssssssssssccszsss" />
    </g>
  </g>
</svg>
