<?xml version="1.0" encoding="UTF-8" standalone="no"?>
<!-- Created with Inkscape (http://www.inkscape.org/) -->
<svg
   xmlns:dc="http://purl.org/dc/elements/1.1/"
   xmlns:cc="http://web.resource.org/cc/"
   xmlns:rdf="http://www.w3.org/1999/02/22-rdf-syntax-ns#"
   xmlns:svg="http://www.w3.org/2000/svg"
   xmlns="http://www.w3.org/2000/svg"
   xmlns:xlink="http://www.w3.org/1999/xlink"
   xmlns:sodipodi="http://sodipodi.sourceforge.net/DTD/sodipodi-0.dtd"
   xmlns:inkscape="http://www.inkscape.org/namespaces/inkscape"
   id="svg2226"
   sodipodi:version="0.32"
   inkscape:version="0.45.1"
   width="64"
   height="64"
   version="1.0"
   sodipodi:docbase="D:\Dateien\Desktop\Secret Maryo Chronicles\Drafts\Game\Pipgirl\Maryo"
   sodipodi:docname="Thunder.svg"
   inkscape:output_extension="org.inkscape.output.svg.inkscape">
  <metadata
     id="metadata2231">
    <rdf:RDF>
      <cc:Work
         rdf:about="">
        <dc:format>image/svg+xml</dc:format>
        <dc:type
           rdf:resource="http://purl.org/dc/dcmitype/StillImage" />
      </cc:Work>
    </rdf:RDF>
  </metadata>
  <defs
     id="defs2229">
    <linearGradient
       inkscape:collect="always"
       id="linearGradient5283">
      <stop
         style="stop-color:#dfa076;stop-opacity:1"
         offset="0"
         id="stop5285" />
      <stop
         style="stop-color:#d1702f;stop-opacity:1"
         offset="1"
         id="stop5287" />
    </linearGradient>
    <linearGradient
       inkscape:collect="always"
       id="linearGradient5275">
      <stop
         style="stop-color:#ec9d68;stop-opacity:1"
         offset="0"
         id="stop5277" />
      <stop
         style="stop-color:#bc6227;stop-opacity:1"
         offset="1"
         id="stop5279" />
    </linearGradient>
    <linearGradient
       inkscape:collect="always"
       xlink:href="#linearGradient5275"
       id="linearGradient5281"
       x1="33.154881"
       y1="81.371384"
       x2="47.40704"
       y2="85.692795"
       gradientUnits="userSpaceOnUse" />
    <linearGradient
       inkscape:collect="always"
       xlink:href="#linearGradient5283"
       id="linearGradient5289"
       x1="35.991962"
       y1="91.628082"
       x2="48.03558"
       y2="91.868156"
       gradientUnits="userSpaceOnUse" />
  </defs>
  <sodipodi:namedview
     inkscape:window-height="623"
     inkscape:window-width="840"
     inkscape:pageshadow="2"
     inkscape:pageopacity="0"
     guidetolerance="10.0"
     gridtolerance="10.0"
     objecttolerance="10.0"
     borderopacity="1.0"
     bordercolor="#666666"
     pagecolor="#000000"
     id="base"
     inkscape:zoom="4.1653009"
     inkscape:cx="32"
     inkscape:cy="29.29839"
     inkscape:window-x="245"
     inkscape:window-y="317"
     inkscape:current-layer="svg2226"
     showguides="true"
     inkscape:guide-bbox="true"
     height="64px"
     width="64px" />
  <g
     id="g4457"
     transform="translate(31.690388,-36.251882)">
    <path
       sodipodi:nodetypes="ccccc"
       id="path4237"
       d="M 15.845194,83.105284 C 15.605115,77.823553 17.045587,77.103317 17.045587,77.103317 C 21.367004,69.660878 24.488027,78.543789 24.488027,78.543789 C 21.607082,81.664812 23.287633,84.305678 23.287633,84.305678 C 19.926532,82.144969 16.325351,83.585441 15.845194,83.105284 z "
       style="fill:#939393;fill-opacity:1;fill-rule:evenodd;stroke:#000000;stroke-width:1px;stroke-linecap:round;stroke-linejoin:round;stroke-opacity:1" />
    <path
       sodipodi:nodetypes="ccccc"
       id="path4235"
       d="M 14.6448,83.585441 C 12.003935,89.827487 13.684486,92.94851 13.684486,92.94851 C 18.245981,96.549692 23.287633,93.668748 23.287633,93.668748 C 24.00787,85.506071 24.728105,85.265992 24.728105,85.265992 C 19.926531,77.103317 14.884879,83.82552 14.6448,83.585441 z "
       style="fill:#a2a2a2;fill-opacity:1;fill-rule:evenodd;stroke:#000000;stroke-width:1px;stroke-linecap:round;stroke-linejoin:round;stroke-opacity:1" />
    <path
       sodipodi:nodetypes="ccccc"
       id="path4249"
       d="M 21.847161,76.38308 C 18.726138,79.264025 20.646768,80.464418 20.646768,80.464418 L 22.327319,81.664812 C 22.567397,78.30371 23.767791,78.30371 23.767791,78.30371 L 21.847161,76.38308 z "
       style="fill:#5e5e5e;fill-opacity:1;fill-rule:evenodd;stroke:none;stroke-width:1px;stroke-linecap:butt;stroke-linejoin:miter;stroke-opacity:1" />
    <path
       sodipodi:nodetypes="ccccc"
       id="path4251"
       d="M 21.126925,82.14497 C 20.406689,88.947199 21.367004,93.108563 21.367004,93.108563 L 23.047555,92.228274 C 23.047555,88.226962 24.247949,85.025914 24.247949,85.025914 L 21.126925,82.14497 z "
       style="fill:#696969;fill-opacity:1;fill-rule:evenodd;stroke:none;stroke-width:1px;stroke-linecap:butt;stroke-linejoin:miter;stroke-opacity:1" />
    <path
       id="path5222"
       d="M 21.126925,75.182687 C 18.726138,77.103317 18.48606,79.984261 18.48606,79.984261"
       style="fill:none;fill-rule:evenodd;stroke:#dfdfdf;stroke-width:1px;stroke-linecap:butt;stroke-linejoin:miter;stroke-opacity:1" />
    <path
       id="path5224"
       d="M 17.765824,82.385048 C 15.845194,85.74615 16.085273,92.228274 16.085273,92.228274 L 18.966217,93.188589 C 17.525745,86.466386 18.966217,82.625127 18.966217,82.625127 L 17.765824,82.385048 z "
       style="fill:#dfdfdf;fill-opacity:1;fill-rule:evenodd;stroke:none;stroke-width:1px;stroke-linecap:butt;stroke-linejoin:miter;stroke-opacity:1" />
  </g>
  <g
     id="g4465"
     transform="translate(2.1607082,2.6408656)">
    <path
       sodipodi:nodetypes="ccc"
       id="path4183"
       d="M 47.872679,8.1485411 C 53.30504,7.469496 53.644562,4.7533157 53.644562,4.7533157 C 56.360742,12.562334 51.607427,12.222812 51.607427,12.222812"
       style="fill:#bababa;fill-opacity:1;fill-rule:evenodd;stroke:#000000;stroke-width:1.5;stroke-linecap:round;stroke-linejoin:round;stroke-miterlimit:4;stroke-dasharray:none;stroke-opacity:1" />
    <g
       id="g4221">
      <g
         id="g4213">
        <g
           transform="matrix(0.9998545,1.7059354e-2,-1.7059354e-2,0.9998545,0.3638995,-1.5388944)"
           id="g3208">
          <path
             style="fill:#8c8c8c;fill-opacity:1;fill-rule:evenodd;stroke:#000000;stroke-width:2.5;stroke-linecap:round;stroke-linejoin:round;stroke-miterlimit:4;stroke-dasharray:none;stroke-opacity:1"
             d="M 11.543766,39.045094 C 29.538462,11.883289 53.30504,24.785146 53.30504,24.785146 C 52.931062,-3.3601768 25.481666,3.7461839 25.481666,3.7461839 C 7.5345324,11.339688 6.6868993,25.983364 8.6343856,35.821191 C 9.6474988,40.938985 11.65995,39.045094 11.543766,39.045094 z "
             id="path2235"
             sodipodi:nodetypes="cccsc" />
          <path
             style="fill:#a7a7a7;fill-opacity:1;fill-rule:evenodd;stroke:#000000;stroke-width:1px;stroke-linecap:butt;stroke-linejoin:miter;stroke-opacity:1"
             d="M 52.286472,16.297082 C 52.286472,16.297082 25.199443,4.0322604 7.2047484,31.873109 L 9.6224924,41.367454 C 29.654323,11.48947 53.30504,24.106101 53.30504,24.106101"
             id="path3206"
             sodipodi:nodetypes="cccc" />
        </g>
        <path
           sodipodi:nodetypes="ccccc"
           id="path4185"
           d="M 15.237324,22.549124 C 11.842099,28.66053 14.798357,31.856866 14.798357,31.856866 L 9.3659964,37.968273 L 8.3474288,30.937743 C 12.761222,22.449679 15.576847,23.228169 15.237324,22.549124 z "
           style="fill:#696969;fill-opacity:1;fill-rule:evenodd;stroke:none;stroke-width:1px;stroke-linecap:butt;stroke-linejoin:miter;stroke-opacity:1" />
        <path
           sodipodi:nodetypes="ccccc"
           id="path4189"
           d="M 28.569365,14.442776 C 32.410624,17.323721 30.249916,20.684823 30.249916,20.684823 C 36.73204,18.764193 39.372906,19.48443 39.372906,19.48443 L 37.932434,13.482462 C 30.970152,12.041991 29.049523,14.442776 28.569365,14.442776 z "
           style="fill:#d3d3d3;fill-opacity:1;fill-rule:evenodd;stroke:none;stroke-width:1px;stroke-linecap:butt;stroke-linejoin:miter;stroke-opacity:1" />
        <path
           sodipodi:nodetypes="cc"
           id="path4191"
           d="M 25.68842,15.643171 C 30.489994,15.88325 28.329286,21.405059 28.329286,21.405059"
           style="fill:none;fill-opacity:1;fill-rule:evenodd;stroke:#c8c8c8;stroke-width:1px;stroke-linecap:butt;stroke-linejoin:bevel;stroke-opacity:1" />
      </g>
      <path
         style="fill:#b7b7b7;fill-opacity:1;fill-rule:evenodd;stroke:none;stroke-width:1px;stroke-linecap:butt;stroke-linejoin:miter;stroke-opacity:1"
         d="M 40.573299,11.081676 C 39.612985,4.5995508 34.331253,3.639236 34.331253,3.639236 C 27.849129,2.9189999 24.488027,5.3197869 24.488027,5.3197869 C 22.807476,7.7205739 25.928499,13.002305 25.928499,13.002305 C 29.769759,11.801911 41.053457,11.801912 40.573299,11.081676 z "
         id="path4193"
         sodipodi:nodetypes="ccccc" />
    </g>
    <g
       transform="translate(-2.400787,4.0813378)"
       id="g4199">
      <path
         style="fill:#bababa;fill-opacity:1;fill-rule:evenodd;stroke:#000000;stroke-width:1.5;stroke-linecap:round;stroke-linejoin:round;stroke-miterlimit:4;stroke-dasharray:none;stroke-opacity:1"
         d="M 15.618037,9.5066309 C 5.4323608,11.543765 5.0928383,4.0742705 5.0928383,4.0742705 C -1.3580902,14.599469 11.204244,16.297082 11.204244,16.297082 C 18.334218,19.692307 15.957559,9.1671082 15.618037,9.5066309 z "
         id="path3212"
         sodipodi:nodetypes="cccc" />
      <path
         style="fill:#696969;fill-opacity:1;fill-rule:evenodd;stroke:none;stroke-width:1px;stroke-linecap:butt;stroke-linejoin:miter;stroke-opacity:1"
         d="M 5.0416526,12.04199 C 11.283699,13.722541 14.6448,12.282069 14.6448,12.282069 C 16.56543,15.403092 14.164643,16.123328 14.164643,16.123328 C 8.4027543,15.163013 5.2817313,12.762226 5.0416526,12.04199 z "
         id="path4187"
         sodipodi:nodetypes="cccc" />
    </g>
    <path
       sodipodi:nodetypes="ccccccc"
       id="path5267"
       d="M 34.331253,3.3991573 L 30.249915,7.2404164 L 35.291568,7.9606525 L 32.170545,11.801912 L 39.132827,7.2404164 L 33.370938,6.0400229 L 34.331253,3.3991573 z "
       style="fill:#ffff00;fill-opacity:1;fill-rule:evenodd;stroke:#000000;stroke-width:1px;stroke-linecap:round;stroke-linejoin:round;stroke-opacity:1" />
  </g>
</svg>
