<?xml version="1.0" encoding="UTF-8" standalone="no"?>
<svg
   xmlns:dc="http://purl.org/dc/elements/1.1/"
   xmlns:cc="http://creativecommons.org/ns#"
   xmlns:rdf="http://www.w3.org/1999/02/22-rdf-syntax-ns#"
   xmlns:svg="http://www.w3.org/2000/svg"
   xmlns="http://www.w3.org/2000/svg"
   xmlns:xlink="http://www.w3.org/1999/xlink"
   xmlns:sodipodi="http://sodipodi.sourceforge.net/DTD/sodipodi-0.dtd"
   xmlns:inkscape="http://www.inkscape.org/namespaces/inkscape"
   version="1.1"
   overflow="visible"
   width="128"
   height="64"
   id="svg2"
   inkscape:version="0.47pre4 "
   sodipodi:docname="1.svg"
   style="fill-rule:evenodd;stroke-width:0.50099999;stroke-linejoin:bevel;overflow:visible"
   inkscape:export-filename="1_left.png"
   inkscape:export-xdpi="360"
   inkscape:export-ydpi="360">
  <metadata
     id="metadata94">
    <rdf:RDF>
      <cc:Work
         rdf:about="">
        <dc:format>image/svg+xml</dc:format>
        <dc:type
           rdf:resource="http://purl.org/dc/dcmitype/StillImage" />
        <dc:title></dc:title>
      </cc:Work>
    </rdf:RDF>
  </metadata>
  <sodipodi:namedview
     pagecolor="#1946a0"
     bordercolor="#666666"
     borderopacity="1"
     objecttolerance="10"
     gridtolerance="10"
     guidetolerance="10"
     inkscape:pageopacity="0"
     inkscape:pageshadow="2"
     inkscape:window-width="952"
     inkscape:window-height="664"
     id="namedview92"
     showgrid="false"
     inkscape:zoom="3.0405592"
     inkscape:cx="60.245359"
     inkscape:cy="32.257123"
     inkscape:window-x="218"
     inkscape:window-y="128"
     inkscape:window-maximized="0"
     inkscape:current-layer="svg2" />
  <defs
     id="defs4">
    <inkscape:perspective
       sodipodi:type="inkscape:persp3d"
       inkscape:vp_x="0 : 30 : 1"
       inkscape:vp_y="0 : 1000 : 0"
       inkscape:vp_z="120 : 30 : 1"
       inkscape:persp3d-origin="60 : 20 : 1"
       id="perspective8" />
    <inkscape:perspective
       id="perspective3637"
       inkscape:persp3d-origin="0.5 : 0.33333333 : 1"
       inkscape:vp_z="1 : 0.5 : 1"
       inkscape:vp_y="0 : 1000 : 0"
       inkscape:vp_x="0 : 0.5 : 1"
       sodipodi:type="inkscape:persp3d" />
    <filter
       inkscape:collect="always"
       id="filter3655">
      <feGaussianBlur
         inkscape:collect="always"
         stdDeviation="0.2104876"
         id="feGaussianBlur3657" />
    </filter>
    <filter
       id="filter3666"
       inkscape:label="Diffuse light"
       inkscape:menu="ABCs"
       inkscape:menu-tooltip="Basic diffuse bevel to use for building textures"
       color-interpolation-filters="sRGB">
      <feGaussianBlur
         id="feGaussianBlur3668"
         stdDeviation="6.5999999999999996"
         in="SourceGraphic"
         result="result0" />
      <feDiffuseLighting
         id="feDiffuseLighting3670"
         diffuseConstant="1"
         surfaceScale="2"
         result="result5">
        <feDistantLight
           id="feDistantLight3672"
           elevation="30"
           azimuth="250" />
      </feDiffuseLighting>
      <feComposite
         id="feComposite3674"
         in2="SourceGraphic"
         k1="1"
         in="result5"
         result="result4"
         operator="arithmetic"
         k2="0"
         k3="0.6" />
      <feGaussianBlur
         stdDeviation="1.5"
         id="feGaussianBlur3676" />
    </filter>
  </defs>
  <path
     style="fill:#cdeeff;fill-opacity:1;stroke:#0e7edc;stroke-width:2;stroke-linecap:round;stroke-linejoin:round;stroke-miterlimit:79.84031677;stroke-opacity:1;stroke-dasharray:none;marker-start:none;marker-end:none"
     d="m 41.236218,2.6046609 c -9.179444,0 -16.630443,5.2550408 -16.630443,11.7512631 0,1.119255 0.240222,2.204293 0.652847,3.22988 -0.544887,-0.106105 -1.109689,-0.171802 -1.68366,-0.171802 -5.084,0 -9.208593,4.357554 -9.208593,9.723999 0,1.160396 0.196301,2.26693 0.549767,3.2986 -3.539608,0.844871 -6.1505141,3.874832 -6.1505141,7.456211 0,1.759636 0.620913,3.378732 1.6836601,4.673017 -0.437737,1.030902 -0.6872079,2.100887 -0.6872079,3.22988 0,6.355 7.4509979,11.51074 16.6304419,11.51074 1.496924,0 2.949663,-0.155447 4.329413,-0.412325 1.687959,1.523016 3.941795,2.47395 6.425399,2.47395 1.97711,0 3.807916,-0.605937 5.325865,-1.614939 1.820138,1.917958 4.716321,3.126798 7.971617,3.126798 3.715442,0 6.943051,-1.590727 8.658826,-3.985809 1.312952,0.592039 2.793163,0.927731 4.363773,0.927731 1.836066,0 3.551976,-0.445172 5.016622,-1.236975 1.396455,2.567305 4.245222,4.295053 7.524931,4.295053 2.118478,0 4.050213,-0.712968 5.532028,-1.924184 1.610908,1.516055 3.799176,2.43959 6.219236,2.43959 3.465561,0 6.450332,-1.908666 7.937257,-4.707377 1.14797,0.407464 2.471798,0.618487 3.848367,0.618487 3.84039,0 7.05307,-1.779511 8.0747,-4.226331 6.87147,-1.735371 11.61383,-5.237717 11.61383,-9.311674 0,-1.522737 -0.67354,-2.989399 -1.85546,-4.295053 0.85399,-1.193095 1.34005,-2.505811 1.34005,-3.882727 0,-2.04386 -1.03246,-3.98462 -2.81755,-5.566388 2.07373,-2.013917 3.33296,-4.496179 3.33296,-7.215688 0,-6.637445 -7.3517,-12.026147 -16.38992,-12.026147 -1.19255,0 -2.35035,0.09701 -3.470412,0.274883 -1.855284,-3.2164496 -5.33173,-5.3945857 -9.311674,-5.3945857 -1.311201,0 -2.5493,0.2570665 -3.710925,0.6872084 -1.926276,-1.0617117 -4.261851,-1.718021 -6.769003,-1.718021 -2.150262,0 -4.16373,0.4715608 -5.909992,1.2713355 -2.712316,-1.7346355 -6.283748,-2.783194 -10.205045,-2.783194 -4.049503,0 -7.703586,1.1181177 -10.445567,2.9549961 C 50.01093,3.9296704 45.846469,2.6046609 41.236218,2.6046609 z"
     id="path86"
     sodipodi:nodetypes="cscsscscsscscscscscscscscscsscscscscc" />
  <path
     sodipodi:type="inkscape:offset"
     inkscape:radius="0"
     inkscape:original="M 41.25 2.59375 C 32.070556 2.59375 24.59375 7.8475277 24.59375 14.34375 C 24.59375 15.463005 24.837375 16.568163 25.25 17.59375 C 24.705113 17.487645 24.136471 17.40625 23.5625 17.40625 C 18.4785 17.40625 14.375 21.758555 14.375 27.125 C 14.375 28.285396 14.552784 29.40583 14.90625 30.4375 C 11.366642 31.282371 8.75 34.324871 8.75 37.90625 C 8.75 39.665886 9.3747529 41.268215 10.4375 42.5625 C 9.999763 43.593402 9.75 44.652257 9.75 45.78125 C 9.75 52.13625 17.226806 57.3125 26.40625 57.3125 C 27.903174 57.3125 29.339 57.163128 30.71875 56.90625 C 32.406709 58.429266 34.672646 59.375 37.15625 59.375 C 39.13336 59.375 40.950801 58.759002 42.46875 57.75 C 44.288888 59.667958 47.182204 60.875 50.4375 60.875 C 54.152942 60.875 57.377975 59.301332 59.09375 56.90625 C 60.406702 57.498289 61.89814 57.8125 63.46875 57.8125 C 65.304816 57.8125 67.004104 57.385553 68.46875 56.59375 C 69.865205 59.161055 72.720291 60.875 76 60.875 C 78.118478 60.875 80.049435 60.179966 81.53125 58.96875 C 83.142158 60.484805 85.32994 61.40625 87.75 61.40625 C 91.215561 61.40625 94.200575 59.486211 95.6875 56.6875 C 96.83547 57.094964 98.154681 57.3125 99.53125 57.3125 C 103.37164 57.3125 106.60337 55.54057 107.625 53.09375 C 114.49647 51.358379 119.25 47.855207 119.25 43.78125 C 119.25 42.258513 118.55692 40.774404 117.375 39.46875 C 118.22899 38.275655 118.71875 36.970666 118.71875 35.59375 C 118.71875 33.54989 117.69134 31.613018 115.90625 30.03125 C 117.97998 28.017333 119.25 25.532009 119.25 22.8125 C 119.25 16.175055 111.88197 10.78125 102.84375 10.78125 C 101.6512 10.78125 100.49506 10.884627 99.375 11.0625 C 97.519716 7.8460504 94.042444 5.65625 90.0625 5.65625 C 88.751299 5.65625 87.505375 5.9136081 86.34375 6.34375 C 84.417474 5.2820383 82.100902 4.625 79.59375 4.625 C 77.443488 4.625 75.433762 5.1064753 73.6875 5.90625 C 70.975184 4.1716145 67.390047 3.125 63.46875 3.125 C 59.419247 3.125 55.773231 4.2256216 53.03125 6.0625 C 50.020338 3.9171071 45.860251 2.59375 41.25 2.59375 z "
     xlink:href="#path86"
     style="fill:#cdeeff;fill-opacity:1;stroke:none;stroke-width:2;stroke-linecap:round;stroke-linejoin:round;stroke-miterlimit:79.84031677000000100;stroke-opacity:1;stroke-dasharray:none;marker-start:none;marker-end:none;filter:url(#filter3666)"
     id="path3664"
     inkscape:href="#path86"
     d="m 41.25,2.59375 c -9.179444,0 -16.65625,5.2537777 -16.65625,11.75 0,1.119255 0.243625,2.224413 0.65625,3.25 -0.544887,-0.106105 -1.113529,-0.1875 -1.6875,-0.1875 -5.084,0 -9.1875,4.352305 -9.1875,9.71875 0,1.160396 0.177784,2.28083 0.53125,3.3125 C 11.366642,31.282371 8.75,34.324871 8.75,37.90625 c 0,1.759636 0.6247529,3.361965 1.6875,4.65625 -0.437737,1.030902 -0.6875,2.089757 -0.6875,3.21875 0,6.355 7.476806,11.53125 16.65625,11.53125 1.496924,0 2.93275,-0.149372 4.3125,-0.40625 1.687959,1.523016 3.953896,2.46875 6.4375,2.46875 1.97711,0 3.794551,-0.615998 5.3125,-1.625 1.820138,1.917958 4.713454,3.125 7.96875,3.125 3.715442,0 6.940475,-1.573668 8.65625,-3.96875 1.312952,0.592039 2.80439,0.90625 4.375,0.90625 1.836066,0 3.535354,-0.426947 5,-1.21875 1.396455,2.567305 4.251541,4.28125 7.53125,4.28125 2.118478,0 4.049435,-0.695034 5.53125,-1.90625 1.610908,1.516055 3.79869,2.4375 6.21875,2.4375 3.465561,0 6.450575,-1.920039 7.9375,-4.71875 1.14797,0.407464 2.467181,0.625 3.84375,0.625 3.84039,0 7.07212,-1.77193 8.09375,-4.21875 6.87147,-1.735371 11.625,-5.238543 11.625,-9.3125 0,-1.522737 -0.69308,-3.006846 -1.875,-4.3125 0.85399,-1.193095 1.34375,-2.498084 1.34375,-3.875 0,-2.04386 -1.02741,-3.980732 -2.8125,-5.5625 2.07373,-2.013917 3.34375,-4.499241 3.34375,-7.21875 0,-6.637445 -7.36803,-12.03125 -16.40625,-12.03125 -1.19255,0 -2.34869,0.103377 -3.46875,0.28125 -1.855284,-3.2164496 -5.332556,-5.40625 -9.3125,-5.40625 -1.311201,0 -2.557125,0.2573581 -3.71875,0.6875 C 84.417474,5.2820383 82.100902,4.625 79.59375,4.625 77.443488,4.625 75.433762,5.1064753 73.6875,5.90625 70.975184,4.1716145 67.390047,3.125 63.46875,3.125 59.419247,3.125 55.773231,4.2256216 53.03125,6.0625 50.020338,3.9171071 45.860251,2.59375 41.25,2.59375 z" />
  <g
     id="g3659"
     transform="translate(0,4)">
    <path
       transform="translate(-1.9733212,-73.012886)"
       d="m 61.830731,94.257591 c 0,3.996063 -1.472477,7.235509 -3.288869,7.235509 -1.816392,0 -3.288868,-3.239446 -3.288868,-7.235509 0,-3.996062 1.472476,-7.235511 3.288868,-7.235511 1.816392,0 3.288869,3.239449 3.288869,7.235511 z"
       sodipodi:ry="7.2355113"
       sodipodi:rx="3.2888687"
       sodipodi:cy="94.257591"
       sodipodi:cx="58.541862"
       id="path3645"
       style="color:#000000;fill:#000000;fill-opacity:1;fill-rule:nonzero;stroke:none;stroke-width:2;marker:none;visibility:visible;display:inline;overflow:visible;filter:url(#filter3655);enable-background:accumulate"
       sodipodi:type="arc" />
  </g>
  <use
     x="0"
     y="0"
     xlink:href="#g3659"
     id="use3662"
     transform="translate(16,0)"
     width="128"
     height="64" />
</svg>
