<?xml version="1.0" encoding="UTF-8" standalone="no"?>
<svg
   xmlns:dc="http://purl.org/dc/elements/1.1/"
   xmlns:cc="http://creativecommons.org/ns#"
   xmlns:rdf="http://www.w3.org/1999/02/22-rdf-syntax-ns#"
   xmlns:svg="http://www.w3.org/2000/svg"
   xmlns="http://www.w3.org/2000/svg"
   xmlns:xlink="http://www.w3.org/1999/xlink"
   xmlns:sodipodi="http://sodipodi.sourceforge.net/DTD/sodipodi-0.dtd"
   xmlns:inkscape="http://www.inkscape.org/namespaces/inkscape"
   version="1.1"
   overflow="visible"
   width="256"
   height="64"
   id="svg2"
   inkscape:version="0.47pre4 "
   sodipodi:docname="2.svg"
   style="fill-rule:evenodd;stroke-width:0.50099999;stroke-linejoin:bevel;overflow:visible"
   inkscape:export-filename="2.png"
   inkscape:export-xdpi="180"
   inkscape:export-ydpi="180">
  <metadata
     id="metadata99">
    <rdf:RDF>
      <cc:Work
         rdf:about="">
        <dc:format>image/svg+xml</dc:format>
        <dc:type
           rdf:resource="http://purl.org/dc/dcmitype/StillImage" />
        <dc:title></dc:title>
      </cc:Work>
    </rdf:RDF>
  </metadata>
  <sodipodi:namedview
     pagecolor="#0970b4"
     bordercolor="#666666"
     borderopacity="1"
     objecttolerance="10"
     gridtolerance="10"
     guidetolerance="10"
     inkscape:pageopacity="0"
     inkscape:pageshadow="2"
     inkscape:window-width="1010"
     inkscape:window-height="808"
     id="namedview97"
     showgrid="false"
     inkscape:zoom="1.1583333"
     inkscape:cx="125.71887"
     inkscape:cy="12.733813"
     inkscape:window-x="118"
     inkscape:window-y="54"
     inkscape:window-maximized="0"
     inkscape:current-layer="svg2" />
  <defs
     id="defs4">
    <inkscape:perspective
       sodipodi:type="inkscape:persp3d"
       inkscape:vp_x="0 : 30 : 1"
       inkscape:vp_y="0 : 1000 : 0"
       inkscape:vp_z="240 : 30 : 1"
       inkscape:persp3d-origin="120 : 20 : 1"
       id="perspective13" />
    <linearGradient
       id="LinearGradient"
       gradientUnits="userSpaceOnUse"
       x1="0"
       y1="0"
       x2="42.415001"
       y2="0"
       gradientTransform="matrix(-0.0442352,-0.999023,1.00723,0.14122,47.214,33.755)">
      <stop
         offset="0"
         stop-color="#c3eeff"
         id="stop84" />
      <stop
         offset="1"
         stop-color="#ebfafe"
         id="stop86" />
    </linearGradient>
    <linearGradient
       inkscape:collect="always"
       xlink:href="#LinearGradient"
       id="linearGradient2822"
       gradientUnits="userSpaceOnUse"
       gradientTransform="matrix(-0.0442352,-0.999023,1.00723,0.14122,-0.64542904,36.955)"
       x1="0"
       y1="0"
       x2="42.415001"
       y2="0" />
    <inkscape:perspective
       id="perspective3614"
       inkscape:persp3d-origin="0.5 : 0.33333333 : 1"
       inkscape:vp_z="1 : 0.5 : 1"
       inkscape:vp_y="0 : 1000 : 0"
       inkscape:vp_x="0 : 0.5 : 1"
       sodipodi:type="inkscape:persp3d" />
    <filter
       id="filter3687"
       inkscape:label="Diffuse light"
       inkscape:menu="ABCs"
       inkscape:menu-tooltip="Basic diffuse bevel to use for building textures"
       color-interpolation-filters="sRGB">
      <feGaussianBlur
         id="feGaussianBlur3689"
         stdDeviation="6.5961676646706593"
         in="SourceGraphic"
         result="result0" />
      <feDiffuseLighting
         id="feDiffuseLighting3691"
         diffuseConstant="1"
         surfaceScale="2"
         result="result5">
        <feDistantLight
           id="feDistantLight3693"
           elevation="30"
           azimuth="250" />
      </feDiffuseLighting>
      <feComposite
         id="feComposite3695"
         in2="SourceGraphic"
         k1="1"
         in="result5"
         result="result4"
         operator="arithmetic"
         k2="0"
         k3="0.6" />
      <feGaussianBlur
         stdDeviation="1.2"
         id="feGaussianBlur3699" />
    </filter>
  </defs>
  <path
     style="color:#000000;fill:#cdeeff;fill-opacity:1;fill-rule:nonzero;stroke:#0e7edc;stroke-width:2;stroke-linecap:round;stroke-linejoin:round;stroke-miterlimit:4;stroke-opacity:1;stroke-dasharray:none;stroke-dashoffset:0;marker:none;visibility:visible;display:inline;overflow:visible;enable-background:accumulate"
     d="m 204.1875,1.4375 c -3.00727,0 -5.67311,1.4298688 -7.40625,3.6875 -3.11721,-1.8917879 -7.53141,-3.09375 -12.4375,-3.09375 -5.22847,0 -9.89592,1.3552844 -13.03125,3.46875 -2.90099,-2.1095992 -7.45836,-3.46875 -12.59375,-3.46875 -6.2649,0 -11.66896,2.0290168 -14.25,4.96875 L 142.5,7 c -2.58061,-2.6118636 -7.1965,-4.34375 -12.46875,-4.34375 -4.48141,0 -8.50008,1.2374763 -11.1875,3.21875 -1.78504,-2.3305589 -4.5876,-3.84375 -7.75,-3.84375 -3.48501,0 -6.52136,1.8471114 -8.25,4.59375 C 99.72897,4.2283129 94.750657,2.65625 89.125,2.65625 c -5.106836,0 -9.680431,1.2835845 -12.8125,3.3125 -3.182461,-2.3771382 -8.153,-3.9375 -13.75,-3.9375 -6.387596,0 -11.943077,1.9983029 -14.96875,4.96875 l -1.25,0 C 43.389978,4.0308405 38.11469,2.03125 32.0625,2.03125 c -9.27144,0 -16.8125,4.6435641 -16.8125,10.375 0,0.126374 0.024,0.249719 0.03125,0.375 C 8.286392,14.247919 3.0625,20.214628 3.0625,27.375 c 0,6.567178 4.4048658,12.145499 10.53125,14.15625 C 11.995891,43.361446 11,45.916546 11,48.75 c 0,5.562864 3.811244,10.0625 8.53125,10.0625 1.512957,0 2.923524,-0.46839 4.15625,-1.28125 1.198569,2.870272 4.499295,4.9375 8.375,4.9375 3.862193,0 7.134819,-2.05162 8.34375,-4.90625 1.895544,3.193479 7.411833,5.53125 13.9375,5.53125 5.767667,0 10.734992,-1.813204 13.125,-4.4375 2.748469,2.272992 7.856132,3.8125 13.71875,3.8125 5.233571,0 9.858825,-1.215383 12.75,-3.09375 2.659214,1.86035 7.30472,3.09375 12.59375,3.09375 5.3135,0 9.972,-1.250221 12.625,-3.125 2.7375,1.882084 7.39505,3.125 12.6875,3.125 5.59981,0 10.50106,-1.369237 13.15625,-3.4375 2.20175,2.077227 5.88825,3.4375 10.0625,3.4375 4.86306,0 9.03674,-1.856606 11,-4.53125 2.50359,2.337987 7.30767,3.9375 12.8125,3.9375 5.77911,0 10.77184,-1.749756 13.15625,-4.28125 3.75656,2.926905 10.25769,4.875 17.65625,4.875 9.77864,0 17.97244,-3.385976 20.34375,-7.96875 0.53442,0.03171 1.07713,0.03125 1.625,0.03125 9.27144,0 16.8125,-4.643564 16.8125,-10.375 0,-1.882226 -0.83284,-3.634223 -2.25,-5.15625 3.21661,-1.895968 5.28125,-4.913784 5.28125,-8.28125 0,-3.417616 -2.1387,-6.421616 -5.4375,-8.3125 1.87376,-1.770466 3,-4.090016 3,-6.625 0,-5.562864 -5.47588,-10.09375 -12.21875,-10.09375 -1.88355,0 -3.65701,0.371565 -5.25,1 -2.25571,-2.8027992 -6.02798,-4.65625 -10.3125,-4.65625 -3.71835,0 -7.05163,1.3958295 -9.34375,3.59375 -1.7104,-2.5260391 -4.53788,-4.1875 -7.75,-4.1875 z"
     id="path2820" />
  <path
     sodipodi:type="inkscape:offset"
     inkscape:radius="0"
     inkscape:original="M 204.1875 1.4375 C 201.18023 1.4375 198.51439 2.8673688 196.78125 5.125 C 193.66404 3.2332121 189.24984 2.03125 184.34375 2.03125 C 179.11528 2.03125 174.44783 3.3865344 171.3125 5.5 C 168.41151 3.3904008 163.85414 2.03125 158.71875 2.03125 C 152.45385 2.03125 147.04979 4.0602668 144.46875 7 L 142.5 7 C 139.91939 4.3881364 135.3035 2.65625 130.03125 2.65625 C 125.54984 2.65625 121.53117 3.8937263 118.84375 5.875 C 117.05871 3.5444411 114.25615 2.03125 111.09375 2.03125 C 107.60874 2.03125 104.57239 3.8783614 102.84375 6.625 C 99.72897 4.2283129 94.750657 2.65625 89.125 2.65625 C 84.018164 2.65625 79.444569 3.9398345 76.3125 5.96875 C 73.130039 3.5916118 68.1595 2.03125 62.5625 2.03125 C 56.174904 2.03125 50.619423 4.0295529 47.59375 7 L 46.34375 7 C 43.389978 4.0308405 38.11469 2.03125 32.0625 2.03125 C 22.79106 2.03125 15.25 6.6748141 15.25 12.40625 C 15.25 12.532624 15.274 12.655969 15.28125 12.78125 C 8.286392 14.247919 3.0625 20.214628 3.0625 27.375 C 3.0625 33.942178 7.4673658 39.520499 13.59375 41.53125 C 11.995891 43.361446 11 45.916546 11 48.75 C 11 54.312864 14.811244 58.8125 19.53125 58.8125 C 21.044207 58.8125 22.454774 58.34411 23.6875 57.53125 C 24.886069 60.401522 28.186795 62.46875 32.0625 62.46875 C 35.924693 62.46875 39.197319 60.41713 40.40625 57.5625 C 42.301794 60.755979 47.818083 63.09375 54.34375 63.09375 C 60.111417 63.09375 65.078742 61.280546 67.46875 58.65625 C 70.217219 60.929242 75.324882 62.46875 81.1875 62.46875 C 86.421071 62.46875 91.046325 61.253367 93.9375 59.375 C 96.596714 61.23535 101.24222 62.46875 106.53125 62.46875 C 111.84475 62.46875 116.50325 61.218529 119.15625 59.34375 C 121.89375 61.225834 126.5513 62.46875 131.84375 62.46875 C 137.44356 62.46875 142.34481 61.099513 145 59.03125 C 147.20175 61.108477 150.88825 62.46875 155.0625 62.46875 C 159.92556 62.46875 164.09924 60.612144 166.0625 57.9375 C 168.56609 60.275487 173.37017 61.875 178.875 61.875 C 184.65411 61.875 189.64684 60.125244 192.03125 57.59375 C 195.78781 60.520655 202.28894 62.46875 209.6875 62.46875 C 219.46614 62.46875 227.65994 59.082774 230.03125 54.5 C 230.56567 54.53171 231.10838 54.53125 231.65625 54.53125 C 240.92769 54.53125 248.46875 49.887686 248.46875 44.15625 C 248.46875 42.274024 247.63591 40.522027 246.21875 39 C 249.43536 37.104032 251.5 34.086216 251.5 30.71875 C 251.5 27.301134 249.3613 24.297134 246.0625 22.40625 C 247.93626 20.635784 249.0625 18.316234 249.0625 15.78125 C 249.0625 10.218386 243.58662 5.6875 236.84375 5.6875 C 234.9602 5.6875 233.18674 6.059065 231.59375 6.6875 C 229.33804 3.8847008 225.56577 2.03125 221.28125 2.03125 C 217.5629 2.03125 214.22962 3.4270795 211.9375 5.625 C 210.2271 3.0989609 207.39962 1.4375 204.1875 1.4375 z "
     xlink:href="#path2820"
     style="color:#000000;fill:#cdeeff;fill-opacity:1;fill-rule:nonzero;stroke:none;stroke-width:2;stroke-linecap:round;stroke-linejoin:round;stroke-miterlimit:4;stroke-opacity:1;stroke-dasharray:none;stroke-dashoffset:0;marker:none;visibility:visible;display:inline;overflow:visible;enable-background:accumulate;filter:url(#filter3687);opacity:1"
     id="path3697"
     inkscape:href="#path2820"
     d="m 204.1875,1.4375 c -3.00727,0 -5.67311,1.4298688 -7.40625,3.6875 -3.11721,-1.8917879 -7.53141,-3.09375 -12.4375,-3.09375 -5.22847,0 -9.89592,1.3552844 -13.03125,3.46875 -2.90099,-2.1095992 -7.45836,-3.46875 -12.59375,-3.46875 -6.2649,0 -11.66896,2.0290168 -14.25,4.96875 L 142.5,7 c -2.58061,-2.6118636 -7.1965,-4.34375 -12.46875,-4.34375 -4.48141,0 -8.50008,1.2374763 -11.1875,3.21875 -1.78504,-2.3305589 -4.5876,-3.84375 -7.75,-3.84375 -3.48501,0 -6.52136,1.8471114 -8.25,4.59375 C 99.72897,4.2283129 94.750657,2.65625 89.125,2.65625 c -5.106836,0 -9.680431,1.2835845 -12.8125,3.3125 -3.182461,-2.3771382 -8.153,-3.9375 -13.75,-3.9375 -6.387596,0 -11.943077,1.9983029 -14.96875,4.96875 l -1.25,0 C 43.389978,4.0308405 38.11469,2.03125 32.0625,2.03125 c -9.27144,0 -16.8125,4.6435641 -16.8125,10.375 0,0.126374 0.024,0.249719 0.03125,0.375 C 8.286392,14.247919 3.0625,20.214628 3.0625,27.375 c 0,6.567178 4.4048658,12.145499 10.53125,14.15625 C 11.995891,43.361446 11,45.916546 11,48.75 c 0,5.562864 3.811244,10.0625 8.53125,10.0625 1.512957,0 2.923524,-0.46839 4.15625,-1.28125 1.198569,2.870272 4.499295,4.9375 8.375,4.9375 3.862193,0 7.134819,-2.05162 8.34375,-4.90625 1.895544,3.193479 7.411833,5.53125 13.9375,5.53125 5.767667,0 10.734992,-1.813204 13.125,-4.4375 2.748469,2.272992 7.856132,3.8125 13.71875,3.8125 5.233571,0 9.858825,-1.215383 12.75,-3.09375 2.659214,1.86035 7.30472,3.09375 12.59375,3.09375 5.3135,0 9.972,-1.250221 12.625,-3.125 2.7375,1.882084 7.39505,3.125 12.6875,3.125 5.59981,0 10.50106,-1.369237 13.15625,-3.4375 2.20175,2.077227 5.88825,3.4375 10.0625,3.4375 4.86306,0 9.03674,-1.856606 11,-4.53125 2.50359,2.337987 7.30767,3.9375 12.8125,3.9375 5.77911,0 10.77184,-1.749756 13.15625,-4.28125 3.75656,2.926905 10.25769,4.875 17.65625,4.875 9.77864,0 17.97244,-3.385976 20.34375,-7.96875 0.53442,0.03171 1.07713,0.03125 1.625,0.03125 9.27144,0 16.8125,-4.643564 16.8125,-10.375 0,-1.882226 -0.83284,-3.634223 -2.25,-5.15625 3.21661,-1.895968 5.28125,-4.913784 5.28125,-8.28125 0,-3.417616 -2.1387,-6.421616 -5.4375,-8.3125 1.87376,-1.770466 3,-4.090016 3,-6.625 0,-5.562864 -5.47588,-10.09375 -12.21875,-10.09375 -1.88355,0 -3.65701,0.371565 -5.25,1 -2.25571,-2.8027992 -6.02798,-4.65625 -10.3125,-4.65625 -3.71835,0 -7.05163,1.3958295 -9.34375,3.59375 -1.7104,-2.5260391 -4.53788,-4.1875 -7.75,-4.1875 z" />
  <g
     id="g3709">
    <ellipse
       rx="7.9289999"
       ry="3.9649999"
       transform="matrix(-0.01475448,0.99989115,-0.99989115,-0.01475448,114.18705,20.446572)"
       stroke-miterlimit="79.8403193612775"
       id="ellipse95"
       d="M 7.9289999,0 C 7.9289999,2.189809 4.3790657,3.9649999 0,3.9649999 -4.3790657,3.9649999 -7.9289999,2.189809 -7.9289999,0 c 0,-2.189809 3.5499342,-3.9649999 7.9289999,-3.9649999 4.3790657,0 7.9289999,1.7751909 7.9289999,3.9649999 z"
       cx="0"
       cy="0"
       sodipodi:cx="0"
       sodipodi:cy="0"
       sodipodi:rx="7.9289999"
       sodipodi:ry="3.9649999"
       style="fill:#000000;stroke:#000000;stroke-width:0.67699999;stroke-miterlimit:79.84031677" />
  </g>
  <use
     x="0"
     y="0"
     xlink:href="#g3709"
     id="use3712"
     transform="translate(20,0)"
     width="256"
     height="64" />
</svg>
