<?xml version="1.0" encoding="UTF-8" standalone="no"?>
<!-- Created with Inkscape (http://www.inkscape.org/) -->
<svg
   xmlns:dc="http://purl.org/dc/elements/1.1/"
   xmlns:cc="http://creativecommons.org/ns#"
   xmlns:rdf="http://www.w3.org/1999/02/22-rdf-syntax-ns#"
   xmlns:svg="http://www.w3.org/2000/svg"
   xmlns="http://www.w3.org/2000/svg"
   xmlns:xlink="http://www.w3.org/1999/xlink"
   xmlns:sodipodi="http://sodipodi.sourceforge.net/DTD/sodipodi-0.dtd"
   xmlns:inkscape="http://www.inkscape.org/namespaces/inkscape"
   width="256"
   height="256"
   id="svg2"
   sodipodi:version="0.32"
   inkscape:version="0.46"
   sodipodi:docname="closed_1.svg"
   inkscape:output_extension="org.inkscape.output.svg.inkscape"
   inkscape:export-filename="D:\Dateien\Desktop\Secret Maryo Chronicles\SMC\data\pixmaps\enemy\jpiranha\orange\closed_1.png"
   inkscape:export-xdpi="90"
   inkscape:export-ydpi="90"
   version="1.0">
  <defs
     id="defs4">
    <linearGradient
       id="linearGradient3227">
      <stop
         style="stop-color:#00f502;stop-opacity:0.49411765;"
         offset="0"
         id="stop3229" />
      <stop
         style="stop-color:#00f502;stop-opacity:1;"
         offset="1"
         id="stop3231" />
    </linearGradient>
    <inkscape:perspective
       sodipodi:type="inkscape:persp3d"
       inkscape:vp_x="0 : 512 : 1"
       inkscape:vp_y="0 : 1000 : 0"
       inkscape:vp_z="512 : 512 : 1"
       inkscape:persp3d-origin="256 : 341.33333 : 1"
       id="perspective111" />
    <linearGradient
       inkscape:collect="always"
       id="linearGradient3204">
      <stop
         style="stop-color:#ce9e24;stop-opacity:1"
         offset="0"
         id="stop3206" />
      <stop
         style="stop-color:#dbac35;stop-opacity:1"
         offset="1"
         id="stop3208" />
    </linearGradient>
    <linearGradient
       inkscape:collect="always"
       id="linearGradient3196">
      <stop
         style="stop-color:#ad7626;stop-opacity:1"
         offset="0"
         id="stop3198" />
      <stop
         style="stop-color:#d7c845;stop-opacity:1"
         offset="1"
         id="stop3200" />
    </linearGradient>
    <linearGradient
       id="linearGradient3174">
      <stop
         style="stop-color:#009c02;stop-opacity:1;"
         offset="0"
         id="stop3176" />
      <stop
         style="stop-color:#c3ff17;stop-opacity:1;"
         offset="1"
         id="stop3178" />
    </linearGradient>
    <filter
       inkscape:collect="always"
       id="filter3341"
       x="-0.14616126"
       width="1.2923225"
       y="-0.037254725"
       height="1.0745095">
      <feGaussianBlur
         inkscape:collect="always"
         stdDeviation="6.1247871"
         id="feGaussianBlur3343" />
    </filter>
    <filter
       inkscape:collect="always"
       id="filter3451">
      <feGaussianBlur
         inkscape:collect="always"
         stdDeviation="9.2316893"
         id="feGaussianBlur3453" />
    </filter>
    <linearGradient
       inkscape:collect="always"
       xlink:href="#linearGradient3174"
       id="linearGradient3180"
       x1="350.99493"
       y1="875.91211"
       x2="326.70215"
       y2="675.90186"
       gradientUnits="userSpaceOnUse"
       gradientTransform="matrix(0.4002669,0,0,0.4252894,-18.019387,-139.97306)" />
    <filter
       inkscape:collect="always"
       id="filter3182"
       x="-0.066060141"
       width="1.1321203"
       y="-0.21283838"
       height="1.4256768">
      <feGaussianBlur
         inkscape:collect="always"
         stdDeviation="12.415461"
         id="feGaussianBlur3184" />
    </filter>
    <linearGradient
       inkscape:collect="always"
       xlink:href="#linearGradient3196"
       id="linearGradient3226"
       x1="89.901291"
       y1="235.30779"
       x2="2.1320601"
       y2="46.749317"
       gradientUnits="userSpaceOnUse" />
    <linearGradient
       inkscape:collect="always"
       xlink:href="#linearGradient3196"
       id="linearGradient3234"
       x1="35.99535"
       y1="243.84596"
       x2="83.014343"
       y2="55.133888"
       gradientUnits="userSpaceOnUse" />
    <linearGradient
       inkscape:collect="always"
       xlink:href="#linearGradient3196"
       id="linearGradient3242"
       x1="14.103485"
       y1="254.81822"
       x2="107.50125"
       y2="55.818176"
       gradientUnits="userSpaceOnUse" />
    <linearGradient
       inkscape:collect="always"
       xlink:href="#linearGradient3204"
       id="linearGradient3250"
       x1="232.42451"
       y1="23.163971"
       x2="322.10568"
       y2="23.163971"
       gradientUnits="userSpaceOnUse" />
    <linearGradient
       inkscape:collect="always"
       xlink:href="#linearGradient3204"
       id="linearGradient3260"
       x1="232.42451"
       y1="23.163971"
       x2="322.10568"
       y2="23.163971"
       gradientUnits="userSpaceOnUse" />
    <linearGradient
       inkscape:collect="always"
       xlink:href="#linearGradient3204"
       id="linearGradient3268"
       x1="232.42451"
       y1="23.163971"
       x2="322.10568"
       y2="23.163971"
       gradientUnits="userSpaceOnUse" />
    <linearGradient
       id="linearGradient3383">
      <stop
         id="stop3385"
         offset="0"
         style="stop-color:#c29613;stop-opacity:1;" />
      <stop
         id="stop3387"
         offset="1"
         style="stop-color:#6b4628;stop-opacity:1;" />
    </linearGradient>
    <linearGradient
       id="linearGradient3781">
      <stop
         id="stop3783"
         offset="0"
         style="stop-color:#625c1f;stop-opacity:1;" />
      <stop
         id="stop3785"
         offset="1"
         style="stop-color:#d6f222;stop-opacity:1;" />
    </linearGradient>
    <linearGradient
       id="linearGradient3986">
      <stop
         id="stop3988"
         offset="0"
         style="stop-color:#6f6f6f;stop-opacity:1;" />
      <stop
         id="stop3990"
         offset="1"
         style="stop-color:#fbf0f0;stop-opacity:1;" />
    </linearGradient>
    <filter
       inkscape:collect="always"
       id="filter3943"
       x="-0.21197091"
       width="1.4239419"
       y="-0.11417203"
       height="1.2283441">
      <feGaussianBlur
         inkscape:collect="always"
         stdDeviation="1.4508244"
         id="feGaussianBlur3945" />
    </filter>
    <filter
       inkscape:collect="always"
       id="filter3947"
       x="-0.24700864"
       width="1.4940172"
       y="-0.1103778"
       height="1.2207556">
      <feGaussianBlur
         inkscape:collect="always"
         stdDeviation="1.4508243"
         id="feGaussianBlur3949" />
    </filter>
    <filter
       inkscape:collect="always"
       id="filter3951"
       x="-0.13375291"
       width="1.2675058"
       y="-0.066128559"
       height="1.1322571">
      <feGaussianBlur
         inkscape:collect="always"
         stdDeviation="0.8298043"
         id="feGaussianBlur3953" />
    </filter>
    <filter
       inkscape:collect="always"
       id="filter3955"
       x="-0.14801925"
       width="1.2960385"
       y="-0.072408229"
       height="1.1448165">
      <feGaussianBlur
         inkscape:collect="always"
         stdDeviation="0.90843549"
         id="feGaussianBlur3957" />
    </filter>
    <filter
       inkscape:collect="always"
       id="filter3959">
      <feGaussianBlur
         inkscape:collect="always"
         stdDeviation="0.51697376"
         id="feGaussianBlur3961" />
    </filter>
    <filter
       inkscape:collect="always"
       id="filter3963"
       x="-0.13051733"
       width="1.2610347"
       y="-0.073665485"
       height="1.147331">
      <feGaussianBlur
         inkscape:collect="always"
         stdDeviation="0.9266149"
         id="feGaussianBlur3965" />
    </filter>
    <filter
       inkscape:collect="always"
       id="filter3967"
       x="-0.15118702"
       width="1.302374"
       y="-0.071075149"
       height="1.1421503">
      <feGaussianBlur
         inkscape:collect="always"
         stdDeviation="0.92661487"
         id="feGaussianBlur3969" />
    </filter>
    <linearGradient
       inkscape:collect="always"
       xlink:href="#linearGradient3986"
       id="linearGradient2462"
       gradientUnits="userSpaceOnUse"
       gradientTransform="matrix(0.2303444,0.1060097,-7.0032817e-2,0.20468,75.023014,30.138664)"
       x1="330.5"
       y1="318.29318"
       x2="328.18765"
       y2="293.99188" />
    <linearGradient
       inkscape:collect="always"
       xlink:href="#linearGradient3986"
       id="linearGradient2465"
       gradientUnits="userSpaceOnUse"
       gradientTransform="matrix(0.3405281,0.2096369,-0.1438134,0.2920652,61.214919,-63.219683)"
       x1="330.5"
       y1="318.29318"
       x2="328.18765"
       y2="293.99188" />
    <linearGradient
       inkscape:collect="always"
       xlink:href="#linearGradient3986"
       id="linearGradient2468"
       gradientUnits="userSpaceOnUse"
       x1="330.5"
       y1="318.29318"
       x2="328.18765"
       y2="293.99188"
       gradientTransform="matrix(0.5074354,0.2006228,-0.1152166,0.4085827,-0.7810203,-133.67631)" />
    <linearGradient
       inkscape:collect="always"
       xlink:href="#linearGradient3986"
       id="linearGradient3243"
       gradientUnits="userSpaceOnUse"
       gradientTransform="matrix(-0.222461,0.118842,7.6902187e-2,0.2042236,174.66783,39.942871)"
       x1="330.5"
       y1="318.29318"
       x2="328.18765"
       y2="293.99188" />
    <linearGradient
       inkscape:collect="always"
       xlink:href="#linearGradient3986"
       id="linearGradient3246"
       gradientUnits="userSpaceOnUse"
       gradientTransform="matrix(-0.3417936,0.2036954,0.1320049,0.3005213,194.39399,-45.514155)"
       x1="330.5"
       y1="318.29318"
       x2="328.18765"
       y2="293.99188" />
    <linearGradient
       inkscape:collect="always"
       xlink:href="#linearGradient3986"
       id="linearGradient3249"
       gradientUnits="userSpaceOnUse"
       gradientTransform="matrix(-0.4845388,0.2565757,0.1734913,0.3837271,226.3278,-124.65609)"
       x1="330.5"
       y1="318.29318"
       x2="328.18765"
       y2="293.99188" />
    <radialGradient
       inkscape:collect="always"
       xlink:href="#linearGradient3227"
       id="radialGradient3233"
       cx="879.41547"
       cy="635.08008"
       fx="879.41547"
       fy="635.08008"
       r="225.53016"
       gradientTransform="matrix(1,0,0,0.310377,0,478.08519)"
       gradientUnits="userSpaceOnUse" />
  </defs>
  <sodipodi:namedview
     id="base"
     pagecolor="#000000"
     bordercolor="#666666"
     borderopacity="1.0"
     inkscape:pageopacity="0"
     inkscape:pageshadow="2"
     inkscape:zoom="1.979899"
     inkscape:cx="133.33775"
     inkscape:cy="136.37701"
     inkscape:document-units="px"
     inkscape:current-layer="layer1"
     showgrid="false"
     inkscape:window-width="1151"
     inkscape:window-height="912"
     inkscape:window-x="92"
     inkscape:window-y="32"
     showguides="true"
     inkscape:guide-bbox="true" />
  <metadata
     id="metadata7">
    <rdf:RDF>
      <cc:Work
         rdf:about="">
        <dc:format>image/svg+xml</dc:format>
        <dc:type
           rdf:resource="http://purl.org/dc/dcmitype/StillImage" />
        <cc:license
           rdf:resource="http://creativecommons.org/licenses/publicdomain/" />
      </cc:Work>
      <cc:License
         rdf:about="http://creativecommons.org/licenses/publicdomain/">
        <cc:permits
           rdf:resource="http://creativecommons.org/ns#Reproduction" />
        <cc:permits
           rdf:resource="http://creativecommons.org/ns#Distribution" />
        <cc:permits
           rdf:resource="http://creativecommons.org/ns#DerivativeWorks" />
      </cc:License>
    </rdf:RDF>
  </metadata>
  <g
     inkscape:label="Ebene 1"
     inkscape:groupmode="layer"
     id="layer1">
    <g
       id="g3276"
       transform="matrix(0.3891277,0.2836572,-0.2162565,0.2966657,249.77274,-67.552952)">
      <path
         sodipodi:nodetypes="ccssccc"
         id="path3259"
         d="M -22.798837,702.79092 C -79.024813,650.82559 -106.86866,529.2101 -120.80546,470.81552 C -120.80546,470.81552 -124.80159,438.84411 -117.23208,415.62552 C -106.33614,382.20348 -68.459052,302.3444 -59.962063,308.24323 C -49.363343,315.60114 -76.167215,387.53369 -76.167215,387.53369 L -85.159603,431.53269 C -91.485553,497.10188 -9.2533271,705.12027 -22.798837,702.79092 z"
         style="fill:#fd5006;fill-opacity:1;fill-rule:evenodd;stroke:#000000;stroke-width:10;stroke-linecap:butt;stroke-linejoin:miter;stroke-miterlimit:4;stroke-dasharray:none;stroke-opacity:1" />
      <path
         transform="matrix(0.857953,0,0,0.981897,-311.18175,496.05009)"
         sodipodi:nodetypes="ccsccc"
         id="path3267"
         d="M 322.10568,184.4288 C 287.52591,141.19293 246.36132,26.124524 232.42452,-32.270056 C 232.42452,-32.270056 233.42367,-74.267806 240.99318,-88.914966 C 257.13229,-120.14449 270.78917,-138.10086 270.78917,-138.10086 L 253.91709,-65.733247 C 247.59114,-0.16405745 307.52929,151.62725 322.10568,184.4288 z"
         style="fill:#fd9a06;fill-opacity:1;fill-rule:evenodd;stroke:none;stroke-width:10;stroke-linecap:butt;stroke-linejoin:miter;stroke-miterlimit:4;stroke-dasharray:none;stroke-opacity:1;filter:url(#filter3341)" />
    </g>
    <g
       id="g3280"
       transform="matrix(-0.4797303,4.1720086e-2,3.1806834e-2,0.36574,86.278515,-114.0191)">
      <path
         sodipodi:nodetypes="ccssccc"
         id="path3282"
         d="M -22.798837,702.79092 C -79.024813,650.82559 -106.86866,529.2101 -120.80546,470.81552 C -120.80546,470.81552 -124.80159,438.84411 -117.23208,415.62552 C -106.33614,382.20348 -61.780427,323.6781 -57.554035,328.68311 C -48.653271,339.22363 -76.167215,387.53369 -76.167215,387.53369 L -85.159603,431.53269 C -91.485553,497.10188 -9.2533271,705.12027 -22.798837,702.79092 z"
         style="fill:#fd5006;fill-opacity:1;fill-rule:evenodd;stroke:#000000;stroke-width:10;stroke-linecap:butt;stroke-linejoin:miter;stroke-miterlimit:4;stroke-dasharray:none;stroke-opacity:1" />
      <path
         transform="matrix(0.857953,0,0,0.981897,-311.18175,496.05009)"
         sodipodi:nodetypes="ccsccc"
         id="path3284"
         d="M 322.10568,184.4288 C 287.52591,141.19293 246.36132,26.124524 232.42452,-32.270056 C 232.42452,-32.270056 233.42367,-74.267806 240.99318,-88.914966 C 257.13229,-120.14449 270.78917,-138.10086 270.78917,-138.10086 L 253.91709,-65.733247 C 247.59114,-0.16405745 307.52929,151.62725 322.10568,184.4288 z"
         style="fill:#fd9a06;fill-opacity:1;fill-rule:evenodd;stroke:none;stroke-width:10;stroke-linecap:butt;stroke-linejoin:miter;stroke-miterlimit:4;stroke-dasharray:none;stroke-opacity:1;filter:url(#filter3341)" />
    </g>
    <g
       id="g2479"
       transform="matrix(0.3951874,0.228683,-0.272665,0.289558,282.89832,-63.218124)">
      <path
         sodipodi:nodetypes="ccssccc"
         id="path2481"
         d="M -57.309204,634.67597 C -113.53518,582.71064 -106.86866,529.2101 -120.80546,470.81552 C -120.80546,470.81552 -124.80159,438.84411 -117.23208,415.62552 C -106.33614,382.20348 -68.459052,302.3444 -59.962063,308.24323 C -49.363343,315.60114 -76.167215,387.53369 -76.167215,387.53369 L -85.159603,431.53269 C -91.485553,497.10188 -43.763694,637.00532 -57.309204,634.67597 z"
         style="fill:#fd5006;fill-opacity:1;fill-rule:evenodd;stroke:#000000;stroke-width:10;stroke-linecap:butt;stroke-linejoin:miter;stroke-miterlimit:4;stroke-dasharray:none;stroke-opacity:1" />
      <path
         transform="matrix(0.857953,0,0,0.981897,-311.18175,496.05009)"
         sodipodi:nodetypes="ccsccc"
         id="path2483"
         d="M 287.8121,112.03595 C 253.23233,68.800083 246.36132,26.124524 232.42452,-32.270056 C 232.42452,-32.270056 233.42367,-74.267806 240.99318,-88.914966 C 257.13229,-120.14449 270.78917,-138.10086 270.78917,-138.10086 L 253.91709,-65.733247 C 247.59114,-0.16405745 273.23571,79.234403 287.8121,112.03595 z"
         style="fill:#fd9a06;fill-opacity:1;fill-rule:evenodd;stroke:none;stroke-width:10;stroke-linecap:butt;stroke-linejoin:miter;stroke-miterlimit:4;stroke-dasharray:none;stroke-opacity:1;filter:url(#filter3341)" />
    </g>
    <path
       style="fill:#fd5006;fill-opacity:1;fill-rule:evenodd;stroke:#000000;stroke-width:4.20456219;stroke-linecap:butt;stroke-linejoin:miter;stroke-miterlimit:4;stroke-dasharray:none;stroke-opacity:1"
       d="M 128.47661,201.29142 C 112.30079,200.9597 72.705297,208.15774 59.403582,192.7619 C 39.123418,169.28893 61.196457,100.6232 92.755638,60.439835 C 96.034935,56.264416 106.24049,46.276485 110.84677,41.092076 C 121.4826,25.837339 121.98874,38.168426 122.91752,44.759307 C 123.47567,48.720128 124.97462,61.000379 125.68288,69.812148 C 125.2908,96.704851 126.57159,132.40623 126.5309,153.45204 C 129.59446,149.65396 126.59366,91.282088 126.16443,55.971588 C 127.33489,31.160493 105.2589,23.441609 103.97515,5.3633577 C 103.69922,1.4775584 134.51721,22.193108 145.7335,32.505778 C 151.1648,37.499552 156.57573,43.427113 160.32639,51.04818 C 181.76223,94.604384 219.53431,177.70477 201.44108,196.09952 C 187.45951,210.31415 148.60457,201.70415 128.47661,201.29142 z"
       id="path2485"
       sodipodi:nodetypes="csscscccsssss" />
    <path
       style="fill:#fd9d06;fill-opacity:1;fill-rule:evenodd;stroke:none;stroke-width:10;stroke-linecap:butt;stroke-linejoin:miter;stroke-miterlimit:4;stroke-dasharray:none;stroke-opacity:1;filter:url(#filter3451)"
       d="M 234.36333,343.01909 C 200.77154,342.11555 123.20104,423.40644 109.42868,371.17668 C 90.315815,298.69377 88.530218,263.80155 107.89525,139.27284 C 107.89525,139.27284 148.3551,2.231415 159.21789,-10.171675 C 182.37867,-36.616585 214.22747,-90.039381 214.22747,-90.039381 L 209.61547,2.9307071 C 209.61547,2.9307071 209.06851,57.339695 209.26252,68.07468 C 210.78284,152.19531 196.0559,228.35147 228.7162,249.52703 C 259.32593,227.82285 250.33437,172.87898 249.74512,93.799456 C 249.35457,41.386729 249.35597,-68.381209 244.18281,-93.496674 C 229.12094,-125.08388 231.21751,-120.20577 203.82774,-170.65579 C 241.03714,-139.09143 295.28362,-63.842439 305.43198,-20.086058 C 316.71102,-6.4835484 356.54815,174.31511 356.54815,174.31511 C 366.6832,211.24517 392.77118,281.8985 371.98079,339.43943 C 353.96455,389.30242 276.16238,344.14338 234.36333,343.01909 z"
       id="path3345"
       sodipodi:nodetypes="cscsccsccccccss"
       transform="matrix(0.4611108,0,0,0.3546517,19.818165,76.087874)" />
    <path
       style="fill:url(#linearGradient3243);fill-opacity:1;fill-rule:evenodd;stroke:#000000;stroke-width:2.10228109;stroke-linecap:butt;stroke-linejoin:miter;stroke-miterlimit:4;stroke-dasharray:none;stroke-opacity:1"
       d="M 128.22804,135.17764 C 114.12783,141.72897 114.58271,142.14347 115.08856,143.6421 C 115.61701,145.20769 124.06721,143.28774 128.25008,143.75156"
       id="path4013"
       sodipodi:nodetypes="csc" />
    <path
       sodipodi:nodetypes="csc"
       id="path3984"
       d="M 122.43095,45.417259 C 154.35281,56.221521 154.01929,60.986754 153.82373,62.041412 C 153.21256,65.337427 133.36651,60.640054 124.48759,62.125129"
       style="fill:url(#linearGradient2468);fill-opacity:1;fill-rule:evenodd;stroke:#000000;stroke-width:2.10228109;stroke-linecap:butt;stroke-linejoin:miter;stroke-miterlimit:4;stroke-dasharray:none;stroke-opacity:1" />
    <path
       style="fill:url(#linearGradient2465);fill-opacity:1;fill-rule:evenodd;stroke:#000000;stroke-width:2.10228109;stroke-linecap:butt;stroke-linejoin:miter;stroke-miterlimit:4;stroke-dasharray:none;stroke-opacity:1"
       d="M 124.80959,85.198762 C 146.49758,97.028018 145.86318,99.558693 145.68951,100.61528 C 145.26663,103.18812 131.91259,96.27125 125.22271,96.339408"
       id="path3994"
       sodipodi:nodetypes="csc" />
    <path
       style="fill:url(#linearGradient3249);fill-opacity:1;fill-rule:evenodd;stroke:#000000;stroke-width:2.10228109;stroke-linecap:butt;stroke-linejoin:miter;stroke-miterlimit:4;stroke-dasharray:none;stroke-opacity:1"
       d="M 126.89835,64.535144 C 96.162982,78.907927 94.810391,83.121746 95.378379,83.89536 C 96.437247,85.337576 117.97957,80.672122 127.15607,81.044488"
       id="path4009"
       sodipodi:nodetypes="csc" />
    <path
       sodipodi:nodetypes="csc"
       id="path3998"
       d="M 125.8631,121.5521 C 140.42459,127.306 139.38423,127.96448 139.44288,129.72414 C 139.50066,131.45644 130.40163,129.32667 126.17607,129.98802"
       style="fill:url(#linearGradient2462);fill-opacity:1;fill-rule:evenodd;stroke:#000000;stroke-width:2.10228109;stroke-linecap:butt;stroke-linejoin:miter;stroke-miterlimit:4;stroke-dasharray:none;stroke-opacity:1" />
    <path
       sodipodi:nodetypes="csc"
       id="path4011"
       d="M 127.01942,103.50199 C 105.30018,114.92902 106.36182,114.93251 107.30815,117.07438 C 108.32416,119.37401 120.95911,116.21429 127.53808,116.46459"
       style="fill:url(#linearGradient3246);fill-opacity:1;fill-rule:evenodd;stroke:#000000;stroke-width:2.10228109;stroke-linecap:butt;stroke-linejoin:miter;stroke-miterlimit:4;stroke-dasharray:none;stroke-opacity:1"
       inkscape:transform-center-y="4.0406102" />
    <path
       sodipodi:type="arc"
       style="opacity:0.8;fill:#fff885;fill-opacity:1;fill-rule:evenodd;stroke:none;stroke-width:1;stroke-miterlimit:4;stroke-dasharray:none;stroke-opacity:1;filter:url(#filter3959)"
       id="path2503"
       sodipodi:cx="466.69049"
       sodipodi:cy="418.82535"
       sodipodi:rx="7.0710678"
       sodipodi:ry="15.152288"
       d="M 473.76156,418.82535 A 7.0710678,15.152288 0 1 1 459.61942,418.82535 A 7.0710678,15.152288 0 1 1 473.76156,418.82535 z"
       transform="matrix(1.3192753,-5.0973167e-2,3.1758279e-2,0.9555522,-461.85725,-227.44847)" />
    <path
       style="fill:url(#linearGradient3180);fill-opacity:1;fill-rule:evenodd;stroke:#000000;stroke-width:4.12588549;stroke-linecap:butt;stroke-linejoin:miter;stroke-miterlimit:4;stroke-dasharray:none;stroke-opacity:1"
       d="M 38.899804,199.61568 C 95.570485,170.02009 149.84261,175.02117 212.50132,199.15556 C 216.22319,200.58913 219.13304,202.26946 221.33811,204.13387 C 242.64951,222.15325 198.13212,257.37445 184.61868,253.30707 C 140.85415,240.13447 104.39166,241.86656 66.413592,252.0594 C 51.427075,256.08153 8.8451481,215.31142 38.899804,199.61568 z"
       id="path3296"
       sodipodi:nodetypes="csssss" />
    <path
       sodipodi:type="arc"
       style="opacity:0.8;fill:#fff885;fill-opacity:1;fill-rule:evenodd;stroke:none;stroke-width:1;stroke-miterlimit:4;stroke-dasharray:none;stroke-opacity:1;filter:url(#filter3967)"
       id="path3277"
       sodipodi:cx="466.69049"
       sodipodi:cy="418.82535"
       sodipodi:rx="7.0710678"
       sodipodi:ry="15.152288"
       d="M 473.76156,418.82535 A 7.0710678,15.152288 0 1 1 459.61942,418.82535 A 7.0710678,15.152288 0 1 1 473.76156,418.82535 z"
       transform="matrix(0.6312616,-0.2815215,0.2072857,0.5299669,-213.99031,3.7899206)" />
    <path
       style="fill:url(#radialGradient3233);fill-opacity:1;fill-rule:evenodd;stroke:none;stroke-width:10;stroke-linecap:butt;stroke-linejoin:miter;stroke-miterlimit:4;stroke-dasharray:none;stroke-opacity:1;filter:url(#filter3182)"
       d="M 671.90801,657.87366 C 825.10591,608.46659 922.0695,615.81361 1085.399,655.54938 C 1139.3909,712.5506 1069.1744,738.6941 1023.82,763.25524 C 916.52077,711.62328 823.60436,711.68511 730.52476,755.50296 C 691.28125,745.10942 620.55902,712.55256 671.90801,657.87366 z"
       id="path3298"
       sodipodi:nodetypes="ccccc"
       transform="matrix(0.4077211,0,0,0.3632671,-231.48856,-32.189987)" />
    <path
       transform="matrix(0.6876155,-0.1958311,7.0972767e-2,0.5511865,-208.92669,-24.275107)"
       d="M 473.76156,418.82535 A 7.0710678,15.152288 0 1 1 459.61942,418.82535 A 7.0710678,15.152288 0 1 1 473.76156,418.82535 z"
       sodipodi:ry="15.152288"
       sodipodi:rx="7.0710678"
       sodipodi:cy="418.82535"
       sodipodi:cx="466.69049"
       id="path3279"
       style="opacity:0.8;fill:#fff885;fill-opacity:1;fill-rule:evenodd;stroke:none;stroke-width:1;stroke-miterlimit:4;stroke-dasharray:none;stroke-opacity:1;filter:url(#filter3963)"
       sodipodi:type="arc" />
    <path
       sodipodi:type="arc"
       style="opacity:0.8;fill:#fff885;fill-opacity:1;fill-rule:evenodd;stroke:none;stroke-width:1;stroke-miterlimit:4;stroke-dasharray:none;stroke-opacity:1;filter:url(#filter3951)"
       id="path3283"
       sodipodi:cx="466.69049"
       sodipodi:cy="418.82535"
       sodipodi:rx="7.0710678"
       sodipodi:ry="15.152288"
       d="M 473.76156,418.82535 A 7.0710678,15.152288 0 1 1 459.61942,418.82535 A 7.0710678,15.152288 0 1 1 473.76156,418.82535 z"
       transform="matrix(-0.7975545,3.0458586e-2,-6.7333958e-3,0.6145458,443.75882,-120.24699)" />
    <path
       sodipodi:type="arc"
       style="opacity:0.8;fill:#fff885;fill-opacity:1;fill-rule:evenodd;stroke:none;stroke-width:1;stroke-miterlimit:4;stroke-dasharray:none;stroke-opacity:1;filter:url(#filter3943)"
       id="path3285"
       sodipodi:cx="466.69049"
       sodipodi:cy="418.82535"
       sodipodi:rx="7.0710678"
       sodipodi:ry="15.152288"
       d="M 473.76156,418.82535 A 7.0710678,15.152288 0 1 1 459.61942,418.82535 A 7.0710678,15.152288 0 1 1 473.76156,418.82535 z"
       transform="matrix(0.446692,-8.1877721e-2,6.3212127e-3,0.357636,-117.33207,-12.924959)" />
    <path
       transform="matrix(0.4402712,-9.7694318e-2,2.9570493e-2,0.3574658,-126.66925,24.941579)"
       d="M 473.76156,418.82535 A 7.0710678,15.152288 0 1 1 459.61942,418.82535 A 7.0710678,15.152288 0 1 1 473.76156,418.82535 z"
       sodipodi:ry="15.152288"
       sodipodi:rx="7.0710678"
       sodipodi:cy="418.82535"
       sodipodi:cx="466.69049"
       id="path3287"
       style="opacity:0.8;fill:#fff885;fill-opacity:1;fill-rule:evenodd;stroke:none;stroke-width:1;stroke-miterlimit:4;stroke-dasharray:none;stroke-opacity:1;filter:url(#filter3947)"
       sodipodi:type="arc" />
    <path
       transform="matrix(-0.7788185,0.1190111,9.5167692e-2,0.5103373,434.40282,-102.6489)"
       d="M 473.76156,418.82535 A 7.0710678,15.152288 0 1 1 459.61942,418.82535 A 7.0710678,15.152288 0 1 1 473.76156,418.82535 z"
       sodipodi:ry="15.152288"
       sodipodi:rx="7.0710678"
       sodipodi:cy="418.82535"
       sodipodi:cx="466.69049"
       id="path3289"
       style="opacity:0.8;fill:#fff885;fill-opacity:1;fill-rule:evenodd;stroke:none;stroke-width:1;stroke-miterlimit:4;stroke-dasharray:none;stroke-opacity:1;filter:url(#filter3955)"
       sodipodi:type="arc" />
  </g>
</svg>
