<?xml version="1.0" encoding="UTF-8" standalone="no"?>
<!-- Created with Inkscape (http://www.inkscape.org/) -->
<svg
   xmlns:dc="http://purl.org/dc/elements/1.1/"
   xmlns:cc="http://creativecommons.org/ns#"
   xmlns:rdf="http://www.w3.org/1999/02/22-rdf-syntax-ns#"
   xmlns:svg="http://www.w3.org/2000/svg"
   xmlns="http://www.w3.org/2000/svg"
   xmlns:xlink="http://www.w3.org/1999/xlink"
   xmlns:sodipodi="http://sodipodi.sourceforge.net/DTD/sodipodi-0.dtd"
   xmlns:inkscape="http://www.inkscape.org/namespaces/inkscape"
   width="256"
   height="256"
   id="svg2"
   sodipodi:version="0.32"
   inkscape:version="0.46"
   sodipodi:docname="open_1.svg"
   inkscape:output_extension="org.inkscape.output.svg.inkscape"
   inkscape:export-filename="D:\Dateien\Desktop\Secret Maryo Chronicles\SMC\data\pixmaps\enemy\jpiranha\orange\open_1.png"
   inkscape:export-xdpi="90"
   inkscape:export-ydpi="90"
   version="1.0">
  <defs
     id="defs4">
    <linearGradient
       id="linearGradient3229">
      <stop
         style="stop-color:#00f502;stop-opacity:0.49411765;"
         offset="0"
         id="stop3231" />
      <stop
         style="stop-color:#00f502;stop-opacity:1;"
         offset="1"
         id="stop3233" />
    </linearGradient>
    <inkscape:perspective
       sodipodi:type="inkscape:persp3d"
       inkscape:vp_x="0 : 512 : 1"
       inkscape:vp_y="0 : 1000 : 0"
       inkscape:vp_z="512 : 512 : 1"
       inkscape:persp3d-origin="256 : 341.33333 : 1"
       id="perspective111" />
    <linearGradient
       inkscape:collect="always"
       id="linearGradient3204">
      <stop
         style="stop-color:#ce9e24;stop-opacity:1"
         offset="0"
         id="stop3206" />
      <stop
         style="stop-color:#dbac35;stop-opacity:1"
         offset="1"
         id="stop3208" />
    </linearGradient>
    <linearGradient
       inkscape:collect="always"
       id="linearGradient3196">
      <stop
         style="stop-color:#ad7626;stop-opacity:1"
         offset="0"
         id="stop3198" />
      <stop
         style="stop-color:#d7c845;stop-opacity:1"
         offset="1"
         id="stop3200" />
    </linearGradient>
    <linearGradient
       id="linearGradient3174">
      <stop
         style="stop-color:#009c02;stop-opacity:1;"
         offset="0"
         id="stop3176" />
      <stop
         style="stop-color:#c3ff17;stop-opacity:1;"
         offset="1"
         id="stop3178" />
    </linearGradient>
    <filter
       inkscape:collect="always"
       id="filter3341"
       x="-0.14616126"
       width="1.2923225"
       y="-0.037254725"
       height="1.0745095">
      <feGaussianBlur
         inkscape:collect="always"
         stdDeviation="6.1247871"
         id="feGaussianBlur3343" />
    </filter>
    <filter
       inkscape:collect="always"
       id="filter3451">
      <feGaussianBlur
         inkscape:collect="always"
         stdDeviation="9.2316893"
         id="feGaussianBlur3453" />
    </filter>
    <linearGradient
       inkscape:collect="always"
       xlink:href="#linearGradient3174"
       id="linearGradient3180"
       x1="350.99493"
       y1="875.91211"
       x2="326.70215"
       y2="675.90186"
       gradientUnits="userSpaceOnUse"
       gradientTransform="matrix(0.4002669,0,0,0.4252894,-18.019386,-139.97306)" />
    <filter
       inkscape:collect="always"
       id="filter3182"
       x="-0.066060141"
       width="1.1321203"
       y="-0.21283838"
       height="1.4256768">
      <feGaussianBlur
         inkscape:collect="always"
         stdDeviation="12.415461"
         id="feGaussianBlur3184" />
    </filter>
    <linearGradient
       inkscape:collect="always"
       xlink:href="#linearGradient3196"
       id="linearGradient3226"
       x1="89.901291"
       y1="235.30779"
       x2="2.1320601"
       y2="46.749317"
       gradientUnits="userSpaceOnUse" />
    <linearGradient
       inkscape:collect="always"
       xlink:href="#linearGradient3196"
       id="linearGradient3234"
       x1="35.99535"
       y1="243.84596"
       x2="83.014343"
       y2="55.133888"
       gradientUnits="userSpaceOnUse" />
    <linearGradient
       inkscape:collect="always"
       xlink:href="#linearGradient3196"
       id="linearGradient3242"
       x1="14.103485"
       y1="254.81822"
       x2="107.50125"
       y2="55.818176"
       gradientUnits="userSpaceOnUse" />
    <linearGradient
       inkscape:collect="always"
       xlink:href="#linearGradient3204"
       id="linearGradient3250"
       x1="232.42451"
       y1="23.163971"
       x2="322.10568"
       y2="23.163971"
       gradientUnits="userSpaceOnUse" />
    <linearGradient
       inkscape:collect="always"
       xlink:href="#linearGradient3204"
       id="linearGradient3260"
       x1="232.42451"
       y1="23.163971"
       x2="322.10568"
       y2="23.163971"
       gradientUnits="userSpaceOnUse" />
    <linearGradient
       inkscape:collect="always"
       xlink:href="#linearGradient3204"
       id="linearGradient3268"
       x1="232.42451"
       y1="23.163971"
       x2="322.10568"
       y2="23.163971"
       gradientUnits="userSpaceOnUse" />
    <linearGradient
       id="linearGradient3383">
      <stop
         id="stop3385"
         offset="0"
         style="stop-color:#c29613;stop-opacity:1;" />
      <stop
         id="stop3387"
         offset="1"
         style="stop-color:#6b4628;stop-opacity:1;" />
    </linearGradient>
    <linearGradient
       id="linearGradient3781">
      <stop
         id="stop3783"
         offset="0"
         style="stop-color:#625c1f;stop-opacity:1;" />
      <stop
         id="stop3785"
         offset="1"
         style="stop-color:#d6f222;stop-opacity:1;" />
    </linearGradient>
    <linearGradient
       id="linearGradient3986">
      <stop
         id="stop3988"
         offset="0"
         style="stop-color:#6f6f6f;stop-opacity:1;" />
      <stop
         id="stop3990"
         offset="1"
         style="stop-color:#fbf0f0;stop-opacity:1;" />
    </linearGradient>
    <filter
       inkscape:collect="always"
       id="filter3943"
       x="-0.21197091"
       width="1.4239419"
       y="-0.11417203"
       height="1.2283441">
      <feGaussianBlur
         inkscape:collect="always"
         stdDeviation="1.4508244"
         id="feGaussianBlur3945" />
    </filter>
    <filter
       inkscape:collect="always"
       id="filter3947"
       x="-0.24700864"
       width="1.4940172"
       y="-0.1103778"
       height="1.2207556">
      <feGaussianBlur
         inkscape:collect="always"
         stdDeviation="1.4508243"
         id="feGaussianBlur3949" />
    </filter>
    <filter
       inkscape:collect="always"
       id="filter3951"
       x="-0.13375291"
       width="1.2675058"
       y="-0.066128559"
       height="1.1322571">
      <feGaussianBlur
         inkscape:collect="always"
         stdDeviation="0.8298043"
         id="feGaussianBlur3953" />
    </filter>
    <filter
       inkscape:collect="always"
       id="filter3955"
       x="-0.14801925"
       width="1.2960385"
       y="-0.072408229"
       height="1.1448165">
      <feGaussianBlur
         inkscape:collect="always"
         stdDeviation="0.90843549"
         id="feGaussianBlur3957" />
    </filter>
    <filter
       inkscape:collect="always"
       id="filter3959">
      <feGaussianBlur
         inkscape:collect="always"
         stdDeviation="0.51697376"
         id="feGaussianBlur3961" />
    </filter>
    <filter
       inkscape:collect="always"
       id="filter3963"
       x="-0.13051733"
       width="1.2610347"
       y="-0.073665485"
       height="1.147331">
      <feGaussianBlur
         inkscape:collect="always"
         stdDeviation="0.9266149"
         id="feGaussianBlur3965" />
    </filter>
    <filter
       inkscape:collect="always"
       id="filter3967"
       x="-0.15118702"
       width="1.302374"
       y="-0.071075149"
       height="1.1421503">
      <feGaussianBlur
         inkscape:collect="always"
         stdDeviation="0.92661487"
         id="feGaussianBlur3969" />
    </filter>
    <linearGradient
       inkscape:collect="always"
       xlink:href="#linearGradient3986"
       id="linearGradient2462"
       gradientUnits="userSpaceOnUse"
       gradientTransform="matrix(0.2508779,-3.6835952e-2,5.2983603e-2,0.2097409,8.8412393,72.429924)"
       x1="330.5"
       y1="318.29318"
       x2="328.18765"
       y2="293.99188" />
    <linearGradient
       inkscape:collect="always"
       xlink:href="#linearGradient3986"
       id="linearGradient2465"
       gradientUnits="userSpaceOnUse"
       gradientTransform="matrix(0.3962688,-5.3647392e-2,7.3850981e-2,0.3170653,-60.993963,17.239725)"
       x1="330.5"
       y1="318.29318"
       x2="328.18765"
       y2="293.99188" />
    <linearGradient
       inkscape:collect="always"
       xlink:href="#linearGradient3986"
       id="linearGradient2468"
       gradientUnits="userSpaceOnUse"
       x1="330.5"
       y1="318.29318"
       x2="328.18765"
       y2="293.99188"
       gradientTransform="matrix(0.5398675,-7.9267704e-2,0.103973,0.4115876,-136.78082,-31.560951)" />
    <linearGradient
       inkscape:collect="always"
       xlink:href="#linearGradient3986"
       id="linearGradient3243"
       gradientUnits="userSpaceOnUse"
       gradientTransform="matrix(-0.2476001,-4.8026373e-2,-6.9079535e-2,0.2070006,241.00359,91.393884)"
       x1="330.5"
       y1="318.29318"
       x2="328.18765"
       y2="293.99188" />
    <linearGradient
       inkscape:collect="always"
       xlink:href="#linearGradient3986"
       id="linearGradient3246"
       gradientUnits="userSpaceOnUse"
       gradientTransform="matrix(-0.3914415,-7.1331584e-2,-9.8195095e-2,0.3132029,314.93716,41.161769)"
       x1="330.5"
       y1="318.29318"
       x2="328.18765"
       y2="293.99188" />
    <linearGradient
       inkscape:collect="always"
       xlink:href="#linearGradient3986"
       id="linearGradient3249"
       gradientUnits="userSpaceOnUse"
       gradientTransform="matrix(-0.5461754,-4.7972e-2,-6.2923421e-2,0.4163969,373.51652,-25.86849)"
       x1="330.5"
       y1="318.29318"
       x2="328.18765"
       y2="293.99188" />
    <radialGradient
       inkscape:collect="always"
       xlink:href="#linearGradient3229"
       id="radialGradient3235"
       cx="879.41547"
       cy="634.71802"
       fx="879.41547"
       fy="634.71802"
       r="225.53016"
       gradientTransform="matrix(1,0,0,0.310377,0,478.08519)"
       gradientUnits="userSpaceOnUse" />
  </defs>
  <sodipodi:namedview
     id="base"
     pagecolor="#000000"
     bordercolor="#666666"
     borderopacity="1.0"
     inkscape:pageopacity="0"
     inkscape:pageshadow="2"
     inkscape:zoom="1.979899"
     inkscape:cx="145.76269"
     inkscape:cy="122.61137"
     inkscape:document-units="px"
     inkscape:current-layer="layer1"
     showgrid="false"
     inkscape:window-width="1151"
     inkscape:window-height="912"
     inkscape:window-x="92"
     inkscape:window-y="32"
     showguides="true"
     inkscape:guide-bbox="true" />
  <metadata
     id="metadata7">
    <rdf:RDF>
      <cc:Work
         rdf:about="">
        <dc:format>image/svg+xml</dc:format>
        <dc:type
           rdf:resource="http://purl.org/dc/dcmitype/StillImage" />
        <cc:license
           rdf:resource="http://creativecommons.org/licenses/publicdomain/" />
      </cc:Work>
      <cc:License
         rdf:about="http://creativecommons.org/licenses/publicdomain/">
        <cc:permits
           rdf:resource="http://creativecommons.org/ns#Reproduction" />
        <cc:permits
           rdf:resource="http://creativecommons.org/ns#Distribution" />
        <cc:permits
           rdf:resource="http://creativecommons.org/ns#DerivativeWorks" />
      </cc:License>
    </rdf:RDF>
  </metadata>
  <g
     inkscape:label="Ebene 1"
     inkscape:groupmode="layer"
     id="layer1">
    <g
       id="g3286"
       transform="matrix(0.4194914,0.1802662,-0.2364497,0.3198149,223.38505,-60.044393)">
      <path
         sodipodi:nodetypes="ccssccc"
         id="path3288"
         d="M -57.309204,634.67597 C -113.53518,582.71064 -106.86866,529.2101 -120.80546,470.81552 C -120.80546,470.81552 -124.80159,438.84411 -117.23208,415.62552 C -106.33614,382.20348 -68.459052,302.3444 -59.962063,308.24323 C -49.363343,315.60114 -76.167215,387.53369 -76.167215,387.53369 L -85.159603,431.53269 C -91.485553,497.10188 -43.763694,637.00532 -57.309204,634.67597 z"
         style="fill:#fd5006;fill-opacity:1;fill-rule:evenodd;stroke:#000000;stroke-width:10;stroke-linecap:butt;stroke-linejoin:miter;stroke-miterlimit:4;stroke-dasharray:none;stroke-opacity:1" />
      <path
         transform="matrix(0.857953,0,0,0.981897,-311.18175,496.05009)"
         sodipodi:nodetypes="ccsccc"
         id="path3290"
         d="M 287.8121,112.03595 C 253.23233,68.800083 246.36132,26.124524 232.42452,-32.270056 C 232.42452,-32.270056 233.42367,-74.267806 240.99318,-88.914966 C 257.13229,-120.14449 270.78917,-138.10086 270.78917,-138.10086 L 253.91709,-65.733247 C 247.59114,-0.16405745 273.23571,79.234403 287.8121,112.03595 z"
         style="fill:#fd9a06;fill-opacity:1;fill-rule:evenodd;stroke:none;stroke-width:10;stroke-linecap:butt;stroke-linejoin:miter;stroke-miterlimit:4;stroke-dasharray:none;stroke-opacity:1;filter:url(#filter3341)" />
    </g>
    <g
       id="g3276"
       transform="matrix(0.481541,0,0,0.3671204,98.195024,-107.32683)">
      <path
         sodipodi:nodetypes="ccssccc"
         id="path3259"
         d="M -22.798837,702.79092 C -79.024813,650.82559 -106.86866,529.2101 -120.80546,470.81552 C -120.80546,470.81552 -124.80159,438.84411 -117.23208,415.62552 C -106.33614,382.20348 -68.459052,302.3444 -59.962063,308.24323 C -49.363343,315.60114 -76.167215,387.53369 -76.167215,387.53369 L -85.159603,431.53269 C -91.485553,497.10188 -9.2533271,705.12027 -22.798837,702.79092 z"
         style="fill:#fd5006;fill-opacity:1;fill-rule:evenodd;stroke:#000000;stroke-width:10;stroke-linecap:butt;stroke-linejoin:miter;stroke-miterlimit:4;stroke-dasharray:none;stroke-opacity:1" />
      <path
         transform="matrix(0.857953,0,0,0.981897,-311.18175,496.05009)"
         sodipodi:nodetypes="ccsccc"
         id="path3267"
         d="M 322.10568,184.4288 C 287.52591,141.19293 246.36132,26.124524 232.42452,-32.270056 C 232.42452,-32.270056 233.42367,-74.267806 240.99318,-88.914966 C 257.13229,-120.14449 270.78917,-138.10086 270.78917,-138.10086 L 253.91709,-65.733247 C 247.59114,-0.16405745 307.52929,151.62725 322.10568,184.4288 z"
         style="fill:#fd9a06;fill-opacity:1;fill-rule:evenodd;stroke:none;stroke-width:10;stroke-linecap:butt;stroke-linejoin:miter;stroke-miterlimit:4;stroke-dasharray:none;stroke-opacity:1;filter:url(#filter3341)" />
    </g>
    <path
       sodipodi:nodetypes="csc"
       id="path3984"
       d="M 59.348283,62.189109 C 92.40416,55.628148 94.49232,59.924451 94.848965,60.936069 C 95.963552,64.097542 76.420054,69.926976 69.465753,75.643455"
       style="fill:url(#linearGradient2468);fill-opacity:1;fill-rule:evenodd;stroke:#000000;stroke-width:2.10228109;stroke-linecap:butt;stroke-linejoin:miter;stroke-miterlimit:4;stroke-dasharray:none;stroke-opacity:1" />
    <path
       style="fill:url(#linearGradient2465);fill-opacity:1;fill-rule:evenodd;stroke:#000000;stroke-width:2.10228109;stroke-linecap:butt;stroke-linejoin:miter;stroke-miterlimit:4;stroke-dasharray:none;stroke-opacity:1"
       d="M 82.25908,91.744002 C 106.53235,87.149614 107.64543,89.50925 108.18071,90.436626 C 109.48413,92.694806 94.770712,95.807466 89.639025,100.0999"
       id="path3994"
       sodipodi:nodetypes="csc" />
    <path
       sodipodi:nodetypes="csc"
       id="path3998"
       d="M 101.32293,121.29985 C 116.66543,118.17707 116.15284,119.29653 117.16206,120.7392 C 118.15564,122.15942 109.36824,125.33904 106.18788,128.19876"
       style="fill:url(#linearGradient2462);fill-opacity:1;fill-rule:evenodd;stroke:#000000;stroke-width:2.10228109;stroke-linecap:butt;stroke-linejoin:miter;stroke-miterlimit:4;stroke-dasharray:none;stroke-opacity:1" />
    <g
       id="g3296"
       transform="matrix(-0.4194914,0.1802662,0.2364497,0.3198149,39.325703,-59.538115)">
      <path
         sodipodi:nodetypes="ccssccc"
         id="path3299"
         d="M -57.309204,634.67597 C -113.53518,582.71064 -106.86866,529.2101 -120.80546,470.81552 C -120.80546,470.81552 -124.80159,438.84411 -117.23208,415.62552 C -106.33614,382.20348 -68.459052,302.3444 -59.962063,308.24323 C -49.363343,315.60114 -76.167215,387.53369 -76.167215,387.53369 L -85.159603,431.53269 C -91.485553,497.10188 -43.763694,637.00532 -57.309204,634.67597 z"
         style="fill:#fd5006;fill-opacity:1;fill-rule:evenodd;stroke:#000000;stroke-width:10;stroke-linecap:butt;stroke-linejoin:miter;stroke-miterlimit:4;stroke-dasharray:none;stroke-opacity:1" />
      <path
         transform="matrix(0.857953,0,0,0.981897,-311.18175,496.05009)"
         sodipodi:nodetypes="ccsccc"
         id="path3301"
         d="M 287.8121,112.03595 C 253.23233,68.800083 246.36132,26.124524 232.42452,-32.270056 C 232.42452,-32.270056 233.42367,-74.267806 240.99318,-88.914966 C 257.13229,-120.14449 270.78917,-138.10086 270.78917,-138.10086 L 253.91709,-65.733247 C 247.59114,-0.16405745 273.23571,79.234403 287.8121,112.03595 z"
         style="fill:#fd9a06;fill-opacity:1;fill-rule:evenodd;stroke:none;stroke-width:10;stroke-linecap:butt;stroke-linejoin:miter;stroke-miterlimit:4;stroke-dasharray:none;stroke-opacity:1;filter:url(#filter3341)" />
    </g>
    <path
       style="fill:url(#linearGradient3249);fill-opacity:1;fill-rule:evenodd;stroke:#000000;stroke-width:2.10228109;stroke-linecap:butt;stroke-linejoin:miter;stroke-miterlimit:4;stroke-dasharray:none;stroke-opacity:1"
       d="M 187.22963,78.901408 C 153.61845,74.261553 150.19288,77.063566 150.2492,78.021652 C 150.35419,79.807745 170.97272,87.599663 178.47321,92.89963"
       id="path4009"
       sodipodi:nodetypes="csc" />
    <path
       sodipodi:nodetypes="csc"
       id="path4011"
       d="M 166.1819,109.11043 C 142.3053,103.43505 143.10276,104.13586 142.40705,106.37174 C 141.66009,108.77229 153.25629,114.70136 158.04778,119.21657"
       style="fill:url(#linearGradient3246);fill-opacity:1;fill-rule:evenodd;stroke:#000000;stroke-width:2.10228109;stroke-linecap:butt;stroke-linejoin:miter;stroke-miterlimit:4;stroke-dasharray:none;stroke-opacity:1" />
    <path
       style="fill:url(#linearGradient3243);fill-opacity:1;fill-rule:evenodd;stroke:#000000;stroke-width:2.10228109;stroke-linecap:butt;stroke-linejoin:miter;stroke-miterlimit:4;stroke-dasharray:none;stroke-opacity:1"
       d="M 144.91042,136.03048 C 129.83552,132.22484 129.92723,132.83337 129.37492,134.31552 C 128.79794,135.86387 136.56729,139.70175 139.52144,142.69916"
       id="path4013"
       sodipodi:nodetypes="csc" />
    <g
       id="g3280"
       transform="matrix(-0.481541,0,0,0.3671204,164.85265,-107.09622)">
      <path
         sodipodi:nodetypes="ccssccc"
         id="path3282"
         d="M -22.798837,702.79092 C -79.024813,650.82559 -106.86866,529.2101 -120.80546,470.81552 C -120.80546,470.81552 -124.80159,438.84411 -117.23208,415.62552 C -106.33614,382.20348 -68.459052,302.3444 -59.962063,308.24323 C -49.363343,315.60114 -76.167215,387.53369 -76.167215,387.53369 L -85.159603,431.53269 C -91.485553,497.10188 -9.2533271,705.12027 -22.798837,702.79092 z"
         style="fill:#fd5006;fill-opacity:1;fill-rule:evenodd;stroke:#000000;stroke-width:10;stroke-linecap:butt;stroke-linejoin:miter;stroke-miterlimit:4;stroke-dasharray:none;stroke-opacity:1" />
      <path
         transform="matrix(0.857953,0,0,0.981897,-311.18175,496.05009)"
         sodipodi:nodetypes="ccsccc"
         id="path3284"
         d="M 322.10568,184.4288 C 287.52591,141.19293 246.36132,26.124524 232.42452,-32.270056 C 232.42452,-32.270056 233.42367,-74.267806 240.99318,-88.914966 C 257.13229,-120.14449 270.78917,-138.10086 270.78917,-138.10086 L 253.91709,-65.733247 C 247.59114,-0.16405745 307.52929,151.62725 322.10568,184.4288 z"
         style="fill:#fd9a06;fill-opacity:1;fill-rule:evenodd;stroke:none;stroke-width:10;stroke-linecap:butt;stroke-linejoin:miter;stroke-miterlimit:4;stroke-dasharray:none;stroke-opacity:1;filter:url(#filter3341)" />
    </g>
    <path
       style="fill:#fd5006;fill-opacity:1;fill-rule:evenodd;stroke:#000000;stroke-width:4.20456219;stroke-linecap:butt;stroke-linejoin:miter;stroke-miterlimit:4;stroke-dasharray:none;stroke-opacity:1"
       d="M 128.47661,201.29142 C 112.30079,200.9597 72.705297,208.15774 59.403582,192.7619 C 39.123418,169.28893 14.224363,103.14859 45.783544,62.965216 C 49.062841,58.789797 56.118421,51.201353 61.349302,46.647914 C 72.502157,36.939453 97.575395,13.858476 102.20939,16.980112 C 105.52683,19.214886 81.032986,45.343015 76.185413,58.70047 C 74.84107,62.4048 73.496949,67.658732 74.575441,71.453106 C 82.164454,98.152865 119.59053,153.70858 126.5309,153.45204 C 133.63507,153.18949 180.13175,98.858232 188.79389,71.123876 C 190.01268,67.221635 189.15293,61.654035 187.82104,57.773356 C 183.29439,44.58434 158.21784,19.914073 161.55384,16.980112 C 164.74006,14.177903 194.11621,36.335244 205.3325,46.647914 C 210.7638,51.641688 216.17473,57.569249 219.92539,65.190316 C 241.36123,108.74652 219.53431,177.70477 201.44108,196.09952 C 187.45951,210.31415 148.60457,201.70415 128.47661,201.29142 z"
       id="path2485"
       sodipodi:nodetypes="cssssssssssssss" />
    <path
       style="fill:#fd9d06;fill-opacity:1;fill-rule:evenodd;stroke:none;stroke-width:10;stroke-linecap:butt;stroke-linejoin:miter;stroke-miterlimit:4;stroke-dasharray:none;stroke-opacity:1;filter:url(#filter3451)"
       d="M 234.36333,343.01909 C 200.77154,342.11555 137.05191,400.29614 109.42868,358.35935 C 67.313531,294.42133 38.144262,201.13906 57.509291,76.610354 C 57.509291,76.610354 96.873792,-21.97909 107.73658,-34.38218 C 130.89736,-60.82709 164.93685,-94.311823 164.93685,-94.311823 L 112.1296,-18.431503 C 112.1296,-18.431503 112.823,42.073499 115.06269,52.409059 C 130.82252,125.13651 236.38363,297.94804 236.38363,297.94804 C 236.38363,297.94804 373.05647,115.22756 391.04487,39.68186 C 393.57584,29.05257 388.76859,-15.16857 388.76859,-15.16857 L 337.46006,-93.751833 C 337.46006,-93.751833 375.24394,-60.994144 398.53646,-32.903384 C 409.8155,-19.300874 428.84104,19.083042 428.84104,19.083042 C 447.73887,185.61051 430.01297,321.77463 375.26683,385.01214 C 343.59033,421.6018 276.16238,344.14338 234.36333,343.01909 z"
       id="path3345"
       sodipodi:nodetypes="cscsccscsccscss"
       transform="matrix(0.4611108,0,0,0.3546517,16.282632,59.925431)" />
    <path
       sodipodi:type="arc"
       style="opacity:0.80000000000000004;fill:#fff885;fill-opacity:1;fill-rule:evenodd;stroke:none;stroke-width:1;stroke-miterlimit:4;stroke-dasharray:none;stroke-opacity:1;filter:url(#filter3959)"
       id="path2503"
       sodipodi:cx="466.69049"
       sodipodi:cy="418.82535"
       sodipodi:rx="7.0710678"
       sodipodi:ry="15.152288"
       d="M 473.76156,418.82535 A 7.0710678,15.152288 0 1 1 459.61942,418.82535 A 7.0710678,15.152288 0 1 1 473.76156,418.82535 z"
       transform="matrix(1.2134787,0.3262551,-0.4279391,0.9251402,-200.4993,-377.269)" />
    <path
       style="fill:url(#linearGradient3180);fill-opacity:1;fill-rule:evenodd;stroke:#000000;stroke-width:4.12588549;stroke-linecap:butt;stroke-linejoin:miter;stroke-miterlimit:4;stroke-dasharray:none;stroke-opacity:1"
       d="M 38.899804,199.61568 C 95.570485,170.02009 149.84261,175.02117 212.50132,199.15556 C 216.22319,200.58913 219.13304,202.26946 221.33811,204.13387 C 242.64951,222.15325 198.13212,257.37445 184.61868,253.30707 C 140.85415,240.13447 104.39166,241.86656 66.413593,252.0594 C 51.427075,256.08153 8.8451483,215.31142 38.899804,199.61568 z"
       id="path3296"
       sodipodi:nodetypes="csssss" />
    <path
       sodipodi:type="arc"
       style="opacity:0.80000000000000004;fill:#fff885;fill-opacity:1;fill-rule:evenodd;stroke:none;stroke-width:1;stroke-miterlimit:4;stroke-dasharray:none;stroke-opacity:1;filter:url(#filter3967)"
       id="path3277"
       sodipodi:cx="466.69049"
       sodipodi:cy="418.82535"
       sodipodi:rx="7.0710678"
       sodipodi:ry="15.152288"
       d="M 473.76156,418.82535 A 7.0710678,15.152288 0 1 1 459.61942,418.82535 A 7.0710678,15.152288 0 1 1 473.76156,418.82535 z"
       transform="matrix(0.7034966,-9.0407489e-2,-6.6382822e-2,0.5670314,-87.571461,-85.096628)" />
    <path
       style="fill:url(#radialGradient3235);fill-opacity:1;fill-rule:evenodd;stroke:none;stroke-width:10;stroke-linecap:butt;stroke-linejoin:miter;stroke-miterlimit:4;stroke-dasharray:none;stroke-opacity:1;filter:url(#filter3182)"
       d="M 671.90801,657.87366 C 825.10591,608.46659 922.0695,615.81361 1085.399,655.54938 C 1139.3909,712.5506 1069.1744,738.6941 1023.82,763.25524 C 916.52077,711.62328 823.60436,711.68511 730.52476,755.50296 C 691.28125,745.10942 620.55902,712.55256 671.90801,657.87366 z"
       id="path3298"
       sodipodi:nodetypes="ccccc"
       transform="matrix(0.4077211,0,0,0.3632671,-231.48856,-32.189988)" />
    <path
       transform="matrix(0.7133479,7.7695959e-3,-0.1993867,0.5486157,-69.597873,-110.56343)"
       d="M 473.76156,418.82535 A 7.0710678,15.152288 0 1 1 459.61942,418.82535 A 7.0710678,15.152288 0 1 1 473.76156,418.82535 z"
       sodipodi:ry="15.152288"
       sodipodi:rx="7.0710678"
       sodipodi:cy="418.82535"
       sodipodi:cx="466.69049"
       id="path3279"
       style="opacity:0.80000000000000004;fill:#fff885;fill-opacity:1;fill-rule:evenodd;stroke:none;stroke-width:1;stroke-miterlimit:4;stroke-dasharray:none;stroke-opacity:1;filter:url(#filter3963)"
       sodipodi:type="arc" />
    <path
       sodipodi:type="arc"
       style="opacity:0.80000000000000004;fill:#fff885;fill-opacity:1;fill-rule:evenodd;stroke:none;stroke-width:1;stroke-miterlimit:4;stroke-dasharray:none;stroke-opacity:1;filter:url(#filter3951)"
       id="path3283"
       sodipodi:cx="466.69049"
       sodipodi:cy="418.82535"
       sodipodi:rx="7.0710678"
       sodipodi:ry="15.152288"
       d="M 473.76156,418.82535 A 7.0710678,15.152288 0 1 1 459.61942,418.82535 A 7.0710678,15.152288 0 1 1 473.76156,418.82535 z"
       transform="matrix(-0.7287006,0.2260564,0.2420172,0.5972537,295.91617,-199.50187)" />
    <path
       sodipodi:type="arc"
       style="opacity:0.80000000000000004;fill:#fff885;fill-opacity:1;fill-rule:evenodd;stroke:none;stroke-width:1;stroke-miterlimit:4;stroke-dasharray:none;stroke-opacity:1;filter:url(#filter3943)"
       id="path3285"
       sodipodi:cx="466.69049"
       sodipodi:cy="418.82535"
       sodipodi:rx="7.0710678"
       sodipodi:ry="15.152288"
       d="M 473.76156,418.82535 A 7.0710678,15.152288 0 1 1 459.61942,418.82535 A 7.0710678,15.152288 0 1 1 473.76156,418.82535 z"
       transform="matrix(0.3819422,-0.1894287,0.150356,0.3450495,-182.03436,42.777186)" />
    <path
       transform="matrix(0.3695868,-0.2031753,0.1718881,0.3391554,-175.41164,81.776905)"
       d="M 473.76156,418.82535 A 7.0710678,15.152288 0 1 1 459.61942,418.82535 A 7.0710678,15.152288 0 1 1 473.76156,418.82535 z"
       sodipodi:ry="15.152288"
       sodipodi:rx="7.0710678"
       sodipodi:cy="418.82535"
       sodipodi:cx="466.69049"
       id="path3287"
       style="opacity:0.80000000000000004;fill:#fff885;fill-opacity:1;fill-rule:evenodd;stroke:none;stroke-width:1;stroke-miterlimit:4;stroke-dasharray:none;stroke-opacity:1;filter:url(#filter3947)"
       sodipodi:type="arc" />
    <path
       transform="matrix(-0.6755184,0.3072611,0.2945935,0.4711478,294.33308,-180.14092)"
       d="M 473.76156,418.82535 A 7.0710678,15.152288 0 1 1 459.61942,418.82535 A 7.0710678,15.152288 0 1 1 473.76156,418.82535 z"
       sodipodi:ry="15.152288"
       sodipodi:rx="7.0710678"
       sodipodi:cy="418.82535"
       sodipodi:cx="466.69049"
       id="path3289"
       style="opacity:0.80000000000000004;fill:#fff885;fill-opacity:1;fill-rule:evenodd;stroke:none;stroke-width:1;stroke-miterlimit:4;stroke-dasharray:none;stroke-opacity:1;filter:url(#filter3955)"
       sodipodi:type="arc" />
  </g>
</svg>
