<?xml version="1.0" encoding="UTF-8" standalone="no"?>
<!-- Created with Inkscape (http://www.inkscape.org/) -->
<svg
   xmlns:dc="http://purl.org/dc/elements/1.1/"
   xmlns:cc="http://web.resource.org/cc/"
   xmlns:rdf="http://www.w3.org/1999/02/22-rdf-syntax-ns#"
   xmlns:svg="http://www.w3.org/2000/svg"
   xmlns="http://www.w3.org/2000/svg"
   xmlns:xlink="http://www.w3.org/1999/xlink"
   xmlns:sodipodi="http://sodipodi.sourceforge.net/DTD/sodipodi-0.dtd"
   xmlns:inkscape="http://www.inkscape.org/namespaces/inkscape"
   width="744.09448819"
   height="1052.3622047"
   id="svg2"
   sodipodi:version="0.32"
   inkscape:version="0.45.1"
   sodipodi:docbase="/media/home/piers/Documents/Maryo/overworld/svgs"
   sodipodi:docname="mario_overworld_right_2.b.svg"
   inkscape:output_extension="org.inkscape.output.svg.inkscape"
   inkscape:export-filename="/media/home/piers/Documents/Maryo/overworld/pngs/mario_overworld_down_2b.png"
   inkscape:export-xdpi="8.3623056"
   inkscape:export-ydpi="8.3623056">
  <defs
     id="defs4">
    <linearGradient
       id="linearGradient8392">
      <stop
         id="stop8394"
         offset="0"
         style="stop-color:#670200;stop-opacity:1;" />
      <stop
         id="stop8398"
         offset="1"
         style="stop-color:#e86344;stop-opacity:1;" />
    </linearGradient>
    <linearGradient
       id="linearGradient8317">
      <stop
         style="stop-color:#0071ff;stop-opacity:1;"
         offset="0"
         id="stop8319" />
      <stop
         style="stop-color:#001796;stop-opacity:1;"
         offset="1"
         id="stop8321" />
    </linearGradient>
    <linearGradient
       id="linearGradient8179">
      <stop
         style="stop-color:#ff3600;stop-opacity:1;"
         offset="0"
         id="stop8181" />
      <stop
         id="stop8187"
         offset="0.62962961"
         style="stop-color:#b31c00;stop-opacity:1;" />
      <stop
         style="stop-color:#670200;stop-opacity:1;"
         offset="1"
         id="stop8183" />
    </linearGradient>
    <linearGradient
       id="linearGradient8154">
      <stop
         style="stop-color:#8a3e00;stop-opacity:1;"
         offset="0"
         id="stop8156" />
      <stop
         style="stop-color:#4f1000;stop-opacity:1;"
         offset="1"
         id="stop8158" />
    </linearGradient>
    <linearGradient
       id="linearGradient3151">
      <stop
         style="stop-color:#fad6c1;stop-opacity:1;"
         offset="0"
         id="stop3153" />
      <stop
         style="stop-color:#f7c8ac;stop-opacity:1;"
         offset="1"
         id="stop3155" />
    </linearGradient>
    <linearGradient
       inkscape:collect="always"
       xlink:href="#linearGradient3151"
       id="linearGradient8350"
       gradientUnits="userSpaceOnUse"
       x1="157.1041"
       y1="650.32147"
       x2="203.52036"
       y2="650.32147"
       gradientTransform="matrix(0.9652748,0,0,0.8208567,2.3470567,121.55149)" />
    <linearGradient
       inkscape:collect="always"
       xlink:href="#linearGradient3151"
       id="linearGradient8421"
       gradientUnits="userSpaceOnUse"
       gradientTransform="matrix(0.9652748,0,0,0.8208567,350.84968,121.55149)"
       x1="157.1041"
       y1="650.32147"
       x2="203.52036"
       y2="650.32147" />
    <linearGradient
       inkscape:collect="always"
       xlink:href="#linearGradient8154"
       id="linearGradient8507"
       gradientUnits="userSpaceOnUse"
       gradientTransform="matrix(1.1735401,0,0,0.8547583,-47.21657,106.64003)"
       x1="261.25"
       y1="797.6629"
       x2="261.25"
       y2="874.44855" />
    <linearGradient
       inkscape:collect="always"
       xlink:href="#linearGradient8154"
       id="linearGradient8519"
       gradientUnits="userSpaceOnUse"
       gradientTransform="matrix(1.1735401,0,0,0.8547583,-47.21657,106.64003)"
       x1="261.25"
       y1="797.6629"
       x2="261.25"
       y2="874.44855" />
    <radialGradient
       inkscape:collect="always"
       xlink:href="#linearGradient8392"
       id="radialGradient4567"
       gradientUnits="userSpaceOnUse"
       gradientTransform="matrix(0.9936043,3.4596014e-2,-1.803415e-2,0.4641377,17.098507,383.6629)"
       cx="351.85764"
       cy="777.81384"
       fx="351.85764"
       fy="777.81384"
       r="78.178574" />
    <radialGradient
       inkscape:collect="always"
       xlink:href="#linearGradient8392"
       id="radialGradient11294"
       gradientUnits="userSpaceOnUse"
       gradientTransform="matrix(0.9936043,3.4596014e-2,-1.803415e-2,0.4641377,17.098507,383.6629)"
       cx="351.85764"
       cy="777.81384"
       fx="351.85764"
       fy="777.81384"
       r="78.178574" />
  </defs>
  <sodipodi:namedview
     id="base"
     pagecolor="#ffffff"
     bordercolor="#666666"
     borderopacity="1.0"
     gridtolerance="10000"
     guidetolerance="10"
     objecttolerance="10"
     inkscape:pageopacity="0.0"
     inkscape:pageshadow="2"
     inkscape:zoom="0.49497475"
     inkscape:cx="871.42192"
     inkscape:cy="463.8982"
     inkscape:document-units="px"
     inkscape:current-layer="layer10"
     inkscape:window-width="1063"
     inkscape:window-height="940"
     inkscape:window-x="9"
     inkscape:window-y="40"
     showguides="true"
     inkscape:guide-bbox="true">
    <sodipodi:guide
       orientation="horizontal"
       position="862.85714"
       id="guide2252" />
    <sodipodi:guide
       orientation="horizontal"
       position="428.57143"
       id="guide2254" />
    <sodipodi:guide
       orientation="horizontal"
       position="360"
       id="guide2256" />
    <sodipodi:guide
       orientation="horizontal"
       position="268.57143"
       id="guide2258" />
    <sodipodi:guide
       orientation="horizontal"
       position="168.57143"
       id="guide2260" />
    <sodipodi:guide
       orientation="horizontal"
       position="397.14286"
       id="guide2262" />
    <sodipodi:guide
       orientation="horizontal"
       position="487.85714"
       id="guide2286" />
    <sodipodi:guide
       orientation="horizontal"
       position="650.53824"
       id="guide5253" />
    <sodipodi:guide
       orientation="horizontal"
       position="547.50268"
       id="guide5255" />
  </sodipodi:namedview>
  <metadata
     id="metadata7">
    <rdf:RDF>
      <cc:Work
         rdf:about="">
        <dc:format>image/svg+xml</dc:format>
        <dc:type
           rdf:resource="http://purl.org/dc/dcmitype/StillImage" />
      </cc:Work>
    </rdf:RDF>
  </metadata>
  <g
     inkscape:label="Layer 1"
     inkscape:groupmode="layer"
     id="layer1"
     style="display:none">
    <image
       y="112.68437"
       x="-2.8775516"
       id="image2167"
       height="826.40118"
       width="734.57886"
       sodipodi:absref="/media/home/piers/Desktop/maryo_overworld_small.jpg"
       xlink:href="/media/home/piers/Desktop/maryo_overworld_small.jpg" />
  </g>
  <g
     inkscape:groupmode="layer"
     id="layer7"
     inkscape:label="shirt"
     style="display:inline" />
  <g
     inkscape:groupmode="layer"
     id="layer9"
     inkscape:label="pants"
     style="display:inline" />
  <g
     inkscape:groupmode="layer"
     id="layer6"
     inkscape:label="hands"
     style="display:inline" />
  <g
     inkscape:groupmode="layer"
     id="layer8"
     inkscape:label="scarf" />
  <g
     inkscape:groupmode="layer"
     id="layer2"
     inkscape:label="face"
     style="display:inline" />
  <g
     inkscape:groupmode="layer"
     id="layer3"
     inkscape:label="hair below headband"
     style="display:inline" />
  <g
     inkscape:groupmode="layer"
     id="layer4"
     inkscape:label="headband"
     style="display:inline" />
  <g
     inkscape:groupmode="layer"
     id="layer5"
     inkscape:label="hair above headband"
     style="display:inline">
    <image
       y="133.505"
       x="-1037.4286"
       id="image3453"
       height="786.28571"
       width="797.71429"
       sodipodi:absref="/media/home/piers/Desktop/walk_right_2.png"
       xlink:href="/media/home/piers/Desktop/walk_right_2.png"
       style="fill:#fad6c1;fill-opacity:1" />
  </g>
  <g
     inkscape:groupmode="layer"
     id="layer10"
     inkscape:label="shoes">
    <g
       id="g11238"
       transform="translate(1523.31,0)">
      <path
         inkscape:export-ydpi="8.3623056"
         inkscape:export-xdpi="8.3623056"
         inkscape:export-filename="/media/home/piers/Documents/Maryo/overworld/pngs/maryo_overworld_down_2b.png"
         id="rect8325"
         d="M 206.75,591.71875 C 206.75,634.14583 206.75,676.57292 206.75,719 C 304.5,719 402.25,719 500,719 C 500,675.90625 500,632.8125 500,589.71875 C 402.25,589.71875 304.5,589.71875 206.75,589.71875 L 206.75,590.71875 L 206.75,591.71875 z "
         style="opacity:1;fill:#0685b6;fill-opacity:1;fill-rule:nonzero;stroke:#000000;stroke-width:10.09475994;stroke-miterlimit:4;stroke-dasharray:none;stroke-opacity:1;display:inline" />
      <path
         inkscape:export-ydpi="8.3623056"
         inkscape:export-xdpi="8.3623056"
         inkscape:export-filename="/media/home/piers/Documents/Maryo/overworld/pngs/maryo_overworld_down_2b.png"
         id="path8364"
         d="M 201.96875,679.78125 C 194.39843,680.48784 183.71945,682.27778 182.59375,691.5 C 180.39527,699.68018 185.22489,709.35761 194,710.71875 C 199.35358,710.36716 196.00728,716.9019 196.8136,720.31227 C 196.76055,750.60915 195.51159,781.07346 198.59375,811.25 C 198.41277,817.39484 204.88738,818.89802 209.70755,819.368 C 244.8816,823.19591 280.45459,821.35845 315.74851,820.03919 C 327.64603,818.90183 340.11503,819.61143 351.5625,816.1875 C 356.35777,810.6411 354.37971,802.0791 355.0161,795.28136 C 355.39433,784.98805 353.36284,773.98264 355.21875,764.0625 C 359.19092,766.79944 356.79853,773.20511 357.48276,777.2811 C 357.71504,789.89529 354.79674,803.12073 358.125,815.40625 C 361.56144,820.56917 369.29881,819.31491 374.625,820.5625 C 411.60984,822.86709 448.8651,821.8223 485.71875,818.25 C 493.51822,817.92632 502.73755,815.0984 504.71875,806.5 C 509.00437,787.84246 506.24464,768.14423 506.62873,749.09504 C 506.70757,733.8156 505.55056,718.32068 506.4375,703.15625 C 511.58247,700.00764 515.69479,693.40124 512,687.5625 C 509.56326,681.20238 501.08839,678.91006 496.03125,683.6875 C 493.08776,686.27824 490.98586,689.9858 486.4375,689.4375 C 444.85635,693.422 402.81524,692.44117 361.03149,692.45074 C 315.53795,691.6691 269.77565,691.61814 224.57645,686.48977 C 220.54379,685.94408 216.33425,685.44647 213.78125,682.03125 C 210.31394,679.82736 205.97948,679.53694 201.96875,679.78125 z "
         style="opacity:1;fill:#e86344;fill-opacity:1;fill-rule:evenodd;stroke:#000000;stroke-width:15;stroke-linecap:butt;stroke-linejoin:miter;stroke-miterlimit:4;stroke-dasharray:none;stroke-opacity:1;display:inline" />
      <path
         inkscape:export-ydpi="8.3623056"
         inkscape:export-xdpi="8.3623056"
         inkscape:export-filename="/media/home/piers/Documents/Maryo/overworld/pngs/maryo_overworld_down_2b.png"
         id="path8402"
         d="M 273,701.625 C 275.7272,726.38445 278.38757,751.15154 281.15625,775.90625 C 318.291,760.10402 360.97226,757.71112 400.21875,766.625 C 407.52964,767.81832 413.87228,771.9621 420.71875,774.125 C 428.46094,774.43836 430.30385,764.91793 431.25,759 C 433.63892,739.48729 431.8015,719.56982 429.59375,700.09375 C 377.32287,699.88364 325.05213,699.61285 272.78125,699.40625 C 272.85417,700.14583 272.92708,700.88542 273,701.625 z "
         style="fill:url(#radialGradient11294);fill-opacity:1;fill-rule:evenodd;stroke:none;stroke-width:1px;stroke-linecap:butt;stroke-linejoin:miter;stroke-opacity:1;display:inline" />
      <g
         inkscape:export-ydpi="8.3623056"
         inkscape:export-xdpi="8.3623056"
         inkscape:export-filename="/media/home/piers/Documents/Maryo/overworld/pngs/maryo_overworld_down_2b.png"
         id="g4435"
         style="display:inline">
        <path
           style="fill:none;fill-rule:evenodd;stroke:#000000;stroke-width:5;stroke-linecap:butt;stroke-linejoin:miter;stroke-miterlimit:4;stroke-dasharray:none;stroke-opacity:1;display:inline"
           d="M 196.97975,708.91032 C 229.30463,719.01184 247.48737,716.99154 247.48737,716.99154"
           id="path8374"
           inkscape:export-filename="/media/home/piers/Documents/Maryo/overworld/maryo_overworld_beta.png"
           inkscape:export-xdpi="8.3623056"
           inkscape:export-ydpi="8.3623056" />
        <path
           style="fill:#fad6c1;fill-opacity:1;fill-rule:evenodd;stroke:#000000;stroke-width:10;stroke-linecap:butt;stroke-linejoin:miter;stroke-miterlimit:4;stroke-dasharray:none;stroke-opacity:1"
           d="M 141.07142,723.79078 C 156.30951,724.26696 171.54761,724.74313 186.78571,725.21931 C 187.52618,694.74835 191.16287,636.96396 184.09283,625.31813 C 176.92487,613.51099 153.24201,612.12574 144.71786,625.60867 C 136.71943,638.26004 139.84482,694.59055 140.98318,722.61957 L 141.04783,723.49159 L 141.07142,723.79075 L 141.07142,723.79078 z "
           id="path4429"
           sodipodi:nodetypes="cczzcccc" />
        <g
           id="g8536">
          <path
             sodipodi:nodetypes="ccsssssscc"
             id="path8499"
             d="M 161.24596,684.29024 C 158.0593,697.80813 155.64265,712.67837 162.08701,724.08956 C 169.36395,728.73025 194.01308,730.42712 198.95714,723.55398 C 203.9012,716.68085 201.22525,656.781 192.8373,652.34327 C 184.44937,647.90554 122.72924,648.15863 113.45205,667.76327 C 104.17486,687.36792 92.439758,742.90454 112.42045,763.93068 C 135.31886,788.02721 196.0781,784.46858 210.30979,770.61772 C 224.54149,756.76685 234.88371,681.40089 223.97039,676.96524 C 213.05707,672.5296 201.34031,673.75147 201.34031,673.75147 L 201.03692,673.34766"
             style="fill:#ffffff;fill-opacity:1;fill-rule:nonzero;stroke:#000000;stroke-width:12;stroke-linecap:butt;stroke-linejoin:miter;stroke-miterlimit:4;stroke-dasharray:none;stroke-opacity:1" />
          <path
             sodipodi:nodetypes="csscsc"
             id="path8501"
             d="M 110.53435,681.95834 C 126.09462,686.69318 128.21724,688.25716 129.43284,692.39779 C 130.64846,696.5384 130.47267,728.25735 124.61638,731.39367 C 118.76009,734.52999 103.81075,735.65353 103.81075,735.65353 C 103.81075,735.65353 102.89434,726.86595 104.6979,709.08577 C 106.50148,691.30559 109.82716,681.85791 110.53435,681.95834 z "
             style="fill:#ffb3a0;fill-opacity:1;fill-rule:evenodd;stroke:#000000;stroke-width:4;stroke-linecap:butt;stroke-linejoin:miter;stroke-miterlimit:4;stroke-dasharray:none;stroke-opacity:1" />
        </g>
        <path
           sodipodi:nodetypes="cczzcccc"
           id="path4432"
           d="M 133.37736,635.65058 C 156.37374,635.97077 179.37015,636.29095 202.36656,636.61114 C 203.48402,616.12229 208.9723,577.26776 198.30262,569.43704 C 187.48518,561.49785 153.41558,559.35755 141.0232,569.6324 C 129.40528,579.26512 133.66911,615.3019 133.2442,634.86305 L 133.34176,635.4494 L 133.37736,635.65056 L 133.37736,635.65058 z "
           style="fill:#0685b6;fill-opacity:1;fill-rule:evenodd;stroke:#000000;stroke-width:10.07349491;stroke-linecap:butt;stroke-linejoin:miter;stroke-miterlimit:4;stroke-dasharray:none;stroke-opacity:1" />
      </g>
      <g
         inkscape:export-ydpi="8.3623056"
         inkscape:export-xdpi="8.3623056"
         inkscape:export-filename="/media/home/piers/Documents/Maryo/overworld/pngs/maryo_overworld_down_2b.png"
         transform="matrix(-1,0,0,1,706.89578,7.1428572)"
         id="g4443"
         style="display:inline">
        <path
           inkscape:export-ydpi="8.3623056"
           inkscape:export-xdpi="8.3623056"
           inkscape:export-filename="/media/home/piers/Documents/Maryo/overworld/maryo_overworld_beta.png"
           id="path4445"
           d="M 196.97975,708.91032 C 229.30463,719.01184 247.48737,716.99154 247.48737,716.99154"
           style="fill:none;fill-rule:evenodd;stroke:#000000;stroke-width:5;stroke-linecap:butt;stroke-linejoin:miter;stroke-miterlimit:4;stroke-dasharray:none;stroke-opacity:1;display:inline" />
        <path
           sodipodi:nodetypes="cczzcccc"
           id="path4447"
           d="M 141.07142,723.79078 C 156.30951,724.26696 171.54761,724.74313 186.78571,725.21931 C 187.52618,694.74835 191.16287,636.96396 184.09283,625.31813 C 176.92487,613.51099 153.24201,612.12574 144.71786,625.60867 C 136.71943,638.26004 139.84482,694.59055 140.98318,722.61957 L 141.04783,723.49159 L 141.07142,723.79075 L 141.07142,723.79078 z "
           style="fill:#fad6c1;fill-opacity:1;fill-rule:evenodd;stroke:#000000;stroke-width:10;stroke-linecap:butt;stroke-linejoin:miter;stroke-miterlimit:4;stroke-dasharray:none;stroke-opacity:1" />
        <g
           id="g4449">
          <path
             style="fill:#ffffff;fill-opacity:1;fill-rule:nonzero;stroke:#000000;stroke-width:12;stroke-linecap:butt;stroke-linejoin:miter;stroke-miterlimit:4;stroke-dasharray:none;stroke-opacity:1"
             d="M 161.24596,684.29024 C 158.0593,697.80813 155.64265,712.67837 162.08701,724.08956 C 169.36395,728.73025 194.01308,730.42712 198.95714,723.55398 C 203.9012,716.68085 201.22525,656.781 192.8373,652.34327 C 184.44937,647.90554 122.72924,648.15863 113.45205,667.76327 C 104.17486,687.36792 92.439758,742.90454 112.42045,763.93068 C 135.31886,788.02721 196.0781,784.46858 210.30979,770.61772 C 224.54149,756.76685 234.88371,681.40089 223.97039,676.96524 C 213.05707,672.5296 201.34031,673.75147 201.34031,673.75147 L 201.03692,673.34766"
             id="path4451"
             sodipodi:nodetypes="ccsssssscc" />
          <path
             style="fill:#ffb3a0;fill-opacity:1;fill-rule:evenodd;stroke:#000000;stroke-width:4;stroke-linecap:butt;stroke-linejoin:miter;stroke-miterlimit:4;stroke-dasharray:none;stroke-opacity:1"
             d="M 110.53435,681.95834 C 126.09462,686.69318 128.21724,688.25716 129.43284,692.39779 C 130.64846,696.5384 130.47267,728.25735 124.61638,731.39367 C 118.76009,734.52999 103.81075,735.65353 103.81075,735.65353 C 103.81075,735.65353 102.89434,726.86595 104.6979,709.08577 C 106.50148,691.30559 109.82716,681.85791 110.53435,681.95834 z "
             id="path4453"
             sodipodi:nodetypes="csscsc" />
        </g>
        <path
           style="fill:#0685b6;fill-opacity:1;fill-rule:evenodd;stroke:#000000;stroke-width:10.07349491;stroke-linecap:butt;stroke-linejoin:miter;stroke-miterlimit:4;stroke-dasharray:none;stroke-opacity:1"
           d="M 133.37736,635.65058 C 156.37374,635.97077 179.37015,636.29095 202.36656,636.61114 C 203.48402,616.12229 208.9723,577.26776 198.30262,569.43704 C 187.48518,561.49785 153.41558,559.35755 141.0232,569.6324 C 129.40528,579.26512 133.66911,615.3019 133.2442,634.86305 L 133.34176,635.4494 L 133.37736,635.65056 L 133.37736,635.65058 z "
           id="path4455"
           sodipodi:nodetypes="cczzcccc" />
      </g>
      <path
         inkscape:export-ydpi="8.3623056"
         inkscape:export-xdpi="8.3623056"
         inkscape:export-filename="/media/home/piers/Documents/Maryo/overworld/pngs/maryo_overworld_down_2b.png"
         id="path8353"
         d="M 299.9375,609.09375 C 294.60105,610.01435 290.72525,613.28939 298.78021,613.15606 C 351.26243,622.65261 400.42754,646.9465 442.1875,679.75 C 452.23723,657.0587 463.68798,633.3038 482.71875,616.78125 C 421.69892,616.92562 360.8375,611.98411 299.9375,609.09375 z "
         style="fill:#e86344;fill-opacity:1;fill-rule:evenodd;stroke:#000000;stroke-width:5.49668074;stroke-linecap:butt;stroke-linejoin:miter;stroke-miterlimit:4;stroke-dasharray:none;stroke-opacity:1" />
      <path
         inkscape:export-ydpi="8.3623056"
         inkscape:export-xdpi="8.3623056"
         inkscape:export-filename="/media/home/piers/Documents/Maryo/overworld/pngs/maryo_overworld_down_2b.png"
         id="path3165"
         d="M 593.96875,300.84375 C 437.85423,306.25172 281.73921,311.64594 125.625,317.0625 C 120.8246,347.94383 115.83135,378.79977 111.5,409.75 C 100.26646,409.18395 87.858911,411.56092 79.65625,419.625 C 75.069161,432.84476 76.294129,447.43433 76,461.28125 C 76.946416,474.71393 76.271672,489.2817 82.84375,501.40625 C 89.448949,508.53844 100.54158,508.21568 109.4375,509.90625 C 115.01544,511.33303 122.76596,508.29966 125.4375,515 C 153.25626,549.60086 185.66839,581.67292 224.9522,602.9253 C 261.93451,622.78317 304.91634,625.60765 346.15599,624.49165 C 392.65809,623.22828 440.68812,626.31604 485.40625,611.59375 C 514.15406,601.84985 536.93812,580.27804 557.35254,558.62044 C 571.58996,543.06919 584.28027,525.77658 595.28125,508 C 610.01566,508.75506 627.3842,508.76462 638.46875,497.6875 C 643.90499,489.49772 642.79234,478.73489 643.69988,469.31438 C 643.82493,449.74291 644.16513,429.666 638.71875,410.8125 C 636.4785,403.401 627.04951,403.99197 620.96875,402.21875 C 615.32785,401.28913 609.69269,400.50074 604,399.96875 C 601.29163,366.90625 598.58353,333.84373 595.875,300.78125 L 594.87554,300.81402 L 593.96875,300.84375 z "
         style="fill:#fad6c1;fill-opacity:1;fill-rule:evenodd;stroke:#000000;stroke-width:20;stroke-linecap:butt;stroke-linejoin:miter;stroke-miterlimit:4;stroke-dasharray:none;stroke-opacity:1;display:inline" />
      <path
         inkscape:export-ydpi="8.3623056"
         inkscape:export-xdpi="8.3623056"
         inkscape:export-filename="/media/home/piers/Documents/Maryo/overworld/pngs/maryo_overworld_down_2b.png"
         id="path8415"
         d="M 106.84375,430.46875 C 102.97869,430.14369 98.246956,432.05167 98.5625,436.59375 C 97.618787,451.71138 97.746013,467.3108 100.65625,482.15625 C 104.13164,486.77222 111.25111,485.4221 116.34375,486.625 C 119.6127,486.20517 127.80079,489.45709 126.81965,483.84751 C 125.29909,466.53449 123.84009,449.21565 122.28125,431.90625 C 117.17399,431.04325 112.07281,430.32974 106.84375,430.46875 z "
         style="fill:#f7c8ac;fill-opacity:1;fill-rule:evenodd;stroke:#000000;stroke-width:1px;stroke-linecap:butt;stroke-linejoin:miter;stroke-opacity:1;display:inline" />
      <path
         inkscape:export-ydpi="8.3623056"
         inkscape:export-xdpi="8.3623056"
         inkscape:export-filename="/media/home/piers/Documents/Maryo/overworld/pngs/maryo_overworld_down_2b.png"
         id="path8417"
         d="M 594.1875,424.75 C 592.34655,445.07316 590.48322,465.39436 588.65625,485.71875 C 597.27725,488.70302 606.8923,486.55709 615.65625,485.28125 C 622.2541,484.88282 621.75007,477.20308 622.33305,472.44095 C 623.01924,458.14372 624.52375,443.35765 621.375,429.3125 C 617.61488,423.82997 609.31061,424.89053 603.53638,423.52383 C 600.89245,424.02756 594.194,420.9551 594.1875,424.75 z "
         style="fill:#f7c8ac;fill-opacity:1;fill-rule:evenodd;stroke:#000000;stroke-width:1.1786145px;stroke-linecap:butt;stroke-linejoin:miter;stroke-opacity:1;display:inline" />
      <g
         inkscape:export-ydpi="8.3623056"
         inkscape:export-xdpi="8.3623056"
         inkscape:export-filename="/media/home/piers/Documents/Maryo/overworld/pngs/maryo_overworld_down_2b.png"
         style="display:inline"
         id="g8521"
         transform="matrix(0.8946077,0,0,1.2390838,162.97059,-27.109182)">
        <path
           d="M 344.46202 390.20718 A 28.789347 48.992397 0 1 1  286.88332,390.20718 A 28.789347 48.992397 0 1 1  344.46202 390.20718 z"
           sodipodi:ry="48.992397"
           sodipodi:rx="28.789347"
           sodipodi:cy="390.20718"
           sodipodi:cx="315.67267"
           id="path8523"
           style="fill:#000000;fill-opacity:1;fill-rule:nonzero;stroke-width:20;stroke-miterlimit:4;stroke-dasharray:none"
           sodipodi:type="arc" />
        <path
           transform="matrix(1,0,0,1.4736842,0,-170.9321)"
           d="M 333.35034 361.92291 A 9.0913725 9.5964489 0 1 1  315.1676,361.92291 A 9.0913725 9.5964489 0 1 1  333.35034 361.92291 z"
           sodipodi:ry="9.5964489"
           sodipodi:rx="9.0913725"
           sodipodi:cy="361.92291"
           sodipodi:cx="324.25897"
           id="path8525"
           style="fill:#ffffff;fill-opacity:1;fill-rule:nonzero;stroke-width:20;stroke-miterlimit:4;stroke-dasharray:none"
           sodipodi:type="arc" />
      </g>
      <g
         transform="matrix(0.8946077,0,0,1.2390838,-11.02941,-27.109182)"
         id="g4505"
         style="display:inline"
         inkscape:export-filename="/media/home/piers/Documents/Maryo/overworld/pngs/maryo_overworld_down_2b.png"
         inkscape:export-xdpi="8.3623056"
         inkscape:export-ydpi="8.3623056">
        <path
           sodipodi:type="arc"
           style="fill:#000000;fill-opacity:1;fill-rule:nonzero;stroke-width:20;stroke-miterlimit:4;stroke-dasharray:none"
           id="path4507"
           sodipodi:cx="315.67267"
           sodipodi:cy="390.20718"
           sodipodi:rx="28.789347"
           sodipodi:ry="48.992397"
           d="M 344.46202 390.20718 A 28.789347 48.992397 0 1 1  286.88332,390.20718 A 28.789347 48.992397 0 1 1  344.46202 390.20718 z" />
        <path
           sodipodi:type="arc"
           style="fill:#ffffff;fill-opacity:1;fill-rule:nonzero;stroke-width:20;stroke-miterlimit:4;stroke-dasharray:none"
           id="path4509"
           sodipodi:cx="324.25897"
           sodipodi:cy="361.92291"
           sodipodi:rx="9.0913725"
           sodipodi:ry="9.5964489"
           d="M 333.35034 361.92291 A 9.0913725 9.5964489 0 1 1  315.1676,361.92291 A 9.0913725 9.5964489 0 1 1  333.35034 361.92291 z"
           transform="matrix(1,0,0,1.4736842,0,-170.9321)" />
      </g>
      <path
         inkscape:export-ydpi="8.3623056"
         inkscape:export-xdpi="8.3623056"
         inkscape:export-filename="/media/home/piers/Documents/Maryo/overworld/pngs/maryo_overworld_down_2b.png"
         sodipodi:nodetypes="cc"
         id="path4575"
         d="M 287.6783,532.903 C 293.78978,596.23345 425.18652,595.51378 429.46455,532.18334"
         style="fill:none;fill-rule:evenodd;stroke:#000000;stroke-width:4.64232969;stroke-linecap:butt;stroke-linejoin:miter;stroke-miterlimit:4;stroke-dasharray:none;stroke-opacity:1;display:inline" />
      <path
         inkscape:export-ydpi="8.3623056"
         inkscape:export-xdpi="8.3623056"
         inkscape:export-filename="/media/home/piers/Documents/Maryo/overworld/pngs/maryo_overworld_down_2b.png"
         id="path4583"
         d="M 404.28571,398.79075 C 440,381.6479 482.14286,387.36218 482.14286,387.36218"
         style="fill:none;fill-rule:evenodd;stroke:#000000;stroke-width:5;stroke-linecap:butt;stroke-linejoin:miter;stroke-miterlimit:4;stroke-dasharray:none;stroke-opacity:1;display:inline" />
      <path
         inkscape:export-ydpi="8.3623056"
         inkscape:export-xdpi="8.3623056"
         inkscape:export-filename="/media/home/piers/Documents/Maryo/overworld/pngs/maryo_overworld_down_2b.png"
         style="fill:none;fill-rule:evenodd;stroke:#000000;stroke-width:5;stroke-linecap:butt;stroke-linejoin:miter;stroke-miterlimit:4;stroke-dasharray:none;stroke-opacity:1;display:inline"
         d="M 308.14286,398.79075 C 272.42857,381.6479 230.28571,387.36218 230.28571,387.36218"
         id="path4585" />
      <path
         inkscape:export-ydpi="8.3623056"
         inkscape:export-xdpi="8.3623056"
         inkscape:export-filename="/media/home/piers/Documents/Maryo/overworld/pngs/maryo_overworld_down_2b.png"
         id="path4501"
         d="M 168.125,372.65625 C 155.28972,376.46199 142.47014,380.3223 129.625,384.09375 C 127.10637,395.24216 124.61752,406.39883 122.03125,417.53125 C 132.28434,429.15032 140.98151,444.49556 138.09375,460.40625 C 148.95833,460.40625 159.82292,460.40625 170.6875,460.40625 C 170.6875,430.89583 170.6875,401.38542 170.6875,371.875 C 169.83333,372.13542 168.97917,372.39583 168.125,372.65625 z "
         style="fill:#aa8b59;fill-opacity:1;fill-rule:evenodd;stroke:#000000;stroke-width:5;stroke-linecap:butt;stroke-linejoin:miter;stroke-miterlimit:4;stroke-dasharray:none;stroke-opacity:1;display:inline" />
      <path
         inkscape:export-ydpi="8.3623056"
         inkscape:export-xdpi="8.3623056"
         inkscape:export-filename="/media/home/piers/Documents/Maryo/overworld/pngs/maryo_overworld_down_2b.png"
         id="path4503"
         d="M 539.40625,365.46875 C 539.40625,394.08333 539.40625,422.69792 539.40625,451.3125 C 550.4375,451.3125 561.46875,451.3125 572.5,451.3125 C 568.88556,438.74689 575.41043,425.65684 582.4375,415.4375 C 584.81611,411.54157 590.11112,408.66588 586.93241,403.56677 C 584.79209,394.04367 582.62304,384.52692 580.5,375 C 566.7921,370.96209 553.09551,366.8826 539.40625,362.78125 C 539.40625,363.67708 539.40625,364.57292 539.40625,365.46875 z "
         style="fill:#aa8b59;fill-opacity:1;fill-rule:evenodd;stroke:#000000;stroke-width:5;stroke-linecap:butt;stroke-linejoin:miter;stroke-miterlimit:4;stroke-dasharray:none;stroke-opacity:1;display:inline" />
      <g
         id="g4605"
         style="display:inline">
        <path
           style="opacity:1;fill:#e86344;fill-opacity:1;fill-rule:evenodd;stroke:#000000;stroke-width:15;stroke-linecap:butt;stroke-linejoin:miter;stroke-miterlimit:4;stroke-dasharray:none;stroke-opacity:1"
           d="M 357.15625,193.71875 C 304.78899,194.55964 251.83557,195.90694 200.68875,208.00287 C 181.80019,212.39451 163.02427,220.53514 150.0625,235.28125 C 141.04394,244.02263 137.13828,256.32505 135.8125,268.46875 C 133.15803,279.63831 119.67281,281.68862 111.17503,287.17261 C 83.566826,300.97373 55.838181,314.5574 28.09375,328.09375 C 50.332307,347.5868 73.503662,366.49635 95.25,386.25 C 96.124003,397.20934 94.535128,408.34479 91.34375,418.875 C 103.07269,419.27663 114.80121,419.69521 126.53125,420.0625 C 124.35574,406.24976 127.31572,388.03189 141.78125,382.34375 C 166.47861,376.19908 192.26788,376.39605 217.59155,374.88514 C 303.0197,371.77568 388.52108,373.77734 473.9675,374.89316 C 505.80554,376.0488 538.05303,375.77796 569.37425,381.87596 C 578.95922,383.26768 585.47083,392.38238 587.875,401.15625 C 588.36616,404.31087 586.97201,408.29687 591.93634,406.91182 C 602.0931,407.2497 612.24886,407.61963 622.40625,407.9375 C 618.61877,363.34472 613.54569,318.49058 601.21875,275.375 C 596.57312,260.38906 590.69617,244.22035 576.6875,235.5625 C 543.903,212.06115 502.57668,204.28731 463.20294,198.93943 C 428.04009,194.63275 392.55681,193.50637 357.15625,193.71875 z "
           id="path8177"
           inkscape:export-filename="/media/home/piers/Documents/Maryo/overworld/pngs/maryo_overworld_down_2b.png"
           inkscape:export-xdpi="8.3623056"
           inkscape:export-ydpi="8.3623056" />
        <path
           style="fill:none;fill-rule:evenodd;stroke:#000000;stroke-width:10;stroke-linecap:butt;stroke-linejoin:miter;stroke-miterlimit:4;stroke-dasharray:none;stroke-opacity:1"
           d="M 137.5,267.03125 C 132.3158,290.79556 128.12649,314.8416 125.34375,338.96875 C 127.27643,348.79516 130.85344,334.62792 130.81278,330.65718 C 134.13165,309.39198 138.56281,288.08003 141.18864,266.84396 C 140.47267,261.13704 139.74758,264.49378 137.5,267.03125 z "
           id="path8193"
           inkscape:export-filename="/media/home/piers/Documents/Maryo/overworld/pngs/maryo_overworld_down_2b.png"
           inkscape:export-xdpi="8.3623056"
           inkscape:export-ydpi="8.3623056" />
        <path
           style="fill:#ffffff;fill-rule:evenodd;stroke:#000000;stroke-width:1px;stroke-linecap:butt;stroke-linejoin:miter;stroke-opacity:1"
           d="M 229.90625,222.71875 C 209.92263,232.5533 189.9748,242.46181 169.96875,252.25 C 176.4824,264.8525 182.98402,277.46121 189.5,290.0625 C 198.54546,279.37662 207.56037,268.66486 216.59375,257.96875 C 215.1024,266.04134 213.63698,274.11874 212.125,282.1875 C 219.78432,277.66859 227.41547,273.10214 235.0625,268.5625 C 229.51856,280.88439 223.99394,293.215 218.4375,305.53125 C 231.0459,307.73626 243.64272,310.00731 256.25,312.21875 C 258.33326,286.62673 260.38298,261.03187 262.4375,235.4375 C 250.78298,243.90472 239.14707,252.39754 227.5,260.875 C 229.44224,247.59445 231.34273,234.30773 233.3125,221.03125 C 232.17708,221.59375 231.04167,222.15625 229.90625,222.71875 z "
           id="path4515"
           inkscape:export-filename="/media/home/piers/Documents/Maryo/overworld/pngs/maryo_overworld_down_2b.png"
           inkscape:export-xdpi="8.3623056"
           inkscape:export-ydpi="8.3623056" />
        <path
           style="fill:#ffffff;fill-rule:evenodd;stroke:#000000;stroke-width:0.77949601px;stroke-linecap:butt;stroke-linejoin:miter;stroke-opacity:1"
           d="M 353.75,207.78125 C 330.85402,208.68353 307.95921,209.61775 285.0625,210.5 C 284.94737,219.39544 284.91663,228.29189 284.8125,237.1875 C 297.2206,233.68938 309.60226,230.0974 322,226.5625 C 317.04739,230.44484 312.10469,234.33987 307.125,238.1875 C 315.72085,237.47246 324.31261,236.7096 332.90625,235.96875 C 322.69936,241.11743 312.47695,246.23542 302.28125,251.40625 C 313.23142,255.63985 324.16174,259.926 335.125,264.125 C 349.83296,250.02048 364.50612,235.87946 379.25,221.8125 C 364.65498,223.82417 350.06264,225.85521 335.46875,227.875 C 343.51117,221.10506 351.53943,214.31829 359.59375,207.5625 C 357.64583,207.63542 355.69792,207.70833 353.75,207.78125 z "
           id="path4517"
           inkscape:export-filename="/media/home/piers/Documents/Maryo/overworld/pngs/maryo_overworld_down_2b.png"
           inkscape:export-xdpi="8.3623056"
           inkscape:export-ydpi="8.3623056" />
        <path
           style="fill:#ffffff;fill-rule:evenodd;stroke:#000000;stroke-width:1.4032644px;stroke-linecap:butt;stroke-linejoin:miter;stroke-opacity:1"
           d="M 471.125,218.15625 C 448.52667,237.59879 425.96489,257.08427 403.34375,276.5 C 414.83514,292.91117 426.26922,309.36259 437.75,325.78125 C 446.54416,307.15802 455.37796,288.55348 464.1875,269.9375 C 464.5494,282.61466 464.9376,295.29108 465.28125,307.96875 C 474.00272,299.14805 482.65222,290.25644 491.34375,281.40625 C 487.62539,301.54174 483.90395,321.67666 480.1875,341.8125 C 496.4272,341.8707 512.66656,342.03397 528.90625,342.09375 C 524.5191,304.61239 520.10509,267.13406 515.6875,229.65625 C 503.08079,245.1998 490.52429,260.78405 477.9375,276.34375 C 476.68701,256.06253 475.44071,235.78105 474.1875,215.5 C 473.16667,216.38542 472.14583,217.27083 471.125,218.15625 z "
           id="path4519"
           inkscape:export-filename="/media/home/piers/Documents/Maryo/overworld/pngs/maryo_overworld_down_2b.png"
           inkscape:export-xdpi="8.3623056"
           inkscape:export-ydpi="8.3623056" />
        <path
           style="fill:#ffffff;fill-rule:evenodd;stroke:#000000;stroke-width:0.69978529px;stroke-linecap:butt;stroke-linejoin:miter;stroke-opacity:1"
           d="M 549.09375,255.6875 C 550.39776,273.86317 550.79296,292.3749 552.65625,310.34375 C 562.29619,322.33368 570.68666,335.3974 581.25,346.59375 C 579.64265,334.94152 575.44058,323.83995 572.65625,312.4375 C 574.95355,316.90429 578.21983,326.33888 581.06826,327.00233 C 582.57959,323.66992 578.68514,307.61786 581.75541,316.21137 C 586.25227,328.14142 590.75955,340.06754 595.25,352 C 600.36216,349.64225 605.4582,347.2497 610.5625,344.875 C 596.11753,316.57391 582.69885,287.64421 567.7431,259.66956 C 562.95895,252.67141 566.15228,267.90461 566.67901,271.31825 C 567.7235,277.6705 568.768,284.02275 569.8125,290.375 C 562.89916,276.73916 557.46396,262.29206 549.46875,249.25 C 549.34375,251.39583 549.21875,253.54167 549.09375,255.6875 z "
           id="path4521"
           inkscape:export-filename="/media/home/piers/Documents/Maryo/overworld/pngs/maryo_overworld_down_2b.png"
           inkscape:export-xdpi="8.3623056"
           inkscape:export-ydpi="8.3623056" />
        <path
           style="fill:#ffffff;fill-rule:evenodd;stroke:#000000;stroke-width:0.37226039px;stroke-linecap:butt;stroke-linejoin:miter;stroke-opacity:1"
           d="M 147.96875,291.59375 C 143.8203,298.1175 137.68922,304.17375 134.6875,310.96875 C 136.47653,320.27347 137.9645,329.63892 140.09375,338.875 C 141.70533,335.44117 144.84881,320.82846 143.85037,331.49673 C 144.29284,334.72178 150.25262,321.0352 146.98522,332.8927 C 146.06234,338.54895 143.10456,345.20179 151.1047,346.25212 C 158.192,352.32334 157.04492,344.68723 157.07506,338.97161 C 157.24133,324.46093 158.45611,309.9412 157.8125,295.4375 C 155.36566,297.50362 150.40666,312.37327 150.93642,305.56652 C 151.27125,299.09649 151.60835,292.62657 151.9375,286.15625 C 150.61458,287.96875 149.29167,289.78125 147.96875,291.59375 z "
           id="path4523"
           inkscape:export-filename="/media/home/piers/Documents/Maryo/overworld/pngs/maryo_overworld_down_2b.png"
           inkscape:export-xdpi="8.3623056"
           inkscape:export-ydpi="8.3623056" />
        <path
           style="fill:#ffffff;fill-rule:evenodd;stroke:#000000;stroke-width:0.77026284px;stroke-linecap:butt;stroke-linejoin:miter;stroke-opacity:1"
           d="M 345.28125,275.875 C 347.61458,284.92708 349.94792,293.97917 352.28125,303.03125 C 343.10457,297.20769 333.92385,291.39051 324.75,285.5625 C 326.01961,303.5105 327.29861,321.45785 328.5625,339.40625 C 340.30172,339.54813 352.04171,339.63204 363.78125,339.75 C 358.80512,330.47271 353.8448,321.18694 348.875,311.90625 C 354.13537,315.48964 359.39284,319.07732 364.65625,322.65625 C 363.63857,316.20947 362.63536,309.76042 361.625,303.3125 C 368.835,310.96718 376.03173,318.63437 383.25,326.28125 C 389.03019,318.45485 394.80893,310.62722 400.5625,302.78125 C 381.73505,292.32922 362.92527,281.84471 344.125,271.34375 C 344.51042,272.85417 344.89583,274.36458 345.28125,275.875 z "
           id="path4525"
           inkscape:export-filename="/media/home/piers/Documents/Maryo/overworld/pngs/maryo_overworld_down_2b.png"
           inkscape:export-xdpi="8.3623056"
           inkscape:export-ydpi="8.3623056" />
        <path
           style="fill:none;fill-rule:evenodd;stroke:#000000;stroke-width:5;stroke-linecap:butt;stroke-linejoin:miter;stroke-miterlimit:4;stroke-dasharray:none;stroke-opacity:1"
           d="M 98.571429,388.07647 C 107.14285,375.21933 117.14286,357.36219 132.14286,354.50504 C 161.44547,348.92359 245.71429,346.6479 245.71429,346.6479"
           id="path4577"
           sodipodi:nodetypes="csc"
           inkscape:export-filename="/media/home/piers/Documents/Maryo/overworld/pngs/maryo_overworld_down_2b.png"
           inkscape:export-xdpi="8.3623056"
           inkscape:export-ydpi="8.3623056" />
        <path
           sodipodi:nodetypes="csc"
           id="path4579"
           d="M 616.1425,384.21896 C 609.60163,372.64777 606.95785,359.48995 590.52408,354.00528 C 563.19878,344.88563 503.85752,346.93399 503.85752,346.93399"
           style="fill:none;fill-rule:evenodd;stroke:#000000;stroke-width:4.14360285;stroke-linecap:butt;stroke-linejoin:miter;stroke-miterlimit:4;stroke-dasharray:none;stroke-opacity:1"
           inkscape:export-filename="/media/home/piers/Documents/Maryo/overworld/pngs/maryo_overworld_down_2b.png"
           inkscape:export-xdpi="8.3623056"
           inkscape:export-ydpi="8.3623056" />
      </g>
      <path
         inkscape:export-ydpi="8.3623056"
         inkscape:export-xdpi="8.3623056"
         inkscape:export-filename="/media/home/piers/Documents/Maryo/overworld/pngs/maryo_overworld_down_2b.png"
         id="path8166"
         d="M 584.48342,211.33499 C 559.1124,215.91954 533.19833,220.72424 509.79924,233.60531 C 486.6568,249.25722 471.33642,276.13822 455.97423,301.42002 C 441.02065,327.44746 426.34836,353.84969 412.87941,380.9377 C 410.10349,387.5688 415.46512,382.89904 417.34809,380.5581 C 440.63744,356.27389 471.22502,345.98272 499.86756,334.66868 C 538.52179,322.83623 578.94285,323.92161 618.62851,323.53352 C 607.18393,303.73473 589.2786,288.83372 568.91276,286.60969 C 554.02773,283.95893 538.88644,283.14396 523.81891,282.8196 C 528.1652,268.26342 534.30821,253.20056 546.06693,245.24234 C 560.30847,233.1638 575.68426,223.00191 590.06508,211.08405 C 588.20453,211.16769 586.34398,211.25134 584.48342,211.33499 z "
         style="fill:#aa8b59;fill-opacity:1;fill-rule:evenodd;stroke:#000000;stroke-width:7.16044712;stroke-linecap:butt;stroke-linejoin:miter;stroke-miterlimit:4;stroke-dasharray:none;stroke-opacity:1;display:inline" />
      <g
         inkscape:export-ydpi="8.3623056"
         inkscape:export-xdpi="8.3623056"
         inkscape:export-filename="/media/home/piers/Documents/Maryo/overworld/pngs/maryo_overworld_down_2b.png"
         id="g4475">
        <g
           id="g4457">
          <path
             sodipodi:nodetypes="csscc"
             id="path8484"
             d="M 167.37363,868.78351 C 167.37363,810.78206 177.85166,788.80256 257.48474,788.80256 C 337.11783,788.80256 351.78707,811.08733 351.78707,839.47752 C 351.78708,883.44075 351.78707,868.78352 351.78707,868.78352 L 166.95451,866.95189"
             style="fill:#aa8b59;fill-opacity:1;fill-rule:evenodd;stroke:#000000;stroke-width:15;stroke-linecap:butt;stroke-linejoin:miter;stroke-miterlimit:4;stroke-dasharray:none;stroke-opacity:1" />
          <path
             sodipodi:nodetypes="csccccccccccccccccccc"
             id="path8486"
             d="M 168.76547,863.49608 C 182.98028,860.40599 347.2868,860.74933 351.88571,863.49608 C 356.48462,866.24282 354.39421,882.37994 354.39421,882.37994 L 335.58048,882.37994 L 335.70293,878.12475 L 314.38071,877.43806 L 315.09443,883.40996 L 293.7722,882.72328 L 293.89465,878.81144 L 275.49902,878.46809 L 276.21273,883.75331 L 251.54584,882.72328 L 251.6683,877.09472 L 231.18225,876.75138 L 230.64171,882.72328 L 208.06525,882.03659 L 207.35152,877.43806 L 189.37397,876.75138 L 189.25152,882.37994 L 166.67505,882.03659 L 168.76547,863.49608 z "
             style="fill:#f2ab2a;fill-opacity:1;fill-rule:evenodd;stroke:#000000;stroke-width:8;stroke-linecap:butt;stroke-linejoin:miter;stroke-miterlimit:4;stroke-dasharray:none;stroke-opacity:1" />
        </g>
        <path
           sodipodi:type="arc"
           style="fill:#f2ab2a;fill-opacity:1;stroke-width:10;stroke-miterlimit:4;stroke-dasharray:none"
           id="path4473"
           sodipodi:cx="304.28571"
           sodipodi:cy="824.50507"
           sodipodi:rx="28.571428"
           sodipodi:ry="15"
           d="M 332.85713 824.50507 A 28.571428 15 0 1 1  275.71428,824.50507 A 28.571428 15 0 1 1  332.85713 824.50507 z"
           transform="matrix(1.1335309,0.2337456,-0.2038959,1.2994766,120.33876,-315.90252)" />
      </g>
      <g
         inkscape:export-ydpi="8.3623056"
         inkscape:export-xdpi="8.3623056"
         inkscape:export-filename="/media/home/piers/Documents/Maryo/overworld/pngs/maryo_overworld_down_2b.png"
         id="g4495">
        <g
           id="g4483"
           transform="matrix(-1,0,0,1,706.62995,0)">
          <path
             style="fill:#aa8b59;fill-opacity:1;fill-rule:evenodd;stroke:#000000;stroke-width:15;stroke-linecap:butt;stroke-linejoin:miter;stroke-miterlimit:4;stroke-dasharray:none;stroke-opacity:1"
             d="M 167.37363,868.78351 C 167.37363,810.78206 177.85166,788.80256 257.48474,788.80256 C 337.11783,788.80256 351.78707,811.08733 351.78707,839.47752 C 351.78708,883.44075 351.78707,868.78352 351.78707,868.78352 L 166.95451,866.95189"
             id="path4485"
             sodipodi:nodetypes="csscc" />
          <path
             style="fill:#f2ab2a;fill-opacity:1;fill-rule:evenodd;stroke:#000000;stroke-width:8;stroke-linecap:butt;stroke-linejoin:miter;stroke-miterlimit:4;stroke-dasharray:none;stroke-opacity:1"
             d="M 168.76547,863.49608 C 182.98028,860.40599 347.2868,860.74933 351.88571,863.49608 C 356.48462,866.24282 354.39421,882.37994 354.39421,882.37994 L 335.58048,882.37994 L 335.70293,878.12475 L 314.38071,877.43806 L 315.09443,883.40996 L 293.7722,882.72328 L 293.89465,878.81144 L 275.49902,878.46809 L 276.21273,883.75331 L 251.54584,882.72328 L 251.6683,877.09472 L 231.18225,876.75138 L 230.64171,882.72328 L 208.06525,882.03659 L 207.35152,877.43806 L 189.37397,876.75138 L 189.25152,882.37994 L 166.67505,882.03659 L 168.76547,863.49608 z "
             id="path4487"
             sodipodi:nodetypes="csccccccccccccccccccc" />
        </g>
        <path
           transform="matrix(1.1335309,0.2337456,-0.2038959,1.2994766,307.43439,-317.92283)"
           d="M 332.85713 824.50507 A 28.571428 15 0 1 1  275.71428,824.50507 A 28.571428 15 0 1 1  332.85713 824.50507 z"
           sodipodi:ry="15"
           sodipodi:rx="28.571428"
           sodipodi:cy="824.50507"
           sodipodi:cx="304.28571"
           id="path4489"
           style="fill:#f2ab2a;fill-opacity:1;stroke-width:10;stroke-miterlimit:4;stroke-dasharray:none"
           sodipodi:type="arc" />
      </g>
    </g>
    <g
       id="g11308"
       transform="translate(-816.20325,0)"
       inkscape:export-filename="/media/home/piers/Documents/Maryo/overworld/pngs/64px/right_middle.png"
       inkscape:export-xdpi="6.9895005"
       inkscape:export-ydpi="6.9895005">
      <path
         inkscape:export-ydpi="14.9"
         inkscape:export-xdpi="14.9"
         inkscape:export-filename="/media/home/piers/Documents/Maryo/overworld/pngs/maryo_overworld_right_2b.png"
         sodipodi:open="true"
         sodipodi:end="6.3915684"
         sodipodi:start="3.002884"
         d="M 1076.0248,699.62089 A 127.27922,137.38075 0 1 1 1328.6139,695.48665"
         sodipodi:ry="137.38075"
         sodipodi:rx="127.27922"
         sodipodi:cy="680.62604"
         sodipodi:cx="1202.0815"
         id="path2288"
         style="fill:#0685b6;fill-opacity:1;stroke:#000000;stroke-width:10;stroke-miterlimit:4;stroke-dasharray:none;stroke-opacity:1;display:inline"
         sodipodi:type="arc" />
      <path
         style="fill:#ffffff;fill-rule:evenodd;stroke:#000000;stroke-width:0.51305038px;stroke-linecap:butt;stroke-linejoin:miter;stroke-opacity:1;display:inline"
         d="M 1289.8958,620.21786 C 1285.7038,632.33926 1281.5258,644.47371 1277.3252,656.58696 C 1282.0188,661.96547 1286.7008,667.37074 1291.3924,672.75421 C 1291.9464,663.18409 1292.513,653.61589 1293.072,644.0465 C 1294.4045,649.55314 1295.744,655.05529 1297.0716,660.56505 C 1298.5611,655.30887 1300.0243,650.033 1301.5029,644.76864 C 1302.4631,654.19662 1303.4225,663.62484 1304.3832,673.05266 C 1308.7625,670.49984 1313.152,667.99318 1317.5314,665.44105 C 1312.6983,649.68675 1307.8583,633.93805 1303.0174,618.19013 C 1301.1365,627.01387 1299.2732,635.8475 1297.3992,644.67517 C 1295.0865,635.97213 1292.7751,627.26832 1290.4618,618.56579 C 1290.2731,619.11648 1290.0844,619.66717 1289.8958,620.21786 z "
         id="path9150"
         inkscape:export-filename="/media/home/piers/Documents/Maryo/overworld/pngs/maryo_overworld_right_2b.png"
         inkscape:export-xdpi="14.9"
         inkscape:export-ydpi="14.9" />
      <path
         style="fill:#e86344;fill-opacity:1;fill-rule:evenodd;stroke:#000000;stroke-width:5.49668074;stroke-linecap:butt;stroke-linejoin:miter;stroke-miterlimit:4;stroke-dasharray:none;stroke-opacity:1;display:inline"
         d="M 1116.1813,589.81473 C 1110.8449,590.73533 1106.9691,594.01037 1115.024,593.87704 C 1167.5063,603.37359 1216.6714,627.66748 1258.4313,660.47098 C 1268.4811,637.77968 1279.9318,614.02478 1298.9626,597.50223 C 1237.9428,597.6466 1177.0813,592.70509 1116.1813,589.81473 z "
         id="path9347"
         inkscape:export-filename="/media/home/piers/Documents/Maryo/overworld/pngs/maryo_overworld_right_2b.png"
         inkscape:export-xdpi="14.9"
         inkscape:export-ydpi="14.9" />
      <g
         inkscape:export-ydpi="14.9"
         inkscape:export-xdpi="14.9"
         inkscape:export-filename="/media/home/piers/Documents/Maryo/overworld/pngs/maryo_overworld_right_2b.png"
         inkscape:transform-center-y="23.009389"
         inkscape:transform-center-x="52.207489"
         transform="matrix(0.9301561,0.3671642,-0.3671642,0.9301561,292.88502,-279.17266)"
         id="g9374"
         style="display:inline">
        <path
           style="fill:#c34831;fill-opacity:1;fill-rule:evenodd;stroke:#000000;stroke-width:6.99999952;stroke-linecap:butt;stroke-linejoin:miter;stroke-miterlimit:4;stroke-dasharray:none;stroke-opacity:1"
           d="M 951.72579,493.1801 C 916.78629,497.77014 912.59239,539.20811 898.97978,547.18787 C 885.36718,555.16764 889.85342,554.63668 889.85342,554.63668 C 889.85342,554.63668 933.30362,568.14548 950.8715,555.14853 C 968.43938,542.15159 979.28568,503.11066 972.63329,500.71363 C 965.9809,498.3166 953.9689,492.91463 951.72579,493.1801 z "
           id="path9353" />
        <path
           style="fill:#c34831;fill-opacity:1;fill-rule:evenodd;stroke:#000000;stroke-width:3;stroke-linecap:butt;stroke-linejoin:miter;stroke-miterlimit:4;stroke-dasharray:none;stroke-opacity:1"
           d="M 968.83193,499.3439 C 942.41938,503.20463 938.2393,522.131 931.72316,530.64355 C 926.54037,537.41425 918.41852,539.42839 918.41852,539.42839"
           id="path9355"
           sodipodi:nodetypes="csc" />
        <path
           id="path9366"
           d="M 964.1512,496.61141 C 936.59442,518.5764 954.39002,556.23288 946.8494,570.09357 C 939.30879,583.95426 942.87723,581.18398 942.87723,581.18398 C 942.87723,581.18398 987.06497,570.32805 995.40374,550.12865 C 1003.7425,529.92925 992.88194,490.89229 985.94693,492.27277 C 979.01192,493.65325 965.93542,495.22628 964.1512,496.61141 z "
           style="fill:#c34831;fill-opacity:1;fill-rule:evenodd;stroke:#000000;stroke-width:6.99999952;stroke-linecap:butt;stroke-linejoin:miter;stroke-miterlimit:4;stroke-dasharray:none;stroke-opacity:1" />
        <path
           sodipodi:nodetypes="csc"
           id="path9368"
           d="M 981.98407,493.06161 C 961.35425,510.00086 967.54259,528.3689 966.35514,539.02317 C 965.41066,547.49735 959.49383,553.41447 959.49383,553.41447"
           style="fill:#c34831;fill-opacity:1;fill-rule:evenodd;stroke:#000000;stroke-width:3;stroke-linecap:butt;stroke-linejoin:miter;stroke-miterlimit:4;stroke-dasharray:none;stroke-opacity:1" />
      </g>
      <path
         inkscape:export-ydpi="14.9"
         inkscape:export-xdpi="14.9"
         inkscape:export-filename="/media/home/piers/Documents/Maryo/overworld/pngs/maryo_overworld_right_2b.png"
         sodipodi:nodetypes="cssscssc"
         id="path6228"
         d="M 1386.1721,305.06665 C 1418.5516,357.054 1409.6472,386.25238 1412.0757,406.19273 C 1414.3896,425.19312 1451.9077,496.20349 1456.4035,510.53109 C 1465.6346,539.94888 1441.2012,599.48646 1279.3199,619.83936 C 1162.6857,634.50346 1118.8325,588.87513 1076.9587,522.11291 C 1060.2144,497.874 1052.3729,465.42015 1030.9811,429.79709 C 1007.4069,390.53954 985.0718,468.50129 989.1192,452.65835 C 993.1666,436.81541 1386.5769,304.3545 1386.1721,305.06665 z "
         style="opacity:1;fill:#fad6c1;fill-opacity:1;fill-rule:evenodd;stroke:#000000;stroke-width:15.94451714;stroke-linecap:butt;stroke-linejoin:miter;stroke-miterlimit:4;stroke-dasharray:none;stroke-opacity:1;display:inline" />
      <path
         inkscape:export-ydpi="14.9"
         inkscape:export-xdpi="14.9"
         inkscape:export-filename="/media/home/piers/Documents/Maryo/overworld/pngs/maryo_overworld_right_2b.png"
         sodipodi:nodetypes="ccsscsccc"
         id="path9242"
         d="M 1170.7143,401.82394 L 1178.5714,475.21933 C 1178.5714,475.21933 1137.1429,413.79075 1100,428.07646 C 1062.8572,442.36218 1047.8571,451.6479 1057.8571,490.93361 C 1067.8571,530.21933 1121.4286,583.07647 1121.4286,583.07647 C 1121.4286,583.07647 1133.5714,582.36218 1087.1428,585.21933 C 1031.5841,588.63835 987.85714,467.36218 987.85714,467.36218 L 1165,375.21933 L 1170.7143,401.82394 z "
         style="fill:#aa8b59;fill-opacity:1;fill-rule:evenodd;stroke:#000000;stroke-width:15;stroke-linecap:butt;stroke-linejoin:miter;stroke-miterlimit:4;stroke-dasharray:none;stroke-opacity:1;display:inline" />
      <path
         inkscape:export-ydpi="14.9"
         inkscape:export-xdpi="14.9"
         inkscape:export-filename="/media/home/piers/Documents/Maryo/overworld/pngs/maryo_overworld_right_2b.png"
         sodipodi:nodetypes="ccscsccccc"
         id="path9317"
         d="M 1298.5714,738.07647 L 1300,768.43361 C 1300,768.43361 1312.4348,769.74508 1330.3571,773.07647 C 1356.2314,777.88595 1366.4589,814.68923 1366.7245,833.45899 C 1363.3612,835.4773 1363.3696,832.11864 1363.3032,837.56433 C 1363.1868,846.8545 1368.2479,835.39376 1366.1147,851.45355 C 1357.3647,852.07855 1337.1862,851.09641 1337.1862,851.09641 L 1236.4719,845.73927 L 1238.5714,726.6479 L 1298.5714,738.07647 z "
         style="fill:#2b0000;fill-rule:evenodd;stroke:#000000;stroke-width:5;stroke-linecap:butt;stroke-linejoin:miter;stroke-miterlimit:4;stroke-dasharray:none;stroke-opacity:1;display:inline" />
      <path
         inkscape:export-ydpi="14.9"
         inkscape:export-xdpi="14.9"
         inkscape:export-filename="/media/home/piers/Documents/Maryo/overworld/pngs/maryo_overworld_right_2b.png"
         sodipodi:open="true"
         sodipodi:end="6.5410943"
         sodipodi:start="2.8459849"
         transform="matrix(1.551282,0,0,1.7391304,-312.88826,-582.61254)"
         d="M 904.47364,845.68576 A 78.791901,46.467018 0 1 1 1056.0339,844.00077"
         sodipodi:ry="46.467018"
         sodipodi:rx="78.791901"
         sodipodi:cy="832.14893"
         sodipodi:cx="979.84796"
         id="path2282"
         style="fill:#aa8b59;fill-opacity:1;stroke-width:5;stroke-miterlimit:4;stroke-dasharray:none;display:inline"
         sodipodi:type="arc" />
      <g
         transform="matrix(0.8545915,-0.1102837,0.1404508,1.287306,932.1887,-8.6712822)"
         id="g5228"
         style="display:inline"
         inkscape:export-filename="/media/home/piers/Documents/Maryo/overworld/pngs/maryo_overworld_right_2b.png"
         inkscape:export-xdpi="14.9"
         inkscape:export-ydpi="14.9">
        <path
           sodipodi:type="arc"
           style="fill:#000000;fill-opacity:1;fill-rule:nonzero;stroke-width:20;stroke-miterlimit:4;stroke-dasharray:none"
           id="path5230"
           sodipodi:cx="315.67267"
           sodipodi:cy="390.20718"
           sodipodi:rx="28.789347"
           sodipodi:ry="48.992397"
           d="M 344.46202 390.20718 A 28.789347 48.992397 0 1 1  286.88332,390.20718 A 28.789347 48.992397 0 1 1  344.46202 390.20718 z" />
        <path
           sodipodi:type="arc"
           style="fill:#ffffff;fill-opacity:1;fill-rule:nonzero;stroke-width:20;stroke-miterlimit:4;stroke-dasharray:none"
           id="path5232"
           sodipodi:cx="324.25897"
           sodipodi:cy="361.92291"
           sodipodi:rx="9.0913725"
           sodipodi:ry="9.5964489"
           d="M 333.35034 361.92291 A 9.0913725 9.5964489 0 1 1  315.1676,361.92291 A 9.0913725 9.5964489 0 1 1  333.35034 361.92291 z"
           transform="matrix(1,0,0,1.4736842,0,-170.9321)" />
      </g>
      <g
         inkscape:export-ydpi="14.9"
         inkscape:export-xdpi="14.9"
         inkscape:export-filename="/media/home/piers/Documents/Maryo/overworld/pngs/maryo_overworld_right_2b.png"
         style="display:inline"
         id="g5243"
         transform="matrix(0.6757562,-0.1368022,0.1473704,1.2033975,1100.4294,-7.4171669)">
        <path
           d="M 344.46202 390.20718 A 28.789347 48.992397 0 1 1  286.88332,390.20718 A 28.789347 48.992397 0 1 1  344.46202 390.20718 z"
           sodipodi:ry="48.992397"
           sodipodi:rx="28.789347"
           sodipodi:cy="390.20718"
           sodipodi:cx="315.67267"
           id="path5245"
           style="fill:#000000;fill-opacity:1;fill-rule:nonzero;stroke-width:20;stroke-miterlimit:4;stroke-dasharray:none"
           sodipodi:type="arc" />
        <path
           transform="matrix(1,0,0,1.4736842,0,-170.9321)"
           d="M 333.35034 361.92291 A 9.0913725 9.5964489 0 1 1  315.1676,361.92291 A 9.0913725 9.5964489 0 1 1  333.35034 361.92291 z"
           sodipodi:ry="9.5964489"
           sodipodi:rx="9.0913725"
           sodipodi:cy="361.92291"
           sodipodi:cx="324.25897"
           id="path5247"
           style="fill:#ffffff;fill-opacity:1;fill-rule:nonzero;stroke-width:20;stroke-miterlimit:4;stroke-dasharray:none"
           sodipodi:type="arc" />
      </g>
      <path
         style="fill:#e86344;fill-opacity:1;fill-rule:evenodd;stroke:#000000;stroke-width:14.99999905;stroke-linecap:butt;stroke-linejoin:miter;stroke-miterlimit:4;stroke-dasharray:none;stroke-opacity:1"
         d="M 1125.7499,235.6161 C 1076.7916,254.2204 1027.4543,273.5003 983.47223,302.2733 C 967.20397,312.82829 952.31691,326.87039 945.14423,345.14627 C 939.63701,356.43417 940.14912,369.33151 943.03328,381.20201 C 944.33661,392.60844 932.35302,399.12369 926.22747,407.1713 C 904.96034,429.54077 895.64884,474.60386 874.16354,496.77068 C 901.70678,507.53647 949.21442,484.57911 976.38344,495.7574 C 977.36189,519.33731 990.3997,547.58741 1023.3773,541.66263 C 1015.232,517.11967 994.65545,500.16361 1015.9539,471.97004 C 1037.0882,457.7906 1032.8352,463.48892 1056.1347,453.45386 C 1135.4106,421.47009 1216.4941,394.26772 1297.2245,366.25105 C 1327.557,356.50755 1357.7893,345.28337 1389.317,340.36331 C 1398.8038,338.41155 1408.0276,344.76767 1413.273,352.2005 C 1414.8079,354.99992 1411.9957,382.0796 1416.1928,379.08846 C 1425.8588,375.9512 1470.4443,352.30314 1437.3374,322.54529 C 1432.802,300.64457 1409.2928,265.73227 1383.0345,229.38107 C 1373.5682,216.8691 1362.5417,203.66374 1346.4233,200.28747 C 1307.5995,189.33978 1266.0933,196.08734 1227.2484,204.45198 C 1192.7175,212.36333 1158.9671,223.37432 1125.7499,235.6161 z "
         id="path9142"
         inkscape:export-filename="/media/home/piers/Documents/Maryo/overworld/pngs/maryo_overworld_right_2b.png"
         inkscape:export-xdpi="14.9"
         inkscape:export-ydpi="14.9"
         sodipodi:nodetypes="ccccccccccccccccccc" />
      <path
         style="fill:none;fill-rule:evenodd;stroke:#000000;stroke-width:10;stroke-linecap:butt;stroke-linejoin:miter;stroke-miterlimit:4;stroke-dasharray:none;stroke-opacity:1"
         d="M 944.13116,379.27621 C 947.33992,403.38683 951.58008,427.42395 957.17053,451.05888 C 962.33056,459.64187 960.87505,445.10271 959.4861,441.38259 C 955.37335,420.25657 952.29066,398.70822 947.53612,377.84534 C 944.92154,372.72229 945.38154,376.12551 944.13116,379.27621 z "
         id="path9144"
         inkscape:export-filename="/media/home/piers/Documents/Maryo/overworld/pngs/maryo_overworld_right_2b.png"
         inkscape:export-xdpi="14.9"
         inkscape:export-ydpi="14.9" />
      <path
         style="fill:#ffffff;fill-rule:evenodd;stroke:#000000;stroke-width:0.99999994px;stroke-linecap:butt;stroke-linejoin:miter;stroke-opacity:1"
         d="M 1015.9532,306.17281 C 1000.5067,322.21863 985.11896,338.32182 969.63557,354.33167 C 980.04772,363.9669 990.45067,373.61207 1000.8646,383.24537 C 1005.7357,370.11978 1010.5692,356.98025 1015.4254,343.84915 C 1016.769,351.94764 1018.1387,360.04183 1019.4616,368.14374 C 1025.1269,361.28887 1030.7497,354.39889 1036.3964,347.52871 C 1035.3746,361.00164 1034.3739,374.47621 1033.3384,387.9481 C 1045.9449,385.73266 1058.5631,383.58327 1071.1708,381.37427 C 1064.4243,356.59976 1057.6453,331.834 1050.8709,307.06706 C 1042.7917,318.99381 1034.7387,330.93831 1026.6699,342.87215 C 1023.9787,329.7229 1021.2462,316.58204 1018.5823,303.42725 C 1017.7059,304.34244 1016.8296,305.25762 1015.9532,306.17281 z "
         id="path9146"
         inkscape:export-filename="/media/home/piers/Documents/Maryo/overworld/pngs/maryo_overworld_right_2b.png"
         inkscape:export-xdpi="14.9"
         inkscape:export-ydpi="14.9" />
      <path
         style="fill:#ffffff;fill-rule:evenodd;stroke:#000000;stroke-width:0.77949601px;stroke-linecap:butt;stroke-linejoin:miter;stroke-opacity:1"
         d="M 1127.3303,249.99868 C 1106.1067,258.63559 1084.895,267.30213 1063.6638,275.92044 C 1066.5815,284.32457 1069.5788,292.70094 1072.5069,301.10149 C 1082.9851,293.59116 1093.4065,286.00157 1103.8625,278.46019 C 1100.5259,283.79571 1097.2029,289.1398 1093.829,294.4519 C 1101.669,290.85549 1109.4889,287.2155 1117.318,283.59556 C 1109.4712,291.90924 1101.5994,300.19934 1093.7707,308.53004 C 1105.5079,308.78629 1117.2444,309.09872 1128.9823,309.31798 C 1138.0152,291.05143 1147.0031,272.7624 1156.0826,254.51895 C 1143.0423,261.37539 1130.011,268.24912 1116.9745,275.11281 C 1122.2344,266.01083 1127.4753,256.89785 1132.7512,247.80513 C 1130.9442,248.53632 1129.1373,249.26749 1127.3303,249.99868 z "
         id="path9148"
         inkscape:export-filename="/media/home/piers/Documents/Maryo/overworld/pngs/maryo_overworld_right_2b.png"
         inkscape:export-xdpi="14.9"
         inkscape:export-ydpi="14.9" />
      <path
         style="fill:#ffffff;fill-rule:evenodd;stroke:#000000;stroke-width:0.69978529px;stroke-linecap:butt;stroke-linejoin:miter;stroke-opacity:1"
         d="M 1327.3209,228.59878 C 1334.7299,245.24697 1341.3986,262.52033 1349.2632,278.78378 C 1362.4068,286.77952 1374.7407,296.21004 1388.4828,303.14541 C 1383.0076,292.73482 1375.2797,283.72469 1368.7827,273.94936 C 1372.4624,277.36831 1378.7433,285.12919 1381.6475,284.78414 C 1381.9351,281.13635 1372.8126,267.36631 1378.623,274.40295 C 1386.9099,284.09188 1395.2052,293.77356 1403.4869,303.46694 C 1407.4922,299.51081 1411.4704,295.52744 1415.4626,291.55805 C 1392.2519,269.85837 1369.7926,247.21845 1346.2127,225.9995 C 1339.3333,221.04608 1347.518,234.2846 1349.1745,237.31549 C 1352.3176,242.93363 1355.4606,248.55176 1358.6036,254.16989 C 1347.4641,243.6989 1337.4386,231.96222 1325.4837,222.41761 C 1326.0961,224.478 1326.7085,226.53839 1327.3209,228.59878 z "
         id="path9152"
         inkscape:export-filename="/media/home/piers/Documents/Maryo/overworld/pngs/maryo_overworld_right_2b.png"
         inkscape:export-xdpi="14.9"
         inkscape:export-ydpi="14.9" />
      <path
         style="fill:#ffffff;fill-rule:evenodd;stroke:#000000;stroke-width:0.37226039px;stroke-linecap:butt;stroke-linejoin:miter;stroke-opacity:1"
         d="M 971.47379,400.47334 C 969.79189,408.01921 966.08657,415.79988 965.57528,423.21075 C 970.42277,431.35202 975.00781,439.65281 980.15188,447.6138 C 980.49929,443.83654 978.48456,429.02595 981.17464,439.39765 C 982.68778,442.27987 983.63644,427.38217 984.59741,439.64401 C 985.65363,445.27688 985.1353,452.53912 993.01565,450.80544 C 1001.7455,454.10374 998.0693,447.31321 996.15338,441.92818 C 991.3737,428.22628 987.57692,414.15921 982.03803,400.73936 C 980.43993,403.5146 980.8348,419.18439 979.01755,412.60335 C 977.13153,406.40526 975.24768,400.2065 973.35622,394.01007 C 972.72874,396.16449 972.10127,398.31892 971.47379,400.47334 z "
         id="path9154"
         inkscape:export-filename="/media/home/piers/Documents/Maryo/overworld/pngs/maryo_overworld_right_2b.png"
         inkscape:export-xdpi="14.9"
         inkscape:export-ydpi="14.9" />
      <path
         style="fill:#ffffff;fill-rule:evenodd;stroke:#000000;stroke-width:0.77026284px;stroke-linecap:butt;stroke-linejoin:miter;stroke-opacity:1"
         d="M 1142.5298,316.91247 C 1147.8032,324.63101 1153.0766,332.34956 1158.35,340.0681 C 1147.7396,337.71342 1137.1275,335.36612 1126.5183,333.00629 C 1133.8175,349.45209 1141.1253,365.89408 1148.4192,382.34221 C 1159.5066,378.48234 1170.5751,374.5677 1181.6547,370.68524 C 1173.8195,363.65391 1165.9962,356.60922 1158.1658,349.57254 C 1164.3315,351.15283 1170.4958,352.73815 1176.6628,354.31322 C 1173.5128,348.59707 1170.3757,342.87387 1167.2322,337.15416 C 1176.6161,341.89976 1185.9918,346.66163 1195.3808,351.39709 C 1198.154,342.07119 1200.9254,332.74462 1203.667,323.40938 C 1182.4069,319.98511 1161.1523,316.52428 1139.9011,313.04475 C 1140.7774,314.33399 1141.6536,315.62323 1142.5298,316.91247 z "
         id="path9156"
         inkscape:export-filename="/media/home/piers/Documents/Maryo/overworld/pngs/maryo_overworld_right_2b.png"
         inkscape:export-xdpi="14.9"
         inkscape:export-ydpi="14.9" />
      <path
         style="fill:none;fill-rule:evenodd;stroke:#000000;stroke-width:5;stroke-linecap:butt;stroke-linejoin:miter;stroke-miterlimit:4;stroke-dasharray:none;stroke-opacity:1"
         d="M 981.00411,489.33493 C 984.69081,474.32881 988.02008,454.13491 1001.1537,446.34566 C 1026.8102,431.12931 1105.2796,400.32395 1105.2796,400.32395"
         id="path9158"
         sodipodi:nodetypes="csc"
         inkscape:export-filename="/media/home/piers/Documents/Maryo/overworld/pngs/maryo_overworld_right_2b.png"
         inkscape:export-xdpi="14.9"
         inkscape:export-ydpi="14.9" />
      <path
         sodipodi:nodetypes="csc"
         id="path9160"
         d="M 1434.0933,326.65762 C 1424.0063,318.00145 1417.0444,306.52762 1399.7249,306.96023 C 1370.927,307.67956 1315.8213,329.79164 1315.8213,329.79164"
         style="fill:none;fill-rule:evenodd;stroke:#000000;stroke-width:4.14360285;stroke-linecap:butt;stroke-linejoin:miter;stroke-miterlimit:4;stroke-dasharray:none;stroke-opacity:1"
         inkscape:export-filename="/media/home/piers/Documents/Maryo/overworld/pngs/maryo_overworld_right_2b.png"
         inkscape:export-xdpi="14.9"
         inkscape:export-ydpi="14.9" />
      <g
         inkscape:export-ydpi="14.9"
         inkscape:export-xdpi="14.9"
         inkscape:export-filename="/media/home/piers/Documents/Maryo/overworld/pngs/maryo_overworld_right_2b.png"
         transform="translate(-6,0)"
         id="g9244">
        <path
           style="fill:#fad6c1;fill-opacity:1;fill-rule:nonzero;stroke:#000000;stroke-width:10;stroke-linecap:butt;stroke-linejoin:miter;stroke-miterlimit:4;stroke-dasharray:none;stroke-opacity:1"
           d="M 1129.5714,440.41252 C 1090.6871,431.09308 1071.4165,439.93718 1060.6946,452.76802 C 1052.1441,463.00014 1052.8045,510.16588 1067.8263,528.93496 C 1083.4754,548.4877 1117.0581,545.07184 1133.4687,530.927"
           id="path9193"
           sodipodi:nodetypes="cszs" />
        <path
           style="fill:#f7c8ac;fill-opacity:1;fill-rule:nonzero;stroke:#000000;stroke-width:0.87497646;stroke-linecap:butt;stroke-linejoin:miter;stroke-miterlimit:4;stroke-dasharray:none;stroke-opacity:1"
           d="M 1077.8739,459.59489 C 1065.8353,472.16176 1067.9409,494.53749 1075.9716,512.5246 C 1084.0024,530.5117 1112.821,528.75603 1128.567,513.5178 C 1127.5066,491.89696 1126.8795,477.70317 1125.9168,456.07849 C 1105.2676,450.45139 1082.3461,454.92646 1077.8739,459.59489 z "
           id="path9200"
           sodipodi:nodetypes="czccs" />
      </g>
      <path
         style="fill:#aa8b59;fill-opacity:1;fill-rule:evenodd;stroke:#000000;stroke-width:5.26718855;stroke-linecap:butt;stroke-linejoin:miter;stroke-miterlimit:4;stroke-dasharray:none;stroke-opacity:1;display:inline"
         d="M 1446.0036,224.48935 C 1429.5828,228.32215 1412.8104,232.33899 1397.6658,243.10787 C 1382.6873,256.19325 1372.7715,278.66642 1362.8287,299.80262 C 1353.1502,321.56221 1343.6538,343.63511 1334.9364,366.28135 C 1333.1397,371.82511 1336.61,367.92107 1337.8286,365.964 C 1352.9022,345.6618 1372.6993,337.05814 1391.2377,327.59932 C 1416.2558,317.7071 1442.4177,318.6145 1468.1034,318.29006 C 1460.696,301.73778 1449.1072,289.28017 1435.9257,287.42083 C 1426.2918,285.20474 1416.4919,284.5234 1406.7397,284.25222 C 1409.5528,272.08291 1413.5288,259.48998 1421.1394,252.83672 C 1430.3568,242.73876 1440.3086,234.24318 1449.6162,224.27957 C 1448.412,224.34949 1447.2078,224.41942 1446.0036,224.48935 z "
         id="path5212"
         inkscape:export-filename="/media/home/piers/Documents/Maryo/overworld/pngs/maryo_overworld_right_2b.png"
         inkscape:export-xdpi="14.9"
         inkscape:export-ydpi="14.9" />
      <path
         inkscape:export-ydpi="14.9"
         inkscape:export-xdpi="14.9"
         inkscape:export-filename="/media/home/piers/Documents/Maryo/overworld/pngs/maryo_overworld_right_2b.png"
         sodipodi:nodetypes="ccscscccccsc"
         id="path9249"
         d="M 1083.4146,693.52823 C 1144.1958,713.07035 1244.1088,719.57778 1303.4328,690.65939 C 1306.514,687.34359 1311.4739,677.42936 1319.5953,685.00639 C 1326.9796,691.89573 1311.514,703.40568 1311.514,703.40568 C 1311.514,703.40568 1312.6739,727.08266 1298.551,741.34034 C 1288.4495,751.53829 1276.9594,753.37875 1266.7312,757.50278 C 1270.6451,781.32478 1271.782,808.76802 1268.7515,810.03071 C 1211.1728,802.7071 1145.5129,827.70838 1097.0256,819.12208 C 1092.4799,818.617 1112.142,780.46145 1101.0662,745.38095 C 1094.8357,741.70263 1074.1865,726.45593 1075.2976,709.97527 C 1071.0515,700.63747 1065.039,702.72016 1067.0527,695.67109 C 1069.1956,688.1699 1076.5675,685.88912 1083.4146,693.52823 z "
         style="fill:#e86344;fill-opacity:1;fill-rule:evenodd;stroke:#000000;stroke-width:10;stroke-linecap:butt;stroke-linejoin:miter;stroke-miterlimit:4;stroke-dasharray:none;stroke-opacity:1" />
      <path
         inkscape:export-ydpi="14.9"
         inkscape:export-xdpi="14.9"
         inkscape:export-filename="/media/home/piers/Documents/Maryo/overworld/pngs/maryo_overworld_right_2b.png"
         id="path9292"
         d="M 1150,623.79075 C 1150,623.79075 1111.4286,655.21933 1114.2857,673.79075 C 1117.1429,692.36218 1167.1429,715.21933 1167.1429,715.21933 L 1181.4286,692.36218 C 1181.4286,692.36218 1144.2857,683.79076 1144.2857,669.50504 C 1144.2857,655.21932 1165.7143,642.36218 1165.7143,642.36218 L 1150,623.79075 z "
         style="fill:#fad6c1;fill-opacity:1;fill-rule:evenodd;stroke:#000000;stroke-width:5;stroke-linecap:butt;stroke-linejoin:miter;stroke-miterlimit:4;stroke-dasharray:none;stroke-opacity:1" />
      <path
         inkscape:export-ydpi="14.9"
         inkscape:export-xdpi="14.9"
         inkscape:export-filename="/media/home/piers/Documents/Maryo/overworld/pngs/maryo_overworld_right_2b.png"
         sodipodi:nodetypes="cccc"
         id="path9294"
         d="M 1191.7857,637.36218 L 1176.8977,672.66857 C 1176.8977,672.66857 1123.6625,650.56377 1092.0921,648.94304 C 1112.0396,628.1294 1120.3169,601.53586 1120.3169,601.53586"
         style="fill:#0685b6;fill-opacity:1;fill-rule:evenodd;stroke:#000000;stroke-width:10;stroke-linecap:butt;stroke-linejoin:miter;stroke-miterlimit:4;stroke-dasharray:none;stroke-opacity:1;display:inline" />
      <g
         inkscape:export-ydpi="14.9"
         inkscape:export-xdpi="14.9"
         inkscape:export-filename="/media/home/piers/Documents/Maryo/overworld/pngs/maryo_overworld_right_2b.png"
         id="g9397">
        <path
           style="fill:#ffffff;fill-rule:nonzero;stroke:#000000;stroke-width:7;stroke-linecap:butt;stroke-linejoin:miter;stroke-miterlimit:4;stroke-dasharray:none;stroke-opacity:1"
           d="M 1187.3427,672.84237 C 1187.3427,672.84237 1213.0901,671.14992 1222.9741,673.32347 C 1225.8651,664.07312 1224.1674,662.75605 1223.3738,659.76611 C 1221.3014,651.95751 1180.1173,643.08631 1166.4453,654.34514 C 1145.2959,671.76166 1134.2517,720.50408 1145.8535,733.04274 C 1157.4551,745.58146 1237.2598,775.96944 1253.405,765.0667 C 1272.6289,752.08487 1286.0798,683.25867 1274.8276,668.91674 C 1263.5753,654.57493 1243.5171,649.87369 1231.4092,654.43487 C 1222.5805,657.76075 1226.6875,664.40465 1223.0792,673.37889 C 1232.9446,675.44835 1239.8771,677.17014 1246.4705,681.49603 C 1253.6274,673.52858 1249.6159,665.2674 1249.6159,665.2674"
           id="path9251"
           sodipodi:nodetypes="ccssssssccc" />
        <path
           style="fill:#fad6c1;fill-opacity:1;fill-rule:evenodd;stroke:#000000;stroke-width:5;stroke-linecap:butt;stroke-linejoin:miter;stroke-miterlimit:4;stroke-dasharray:none;stroke-opacity:1"
           d="M 1185.6997,739.99877 C 1189.3027,748.41924 1211.3101,754.01079 1218.0373,751.36066 C 1224.3703,748.86581 1234.6105,708.36265 1231.1506,701.76447 C 1227.6765,695.13909 1202.7601,690.27154 1196.0341,694.21388 C 1188.4379,698.66621 1182.7322,733.06338 1185.6997,739.99877 z "
           id="path9253"
           sodipodi:nodetypes="cssss" />
        <path
           style="fill:none;fill-rule:evenodd;stroke:#000000;stroke-width:5;stroke-linecap:butt;stroke-linejoin:miter;stroke-miterlimit:4;stroke-dasharray:none;stroke-opacity:1"
           d="M 1246.3603,742.06315 C 1257.2346,744.66118 1264.793,748.76602 1268.4111,739.12072"
           id="path9269" />
        <path
           id="path9271"
           d="M 1253.7832,710.99374 C 1264.6575,713.59178 1272.2159,717.69662 1275.834,708.05132"
           style="fill:none;fill-rule:evenodd;stroke:#000000;stroke-width:5;stroke-linecap:butt;stroke-linejoin:miter;stroke-miterlimit:4;stroke-dasharray:none;stroke-opacity:1" />
      </g>
      <g
         inkscape:export-ydpi="14.9"
         inkscape:export-xdpi="14.9"
         inkscape:export-filename="/media/home/piers/Documents/Maryo/overworld/pngs/maryo_overworld_right_2b.png"
         id="g9299"
         transform="matrix(-1.3359956,0,0,1,1565.9203,0.4881926)">
        <path
           style="fill:#aa8b59;fill-opacity:1;fill-rule:evenodd;stroke:#000000;stroke-width:15;stroke-linecap:butt;stroke-linejoin:miter;stroke-miterlimit:4;stroke-dasharray:none;stroke-opacity:1"
           d="M 167.37363,868.78351 C 167.37363,802.21063 189.13788,785.01922 257.48474,788.80256 C 347.81077,793.80256 351.25242,798.23019 351.78707,839.47752 C 352.36687,883.43393 351.78707,868.78352 351.78707,868.78352 L 166.95451,866.95189"
           id="path9301"
           sodipodi:nodetypes="csscc" />
        <path
           style="fill:#f2ab2a;fill-opacity:1;fill-rule:evenodd;stroke:#000000;stroke-width:8.06454468;stroke-linecap:butt;stroke-linejoin:miter;stroke-miterlimit:4;stroke-dasharray:none;stroke-opacity:1"
           d="M 164.55717,869.95467 C 179.05045,866.87485 346.57572,867.21705 351.26472,869.95467 C 355.95372,872.69228 353.82236,888.77577 353.82236,888.77577 L 334.64007,888.77577 L 334.76492,884.53472 L 313.025,883.85032 L 313.7527,889.80237 L 292.01277,889.11797 L 292.13762,885.21913 L 273.38162,884.87692 L 274.10931,890.14458 L 248.9592,889.11797 L 249.08406,883.50812 L 228.19669,883.16592 L 227.64556,889.11797 L 204.62683,888.43356 L 203.89912,883.85032 L 185.56939,883.16592 L 185.44454,888.77577 L 162.4258,888.43356 L 164.55717,869.95467 z "
           id="path9303"
           sodipodi:nodetypes="csccccccccccccccccccc" />
      </g>
      <path
         inkscape:export-ydpi="14.9"
         inkscape:export-xdpi="14.9"
         inkscape:export-filename="/media/home/piers/Documents/Maryo/overworld/pngs/maryo_overworld_right_2b.png"
         transform="matrix(1.0063139,0.4143351,-0.3189096,1.1271714,1251.6134,-227.60467)"
         d="M 332.85713 824.50507 A 28.571428 15 0 1 1  275.71428,824.50507 A 28.571428 15 0 1 1  332.85713 824.50507 z"
         sodipodi:ry="15"
         sodipodi:rx="28.571428"
         sodipodi:cy="824.50507"
         sodipodi:cx="304.28571"
         id="path9305"
         style="fill:#f2ab2a;fill-opacity:1;stroke-width:10;stroke-miterlimit:4;stroke-dasharray:none"
         sodipodi:type="arc" />
      <path
         inkscape:export-ydpi="14.9"
         inkscape:export-xdpi="14.9"
         inkscape:export-filename="/media/home/piers/Documents/Maryo/overworld/pngs/maryo_overworld_right_2b.png"
         sodipodi:nodetypes="czcsc"
         id="path9311"
         d="M 1101.9643,851.11218 C 1101.9643,851.11218 1128.1026,854.86508 1134.6428,848.07647 C 1141.5402,840.9307 1138.2143,800.04075 1138.2143,800.04075 C 1138.2143,800.04075 1111.25,808.25504 1105.5357,814.68361 C 1099.8214,821.11218 1101.9643,849.68361 1101.9643,851.11218 z "
         style="fill:#83735b;fill-opacity:1;fill-rule:evenodd;stroke:#000000;stroke-width:5;stroke-linecap:butt;stroke-linejoin:miter;stroke-miterlimit:4;stroke-dasharray:none;stroke-opacity:1" />
      <path
         inkscape:export-ydpi="14.9"
         inkscape:export-xdpi="14.9"
         inkscape:export-filename="/media/home/piers/Documents/Maryo/overworld/pngs/maryo_overworld_right_2b.png"
         sodipodi:nodetypes="cscsc"
         id="path9332"
         d="M 1277.9851,545.2656 C 1293.6425,555.11459 1332.5333,570.51942 1344.6552,564.4585 C 1356.777,558.39759 1364.8582,545.2656 1364.8582,545.2656 C 1364.8582,545.2656 1356.1919,564.3326 1345.9179,571.02449 C 1328.0029,582.69333 1277.9851,544.25545 1277.9851,545.2656 z "
         style="fill:#000000;fill-opacity:1;fill-rule:evenodd;stroke:#000000;stroke-width:1px;stroke-linecap:butt;stroke-linejoin:miter;stroke-opacity:1" />
      <path
         inkscape:export-ydpi="14.9"
         inkscape:export-xdpi="14.9"
         inkscape:export-filename="/media/home/piers/Documents/Maryo/overworld/pngs/maryo_overworld_right_2b.png"
         id="path9351"
         d="M 1215.9643,252.56624 C 1219.558,286.24086 1223.2423,319.89829 1226.7789,353.58382 C 1242.3846,350.02539 1257.9926,346.48749 1273.5978,342.92507 C 1265.3547,324.75698 1257.0737,306.62125 1248.8156,288.46599 C 1256.8723,294.42271 1264.9429,300.3439 1272.9883,306.32883 C 1270.8155,293.07038 1268.5826,279.83042 1266.3835,266.58012 C 1277.562,280.42395 1288.7563,294.24384 1299.9246,308.10326 C 1306.5826,290.80309 1313.3069,273.55064 1319.9714,256.25506 C 1293.5243,241.21667 1267.0627,226.22572 1240.6033,211.22811 C 1245.5982,232.14905 1250.6267,253.05497 1255.635,273.97 C 1242.2056,264.91383 1228.7555,255.91539 1215.3398,246.82106 C 1215.548,248.73615 1215.7561,250.65113 1215.9643,252.56624 z "
         style="fill:#ffffff;fill-rule:evenodd;stroke:#000000;stroke-width:1.30537629px;stroke-linecap:butt;stroke-linejoin:miter;stroke-opacity:1" />
    </g>
  </g>
</svg>
