<?xml version="1.0" encoding="UTF-8" standalone="no"?>
<!-- Created with Inkscape (http://www.inkscape.org/) -->
<svg
   xmlns:dc="http://purl.org/dc/elements/1.1/"
   xmlns:cc="http://web.resource.org/cc/"
   xmlns:rdf="http://www.w3.org/1999/02/22-rdf-syntax-ns#"
   xmlns:svg="http://www.w3.org/2000/svg"
   xmlns="http://www.w3.org/2000/svg"
   xmlns:xlink="http://www.w3.org/1999/xlink"
   xmlns:sodipodi="http://sodipodi.sourceforge.net/DTD/sodipodi-0.dtd"
   xmlns:inkscape="http://www.inkscape.org/namespaces/inkscape"
   width="744.09448819"
   height="1052.3622047"
   id="svg2"
   sodipodi:version="0.32"
   inkscape:version="0.45.1"
   sodipodi:docbase="/media/home/piers/Documents/Maryo/overworld/svgs"
   sodipodi:docname="mario_overworld_down_3.b.svg"
   inkscape:output_extension="org.inkscape.output.svg.inkscape"
   inkscape:export-filename="/media/home/piers/Documents/Maryo/overworld/pngs/maryo_overworld_down_1b.png"
   inkscape:export-xdpi="8.3623056"
   inkscape:export-ydpi="8.3623056">
  <defs
     id="defs4">
    <linearGradient
       id="linearGradient8392">
      <stop
         id="stop8394"
         offset="0"
         style="stop-color:#670200;stop-opacity:1;" />
      <stop
         id="stop8398"
         offset="1"
         style="stop-color:#e86344;stop-opacity:1;" />
    </linearGradient>
    <linearGradient
       id="linearGradient8317">
      <stop
         style="stop-color:#0071ff;stop-opacity:1;"
         offset="0"
         id="stop8319" />
      <stop
         style="stop-color:#001796;stop-opacity:1;"
         offset="1"
         id="stop8321" />
    </linearGradient>
    <linearGradient
       id="linearGradient8179">
      <stop
         style="stop-color:#ff3600;stop-opacity:1;"
         offset="0"
         id="stop8181" />
      <stop
         id="stop8187"
         offset="0.62962961"
         style="stop-color:#b31c00;stop-opacity:1;" />
      <stop
         style="stop-color:#670200;stop-opacity:1;"
         offset="1"
         id="stop8183" />
    </linearGradient>
    <linearGradient
       id="linearGradient8154">
      <stop
         style="stop-color:#8a3e00;stop-opacity:1;"
         offset="0"
         id="stop8156" />
      <stop
         style="stop-color:#4f1000;stop-opacity:1;"
         offset="1"
         id="stop8158" />
    </linearGradient>
    <linearGradient
       id="linearGradient3151">
      <stop
         style="stop-color:#fad6c1;stop-opacity:1;"
         offset="0"
         id="stop3153" />
      <stop
         style="stop-color:#f7c8ac;stop-opacity:1;"
         offset="1"
         id="stop3155" />
    </linearGradient>
    <linearGradient
       inkscape:collect="always"
       xlink:href="#linearGradient3151"
       id="linearGradient8350"
       gradientUnits="userSpaceOnUse"
       x1="157.1041"
       y1="650.32147"
       x2="203.52036"
       y2="650.32147"
       gradientTransform="matrix(0.9652748,0,0,0.8208567,2.3470567,121.55149)" />
    <linearGradient
       inkscape:collect="always"
       xlink:href="#linearGradient3151"
       id="linearGradient8421"
       gradientUnits="userSpaceOnUse"
       gradientTransform="matrix(0.9652748,0,0,0.8208567,350.84968,121.55149)"
       x1="157.1041"
       y1="650.32147"
       x2="203.52036"
       y2="650.32147" />
    <linearGradient
       inkscape:collect="always"
       xlink:href="#linearGradient8154"
       id="linearGradient8507"
       gradientUnits="userSpaceOnUse"
       gradientTransform="matrix(1.1735401,0,0,0.8547583,-47.21657,106.64003)"
       x1="261.25"
       y1="797.6629"
       x2="261.25"
       y2="874.44855" />
    <linearGradient
       inkscape:collect="always"
       xlink:href="#linearGradient8154"
       id="linearGradient8519"
       gradientUnits="userSpaceOnUse"
       gradientTransform="matrix(1.1735401,0,0,0.8547583,-47.21657,106.64003)"
       x1="261.25"
       y1="797.6629"
       x2="261.25"
       y2="874.44855" />
    <radialGradient
       inkscape:collect="always"
       xlink:href="#linearGradient8392"
       id="radialGradient4567"
       gradientUnits="userSpaceOnUse"
       gradientTransform="matrix(0.8793372,-0.46391,0.2150786,0.4116919,-125.27232,599.78142)"
       cx="351.85764"
       cy="777.81384"
       fx="351.85764"
       fy="777.81384"
       r="78.178574" />
    <radialGradient
       inkscape:collect="always"
       xlink:href="#linearGradient8392"
       id="radialGradient4823"
       gradientUnits="userSpaceOnUse"
       gradientTransform="matrix(0.8793372,-0.46391,0.2150786,0.4116919,-125.27232,599.78142)"
       cx="351.85764"
       cy="777.81384"
       fx="351.85764"
       fy="777.81384"
       r="78.178574" />
    <radialGradient
       inkscape:collect="always"
       xlink:href="#linearGradient8392"
       id="radialGradient4863"
       gradientUnits="userSpaceOnUse"
       gradientTransform="matrix(0.9401522,0.3233577,-0.1528402,0.4386216,146.28074,302.38901)"
       cx="351.85764"
       cy="777.81384"
       fx="351.85764"
       fy="777.81384"
       r="78.178574" />
  </defs>
  <sodipodi:namedview
     id="base"
     pagecolor="#ffffff"
     bordercolor="#666666"
     borderopacity="1.0"
     gridtolerance="10000"
     guidetolerance="10"
     objecttolerance="10"
     inkscape:pageopacity="0.0"
     inkscape:pageshadow="2"
     inkscape:zoom="0.7"
     inkscape:cx="423.99753"
     inkscape:cy="545.91695"
     inkscape:document-units="px"
     inkscape:current-layer="layer11"
     inkscape:window-width="1063"
     inkscape:window-height="940"
     inkscape:window-x="217"
     inkscape:window-y="84" />
  <metadata
     id="metadata7">
    <rdf:RDF>
      <cc:Work
         rdf:about="">
        <dc:format>image/svg+xml</dc:format>
        <dc:type
           rdf:resource="http://purl.org/dc/dcmitype/StillImage" />
      </cc:Work>
    </rdf:RDF>
  </metadata>
  <g
     inkscape:label="Layer 1"
     inkscape:groupmode="layer"
     id="layer1"
     style="display:none">
    <image
       y="112.68437"
       x="-2.8775516"
       id="image2167"
       height="826.40118"
       width="734.57886"
       sodipodi:absref="/media/home/piers/Desktop/maryo_overworld_small.jpg"
       xlink:href="/media/home/piers/Desktop/maryo_overworld_small.jpg" />
  </g>
  <g
     inkscape:groupmode="layer"
     id="layer12"
     inkscape:label="hand behind body" />
  <g
     inkscape:groupmode="layer"
     id="layer6"
     inkscape:label="hands"
     style="display:inline" />
  <g
     inkscape:groupmode="layer"
     id="layer7"
     inkscape:label="shirt"
     style="display:inline" />
  <g
     inkscape:groupmode="layer"
     id="layer9"
     inkscape:label="pants"
     style="display:inline" />
  <g
     inkscape:groupmode="layer"
     id="layer8"
     inkscape:label="scarf" />
  <g
     inkscape:groupmode="layer"
     id="layer2"
     inkscape:label="face"
     style="display:inline" />
  <g
     inkscape:groupmode="layer"
     id="layer3"
     inkscape:label="hair below headband"
     style="display:inline" />
  <g
     inkscape:groupmode="layer"
     id="layer4"
     inkscape:label="headband"
     style="display:inline" />
  <g
     inkscape:groupmode="layer"
     id="layer5"
     inkscape:label="hair above headband"
     style="display:inline">
    <image
       y="64.933578"
       x="919.71429"
       id="image3453"
       height="900.57141"
       width="900.57141"
       sodipodi:absref="/media/home/piers/Desktop/walk_right_2.png"
       xlink:href="/media/home/piers/Desktop/walk_right_2.png"
       style="fill:#fad6c1;fill-opacity:1" />
  </g>
  <g
     inkscape:groupmode="layer"
     id="layer10"
     inkscape:label="shoes" />
  <g
     inkscape:groupmode="layer"
     id="layer11"
     inkscape:label="hands above feet">
    <g
       id="g2293"
       inkscape:export-filename="/media/home/piers/Documents/Maryo/overworld/svgs/64px/down_right.png"
       inkscape:export-xdpi="7.0460992"
       inkscape:export-ydpi="7.0460992">
      <g
         transform="matrix(0.6572004,2.3902654e-2,-3.5906363e-2,0.6214966,296.72233,292.58997)"
         id="g4457">
        <path
           style="fill:#aa8b59;fill-opacity:1;fill-rule:evenodd;stroke:#000000;stroke-width:15;stroke-linecap:butt;stroke-linejoin:miter;stroke-miterlimit:4;stroke-dasharray:none;stroke-opacity:1"
           d="M 167.37363,868.78351 C 167.37363,810.78206 177.85166,788.80256 257.48474,788.80256 C 337.11783,788.80256 351.78707,811.08733 351.78707,839.47752 C 351.78708,883.44075 351.78707,868.78352 351.78707,868.78352 L 166.95451,866.95189"
           id="path8484"
           sodipodi:nodetypes="csscc" />
        <path
           style="fill:#f2ab2a;fill-opacity:1;fill-rule:evenodd;stroke:#000000;stroke-width:8;stroke-linecap:butt;stroke-linejoin:miter;stroke-miterlimit:4;stroke-dasharray:none;stroke-opacity:1"
           d="M 168.76547,863.49608 C 182.98028,860.40599 347.2868,860.74933 351.88571,863.49608 C 356.48462,866.24282 354.39421,882.37994 354.39421,882.37994 L 335.58048,882.37994 L 335.70293,878.12475 L 314.38071,877.43806 L 315.09443,883.40996 L 293.7722,882.72328 L 293.89465,878.81144 L 275.49902,878.46809 L 276.21273,883.75331 L 251.54584,882.72328 L 251.6683,877.09472 L 231.18225,876.75138 L 230.64171,882.72328 L 208.06525,882.03659 L 207.35152,877.43806 L 189.37397,876.75138 L 189.25152,882.37994 L 166.67505,882.03659 L 168.76547,863.49608 z "
           id="path8486"
           sodipodi:nodetypes="csccccccccccccccccccc" />
      </g>
      <g
         inkscape:transform-center-x="14.285714"
         inkscape:transform-center-y="27.142857"
         transform="matrix(0.7004941,-0.2976674,0.2976674,0.7004941,-115.80253,224.64596)"
         id="g4449"
         style="display:inline">
        <path
           sodipodi:nodetypes="ccsssssscc"
           id="path4451"
           d="M 161.24596,684.29024 C 158.0593,697.80813 155.64265,712.67837 162.08701,724.08956 C 169.36395,728.73025 194.01308,730.42712 198.95714,723.55398 C 203.9012,716.68085 201.22525,656.781 192.8373,652.34327 C 184.44937,647.90554 122.72924,648.15863 113.45205,667.76327 C 104.17486,687.36792 92.439758,742.90454 112.42045,763.93068 C 135.31886,788.02721 196.0781,784.46858 210.30979,770.61772 C 224.54149,756.76685 234.88371,681.40089 223.97039,676.96524 C 213.05707,672.5296 201.34031,673.75147 201.34031,673.75147 L 201.03692,673.34766"
           style="fill:#ffffff;fill-opacity:1;fill-rule:nonzero;stroke:#000000;stroke-width:12;stroke-linecap:butt;stroke-linejoin:miter;stroke-miterlimit:4;stroke-dasharray:none;stroke-opacity:1" />
        <path
           sodipodi:nodetypes="csscsc"
           id="path4453"
           d="M 110.53435,681.95834 C 126.09462,686.69318 128.21724,688.25716 129.43284,692.39779 C 130.64846,696.5384 130.47267,728.25735 124.61638,731.39367 C 118.76009,734.52999 103.81075,735.65353 103.81075,735.65353 C 103.81075,735.65353 102.89434,726.86595 104.6979,709.08577 C 106.50148,691.30559 109.82716,681.85791 110.53435,681.95834 z "
           style="fill:#ffb3a0;fill-opacity:1;fill-rule:evenodd;stroke:#000000;stroke-width:4;stroke-linecap:butt;stroke-linejoin:miter;stroke-miterlimit:4;stroke-dasharray:none;stroke-opacity:1" />
      </g>
      <path
         inkscape:transform-center-x="-0.041187746"
         inkscape:transform-center-y="7.7966519"
         style="fill:#fad6c1;fill-opacity:1;fill-rule:evenodd;stroke:#000000;stroke-width:10;stroke-linecap:butt;stroke-linejoin:miter;stroke-miterlimit:4;stroke-dasharray:none;stroke-opacity:1;display:inline"
         d="M 201.03754,574.39986 C 186.08264,577.36245 171.12772,580.32505 156.17281,583.28765 C 162.30329,613.14473 171.75366,670.26699 181.26142,680.02471 C 190.90086,689.91761 214.28868,685.94183 219.56262,670.8874 C 224.5113,656.76145 208.79896,602.57642 201.38689,575.52124 L 201.12781,574.68609 L 201.03755,574.39989 L 201.03754,574.39986 z "
         id="path4447"
         sodipodi:nodetypes="cczzcccc" />
      <path
         inkscape:transform-center-x="4.1587076"
         inkscape:transform-center-y="25.007017"
         sodipodi:nodetypes="cczzcccc"
         id="path4455"
         d="M 156.60458,659.85178 C 177.85014,657.67636 199.09572,655.50093 220.34131,653.32551 C 218.96261,636.14232 219.45521,603.19876 208.69453,597.80986 C 197.78483,592.34631 166.11321,594.18173 155.89281,604.05534 C 146.31114,613.3119 154.48087,642.87302 156.38917,659.21001 L 156.54809,659.68801 L 156.60458,659.85176 L 156.60458,659.85178 z "
         style="fill:#0685b6;fill-opacity:1;fill-rule:evenodd;stroke:#000000;stroke-width:8.89999104;stroke-linecap:butt;stroke-linejoin:miter;stroke-miterlimit:4;stroke-dasharray:none;stroke-opacity:1;display:inline" />
      <path
         inkscape:export-ydpi="8.3623056"
         inkscape:export-xdpi="8.3623056"
         inkscape:export-filename="/media/home/piers/Documents/Maryo/overworld/pngs/maryo_overworld_down_2b.png"
         id="rect8325"
         d="M 206.75,591.71875 C 206.75,634.14583 206.75,676.57292 206.75,719 C 304.5,719 402.25,719 500,719 C 500,675.90625 500,632.8125 500,589.71875 C 402.25,589.71875 304.5,589.71875 206.75,589.71875 L 206.75,590.71875 L 206.75,591.71875 z "
         style="opacity:1;fill:#0685b6;fill-opacity:1;fill-rule:nonzero;stroke:#000000;stroke-width:10.09475994;stroke-miterlimit:4;stroke-dasharray:none;stroke-opacity:1;display:inline" />
      <g
         transform="matrix(0.9991915,-4.020355e-2,4.020355e-2,0.9991915,-29.919879,14.550792)"
         id="g4856"
         style="display:inline">
        <g
           style="display:inline"
           id="g4819"
           transform="matrix(0.9998884,-1.4941103e-2,1.4941103e-2,0.9998884,-11.249477,5.5122089)">
          <path
             inkscape:export-ydpi="8.3623056"
             inkscape:export-xdpi="8.3623056"
             inkscape:export-filename="/media/home/piers/Documents/Maryo/overworld/pngs/maryo_overworld_down_2b.png"
             id="path8364"
             d="M 201.96875,679.78125 C 194.39843,680.48784 183.71945,682.27778 182.59375,691.5 C 180.39527,699.68018 185.22489,709.35761 194,710.71875 C 199.35358,710.36716 196.00728,716.9019 196.8136,720.31227 C 196.76055,750.60915 195.51159,781.07346 198.59375,811.25 C 198.41277,817.39484 204.88738,818.89802 209.70755,819.368 C 244.8816,823.19591 280.45459,821.35845 315.74851,820.03919 C 327.64603,818.90183 340.11503,819.61143 351.5625,816.1875 C 356.35777,810.6411 354.37971,802.0791 355.0161,795.28136 C 355.39433,784.98805 353.36284,773.98264 355.21875,764.0625 C 359.19092,766.79944 356.79853,773.20511 357.48276,777.2811 C 357.71504,789.89529 354.79674,803.12073 358.125,815.40625 C 361.56144,820.56917 369.29881,819.31491 374.625,820.5625 C 411.60984,822.86709 448.8651,821.8223 485.71875,818.25 C 493.51822,817.92632 502.73755,815.0984 504.71875,806.5 C 509.00437,787.84246 506.24464,768.14423 506.62873,749.09504 C 506.70757,733.8156 505.55056,718.32068 506.4375,703.15625 C 511.58247,700.00764 515.69479,693.40124 512,687.5625 C 509.56326,681.20238 501.08839,678.91006 496.03125,683.6875 C 493.08776,686.27824 490.98586,689.9858 486.4375,689.4375 C 444.85635,693.422 402.81524,692.44117 361.03149,692.45074 C 315.53795,691.6691 269.77565,691.61814 224.57645,686.48977 C 220.54379,685.94408 216.33425,685.44647 213.78125,682.03125 C 210.31394,679.82736 205.97948,679.53694 201.96875,679.78125 z "
             style="opacity:1;fill:#e86344;fill-opacity:1;fill-rule:evenodd;stroke:#000000;stroke-width:15;stroke-linecap:butt;stroke-linejoin:miter;stroke-miterlimit:4;stroke-dasharray:none;stroke-opacity:1" />
          <path
             sodipodi:nodetypes="cccccccc"
             inkscape:export-ydpi="8.3623056"
             inkscape:export-xdpi="8.3623056"
             inkscape:export-filename="/media/home/piers/Documents/Maryo/overworld/pngs/maryo_overworld_down_2b.png"
             id="path8402"
             d="M 308.17591,699.85415 C 303.55094,724.33022 288.81339,730.17904 284.22947,754.6627 C 324.3607,750.39834 365.87908,760.57871 400.80938,780.56918 C 407.45272,783.84623 412.30811,789.66218 418.22403,793.73084 C 425.53694,796.29233 430.08074,787.72561 432.71447,782.34225 C 440.69961,764.37867 401.14954,755.24656 404.72782,735.97515 C 354.79861,720.50383 357.56207,718.62771 307.63182,703.15974 C 291.08105,717.67522 308.32224,699.12554 308.17591,699.85415 z "
             style="fill:url(#radialGradient4863);fill-opacity:1;fill-rule:evenodd;stroke:none;stroke-width:1px;stroke-linecap:butt;stroke-linejoin:miter;stroke-opacity:1" />
        </g>
        <path
           style="fill:none;fill-rule:evenodd;stroke:#000000;stroke-width:5;stroke-linecap:butt;stroke-linejoin:miter;stroke-miterlimit:4;stroke-dasharray:none;stroke-opacity:1;display:inline"
           d="M 196.97975,713.19603 C 229.30463,723.29755 247.48737,721.27725 247.48737,721.27725"
           id="path8374"
           inkscape:export-filename="/media/home/piers/Documents/Maryo/overworld/maryo_overworld_beta.png"
           inkscape:export-xdpi="8.3623056"
           inkscape:export-ydpi="8.3623056" />
        <path
           inkscape:export-ydpi="8.3623056"
           inkscape:export-xdpi="8.3623056"
           inkscape:export-filename="/media/home/piers/Documents/Maryo/overworld/maryo_overworld_beta.png"
           id="path4445"
           d="M 502.05889,701.76747 C 469.73401,711.86899 451.55127,709.84869 451.55127,709.84869"
           style="fill:none;fill-rule:evenodd;stroke:#000000;stroke-width:5;stroke-linecap:butt;stroke-linejoin:miter;stroke-miterlimit:4;stroke-dasharray:none;stroke-opacity:1;display:inline" />
      </g>
      <path
         inkscape:export-ydpi="8.3623056"
         inkscape:export-xdpi="8.3623056"
         inkscape:export-filename="/media/home/piers/Documents/Maryo/overworld/pngs/maryo_overworld_down_2b.png"
         id="path8353"
         d="M 299.9375,609.09375 C 294.60105,610.01435 290.72525,613.28939 298.78021,613.15606 C 351.26243,622.65261 400.42754,646.9465 442.1875,679.75 C 452.23723,657.0587 463.68798,633.3038 482.71875,616.78125 C 421.69892,616.92562 360.8375,611.98411 299.9375,609.09375 z "
         style="fill:#e86344;fill-opacity:1;fill-rule:evenodd;stroke:#000000;stroke-width:5.49668074;stroke-linecap:butt;stroke-linejoin:miter;stroke-miterlimit:4;stroke-dasharray:none;stroke-opacity:1" />
      <path
         inkscape:transform-center-x="-14.285714"
         inkscape:transform-center-y="-132.85714"
         inkscape:export-ydpi="8.3623056"
         inkscape:export-xdpi="8.3623056"
         inkscape:export-filename="/media/home/piers/Documents/Maryo/overworld/pngs/maryo_overworld_down_2b.png"
         id="path3165"
         d="M 556.51389,275.65573 C 402.07229,299.08179 247.6286,322.49427 93.188311,345.92884 C 91.991497,377.15812 90.600193,408.38449 89.877246,439.62796 C 78.653616,440.36484 66.604211,444.16078 59.389186,453.11937 C 56.361719,466.78092 59.265728,481.13093 60.574945,494.91896 C 63.068479,508.15205 64.083002,522.70012 72.013167,533.98326 C 79.398871,540.30371 90.379745,538.70027 99.411493,539.3507 C 105.11701,540.12283 112.46472,536.21348 115.89322,542.5599 C 147.52685,573.7114 183.43059,601.81985 224.90861,618.38653 C 263.93931,633.83421 306.95939,631.66897 347.79326,625.79116 C 393.83723,619.15837 441.90209,616.67081 484.61756,596.87573 C 512.04561,583.87257 532.18205,559.81057 549.95483,535.93739 C 562.29824,518.84396 572.90353,500.19976 581.77487,481.27021 C 596.49774,480.31619 613.75084,478.31705 623.47996,466.03234 C 627.9326,457.26882 625.58271,446.70688 625.39469,437.24463 C 623.2555,417.79002 621.27155,397.80847 613.68134,379.71135 C 610.599,372.60865 601.30161,374.2861 595.05658,373.22801 C 589.34603,372.95699 583.6575,372.82559 577.94148,372.95552 C 571.42766,340.42808 564.91411,307.90059 558.40012,275.37319 L 557.41116,275.52133 L 556.51389,275.65573 z "
         style="fill:#fad6c1;fill-opacity:1;fill-rule:evenodd;stroke:#000000;stroke-width:19.99999809;stroke-linecap:butt;stroke-linejoin:miter;stroke-miterlimit:4;stroke-dasharray:none;stroke-opacity:1;display:inline" />
      <path
         inkscape:export-ydpi="8.3623056"
         inkscape:export-xdpi="8.3623056"
         inkscape:export-filename="/media/home/piers/Documents/Maryo/overworld/pngs/maryo_overworld_down_2b.png"
         id="path8415"
         d="M 87.648329,460.74617 C 83.771608,460.87028 79.292279,463.31268 80.130986,467.78779 C 80.941932,482.91313 82.87236,498.39316 87.479918,512.80244 C 91.465817,516.98551 98.38138,514.82109 103.57896,515.42697 C 106.77742,514.63191 115.28666,516.91507 113.66336,511.45659 C 110.15078,494.43559 106.69867,477.40169 103.14849,460.38871 C 97.975694,460.12215 92.826218,460.00336 87.648329,460.74617 z "
         style="fill:#f7c8ac;fill-opacity:1;fill-rule:evenodd;stroke:#000000;stroke-width:0.99999994px;stroke-linecap:butt;stroke-linejoin:miter;stroke-opacity:1;display:inline" />
      <path
         inkscape:export-ydpi="8.3623056"
         inkscape:export-xdpi="8.3623056"
         inkscape:export-filename="/media/home/piers/Documents/Maryo/overworld/pngs/maryo_overworld_down_2b.png"
         id="path8417"
         d="M 571.06074,398.70529 C 571.58248,419.10499 572.08176,439.50533 572.61753,459.90463 C 581.52581,461.87187 590.82817,458.62838 599.38577,456.34757 C 605.89327,455.18878 604.50447,447.61885 604.53282,442.82126 C 603.56095,428.5406 603.34538,413.67975 598.59345,400.09299 C 594.22452,395.08209 586.09862,397.09591 580.20508,396.40617 C 577.63715,397.21228 570.62832,394.93511 571.06074,398.70529 z "
         style="fill:#f7c8ac;fill-opacity:1;fill-rule:evenodd;stroke:#000000;stroke-width:1.17861438px;stroke-linecap:butt;stroke-linejoin:miter;stroke-opacity:1;display:inline" />
      <g
         id="g5024"
         style="display:inline">
        <path
           d="M 344.46202 390.20718 A 28.789347 48.992397 0 1 1  286.88332,390.20718 A 28.789347 48.992397 0 1 1  344.46202 390.20718 z"
           sodipodi:ry="48.992397"
           sodipodi:rx="28.789347"
           sodipodi:cy="390.20718"
           sodipodi:cx="315.67267"
           id="path8523"
           style="fill:#000000;fill-opacity:1;fill-rule:nonzero;stroke-width:20;stroke-miterlimit:4;stroke-dasharray:none"
           sodipodi:type="arc"
           transform="matrix(0.888605,-0.1034599,0.143298,1.2307698,90.48043,-0.2524766)" />
        <path
           transform="matrix(0.888605,-0.1034599,0.2111761,1.813766,68.206297,-198.77533)"
           d="M 333.35034 361.92291 A 9.0913725 9.5964489 0 1 1  315.1676,361.92291 A 9.0913725 9.5964489 0 1 1  333.35034 361.92291 z"
           sodipodi:ry="9.5964489"
           sodipodi:rx="9.0913725"
           sodipodi:cy="361.92291"
           sodipodi:cx="324.25897"
           id="path8525"
           style="fill:#ffffff;fill-opacity:1;fill-rule:nonzero;stroke-width:20;stroke-miterlimit:4;stroke-dasharray:none"
           sodipodi:type="arc" />
      </g>
      <g
         id="g5030"
         style="display:inline">
        <path
           sodipodi:type="arc"
           style="fill:#000000;fill-opacity:1;fill-rule:nonzero;stroke-width:20;stroke-miterlimit:4;stroke-dasharray:none"
           id="path4507"
           sodipodi:cx="315.67267"
           sodipodi:cy="390.20718"
           sodipodi:rx="28.789347"
           sodipodi:ry="48.992397"
           d="M 344.46202 390.20718 A 28.789347 48.992397 0 1 1  286.88332,390.20718 A 28.789347 48.992397 0 1 1  344.46202 390.20718 z"
           transform="matrix(0.888605,-0.1034599,0.143298,1.2307698,-82.352067,19.870338)" />
        <path
           sodipodi:type="arc"
           style="fill:#ffffff;fill-opacity:1;fill-rule:nonzero;stroke-width:20;stroke-miterlimit:4;stroke-dasharray:none"
           id="path4509"
           sodipodi:cx="324.25897"
           sodipodi:cy="361.92291"
           sodipodi:rx="9.0913725"
           sodipodi:ry="9.5964489"
           d="M 333.35034 361.92291 A 9.0913725 9.5964489 0 1 1  315.1676,361.92291 A 9.0913725 9.5964489 0 1 1  333.35034 361.92291 z"
           transform="matrix(0.888605,-0.1034599,0.2111761,1.813766,-107.02288,-187.98828)" />
      </g>
      <path
         inkscape:export-ydpi="8.3623056"
         inkscape:export-xdpi="8.3623056"
         inkscape:export-filename="/media/home/piers/Documents/Maryo/overworld/pngs/maryo_overworld_down_2b.png"
         sodipodi:nodetypes="cc"
         id="path4575"
         d="M 279.11586,541.57989 C 292.51041,603.77862 422.94227,587.86796 419.86753,524.46772"
         style="fill:none;fill-rule:evenodd;stroke:#000000;stroke-width:4.64232922;stroke-linecap:butt;stroke-linejoin:miter;stroke-miterlimit:4;stroke-dasharray:none;stroke-opacity:1;display:inline" />
      <path
         inkscape:export-ydpi="8.3623056"
         inkscape:export-xdpi="8.3623056"
         inkscape:export-filename="/media/home/piers/Documents/Maryo/overworld/pngs/maryo_overworld_down_2b.png"
         id="path4583"
         d="M 379.431,394.88206 C 412.92311,373.72393 455.44405,374.52612 455.44405,374.52612"
         style="fill:none;fill-rule:evenodd;stroke:#000000;stroke-width:4.99999952;stroke-linecap:butt;stroke-linejoin:miter;stroke-miterlimit:4;stroke-dasharray:none;stroke-opacity:1;display:inline" />
      <path
         inkscape:export-ydpi="8.3623056"
         inkscape:export-xdpi="8.3623056"
         inkscape:export-filename="/media/home/piers/Documents/Maryo/overworld/pngs/maryo_overworld_down_2b.png"
         style="fill:none;fill-rule:evenodd;stroke:#000000;stroke-width:4.99999952;stroke-linecap:butt;stroke-linejoin:miter;stroke-miterlimit:4;stroke-dasharray:none;stroke-opacity:1;display:inline"
         d="M 283.93325,406.00082 C 246.47605,393.10329 205.27681,403.65298 205.27681,403.65298"
         id="path4585" />
      <path
         inkscape:export-ydpi="8.3623056"
         inkscape:export-xdpi="8.3623056"
         inkscape:export-filename="/media/home/piers/Documents/Maryo/overworld/pngs/maryo_overworld_down_2b.png"
         id="path4501"
         d="M 141.83247,396.23451 C 129.52344,401.49909 117.23632,406.81607 104.91352,412.04773 C 103.70109,423.41261 102.5192,434.78225 101.23773,446.13908 C 112.76574,456.49443 123.17921,470.7309 122.15087,486.86879 C 132.94255,485.61231 143.73424,484.35584 154.52592,483.09938 C 151.11309,453.78697 147.70025,424.47457 144.28743,395.16215 C 143.4691,395.51961 142.65079,395.87706 141.83247,396.23451 z "
         style="fill:#aa8b59;fill-opacity:1;fill-rule:evenodd;stroke:#000000;stroke-width:4.99999952;stroke-linecap:butt;stroke-linejoin:miter;stroke-miterlimit:4;stroke-dasharray:none;stroke-opacity:1;display:inline" />
      <path
         inkscape:export-ydpi="8.3623056"
         inkscape:export-xdpi="8.3623056"
         inkscape:export-filename="/media/home/piers/Documents/Maryo/overworld/pngs/maryo_overworld_down_2b.png"
         id="path4503"
         d="M 509.79127,346.15717 C 513.10051,374.57975 516.40974,403.00234 519.71896,431.42492 C 530.6762,430.14918 541.63342,428.87343 552.59066,427.59769 C 547.54728,415.53439 552.51453,401.77759 558.3126,390.81415 C 560.22469,386.66927 565.1516,383.20052 561.40451,378.50323 C 558.17722,369.29156 554.92213,360.08951 551.71157,350.87204 C 537.62867,348.44652 523.55219,345.97839 509.48047,343.4877 C 509.58407,344.37752 509.68767,345.26734 509.79127,346.15717 z "
         style="fill:#aa8b59;fill-opacity:1;fill-rule:evenodd;stroke:#000000;stroke-width:4.99999952;stroke-linecap:butt;stroke-linejoin:miter;stroke-miterlimit:4;stroke-dasharray:none;stroke-opacity:1;display:inline" />
      <g
         transform="matrix(0.9932902,-0.1156484,0.1156484,0.9932902,-68.26153,45.52209)"
         id="g4605"
         style="display:inline">
        <path
           style="opacity:1;fill:#e86344;fill-opacity:1;fill-rule:evenodd;stroke:#000000;stroke-width:15;stroke-linecap:butt;stroke-linejoin:miter;stroke-miterlimit:4;stroke-dasharray:none;stroke-opacity:1"
           d="M 357.15625,193.71875 C 304.78899,194.55964 251.83557,195.90694 200.68875,208.00287 C 181.80019,212.39451 163.02427,220.53514 150.0625,235.28125 C 141.04394,244.02263 137.13828,256.32505 135.8125,268.46875 C 133.15803,279.63831 119.67281,281.68862 111.17503,287.17261 C 83.566826,300.97373 55.838181,314.5574 28.09375,328.09375 C 50.332307,347.5868 73.503662,366.49635 95.25,386.25 C 96.124003,397.20934 94.535128,408.34479 91.34375,418.875 C 103.07269,419.27663 114.80121,419.69521 126.53125,420.0625 C 124.35574,406.24976 127.31572,388.03189 141.78125,382.34375 C 166.47861,376.19908 192.26788,376.39605 217.59155,374.88514 C 303.0197,371.77568 388.52108,373.77734 473.9675,374.89316 C 505.80554,376.0488 538.05303,375.77796 569.37425,381.87596 C 578.95922,383.26768 585.47083,392.38238 587.875,401.15625 C 588.36616,404.31087 586.97201,408.29687 591.93634,406.91182 C 602.0931,407.2497 612.24886,407.61963 622.40625,407.9375 C 618.61877,363.34472 613.54569,318.49058 601.21875,275.375 C 596.57312,260.38906 590.69617,244.22035 576.6875,235.5625 C 543.903,212.06115 502.57668,204.28731 463.20294,198.93943 C 428.04009,194.63275 392.55681,193.50637 357.15625,193.71875 z "
           id="path8177"
           inkscape:export-filename="/media/home/piers/Documents/Maryo/overworld/pngs/maryo_overworld_down_2b.png"
           inkscape:export-xdpi="8.3623056"
           inkscape:export-ydpi="8.3623056" />
        <path
           style="fill:none;fill-rule:evenodd;stroke:#000000;stroke-width:10;stroke-linecap:butt;stroke-linejoin:miter;stroke-miterlimit:4;stroke-dasharray:none;stroke-opacity:1"
           d="M 137.5,267.03125 C 132.3158,290.79556 128.12649,314.8416 125.34375,338.96875 C 127.27643,348.79516 130.85344,334.62792 130.81278,330.65718 C 134.13165,309.39198 138.56281,288.08003 141.18864,266.84396 C 140.47267,261.13704 139.74758,264.49378 137.5,267.03125 z "
           id="path8193"
           inkscape:export-filename="/media/home/piers/Documents/Maryo/overworld/pngs/maryo_overworld_down_2b.png"
           inkscape:export-xdpi="8.3623056"
           inkscape:export-ydpi="8.3623056" />
        <path
           style="fill:#ffffff;fill-rule:evenodd;stroke:#000000;stroke-width:1px;stroke-linecap:butt;stroke-linejoin:miter;stroke-opacity:1"
           d="M 229.90625,222.71875 C 209.92263,232.5533 189.9748,242.46181 169.96875,252.25 C 176.4824,264.8525 182.98402,277.46121 189.5,290.0625 C 198.54546,279.37662 207.56037,268.66486 216.59375,257.96875 C 215.1024,266.04134 213.63698,274.11874 212.125,282.1875 C 219.78432,277.66859 227.41547,273.10214 235.0625,268.5625 C 229.51856,280.88439 223.99394,293.215 218.4375,305.53125 C 231.0459,307.73626 243.64272,310.00731 256.25,312.21875 C 258.33326,286.62673 260.38298,261.03187 262.4375,235.4375 C 250.78298,243.90472 239.14707,252.39754 227.5,260.875 C 229.44224,247.59445 231.34273,234.30773 233.3125,221.03125 C 232.17708,221.59375 231.04167,222.15625 229.90625,222.71875 z "
           id="path4515"
           inkscape:export-filename="/media/home/piers/Documents/Maryo/overworld/pngs/maryo_overworld_down_2b.png"
           inkscape:export-xdpi="8.3623056"
           inkscape:export-ydpi="8.3623056" />
        <path
           style="fill:#ffffff;fill-rule:evenodd;stroke:#000000;stroke-width:0.77949601px;stroke-linecap:butt;stroke-linejoin:miter;stroke-opacity:1"
           d="M 353.75,207.78125 C 330.85402,208.68353 307.95921,209.61775 285.0625,210.5 C 284.94737,219.39544 284.91663,228.29189 284.8125,237.1875 C 297.2206,233.68938 309.60226,230.0974 322,226.5625 C 317.04739,230.44484 312.10469,234.33987 307.125,238.1875 C 315.72085,237.47246 324.31261,236.7096 332.90625,235.96875 C 322.69936,241.11743 312.47695,246.23542 302.28125,251.40625 C 313.23142,255.63985 324.16174,259.926 335.125,264.125 C 349.83296,250.02048 364.50612,235.87946 379.25,221.8125 C 364.65498,223.82417 350.06264,225.85521 335.46875,227.875 C 343.51117,221.10506 351.53943,214.31829 359.59375,207.5625 C 357.64583,207.63542 355.69792,207.70833 353.75,207.78125 z "
           id="path4517"
           inkscape:export-filename="/media/home/piers/Documents/Maryo/overworld/pngs/maryo_overworld_down_2b.png"
           inkscape:export-xdpi="8.3623056"
           inkscape:export-ydpi="8.3623056" />
        <path
           style="fill:#ffffff;fill-rule:evenodd;stroke:#000000;stroke-width:1.4032644px;stroke-linecap:butt;stroke-linejoin:miter;stroke-opacity:1"
           d="M 471.125,218.15625 C 448.52667,237.59879 425.96489,257.08427 403.34375,276.5 C 414.83514,292.91117 426.26922,309.36259 437.75,325.78125 C 446.54416,307.15802 455.37796,288.55348 464.1875,269.9375 C 464.5494,282.61466 464.9376,295.29108 465.28125,307.96875 C 474.00272,299.14805 482.65222,290.25644 491.34375,281.40625 C 487.62539,301.54174 483.90395,321.67666 480.1875,341.8125 C 496.4272,341.8707 512.66656,342.03397 528.90625,342.09375 C 524.5191,304.61239 520.10509,267.13406 515.6875,229.65625 C 503.08079,245.1998 490.52429,260.78405 477.9375,276.34375 C 476.68701,256.06253 475.44071,235.78105 474.1875,215.5 C 473.16667,216.38542 472.14583,217.27083 471.125,218.15625 z "
           id="path4519"
           inkscape:export-filename="/media/home/piers/Documents/Maryo/overworld/pngs/maryo_overworld_down_2b.png"
           inkscape:export-xdpi="8.3623056"
           inkscape:export-ydpi="8.3623056" />
        <path
           style="fill:#ffffff;fill-rule:evenodd;stroke:#000000;stroke-width:0.69978529px;stroke-linecap:butt;stroke-linejoin:miter;stroke-opacity:1"
           d="M 549.09375,255.6875 C 550.39776,273.86317 550.79296,292.3749 552.65625,310.34375 C 562.29619,322.33368 570.68666,335.3974 581.25,346.59375 C 579.64265,334.94152 575.44058,323.83995 572.65625,312.4375 C 574.95355,316.90429 578.21983,326.33888 581.06826,327.00233 C 582.57959,323.66992 578.68514,307.61786 581.75541,316.21137 C 586.25227,328.14142 590.75955,340.06754 595.25,352 C 600.36216,349.64225 605.4582,347.2497 610.5625,344.875 C 596.11753,316.57391 582.69885,287.64421 567.7431,259.66956 C 562.95895,252.67141 566.15228,267.90461 566.67901,271.31825 C 567.7235,277.6705 568.768,284.02275 569.8125,290.375 C 562.89916,276.73916 557.46396,262.29206 549.46875,249.25 C 549.34375,251.39583 549.21875,253.54167 549.09375,255.6875 z "
           id="path4521"
           inkscape:export-filename="/media/home/piers/Documents/Maryo/overworld/pngs/maryo_overworld_down_2b.png"
           inkscape:export-xdpi="8.3623056"
           inkscape:export-ydpi="8.3623056" />
        <path
           style="fill:#ffffff;fill-rule:evenodd;stroke:#000000;stroke-width:0.37226039px;stroke-linecap:butt;stroke-linejoin:miter;stroke-opacity:1"
           d="M 147.96875,291.59375 C 143.8203,298.1175 137.68922,304.17375 134.6875,310.96875 C 136.47653,320.27347 137.9645,329.63892 140.09375,338.875 C 141.70533,335.44117 144.84881,320.82846 143.85037,331.49673 C 144.29284,334.72178 150.25262,321.0352 146.98522,332.8927 C 146.06234,338.54895 143.10456,345.20179 151.1047,346.25212 C 158.192,352.32334 157.04492,344.68723 157.07506,338.97161 C 157.24133,324.46093 158.45611,309.9412 157.8125,295.4375 C 155.36566,297.50362 150.40666,312.37327 150.93642,305.56652 C 151.27125,299.09649 151.60835,292.62657 151.9375,286.15625 C 150.61458,287.96875 149.29167,289.78125 147.96875,291.59375 z "
           id="path4523"
           inkscape:export-filename="/media/home/piers/Documents/Maryo/overworld/pngs/maryo_overworld_down_2b.png"
           inkscape:export-xdpi="8.3623056"
           inkscape:export-ydpi="8.3623056" />
        <path
           style="fill:#ffffff;fill-rule:evenodd;stroke:#000000;stroke-width:0.77026284px;stroke-linecap:butt;stroke-linejoin:miter;stroke-opacity:1"
           d="M 345.28125,275.875 C 347.61458,284.92708 349.94792,293.97917 352.28125,303.03125 C 343.10457,297.20769 333.92385,291.39051 324.75,285.5625 C 326.01961,303.5105 327.29861,321.45785 328.5625,339.40625 C 340.30172,339.54813 352.04171,339.63204 363.78125,339.75 C 358.80512,330.47271 353.8448,321.18694 348.875,311.90625 C 354.13537,315.48964 359.39284,319.07732 364.65625,322.65625 C 363.63857,316.20947 362.63536,309.76042 361.625,303.3125 C 368.835,310.96718 376.03173,318.63437 383.25,326.28125 C 389.03019,318.45485 394.80893,310.62722 400.5625,302.78125 C 381.73505,292.32922 362.92527,281.84471 344.125,271.34375 C 344.51042,272.85417 344.89583,274.36458 345.28125,275.875 z "
           id="path4525"
           inkscape:export-filename="/media/home/piers/Documents/Maryo/overworld/pngs/maryo_overworld_down_2b.png"
           inkscape:export-xdpi="8.3623056"
           inkscape:export-ydpi="8.3623056" />
        <path
           style="fill:none;fill-rule:evenodd;stroke:#000000;stroke-width:5;stroke-linecap:butt;stroke-linejoin:miter;stroke-miterlimit:4;stroke-dasharray:none;stroke-opacity:1"
           d="M 98.571429,388.07647 C 107.14285,375.21933 117.14286,357.36219 132.14286,354.50504 C 161.44547,348.92359 245.71429,346.6479 245.71429,346.6479"
           id="path4577"
           sodipodi:nodetypes="csc"
           inkscape:export-filename="/media/home/piers/Documents/Maryo/overworld/pngs/maryo_overworld_down_2b.png"
           inkscape:export-xdpi="8.3623056"
           inkscape:export-ydpi="8.3623056" />
        <path
           sodipodi:nodetypes="csc"
           id="path4579"
           d="M 616.1425,384.21896 C 609.60163,372.64777 606.95785,359.48995 590.52408,354.00528 C 563.19878,344.88563 503.85752,346.93399 503.85752,346.93399"
           style="fill:none;fill-rule:evenodd;stroke:#000000;stroke-width:4.14360285;stroke-linecap:butt;stroke-linejoin:miter;stroke-miterlimit:4;stroke-dasharray:none;stroke-opacity:1"
           inkscape:export-filename="/media/home/piers/Documents/Maryo/overworld/pngs/maryo_overworld_down_2b.png"
           inkscape:export-xdpi="8.3623056"
           inkscape:export-ydpi="8.3623056" />
      </g>
      <path
         inkscape:export-ydpi="8.3623056"
         inkscape:export-xdpi="8.3623056"
         inkscape:export-filename="/media/home/piers/Documents/Maryo/overworld/pngs/maryo_overworld_down_2b.png"
         id="path8166"
         d="M 536.74067,187.84451 C 512.07008,195.33242 486.88555,203.1018 465.13313,218.60251 C 443.95609,236.82578 431.84725,265.29819 419.51194,292.18697 C 407.66872,319.76913 396.14825,347.69103 385.90236,376.15495 C 383.91195,383.06259 388.69755,377.80409 390.29716,375.2611 C 410.62181,348.44645 439.814,334.68693 466.9559,320.13634 C 503.98237,303.91299 544.25774,300.31646 583.63223,295.34139 C 569.97475,276.99899 550.46627,264.26869 529.97988,264.41486 C 514.88817,263.50331 499.75423,264.44487 484.75028,265.86523 C 487.38401,250.90407 491.74381,235.23185 502.50328,225.96716 C 515.2524,212.32265 529.34981,200.45076 542.25585,186.94974 C 540.41747,187.248 538.57907,187.54626 536.74067,187.84451 z "
         style="fill:#aa8b59;fill-opacity:1;fill-rule:evenodd;stroke:#000000;stroke-width:7.16044712;stroke-linecap:butt;stroke-linejoin:miter;stroke-miterlimit:4;stroke-dasharray:none;stroke-opacity:1;display:inline" />
      <g
         transform="matrix(1.1835878,-2.9409531e-2,2.9763293e-2,1.4012709,-284.43067,-308.65157)"
         inkscape:export-ydpi="8.3623056"
         inkscape:export-xdpi="8.3623056"
         inkscape:export-filename="/media/home/piers/Documents/Maryo/overworld/pngs/maryo_overworld_down_2b.png"
         id="g4495"
         style="display:inline">
        <g
           id="g4483"
           transform="matrix(-1,0,0,1,706.62995,0)">
          <path
             style="fill:#aa8b59;fill-opacity:1;fill-rule:evenodd;stroke:#000000;stroke-width:15;stroke-linecap:butt;stroke-linejoin:miter;stroke-miterlimit:4;stroke-dasharray:none;stroke-opacity:1"
             d="M 167.37363,868.78351 C 167.37363,810.78206 177.85166,788.80256 257.48474,788.80256 C 337.11783,788.80256 351.78707,811.08733 351.78707,839.47752 C 351.78708,883.44075 351.78707,868.78352 351.78707,868.78352 L 166.95451,866.95189"
             id="path4485"
             sodipodi:nodetypes="csscc" />
          <path
             style="fill:#f2ab2a;fill-opacity:1;fill-rule:evenodd;stroke:#000000;stroke-width:8;stroke-linecap:butt;stroke-linejoin:miter;stroke-miterlimit:4;stroke-dasharray:none;stroke-opacity:1"
             d="M 168.76547,863.49608 C 182.98028,860.40599 347.2868,860.74933 351.88571,863.49608 C 356.48462,866.24282 354.39421,882.37994 354.39421,882.37994 L 335.58048,882.37994 L 335.70293,878.12475 L 314.38071,877.43806 L 315.09443,883.40996 L 293.7722,882.72328 L 293.89465,878.81144 L 275.49902,878.46809 L 276.21273,883.75331 L 251.54584,882.72328 L 251.6683,877.09472 L 231.18225,876.75138 L 230.64171,882.72328 L 208.06525,882.03659 L 207.35152,877.43806 L 189.37397,876.75138 L 189.25152,882.37994 L 166.67505,882.03659 L 168.76547,863.49608 z "
             id="path4487"
             sodipodi:nodetypes="csccccccccccccccccccc" />
        </g>
        <path
           transform="matrix(1.1335309,0.2337456,-0.2038959,1.2994766,307.43439,-317.92283)"
           d="M 332.85713 824.50507 A 28.571428 15 0 1 1  275.71428,824.50507 A 28.571428 15 0 1 1  332.85713 824.50507 z"
           sodipodi:ry="15"
           sodipodi:rx="28.571428"
           sodipodi:cy="824.50507"
           sodipodi:cx="304.28571"
           id="path4489"
           style="fill:#f2ab2a;fill-opacity:1;stroke-width:10;stroke-miterlimit:4;stroke-dasharray:none"
           sodipodi:type="arc" />
      </g>
      <g
         transform="matrix(-1,0,0,1,703.00544,15.152289)"
         id="g4956">
        <path
           style="fill:#fad6c1;fill-opacity:1;fill-rule:evenodd;stroke:#000000;stroke-width:10;stroke-linecap:butt;stroke-linejoin:miter;stroke-miterlimit:4;stroke-dasharray:none;stroke-opacity:1;display:inline"
           d="M 209.48106,708.65633 C 222.90244,701.42497 236.32383,694.19359 249.74522,686.96222 C 235.10181,660.23025 209.26371,608.4166 197.30593,601.88803 C 185.18253,595.26902 163.99957,605.94978 163.38822,621.88955 C 162.81457,636.84626 193.77331,684.01034 208.81725,707.68737 L 209.31058,708.40934 L 209.48104,708.65631 L 209.48106,708.65633 z "
           id="path4429"
           sodipodi:nodetypes="cczzcccc"
           inkscape:transform-center-y="45.106796"
           inkscape:transform-center-x="-28.377625" />
        <path
           sodipodi:nodetypes="cczzcccc"
           id="path4432"
           d="M 162.43848,660.70336 C 183.51968,649.69255 204.60089,638.6817 225.68211,627.67086 C 216.97894,603.8116 203.54079,556.8989 190.11518,553.26897 C 176.50365,549.58875 144.48108,564.00645 138.07715,581.82417 C 132.07343,598.52836 153.05032,637.41194 161.94368,659.8734 L 162.31066,660.49213 L 162.43847,660.70335 L 162.43848,660.70336 z "
           style="fill:#0685b6;fill-opacity:1;fill-rule:evenodd;stroke:#000000;stroke-width:11.35198593;stroke-linecap:butt;stroke-linejoin:miter;stroke-miterlimit:4;stroke-dasharray:none;stroke-opacity:1;display:inline"
           inkscape:transform-center-y="36.967401"
           inkscape:transform-center-x="-17.309986" />
        <g
           id="g4722"
           transform="matrix(0.9407605,-0.3390719,0.3390719,0.9407605,-191.69316,99.237397)">
          <path
             sodipodi:nodetypes="ccsssssscc"
             id="path8499"
             d="M 199.49841,707.86485 C 203.18291,724.86466 208.43186,742.98558 221.5744,752.47369 C 232.03303,753.85378 260.00687,742.65374 261.78401,732.24092 C 263.56116,721.82811 228.78701,655.44033 217.21604,654.88142 C 205.64509,654.3225 137.99272,687.46344 138.22298,714.59609 C 138.45324,741.72875 155.08088,810.84813 188.20039,824.01571 C 226.15625,839.10611 290.99646,802.73448 299.26569,779.4783 C 307.53492,756.22211 278.83872,665.39551 264.49526,666.18324 C 250.15179,666.97099 237.93273,674.59124 237.93273,674.59124 L 237.38491,674.29559"
             style="fill:#ffffff;fill-opacity:1;fill-rule:nonzero;stroke:#000000;stroke-width:14.82513332;stroke-linecap:butt;stroke-linejoin:miter;stroke-miterlimit:4;stroke-dasharray:none;stroke-opacity:1" />
          <path
             sodipodi:nodetypes="csscsc"
             id="path8501"
             d="M 142.56279,732.21937 C 166.4547,717.86814 176.76003,722.79453 180.29575,726.83503 C 183.83148,730.87549 200.49619,766.87788 195.73113,773.54586 C 190.96607,780.21385 163.71585,796.58639 163.71585,796.58639 C 163.71585,796.58639 158.039,787.12585 150.57015,766.03696 C 143.10132,744.94807 141.73271,732.48212 142.56279,732.21937 z "
             style="fill:#ffb3a0;fill-opacity:1;fill-rule:evenodd;stroke:#000000;stroke-width:4.94171095;stroke-linecap:butt;stroke-linejoin:miter;stroke-miterlimit:4;stroke-dasharray:none;stroke-opacity:1" />
        </g>
      </g>
    </g>
  </g>
</svg>
