<?xml version="1.0" encoding="UTF-8" standalone="no"?>
<!-- Created with Inkscape (http://www.inkscape.org/) -->
<svg
   xmlns:dc="http://purl.org/dc/elements/1.1/"
   xmlns:cc="http://web.resource.org/cc/"
   xmlns:rdf="http://www.w3.org/1999/02/22-rdf-syntax-ns#"
   xmlns:svg="http://www.w3.org/2000/svg"
   xmlns="http://www.w3.org/2000/svg"
   xmlns:xlink="http://www.w3.org/1999/xlink"
   xmlns:sodipodi="http://sodipodi.sourceforge.net/DTD/sodipodi-0.dtd"
   xmlns:inkscape="http://www.inkscape.org/namespaces/inkscape"
   width="744.09448819"
   height="1052.3622047"
   id="svg2"
   sodipodi:version="0.32"
   inkscape:version="0.45.1"
   sodipodi:docbase="/media/home/piers/Documents/Maryo/overworld/svgs"
   sodipodi:docname="mario_overworld_right_1.b.svg"
   inkscape:output_extension="org.inkscape.output.svg.inkscape"
   inkscape:export-filename="/media/home/piers/Documents/Maryo/overworld/pngs/mario_overworld_down_2b.png"
   inkscape:export-xdpi="8.3623056"
   inkscape:export-ydpi="8.3623056">
  <defs
     id="defs4">
    <linearGradient
       id="linearGradient8392">
      <stop
         id="stop8394"
         offset="0"
         style="stop-color:#670200;stop-opacity:1;" />
      <stop
         id="stop8398"
         offset="1"
         style="stop-color:#e86344;stop-opacity:1;" />
    </linearGradient>
    <linearGradient
       id="linearGradient8317">
      <stop
         style="stop-color:#0071ff;stop-opacity:1;"
         offset="0"
         id="stop8319" />
      <stop
         style="stop-color:#001796;stop-opacity:1;"
         offset="1"
         id="stop8321" />
    </linearGradient>
    <linearGradient
       id="linearGradient8179">
      <stop
         style="stop-color:#ff3600;stop-opacity:1;"
         offset="0"
         id="stop8181" />
      <stop
         id="stop8187"
         offset="0.62962961"
         style="stop-color:#b31c00;stop-opacity:1;" />
      <stop
         style="stop-color:#670200;stop-opacity:1;"
         offset="1"
         id="stop8183" />
    </linearGradient>
    <linearGradient
       id="linearGradient8154">
      <stop
         style="stop-color:#8a3e00;stop-opacity:1;"
         offset="0"
         id="stop8156" />
      <stop
         style="stop-color:#4f1000;stop-opacity:1;"
         offset="1"
         id="stop8158" />
    </linearGradient>
    <linearGradient
       id="linearGradient3151">
      <stop
         style="stop-color:#fad6c1;stop-opacity:1;"
         offset="0"
         id="stop3153" />
      <stop
         style="stop-color:#f7c8ac;stop-opacity:1;"
         offset="1"
         id="stop3155" />
    </linearGradient>
    <linearGradient
       inkscape:collect="always"
       xlink:href="#linearGradient3151"
       id="linearGradient8350"
       gradientUnits="userSpaceOnUse"
       x1="157.1041"
       y1="650.32147"
       x2="203.52036"
       y2="650.32147"
       gradientTransform="matrix(0.9652748,0,0,0.8208567,2.3470567,121.55149)" />
    <linearGradient
       inkscape:collect="always"
       xlink:href="#linearGradient3151"
       id="linearGradient8421"
       gradientUnits="userSpaceOnUse"
       gradientTransform="matrix(0.9652748,0,0,0.8208567,350.84968,121.55149)"
       x1="157.1041"
       y1="650.32147"
       x2="203.52036"
       y2="650.32147" />
    <linearGradient
       inkscape:collect="always"
       xlink:href="#linearGradient8154"
       id="linearGradient8507"
       gradientUnits="userSpaceOnUse"
       gradientTransform="matrix(1.1735401,0,0,0.8547583,-47.21657,106.64003)"
       x1="261.25"
       y1="797.6629"
       x2="261.25"
       y2="874.44855" />
    <linearGradient
       inkscape:collect="always"
       xlink:href="#linearGradient8154"
       id="linearGradient8519"
       gradientUnits="userSpaceOnUse"
       gradientTransform="matrix(1.1735401,0,0,0.8547583,-47.21657,106.64003)"
       x1="261.25"
       y1="797.6629"
       x2="261.25"
       y2="874.44855" />
    <radialGradient
       inkscape:collect="always"
       xlink:href="#linearGradient8392"
       id="radialGradient4567"
       gradientUnits="userSpaceOnUse"
       gradientTransform="matrix(0.9936043,3.4596014e-2,-1.803415e-2,0.4641377,17.098507,383.6629)"
       cx="351.85764"
       cy="777.81384"
       fx="351.85764"
       fy="777.81384"
       r="78.178574" />
    <radialGradient
       inkscape:collect="always"
       xlink:href="#linearGradient8392"
       id="radialGradient10802"
       gradientUnits="userSpaceOnUse"
       gradientTransform="matrix(0.9936043,3.4596014e-2,-1.803415e-2,0.4641377,17.098507,383.6629)"
       cx="351.85764"
       cy="777.81384"
       fx="351.85764"
       fy="777.81384"
       r="78.178574" />
  </defs>
  <sodipodi:namedview
     id="base"
     pagecolor="#ffffff"
     bordercolor="#666666"
     borderopacity="1.0"
     gridtolerance="10000"
     guidetolerance="10"
     objecttolerance="10"
     inkscape:pageopacity="0.0"
     inkscape:pageshadow="2"
     inkscape:zoom="0.35"
     inkscape:cx="992.41417"
     inkscape:cy="700.1144"
     inkscape:document-units="px"
     inkscape:current-layer="layer10"
     inkscape:window-width="1063"
     inkscape:window-height="940"
     inkscape:window-x="9"
     inkscape:window-y="40"
     showguides="true"
     inkscape:guide-bbox="true">
    <sodipodi:guide
       orientation="horizontal"
       position="862.85714"
       id="guide2252" />
    <sodipodi:guide
       orientation="horizontal"
       position="428.57143"
       id="guide2254" />
    <sodipodi:guide
       orientation="horizontal"
       position="360"
       id="guide2256" />
    <sodipodi:guide
       orientation="horizontal"
       position="268.57143"
       id="guide2258" />
    <sodipodi:guide
       orientation="horizontal"
       position="168.57143"
       id="guide2260" />
    <sodipodi:guide
       orientation="horizontal"
       position="397.14286"
       id="guide2262" />
    <sodipodi:guide
       orientation="horizontal"
       position="487.85714"
       id="guide2286" />
    <sodipodi:guide
       orientation="horizontal"
       position="650.53824"
       id="guide5253" />
    <sodipodi:guide
       orientation="horizontal"
       position="547.50268"
       id="guide5255" />
  </sodipodi:namedview>
  <metadata
     id="metadata7">
    <rdf:RDF>
      <cc:Work
         rdf:about="">
        <dc:format>image/svg+xml</dc:format>
        <dc:type
           rdf:resource="http://purl.org/dc/dcmitype/StillImage" />
      </cc:Work>
    </rdf:RDF>
  </metadata>
  <g
     inkscape:label="Layer 1"
     inkscape:groupmode="layer"
     id="layer1"
     style="display:none">
    <image
       y="112.68437"
       x="-2.8775516"
       id="image2167"
       height="826.40118"
       width="734.57886"
       sodipodi:absref="/media/home/piers/Desktop/maryo_overworld_small.jpg"
       xlink:href="/media/home/piers/Desktop/maryo_overworld_small.jpg" />
  </g>
  <g
     inkscape:groupmode="layer"
     id="layer7"
     inkscape:label="shirt"
     style="display:inline" />
  <g
     inkscape:groupmode="layer"
     id="layer9"
     inkscape:label="pants"
     style="display:inline" />
  <g
     inkscape:groupmode="layer"
     id="layer6"
     inkscape:label="hands"
     style="display:inline" />
  <g
     inkscape:groupmode="layer"
     id="layer8"
     inkscape:label="scarf" />
  <g
     inkscape:groupmode="layer"
     id="layer2"
     inkscape:label="face"
     style="display:inline" />
  <g
     inkscape:groupmode="layer"
     id="layer3"
     inkscape:label="hair below headband"
     style="display:inline" />
  <g
     inkscape:groupmode="layer"
     id="layer4"
     inkscape:label="headband"
     style="display:inline" />
  <g
     inkscape:groupmode="layer"
     id="layer5"
     inkscape:label="hair above headband"
     style="display:inline">
    <image
       y="133.505"
       x="-1037.4286"
       id="image3453"
       height="786.28571"
       width="797.71429"
       sodipodi:absref="/media/home/piers/Desktop/walk_right_2.png"
       xlink:href="/media/home/piers/Desktop/walk_right_2.png"
       style="fill:#fad6c1;fill-opacity:1" />
  </g>
  <g
     inkscape:groupmode="layer"
     id="layer10"
     inkscape:label="shoes">
    <g
       id="g10746"
       transform="translate(819.99996,0)">
      <path
         inkscape:export-ydpi="8.3623056"
         inkscape:export-xdpi="8.3623056"
         inkscape:export-filename="/media/home/piers/Documents/Maryo/overworld/pngs/maryo_overworld_down_2b.png"
         id="rect8325"
         d="M 206.75,591.71875 C 206.75,634.14583 206.75,676.57292 206.75,719 C 304.5,719 402.25,719 500,719 C 500,675.90625 500,632.8125 500,589.71875 C 402.25,589.71875 304.5,589.71875 206.75,589.71875 L 206.75,590.71875 L 206.75,591.71875 z "
         style="opacity:1;fill:#0685b6;fill-opacity:1;fill-rule:nonzero;stroke:#000000;stroke-width:10.09475994;stroke-miterlimit:4;stroke-dasharray:none;stroke-opacity:1;display:inline" />
      <path
         inkscape:export-ydpi="8.3623056"
         inkscape:export-xdpi="8.3623056"
         inkscape:export-filename="/media/home/piers/Documents/Maryo/overworld/pngs/maryo_overworld_down_2b.png"
         id="path8364"
         d="M 201.96875,679.78125 C 194.39843,680.48784 183.71945,682.27778 182.59375,691.5 C 180.39527,699.68018 185.22489,709.35761 194,710.71875 C 199.35358,710.36716 196.00728,716.9019 196.8136,720.31227 C 196.76055,750.60915 195.51159,781.07346 198.59375,811.25 C 198.41277,817.39484 204.88738,818.89802 209.70755,819.368 C 244.8816,823.19591 280.45459,821.35845 315.74851,820.03919 C 327.64603,818.90183 340.11503,819.61143 351.5625,816.1875 C 356.35777,810.6411 354.37971,802.0791 355.0161,795.28136 C 355.39433,784.98805 353.36284,773.98264 355.21875,764.0625 C 359.19092,766.79944 356.79853,773.20511 357.48276,777.2811 C 357.71504,789.89529 354.79674,803.12073 358.125,815.40625 C 361.56144,820.56917 369.29881,819.31491 374.625,820.5625 C 411.60984,822.86709 448.8651,821.8223 485.71875,818.25 C 493.51822,817.92632 502.73755,815.0984 504.71875,806.5 C 509.00437,787.84246 506.24464,768.14423 506.62873,749.09504 C 506.70757,733.8156 505.55056,718.32068 506.4375,703.15625 C 511.58247,700.00764 515.69479,693.40124 512,687.5625 C 509.56326,681.20238 501.08839,678.91006 496.03125,683.6875 C 493.08776,686.27824 490.98586,689.9858 486.4375,689.4375 C 444.85635,693.422 402.81524,692.44117 361.03149,692.45074 C 315.53795,691.6691 269.77565,691.61814 224.57645,686.48977 C 220.54379,685.94408 216.33425,685.44647 213.78125,682.03125 C 210.31394,679.82736 205.97948,679.53694 201.96875,679.78125 z "
         style="opacity:1;fill:#e86344;fill-opacity:1;fill-rule:evenodd;stroke:#000000;stroke-width:15;stroke-linecap:butt;stroke-linejoin:miter;stroke-miterlimit:4;stroke-dasharray:none;stroke-opacity:1;display:inline" />
      <path
         inkscape:export-ydpi="8.3623056"
         inkscape:export-xdpi="8.3623056"
         inkscape:export-filename="/media/home/piers/Documents/Maryo/overworld/pngs/maryo_overworld_down_2b.png"
         id="path8402"
         d="M 273,701.625 C 275.7272,726.38445 278.38757,751.15154 281.15625,775.90625 C 318.291,760.10402 360.97226,757.71112 400.21875,766.625 C 407.52964,767.81832 413.87228,771.9621 420.71875,774.125 C 428.46094,774.43836 430.30385,764.91793 431.25,759 C 433.63892,739.48729 431.8015,719.56982 429.59375,700.09375 C 377.32287,699.88364 325.05213,699.61285 272.78125,699.40625 C 272.85417,700.14583 272.92708,700.88542 273,701.625 z "
         style="fill:url(#radialGradient10802);fill-opacity:1;fill-rule:evenodd;stroke:none;stroke-width:1px;stroke-linecap:butt;stroke-linejoin:miter;stroke-opacity:1;display:inline" />
      <g
         inkscape:export-ydpi="8.3623056"
         inkscape:export-xdpi="8.3623056"
         inkscape:export-filename="/media/home/piers/Documents/Maryo/overworld/pngs/maryo_overworld_down_2b.png"
         id="g4435"
         style="display:inline">
        <path
           style="fill:none;fill-rule:evenodd;stroke:#000000;stroke-width:5;stroke-linecap:butt;stroke-linejoin:miter;stroke-miterlimit:4;stroke-dasharray:none;stroke-opacity:1;display:inline"
           d="M 196.97975,708.91032 C 229.30463,719.01184 247.48737,716.99154 247.48737,716.99154"
           id="path8374"
           inkscape:export-filename="/media/home/piers/Documents/Maryo/overworld/maryo_overworld_beta.png"
           inkscape:export-xdpi="8.3623056"
           inkscape:export-ydpi="8.3623056" />
        <path
           style="fill:#fad6c1;fill-opacity:1;fill-rule:evenodd;stroke:#000000;stroke-width:10;stroke-linecap:butt;stroke-linejoin:miter;stroke-miterlimit:4;stroke-dasharray:none;stroke-opacity:1"
           d="M 141.07142,723.79078 C 156.30951,724.26696 171.54761,724.74313 186.78571,725.21931 C 187.52618,694.74835 191.16287,636.96396 184.09283,625.31813 C 176.92487,613.51099 153.24201,612.12574 144.71786,625.60867 C 136.71943,638.26004 139.84482,694.59055 140.98318,722.61957 L 141.04783,723.49159 L 141.07142,723.79075 L 141.07142,723.79078 z "
           id="path4429"
           sodipodi:nodetypes="cczzcccc" />
        <g
           id="g8536">
          <path
             sodipodi:nodetypes="ccsssssscc"
             id="path8499"
             d="M 161.24596,684.29024 C 158.0593,697.80813 155.64265,712.67837 162.08701,724.08956 C 169.36395,728.73025 194.01308,730.42712 198.95714,723.55398 C 203.9012,716.68085 201.22525,656.781 192.8373,652.34327 C 184.44937,647.90554 122.72924,648.15863 113.45205,667.76327 C 104.17486,687.36792 92.439758,742.90454 112.42045,763.93068 C 135.31886,788.02721 196.0781,784.46858 210.30979,770.61772 C 224.54149,756.76685 234.88371,681.40089 223.97039,676.96524 C 213.05707,672.5296 201.34031,673.75147 201.34031,673.75147 L 201.03692,673.34766"
             style="fill:#ffffff;fill-opacity:1;fill-rule:nonzero;stroke:#000000;stroke-width:12;stroke-linecap:butt;stroke-linejoin:miter;stroke-miterlimit:4;stroke-dasharray:none;stroke-opacity:1" />
          <path
             sodipodi:nodetypes="csscsc"
             id="path8501"
             d="M 110.53435,681.95834 C 126.09462,686.69318 128.21724,688.25716 129.43284,692.39779 C 130.64846,696.5384 130.47267,728.25735 124.61638,731.39367 C 118.76009,734.52999 103.81075,735.65353 103.81075,735.65353 C 103.81075,735.65353 102.89434,726.86595 104.6979,709.08577 C 106.50148,691.30559 109.82716,681.85791 110.53435,681.95834 z "
             style="fill:#ffb3a0;fill-opacity:1;fill-rule:evenodd;stroke:#000000;stroke-width:4;stroke-linecap:butt;stroke-linejoin:miter;stroke-miterlimit:4;stroke-dasharray:none;stroke-opacity:1" />
        </g>
        <path
           sodipodi:nodetypes="cczzcccc"
           id="path4432"
           d="M 133.37736,635.65058 C 156.37374,635.97077 179.37015,636.29095 202.36656,636.61114 C 203.48402,616.12229 208.9723,577.26776 198.30262,569.43704 C 187.48518,561.49785 153.41558,559.35755 141.0232,569.6324 C 129.40528,579.26512 133.66911,615.3019 133.2442,634.86305 L 133.34176,635.4494 L 133.37736,635.65056 L 133.37736,635.65058 z "
           style="fill:#0685b6;fill-opacity:1;fill-rule:evenodd;stroke:#000000;stroke-width:10.07349491;stroke-linecap:butt;stroke-linejoin:miter;stroke-miterlimit:4;stroke-dasharray:none;stroke-opacity:1" />
      </g>
      <g
         inkscape:export-ydpi="8.3623056"
         inkscape:export-xdpi="8.3623056"
         inkscape:export-filename="/media/home/piers/Documents/Maryo/overworld/pngs/maryo_overworld_down_2b.png"
         transform="matrix(-1,0,0,1,706.89578,7.1428572)"
         id="g4443"
         style="display:inline">
        <path
           inkscape:export-ydpi="8.3623056"
           inkscape:export-xdpi="8.3623056"
           inkscape:export-filename="/media/home/piers/Documents/Maryo/overworld/maryo_overworld_beta.png"
           id="path4445"
           d="M 196.97975,708.91032 C 229.30463,719.01184 247.48737,716.99154 247.48737,716.99154"
           style="fill:none;fill-rule:evenodd;stroke:#000000;stroke-width:5;stroke-linecap:butt;stroke-linejoin:miter;stroke-miterlimit:4;stroke-dasharray:none;stroke-opacity:1;display:inline" />
        <path
           sodipodi:nodetypes="cczzcccc"
           id="path4447"
           d="M 141.07142,723.79078 C 156.30951,724.26696 171.54761,724.74313 186.78571,725.21931 C 187.52618,694.74835 191.16287,636.96396 184.09283,625.31813 C 176.92487,613.51099 153.24201,612.12574 144.71786,625.60867 C 136.71943,638.26004 139.84482,694.59055 140.98318,722.61957 L 141.04783,723.49159 L 141.07142,723.79075 L 141.07142,723.79078 z "
           style="fill:#fad6c1;fill-opacity:1;fill-rule:evenodd;stroke:#000000;stroke-width:10;stroke-linecap:butt;stroke-linejoin:miter;stroke-miterlimit:4;stroke-dasharray:none;stroke-opacity:1" />
        <g
           id="g4449">
          <path
             style="fill:#ffffff;fill-opacity:1;fill-rule:nonzero;stroke:#000000;stroke-width:12;stroke-linecap:butt;stroke-linejoin:miter;stroke-miterlimit:4;stroke-dasharray:none;stroke-opacity:1"
             d="M 161.24596,684.29024 C 158.0593,697.80813 155.64265,712.67837 162.08701,724.08956 C 169.36395,728.73025 194.01308,730.42712 198.95714,723.55398 C 203.9012,716.68085 201.22525,656.781 192.8373,652.34327 C 184.44937,647.90554 122.72924,648.15863 113.45205,667.76327 C 104.17486,687.36792 92.439758,742.90454 112.42045,763.93068 C 135.31886,788.02721 196.0781,784.46858 210.30979,770.61772 C 224.54149,756.76685 234.88371,681.40089 223.97039,676.96524 C 213.05707,672.5296 201.34031,673.75147 201.34031,673.75147 L 201.03692,673.34766"
             id="path4451"
             sodipodi:nodetypes="ccsssssscc" />
          <path
             style="fill:#ffb3a0;fill-opacity:1;fill-rule:evenodd;stroke:#000000;stroke-width:4;stroke-linecap:butt;stroke-linejoin:miter;stroke-miterlimit:4;stroke-dasharray:none;stroke-opacity:1"
             d="M 110.53435,681.95834 C 126.09462,686.69318 128.21724,688.25716 129.43284,692.39779 C 130.64846,696.5384 130.47267,728.25735 124.61638,731.39367 C 118.76009,734.52999 103.81075,735.65353 103.81075,735.65353 C 103.81075,735.65353 102.89434,726.86595 104.6979,709.08577 C 106.50148,691.30559 109.82716,681.85791 110.53435,681.95834 z "
             id="path4453"
             sodipodi:nodetypes="csscsc" />
        </g>
        <path
           style="fill:#0685b6;fill-opacity:1;fill-rule:evenodd;stroke:#000000;stroke-width:10.07349491;stroke-linecap:butt;stroke-linejoin:miter;stroke-miterlimit:4;stroke-dasharray:none;stroke-opacity:1"
           d="M 133.37736,635.65058 C 156.37374,635.97077 179.37015,636.29095 202.36656,636.61114 C 203.48402,616.12229 208.9723,577.26776 198.30262,569.43704 C 187.48518,561.49785 153.41558,559.35755 141.0232,569.6324 C 129.40528,579.26512 133.66911,615.3019 133.2442,634.86305 L 133.34176,635.4494 L 133.37736,635.65056 L 133.37736,635.65058 z "
           id="path4455"
           sodipodi:nodetypes="cczzcccc" />
      </g>
      <path
         inkscape:export-ydpi="8.3623056"
         inkscape:export-xdpi="8.3623056"
         inkscape:export-filename="/media/home/piers/Documents/Maryo/overworld/pngs/maryo_overworld_down_2b.png"
         id="path8353"
         d="M 299.9375,609.09375 C 294.60105,610.01435 290.72525,613.28939 298.78021,613.15606 C 351.26243,622.65261 400.42754,646.9465 442.1875,679.75 C 452.23723,657.0587 463.68798,633.3038 482.71875,616.78125 C 421.69892,616.92562 360.8375,611.98411 299.9375,609.09375 z "
         style="fill:#e86344;fill-opacity:1;fill-rule:evenodd;stroke:#000000;stroke-width:5.49668074;stroke-linecap:butt;stroke-linejoin:miter;stroke-miterlimit:4;stroke-dasharray:none;stroke-opacity:1" />
      <path
         inkscape:export-ydpi="8.3623056"
         inkscape:export-xdpi="8.3623056"
         inkscape:export-filename="/media/home/piers/Documents/Maryo/overworld/pngs/maryo_overworld_down_2b.png"
         id="path3165"
         d="M 593.96875,300.84375 C 437.85423,306.25172 281.73921,311.64594 125.625,317.0625 C 120.8246,347.94383 115.83135,378.79977 111.5,409.75 C 100.26646,409.18395 87.858911,411.56092 79.65625,419.625 C 75.069161,432.84476 76.294129,447.43433 76,461.28125 C 76.946416,474.71393 76.271672,489.2817 82.84375,501.40625 C 89.448949,508.53844 100.54158,508.21568 109.4375,509.90625 C 115.01544,511.33303 122.76596,508.29966 125.4375,515 C 153.25626,549.60086 185.66839,581.67292 224.9522,602.9253 C 261.93451,622.78317 304.91634,625.60765 346.15599,624.49165 C 392.65809,623.22828 440.68812,626.31604 485.40625,611.59375 C 514.15406,601.84985 536.93812,580.27804 557.35254,558.62044 C 571.58996,543.06919 584.28027,525.77658 595.28125,508 C 610.01566,508.75506 627.3842,508.76462 638.46875,497.6875 C 643.90499,489.49772 642.79234,478.73489 643.69988,469.31438 C 643.82493,449.74291 644.16513,429.666 638.71875,410.8125 C 636.4785,403.401 627.04951,403.99197 620.96875,402.21875 C 615.32785,401.28913 609.69269,400.50074 604,399.96875 C 601.29163,366.90625 598.58353,333.84373 595.875,300.78125 L 594.87554,300.81402 L 593.96875,300.84375 z "
         style="fill:#fad6c1;fill-opacity:1;fill-rule:evenodd;stroke:#000000;stroke-width:20;stroke-linecap:butt;stroke-linejoin:miter;stroke-miterlimit:4;stroke-dasharray:none;stroke-opacity:1;display:inline" />
      <path
         inkscape:export-ydpi="8.3623056"
         inkscape:export-xdpi="8.3623056"
         inkscape:export-filename="/media/home/piers/Documents/Maryo/overworld/pngs/maryo_overworld_down_2b.png"
         id="path8415"
         d="M 106.84375,430.46875 C 102.97869,430.14369 98.246956,432.05167 98.5625,436.59375 C 97.618787,451.71138 97.746013,467.3108 100.65625,482.15625 C 104.13164,486.77222 111.25111,485.4221 116.34375,486.625 C 119.6127,486.20517 127.80079,489.45709 126.81965,483.84751 C 125.29909,466.53449 123.84009,449.21565 122.28125,431.90625 C 117.17399,431.04325 112.07281,430.32974 106.84375,430.46875 z "
         style="fill:#f7c8ac;fill-opacity:1;fill-rule:evenodd;stroke:#000000;stroke-width:1px;stroke-linecap:butt;stroke-linejoin:miter;stroke-opacity:1;display:inline" />
      <path
         inkscape:export-ydpi="8.3623056"
         inkscape:export-xdpi="8.3623056"
         inkscape:export-filename="/media/home/piers/Documents/Maryo/overworld/pngs/maryo_overworld_down_2b.png"
         id="path8417"
         d="M 594.1875,424.75 C 592.34655,445.07316 590.48322,465.39436 588.65625,485.71875 C 597.27725,488.70302 606.8923,486.55709 615.65625,485.28125 C 622.2541,484.88282 621.75007,477.20308 622.33305,472.44095 C 623.01924,458.14372 624.52375,443.35765 621.375,429.3125 C 617.61488,423.82997 609.31061,424.89053 603.53638,423.52383 C 600.89245,424.02756 594.194,420.9551 594.1875,424.75 z "
         style="fill:#f7c8ac;fill-opacity:1;fill-rule:evenodd;stroke:#000000;stroke-width:1.1786145px;stroke-linecap:butt;stroke-linejoin:miter;stroke-opacity:1;display:inline" />
      <g
         inkscape:export-ydpi="8.3623056"
         inkscape:export-xdpi="8.3623056"
         inkscape:export-filename="/media/home/piers/Documents/Maryo/overworld/pngs/maryo_overworld_down_2b.png"
         style="display:inline"
         id="g8521"
         transform="matrix(0.8946077,0,0,1.2390838,162.97059,-27.109182)">
        <path
           d="M 344.46202 390.20718 A 28.789347 48.992397 0 1 1  286.88332,390.20718 A 28.789347 48.992397 0 1 1  344.46202 390.20718 z"
           sodipodi:ry="48.992397"
           sodipodi:rx="28.789347"
           sodipodi:cy="390.20718"
           sodipodi:cx="315.67267"
           id="path8523"
           style="fill:#000000;fill-opacity:1;fill-rule:nonzero;stroke-width:20;stroke-miterlimit:4;stroke-dasharray:none"
           sodipodi:type="arc" />
        <path
           transform="matrix(1,0,0,1.4736842,0,-170.9321)"
           d="M 333.35034 361.92291 A 9.0913725 9.5964489 0 1 1  315.1676,361.92291 A 9.0913725 9.5964489 0 1 1  333.35034 361.92291 z"
           sodipodi:ry="9.5964489"
           sodipodi:rx="9.0913725"
           sodipodi:cy="361.92291"
           sodipodi:cx="324.25897"
           id="path8525"
           style="fill:#ffffff;fill-opacity:1;fill-rule:nonzero;stroke-width:20;stroke-miterlimit:4;stroke-dasharray:none"
           sodipodi:type="arc" />
      </g>
      <g
         transform="matrix(0.8946077,0,0,1.2390838,-11.02941,-27.109182)"
         id="g4505"
         style="display:inline"
         inkscape:export-filename="/media/home/piers/Documents/Maryo/overworld/pngs/maryo_overworld_down_2b.png"
         inkscape:export-xdpi="8.3623056"
         inkscape:export-ydpi="8.3623056">
        <path
           sodipodi:type="arc"
           style="fill:#000000;fill-opacity:1;fill-rule:nonzero;stroke-width:20;stroke-miterlimit:4;stroke-dasharray:none"
           id="path4507"
           sodipodi:cx="315.67267"
           sodipodi:cy="390.20718"
           sodipodi:rx="28.789347"
           sodipodi:ry="48.992397"
           d="M 344.46202 390.20718 A 28.789347 48.992397 0 1 1  286.88332,390.20718 A 28.789347 48.992397 0 1 1  344.46202 390.20718 z" />
        <path
           sodipodi:type="arc"
           style="fill:#ffffff;fill-opacity:1;fill-rule:nonzero;stroke-width:20;stroke-miterlimit:4;stroke-dasharray:none"
           id="path4509"
           sodipodi:cx="324.25897"
           sodipodi:cy="361.92291"
           sodipodi:rx="9.0913725"
           sodipodi:ry="9.5964489"
           d="M 333.35034 361.92291 A 9.0913725 9.5964489 0 1 1  315.1676,361.92291 A 9.0913725 9.5964489 0 1 1  333.35034 361.92291 z"
           transform="matrix(1,0,0,1.4736842,0,-170.9321)" />
      </g>
      <path
         inkscape:export-ydpi="8.3623056"
         inkscape:export-xdpi="8.3623056"
         inkscape:export-filename="/media/home/piers/Documents/Maryo/overworld/pngs/maryo_overworld_down_2b.png"
         sodipodi:nodetypes="cc"
         id="path4575"
         d="M 287.6783,532.903 C 293.78978,596.23345 425.18652,595.51378 429.46455,532.18334"
         style="fill:none;fill-rule:evenodd;stroke:#000000;stroke-width:4.64232969;stroke-linecap:butt;stroke-linejoin:miter;stroke-miterlimit:4;stroke-dasharray:none;stroke-opacity:1;display:inline" />
      <path
         inkscape:export-ydpi="8.3623056"
         inkscape:export-xdpi="8.3623056"
         inkscape:export-filename="/media/home/piers/Documents/Maryo/overworld/pngs/maryo_overworld_down_2b.png"
         id="path4583"
         d="M 404.28571,398.79075 C 440,381.6479 482.14286,387.36218 482.14286,387.36218"
         style="fill:none;fill-rule:evenodd;stroke:#000000;stroke-width:5;stroke-linecap:butt;stroke-linejoin:miter;stroke-miterlimit:4;stroke-dasharray:none;stroke-opacity:1;display:inline" />
      <path
         inkscape:export-ydpi="8.3623056"
         inkscape:export-xdpi="8.3623056"
         inkscape:export-filename="/media/home/piers/Documents/Maryo/overworld/pngs/maryo_overworld_down_2b.png"
         style="fill:none;fill-rule:evenodd;stroke:#000000;stroke-width:5;stroke-linecap:butt;stroke-linejoin:miter;stroke-miterlimit:4;stroke-dasharray:none;stroke-opacity:1;display:inline"
         d="M 308.14286,398.79075 C 272.42857,381.6479 230.28571,387.36218 230.28571,387.36218"
         id="path4585" />
      <path
         inkscape:export-ydpi="8.3623056"
         inkscape:export-xdpi="8.3623056"
         inkscape:export-filename="/media/home/piers/Documents/Maryo/overworld/pngs/maryo_overworld_down_2b.png"
         id="path4501"
         d="M 168.125,372.65625 C 155.28972,376.46199 142.47014,380.3223 129.625,384.09375 C 127.10637,395.24216 124.61752,406.39883 122.03125,417.53125 C 132.28434,429.15032 140.98151,444.49556 138.09375,460.40625 C 148.95833,460.40625 159.82292,460.40625 170.6875,460.40625 C 170.6875,430.89583 170.6875,401.38542 170.6875,371.875 C 169.83333,372.13542 168.97917,372.39583 168.125,372.65625 z "
         style="fill:#aa8b59;fill-opacity:1;fill-rule:evenodd;stroke:#000000;stroke-width:5;stroke-linecap:butt;stroke-linejoin:miter;stroke-miterlimit:4;stroke-dasharray:none;stroke-opacity:1;display:inline" />
      <path
         inkscape:export-ydpi="8.3623056"
         inkscape:export-xdpi="8.3623056"
         inkscape:export-filename="/media/home/piers/Documents/Maryo/overworld/pngs/maryo_overworld_down_2b.png"
         id="path4503"
         d="M 539.40625,365.46875 C 539.40625,394.08333 539.40625,422.69792 539.40625,451.3125 C 550.4375,451.3125 561.46875,451.3125 572.5,451.3125 C 568.88556,438.74689 575.41043,425.65684 582.4375,415.4375 C 584.81611,411.54157 590.11112,408.66588 586.93241,403.56677 C 584.79209,394.04367 582.62304,384.52692 580.5,375 C 566.7921,370.96209 553.09551,366.8826 539.40625,362.78125 C 539.40625,363.67708 539.40625,364.57292 539.40625,365.46875 z "
         style="fill:#aa8b59;fill-opacity:1;fill-rule:evenodd;stroke:#000000;stroke-width:5;stroke-linecap:butt;stroke-linejoin:miter;stroke-miterlimit:4;stroke-dasharray:none;stroke-opacity:1;display:inline" />
      <g
         id="g4605"
         style="display:inline">
        <path
           style="opacity:1;fill:#e86344;fill-opacity:1;fill-rule:evenodd;stroke:#000000;stroke-width:15;stroke-linecap:butt;stroke-linejoin:miter;stroke-miterlimit:4;stroke-dasharray:none;stroke-opacity:1"
           d="M 357.15625,193.71875 C 304.78899,194.55964 251.83557,195.90694 200.68875,208.00287 C 181.80019,212.39451 163.02427,220.53514 150.0625,235.28125 C 141.04394,244.02263 137.13828,256.32505 135.8125,268.46875 C 133.15803,279.63831 119.67281,281.68862 111.17503,287.17261 C 83.566826,300.97373 55.838181,314.5574 28.09375,328.09375 C 50.332307,347.5868 73.503662,366.49635 95.25,386.25 C 96.124003,397.20934 94.535128,408.34479 91.34375,418.875 C 103.07269,419.27663 114.80121,419.69521 126.53125,420.0625 C 124.35574,406.24976 127.31572,388.03189 141.78125,382.34375 C 166.47861,376.19908 192.26788,376.39605 217.59155,374.88514 C 303.0197,371.77568 388.52108,373.77734 473.9675,374.89316 C 505.80554,376.0488 538.05303,375.77796 569.37425,381.87596 C 578.95922,383.26768 585.47083,392.38238 587.875,401.15625 C 588.36616,404.31087 586.97201,408.29687 591.93634,406.91182 C 602.0931,407.2497 612.24886,407.61963 622.40625,407.9375 C 618.61877,363.34472 613.54569,318.49058 601.21875,275.375 C 596.57312,260.38906 590.69617,244.22035 576.6875,235.5625 C 543.903,212.06115 502.57668,204.28731 463.20294,198.93943 C 428.04009,194.63275 392.55681,193.50637 357.15625,193.71875 z "
           id="path8177"
           inkscape:export-filename="/media/home/piers/Documents/Maryo/overworld/pngs/maryo_overworld_down_2b.png"
           inkscape:export-xdpi="8.3623056"
           inkscape:export-ydpi="8.3623056" />
        <path
           style="fill:none;fill-rule:evenodd;stroke:#000000;stroke-width:10;stroke-linecap:butt;stroke-linejoin:miter;stroke-miterlimit:4;stroke-dasharray:none;stroke-opacity:1"
           d="M 137.5,267.03125 C 132.3158,290.79556 128.12649,314.8416 125.34375,338.96875 C 127.27643,348.79516 130.85344,334.62792 130.81278,330.65718 C 134.13165,309.39198 138.56281,288.08003 141.18864,266.84396 C 140.47267,261.13704 139.74758,264.49378 137.5,267.03125 z "
           id="path8193"
           inkscape:export-filename="/media/home/piers/Documents/Maryo/overworld/pngs/maryo_overworld_down_2b.png"
           inkscape:export-xdpi="8.3623056"
           inkscape:export-ydpi="8.3623056" />
        <path
           style="fill:#ffffff;fill-rule:evenodd;stroke:#000000;stroke-width:1px;stroke-linecap:butt;stroke-linejoin:miter;stroke-opacity:1"
           d="M 229.90625,222.71875 C 209.92263,232.5533 189.9748,242.46181 169.96875,252.25 C 176.4824,264.8525 182.98402,277.46121 189.5,290.0625 C 198.54546,279.37662 207.56037,268.66486 216.59375,257.96875 C 215.1024,266.04134 213.63698,274.11874 212.125,282.1875 C 219.78432,277.66859 227.41547,273.10214 235.0625,268.5625 C 229.51856,280.88439 223.99394,293.215 218.4375,305.53125 C 231.0459,307.73626 243.64272,310.00731 256.25,312.21875 C 258.33326,286.62673 260.38298,261.03187 262.4375,235.4375 C 250.78298,243.90472 239.14707,252.39754 227.5,260.875 C 229.44224,247.59445 231.34273,234.30773 233.3125,221.03125 C 232.17708,221.59375 231.04167,222.15625 229.90625,222.71875 z "
           id="path4515"
           inkscape:export-filename="/media/home/piers/Documents/Maryo/overworld/pngs/maryo_overworld_down_2b.png"
           inkscape:export-xdpi="8.3623056"
           inkscape:export-ydpi="8.3623056" />
        <path
           style="fill:#ffffff;fill-rule:evenodd;stroke:#000000;stroke-width:0.77949601px;stroke-linecap:butt;stroke-linejoin:miter;stroke-opacity:1"
           d="M 353.75,207.78125 C 330.85402,208.68353 307.95921,209.61775 285.0625,210.5 C 284.94737,219.39544 284.91663,228.29189 284.8125,237.1875 C 297.2206,233.68938 309.60226,230.0974 322,226.5625 C 317.04739,230.44484 312.10469,234.33987 307.125,238.1875 C 315.72085,237.47246 324.31261,236.7096 332.90625,235.96875 C 322.69936,241.11743 312.47695,246.23542 302.28125,251.40625 C 313.23142,255.63985 324.16174,259.926 335.125,264.125 C 349.83296,250.02048 364.50612,235.87946 379.25,221.8125 C 364.65498,223.82417 350.06264,225.85521 335.46875,227.875 C 343.51117,221.10506 351.53943,214.31829 359.59375,207.5625 C 357.64583,207.63542 355.69792,207.70833 353.75,207.78125 z "
           id="path4517"
           inkscape:export-filename="/media/home/piers/Documents/Maryo/overworld/pngs/maryo_overworld_down_2b.png"
           inkscape:export-xdpi="8.3623056"
           inkscape:export-ydpi="8.3623056" />
        <path
           style="fill:#ffffff;fill-rule:evenodd;stroke:#000000;stroke-width:1.4032644px;stroke-linecap:butt;stroke-linejoin:miter;stroke-opacity:1"
           d="M 471.125,218.15625 C 448.52667,237.59879 425.96489,257.08427 403.34375,276.5 C 414.83514,292.91117 426.26922,309.36259 437.75,325.78125 C 446.54416,307.15802 455.37796,288.55348 464.1875,269.9375 C 464.5494,282.61466 464.9376,295.29108 465.28125,307.96875 C 474.00272,299.14805 482.65222,290.25644 491.34375,281.40625 C 487.62539,301.54174 483.90395,321.67666 480.1875,341.8125 C 496.4272,341.8707 512.66656,342.03397 528.90625,342.09375 C 524.5191,304.61239 520.10509,267.13406 515.6875,229.65625 C 503.08079,245.1998 490.52429,260.78405 477.9375,276.34375 C 476.68701,256.06253 475.44071,235.78105 474.1875,215.5 C 473.16667,216.38542 472.14583,217.27083 471.125,218.15625 z "
           id="path4519"
           inkscape:export-filename="/media/home/piers/Documents/Maryo/overworld/pngs/maryo_overworld_down_2b.png"
           inkscape:export-xdpi="8.3623056"
           inkscape:export-ydpi="8.3623056" />
        <path
           style="fill:#ffffff;fill-rule:evenodd;stroke:#000000;stroke-width:0.69978529px;stroke-linecap:butt;stroke-linejoin:miter;stroke-opacity:1"
           d="M 549.09375,255.6875 C 550.39776,273.86317 550.79296,292.3749 552.65625,310.34375 C 562.29619,322.33368 570.68666,335.3974 581.25,346.59375 C 579.64265,334.94152 575.44058,323.83995 572.65625,312.4375 C 574.95355,316.90429 578.21983,326.33888 581.06826,327.00233 C 582.57959,323.66992 578.68514,307.61786 581.75541,316.21137 C 586.25227,328.14142 590.75955,340.06754 595.25,352 C 600.36216,349.64225 605.4582,347.2497 610.5625,344.875 C 596.11753,316.57391 582.69885,287.64421 567.7431,259.66956 C 562.95895,252.67141 566.15228,267.90461 566.67901,271.31825 C 567.7235,277.6705 568.768,284.02275 569.8125,290.375 C 562.89916,276.73916 557.46396,262.29206 549.46875,249.25 C 549.34375,251.39583 549.21875,253.54167 549.09375,255.6875 z "
           id="path4521"
           inkscape:export-filename="/media/home/piers/Documents/Maryo/overworld/pngs/maryo_overworld_down_2b.png"
           inkscape:export-xdpi="8.3623056"
           inkscape:export-ydpi="8.3623056" />
        <path
           style="fill:#ffffff;fill-rule:evenodd;stroke:#000000;stroke-width:0.37226039px;stroke-linecap:butt;stroke-linejoin:miter;stroke-opacity:1"
           d="M 147.96875,291.59375 C 143.8203,298.1175 137.68922,304.17375 134.6875,310.96875 C 136.47653,320.27347 137.9645,329.63892 140.09375,338.875 C 141.70533,335.44117 144.84881,320.82846 143.85037,331.49673 C 144.29284,334.72178 150.25262,321.0352 146.98522,332.8927 C 146.06234,338.54895 143.10456,345.20179 151.1047,346.25212 C 158.192,352.32334 157.04492,344.68723 157.07506,338.97161 C 157.24133,324.46093 158.45611,309.9412 157.8125,295.4375 C 155.36566,297.50362 150.40666,312.37327 150.93642,305.56652 C 151.27125,299.09649 151.60835,292.62657 151.9375,286.15625 C 150.61458,287.96875 149.29167,289.78125 147.96875,291.59375 z "
           id="path4523"
           inkscape:export-filename="/media/home/piers/Documents/Maryo/overworld/pngs/maryo_overworld_down_2b.png"
           inkscape:export-xdpi="8.3623056"
           inkscape:export-ydpi="8.3623056" />
        <path
           style="fill:#ffffff;fill-rule:evenodd;stroke:#000000;stroke-width:0.77026284px;stroke-linecap:butt;stroke-linejoin:miter;stroke-opacity:1"
           d="M 345.28125,275.875 C 347.61458,284.92708 349.94792,293.97917 352.28125,303.03125 C 343.10457,297.20769 333.92385,291.39051 324.75,285.5625 C 326.01961,303.5105 327.29861,321.45785 328.5625,339.40625 C 340.30172,339.54813 352.04171,339.63204 363.78125,339.75 C 358.80512,330.47271 353.8448,321.18694 348.875,311.90625 C 354.13537,315.48964 359.39284,319.07732 364.65625,322.65625 C 363.63857,316.20947 362.63536,309.76042 361.625,303.3125 C 368.835,310.96718 376.03173,318.63437 383.25,326.28125 C 389.03019,318.45485 394.80893,310.62722 400.5625,302.78125 C 381.73505,292.32922 362.92527,281.84471 344.125,271.34375 C 344.51042,272.85417 344.89583,274.36458 345.28125,275.875 z "
           id="path4525"
           inkscape:export-filename="/media/home/piers/Documents/Maryo/overworld/pngs/maryo_overworld_down_2b.png"
           inkscape:export-xdpi="8.3623056"
           inkscape:export-ydpi="8.3623056" />
        <path
           style="fill:none;fill-rule:evenodd;stroke:#000000;stroke-width:5;stroke-linecap:butt;stroke-linejoin:miter;stroke-miterlimit:4;stroke-dasharray:none;stroke-opacity:1"
           d="M 98.571429,388.07647 C 107.14285,375.21933 117.14286,357.36219 132.14286,354.50504 C 161.44547,348.92359 245.71429,346.6479 245.71429,346.6479"
           id="path4577"
           sodipodi:nodetypes="csc"
           inkscape:export-filename="/media/home/piers/Documents/Maryo/overworld/pngs/maryo_overworld_down_2b.png"
           inkscape:export-xdpi="8.3623056"
           inkscape:export-ydpi="8.3623056" />
        <path
           sodipodi:nodetypes="csc"
           id="path4579"
           d="M 616.1425,384.21896 C 609.60163,372.64777 606.95785,359.48995 590.52408,354.00528 C 563.19878,344.88563 503.85752,346.93399 503.85752,346.93399"
           style="fill:none;fill-rule:evenodd;stroke:#000000;stroke-width:4.14360285;stroke-linecap:butt;stroke-linejoin:miter;stroke-miterlimit:4;stroke-dasharray:none;stroke-opacity:1"
           inkscape:export-filename="/media/home/piers/Documents/Maryo/overworld/pngs/maryo_overworld_down_2b.png"
           inkscape:export-xdpi="8.3623056"
           inkscape:export-ydpi="8.3623056" />
      </g>
      <path
         inkscape:export-ydpi="8.3623056"
         inkscape:export-xdpi="8.3623056"
         inkscape:export-filename="/media/home/piers/Documents/Maryo/overworld/pngs/maryo_overworld_down_2b.png"
         id="path8166"
         d="M 584.48342,211.33499 C 559.1124,215.91954 533.19833,220.72424 509.79924,233.60531 C 486.6568,249.25722 471.33642,276.13822 455.97423,301.42002 C 441.02065,327.44746 426.34836,353.84969 412.87941,380.9377 C 410.10349,387.5688 415.46512,382.89904 417.34809,380.5581 C 440.63744,356.27389 471.22502,345.98272 499.86756,334.66868 C 538.52179,322.83623 578.94285,323.92161 618.62851,323.53352 C 607.18393,303.73473 589.2786,288.83372 568.91276,286.60969 C 554.02773,283.95893 538.88644,283.14396 523.81891,282.8196 C 528.1652,268.26342 534.30821,253.20056 546.06693,245.24234 C 560.30847,233.1638 575.68426,223.00191 590.06508,211.08405 C 588.20453,211.16769 586.34398,211.25134 584.48342,211.33499 z "
         style="fill:#aa8b59;fill-opacity:1;fill-rule:evenodd;stroke:#000000;stroke-width:7.16044712;stroke-linecap:butt;stroke-linejoin:miter;stroke-miterlimit:4;stroke-dasharray:none;stroke-opacity:1;display:inline" />
      <g
         inkscape:export-ydpi="8.3623056"
         inkscape:export-xdpi="8.3623056"
         inkscape:export-filename="/media/home/piers/Documents/Maryo/overworld/pngs/maryo_overworld_down_2b.png"
         id="g4475">
        <g
           id="g4457">
          <path
             sodipodi:nodetypes="csscc"
             id="path8484"
             d="M 167.37363,868.78351 C 167.37363,810.78206 177.85166,788.80256 257.48474,788.80256 C 337.11783,788.80256 351.78707,811.08733 351.78707,839.47752 C 351.78708,883.44075 351.78707,868.78352 351.78707,868.78352 L 166.95451,866.95189"
             style="fill:#aa8b59;fill-opacity:1;fill-rule:evenodd;stroke:#000000;stroke-width:15;stroke-linecap:butt;stroke-linejoin:miter;stroke-miterlimit:4;stroke-dasharray:none;stroke-opacity:1" />
          <path
             sodipodi:nodetypes="csccccccccccccccccccc"
             id="path8486"
             d="M 168.76547,863.49608 C 182.98028,860.40599 347.2868,860.74933 351.88571,863.49608 C 356.48462,866.24282 354.39421,882.37994 354.39421,882.37994 L 335.58048,882.37994 L 335.70293,878.12475 L 314.38071,877.43806 L 315.09443,883.40996 L 293.7722,882.72328 L 293.89465,878.81144 L 275.49902,878.46809 L 276.21273,883.75331 L 251.54584,882.72328 L 251.6683,877.09472 L 231.18225,876.75138 L 230.64171,882.72328 L 208.06525,882.03659 L 207.35152,877.43806 L 189.37397,876.75138 L 189.25152,882.37994 L 166.67505,882.03659 L 168.76547,863.49608 z "
             style="fill:#f2ab2a;fill-opacity:1;fill-rule:evenodd;stroke:#000000;stroke-width:8;stroke-linecap:butt;stroke-linejoin:miter;stroke-miterlimit:4;stroke-dasharray:none;stroke-opacity:1" />
        </g>
        <path
           sodipodi:type="arc"
           style="fill:#f2ab2a;fill-opacity:1;stroke-width:10;stroke-miterlimit:4;stroke-dasharray:none"
           id="path4473"
           sodipodi:cx="304.28571"
           sodipodi:cy="824.50507"
           sodipodi:rx="28.571428"
           sodipodi:ry="15"
           d="M 332.85713 824.50507 A 28.571428 15 0 1 1  275.71428,824.50507 A 28.571428 15 0 1 1  332.85713 824.50507 z"
           transform="matrix(1.1335309,0.2337456,-0.2038959,1.2994766,120.33876,-315.90252)" />
      </g>
      <g
         inkscape:export-ydpi="8.3623056"
         inkscape:export-xdpi="8.3623056"
         inkscape:export-filename="/media/home/piers/Documents/Maryo/overworld/pngs/maryo_overworld_down_2b.png"
         id="g4495">
        <g
           id="g4483"
           transform="matrix(-1,0,0,1,706.62995,0)">
          <path
             style="fill:#aa8b59;fill-opacity:1;fill-rule:evenodd;stroke:#000000;stroke-width:15;stroke-linecap:butt;stroke-linejoin:miter;stroke-miterlimit:4;stroke-dasharray:none;stroke-opacity:1"
             d="M 167.37363,868.78351 C 167.37363,810.78206 177.85166,788.80256 257.48474,788.80256 C 337.11783,788.80256 351.78707,811.08733 351.78707,839.47752 C 351.78708,883.44075 351.78707,868.78352 351.78707,868.78352 L 166.95451,866.95189"
             id="path4485"
             sodipodi:nodetypes="csscc" />
          <path
             style="fill:#f2ab2a;fill-opacity:1;fill-rule:evenodd;stroke:#000000;stroke-width:8;stroke-linecap:butt;stroke-linejoin:miter;stroke-miterlimit:4;stroke-dasharray:none;stroke-opacity:1"
             d="M 168.76547,863.49608 C 182.98028,860.40599 347.2868,860.74933 351.88571,863.49608 C 356.48462,866.24282 354.39421,882.37994 354.39421,882.37994 L 335.58048,882.37994 L 335.70293,878.12475 L 314.38071,877.43806 L 315.09443,883.40996 L 293.7722,882.72328 L 293.89465,878.81144 L 275.49902,878.46809 L 276.21273,883.75331 L 251.54584,882.72328 L 251.6683,877.09472 L 231.18225,876.75138 L 230.64171,882.72328 L 208.06525,882.03659 L 207.35152,877.43806 L 189.37397,876.75138 L 189.25152,882.37994 L 166.67505,882.03659 L 168.76547,863.49608 z "
             id="path4487"
             sodipodi:nodetypes="csccccccccccccccccccc" />
        </g>
        <path
           transform="matrix(1.1335309,0.2337456,-0.2038959,1.2994766,307.43439,-317.92283)"
           d="M 332.85713 824.50507 A 28.571428 15 0 1 1  275.71428,824.50507 A 28.571428 15 0 1 1  332.85713 824.50507 z"
           sodipodi:ry="15"
           sodipodi:rx="28.571428"
           sodipodi:cy="824.50507"
           sodipodi:cx="304.28571"
           id="path4489"
           style="fill:#f2ab2a;fill-opacity:1;stroke-width:10;stroke-miterlimit:4;stroke-dasharray:none"
           sodipodi:type="arc" />
      </g>
    </g>
    <g
       id="g2313"
       inkscape:export-filename="/media/home/piers/Documents/Maryo/overworld/svgs/64px/right_right.png"
       inkscape:export-xdpi="7.0044141"
       inkscape:export-ydpi="7.0044141">
      <path
         sodipodi:nodetypes="csccs"
         id="path9508"
         d="M 540.3571,640.75504 C 542.3214,640.7104 541.25,655.39789 540.3572,668.25504 C 539.5232,680.09769 526.0714,704.86218 526.0714,704.86218 L 526.0714,671.29075 C 526.0714,671.29075 536.7069,640.83799 540.3571,640.75504 z "
         style="fill:#2b0000;fill-opacity:1;fill-rule:evenodd;stroke:#000000;stroke-width:5;stroke-linecap:butt;stroke-linejoin:miter;stroke-miterlimit:4;stroke-dasharray:none;stroke-opacity:1;display:inline" />
      <path
         style="fill:#fad6c1;fill-opacity:1;fill-rule:evenodd;stroke:#000000;stroke-width:3.65901327;stroke-linecap:butt;stroke-linejoin:miter;stroke-miterlimit:4;stroke-dasharray:none;stroke-opacity:1;display:inline"
         d="M 495.8159,656.98772 C 495.8159,656.98772 511.7594,664.27141 529.8216,669.14115 C 547.5034,673.90837 576.1389,667.98571 576.1389,667.98571 L 573.2468,649.45207 C 573.2468,649.45207 547.3984,654.63064 536.796,651.48221 C 522.1718,647.13947 501.6304,637.56435 501.6304,637.56435 L 495.8159,656.98772 z "
         id="path9451"
         inkscape:export-filename="/media/home/piers/Documents/Maryo/overworld/pngs/maryo_overworld_right_2b.png"
         inkscape:export-xdpi="14.9"
         inkscape:export-ydpi="14.9"
         sodipodi:nodetypes="czccscc"
         inkscape:transform-center-y="8.263358"
         inkscape:transform-center-x="-45.205234" />
      <path
         style="fill:#0685b6;fill-opacity:1;fill-rule:evenodd;stroke:#000000;stroke-width:10;stroke-linecap:butt;stroke-linejoin:miter;stroke-miterlimit:4;stroke-dasharray:none;stroke-opacity:1;display:inline"
         d="M 486.6781,644.01149 L 534.173,643.08984 C 534.173,643.08984 524.4075,674.84486 526.3122,708.72461 C 500.6715,691.06818 460.7594,670.15202 460.7594,670.15202"
         id="path9453"
         sodipodi:nodetypes="cccc"
         inkscape:export-filename="/media/home/piers/Documents/Maryo/overworld/pngs/maryo_overworld_right_2b.png"
         inkscape:export-xdpi="14.9"
         inkscape:export-ydpi="14.9"
         inkscape:transform-center-x="-46.801076"
         inkscape:transform-center-y="27.720169" />
      <g
         style="fill:#ffffff;fill-opacity:1;display:inline"
         transform="matrix(1.3626187,0,0,1.3626187,-1323.2998,-1395.5324)"
         id="g9469">
        <path
           sodipodi:nodetypes="czssz"
           id="path9463"
           d="M 1412.067,1467.102 C 1409.9108,1471.4355 1415.8788,1484.1461 1420.2273,1484.8419 C 1424.6623,1485.5514 1448.4337,1475.7945 1450.9172,1471.8918 C 1453.4008,1467.989 1449.4094,1456.0146 1443.7326,1454.3294 C 1440.3441,1453.3234 1414.3289,1462.5562 1412.067,1467.102 z "
           style="fill:#ffffff;fill-opacity:1;fill-rule:evenodd;stroke:#000000;stroke-width:3;stroke-linecap:butt;stroke-linejoin:miter;stroke-miterlimit:4;stroke-dasharray:none;stroke-opacity:1" />
        <path
           style="fill:#ffffff;fill-opacity:1;fill-rule:evenodd;stroke:#000000;stroke-width:3;stroke-linecap:butt;stroke-linejoin:miter;stroke-miterlimit:4;stroke-dasharray:none;stroke-opacity:1"
           d="M 1420.7399,1486.0551 C 1418.5837,1490.3886 1424.5517,1503.0992 1428.9002,1503.7949 C 1433.3352,1504.5045 1457.1066,1494.7476 1459.5901,1490.8448 C 1462.0737,1486.9421 1458.0823,1474.9677 1452.4055,1473.2824 C 1449.017,1472.2765 1423.0018,1481.5093 1420.7399,1486.0551 z "
           id="path9459"
           sodipodi:nodetypes="czssz" />
        <path
           style="fill:#ffffff;fill-opacity:1;fill-rule:evenodd;stroke:#000000;stroke-width:3;stroke-linecap:butt;stroke-linejoin:miter;stroke-miterlimit:4;stroke-dasharray:none;stroke-opacity:1"
           d="M 1429.3465,1505.8703 C 1427.1903,1510.2038 1433.1583,1522.9144 1437.5068,1523.6101 C 1441.9418,1524.3197 1465.7132,1514.5628 1468.1967,1510.66 C 1470.6803,1506.7573 1466.6889,1494.7829 1461.0121,1493.0976 C 1457.6236,1492.0917 1431.6084,1501.3245 1429.3465,1505.8703 z "
           id="path9465"
           sodipodi:nodetypes="czssz" />
        <path
           style="fill:#ffffff;fill-opacity:1;fill-rule:nonzero;stroke:#000000;stroke-width:3;stroke-linecap:round;stroke-linejoin:miter;stroke-miterlimit:4;stroke-dasharray:none;stroke-opacity:1"
           d="M 1395.5257,1494.809 C 1395.5257,1494.809 1402.0917,1515.012 1405.1222,1515.5171 C 1408.1526,1516.0222 1424.8202,1511.4765 1426.8405,1507.4359 C 1428.8608,1503.3953 1415.7288,1469.0501 1410.678,1467.0298 C 1405.6273,1465.0095 1379.8684,1477.1313 1377.8481,1487.2329 C 1375.8278,1497.3344 1388.9597,1535.7202 1398.0511,1537.7405 C 1407.1425,1539.7608 1432.5897,1540.9908 1460.1882,1522.4873 C 1468.6221,1516.8328 1470.0694,1511.3307 1468.7779,1508.3339 C 1466.1252,1515.0788 1442.1459,1524.3235 1438.0112,1523.9213 C 1432.4935,1523.3846 1429.6102,1513.8985 1427.4106,1507.8132"
           id="path9467"
           sodipodi:nodetypes="csssssscsc" />
      </g>
      <path
         id="path9502"
         d="M 213.2876,717.45328 L 261.5186,658.14982 L 335.2837,784.66386 L 251.5887,804.43168 L 213.2876,717.45328 z "
         style="fill:#2b0000;fill-opacity:1;fill-rule:evenodd;stroke:#000000;stroke-width:5.86099386;stroke-linecap:butt;stroke-linejoin:miter;stroke-miterlimit:4;stroke-dasharray:none;stroke-opacity:1;display:inline" />
      <path
         transform="translate(-820,0)"
         inkscape:export-ydpi="14.9"
         inkscape:export-xdpi="14.9"
         inkscape:export-filename="/media/home/piers/Documents/Maryo/overworld/pngs/maryo_overworld_right_2b.png"
         sodipodi:open="true"
         sodipodi:end="6.3915684"
         sodipodi:start="3.002884"
         d="M 1076.0248,699.62089 A 127.27922,137.38075 0 1 1 1328.6139,695.48665"
         sodipodi:ry="137.38075"
         sodipodi:rx="127.27922"
         sodipodi:cy="680.62604"
         sodipodi:cx="1202.0815"
         id="path2288"
         style="fill:#0685b6;fill-opacity:1;stroke:#000000;stroke-width:10;stroke-miterlimit:4;stroke-dasharray:none;stroke-opacity:1;display:inline"
         sodipodi:type="arc" />
      <path
         style="fill:#ffffff;fill-rule:evenodd;stroke:#000000;stroke-width:0.51305038px;stroke-linecap:butt;stroke-linejoin:miter;stroke-opacity:1;display:inline"
         d="M 461.8958,624.21786 C 457.7038,636.33926 453.5258,648.47371 449.3252,660.58696 C 454.0188,665.96547 458.7008,671.37074 463.3924,676.75421 C 463.9464,667.18409 464.513,657.61589 465.072,648.0465 C 466.4045,653.55314 467.744,659.05529 469.0716,664.56505 C 470.5611,659.30887 472.0243,654.033 473.5029,648.76864 C 474.4631,658.19662 475.4225,667.62484 476.3832,677.05266 C 480.7625,674.49984 485.152,671.99318 489.5314,669.44105 C 484.6983,653.68675 479.8583,637.93805 475.0174,622.19013 C 473.1365,631.01387 471.2732,639.8475 469.3992,648.67517 C 467.0865,639.97213 464.7751,631.26832 462.4618,622.56579 C 462.2731,623.11648 462.0844,623.66717 461.8958,624.21786 z "
         id="path9150"
         inkscape:export-filename="/media/home/piers/Documents/Maryo/overworld/pngs/maryo_overworld_right_2b.png"
         inkscape:export-xdpi="14.9"
         inkscape:export-ydpi="14.9" />
      <path
         inkscape:transform-center-x="56.473738"
         inkscape:transform-center-y="24.104565"
         sodipodi:nodetypes="czccscc"
         inkscape:export-ydpi="14.9"
         inkscape:export-xdpi="14.9"
         inkscape:export-filename="/media/home/piers/Documents/Maryo/overworld/pngs/maryo_overworld_right_2b.png"
         id="path9292"
         d="M 273.5986,612.00504 C 273.5986,612.00504 251.1368,615.08668 228.2026,622.7155 C 205.7513,630.18364 179.52756,658.97034 179.52756,658.97034 L 196.3899,679.47039 C 196.3899,679.47039 220.1858,653.69059 233.8635,649.56723 C 252.7293,643.87983 281.8108,640.14299 281.8108,640.14299 L 273.5986,612.00504 z "
         style="fill:#fad6c1;fill-opacity:1;fill-rule:evenodd;stroke:#000000;stroke-width:5;stroke-linecap:butt;stroke-linejoin:miter;stroke-miterlimit:4;stroke-dasharray:none;stroke-opacity:1;display:inline" />
      <path
         transform="translate(-820,0)"
         sodipodi:open="true"
         sodipodi:end="8.9409372"
         sodipodi:start="3.002884"
         d="M 1088.8725,699.30296 A 105.71429,21.785715 0 1 1 1099.9916,706.4251"
         sodipodi:ry="21.785715"
         sodipodi:rx="105.71429"
         sodipodi:cy="696.29077"
         sodipodi:cx="1193.5714"
         id="path9449"
         style="fill:#0685b6;fill-opacity:1;fill-rule:nonzero;stroke:none;stroke-width:3;stroke-miterlimit:4;stroke-dasharray:none;stroke-opacity:1;display:inline"
         sodipodi:type="arc" />
      <path
         sodipodi:nodetypes="cscccs"
         id="path9506"
         d="M 378.2397,848.96407 C 382.5791,853.05096 440.7143,829.50504 462.1429,806.6479 C 483.5714,783.79075 493.5714,753.79075 493.5714,753.79075 L 435,797.36218 L 394.2857,828.79075 C 394.2857,828.79075 372.5757,843.62972 378.2397,848.96407 z "
         style="fill:#2b0000;fill-opacity:1;fill-rule:evenodd;stroke:#000000;stroke-width:7;stroke-linecap:butt;stroke-linejoin:miter;stroke-miterlimit:4;stroke-dasharray:none;stroke-opacity:1;display:inline" />
      <path
         inkscape:transform-center-y="29.222524"
         inkscape:transform-center-x="49.582124"
         inkscape:export-ydpi="14.9"
         inkscape:export-xdpi="14.9"
         inkscape:export-filename="/media/home/piers/Documents/Maryo/overworld/pngs/maryo_overworld_right_2b.png"
         sodipodi:nodetypes="cccc"
         id="path9294"
         d="M 324.7484,663.94352 L 290.5059,681.13769 C 290.5059,681.13769 264.3575,629.76776 241.3936,608.04273 C 270.0779,605.1574 293.6361,590.30019 293.6361,590.30019"
         style="fill:#0685b6;fill-opacity:1;fill-rule:evenodd;stroke:#000000;stroke-width:10;stroke-linecap:butt;stroke-linejoin:miter;stroke-miterlimit:4;stroke-dasharray:none;stroke-opacity:1;display:inline" />
      <path
         style="fill:#e86344;fill-opacity:1;fill-rule:evenodd;stroke:#000000;stroke-width:5.49668074;stroke-linecap:butt;stroke-linejoin:miter;stroke-miterlimit:4;stroke-dasharray:none;stroke-opacity:1;display:inline"
         d="M 269.0384,595.52902 C 263.702,596.44962 259.8262,599.72466 267.8811,599.59133 C 320.3634,609.08788 369.5285,633.38177 411.2884,666.18527 C 421.3382,643.49397 432.7889,619.73907 451.8197,603.21652 C 390.7999,603.36089 329.9384,598.41938 269.0384,595.52902 z "
         id="path9347"
         inkscape:export-filename="/media/home/piers/Documents/Maryo/overworld/pngs/maryo_overworld_right_2b.png"
         inkscape:export-xdpi="14.9"
         inkscape:export-ydpi="14.9" />
      <g
         transform="matrix(-0.6576511,-1.1568609,-0.8047938,0.5296416,1051.023,636.89715)"
         id="g9484"
         inkscape:export-filename="/media/home/piers/Documents/Maryo/overworld/pngs/maryo_overworld_right_2b.png"
         inkscape:export-xdpi="14.9"
         inkscape:export-ydpi="14.9"
         style="fill:#2b0000;fill-opacity:1;display:inline">
        <path
           sodipodi:nodetypes="csscc"
           id="path9486"
           d="M 167.37363,868.78351 C 167.37363,802.21063 189.13788,785.01922 257.48474,788.80256 C 347.81077,793.80256 351.25242,798.23019 351.78707,839.47752 C 352.36687,883.43393 351.78707,868.78352 351.78707,868.78352 L 166.95451,866.95189"
           style="fill:#2b0000;fill-opacity:1;fill-rule:evenodd;stroke:#000000;stroke-width:15;stroke-linecap:butt;stroke-linejoin:miter;stroke-miterlimit:4;stroke-dasharray:none;stroke-opacity:1" />
        <path
           sodipodi:nodetypes="csccccccccccccccccccc"
           id="path9488"
           d="M 164.55717,869.95467 C 179.05045,866.87485 346.57572,867.21705 351.26472,869.95467 C 355.95372,872.69228 353.82236,888.77577 353.82236,888.77577 L 334.64007,888.77577 L 334.76492,884.53472 L 313.025,883.85032 L 313.7527,889.80237 L 292.01277,889.11797 L 292.13762,885.21913 L 273.38162,884.87692 L 274.10931,890.14458 L 248.9592,889.11797 L 249.08406,883.50812 L 228.19669,883.16592 L 227.64556,889.11797 L 204.62683,888.43356 L 203.89912,883.85032 L 185.56939,883.16592 L 185.44454,888.77577 L 162.4258,888.43356 L 164.55717,869.95467 z "
           style="fill:#2b0000;fill-opacity:1;fill-rule:evenodd;stroke:#000000;stroke-width:8.06454468;stroke-linecap:butt;stroke-linejoin:miter;stroke-miterlimit:4;stroke-dasharray:none;stroke-opacity:1" />
      </g>
      <path
         inkscape:export-ydpi="14.9"
         inkscape:export-xdpi="14.9"
         inkscape:export-filename="/media/home/piers/Documents/Maryo/overworld/pngs/maryo_overworld_right_2b.png"
         sodipodi:nodetypes="ccscscccccsc"
         id="path9249"
         d="M 263.4146,693.52823 C 324.1958,713.07035 424.1088,719.57778 483.4328,690.65939 C 486.514,687.34359 491.4739,677.42936 499.5953,685.00639 C 506.9796,691.89573 491.514,703.40568 491.514,703.40568 C 491.514,703.40568 491.9757,709.97319 490.1678,718.10683 C 488.6007,725.15655 488.5267,730.39778 483.8543,734.01673 C 490.7987,735.36284 499.7642,738.56242 510.8759,744.87587 C 465.419,774.92791 402.7896,816.09163 376.5256,845.38605 C 304.8048,796.39364 282.5456,776.42084 281.0662,745.38095 C 274.8357,741.70263 254.1865,726.45593 255.2976,709.97527 C 251.0515,700.63747 245.039,702.72016 247.0527,695.67109 C 249.1956,688.1699 256.5675,685.88912 263.4146,693.52823 z "
         style="fill:#e86344;fill-opacity:1;fill-rule:evenodd;stroke:#000000;stroke-width:10;stroke-linecap:butt;stroke-linejoin:miter;stroke-miterlimit:4;stroke-dasharray:none;stroke-opacity:1" />
      <g
         inkscape:transform-center-y="26.307731"
         inkscape:transform-center-x="53.309496"
         transform="matrix(-0.6968314,0.7172349,-0.7172349,-0.6968314,1511.8123,311.55832)"
         inkscape:export-ydpi="14.9"
         inkscape:export-xdpi="14.9"
         inkscape:export-filename="/media/home/piers/Documents/Maryo/overworld/pngs/maryo_overworld_right_2b.png"
         id="g9397">
        <path
           style="fill:#ffffff;fill-rule:nonzero;stroke:#000000;stroke-width:7;stroke-linecap:butt;stroke-linejoin:miter;stroke-miterlimit:4;stroke-dasharray:none;stroke-opacity:1"
           d="M 1187.3427,672.84237 C 1187.3427,672.84237 1213.0901,671.14992 1222.9741,673.32347 C 1225.8651,664.07312 1224.1674,662.75605 1223.3738,659.76611 C 1221.3014,651.95751 1180.1173,643.08631 1166.4453,654.34514 C 1145.2959,671.76166 1134.2517,720.50408 1145.8535,733.04274 C 1157.4551,745.58146 1237.2598,775.96944 1253.405,765.0667 C 1272.6289,752.08487 1286.0798,683.25867 1274.8276,668.91674 C 1263.5753,654.57493 1243.5171,649.87369 1231.4092,654.43487 C 1222.5805,657.76075 1226.6875,664.40465 1223.0792,673.37889 C 1232.9446,675.44835 1239.8771,677.17014 1246.4705,681.49603 C 1253.6274,673.52858 1249.6159,665.2674 1249.6159,665.2674"
           id="path9251"
           sodipodi:nodetypes="ccssssssccc" />
        <path
           style="fill:#fad6c1;fill-opacity:1;fill-rule:evenodd;stroke:#000000;stroke-width:5;stroke-linecap:butt;stroke-linejoin:miter;stroke-miterlimit:4;stroke-dasharray:none;stroke-opacity:1"
           d="M 1185.6997,739.99877 C 1189.3027,748.41924 1211.3101,754.01079 1218.0373,751.36066 C 1224.3703,748.86581 1234.6105,708.36265 1231.1506,701.76447 C 1227.6765,695.13909 1202.7601,690.27154 1196.0341,694.21388 C 1188.4379,698.66621 1182.7322,733.06338 1185.6997,739.99877 z "
           id="path9253"
           sodipodi:nodetypes="cssss" />
        <path
           style="fill:none;fill-rule:evenodd;stroke:#000000;stroke-width:5;stroke-linecap:butt;stroke-linejoin:miter;stroke-miterlimit:4;stroke-dasharray:none;stroke-opacity:1"
           d="M 1246.3603,742.06315 C 1257.2346,744.66118 1264.793,748.76602 1268.4111,739.12072"
           id="path9269" />
        <path
           id="path9271"
           d="M 1253.7832,710.99374 C 1264.6575,713.59178 1272.2159,717.69662 1275.834,708.05132"
           style="fill:none;fill-rule:evenodd;stroke:#000000;stroke-width:5;stroke-linecap:butt;stroke-linejoin:miter;stroke-miterlimit:4;stroke-dasharray:none;stroke-opacity:1" />
      </g>
      <g
         inkscape:transform-center-y="-116.05742"
         inkscape:transform-center-x="-54.578513"
         transform="matrix(0.6606672,-0.750679,0.750679,0.6606672,-917.94212,1179.6672)"
         id="g9475">
        <g
           transform="matrix(-1.3359956,0,0,1,1565.9203,0.4881926)"
           id="g9299"
           inkscape:export-filename="/media/home/piers/Documents/Maryo/overworld/pngs/maryo_overworld_right_2b.png"
           inkscape:export-xdpi="14.9"
           inkscape:export-ydpi="14.9">
          <path
             sodipodi:nodetypes="csscc"
             id="path9301"
             d="M 167.37363,868.78351 C 167.37363,802.21063 189.13788,785.01922 257.48474,788.80256 C 347.81077,793.80256 351.25242,798.23019 351.78707,839.47752 C 352.36687,883.43393 351.78707,868.78352 351.78707,868.78352 L 166.95451,866.95189"
             style="fill:#aa8b59;fill-opacity:1;fill-rule:evenodd;stroke:#000000;stroke-width:15;stroke-linecap:butt;stroke-linejoin:miter;stroke-miterlimit:4;stroke-dasharray:none;stroke-opacity:1" />
          <path
             sodipodi:nodetypes="csccccccccccccccccccc"
             id="path9303"
             d="M 164.55717,869.95467 C 179.05045,866.87485 346.57572,867.21705 351.26472,869.95467 C 355.95372,872.69228 353.82236,888.77577 353.82236,888.77577 L 334.64007,888.77577 L 334.76492,884.53472 L 313.025,883.85032 L 313.7527,889.80237 L 292.01277,889.11797 L 292.13762,885.21913 L 273.38162,884.87692 L 274.10931,890.14458 L 248.9592,889.11797 L 249.08406,883.50812 L 228.19669,883.16592 L 227.64556,889.11797 L 204.62683,888.43356 L 203.89912,883.85032 L 185.56939,883.16592 L 185.44454,888.77577 L 162.4258,888.43356 L 164.55717,869.95467 z "
             style="fill:#f2ab2a;fill-opacity:1;fill-rule:evenodd;stroke:#000000;stroke-width:8.06454468;stroke-linecap:butt;stroke-linejoin:miter;stroke-miterlimit:4;stroke-dasharray:none;stroke-opacity:1" />
        </g>
        <path
           sodipodi:type="arc"
           style="fill:#f2ab2a;fill-opacity:1;stroke-width:10;stroke-miterlimit:4;stroke-dasharray:none"
           id="path9305"
           sodipodi:cx="304.28571"
           sodipodi:cy="824.50507"
           sodipodi:rx="28.571428"
           sodipodi:ry="15"
           d="M 332.85713 824.50507 A 28.571428 15 0 1 1  275.71428,824.50507 A 28.571428 15 0 1 1  332.85713 824.50507 z"
           transform="matrix(1.0063139,0.4143351,-0.3189096,1.1271714,1251.6134,-227.60467)"
           inkscape:export-filename="/media/home/piers/Documents/Maryo/overworld/pngs/maryo_overworld_right_2b.png"
           inkscape:export-xdpi="14.9"
           inkscape:export-ydpi="14.9" />
        <path
           style="fill:#83735b;fill-opacity:1;fill-rule:evenodd;stroke:#000000;stroke-width:5;stroke-linecap:butt;stroke-linejoin:miter;stroke-miterlimit:4;stroke-dasharray:none;stroke-opacity:1"
           d="M 1101.9643,851.11218 C 1101.9643,851.11218 1128.1026,854.86508 1134.6428,848.07647 C 1141.5402,840.9307 1138.2143,800.04075 1138.2143,800.04075 C 1138.2143,800.04075 1111.25,808.25504 1105.5357,814.68361 C 1099.8214,821.11218 1101.9643,849.68361 1101.9643,851.11218 z "
           id="path9311"
           sodipodi:nodetypes="czcsc"
           inkscape:export-filename="/media/home/piers/Documents/Maryo/overworld/pngs/maryo_overworld_right_2b.png"
           inkscape:export-xdpi="14.9"
           inkscape:export-ydpi="14.9" />
      </g>
      <g
         inkscape:export-ydpi="14.9"
         inkscape:export-xdpi="14.9"
         inkscape:export-filename="/media/home/piers/Documents/Maryo/overworld/pngs/maryo_overworld_right_2b.png"
         inkscape:transform-center-y="23.009389"
         inkscape:transform-center-x="52.207489"
         transform="matrix(0.9301561,0.3671642,-0.3671642,0.9301561,-527.11498,-273.17266)"
         id="g9374"
         style="display:inline">
        <path
           style="fill:#c34831;fill-opacity:1;fill-rule:evenodd;stroke:#000000;stroke-width:6.99999952;stroke-linecap:butt;stroke-linejoin:miter;stroke-miterlimit:4;stroke-dasharray:none;stroke-opacity:1"
           d="M 951.72579,493.1801 C 916.78629,497.77014 912.59239,539.20811 898.97978,547.18787 C 885.36718,555.16764 889.85342,554.63668 889.85342,554.63668 C 889.85342,554.63668 933.30362,568.14548 950.8715,555.14853 C 968.43938,542.15159 979.28568,503.11066 972.63329,500.71363 C 965.9809,498.3166 953.9689,492.91463 951.72579,493.1801 z "
           id="path9353" />
        <path
           style="fill:#c34831;fill-opacity:1;fill-rule:evenodd;stroke:#000000;stroke-width:3;stroke-linecap:butt;stroke-linejoin:miter;stroke-miterlimit:4;stroke-dasharray:none;stroke-opacity:1"
           d="M 968.83193,499.3439 C 942.41938,503.20463 938.2393,522.131 931.72316,530.64355 C 926.54037,537.41425 918.41852,539.42839 918.41852,539.42839"
           id="path9355"
           sodipodi:nodetypes="csc" />
        <path
           id="path9366"
           d="M 964.1512,496.61141 C 936.59442,518.5764 954.39002,556.23288 946.8494,570.09357 C 939.30879,583.95426 942.87723,581.18398 942.87723,581.18398 C 942.87723,581.18398 987.06497,570.32805 995.40374,550.12865 C 1003.7425,529.92925 992.88194,490.89229 985.94693,492.27277 C 979.01192,493.65325 965.93542,495.22628 964.1512,496.61141 z "
           style="fill:#c34831;fill-opacity:1;fill-rule:evenodd;stroke:#000000;stroke-width:6.99999952;stroke-linecap:butt;stroke-linejoin:miter;stroke-miterlimit:4;stroke-dasharray:none;stroke-opacity:1" />
        <path
           sodipodi:nodetypes="csc"
           id="path9368"
           d="M 981.98407,493.06161 C 961.35425,510.00086 967.54259,528.3689 966.35514,539.02317 C 965.41066,547.49735 959.49383,553.41447 959.49383,553.41447"
           style="fill:#c34831;fill-opacity:1;fill-rule:evenodd;stroke:#000000;stroke-width:3;stroke-linecap:butt;stroke-linejoin:miter;stroke-miterlimit:4;stroke-dasharray:none;stroke-opacity:1" />
      </g>
      <path
         inkscape:export-ydpi="14.9"
         inkscape:export-xdpi="14.9"
         inkscape:export-filename="/media/home/piers/Documents/Maryo/overworld/pngs/maryo_overworld_right_2b.png"
         sodipodi:nodetypes="cssscssc"
         id="path6228"
         d="M 566.1721,311.06665 C 598.5516,363.054 589.6472,392.25238 592.0757,412.19273 C 594.3896,431.19312 631.9077,502.20349 636.4035,516.53109 C 645.6346,545.94888 621.2012,605.48646 459.3199,625.83936 C 342.6857,640.50346 298.8325,594.87513 256.9587,528.11291 C 240.2144,503.874 232.3729,471.42015 210.9811,435.79709 C 187.4069,396.53954 165.0718,474.50129 169.1192,458.65835 C 173.1666,442.81541 566.5769,310.3545 566.1721,311.06665 z "
         style="fill:#fad6c1;fill-opacity:1;fill-rule:evenodd;stroke:#000000;stroke-width:15.94451714;stroke-linecap:butt;stroke-linejoin:miter;stroke-miterlimit:4;stroke-dasharray:none;stroke-opacity:1;display:inline" />
      <path
         inkscape:export-ydpi="14.9"
         inkscape:export-xdpi="14.9"
         inkscape:export-filename="/media/home/piers/Documents/Maryo/overworld/pngs/maryo_overworld_right_2b.png"
         sodipodi:nodetypes="ccsscsccc"
         id="path9242"
         d="M 350.7143,407.82394 L 358.5714,481.21933 C 358.5714,481.21933 317.1429,419.79075 280,434.07646 C 242.8572,448.36218 227.8571,457.6479 237.8571,496.93361 C 247.8571,536.21933 301.4286,589.07647 301.4286,589.07647 C 301.4286,589.07647 313.5714,588.36218 267.1428,591.21933 C 211.5841,594.63835 167.85714,473.36218 167.85714,473.36218 L 345,381.21933 L 350.7143,407.82394 z "
         style="fill:#aa8b59;fill-opacity:1;fill-rule:evenodd;stroke:#000000;stroke-width:15;stroke-linecap:butt;stroke-linejoin:miter;stroke-miterlimit:4;stroke-dasharray:none;stroke-opacity:1;display:inline" />
      <g
         transform="matrix(0.8545915,-0.1102837,0.1404508,1.287306,112.1887,-2.6712822)"
         id="g5228"
         style="display:inline"
         inkscape:export-filename="/media/home/piers/Documents/Maryo/overworld/pngs/maryo_overworld_right_2b.png"
         inkscape:export-xdpi="14.9"
         inkscape:export-ydpi="14.9">
        <path
           sodipodi:type="arc"
           style="fill:#000000;fill-opacity:1;fill-rule:nonzero;stroke-width:20;stroke-miterlimit:4;stroke-dasharray:none"
           id="path5230"
           sodipodi:cx="315.67267"
           sodipodi:cy="390.20718"
           sodipodi:rx="28.789347"
           sodipodi:ry="48.992397"
           d="M 344.46202 390.20718 A 28.789347 48.992397 0 1 1  286.88332,390.20718 A 28.789347 48.992397 0 1 1  344.46202 390.20718 z" />
        <path
           sodipodi:type="arc"
           style="fill:#ffffff;fill-opacity:1;fill-rule:nonzero;stroke-width:20;stroke-miterlimit:4;stroke-dasharray:none"
           id="path5232"
           sodipodi:cx="324.25897"
           sodipodi:cy="361.92291"
           sodipodi:rx="9.0913725"
           sodipodi:ry="9.5964489"
           d="M 333.35034 361.92291 A 9.0913725 9.5964489 0 1 1  315.1676,361.92291 A 9.0913725 9.5964489 0 1 1  333.35034 361.92291 z"
           transform="matrix(1,0,0,1.4736842,0,-170.9321)" />
      </g>
      <g
         transform="translate(-820,0)"
         id="g9546">
        <path
           d="M 344.46202 390.20718 A 28.789347 48.992397 0 1 1  286.88332,390.20718 A 28.789347 48.992397 0 1 1  344.46202 390.20718 z"
           sodipodi:ry="48.992397"
           sodipodi:rx="28.789347"
           sodipodi:cy="390.20718"
           sodipodi:cx="315.67267"
           id="path5245"
           style="fill:#000000;fill-opacity:1;fill-rule:nonzero;stroke-width:20;stroke-miterlimit:4;stroke-dasharray:none"
           sodipodi:type="arc"
           transform="matrix(0.6757562,-0.1368022,0.1473704,1.2033975,1100.4294,-1.4171669)" />
        <path
           transform="matrix(0.6757562,-0.1368022,0.2171774,1.7734279,1079.2797,-193.98445)"
           d="M 333.35034 361.92291 A 9.0913725 9.5964489 0 1 1  315.1676,361.92291 A 9.0913725 9.5964489 0 1 1  333.35034 361.92291 z"
           sodipodi:ry="9.5964489"
           sodipodi:rx="9.0913725"
           sodipodi:cy="361.92291"
           sodipodi:cx="324.25897"
           id="path5247"
           style="fill:#ffffff;fill-opacity:1;fill-rule:nonzero;stroke-width:20;stroke-miterlimit:4;stroke-dasharray:none"
           sodipodi:type="arc" />
      </g>
      <path
         style="fill:#e86344;fill-opacity:1;fill-rule:evenodd;stroke:#000000;stroke-width:14.99999905;stroke-linecap:butt;stroke-linejoin:miter;stroke-miterlimit:4;stroke-dasharray:none;stroke-opacity:1"
         d="M 305.7499,241.6161 C 256.7916,260.2204 207.4543,279.5003 163.47223,308.2733 C 147.20397,318.82829 132.31691,332.87039 125.14423,351.14627 C 119.63701,362.43417 120.14912,375.33151 123.03328,387.20201 C 124.33661,398.60844 112.35302,405.12369 106.22747,413.1713 C 84.96034,435.54077 75.64884,480.60386 54.16354,502.77068 C 81.70678,513.53647 129.21442,490.57911 156.38344,501.7574 C 157.36189,525.33731 170.3997,553.58741 203.3773,547.66263 C 195.232,523.11967 174.65545,506.16361 195.9539,477.97004 C 217.0882,463.7906 212.8352,469.48892 236.1347,459.45386 C 315.4106,427.47009 396.4941,400.26772 477.2245,372.25105 C 507.557,362.50755 537.7893,351.28337 569.317,346.36331 C 578.8038,344.41155 588.0276,350.76767 593.273,358.2005 C 594.8079,360.99992 591.9957,388.0796 596.1928,385.08846 C 605.8588,381.9512 650.4443,358.30314 617.3374,328.54529 C 612.802,306.64457 589.2928,271.73227 563.0345,235.38107 C 553.5682,222.8691 542.5417,209.66374 526.4233,206.28747 C 487.5995,195.33978 446.0933,202.08734 407.2484,210.45198 C 372.7175,218.36333 338.9671,229.37432 305.7499,241.6161 z "
         id="path9142"
         inkscape:export-filename="/media/home/piers/Documents/Maryo/overworld/pngs/maryo_overworld_right_2b.png"
         inkscape:export-xdpi="14.9"
         inkscape:export-ydpi="14.9"
         sodipodi:nodetypes="ccccccccccccccccccc" />
      <path
         style="fill:none;fill-rule:evenodd;stroke:#000000;stroke-width:10;stroke-linecap:butt;stroke-linejoin:miter;stroke-miterlimit:4;stroke-dasharray:none;stroke-opacity:1"
         d="M 124.13116,385.27621 C 127.33992,409.38683 131.58008,433.42395 137.17053,457.05888 C 142.33056,465.64187 140.87505,451.10271 139.4861,447.38259 C 135.37335,426.25657 132.29066,404.70822 127.53612,383.84534 C 124.92154,378.72229 125.38154,382.12551 124.13116,385.27621 z "
         id="path9144"
         inkscape:export-filename="/media/home/piers/Documents/Maryo/overworld/pngs/maryo_overworld_right_2b.png"
         inkscape:export-xdpi="14.9"
         inkscape:export-ydpi="14.9" />
      <path
         style="fill:#ffffff;fill-rule:evenodd;stroke:#000000;stroke-width:0.94266081px;stroke-linecap:butt;stroke-linejoin:miter;stroke-opacity:1"
         d="M 180.7373,316.146 C 167.02068,332.20271 153.35626,348.31682 139.6069,364.33753 C 148.85296,373.9793 158.09086,383.63101 167.3385,393.27085 C 171.66407,380.13635 175.95625,366.98791 180.2686,353.8479 C 181.4617,361.95189 182.678,370.05157 183.8528,378.15897 C 188.8836,371.29945 193.8767,364.4048 198.891,357.52996 C 197.9836,371.01203 197.095,384.49574 196.1755,397.97677 C 207.3701,395.75983 218.5752,393.60898 229.7709,391.39848 C 223.78,366.60716 217.7602,341.8246 211.7444,317.04086 C 204.5701,328.9757 197.4189,340.9283 190.2538,352.87024 C 187.864,339.71207 185.4375,326.56229 183.0719,313.39858 C 182.2937,314.31439 181.5155,315.23019 180.7373,316.146 z "
         id="path9146"
         inkscape:export-filename="/media/home/piers/Documents/Maryo/overworld/pngs/maryo_overworld_right_2b.png"
         inkscape:export-xdpi="14.9"
         inkscape:export-ydpi="14.9" />
      <path
         style="fill:#ffffff;fill-rule:evenodd;stroke:#000000;stroke-width:0.77949601px;stroke-linecap:butt;stroke-linejoin:miter;stroke-opacity:1"
         d="M 291.3303,261.99868 C 270.1067,270.63559 248.895,279.30213 227.6638,287.92044 C 230.5815,296.32457 233.5788,304.70094 236.5069,313.10149 C 246.9851,305.59116 257.4065,298.00157 267.8625,290.46019 C 264.5259,295.79571 261.2029,301.1398 257.829,306.4519 C 265.669,302.85549 273.4889,299.2155 281.318,295.59556 C 273.4712,303.90924 265.5994,312.19934 257.7707,320.53004 C 269.5079,320.78629 281.2444,321.09872 292.9823,321.31798 C 302.0152,303.05143 311.0031,284.7624 320.0826,266.51895 C 307.0423,273.37539 294.011,280.24912 280.9745,287.11281 C 286.2344,278.01083 291.4753,268.89785 296.7512,259.80513 C 294.9442,260.53632 293.1373,261.26749 291.3303,261.99868 z "
         id="path9148"
         inkscape:export-filename="/media/home/piers/Documents/Maryo/overworld/pngs/maryo_overworld_right_2b.png"
         inkscape:export-xdpi="14.9"
         inkscape:export-ydpi="14.9" />
      <path
         style="fill:#ffffff;fill-rule:evenodd;stroke:#000000;stroke-width:0.74771732px;stroke-linecap:butt;stroke-linejoin:miter;stroke-opacity:1"
         d="M 494.7493,234.61909 C 503.213,251.25743 510.831,268.52058 519.8152,284.77441 C 534.8299,292.76542 548.9196,302.19037 564.618,309.12163 C 558.3634,298.7172 549.5354,289.7124 542.1135,279.94285 C 546.317,283.35978 553.4921,291.11607 556.8097,290.77122 C 557.1382,287.12559 546.7171,273.36369 553.3546,280.39617 C 562.8212,290.07937 572.2974,299.75533 581.7581,309.44297 C 586.3336,305.48918 590.8781,301.50817 595.4386,297.54113 C 568.9237,275.85428 543.2671,253.22775 516.3305,232.02135 C 508.4717,227.07086 517.8216,240.30155 519.7139,243.33065 C 523.3044,248.94546 526.8949,254.56027 530.4853,260.17508 C 517.76,249.71028 506.3073,237.98054 492.6505,228.44158 C 493.3501,230.50075 494.0497,232.55992 494.7493,234.61909 z "
         id="path9152"
         inkscape:export-filename="/media/home/piers/Documents/Maryo/overworld/pngs/maryo_overworld_right_2b.png"
         inkscape:export-xdpi="14.9"
         inkscape:export-ydpi="14.9" />
      <path
         style="fill:#ffffff;fill-rule:evenodd;stroke:#000000;stroke-width:0.30166027px;stroke-linecap:butt;stroke-linejoin:miter;stroke-opacity:1"
         d="M 149.40858,406.44595 C 148.30549,414.00106 145.87531,421.79126 145.53998,429.2112 C 148.71925,437.36244 151.7264,445.67339 155.10019,453.64413 C 155.32804,449.86225 154.00666,435.03352 155.77098,445.41792 C 156.76338,448.30367 157.38557,433.38773 158.01583,445.66458 C 158.70857,451.30435 158.36861,458.57548 163.53702,456.83968 C 169.26258,460.14202 166.85151,453.34317 165.59493,447.95155 C 162.46013,434.23287 159.96997,420.14858 156.33724,406.7123 C 155.28911,409.49094 155.54809,425.17991 154.35623,418.59081 C 153.11926,412.38514 151.88372,406.17879 150.64319,399.97477 C 150.23165,402.13183 149.82012,404.2889 149.40858,406.44595 z "
         id="path9154"
         inkscape:export-filename="/media/home/piers/Documents/Maryo/overworld/pngs/maryo_overworld_right_2b.png"
         inkscape:export-xdpi="14.9"
         inkscape:export-ydpi="14.9" />
      <path
         style="fill:#ffffff;fill-rule:evenodd;stroke:#000000;stroke-width:0.77026284px;stroke-linecap:butt;stroke-linejoin:miter;stroke-opacity:1"
         d="M 314.5298,324.91247 C 319.8032,332.63101 325.0766,340.34956 330.35,348.0681 C 319.7396,345.71342 309.1275,343.36612 298.5183,341.00629 C 305.8175,357.45209 313.1253,373.89408 320.4192,390.34221 C 331.5066,386.48234 342.5751,382.5677 353.6547,378.68524 C 345.8195,371.65391 337.9962,364.60922 330.1658,357.57254 C 336.3315,359.15283 342.4958,360.73815 348.6628,362.31322 C 345.5128,356.59707 342.3757,350.87387 339.2322,345.15416 C 348.6161,349.89976 357.9918,354.66163 367.3808,359.39709 C 370.154,350.07119 372.9254,340.74462 375.667,331.40938 C 354.4069,327.98511 333.1523,324.52428 311.9011,321.04475 C 312.7774,322.33399 313.6536,323.62323 314.5298,324.91247 z "
         id="path9156"
         inkscape:export-filename="/media/home/piers/Documents/Maryo/overworld/pngs/maryo_overworld_right_2b.png"
         inkscape:export-xdpi="14.9"
         inkscape:export-ydpi="14.9" />
      <path
         style="fill:none;fill-rule:evenodd;stroke:#000000;stroke-width:5;stroke-linecap:butt;stroke-linejoin:miter;stroke-miterlimit:4;stroke-dasharray:none;stroke-opacity:1"
         d="M 161.00411,495.33493 C 164.69081,480.32881 168.02008,460.13491 181.1537,452.34566 C 206.8102,437.12931 285.2796,406.32395 285.2796,406.32395"
         id="path9158"
         sodipodi:nodetypes="csc"
         inkscape:export-filename="/media/home/piers/Documents/Maryo/overworld/pngs/maryo_overworld_right_2b.png"
         inkscape:export-xdpi="14.9"
         inkscape:export-ydpi="14.9" />
      <path
         sodipodi:nodetypes="csc"
         id="path9160"
         d="M 614.0933,332.65762 C 604.0063,324.00145 597.0444,312.52762 579.7249,312.96023 C 550.927,313.67956 495.8213,335.79164 495.8213,335.79164"
         style="fill:none;fill-rule:evenodd;stroke:#000000;stroke-width:4.14360285;stroke-linecap:butt;stroke-linejoin:miter;stroke-miterlimit:4;stroke-dasharray:none;stroke-opacity:1"
         inkscape:export-filename="/media/home/piers/Documents/Maryo/overworld/pngs/maryo_overworld_right_2b.png"
         inkscape:export-xdpi="14.9"
         inkscape:export-ydpi="14.9" />
      <g
         inkscape:export-ydpi="14.9"
         inkscape:export-xdpi="14.9"
         inkscape:export-filename="/media/home/piers/Documents/Maryo/overworld/pngs/maryo_overworld_right_2b.png"
         transform="translate(-826,6)"
         id="g9244">
        <path
           style="fill:#fad6c1;fill-opacity:1;fill-rule:nonzero;stroke:#000000;stroke-width:10;stroke-linecap:butt;stroke-linejoin:miter;stroke-miterlimit:4;stroke-dasharray:none;stroke-opacity:1"
           d="M 1129.5714,440.41252 C 1090.6871,431.09308 1071.4165,439.93718 1060.6946,452.76802 C 1052.1441,463.00014 1052.8045,510.16588 1067.8263,528.93496 C 1083.4754,548.4877 1117.0581,545.07184 1133.4687,530.927"
           id="path9193"
           sodipodi:nodetypes="cszs" />
        <path
           style="fill:#f7c8ac;fill-opacity:1;fill-rule:nonzero;stroke:#000000;stroke-width:0.87497646;stroke-linecap:butt;stroke-linejoin:miter;stroke-miterlimit:4;stroke-dasharray:none;stroke-opacity:1"
           d="M 1077.8739,459.59489 C 1065.8353,472.16176 1067.9409,494.53749 1075.9716,512.5246 C 1084.0024,530.5117 1112.821,528.75603 1128.567,513.5178 C 1127.5066,491.89696 1126.8795,477.70317 1125.9168,456.07849 C 1105.2676,450.45139 1082.3461,454.92646 1077.8739,459.59489 z "
           id="path9200"
           sodipodi:nodetypes="czccs" />
      </g>
      <path
         style="fill:#aa8b59;fill-opacity:1;fill-rule:evenodd;stroke:#000000;stroke-width:5.26718855;stroke-linecap:butt;stroke-linejoin:miter;stroke-miterlimit:4;stroke-dasharray:none;stroke-opacity:1;display:inline"
         d="M 612.0036,234.48935 C 595.5828,238.32215 578.8104,242.33899 563.6658,253.10787 C 548.6873,266.19325 538.7715,288.66642 528.8287,309.80262 C 519.1502,331.56221 509.6538,353.63511 500.9364,376.28135 C 499.1397,381.82511 502.61,377.92107 503.8286,375.964 C 518.9022,355.6618 538.6993,347.05814 557.2377,337.59932 C 582.2558,327.7071 608.4177,328.6145 634.1034,328.29006 C 626.696,311.73778 615.1072,299.28017 601.9257,297.42083 C 592.2918,295.20474 582.4919,294.5234 572.7397,294.25222 C 575.5528,282.08291 579.5288,269.48998 587.1394,262.83672 C 596.3568,252.73876 606.3086,244.24318 615.6162,234.27957 C 614.412,234.34949 613.2078,234.41942 612.0036,234.48935 z "
         id="path5212"
         inkscape:export-filename="/media/home/piers/Documents/Maryo/overworld/pngs/maryo_overworld_right_2b.png"
         inkscape:export-xdpi="14.9"
         inkscape:export-ydpi="14.9" />
      <path
         inkscape:export-ydpi="14.9"
         inkscape:export-xdpi="14.9"
         inkscape:export-filename="/media/home/piers/Documents/Maryo/overworld/pngs/maryo_overworld_right_2b.png"
         sodipodi:nodetypes="cscsc"
         id="path9332"
         d="M 457.9851,551.2656 C 473.6425,561.11459 512.5333,576.51942 524.6552,570.4585 C 536.777,564.39759 544.8582,551.2656 544.8582,551.2656 C 544.8582,551.2656 536.1919,570.3326 525.9179,577.02449 C 508.0029,588.69333 457.9851,550.25545 457.9851,551.2656 z "
         style="fill:#000000;fill-opacity:1;fill-rule:evenodd;stroke:#000000;stroke-width:1px;stroke-linecap:butt;stroke-linejoin:miter;stroke-opacity:1" />
      <path
         inkscape:export-ydpi="14.9"
         inkscape:export-xdpi="14.9"
         inkscape:export-filename="/media/home/piers/Documents/Maryo/overworld/pngs/maryo_overworld_right_2b.png"
         id="path9351"
         d="M 385.9643,260.56624 C 389.558,294.24086 393.2423,327.89829 396.7789,361.58382 C 412.3846,358.02539 427.9926,354.48749 443.5978,350.92507 C 435.3547,332.75698 427.0737,314.62125 418.8156,296.46599 C 426.8723,302.42271 434.9429,308.3439 442.9883,314.32883 C 440.8155,301.07038 438.5826,287.83042 436.3835,274.58012 C 447.562,288.42395 458.7563,302.24384 469.9246,316.10326 C 476.5826,298.80309 483.3069,281.55064 489.9714,264.25506 C 463.5243,249.21667 437.0627,234.22572 410.6033,219.22811 C 415.5982,240.14905 420.6267,261.05497 425.635,281.97 C 412.2056,272.91383 398.7555,263.91539 385.3398,254.82106 C 385.548,256.73615 385.7561,258.65113 385.9643,260.56624 z "
         style="fill:#ffffff;fill-rule:evenodd;stroke:#000000;stroke-width:1.30537629px;stroke-linecap:butt;stroke-linejoin:miter;stroke-opacity:1" />
    </g>
  </g>
</svg>
