<?xml version="1.0" encoding="UTF-8" standalone="no"?>
<!-- Created with Inkscape (http://www.inkscape.org/) -->
<svg
   xmlns:dc="http://purl.org/dc/elements/1.1/"
   xmlns:cc="http://web.resource.org/cc/"
   xmlns:rdf="http://www.w3.org/1999/02/22-rdf-syntax-ns#"
   xmlns:svg="http://www.w3.org/2000/svg"
   xmlns="http://www.w3.org/2000/svg"
   xmlns:xlink="http://www.w3.org/1999/xlink"
   xmlns:sodipodi="http://sodipodi.sourceforge.net/DTD/sodipodi-0.dtd"
   xmlns:inkscape="http://www.inkscape.org/namespaces/inkscape"
   width="744.09448819"
   height="1052.3622047"
   id="svg2"
   sodipodi:version="0.32"
   inkscape:version="0.45.1"
   sodipodi:docbase="/media/home/piers/Documents/Maryo/overworld/svgs"
   sodipodi:docname="mario_overworld_up_2.b.svg"
   inkscape:output_extension="org.inkscape.output.svg.inkscape"
   inkscape:export-filename="/media/home/piers/Documents/Maryo/overworld/pngs/mario_overworld_down_2b.png"
   inkscape:export-xdpi="8.3623056"
   inkscape:export-ydpi="8.3623056">
  <defs
     id="defs4">
    <linearGradient
       id="linearGradient8392">
      <stop
         id="stop8394"
         offset="0"
         style="stop-color:#670200;stop-opacity:1;" />
      <stop
         id="stop8398"
         offset="1"
         style="stop-color:#e86344;stop-opacity:1;" />
    </linearGradient>
    <linearGradient
       id="linearGradient8317">
      <stop
         style="stop-color:#0071ff;stop-opacity:1;"
         offset="0"
         id="stop8319" />
      <stop
         style="stop-color:#001796;stop-opacity:1;"
         offset="1"
         id="stop8321" />
    </linearGradient>
    <linearGradient
       id="linearGradient8179">
      <stop
         style="stop-color:#ff3600;stop-opacity:1;"
         offset="0"
         id="stop8181" />
      <stop
         id="stop8187"
         offset="0.62962961"
         style="stop-color:#b31c00;stop-opacity:1;" />
      <stop
         style="stop-color:#670200;stop-opacity:1;"
         offset="1"
         id="stop8183" />
    </linearGradient>
    <linearGradient
       id="linearGradient8154">
      <stop
         style="stop-color:#8a3e00;stop-opacity:1;"
         offset="0"
         id="stop8156" />
      <stop
         style="stop-color:#4f1000;stop-opacity:1;"
         offset="1"
         id="stop8158" />
    </linearGradient>
    <linearGradient
       id="linearGradient3151">
      <stop
         style="stop-color:#fad6c1;stop-opacity:1;"
         offset="0"
         id="stop3153" />
      <stop
         style="stop-color:#f7c8ac;stop-opacity:1;"
         offset="1"
         id="stop3155" />
    </linearGradient>
    <linearGradient
       inkscape:collect="always"
       xlink:href="#linearGradient3151"
       id="linearGradient8350"
       gradientUnits="userSpaceOnUse"
       x1="157.1041"
       y1="650.32147"
       x2="203.52036"
       y2="650.32147"
       gradientTransform="matrix(0.9652748,0,0,0.8208567,2.3470567,121.55149)" />
    <linearGradient
       inkscape:collect="always"
       xlink:href="#linearGradient3151"
       id="linearGradient8421"
       gradientUnits="userSpaceOnUse"
       gradientTransform="matrix(0.9652748,0,0,0.8208567,350.84968,121.55149)"
       x1="157.1041"
       y1="650.32147"
       x2="203.52036"
       y2="650.32147" />
    <linearGradient
       inkscape:collect="always"
       xlink:href="#linearGradient8154"
       id="linearGradient8507"
       gradientUnits="userSpaceOnUse"
       gradientTransform="matrix(1.1735401,0,0,0.8547583,-47.21657,106.64003)"
       x1="261.25"
       y1="797.6629"
       x2="261.25"
       y2="874.44855" />
    <linearGradient
       inkscape:collect="always"
       xlink:href="#linearGradient8154"
       id="linearGradient8519"
       gradientUnits="userSpaceOnUse"
       gradientTransform="matrix(1.1735401,0,0,0.8547583,-47.21657,106.64003)"
       x1="261.25"
       y1="797.6629"
       x2="261.25"
       y2="874.44855" />
  </defs>
  <sodipodi:namedview
     id="base"
     pagecolor="#ffffff"
     bordercolor="#666666"
     borderopacity="1.0"
     gridtolerance="10000"
     guidetolerance="10"
     objecttolerance="10"
     inkscape:pageopacity="0.0"
     inkscape:pageshadow="2"
     inkscape:zoom="0.49497475"
     inkscape:cx="894.95547"
     inkscape:cy="446.68882"
     inkscape:document-units="px"
     inkscape:current-layer="layer4"
     inkscape:window-width="1069"
     inkscape:window-height="939"
     inkscape:window-x="1"
     inkscape:window-y="26" />
  <metadata
     id="metadata7">
    <rdf:RDF>
      <cc:Work
         rdf:about="">
        <dc:format>image/svg+xml</dc:format>
        <dc:type
           rdf:resource="http://purl.org/dc/dcmitype/StillImage" />
      </cc:Work>
    </rdf:RDF>
  </metadata>
  <g
     inkscape:label="Layer 1"
     inkscape:groupmode="layer"
     id="layer1"
     style="display:none">
    <image
       y="112.68437"
       x="-2.8775516"
       id="image2167"
       height="826.40118"
       width="734.57886"
       sodipodi:absref="/media/home/piers/Desktop/maryo_overworld_small.jpg"
       xlink:href="/media/home/piers/Desktop/maryo_overworld_small.jpg" />
  </g>
  <g
     inkscape:groupmode="layer"
     id="layer7"
     inkscape:label="shirt"
     style="display:inline" />
  <g
     inkscape:groupmode="layer"
     id="layer9"
     inkscape:label="pants"
     style="display:inline" />
  <g
     inkscape:groupmode="layer"
     id="layer6"
     inkscape:label="hands"
     style="display:inline" />
  <g
     inkscape:groupmode="layer"
     id="layer8"
     inkscape:label="scarf" />
  <g
     inkscape:groupmode="layer"
     id="layer2"
     inkscape:label="face"
     style="display:inline" />
  <g
     inkscape:groupmode="layer"
     id="layer3"
     inkscape:label="hair below headband"
     style="display:inline" />
  <g
     inkscape:groupmode="layer"
     id="layer4"
     inkscape:label="headband"
     style="display:inline" />
  <g
     inkscape:groupmode="layer"
     id="layer5"
     inkscape:label="hair above headband"
     style="display:inline">
    <image
       y="182.07646"
       x="605.42859"
       id="image2251"
       height="753.42859"
       width="753.42859"
       sodipodi:absref="/media/home/piers/Desktop/climb_left.png"
       xlink:href="/media/home/piers/Desktop/climb_left.png" />
  </g>
  <g
     inkscape:groupmode="layer"
     id="layer10"
     inkscape:label="shoes">
    <g
       id="g2272"
       inkscape:export-filename="/media/home/piers/Documents/Maryo/overworld/pngs/64px/up_middle.png"
       inkscape:export-xdpi="6.9993048"
       inkscape:export-ydpi="6.9993048">
      <path
         inkscape:export-ydpi="8.3623056"
         inkscape:export-xdpi="8.3623056"
         inkscape:export-filename="/media/home/piers/Documents/Maryo/overworld/pngs/maryo_overworld_down_2b.png"
         id="rect8325"
         d="M 206.75,591.71875 C 206.75,634.14583 206.75,676.57292 206.75,719 C 304.5,719 402.25,719 500,719 C 500,675.90625 500,632.8125 500,589.71875 C 402.25,589.71875 304.5,589.71875 206.75,589.71875 L 206.75,590.71875 L 206.75,591.71875 z "
         style="opacity:1;fill:#0685b6;fill-opacity:1;fill-rule:nonzero;stroke:#000000;stroke-width:10.09475994;stroke-miterlimit:4;stroke-dasharray:none;stroke-opacity:1;display:inline" />
      <g
         transform="translate(134.35029,4.0406102)"
         id="g3551"
         style="display:inline">
        <path
           style="fill:#fad6c1;fill-opacity:1;fill-rule:evenodd;stroke:#000000;stroke-width:8.06327057;stroke-linecap:butt;stroke-linejoin:miter;stroke-miterlimit:4;stroke-dasharray:none;stroke-opacity:1"
           d="M 5.88266,691.00853 C 21.72355,691.30634 37.56445,691.60415 53.40535,691.90196 C 54.17512,672.84474 57.95567,636.7051 50.60595,629.42154 C 43.15443,622.03709 18.5347,621.17072 9.67335,629.60325 C 1.35851,637.5157 4.60754,672.74605 5.79093,690.27603 L 5.85814,690.82141 L 5.88266,691.00851 L 5.88266,691.00853 z "
           id="path4429"
           sodipodi:nodetypes="cczzcccc" />
        <g
           id="g8536"
           transform="translate(-134.28571,8.5714286)">
          <path
             sodipodi:nodetypes="cssssssscc"
             id="path8499"
             d="M 151.96025,738.9331 C 149.84502,726.7367 149.14305,699.57908 161.72987,697.66099 C 171.46395,696.17762 190.79879,698.64141 195.74285,691.76827 C 200.68691,684.89514 201.22525,656.781 192.8373,652.34327 C 184.44937,647.90554 122.72924,648.15863 113.45205,667.76327 C 104.17486,687.36792 92.439758,742.90454 112.42045,763.93068 C 135.31886,788.02721 196.0781,784.46858 210.30979,770.61772 C 224.54149,756.76685 234.88371,681.40089 223.97039,676.96524 C 213.05707,672.5296 201.34031,673.75147 201.34031,673.75147 L 201.03692,673.34766"
             style="fill:#ffffff;fill-opacity:1;fill-rule:nonzero;stroke:#000000;stroke-width:12;stroke-linecap:round;stroke-linejoin:miter;stroke-miterlimit:4;stroke-dasharray:none;stroke-opacity:1" />
          <path
             sodipodi:nodetypes="csscsc"
             id="path8501"
             d="M 110.53435,681.95834 C 126.09462,686.69318 128.21724,688.25716 129.43284,692.39779 C 130.64846,696.5384 130.47267,728.25735 124.61638,731.39367 C 118.76009,734.52999 103.81075,735.65353 103.81075,735.65353 C 103.81075,735.65353 102.89434,726.86595 104.6979,709.08577 C 106.50148,691.30559 109.82716,681.85791 110.53435,681.95834 z "
             style="fill:#ffb3a0;fill-opacity:1;fill-rule:evenodd;stroke:#000000;stroke-width:4;stroke-linecap:butt;stroke-linejoin:miter;stroke-miterlimit:4;stroke-dasharray:none;stroke-opacity:1" />
        </g>
        <path
           sodipodi:nodetypes="cczzcccc"
           id="path4432"
           d="M -0.90835,644.22201 C 22.08803,644.5422 45.08444,644.86238 68.08085,645.18257 C 69.19831,624.69372 74.68659,585.83919 64.01691,578.00847 C 53.19947,570.06928 19.12987,567.92898 6.73749,578.20383 C -4.88043,587.83655 -0.6166,623.87333 -1.04151,643.43448 L -0.94395,644.02083 L -0.90835,644.22199 L -0.90835,644.22201 z "
           style="fill:#0685b6;fill-opacity:1;fill-rule:evenodd;stroke:#000000;stroke-width:10.07349491;stroke-linecap:butt;stroke-linejoin:miter;stroke-miterlimit:4;stroke-dasharray:none;stroke-opacity:1" />
      </g>
      <g
         id="g3558"
         transform="matrix(-1,0,0,1,572.57146,4.0406102)"
         style="display:inline">
        <path
           sodipodi:nodetypes="cczzcccc"
           id="path3560"
           d="M 5.88266,691.00853 C 21.72355,691.30634 37.56445,691.60415 53.40535,691.90196 C 54.17512,672.84474 57.95567,636.7051 50.60595,629.42154 C 43.15443,622.03709 18.5347,621.17072 9.67335,629.60325 C 1.35851,637.5157 4.60754,672.74605 5.79093,690.27603 L 5.85814,690.82141 L 5.88266,691.00851 L 5.88266,691.00853 z "
           style="fill:#fad6c1;fill-opacity:1;fill-rule:evenodd;stroke:#000000;stroke-width:8.06327057;stroke-linecap:butt;stroke-linejoin:miter;stroke-miterlimit:4;stroke-dasharray:none;stroke-opacity:1" />
        <g
           transform="translate(-134.28571,8.5714286)"
           id="g3562">
          <path
             style="fill:#ffffff;fill-opacity:1;fill-rule:nonzero;stroke:#000000;stroke-width:12;stroke-linecap:round;stroke-linejoin:miter;stroke-miterlimit:4;stroke-dasharray:none;stroke-opacity:1"
             d="M 151.96025,738.9331 C 149.84502,726.7367 149.14305,699.57908 161.72987,697.66099 C 171.46395,696.17762 190.79879,698.64141 195.74285,691.76827 C 200.68691,684.89514 201.22525,656.781 192.8373,652.34327 C 184.44937,647.90554 122.72924,648.15863 113.45205,667.76327 C 104.17486,687.36792 92.439758,742.90454 112.42045,763.93068 C 135.31886,788.02721 196.0781,784.46858 210.30979,770.61772 C 224.54149,756.76685 234.88371,681.40089 223.97039,676.96524 C 213.05707,672.5296 201.34031,673.75147 201.34031,673.75147 L 201.03692,673.34766"
             id="path3564"
             sodipodi:nodetypes="cssssssscc" />
          <path
             style="fill:#ffb3a0;fill-opacity:1;fill-rule:evenodd;stroke:#000000;stroke-width:4;stroke-linecap:butt;stroke-linejoin:miter;stroke-miterlimit:4;stroke-dasharray:none;stroke-opacity:1"
             d="M 110.53435,681.95834 C 126.09462,686.69318 128.21724,688.25716 129.43284,692.39779 C 130.64846,696.5384 130.47267,728.25735 124.61638,731.39367 C 118.76009,734.52999 103.81075,735.65353 103.81075,735.65353 C 103.81075,735.65353 102.89434,726.86595 104.6979,709.08577 C 106.50148,691.30559 109.82716,681.85791 110.53435,681.95834 z "
             id="path3566"
             sodipodi:nodetypes="csscsc" />
        </g>
        <path
           style="fill:#0685b6;fill-opacity:1;fill-rule:evenodd;stroke:#000000;stroke-width:10.07349491;stroke-linecap:butt;stroke-linejoin:miter;stroke-miterlimit:4;stroke-dasharray:none;stroke-opacity:1"
           d="M -0.90835,644.22201 C 22.08803,644.5422 45.08444,644.86238 68.08085,645.18257 C 69.19831,624.69372 74.68659,585.83919 64.01691,578.00847 C 53.19947,570.06928 19.12987,567.92898 6.73749,578.20383 C -4.88043,587.83655 -0.6166,623.87333 -1.04151,643.43448 L -0.94395,644.02083 L -0.90835,644.22199 L -0.90835,644.22201 z "
           id="path3568"
           sodipodi:nodetypes="cczzcccc" />
      </g>
      <path
         sodipodi:nodetypes="cscccs"
         id="path3500"
         d="M 224.28572,626.21932 C 255.87183,670.33009 400.83073,692.48061 465.71428,619.79075 C 503.53383,577.42104 547.14286,531.21932 547.14286,531.21932 L 498.57143,532.64789 L 205.71429,549.07647 C 205.71429,549.07647 183.90833,569.83132 224.28572,626.21932 z "
         style="fill:#e86344;fill-opacity:1;fill-rule:evenodd;stroke:#000000;stroke-width:5;stroke-linecap:butt;stroke-linejoin:miter;stroke-miterlimit:4;stroke-dasharray:none;stroke-opacity:1" />
      <g
         transform="translate(488.57143,74.285714)"
         id="g3502"
         style="display:inline">
        <path
           sodipodi:nodetypes="ccccccccsscccccccccc"
           style="fill:#ffb3a0;fill-opacity:1;fill-rule:evenodd;stroke:#000000;stroke-width:15;stroke-linecap:butt;stroke-linejoin:miter;stroke-miterlimit:4;stroke-dasharray:none;stroke-opacity:1;display:inline"
           d="M 101.11161,235.12946 C -55.002913,240.53743 -197.5465,247.36022 -353.66071,252.77678 C -358.46111,283.65811 -377.02579,313.08548 -381.35714,344.03571 C -392.59068,343.46966 -404.99823,345.84663 -413.20089,353.91071 C -417.78798,367.13047 -416.56301,381.72004 -416.85714,395.56696 C -415.91073,408.99964 -416.58547,423.56741 -410.01339,435.69196 C -403.40819,442.82415 -392.31556,442.50139 -383.41964,444.19196 C -377.8417,445.61874 -314.59227,446.27935 -311.92073,452.97969 C -251.77709,518.89528 -233.11396,531.51746 -219.33351,540.06815 C -171.11116,569.98986 -94.048697,562.8679 -54.59375,530.16517 C -40.707996,518.65579 -37.550645,459.58478 30.006632,475.07003 C 44.244052,459.51878 64.28027,460.06229 75.281253,442.28571 C 90.015663,443.04077 134.52706,443.05033 145.61161,431.97321 C 151.04785,423.78343 149.9352,413.0206 150.84274,403.60009 C 150.96779,384.02862 151.30799,363.95171 145.86161,345.09821 C 143.62136,337.68671 134.19237,338.27768 128.11161,336.50446 C 122.47071,335.57484 116.83555,334.78645 111.14286,334.25446 C 108.43449,301.19196 105.72639,268.12944 103.01786,235.06696 L 102.0184,235.09973 L 101.11161,235.12946 z "
           id="path3165"
           inkscape:export-filename="/media/home/piers/Documents/Maryo/overworld/pngs/maryo_overworld_down_2b.png"
           inkscape:export-xdpi="8.3623056"
           inkscape:export-ydpi="8.3623056" />
        <path
           style="fill:#ab8752;fill-opacity:1;fill-rule:evenodd;stroke:#000000;stroke-width:10;stroke-linecap:butt;stroke-linejoin:miter;stroke-miterlimit:4;stroke-dasharray:none;stroke-opacity:1"
           d="M -365.71428,342.36218 C -367.14285,442.36218 -318.82177,461.34822 -265.1646,503.5877 C -241.71972,522.04375 -157.12192,538.33232 -124.28572,539.50504 C -42.857143,542.36218 -29.089294,512.84797 3.7360308,502.36218 C 36.563756,491.87562 73.634508,468.97277 95.021029,406.05615 C 104.26213,378.86992 97.142857,299.50504 97.142857,299.50504 L -92.857143,253.79075 L -281.42857,262.36218 L -365.71428,342.36218 z "
           id="path2286"
           sodipodi:nodetypes="csssscccc" />
      </g>
      <path
         inkscape:export-ydpi="8.3623056"
         inkscape:export-xdpi="8.3623056"
         inkscape:export-filename="/media/home/piers/Documents/Maryo/overworld/pngs/maryo_overworld_down_2b.png"
         id="path8166"
         d="M 134.81393,145.6207 C 160.18495,150.20525 186.09902,155.00995 209.49811,167.89102 C 232.64055,183.54293 247.96093,210.42393 263.32312,235.70573 C 278.2767,261.73317 292.94899,288.1354 306.41794,315.22341 C 309.19386,321.85451 303.83223,317.18475 301.94926,314.84381 C 278.65991,290.5596 248.07233,280.26843 219.42979,268.95439 C 180.77556,257.12194 140.3545,258.20732 100.66884,257.81923 C 112.11342,238.02044 130.01875,223.11943 150.38459,220.8954 C 165.26962,218.24464 180.41091,217.42967 195.47844,217.10531 C 191.13215,202.54913 184.98914,187.48627 173.23042,179.52805 C 158.98888,167.44951 143.61309,157.28762 129.23227,145.36976 C 131.09282,145.4534 132.95337,145.53705 134.81393,145.6207 z "
         style="fill:#aa8b59;fill-opacity:1;fill-rule:evenodd;stroke:#000000;stroke-width:7.16044712;stroke-linecap:butt;stroke-linejoin:miter;stroke-miterlimit:4;stroke-dasharray:none;stroke-opacity:1;display:inline" />
      <path
         inkscape:export-ydpi="8.3623056"
         inkscape:export-xdpi="8.3623056"
         inkscape:export-filename="/media/home/piers/Documents/Maryo/overworld/pngs/maryo_overworld_down_2b.png"
         id="path8177"
         d="M 357.15625,193.71875 C 304.78899,194.55964 251.83557,195.90694 200.68875,208.00287 C 181.80019,212.39451 163.02427,220.53514 150.0625,235.28125 C 141.04394,244.02263 125.70971,344.18219 124.38393,356.32589 C 101.49204,348.82664 84.212231,384.80397 91.34375,418.875 C 103.07269,419.27663 114.80121,419.69521 126.53125,420.0625 C 152.0657,453.32498 207.30216,455.28269 250.44869,454.88514 C 335.86731,454.09811 392.80888,454.99202 478.25321,454.89316 C 557.45188,454.80153 578.7971,438.80798 591.93634,406.91182 C 602.0931,407.2497 612.24886,407.61963 622.40625,407.9375 C 638.04242,397.34106 647.63468,356.96354 616.90014,354.72142 C 614.02274,332.4793 608.64195,301.33892 601.21875,275.375 C 596.57312,260.38906 590.69617,244.22035 576.6875,235.5625 C 543.903,212.06115 502.57668,204.28731 463.20294,198.93943 C 428.04009,194.63275 392.55681,193.50637 357.15625,193.71875 z "
         style="fill:#e86344;fill-opacity:1;fill-rule:evenodd;stroke:#000000;stroke-width:15;stroke-linecap:butt;stroke-linejoin:miter;stroke-miterlimit:4;stroke-dasharray:none;stroke-opacity:1;display:inline"
         sodipodi:nodetypes="ccccccssccccccc" />
      <path
         inkscape:export-ydpi="8.3623056"
         inkscape:export-xdpi="8.3623056"
         inkscape:export-filename="/media/home/piers/Documents/Maryo/overworld/pngs/maryo_overworld_down_2b.png"
         id="path4515"
         d="M 449.7372,317.94914 C 472.46039,316.66221 495.17916,315.29499 517.9051,314.05837 C 516.76368,300.2235 515.63606,286.3876 514.49199,272.55292 C 501.73563,278.75703 488.99779,284.99606 476.24876,291.21398 C 480.85309,284.50057 485.43488,277.773 490.05713,271.07087 C 481.05073,272.23999 472.05203,273.46265 463.04898,274.65512 C 473.15515,265.64747 483.24656,256.62461 493.36227,247.62678 C 482.3585,240.85536 471.3918,234.02877 460.39164,227.25198 C 448.28627,249.53834 436.21135,271.84 424.13212,294.13938 C 438.467,290.92565 452.79449,287.68177 467.12642,284.45597 C 460.03328,295.69441 452.97702,306.95426 445.85956,318.17858 C 447.1521,318.1021 448.44464,318.02563 449.7372,317.94914 z "
         style="fill:#ffffff;fill-rule:evenodd;stroke:#000000;stroke-width:0.9999032px;stroke-linecap:butt;stroke-linejoin:miter;stroke-opacity:1;display:inline" />
      <path
         inkscape:export-ydpi="8.3623056"
         inkscape:export-xdpi="8.3623056"
         inkscape:export-filename="/media/home/piers/Documents/Maryo/overworld/pngs/maryo_overworld_down_2b.png"
         id="path4517"
         d="M 195.045,368.73959 C 200.76167,380.32983 206.50941,391.90879 212.20661,403.50611 C 220.94932,400.59469 229.67519,397.63908 238.41574,394.72188 C 232.36842,389.44585 226.2347,384.21489 220.15351,378.95652 C 225.00387,380.23202 229.86457,381.49813 234.68664,382.79929 C 232.17161,378.57365 229.61058,374.3661 227.07072,370.15023 C 234.27117,373.7317 241.44482,377.33148 248.6646,380.89973 C 250.50284,373.79838 252.39677,366.6898 254.19832,359.5932 C 237.27029,356.66539 220.31383,353.76784 203.41503,350.80882 C 208.46706,357.7172 213.53749,364.61771 218.59722,371.52278 C 210.26461,369.607 201.91849,367.70422 193.59723,365.77755 C 194.07982,366.76489 194.5624,367.75223 195.045,368.73959 z "
         style="fill:#ffffff;fill-rule:evenodd;stroke:#000000;stroke-width:0.59340894px;stroke-linecap:butt;stroke-linejoin:miter;stroke-opacity:1;display:inline" />
      <path
         inkscape:export-ydpi="8.3623056"
         inkscape:export-xdpi="8.3623056"
         inkscape:export-filename="/media/home/piers/Documents/Maryo/overworld/pngs/maryo_overworld_down_2b.png"
         id="path4519"
         d="M 307.48029,216.13594 C 284.88196,235.57848 262.32018,255.06396 239.69904,274.47969 C 251.19043,290.89086 262.62451,307.34228 274.10529,323.76094 C 282.89945,305.13771 291.73325,286.53317 300.54279,267.91719 C 300.90469,280.59435 301.29289,293.27077 301.63654,305.94844 C 310.35801,297.12774 319.00751,288.23613 327.69904,279.38594 C 323.98068,299.52143 320.25924,319.65635 316.54279,339.79219 C 332.78249,339.85039 349.02185,340.01366 365.26154,340.07344 C 360.87439,302.59208 356.46038,265.11375 352.04279,227.63594 C 339.43608,243.17949 326.87958,258.76374 314.29279,274.32344 C 313.0423,254.04222 311.796,233.76074 310.54279,213.47969 C 309.52196,214.36511 308.50112,215.25052 307.48029,216.13594 z "
         style="fill:#ffffff;fill-rule:evenodd;stroke:#000000;stroke-width:1.4032644px;stroke-linecap:butt;stroke-linejoin:miter;stroke-opacity:1;display:inline" />
      <path
         inkscape:export-ydpi="8.3623056"
         inkscape:export-xdpi="8.3623056"
         inkscape:export-filename="/media/home/piers/Documents/Maryo/overworld/pngs/maryo_overworld_down_2b.png"
         id="path4521"
         d="M 169.2748,246.57104 C 162.03282,263.29256 153.82959,279.89217 147.17917,296.6887 C 150.18809,311.77622 151.59277,327.23868 155.7873,342.04909 C 159.74598,330.97268 161.14911,319.18567 163.94857,307.78693 C 163.92195,312.80979 162.45919,322.68604 164.67874,324.59059 C 167.55886,322.33361 171.52227,306.29843 170.27431,315.33821 C 168.7498,327.99616 167.23635,340.65544 165.70504,353.31257 C 171.32818,353.58379 176.95309,353.8167 182.57708,354.06926 C 182.84374,322.29603 184.31103,290.43955 183.97387,258.71981 C 182.96471,250.30293 178.75789,265.28794 177.64767,268.55869 C 175.63879,274.67477 173.62991,280.79085 171.62103,286.90693 C 171.7907,271.61963 173.6461,256.29587 172.58195,241.03526 C 171.47957,242.88052 170.37718,244.72578 169.2748,246.57104 z "
         style="fill:#ffffff;fill-rule:evenodd;stroke:#000000;stroke-width:0.69978529px;stroke-linecap:butt;stroke-linejoin:miter;stroke-opacity:1;display:inline" />
      <path
         inkscape:export-ydpi="8.3623056"
         inkscape:export-xdpi="8.3623056"
         inkscape:export-filename="/media/home/piers/Documents/Maryo/overworld/pngs/maryo_overworld_down_2b.png"
         id="path4523"
         d="M 574.25312,313.81711 C 570.10467,320.34086 563.97359,326.39711 560.97187,333.19211 C 562.7609,342.49683 564.24887,351.86228 566.37812,361.09836 C 567.9897,357.66453 571.13318,343.05182 570.13474,353.72009 C 570.57721,356.94514 576.53699,343.25856 573.26959,355.11606 C 572.34671,360.77231 569.38893,367.42515 577.38907,368.47548 C 584.47637,374.5467 583.32929,366.91059 583.35943,361.19497 C 583.5257,346.68429 584.74048,332.16456 584.09687,317.66086 C 581.65003,319.72698 576.69103,334.59663 577.22079,327.78988 C 577.55562,321.31985 577.89272,314.84993 578.22187,308.37961 C 576.89895,310.19211 575.57604,312.00461 574.25312,313.81711 z "
         style="fill:#ffffff;fill-rule:evenodd;stroke:#000000;stroke-width:0.37226039px;stroke-linecap:butt;stroke-linejoin:miter;stroke-opacity:1;display:inline" />
      <path
         inkscape:export-ydpi="8.3623056"
         inkscape:export-xdpi="8.3623056"
         inkscape:export-filename="/media/home/piers/Documents/Maryo/overworld/pngs/maryo_overworld_down_2b.png"
         id="path4525"
         d="M 430.13406,342.54507 C 432.46739,351.59715 434.80073,360.64924 437.13406,369.70132 C 427.95738,363.87776 418.77666,358.06058 409.60281,352.23257 C 410.87242,370.18057 412.15142,388.12792 413.41531,406.07632 C 425.15453,406.2182 436.89452,406.30211 448.63406,406.42007 C 443.65793,397.14278 438.69761,387.85701 433.72781,378.57632 C 438.98818,382.15971 444.24565,385.74739 449.50906,389.32632 C 448.49138,382.87954 447.48817,376.43049 446.47781,369.98257 C 453.68781,377.63725 460.88454,385.30444 468.10281,392.95132 C 473.883,385.12492 479.66174,377.29729 485.41531,369.45132 C 466.58786,358.99929 447.77808,348.51478 428.97781,338.01382 C 429.36323,339.52424 429.74864,341.03465 430.13406,342.54507 z "
         style="fill:#ffffff;fill-rule:evenodd;stroke:#000000;stroke-width:0.77026284px;stroke-linecap:butt;stroke-linejoin:miter;stroke-opacity:1;display:inline" />
      <path
         inkscape:export-ydpi="8.3623056"
         inkscape:export-xdpi="8.3623056"
         inkscape:export-filename="/media/home/piers/Documents/Maryo/overworld/pngs/maryo_overworld_down_2b.png"
         sodipodi:nodetypes="csc"
         id="path4577"
         d="M 130,378.07647 C 138.57142,390.93361 148.57143,408.79075 163.57143,411.6479 C 192.87404,417.22935 277.14286,419.50504 277.14286,419.50504"
         style="fill:none;fill-rule:evenodd;stroke:#000000;stroke-width:5;stroke-linecap:butt;stroke-linejoin:miter;stroke-miterlimit:4;stroke-dasharray:none;stroke-opacity:1;display:inline" />
      <path
         inkscape:export-ydpi="8.3623056"
         inkscape:export-xdpi="8.3623056"
         inkscape:export-filename="/media/home/piers/Documents/Maryo/overworld/pngs/maryo_overworld_down_2b.png"
         style="fill:none;fill-rule:evenodd;stroke:#000000;stroke-width:4.14360285;stroke-linecap:butt;stroke-linejoin:miter;stroke-miterlimit:4;stroke-dasharray:none;stroke-opacity:1;display:inline"
         d="M 571.85679,382.45147 C 565.31592,394.02266 562.67214,407.18048 546.23837,412.66515 C 518.91307,421.7848 459.57181,419.73644 459.57181,419.73644"
         id="path4579"
         sodipodi:nodetypes="csc" />
      <path
         transform="translate(-1.4285714,5.7142857)"
         d="M 400.00001 418.07648 A 61.42857 51.42857 0 1 1  277.14287,418.07648 A 61.42857 51.42857 0 1 1  400.00001 418.07648 z"
         sodipodi:ry="51.42857"
         sodipodi:rx="61.42857"
         sodipodi:cy="418.07648"
         sodipodi:cx="338.57144"
         id="path3527"
         style="opacity:1;fill:#c34831;fill-opacity:1;fill-rule:nonzero;stroke:#000000;stroke-width:12;stroke-linecap:round;stroke-miterlimit:4;stroke-dasharray:none;stroke-opacity:1;display:inline"
         sodipodi:type="arc" />
      <g
         transform="translate(-7.1428571,-31.428571)"
         id="g3520"
         style="display:inline">
        <path
           style="fill:#c34831;fill-opacity:1;fill-rule:evenodd;stroke:#000000;stroke-width:10.00580025;stroke-linecap:butt;stroke-linejoin:miter;stroke-miterlimit:4;stroke-dasharray:none;stroke-opacity:1"
           d="M 321.81284,445.34264 C 271.83253,451.60933 265.48895,510.80443 245.96423,522.09588 C 226.43953,533.38735 232.85652,532.66618 232.85652,532.66618 C 232.85652,532.66618 294.84941,552.34119 320.06995,533.91159 C 345.29048,515.48202 361.12264,459.7692 351.63407,456.28693 C 342.14549,452.80466 325.02132,444.98208 321.81284,445.34264 z "
           id="path9353" />
        <path
           style="fill:#c34831;fill-opacity:1;fill-rule:evenodd;stroke:#000000;stroke-width:4.28820038;stroke-linecap:butt;stroke-linejoin:miter;stroke-miterlimit:4;stroke-dasharray:none;stroke-opacity:1"
           d="M 346.21203,454.29707 C 308.42607,459.5931 302.29181,486.61079 292.90612,498.72355 C 285.44096,508.35778 273.81482,511.16835 273.81482,511.16835"
           id="path9355"
           sodipodi:nodetypes="csc" />
        <g
           id="g3510">
          <path
             style="fill:#c34831;fill-opacity:1;fill-rule:evenodd;stroke:#000000;stroke-width:10.00580025;stroke-linecap:butt;stroke-linejoin:miter;stroke-miterlimit:4;stroke-dasharray:none;stroke-opacity:1"
             d="M 339.54452,450.3519 C 299.97059,481.51608 325.0901,535.49116 314.19501,555.2398 C 303.29994,574.98843 308.42391,571.05871 308.42391,571.05871 C 308.42391,571.05871 371.67618,555.91358 383.7655,527.11127 C 395.8548,498.30897 380.65968,442.41905 370.73533,444.33388 C 360.81097,446.24871 342.1065,448.38705 339.54452,450.3519 z "
             id="path9366" />
          <path
             style="fill:#c34831;fill-opacity:1;fill-rule:evenodd;stroke:#000000;stroke-width:4.28820038;stroke-linecap:butt;stroke-linejoin:miter;stroke-miterlimit:4;stroke-dasharray:none;stroke-opacity:1"
             d="M 365.06427,445.42806 C 335.43388,469.4669 344.12468,495.77383 342.33766,510.99278 C 340.91629,523.09761 332.40909,531.50557 332.40909,531.50557"
             id="path9368"
             sodipodi:nodetypes="csc" />
        </g>
      </g>
      <g
         inkscape:transform-center-y="18.834066"
         inkscape:transform-center-x="41.6191"
         transform="matrix(0.6415685,0.2275062,-0.4199043,0.347605,292.47059,400.33799)"
         id="g3514"
         style="display:inline">
        <path
           style="fill:#c34831;fill-opacity:1;fill-rule:evenodd;stroke:#000000;stroke-width:10.00580025;stroke-linecap:butt;stroke-linejoin:miter;stroke-miterlimit:4;stroke-dasharray:none;stroke-opacity:1"
           d="M 339.54452,450.3519 C 299.97059,481.51608 325.0901,535.49116 314.19501,555.2398 C 303.29994,574.98843 308.42391,571.05871 308.42391,571.05871 C 308.42391,571.05871 371.67618,555.91358 383.7655,527.11127 C 395.8548,498.30897 380.65968,442.41905 370.73533,444.33388 C 360.81097,446.24871 342.1065,448.38705 339.54452,450.3519 z "
           id="path3516" />
        <path
           style="fill:#c34831;fill-opacity:1;fill-rule:evenodd;stroke:#000000;stroke-width:4.28820038;stroke-linecap:butt;stroke-linejoin:miter;stroke-miterlimit:4;stroke-dasharray:none;stroke-opacity:1"
           d="M 365.06427,445.42806 C 335.43388,469.4669 344.12468,495.77383 342.33766,510.99278 C 340.91629,523.09761 332.40909,531.50557 332.40909,531.50557"
           id="path3518"
           sodipodi:nodetypes="csc" />
      </g>
      <g
         transform="matrix(0.9142139,0,0,1,30.821838,0)"
         inkscape:export-ydpi="8.3623056"
         inkscape:export-xdpi="8.3623056"
         inkscape:export-filename="/media/home/piers/Documents/Maryo/overworld/pngs/maryo_overworld_down_2b.png"
         id="g4475">
        <g
           id="g4457">
          <path
             sodipodi:nodetypes="csscc"
             id="path8484"
             d="M 167.37363,868.78351 C 167.37363,810.78206 177.85166,788.80256 257.48474,788.80256 C 337.11783,788.80256 351.78707,811.08733 351.78707,839.47752 C 351.78708,883.44075 351.78707,868.78352 351.78707,868.78352 L 166.95451,866.95189"
             style="fill:#aa8b59;fill-opacity:1;fill-rule:evenodd;stroke:#000000;stroke-width:15;stroke-linecap:butt;stroke-linejoin:miter;stroke-miterlimit:4;stroke-dasharray:none;stroke-opacity:1" />
          <path
             sodipodi:nodetypes="csccccccccccccccccccc"
             id="path8486"
             d="M 168.76547,863.49608 C 182.98028,860.40599 347.2868,860.74933 351.88571,863.49608 C 356.48462,866.24282 354.39421,882.37994 354.39421,882.37994 L 335.58048,882.37994 L 335.70293,878.12475 L 314.38071,877.43806 L 315.09443,883.40996 L 293.7722,882.72328 L 293.89465,878.81144 L 275.49902,878.46809 L 276.21273,883.75331 L 251.54584,882.72328 L 251.6683,877.09472 L 231.18225,876.75138 L 230.64171,882.72328 L 208.06525,882.03659 L 207.35152,877.43806 L 189.37397,876.75138 L 189.25152,882.37994 L 166.67505,882.03659 L 168.76547,863.49608 z "
             style="fill:#f2ab2a;fill-opacity:1;fill-rule:evenodd;stroke:#000000;stroke-width:8;stroke-linecap:butt;stroke-linejoin:miter;stroke-miterlimit:4;stroke-dasharray:none;stroke-opacity:1" />
        </g>
      </g>
      <g
         transform="matrix(0.8927674,0,0,1,37.24649,0)"
         inkscape:export-ydpi="8.3623056"
         inkscape:export-xdpi="8.3623056"
         inkscape:export-filename="/media/home/piers/Documents/Maryo/overworld/pngs/maryo_overworld_down_2b.png"
         id="g4495">
        <g
           id="g4483"
           transform="matrix(-1,0,0,1,706.62995,0)">
          <path
             style="fill:#aa8b59;fill-opacity:1;fill-rule:evenodd;stroke:#000000;stroke-width:15;stroke-linecap:butt;stroke-linejoin:miter;stroke-miterlimit:4;stroke-dasharray:none;stroke-opacity:1"
             d="M 167.37363,868.78351 C 167.37363,810.78206 177.85166,788.80256 257.48474,788.80256 C 337.11783,788.80256 351.78707,811.08733 351.78707,839.47752 C 351.78708,883.44075 351.78707,868.78352 351.78707,868.78352 L 166.95451,866.95189"
             id="path4485"
             sodipodi:nodetypes="csscc" />
          <path
             style="fill:#f2ab2a;fill-opacity:1;fill-rule:evenodd;stroke:#000000;stroke-width:8;stroke-linecap:butt;stroke-linejoin:miter;stroke-miterlimit:4;stroke-dasharray:none;stroke-opacity:1"
             d="M 168.76547,863.49608 C 182.98028,860.40599 347.2868,860.74933 351.88571,863.49608 C 356.48462,866.24282 354.39421,882.37994 354.39421,882.37994 L 335.58048,882.37994 L 335.70293,878.12475 L 314.38071,877.43806 L 315.09443,883.40996 L 293.7722,882.72328 L 293.89465,878.81144 L 275.49902,878.46809 L 276.21273,883.75331 L 251.54584,882.72328 L 251.6683,877.09472 L 231.18225,876.75138 L 230.64171,882.72328 L 208.06525,882.03659 L 207.35152,877.43806 L 189.37397,876.75138 L 189.25152,882.37994 L 166.67505,882.03659 L 168.76547,863.49608 z "
             id="path4487"
             sodipodi:nodetypes="csccccccccccccccccccc" />
        </g>
      </g>
      <path
         sodipodi:nodetypes="cccccccccccccccccccccc"
         inkscape:export-ydpi="8.3623056"
         inkscape:export-xdpi="8.3623056"
         inkscape:export-filename="/media/home/piers/Documents/Maryo/overworld/pngs/maryo_overworld_down_2b.png"
         id="path8364"
         d="M 201.96875,679.78125 C 194.39843,680.48784 183.71945,682.27778 182.59375,691.5 C 180.39527,699.68018 185.22489,709.35761 194,710.71875 C 199.35358,710.36716 196.00728,716.9019 196.8136,720.31227 C 196.76055,750.60915 195.51159,781.07346 198.59375,811.25 C 198.41277,817.39484 204.88738,818.89802 209.70755,819.368 C 251.18595,832.86893 301.0713,832.20795 351.5625,816.1875 C 356.35777,810.6411 354.37971,802.0791 355.0161,795.28136 C 355.39433,784.98805 353.36284,773.98264 355.21875,764.0625 C 359.19092,766.79944 356.79853,773.20511 357.48276,777.2811 C 357.71504,789.89529 354.79674,803.12073 358.125,815.40625 C 361.56144,820.56917 369.29881,819.31491 374.625,820.5625 C 404.41971,829.07166 488.0151,826.20548 504.71875,806.5 C 509.00437,787.84246 506.24464,768.14423 506.62873,749.09504 C 506.70757,733.8156 505.55056,718.32068 506.4375,703.15625 C 511.58247,700.00764 515.69479,693.40124 512,687.5625 C 509.56326,681.20238 501.08839,678.91006 496.03125,683.6875 C 493.08776,686.27824 490.98586,689.9858 486.4375,689.4375 C 447.71349,701.27914 401.38667,705.29831 359.60292,705.30788 C 314.10938,704.52624 274.06136,701.61814 224.57645,686.48977 C 220.54379,685.94408 216.33425,685.44647 213.78125,682.03125 C 210.31394,679.82736 205.97948,679.53694 201.96875,679.78125 z "
         style="opacity:1;fill:#e86344;fill-opacity:1;fill-rule:evenodd;stroke:#000000;stroke-width:15;stroke-linecap:butt;stroke-linejoin:miter;stroke-miterlimit:4;stroke-dasharray:none;stroke-opacity:1;display:inline" />
      <path
         id="path3570"
         d="M 314.17775,771.53978 C 334.3808,771.53978 352.56354,749.31642 352.56354,749.31642 C 352.56354,749.31642 360.64476,774.57023 383.87827,774.57023"
         style="fill:none;fill-rule:evenodd;stroke:#000000;stroke-width:5;stroke-linecap:butt;stroke-linejoin:miter;stroke-miterlimit:4;stroke-dasharray:none;stroke-opacity:1;display:inline" />
    </g>
  </g>
</svg>
