<?xml version="1.0" encoding="UTF-8" standalone="no"?>
<!-- Created with Inkscape (http://www.inkscape.org/) -->
<svg
   xmlns:dc="http://purl.org/dc/elements/1.1/"
   xmlns:cc="http://web.resource.org/cc/"
   xmlns:rdf="http://www.w3.org/1999/02/22-rdf-syntax-ns#"
   xmlns:svg="http://www.w3.org/2000/svg"
   xmlns="http://www.w3.org/2000/svg"
   xmlns:xlink="http://www.w3.org/1999/xlink"
   xmlns:sodipodi="http://sodipodi.sourceforge.net/DTD/sodipodi-0.dtd"
   xmlns:inkscape="http://www.inkscape.org/namespaces/inkscape"
   width="744.09448819"
   height="1052.3622047"
   id="svg2"
   sodipodi:version="0.32"
   inkscape:version="0.45.1"
   sodipodi:docbase="/media/home/piers/Documents/Maryo/overworld/svgs"
   sodipodi:docname="mario_overworld_down_2.b.svg"
   inkscape:output_extension="org.inkscape.output.svg.inkscape"
   inkscape:export-filename="/media/home/piers/Documents/Maryo/overworld/pngs/mario_overworld_down_2b.png"
   inkscape:export-xdpi="8.3623056"
   inkscape:export-ydpi="8.3623056">
  <defs
     id="defs4">
    <linearGradient
       id="linearGradient8392">
      <stop
         id="stop8394"
         offset="0"
         style="stop-color:#670200;stop-opacity:1;" />
      <stop
         id="stop8398"
         offset="1"
         style="stop-color:#e86344;stop-opacity:1;" />
    </linearGradient>
    <linearGradient
       id="linearGradient8317">
      <stop
         style="stop-color:#0071ff;stop-opacity:1;"
         offset="0"
         id="stop8319" />
      <stop
         style="stop-color:#001796;stop-opacity:1;"
         offset="1"
         id="stop8321" />
    </linearGradient>
    <linearGradient
       id="linearGradient8179">
      <stop
         style="stop-color:#ff3600;stop-opacity:1;"
         offset="0"
         id="stop8181" />
      <stop
         id="stop8187"
         offset="0.62962961"
         style="stop-color:#b31c00;stop-opacity:1;" />
      <stop
         style="stop-color:#670200;stop-opacity:1;"
         offset="1"
         id="stop8183" />
    </linearGradient>
    <linearGradient
       id="linearGradient8154">
      <stop
         style="stop-color:#8a3e00;stop-opacity:1;"
         offset="0"
         id="stop8156" />
      <stop
         style="stop-color:#4f1000;stop-opacity:1;"
         offset="1"
         id="stop8158" />
    </linearGradient>
    <linearGradient
       id="linearGradient3151">
      <stop
         style="stop-color:#fad6c1;stop-opacity:1;"
         offset="0"
         id="stop3153" />
      <stop
         style="stop-color:#f7c8ac;stop-opacity:1;"
         offset="1"
         id="stop3155" />
    </linearGradient>
    <linearGradient
       inkscape:collect="always"
       xlink:href="#linearGradient3151"
       id="linearGradient8350"
       gradientUnits="userSpaceOnUse"
       x1="157.1041"
       y1="650.32147"
       x2="203.52036"
       y2="650.32147"
       gradientTransform="matrix(0.9652748,0,0,0.8208567,2.3470567,121.55149)" />
    <linearGradient
       inkscape:collect="always"
       xlink:href="#linearGradient3151"
       id="linearGradient8421"
       gradientUnits="userSpaceOnUse"
       gradientTransform="matrix(0.9652748,0,0,0.8208567,350.84968,121.55149)"
       x1="157.1041"
       y1="650.32147"
       x2="203.52036"
       y2="650.32147" />
    <linearGradient
       inkscape:collect="always"
       xlink:href="#linearGradient8154"
       id="linearGradient8507"
       gradientUnits="userSpaceOnUse"
       gradientTransform="matrix(1.1735401,0,0,0.8547583,-47.21657,106.64003)"
       x1="261.25"
       y1="797.6629"
       x2="261.25"
       y2="874.44855" />
    <linearGradient
       inkscape:collect="always"
       xlink:href="#linearGradient8154"
       id="linearGradient8519"
       gradientUnits="userSpaceOnUse"
       gradientTransform="matrix(1.1735401,0,0,0.8547583,-47.21657,106.64003)"
       x1="261.25"
       y1="797.6629"
       x2="261.25"
       y2="874.44855" />
    <radialGradient
       inkscape:collect="always"
       xlink:href="#linearGradient8392"
       id="radialGradient4567"
       gradientUnits="userSpaceOnUse"
       gradientTransform="matrix(0.9936043,3.4596014e-2,-1.803415e-2,0.4641377,17.098507,383.6629)"
       cx="351.85764"
       cy="777.81384"
       fx="351.85764"
       fy="777.81384"
       r="78.178574" />
  </defs>
  <sodipodi:namedview
     id="base"
     pagecolor="#ffffff"
     bordercolor="#666666"
     borderopacity="1.0"
     gridtolerance="10000"
     guidetolerance="10"
     objecttolerance="10"
     inkscape:pageopacity="0.0"
     inkscape:pageshadow="2"
     inkscape:zoom="0.7"
     inkscape:cx="546.21644"
     inkscape:cy="711.11821"
     inkscape:document-units="px"
     inkscape:current-layer="layer6"
     inkscape:window-width="1063"
     inkscape:window-height="940"
     inkscape:window-x="391"
     inkscape:window-y="58" />
  <metadata
     id="metadata7">
    <rdf:RDF>
      <cc:Work
         rdf:about="">
        <dc:format>image/svg+xml</dc:format>
        <dc:type
           rdf:resource="http://purl.org/dc/dcmitype/StillImage" />
      </cc:Work>
    </rdf:RDF>
  </metadata>
  <g
     inkscape:label="Layer 1"
     inkscape:groupmode="layer"
     id="layer1"
     style="display:none">
    <image
       y="112.68437"
       x="-2.8775516"
       id="image2167"
       height="826.40118"
       width="734.57886"
       sodipodi:absref="/media/home/piers/Desktop/maryo_overworld_small.jpg"
       xlink:href="/media/home/piers/Desktop/maryo_overworld_small.jpg" />
  </g>
  <g
     inkscape:groupmode="layer"
     id="layer7"
     inkscape:label="shirt"
     style="display:inline" />
  <g
     inkscape:groupmode="layer"
     id="layer9"
     inkscape:label="pants"
     style="display:inline" />
  <g
     inkscape:groupmode="layer"
     id="layer6"
     inkscape:label="hands"
     style="display:inline" />
  <g
     inkscape:groupmode="layer"
     id="layer8"
     inkscape:label="scarf" />
  <g
     inkscape:groupmode="layer"
     id="layer2"
     inkscape:label="face"
     style="display:inline" />
  <g
     inkscape:groupmode="layer"
     id="layer3"
     inkscape:label="hair below headband"
     style="display:inline" />
  <g
     inkscape:groupmode="layer"
     id="layer4"
     inkscape:label="headband"
     style="display:inline" />
  <g
     inkscape:groupmode="layer"
     id="layer5"
     inkscape:label="hair above headband"
     style="display:inline">
    <image
       y="64.933578"
       x="919.71429"
       id="image3453"
       height="900.57141"
       width="900.57141"
       sodipodi:absref="/media/home/piers/Desktop/walk_right_2.png"
       xlink:href="/media/home/piers/Desktop/walk_right_2.png"
       style="fill:#fad6c1;fill-opacity:1" />
  </g>
  <g
     inkscape:groupmode="layer"
     id="layer10"
     inkscape:label="shoes">
    <g
       id="g2289"
       inkscape:export-filename="/media/home/piers/Documents/Maryo/overworld/svgs/64px/down_middle.png"
       inkscape:export-xdpi="7"
       inkscape:export-ydpi="7">
      <path
         inkscape:export-ydpi="8.3623056"
         inkscape:export-xdpi="8.3623056"
         inkscape:export-filename="/media/home/piers/Documents/Maryo/overworld/pngs/maryo_overworld_down_2b.png"
         id="rect8325"
         d="M 206.75,591.71875 C 206.75,634.14583 206.75,676.57292 206.75,719 C 304.5,719 402.25,719 500,719 C 500,675.90625 500,632.8125 500,589.71875 C 402.25,589.71875 304.5,589.71875 206.75,589.71875 L 206.75,590.71875 L 206.75,591.71875 z "
         style="opacity:1;fill:#0685b6;fill-opacity:1;fill-rule:nonzero;stroke:#000000;stroke-width:10.09475994;stroke-miterlimit:4;stroke-dasharray:none;stroke-opacity:1;display:inline" />
      <path
         inkscape:export-ydpi="8.3623056"
         inkscape:export-xdpi="8.3623056"
         inkscape:export-filename="/media/home/piers/Documents/Maryo/overworld/pngs/maryo_overworld_down_2b.png"
         id="path8364"
         d="M 201.96875,679.78125 C 194.39843,680.48784 183.71945,682.27778 182.59375,691.5 C 180.39527,699.68018 185.22489,709.35761 194,710.71875 C 199.35358,710.36716 196.00728,716.9019 196.8136,720.31227 C 196.76055,750.60915 195.51159,781.07346 198.59375,811.25 C 198.41277,817.39484 204.88738,818.89802 209.70755,819.368 C 244.8816,823.19591 280.45459,821.35845 315.74851,820.03919 C 327.64603,818.90183 340.11503,819.61143 351.5625,816.1875 C 356.35777,810.6411 354.37971,802.0791 355.0161,795.28136 C 355.39433,784.98805 353.36284,773.98264 355.21875,764.0625 C 359.19092,766.79944 356.79853,773.20511 357.48276,777.2811 C 357.71504,789.89529 354.79674,803.12073 358.125,815.40625 C 361.56144,820.56917 369.29881,819.31491 374.625,820.5625 C 411.60984,822.86709 448.8651,821.8223 485.71875,818.25 C 493.51822,817.92632 502.73755,815.0984 504.71875,806.5 C 509.00437,787.84246 506.24464,768.14423 506.62873,749.09504 C 506.70757,733.8156 505.55056,718.32068 506.4375,703.15625 C 511.58247,700.00764 515.69479,693.40124 512,687.5625 C 509.56326,681.20238 501.08839,678.91006 496.03125,683.6875 C 493.08776,686.27824 490.98586,689.9858 486.4375,689.4375 C 444.85635,693.422 402.81524,692.44117 361.03149,692.45074 C 315.53795,691.6691 269.77565,691.61814 224.57645,686.48977 C 220.54379,685.94408 216.33425,685.44647 213.78125,682.03125 C 210.31394,679.82736 205.97948,679.53694 201.96875,679.78125 z "
         style="opacity:1;fill:#e86344;fill-opacity:1;fill-rule:evenodd;stroke:#000000;stroke-width:15;stroke-linecap:butt;stroke-linejoin:miter;stroke-miterlimit:4;stroke-dasharray:none;stroke-opacity:1;display:inline" />
      <path
         inkscape:export-ydpi="8.3623056"
         inkscape:export-xdpi="8.3623056"
         inkscape:export-filename="/media/home/piers/Documents/Maryo/overworld/pngs/maryo_overworld_down_2b.png"
         id="path8402"
         d="M 273,701.625 C 275.7272,726.38445 278.38757,751.15154 281.15625,775.90625 C 318.291,760.10402 360.97226,757.71112 400.21875,766.625 C 407.52964,767.81832 413.87228,771.9621 420.71875,774.125 C 428.46094,774.43836 430.30385,764.91793 431.25,759 C 433.63892,739.48729 431.8015,719.56982 429.59375,700.09375 C 377.32287,699.88364 325.05213,699.61285 272.78125,699.40625 C 272.85417,700.14583 272.92708,700.88542 273,701.625 z "
         style="fill:url(#radialGradient4567);fill-opacity:1;fill-rule:evenodd;stroke:none;stroke-width:1px;stroke-linecap:butt;stroke-linejoin:miter;stroke-opacity:1;display:inline" />
      <g
         inkscape:export-ydpi="8.3623056"
         inkscape:export-xdpi="8.3623056"
         inkscape:export-filename="/media/home/piers/Documents/Maryo/overworld/pngs/maryo_overworld_down_2b.png"
         id="g4435"
         style="display:inline">
        <path
           style="fill:none;fill-rule:evenodd;stroke:#000000;stroke-width:5;stroke-linecap:butt;stroke-linejoin:miter;stroke-miterlimit:4;stroke-dasharray:none;stroke-opacity:1;display:inline"
           d="M 196.97975,708.91032 C 229.30463,719.01184 247.48737,716.99154 247.48737,716.99154"
           id="path8374"
           inkscape:export-filename="/media/home/piers/Documents/Maryo/overworld/maryo_overworld_beta.png"
           inkscape:export-xdpi="8.3623056"
           inkscape:export-ydpi="8.3623056" />
        <path
           style="fill:#fad6c1;fill-opacity:1;fill-rule:evenodd;stroke:#000000;stroke-width:10;stroke-linecap:butt;stroke-linejoin:miter;stroke-miterlimit:4;stroke-dasharray:none;stroke-opacity:1"
           d="M 141.07142,723.79078 C 156.30951,724.26696 171.54761,724.74313 186.78571,725.21931 C 187.52618,694.74835 191.16287,636.96396 184.09283,625.31813 C 176.92487,613.51099 153.24201,612.12574 144.71786,625.60867 C 136.71943,638.26004 139.84482,694.59055 140.98318,722.61957 L 141.04783,723.49159 L 141.07142,723.79075 L 141.07142,723.79078 z "
           id="path4429"
           sodipodi:nodetypes="cczzcccc" />
        <g
           id="g8536">
          <path
             sodipodi:nodetypes="ccsssssscc"
             id="path8499"
             d="M 161.24596,684.29024 C 158.0593,697.80813 155.64265,712.67837 162.08701,724.08956 C 169.36395,728.73025 194.01308,730.42712 198.95714,723.55398 C 203.9012,716.68085 201.22525,656.781 192.8373,652.34327 C 184.44937,647.90554 122.72924,648.15863 113.45205,667.76327 C 104.17486,687.36792 92.439758,742.90454 112.42045,763.93068 C 135.31886,788.02721 196.0781,784.46858 210.30979,770.61772 C 224.54149,756.76685 234.88371,681.40089 223.97039,676.96524 C 213.05707,672.5296 201.34031,673.75147 201.34031,673.75147 L 201.03692,673.34766"
             style="fill:#ffffff;fill-opacity:1;fill-rule:nonzero;stroke:#000000;stroke-width:12;stroke-linecap:butt;stroke-linejoin:miter;stroke-miterlimit:4;stroke-dasharray:none;stroke-opacity:1" />
          <path
             sodipodi:nodetypes="csscsc"
             id="path8501"
             d="M 110.53435,681.95834 C 126.09462,686.69318 128.21724,688.25716 129.43284,692.39779 C 130.64846,696.5384 130.47267,728.25735 124.61638,731.39367 C 118.76009,734.52999 103.81075,735.65353 103.81075,735.65353 C 103.81075,735.65353 102.89434,726.86595 104.6979,709.08577 C 106.50148,691.30559 109.82716,681.85791 110.53435,681.95834 z "
             style="fill:#ffb3a0;fill-opacity:1;fill-rule:evenodd;stroke:#000000;stroke-width:4;stroke-linecap:butt;stroke-linejoin:miter;stroke-miterlimit:4;stroke-dasharray:none;stroke-opacity:1" />
        </g>
        <path
           sodipodi:nodetypes="cczzcccc"
           id="path4432"
           d="M 133.37736,635.65058 C 156.37374,635.97077 179.37015,636.29095 202.36656,636.61114 C 203.48402,616.12229 208.9723,577.26776 198.30262,569.43704 C 187.48518,561.49785 153.41558,559.35755 141.0232,569.6324 C 129.40528,579.26512 133.66911,615.3019 133.2442,634.86305 L 133.34176,635.4494 L 133.37736,635.65056 L 133.37736,635.65058 z "
           style="fill:#0685b6;fill-opacity:1;fill-rule:evenodd;stroke:#000000;stroke-width:10.07349491;stroke-linecap:butt;stroke-linejoin:miter;stroke-miterlimit:4;stroke-dasharray:none;stroke-opacity:1" />
      </g>
      <g
         inkscape:export-ydpi="8.3623056"
         inkscape:export-xdpi="8.3623056"
         inkscape:export-filename="/media/home/piers/Documents/Maryo/overworld/pngs/maryo_overworld_down_2b.png"
         transform="matrix(-1,0,0,1,706.89578,7.1428572)"
         id="g4443"
         style="display:inline">
        <path
           inkscape:export-ydpi="8.3623056"
           inkscape:export-xdpi="8.3623056"
           inkscape:export-filename="/media/home/piers/Documents/Maryo/overworld/maryo_overworld_beta.png"
           id="path4445"
           d="M 196.97975,708.91032 C 229.30463,719.01184 247.48737,716.99154 247.48737,716.99154"
           style="fill:none;fill-rule:evenodd;stroke:#000000;stroke-width:5;stroke-linecap:butt;stroke-linejoin:miter;stroke-miterlimit:4;stroke-dasharray:none;stroke-opacity:1;display:inline" />
        <path
           sodipodi:nodetypes="cczzcccc"
           id="path4447"
           d="M 141.07142,723.79078 C 156.30951,724.26696 171.54761,724.74313 186.78571,725.21931 C 187.52618,694.74835 191.16287,636.96396 184.09283,625.31813 C 176.92487,613.51099 153.24201,612.12574 144.71786,625.60867 C 136.71943,638.26004 139.84482,694.59055 140.98318,722.61957 L 141.04783,723.49159 L 141.07142,723.79075 L 141.07142,723.79078 z "
           style="fill:#fad6c1;fill-opacity:1;fill-rule:evenodd;stroke:#000000;stroke-width:10;stroke-linecap:butt;stroke-linejoin:miter;stroke-miterlimit:4;stroke-dasharray:none;stroke-opacity:1" />
        <g
           id="g4449">
          <path
             style="fill:#ffffff;fill-opacity:1;fill-rule:nonzero;stroke:#000000;stroke-width:12;stroke-linecap:butt;stroke-linejoin:miter;stroke-miterlimit:4;stroke-dasharray:none;stroke-opacity:1"
             d="M 161.24596,684.29024 C 158.0593,697.80813 155.64265,712.67837 162.08701,724.08956 C 169.36395,728.73025 194.01308,730.42712 198.95714,723.55398 C 203.9012,716.68085 201.22525,656.781 192.8373,652.34327 C 184.44937,647.90554 122.72924,648.15863 113.45205,667.76327 C 104.17486,687.36792 92.439758,742.90454 112.42045,763.93068 C 135.31886,788.02721 196.0781,784.46858 210.30979,770.61772 C 224.54149,756.76685 234.88371,681.40089 223.97039,676.96524 C 213.05707,672.5296 201.34031,673.75147 201.34031,673.75147 L 201.03692,673.34766"
             id="path4451"
             sodipodi:nodetypes="ccsssssscc" />
          <path
             style="fill:#ffb3a0;fill-opacity:1;fill-rule:evenodd;stroke:#000000;stroke-width:4;stroke-linecap:butt;stroke-linejoin:miter;stroke-miterlimit:4;stroke-dasharray:none;stroke-opacity:1"
             d="M 110.53435,681.95834 C 126.09462,686.69318 128.21724,688.25716 129.43284,692.39779 C 130.64846,696.5384 130.47267,728.25735 124.61638,731.39367 C 118.76009,734.52999 103.81075,735.65353 103.81075,735.65353 C 103.81075,735.65353 102.89434,726.86595 104.6979,709.08577 C 106.50148,691.30559 109.82716,681.85791 110.53435,681.95834 z "
             id="path4453"
             sodipodi:nodetypes="csscsc" />
        </g>
        <path
           style="fill:#0685b6;fill-opacity:1;fill-rule:evenodd;stroke:#000000;stroke-width:10.07349491;stroke-linecap:butt;stroke-linejoin:miter;stroke-miterlimit:4;stroke-dasharray:none;stroke-opacity:1"
           d="M 133.37736,635.65058 C 156.37374,635.97077 179.37015,636.29095 202.36656,636.61114 C 203.48402,616.12229 208.9723,577.26776 198.30262,569.43704 C 187.48518,561.49785 153.41558,559.35755 141.0232,569.6324 C 129.40528,579.26512 133.66911,615.3019 133.2442,634.86305 L 133.34176,635.4494 L 133.37736,635.65056 L 133.37736,635.65058 z "
           id="path4455"
           sodipodi:nodetypes="cczzcccc" />
      </g>
      <path
         inkscape:export-ydpi="8.3623056"
         inkscape:export-xdpi="8.3623056"
         inkscape:export-filename="/media/home/piers/Documents/Maryo/overworld/pngs/maryo_overworld_down_2b.png"
         id="path8353"
         d="M 299.9375,609.09375 C 294.60105,610.01435 290.72525,613.28939 298.78021,613.15606 C 351.26243,622.65261 400.42754,646.9465 442.1875,679.75 C 452.23723,657.0587 463.68798,633.3038 482.71875,616.78125 C 421.69892,616.92562 360.8375,611.98411 299.9375,609.09375 z "
         style="fill:#e86344;fill-opacity:1;fill-rule:evenodd;stroke:#000000;stroke-width:5.49668074;stroke-linecap:butt;stroke-linejoin:miter;stroke-miterlimit:4;stroke-dasharray:none;stroke-opacity:1" />
      <g
         id="g4629"
         style="display:inline">
        <path
           style="fill:#fad6c1;fill-opacity:1;fill-rule:evenodd;stroke:#000000;stroke-width:20;stroke-linecap:butt;stroke-linejoin:miter;stroke-miterlimit:4;stroke-dasharray:none;stroke-opacity:1;display:inline"
           d="M 593.96875,300.84375 C 437.85423,306.25172 281.73921,311.64594 125.625,317.0625 C 120.8246,347.94383 115.83135,378.79977 111.5,409.75 C 100.26646,409.18395 87.858911,411.56092 79.65625,419.625 C 75.069161,432.84476 76.294129,447.43433 76,461.28125 C 76.946416,474.71393 76.271672,489.2817 82.84375,501.40625 C 89.448949,508.53844 100.54158,508.21568 109.4375,509.90625 C 115.01544,511.33303 122.76596,508.29966 125.4375,515 C 153.25626,549.60086 185.66839,581.67292 224.9522,602.9253 C 261.93451,622.78317 304.91634,625.60765 346.15599,624.49165 C 392.65809,623.22828 440.68812,626.31604 485.40625,611.59375 C 514.15406,601.84985 536.93812,580.27804 557.35254,558.62044 C 571.58996,543.06919 584.28027,525.77658 595.28125,508 C 610.01566,508.75506 627.3842,508.76462 638.46875,497.6875 C 643.90499,489.49772 642.79234,478.73489 643.69988,469.31438 C 643.82493,449.74291 644.16513,429.666 638.71875,410.8125 C 636.4785,403.401 627.04951,403.99197 620.96875,402.21875 C 615.32785,401.28913 609.69269,400.50074 604,399.96875 C 601.29163,366.90625 598.58353,333.84373 595.875,300.78125 L 594.87554,300.81402 L 593.96875,300.84375 z "
           id="path3165"
           inkscape:export-filename="/media/home/piers/Documents/Maryo/overworld/pngs/maryo_overworld_down_2b.png"
           inkscape:export-xdpi="8.3623056"
           inkscape:export-ydpi="8.3623056" />
        <path
           style="fill:#f7c8ac;fill-opacity:1;fill-rule:evenodd;stroke:#000000;stroke-width:1px;stroke-linecap:butt;stroke-linejoin:miter;stroke-opacity:1;display:inline"
           d="M 106.84375,430.46875 C 102.97869,430.14369 98.246956,432.05167 98.5625,436.59375 C 97.618787,451.71138 97.746013,467.3108 100.65625,482.15625 C 104.13164,486.77222 111.25111,485.4221 116.34375,486.625 C 119.6127,486.20517 127.80079,489.45709 126.81965,483.84751 C 125.29909,466.53449 123.84009,449.21565 122.28125,431.90625 C 117.17399,431.04325 112.07281,430.32974 106.84375,430.46875 z "
           id="path8415"
           inkscape:export-filename="/media/home/piers/Documents/Maryo/overworld/pngs/maryo_overworld_down_2b.png"
           inkscape:export-xdpi="8.3623056"
           inkscape:export-ydpi="8.3623056" />
        <path
           style="fill:#f7c8ac;fill-opacity:1;fill-rule:evenodd;stroke:#000000;stroke-width:1.1786145px;stroke-linecap:butt;stroke-linejoin:miter;stroke-opacity:1;display:inline"
           d="M 594.1875,424.75 C 592.34655,445.07316 590.48322,465.39436 588.65625,485.71875 C 597.27725,488.70302 606.8923,486.55709 615.65625,485.28125 C 622.2541,484.88282 621.75007,477.20308 622.33305,472.44095 C 623.01924,458.14372 624.52375,443.35765 621.375,429.3125 C 617.61488,423.82997 609.31061,424.89053 603.53638,423.52383 C 600.89245,424.02756 594.194,420.9551 594.1875,424.75 z "
           id="path8417"
           inkscape:export-filename="/media/home/piers/Documents/Maryo/overworld/pngs/maryo_overworld_down_2b.png"
           inkscape:export-xdpi="8.3623056"
           inkscape:export-ydpi="8.3623056" />
        <g
           transform="matrix(0.8946077,0,0,1.2390838,162.97059,-27.109182)"
           id="g8521"
           style="display:inline"
           inkscape:export-filename="/media/home/piers/Documents/Maryo/overworld/pngs/maryo_overworld_down_2b.png"
           inkscape:export-xdpi="8.3623056"
           inkscape:export-ydpi="8.3623056">
          <path
             sodipodi:type="arc"
             style="fill:#000000;fill-opacity:1;fill-rule:nonzero;stroke-width:20;stroke-miterlimit:4;stroke-dasharray:none"
             id="path8523"
             sodipodi:cx="315.67267"
             sodipodi:cy="390.20718"
             sodipodi:rx="28.789347"
             sodipodi:ry="48.992397"
             d="M 344.46202 390.20718 A 28.789347 48.992397 0 1 1  286.88332,390.20718 A 28.789347 48.992397 0 1 1  344.46202 390.20718 z" />
          <path
             sodipodi:type="arc"
             style="fill:#ffffff;fill-opacity:1;fill-rule:nonzero;stroke-width:20;stroke-miterlimit:4;stroke-dasharray:none"
             id="path8525"
             sodipodi:cx="324.25897"
             sodipodi:cy="361.92291"
             sodipodi:rx="9.0913725"
             sodipodi:ry="9.5964489"
             d="M 333.35034 361.92291 A 9.0913725 9.5964489 0 1 1  315.1676,361.92291 A 9.0913725 9.5964489 0 1 1  333.35034 361.92291 z"
             transform="matrix(1,0,0,1.4736842,0,-170.9321)" />
        </g>
        <g
           inkscape:export-ydpi="8.3623056"
           inkscape:export-xdpi="8.3623056"
           inkscape:export-filename="/media/home/piers/Documents/Maryo/overworld/pngs/maryo_overworld_down_2b.png"
           style="display:inline"
           id="g4505"
           transform="matrix(0.8946077,0,0,1.2390838,-11.02941,-27.109182)">
          <path
             d="M 344.46202 390.20718 A 28.789347 48.992397 0 1 1  286.88332,390.20718 A 28.789347 48.992397 0 1 1  344.46202 390.20718 z"
             sodipodi:ry="48.992397"
             sodipodi:rx="28.789347"
             sodipodi:cy="390.20718"
             sodipodi:cx="315.67267"
             id="path4507"
             style="fill:#000000;fill-opacity:1;fill-rule:nonzero;stroke-width:20;stroke-miterlimit:4;stroke-dasharray:none"
             sodipodi:type="arc" />
          <path
             transform="matrix(1,0,0,1.4736842,0,-170.9321)"
             d="M 333.35034 361.92291 A 9.0913725 9.5964489 0 1 1  315.1676,361.92291 A 9.0913725 9.5964489 0 1 1  333.35034 361.92291 z"
             sodipodi:ry="9.5964489"
             sodipodi:rx="9.0913725"
             sodipodi:cy="361.92291"
             sodipodi:cx="324.25897"
             id="path4509"
             style="fill:#ffffff;fill-opacity:1;fill-rule:nonzero;stroke-width:20;stroke-miterlimit:4;stroke-dasharray:none"
             sodipodi:type="arc" />
        </g>
        <path
           style="fill:none;fill-rule:evenodd;stroke:#000000;stroke-width:4.64232969;stroke-linecap:butt;stroke-linejoin:miter;stroke-miterlimit:4;stroke-dasharray:none;stroke-opacity:1;display:inline"
           d="M 287.6783,532.903 C 293.78978,596.23345 425.18652,595.51378 429.46455,532.18334"
           id="path4575"
           sodipodi:nodetypes="cc"
           inkscape:export-filename="/media/home/piers/Documents/Maryo/overworld/pngs/maryo_overworld_down_2b.png"
           inkscape:export-xdpi="8.3623056"
           inkscape:export-ydpi="8.3623056" />
        <path
           style="fill:none;fill-rule:evenodd;stroke:#000000;stroke-width:5;stroke-linecap:butt;stroke-linejoin:miter;stroke-opacity:1;stroke-miterlimit:4;stroke-dasharray:none;display:inline"
           d="M 404.28571,398.79075 C 440,381.6479 482.14286,387.36218 482.14286,387.36218"
           id="path4583"
           inkscape:export-filename="/media/home/piers/Documents/Maryo/overworld/pngs/maryo_overworld_down_2b.png"
           inkscape:export-xdpi="8.3623056"
           inkscape:export-ydpi="8.3623056" />
        <path
           id="path4585"
           d="M 308.14286,398.79075 C 272.42857,381.6479 230.28571,387.36218 230.28571,387.36218"
           style="fill:none;fill-rule:evenodd;stroke:#000000;stroke-width:5;stroke-linecap:butt;stroke-linejoin:miter;stroke-miterlimit:4;stroke-dasharray:none;stroke-opacity:1;display:inline"
           inkscape:export-filename="/media/home/piers/Documents/Maryo/overworld/pngs/maryo_overworld_down_2b.png"
           inkscape:export-xdpi="8.3623056"
           inkscape:export-ydpi="8.3623056" />
        <path
           style="fill:#aa8b59;fill-opacity:1;fill-rule:evenodd;stroke:#000000;stroke-width:5;stroke-linecap:butt;stroke-linejoin:miter;stroke-miterlimit:4;stroke-dasharray:none;stroke-opacity:1"
           d="M 168.125,372.65625 C 155.28972,376.46199 142.47014,380.3223 129.625,384.09375 C 127.10637,395.24216 124.61752,406.39883 122.03125,417.53125 C 132.28434,429.15032 140.98151,444.49556 138.09375,460.40625 C 148.95833,460.40625 159.82292,460.40625 170.6875,460.40625 C 170.6875,430.89583 170.6875,401.38542 170.6875,371.875 C 169.83333,372.13542 168.97917,372.39583 168.125,372.65625 z "
           id="path4501"
           inkscape:export-filename="/media/home/piers/Documents/Maryo/overworld/pngs/maryo_overworld_down_2b.png"
           inkscape:export-xdpi="8.3623056"
           inkscape:export-ydpi="8.3623056" />
        <path
           style="fill:#aa8b59;fill-opacity:1;fill-rule:evenodd;stroke:#000000;stroke-width:5;stroke-linecap:butt;stroke-linejoin:miter;stroke-miterlimit:4;stroke-dasharray:none;stroke-opacity:1"
           d="M 539.40625,365.46875 C 539.40625,394.08333 539.40625,422.69792 539.40625,451.3125 C 550.4375,451.3125 561.46875,451.3125 572.5,451.3125 C 568.88556,438.74689 575.41043,425.65684 582.4375,415.4375 C 584.81611,411.54157 590.11112,408.66588 586.93241,403.56677 C 584.79209,394.04367 582.62304,384.52692 580.5,375 C 566.7921,370.96209 553.09551,366.8826 539.40625,362.78125 C 539.40625,363.67708 539.40625,364.57292 539.40625,365.46875 z "
           id="path4503"
           inkscape:export-filename="/media/home/piers/Documents/Maryo/overworld/pngs/maryo_overworld_down_2b.png"
           inkscape:export-xdpi="8.3623056"
           inkscape:export-ydpi="8.3623056" />
      </g>
      <g
         id="g4605"
         style="display:inline">
        <path
           style="opacity:1;fill:#e86344;fill-opacity:1;fill-rule:evenodd;stroke:#000000;stroke-width:15;stroke-linecap:butt;stroke-linejoin:miter;stroke-miterlimit:4;stroke-dasharray:none;stroke-opacity:1"
           d="M 357.15625,193.71875 C 304.78899,194.55964 251.83557,195.90694 200.68875,208.00287 C 181.80019,212.39451 163.02427,220.53514 150.0625,235.28125 C 141.04394,244.02263 137.13828,256.32505 135.8125,268.46875 C 133.15803,279.63831 119.67281,281.68862 111.17503,287.17261 C 83.566826,300.97373 55.838181,314.5574 28.09375,328.09375 C 50.332307,347.5868 73.503662,366.49635 95.25,386.25 C 96.124003,397.20934 94.535128,408.34479 91.34375,418.875 C 103.07269,419.27663 114.80121,419.69521 126.53125,420.0625 C 124.35574,406.24976 127.31572,388.03189 141.78125,382.34375 C 166.47861,376.19908 192.26788,376.39605 217.59155,374.88514 C 303.0197,371.77568 388.52108,373.77734 473.9675,374.89316 C 505.80554,376.0488 538.05303,375.77796 569.37425,381.87596 C 578.95922,383.26768 585.47083,392.38238 587.875,401.15625 C 588.36616,404.31087 586.97201,408.29687 591.93634,406.91182 C 602.0931,407.2497 612.24886,407.61963 622.40625,407.9375 C 618.61877,363.34472 613.54569,318.49058 601.21875,275.375 C 596.57312,260.38906 590.69617,244.22035 576.6875,235.5625 C 543.903,212.06115 502.57668,204.28731 463.20294,198.93943 C 428.04009,194.63275 392.55681,193.50637 357.15625,193.71875 z "
           id="path8177"
           inkscape:export-filename="/media/home/piers/Documents/Maryo/overworld/pngs/maryo_overworld_down_2b.png"
           inkscape:export-xdpi="8.3623056"
           inkscape:export-ydpi="8.3623056" />
        <path
           style="fill:none;fill-rule:evenodd;stroke:#000000;stroke-width:10;stroke-linecap:butt;stroke-linejoin:miter;stroke-miterlimit:4;stroke-dasharray:none;stroke-opacity:1"
           d="M 137.5,267.03125 C 132.3158,290.79556 128.12649,314.8416 125.34375,338.96875 C 127.27643,348.79516 130.85344,334.62792 130.81278,330.65718 C 134.13165,309.39198 138.56281,288.08003 141.18864,266.84396 C 140.47267,261.13704 139.74758,264.49378 137.5,267.03125 z "
           id="path8193"
           inkscape:export-filename="/media/home/piers/Documents/Maryo/overworld/pngs/maryo_overworld_down_2b.png"
           inkscape:export-xdpi="8.3623056"
           inkscape:export-ydpi="8.3623056" />
        <path
           style="fill:#ffffff;fill-rule:evenodd;stroke:#000000;stroke-width:1px;stroke-linecap:butt;stroke-linejoin:miter;stroke-opacity:1"
           d="M 229.90625,222.71875 C 209.92263,232.5533 189.9748,242.46181 169.96875,252.25 C 176.4824,264.8525 182.98402,277.46121 189.5,290.0625 C 198.54546,279.37662 207.56037,268.66486 216.59375,257.96875 C 215.1024,266.04134 213.63698,274.11874 212.125,282.1875 C 219.78432,277.66859 227.41547,273.10214 235.0625,268.5625 C 229.51856,280.88439 223.99394,293.215 218.4375,305.53125 C 231.0459,307.73626 243.64272,310.00731 256.25,312.21875 C 258.33326,286.62673 260.38298,261.03187 262.4375,235.4375 C 250.78298,243.90472 239.14707,252.39754 227.5,260.875 C 229.44224,247.59445 231.34273,234.30773 233.3125,221.03125 C 232.17708,221.59375 231.04167,222.15625 229.90625,222.71875 z "
           id="path4515"
           inkscape:export-filename="/media/home/piers/Documents/Maryo/overworld/pngs/maryo_overworld_down_2b.png"
           inkscape:export-xdpi="8.3623056"
           inkscape:export-ydpi="8.3623056" />
        <path
           style="fill:#ffffff;fill-rule:evenodd;stroke:#000000;stroke-width:0.77949601px;stroke-linecap:butt;stroke-linejoin:miter;stroke-opacity:1"
           d="M 353.75,207.78125 C 330.85402,208.68353 307.95921,209.61775 285.0625,210.5 C 284.94737,219.39544 284.91663,228.29189 284.8125,237.1875 C 297.2206,233.68938 309.60226,230.0974 322,226.5625 C 317.04739,230.44484 312.10469,234.33987 307.125,238.1875 C 315.72085,237.47246 324.31261,236.7096 332.90625,235.96875 C 322.69936,241.11743 312.47695,246.23542 302.28125,251.40625 C 313.23142,255.63985 324.16174,259.926 335.125,264.125 C 349.83296,250.02048 364.50612,235.87946 379.25,221.8125 C 364.65498,223.82417 350.06264,225.85521 335.46875,227.875 C 343.51117,221.10506 351.53943,214.31829 359.59375,207.5625 C 357.64583,207.63542 355.69792,207.70833 353.75,207.78125 z "
           id="path4517"
           inkscape:export-filename="/media/home/piers/Documents/Maryo/overworld/pngs/maryo_overworld_down_2b.png"
           inkscape:export-xdpi="8.3623056"
           inkscape:export-ydpi="8.3623056" />
        <path
           style="fill:#ffffff;fill-rule:evenodd;stroke:#000000;stroke-width:1.4032644px;stroke-linecap:butt;stroke-linejoin:miter;stroke-opacity:1"
           d="M 471.125,218.15625 C 448.52667,237.59879 425.96489,257.08427 403.34375,276.5 C 414.83514,292.91117 426.26922,309.36259 437.75,325.78125 C 446.54416,307.15802 455.37796,288.55348 464.1875,269.9375 C 464.5494,282.61466 464.9376,295.29108 465.28125,307.96875 C 474.00272,299.14805 482.65222,290.25644 491.34375,281.40625 C 487.62539,301.54174 483.90395,321.67666 480.1875,341.8125 C 496.4272,341.8707 512.66656,342.03397 528.90625,342.09375 C 524.5191,304.61239 520.10509,267.13406 515.6875,229.65625 C 503.08079,245.1998 490.52429,260.78405 477.9375,276.34375 C 476.68701,256.06253 475.44071,235.78105 474.1875,215.5 C 473.16667,216.38542 472.14583,217.27083 471.125,218.15625 z "
           id="path4519"
           inkscape:export-filename="/media/home/piers/Documents/Maryo/overworld/pngs/maryo_overworld_down_2b.png"
           inkscape:export-xdpi="8.3623056"
           inkscape:export-ydpi="8.3623056" />
        <path
           style="fill:#ffffff;fill-rule:evenodd;stroke:#000000;stroke-width:0.69978529px;stroke-linecap:butt;stroke-linejoin:miter;stroke-opacity:1"
           d="M 549.09375,255.6875 C 550.39776,273.86317 550.79296,292.3749 552.65625,310.34375 C 562.29619,322.33368 570.68666,335.3974 581.25,346.59375 C 579.64265,334.94152 575.44058,323.83995 572.65625,312.4375 C 574.95355,316.90429 578.21983,326.33888 581.06826,327.00233 C 582.57959,323.66992 578.68514,307.61786 581.75541,316.21137 C 586.25227,328.14142 590.75955,340.06754 595.25,352 C 600.36216,349.64225 605.4582,347.2497 610.5625,344.875 C 596.11753,316.57391 582.69885,287.64421 567.7431,259.66956 C 562.95895,252.67141 566.15228,267.90461 566.67901,271.31825 C 567.7235,277.6705 568.768,284.02275 569.8125,290.375 C 562.89916,276.73916 557.46396,262.29206 549.46875,249.25 C 549.34375,251.39583 549.21875,253.54167 549.09375,255.6875 z "
           id="path4521"
           inkscape:export-filename="/media/home/piers/Documents/Maryo/overworld/pngs/maryo_overworld_down_2b.png"
           inkscape:export-xdpi="8.3623056"
           inkscape:export-ydpi="8.3623056" />
        <path
           style="fill:#ffffff;fill-rule:evenodd;stroke:#000000;stroke-width:0.37226039px;stroke-linecap:butt;stroke-linejoin:miter;stroke-opacity:1"
           d="M 147.96875,291.59375 C 143.8203,298.1175 137.68922,304.17375 134.6875,310.96875 C 136.47653,320.27347 137.9645,329.63892 140.09375,338.875 C 141.70533,335.44117 144.84881,320.82846 143.85037,331.49673 C 144.29284,334.72178 150.25262,321.0352 146.98522,332.8927 C 146.06234,338.54895 143.10456,345.20179 151.1047,346.25212 C 158.192,352.32334 157.04492,344.68723 157.07506,338.97161 C 157.24133,324.46093 158.45611,309.9412 157.8125,295.4375 C 155.36566,297.50362 150.40666,312.37327 150.93642,305.56652 C 151.27125,299.09649 151.60835,292.62657 151.9375,286.15625 C 150.61458,287.96875 149.29167,289.78125 147.96875,291.59375 z "
           id="path4523"
           inkscape:export-filename="/media/home/piers/Documents/Maryo/overworld/pngs/maryo_overworld_down_2b.png"
           inkscape:export-xdpi="8.3623056"
           inkscape:export-ydpi="8.3623056" />
        <path
           style="fill:#ffffff;fill-rule:evenodd;stroke:#000000;stroke-width:0.77026284px;stroke-linecap:butt;stroke-linejoin:miter;stroke-opacity:1"
           d="M 345.28125,275.875 C 347.61458,284.92708 349.94792,293.97917 352.28125,303.03125 C 343.10457,297.20769 333.92385,291.39051 324.75,285.5625 C 326.01961,303.5105 327.29861,321.45785 328.5625,339.40625 C 340.30172,339.54813 352.04171,339.63204 363.78125,339.75 C 358.80512,330.47271 353.8448,321.18694 348.875,311.90625 C 354.13537,315.48964 359.39284,319.07732 364.65625,322.65625 C 363.63857,316.20947 362.63536,309.76042 361.625,303.3125 C 368.835,310.96718 376.03173,318.63437 383.25,326.28125 C 389.03019,318.45485 394.80893,310.62722 400.5625,302.78125 C 381.73505,292.32922 362.92527,281.84471 344.125,271.34375 C 344.51042,272.85417 344.89583,274.36458 345.28125,275.875 z "
           id="path4525"
           inkscape:export-filename="/media/home/piers/Documents/Maryo/overworld/pngs/maryo_overworld_down_2b.png"
           inkscape:export-xdpi="8.3623056"
           inkscape:export-ydpi="8.3623056" />
        <path
           style="fill:none;fill-rule:evenodd;stroke:#000000;stroke-width:5;stroke-linecap:butt;stroke-linejoin:miter;stroke-opacity:1;stroke-miterlimit:4;stroke-dasharray:none"
           d="M 98.571429,388.07647 C 107.14285,375.21933 117.14286,357.36219 132.14286,354.50504 C 161.44547,348.92359 245.71429,346.6479 245.71429,346.6479"
           id="path4577"
           sodipodi:nodetypes="csc"
           inkscape:export-filename="/media/home/piers/Documents/Maryo/overworld/pngs/maryo_overworld_down_2b.png"
           inkscape:export-xdpi="8.3623056"
           inkscape:export-ydpi="8.3623056" />
        <path
           sodipodi:nodetypes="csc"
           id="path4579"
           d="M 616.1425,384.21896 C 609.60163,372.64777 606.95785,359.48995 590.52408,354.00528 C 563.19878,344.88563 503.85752,346.93399 503.85752,346.93399"
           style="fill:none;fill-rule:evenodd;stroke:#000000;stroke-width:4.14360285;stroke-linecap:butt;stroke-linejoin:miter;stroke-miterlimit:4;stroke-dasharray:none;stroke-opacity:1"
           inkscape:export-filename="/media/home/piers/Documents/Maryo/overworld/pngs/maryo_overworld_down_2b.png"
           inkscape:export-xdpi="8.3623056"
           inkscape:export-ydpi="8.3623056" />
      </g>
      <path
         inkscape:export-ydpi="8.3623056"
         inkscape:export-xdpi="8.3623056"
         inkscape:export-filename="/media/home/piers/Documents/Maryo/overworld/pngs/maryo_overworld_down_2b.png"
         id="path8166"
         d="M 584.48342,211.33499 C 559.1124,215.91954 533.19833,220.72424 509.79924,233.60531 C 486.6568,249.25722 471.33642,276.13822 455.97423,301.42002 C 441.02065,327.44746 426.34836,353.84969 412.87941,380.9377 C 410.10349,387.5688 415.46512,382.89904 417.34809,380.5581 C 440.63744,356.27389 471.22502,345.98272 499.86756,334.66868 C 538.52179,322.83623 578.94285,323.92161 618.62851,323.53352 C 607.18393,303.73473 589.2786,288.83372 568.91276,286.60969 C 554.02773,283.95893 538.88644,283.14396 523.81891,282.8196 C 528.1652,268.26342 534.30821,253.20056 546.06693,245.24234 C 560.30847,233.1638 575.68426,223.00191 590.06508,211.08405 C 588.20453,211.16769 586.34398,211.25134 584.48342,211.33499 z "
         style="fill:#aa8b59;fill-opacity:1;fill-rule:evenodd;stroke:#000000;stroke-width:7.16044712;stroke-linecap:butt;stroke-linejoin:miter;stroke-miterlimit:4;stroke-dasharray:none;stroke-opacity:1;display:inline" />
      <g
         inkscape:export-ydpi="8.3623056"
         inkscape:export-xdpi="8.3623056"
         inkscape:export-filename="/media/home/piers/Documents/Maryo/overworld/pngs/maryo_overworld_down_2b.png"
         id="g4475">
        <g
           id="g4457">
          <path
             sodipodi:nodetypes="csscc"
             id="path8484"
             d="M 167.37363,868.78351 C 167.37363,810.78206 177.85166,788.80256 257.48474,788.80256 C 337.11783,788.80256 351.78707,811.08733 351.78707,839.47752 C 351.78708,883.44075 351.78707,868.78352 351.78707,868.78352 L 166.95451,866.95189"
             style="fill:#aa8b59;fill-opacity:1;fill-rule:evenodd;stroke:#000000;stroke-width:15;stroke-linecap:butt;stroke-linejoin:miter;stroke-miterlimit:4;stroke-dasharray:none;stroke-opacity:1" />
          <path
             sodipodi:nodetypes="csccccccccccccccccccc"
             id="path8486"
             d="M 168.76547,863.49608 C 182.98028,860.40599 347.2868,860.74933 351.88571,863.49608 C 356.48462,866.24282 354.39421,882.37994 354.39421,882.37994 L 335.58048,882.37994 L 335.70293,878.12475 L 314.38071,877.43806 L 315.09443,883.40996 L 293.7722,882.72328 L 293.89465,878.81144 L 275.49902,878.46809 L 276.21273,883.75331 L 251.54584,882.72328 L 251.6683,877.09472 L 231.18225,876.75138 L 230.64171,882.72328 L 208.06525,882.03659 L 207.35152,877.43806 L 189.37397,876.75138 L 189.25152,882.37994 L 166.67505,882.03659 L 168.76547,863.49608 z "
             style="fill:#f2ab2a;fill-opacity:1;fill-rule:evenodd;stroke:#000000;stroke-width:8;stroke-linecap:butt;stroke-linejoin:miter;stroke-miterlimit:4;stroke-dasharray:none;stroke-opacity:1" />
        </g>
        <path
           sodipodi:type="arc"
           style="fill:#f2ab2a;fill-opacity:1;stroke-width:10;stroke-miterlimit:4;stroke-dasharray:none"
           id="path4473"
           sodipodi:cx="304.28571"
           sodipodi:cy="824.50507"
           sodipodi:rx="28.571428"
           sodipodi:ry="15"
           d="M 332.85713 824.50507 A 28.571428 15 0 1 1  275.71428,824.50507 A 28.571428 15 0 1 1  332.85713 824.50507 z"
           transform="matrix(1.1335309,0.2337456,-0.2038959,1.2994766,120.33876,-315.90252)" />
      </g>
      <g
         inkscape:export-ydpi="8.3623056"
         inkscape:export-xdpi="8.3623056"
         inkscape:export-filename="/media/home/piers/Documents/Maryo/overworld/pngs/maryo_overworld_down_2b.png"
         id="g4495">
        <g
           id="g4483"
           transform="matrix(-1,0,0,1,706.62995,0)">
          <path
             style="fill:#aa8b59;fill-opacity:1;fill-rule:evenodd;stroke:#000000;stroke-width:15;stroke-linecap:butt;stroke-linejoin:miter;stroke-miterlimit:4;stroke-dasharray:none;stroke-opacity:1"
             d="M 167.37363,868.78351 C 167.37363,810.78206 177.85166,788.80256 257.48474,788.80256 C 337.11783,788.80256 351.78707,811.08733 351.78707,839.47752 C 351.78708,883.44075 351.78707,868.78352 351.78707,868.78352 L 166.95451,866.95189"
             id="path4485"
             sodipodi:nodetypes="csscc" />
          <path
             style="fill:#f2ab2a;fill-opacity:1;fill-rule:evenodd;stroke:#000000;stroke-width:8;stroke-linecap:butt;stroke-linejoin:miter;stroke-miterlimit:4;stroke-dasharray:none;stroke-opacity:1"
             d="M 168.76547,863.49608 C 182.98028,860.40599 347.2868,860.74933 351.88571,863.49608 C 356.48462,866.24282 354.39421,882.37994 354.39421,882.37994 L 335.58048,882.37994 L 335.70293,878.12475 L 314.38071,877.43806 L 315.09443,883.40996 L 293.7722,882.72328 L 293.89465,878.81144 L 275.49902,878.46809 L 276.21273,883.75331 L 251.54584,882.72328 L 251.6683,877.09472 L 231.18225,876.75138 L 230.64171,882.72328 L 208.06525,882.03659 L 207.35152,877.43806 L 189.37397,876.75138 L 189.25152,882.37994 L 166.67505,882.03659 L 168.76547,863.49608 z "
             id="path4487"
             sodipodi:nodetypes="csccccccccccccccccccc" />
        </g>
        <path
           transform="matrix(1.1335309,0.2337456,-0.2038959,1.2994766,307.43439,-317.92283)"
           d="M 332.85713 824.50507 A 28.571428 15 0 1 1  275.71428,824.50507 A 28.571428 15 0 1 1  332.85713 824.50507 z"
           sodipodi:ry="15"
           sodipodi:rx="28.571428"
           sodipodi:cy="824.50507"
           sodipodi:cx="304.28571"
           id="path4489"
           style="fill:#f2ab2a;fill-opacity:1;stroke-width:10;stroke-miterlimit:4;stroke-dasharray:none"
           sodipodi:type="arc" />
      </g>
    </g>
  </g>
</svg>
