<?xml version="1.0" encoding="UTF-8" standalone="no"?>
<!-- Created with Inkscape (http://www.inkscape.org/) -->
<svg
   xmlns:dc="http://purl.org/dc/elements/1.1/"
   xmlns:cc="http://web.resource.org/cc/"
   xmlns:rdf="http://www.w3.org/1999/02/22-rdf-syntax-ns#"
   xmlns:svg="http://www.w3.org/2000/svg"
   xmlns="http://www.w3.org/2000/svg"
   xmlns:xlink="http://www.w3.org/1999/xlink"
   xmlns:sodipodi="http://sodipodi.sourceforge.net/DTD/sodipodi-0.dtd"
   xmlns:inkscape="http://www.inkscape.org/namespaces/inkscape"
   width="744.09448819"
   height="1052.3622047"
   id="svg2"
   sodipodi:version="0.32"
   inkscape:version="0.45.1"
   sodipodi:docbase="/media/home/piers/Documents/Maryo/overworld/svgs"
   sodipodi:docname="mario_overworld_up_1.b.svg"
   inkscape:output_extension="org.inkscape.output.svg.inkscape"
   inkscape:export-filename="/media/home/piers/Documents/Maryo/overworld/pngs/mario_overworld_down_2b.png"
   inkscape:export-xdpi="8.3623056"
   inkscape:export-ydpi="8.3623056">
  <defs
     id="defs4">
    <linearGradient
       id="linearGradient8392">
      <stop
         id="stop8394"
         offset="0"
         style="stop-color:#670200;stop-opacity:1;" />
      <stop
         id="stop8398"
         offset="1"
         style="stop-color:#e86344;stop-opacity:1;" />
    </linearGradient>
    <linearGradient
       id="linearGradient8317">
      <stop
         style="stop-color:#0071ff;stop-opacity:1;"
         offset="0"
         id="stop8319" />
      <stop
         style="stop-color:#001796;stop-opacity:1;"
         offset="1"
         id="stop8321" />
    </linearGradient>
    <linearGradient
       id="linearGradient8179">
      <stop
         style="stop-color:#ff3600;stop-opacity:1;"
         offset="0"
         id="stop8181" />
      <stop
         id="stop8187"
         offset="0.62962961"
         style="stop-color:#b31c00;stop-opacity:1;" />
      <stop
         style="stop-color:#670200;stop-opacity:1;"
         offset="1"
         id="stop8183" />
    </linearGradient>
    <linearGradient
       id="linearGradient8154">
      <stop
         style="stop-color:#8a3e00;stop-opacity:1;"
         offset="0"
         id="stop8156" />
      <stop
         style="stop-color:#4f1000;stop-opacity:1;"
         offset="1"
         id="stop8158" />
    </linearGradient>
    <linearGradient
       id="linearGradient3151">
      <stop
         style="stop-color:#fad6c1;stop-opacity:1;"
         offset="0"
         id="stop3153" />
      <stop
         style="stop-color:#f7c8ac;stop-opacity:1;"
         offset="1"
         id="stop3155" />
    </linearGradient>
    <linearGradient
       inkscape:collect="always"
       xlink:href="#linearGradient3151"
       id="linearGradient8350"
       gradientUnits="userSpaceOnUse"
       x1="157.1041"
       y1="650.32147"
       x2="203.52036"
       y2="650.32147"
       gradientTransform="matrix(0.9652748,0,0,0.8208567,2.3470567,121.55149)" />
    <linearGradient
       inkscape:collect="always"
       xlink:href="#linearGradient3151"
       id="linearGradient8421"
       gradientUnits="userSpaceOnUse"
       gradientTransform="matrix(0.9652748,0,0,0.8208567,350.84968,121.55149)"
       x1="157.1041"
       y1="650.32147"
       x2="203.52036"
       y2="650.32147" />
    <linearGradient
       inkscape:collect="always"
       xlink:href="#linearGradient8154"
       id="linearGradient8507"
       gradientUnits="userSpaceOnUse"
       gradientTransform="matrix(1.1735401,0,0,0.8547583,-47.21657,106.64003)"
       x1="261.25"
       y1="797.6629"
       x2="261.25"
       y2="874.44855" />
    <linearGradient
       inkscape:collect="always"
       xlink:href="#linearGradient8154"
       id="linearGradient8519"
       gradientUnits="userSpaceOnUse"
       gradientTransform="matrix(1.1735401,0,0,0.8547583,-47.21657,106.64003)"
       x1="261.25"
       y1="797.6629"
       x2="261.25"
       y2="874.44855" />
  </defs>
  <sodipodi:namedview
     id="base"
     pagecolor="#ffffff"
     bordercolor="#666666"
     borderopacity="1.0"
     gridtolerance="10000"
     guidetolerance="10"
     objecttolerance="10"
     inkscape:pageopacity="0.0"
     inkscape:pageshadow="2"
     inkscape:zoom="0.7"
     inkscape:cx="168.55555"
     inkscape:cy="559.32317"
     inkscape:document-units="px"
     inkscape:current-layer="layer10"
     inkscape:window-width="1069"
     inkscape:window-height="939"
     inkscape:window-x="1"
     inkscape:window-y="26" />
  <metadata
     id="metadata7">
    <rdf:RDF>
      <cc:Work
         rdf:about="">
        <dc:format>image/svg+xml</dc:format>
        <dc:type
           rdf:resource="http://purl.org/dc/dcmitype/StillImage" />
      </cc:Work>
    </rdf:RDF>
  </metadata>
  <g
     inkscape:label="Layer 1"
     inkscape:groupmode="layer"
     id="layer1"
     style="display:none">
    <image
       y="112.68437"
       x="-2.8775516"
       id="image2167"
       height="826.40118"
       width="734.57886"
       sodipodi:absref="/media/home/piers/Desktop/maryo_overworld_small.jpg"
       xlink:href="/media/home/piers/Desktop/maryo_overworld_small.jpg" />
  </g>
  <g
     inkscape:groupmode="layer"
     id="layer7"
     inkscape:label="shirt"
     style="display:inline" />
  <g
     inkscape:groupmode="layer"
     id="layer9"
     inkscape:label="pants"
     style="display:inline" />
  <g
     inkscape:groupmode="layer"
     id="layer6"
     inkscape:label="hands"
     style="display:inline" />
  <g
     inkscape:groupmode="layer"
     id="layer8"
     inkscape:label="scarf" />
  <g
     inkscape:groupmode="layer"
     id="layer2"
     inkscape:label="face"
     style="display:inline" />
  <g
     inkscape:groupmode="layer"
     id="layer3"
     inkscape:label="hair below headband"
     style="display:inline" />
  <g
     inkscape:groupmode="layer"
     id="layer4"
     inkscape:label="headband"
     style="display:inline" />
  <g
     inkscape:groupmode="layer"
     id="layer5"
     inkscape:label="hair above headband"
     style="display:inline">
    <image
       y="182.07646"
       x="605.42859"
       id="image2251"
       height="753.42859"
       width="753.42859"
       sodipodi:absref="/media/home/piers/Desktop/climb_left.png"
       xlink:href="/media/home/piers/Desktop/climb_left.png" />
  </g>
  <g
     inkscape:groupmode="layer"
     id="layer10"
     inkscape:label="shoes">
    <g
       id="g2252"
       inkscape:export-filename="/media/home/piers/Documents/Maryo/overworld/pngs/64px/up_left.png"
       inkscape:export-xdpi="7.050025"
       inkscape:export-ydpi="7.050025">
      <g
         transform="matrix(0.8535981,0,0,0.9459551,45.48583,12.25071)"
         inkscape:export-ydpi="8.3623056"
         inkscape:export-xdpi="8.3623056"
         inkscape:export-filename="/media/home/piers/Documents/Maryo/overworld/pngs/maryo_overworld_down_2b.png"
         id="g4475"
         style="display:inline">
        <g
           id="g4457">
          <path
             sodipodi:nodetypes="csscc"
             id="path8484"
             d="M 167.37363,868.78351 C 167.37363,810.78206 177.85166,788.80256 257.48474,788.80256 C 337.11783,788.80256 351.78707,811.08733 351.78707,839.47752 C 351.78708,883.44075 351.78707,868.78352 351.78707,868.78352 L 166.95451,866.95189"
             style="fill:#aa8b59;fill-opacity:1;fill-rule:evenodd;stroke:#000000;stroke-width:15;stroke-linecap:butt;stroke-linejoin:miter;stroke-miterlimit:4;stroke-dasharray:none;stroke-opacity:1" />
          <path
             sodipodi:nodetypes="csccccccccccccccccccc"
             id="path8486"
             d="M 168.76547,863.49608 C 182.98028,860.40599 347.2868,860.74933 351.88571,863.49608 C 356.48462,866.24282 354.39421,882.37994 354.39421,882.37994 L 335.58048,882.37994 L 335.70293,878.12475 L 314.38071,877.43806 L 315.09443,883.40996 L 293.7722,882.72328 L 293.89465,878.81144 L 275.49902,878.46809 L 276.21273,883.75331 L 251.54584,882.72328 L 251.6683,877.09472 L 231.18225,876.75138 L 230.64171,882.72328 L 208.06525,882.03659 L 207.35152,877.43806 L 189.37397,876.75138 L 189.25152,882.37994 L 166.67505,882.03659 L 168.76547,863.49608 z "
             style="fill:#f2ab2a;fill-opacity:1;fill-rule:evenodd;stroke:#000000;stroke-width:8;stroke-linecap:butt;stroke-linejoin:miter;stroke-miterlimit:4;stroke-dasharray:none;stroke-opacity:1" />
        </g>
      </g>
      <g
         transform="matrix(1.0208854,0,0,1.1435066,-30.626876,-113.03853)"
         inkscape:export-ydpi="8.3623056"
         inkscape:export-xdpi="8.3623056"
         inkscape:export-filename="/media/home/piers/Documents/Maryo/overworld/pngs/maryo_overworld_down_2b.png"
         id="g4495"
         style="display:inline">
        <g
           id="g4483"
           transform="matrix(-1,0,0,1,706.62995,0)">
          <path
             style="fill:#aa8b59;fill-opacity:1;fill-rule:evenodd;stroke:#000000;stroke-width:15;stroke-linecap:butt;stroke-linejoin:miter;stroke-miterlimit:4;stroke-dasharray:none;stroke-opacity:1"
             d="M 167.37363,868.78351 C 167.37363,810.78206 177.85166,788.80256 257.48474,788.80256 C 337.11783,788.80256 351.78707,811.08733 351.78707,839.47752 C 351.78708,883.44075 351.78707,868.78352 351.78707,868.78352 L 166.95451,866.95189"
             id="path4485"
             sodipodi:nodetypes="csscc" />
          <path
             style="fill:#f2ab2a;fill-opacity:1;fill-rule:evenodd;stroke:#000000;stroke-width:8;stroke-linecap:butt;stroke-linejoin:miter;stroke-miterlimit:4;stroke-dasharray:none;stroke-opacity:1"
             d="M 168.76547,863.49608 C 182.98028,860.40599 347.2868,860.74933 351.88571,863.49608 C 356.48462,866.24282 354.39421,882.37994 354.39421,882.37994 L 335.58048,882.37994 L 335.70293,878.12475 L 314.38071,877.43806 L 315.09443,883.40996 L 293.7722,882.72328 L 293.89465,878.81144 L 275.49902,878.46809 L 276.21273,883.75331 L 251.54584,882.72328 L 251.6683,877.09472 L 231.18225,876.75138 L 230.64171,882.72328 L 208.06525,882.03659 L 207.35152,877.43806 L 189.37397,876.75138 L 189.25152,882.37994 L 166.67505,882.03659 L 168.76547,863.49608 z "
             id="path4487"
             sodipodi:nodetypes="csccccccccccccccccccc" />
        </g>
      </g>
      <path
         style="fill:#fad6c1;fill-opacity:1;fill-rule:evenodd;stroke:#000000;stroke-width:8.06327057;stroke-linecap:butt;stroke-linejoin:miter;stroke-miterlimit:4;stroke-dasharray:none;stroke-opacity:1"
         d="M 538.96998,699.55326 C 523.15471,698.60493 507.33941,697.6566 491.52412,696.70827 C 492.25478,677.64951 491.32678,641.32452 499.22631,634.64125 C 507.23524,627.8654 531.84689,628.93701 540.01796,638.04001 C 547.68509,646.58159 541.67673,681.44752 539.11901,698.83024 L 539.00914,699.36865 L 538.96999,699.55324 L 538.96998,699.55326 z "
         id="path3560"
         sodipodi:nodetypes="cczzcccc" />
      <g
         inkscape:transform-center-x="26.54315"
         inkscape:transform-center-y="49.552008"
         transform="matrix(-0.5151493,-0.1618067,-0.1618067,0.5151493,719.93973,348.67113)"
         id="g3815">
        <path
           id="path3817"
           d="M 203.78294,719.95263 C 199.20544,676.46632 97.737384,681.80675 100.78906,722.24138"
           style="fill:#ffffff;fill-rule:evenodd;stroke:#000000;stroke-width:7.55249882;stroke-linecap:butt;stroke-linejoin:miter;stroke-miterlimit:4;stroke-dasharray:none;stroke-opacity:1" />
        <g
           transform="translate(0,-6)"
           id="g3819">
          <path
             style="fill:#ffffff;fill-opacity:1;fill-rule:evenodd;stroke:#000000;stroke-width:15;stroke-linecap:butt;stroke-linejoin:miter;stroke-miterlimit:4;stroke-dasharray:none;stroke-opacity:1"
             d="M 219.80421,729.39639 C 249.86278,751.2034 250.32092,866.72151 235.06257,888.0833 C 219.80421,909.44497 125.28837,915.12537 105.36657,900.28995 C 69.50945,873.58779 66.052943,763.22311 82.47904,740.07724 C 93.406735,724.67913 142.65962,717.92039 166.36235,736.44944 C 179.38423,714.54385 212.10774,723.81272 219.80421,729.39639 z "
             id="path3821"
             sodipodi:nodetypes="csszcs" />
          <path
             style="fill:none;fill-rule:evenodd;stroke:#000000;stroke-width:10.57349873;stroke-linecap:butt;stroke-linejoin:miter;stroke-miterlimit:4;stroke-dasharray:none;stroke-opacity:1"
             d="M 161.05956,726.81888 C 183.94709,773.35686 173.26624,858.80357 173.26624,858.80357"
             id="path3823"
             sodipodi:nodetypes="cc" />
          <path
             style="fill:none;fill-rule:evenodd;stroke:#000000;stroke-width:10.57349873;stroke-linecap:butt;stroke-linejoin:miter;stroke-miterlimit:4;stroke-dasharray:none;stroke-opacity:1"
             d="M 178.60666,825.23527 C 189.28751,832.10151 205.30878,840.49361 211.41212,860.32948"
             id="path3825" />
          <path
             sodipodi:nodetypes="csscsc"
             id="path3827"
             d="M 82.887403,772.73426 C 111.07321,774.41492 115.29051,776.19386 119.02194,782.69007 C 122.75339,789.1862 135.32261,842.7981 126.70954,850.46748 C 118.09647,858.13689 93.318175,866.09722 93.318175,866.09722 C 93.318175,866.09722 88.20687,851.63585 84.039174,820.89191 C 79.871509,790.14793 81.652947,772.85156 82.887403,772.73426 z "
             style="fill:#ffb3a0;fill-opacity:1;fill-rule:evenodd;stroke:#000000;stroke-width:6.94408417;stroke-linecap:butt;stroke-linejoin:miter;stroke-miterlimit:4;stroke-dasharray:none;stroke-opacity:1" />
        </g>
      </g>
      <path
         sodipodi:nodetypes="cczzcccc"
         id="path3568"
         d="M 550.55931,664.63754 C 530.9236,661.61537 511.28785,658.59317 491.6521,655.57099 C 493.63583,637.9571 494.52766,604.07187 504.73879,598.9299 C 515.09133,593.71671 544.42075,596.77498 553.50521,607.30337 C 562.02195,617.17378 553.22636,647.26138 550.78559,663.98575 L 550.61847,664.47126 L 550.55932,664.63753 L 550.55931,664.63754 z "
         style="fill:#0685b6;fill-opacity:1;fill-rule:evenodd;stroke:#000000;stroke-width:8.70180798;stroke-linecap:butt;stroke-linejoin:miter;stroke-miterlimit:4;stroke-dasharray:none;stroke-opacity:1" />
      <path
         inkscape:export-ydpi="8.3623056"
         inkscape:export-xdpi="8.3623056"
         inkscape:export-filename="/media/home/piers/Documents/Maryo/overworld/pngs/maryo_overworld_down_2b.png"
         id="rect8325"
         d="M 206.75,591.71875 C 206.75,634.14583 206.75,676.57292 206.75,719 C 304.5,719 402.25,719 500,719 C 500,675.90625 500,632.8125 500,589.71875 C 402.25,589.71875 304.5,589.71875 206.75,589.71875 L 206.75,590.71875 L 206.75,591.71875 z "
         style="fill:#0685b6;fill-opacity:1;fill-rule:nonzero;stroke:#000000;stroke-width:10.09475994;stroke-miterlimit:4;stroke-dasharray:none;stroke-opacity:1;display:inline" />
      <path
         sodipodi:nodetypes="cscccs"
         id="path3500"
         d="M 224.28572,626.21932 C 255.87183,670.33009 400.83073,692.48061 465.71428,619.79075 C 503.53383,577.42104 481.48294,519.09749 481.48294,519.09749 L 498.57143,532.64789 L 213.79551,549.07647 C 213.79551,549.07647 183.90833,569.83132 224.28572,626.21932 z "
         style="fill:#e86344;fill-opacity:1;fill-rule:evenodd;stroke:#000000;stroke-width:5;stroke-linecap:butt;stroke-linejoin:miter;stroke-miterlimit:4;stroke-dasharray:none;stroke-opacity:1" />
      <g
         transform="matrix(0.9975788,-6.9545482e-2,6.9545482e-2,0.9975788,-39.72466,25.439363)"
         inkscape:transform-center-x="-1.873022"
         inkscape:transform-center-y="-183.70413"
         id="g3737">
        <g
           style="display:inline"
           id="g3502"
           transform="translate(488.57143,74.285714)">
          <path
             inkscape:export-ydpi="8.3623056"
             inkscape:export-xdpi="8.3623056"
             inkscape:export-filename="/media/home/piers/Documents/Maryo/overworld/pngs/maryo_overworld_down_2b.png"
             id="path3165"
             d="M 101.11161,235.12946 C -55.002913,240.53743 -197.5465,247.36022 -353.66071,252.77678 C -358.46111,283.65811 -377.02579,313.08548 -381.35714,344.03571 C -392.59068,343.46966 -404.99823,345.84663 -413.20089,353.91071 C -417.78798,367.13047 -416.56301,381.72004 -416.85714,395.56696 C -415.91073,408.99964 -416.58547,423.56741 -410.01339,435.69196 C -403.40819,442.82415 -392.31556,442.50139 -383.41964,444.19196 C -377.8417,445.61874 -314.59227,446.27935 -311.92073,452.97969 C -251.77709,518.89528 -233.11396,531.51746 -219.33351,540.06815 C -171.11116,569.98986 -94.048697,562.8679 -54.59375,530.16517 C -40.707996,518.65579 -37.550645,459.58478 30.006632,475.07003 C 44.244052,459.51878 64.28027,460.06229 75.281253,442.28571 C 90.015663,443.04077 134.52706,443.05033 145.61161,431.97321 C 151.04785,423.78343 149.9352,413.0206 150.84274,403.60009 C 150.96779,384.02862 151.30799,363.95171 145.86161,345.09821 C 143.62136,337.68671 134.19237,338.27768 128.11161,336.50446 C 122.47071,335.57484 116.83555,334.78645 111.14286,334.25446 C 108.43449,301.19196 105.72639,268.12944 103.01786,235.06696 L 102.0184,235.09973 L 101.11161,235.12946 z "
             style="fill:#ffb3a0;fill-opacity:1;fill-rule:evenodd;stroke:#000000;stroke-width:15;stroke-linecap:butt;stroke-linejoin:miter;stroke-miterlimit:4;stroke-dasharray:none;stroke-opacity:1;display:inline"
             sodipodi:nodetypes="ccccccccsscccccccccc" />
          <path
             sodipodi:nodetypes="csssscccc"
             id="path2286"
             d="M -365.71428,342.36218 C -367.14285,442.36218 -318.82177,461.34822 -265.1646,503.5877 C -241.71972,522.04375 -157.12192,538.33232 -124.28572,539.50504 C -42.857143,542.36218 -29.089294,512.84797 3.7360308,502.36218 C 36.563756,491.87562 73.634508,468.97277 95.021029,406.05615 C 104.26213,378.86992 97.142857,299.50504 97.142857,299.50504 L -92.857143,253.79075 L -281.42857,262.36218 L -365.71428,342.36218 z "
             style="fill:#ab8752;fill-opacity:1;fill-rule:evenodd;stroke:#000000;stroke-width:10;stroke-linecap:butt;stroke-linejoin:miter;stroke-miterlimit:4;stroke-dasharray:none;stroke-opacity:1" />
        </g>
        <path
           style="fill:#aa8b59;fill-opacity:1;fill-rule:evenodd;stroke:#000000;stroke-width:7.16044712;stroke-linecap:butt;stroke-linejoin:miter;stroke-miterlimit:4;stroke-dasharray:none;stroke-opacity:1;display:inline"
           d="M 134.81393,145.6207 C 160.18495,150.20525 186.09902,155.00995 209.49811,167.89102 C 232.64055,183.54293 247.96093,210.42393 263.32312,235.70573 C 278.2767,261.73317 292.94899,288.1354 306.41794,315.22341 C 309.19386,321.85451 303.83223,317.18475 301.94926,314.84381 C 278.65991,290.5596 248.07233,280.26843 219.42979,268.95439 C 180.77556,257.12194 140.3545,258.20732 100.66884,257.81923 C 112.11342,238.02044 130.01875,223.11943 150.38459,220.8954 C 165.26962,218.24464 180.41091,217.42967 195.47844,217.10531 C 191.13215,202.54913 184.98914,187.48627 173.23042,179.52805 C 158.98888,167.44951 143.61309,157.28762 129.23227,145.36976 C 131.09282,145.4534 132.95337,145.53705 134.81393,145.6207 z "
           id="path8166"
           inkscape:export-filename="/media/home/piers/Documents/Maryo/overworld/pngs/maryo_overworld_down_2b.png"
           inkscape:export-xdpi="8.3623056"
           inkscape:export-ydpi="8.3623056" />
        <path
           sodipodi:nodetypes="ccccccssccccccc"
           style="fill:#e86344;fill-opacity:1;fill-rule:evenodd;stroke:#000000;stroke-width:15;stroke-linecap:butt;stroke-linejoin:miter;stroke-miterlimit:4;stroke-dasharray:none;stroke-opacity:1;display:inline"
           d="M 357.15625,193.71875 C 304.78899,194.55964 251.83557,195.90694 200.68875,208.00287 C 181.80019,212.39451 163.02427,220.53514 150.0625,235.28125 C 141.04394,244.02263 125.70971,344.18219 124.38393,356.32589 C 101.49204,348.82664 84.212231,384.80397 91.34375,418.875 C 103.07269,419.27663 114.80121,419.69521 126.53125,420.0625 C 152.0657,453.32498 207.30216,455.28269 250.44869,454.88514 C 335.86731,454.09811 392.80888,454.99202 478.25321,454.89316 C 557.45188,454.80153 578.7971,438.80798 591.93634,406.91182 C 602.0931,407.2497 612.24886,407.61963 622.40625,407.9375 C 638.04242,397.34106 647.63468,356.96354 616.90014,354.72142 C 614.02274,332.4793 608.64195,301.33892 601.21875,275.375 C 596.57312,260.38906 590.69617,244.22035 576.6875,235.5625 C 543.903,212.06115 502.57668,204.28731 463.20294,198.93943 C 428.04009,194.63275 392.55681,193.50637 357.15625,193.71875 z "
           id="path8177"
           inkscape:export-filename="/media/home/piers/Documents/Maryo/overworld/pngs/maryo_overworld_down_2b.png"
           inkscape:export-xdpi="8.3623056"
           inkscape:export-ydpi="8.3623056" />
        <path
           style="fill:#ffffff;fill-rule:evenodd;stroke:#000000;stroke-width:0.9999032px;stroke-linecap:butt;stroke-linejoin:miter;stroke-opacity:1;display:inline"
           d="M 449.7372,317.94914 C 472.46039,316.66221 495.17916,315.29499 517.9051,314.05837 C 516.76368,300.2235 515.63606,286.3876 514.49199,272.55292 C 501.73563,278.75703 488.99779,284.99606 476.24876,291.21398 C 480.85309,284.50057 485.43488,277.773 490.05713,271.07087 C 481.05073,272.23999 472.05203,273.46265 463.04898,274.65512 C 473.15515,265.64747 483.24656,256.62461 493.36227,247.62678 C 482.3585,240.85536 471.3918,234.02877 460.39164,227.25198 C 448.28627,249.53834 436.21135,271.84 424.13212,294.13938 C 438.467,290.92565 452.79449,287.68177 467.12642,284.45597 C 460.03328,295.69441 452.97702,306.95426 445.85956,318.17858 C 447.1521,318.1021 448.44464,318.02563 449.7372,317.94914 z "
           id="path4515"
           inkscape:export-filename="/media/home/piers/Documents/Maryo/overworld/pngs/maryo_overworld_down_2b.png"
           inkscape:export-xdpi="8.3623056"
           inkscape:export-ydpi="8.3623056" />
        <path
           style="fill:#ffffff;fill-rule:evenodd;stroke:#000000;stroke-width:0.59340894px;stroke-linecap:butt;stroke-linejoin:miter;stroke-opacity:1;display:inline"
           d="M 195.045,368.73959 C 200.76167,380.32983 206.50941,391.90879 212.20661,403.50611 C 220.94932,400.59469 229.67519,397.63908 238.41574,394.72188 C 232.36842,389.44585 226.2347,384.21489 220.15351,378.95652 C 225.00387,380.23202 229.86457,381.49813 234.68664,382.79929 C 232.17161,378.57365 229.61058,374.3661 227.07072,370.15023 C 234.27117,373.7317 241.44482,377.33148 248.6646,380.89973 C 250.50284,373.79838 252.39677,366.6898 254.19832,359.5932 C 237.27029,356.66539 220.31383,353.76784 203.41503,350.80882 C 208.46706,357.7172 213.53749,364.61771 218.59722,371.52278 C 210.26461,369.607 201.91849,367.70422 193.59723,365.77755 C 194.07982,366.76489 194.5624,367.75223 195.045,368.73959 z "
           id="path4517"
           inkscape:export-filename="/media/home/piers/Documents/Maryo/overworld/pngs/maryo_overworld_down_2b.png"
           inkscape:export-xdpi="8.3623056"
           inkscape:export-ydpi="8.3623056" />
        <path
           style="fill:#ffffff;fill-rule:evenodd;stroke:#000000;stroke-width:1.4032644px;stroke-linecap:butt;stroke-linejoin:miter;stroke-opacity:1;display:inline"
           d="M 307.48029,216.13594 C 284.88196,235.57848 262.32018,255.06396 239.69904,274.47969 C 251.19043,290.89086 262.62451,307.34228 274.10529,323.76094 C 282.89945,305.13771 291.73325,286.53317 300.54279,267.91719 C 300.90469,280.59435 301.29289,293.27077 301.63654,305.94844 C 310.35801,297.12774 319.00751,288.23613 327.69904,279.38594 C 323.98068,299.52143 320.25924,319.65635 316.54279,339.79219 C 332.78249,339.85039 349.02185,340.01366 365.26154,340.07344 C 360.87439,302.59208 356.46038,265.11375 352.04279,227.63594 C 339.43608,243.17949 326.87958,258.76374 314.29279,274.32344 C 313.0423,254.04222 311.796,233.76074 310.54279,213.47969 C 309.52196,214.36511 308.50112,215.25052 307.48029,216.13594 z "
           id="path4519"
           inkscape:export-filename="/media/home/piers/Documents/Maryo/overworld/pngs/maryo_overworld_down_2b.png"
           inkscape:export-xdpi="8.3623056"
           inkscape:export-ydpi="8.3623056" />
        <path
           style="fill:#ffffff;fill-rule:evenodd;stroke:#000000;stroke-width:0.69978529px;stroke-linecap:butt;stroke-linejoin:miter;stroke-opacity:1;display:inline"
           d="M 169.2748,246.57104 C 162.03282,263.29256 153.82959,279.89217 147.17917,296.6887 C 150.18809,311.77622 151.59277,327.23868 155.7873,342.04909 C 159.74598,330.97268 161.14911,319.18567 163.94857,307.78693 C 163.92195,312.80979 162.45919,322.68604 164.67874,324.59059 C 167.55886,322.33361 171.52227,306.29843 170.27431,315.33821 C 168.7498,327.99616 167.23635,340.65544 165.70504,353.31257 C 171.32818,353.58379 176.95309,353.8167 182.57708,354.06926 C 182.84374,322.29603 184.31103,290.43955 183.97387,258.71981 C 182.96471,250.30293 178.75789,265.28794 177.64767,268.55869 C 175.63879,274.67477 173.62991,280.79085 171.62103,286.90693 C 171.7907,271.61963 173.6461,256.29587 172.58195,241.03526 C 171.47957,242.88052 170.37718,244.72578 169.2748,246.57104 z "
           id="path4521"
           inkscape:export-filename="/media/home/piers/Documents/Maryo/overworld/pngs/maryo_overworld_down_2b.png"
           inkscape:export-xdpi="8.3623056"
           inkscape:export-ydpi="8.3623056" />
        <path
           style="fill:#ffffff;fill-rule:evenodd;stroke:#000000;stroke-width:0.37226039px;stroke-linecap:butt;stroke-linejoin:miter;stroke-opacity:1;display:inline"
           d="M 574.25312,313.81711 C 570.10467,320.34086 563.97359,326.39711 560.97187,333.19211 C 562.7609,342.49683 564.24887,351.86228 566.37812,361.09836 C 567.9897,357.66453 571.13318,343.05182 570.13474,353.72009 C 570.57721,356.94514 576.53699,343.25856 573.26959,355.11606 C 572.34671,360.77231 569.38893,367.42515 577.38907,368.47548 C 584.47637,374.5467 583.32929,366.91059 583.35943,361.19497 C 583.5257,346.68429 584.74048,332.16456 584.09687,317.66086 C 581.65003,319.72698 576.69103,334.59663 577.22079,327.78988 C 577.55562,321.31985 577.89272,314.84993 578.22187,308.37961 C 576.89895,310.19211 575.57604,312.00461 574.25312,313.81711 z "
           id="path4523"
           inkscape:export-filename="/media/home/piers/Documents/Maryo/overworld/pngs/maryo_overworld_down_2b.png"
           inkscape:export-xdpi="8.3623056"
           inkscape:export-ydpi="8.3623056" />
        <path
           style="fill:#ffffff;fill-rule:evenodd;stroke:#000000;stroke-width:0.77026284px;stroke-linecap:butt;stroke-linejoin:miter;stroke-opacity:1;display:inline"
           d="M 430.13406,342.54507 C 432.46739,351.59715 434.80073,360.64924 437.13406,369.70132 C 427.95738,363.87776 418.77666,358.06058 409.60281,352.23257 C 410.87242,370.18057 412.15142,388.12792 413.41531,406.07632 C 425.15453,406.2182 436.89452,406.30211 448.63406,406.42007 C 443.65793,397.14278 438.69761,387.85701 433.72781,378.57632 C 438.98818,382.15971 444.24565,385.74739 449.50906,389.32632 C 448.49138,382.87954 447.48817,376.43049 446.47781,369.98257 C 453.68781,377.63725 460.88454,385.30444 468.10281,392.95132 C 473.883,385.12492 479.66174,377.29729 485.41531,369.45132 C 466.58786,358.99929 447.77808,348.51478 428.97781,338.01382 C 429.36323,339.52424 429.74864,341.03465 430.13406,342.54507 z "
           id="path4525"
           inkscape:export-filename="/media/home/piers/Documents/Maryo/overworld/pngs/maryo_overworld_down_2b.png"
           inkscape:export-xdpi="8.3623056"
           inkscape:export-ydpi="8.3623056" />
        <path
           style="fill:none;fill-rule:evenodd;stroke:#000000;stroke-width:5;stroke-linecap:butt;stroke-linejoin:miter;stroke-miterlimit:4;stroke-dasharray:none;stroke-opacity:1;display:inline"
           d="M 130,378.07647 C 138.57142,390.93361 148.57143,408.79075 163.57143,411.6479 C 192.87404,417.22935 277.14286,419.50504 277.14286,419.50504"
           id="path4577"
           sodipodi:nodetypes="csc"
           inkscape:export-filename="/media/home/piers/Documents/Maryo/overworld/pngs/maryo_overworld_down_2b.png"
           inkscape:export-xdpi="8.3623056"
           inkscape:export-ydpi="8.3623056" />
        <path
           sodipodi:nodetypes="csc"
           id="path4579"
           d="M 571.85679,382.45147 C 565.31592,394.02266 562.67214,407.18048 546.23837,412.66515 C 518.91307,421.7848 459.57181,419.73644 459.57181,419.73644"
           style="fill:none;fill-rule:evenodd;stroke:#000000;stroke-width:4.14360285;stroke-linecap:butt;stroke-linejoin:miter;stroke-miterlimit:4;stroke-dasharray:none;stroke-opacity:1;display:inline"
           inkscape:export-filename="/media/home/piers/Documents/Maryo/overworld/pngs/maryo_overworld_down_2b.png"
           inkscape:export-xdpi="8.3623056"
           inkscape:export-ydpi="8.3623056" />
        <path
           sodipodi:type="arc"
           style="fill:#c34831;fill-opacity:1;fill-rule:nonzero;stroke:#000000;stroke-width:12;stroke-linecap:round;stroke-miterlimit:4;stroke-dasharray:none;stroke-opacity:1;display:inline"
           id="path3527"
           sodipodi:cx="338.57144"
           sodipodi:cy="418.07648"
           sodipodi:rx="61.42857"
           sodipodi:ry="51.42857"
           d="M 400.00001 418.07648 A 61.42857 51.42857 0 1 1  277.14287,418.07648 A 61.42857 51.42857 0 1 1  400.00001 418.07648 z"
           transform="translate(-1.4285714,5.7142857)" />
        <g
           style="display:inline"
           id="g3520"
           transform="translate(-7.1428571,-31.428571)">
          <path
             id="path9353"
             d="M 321.81284,445.34264 C 271.83253,451.60933 265.48895,510.80443 245.96423,522.09588 C 226.43953,533.38735 232.85652,532.66618 232.85652,532.66618 C 232.85652,532.66618 294.84941,552.34119 320.06995,533.91159 C 345.29048,515.48202 361.12264,459.7692 351.63407,456.28693 C 342.14549,452.80466 325.02132,444.98208 321.81284,445.34264 z "
             style="fill:#c34831;fill-opacity:1;fill-rule:evenodd;stroke:#000000;stroke-width:10.00580025;stroke-linecap:butt;stroke-linejoin:miter;stroke-miterlimit:4;stroke-dasharray:none;stroke-opacity:1" />
          <path
             sodipodi:nodetypes="csc"
             id="path9355"
             d="M 346.21203,454.29707 C 308.42607,459.5931 302.29181,486.61079 292.90612,498.72355 C 285.44096,508.35778 273.81482,511.16835 273.81482,511.16835"
             style="fill:#c34831;fill-opacity:1;fill-rule:evenodd;stroke:#000000;stroke-width:4.28820038;stroke-linecap:butt;stroke-linejoin:miter;stroke-miterlimit:4;stroke-dasharray:none;stroke-opacity:1" />
          <g
             id="g3510">
            <path
               id="path9366"
               d="M 339.54452,450.3519 C 299.97059,481.51608 325.0901,535.49116 314.19501,555.2398 C 303.29994,574.98843 308.42391,571.05871 308.42391,571.05871 C 308.42391,571.05871 371.67618,555.91358 383.7655,527.11127 C 395.8548,498.30897 380.65968,442.41905 370.73533,444.33388 C 360.81097,446.24871 342.1065,448.38705 339.54452,450.3519 z "
               style="fill:#c34831;fill-opacity:1;fill-rule:evenodd;stroke:#000000;stroke-width:10.00580025;stroke-linecap:butt;stroke-linejoin:miter;stroke-miterlimit:4;stroke-dasharray:none;stroke-opacity:1" />
            <path
               sodipodi:nodetypes="csc"
               id="path9368"
               d="M 365.06427,445.42806 C 335.43388,469.4669 344.12468,495.77383 342.33766,510.99278 C 340.91629,523.09761 332.40909,531.50557 332.40909,531.50557"
               style="fill:#c34831;fill-opacity:1;fill-rule:evenodd;stroke:#000000;stroke-width:4.28820038;stroke-linecap:butt;stroke-linejoin:miter;stroke-miterlimit:4;stroke-dasharray:none;stroke-opacity:1" />
          </g>
        </g>
      </g>
      <g
         inkscape:transform-center-y="18.834066"
         inkscape:transform-center-x="41.6191"
         transform="matrix(0.6415685,0.2275062,-0.4199043,0.347605,292.47059,400.33799)"
         id="g3514"
         style="display:inline">
        <path
           style="fill:#c34831;fill-opacity:1;fill-rule:evenodd;stroke:#000000;stroke-width:10.00580025;stroke-linecap:butt;stroke-linejoin:miter;stroke-miterlimit:4;stroke-dasharray:none;stroke-opacity:1"
           d="M 339.54452,450.3519 C 299.97059,481.51608 325.0901,535.49116 314.19501,555.2398 C 303.29994,574.98843 308.42391,571.05871 308.42391,571.05871 C 308.42391,571.05871 371.67618,555.91358 383.7655,527.11127 C 395.8548,498.30897 380.65968,442.41905 370.73533,444.33388 C 360.81097,446.24871 342.1065,448.38705 339.54452,450.3519 z "
           id="path3516" />
        <path
           style="fill:#c34831;fill-opacity:1;fill-rule:evenodd;stroke:#000000;stroke-width:4.28820038;stroke-linecap:butt;stroke-linejoin:miter;stroke-miterlimit:4;stroke-dasharray:none;stroke-opacity:1"
           d="M 365.06427,445.42806 C 335.43388,469.4669 344.12468,495.77383 342.33766,510.99278 C 340.91629,523.09761 332.40909,531.50557 332.40909,531.50557"
           id="path3518"
           sodipodi:nodetypes="csc" />
      </g>
      <g
         transform="matrix(-1,0,0,1,695.48432,0)"
         id="g3722">
        <path
           style="fill:#e86344;fill-opacity:1;fill-rule:evenodd;stroke:#000000;stroke-width:15;stroke-linecap:butt;stroke-linejoin:round;stroke-miterlimit:4;stroke-dasharray:none;stroke-opacity:1;display:inline"
           d="M 201.96875,679.78125 C 194.39843,680.48784 183.71945,682.27778 182.59375,691.5 C 180.39527,699.68018 185.22489,709.35761 194,710.71875 C 199.35358,710.36716 196.00728,716.9019 196.8136,720.31227 C 196.76055,750.60915 195.51159,781.07346 198.59375,811.25 C 198.41277,817.39484 197.74452,831.75516 202.56469,832.22514 C 244.04309,845.72607 301.0713,846.49366 351.5625,830.47321 C 356.35777,824.92681 354.37971,802.0791 355.0161,795.28136 C 355.39433,784.98805 354.37299,774.99279 351.68322,766.58788 C 354.50262,774.46752 359.73558,783.59481 358.83929,792.5491 C 362.27573,797.71202 373.22738,800.74348 378.55357,801.99107 C 410.49114,808.00023 487.30081,805.84834 504.00446,786.14286 C 505.43294,768.1996 505.17321,759.5728 505.5573,740.52361 C 505.63614,725.24417 505.55056,718.32068 506.4375,703.15625 C 511.58247,700.00764 515.69479,693.40124 512,687.5625 C 509.56326,681.20238 501.08839,678.91006 496.03125,683.6875 C 493.08776,686.27824 490.98586,689.9858 486.4375,689.4375 C 447.71349,701.27914 401.38667,705.29831 359.60292,705.30788 C 314.10938,704.52624 274.06136,701.61814 224.57645,686.48977 C 220.54379,685.94408 216.33425,685.44647 213.78125,682.03125 C 210.31394,679.82736 205.97948,679.53694 201.96875,679.78125 z "
           id="path8364"
           inkscape:export-filename="/media/home/piers/Documents/Maryo/overworld/pngs/maryo_overworld_down_2b.png"
           inkscape:export-xdpi="8.3623056"
           inkscape:export-ydpi="8.3623056"
           sodipodi:nodetypes="ccccccccccccccccccccc" />
        <path
           style="fill:none;fill-rule:evenodd;stroke:#000000;stroke-width:5;stroke-linecap:butt;stroke-linejoin:miter;stroke-miterlimit:4;stroke-dasharray:none;stroke-opacity:1;display:inline"
           d="M 415.37374,778.06245 C 359.81354,780.2053 349.84509,755.1248 349.84509,755.1248 C 349.84509,755.1248 344.97816,769.30718 325.67322,774.30718"
           id="path3570"
           sodipodi:nodetypes="ccc" />
      </g>
      <g
         id="g3829">
        <path
           sodipodi:nodetypes="cczzcccc"
           id="path4432"
           d="M 124.13392,643.42155 C 149.77148,650.22751 175.40909,657.03348 201.04671,663.83945 C 208.04156,641.23074 225.07569,599.3008 215.3345,587.54855 C 205.45842,575.63352 167.94294,563.68656 151.19801,571.70702 C 135.49954,579.22625 130.1657,620.73813 124.20575,642.50315 L 124.15049,643.18649 L 124.13392,643.42152 L 124.13392,643.42155 z "
           style="fill:#0685b6;fill-opacity:1;fill-rule:evenodd;stroke:#000000;stroke-width:11.61832428;stroke-linecap:butt;stroke-linejoin:miter;stroke-miterlimit:4;stroke-dasharray:none;stroke-opacity:1"
           inkscape:transform-center-x="25.437407"
           inkscape:transform-center-y="19.765538" />
        <path
           style="fill:#fad6c1;fill-opacity:1;fill-rule:evenodd;stroke:#000000;stroke-width:8.06327057;stroke-linecap:butt;stroke-linejoin:miter;stroke-miterlimit:4;stroke-dasharray:none;stroke-opacity:1"
           d="M 133.2998,688.79288 C 148.65945,692.67921 164.01912,696.56554 179.37878,700.45187 C 184.45494,682.06702 196.34141,647.72932 190.83716,638.96736 C 185.25667,630.08404 161.47648,623.65097 150.93211,629.85156 C 141.03805,635.66972 136.20403,670.71778 133.37676,688.05869 L 133.3184,688.60508 L 133.29981,688.79286 L 133.2998,688.79288 z "
           id="path4429"
           sodipodi:nodetypes="cczzcccc" />
        <g
           id="g3807"
           inkscape:transform-center-y="91.969093"
           transform="matrix(0.99405,-0.1089243,0.1089243,0.99405,-76.009466,21.522282)"
           inkscape:transform-center-x="-10.79721">
          <path
             id="path3767"
             d="M 203.78294,719.95263 C 199.20544,676.46632 97.737384,681.80675 100.78906,722.24138"
             style="fill:#ffffff;fill-rule:evenodd;stroke:#000000;stroke-width:7.55249882;stroke-linecap:butt;stroke-linejoin:miter;stroke-miterlimit:4;stroke-dasharray:none;stroke-opacity:1" />
          <g
             transform="translate(0,-6)"
             id="g3801">
            <path
               style="fill:#ffffff;fill-opacity:1;fill-rule:evenodd;stroke:#000000;stroke-width:15;stroke-linecap:butt;stroke-linejoin:miter;stroke-miterlimit:4;stroke-dasharray:none;stroke-opacity:1"
               d="M 219.80421,729.39639 C 249.86278,751.2034 250.32092,866.72151 235.06257,888.0833 C 219.80421,909.44497 125.28837,915.12537 105.36657,900.28995 C 69.50945,873.58779 66.052943,763.22311 82.47904,740.07724 C 93.406735,724.67913 142.65962,717.92039 166.36235,736.44944 C 179.38423,714.54385 212.10774,723.81272 219.80421,729.39639 z "
               id="path3759"
               sodipodi:nodetypes="csszcs" />
            <path
               style="fill:none;fill-rule:evenodd;stroke:#000000;stroke-width:10.57349873;stroke-linecap:butt;stroke-linejoin:miter;stroke-miterlimit:4;stroke-dasharray:none;stroke-opacity:1"
               d="M 161.05956,726.81888 C 183.94709,773.35686 173.26624,858.80357 173.26624,858.80357"
               id="path3769"
               sodipodi:nodetypes="cc" />
            <path
               style="fill:none;fill-rule:evenodd;stroke:#000000;stroke-width:10.57349873;stroke-linecap:butt;stroke-linejoin:miter;stroke-miterlimit:4;stroke-dasharray:none;stroke-opacity:1"
               d="M 178.60666,825.23527 C 189.28751,832.10151 205.30878,840.49361 211.41212,860.32948"
               id="path3771" />
            <path
               sodipodi:nodetypes="csscsc"
               id="path3775"
               d="M 82.887403,772.73426 C 111.07321,774.41492 115.29051,776.19386 119.02194,782.69007 C 122.75339,789.1862 135.32261,842.7981 126.70954,850.46748 C 118.09647,858.13689 93.318175,866.09722 93.318175,866.09722 C 93.318175,866.09722 88.20687,851.63585 84.039174,820.89191 C 79.871509,790.14793 81.652947,772.85156 82.887403,772.73426 z "
               style="fill:#ffb3a0;fill-opacity:1;fill-rule:evenodd;stroke:#000000;stroke-width:6.94408417;stroke-linecap:butt;stroke-linejoin:miter;stroke-miterlimit:4;stroke-dasharray:none;stroke-opacity:1" />
          </g>
        </g>
      </g>
    </g>
  </g>
</svg>
