<?xml version="1.0" encoding="UTF-8" standalone="no"?>
<!-- Created with Inkscape (http://www.inkscape.org/) -->
<svg
   xmlns:dc="http://purl.org/dc/elements/1.1/"
   xmlns:cc="http://web.resource.org/cc/"
   xmlns:rdf="http://www.w3.org/1999/02/22-rdf-syntax-ns#"
   xmlns:svg="http://www.w3.org/2000/svg"
   xmlns="http://www.w3.org/2000/svg"
   xmlns:xlink="http://www.w3.org/1999/xlink"
   xmlns:sodipodi="http://sodipodi.sourceforge.net/DTD/sodipodi-0.dtd"
   xmlns:inkscape="http://www.inkscape.org/namespaces/inkscape"
   version="1.0"
   width="256"
   height="256"
   id="svg2"
   sodipodi:version="0.32"
   inkscape:version="0.45.1"
   sodipodi:docname="saw1.svg"
   inkscape:output_extension="org.inkscape.output.svg.inkscape"
   sodipodi:docbase="D:\Dateien\Desktop\Secret Maryo Chronicles\Drafts\Game\Inky">
  <metadata
     id="metadata50">
    <rdf:RDF>
      <cc:Work
         rdf:about="">
        <dc:format>image/svg+xml</dc:format>
        <dc:type
           rdf:resource="http://purl.org/dc/dcmitype/StillImage" />
      </cc:Work>
    </rdf:RDF>
  </metadata>
  <sodipodi:namedview
     inkscape:window-height="480"
     inkscape:window-width="640"
     inkscape:pageshadow="2"
     inkscape:pageopacity="0"
     guidetolerance="10.0"
     gridtolerance="10.0"
     objecttolerance="10.0"
     borderopacity="1.0"
     bordercolor="#666666"
     pagecolor="#000000"
     id="base" />
  <defs
     id="defs4">
    <linearGradient
       id="linearGradient9142">
      <stop
         style="stop-color:#000000;stop-opacity:1"
         offset="0"
         id="stop9144" />
      <stop
         style="stop-color:#000000;stop-opacity:0"
         offset="1"
         id="stop9146" />
    </linearGradient>
    <linearGradient
       id="linearGradient4103">
      <stop
         style="stop-color:#ffffff;stop-opacity:1"
         offset="0"
         id="stop4105" />
      <stop
         style="stop-color:#b3b3b3;stop-opacity:1"
         offset="1"
         id="stop4107" />
    </linearGradient>
    <radialGradient
       cx="-189.49805"
       cy="32.36713"
       r="18.886543"
       fx="-189.49805"
       fy="32.36713"
       id="radialGradient4109"
       xlink:href="#linearGradient4103"
       gradientUnits="userSpaceOnUse"
       gradientTransform="matrix(0.736204,0,0,0.736204,-49.988835,8.5383209)" />
    <radialGradient
       cx="-189.49805"
       cy="32.36713"
       r="18.886543"
       fx="-189.49805"
       fy="32.36713"
       id="radialGradient5100"
       xlink:href="#linearGradient4103"
       gradientUnits="userSpaceOnUse"
       gradientTransform="matrix(0.736204,0,0,0.736204,-49.988835,8.5383209)" />
    <radialGradient
       cx="-189.49805"
       cy="32.36713"
       r="18.886543"
       fx="-189.49805"
       fy="32.36713"
       id="radialGradient5102"
       xlink:href="#linearGradient4103"
       gradientUnits="userSpaceOnUse"
       gradientTransform="matrix(0.736204,0,0,0.736204,-49.988835,8.5383209)" />
    <radialGradient
       cx="-189.49805"
       cy="32.36713"
       r="18.886543"
       fx="-189.49805"
       fy="32.36713"
       id="radialGradient5120"
       xlink:href="#linearGradient4103"
       gradientUnits="userSpaceOnUse"
       gradientTransform="matrix(0.736204,0,0,0.736204,-49.988835,8.5383209)" />
    <radialGradient
       cx="-189.49805"
       cy="32.36713"
       r="18.886543"
       fx="-189.49805"
       fy="32.36713"
       id="radialGradient5122"
       xlink:href="#linearGradient4103"
       gradientUnits="userSpaceOnUse"
       gradientTransform="matrix(0.736204,0,0,0.736204,-49.988835,8.5383209)" />
    <radialGradient
       cx="-189.49805"
       cy="32.36713"
       r="18.886543"
       fx="-189.49805"
       fy="32.36713"
       id="radialGradient5138"
       xlink:href="#linearGradient4103"
       gradientUnits="userSpaceOnUse"
       gradientTransform="matrix(0.736204,0,0,0.736204,-49.988835,8.5383209)" />
    <radialGradient
       cx="-189.49805"
       cy="32.36713"
       r="18.886543"
       fx="-189.49805"
       fy="32.36713"
       id="radialGradient5140"
       xlink:href="#linearGradient4103"
       gradientUnits="userSpaceOnUse"
       gradientTransform="matrix(0.736204,0,0,0.736204,-49.988835,8.5383209)" />
    <radialGradient
       cx="-181.24445"
       cy="34.135761"
       r="18.886543"
       fx="-181.24445"
       fy="34.135761"
       id="radialGradient5142"
       xlink:href="#linearGradient4103"
       gradientUnits="userSpaceOnUse"
       gradientTransform="matrix(0.5922867,-0.6169757,0.4280494,0.4109205,-93.07024,-95.871619)" />
    <radialGradient
       cx="-182.32677"
       cy="34.158478"
       r="18.886543"
       fx="-182.32677"
       fy="34.158478"
       id="radialGradient5144"
       xlink:href="#linearGradient4103"
       gradientUnits="userSpaceOnUse"
       gradientTransform="matrix(0.6145409,-0.6187664,0.405402,0.4026334,-87.390681,-96.809251)" />
    <radialGradient
       cx="101.10745"
       cy="100.56348"
       r="5.6454625"
       fx="101.10745"
       fy="100.56348"
       id="radialGradient9148"
       xlink:href="#linearGradient9142"
       gradientUnits="userSpaceOnUse"
       gradientTransform="matrix(5.5035419,-2.7325293,0.4551397,0.9166884,-501.56341,285.51703)" />
    <filter
       id="filter12613"
       height="1.3775561"
       y="-0.18877807"
       width="1.4015619"
       x="-0.20078094">
      <feGaussianBlur
         id="feGaussianBlur12615"
         stdDeviation="0.94458478"
         inkscape:collect="always" />
    </filter>
    <radialGradient
       cx="101.10745"
       cy="100.56348"
       r="5.6454625"
       fx="101.10745"
       fy="100.56348"
       id="radialGradient12619"
       xlink:href="#linearGradient9142"
       gradientUnits="userSpaceOnUse"
       gradientTransform="matrix(5.5035419,-2.7325293,0.4551397,0.9166884,-501.56341,285.51703)" />
    <radialGradient
       cx="101.10745"
       cy="100.56348"
       r="5.6454625"
       fx="101.10745"
       fy="100.56348"
       id="radialGradient12623"
       xlink:href="#linearGradient9142"
       gradientUnits="userSpaceOnUse"
       gradientTransform="matrix(5.5035419,-2.7325293,0.4551397,0.9166884,-501.56341,285.51703)" />
    <radialGradient
       cx="101.10745"
       cy="100.56348"
       r="5.6454625"
       fx="101.10745"
       fy="100.56348"
       id="radialGradient12627"
       xlink:href="#linearGradient9142"
       gradientUnits="userSpaceOnUse"
       gradientTransform="matrix(5.5035419,-2.7325293,0.4551397,0.9166884,-501.56341,285.51703)" />
    <radialGradient
       cx="-181.63225"
       cy="30.583822"
       r="18.886543"
       fx="-181.63225"
       fy="30.583822"
       id="radialGradient9081"
       xlink:href="#linearGradient4103"
       gradientUnits="userSpaceOnUse"
       gradientTransform="matrix(0.460308,-0.4943137,0.3622041,0.3372867,-111.79982,-71.303947)" />
    <radialGradient
       cx="-179.98442"
       cy="34.655418"
       r="18.886543"
       fx="-179.98442"
       fy="34.655418"
       id="radialGradient9083"
       xlink:href="#linearGradient4103"
       gradientUnits="userSpaceOnUse"
       gradientTransform="matrix(0.5441001,-0.5707243,0.4231286,0.4033899,-101.73831,-86.939351)" />
  </defs>
  <path
     d="M 110.75,14.4375 C 103.41379,14.532503 95.782252,16.681679 89.59375,20.3125 C 82.341206,24.567608 98.001403,30.921505 88.0625,36.96875 C 78.123596,43.015994 62.549669,36.542058 49.84375,44.46875 C 42.957987,48.764473 36.941607,55.785359 33.59375,63.4375 C 30.224521,71.138513 46.636902,67.081008 42.15625,77.8125 C 37.675585,88.544005 21.280184,92.48553 15.6875,106.375 C 12.579771,114.09303 11.925692,123.29953 13.6875,131.25 C 15.507304,139.46222 26.348757,126.55922 29.03125,137.875 C 31.713753,149.1908 20.822514,161.96236 24.4375,176.5 C 26.417171,184.46115 31.232173,192.35667 37.40625,197.84375 C 43.691422,203.4296 44.914264,186.58494 53.75,194.15625 C 62.585748,201.72754 61.264469,218.51001 72.75,228.125 C 79.201222,233.5256 87.701568,237.01237 95.71875,237.78125 C 104.08467,238.5836 95.216095,224.22573 106.8125,225.15625 C 118.4089,226.08676 127.18451,240.43639 142.125,241.46875 C 150.36658,242.03819 159.3328,239.86898 166.40625,235.71875 C 173.65874,231.46348 158.0611,225.10974 168,219.0625 C 177.93889,213.01523 193.4492,219.42033 206.15625,211.5 C 213.03275,207.21384 219.06425,200.26487 222.40625,192.625 C 225.77502,184.92397 209.3963,188.89585 213.875,178.15625 C 218.3537,167.41667 234.71817,163.55127 240.3125,149.65625 C 243.42345,141.92935 244.07645,132.74083 242.3125,124.78125 C 240.49254,116.56885 229.65434,129.46701 226.96875,118.15625 C 224.28318,106.84551 235.17784,94.037532 231.5625,79.5 C 229.58197,71.536101 224.77011,63.676552 218.59375,58.1875 C 212.30849,52.601639 211.0807,69.411976 202.25,61.84375 C 193.4193,54.275524 194.76843,37.517624 183.28125,27.90625 C 176.82599,22.505126 168.30155,19.020642 160.28125,18.25 C 151.91049,17.445703 160.78082,31.810573 149.1875,30.875 C 137.59419,29.93945 128.81551,15.563934 113.875,14.53125 C 112.84493,14.460046 111.79803,14.423932 110.75,14.4375 z "
     style="fill:#cccccc;fill-opacity:1;fill-rule:evenodd;stroke:#000000;stroke-width:4;stroke-linecap:round;stroke-linejoin:miter;stroke-miterlimit:4;stroke-dasharray:none;stroke-dashoffset:6.2;stroke-opacity:1"
     id="path2162" />
  <path
     d="M 128.03125,54.5625 C 87.49029,54.5625 54.5625,87.459044 54.5625,128 C 54.562499,168.54098 87.490272,201.4375 128.03125,201.4375 C 168.57224,201.4375 201.4375,168.541 201.4375,128 C 201.43751,87.459033 168.57222,54.5625 128.03125,54.5625 z "
     style="fill:#666666;fill-opacity:1;fill-rule:evenodd;stroke:none;stroke-width:0.70354557;stroke-linecap:round;stroke-linejoin:miter;stroke-miterlimit:4;stroke-dasharray:none;stroke-dashoffset:6.2;stroke-opacity:1"
     id="path2226" />
  <g
     transform="translate(-0.6504815,-2.2743047)"
     id="g5124">
    <g
       transform="translate(4.2986122,8.1196004)"
       id="g5090">
      <path
         d="M -166.16358,41.203167 C -166.16358,50.529348 -173.72394,58.089712 -183.05012,58.089712 C -192.37631,58.089712 -199.93667,50.529348 -199.93667,41.203167 C -199.93667,31.876986 -192.37631,24.316622 -183.05012,24.316622 C -173.72394,24.316622 -166.16358,31.876986 -166.16358,41.203167 z "
         transform="matrix(0.5757359,0,0,0.5757359,197.73961,64.850378)"
         style="opacity:1;fill:url(#radialGradient9081);fill-opacity:1;fill-rule:evenodd;stroke:#000000;stroke-width:6.94762993;stroke-linecap:round;stroke-linejoin:miter;stroke-miterlimit:4;stroke-dasharray:none;stroke-dashoffset:6.2;stroke-opacity:1"
         id="path2161" />
      <path
         d="M 86.272437,95.263686 L 98.16554,81.926906"
         style="fill:none;fill-rule:evenodd;stroke:#000000;stroke-width:4;stroke-linecap:butt;stroke-linejoin:miter;stroke-miterlimit:4;stroke-dasharray:none;stroke-opacity:1"
         id="path4111" />
    </g>
    <g
       transform="translate(68.300172,8.1196004)"
       id="g5094">
      <path
         d="M -166.16358,41.203167 C -166.16358,50.529348 -173.72394,58.089712 -183.05012,58.089712 C -192.37631,58.089712 -199.93667,50.529348 -199.93667,41.203167 C -199.93667,31.876986 -192.37631,24.316622 -183.05012,24.316622 C -173.72394,24.316622 -166.16358,31.876986 -166.16358,41.203167 z "
         transform="matrix(0.5757359,0,0,0.5757359,197.73961,64.850378)"
         style="opacity:1;fill:url(#radialGradient9083);fill-opacity:1;fill-rule:evenodd;stroke:#000000;stroke-width:6.94762993;stroke-linecap:round;stroke-linejoin:miter;stroke-miterlimit:4;stroke-dasharray:none;stroke-dashoffset:6.2;stroke-opacity:1"
         id="path5096" />
      <path
         d="M 86.272437,95.263686 L 98.16554,81.926906"
         style="fill:none;fill-rule:evenodd;stroke:#000000;stroke-width:4;stroke-linecap:butt;stroke-linejoin:miter;stroke-miterlimit:4;stroke-dasharray:none;stroke-opacity:1"
         id="path5098" />
    </g>
    <g
       transform="translate(4.2986122,75.28395)"
       id="g5104">
      <path
         d="M -166.16358,41.203167 C -166.16358,50.529348 -173.72394,58.089712 -183.05012,58.089712 C -192.37631,58.089712 -199.93667,50.529348 -199.93667,41.203167 C -199.93667,31.876986 -192.37631,24.316622 -183.05012,24.316622 C -173.72394,24.316622 -166.16358,31.876986 -166.16358,41.203167 z "
         transform="matrix(0.5757359,0,0,0.5757359,197.73961,64.850378)"
         style="opacity:1;fill:url(#radialGradient5142);fill-opacity:1;fill-rule:evenodd;stroke:#000000;stroke-width:6.94762993;stroke-linecap:round;stroke-linejoin:miter;stroke-miterlimit:4;stroke-dasharray:none;stroke-dashoffset:6.2;stroke-opacity:1"
         id="path5106" />
      <path
         d="M 86.272437,95.263686 L 98.16554,81.926906"
         style="fill:none;fill-rule:evenodd;stroke:#000000;stroke-width:4;stroke-linecap:butt;stroke-linejoin:miter;stroke-miterlimit:4;stroke-dasharray:none;stroke-opacity:1"
         id="path5108" />
    </g>
    <g
       transform="translate(68.300172,75.28395)"
       id="g5110">
      <path
         d="M -166.16358,41.203167 C -166.16358,50.529348 -173.72394,58.089712 -183.05012,58.089712 C -192.37631,58.089712 -199.93667,50.529348 -199.93667,41.203167 C -199.93667,31.876986 -192.37631,24.316622 -183.05012,24.316622 C -173.72394,24.316622 -166.16358,31.876986 -166.16358,41.203167 z "
         transform="matrix(0.5757359,0,0,0.5757359,197.73961,64.850378)"
         style="opacity:1;fill:url(#radialGradient5144);fill-opacity:1;fill-rule:evenodd;stroke:#000000;stroke-width:6.94762993;stroke-linecap:round;stroke-linejoin:miter;stroke-miterlimit:4;stroke-dasharray:none;stroke-dashoffset:6.2;stroke-opacity:1"
         id="path5112" />
      <path
         d="M 86.272437,95.263686 L 98.16554,81.926906"
         style="fill:none;fill-rule:evenodd;stroke:#000000;stroke-width:4;stroke-linecap:butt;stroke-linejoin:miter;stroke-miterlimit:4;stroke-dasharray:none;stroke-opacity:1"
         id="path5114" />
    </g>
  </g>
  <path
     d="M 91.661629,101.54056 L 101.62049,90.375229 C 102.9314,92.458675 103.83708,95.869312 101.55229,99.079972 C 99.03553,102.60034 94.993321,103.10909 91.661629,101.54056 z "
     transform="matrix(0.983065,0.1832572,-0.1832572,0.983065,19.752099,-15.492927)"
     style="fill:url(#radialGradient9148);fill-opacity:1;fill-rule:evenodd;stroke:none;stroke-width:1px;stroke-linecap:butt;stroke-linejoin:miter;stroke-opacity:1;filter:url(#filter12613)"
     id="path7194" />
  <path
     d="M -61 34.5 A 30.5 30.5 0 1 1  -122,34.5 A 30.5 30.5 0 1 1  -61 34.5 z"
     transform="matrix(0.6721311,0,0,0.6721311,189.5,104.81147)"
     style="opacity:1;fill:#cccccc;fill-opacity:1;fill-rule:evenodd;stroke:none;stroke-width:4;stroke-linecap:round;stroke-linejoin:miter;stroke-miterlimit:4;stroke-dasharray:none;stroke-dashoffset:6.2;stroke-opacity:1"
     id="path2209" />
  <path
     d="M 91.661629,101.54056 L 101.62049,90.375229 C 102.9314,92.458675 103.83708,95.869312 101.55229,99.079972 C 99.03553,102.60034 94.993321,103.10909 91.661629,101.54056 z "
     transform="matrix(0.983065,0.1832572,-0.1832572,0.983065,83.666156,-15.250573)"
     style="fill:url(#radialGradient12619);fill-opacity:1;fill-rule:evenodd;stroke:none;stroke-width:1px;stroke-linecap:butt;stroke-linejoin:miter;stroke-opacity:1;filter:url(#filter12613)"
     id="path12617" />
  <path
     d="M 91.661629,101.54056 L 101.62049,90.375229 C 102.9314,92.458675 103.83708,95.869312 101.55229,99.079972 C 99.03553,102.60034 94.993321,103.10909 91.661629,101.54056 z "
     transform="matrix(0.983065,0.1832572,-0.1832572,0.983065,19.672993,51.747795)"
     style="fill:url(#radialGradient12623);fill-opacity:1;fill-rule:evenodd;stroke:none;stroke-width:1px;stroke-linecap:butt;stroke-linejoin:miter;stroke-opacity:1;filter:url(#filter12613)"
     id="path12621" />
  <path
     d="M 91.661629,101.54056 L 101.62049,90.375229 C 102.9314,92.458675 103.83708,95.869312 101.55229,99.079972 C 99.03553,102.60034 94.993321,103.10909 91.661629,101.54056 z "
     transform="matrix(0.983065,0.1832572,-0.1832572,0.983065,83.135825,51.924571)"
     style="fill:url(#radialGradient12627);fill-opacity:1;fill-rule:evenodd;stroke:none;stroke-width:1px;stroke-linecap:butt;stroke-linejoin:miter;stroke-opacity:1;filter:url(#filter12613)"
     id="path12625" />
  <path
     d="M 336.5,112 C 332.77334,114.86906 317.6998,116.43096 313.04794,117.12355 C 308.64422,117.77919 294.50614,120.56196 290.39007,118.86474 C 286.04206,117.07188 277.15265,104.79877 274.22692,101.11643 C 271.45726,97.630521 261.97827,86.777966 261.39007,82.364737 C 260.76873,77.702821 266.95285,63.867809 268.67898,59.492882 C 270.31304,55.351331 274.97213,41.716011 278.5,39 C 282.22666,36.130941 297.3002,34.569042 301.95206,33.876453 C 306.35578,33.220809 320.49386,30.438045 324.60993,32.135263 C 328.95794,33.92812 337.84735,46.201233 340.77308,49.883571 C 343.54274,53.369479 353.02173,64.222034 353.60993,68.635263 C 354.23127,73.297179 348.04715,87.132191 346.32102,91.507118 C 344.68696,95.648669 340.02787,109.28399 336.5,112 z "
     transform="matrix(0.3061983,4.458448e-2,-4.4532855e-2,0.3065532,37.206276,91.145513)"
     style="fill:#b3b3b3;fill-opacity:1;fill-rule:evenodd;stroke:#000000;stroke-width:12.91993713;stroke-linecap:round;stroke-linejoin:miter;stroke-miterlimit:4;stroke-dasharray:none;stroke-dashoffset:6.2;stroke-opacity:1"
     id="path2204" />
  <path
     d="M 379 17.249998 A 16.75 16.75 0 1 1  345.5,17.249998 A 16.75 16.75 0 1 1  379 17.249998 z"
     transform="matrix(0.2056589,0,0,0.2056589,53.500061,124.45239)"
     style="fill:#000000;fill-opacity:1;fill-rule:evenodd;stroke:#000000;stroke-width:19.44967461;stroke-linecap:round;stroke-linejoin:miter;stroke-miterlimit:4;stroke-dasharray:none;stroke-dashoffset:6.2;stroke-opacity:1"
     id="path3177" />
</svg>
