<?xml version="1.0" encoding="UTF-8" standalone="no"?>
<!-- Created with Inkscape (http://www.inkscape.org/) -->
<svg
   xmlns:dc="http://purl.org/dc/elements/1.1/"
   xmlns:cc="http://web.resource.org/cc/"
   xmlns:rdf="http://www.w3.org/1999/02/22-rdf-syntax-ns#"
   xmlns:svg="http://www.w3.org/2000/svg"
   xmlns="http://www.w3.org/2000/svg"
   xmlns:xlink="http://www.w3.org/1999/xlink"
   xmlns:sodipodi="http://sodipodi.sourceforge.net/DTD/sodipodi-0.dtd"
   xmlns:inkscape="http://www.inkscape.org/namespaces/inkscape"
   version="1.0"
   width="256"
   height="256"
   id="svg2"
   sodipodi:version="0.32"
   inkscape:version="0.45.1"
   sodipodi:docname="saw3.svg"
   inkscape:output_extension="org.inkscape.output.svg.inkscape"
   sodipodi:docbase="D:\Dateien\Desktop\Secret Maryo Chronicles\Drafts\Game\Inky">
  <metadata
     id="metadata58">
    <rdf:RDF>
      <cc:Work
         rdf:about="">
        <dc:format>image/svg+xml</dc:format>
        <dc:type
           rdf:resource="http://purl.org/dc/dcmitype/StillImage" />
      </cc:Work>
    </rdf:RDF>
  </metadata>
  <sodipodi:namedview
     inkscape:window-height="480"
     inkscape:window-width="640"
     inkscape:pageshadow="2"
     inkscape:pageopacity="0"
     guidetolerance="10.0"
     gridtolerance="10.0"
     objecttolerance="10.0"
     borderopacity="1.0"
     bordercolor="#666666"
     pagecolor="#000000"
     id="base" />
  <defs
     id="defs4">
    <linearGradient
       id="linearGradient10145">
      <stop
         style="stop-color:#ababab;stop-opacity:1"
         offset="0"
         id="stop10147" />
      <stop
         style="stop-color:#ffffff;stop-opacity:1"
         offset="1"
         id="stop10149" />
    </linearGradient>
    <linearGradient
       id="linearGradient10137">
      <stop
         style="stop-color:#a7aba9;stop-opacity:0.67948717"
         offset="0"
         id="stop10139" />
      <stop
         style="stop-color:#000000;stop-opacity:0"
         offset="1"
         id="stop10141" />
    </linearGradient>
    <linearGradient
       id="linearGradient9142">
      <stop
         style="stop-color:#000000;stop-opacity:1"
         offset="0"
         id="stop9144" />
      <stop
         style="stop-color:#000000;stop-opacity:0"
         offset="1"
         id="stop9146" />
    </linearGradient>
    <linearGradient
       id="linearGradient4103">
      <stop
         style="stop-color:#ffffff;stop-opacity:1"
         offset="0"
         id="stop4105" />
      <stop
         style="stop-color:#b3b3b3;stop-opacity:1"
         offset="1"
         id="stop4107" />
    </linearGradient>
    <radialGradient
       cx="-189.49805"
       cy="32.36713"
       r="18.886543"
       fx="-189.49805"
       fy="32.36713"
       id="radialGradient4109"
       xlink:href="#linearGradient4103"
       gradientUnits="userSpaceOnUse"
       gradientTransform="matrix(0.736204,0,0,0.736204,-49.988835,8.5383209)" />
    <radialGradient
       cx="-189.49805"
       cy="32.36713"
       r="18.886543"
       fx="-189.49805"
       fy="32.36713"
       id="radialGradient5100"
       xlink:href="#linearGradient4103"
       gradientUnits="userSpaceOnUse"
       gradientTransform="matrix(0.736204,0,0,0.736204,-49.988835,8.5383209)" />
    <radialGradient
       cx="-189.49805"
       cy="32.36713"
       r="18.886543"
       fx="-189.49805"
       fy="32.36713"
       id="radialGradient5102"
       xlink:href="#linearGradient4103"
       gradientUnits="userSpaceOnUse"
       gradientTransform="matrix(0.736204,0,0,0.736204,-49.988835,8.5383209)" />
    <radialGradient
       cx="-189.49805"
       cy="32.36713"
       r="18.886543"
       fx="-189.49805"
       fy="32.36713"
       id="radialGradient5120"
       xlink:href="#linearGradient4103"
       gradientUnits="userSpaceOnUse"
       gradientTransform="matrix(0.736204,0,0,0.736204,-49.988835,8.5383209)" />
    <radialGradient
       cx="-189.49805"
       cy="32.36713"
       r="18.886543"
       fx="-189.49805"
       fy="32.36713"
       id="radialGradient5122"
       xlink:href="#linearGradient4103"
       gradientUnits="userSpaceOnUse"
       gradientTransform="matrix(0.736204,0,0,0.736204,-49.988835,8.5383209)" />
    <radialGradient
       cx="-189.49805"
       cy="32.36713"
       r="18.886543"
       fx="-189.49805"
       fy="32.36713"
       id="radialGradient5138"
       xlink:href="#linearGradient4103"
       gradientUnits="userSpaceOnUse"
       gradientTransform="matrix(0.736204,0,0,0.736204,-49.988835,8.5383209)" />
    <radialGradient
       cx="-189.49805"
       cy="32.36713"
       r="18.886543"
       fx="-189.49805"
       fy="32.36713"
       id="radialGradient5140"
       xlink:href="#linearGradient4103"
       gradientUnits="userSpaceOnUse"
       gradientTransform="matrix(0.736204,0,0,0.736204,-49.988835,8.5383209)" />
    <radialGradient
       cx="-181.24445"
       cy="34.135761"
       r="18.886543"
       fx="-181.24445"
       fy="34.135761"
       id="radialGradient5142"
       xlink:href="#linearGradient4103"
       gradientUnits="userSpaceOnUse"
       gradientTransform="matrix(0.5922867,-0.6169757,0.4280494,0.4109205,-93.07024,-95.871619)" />
    <radialGradient
       cx="-182.32677"
       cy="34.158478"
       r="18.886543"
       fx="-182.32677"
       fy="34.158478"
       id="radialGradient5144"
       xlink:href="#linearGradient4103"
       gradientUnits="userSpaceOnUse"
       gradientTransform="matrix(0.6145409,-0.6187664,0.405402,0.4026334,-87.390681,-96.809251)" />
    <linearGradient
       x1="165.89835"
       y1="120.35011"
       x2="148.66919"
       y2="108.83282"
       id="linearGradient10151"
       xlink:href="#linearGradient10145"
       gradientUnits="userSpaceOnUse" />
    <linearGradient
       x1="136.02309"
       y1="123.35532"
       x2="153.11021"
       y2="105.96324"
       id="linearGradient10166"
       xlink:href="#linearGradient10145"
       gradientUnits="userSpaceOnUse" />
    <linearGradient
       x1="165.89835"
       y1="120.35011"
       x2="148.66919"
       y2="108.83282"
       id="linearGradient10182"
       xlink:href="#linearGradient10145"
       gradientUnits="userSpaceOnUse" />
    <linearGradient
       x1="136.02309"
       y1="123.35532"
       x2="153.11021"
       y2="105.96324"
       id="linearGradient10184"
       xlink:href="#linearGradient10145"
       gradientUnits="userSpaceOnUse" />
    <linearGradient
       x1="165.89835"
       y1="120.35011"
       x2="148.66919"
       y2="108.83282"
       id="linearGradient10236"
       xlink:href="#linearGradient10145"
       gradientUnits="userSpaceOnUse" />
    <linearGradient
       x1="136.02309"
       y1="123.35532"
       x2="153.11021"
       y2="105.96324"
       id="linearGradient10238"
       xlink:href="#linearGradient10145"
       gradientUnits="userSpaceOnUse" />
    <linearGradient
       x1="183.77319"
       y1="130.39131"
       x2="148.57372"
       y2="102.94599"
       id="linearGradient7268"
       xlink:href="#linearGradient10137"
       gradientUnits="userSpaceOnUse"
       gradientTransform="translate(1.1616116,1.2563175e-2)" />
    <filter
       id="filter10237">
      <feGaussianBlur
         id="feGaussianBlur10239"
         stdDeviation="0.90484465"
         inkscape:collect="always" />
    </filter>
    <linearGradient
       x1="173.27319"
       y1="163.51631"
       x2="139.44872"
       y2="110.69599"
       id="linearGradient11216"
       xlink:href="#linearGradient10137"
       gradientUnits="userSpaceOnUse"
       gradientTransform="translate(-37.963388,1.2625631)" />
    <linearGradient
       x1="183.27319"
       y1="138.39131"
       x2="148.57372"
       y2="102.94599"
       id="linearGradient12187"
       xlink:href="#linearGradient10137"
       gradientUnits="userSpaceOnUse"
       gradientTransform="translate(1.1616116,1.2563175e-2)" />
    <linearGradient
       x1="175.49501"
       y1="142.63396"
       x2="148.57372"
       y2="102.94599"
       id="linearGradient12200"
       xlink:href="#linearGradient10137"
       gradientUnits="userSpaceOnUse"
       gradientTransform="translate(1.1616116,1.2563175e-2)" />
    <linearGradient
       x1="167.61633"
       y1="165.28407"
       x2="142.27715"
       y2="111.84914"
       id="linearGradient12202"
       xlink:href="#linearGradient10137"
       gradientUnits="userSpaceOnUse"
       gradientTransform="translate(-37.963388,1.2625631)" />
    <linearGradient
       x1="167.61633"
       y1="165.28407"
       x2="142.27715"
       y2="111.84914"
       id="linearGradient2218"
       xlink:href="#linearGradient10137"
       gradientUnits="userSpaceOnUse"
       gradientTransform="translate(-37.963388,-0.5052039)" />
    <linearGradient
       x1="175.49501"
       y1="142.63396"
       x2="148.57372"
       y2="102.94599"
       id="linearGradient2221"
       xlink:href="#linearGradient10137"
       gradientUnits="userSpaceOnUse"
       gradientTransform="translate(1.1616116,-1.7552038)" />
  </defs>
  <path
     d="M 110.75,14.4375 C 103.41379,14.532503 95.782252,16.681679 89.59375,20.3125 C 82.341206,24.567608 98.001403,30.921505 88.0625,36.96875 C 78.123596,43.015994 62.549669,36.542058 49.84375,44.46875 C 42.957987,48.764473 36.941607,55.785359 33.59375,63.4375 C 30.224521,71.138513 46.636902,67.081008 42.15625,77.8125 C 37.675585,88.544005 21.280184,92.48553 15.6875,106.375 C 12.579771,114.09303 11.925692,123.29953 13.6875,131.25 C 15.507304,139.46222 26.348757,126.55922 29.03125,137.875 C 31.713753,149.1908 20.822514,161.96236 24.4375,176.5 C 26.417171,184.46115 31.232173,192.35667 37.40625,197.84375 C 43.691422,203.4296 44.914264,186.58494 53.75,194.15625 C 62.585748,201.72754 61.264469,218.51001 72.75,228.125 C 79.201222,233.5256 87.701568,237.01237 95.71875,237.78125 C 104.08467,238.5836 95.216095,224.22573 106.8125,225.15625 C 118.4089,226.08676 127.18451,240.43639 142.125,241.46875 C 150.36658,242.03819 159.3328,239.86898 166.40625,235.71875 C 173.65874,231.46348 158.0611,225.10974 168,219.0625 C 177.93889,213.01523 193.4492,219.42033 206.15625,211.5 C 213.03275,207.21384 219.06425,200.26487 222.40625,192.625 C 225.77502,184.92397 209.3963,188.89585 213.875,178.15625 C 218.3537,167.41667 234.71817,163.55127 240.3125,149.65625 C 243.42345,141.92935 244.07645,132.74083 242.3125,124.78125 C 240.49254,116.56885 229.65434,129.46701 226.96875,118.15625 C 224.28318,106.84551 235.17784,94.037532 231.5625,79.5 C 229.58197,71.536101 224.77011,63.676552 218.59375,58.1875 C 212.30849,52.601639 211.0807,69.411976 202.25,61.84375 C 193.4193,54.275524 194.76843,37.517624 183.28125,27.90625 C 176.82599,22.505126 168.30155,19.020642 160.28125,18.25 C 151.91049,17.445703 160.78082,31.810573 149.1875,30.875 C 137.59419,29.93945 128.81551,15.563934 113.875,14.53125 C 112.84493,14.460046 111.79803,14.423932 110.75,14.4375 z "
     style="fill:#cccccc;fill-opacity:1;fill-rule:evenodd;stroke:#000000;stroke-width:4;stroke-linecap:round;stroke-linejoin:miter;stroke-miterlimit:4;stroke-dasharray:none;stroke-dashoffset:6.2;stroke-opacity:1"
     id="path2162" />
  <path
     d="M 128.03125,54.5625 C 87.49029,54.5625 54.5625,87.459044 54.5625,128 C 54.562499,168.54098 87.490272,201.4375 128.03125,201.4375 C 168.57224,201.4375 201.4375,168.541 201.4375,128 C 201.43751,87.459033 168.57222,54.5625 128.03125,54.5625 z "
     style="fill:#666666;fill-opacity:1;fill-rule:evenodd;stroke:none;stroke-width:0.70354557;stroke-linecap:round;stroke-linejoin:miter;stroke-miterlimit:4;stroke-dasharray:none;stroke-dashoffset:6.2;stroke-opacity:1"
     id="path2226" />
  <path
     d="M 101.75,129.40812 C 85.880001,129.40812 72.999998,142.28812 73,158.15812 C 73,174.02812 85.879998,186.90811 101.75,186.90812 C 113.4463,186.90812 116.44008,176.94794 128,176.94794 C 139.73669,176.94794 142.5537,186.90812 154.25,186.90812 C 170.12,186.90812 183,174.02811 183,158.15812 C 183,142.28812 170.12,129.40812 154.25,129.40812 C 142.5537,129.40812 139.73669,139.3683 128,139.3683 C 116.26197,139.3683 113.4463,129.40812 101.75,129.40812 z "
     style="fill:#ffffff;fill-opacity:1;fill-rule:evenodd;stroke:#000000;stroke-width:4;stroke-linecap:round;stroke-linejoin:miter;stroke-miterlimit:4;stroke-dasharray:none;stroke-dashoffset:6.2;stroke-opacity:1"
     id="path2209" />
  <path
     d="M 73.75,158.15812 L 181,158.15812"
     style="fill:none;fill-rule:evenodd;stroke:#000000;stroke-width:4;stroke-linecap:butt;stroke-linejoin:miter;stroke-miterlimit:4;stroke-dasharray:none;stroke-opacity:1"
     id="path3204" />
  <path
     d="M 128,140.18907 L 128,177.12715"
     style="fill:none;fill-rule:evenodd;stroke:#000000;stroke-width:3.99999976;stroke-linecap:butt;stroke-linejoin:miter;stroke-miterlimit:4;stroke-dasharray:none;stroke-opacity:1"
     id="path4175" />
  <path
     d="M 104.75,130.67337 L 104.75,186.64283"
     style="fill:none;fill-rule:evenodd;stroke:#000000;stroke-width:3.99999976;stroke-linecap:butt;stroke-linejoin:miter;stroke-miterlimit:4;stroke-dasharray:none;stroke-opacity:1"
     id="path4177" />
  <path
     d="M 151.25,130.22062 L 151.25,187.09562"
     style="fill:none;fill-rule:evenodd;stroke:#000000;stroke-width:4;stroke-linecap:butt;stroke-linejoin:miter;stroke-miterlimit:4;stroke-dasharray:none;stroke-opacity:1"
     id="path4179" />
  <path
     d="M 83.500003,136.94433 L 83.500003,180.3719"
     style="fill:none;fill-rule:evenodd;stroke:#000000;stroke-width:3.99999976;stroke-linecap:butt;stroke-linejoin:miter;stroke-miterlimit:4;stroke-dasharray:none;stroke-opacity:1"
     id="path4181" />
  <path
     d="M 173,136.86057 L 173,180.45569"
     style="fill:none;fill-rule:evenodd;stroke:#000000;stroke-width:4;stroke-linecap:butt;stroke-linejoin:miter;stroke-miterlimit:4;stroke-dasharray:none;stroke-opacity:1"
     id="path4183" />
  <g
     transform="translate(-283.50001,-28.637824)"
     id="g3204">
    <path
       d="M 392.28126,97.084997 C 380.25801,97.084997 370.50001,108.80692 370.50001,123.25 C 370.50001,137.69308 380.25801,149.415 392.28126,149.415 C 400.60862,149.415 407.83535,143.79039 411.50001,135.53479 C 415.16467,143.79039 422.3914,149.415 430.71876,149.415 C 442.74201,149.415 452.50001,137.69308 452.50001,123.25 C 452.50001,108.80692 442.74201,97.084999 430.71876,97.084997 C 422.3914,97.084997 415.16467,102.7096 411.50001,110.96521 C 407.83535,102.7096 400.60862,97.084998 392.28126,97.084997 z "
       style="opacity:1;fill:#ffffff;fill-opacity:1;fill-rule:evenodd;stroke:#000000;stroke-width:4;stroke-linecap:round;stroke-linejoin:miter;stroke-miterlimit:4;stroke-dasharray:none;stroke-dashoffset:6.2;stroke-opacity:1"
       id="path2210" />
    <path
       d="M 392.28126,97.347352 C 386.26964,97.347352 380.81742,100.2677 376.87501,105.00356 C 387.15207,110.65655 398.9497,113.87856 411.50001,113.87856 C 424.05032,113.87856 435.84795,110.65655 446.12501,105.00356 C 442.1826,100.2677 436.73038,97.347353 430.71876,97.347352 C 422.3914,97.347352 415.16467,102.9667 411.50001,111.22231 C 407.83535,102.9667 400.60862,97.347353 392.28126,97.347352 z "
       style="opacity:1;fill:#999999;fill-opacity:1;fill-rule:evenodd;stroke:#000000;stroke-width:4;stroke-linecap:round;stroke-linejoin:miter;stroke-miterlimit:4;stroke-dasharray:none;stroke-dashoffset:6.2;stroke-opacity:1"
       id="path3188" />
  </g>
  <g
     transform="matrix(0.7195357,0,0,0.9242603,-168.24213,-20.380609)"
     id="g3200">
    <path
       d="M 345.77519 124.21298 A 4.6845822 4.6845822 0 1 1  336.40602,124.21298 A 4.6845822 4.6845822 0 1 1  345.77519 124.21298 z"
       transform="translate(51.618793,3.4800756)"
       style="opacity:1;fill:#000000;fill-opacity:1;fill-rule:evenodd;stroke:#000000;stroke-width:4.90497351;stroke-linecap:round;stroke-linejoin:miter;stroke-miterlimit:4;stroke-dasharray:none;stroke-dashoffset:6.2;stroke-opacity:1"
       id="path3194" />
    <path
       d="M 345.77519 124.21298 A 4.6845822 4.6845822 0 1 1  336.40602,124.21298 A 4.6845822 4.6845822 0 1 1  345.77519 124.21298 z"
       transform="translate(89.62578,3.4800756)"
       style="opacity:1;fill:#000000;fill-opacity:1;fill-rule:evenodd;stroke:#000000;stroke-width:4.90497351;stroke-linecap:round;stroke-linejoin:miter;stroke-miterlimit:4;stroke-dasharray:none;stroke-dashoffset:6.2;stroke-opacity:1"
       id="path3196" />
  </g>
  <path
     d="M 132.82246,107.7761 L 163.31101,81.861497 C 163.31101,81.861497 169.7602,97.978328 164.72784,106.2875 C 158.16343,117.12632 143.83881,124.71688 132.82246,107.7761 z "
     style="fill:url(#linearGradient2221);fill-opacity:1;fill-rule:evenodd;stroke:none;stroke-width:1px;stroke-linecap:butt;stroke-linejoin:miter;stroke-opacity:1;filter:url(#filter10237)"
     id="path6291" />
  <path
     d="M 93.69746,109.0261 L 91.975018,103.95285 C 104.42839,103.95285 102.72523,104.00229 127.07588,103.72117 C 126.77154,105.09977 126.29616,106.39273 125.60284,107.5375 C 119.03843,118.37632 104.71381,125.96688 93.69746,109.0261 z "
     style="fill:url(#linearGradient2218);fill-opacity:1;fill-rule:evenodd;stroke:none;stroke-width:1px;stroke-linecap:butt;stroke-linejoin:miter;stroke-opacity:1;filter:url(#filter10237)"
     id="path11214" />
</svg>
