<?xml version="1.0" encoding="UTF-8" standalone="no"?>
<!-- Created with Inkscape (http://www.inkscape.org/) -->
<svg
   xmlns:dc="http://purl.org/dc/elements/1.1/"
   xmlns:cc="http://creativecommons.org/ns#"
   xmlns:rdf="http://www.w3.org/1999/02/22-rdf-syntax-ns#"
   xmlns:svg="http://www.w3.org/2000/svg"
   xmlns="http://www.w3.org/2000/svg"
   xmlns:xlink="http://www.w3.org/1999/xlink"
   xmlns:sodipodi="http://sodipodi.sourceforge.net/DTD/sodipodi-0.dtd"
   xmlns:inkscape="http://www.inkscape.org/namespaces/inkscape"
   id="svg2"
   sodipodi:version="0.32"
   inkscape:version="0.46"
   width="256"
   height="256"
   version="1.0"
   sodipodi:docname="side2.svg"
   inkscape:output_extension="org.inkscape.output.svg.inkscape"
   inkscape:export-filename="D:\Dateien\Desktop\Secret Maryo Chronicles\Drafts\Game\side2.png"
   inkscape:export-xdpi="90"
   inkscape:export-ydpi="90">
  <sodipodi:namedview
     inkscape:window-height="795"
     inkscape:window-width="1198"
     inkscape:pageshadow="2"
     inkscape:pageopacity="0.0"
     guidetolerance="10.0"
     gridtolerance="10.0"
     objecttolerance="10.0"
     borderopacity="1.0"
     bordercolor="#666666"
     pagecolor="#ffffff"
     id="base"
     showgrid="true"
     inkscape:zoom="1.4142136"
     inkscape:cx="43.90998"
     inkscape:cy="84.1025"
     inkscape:window-x="52"
     inkscape:window-y="111"
     inkscape:current-layer="svg2" />
  <metadata
     id="metadata7">
    <rdf:RDF>
      <cc:Work
         rdf:about="">
        <dc:format>image/svg+xml</dc:format>
        <dc:type
           rdf:resource="http://purl.org/dc/dcmitype/StillImage" />
      </cc:Work>
    </rdf:RDF>
  </metadata>
  <defs
     id="defs5">
    <linearGradient
       id="linearGradient3275">
      <stop
         style="stop-color:#f2ef00;stop-opacity:0;"
         offset="0"
         id="stop3277" />
      <stop
         id="stop3285"
         offset="0.78571427"
         style="stop-color:#ffda00;stop-opacity:0.49803922;" />
      <stop
         style="stop-color:#cc8400;stop-opacity:1;"
         offset="1"
         id="stop3279" />
    </linearGradient>
    <linearGradient
       id="linearGradient3265">
      <stop
         id="stop3267"
         offset="0"
         style="stop-color:#ffff00;stop-opacity:0;" />
      <stop
         style="stop-color:#f1c100;stop-opacity:0.52549022;"
         offset="0.94444442"
         id="stop3269" />
      <stop
         id="stop3271"
         offset="1"
         style="stop-color:#dea900;stop-opacity:1;" />
    </linearGradient>
    <linearGradient
       id="linearGradient3239">
      <stop
         style="stop-color:#ffff00;stop-opacity:1;"
         offset="0"
         id="stop3241" />
      <stop
         style="stop-color:#e8dc00;stop-opacity:1;"
         offset="1"
         id="stop3243" />
    </linearGradient>
    <linearGradient
       id="linearGradient3348">
      <stop
         id="stop3350"
         offset="0"
         style="stop-color:#c0c000;stop-opacity:1;" />
      <stop
         style="stop-color:#808000;stop-opacity:1;"
         offset="0.26041666"
         id="stop3354" />
      <stop
         id="stop3356"
         offset="0.75"
         style="stop-color:#808000;stop-opacity:1;" />
      <stop
         id="stop3352"
         offset="1"
         style="stop-color:#c0c000;stop-opacity:1;" />
    </linearGradient>
    <linearGradient
       id="linearGradient3287">
      <stop
         id="stop3289"
         offset="0"
         style="stop-color:#000000;stop-opacity:1;" />
      <stop
         style="stop-color:#404000;stop-opacity:0;"
         offset="0.5"
         id="stop3293" />
      <stop
         id="stop3291"
         offset="1"
         style="stop-color:#000000;stop-opacity:1;" />
    </linearGradient>
    <linearGradient
       id="linearGradient3218">
      <stop
         style="stop-color:#ffff00;stop-opacity:0;"
         offset="0"
         id="stop3220" />
      <stop
         id="stop3224"
         offset="0.94444442"
         style="stop-color:#dfdf00;stop-opacity:0;" />
      <stop
         style="stop-color:#c38600;stop-opacity:1;"
         offset="1"
         id="stop3222" />
    </linearGradient>
    <linearGradient
       id="linearGradient3206">
      <stop
         id="stop3208"
         offset="0"
         style="stop-color:#000000;stop-opacity:1;" />
      <stop
         id="stop3210"
         offset="1"
         style="stop-color:#000000;stop-opacity:0;" />
    </linearGradient>
    <linearGradient
       id="linearGradient3162">
      <stop
         id="stop3164"
         offset="0"
         style="stop-color:#ffed00;stop-opacity:1;" />
      <stop
         id="stop3166"
         offset="1"
         style="stop-color:#f0ec00;stop-opacity:1;" />
    </linearGradient>
    <inkscape:perspective
       id="perspective9"
       inkscape:persp3d-origin="372.04724 : 350.78739 : 1"
       inkscape:vp_z="744.09448 : 526.18109 : 1"
       inkscape:vp_y="0 : 1000 : 0"
       inkscape:vp_x="0 : 526.18109 : 1"
       sodipodi:type="inkscape:persp3d" />
    <radialGradient
       gradientUnits="userSpaceOnUse"
       r="124.39827"
       fy="162.63203"
       fx="178.14719"
       cy="162.63203"
       cx="178.14719"
       id="radialGradient3170"
       xlink:href="#linearGradient3162"
       inkscape:collect="always" />
    <radialGradient
       gradientTransform="matrix(1.61959,0,0,1,-110.37821,0)"
       r="124.39827"
       fy="162.63203"
       fx="178.14719"
       cy="162.63203"
       cx="178.14719"
       gradientUnits="userSpaceOnUse"
       id="radialGradient4002"
       xlink:href="#linearGradient3162"
       inkscape:collect="always" />
    <radialGradient
       r="124.39827"
       fy="162.63203"
       fx="178.14719"
       cy="162.63203"
       cx="178.14719"
       gradientTransform="matrix(1.0041109,0,0,1,-0.7323337,0)"
       gradientUnits="userSpaceOnUse"
       id="radialGradient2404"
       xlink:href="#linearGradient3162"
       inkscape:collect="always" />
    <radialGradient
       r="124.39827"
       fy="162.63203"
       fx="178.14719"
       cy="162.63203"
       cx="178.14719"
       gradientTransform="matrix(1.61959,0,0,1,-110.37821,0)"
       gradientUnits="userSpaceOnUse"
       id="radialGradient3180"
       xlink:href="#linearGradient3162"
       inkscape:collect="always" />
    <radialGradient
       gradientUnits="userSpaceOnUse"
       r="126.95522"
       fy="162.63203"
       fx="178.14719"
       cy="162.63203"
       cx="178.14719"
       id="radialGradient3212"
       xlink:href="#linearGradient3206"
       inkscape:collect="always" />
    <radialGradient
       r="124.39827"
       fy="162.63199"
       fx="178.14717"
       cy="162.63199"
       cx="178.14717"
       gradientTransform="translate(2.2671399e-5,4.5714144e-5)"
       gradientUnits="userSpaceOnUse"
       id="radialGradient3216"
       xlink:href="#linearGradient3218"
       inkscape:collect="always" />
    <radialGradient
       r="124.39827"
       fy="162.63203"
       fx="178.14719"
       cy="162.63203"
       cx="178.14719"
       gradientTransform="matrix(1.0041109,0,0,1,-0.7323337,0)"
       gradientUnits="userSpaceOnUse"
       id="radialGradient3232"
       xlink:href="#linearGradient3162"
       inkscape:collect="always" />
    <radialGradient
       r="124.39827"
       fy="162.63199"
       fx="178.14717"
       cy="162.63199"
       cx="178.14717"
       gradientTransform="translate(2.2671399e-5,4.5714144e-5)"
       gradientUnits="userSpaceOnUse"
       id="radialGradient3234"
       xlink:href="#linearGradient3218"
       inkscape:collect="always" />
    <radialGradient
       r="124.39827"
       fy="162.63199"
       fx="178.14717"
       cy="162.63199"
       cx="178.14717"
       gradientTransform="translate(2.2671399e-5,4.5714144e-5)"
       gradientUnits="userSpaceOnUse"
       id="radialGradient3272"
       xlink:href="#linearGradient3218"
       inkscape:collect="always" />
    <radialGradient
       r="124.39827"
       fy="162.63203"
       fx="178.14719"
       cy="162.63203"
       cx="178.14719"
       gradientTransform="matrix(1.0041109,0,0,1,-0.7323337,0)"
       gradientUnits="userSpaceOnUse"
       id="radialGradient3274"
       xlink:href="#linearGradient3162"
       inkscape:collect="always" />
    <linearGradient
       inkscape:collect="always"
       xlink:href="#linearGradient3287"
       id="linearGradient3285"
       x1="-42.112541"
       y1="8.5887651"
       x2="-42.112541"
       y2="252.95236"
       gradientUnits="userSpaceOnUse"
       gradientTransform="matrix(0.9869385,0,0,1.0026043,-85.200939,-7.7928512)" />
    <radialGradient
       inkscape:collect="always"
       xlink:href="#linearGradient3218"
       id="radialGradient3316"
       gradientUnits="userSpaceOnUse"
       gradientTransform="translate(2.2671399e-5,4.5714144e-5)"
       cx="178.14717"
       cy="162.63199"
       fx="178.14717"
       fy="162.63199"
       r="124.39827" />
    <radialGradient
       inkscape:collect="always"
       xlink:href="#linearGradient3162"
       id="radialGradient3318"
       gradientUnits="userSpaceOnUse"
       gradientTransform="matrix(1.0041109,0,0,1,-0.7323337,0)"
       cx="178.14719"
       cy="162.63203"
       fx="178.14719"
       fy="162.63203"
       r="124.39827" />
    <linearGradient
       inkscape:collect="always"
       xlink:href="#linearGradient3348"
       id="linearGradient3346"
       x1="-156.76343"
       y1="123.31828"
       x2="-96.763428"
       y2="123.31828"
       gradientUnits="userSpaceOnUse" />
    <radialGradient
       inkscape:collect="always"
       xlink:href="#linearGradient3239"
       id="radialGradient3245"
       cx="115.05735"
       cy="102.48442"
       fx="115.05735"
       fy="102.48442"
       r="100.37664"
       gradientTransform="matrix(1,0,0,0.951389,0,5.4655666)"
       gradientUnits="userSpaceOnUse" />
    <filter
       inkscape:collect="always"
       id="filter3247">
      <feGaussianBlur
         inkscape:collect="always"
         stdDeviation="4.896847"
         id="feGaussianBlur3249" />
    </filter>
    <filter
       inkscape:collect="always"
       id="filter3257">
      <feGaussianBlur
         inkscape:collect="always"
         stdDeviation="2.9381188"
         id="feGaussianBlur3259" />
    </filter>
    <radialGradient
       inkscape:collect="always"
       xlink:href="#linearGradient3265"
       id="radialGradient3263"
       gradientUnits="userSpaceOnUse"
       gradientTransform="translate(2.2671399e-5,4.5714144e-5)"
       cx="178.14717"
       cy="162.63199"
       fx="178.14717"
       fy="162.63199"
       r="124.39827" />
    <radialGradient
       inkscape:collect="always"
       xlink:href="#linearGradient3275"
       id="radialGradient3283"
       cx="178.14719"
       cy="162.63203"
       fx="178.14719"
       fy="162.63203"
       r="128.34166"
       gradientUnits="userSpaceOnUse" />
  </defs>
  <rect
     style="opacity:1;fill:url(#linearGradient3346);fill-opacity:1.0;fill-rule:nonzero;stroke:none;stroke-width:20;stroke-linecap:round;stroke-miterlimit:4;stroke-dasharray:none;stroke-dashoffset:0;stroke-opacity:1"
     id="rect3295"
     width="60"
     height="245"
     x="-156.76343"
     y="0.8182807"
     ry="122.50001"
     rx="12.500012" />
  <rect
     style="opacity:1;fill:#404000;fill-opacity:1;fill-rule:nonzero;stroke:none;stroke-width:20;stroke-linecap:round;stroke-miterlimit:4;stroke-dasharray:none;stroke-dashoffset:0;stroke-opacity:1"
     id="rect2503"
     width="35"
     height="245"
     x="-144.26343"
     y="0.8182807" />
  <path
     style="fill:#808000;fill-opacity:1;fill-rule:nonzero;stroke:none;stroke-width:20;stroke-linecap:round;stroke-miterlimit:4;stroke-dashoffset:0;stroke-opacity:1"
     d="M -144.26343,0.81828279 L -144.26343,9.7843748 L -109.26343,9.7843748 L -109.26343,0.81828279 L -144.26343,0.81828279 z M -144.26343,9.8470745 L -144.26343,11.320522 L -109.26343,11.320522 L -109.26343,9.8470745 L -144.26343,9.8470745 z M -144.26343,11.445922 L -144.26343,12.982071 L -109.26343,12.982071 L -109.26343,11.445922 L -144.26343,11.445922 z M -144.26343,13.138821 L -144.26343,14.769019 L -109.26343,14.769019 L -109.26343,13.138821 L -144.26343,13.138821 z M -144.26343,14.957119 L -144.26343,16.650017 L -109.26343,16.650017 L -109.26343,14.957119 L -144.26343,14.957119 z M -144.26343,16.900817 L -144.26343,18.656415 L -109.26343,18.656415 L -109.26343,16.900817 L -144.26343,16.900817 z M -144.26343,18.938565 L -144.26343,20.788213 L -109.26343,20.788213 L -109.26343,18.938565 L -144.26343,18.938565 z M -144.26343,21.101713 L -144.26343,23.045411 L -109.26343,23.045411 L -109.26343,21.101713 L -144.26343,21.101713 z M -144.26343,23.39026 L -144.26343,25.396658 L -109.26343,25.396658 L -109.26343,23.39026 L -144.26343,23.39026 z M -144.26343,25.772858 L -144.26343,27.810606 L -109.26343,27.810606 L -109.26343,25.772858 L -144.26343,25.772858 z M -144.26343,28.249505 L -144.26343,30.381304 L -109.26343,30.381304 L -109.26343,28.249505 L -144.26343,28.249505 z M -144.26343,30.851554 L -144.26343,33.014702 L -109.26343,33.014702 L -109.26343,30.851554 L -144.26343,30.851554 z M -144.26343,33.516301 L -144.26343,35.773499 L -109.26343,35.773499 L -109.26343,33.516301 L -144.26343,33.516301 z M -144.26343,36.306448 L -144.26343,38.626346 L -109.26343,38.626346 L -109.26343,36.306448 L -144.26343,36.306448 z M -144.26343,39.190646 L -144.26343,41.573243 L -109.26343,41.573243 L -109.26343,39.190646 L -144.26343,39.190646 z M -144.26343,42.137543 L -144.26343,44.58284 L -109.26343,44.58284 L -109.26343,42.137543 L -144.26343,42.137543 z M -144.26343,45.20984 L -144.26343,47.655137 L -109.26343,47.655137 L -109.26343,45.20984 L -144.26343,45.20984 z M -144.26343,48.344836 L -144.26343,50.852834 L -109.26343,50.852834 L -109.26343,48.344836 L -144.26343,48.344836 z M -144.26343,51.573883 L -144.26343,54.113231 L -109.26343,54.113231 L -109.26343,51.573883 L -144.26343,51.573883 z M -144.26343,54.83428 L -144.26343,57.436327 L -109.26343,57.436327 L -109.26343,54.83428 L -144.26343,54.83428 z M -144.26343,58.220077 L -144.26343,60.853474 L -109.26343,60.853474 L -109.26343,58.220077 L -144.26343,58.220077 z M -144.26343,61.637223 L -144.26343,64.33332 L -109.26343,64.33332 L -109.26343,61.637223 L -144.26343,61.637223 z M -144.26343,65.14842 L -144.26343,67.875867 L -109.26343,67.875867 L -109.26343,65.14842 L -144.26343,65.14842 z M -144.26343,68.722316 L -144.26343,71.481113 L -109.26343,71.481113 L -109.26343,68.722316 L -144.26343,68.722316 z M -144.26343,72.327562 L -144.26343,75.14906 L -109.26343,75.14906 L -109.26343,72.327562 L -144.26343,72.327562 z M -144.26343,76.026859 L -144.26343,78.848356 L -109.26343,78.848356 L -109.26343,76.026859 L -144.26343,76.026859 z M -144.26343,79.726155 L -144.26343,82.610352 L -109.26343,82.610352 L -109.26343,79.726155 L -144.26343,79.726155 z M -144.26343,83.550851 L -144.26343,86.403698 L -109.26343,86.403698 L -109.26343,83.550851 L -144.26343,83.550851 z M -144.26343,87.344197 L -144.26343,90.259745 L -109.26343,90.259745 L -109.26343,87.344197 L -144.26343,87.344197 z M -144.26343,91.200244 L -144.26343,94.147135 L -109.26343,94.147135 L -109.26343,91.200244 L -144.26343,91.200244 z M -144.26343,95.118984 L -144.26343,98.034531 L -109.26343,98.034531 L -109.26343,95.118984 L -144.26343,95.118984 z M -144.26343,99.006383 L -144.26343,101.98462 L -109.26343,101.98462 L -109.26343,99.006383 L -144.26343,99.006383 z M -144.26343,102.95647 L -144.26343,105.93472 L -109.26343,105.93472 L -109.26343,102.95647 L -144.26343,102.95647 z M -144.26343,106.93792 L -144.26343,109.91617 L -109.26343,109.91617 L -109.26343,106.93792 L -144.26343,106.93792 z M -144.26343,110.95071 L -144.26343,113.92896 L -109.26343,113.92896 L -109.26343,110.95071 L -144.26343,110.95071 z M -144.26343,114.93216 L -144.26343,117.91041 L -109.26343,117.91041 L -109.26343,114.93216 L -144.26343,114.93216 z M -144.26343,118.91361 L -144.26343,121.89185 L -109.26343,121.9232 L -109.26343,118.94496 L -144.26343,118.91361 z M -144.26343,122.9264 L -144.26343,125.936 L -109.26343,125.936 L -109.26343,122.9264 L -144.26343,122.9264 z M -144.26343,126.97055 L -144.26343,129.9488 L -109.26343,129.9488 L -109.26343,126.97055 L -144.26343,126.97055 z M -144.26343,130.95199 L -144.26343,133.96159 L -109.26343,133.96159 L -109.26343,130.95199 L -144.26343,130.95199 z M -144.26343,134.96479 L -144.26343,137.94304 L -109.26343,137.94304 L -109.26343,134.96479 L -144.26343,134.96479 z M -144.26343,138.94624 L -144.26343,141.92448 L -109.26343,141.92448 L -109.26343,138.94624 L -144.26343,138.94624 z M -144.26343,142.92768 L -144.26343,145.90593 L -109.26343,145.90593 L -109.26343,142.92768 L -144.26343,142.92768 z M -144.26343,146.87778 L -144.26343,149.82468 L -109.26343,149.82468 L -109.26343,146.87778 L -144.26343,146.87778 z M -144.26343,150.79652 L -144.26343,153.71207 L -109.26343,153.71207 L -109.26343,150.79652 L -144.26343,150.79652 z M -144.26343,154.68392 L -144.26343,157.59947 L -109.26343,157.59947 L -109.26343,154.68392 L -144.26343,154.68392 z M -144.26343,158.53997 L -144.26343,161.45551 L -109.26343,161.45551 L -109.26343,158.53997 L -144.26343,158.53997 z M -144.26343,162.36466 L -144.26343,165.24886 L -109.26343,165.24886 L -109.26343,162.36466 L -144.26343,162.36466 z M -144.26343,166.15801 L -144.26343,168.97951 L -109.26343,168.97951 L -109.26343,166.15801 L -144.26343,166.15801 z M -144.26343,169.88866 L -144.26343,172.6788 L -109.26343,172.6788 L -109.26343,169.88866 L -144.26343,169.88866 z M -144.26343,173.5566 L -144.26343,176.34675 L -109.26343,176.34675 L -109.26343,173.5566 L -144.26343,173.5566 z M -144.26343,177.1932 L -144.26343,179.92065 L -109.26343,179.92065 L -109.26343,177.1932 L -144.26343,177.1932 z M -144.26343,180.7671 L -144.26343,183.46319 L -109.26343,183.46319 L -109.26343,180.7671 L -144.26343,180.7671 z M -144.26343,184.27829 L -144.26343,186.94304 L -109.26343,186.94304 L -109.26343,184.27829 L -144.26343,184.27829 z M -144.26343,187.69544 L -144.26343,190.32884 L -109.26343,190.32884 L -109.26343,187.69544 L -144.26343,187.69544 z M -144.26343,191.08123 L -144.26343,193.65193 L -109.26343,193.65193 L -109.26343,191.08123 L -144.26343,191.08123 z M -144.26343,194.37298 L -144.26343,196.88098 L -109.26343,196.88098 L -109.26343,194.37298 L -144.26343,194.37298 z M -144.26343,197.57068 L -144.26343,200.07868 L -109.26343,200.07868 L -109.26343,197.57068 L -144.26343,197.57068 z M -144.26343,200.73703 L -144.26343,203.15097 L -109.26343,203.15097 L -109.26343,200.73703 L -144.26343,200.73703 z M -144.26343,203.77797 L -144.26343,206.16057 L -109.26343,206.16057 L -109.26343,203.77797 L -144.26343,203.77797 z M -144.26343,206.75622 L -144.26343,209.07612 L -109.26343,209.07612 L -109.26343,206.75622 L -144.26343,206.75622 z M -144.26343,209.64042 L -144.26343,211.92896 L -109.26343,211.92896 L -109.26343,209.64042 L -144.26343,209.64042 z M -144.26343,212.43056 L -144.26343,214.62506 L -109.26343,214.62506 L -109.26343,212.43056 L -144.26343,212.43056 z M -144.26343,215.12666 L -144.26343,217.25846 L -109.26343,217.25846 L -109.26343,215.12666 L -144.26343,215.12666 z M -144.26343,217.72871 L -144.26343,219.79781 L -109.26343,219.79781 L -109.26343,217.72871 L -144.26343,217.72871 z M -144.26343,220.20536 L -144.26343,222.21175 L -109.26343,222.21175 L -109.26343,220.20536 L -144.26343,220.20536 z M -144.26343,222.58795 L -144.26343,224.53165 L -109.26343,224.53165 L -109.26343,222.58795 L -144.26343,222.58795 z M -144.26343,224.8765 L -144.26343,226.7575 L -109.26343,226.7575 L -109.26343,224.8765 L -144.26343,224.8765 z M -144.26343,227.03965 L -144.26343,228.85795 L -109.26343,228.85795 L -109.26343,227.03965 L -144.26343,227.03965 z M -144.26343,229.10875 L -144.26343,230.83299 L -109.26343,230.83299 L -109.26343,229.10875 L -144.26343,229.10875 z M -144.26343,231.08379 L -144.26343,232.71399 L -109.26343,232.71399 L -109.26343,231.08379 L -144.26343,231.08379 z M -144.26343,232.90209 L -144.26343,234.50094 L -109.26343,234.50094 L -109.26343,232.90209 L -144.26343,232.90209 z M -144.26343,234.59499 L -144.26343,236.09979 L -109.26343,236.09979 L -109.26343,234.59499 L -144.26343,234.59499 z M -144.26343,236.19384 L -144.26343,237.60459 L -109.26343,237.60459 L -109.26343,236.19384 L -144.26343,236.19384 z M -144.26343,237.66729 L -144.26343,245.81828 L -109.26343,245.81828 L -109.26343,237.66729 L -144.26343,237.66729 z"
     id="rect3730" />
  <path
     transform="matrix(0.9807088,0,0,0.9807088,-45.732153,-30.954788)"
     d="M 302.54546,162.63203 A 124.39827,124.39827 0 1 1 53.748917,162.63203 A 124.39827,124.39827 0 1 1 302.54546,162.63203 z"
     sodipodi:ry="124.39827"
     sodipodi:rx="124.39827"
     sodipodi:cy="162.63203"
     sodipodi:cx="178.14719"
     id="path2402"
     style="fill:url(#radialGradient3318);fill-opacity:1;fill-rule:nonzero;stroke:#a07200;stroke-width:4.07868268;stroke-linecap:round;stroke-miterlimit:4;stroke-dasharray:32.62946147,32.62946147;stroke-dashoffset:0;stroke-opacity:1;stroke-linejoin:round"
     sodipodi:type="arc" />
  <use
     x="0"
     y="0"
     xlink:href="#path3251"
     id="use3287"
     transform="matrix(0.1357062,-0.1003836,0.1003836,0.1357062,37.591066,46.820504)"
     width="256"
     height="256" />
  <path
     transform="matrix(0.6339715,0,0,0.6339715,16.038227,25.435437)"
     d="M 302.54546,162.63203 A 124.39827,124.39827 0 1 1 53.748917,162.63203 A 124.39827,124.39827 0 1 1 302.54546,162.63203 z"
     sodipodi:ry="124.39827"
     sodipodi:rx="124.39827"
     sodipodi:cy="162.63203"
     sodipodi:cx="178.14719"
     id="path3261"
     style="fill:url(#radialGradient3263);fill-opacity:1;fill-rule:nonzero;stroke:url(#radialGradient3283);stroke-width:7.96565776;stroke-miterlimit:4;stroke-dasharray:47.79394657,47.79394657;stroke-dashoffset:28.67636826;stroke-opacity:1;stroke-linecap:round;stroke-linejoin:round"
     sodipodi:type="arc" />
  <use
     x="0"
     y="0"
     xlink:href="#path3268"
     id="use3289"
     transform="matrix(0.1357062,-0.1003836,0.1003836,0.1357062,37.591066,46.820504)"
     width="256"
     height="256" />
  <path
     transform="matrix(0.9807088,0,0,0.9807088,-45.732153,-30.954788)"
     d="M 302.54546,162.63203 A 124.39827,124.39827 0 1 1 53.748917,162.63203 A 124.39827,124.39827 0 1 1 302.54546,162.63203 z"
     sodipodi:ry="124.39827"
     sodipodi:rx="124.39827"
     sodipodi:cy="162.63203"
     sodipodi:cx="178.14719"
     id="path3214"
     style="fill:url(#radialGradient3316);fill-opacity:1;fill-rule:nonzero;stroke:none;stroke-width:1.02277899;stroke-miterlimit:4;stroke-dasharray:2.04555793, 2.04555793;stroke-dashoffset:0;stroke-opacity:1"
     sodipodi:type="arc" />
  <use
     x="0"
     y="0"
     xlink:href="#path3229"
     id="use3291"
     transform="matrix(0.1357062,-0.1003836,0.1003836,0.1357062,37.591066,46.820504)"
     width="256"
     height="256" />
  <path
     d="M 126.89177,16.931343 C 130.39563,16.931343 155.07085,77.712568 157.90553,79.772085 C 160.74022,81.831602 226.17166,86.516705 227.25441,89.849073 C 228.33716,93.181442 178.15585,135.4314 177.07309,138.76377 C 175.99034,142.09614 191.75397,205.77292 188.91929,207.83243 C 186.08461,209.89195 130.39563,175.22264 126.89177,175.22264 C 123.38791,175.22264 67.698925,209.89195 64.864243,207.83243 C 62.029561,205.77291 77.793197,142.09614 76.710445,138.76377 C 75.627693,135.4314 25.446376,93.181437 26.529128,89.849068 C 27.61188,86.5167 93.043323,81.831602 95.878005,79.772086 C 98.712687,77.712569 123.38791,16.931343 126.89177,16.931343 z"
     inkscape:randomized="0"
     inkscape:rounded="0.05"
     inkscape:flatsided="false"
     sodipodi:arg2="-0.9424778"
     sodipodi:arg1="-1.5707963"
     sodipodi:r2="52.763767"
     sodipodi:r1="105.52753"
     sodipodi:cy="122.45887"
     sodipodi:cx="126.89177"
     sodipodi:sides="5"
     id="path3251"
     style="fill:#baa500;fill-opacity:1;fill-rule:nonzero;stroke:none;stroke-width:3;stroke-miterlimit:4;stroke-dasharray:none;stroke-opacity:1;filter:url(#filter3257)"
     sodipodi:type="star"
     transform="matrix(1.0352215,0,0,1.0352215,-2.9811784,3.119495)" />
  <path
     d="M 126.89177,16.931343 C 130.39563,16.931343 155.07085,77.712568 157.90553,79.772085 C 160.74022,81.831602 226.17166,86.516705 227.25441,89.849073 C 228.33716,93.181442 178.15585,135.4314 177.07309,138.76377 C 175.99034,142.09614 191.75397,205.77292 188.91929,207.83243 C 186.08461,209.89195 130.39563,175.22264 126.89177,175.22264 C 123.38791,175.22264 67.698925,209.89195 64.864243,207.83243 C 62.029561,205.77291 77.793197,142.09614 76.710445,138.76377 C 75.627693,135.4314 25.446376,93.181437 26.529128,89.849068 C 27.61188,86.5167 93.043323,81.831602 95.878005,79.772086 C 98.712687,77.712569 123.38791,16.931343 126.89177,16.931343 z"
     inkscape:randomized="0"
     inkscape:rounded="0.05"
     inkscape:flatsided="false"
     sodipodi:arg2="-0.9424778"
     sodipodi:arg1="-1.5707963"
     sodipodi:r2="52.763767"
     sodipodi:r1="105.52753"
     sodipodi:cy="122.45887"
     sodipodi:cx="126.89177"
     sodipodi:sides="5"
     id="path3268"
     style="fill:#e8ce00;fill-opacity:1;fill-rule:nonzero;stroke:none;stroke-width:3;stroke-miterlimit:4;stroke-dasharray:none;stroke-opacity:1"
     sodipodi:type="star"
     transform="translate(1.4881435,7.0793109)" />
  <rect
     style="opacity:0.5;fill:url(#linearGradient3285);fill-opacity:1;fill-rule:nonzero;stroke:none;stroke-width:20;stroke-linecap:round;stroke-miterlimit:4;stroke-dasharray:none;stroke-dashoffset:0;stroke-opacity:1"
     id="rect3277"
     width="35"
     height="245"
     x="-144.26343"
     y="0.8182807" />
  <path
     sodipodi:type="inkscape:offset"
     inkscape:radius="0"
     inkscape:original="M 126.90625 16.9375 C 123.40239 16.9375 98.709681 77.721732 95.875 79.78125 C 93.040318 81.840767 27.614001 86.511382 26.53125 89.84375 C 25.448498 93.176118 75.636001 135.41764 76.71875 138.75 C 77.801502 142.08237 62.040319 205.78424 64.875 207.84375 C 67.709682 209.90327 123.40239 175.21875 126.90625 175.21875 C 130.41011 175.21875 186.07156 209.90327 188.90625 207.84375 C 191.74093 205.78423 175.97975 142.08238 177.0625 138.75 C 178.14525 135.41763 228.33275 93.176116 227.25 89.84375 C 226.16725 86.511382 160.74093 81.840765 157.90625 79.78125 C 155.07157 77.721733 130.41011 16.9375 126.90625 16.9375 z "
     xlink:href="#path3268"
     style="fill:url(#radialGradient3245);fill-opacity:1;fill-rule:nonzero;stroke:none;stroke-width:3;stroke-miterlimit:4;stroke-dasharray:none;stroke-opacity:1;filter:url(#filter3247)"
     id="path3229"
     inkscape:href="#path3268"
     d="M 126.90625,16.9375 C 123.40239,16.9375 98.709681,77.721732 95.875,79.78125 C 93.040318,81.840767 27.614001,86.511382 26.53125,89.84375 C 25.448498,93.176118 75.636001,135.41764 76.71875,138.75 C 77.801502,142.08237 62.040319,205.78424 64.875,207.84375 C 67.709682,209.90327 123.40239,175.21875 126.90625,175.21875 C 130.41011,175.21875 186.07156,209.90327 188.90625,207.84375 C 191.74093,205.78423 175.97975,142.08238 177.0625,138.75 C 178.14525,135.41763 228.33275,93.176116 227.25,89.84375 C 226.16725,86.511382 160.74093,81.840765 157.90625,79.78125 C 155.07157,77.721733 130.41011,16.9375 126.90625,16.9375 z"
     transform="matrix(0.8963374,0,0,0.8963374,14.639836,18.723313)" />
  <use
     x="0"
     y="0"
     xlink:href="#use3287"
     id="use3293"
     transform="matrix(0.9999508,9.9144492e-3,-9.9144492e-3,0.9999508,123.16062,0.1108963)"
     width="256"
     height="256" />
  <use
     x="0"
     y="0"
     xlink:href="#use3289"
     id="use3295"
     transform="matrix(0.9999508,9.9144492e-3,-9.9144492e-3,0.9999508,123.16062,0.1108963)"
     width="256"
     height="256" />
  <use
     x="0"
     y="0"
     xlink:href="#use3291"
     id="use3297"
     transform="matrix(0.9999508,9.9144492e-3,-9.9144492e-3,0.9999508,123.16062,0.1108963)"
     width="256"
     height="256" />
  <use
     x="0"
     y="0"
     xlink:href="#use3287"
     id="use3299"
     transform="matrix(0.3689355,0.929455,-0.929455,0.3689355,59.599702,81.429969)"
     width="256"
     height="256" />
  <use
     x="0"
     y="0"
     xlink:href="#use3289"
     id="use3301"
     transform="matrix(0.3689355,0.929455,-0.929455,0.3689355,59.599702,81.429969)"
     width="256"
     height="256" />
  <use
     x="0"
     y="0"
     xlink:href="#use3291"
     id="use3303"
     transform="matrix(0.3689355,0.929455,-0.929455,0.3689355,59.599702,81.429969)"
     width="256"
     height="256" />
  <use
     x="0"
     y="0"
     xlink:href="#use3293"
     id="use3305"
     transform="matrix(0.9961942,8.7160856e-2,-8.7160856e-2,0.9961942,33.686132,97.623419)"
     width="256"
     height="256" />
  <use
     x="0"
     y="0"
     xlink:href="#use3295"
     id="use3307"
     transform="matrix(0.9961942,8.7160856e-2,-8.7160856e-2,0.9961942,33.686132,97.623419)"
     width="256"
     height="256" />
  <use
     x="0"
     y="0"
     xlink:href="#use3297"
     id="use3309"
     transform="matrix(0.9961942,8.7160856e-2,-8.7160856e-2,0.9961942,33.686132,97.623419)"
     width="256"
     height="256" />
  <use
     x="0"
     y="0"
     xlink:href="#use3305"
     id="use3311"
     transform="matrix(0.3486724,0.9372447,-0.9372447,0.3486724,206.44469,-36.953444)"
     width="256"
     height="256" />
  <use
     x="0"
     y="0"
     xlink:href="#use3307"
     id="use3313"
     transform="matrix(0.3486724,0.9372447,-0.9372447,0.3486724,206.44469,-36.953444)"
     width="256"
     height="256" />
  <use
     x="0"
     y="0"
     xlink:href="#use3309"
     id="use3315"
     transform="matrix(0.3486724,0.9372447,-0.9372447,0.3486724,206.44469,-36.953444)"
     width="256"
     height="256" />
</svg>
