<?xml version="1.0" encoding="UTF-8" standalone="no"?>
<!-- Created with Inkscape (http://www.inkscape.org/) -->
<svg
   xmlns:dc="http://purl.org/dc/elements/1.1/"
   xmlns:cc="http://creativecommons.org/ns#"
   xmlns:rdf="http://www.w3.org/1999/02/22-rdf-syntax-ns#"
   xmlns:svg="http://www.w3.org/2000/svg"
   xmlns="http://www.w3.org/2000/svg"
   xmlns:xlink="http://www.w3.org/1999/xlink"
   xmlns:sodipodi="http://sodipodi.sourceforge.net/DTD/sodipodi-0.dtd"
   xmlns:inkscape="http://www.inkscape.org/namespaces/inkscape"
   width="512"
   height="1536"
   id="svg2"
   sodipodi:version="0.32"
   inkscape:version="0.46"
   version="1.0"
   sodipodi:docbase="C:\Documents and Settings\Administrator\Desktop"
   sodipodi:docname="palm.svg"
   inkscape:output_extension="org.inkscape.output.svg.inkscape">
  <defs
     id="defs4">
    <linearGradient
       id="linearGradient9638">
      <stop
         style="stop-color:#cd9456;stop-opacity:1;"
         offset="0"
         id="stop9640" />
      <stop
         style="stop-color:#ddae7b;stop-opacity:1;"
         offset="1"
         id="stop9642" />
    </linearGradient>
    <linearGradient
       id="linearGradient3049">
      <stop
         style="stop-color:#638225;stop-opacity:1;"
         offset="0"
         id="stop3051" />
      <stop
         style="stop-color:#bad681;stop-opacity:1;"
         offset="1"
         id="stop3053" />
    </linearGradient>
    <linearGradient
       id="linearGradient2998">
      <stop
         style="stop-color:#be894f;stop-opacity:1;"
         offset="0"
         id="stop3000" />
      <stop
         style="stop-color:#553b1f;stop-opacity:1;"
         offset="1"
         id="stop3002" />
    </linearGradient>
    <linearGradient
       inkscape:collect="always"
       xlink:href="#linearGradient3049"
       id="linearGradient3783"
       gradientUnits="userSpaceOnUse"
       gradientTransform="matrix(1.2320537,0.1941949,-0.2138483,1.1188237,99.930508,-347.47236)"
       x1="163.61842"
       y1="564.37665"
       x2="227.28433"
       y2="564.37665" />
    <linearGradient
       inkscape:collect="always"
       xlink:href="#linearGradient3049"
       id="linearGradient3790"
       gradientUnits="userSpaceOnUse"
       gradientTransform="matrix(0.567529,0.7501318,-0.8260489,0.5153711,537.85518,-145.82517)"
       x1="163.61842"
       y1="564.37665"
       x2="227.28433"
       y2="564.37665" />
    <linearGradient
       inkscape:collect="always"
       xlink:href="#linearGradient3049"
       id="linearGradient3794"
       gradientUnits="userSpaceOnUse"
       gradientTransform="matrix(1.1388003,0.4690751,-0.5165477,1.0341403,256.91502,-337.83439)"
       x1="163.61842"
       y1="564.37665"
       x2="227.28433"
       y2="564.37665" />
    <linearGradient
       inkscape:collect="always"
       xlink:href="#linearGradient2998"
       id="linearGradient3805"
       gradientUnits="userSpaceOnUse"
       gradientTransform="matrix(1.0919427,0,0,0.9998852,-949.70946,-154.36765)"
       x1="783.04688"
       y1="975.63147"
       x2="794.70953"
       y2="556.5" />
    <linearGradient
       inkscape:collect="always"
       xlink:href="#linearGradient9638"
       id="linearGradient9644"
       x1="-145.36273"
       y1="565.84937"
       x2="-44.232178"
       y2="565.84937"
       gradientUnits="userSpaceOnUse"
       gradientTransform="translate(0,6.2399321)" />
    <linearGradient
       inkscape:collect="always"
       xlink:href="#linearGradient9638"
       id="linearGradient2773"
       gradientUnits="userSpaceOnUse"
       x1="-145.36273"
       y1="565.84937"
       x2="-44.232178"
       y2="565.84937"
       gradientTransform="translate(-94.593954,-77.520222)" />
    <linearGradient
       inkscape:collect="always"
       xlink:href="#linearGradient2998"
       id="linearGradient3553"
       gradientUnits="userSpaceOnUse"
       gradientTransform="matrix(1.1048605,-1.9448377e-3,8.0199171e-3,0.9992204,-1057.9698,-157.1488)"
       x1="783.04688"
       y1="975.63147"
       x2="794.70953"
       y2="556.5" />
    <linearGradient
       inkscape:collect="always"
       xlink:href="#linearGradient9638"
       id="linearGradient3559"
       gradientUnits="userSpaceOnUse"
       gradientTransform="translate(6.3090694,-470.32736)"
       x1="-145.36273"
       y1="565.84937"
       x2="-44.232178"
       y2="565.84937" />
    <linearGradient
       inkscape:collect="always"
       xlink:href="#linearGradient2998"
       id="linearGradient3561"
       gradientUnits="userSpaceOnUse"
       gradientTransform="matrix(1.0919427,0,0,0.9998852,-943.40037,-630.93494)"
       x1="783.04688"
       y1="975.63147"
       x2="794.70953"
       y2="556.5" />
  </defs>
  <sodipodi:namedview
     id="base"
     pagecolor="#000000"
     bordercolor="#666666"
     borderopacity="1.0"
     gridtolerance="10000"
     guidetolerance="10"
     objecttolerance="10"
     inkscape:pageopacity="0"
     inkscape:pageshadow="2"
     inkscape:zoom="0.35"
     inkscape:cx="195.30196"
     inkscape:cy="687.78833"
     inkscape:document-units="px"
     inkscape:current-layer="g3040"
     inkscape:window-width="1024"
     inkscape:window-height="708"
     inkscape:window-x="116"
     inkscape:window-y="141"
     showgrid="false" />
  <metadata
     id="metadata7">
    <rdf:RDF>
      <cc:Work
         rdf:about="">
        <dc:format>image/svg+xml</dc:format>
        <dc:type
           rdf:resource="http://purl.org/dc/dcmitype/StillImage" />
      </cc:Work>
    </rdf:RDF>
  </metadata>
  <g
     inkscape:label="Layer 1"
     inkscape:groupmode="layer"
     id="layer1"
     transform="translate(5.0876199,63.624684)">
    <path
       style="fill:#19a919;fill-opacity:1;fill-rule:nonzero;stroke:#000000;stroke-width:2;stroke-linecap:round;stroke-linejoin:round;stroke-miterlimit:4;stroke-dasharray:none;stroke-dashoffset:0;stroke-opacity:1"
       d="M 175.00185,-75.543364 C 174.70329,-75.317454 174.57737,-74.72522 174.62281,-73.780887 C 175.31671,-59.360993 182.38468,-34.150359 192.65499,-4.8576569 C 181.55725,-22.712974 171.65605,-36.283712 164.31096,-42.239283 C 158.70211,-46.787048 166.89631,-19.049015 179.89895,7.7094689 C 175.13296,2.9334484 170.92951,-0.59684264 167.42801,-2.5258596 C 160.79434,-6.1803065 176.52583,30.441988 195.36713,56.772515 C 187.91007,50.623037 181.54952,46.489705 176.79541,45.101016 C 171.68199,43.607391 182.07007,63.929032 196.61732,83.442436 C 189.84383,79.790416 184.18464,77.686114 180.01649,77.611541 C 178.68335,77.587662 178.57195,78.936507 179.47807,81.228065 C 166.70323,74.002501 156.38765,70.272105 156.95704,73.698415 C 157.75349,78.490826 161.69926,84.902612 167.93493,92.442545 C 143.94455,78.571915 115.73334,68.763053 118.25472,74.133948 C 120.04635,77.95045 124.07078,82.675582 129.78953,87.980057 C 105.1416,78.248533 81.201149,72.781208 84.880261,77.497248 C 87.228732,80.507568 91.114671,83.986399 96.290007,87.761449 C 69.919974,80.350823 45.630431,77.280068 50.587475,81.709162 C 56.419695,86.920226 67.755186,93.087186 82.570085,99.740071 C 82.304054,99.686558 82.065972,99.627357 81.799001,99.574239 C 46.374754,92.524894 5.9826917,92.553286 14.539851,97.254819 C 26.789851,103.98533 52.089699,110.95591 82.845085,117.42356 C 60.893144,117.41467 43.283009,118.65806 33.54707,121.61766 C 26.112545,123.87771 54.208954,131.21566 84.702536,134.17962 C 77.63978,135.63885 71.975045,137.3058 68.077918,139.17708 C 60.694813,142.72225 101.05504,148.42078 135.06706,146.42077 C 125.09835,149.3733 117.49561,152.4668 113.21036,155.62995 C 108.60128,159.03215 132.10028,160.85934 157.69337,158.9022 C 150.21964,162.56235 144.73888,166.12951 141.91632,169.48095 C 139.62786,172.19823 149.86421,172.78253 164.20908,171.39406 C 168.56559,172.69686 173.9558,173.7162 180.18727,174.43144 C 151.81082,179.59336 117.83927,193.88612 122.98344,196.58867 C 127.19581,198.80166 134.98928,199.61218 145.26407,199.34138 C 117.19791,209.26796 89.110041,224.72137 95.023208,225.97485 C 99.224996,226.86553 105.70018,226.64556 113.90364,225.45194 C 88.490742,238.30311 66.863627,253.13101 73.128351,253.12818 C 77.127263,253.12638 82.584364,252.23611 89.231783,250.55412 C 64.315881,266.06445 44.190407,282.51933 51.17335,281.38562 C 59.389175,280.05178 72.390645,275.16299 88.273942,267.91041 C 88.038671,268.07934 87.794883,268.26062 87.559251,268.43047 C 56.288975,290.97178 26.791029,321.39077 36.615702,317.70567 C 50.680175,312.43026 74.48308,297.44043 101.89508,278.07395 C 85.818797,294.6012 73.855172,308.61732 68.969484,317.68674 C 65.238702,324.61229 91.371873,307.74555 115.93882,286.51984 C 111.87375,292.69537 108.97414,297.96737 107.53847,302.0007 C 104.81857,309.64184 138.67889,282.57174 162.06216,255.78273 C 157.00074,265.0232 153.7811,272.53538 153.03964,277.61922 C 152.24217,283.08727 170.82815,266.48241 188.08098,246.05907 C 185.38187,253.83595 184.05499,260.05853 184.52688,264.15134 C 185.19179,269.91803 208.69533,243.50773 223.28774,218.3466 C 219.08521,233.96583 217.58621,246.12238 220.34924,251.96154 C 222.09278,255.64616 233.91229,240.6585 243.6683,222.59673 C 247.63711,244.72541 256.9254,266.34655 260.11074,262.3479 C 263.9566,257.52024 265.93524,247.62232 266.56677,234.59591 C 273.53825,261.34077 290.04097,291.26545 292.39525,285.48813 C 294.32311,280.75731 294.60857,272.85839 293.67367,262.76632 C 305.36328,287.9878 322.57822,311.77282 323.44166,305.60496 C 324.05522,301.22215 323.34992,294.91177 321.63151,287.10373 C 336.0576,308.95462 352.21176,326.55183 351.80312,320.35706 C 351.54227,316.40282 350.3256,311.24545 348.22236,305.10097 C 365.26065,325.78137 382.9413,341.47756 381.36154,334.86126 C 379.50288,327.07684 373.77357,315.47221 365.53231,301.61616 C 365.71554,301.80565 365.89249,301.98686 366.0767,302.17651 C 390.51857,327.34593 422.69369,348.74584 418.39262,339.97063 C 412.23535,327.40848 395.81592,307.69318 374.7812,285.52878 C 392.25813,297.20764 406.9772,305.49089 416.31281,308.00698 C 423.44162,309.92828 404.96057,288.38032 382.26122,269.50425 C 388.66582,271.94764 394.07215,273.47668 398.17608,273.86668 C 405.95103,274.60556 376.84065,248.00065 348.68551,231.71558 C 358.20264,234.36176 365.89772,235.65232 371.00139,235.08758 C 376.49076,234.48014 358.80268,220.30604 337.37501,208.45837 C 345.28358,209.14207 351.53897,208.88482 355.57848,207.3732 C 361.27012,205.2433 333.48751,188.78572 307.52069,180.77866 C 315.37605,180.86227 322.32017,180.45513 328.02457,179.54992 C 328.05875,179.5445 328.07887,179.55668 328.11295,179.5512 C 342.93826,178.76139 354.45166,176.18579 352.73197,173.40953 C 349.76341,168.61699 341.14642,164.34196 329.02716,160.62522 C 357.39583,160.43834 392.7755,152.02979 388.2751,148.42014 C 384.5899,145.46437 377.21178,143.30645 367.22198,141.77357 C 396.13169,136.7607 426.01843,126.2291 420.51813,123.93558 C 416.60967,122.30585 410.31947,121.44058 402.17101,121.19548 C 429.02975,112.78796 452.57487,101.69553 446.51256,100.59835 C 442.64286,99.898023 437.2232,99.827715 430.49416,100.34491 C 457.34149,89.187148 479.70142,76.206131 472.74453,76.115376 C 464.55938,76.008537 451.12737,78.624428 434.47803,83.098623 C 434.73552,82.970764 434.99877,82.862909 435.25677,82.73418 C 469.4941,65.651077 503.38909,40.39076 493.23203,42.356095 C 478.69165,45.169561 453.0449,55.95541 423.10147,70.536564 C 441.57507,56.808335 455.64885,44.869674 461.97757,36.645062 C 466.81031,30.364553 438.51308,42.656634 410.99426,59.599308 C 416.01805,54.128585 419.74687,49.399485 421.84817,45.61245 C 425.82911,38.437912 388.27611,59.60182 360.92035,82.323595 C 367.44938,73.958459 371.90786,66.980448 373.52294,62.019466 C 375.25999,56.683579 354.36166,70.037153 334.0617,87.46055 C 338.04653,80.146406 340.4123,74.190726 340.67836,70.009191 C 341.05318,64.117525 313.63836,86.40602 295.0761,109.04111 C 301.90026,94.137388 305.50687,82.219037 303.86429,75.886345 C 303.15993,73.170896 296.43229,78.336439 288.23393,87.019699 C 289.87479,71.335205 288.97752,58.872871 285.80602,60.796856 C 280.54769,63.986767 274.9976,72.816896 269.47698,85.113456 C 273.45806,56.736912 270.19879,21.697492 265.90553,26.365897 C 262.38997,30.188671 259.1486,37.683798 256.13817,47.749643 C 255.34313,19.052847 249.11797,-10.402996 246.00201,-4.7943996 C 243.78785,-0.80899503 241.9631,5.5696685 240.51897,13.734102 C 236.00697,-12.755044 228.31267,-35.835601 226.31783,-29.7195 C 225.04452,-25.815484 224.18959,-20.355817 223.72107,-13.646546 C 216.44021,-39.998233 206.68937,-61.80177 205.57566,-54.836675 C 204.26523,-46.641806 204.96111,-33.303127 207.01598,-16.849119 C 206.92518,-17.100892 206.83153,-17.374333 206.73992,-17.626585 C 195.72298,-47.962743 177.88786,-77.727101 175.00185,-75.543364 z"
       id="path2913" />
    <g
       id="g3040"
       transform="matrix(0.6606377,0,0,1.4106838,298.74224,322.37341)">
      <path
         sodipodi:nodetypes="ccccc"
         id="rect2956"
         d="M -113.26913,523.08907 L -58.019486,523.08907 C -50.543728,687.26797 -53.804809,746.34197 -44.232177,813.57949 C -91.219559,813.57949 -100.06528,814.17122 -145.36273,814.17122 C -132.48994,747.07789 -131.69926,687.37201 -113.26913,523.08907 z"
         style="fill:url(#linearGradient9644);fill-opacity:1;fill-rule:nonzero;stroke:#000000;stroke-width:1;stroke-linecap:round;stroke-linejoin:round;stroke-miterlimit:4;stroke-dashoffset:0;stroke-opacity:1" />
      <path
         d="M -53.702223,542.73982 C -76.542214,547.46206 -98.198855,547.59262 -119.11642,544.83333 C -120.30303,566.94811 -121.57973,588.95159 -123.07471,610.51329 C -99.398976,613.7443 -76.23837,613.1932 -53.599853,608.82599 C -53.772096,587.07839 -53.752441,564.93557 -53.702223,542.73982 z M -53.56573,611.91938 C -78.006334,617.29311 -101.05975,617.36821 -123.31357,614.23162 C -124.9,636.64974 -126.75538,658.58495 -129.04627,679.66161 C -102.74595,683.68647 -77.056464,683.06377 -52.030186,677.75558 C -52.924443,656.58057 -53.365522,634.49258 -53.56573,611.91938 z M -51.893693,681.25517 C -79.192489,687.51102 -104.791,687.1329 -129.42163,683.00497 C -131.95251,705.717 -135.02576,727.43082 -138.83963,747.6538 C -107.27593,753.83348 -76.593961,753.38192 -46.843458,746.27896 C -49.280914,726.1122 -50.862211,704.25431 -51.893693,681.25517 z M -46.468103,749.43485 C -79.49736,757.78175 -110.00203,756.3304 -139.28323,750.09102 C -143.71461,773.0784 -145.88144,794.51407 -147.7189,814.71263 C -100.96733,814.71263 -85.440557,814.71263 -39.972081,814.71263 C -41.469768,795.80963 -42.929979,773.08736 -46.468103,749.43485 z"
         style="fill:url(#linearGradient3805);fill-opacity:1;fill-rule:nonzero;stroke:#000000;stroke-width:1.6235652;stroke-linecap:round;stroke-linejoin:round;stroke-miterlimit:4;stroke-dasharray:none;stroke-dashoffset:0;stroke-opacity:1"
         id="path2993"
         sodipodi:nodetypes="cccccccccccccccccccc" />
      <rect
         style="opacity:1;fill:none;fill-opacity:1;fill-rule:nonzero;stroke:#000000;stroke-width:1.51857924;stroke-linecap:round;stroke-linejoin:round;stroke-miterlimit:4;stroke-dasharray:none;stroke-dashoffset:0;stroke-opacity:1"
         id="rect2775"
         width="513.76306"
         height="12.889318"
         x="-534.90454"
         y="547.06537"
         rx="5.1087003"
         ry="2.3924568" />
      <path
         sodipodi:nodetypes="ccccc"
         id="path2771"
         d="M -205.90696,462.82309 L -148.08401,462.82309 C -148.08401,487.25394 -148.08401,513.33645 -148.08401,540.58927 C -162.81346,540.58544 -188.50306,540.80115 -205.90696,540.82296 C -205.90696,511.67553 -205.90696,486.66573 -205.90696,462.82309 z"
         style="fill:url(#linearGradient2773);fill-opacity:1;fill-rule:nonzero;stroke:#000000;stroke-width:1;stroke-linecap:round;stroke-linejoin:round;stroke-miterlimit:4;stroke-dashoffset:0;stroke-opacity:1" />
      <path
         d="M -146.57032,466.26779 C -168.23771,470.73299 -188.64999,471.13042 -208.6316,468.90677 C -209.66754,490.71426 -207.6285,512.67742 -208.6316,534.61177 C -186.16979,537.17902 -168.05259,536.43918 -146.57032,532.3099 C -146.6966,510.15179 -146.24214,488.01729 -146.57032,466.26779 z"
         style="fill:url(#linearGradient3553);fill-opacity:1;fill-rule:nonzero;stroke:#000000;stroke-width:1.63260889;stroke-linecap:round;stroke-linejoin:round;stroke-miterlimit:4;stroke-dasharray:none;stroke-dashoffset:0;stroke-opacity:1"
         id="path3551"
         sodipodi:nodetypes="ccccc" />
      <path
         sodipodi:nodetypes="ccccc"
         id="path3555"
         d="M -99.265282,-89.582435 L -53.551017,-89.582435 C -42.291037,72.06476 -50.032619,45.89584 -50.032619,74.728051 C -97.019982,74.728051 -66.509805,75.319781 -111.80724,75.319781 C -111.80724,51.770803 -109.04576,79.00439 -99.265282,-89.582435 z"
         style="fill:url(#linearGradient3559);fill-opacity:1;fill-rule:nonzero;stroke:#000000;stroke-width:1;stroke-linecap:round;stroke-linejoin:round;stroke-miterlimit:4;stroke-dashoffset:0;stroke-opacity:1" />
      <path
         d="M -47.427276,-5.5067446 C -68.876446,-1.0768146 -89.289588,-0.71549461 -109.01965,-2.9757846 C -110.21644,18.844085 -111.36899,40.819795 -112.53434,62.766665 C -90.355838,65.375165 -68.622586,64.673555 -47.35903,60.579425 C -47.308069,38.406665 -47.275452,16.257495 -47.427276,-5.5067446 z M -48.894574,-74.498823 C -68.225976,-70.902103 -86.72608,-70.563093 -104.65188,-72.436553 C -106.2606,-51.000623 -107.61561,-28.980305 -108.84904,-6.7253546 C -87.979938,-4.4088346 -67.518906,-5.0961846 -47.461399,-8.7251246 C -47.63979,-31.255235 -48.048231,-53.314313 -48.894574,-74.498823 z"
         style="fill:url(#linearGradient3561);fill-opacity:1;fill-rule:nonzero;stroke:#000000;stroke-width:1.6235652;stroke-linecap:round;stroke-linejoin:round;stroke-miterlimit:4;stroke-dasharray:none;stroke-dashoffset:0;stroke-opacity:1"
         id="path3557"
         sodipodi:nodetypes="cccccccccc" />
    </g>
    <path
       style="fill:#649537;fill-opacity:1;fill-rule:nonzero;stroke:#000000;stroke-width:2;stroke-linecap:round;stroke-linejoin:round;stroke-miterlimit:4;stroke-dasharray:none;stroke-dashoffset:0;stroke-opacity:1"
       d="M 342.78095,849.12235 C 337.49415,849.05608 316.04534,861.50455 303.59345,874.2786 C 292.9204,885.22776 287.42863,895.1533 288.7497,899.93485 C 289.19001,901.5287 290.39234,902.54697 292.40595,902.8411 C 293.23383,902.96203 294.02285,903.04166 294.8122,903.0286 C 295.08789,907.91762 304.08242,915.66722 318.53095,922.7161 C 337.4444,931.94326 367.21123,937.06708 365.6872,932.8411 C 364.17195,928.63964 358.13679,923.53662 349.21845,918.05985 C 371.62657,924.3328 400.98961,926.1736 398.0622,922.49735 C 395.66506,919.48704 390.2087,916.19659 382.59345,912.80985 C 406.26033,915.64974 431.66144,914.61744 427.71845,911.68485 C 424.91662,909.601 420.10332,907.55052 413.71845,905.5286 C 436.35286,905.40417 456.84226,902.55056 452.2497,900.37235 C 449.31819,898.98196 445.02146,897.73069 439.6247,896.5911 C 462.72427,894.43798 482.59635,889.91756 477.1247,888.2786 C 470.687,886.35025 459.65328,885.27606 445.7497,884.80985 C 445.97482,884.77383 446.21149,884.72139 446.4372,884.68485 C 476.38716,879.83647 507.47496,868.87598 499.1247,868.0286 C 487.17089,866.81552 465.06897,868.95935 438.9372,872.93485 C 455.87506,866.99581 469.02744,861.40758 475.4372,856.7786 C 480.33178,853.24385 455.90744,855.92172 431.28095,862.18485 C 436.1866,859.28984 439.97065,856.62492 442.28095,854.30985 C 446.65777,849.92393 413.36893,857.0336 387.8747,867.5911 C 394.46663,862.9039 399.18305,858.75589 401.3122,855.4661 C 403.60223,851.92767 384.79639,857.06128 365.78095,865.30985 C 370.18495,860.82199 373.1002,856.95527 374.03095,853.93485 C 375.34232,849.6791 349.88676,859.92287 331.34345,872.4036 C 339.29545,862.96605 344.17231,855.0026 343.96845,849.9661 C 343.94597,849.41063 343.53621,849.13182 342.78095,849.12235 z"
       id="path2928" />
    <g
       id="g10615"
       transform="translate(235.71429,108.57143)">
      <path
         sodipodi:nodetypes="csssc"
         id="path3061"
         d="M 221.9591,356.94808 C 209.93387,381.02285 188.65679,384.90728 168.64603,376.66477 C 148.63531,368.42228 137.43111,351.15876 149.45633,327.08399 C 161.48155,303.00922 187.48177,290.15986 207.49253,298.40234 C 227.50329,306.64482 233.98429,332.87334 221.9591,356.94808 z"
         style="fill:url(#linearGradient3794);fill-opacity:1;fill-rule:nonzero;stroke:none;stroke-width:1;stroke-linecap:round;stroke-linejoin:round;stroke-miterlimit:4;stroke-dashoffset:0;stroke-opacity:1" />
      <path
         style="opacity:0.35;fill:#000000;fill-opacity:1;fill-rule:nonzero;stroke:none;stroke-width:1;stroke-linecap:round;stroke-linejoin:round;stroke-miterlimit:4;stroke-dashoffset:0;stroke-opacity:1"
         d="M 221.9591,356.94808 C 209.93387,381.02285 188.65679,384.90728 168.64603,376.66477 C 148.63531,368.42228 137.43111,351.15876 149.45633,327.08399 C 161.48155,303.00922 187.48177,290.15986 207.49253,298.40234 C 227.50329,306.64482 233.98429,332.87334 221.9591,356.94808 z"
         id="path3101"
         sodipodi:nodetypes="csssc" />
      <path
         sodipodi:nodetypes="csssc"
         id="path3057"
         d="M 197.02918,317.78618 C 177.79876,329.78402 161.42713,324.44812 151.45461,311.26697 C 141.48212,298.08579 141.66653,282.02621 160.89691,270.02839 C 180.1273,258.03056 203.82822,258.99094 213.80071,272.17211 C 223.7732,285.35327 216.25956,305.78838 197.02918,317.78618 z"
         style="fill:url(#linearGradient3790);fill-opacity:1;fill-rule:nonzero;stroke:none;stroke-width:1;stroke-linecap:round;stroke-linejoin:round;stroke-miterlimit:4;stroke-dashoffset:0;stroke-opacity:1" />
      <path
         style="opacity:0.2838428;fill:#000000;fill-opacity:1;fill-rule:nonzero;stroke:none;stroke-width:1;stroke-linecap:round;stroke-linejoin:round;stroke-miterlimit:4;stroke-dashoffset:0;stroke-opacity:1"
         d="M 197.02918,317.78618 C 177.79876,329.78402 161.42713,324.44812 151.45461,311.26697 C 141.48212,298.08579 141.66653,282.02621 160.89691,270.02839 C 180.1273,258.03056 203.82822,258.99094 213.80071,272.17211 C 223.7732,285.35327 216.25956,305.78838 197.02918,317.78618 z"
         id="path3105"
         sodipodi:nodetypes="csssc" />
      <path
         sodipodi:nodetypes="csssc"
         id="path3046"
         d="M 258.33042,332.9978 C 253.35204,359.04399 233.83227,367.65844 212.18287,364.24611 C 190.5335,360.83377 174.91224,346.6804 179.89062,320.6342 C 184.86899,294.58804 206.47995,276.21854 228.12932,279.6309 C 249.77872,283.04327 263.30883,306.95163 258.33042,332.9978 z"
         style="fill:url(#linearGradient3783);fill-opacity:1;fill-rule:nonzero;stroke:none;stroke-width:1;stroke-linecap:round;stroke-linejoin:round;stroke-miterlimit:4;stroke-dashoffset:0;stroke-opacity:1" />
    </g>
    <path
       style="fill:#96c769;fill-opacity:1;fill-rule:nonzero;stroke:#000000;stroke-width:2;stroke-linecap:round;stroke-linejoin:round;stroke-miterlimit:4;stroke-dasharray:none;stroke-dashoffset:0;stroke-opacity:1"
       d="M 378.67914,970.83521 C 376.12006,970.92451 374.03916,971.38451 372.55414,972.17896 C 370.57413,973.23821 369.66335,974.93965 369.99164,977.27271 C 370.12663,978.23195 370.31575,979.12299 370.61664,979.99146 C 364.1572,982.05144 356.97952,994.79035 352.71039,1013.3039 C 347.12195,1037.5386 350.9323,1072.2881 356.05414,1069.0852 C 361.14634,1065.9008 365.81496,1057.4168 369.96039,1045.5852 C 369.58934,1072.6253 377.67345,1105.7369 381.55414,1101.1789 C 384.73185,1097.4465 387.18212,1090.2251 388.99164,1080.5852 C 393.67774,1107.7854 404.16064,1135.531 406.67914,1130.1164 C 408.4688,1126.269 409.50885,1120.1866 409.92914,1112.3977 C 418.22119,1137.3917 429.40573,1159.0412 430.67914,1153.1789 C 431.49198,1149.4369 431.65023,1144.2455 431.24164,1137.8664 C 442.42206,1162.6467 455.60098,1183.0389 455.83539,1176.3977 C 456.11126,1168.584 453.60723,1155.9455 449.24164,1140.3977 C 449.37075,1140.6338 449.48662,1140.8799 449.61664,1141.1164 C 466.87172,1172.5072 492.75865,1203.0016 490.89789,1193.4602 C 488.2341,1179.8012 477.39269,1156.0968 462.67914,1128.6164 C 476.72635,1145.2215 488.98118,1157.7813 497.49164,1163.2102 C 503.99041,1167.3558 491.63982,1141.298 474.39789,1116.3039 C 480.04243,1120.6914 484.96298,1123.8918 488.89789,1125.6164 C 496.35259,1128.8838 474.86824,1094.6225 451.55414,1070.2102 C 460.20812,1075.8197 467.43917,1079.5359 472.61664,1080.7102 C 478.18533,1081.9733 464.57025,1063.0345 446.67914,1044.9602 C 454.28034,1048.221 460.54323,1050.0461 464.92914,1049.9914 C 471.1088,1049.9144 448.20305,1025.4305 424.80414,1009.3977 C 440.31877,1014.8065 452.74605,1017.3374 459.42914,1015.3039 C 465.32573,1013.5098 436.99641,989.86819 412.30414,979.36646 C 398.41474,973.45925 386.35638,970.56732 378.67914,970.83521 z"
       id="path2942" />
  </g>
</svg>
