<?xml version="1.0" encoding="UTF-8" standalone="no"?>
<!-- Created with Inkscape (http://www.inkscape.org/) -->
<svg
   xmlns:dc="http://purl.org/dc/elements/1.1/"
   xmlns:cc="http://creativecommons.org/ns#"
   xmlns:rdf="http://www.w3.org/1999/02/22-rdf-syntax-ns#"
   xmlns:svg="http://www.w3.org/2000/svg"
   xmlns="http://www.w3.org/2000/svg"
   xmlns:xlink="http://www.w3.org/1999/xlink"
   xmlns:sodipodi="http://sodipodi.sourceforge.net/DTD/sodipodi-0.dtd"
   xmlns:inkscape="http://www.inkscape.org/namespaces/inkscape"
   width="256"
   height="512"
   id="svg2"
   sodipodi:version="0.32"
   inkscape:version="0.46"
   version="1.0"
   sodipodi:docname="2.svg"
   inkscape:output_extension="org.inkscape.output.svg.inkscape"
   inkscape:export-filename="N:\Dokumente und Einstellungen\FluXy\Desktop\2.png"
   inkscape:export-xdpi="180"
   inkscape:export-ydpi="180">
  <defs
     id="defs4">
    <linearGradient
       id="linearGradient3374">
      <stop
         style="stop-color:#a3f100;stop-opacity:1;"
         offset="0"
         id="stop3376" />
      <stop
         style="stop-color:#339900;stop-opacity:1;"
         offset="1"
         id="stop3378" />
    </linearGradient>
    <inkscape:perspective
       sodipodi:type="inkscape:persp3d"
       inkscape:vp_x="0 : 526.18109 : 1"
       inkscape:vp_y="0 : 1000 : 0"
       inkscape:vp_z="744.09448 : 526.18109 : 1"
       inkscape:persp3d-origin="372.04724 : 350.78739 : 1"
       id="perspective10" />
    <linearGradient
       inkscape:collect="always"
       xlink:href="#linearGradient3374"
       id="linearGradient3380"
       x1="62.985493"
       y1="28.662201"
       x2="63.665073"
       y2="69.898788"
       gradientUnits="userSpaceOnUse" />
    <linearGradient
       inkscape:collect="always"
       xlink:href="#linearGradient3374"
       id="linearGradient3388"
       x1="61.871841"
       y1="82.137688"
       x2="61.871841"
       y2="150.23003"
       gradientUnits="userSpaceOnUse" />
    <linearGradient
       inkscape:collect="always"
       xlink:href="#linearGradient3374"
       id="linearGradient3396"
       x1="65.25"
       y1="130"
       x2="62.548561"
       y2="233.12033"
       gradientUnits="userSpaceOnUse"
       gradientTransform="translate(0.5,-3.5)" />
    <filter
       inkscape:collect="always"
       id="filter3597"
       x="-0.31471518"
       width="1.6294304"
       y="-0.13987342"
       height="1.2797468">
      <feGaussianBlur
         inkscape:collect="always"
         stdDeviation="0.78678797"
         id="feGaussianBlur3599" />
    </filter>
    <filter
       inkscape:collect="always"
       id="filter3256">
      <feGaussianBlur
         inkscape:collect="always"
         stdDeviation="1.4894429"
         id="feGaussianBlur3258" />
    </filter>
    <filter
       inkscape:collect="always"
       id="filter3260">
      <feGaussianBlur
         inkscape:collect="always"
         stdDeviation="1.4533321"
         id="feGaussianBlur3262" />
    </filter>
    <filter
       inkscape:collect="always"
       id="filter3264">
      <feGaussianBlur
         inkscape:collect="always"
         stdDeviation="1.4533322"
         id="feGaussianBlur3266" />
    </filter>
    <filter
       inkscape:collect="always"
       id="filter3309"
       x="-0.20291567"
       width="1.4058313"
       y="-0.16109971"
       height="1.3221994">
      <feGaussianBlur
         inkscape:collect="always"
         stdDeviation="2.8034594"
         id="feGaussianBlur3311" />
    </filter>
  </defs>
  <sodipodi:namedview
     id="base"
     pagecolor="#000000"
     bordercolor="#666666"
     borderopacity="1.0"
     inkscape:pageopacity="0"
     inkscape:pageshadow="2"
     inkscape:zoom="1"
     inkscape:cx="128.10906"
     inkscape:cy="245.81863"
     inkscape:document-units="px"
     inkscape:current-layer="layer1"
     showgrid="false"
     inkscape:window-width="1042"
     inkscape:window-height="696"
     inkscape:window-x="116"
     inkscape:window-y="74" />
  <metadata
     id="metadata7">
    <rdf:RDF>
      <cc:Work
         rdf:about="">
        <dc:format>image/svg+xml</dc:format>
        <dc:type
           rdf:resource="http://purl.org/dc/dcmitype/StillImage" />
      </cc:Work>
    </rdf:RDF>
  </metadata>
  <g
     inkscape:label="Ebene 1"
     inkscape:groupmode="layer"
     id="layer1">
    <path
       style="fill:#61b200;fill-opacity:1;fill-rule:nonzero;stroke:#000000;stroke-width:4.00000048;stroke-linecap:butt;stroke-linejoin:round;stroke-miterlimit:4;stroke-dasharray:none;stroke-opacity:1"
       d="M 193.389,74.52734 C 191.78095,82.001437 204.11631,97.870732 191.91567,109.54544 C 182.48048,118.57391 169.21069,119.3223 155.50491,132.4874 C 149.98888,137.78581 135.20671,136.15269 127.00922,135.43811 C 118.81174,134.72352 113.03178,121.68396 106.18343,118.26608 C 99.335071,114.84817 82.598747,118.41356 78.319823,112.3345 C 64.617816,92.868064 60.984495,99.34391 57.859195,79.738394 C 56.715535,72.56401 60.066968,70.280179 65.177173,47.601998 C 68.541652,32.671015 73.435061,27.888398 85.107908,18.820302 C 90.944327,14.286262 108.36343,16.147239 115.58006,11.338425 C 135.88268,-2.1902695 150.32362,6.6873192 161.79043,20.432269 C 166.47488,26.047405 181.4295,18.490764 191.57035,29.907966 C 205.4001,46.824192 197.08479,57.349768 193.389,74.52734 z"
       id="path2385"
       sodipodi:nodetypes="csssssssssscs" />
    <path
       style="fill:url(#linearGradient3380);fill-opacity:1;fill-rule:nonzero;stroke:none;stroke-width:2;stroke-linecap:butt;stroke-linejoin:round;stroke-miterlimit:4;stroke-opacity:1;filter:url(#filter3264)"
       d="M 88.805012,53.916847 C 88.805012,56.887656 90.609589,59.218775 89.453145,63.082631 C 84.378452,65.804493 80.975718,69.358872 75.58256,74.90668 C 73.412031,77.139449 66.966187,77.006337 63.39922,77.006337 C 59.832253,77.006337 56.81908,72.163276 53.727062,71.073441 C 50.635045,69.983606 45.372899,69.932372 43.284264,67.727882 C 36.596025,60.668648 35.773446,65.294228 34.464913,62.71899 C 33.156378,60.14375 30.685079,56.921082 31.989789,47.987459 C 32.848789,42.105695 33.991723,38.613808 38.670137,34.717312 C 41.009343,32.769064 50.73149,31.67785 53.53417,29.4464 C 56.336848,27.21495 59.499506,24.870395 63.013434,25.470562 C 70.49453,26.748309 68.884116,31.847811 71.976133,32.937646 C 75.068151,34.027481 83.372711,31.422729 88.203859,35.492141 C 92.86362,39.417188 89.550851,40.477856 89.270919,43.298931 C 88.904932,46.987246 88.805012,50.946038 88.805012,53.916847 z"
       id="path3160"
       sodipodi:nodetypes="ccssssssssssssc"
       transform="matrix(1.9788694,0.1725012,-0.1993352,2.165329,17.743981,-52.520045)" />
    <path
       style="fill:#61b200;fill-opacity:1;fill-rule:nonzero;stroke:#000000;stroke-width:4.00000048;stroke-linecap:butt;stroke-linejoin:round;stroke-miterlimit:4;stroke-dasharray:none;stroke-opacity:1"
       d="M 60.615822,138.6003 C 70.524937,124.6513 73.451636,126.52295 80.353002,107.24633 C 83.754891,97.744282 122.0876,86.436059 133.23495,87.519933 C 162.37598,90.353344 166.67479,96.383431 175.76203,101.51444 C 184.84931,106.64546 198.49103,111.89015 203.93425,120.2423 C 221.3646,146.98769 209.35865,164.90222 212.20346,174.10866 C 215.04837,183.31504 226.8923,184.93342 218.61067,214.0276 C 213.15813,233.18285 205.53757,247.39227 189.16259,258.08281 C 180.97509,263.42805 171.18827,265.38818 161.42727,271.45034 C 151.66623,277.51255 129.69531,271.6976 119.06587,267.99083 C 96.435928,260.09914 89.299659,263.48235 80.212405,258.3513 C 71.125127,253.22029 87.227622,275.7476 74.149576,259.8551 C 61.535475,244.52643 52.355284,215.37593 50.937039,205.8422 C 49.918617,198.99614 54.441091,189.56061 54.460367,180.92599 C 54.500609,162.90389 54.568896,147.11252 60.615822,138.6003 z"
       id="path3158"
       sodipodi:nodetypes="cssssssssssssss" />
    <path
       style="fill:url(#linearGradient3388);fill-opacity:1;fill-rule:nonzero;stroke:none;stroke-width:0;stroke-linecap:butt;stroke-linejoin:round;stroke-miterlimit:4;stroke-dasharray:none;stroke-opacity:1;filter:url(#filter3260)"
       d="M 28.718396,106.74791 C 29.104805,99.656765 33.079539,97.025692 39.77552,89.291376 C 45.398735,82.796177 56.979415,79.32847 61.806065,79.76249 C 74.423753,80.8971 79.098411,83.044063 83.033073,85.098733 C 86.967745,87.153393 93.113847,92.047207 94.88397,95.681514 C 98.516145,103.13888 95.133504,113.6115 96.684912,117.19593 C 98.984422,122.50881 100.23352,124.27174 98.157646,131.3224 C 95.892208,139.01691 91.307338,141.94178 84.217188,146.22268 C 80.672113,148.36313 78.951168,150.98798 74.724776,153.4155 C 70.498374,155.84305 60.985262,153.51451 56.382852,152.03018 C 46.584382,148.87003 39.537416,152.96552 37.93762,149.09071 C 36.519567,145.6561 40.426734,146.60221 34.764104,140.23823 C 29.302374,134.10002 29.56371,133.17836 28.566646,129.4202 C 27.234722,124.39989 28.350357,113.50193 28.718396,106.74791 z"
       id="path3322"
       sodipodi:nodetypes="csssssssssssss"
       transform="matrix(1.9867937,0,0,2.1739999,8.1502963,-74.278711)" />
    <path
       style="fill:#756000;fill-opacity:1;fill-rule:nonzero;stroke:#000000;stroke-width:4.00000048;stroke-linecap:butt;stroke-linejoin:round;stroke-miterlimit:4;stroke-dasharray:none;stroke-opacity:1"
       d="M 85.976164,421.98077 C 76.723809,399.40445 178.06961,399.24705 169.23367,421.98077 C 154.28379,460.44472 168.73367,510.5 168.73367,510.5 L 85.476164,510.5 C 85.476164,510.5 98.870301,453.4432 85.976164,421.98077 z"
       id="rect3398"
       sodipodi:nodetypes="csccs" />
    <path
       style="fill:#cead15;fill-opacity:1;fill-rule:nonzero;stroke:none;stroke-width:0;stroke-linecap:butt;stroke-linejoin:round;stroke-miterlimit:4;stroke-dasharray:none;stroke-opacity:1;filter:url(#filter3309)"
       d="M 50.76245,218.99689 C 46.252571,207.71521 85.132115,207.15083 82.269735,218.99689 C 77.709118,237.87115 81.57955,252.08753 81.57955,252.08753 L 49.26245,251.99667 C 49.26245,251.99667 55.424672,230.65967 50.76245,218.99689 z"
       id="path3401"
       sodipodi:nodetypes="csccs"
       transform="matrix(1.9051838,0,0,1.946642,1.8288855,11.326078)" />
    <path
       style="fill:#61b200;fill-opacity:1;fill-rule:nonzero;stroke:#000000;stroke-width:4.00000048;stroke-linecap:butt;stroke-linejoin:round;stroke-miterlimit:4;stroke-dasharray:none;stroke-opacity:1"
       d="M 191.92079,451.93079 C 170.38901,451.17106 166.03588,467.51884 135.44761,469.84886 C 122.87101,470.80685 78.881101,461.34076 68.628115,452.29849 C 41.825121,428.66058 41.974019,419.45379 36.721046,407.75365 C 31.467991,396.0535 8.4725067,390.45995 4.4373136,360.57649 C 0.10344193,328.48118 29.367395,297.16337 31.11609,285.22915 C 36.281488,249.97643 37.013105,256.20769 67.742524,241.23696 C 90.145103,230.32292 113.86431,237.87506 137.90497,238.6394 C 149.92526,239.02158 168.72366,232.56089 176.41292,233.47014 C 222.08554,238.87089 206.7815,267.1077 214.60388,278.45442 C 231.2574,302.6114 243.44958,303.4717 246.05473,315.9449 C 254.98505,358.70237 254.84045,359.53267 236.67461,390.30728 C 223.11358,413.28092 224.72084,453.08817 191.92079,451.93079 z"
       id="path3364"
       sodipodi:nodetypes="cssssssssssss" />
    <path
       style="fill:url(#linearGradient3396);fill-opacity:1;fill-rule:nonzero;stroke:none;stroke-width:0;stroke-linecap:butt;stroke-linejoin:round;stroke-miterlimit:4;stroke-dasharray:none;stroke-opacity:1;filter:url(#filter3256)"
       d="M 97.963297,219.22183 C 92.115761,220.54376 82.142647,227.86101 68.664656,228.9174 C 63.123086,229.35174 46.637777,226.43942 42.120047,222.3398 C 30.309957,211.62272 30.805516,205.41604 28.490926,200.11138 C 26.176286,194.80671 13.098824,191.79041 11.320814,178.24171 C 9.4112042,163.6902 23.012389,151.97103 23.782919,146.56023 C 26.058929,130.5772 23.285596,133.99321 36.825776,127.20571 C 46.696926,122.25745 58.9001,125.5576 69.49304,125.90414 C 74.789497,126.07742 86.316858,122.79073 89.67795,123.39262 C 100.56008,125.34134 99.212912,139.16989 102.65965,144.31431 C 109.99762,155.26672 116.34923,156.2914 117.48343,161.94934 C 121.33737,181.17461 119.64128,178.01638 111.70173,191.84169 C 105.72208,202.25419 107.48943,217.06829 97.963297,219.22183 z"
       id="path3368"
       sodipodi:nodetypes="cssssssssssss"
       transform="matrix(2.0557405,0,0,2.0004423,-6.5321702,-1.1128096)" />
    <path
       sodipodi:type="arc"
       style="opacity:0.53846154;fill:#22b117;fill-opacity:0.9900332;fill-rule:nonzero;stroke:none;stroke-width:0;stroke-linecap:butt;stroke-linejoin:round;stroke-miterlimit:4;stroke-dasharray:none;stroke-opacity:1;filter:url(#filter3597)"
       id="path3601"
       sodipodi:cx="155.5"
       sodipodi:cy="154.25"
       sodipodi:rx="3"
       sodipodi:ry="6.75"
       d="M 158.5,154.25 A 3,6.75 0 1 1 152.5,154.25 A 3,6.75 0 1 1 158.5,154.25 z"
       transform="matrix(1.1991819,0,0,1.481809,-128.24912,76.385826)" />
    <path
       sodipodi:type="arc"
       style="opacity:0.53846154;fill:#22b117;fill-opacity:0.9900332;fill-rule:nonzero;stroke:none;stroke-width:0;stroke-linecap:butt;stroke-linejoin:round;stroke-miterlimit:4;stroke-dasharray:none;stroke-opacity:1;filter:url(#filter3597)"
       id="path3609"
       sodipodi:cx="155.5"
       sodipodi:cy="154.25"
       sodipodi:rx="3"
       sodipodi:ry="6.75"
       d="M 158.5,154.25 A 3,6.75 0 1 1 152.5,154.25 A 3,6.75 0 1 1 158.5,154.25 z"
       transform="matrix(1.1991819,0,0,1.481809,-93.078513,121.87608)" />
    <path
       sodipodi:type="arc"
       style="opacity:0.53846154;fill:#22b117;fill-opacity:0.9900332;fill-rule:nonzero;stroke:none;stroke-width:0;stroke-linecap:butt;stroke-linejoin:round;stroke-miterlimit:4;stroke-dasharray:none;stroke-opacity:1;filter:url(#filter3597)"
       id="path3611"
       sodipodi:cx="155.5"
       sodipodi:cy="154.25"
       sodipodi:rx="3"
       sodipodi:ry="6.75"
       d="M 158.5,154.25 A 3,6.75 0 1 1 152.5,154.25 A 3,6.75 0 1 1 158.5,154.25 z"
       transform="matrix(-7.4119346e-2,1.1646934,-1.5198591,-9.1588049e-2,457.04921,161.4579)" />
    <path
       sodipodi:type="arc"
       style="opacity:0.53846154;fill:#22b117;fill-opacity:0.9900332;fill-rule:nonzero;stroke:none;stroke-width:0;stroke-linecap:butt;stroke-linejoin:round;stroke-miterlimit:4;stroke-dasharray:none;stroke-opacity:1;filter:url(#filter3597)"
       id="path3613"
       sodipodi:cx="155.5"
       sodipodi:cy="154.25"
       sodipodi:rx="3"
       sodipodi:ry="6.75"
       d="M 158.5,154.25 A 3,6.75 0 1 1 152.5,154.25 A 3,6.75 0 1 1 158.5,154.25 z"
       transform="matrix(0.9262981,-0.7410973,0.96709,1.1446109,-168.46865,328.13818)" />
    <path
       sodipodi:type="arc"
       style="opacity:0.53846154;fill:#22b117;fill-opacity:0.9900332;fill-rule:nonzero;stroke:none;stroke-width:0;stroke-linecap:butt;stroke-linejoin:round;stroke-miterlimit:4;stroke-dasharray:none;stroke-opacity:1;filter:url(#filter3597)"
       id="path3615"
       sodipodi:cx="155.5"
       sodipodi:cy="154.25"
       sodipodi:rx="3"
       sodipodi:ry="6.75"
       d="M 158.5,154.25 A 3,6.75 0 1 1 152.5,154.25 A 3,6.75 0 1 1 158.5,154.25 z"
       transform="matrix(-1.0635067,-0.5391635,0.7035779,-1.3141575,236.0698,637.99409)" />
    <path
       sodipodi:type="arc"
       style="opacity:0.53846154;fill:#22b117;fill-opacity:0.9900332;fill-rule:nonzero;stroke:none;stroke-width:0;stroke-linecap:butt;stroke-linejoin:round;stroke-miterlimit:4;stroke-dasharray:none;stroke-opacity:1;filter:url(#filter3597)"
       id="path3617"
       sodipodi:cx="155.5"
       sodipodi:cy="154.25"
       sodipodi:rx="3"
       sodipodi:ry="6.75"
       d="M 158.5,154.25 A 3,6.75 0 1 1 152.5,154.25 A 3,6.75 0 1 1 158.5,154.25 z"
       transform="matrix(0.2754848,1.1357152,-1.4820441,0.3404123,280.18946,63.31997)" />
    <path
       sodipodi:type="arc"
       style="opacity:0.53846154;fill:#22b117;fill-opacity:0.9900332;fill-rule:nonzero;stroke:none;stroke-width:0;stroke-linecap:butt;stroke-linejoin:round;stroke-miterlimit:4;stroke-dasharray:none;stroke-opacity:1;filter:url(#filter3597)"
       id="path3619"
       sodipodi:cx="155.5"
       sodipodi:cy="154.25"
       sodipodi:rx="3"
       sodipodi:ry="6.75"
       d="M 158.5,154.25 A 3,6.75 0 1 1 152.5,154.25 A 3,6.75 0 1 1 158.5,154.25 z"
       transform="matrix(-7.4119346e-2,1.1646934,-1.5198591,-9.1588049e-2,385.09831,145.45436)" />
    <path
       sodipodi:type="arc"
       style="opacity:0.53846154;fill:#22b117;fill-opacity:0.9900332;fill-rule:nonzero;stroke:none;stroke-width:0;stroke-linecap:butt;stroke-linejoin:round;stroke-miterlimit:4;stroke-dasharray:none;stroke-opacity:1;filter:url(#filter3597)"
       id="path3621"
       sodipodi:cx="155.5"
       sodipodi:cy="154.25"
       sodipodi:rx="3"
       sodipodi:ry="6.75"
       d="M 158.5,154.25 A 3,6.75 0 1 1 152.5,154.25 A 3,6.75 0 1 1 158.5,154.25 z"
       transform="matrix(0.9262981,-0.7410973,0.96709,1.1446109,-238.36382,317.13575)" />
    <path
       sodipodi:type="arc"
       style="opacity:0.53846154;fill:#22b117;fill-opacity:0.9900332;fill-rule:nonzero;stroke:none;stroke-width:0;stroke-linecap:butt;stroke-linejoin:round;stroke-miterlimit:4;stroke-dasharray:none;stroke-opacity:1;filter:url(#filter3597)"
       id="path3623"
       sodipodi:cx="155.5"
       sodipodi:cy="154.25"
       sodipodi:rx="3"
       sodipodi:ry="6.75"
       d="M 158.5,154.25 A 3,6.75 0 1 1 152.5,154.25 A 3,6.75 0 1 1 158.5,154.25 z"
       transform="matrix(-1.0635067,-0.5391635,0.7035779,-1.3141575,221.67964,560.97708)" />
    <path
       sodipodi:type="arc"
       style="opacity:0.53846154;fill:#22b117;fill-opacity:0.9900332;fill-rule:nonzero;stroke:none;stroke-width:0;stroke-linecap:butt;stroke-linejoin:round;stroke-miterlimit:4;stroke-dasharray:none;stroke-opacity:1;filter:url(#filter3597)"
       id="path3625"
       sodipodi:cx="155.5"
       sodipodi:cy="154.25"
       sodipodi:rx="3"
       sodipodi:ry="6.75"
       d="M 158.5,154.25 A 3,6.75 0 1 1 152.5,154.25 A 3,6.75 0 1 1 158.5,154.25 z"
       transform="matrix(-1.0635067,-0.5391635,0.7035779,-1.3141575,230.19355,690.52545)" />
    <path
       sodipodi:type="arc"
       style="opacity:0.53846154;fill:#22b117;fill-opacity:0.9900332;fill-rule:nonzero;stroke:none;stroke-width:0;stroke-linecap:butt;stroke-linejoin:round;stroke-miterlimit:4;stroke-dasharray:none;stroke-opacity:1;filter:url(#filter3597)"
       id="path3627"
       sodipodi:cx="155.5"
       sodipodi:cy="154.25"
       sodipodi:rx="3"
       sodipodi:ry="6.75"
       d="M 158.5,154.25 A 3,6.75 0 1 1 152.5,154.25 A 3,6.75 0 1 1 158.5,154.25 z"
       transform="matrix(-1.0635067,-0.5391635,0.7035779,-1.3141575,154.25065,702.77587)" />
    <path
       sodipodi:type="arc"
       style="opacity:0.53846154;fill:#22b117;fill-opacity:0.9900332;fill-rule:nonzero;stroke:none;stroke-width:0;stroke-linecap:butt;stroke-linejoin:round;stroke-miterlimit:4;stroke-dasharray:none;stroke-opacity:1;filter:url(#filter3597)"
       id="path3629"
       sodipodi:cx="155.5"
       sodipodi:cy="154.25"
       sodipodi:rx="3"
       sodipodi:ry="6.75"
       d="M 158.5,154.25 A 3,6.75 0 1 1 152.5,154.25 A 3,6.75 0 1 1 158.5,154.25 z"
       transform="matrix(1.1991819,0,0,1.481809,-84.232525,-106.26629)" />
    <path
       sodipodi:type="arc"
       style="opacity:0.53846154;fill:#22b117;fill-opacity:0.9900332;fill-rule:nonzero;stroke:none;stroke-width:0;stroke-linecap:butt;stroke-linejoin:round;stroke-miterlimit:4;stroke-dasharray:none;stroke-opacity:1;filter:url(#filter3597)"
       id="path3631"
       sodipodi:cx="155.5"
       sodipodi:cy="154.25"
       sodipodi:rx="3"
       sodipodi:ry="6.75"
       d="M 158.5,154.25 A 3,6.75 0 1 1 152.5,154.25 A 3,6.75 0 1 1 158.5,154.25 z"
       transform="matrix(-7.4119346e-2,1.1646934,-1.5198591,-9.1588049e-2,389.28235,-16.895296)" />
    <path
       sodipodi:type="arc"
       style="opacity:0.53846154;fill:#22b117;fill-opacity:0.9900332;fill-rule:nonzero;stroke:none;stroke-width:0;stroke-linecap:butt;stroke-linejoin:round;stroke-miterlimit:4;stroke-dasharray:none;stroke-opacity:1;filter:url(#filter3597)"
       id="path3633"
       sodipodi:cx="155.5"
       sodipodi:cy="154.25"
       sodipodi:rx="3"
       sodipodi:ry="6.75"
       d="M 158.5,154.25 A 3,6.75 0 1 1 152.5,154.25 A 3,6.75 0 1 1 158.5,154.25 z"
       transform="matrix(-7.4119346e-2,1.1646934,-1.5198591,-9.1588049e-2,381.0435,17.475727)" />
    <path
       sodipodi:type="arc"
       style="opacity:0.53846154;fill:#22b117;fill-opacity:0.9900332;fill-rule:nonzero;stroke:none;stroke-width:0;stroke-linecap:butt;stroke-linejoin:round;stroke-miterlimit:4;stroke-dasharray:none;stroke-opacity:1;filter:url(#filter3597)"
       id="path3635"
       sodipodi:cx="155.5"
       sodipodi:cy="154.25"
       sodipodi:rx="3"
       sodipodi:ry="6.75"
       d="M 158.5,154.25 A 3,6.75 0 1 1 152.5,154.25 A 3,6.75 0 1 1 158.5,154.25 z"
       transform="matrix(-1.0635067,-0.5391635,0.7035779,-1.3141575,233.04286,452.00265)" />
    <path
       sodipodi:type="arc"
       style="opacity:0.53846154;fill:#22b117;fill-opacity:0.9900332;fill-rule:nonzero;stroke:none;stroke-width:0;stroke-linecap:butt;stroke-linejoin:round;stroke-miterlimit:4;stroke-dasharray:none;stroke-opacity:1;filter:url(#filter3597)"
       id="path3637"
       sodipodi:cx="155.5"
       sodipodi:cy="154.25"
       sodipodi:rx="3"
       sodipodi:ry="6.75"
       d="M 158.5,154.25 A 3,6.75 0 1 1 152.5,154.25 A 3,6.75 0 1 1 158.5,154.25 z"
       transform="matrix(0.9262981,-0.7410973,0.96709,1.1446109,-137.66563,60.690077)" />
    <path
       sodipodi:type="arc"
       style="opacity:0.53846154;fill:#22b117;fill-opacity:0.9900332;fill-rule:nonzero;stroke:none;stroke-width:0;stroke-linecap:butt;stroke-linejoin:round;stroke-miterlimit:4;stroke-dasharray:none;stroke-opacity:1;filter:url(#filter3597)"
       id="path3639"
       sodipodi:cx="155.5"
       sodipodi:cy="154.25"
       sodipodi:rx="3"
       sodipodi:ry="6.75"
       d="M 158.5,154.25 A 3,6.75 0 1 1 152.5,154.25 A 3,6.75 0 1 1 158.5,154.25 z"
       transform="matrix(0.9262981,-0.7410973,0.96709,1.1446109,-203.8057,139.1963)" />
    <path
       sodipodi:type="arc"
       style="opacity:0.53846154;fill:#22b117;fill-opacity:0.9900332;fill-rule:nonzero;stroke:none;stroke-width:0;stroke-linecap:butt;stroke-linejoin:round;stroke-miterlimit:4;stroke-dasharray:none;stroke-opacity:1;filter:url(#filter3597)"
       id="path3641"
       sodipodi:cx="155.5"
       sodipodi:cy="154.25"
       sodipodi:rx="3"
       sodipodi:ry="6.75"
       d="M 158.5,154.25 A 3,6.75 0 1 1 152.5,154.25 A 3,6.75 0 1 1 158.5,154.25 z"
       transform="matrix(1.1991819,0,0,1.481809,6.8689021,-23.813582)" />
    <path
       sodipodi:type="arc"
       style="opacity:0.53846154;fill:#22b117;fill-opacity:0.9900332;fill-rule:nonzero;stroke:none;stroke-width:0;stroke-linecap:butt;stroke-linejoin:round;stroke-miterlimit:4;stroke-dasharray:none;stroke-opacity:1;filter:url(#filter3597)"
       id="path3643"
       sodipodi:cx="155.5"
       sodipodi:cy="154.25"
       sodipodi:rx="3"
       sodipodi:ry="6.75"
       d="M 158.5,154.25 A 3,6.75 0 1 1 152.5,154.25 A 3,6.75 0 1 1 158.5,154.25 z"
       transform="matrix(-7.4119346e-2,1.2807511,-1.5198591,-0.1007145,344.7135,-147.05996)" />
    <path
       sodipodi:type="arc"
       style="opacity:0.53846154;fill:#22b117;fill-opacity:0.9900332;fill-rule:nonzero;stroke:none;stroke-width:0;stroke-linecap:butt;stroke-linejoin:round;stroke-miterlimit:4;stroke-dasharray:none;stroke-opacity:1;filter:url(#filter3597)"
       id="path3645"
       sodipodi:cx="155.5"
       sodipodi:cy="154.25"
       sodipodi:rx="3"
       sodipodi:ry="6.75"
       d="M 158.5,154.25 A 3,6.75 0 1 1 152.5,154.25 A 3,6.75 0 1 1 158.5,154.25 z"
       transform="matrix(-0.278203,1.1350878,-1.4812252,-0.3437702,357.12682,-57.658405)" />
    <path
       sodipodi:type="arc"
       style="opacity:0.53846154;fill:#22b117;fill-opacity:0.9900332;fill-rule:nonzero;stroke:none;stroke-width:0;stroke-linecap:butt;stroke-linejoin:round;stroke-miterlimit:4;stroke-dasharray:none;stroke-opacity:1;filter:url(#filter3597)"
       id="path3647"
       sodipodi:cx="155.5"
       sodipodi:cy="154.25"
       sodipodi:rx="3"
       sodipodi:ry="6.75"
       d="M 158.5,154.25 A 3,6.75 0 1 1 152.5,154.25 A 3,6.75 0 1 1 158.5,154.25 z"
       transform="matrix(-1.0635067,-0.5391635,0.7035779,-1.3141575,196.71285,314.36143)" />
    <path
       sodipodi:type="arc"
       style="opacity:0.53846154;fill:#22b117;fill-opacity:0.9900332;fill-rule:nonzero;stroke:none;stroke-width:0;stroke-linecap:butt;stroke-linejoin:round;stroke-miterlimit:4;stroke-dasharray:none;stroke-opacity:1;filter:url(#filter3597)"
       id="path3649"
       sodipodi:cx="155.5"
       sodipodi:cy="154.25"
       sodipodi:rx="3"
       sodipodi:ry="6.75"
       d="M 158.5,154.25 A 3,6.75 0 1 1 152.5,154.25 A 3,6.75 0 1 1 158.5,154.25 z"
       transform="matrix(0.9262981,-0.7410973,0.96709,1.1446109,-117.31482,21.083337)" />
    <path
       sodipodi:type="arc"
       style="opacity:0.53846154;fill:#22b117;fill-opacity:0.9900332;fill-rule:nonzero;stroke:none;stroke-width:0;stroke-linecap:butt;stroke-linejoin:round;stroke-miterlimit:4;stroke-dasharray:none;stroke-opacity:1;filter:url(#filter3597)"
       id="path3651"
       sodipodi:cx="155.5"
       sodipodi:cy="154.25"
       sodipodi:rx="3"
       sodipodi:ry="6.75"
       d="M 158.5,154.25 A 3,6.75 0 1 1 152.5,154.25 A 3,6.75 0 1 1 158.5,154.25 z"
       transform="matrix(1.1991819,0,0,1.481809,-46.915335,-166.68073)" />
    <path
       sodipodi:type="arc"
       style="opacity:0.53846154;fill:#22b117;fill-opacity:0.9900332;fill-rule:nonzero;stroke:none;stroke-width:0;stroke-linecap:butt;stroke-linejoin:round;stroke-miterlimit:4;stroke-dasharray:none;stroke-opacity:1;filter:url(#filter3597)"
       id="path3653"
       sodipodi:cx="155.5"
       sodipodi:cy="154.25"
       sodipodi:rx="3"
       sodipodi:ry="6.75"
       d="M 158.5,154.25 A 3,6.75 0 1 1 152.5,154.25 A 3,6.75 0 1 1 158.5,154.25 z"
       transform="matrix(-1.0635067,-0.5391635,0.7035779,-1.3141575,184.05,622.14787)" />
    <path
       sodipodi:type="arc"
       style="opacity:0.53846154;fill:#22b117;fill-opacity:0.9900332;fill-rule:nonzero;stroke:none;stroke-width:0;stroke-linecap:butt;stroke-linejoin:round;stroke-miterlimit:4;stroke-dasharray:none;stroke-opacity:1;filter:url(#filter3597)"
       id="path3655"
       sodipodi:cx="155.5"
       sodipodi:cy="154.25"
       sodipodi:rx="3"
       sodipodi:ry="6.75"
       d="M 158.5,154.25 A 3,6.75 0 1 1 152.5,154.25 A 3,6.75 0 1 1 158.5,154.25 z"
       transform="matrix(-1.0635067,-0.5391635,0.7035779,-1.3141575,130.26578,443.91752)" />
    <path
       sodipodi:type="arc"
       style="opacity:0.53846154;fill:#22b117;fill-opacity:0.9900332;fill-rule:nonzero;stroke:none;stroke-width:0;stroke-linecap:butt;stroke-linejoin:round;stroke-miterlimit:4;stroke-dasharray:none;stroke-opacity:1;filter:url(#filter3597)"
       id="path3657"
       sodipodi:cx="155.5"
       sodipodi:cy="154.25"
       sodipodi:rx="3"
       sodipodi:ry="6.75"
       d="M 158.5,154.25 A 3,6.75 0 1 1 152.5,154.25 A 3,6.75 0 1 1 158.5,154.25 z"
       transform="matrix(-1.0635067,-0.5391635,0.7035779,-1.3141575,163.69922,337.82805)" />
    <path
       sodipodi:type="arc"
       style="opacity:0.53846154;fill:#22b117;fill-opacity:0.9900332;fill-rule:nonzero;stroke:none;stroke-width:0;stroke-linecap:butt;stroke-linejoin:round;stroke-miterlimit:4;stroke-dasharray:none;stroke-opacity:1;filter:url(#filter3597)"
       id="path3659"
       sodipodi:cx="155.5"
       sodipodi:cy="154.25"
       sodipodi:rx="3"
       sodipodi:ry="6.75"
       d="M 158.5,154.25 A 3,6.75 0 1 1 152.5,154.25 A 3,6.75 0 1 1 158.5,154.25 z"
       transform="matrix(0.9262981,-0.7410973,0.96709,1.1446109,-212.37614,24.590824)" />
    <path
       sodipodi:type="arc"
       style="opacity:0.53846154;fill:#22b117;fill-opacity:0.9900332;fill-rule:nonzero;stroke:none;stroke-width:0;stroke-linecap:butt;stroke-linejoin:round;stroke-miterlimit:4;stroke-dasharray:none;stroke-opacity:1;filter:url(#filter3597)"
       id="path3661"
       sodipodi:cx="155.5"
       sodipodi:cy="154.25"
       sodipodi:rx="3"
       sodipodi:ry="6.75"
       d="M 158.5,154.25 A 3,6.75 0 1 1 152.5,154.25 A 3,6.75 0 1 1 158.5,154.25 z"
       transform="matrix(0.4429784,1.208185,-1.4407014,0.4817221,326.69016,-211.27966)" />
    <path
       sodipodi:type="arc"
       style="opacity:0.53846154;fill:#22b117;fill-opacity:0.9900332;fill-rule:nonzero;stroke:none;stroke-width:0;stroke-linecap:butt;stroke-linejoin:round;stroke-miterlimit:4;stroke-dasharray:none;stroke-opacity:1;filter:url(#filter3597)"
       id="path3663"
       sodipodi:cx="155.5"
       sodipodi:cy="154.25"
       sodipodi:rx="3"
       sodipodi:ry="6.75"
       d="M 158.5,154.25 A 3,6.75 0 1 1 152.5,154.25 A 3,6.75 0 1 1 158.5,154.25 z"
       transform="matrix(1.1991819,0,0,1.481809,23.875668,142.40042)" />
    <path
       sodipodi:type="arc"
       style="opacity:0.53846154;fill:#22b117;fill-opacity:0.9900332;fill-rule:nonzero;stroke:none;stroke-width:0;stroke-linecap:butt;stroke-linejoin:round;stroke-miterlimit:4;stroke-dasharray:none;stroke-opacity:1;filter:url(#filter3597)"
       id="path3665"
       sodipodi:cx="155.5"
       sodipodi:cy="154.25"
       sodipodi:rx="3"
       sodipodi:ry="6.75"
       d="M 158.5,154.25 A 3,6.75 0 1 1 152.5,154.25 A 3,6.75 0 1 1 158.5,154.25 z"
       transform="matrix(-1.0635067,-0.5391635,0.7035779,-1.3141575,85.263831,634.51308)" />
    <path
       sodipodi:type="arc"
       style="opacity:0.53846154;fill:#22b117;fill-opacity:0.9900332;fill-rule:nonzero;stroke:none;stroke-width:0;stroke-linecap:butt;stroke-linejoin:round;stroke-miterlimit:4;stroke-dasharray:none;stroke-opacity:1;filter:url(#filter3597)"
       id="path3667"
       sodipodi:cx="155.5"
       sodipodi:cy="154.25"
       sodipodi:rx="3"
       sodipodi:ry="6.75"
       d="M 158.5,154.25 A 3,6.75 0 1 1 152.5,154.25 A 3,6.75 0 1 1 158.5,154.25 z"
       transform="matrix(0.9262981,-0.7410973,0.96709,1.1446109,-140.42526,364.66605)" />
    <path
       sodipodi:type="arc"
       style="opacity:0.53846154;fill:#22b117;fill-opacity:0.9900332;fill-rule:nonzero;stroke:none;stroke-width:0;stroke-linecap:butt;stroke-linejoin:round;stroke-miterlimit:4;stroke-dasharray:none;stroke-opacity:1;filter:url(#filter3597)"
       id="path3669"
       sodipodi:cx="155.5"
       sodipodi:cy="154.25"
       sodipodi:rx="3"
       sodipodi:ry="6.75"
       d="M 158.5,154.25 A 3,6.75 0 1 1 152.5,154.25 A 3,6.75 0 1 1 158.5,154.25 z"
       transform="matrix(-7.4119346e-2,1.1646934,-1.5198591,-9.1588049e-2,372.0269,96.96341)" />
    <path
       sodipodi:type="arc"
       style="opacity:0.53846154;fill:#22b117;fill-opacity:0.9900332;fill-rule:nonzero;stroke:none;stroke-width:0;stroke-linecap:butt;stroke-linejoin:round;stroke-miterlimit:4;stroke-dasharray:none;stroke-opacity:1;filter:url(#filter3597)"
       id="path3671"
       sodipodi:cx="155.5"
       sodipodi:cy="154.25"
       sodipodi:rx="3"
       sodipodi:ry="6.75"
       d="M 158.5,154.25 A 3,6.75 0 1 1 152.5,154.25 A 3,6.75 0 1 1 158.5,154.25 z"
       transform="matrix(-1.0635067,-0.5391635,0.7035779,-1.3141575,129.46225,554.49541)" />
    <path
       sodipodi:type="arc"
       style="opacity:0.53846154;fill:#22b117;fill-opacity:0.9900332;fill-rule:nonzero;stroke:none;stroke-width:0;stroke-linecap:butt;stroke-linejoin:round;stroke-miterlimit:4;stroke-dasharray:none;stroke-opacity:1;filter:url(#filter3597)"
       id="path3673"
       sodipodi:cx="155.5"
       sodipodi:cy="154.25"
       sodipodi:rx="3"
       sodipodi:ry="6.75"
       d="M 158.5,154.25 A 3,6.75 0 1 1 152.5,154.25 A 3,6.75 0 1 1 158.5,154.25 z"
       transform="matrix(1.1991819,0,0,1.481809,4.3461332,69.384271)" />
    <path
       sodipodi:type="arc"
       style="opacity:0.53846154;fill:#22b117;fill-opacity:0.9900332;fill-rule:nonzero;stroke:none;stroke-width:0;stroke-linecap:butt;stroke-linejoin:round;stroke-miterlimit:4;stroke-dasharray:none;stroke-opacity:1;filter:url(#filter3597)"
       id="path3675"
       sodipodi:cx="155.5"
       sodipodi:cy="154.25"
       sodipodi:rx="3"
       sodipodi:ry="6.75"
       d="M 158.5,154.25 A 3,6.75 0 1 1 152.5,154.25 A 3,6.75 0 1 1 158.5,154.25 z"
       transform="matrix(1.1991819,0,0,1.481809,-81.802403,-66.249377)" />
  </g>
</svg>
