<?xml version="1.0" encoding="UTF-8" standalone="no"?>
<!-- Created with Inkscape (http://www.inkscape.org/) -->
<svg
   xmlns:ns="http://creativecommons.org/ns#"
   xmlns:dc="http://purl.org/dc/elements/1.1/"
   xmlns:cc="http://web.resource.org/cc/"
   xmlns:rdf="http://www.w3.org/1999/02/22-rdf-syntax-ns#"
   xmlns:svg="http://www.w3.org/2000/svg"
   xmlns="http://www.w3.org/2000/svg"
   xmlns:xlink="http://www.w3.org/1999/xlink"
   xmlns:sodipodi="http://sodipodi.sourceforge.net/DTD/sodipodi-0.dtd"
   xmlns:inkscape="http://www.inkscape.org/namespaces/inkscape"
   width="256"
   height="512"
   id="svg2"
   sodipodi:version="0.32"
   inkscape:version="0.45.1"
   version="1.0"
   sodipodi:docname="big_plant_2.svg"
   inkscape:output_extension="org.inkscape.output.svg.inkscape"
   inkscape:export-filename="/home/needcoffee/Desktop/smc-graphics/jungle/jungle_plant2.png"
   inkscape:export-xdpi="90"
   inkscape:export-ydpi="90"
   sodipodi:docbase="D:\Dateien\Desktop\Secret Maryo Chronicles\Drafts\Game\needcoffee\level\jungle">
  <sodipodi:namedview
     id="base"
     pagecolor="#000000"
     bordercolor="#666666"
     borderopacity="1.0"
     inkscape:pageopacity="0"
     inkscape:pageshadow="2"
     inkscape:zoom="1"
     inkscape:cx="294.36875"
     inkscape:cy="302.18949"
     inkscape:document-units="px"
     inkscape:current-layer="layer2"
     showgrid="false"
     inkscape:showpageshadow="false"
     inkscape:window-width="1254"
     inkscape:window-height="979"
     inkscape:window-x="14"
     inkscape:window-y="5"
     showguides="true"
     inkscape:guide-bbox="true" />
  <defs
     id="defs4">
    <linearGradient
       inkscape:collect="always"
       id="linearGradient3433">
      <stop
         style="stop-color:#ff8c00;stop-opacity:1"
         offset="0"
         id="stop3435" />
      <stop
         style="stop-color:#ffff00;stop-opacity:1"
         offset="1"
         id="stop3437" />
    </linearGradient>
    <linearGradient
       id="linearGradient3427"
       inkscape:collect="always">
      <stop
         id="stop3429"
         offset="0"
         style="stop-color:#ffd700;stop-opacity:1" />
      <stop
         id="stop3431"
         offset="1"
         style="stop-color:#ff4500;stop-opacity:1" />
    </linearGradient>
    <linearGradient
       id="linearGradient3132">
      <stop
         style="stop-color:#000000;stop-opacity:1;"
         offset="0"
         id="stop3134" />
      <stop
         id="stop3140"
         offset="0.5"
         style="stop-color:#000000;stop-opacity:0;" />
      <stop
         style="stop-color:#000000;stop-opacity:1;"
         offset="1"
         id="stop3136" />
    </linearGradient>
    <linearGradient
       id="linearGradient3092">
      <stop
         style="stop-color:#709c24;stop-opacity:1"
         offset="0"
         id="stop3094" />
      <stop
         style="stop-color:#6f9b23;stop-opacity:0.3671875;"
         offset="1"
         id="stop3096" />
    </linearGradient>
    <linearGradient
       id="linearGradient3067">
      <stop
         style="stop-color:#6b8e23;stop-opacity:1"
         offset="0"
         id="stop3069" />
      <stop
         style="stop-color:#006400;stop-opacity:1;"
         offset="1"
         id="stop3072" />
    </linearGradient>
    <linearGradient
       id="linearGradient4944">
      <stop
         id="stop4946"
         offset="0"
         style="stop-color:#000000;stop-opacity:1;" />
      <stop
         id="stop4948"
         offset="1"
         style="stop-color:#444444;stop-opacity:0;" />
    </linearGradient>
    <filter
       inkscape:collect="always"
       id="filter3129">
      <feGaussianBlur
         inkscape:collect="always"
         stdDeviation="1.962189"
         id="feGaussianBlur3131" />
    </filter>
    <linearGradient
       id="linearGradient5255-282">
      <stop
         id="stop6667"
         offset="0"
         style="stop-color:#76bd00;stop-opacity:1;" />
      <stop
         id="stop6669"
         offset="1"
         style="stop-color:#006400;stop-opacity:1;" />
    </linearGradient>
    <linearGradient
       id="linearGradient5255-854">
      <stop
         id="stop6691"
         offset="0"
         style="stop-color:#76bd00;stop-opacity:1;" />
      <stop
         id="stop6693"
         offset="1"
         style="stop-color:#006400;stop-opacity:1;" />
    </linearGradient>
    <linearGradient
       y2="869.99988"
       x2="168.91336"
       y1="700.49988"
       x1="247.78365"
       gradientUnits="userSpaceOnUse"
       id="linearGradient5207-778"
       xlink:href="#linearGradient3031-192"
       inkscape:collect="always" />
    <linearGradient
       inkscape:collect="always"
       id="linearGradient3031-192">
      <stop
         style="stop-color:#000000;stop-opacity:1;"
         offset="0"
         id="stop6697" />
      <stop
         style="stop-color:#000000;stop-opacity:0;"
         offset="1"
         id="stop6699" />
    </linearGradient>
    <radialGradient
       inkscape:collect="always"
       xlink:href="#linearGradient5255-854"
       id="radialGradient3187"
       gradientUnits="userSpaceOnUse"
       gradientTransform="matrix(-1.411123,-0.6292599,-0.3391801,0.6803765,1429.6288,781.93285)"
       cx="626.26636"
       cy="1023.4202"
       fx="626.26636"
       fy="1023.4202"
       r="48.627731" />
    <radialGradient
       inkscape:collect="always"
       xlink:href="#linearGradient4944"
       id="radialGradient3195"
       gradientUnits="userSpaceOnUse"
       gradientTransform="matrix(-9.0416854e-2,-0.1272357,-0.1371112,8.7061352e-2,442.00674,1109.3566)"
       cx="587.32898"
       cy="1048.8142"
       fx="587.32898"
       fy="1048.8142"
       r="48.627731"
       spreadMethod="repeat" />
    <filter
       inkscape:collect="always"
       id="filter3124">
      <feGaussianBlur
         inkscape:collect="always"
         stdDeviation="2.2096558"
         id="feGaussianBlur3126" />
    </filter>
    <filter
       inkscape:collect="always"
       id="filter3094">
      <feGaussianBlur
         inkscape:collect="always"
         stdDeviation="2.8403985"
         id="feGaussianBlur3096" />
    </filter>
    <mask
       maskUnits="userSpaceOnUse"
       id="mask3136">
      <path
         style="fill:#ffffff;fill-opacity:1;fill-rule:evenodd;stroke:none;stroke-width:1px;stroke-linecap:butt;stroke-linejoin:miter;stroke-opacity:1"
         d="M 136.84742,1070.3338 L 228.84742,1121.3338 L 212.84742,1201.3338 L 125.84742,1188.3338 L 136.84742,1070.3338 z"
         id="path3138" />
    </mask>
    <radialGradient
       inkscape:collect="always"
       xlink:href="#linearGradient4944"
       id="radialGradient3146"
       gradientUnits="userSpaceOnUse"
       gradientTransform="matrix(2.3949871e-2,-5.4905298e-2,4.3469231e-2,3.847021e-2,-36.42796,1373.9004)"
       spreadMethod="repeat"
       cx="5662.7808"
       cy="-535.80157"
       fx="5662.7808"
       fy="-535.80157"
       r="102.53549" />
    <radialGradient
       inkscape:collect="always"
       xlink:href="#linearGradient5255-282"
       id="radialGradient3150"
       cx="68.595726"
       cy="284.78677"
       fx="68.595726"
       fy="284.78677"
       r="50"
       gradientTransform="matrix(1.2458395,-0.3741378,-2.1584303e-2,0.660129,48.242615,853.31037)"
       gradientUnits="userSpaceOnUse" />
    <filter
       inkscape:collect="always"
       id="filter3222"
       x="-0.072521739"
       width="1.1450435"
       y="-0.14195745"
       height="1.2839149">
      <feGaussianBlur
         inkscape:collect="always"
         stdDeviation="1.39"
         id="feGaussianBlur3224" />
    </filter>
    <radialGradient
       inkscape:collect="always"
       xlink:href="#linearGradient5255-282"
       id="radialGradient3324"
       cx="164.62178"
       cy="27.328726"
       fx="164.62178"
       fy="27.328726"
       r="62"
       gradientTransform="matrix(-1.1980529,-0.1611416,-5.5782463e-2,0.5005362,380.17871,912.85434)"
       gradientUnits="userSpaceOnUse" />
    <radialGradient
       inkscape:collect="always"
       xlink:href="#linearGradient4944"
       id="radialGradient3328"
       cx="251.50006"
       cy="135.62314"
       fx="251.50006"
       fy="135.62314"
       r="60.5"
       gradientTransform="matrix(-0.1249177,6.0563323e-2,3.7805553e-2,9.4110764e-2,140.00365,903.28838)"
       gradientUnits="userSpaceOnUse"
       spreadMethod="repeat" />
    <radialGradient
       inkscape:collect="always"
       xlink:href="#linearGradient3067"
       id="radialGradient3352"
       gradientUnits="userSpaceOnUse"
       gradientTransform="matrix(1.6291091,2.1881379e-2,-7.4245603e-2,0.9748087,488.03633,207.6401)"
       cx="-139.48586"
       cy="1069.6927"
       fx="-139.48586"
       fy="1069.6927"
       r="79" />
    <radialGradient
       inkscape:collect="always"
       xlink:href="#linearGradient3092"
       id="radialGradient3372"
       cx="184.9375"
       cy="1297.6478"
       fx="184.9375"
       fy="1297.6478"
       r="104.78125"
       gradientTransform="matrix(1,0,0,0.3130752,0,829.32737)"
       gradientUnits="userSpaceOnUse" />
    <linearGradient
       inkscape:collect="always"
       xlink:href="#linearGradient3132"
       id="linearGradient3378"
       x1="31.492081"
       y1="1194.3337"
       x2="346.82159"
       y2="1194.3337"
       gradientUnits="userSpaceOnUse" />
    <radialGradient
       inkscape:collect="always"
       xlink:href="#linearGradient5255-282"
       id="radialGradient3390"
       cx="187.34348"
       cy="354.16071"
       fx="187.34348"
       fy="354.16071"
       r="37.216511"
       gradientTransform="matrix(0.634825,-0.772656,1.6121877,1.324596,-434.43949,682.16916)"
       gradientUnits="userSpaceOnUse" />
    <radialGradient
       inkscape:collect="always"
       xlink:href="#linearGradient4944"
       id="radialGradient3394"
       cx="215.33344"
       cy="405.81604"
       fx="215.33344"
       fy="405.81604"
       r="35.716511"
       gradientTransform="matrix(0.2519527,-0.1959876,0.1140009,0.1465542,190.66365,1045.2656)"
       gradientUnits="userSpaceOnUse"
       spreadMethod="repeat" />
    <radialGradient
       inkscape:collect="always"
       xlink:href="#linearGradient3427"
       id="radialGradient3425"
       gradientUnits="userSpaceOnUse"
       gradientTransform="matrix(0.908649,-0.4175607,0.3965324,0.8628898,-323.85188,248.23494)"
       cx="249.84742"
       cy="881.83378"
       fx="249.84742"
       fy="881.83378"
       r="52.814263" />
    <radialGradient
       inkscape:collect="always"
       xlink:href="#linearGradient3433"
       id="radialGradient3439"
       cx="383.5"
       cy="509"
       fx="383.5"
       fy="509"
       r="22.5"
       gradientTransform="matrix(1,0,0,0.9333333,0,33.933333)"
       gradientUnits="userSpaceOnUse" />
    <radialGradient
       inkscape:collect="always"
       xlink:href="#linearGradient3427"
       id="radialGradient3447"
       gradientUnits="userSpaceOnUse"
       gradientTransform="matrix(-1.348476,0.4732662,0.4496462,1.2804153,120.24741,-437.52399)"
       cx="249.84742"
       cy="881.83378"
       fx="249.84742"
       fy="881.83378"
       r="52.814263" />
    <radialGradient
       inkscape:collect="always"
       xlink:href="#linearGradient3433"
       id="radialGradient3449"
       gradientUnits="userSpaceOnUse"
       gradientTransform="matrix(1,0,0,0.9333333,0,33.933333)"
       cx="383.5"
       cy="509"
       fx="383.5"
       fy="509"
       r="22.5" />
  </defs>
  <metadata
     id="metadata7">
    <rdf:RDF>
      <ns:Work
         rdf:about="">
        <dc:format>image/svg+xml</dc:format>
        <dc:type
           rdf:resource="http://purl.org/dc/dcmitype/StillImage" />
      </ns:Work>
      <cc:Work
         rdf:about="">
        <dc:format>image/svg+xml</dc:format>
        <dc:type
           rdf:resource="http://purl.org/dc/dcmitype/StillImage" />
      </cc:Work>
    </rdf:RDF>
  </metadata>
  <g
     transform="translate(-56.847417,-735.33378)"
     inkscape:label="plants"
     id="layer2"
     inkscape:groupmode="layer">
    <path
       style="opacity:1;fill:url(#radialGradient3324);fill-opacity:1;fill-rule:evenodd;stroke:#002800;stroke-width:3.00000024;stroke-linecap:butt;stroke-linejoin:miter;marker:none;marker-start:none;marker-mid:none;marker-end:none;stroke-miterlimit:4;stroke-dasharray:none;stroke-dashoffset:0;stroke-opacity:1;visibility:visible;display:inline;overflow:visible;enable-background:accumulate"
       d="M 214.90113,915.24671 C 214.90113,915.24671 194.89457,933.84429 132.56647,921.16413 C 132.56647,921.16413 127.18009,916.9374 121.79371,921.16413 C 121.79371,921.16413 159.49837,861.99001 214.90113,915.24671 z"
       id="path3318" />
    <path
       id="path3320"
       d="M 214.90113,915.2467 C 214.90113,915.2467 194.89458,933.84427 132.56647,921.16411 C 132.56647,921.16411 127.1801,916.93738 121.79372,921.16411 C 121.79372,921.16411 159.49837,861.98999 214.90113,915.2467 z"
       style="opacity:0.1;fill:url(#radialGradient3328);fill-opacity:1;fill-rule:evenodd;stroke:none;stroke-width:3;stroke-linecap:butt;stroke-linejoin:miter;marker:none;marker-start:none;marker-mid:none;marker-end:none;stroke-miterlimit:4;stroke-dasharray:none;stroke-dashoffset:0;stroke-opacity:1;visibility:visible;display:inline;overflow:visible;enable-background:accumulate" />
    <path
       style="opacity:1;fill:#85b12b;fill-opacity:1;fill-rule:evenodd;stroke:#0a320a;stroke-width:2;stroke-linecap:butt;stroke-linejoin:round;marker:none;marker-start:none;marker-mid:none;marker-end:none;stroke-miterlimit:4;stroke-dasharray:none;stroke-dashoffset:0;stroke-opacity:1;visibility:visible;display:inline;overflow:visible;enable-background:accumulate"
       d="M 214.13164,911.01999 C 214.13164,911.01999 168.73216,880.58759 134.10544,911.86534 C 134.10544,911.86534 167.1932,883.12363 212.59268,916.9374 L 211.82319,916.9374 C 217.20958,915.24671 214.13164,911.01999 214.13164,911.01999 z"
       id="path3316" />
    <path
       style="fill:#002800;fill-rule:evenodd;stroke:none;stroke-width:3;stroke-linecap:butt;stroke-linejoin:miter;stroke-opacity:1;opacity:1;color:#000000;fill-opacity:1;marker:none;marker-start:none;marker-mid:none;marker-end:none;stroke-miterlimit:4;stroke-dasharray:none;stroke-dashoffset:0;visibility:visible;display:inline;overflow:visible;enable-background:accumulate"
       d="M 42.426407,499.97918 C 42.426407,499.97918 27.577164,479.47309 41.7193,454.01724 C 41.7193,454.01724 44.547727,471.69491 74.953319,478.76598 C 74.953319,478.76598 82.024387,473.10913 79.903066,456.84567 C 79.903066,456.84567 115.96551,489.37258 147.78532,490.07969 C 147.78532,490.07969 159.80613,468.15938 156.2706,444.11775 C 156.2706,444.11775 183.84776,472.40202 188.79751,491.4939 C 188.79751,491.4939 199.40411,476.64466 202.23254,457.55278 C 202.23254,457.55278 228.39549,498.56497 240.41631,472.40202 L 217.78889,510.58579 L 36.062446,510.58579 L 42.426407,499.97918 z"
       id="path3380"
       transform="translate(56.847417,735.33378)"
       sodipodi:nodetypes="cccccccccccc" />
    <g
       id="g3112"
       transform="translate(-3,-10)">
      <path
         sodipodi:nodetypes="cssc"
         transform="translate(56.847417,735.33378)"
         id="path2487"
         d="M 109,522 C 109,522 87,445 120,392 C 153,339 190,253 161,182 C 132,111 105,90 125,67"
         style="fill:none;fill-rule:evenodd;stroke-linecap:round;stroke-linejoin:miter;stroke-opacity:1" />
      <use
         style="opacity:1;fill:none;fill-opacity:1;fill-rule:nonzero;stroke:#002800;stroke-width:20;stroke-linecap:butt;stroke-linejoin:miter;marker:none;marker-start:none;marker-mid:none;marker-end:none;stroke-miterlimit:4;stroke-dasharray:none;stroke-dashoffset:0;stroke-opacity:1;visibility:visible;display:inline;overflow:visible;enable-background:accumulate"
         id="use3066"
         xlink:href="#path2487"
         y="0"
         x="0"
         width="256"
         height="512" />
      <use
         style="opacity:1;fill:none;fill-opacity:1;fill-rule:nonzero;stroke:#005000;stroke-width:14;stroke-linecap:butt;stroke-linejoin:miter;marker:none;marker-start:none;marker-mid:none;marker-end:none;stroke-miterlimit:4;stroke-dasharray:none;stroke-dashoffset:0;stroke-opacity:1;visibility:visible;display:inline;overflow:visible;enable-background:accumulate"
         id="use3078"
         xlink:href="#path2487"
         y="0"
         x="0"
         width="256"
         height="512" />
      <use
         style="opacity:1;fill:none;fill-opacity:1;fill-rule:nonzero;stroke:#79a127;stroke-width:8;stroke-linecap:butt;stroke-linejoin:miter;marker:none;marker-start:none;marker-mid:none;marker-end:none;stroke-miterlimit:4;stroke-dasharray:none;stroke-dashoffset:0;stroke-opacity:1;visibility:visible;display:inline;overflow:visible;filter:url(#filter3094);enable-background:accumulate"
         id="use3080"
         xlink:href="#path2487"
         y="0"
         x="0"
         width="256"
         height="512" />
    </g>
    <path
       style="fill:none;fill-rule:evenodd;stroke-linecap:round;stroke-linejoin:miter;stroke-opacity:1"
       d="M 164.84742,1270.3338 C 164.84742,1270.3338 178.84742,1208.3338 173.84742,1174.3338 C 168.84742,1140.3338 137.84742,1068.3338 158.84742,1033.3338 C 179.84742,998.33378 259.84742,976.33378 243.84742,899.33378"
       id="path3102"
       sodipodi:nodetypes="cssc" />
    <use
       height="512"
       width="256"
       x="0"
       y="0"
       xlink:href="#path3102"
       id="use3104"
       style="fill:none;fill-opacity:1;fill-rule:nonzero;stroke:#002800;stroke-width:20;stroke-linecap:butt;stroke-linejoin:miter;marker:none;marker-start:none;marker-mid:none;marker-end:none;stroke-miterlimit:4;stroke-dasharray:none;stroke-dashoffset:0;stroke-opacity:1;visibility:visible;display:inline;overflow:visible;enable-background:accumulate" />
    <use
       height="512"
       width="256"
       x="0"
       y="0"
       xlink:href="#path3102"
       id="use3108"
       style="fill:none;fill-opacity:1;fill-rule:nonzero;stroke:#005000;stroke-width:14;stroke-linecap:butt;stroke-linejoin:miter;marker:none;marker-start:none;marker-mid:none;marker-end:none;stroke-miterlimit:4;stroke-dasharray:none;stroke-dashoffset:0;stroke-opacity:1;visibility:visible;display:inline;overflow:visible;enable-background:accumulate" />
    <use
       height="512"
       width="256"
       x="0"
       y="0"
       xlink:href="#path3102"
       id="use3110"
       style="fill:none;fill-opacity:1;fill-rule:nonzero;stroke:#79a127;stroke-width:8;stroke-linecap:butt;stroke-linejoin:miter;marker:none;marker-start:none;marker-mid:none;marker-end:none;stroke-miterlimit:4;stroke-dasharray:none;stroke-dashoffset:0;stroke-opacity:1;visibility:visible;display:inline;overflow:visible;filter:url(#filter3094);enable-background:accumulate" />
    <g
       id="g3124"
       transform="translate(-3,-10)"
       mask="url(#mask3136)">
      <path
         style="fill:none;fill-rule:evenodd;stroke-linecap:round;stroke-linejoin:miter;stroke-opacity:1"
         d="M 109,522 C 109,522 87,445 120,392 C 153,339 190,253 161,182 C 132,111 105,90 125,67"
         id="path3126"
         transform="translate(56.847417,735.33378)"
         sodipodi:nodetypes="cssc" />
      <use
         x="0"
         y="0"
         xlink:href="#path2487"
         id="use3128"
         style="opacity:1;fill:none;fill-opacity:1;fill-rule:nonzero;stroke:#002800;stroke-width:20;stroke-linecap:butt;stroke-linejoin:miter;marker:none;marker-start:none;marker-mid:none;marker-end:none;stroke-miterlimit:4;stroke-dasharray:none;stroke-dashoffset:0;stroke-opacity:1;visibility:visible;display:inline;overflow:visible;enable-background:accumulate"
         width="256"
         height="512" />
      <use
         x="0"
         y="0"
         xlink:href="#path2487"
         id="use3130"
         style="opacity:1;fill:none;fill-opacity:1;fill-rule:nonzero;stroke:#005000;stroke-width:14;stroke-linecap:butt;stroke-linejoin:miter;marker:none;marker-start:none;marker-mid:none;marker-end:none;stroke-miterlimit:4;stroke-dasharray:none;stroke-dashoffset:0;stroke-opacity:1;visibility:visible;display:inline;overflow:visible;enable-background:accumulate"
         width="256"
         height="512" />
      <use
         x="0"
         y="0"
         xlink:href="#path2487"
         id="use3132"
         style="opacity:1;fill:none;fill-opacity:1;fill-rule:nonzero;stroke:#79a127;stroke-width:8;stroke-linecap:butt;stroke-linejoin:miter;marker:none;marker-start:none;marker-mid:none;marker-end:none;stroke-miterlimit:4;stroke-dasharray:none;stroke-dashoffset:0;stroke-opacity:1;visibility:visible;display:inline;overflow:visible;filter:url(#filter3094);enable-background:accumulate"
         width="256"
         height="512" />
    </g>
    <path
       style="opacity:1;fill:url(#radialGradient3150);fill-opacity:1;fill-rule:evenodd;stroke:#002800;stroke-width:3;stroke-linecap:butt;stroke-linejoin:miter;marker:none;marker-start:none;marker-mid:none;marker-end:none;stroke-miterlimit:4;stroke-dasharray:none;stroke-dashoffset:0;stroke-opacity:1;visibility:visible;display:inline;overflow:visible;enable-background:accumulate"
       d="M 175.74841,1006.7349 C 175.74841,1006.7349 172.14535,1066.4347 85.406791,1033.1897 C 141.12549,959.11436 175.74841,1006.7349 175.74841,1006.7349 z"
       id="path3140" />
    <path
       id="path3144"
       d="M 175.74841,1006.7349 C 175.74841,1006.7349 172.14536,1066.4347 85.406793,1033.1897 C 141.12549,959.11437 175.74841,1006.7349 175.74841,1006.7349 z"
       style="opacity:0.1;fill:url(#radialGradient3146);fill-opacity:1;fill-rule:evenodd;stroke:none;stroke-width:3;stroke-linecap:butt;stroke-linejoin:miter;marker:none;marker-start:none;marker-mid:none;marker-end:none;stroke-miterlimit:4;stroke-dasharray:none;stroke-dashoffset:0;stroke-opacity:1;visibility:visible;display:inline;overflow:visible;enable-background:accumulate" />
    <path
       style="opacity:1;fill:#85b12b;fill-opacity:1;fill-rule:evenodd;stroke:#0a320a;stroke-width:2;stroke-linecap:butt;stroke-linejoin:round;marker:none;marker-start:none;marker-mid:none;marker-end:none;stroke-miterlimit:4;stroke-dasharray:none;stroke-dashoffset:0;stroke-opacity:1;visibility:visible;display:inline;overflow:visible;enable-background:accumulate"
       d="M 175.61248,1009.008 C 175.61248,1009.008 129.92111,1007.0282 98.165003,1027.3886 C 98.165003,1027.3886 134.85096,1001.7494 174.80655,1003.7547 C 174.80655,1003.7547 180.78304,1008.1762 175.61248,1009.008 z"
       id="path3142" />
    <path
       style="opacity:0.2;fill:none;fill-rule:evenodd;stroke:#000000;stroke-width:3.49295092;stroke-linecap:round;stroke-linejoin:miter;stroke-miterlimit:4;stroke-dasharray:none;stroke-opacity:1;filter:url(#filter3222)"
       d="M 70.5,302 C 70.5,302 96,301 112.5,282.5"
       id="path3152"
       transform="matrix(0.9088722,0.2273986,-6.4147028e-2,1.4268369,83.287015,589.69319)" />
    <path
       style="opacity:1;fill:url(#radialGradient3352);fill-opacity:1;fill-rule:evenodd;stroke:#002800;stroke-width:3;stroke-linecap:butt;stroke-linejoin:miter;marker:none;marker-start:none;marker-mid:none;marker-end:none;stroke-miterlimit:4;stroke-dasharray:none;stroke-dashoffset:0;stroke-opacity:1;visibility:visible;display:inline;overflow:visible;enable-background:accumulate"
       d="M 194.84742,1142.8338 C 194.84742,1142.8338 199.34831,1196.5885 137.09742,1243.74 C 115.07831,1206.5911 128.84742,1173.9588 128.84742,1173.9588 C 128.84742,1173.9588 112.47637,1188.2943 102.37867,1217.9588 C 84.335198,1214.0999 66.847417,1221.3025 66.847417,1221.3025 C 66.847417,1221.3025 77.517779,1224.7602 87.628667,1245.8338 L 216.09742,1245.8338 C 220.93745,1206.5748 251.84742,1182.0838 251.84742,1182.0838 C 251.84742,1182.0838 228.66561,1183.2733 205.15992,1204.0213 C 203.58999,1169.8068 194.84742,1142.8338 194.84742,1142.8338 z M 268.84742,1142.8338 C 268.84742,1142.8338 281.09646,1170.5435 272.97242,1222.115 C 266.26874,1210.9455 258.84742,1206.4275 258.84742,1206.4275 C 258.84742,1206.4275 263.68321,1220.4468 257.25367,1242.3025 C 249.16592,1218.1022 246.84742,1201.0213 246.84742,1201.0213 C 245.23688,1209.0108 242.94816,1215.8022 240.28492,1221.615 C 237.47446,1214.8707 234.84742,1213.1775 234.84742,1213.1775 C 234.84742,1213.1775 237.41891,1215.8442 231.15992,1236.5525 C 228.05514,1240.4212 224.88139,1243.4527 221.90992,1245.8338 L 295.90992,1245.8338 C 295.28515,1189.7447 268.84742,1142.8338 268.84742,1142.8338 z"
       id="path3330" />
    <path
       style="opacity:1;fill:url(#radialGradient3372);fill-opacity:1;fill-rule:evenodd;stroke:none;stroke-width:3.07342569000000010;stroke-linecap:butt;stroke-linejoin:miter;marker:none;marker-start:none;marker-mid:none;marker-end:none;stroke-miterlimit:4;stroke-dasharray:none;stroke-dashoffset:0;stroke-opacity:1;visibility:visible;display:inline;overflow:visible;enable-background:accumulate;color:#000000;filter:url(#filter3124)"
       d="M 195.8125,1175.0625 C 187.7647,1200.3485 171.30726,1222.4775 151.46875,1239.8125 C 171.23186,1239.6706 191.69198,1240.3271 211.03125,1239.4688 C 214.1454,1222.5595 222.10047,1206.825 232.6875,1193.4375 C 220.10144,1198.8091 209.36725,1207.4887 199.78125,1217.1875 C 199.2565,1202.8934 198.353,1188.5754 196,1174.5 L 195.8125,1175.0625 z M 281.71875,1192 C 281.48742,1207.9756 278.99949,1223.7735 276.1875,1239.4688 C 273.04298,1234.3464 269.763,1227.5727 266.53125,1223.4375 C 266.32298,1228.9896 265.40814,1234.4399 264.125,1239.8438 C 272.65625,1239.8437 281.1875,1239.8438 289.71875,1239.8438 C 288.98485,1223.756 286.09681,1206.8666 281.71875,1192 z M 117.5625,1198.6562 C 112.81257,1206.9793 109.23731,1215.9185 106.3125,1225.0312 C 97.849244,1222.609 88.811364,1222.122 80.15625,1223.8438 C 84.704365,1228.5547 88.31975,1234.1055 91.34375,1239.8438 C 103.51498,1239.7389 116.31201,1240.0529 128.09375,1239.6875 C 121.55214,1226.4528 118.22605,1211.6616 118.625,1196.8438 C 118.27083,1197.4479 117.91667,1198.0521 117.5625,1198.6562 z M 245.375,1224.875 C 243.58719,1227.8125 241.71929,1235.3162 239.95435,1235.2352 C 238.57514,1229.2374 238.07953,1235.8028 236.8125,1237.875 C 234.27779,1242.1601 244.18619,1238.7595 246.84375,1239.8438 C 253.30169,1241.3814 247.29836,1233.7894 247.34375,1230.5 C 246.66339,1229.9588 246.11392,1223.0493 245.375,1224.875 z"
       id="path3354" />
    <path
       id="path3374"
       d="M 194.84742,1142.8338 C 194.84742,1142.8338 199.34831,1196.5885 137.09742,1243.74 C 115.07831,1206.5911 128.84742,1173.9588 128.84742,1173.9588 C 128.84742,1173.9588 112.47637,1188.2943 102.37867,1217.9588 C 84.335198,1214.0999 66.847417,1221.3025 66.847417,1221.3025 C 66.847417,1221.3025 77.517779,1224.7602 87.628667,1245.8338 L 216.09742,1245.8338 C 220.93745,1206.5748 251.84742,1182.0838 251.84742,1182.0838 C 251.84742,1182.0838 228.66561,1183.2733 205.15992,1204.0213 C 203.58999,1169.8068 194.84742,1142.8338 194.84742,1142.8338 z M 268.84742,1142.8338 C 268.84742,1142.8338 281.09646,1170.5435 272.97242,1222.115 C 266.26874,1210.9455 258.84742,1206.4275 258.84742,1206.4275 C 258.84742,1206.4275 263.68321,1220.4468 257.25367,1242.3025 C 249.16592,1218.1022 246.84742,1201.0213 246.84742,1201.0213 C 245.23688,1209.0108 242.94816,1215.8022 240.28492,1221.615 C 237.47446,1214.8707 234.84742,1213.1775 234.84742,1213.1775 C 234.84742,1213.1775 237.41891,1215.8442 231.15992,1236.5525 C 228.05514,1240.4212 224.88139,1243.4527 221.90992,1245.8338 L 295.90992,1245.8338 C 295.28515,1189.7447 268.84742,1142.8338 268.84742,1142.8338 z"
       style="opacity:0.73476699999999984;fill:url(#linearGradient3378);fill-opacity:1;fill-rule:evenodd;stroke:none;stroke-width:3;stroke-linecap:butt;stroke-linejoin:miter;marker:none;marker-start:none;marker-mid:none;marker-end:none;stroke-miterlimit:4;stroke-dasharray:none;stroke-dashoffset:0;stroke-opacity:1;visibility:visible;display:inline;overflow:visible;enable-background:accumulate;color:#000000" />
    <path
       sodipodi:nodetypes="cc"
       id="path3386"
       d="M 222.84742,997.33378 C 219.84742,981.33378 296.84742,959.33378 290.84742,1049.3338 L 289.84742,1050.3338 C 197.84742,1010.3338 222.84742,997.33378 222.84742,997.33378 z"
       style="opacity:1;fill:url(#radialGradient3390);fill-opacity:1;fill-rule:evenodd;stroke:#002800;stroke-width:3;stroke-linecap:butt;stroke-linejoin:miter;marker:none;marker-start:none;marker-mid:none;marker-end:none;stroke-miterlimit:4;stroke-dasharray:none;stroke-dashoffset:0;stroke-opacity:1;visibility:visible;display:inline;overflow:visible;enable-background:accumulate" />
    <path
       style="opacity:0.1;fill:url(#radialGradient3394);fill-opacity:1;fill-rule:evenodd;stroke:none;stroke-width:3;stroke-linecap:butt;stroke-linejoin:miter;marker:none;marker-start:none;marker-mid:none;marker-end:none;stroke-miterlimit:4;stroke-dasharray:none;stroke-dashoffset:0;stroke-opacity:1;visibility:visible;display:inline;overflow:visible;enable-background:accumulate"
       d="M 222.84742,997.33378 C 219.84742,981.33378 296.84742,959.33378 290.84742,1049.3338 L 289.84742,1050.3338 C 197.84742,1010.3338 222.84742,997.33378 222.84742,997.33378 z"
       id="path3384"
       sodipodi:nodetypes="cc" />
    <path
       style="opacity:1;fill:#85b12b;fill-opacity:1;fill-rule:evenodd;stroke:#0a320a;stroke-width:2;stroke-linecap:butt;stroke-linejoin:round;marker:none;marker-start:none;marker-mid:none;marker-end:none;stroke-miterlimit:4;stroke-dasharray:none;stroke-dashoffset:0;stroke-opacity:1;visibility:visible;display:inline;overflow:visible;enable-background:accumulate"
       d="M 285.84742,1038.3338 C 261.84742,998.33378 218.84742,999.33378 218.84742,999.33378 C 218.84742,999.33378 216.84742,994.33378 222.84742,993.33378 C 222.84742,993.33378 270.84742,1004.3338 285.84742,1038.3338 z"
       id="path3382"
       sodipodi:nodetypes="cccc" />
    <path
       style="fill:#ffa500;fill-opacity:1;fill-rule:evenodd;stroke:#d2691e;stroke-width:3;stroke-linecap:butt;stroke-linejoin:miter;marker:none;marker-start:none;marker-mid:none;marker-end:none;stroke-miterlimit:4;stroke-dashoffset:0;stroke-opacity:1;visibility:visible;display:inline;overflow:visible;enable-background:accumulate"
       d="M 303.20044,921.01248 C 297.30659,936.27193 282.79981,913.4434 269.89519,924.15215 C 256.99056,934.8609 278.00718,952.28731 261.54956,955.57596 C 245.09194,958.86461 258.93674,934.47199 243.33595,929.45935 C 227.73517,924.44672 221.76031,951.368 211.19655,939.3972 C 200.6328,927.4264 228.98437,925.86231 226.28821,910.14092 C 223.59204,894.41954 196.60058,903.91441 202.49444,888.65496 C 208.3883,873.39552 222.89507,896.22405 235.7997,885.5153 C 248.70432,874.80655 227.6877,857.38014 244.14533,854.09148 C 260.60294,850.80284 246.75814,875.19545 262.35893,880.2081 C 277.95972,885.22073 283.93458,858.29945 294.49833,870.27025 C 305.06208,882.24105 276.71052,883.80514 279.40667,899.52652 C 282.10285,915.24791 309.09431,905.75304 303.20044,921.01248 z"
       id="path3398" />
    <path
       style="fill:url(#radialGradient3425);fill-opacity:1;fill-rule:evenodd;stroke:none;stroke-width:3;stroke-linecap:butt;stroke-linejoin:miter;marker:none;marker-start:none;marker-mid:none;marker-end:none;stroke-miterlimit:4;stroke-dashoffset:0;stroke-opacity:1;visibility:visible;display:inline;overflow:visible;enable-background:accumulate"
       d="M 242.3885,858.95765 C 239.84111,863.14432 243.89914,867.93029 244.09931,872.40964 C 246.69483,883.69858 235.31317,895.04761 224.03913,892.22075 C 218.41008,891.57555 213.32596,886.39168 207.54604,887.76288 C 205.35284,889.69211 204.68678,894.63643 208.83819,894.44942 C 217.58486,896.0096 229.33914,899.60452 230.3458,910.06078 C 232.09799,921.30407 220.34538,927.54673 213.13238,933.44731 C 212.15352,937.07297 217.70351,940.53528 219.83868,936.5904 C 226.23071,930.25632 234.78358,922.14876 244.53109,925.58716 C 254.55848,928.42186 256.40317,940.25603 256.43756,949.17666 C 256.69229,953.2452 262.6446,952.59777 263.98406,949.73257 C 264.8767,944.8609 260.95606,940.23005 261.55484,935.16628 C 260.08148,924.34426 271.1745,914.7238 281.72261,917.60997 C 287.07615,918.21867 291.98983,922.04264 297.14128,922.42401 C 300.55608,921.17562 301.24782,914.85581 296.6665,915.17919 C 287.92828,913.59799 276.38974,910.02457 275.30926,899.61261 C 273.79978,888.9879 284.31113,882.24293 291.83815,877.05653 C 294.74213,874.29701 289.54486,869.21651 286.59912,872.24181 C 280.2549,878.76339 272.09105,886.92346 261.98124,884.38012 C 253.51289,882.52012 249.78954,873.47152 249.68321,865.51204 C 248.98743,862.86532 250.03755,856.19215 245.31707,857.92138 C 244.33423,858.20588 243.24761,858.38298 242.3885,858.95765 z"
       id="path3409" />
    <path
       sodipodi:type="arc"
       style="opacity:1;fill:url(#radialGradient3439);fill-opacity:1;fill-rule:evenodd;stroke:none;stroke-width:3;stroke-linecap:butt;stroke-linejoin:miter;marker:none;marker-start:none;marker-mid:none;marker-end:none;stroke-miterlimit:4;stroke-dasharray:none;stroke-dashoffset:0;stroke-opacity:1;visibility:visible;display:inline;overflow:visible;filter:url(#filter3124);enable-background:accumulate"
       id="path3396"
       sodipodi:cx="383.5"
       sodipodi:cy="509"
       sodipodi:rx="22.5"
       sodipodi:ry="21"
       d="M 406,509 A 22.5,21 0 1 1 361,509 A 22.5,21 0 1 1 406,509 z"
       transform="matrix(0.8076881,-0.371165,0.3976768,0.86538,-262.39586,607.11072)" />
    <path
       id="path3441"
       d="M 144.17617,876.4603 C 165.38992,886.28702 157.62102,848.42427 181.51864,846.61304 C 205.41626,844.80183 201.12979,883.57824 221.30797,870.61441 C 241.48612,857.65059 203.03011,846.33486 214.08206,825.69207 C 225.13402,805.04929 258.0148,826.7784 256.97921,803.98788 C 255.94363,781.19734 225.25649,807.74433 212.41083,788.91278 C 199.56518,770.08119 236.73242,753.03395 215.51867,743.20725 C 194.30492,733.38056 202.07382,771.24329 178.1762,773.05451 C 154.27856,774.86571 158.56504,736.08932 138.38688,749.05315 C 118.20872,762.017 156.66473,773.33272 145.61277,793.9755 C 134.56079,814.61828 101.68003,792.88915 102.71562,815.67968 C 103.75121,838.47023 134.43834,811.92321 147.284,830.75479 C 160.12963,849.58634 122.96242,866.63363 144.17617,876.4603 z"
       style="fill:#ffa500;fill-opacity:1;fill-rule:evenodd;stroke:#d2691e;stroke-width:2.99999976;stroke-linecap:butt;stroke-linejoin:miter;marker:none;marker-start:none;marker-mid:none;marker-end:none;stroke-miterlimit:4;stroke-dashoffset:0;stroke-opacity:1;visibility:visible;display:inline;overflow:visible;enable-background:accumulate" />
    <path
       id="path3443"
       d="M 145.02569,752.30864 C 151.80198,754.08091 152.38597,763.0284 156.62967,767.82983 C 165.17595,782.00699 188.1446,782.36605 196.92162,768.26583 C 202.06504,762.013 202.14022,751.63773 209.44157,747.30699 C 213.61157,747.11141 219.20724,751.53041 214.75558,755.46076 C 207.3174,765.74965 198.8098,781.11597 208.16167,792.85973 C 217.52921,806.1525 235.80682,800.89626 249.07985,799.79649 C 253.68711,802.54993 251.42318,811.61889 245.31065,809.68572 C 232.45064,809.52479 215.60857,809.68733 209.00763,822.90003 C 201.5194,835.77034 211.37881,849.76214 220.2044,858.96248 C 223.98397,863.39599 217.22438,868.6416 213.00195,867.02766 C 207.24564,862.90829 206.67454,854.25663 201.02936,849.64808 C 191.79377,837.06503 170.83872,838.1955 162.86655,851.6358 C 157.96999,857.57753 156.71916,866.3862 151.80445,871.89366 C 147.05543,874.00194 140.06711,868.19507 145.09597,863.97793 C 152.5046,853.67585 160.81187,838.54583 151.57987,826.77429 C 142.57736,814.35814 125.07628,817.86564 112.18996,820.01107 C 106.46486,820.05936 106.75897,809.67792 112.79099,809.86126 C 125.78812,810.26234 142.28261,810.54004 150.1449,797.88724 C 156.99926,787.56668 151.83727,774.57155 144.04033,766.28738 C 142.12629,762.87686 134.41869,757.06281 140.98703,754.15202 C 142.27954,753.46835 143.57206,752.57127 145.02569,752.30864 z"
       style="fill:url(#radialGradient3447);fill-opacity:1;fill-rule:evenodd;stroke:none;stroke-width:3;stroke-linecap:butt;stroke-linejoin:miter;marker:none;marker-start:none;marker-mid:none;marker-end:none;stroke-miterlimit:4;stroke-dashoffset:0;stroke-opacity:1;visibility:visible;display:inline;overflow:visible;enable-background:accumulate" />
    <path
       transform="matrix(-1.1986452,0.4206811,0.4509439,1.2841104,410.35187,-6.0738847)"
       d="M 406,509 A 22.5,21 0 1 1 361,509 A 22.5,21 0 1 1 406,509 z"
       sodipodi:ry="21"
       sodipodi:rx="22.5"
       sodipodi:cy="509"
       sodipodi:cx="383.5"
       id="path3445"
       style="opacity:1;fill:url(#radialGradient3449);fill-opacity:1;fill-rule:evenodd;stroke:none;stroke-width:3;stroke-linecap:butt;stroke-linejoin:miter;marker:none;marker-start:none;marker-mid:none;marker-end:none;stroke-miterlimit:4;stroke-dasharray:none;stroke-dashoffset:0;stroke-opacity:1;visibility:visible;display:inline;overflow:visible;filter:url(#filter3124);enable-background:accumulate"
       sodipodi:type="arc" />
    <path
       sodipodi:nodetypes="cccccssssccc"
       id="path2945"
       d="M 161.59179,1072.2745 C 217.20652,1052.6478 239.17485,1120.9579 239.17485,1120.9579 C 233.91858,1120.4519 228.94985,1119.8453 224.22218,1119.1497 C 212.82173,1106.5827 203.08587,1099.3955 222.18453,1118.8487 C 213.61397,1117.5152 205.93889,1115.8397 199.09995,1113.8117 C 198.69662,1113.0975 198.29277,1112.3945 197.92198,1111.7877 C 196.42596,1109.34 194.26502,1106.582 192.10373,1104.6843 C 191.04131,1103.7514 190.23628,1102.4531 188.9165,1101.8856 C 188.79815,1101.8346 190.50053,1104.1332 191.64881,1107.0275 C 192.29789,1108.6635 192.86985,1110.3336 193.45479,1111.9793 C 171.55387,1104.2724 159.57884,1092.1816 156.10849,1074.4491 C 157.97292,1073.6277 159.79777,1072.9077 161.59179,1072.2745 z"
       style="fill:url(#radialGradient3187);fill-opacity:1;fill-rule:evenodd;stroke:#003c00;stroke-width:3.00000072;stroke-linecap:butt;stroke-linejoin:miter;stroke-miterlimit:4;stroke-dasharray:none;stroke-opacity:1" />
    <path
       style="opacity:0.1;fill:url(#radialGradient3195);fill-opacity:1;fill-rule:evenodd;stroke:none;stroke-width:3.00000024;stroke-linecap:butt;stroke-linejoin:miter;stroke-miterlimit:4;stroke-dasharray:none;stroke-opacity:1"
       d="M 161.59173,1072.2744 C 217.20649,1052.6477 239.17479,1120.9576 239.17479,1120.9576 C 233.91852,1120.4517 228.94984,1119.8453 224.22217,1119.1497 C 212.8217,1106.5826 203.08586,1099.3954 222.1845,1118.8486 C 213.61396,1117.5152 205.93888,1115.8396 199.09992,1113.8116 C 198.69659,1113.0975 198.29277,1112.3944 197.92197,1111.7877 C 196.42593,1109.3399 194.26501,1106.5819 192.10367,1104.684 C 191.04125,1103.7511 190.23625,1102.453 188.91644,1101.8854 C 188.79814,1101.8347 190.5005,1104.1331 191.64878,1107.0273 C 192.29784,1108.6633 192.86984,1110.3336 193.45479,1111.9792 C 171.55381,1104.2723 159.5788,1092.1815 156.10844,1074.4489 C 157.9729,1073.6276 159.79771,1072.9075 161.59173,1072.2744 z"
       id="path3193"
       sodipodi:nodetypes="cccccssssccc" />
    <path
       sodipodi:nodetypes="cccc"
       id="path2943"
       d="M 157.73368,1073.0004 C 152.51959,1074.4112 157.98454,1075.3119 157.98454,1075.3119 C 157.86813,1074.5325 199.09997,1070.9533 231.23205,1113.7342 C 231.23205,1113.7342 204.7766,1070.5178 157.73368,1073.0004 z"
       style="fill:#85b12b;fill-opacity:1;fill-rule:evenodd;stroke:#063606;stroke-width:2;stroke-linecap:butt;stroke-linejoin:round;stroke-miterlimit:4;stroke-dasharray:none;stroke-opacity:1" />
    <path
       transform="matrix(-0.4046527,0.1433589,0.1518104,0.3826382,158.82072,778.24916)"
       sodipodi:nodetypes="ccccccscccscccccc"
       id="path3024"
       d="M 260.46875,676.5 C 262.03659,713.02684 244.47704,752.08113 211.53125,783.28125 C 211.59398,786.46996 211.73398,789.649 211.84375,792.8125 C 252.6715,757.37442 268.22422,719.94875 260.5,676.5 C 260.48955,676.49919 260.4792,676.50081 260.46875,676.5 z M 203.03125,790.875 C 194.50879,798.04233 185.11627,804.70362 174.90625,810.71875 C 170.31703,813.42244 165.66974,815.92674 160.96875,818.25 C 159.39266,822.25366 157.65189,826.63208 155.5,831.875 C 172.92352,821.86199 188.1129,811.79243 201.1875,801.59375 C 201.44756,799.62993 201.71813,797.69123 202,796 C 202.2745,794.35301 202.62604,792.6224 203.03125,790.875 z M 156.71875,820.3125 C 143.31804,832.37211 133.12164,842.21862 120.90625,845.40625 C 120.5835,855.92964 120.5,850.5 120.5,850.5 C 131.45392,845.07375 141.69823,839.65036 151.34375,834.21875 C 153.14091,829.29862 154.97532,824.62222 156.71875,820.3125 z"
       style="opacity:0.4;fill:url(#linearGradient5207-778);fill-opacity:1;fill-rule:evenodd;stroke:none;stroke-width:1;stroke-linecap:butt;stroke-linejoin:miter;stroke-miterlimit:4;stroke-dasharray:none;stroke-opacity:1;filter:url(#filter3129)" />
  </g>
</svg>
