<?xml version="1.0" encoding="UTF-8" standalone="no"?>
<!-- Created with Inkscape (http://www.inkscape.org/) -->
<svg
   xmlns:dc="http://purl.org/dc/elements/1.1/"
   xmlns:cc="http://creativecommons.org/ns#"
   xmlns:rdf="http://www.w3.org/1999/02/22-rdf-syntax-ns#"
   xmlns:svg="http://www.w3.org/2000/svg"
   xmlns="http://www.w3.org/2000/svg"
   xmlns:sodipodi="http://sodipodi.sourceforge.net/DTD/sodipodi-0.dtd"
   xmlns:inkscape="http://www.inkscape.org/namespaces/inkscape"
   width="128"
   height="256"
   id="svg2"
   sodipodi:version="0.32"
   inkscape:version="0.46"
   version="1.0"
   sodipodi:docname="door.svg"
   inkscape:output_extension="org.inkscape.output.svg.inkscape"
   inkscape:export-filename="/home/needcoffee/Desktop/smc-graphics/door/back.png"
   inkscape:export-xdpi="90"
   inkscape:export-ydpi="90"
   sodipodi:docbase="D:\Dateien\Desktop\Secret Maryo Chronicles\Drafts\Game\needcoffee\level\door">
  <defs
     id="defs4" />
  <sodipodi:namedview
     id="base"
     pagecolor="#000000"
     bordercolor="#666666"
     borderopacity="1.0"
     inkscape:pageopacity="0"
     inkscape:pageshadow="2"
     inkscape:zoom="0.7071068"
     inkscape:cx="235.06044"
     inkscape:cy="179.84343"
     inkscape:document-units="px"
     inkscape:current-layer="g2384"
     showgrid="false"
     width="128px"
     inkscape:showpageshadow="false"
     showguides="true"
     inkscape:guide-bbox="true"
     inkscape:window-width="922"
     inkscape:window-height="741"
     inkscape:window-x="194"
     inkscape:window-y="143" />
  <metadata
     id="metadata7">
    <rdf:RDF>
      <cc:Work
         rdf:about="">
        <dc:format>image/svg+xml</dc:format>
        <dc:type
           rdf:resource="http://purl.org/dc/dcmitype/StillImage" />
      </cc:Work>
      <cc:Work
         rdf:about="">
        <dc:format>image/svg+xml</dc:format>
        <dc:type
           rdf:resource="http://purl.org/dc/dcmitype/StillImage" />
      </cc:Work>
    </rdf:RDF>
  </metadata>
  <g
     inkscape:label="Ebene 1"
     inkscape:groupmode="layer"
     id="layer1">
    <path
       style="opacity:1;fill:#000000;fill-opacity:1;stroke:none;stroke-width:1.99999988000000006;stroke-linecap:round;stroke-linejoin:miter;stroke-miterlimit:4;stroke-dasharray:none;stroke-opacity:1"
       d="M 64,1 C 30.990537,1 1,26.643098 1,58.928571 L 1,255 L 127,255 C 127.93033,187.21596 127,58.928571 127,58.928571 C 127,26.71429 97.746271,1 64,1 z"
       id="rect2384"
       sodipodi:nodetypes="cccccz" />
    <g
       id="g2415">
      <path
         sodipodi:nodetypes="ccccc"
         style="fill:#d2691e;fill-opacity:1;stroke:none;stroke-width:1.99999988;stroke-linecap:round;stroke-linejoin:miter;stroke-miterlimit:4;stroke-opacity:1"
         d="M 62.203603,5.21875 C 32.321147,5.21875 5.21875,29.263847 5.21875,58.9375 L 5.21875,250.78125 L 62.21875,250.78125 C 62.21875,250.78125 62.203603,5.21875 62.203603,5.21875 z"
         id="path2973" />
      <path
         id="path3101"
         d="M 56.09375,13.3125 C 39.530422,15.397005 24.550824,25.593396 16.875,39.53125 L 56.09375,39.53125 C 56.09375,29.466305 56.09375,18.955618 56.09375,13.3125 z"
         style="fill:#8b4513;fill-opacity:1;stroke:none;stroke-width:2;stroke-linecap:round;stroke-linejoin:miter;stroke-miterlimit:4;stroke-dasharray:none;stroke-opacity:1" />
      <path
         id="path3099"
         d="M 11.9375,49.9375 L 11.9375,118.84375 L 55.5,118.84375 L 55.5,49.9375 L 11.9375,49.9375 z"
         style="fill:#8b4513;fill-opacity:1;stroke:none;stroke-width:2;stroke-linecap:round;stroke-linejoin:miter;stroke-miterlimit:4;stroke-dasharray:none;stroke-opacity:1" />
      <path
         id="path3095"
         d="M 11.9375,129.5625 L 11.9375,170.28125 L 55.5,170.28125 L 55.5,129.5625 L 11.9375,129.5625 z"
         style="fill:#8b4513;fill-opacity:1;stroke:none;stroke-width:2;stroke-linecap:round;stroke-linejoin:miter;stroke-miterlimit:4;stroke-dasharray:none;stroke-opacity:1" />
      <path
         id="path3091"
         d="M 11.9375,182.4375 L 11.9375,242.78125 L 55.5,242.78125 L 55.5,182.4375 L 11.9375,182.4375 z"
         style="fill:#8b4513;fill-opacity:1;stroke:none;stroke-width:2;stroke-linecap:round;stroke-linejoin:miter;stroke-miterlimit:4;stroke-dasharray:none;stroke-opacity:1" />
      <path
         id="path3184"
         d="M 56.09375,13.3125 C 39.530422,15.397005 24.550824,25.593396 16.875,39.53125 L 20.0625,39.53125 C 27.6903,27.176213 41.130666,18.113969 56.09375,15.625 C 56.09375,15.055189 56.09375,13.810224 56.09375,13.3125 z"
         style="fill:#50270a;fill-opacity:1;stroke:none;stroke-width:2;stroke-linecap:round;stroke-linejoin:miter;stroke-miterlimit:4;stroke-dasharray:none;stroke-opacity:1" />
      <path
         id="path3182"
         d="M 11.9375,49.9375 L 11.9375,118.84375 L 13.9375,118.84375 L 13.9375,51.9375 L 55.5,51.9375 L 55.5,49.9375 L 11.9375,49.9375 z"
         style="fill:#50270a;fill-opacity:1;stroke:none;stroke-width:2;stroke-linecap:round;stroke-linejoin:miter;stroke-miterlimit:4;stroke-dasharray:none;stroke-opacity:1" />
      <path
         id="path3178"
         d="M 11.9375,129.5625 L 11.9375,170.28125 L 13.9375,170.28125 L 13.9375,131.5625 L 55.5,131.5625 L 55.5,129.5625 L 11.9375,129.5625 z"
         style="fill:#50270a;fill-opacity:1;stroke:none;stroke-width:2;stroke-linecap:round;stroke-linejoin:miter;stroke-miterlimit:4;stroke-dasharray:none;stroke-opacity:1" />
      <path
         id="path3174"
         d="M 11.9375,182.4375 L 11.9375,242.78125 L 13.9375,242.78125 L 13.9375,184.4375 L 55.5,184.4375 L 55.5,182.4375 L 11.9375,182.4375 z"
         style="fill:#50270a;fill-opacity:1;stroke:none;stroke-width:2;stroke-linecap:round;stroke-linejoin:miter;stroke-miterlimit:4;stroke-dasharray:none;stroke-opacity:1" />
      <path
         id="path3059"
         d="M 39.597978,227.18539 C 39.597978,230.40556 37.063707,233.01903 33.941124,233.01903 C 30.81854,233.01903 28.28427,230.40556 28.28427,227.18539 C 28.28427,223.96523 30.81854,221.35176 33.941124,221.35176 C 37.063707,221.35176 39.597978,223.96523 39.597978,227.18539 z"
         style="fill:#50270a;fill-opacity:1;stroke:none;stroke-width:2;stroke-linecap:round;stroke-linejoin:miter;stroke-miterlimit:4;stroke-opacity:1"
         transform="matrix(0.8838835,0,0,0.8570991,3.739539,33.298625)" />
      <path
         id="path3061"
         d="M 39.597978,227.18539 C 39.597978,230.40556 37.063707,233.01903 33.941124,233.01903 C 30.81854,233.01903 28.28427,230.40556 28.28427,227.18539 C 28.28427,223.96523 30.81854,221.35176 33.941124,221.35176 C 37.063707,221.35176 39.597978,223.96523 39.597978,227.18539 z"
         style="fill:#d2691e;fill-opacity:1;stroke:none;stroke-width:2;stroke-linecap:round;stroke-linejoin:miter;stroke-miterlimit:4;stroke-opacity:1"
         transform="matrix(0.7071068,0,0,0.6856793,9.114539,71.7427)" />
      <path
         id="path3063"
         d="M 39.597978,227.18539 C 39.597978,230.40556 37.063707,233.01903 33.941124,233.01903 C 30.81854,233.01903 28.28427,230.40556 28.28427,227.18539 C 28.28427,223.96523 30.81854,221.35176 33.941124,221.35176 C 37.063707,221.35176 39.597978,223.96523 39.597978,227.18539 z"
         style="fill:#f4a460;fill-opacity:1;stroke:none;stroke-width:2;stroke-linecap:round;stroke-linejoin:miter;stroke-miterlimit:4;stroke-opacity:1"
         transform="matrix(0.243068,0,0,0.2357023,23.489538,172.5959)" />
      <path
         id="path3065"
         d="M 39.597978,227.18539 C 39.597978,230.40556 37.063707,233.01903 33.941124,233.01903 C 30.81854,233.01903 28.28427,230.40556 28.28427,227.18539 C 28.28427,223.96523 30.81854,221.35176 33.941124,221.35176 C 37.063707,221.35176 39.597978,223.96523 39.597978,227.18539 z"
         style="fill:#50270a;fill-opacity:1;stroke:none;stroke-width:2;stroke-linecap:round;stroke-linejoin:miter;stroke-miterlimit:4;stroke-opacity:1"
         transform="matrix(0.8838835,0,0,0.8570991,3.739539,6.798625)" />
      <path
         id="path3067"
         d="M 39.597978,227.18539 C 39.597978,230.40556 37.063707,233.01903 33.941124,233.01903 C 30.81854,233.01903 28.28427,230.40556 28.28427,227.18539 C 28.28427,223.96523 30.81854,221.35176 33.941124,221.35176 C 37.063707,221.35176 39.597978,223.96523 39.597978,227.18539 z"
         style="fill:#d2691e;fill-opacity:1;stroke:none;stroke-width:2;stroke-linecap:round;stroke-linejoin:miter;stroke-miterlimit:4;stroke-opacity:1"
         transform="matrix(0.7071068,0,0,0.6856793,9.114539,45.2427)" />
      <path
         id="path3069"
         d="M 39.597978,227.18539 C 39.597978,230.40556 37.063707,233.01903 33.941124,233.01903 C 30.81854,233.01903 28.28427,230.40556 28.28427,227.18539 C 28.28427,223.96523 30.81854,221.35176 33.941124,221.35176 C 37.063707,221.35176 39.597978,223.96523 39.597978,227.18539 z"
         style="fill:#f4a460;fill-opacity:1;stroke:none;stroke-width:2;stroke-linecap:round;stroke-linejoin:miter;stroke-miterlimit:4;stroke-opacity:1"
         transform="matrix(0.243068,0,0,0.2357023,23.489538,146.0959)" />
      <path
         id="path3071"
         d="M 39.597978,227.18539 C 39.597978,230.40556 37.063707,233.01903 33.941124,233.01903 C 30.81854,233.01903 28.28427,230.40556 28.28427,227.18539 C 28.28427,223.96523 30.81854,221.35176 33.941124,221.35176 C 37.063707,221.35176 39.597978,223.96523 39.597978,227.18539 z"
         style="fill:#50270a;fill-opacity:1;stroke:none;stroke-width:2;stroke-linecap:round;stroke-linejoin:miter;stroke-miterlimit:4;stroke-opacity:1"
         transform="matrix(0.8838835,0,0,0.8570991,3.739539,-44.701375)" />
      <path
         id="path3073"
         d="M 39.597978,227.18539 C 39.597978,230.40556 37.063707,233.01903 33.941124,233.01903 C 30.81854,233.01903 28.28427,230.40556 28.28427,227.18539 C 28.28427,223.96523 30.81854,221.35176 33.941124,221.35176 C 37.063707,221.35176 39.597978,223.96523 39.597978,227.18539 z"
         style="fill:#d2691e;fill-opacity:1;stroke:none;stroke-width:2;stroke-linecap:round;stroke-linejoin:miter;stroke-miterlimit:4;stroke-opacity:1"
         transform="matrix(0.7071068,0,0,0.6856793,9.114539,-6.2573)" />
      <path
         id="path3075"
         d="M 39.597978,227.18539 C 39.597978,230.40556 37.063707,233.01903 33.941124,233.01903 C 30.81854,233.01903 28.28427,230.40556 28.28427,227.18539 C 28.28427,223.96523 30.81854,221.35176 33.941124,221.35176 C 37.063707,221.35176 39.597978,223.96523 39.597978,227.18539 z"
         style="fill:#f4a460;fill-opacity:1;stroke:none;stroke-width:2;stroke-linecap:round;stroke-linejoin:miter;stroke-miterlimit:4;stroke-opacity:1"
         transform="matrix(0.243068,0,0,0.2357023,23.489538,94.5959)" />
      <path
         id="path3077"
         d="M 39.597978,227.18539 C 39.597978,230.40556 37.063707,233.01903 33.941124,233.01903 C 30.81854,233.01903 28.28427,230.40556 28.28427,227.18539 C 28.28427,223.96523 30.81854,221.35176 33.941124,221.35176 C 37.063707,221.35176 39.597978,223.96523 39.597978,227.18539 z"
         style="fill:#50270a;fill-opacity:1;stroke:none;stroke-width:2;stroke-linecap:round;stroke-linejoin:miter;stroke-miterlimit:4;stroke-opacity:1"
         transform="matrix(0.8838835,0,0,0.8570991,3.739539,-94.201375)" />
      <path
         id="path3079"
         d="M 39.597978,227.18539 C 39.597978,230.40556 37.063707,233.01903 33.941124,233.01903 C 30.81854,233.01903 28.28427,230.40556 28.28427,227.18539 C 28.28427,223.96523 30.81854,221.35176 33.941124,221.35176 C 37.063707,221.35176 39.597978,223.96523 39.597978,227.18539 z"
         style="fill:#d2691e;fill-opacity:1;stroke:none;stroke-width:2;stroke-linecap:round;stroke-linejoin:miter;stroke-miterlimit:4;stroke-opacity:1"
         transform="matrix(0.7071068,0,0,0.6856793,9.114539,-55.7573)" />
      <path
         id="path3081"
         d="M 39.597978,227.18539 C 39.597978,230.40556 37.063707,233.01903 33.941124,233.01903 C 30.81854,233.01903 28.28427,230.40556 28.28427,227.18539 C 28.28427,223.96523 30.81854,221.35176 33.941124,221.35176 C 37.063707,221.35176 39.597978,223.96523 39.597978,227.18539 z"
         style="fill:#f4a460;fill-opacity:1;stroke:none;stroke-width:2;stroke-linecap:round;stroke-linejoin:miter;stroke-miterlimit:4;stroke-opacity:1"
         transform="matrix(0.243068,0,0,0.2357023,23.489538,45.0959)" />
      <path
         id="path3083"
         d="M 39.597978,227.18539 C 39.597978,230.40556 37.063707,233.01903 33.941124,233.01903 C 30.81854,233.01903 28.28427,230.40556 28.28427,227.18539 C 28.28427,223.96523 30.81854,221.35176 33.941124,221.35176 C 37.063707,221.35176 39.597978,223.96523 39.597978,227.18539 z"
         style="fill:#50270a;fill-opacity:1;stroke:none;stroke-width:2;stroke-linecap:round;stroke-linejoin:miter;stroke-miterlimit:4;stroke-opacity:1"
         transform="matrix(0.8838835,0,0,0.8570991,3.739539,-120.70138)" />
      <path
         id="path3085"
         d="M 39.597978,227.18539 C 39.597978,230.40556 37.063707,233.01903 33.941124,233.01903 C 30.81854,233.01903 28.28427,230.40556 28.28427,227.18539 C 28.28427,223.96523 30.81854,221.35176 33.941124,221.35176 C 37.063707,221.35176 39.597978,223.96523 39.597978,227.18539 z"
         style="fill:#d2691e;fill-opacity:1;stroke:none;stroke-width:2;stroke-linecap:round;stroke-linejoin:miter;stroke-miterlimit:4;stroke-opacity:1"
         transform="matrix(0.7071068,0,0,0.6856793,9.114539,-82.2573)" />
      <path
         id="path3087"
         d="M 39.597978,227.18539 C 39.597978,230.40556 37.063707,233.01903 33.941124,233.01903 C 30.81854,233.01903 28.28427,230.40556 28.28427,227.18539 C 28.28427,223.96523 30.81854,221.35176 33.941124,221.35176 C 37.063707,221.35176 39.597978,223.96523 39.597978,227.18539 z"
         style="fill:#f4a460;fill-opacity:1;stroke:none;stroke-width:2;stroke-linecap:round;stroke-linejoin:miter;stroke-miterlimit:4;stroke-opacity:1"
         transform="matrix(0.243068,0,0,0.2357023,23.489538,18.5959)" />
      <path
         id="path3170"
         d="M 56.09375,13.3125 C 55.42509,13.396651 54.756871,13.514696 54.09375,13.625 C 54.09375,19.515615 54.09375,28.354036 54.09375,37.53125 L 18.0625,37.53125 C 17.654716,38.191753 17.248802,38.852496 16.875,39.53125 L 56.09375,39.53125 C 56.09375,29.466305 56.09375,18.955618 56.09375,13.3125 z"
         style="fill:#f4a460;fill-opacity:1;stroke:none;stroke-width:2;stroke-linecap:round;stroke-linejoin:miter;stroke-miterlimit:4;stroke-dasharray:none;stroke-opacity:1" />
      <path
         id="path3166"
         d="M 53.5,49.9375 L 53.5,116.84375 L 11.9375,116.84375 L 11.9375,118.84375 L 55.5,118.84375 L 55.5,49.9375 L 53.5,49.9375 z"
         style="fill:#f4a460;fill-opacity:1;stroke:none;stroke-width:2;stroke-linecap:round;stroke-linejoin:miter;stroke-miterlimit:4;stroke-dasharray:none;stroke-opacity:1" />
      <path
         id="path3162"
         d="M 53.5,129.5625 L 53.5,168.28125 L 11.9375,168.28125 L 11.9375,170.28125 L 55.5,170.28125 L 55.5,129.5625 L 53.5,129.5625 z"
         style="fill:#f4a460;fill-opacity:1;stroke:none;stroke-width:2;stroke-linecap:round;stroke-linejoin:miter;stroke-miterlimit:4;stroke-dasharray:none;stroke-opacity:1" />
      <path
         id="path3158"
         d="M 53.5,182.4375 L 53.5,240.78125 L 11.9375,240.78125 L 11.9375,242.78125 L 55.5,242.78125 L 55.5,182.4375 L 53.5,182.4375 z"
         style="fill:#f4a460;fill-opacity:1;stroke:none;stroke-width:2;stroke-linecap:round;stroke-linejoin:miter;stroke-miterlimit:4;stroke-dasharray:none;stroke-opacity:1" />
      <path
         id="path3105"
         d="M 62.21875,5.21875 C 61.14854,5.21875 60.061961,5.2516635 59,5.3125 L 59,250.78125 L 62.21875,250.78125 C 62.21875,250.78125 62.21875,5.21875 62.21875,5.21875 z"
         style="fill:#50270a;fill-opacity:1;stroke:none;stroke-width:1.99999988;stroke-linecap:round;stroke-linejoin:miter;stroke-miterlimit:4;stroke-opacity:1" />
    </g>
    <g
       id="g2384">
      <path
         sodipodi:nodetypes="ccccsc"
         id="path2970"
         d="M 66.142857,5.21875 L 66.157906,250.78125 L 122.78699,250.78125 C 123.60489,182.26225 122.75689,58.96875 122.75689,58.96875 C 122.75685,58.958333 122.75685,58.947917 122.75689,58.9375 C 122.75689,29.276503 96.580734,5.21875 66.142857,5.21875 z"
         style="fill:#d2691e;fill-opacity:1;stroke:none;stroke-width:1.99999988;stroke-linecap:round;stroke-linejoin:miter;stroke-miterlimit:4;stroke-opacity:1" />
      <path
         id="path3103"
         d="M 72.28125,13.28125 L 72.28125,39.53125 L 111.28125,39.53125 C 103.81811,25.518881 89.149728,15.323836 72.28125,13.28125 z"
         style="fill:#8b4513;fill-opacity:1;stroke:none;stroke-width:2;stroke-linecap:round;stroke-linejoin:miter;stroke-miterlimit:4;stroke-dasharray:none;stroke-opacity:1" />
      <path
         id="path3097"
         d="M 72.84375,49.9375 L 72.84375,118.84375 L 116.4375,118.84375 L 116.4375,49.9375 L 72.84375,49.9375 z"
         style="fill:#8b4513;fill-opacity:1;stroke:none;stroke-width:2;stroke-linecap:round;stroke-linejoin:miter;stroke-miterlimit:4;stroke-dasharray:none;stroke-opacity:1" />
      <path
         id="path3093"
         d="M 72.84375,129.5625 L 72.84375,170.28125 L 116.4375,170.28125 L 116.4375,129.5625 L 72.84375,129.5625 z"
         style="fill:#8b4513;fill-opacity:1;stroke:none;stroke-width:2;stroke-linecap:round;stroke-linejoin:miter;stroke-miterlimit:4;stroke-dasharray:none;stroke-opacity:1" />
      <path
         id="rect2975"
         d="M 72.84375,182.4375 L 72.84375,242.78125 L 116.4375,242.78125 L 116.4375,182.4375 L 72.84375,182.4375 z"
         style="fill:#8b4513;fill-opacity:1;stroke:none;stroke-width:2;stroke-linecap:round;stroke-linejoin:miter;stroke-miterlimit:4;stroke-dasharray:none;stroke-opacity:1" />
      <path
         id="path3186"
         d="M 72.28125,13.28125 L 72.28125,39.53125 L 74.28125,39.53125 L 74.28125,15.28125 C 85.54505,16.645172 95.813355,21.656753 103.625,29 C 95.611542,20.571442 84.537225,14.765313 72.28125,13.28125 z"
         style="fill:#50270a;fill-opacity:1;stroke:none;stroke-width:2;stroke-linecap:round;stroke-linejoin:miter;stroke-miterlimit:4;stroke-dasharray:none;stroke-opacity:1" />
      <path
         id="path3180"
         d="M 72.84375,49.9375 L 72.84375,118.84375 L 74.84375,118.84375 L 74.84375,51.9375 L 116.4375,51.9375 L 116.4375,49.9375 L 72.84375,49.9375 z"
         style="fill:#50270a;fill-opacity:1;stroke:none;stroke-width:2;stroke-linecap:round;stroke-linejoin:miter;stroke-miterlimit:4;stroke-dasharray:none;stroke-opacity:1" />
      <path
         id="path3176"
         d="M 72.84375,129.5625 L 72.84375,170.28125 L 74.84375,170.28125 L 74.84375,131.5625 L 116.4375,131.5625 L 116.4375,129.5625 L 72.84375,129.5625 z"
         style="fill:#50270a;fill-opacity:1;stroke:none;stroke-width:2;stroke-linecap:round;stroke-linejoin:miter;stroke-miterlimit:4;stroke-dasharray:none;stroke-opacity:1" />
      <path
         id="path3008"
         d="M 72.84375,182.4375 L 72.84375,242.78125 L 74.84375,242.78125 L 74.84375,184.4375 L 116.4375,184.4375 L 116.4375,182.4375 L 72.84375,182.4375 z"
         style="fill:#50270a;fill-opacity:1;stroke:none;stroke-width:2;stroke-linecap:round;stroke-linejoin:miter;stroke-miterlimit:4;stroke-dasharray:none;stroke-opacity:1" />
      <path
         id="path3013"
         d="M 39.597978,227.18539 C 39.597978,230.40556 37.063707,233.01903 33.941124,233.01903 C 30.81854,233.01903 28.28427,230.40556 28.28427,227.18539 C 28.28427,223.96523 30.81854,221.35176 33.941124,221.35176 C 37.063707,221.35176 39.597978,223.96523 39.597978,227.18539 z"
         style="fill:#50270a;fill-opacity:1;stroke:none;stroke-width:2;stroke-linecap:round;stroke-linejoin:miter;stroke-miterlimit:4;stroke-opacity:1"
         transform="matrix(0.8838835,0,0,0.8570991,64.239539,33.298625)" />
      <path
         id="path3031"
         d="M 39.597978,227.18539 C 39.597978,230.40556 37.063707,233.01903 33.941124,233.01903 C 30.81854,233.01903 28.28427,230.40556 28.28427,227.18539 C 28.28427,223.96523 30.81854,221.35176 33.941124,221.35176 C 37.063707,221.35176 39.597978,223.96523 39.597978,227.18539 z"
         style="fill:#d2691e;fill-opacity:1;stroke:none;stroke-width:2;stroke-linecap:round;stroke-linejoin:miter;stroke-miterlimit:4;stroke-opacity:1"
         transform="matrix(0.7071068,0,0,0.6856793,69.614539,71.7427)" />
      <path
         id="path3033"
         d="M 39.597978,227.18539 C 39.597978,230.40556 37.063707,233.01903 33.941124,233.01903 C 30.81854,233.01903 28.28427,230.40556 28.28427,227.18539 C 28.28427,223.96523 30.81854,221.35176 33.941124,221.35176 C 37.063707,221.35176 39.597978,223.96523 39.597978,227.18539 z"
         style="fill:#f4a460;fill-opacity:1;stroke:none;stroke-width:2;stroke-linecap:round;stroke-linejoin:miter;stroke-miterlimit:4;stroke-opacity:1"
         transform="matrix(0.243068,0,0,0.2357023,83.989538,172.5959)" />
      <path
         id="path3035"
         d="M 39.597978,227.18539 C 39.597978,230.40556 37.063707,233.01903 33.941124,233.01903 C 30.81854,233.01903 28.28427,230.40556 28.28427,227.18539 C 28.28427,223.96523 30.81854,221.35176 33.941124,221.35176 C 37.063707,221.35176 39.597978,223.96523 39.597978,227.18539 z"
         style="fill:#50270a;fill-opacity:1;stroke:none;stroke-width:2;stroke-linecap:round;stroke-linejoin:miter;stroke-miterlimit:4;stroke-opacity:1"
         transform="matrix(0.8838835,0,0,0.8570991,64.239539,6.798625)" />
      <path
         id="path3037"
         d="M 39.597978,227.18539 C 39.597978,230.40556 37.063707,233.01903 33.941124,233.01903 C 30.81854,233.01903 28.28427,230.40556 28.28427,227.18539 C 28.28427,223.96523 30.81854,221.35176 33.941124,221.35176 C 37.063707,221.35176 39.597978,223.96523 39.597978,227.18539 z"
         style="fill:#d2691e;fill-opacity:1;stroke:none;stroke-width:2;stroke-linecap:round;stroke-linejoin:miter;stroke-miterlimit:4;stroke-opacity:1"
         transform="matrix(0.7071068,0,0,0.6856793,69.614539,45.2427)" />
      <path
         id="path3039"
         d="M 39.597978,227.18539 C 39.597978,230.40556 37.063707,233.01903 33.941124,233.01903 C 30.81854,233.01903 28.28427,230.40556 28.28427,227.18539 C 28.28427,223.96523 30.81854,221.35176 33.941124,221.35176 C 37.063707,221.35176 39.597978,223.96523 39.597978,227.18539 z"
         style="fill:#f4a460;fill-opacity:1;stroke:none;stroke-width:2;stroke-linecap:round;stroke-linejoin:miter;stroke-miterlimit:4;stroke-opacity:1"
         transform="matrix(0.243068,0,0,0.2357023,83.989538,146.0959)" />
      <path
         id="path3041"
         d="M 39.597978,227.18539 C 39.597978,230.40556 37.063707,233.01903 33.941124,233.01903 C 30.81854,233.01903 28.28427,230.40556 28.28427,227.18539 C 28.28427,223.96523 30.81854,221.35176 33.941124,221.35176 C 37.063707,221.35176 39.597978,223.96523 39.597978,227.18539 z"
         style="fill:#50270a;fill-opacity:1;stroke:none;stroke-width:2;stroke-linecap:round;stroke-linejoin:miter;stroke-miterlimit:4;stroke-opacity:1"
         transform="matrix(0.8838835,0,0,0.8570991,64.239539,-44.701375)" />
      <path
         id="path3043"
         d="M 39.597978,227.18539 C 39.597978,230.40556 37.063707,233.01903 33.941124,233.01903 C 30.81854,233.01903 28.28427,230.40556 28.28427,227.18539 C 28.28427,223.96523 30.81854,221.35176 33.941124,221.35176 C 37.063707,221.35176 39.597978,223.96523 39.597978,227.18539 z"
         style="fill:#d2691e;fill-opacity:1;stroke:none;stroke-width:2;stroke-linecap:round;stroke-linejoin:miter;stroke-miterlimit:4;stroke-opacity:1"
         transform="matrix(0.7071068,0,0,0.6856793,69.614539,-6.2573)" />
      <path
         id="path3045"
         d="M 39.597978,227.18539 C 39.597978,230.40556 37.063707,233.01903 33.941124,233.01903 C 30.81854,233.01903 28.28427,230.40556 28.28427,227.18539 C 28.28427,223.96523 30.81854,221.35176 33.941124,221.35176 C 37.063707,221.35176 39.597978,223.96523 39.597978,227.18539 z"
         style="fill:#f4a460;fill-opacity:1;stroke:none;stroke-width:2;stroke-linecap:round;stroke-linejoin:miter;stroke-miterlimit:4;stroke-opacity:1"
         transform="matrix(0.243068,0,0,0.2357023,83.989538,94.5959)" />
      <path
         id="path3047"
         d="M 39.597978,227.18539 C 39.597978,230.40556 37.063707,233.01903 33.941124,233.01903 C 30.81854,233.01903 28.28427,230.40556 28.28427,227.18539 C 28.28427,223.96523 30.81854,221.35176 33.941124,221.35176 C 37.063707,221.35176 39.597978,223.96523 39.597978,227.18539 z"
         style="fill:#50270a;fill-opacity:1;stroke:none;stroke-width:2;stroke-linecap:round;stroke-linejoin:miter;stroke-miterlimit:4;stroke-opacity:1"
         transform="matrix(0.8838835,0,0,0.8570991,64.239539,-94.201375)" />
      <path
         id="path3049"
         d="M 39.597978,227.18539 C 39.597978,230.40556 37.063707,233.01903 33.941124,233.01903 C 30.81854,233.01903 28.28427,230.40556 28.28427,227.18539 C 28.28427,223.96523 30.81854,221.35176 33.941124,221.35176 C 37.063707,221.35176 39.597978,223.96523 39.597978,227.18539 z"
         style="fill:#d2691e;fill-opacity:1;stroke:none;stroke-width:2;stroke-linecap:round;stroke-linejoin:miter;stroke-miterlimit:4;stroke-opacity:1"
         transform="matrix(0.7071068,0,0,0.6856793,69.614539,-55.7573)" />
      <path
         id="path3051"
         d="M 39.597978,227.18539 C 39.597978,230.40556 37.063707,233.01903 33.941124,233.01903 C 30.81854,233.01903 28.28427,230.40556 28.28427,227.18539 C 28.28427,223.96523 30.81854,221.35176 33.941124,221.35176 C 37.063707,221.35176 39.597978,223.96523 39.597978,227.18539 z"
         style="fill:#f4a460;fill-opacity:1;stroke:none;stroke-width:2;stroke-linecap:round;stroke-linejoin:miter;stroke-miterlimit:4;stroke-opacity:1"
         transform="matrix(0.243068,0,0,0.2357023,83.989538,45.0959)" />
      <path
         id="path3053"
         d="M 39.597978,227.18539 C 39.597978,230.40556 37.063707,233.01903 33.941124,233.01903 C 30.81854,233.01903 28.28427,230.40556 28.28427,227.18539 C 28.28427,223.96523 30.81854,221.35176 33.941124,221.35176 C 37.063707,221.35176 39.597978,223.96523 39.597978,227.18539 z"
         style="fill:#50270a;fill-opacity:1;stroke:none;stroke-width:2;stroke-linecap:round;stroke-linejoin:miter;stroke-miterlimit:4;stroke-opacity:1"
         transform="matrix(0.8838835,0,0,0.8570991,64.239539,-120.70138)" />
      <path
         id="path3055"
         d="M 39.597978,227.18539 C 39.597978,230.40556 37.063707,233.01903 33.941124,233.01903 C 30.81854,233.01903 28.28427,230.40556 28.28427,227.18539 C 28.28427,223.96523 30.81854,221.35176 33.941124,221.35176 C 37.063707,221.35176 39.597978,223.96523 39.597978,227.18539 z"
         style="fill:#d2691e;fill-opacity:1;stroke:none;stroke-width:2;stroke-linecap:round;stroke-linejoin:miter;stroke-miterlimit:4;stroke-opacity:1"
         transform="matrix(0.7071068,0,0,0.6856793,69.614539,-82.2573)" />
      <path
         id="path3057"
         d="M 39.597978,227.18539 C 39.597978,230.40556 37.063707,233.01903 33.941124,233.01903 C 30.81854,233.01903 28.28427,230.40556 28.28427,227.18539 C 28.28427,223.96523 30.81854,221.35176 33.941124,221.35176 C 37.063707,221.35176 39.597978,223.96523 39.597978,227.18539 z"
         style="fill:#f4a460;fill-opacity:1;stroke:none;stroke-width:2;stroke-linecap:round;stroke-linejoin:miter;stroke-miterlimit:4;stroke-opacity:1"
         transform="matrix(0.243068,0,0,0.2357023,83.989538,18.5959)" />
      <path
         id="path3168"
         d="M 101.625,27 C 104.64084,30.172065 107.24054,33.699719 109.28125,37.53125 L 72.28125,37.53125 L 72.28125,39.53125 L 111.28125,39.53125 C 108.80157,34.875536 105.51194,30.653876 101.625,27 z"
         style="fill:#f4a460;fill-opacity:1;stroke:none;stroke-width:2;stroke-linecap:round;stroke-linejoin:miter;stroke-miterlimit:4;stroke-dasharray:none;stroke-opacity:1" />
      <path
         id="path3164"
         d="M 114.4375,49.9375 L 114.4375,116.84375 L 72.84375,116.84375 L 72.84375,118.84375 L 116.4375,118.84375 L 116.4375,49.9375 L 114.4375,49.9375 z"
         style="fill:#f4a460;fill-opacity:1;stroke:none;stroke-width:2;stroke-linecap:round;stroke-linejoin:miter;stroke-miterlimit:4;stroke-dasharray:none;stroke-opacity:1" />
      <path
         id="path3160"
         d="M 114.4375,129.5625 L 114.4375,168.28125 L 72.84375,168.28125 L 72.84375,170.28125 L 116.4375,170.28125 L 116.4375,129.5625 L 114.4375,129.5625 z"
         style="fill:#f4a460;fill-opacity:1;stroke:none;stroke-width:2;stroke-linecap:round;stroke-linejoin:miter;stroke-miterlimit:4;stroke-dasharray:none;stroke-opacity:1" />
      <path
         id="path3003"
         d="M 114.4375,182.4375 L 114.4375,240.78125 L 72.84375,240.78125 L 72.84375,242.78125 L 116.4375,242.78125 L 116.4375,182.4375 L 114.4375,182.4375 z"
         style="fill:#f4a460;fill-opacity:1;stroke:none;stroke-width:2;stroke-linecap:round;stroke-linejoin:miter;stroke-miterlimit:4;stroke-dasharray:none;stroke-opacity:1" />
      <path
         id="rect3107"
         d="M 66.15625,5.21875 L 66.15625,250.78125 L 69,250.78125 L 69,5.28125 C 68.047511,5.2338006 67.117939,5.21875 66.15625,5.21875 z"
         style="opacity:0.5;fill:#f4a460;fill-opacity:1;stroke:none;stroke-width:2;stroke-linecap:round;stroke-linejoin:miter;stroke-miterlimit:4;stroke-dasharray:none;stroke-opacity:1" />
    </g>
  </g>
</svg>
