<?xml version="1.0" encoding="UTF-8" standalone="no"?>
<!-- Created with Inkscape (http://www.inkscape.org/) -->
<svg
   xmlns:dc="http://purl.org/dc/elements/1.1/"
   xmlns:cc="http://web.resource.org/cc/"
   xmlns:rdf="http://www.w3.org/1999/02/22-rdf-syntax-ns#"
   xmlns:svg="http://www.w3.org/2000/svg"
   xmlns="http://www.w3.org/2000/svg"
   xmlns:xlink="http://www.w3.org/1999/xlink"
   xmlns:sodipodi="http://sodipodi.sourceforge.net/DTD/sodipodi-0.dtd"
   xmlns:inkscape="http://www.inkscape.org/namespaces/inkscape"
   width="64"
   height="64"
   id="svg2"
   sodipodi:version="0.32"
   inkscape:version="0.45.1"
   sodipodi:docbase="D:\Dateien\Desktop\Secret Maryo Chronicles\Drafts\Game\Sauer2\overworld"
   sodipodi:docname="stone_small.svg"
   inkscape:output_extension="org.inkscape.output.svg.inkscape"
   inkscape:export-filename="D:\Dateien\Desktop\Secret Maryo Chronicles\Drafts\Game\Sauer2\overworld\stone_small.png"
   inkscape:export-xdpi="360"
   inkscape:export-ydpi="360"
   version="1.0">
  <defs
     id="defs4">
    <linearGradient
       id="linearGradient7537">
      <stop
         style="stop-color:#000000;stop-opacity:0.56521738;"
         offset="0"
         id="stop7539" />
      <stop
         style="stop-color:#000000;stop-opacity:0;"
         offset="1"
         id="stop7541" />
    </linearGradient>
    <radialGradient
       gradientUnits="userSpaceOnUse"
       gradientTransform="matrix(1,0,0,0.9799999,0,11.573557)"
       r="4.3243246"
       fy="578.67566"
       fx="278.65945"
       cy="578.67566"
       cx="278.65945"
       id="radialGradient9336"
       xlink:href="#linearGradient9346"
       inkscape:collect="always" />
    <linearGradient
       y2="527.36218"
       x2="214.0062"
       y1="595.36218"
       x1="296.14075"
       gradientUnits="userSpaceOnUse"
       id="linearGradient5295"
       xlink:href="#linearGradient4295"
       inkscape:collect="always" />
    <linearGradient
       gradientUnits="userSpaceOnUse"
       y2="527.36218"
       x2="214.0062"
       y1="595.36218"
       x1="296.14075"
       id="linearGradient4301"
       xlink:href="#linearGradient4295"
       inkscape:collect="always" />
    <linearGradient
       y2="690.24811"
       x2="445.1051"
       y1="582.24811"
       x1="175"
       gradientUnits="userSpaceOnUse"
       id="linearGradient3322"
       xlink:href="#linearGradient3134"
       inkscape:collect="always" />
    <linearGradient
       id="linearGradient3134">
      <stop
         id="stop3136"
         offset="0"
         style="stop-color:#6c6052;stop-opacity:1;" />
      <stop
         id="stop3138"
         offset="1"
         style="stop-color:#383531;stop-opacity:1;" />
    </linearGradient>
    <linearGradient
       id="linearGradient4295">
      <stop
         id="stop4297"
         offset="0"
         style="stop-color:#634e00;stop-opacity:1;" />
      <stop
         id="stop4299"
         offset="1"
         style="stop-color:#ffffff;stop-opacity:0;" />
    </linearGradient>
    <linearGradient
       id="linearGradient7348">
      <stop
         style="stop-color:#433524;stop-opacity:1;"
         offset="0"
         id="stop7350" />
      <stop
         style="stop-color:#705c3f;stop-opacity:1;"
         offset="1"
         id="stop7352" />
    </linearGradient>
    <linearGradient
       id="linearGradient9346">
      <stop
         id="stop9348"
         offset="0"
         style="stop-color:#593e1c;stop-opacity:1;" />
      <stop
         id="stop9350"
         offset="1"
         style="stop-color:#4c3518;stop-opacity:0;" />
    </linearGradient>
    <radialGradient
       inkscape:collect="always"
       xlink:href="#linearGradient3134"
       id="radialGradient3311"
       cx="290.07767"
       cy="385.41507"
       fx="290.07767"
       fy="385.41507"
       r="23.945946"
       gradientTransform="matrix(0.8195943,0,0,1.2026986,-204.4555,-431.86078)"
       gradientUnits="userSpaceOnUse" />
    <filter
       inkscape:collect="always"
       id="filter7533">
      <feGaussianBlur
         inkscape:collect="always"
         stdDeviation="1.4435876"
         id="feGaussianBlur7535" />
    </filter>
    <radialGradient
       inkscape:collect="always"
       xlink:href="#linearGradient7537"
       id="radialGradient7547"
       cx="359.5"
       cy="349.86218"
       fx="359.5"
       fy="349.86218"
       r="31.242405"
       gradientTransform="matrix(1,0,0,1.0528681,0,-18.496544)"
       gradientUnits="userSpaceOnUse" />
    <radialGradient
       inkscape:collect="always"
       xlink:href="#linearGradient7537"
       id="radialGradient2339"
       gradientUnits="userSpaceOnUse"
       gradientTransform="matrix(1,0,0,1.0528681,0,-18.496544)"
       cx="359.5"
       cy="349.86218"
       fx="359.5"
       fy="349.86218"
       r="31.242405" />
    <radialGradient
       inkscape:collect="always"
       xlink:href="#linearGradient3134"
       id="radialGradient2341"
       gradientUnits="userSpaceOnUse"
       gradientTransform="matrix(1.1780338,0,0,2.0183054,80.089415,-403.83606)"
       cx="290.07767"
       cy="385.41507"
       fx="290.07767"
       fy="385.41507"
       r="23.945946" />
    <radialGradient
       inkscape:collect="always"
       xlink:href="#linearGradient3134"
       id="radialGradient2426"
       gradientUnits="userSpaceOnUse"
       gradientTransform="matrix(-0.3401235,1.3984418,-2.6981124,-0.5174628,1525.209,97.597083)"
       cx="292.33435"
       cy="389.17163"
       fx="292.33435"
       fy="389.17163"
       r="23.945946" />
  </defs>
  <sodipodi:namedview
     id="base"
     pagecolor="#000000"
     bordercolor="#666666"
     borderopacity="1.0"
     inkscape:pageopacity="0"
     inkscape:pageshadow="2"
     inkscape:zoom="5.6568542"
     inkscape:cx="35.761053"
     inkscape:cy="33.374245"
     inkscape:document-units="px"
     inkscape:current-layer="layer1"
     inkscape:window-width="797"
     inkscape:window-height="729"
     inkscape:window-x="117"
     inkscape:window-y="113"
     showgrid="true"
     width="64px"
     height="64px" />
  <metadata
     id="metadata7">
    <rdf:RDF>
      <cc:Work
         rdf:about="">
        <dc:format>image/svg+xml</dc:format>
        <dc:type
           rdf:resource="http://purl.org/dc/dcmitype/StillImage" />
      </cc:Work>
    </rdf:RDF>
  </metadata>
  <g
     inkscape:label="Ebene 1"
     inkscape:groupmode="layer"
     id="layer1">
    <rect
       style="opacity:1;fill:#655b4d;fill-opacity:0;fill-rule:nonzero;stroke:none;stroke-width:2;stroke-linecap:round;stroke-linejoin:round;stroke-miterlimit:4;stroke-dasharray:none;stroke-dashoffset:0;stroke-opacity:1"
       id="rect3174"
       width="64.051483"
       height="64.099182"
       x="-1.1715665"
       y="2" />
    <path
       style="fill:url(#radialGradient7547);fill-opacity:1;fill-rule:evenodd;stroke:none;stroke-width:1.51518822;stroke-linecap:round;stroke-linejoin:round;stroke-miterlimit:4;stroke-dasharray:none;stroke-opacity:1;filter:url(#filter7533)"
       d="M 371.83537,324.42831 C 368.89763,314.4641 362.46623,317.05331 357.43328,317.92686 C 353.67424,318.08955 351.83488,320.92425 349.38448,325.34072 C 346.03836,327.5574 339.71061,325.89544 336.37779,330.88747 C 334.76122,333.92382 334.72162,335.99838 336.87625,341.31484 C 333.14664,344.50951 331.32423,347.20177 331.59573,350.72464 C 332.97385,354.17516 332.74766,357.36804 330.93092,359.9954 C 327.46411,365.00906 328.29178,365.74272 328.47749,369.04742 C 330.29828,374.78134 329.51934,377.1898 334.41997,380.72718 C 335.73264,382.26765 339.8545,381.3175 341.28708,381.95675 C 342.71966,382.596 344.1898,382.82763 345.65274,382.73766 C 347.11565,382.64771 348.57137,382.23616 349.97507,381.58902 C 350.77501,381.31902 354.56832,381.76886 355.37663,381.48672 C 356.47196,381.7038 361.42933,380.58183 362.23976,380.53809 C 363.48074,380.74393 370.15864,379.66275 370.96354,379.94899 C 371.76845,380.23523 380.89585,381.15976 383.71904,379.62929 C 388.83854,378.59806 390.34127,374.08032 389.36831,371.68489 C 392.8296,367.92944 388.62479,361.57418 388.91806,360.24906 C 388.393,354.08202 386.27891,354.17606 384.32,350.11402 C 382.42419,344.40102 390.79621,334.89404 383.47581,330.16265 C 379.40198,325.12662 375.46251,325.03805 372.66455,324.62995 C 372.3876,324.58017 372.11094,324.51655 371.83537,324.42831 z "
       id="path6376"
       sodipodi:nodetypes="ccccccscccsccccccccccc"
       transform="matrix(0.709606,-0.2424089,-0.4603009,-0.3008842,-61.859272,246.80595)"
       inkscape:export-filename="/home/clemens/Bilder/Stone/stone.png"
       inkscape:export-xdpi="90"
       inkscape:export-ydpi="90" />
    <path
       style="fill:url(#radialGradient3311);fill-opacity:1;fill-rule:evenodd;stroke:#000000;stroke-width:1.04212165;stroke-linecap:round;stroke-linejoin:round;stroke-miterlimit:4;stroke-dasharray:none;stroke-opacity:1"
       d="M 40.633548,8.946891 C 38.536488,0.7842812 33.945458,2.9053412 30.352728,3.6209212 C 27.669348,3.7542312 26.356348,6.0764012 24.607158,9.694351 C 22.218538,11.510221 17.701538,10.148751 15.322408,14.238201 C 14.168428,16.725581 14.140158,18.425021 15.678238,22.780221 C 13.015868,25.397291 11.714968,27.602761 11.908768,30.488691 C 12.892538,33.315341 12.731058,35.930931 11.434188,38.083251 C 8.959438,42.190391 9.550268,42.791411 9.682838,45.498591 C 10.982588,50.195801 10.426558,52.168801 13.924838,55.066591 C 14.861858,56.328531 17.804238,55.550171 18.826868,56.073851 C 19.849508,56.597521 20.898958,56.787271 21.943268,56.713561 C 22.987558,56.639871 24.026728,56.302741 25.028738,55.772601 C 25.599758,55.551421 28.307598,55.919921 28.884588,55.688801 C 29.666488,55.866621 33.205268,54.947511 33.783828,54.911681 C 34.669658,55.080321 39.436638,54.194621 40.011208,54.429091 C 40.585778,54.663581 47.101328,55.420961 49.116638,54.167191 C 52.771158,53.322411 53.843848,49.621521 53.149318,47.659191 C 55.620138,44.582781 52.618558,39.376581 52.827918,38.291041 C 52.453068,33.239031 50.943998,33.316061 49.545628,29.988471 C 48.192298,25.308431 54.168608,17.520361 48.943018,13.644421 C 46.034928,9.518951 43.222768,9.446391 41.225468,9.112061 C 41.027768,9.071291 40.830268,9.019181 40.633548,8.946891 z "
       id="path2160"
       sodipodi:nodetypes="ccccccscccsccccccccccc"
       inkscape:export-filename="/home/clemens/Bilder/Stone/stone.png"
       inkscape:export-xdpi="90"
       inkscape:export-ydpi="90" />
    <path
       style="fill:#655b4d;fill-opacity:1;fill-rule:evenodd;stroke:none;stroke-width:1px;stroke-linecap:butt;stroke-linejoin:miter;stroke-opacity:1"
       d="M 38.321488,6.3884112 C 36.830658,4.2406612 36.047738,3.7035212 34.291898,3.9544312 C 31.778788,4.4682212 28.297618,4.1113612 27.014918,7.5997212 C 26.220288,9.714961 24.907448,11.998801 22.325508,12.019871 C 20.428978,12.255671 18.558508,13.067921 17.210828,14.435271 C 16.141068,15.565701 15.505608,16.458021 16.091658,18.940301 C 17.058028,23.084351 18.121708,21.422231 15.505068,24.981331 C 14.163118,26.374641 12.320798,28.759571 13.511878,30.919371 C 15.393218,35.528131 12.101268,38.752261 10.676688,42.884701 C 10.798758,48.085841 12.037808,51.935531 13.315218,53.148291 C 12.129418,44.791301 14.323188,42.471071 15.020368,40.656541 C 15.940928,38.260711 16.375888,34.482151 19.044618,36.302771 C 20.244028,32.595681 16.572678,19.926361 23.366728,21.288631 C 22.543718,12.837611 29.235318,9.934201 32.030048,12.210141 C 33.001698,0.4160612 40.416848,9.609291 38.321488,6.3884112 z "
       id="path3427"
       sodipodi:nodetypes="ccccccccccscccc"
       inkscape:export-filename="/home/clemens/Bilder/Stone/stone.png"
       inkscape:export-xdpi="90"
       inkscape:export-ydpi="90" />
    <path
       sodipodi:type="arc"
       style="opacity:1;fill:#655b4d;fill-opacity:1;fill-rule:nonzero;stroke:none;stroke-width:5;stroke-linecap:round;stroke-linejoin:round;stroke-miterlimit:4;stroke-dasharray:none;stroke-dashoffset:0;stroke-opacity:0.83921569"
       id="path4401"
       sodipodi:cx="292.5"
       sodipodi:cy="376.54968"
       sodipodi:rx="2.5"
       sodipodi:ry="3.6875"
       d="M 295 376.54968 A 2.5 3.6875 0 1 1  290,376.54968 A 2.5 3.6875 0 1 1  295 376.54968 z"
       transform="matrix(0.594206,0,0,0.6515872,-143.01353,-226.77706)"
       inkscape:export-filename="/home/clemens/Bilder/Stone/stone.png"
       inkscape:export-xdpi="90"
       inkscape:export-ydpi="90" />
    <path
       sodipodi:type="arc"
       style="opacity:1;fill:#655b4d;fill-opacity:1;fill-rule:nonzero;stroke:none;stroke-width:5;stroke-linecap:round;stroke-linejoin:round;stroke-miterlimit:4;stroke-dasharray:none;stroke-dashoffset:0;stroke-opacity:0.83921569"
       id="path4403"
       sodipodi:cx="281.9375"
       sodipodi:cy="388.98718"
       sodipodi:rx="1.5625"
       sodipodi:ry="3.25"
       d="M 283.5 388.98718 A 1.5625 3.25 0 1 1  280.375,388.98718 A 1.5625 3.25 0 1 1  283.5 388.98718 z"
       transform="matrix(0.6556755,0,0,0.644922,-160.47342,-221.28121)"
       inkscape:export-filename="/home/clemens/Bilder/Stone/stone.png"
       inkscape:export-xdpi="90"
       inkscape:export-ydpi="90" />
    <path
       sodipodi:type="arc"
       style="opacity:1;fill:#655b4d;fill-opacity:1;fill-rule:nonzero;stroke:none;stroke-width:5;stroke-linecap:round;stroke-linejoin:round;stroke-miterlimit:4;stroke-dasharray:none;stroke-dashoffset:0;stroke-opacity:0.83921569"
       id="path4405"
       sodipodi:cx="291"
       sodipodi:cy="390.54968"
       sodipodi:rx="0.75"
       sodipodi:ry="1.8125"
       d="M 291.75 390.54968 A 0.75 1.8125 0 1 1  290.25,390.54968 A 0.75 1.8125 0 1 1  291.75 390.54968 z"
       transform="matrix(0.7512949,0,0,0.5923086,-184.32419,-201.37034)"
       inkscape:export-filename="/home/clemens/Bilder/Stone/stone.png"
       inkscape:export-xdpi="90"
       inkscape:export-ydpi="90" />
    <path
       sodipodi:type="arc"
       style="opacity:1;fill:#655b4d;fill-opacity:1;fill-rule:nonzero;stroke:none;stroke-width:5;stroke-linecap:round;stroke-linejoin:round;stroke-miterlimit:4;stroke-dasharray:none;stroke-dashoffset:0;stroke-opacity:0.83921569"
       id="path4407"
       sodipodi:cx="282.875"
       sodipodi:cy="401.23718"
       sodipodi:rx="1.125"
       sodipodi:ry="2.125"
       d="M 284 401.23718 A 1.125 2.125 0 1 1  281.75,401.23718 A 1.125 2.125 0 1 1  284 401.23718 z"
       transform="matrix(0.5008632,0,0,0.6736058,-117.03947,-230.25843)"
       inkscape:export-filename="/home/clemens/Bilder/Stone/stone.png"
       inkscape:export-xdpi="90"
       inkscape:export-ydpi="90" />
    <path
       sodipodi:type="arc"
       style="opacity:1;fill:#655b4d;fill-opacity:1;fill-rule:nonzero;stroke:none;stroke-width:5;stroke-linecap:round;stroke-linejoin:round;stroke-miterlimit:4;stroke-dasharray:none;stroke-dashoffset:0;stroke-opacity:0.83921569"
       id="path4409"
       sodipodi:cx="271.6875"
       sodipodi:cy="408.04968"
       sodipodi:rx="1.9375"
       sodipodi:ry="2.9375"
       d="M 273.625 408.04968 A 1.9375 2.9375 0 1 1  269.75,408.04968 A 1.9375 2.9375 0 1 1  273.625 408.04968 z"
       transform="matrix(0.6609633,0,0,0.7135308,-161.74391,-243.084)"
       inkscape:export-filename="/home/clemens/Bilder/Stone/stone.png"
       inkscape:export-xdpi="90"
       inkscape:export-ydpi="90" />
    <path
       sodipodi:type="arc"
       style="opacity:1;fill:#655b4d;fill-opacity:1;fill-rule:nonzero;stroke:none;stroke-width:5;stroke-linecap:round;stroke-linejoin:round;stroke-miterlimit:4;stroke-dasharray:none;stroke-dashoffset:0;stroke-opacity:0.83921569"
       id="path4411"
       sodipodi:cx="280.5"
       sodipodi:cy="411.04968"
       sodipodi:rx="1.125"
       sodipodi:ry="1.6875"
       d="M 281.625 411.04968 A 1.125 1.6875 0 1 1  279.375,411.04968 A 1.125 1.6875 0 1 1  281.625 411.04968 z"
       transform="matrix(0.5463962,0,0,0.6058888,-128.95034,-197.2658)"
       inkscape:export-filename="/home/clemens/Bilder/Stone/stone.png"
       inkscape:export-xdpi="90"
       inkscape:export-ydpi="90" />
    <path
       style="fill:#272727;fill-opacity:1;fill-rule:evenodd;stroke:none;stroke-width:1px;stroke-linecap:butt;stroke-linejoin:miter;stroke-opacity:1"
       d="M 50.043578,19.945271 C 46.824338,25.897271 48.920528,25.543731 43.707758,26.759221 C 45.091708,27.041201 45.783608,28.258411 46.471918,29.728371 C 47.621308,31.101881 47.916918,32.386321 48.387648,34.159261 C 49.742378,36.345741 50.098808,37.398161 50.638988,39.537331 C 51.808558,42.054861 51.122918,45.033331 50.295658,47.849951 C 50.469348,49.946421 48.152608,50.977681 46.435008,51.356781 C 44.107488,51.961451 41.698098,51.558371 39.331178,51.646091 C 37.761298,51.270531 35.979998,51.420771 34.658128,50.326861 C 33.605718,49.233461 33.567238,52.018691 32.413248,52.390311 C 31.396388,53.277811 26.792878,53.888701 26.323598,54.749841 C 29.689278,54.926651 32.761468,54.049661 34.792168,53.851591 C 36.970478,53.300551 39.130458,53.170631 41.385948,53.582831 C 44.266028,53.933371 47.597898,54.374601 50.198238,52.598441 C 51.608928,51.536671 52.234608,49.685451 51.984458,47.954741 C 51.866368,46.962221 54.078128,45.582261 52.608188,42.591671 C 51.863588,39.773331 52.138608,37.807791 51.116618,35.284051 C 48.668288,30.552001 47.638248,30.151471 48.632648,25.818471 C 49.234348,23.825751 49.851218,21.789511 50.043578,19.945271 z "
       id="path5385"
       sodipodi:nodetypes="ccccccccccccccccccc"
       inkscape:export-filename="/home/clemens/Bilder/Stone/stone.png"
       inkscape:export-xdpi="90"
       inkscape:export-ydpi="90" />
    <path
       sodipodi:type="arc"
       style="opacity:1;fill:#272727;fill-opacity:1;fill-rule:nonzero;stroke:none;stroke-width:5;stroke-linecap:round;stroke-linejoin:round;stroke-miterlimit:4;stroke-dasharray:none;stroke-dashoffset:0;stroke-opacity:1"
       id="path6362"
       sodipodi:cx="298.39905"
       sodipodi:cy="395.72516"
       sodipodi:rx="1.2374369"
       sodipodi:ry="2.7400389"
       d="M 299.63648 395.72516 A 1.2374369 2.7400389 0 1 1  297.16161,395.72516 A 1.2374369 2.7400389 0 1 1  299.63648 395.72516 z"
       transform="matrix(0.5854245,0,0,0.8179499,-134.28966,-284.58679)"
       inkscape:export-filename="/home/clemens/Bilder/Stone/stone.png"
       inkscape:export-xdpi="90"
       inkscape:export-ydpi="90" />
    <path
       sodipodi:type="arc"
       style="opacity:1;fill:#272727;fill-opacity:1;fill-rule:nonzero;stroke:none;stroke-width:5;stroke-linecap:round;stroke-linejoin:round;stroke-miterlimit:4;stroke-dasharray:none;stroke-dashoffset:0;stroke-opacity:1"
       id="path6364"
       sodipodi:cx="303.34882"
       sodipodi:cy="403.23816"
       sodipodi:rx="0.88388348"
       sodipodi:ry="1.9445436"
       d="M 304.2327 403.23816 A 0.88388348 1.9445436 0 1 1  302.46493,403.23816 A 0.88388348 1.9445436 0 1 1  304.2327 403.23816 z"
       transform="matrix(0.8195943,0,0,0.8179499,-204.45548,-284.58679)"
       inkscape:export-filename="/home/clemens/Bilder/Stone/stone.png"
       inkscape:export-xdpi="90"
       inkscape:export-ydpi="90" />
    <path
       sodipodi:type="arc"
       style="opacity:1;fill:#272727;fill-opacity:1;fill-rule:nonzero;stroke:none;stroke-width:5;stroke-linecap:round;stroke-linejoin:round;stroke-miterlimit:4;stroke-dasharray:none;stroke-dashoffset:0;stroke-opacity:1"
       id="path6366"
       sodipodi:cx="288.05762"
       sodipodi:cy="395.01804"
       sodipodi:rx="0.79549515"
       sodipodi:ry="1.3258252"
       d="M 288.85311 395.01804 A 0.79549515 1.3258252 0 1 1  287.26212,395.01804 A 0.79549515 1.3258252 0 1 1  288.85311 395.01804 z"
       transform="matrix(0.4553301,0,0,0.8179499,-99.81619,-284.58679)"
       inkscape:export-filename="/home/clemens/Bilder/Stone/stone.png"
       inkscape:export-xdpi="90"
       inkscape:export-ydpi="90" />
    <path
       sodipodi:type="arc"
       style="opacity:1;fill:#272727;fill-opacity:1;fill-rule:nonzero;stroke:none;stroke-width:5;stroke-linecap:round;stroke-linejoin:round;stroke-miterlimit:4;stroke-dasharray:none;stroke-dashoffset:0;stroke-opacity:1"
       id="path6368"
       sodipodi:cx="286.02469"
       sodipodi:cy="406.77368"
       sodipodi:rx="0.53033006"
       sodipodi:ry="1.9445436"
       d="M 286.55502 406.77368 A 0.53033006 1.9445436 0 1 1  285.49436,406.77368 A 0.53033006 1.9445436 0 1 1  286.55502 406.77368 z"
       transform="matrix(0.8195943,0,0,0.8179499,-204.45548,-284.58679)"
       inkscape:export-filename="/home/clemens/Bilder/Stone/stone.png"
       inkscape:export-xdpi="90"
       inkscape:export-ydpi="90" />
    <path
       sodipodi:type="arc"
       style="opacity:1;fill:#272727;fill-opacity:1;fill-rule:nonzero;stroke:none;stroke-width:5;stroke-linecap:round;stroke-linejoin:round;stroke-miterlimit:4;stroke-dasharray:none;stroke-dashoffset:0;stroke-opacity:1"
       id="path6370"
       sodipodi:cx="297.78033"
       sodipodi:cy="375.74939"
       sodipodi:rx="0.79549515"
       sodipodi:ry="2.563262"
       d="M 298.57583 375.74939 A 0.79549515 2.563262 0 1 1  296.98484,375.74939 A 0.79549515 2.563262 0 1 1  298.57583 375.74939 z"
       transform="matrix(0.8195943,0,0,0.8179499,-204.45548,-284.58679)"
       inkscape:export-filename="/home/clemens/Bilder/Stone/stone.png"
       inkscape:export-xdpi="90"
       inkscape:export-ydpi="90" />
    <path
       sodipodi:type="arc"
       style="opacity:1;fill:#272727;fill-opacity:1;fill-rule:nonzero;stroke:none;stroke-width:5;stroke-linecap:round;stroke-linejoin:round;stroke-miterlimit:4;stroke-dasharray:none;stroke-dashoffset:0;stroke-opacity:1"
       id="path6372"
       sodipodi:cx="302.46494"
       sodipodi:cy="378.84299"
       sodipodi:rx="0.35355338"
       sodipodi:ry="1.2374369"
       d="M 302.81849 378.84299 A 0.35355338 1.2374369 0 1 1  302.11138,378.84299 A 0.35355338 1.2374369 0 1 1  302.81849 378.84299 z"
       transform="matrix(0.8195943,0,0,0.8179499,-202.05786,-287.19345)"
       inkscape:export-filename="/home/clemens/Bilder/Stone/stone.png"
       inkscape:export-xdpi="90"
       inkscape:export-ydpi="90" />
    <path
       sodipodi:type="arc"
       style="opacity:1;fill:#272727;fill-opacity:1;fill-rule:nonzero;stroke:none;stroke-width:5;stroke-linecap:round;stroke-linejoin:round;stroke-miterlimit:4;stroke-dasharray:none;stroke-dashoffset:0;stroke-opacity:1"
       id="path6374"
       sodipodi:cx="305.38174"
       sodipodi:cy="392.36639"
       sodipodi:rx="0.61871845"
       sodipodi:ry="1.1490486"
       d="M 306.00046 392.36639 A 0.61871845 1.1490486 0 1 1  304.76303,392.36639 A 0.61871845 1.1490486 0 1 1  306.00046 392.36639 z"
       transform="matrix(0.8195943,0,0,0.8179499,-204.45548,-284.58679)"
       inkscape:export-filename="/home/clemens/Bilder/Stone/stone.png"
       inkscape:export-xdpi="90"
       inkscape:export-ydpi="90" />
    <path
       sodipodi:type="arc"
       style="opacity:1;fill:#655b4d;fill-opacity:1;fill-rule:nonzero;stroke:none;stroke-width:2;stroke-linecap:round;stroke-linejoin:round;stroke-miterlimit:4;stroke-dasharray:none;stroke-dashoffset:0;stroke-opacity:1"
       id="path6356"
       sodipodi:cx="326.88956"
       sodipodi:cy="217.50032"
       sodipodi:rx="4.062068"
       sodipodi:ry="0.85517222"
       d="M 330.95162 217.50032 A 4.062068 0.85517222 0 1 1  322.82749,217.50032 A 4.062068 0.85517222 0 1 1  330.95162 217.50032 z"
       transform="matrix(0.5467096,0,0,0.4966153,-139.03982,-94.990569)" />
  </g>
</svg>
