<?xml version="1.0" encoding="UTF-8" standalone="no"?>
<!-- Created with Inkscape (http://www.inkscape.org/) -->
<svg
   xmlns:dc="http://purl.org/dc/elements/1.1/"
   xmlns:cc="http://web.resource.org/cc/"
   xmlns:rdf="http://www.w3.org/1999/02/22-rdf-syntax-ns#"
   xmlns:svg="http://www.w3.org/2000/svg"
   xmlns="http://www.w3.org/2000/svg"
   xmlns:sodipodi="http://sodipodi.sourceforge.net/DTD/sodipodi-0.dtd"
   xmlns:inkscape="http://www.inkscape.org/namespaces/inkscape"
   width="744.09448819"
   height="1052.3622047"
   id="svg2"
   sodipodi:version="0.32"
   inkscape:version="0.45.1"
   sodipodi:docbase="/media/disk"
   sodipodi:docname="furball_mouth.svg"
   inkscape:output_extension="org.inkscape.output.svg.inkscape">
  <defs
     id="defs4" />
  <sodipodi:namedview
     id="base"
     pagecolor="#ffffff"
     bordercolor="#666666"
     borderopacity="1.0"
     gridtolerance="10000"
     guidetolerance="10"
     objecttolerance="10"
     inkscape:pageopacity="0.0"
     inkscape:pageshadow="2"
     inkscape:zoom="4"
     inkscape:cx="564.01303"
     inkscape:cy="345.09522"
     inkscape:document-units="px"
     inkscape:current-layer="layer3"
     inkscape:window-width="1280"
     inkscape:window-height="727"
     inkscape:window-x="0"
     inkscape:window-y="0"
     showguides="true"
     inkscape:guide-bbox="true">
    <sodipodi:guide
       orientation="horizontal"
       position="300.01531"
       id="guide3390" />
  </sodipodi:namedview>
  <metadata
     id="metadata7">
    <rdf:RDF>
      <cc:Work
         rdf:about="">
        <dc:format>image/svg+xml</dc:format>
        <dc:type
           rdf:resource="http://purl.org/dc/dcmitype/StillImage" />
      </cc:Work>
    </rdf:RDF>
  </metadata>
  <g
     inkscape:groupmode="layer"
     id="layer5"
     inkscape:label="foot below" />
  <g
     inkscape:label="inside colour shading"
     inkscape:groupmode="layer"
     id="layer1"
     style="display:inline" />
  <g
     inkscape:groupmode="layer"
     id="layer2"
     inkscape:label="outline" />
  <g
     inkscape:groupmode="layer"
     id="layer4"
     inkscape:label="shadowing" />
  <g
     inkscape:groupmode="layer"
     id="layer3"
     inkscape:label="foot above">
    <path
       style="fill:#000000;fill-opacity:1"
       d="M 580.94261,694.63964 C 581.28367,693.75087 581.05381,690.26175 580.43181,686.88605 C 579.76896,683.28864 579.6406,679.50828 580.12167,677.75201 L 580.94243,674.7556 L 589.28111,674.98788 C 598.1619,675.23526 599.37819,675.88705 599.11103,680.2556 C 598.76245,685.95556 599.39001,688.47678 601.7431,690.82987 L 604.22646,693.31323 L 608.00621,691.38494 C 612.68604,688.99747 616.67057,685.0922 618.20412,681.38988 C 619.1433,679.12249 620.03939,678.55035 622.8148,678.44601 C 624.91406,678.36709 626.27216,678.79289 626.29154,679.53605 C 626.32382,680.77387 628.58913,678.2435 630.39908,674.94789 C 631.29478,673.31699 631.05445,673.20349 627.94187,673.78741 C 625.99327,674.15297 621.03973,673.73053 616.55941,672.81672 C 612.09586,671.90633 599.25391,670.8074 587.19335,670.30378 C 563.74238,669.3245 559.25974,668.42793 559.25974,664.71679 C 559.25974,661.59035 557.60124,660.73488 554.6265,662.32691 C 552.64175,663.38912 552.29815,664.15398 552.79319,666.4079 C 553.30412,668.73414 553.02308,669.27689 551.05139,669.77176 C 548.81057,670.33417 548.71908,670.69297 549.09952,677.42586 C 549.39506,682.65619 549.14318,684.71907 548.12921,685.37275 C 546.9804,686.11334 546.99374,686.4061 548.21199,687.18962 C 550.14318,688.43166 550.8841,687.84783 551.59177,684.52641 C 552.29431,681.22906 555.85871,675.2556 557.12372,675.2556 C 557.61508,675.2556 558.60897,676.7181 559.33237,678.5056 C 561.06787,682.794 567.46614,691.48619 570.8419,694.14157 C 574.10187,696.70586 580.03742,696.99854 580.94261,694.63964 z "
       id="path2210" />
    <path
       style="fill:#f9f9f9;fill-opacity:1"
       d="M 573.01291,692.35186 C 570.2998,691.32033 563.68624,682.11902 562.70136,678.0056 C 562.05208,675.29383 562.11047,675.25541 566.90133,675.24195 C 569.57346,675.23444 572.77224,674.95695 574.00974,674.62531 C 576.11536,674.06103 576.26127,674.33463 576.2836,678.88897 C 576.29672,681.56562 576.7191,685.53076 577.22222,687.7004 C 578.51494,693.27509 577.72811,694.14457 573.01291,692.35186 z "
       id="path2208" />
    <path
       style="fill:#f9f9f9;fill-opacity:1"
       d="M 602.27505,681.37476 L 602.25974,675.99392 L 606.00974,676.61375 C 608.07224,676.95466 610.99724,677.23854 612.50974,677.24459 C 614.21648,677.25142 615.25974,677.79555 615.25974,678.67887 C 615.25974,680.90077 610.1827,686.38454 606.81436,687.80082 C 602.94672,689.42704 602.29534,688.50492 602.27505,681.37476 z "
       id="path2206" />
  </g>
</svg>
