<?xml version="1.0" encoding="UTF-8" standalone="no"?>
<!-- Created with Inkscape (http://www.inkscape.org/) -->
<svg
   xmlns:dc="http://purl.org/dc/elements/1.1/"
   xmlns:cc="http://web.resource.org/cc/"
   xmlns:rdf="http://www.w3.org/1999/02/22-rdf-syntax-ns#"
   xmlns:svg="http://www.w3.org/2000/svg"
   xmlns="http://www.w3.org/2000/svg"
   xmlns:xlink="http://www.w3.org/1999/xlink"
   xmlns:sodipodi="http://sodipodi.sourceforge.net/DTD/sodipodi-0.dtd"
   xmlns:inkscape="http://www.inkscape.org/namespaces/inkscape"
   width="64"
   height="128"
   id="svg2"
   sodipodi:version="0.32"
   inkscape:version="0.45.1"
   version="1.0"
   sodipodi:docbase="D:\Dateien\Desktop\Secret Maryo Chronicles\Drafts\Game\Frostbringer\overworld"
   sodipodi:docname="wind_wheel.svg"
   inkscape:export-filename="N:\Dokumente und Einstellungen\FluXy\Desktop\wind_wheel.png"
   inkscape:export-xdpi="90"
   inkscape:export-ydpi="90"
   inkscape:output_extension="org.inkscape.output.svg.inkscape">
  <defs
     id="defs4">
    <linearGradient
       id="linearGradient2807">
      <stop
         style="stop-color:#ff1a1a;stop-opacity:1;"
         offset="0"
         id="stop2809" />
      <stop
         style="stop-color:#1a1096;stop-opacity:1;"
         offset="1"
         id="stop2811" />
    </linearGradient>
    <linearGradient
       id="linearGradient6586">
      <stop
         style="stop-color:#a23dff;stop-opacity:1;"
         offset="0"
         id="stop6588" />
      <stop
         style="stop-color:#ff7ff5;stop-opacity:1;"
         offset="1"
         id="stop6590" />
    </linearGradient>
    <linearGradient
       id="linearGradient5679">
      <stop
         id="stop5681"
         offset="0"
         style="stop-color:#ffbc3d;stop-opacity:1;" />
      <stop
         id="stop5683"
         offset="1"
         style="stop-color:#ff3856;stop-opacity:1;" />
    </linearGradient>
    <linearGradient
       id="linearGradient3857">
      <stop
         style="stop-color:#00eaf4;stop-opacity:1;"
         offset="0"
         id="stop3859" />
      <stop
         style="stop-color:#00c931;stop-opacity:1;"
         offset="1"
         id="stop3861" />
    </linearGradient>
    <linearGradient
       id="linearGradient5481">
      <stop
         style="stop-color:#8e681a;stop-opacity:1;"
         offset="0"
         id="stop5483" />
      <stop
         style="stop-color:#ffb213;stop-opacity:1;"
         offset="1"
         id="stop5485" />
    </linearGradient>
    <linearGradient
       inkscape:collect="always"
       xlink:href="#linearGradient5481"
       id="linearGradient5487"
       x1="1.5"
       y1="38"
       x2="26.5"
       y2="38"
       gradientUnits="userSpaceOnUse" />
    <linearGradient
       inkscape:collect="always"
       xlink:href="#linearGradient5481"
       id="linearGradient5489"
       x1="1.6129525"
       y1="38"
       x2="26.387049"
       y2="38"
       gradientUnits="userSpaceOnUse"
       gradientTransform="matrix(1.25,0,0,1.335062,5.5,-24.23235)" />
    <linearGradient
       inkscape:collect="always"
       xlink:href="#linearGradient5481"
       id="linearGradient5491"
       x1="1.5735986"
       y1="38"
       x2="26.426401"
       y2="38"
       gradientUnits="userSpaceOnUse"
       gradientTransform="matrix(1.565299,0,0,1,21.36941,-22.89394)" />
    <linearGradient
       inkscape:collect="always"
       xlink:href="#linearGradient5481"
       id="linearGradient5493"
       x1="1.6197655"
       y1="38"
       x2="26.380236"
       y2="38"
       gradientUnits="userSpaceOnUse"
       gradientTransform="matrix(1.729167,0,0,1,16.54167,-0.606061)" />
    <linearGradient
       inkscape:collect="always"
       xlink:href="#linearGradient5481"
       id="linearGradient5495"
       x1="1.629232"
       y1="38"
       x2="26.370768"
       y2="38"
       gradientUnits="userSpaceOnUse" />
    <radialGradient
       inkscape:collect="always"
       xlink:href="#linearGradient3857"
       id="radialGradient3873"
       cx="14.85243"
       cy="28.425289"
       fx="14.85243"
       fy="28.425289"
       r="16.546875"
       gradientTransform="matrix(0.9611049,-1.1580753e-2,1.2908407e-2,1.1106604,0.8765452,-0.9522949)"
       gradientUnits="userSpaceOnUse" />
    <radialGradient
       inkscape:collect="always"
       xlink:href="#linearGradient3857"
       id="radialGradient3875"
       cx="22.338493"
       cy="48.581547"
       fx="22.338493"
       fy="48.581547"
       r="15.105951"
       gradientTransform="matrix(0.9611722,0,0,0.9476112,1.2424711,3.6483589)"
       gradientUnits="userSpaceOnUse" />
    <radialGradient
       inkscape:collect="always"
       xlink:href="#linearGradient3857"
       id="radialGradient3877"
       cx="45.516899"
       cy="48.26495"
       fx="45.516899"
       fy="48.26495"
       r="15.633387"
       gradientTransform="matrix(0.9611722,0,0,0.9682915,1.2424711,2.7192693)"
       gradientUnits="userSpaceOnUse" />
    <radialGradient
       inkscape:collect="always"
       xlink:href="#linearGradient3857"
       id="radialGradient3879"
       cx="50.578602"
       cy="26.795019"
       fx="50.578602"
       fy="26.795019"
       r="16.226955"
       gradientTransform="matrix(0.9611722,0,0,0.7680164,1.2424711,8.4837531)"
       gradientUnits="userSpaceOnUse" />
    <radialGradient
       inkscape:collect="always"
       xlink:href="#linearGradient3857"
       id="radialGradient3881"
       cx="34"
       cy="17.875"
       fx="34"
       fy="17.875"
       r="12.25"
       gradientTransform="matrix(0.9611722,0,0,1.4480401,1.2424711,-6.1472884)"
       gradientUnits="userSpaceOnUse" />
    <radialGradient
       inkscape:collect="always"
       xlink:href="#linearGradient5679"
       id="radialGradient5669"
       cx="47.304829"
       cy="33.933926"
       fx="47.304829"
       fy="33.933926"
       r="12.885724"
       gradientTransform="matrix(1,0,0,0.740193,0,8.816264)"
       gradientUnits="userSpaceOnUse" />
    <radialGradient
       inkscape:collect="always"
       xlink:href="#linearGradient5679"
       id="radialGradient5671"
       cx="34.599575"
       cy="46.119972"
       fx="34.599575"
       fy="46.119972"
       r="9.3188086"
       gradientTransform="matrix(1,0,0,1.58074,0,-26.78373)"
       gradientUnits="userSpaceOnUse" />
    <radialGradient
       inkscape:collect="always"
       xlink:href="#linearGradient5679"
       id="radialGradient5673"
       cx="22.518274"
       cy="36.733059"
       fx="22.518274"
       fy="36.733059"
       r="13.36561"
       gradientTransform="matrix(1,0,0,0.742474,0,9.459716)"
       gradientUnits="userSpaceOnUse" />
    <radialGradient
       inkscape:collect="always"
       xlink:href="#linearGradient5679"
       id="radialGradient5675"
       cx="26.218048"
       cy="22.820663"
       fx="26.218048"
       fy="22.820663"
       r="8.2308044"
       gradientTransform="matrix(1,0,0,1.579952,0,-13.23489)"
       gradientUnits="userSpaceOnUse" />
    <radialGradient
       inkscape:collect="always"
       xlink:href="#linearGradient5679"
       id="radialGradient5677"
       cx="38.144302"
       cy="23.0947"
       fx="38.144302"
       fy="23.0947"
       r="9.4370937"
       gradientTransform="matrix(1,0,0,1.407769,0,-9.417307)"
       gradientUnits="userSpaceOnUse" />
    <radialGradient
       inkscape:collect="always"
       xlink:href="#linearGradient6586"
       id="radialGradient6576"
       cx="34.599575"
       cy="46.119972"
       fx="34.599575"
       fy="46.119972"
       r="9.3188086"
       gradientTransform="matrix(1,0,0,1.58074,0,-26.78373)"
       gradientUnits="userSpaceOnUse" />
    <radialGradient
       inkscape:collect="always"
       xlink:href="#linearGradient6586"
       id="radialGradient6578"
       cx="22.518274"
       cy="36.733059"
       fx="22.518274"
       fy="36.733059"
       r="13.36561"
       gradientTransform="matrix(1,0,0,0.742474,0,9.459716)"
       gradientUnits="userSpaceOnUse" />
    <radialGradient
       inkscape:collect="always"
       xlink:href="#linearGradient6586"
       id="radialGradient6580"
       cx="47.304829"
       cy="33.933926"
       fx="47.304829"
       fy="33.933926"
       r="12.885724"
       gradientTransform="matrix(1,0,0,0.740193,0,8.816264)"
       gradientUnits="userSpaceOnUse" />
    <radialGradient
       inkscape:collect="always"
       xlink:href="#linearGradient6586"
       id="radialGradient6582"
       cx="38.144302"
       cy="23.0947"
       fx="38.144302"
       fy="23.0947"
       r="9.4370937"
       gradientTransform="matrix(1,0,0,1.407769,0,-9.417307)"
       gradientUnits="userSpaceOnUse" />
    <radialGradient
       inkscape:collect="always"
       xlink:href="#linearGradient6586"
       id="radialGradient6584"
       cx="26.218048"
       cy="22.820663"
       fx="26.218048"
       fy="22.820663"
       r="8.2308044"
       gradientTransform="matrix(1,0,0,1.579952,0,-13.23489)"
       gradientUnits="userSpaceOnUse" />
  </defs>
  <sodipodi:namedview
     id="base"
     pagecolor="#000000"
     bordercolor="#666666"
     borderopacity="1.0"
     inkscape:pageopacity="0"
     inkscape:pageshadow="2"
     inkscape:zoom="2.8284271"
     inkscape:cx="32"
     inkscape:cy="70.636031"
     inkscape:document-units="px"
     inkscape:current-layer="layer1"
     width="64px"
     height="128px"
     inkscape:grid-points="true"
     gridtolerance="10000"
     showgrid="true"
     gridspacingx="2px"
     gridspacingy="2px"
     inkscape:window-width="1142"
     inkscape:window-height="784"
     inkscape:window-x="77"
     inkscape:window-y="103" />
  <metadata
     id="metadata7">
    <rdf:RDF>
      <cc:Work
         rdf:about="">
        <dc:format>image/svg+xml</dc:format>
        <dc:type
           rdf:resource="http://purl.org/dc/dcmitype/StillImage" />
        <dc:creator>
          <cc:Agent>
            <dc:title>Frostbringer</dc:title>
          </cc:Agent>
        </dc:creator>
        <cc:license
           rdf:resource="http://creativecommons.org/licenses/by-sa/2.5/" />
      </cc:Work>
      <cc:License
         rdf:about="http://creativecommons.org/licenses/by-sa/2.5/">
        <cc:permits
           rdf:resource="http://web.resource.org/cc/Reproduction" />
        <cc:permits
           rdf:resource="http://web.resource.org/cc/Distribution" />
        <cc:requires
           rdf:resource="http://web.resource.org/cc/Notice" />
        <cc:requires
           rdf:resource="http://web.resource.org/cc/Attribution" />
        <cc:permits
           rdf:resource="http://web.resource.org/cc/DerivativeWorks" />
        <cc:requires
           rdf:resource="http://web.resource.org/cc/ShareAlike" />
      </cc:License>
    </rdf:RDF>
  </metadata>
  <g
     inkscape:label="Ebene 1"
     inkscape:groupmode="layer"
     id="layer1">
    <path
       style="fill:#ff0101;fill-opacity:1;fill-rule:nonzero;stroke:#000000;stroke-width:0.5259037;stroke-linecap:round;stroke-linejoin:miter;stroke-miterlimit:4;stroke-dashoffset:59.92000295;stroke-opacity:1"
       d="M 31.779986,41.654956 L 35.584082,41.654956 L 35.584082,127.73705 L 31.779986,127.73705 L 31.779986,41.654956 z "
       id="rect1918" />
    <path
       style="fill:url(#radialGradient3881);fill-opacity:1;fill-rule:nonzero;stroke:#000000;stroke-width:0.48494217;stroke-linecap:round;stroke-linejoin:miter;stroke-miterlimit:4;stroke-dashoffset:59.92000295;stroke-opacity:1"
       d="M 45.456395,25.486145 C 45.456395,34.129806 40.8197,37.23025 33.922328,37.23025 C 27.024955,37.23025 22.388261,34.129806 22.388261,25.486145 C 22.388261,21.164314 23.709873,19.267642 25.992656,15.94406 C 28.27544,12.620479 30.321471,6.1573067 33.682035,2.2426052 C 36.084966,4.199956 38.848335,12.620479 41.371412,15.94406 C 43.89449,19.267642 45.456395,21.164314 45.456395,25.486145 z "
       id="path1934"
       sodipodi:nodetypes="cssscsc" />
    <path
       sodipodi:nodetypes="cssscsc"
       id="path2012"
       d="M 48.875185,41.389619 C 41.523431,45.711451 38.315628,42.817171 34.866943,36.735097 C 31.418257,30.653023 29.989364,25.370064 37.341119,21.048234 C 41.016994,18.887319 43.290991,19.104374 47.259212,19.455533 C 51.227433,19.806692 57.747615,18.379287 62.757495,19.385268 C 62.29416,22.482837 56.513881,29.129826 54.948589,33.016456 C 53.383299,36.903087 52.551062,39.228704 48.875185,41.389619 z "
       style="fill:url(#radialGradient3879);fill-opacity:1;fill-rule:nonzero;stroke:#000000;stroke-width:0.48494217;stroke-linecap:round;stroke-linejoin:miter;stroke-miterlimit:4;stroke-dashoffset:59.92000295;stroke-opacity:1" />
    <path
       sodipodi:nodetypes="cssscsc"
       id="path2016"
       d="M 31.999983,54.083591 C 25.997301,47.971597 25.20046,40.48356 30.077638,35.517567 C 34.954817,30.551574 42.308936,31.362926 48.311618,37.474918 C 51.312959,40.530914 51.695602,42.823602 52.389526,46.817296 C 53.08345,50.81099 56.125107,56.854249 56.467434,62.041911 C 53.409004,62.387924 45.607283,58.423297 41.515103,57.889743 C 37.422921,57.356189 35.001324,57.139585 31.999983,54.083591 z "
       style="fill:url(#radialGradient3877);fill-opacity:1;fill-rule:nonzero;stroke:#000000;stroke-width:0.48494217;stroke-linecap:round;stroke-linejoin:miter;stroke-miterlimit:4;stroke-dashoffset:59.92000295;stroke-opacity:1" />
    <path
       style="fill:url(#radialGradient3875);fill-opacity:1;fill-rule:nonzero;stroke:#000000;stroke-width:0.48494217;stroke-linecap:round;stroke-linejoin:miter;stroke-miterlimit:4;stroke-dashoffset:59.92000295;stroke-opacity:1"
       d="M 35.358263,52.621507 C 41.360945,46.509514 40.235442,40.978827 35.358263,36.012835 C 34.138968,34.771336 33.299552,31.907662 32.761195,33.295562 C 31.656277,36.144076 24.995643,34.464903 23.44185,32.735996 C 22.3782,31.55247 20.547299,34.484838 19.046628,36.012835 C 16.045288,39.068831 15.662644,41.361519 14.96872,45.355213 C 14.274796,49.348906 11.233139,55.392166 10.890812,60.579828 C 13.949243,60.925841 21.750962,56.961214 25.843143,56.42766 C 29.935324,55.894106 32.356921,55.677502 35.358263,52.621507 z "
       id="path2018"
       sodipodi:nodetypes="cssssscsc" />
    <path
       style="fill:url(#radialGradient3873);fill-opacity:1;fill-rule:nonzero;stroke:#000000;stroke-width:0.48494217;stroke-linecap:round;stroke-linejoin:miter;stroke-miterlimit:4;stroke-dashoffset:59.92000295;stroke-opacity:1"
       d="M 5.2073066,19.491758 C 3.8295217,19.504892 2.4949413,19.607267 1.2424711,19.858761 C 1.7058051,22.956331 7.4867045,29.612419 9.0519957,33.499049 C 10.617286,37.385678 11.443519,39.687459 15.119395,41.848373 C 22.471149,46.170205 27.439942,43.648743 30.888627,37.566669 C 31.643864,36.234741 32.211091,34.932207 32.570679,33.651968 C 29.098348,35.86097 26.512646,33.814949 23.950165,32.520374 C 22.950896,30.759912 22.388261,28.457403 22.388261,25.486145 C 22.388261,23.213544 22.79111,21.625547 23.469579,20.134014 C 21.365739,19.544306 19.43841,19.681261 16.741373,19.919929 C 13.765207,20.183298 9.3406616,19.452357 5.2073066,19.491758 z "
       id="path2014"
       sodipodi:nodetypes="ccsssccscsc" />
    <g
       id="g2048"
       transform="matrix(0.9518787,-0.1357638,0.1333358,0.9692126,-3.1460703,7.2840606)">
      <path
         sodipodi:nodetypes="cssscsc"
         id="path2038"
         d="M 46.046403,30.802879 C 42.715889,36.870681 38.411685,37.28059 33.786016,34.652684 C 29.160348,32.024779 27.245426,28.081698 30.57594,22.013897 C 32.241198,18.979995 33.858339,18.152078 36.66989,16.688684 C 39.48144,15.225292 43.343937,11.46772 47.106059,10 C 47.963373,12.289569 46.572069,19.253576 46.983533,22.548006 C 47.394995,25.842438 47.711661,27.768977 46.046403,30.802879 z "
         style="fill:url(#radialGradient5677);fill-opacity:1;fill-rule:nonzero;stroke:#000000;stroke-width:0.38110149;stroke-linecap:round;stroke-linejoin:miter;stroke-miterlimit:4;stroke-dashoffset:59.92000295;stroke-opacity:1" />
      <path
         style="fill:url(#radialGradient5669);fill-opacity:1;fill-rule:nonzero;stroke:#000000;stroke-width:0.38110149;stroke-linecap:round;stroke-linejoin:miter;stroke-miterlimit:4;stroke-dashoffset:59.92000295;stroke-opacity:1"
         d="M 42.211374,43.269592 C 35.615721,43.502469 34.579636,40.248524 34.610302,34.664989 C 34.640972,29.081453 35.718289,24.828437 42.313942,24.595562 C 45.611769,24.479124 47.053171,25.497891 49.579123,27.256297 C 52.105074,29.014706 57.02778,30.496871 60,33.111834 C 58.495734,35.109779 52.058062,37.573637 49.510744,39.705651 C 46.963425,41.837668 45.509202,43.153154 42.211374,43.269592 z "
         id="path2040"
         sodipodi:nodetypes="cssscsc" />
      <path
         style="fill:url(#radialGradient5671);fill-opacity:1;fill-rule:nonzero;stroke:#000000;stroke-width:0.38110149;stroke-linecap:round;stroke-linejoin:miter;stroke-miterlimit:4;stroke-dashoffset:59.92000295;stroke-opacity:1"
         d="M 26.003,45.751219 C 24.332379,39.173609 26.683221,33.613448 31.867524,31.985559 C 37.051828,30.35767 41.671185,33.729163 43.341807,40.306774 C 44.177119,43.595579 43.550333,45.350821 42.476886,48.418757 C 41.403438,51.486695 41.114755,56.887904 39.34546,60.660041 C 37.161024,59.737674 33.456486,53.982066 30.917681,52.048388 C 28.378877,50.114711 26.838312,49.040025 26.003,45.751219 z "
         id="path2042"
         sodipodi:nodetypes="cssscsc" />
      <path
         sodipodi:nodetypes="cssssscsc"
         id="path2044"
         d="M 28.818564,46.004355 C 35.199245,44.000797 36.575481,39.689467 35.218101,34.345159 C 34.878757,33.00908 35.419218,30.678978 34.523398,31.448163 C 32.684824,33.026828 28.864929,29.310351 28.48906,27.50467 C 28.231761,26.26859 25.874001,27.62952 24.278831,28.13041 C 21.08849,29.132186 19.948471,30.595855 17.944275,33.135018 C 15.940077,35.674185 11.571668,38.757644 9.343215,42.268928 C 11.261004,43.677093 18.020789,43.866409 20.970763,45.050981 C 23.920737,46.235556 25.628224,47.006131 28.818564,46.004355 z "
         style="fill:url(#radialGradient5673);fill-opacity:1;fill-rule:nonzero;stroke:#000000;stroke-width:0.38110149;stroke-linecap:round;stroke-linejoin:miter;stroke-miterlimit:4;stroke-dashoffset:59.92000295;stroke-opacity:1" />
      <path
         sodipodi:nodetypes="ccsssccscsc"
         id="path2046"
         d="M 21.363384,11.25991 C 20.434322,10.744192 19.49985,10.307583 18.562985,10.006939 C 17.680183,12.357945 18.992421,19.23301 18.544601,22.557781 C 18.096783,25.88255 17.763984,27.813183 19.396554,30.730645 C 22.661692,36.565571 26.965528,36.688635 31.621863,33.733005 C 32.641566,33.085745 33.523854,32.387487 34.258302,31.62577 C 31.078455,31.853516 30.132731,29.432067 28.913041,27.546973 C 28.921217,25.930415 29.431076,24.099704 30.57594,22.013897 C 31.451603,20.418544 32.333647,19.457264 33.363365,18.668714 C 32.179663,17.453177 30.834343,16.815004 28.933635,15.954975 C 26.836212,15.005936 24.150567,12.807063 21.363384,11.25991 z "
         style="fill:url(#radialGradient5675);fill-opacity:1;fill-rule:nonzero;stroke:#000000;stroke-width:0.38110149;stroke-linecap:round;stroke-linejoin:miter;stroke-miterlimit:4;stroke-dashoffset:59.92000295;stroke-opacity:1" />
    </g>
    <g
       id="g2062"
       transform="matrix(0.656719,0.2384426,-0.2157947,0.6421559,17.684427,5.0918405)">
      <path
         sodipodi:nodetypes="cssscsc"
         id="path2064"
         d="M 46.046403,30.802879 C 42.715889,36.870681 38.411685,37.28059 33.786016,34.652684 C 29.160348,32.024779 27.245426,28.081698 30.57594,22.013897 C 32.241198,18.979995 33.858339,18.152078 36.66989,16.688684 C 39.48144,15.225292 43.343937,11.46772 47.106059,10 C 47.963373,12.289569 46.572069,19.253576 46.983533,22.548006 C 47.394995,25.842438 47.711661,27.768977 46.046403,30.802879 z "
         style="fill:url(#radialGradient6582);fill-opacity:1;fill-rule:nonzero;stroke:#000000;stroke-width:0.38110149;stroke-linecap:round;stroke-linejoin:miter;stroke-miterlimit:4;stroke-dashoffset:59.92000295;stroke-opacity:1" />
      <path
         style="fill:url(#radialGradient6580);fill-opacity:1;fill-rule:nonzero;stroke:#000000;stroke-width:0.38110149;stroke-linecap:round;stroke-linejoin:miter;stroke-miterlimit:4;stroke-dashoffset:59.92000295;stroke-opacity:1"
         d="M 42.211374,43.269592 C 35.615721,43.502469 34.579636,40.248524 34.610302,34.664989 C 34.640972,29.081453 35.718289,24.828437 42.313942,24.595562 C 45.611769,24.479124 47.053171,25.497891 49.579123,27.256297 C 52.105074,29.014706 57.02778,30.496871 60,33.111834 C 58.495734,35.109779 52.058062,37.573637 49.510744,39.705651 C 46.963425,41.837668 45.509202,43.153154 42.211374,43.269592 z "
         id="path2066"
         sodipodi:nodetypes="cssscsc" />
      <path
         style="fill:url(#radialGradient6576);fill-opacity:1;fill-rule:nonzero;stroke:#000000;stroke-width:0.38110149;stroke-linecap:round;stroke-linejoin:miter;stroke-miterlimit:4;stroke-dashoffset:59.92000295;stroke-opacity:1"
         d="M 26.003,45.751219 C 24.332379,39.173609 26.683221,33.613448 31.867524,31.985559 C 37.051828,30.35767 41.671185,33.729163 43.341807,40.306774 C 44.177119,43.595579 43.550333,45.350821 42.476886,48.418757 C 41.403438,51.486695 41.114755,56.887904 39.34546,60.660041 C 37.161024,59.737674 33.456486,53.982066 30.917681,52.048388 C 28.378877,50.114711 26.838312,49.040025 26.003,45.751219 z "
         id="path2068"
         sodipodi:nodetypes="cssscsc" />
      <path
         sodipodi:nodetypes="cssssscsc"
         id="path2070"
         d="M 28.818564,46.004355 C 35.199245,44.000797 36.575481,39.689467 35.218101,34.345159 C 34.878757,33.00908 35.419218,30.678978 34.523398,31.448163 C 32.684824,33.026828 28.864929,29.310351 28.48906,27.50467 C 28.231761,26.26859 25.874001,27.62952 24.278831,28.13041 C 21.08849,29.132186 19.948471,30.595855 17.944275,33.135018 C 15.940077,35.674185 11.571668,38.757644 9.343215,42.268928 C 11.261004,43.677093 18.020789,43.866409 20.970763,45.050981 C 23.920737,46.235556 25.628224,47.006131 28.818564,46.004355 z "
         style="fill:url(#radialGradient6578);fill-opacity:1;fill-rule:nonzero;stroke:#000000;stroke-width:0.38110149;stroke-linecap:round;stroke-linejoin:miter;stroke-miterlimit:4;stroke-dashoffset:59.92000295;stroke-opacity:1" />
      <path
         sodipodi:nodetypes="ccsssccscsc"
         id="path2072"
         d="M 21.363384,11.25991 C 20.434322,10.744192 19.49985,10.307583 18.562985,10.006939 C 17.680183,12.357945 18.992421,19.23301 18.544601,22.557781 C 18.096783,25.88255 17.763984,27.813183 19.396554,30.730645 C 22.661692,36.565571 26.965528,36.688635 31.621863,33.733005 C 32.641566,33.085745 33.523854,32.387487 34.258302,31.62577 C 31.078455,31.853516 30.132731,29.432067 28.913041,27.546973 C 28.921217,25.930415 29.431076,24.099704 30.57594,22.013897 C 31.451603,20.418544 32.333647,19.457264 33.363365,18.668714 C 32.179663,17.453177 30.834343,16.815004 28.933635,15.954975 C 26.836212,15.005936 24.150567,12.807063 21.363384,11.25991 z "
         style="fill:url(#radialGradient6584);fill-opacity:1;fill-rule:nonzero;stroke:#000000;stroke-width:0.38110149;stroke-linecap:round;stroke-linejoin:miter;stroke-miterlimit:4;stroke-dashoffset:59.92000295;stroke-opacity:1" />
    </g>
    <rect
       style="opacity:1;fill:#0113ff;fill-opacity:1;fill-rule:nonzero;stroke:#000000;stroke-width:0.56765646;stroke-linecap:round;stroke-linejoin:miter;stroke-miterlimit:4;stroke-dasharray:none;stroke-dashoffset:59.92000295;stroke-opacity:1"
       id="rect6388"
       width="5.2680807"
       height="11.744103"
       x="43.51783"
       y="94.560349"
       transform="matrix(0.7298088,-0.6836513,0,1,0,0)" />
    <rect
       style="opacity:1;fill:#ff0101;fill-opacity:1;fill-rule:nonzero;stroke:#000000;stroke-width:0.5676567;stroke-linecap:round;stroke-linejoin:miter;stroke-miterlimit:4;stroke-dasharray:none;stroke-dashoffset:59.92000295;stroke-opacity:1"
       id="rect6390"
       width="5.268085"
       height="11.744103"
       x="43.517826"
       y="106.30446"
       transform="matrix(0.7298088,-0.6836513,0,1,0,0)" />
    <rect
       style="opacity:1;fill:#0113ff;fill-opacity:1;fill-rule:nonzero;stroke:#000000;stroke-width:0.5676567;stroke-linecap:round;stroke-linejoin:miter;stroke-miterlimit:4;stroke-dasharray:none;stroke-dashoffset:59.92000295;stroke-opacity:1"
       id="rect6392"
       width="5.268085"
       height="11.744103"
       x="43.517826"
       y="118.04855"
       transform="matrix(0.7298088,-0.6836513,0,1,0,0)" />
    <rect
       style="opacity:1;fill:#ff0101;fill-opacity:1;fill-rule:nonzero;stroke:#000000;stroke-width:0.5676567;stroke-linecap:round;stroke-linejoin:miter;stroke-miterlimit:4;stroke-dasharray:none;stroke-dashoffset:59.92000295;stroke-opacity:1"
       id="rect6394"
       width="5.268085"
       height="11.744103"
       x="43.517826"
       y="129.79263"
       transform="matrix(0.7298088,-0.6836513,0,1,0,0)" />
    <rect
       style="opacity:1;fill:#0113ff;fill-opacity:1;fill-rule:nonzero;stroke:#000000;stroke-width:0.5676567;stroke-linecap:round;stroke-linejoin:miter;stroke-miterlimit:4;stroke-dasharray:none;stroke-dashoffset:59.92000295;stroke-opacity:1"
       id="rect6396"
       width="5.268085"
       height="11.744103"
       x="43.517826"
       y="141.53676"
       transform="matrix(0.7298088,-0.6836513,0,1,0,0)" />
  </g>
</svg>
