<?xml version="1.0" encoding="UTF-8" standalone="no"?>
<!-- Created with Inkscape (http://www.inkscape.org/) -->
<svg
   xmlns:dc="http://purl.org/dc/elements/1.1/"
   xmlns:cc="http://creativecommons.org/ns#"
   xmlns:rdf="http://www.w3.org/1999/02/22-rdf-syntax-ns#"
   xmlns:svg="http://www.w3.org/2000/svg"
   xmlns="http://www.w3.org/2000/svg"
   xmlns:xlink="http://www.w3.org/1999/xlink"
   xmlns:sodipodi="http://sodipodi.sourceforge.net/DTD/sodipodi-0.dtd"
   xmlns:inkscape="http://www.inkscape.org/namespaces/inkscape"
   width="350"
   height="19"
   id="svg2"
   sodipodi:version="0.32"
   inkscape:version="0.46"
   version="1.0"
   sodipodi:docname="userbar.svg"
   inkscape:output_extension="org.inkscape.output.svg.inkscape"
   inkscape:export-filename="N:\Dokumente und Einstellungen\FluXy\Desktop\userbar.png"
   inkscape:export-xdpi="90"
   inkscape:export-ydpi="90">
  <defs
     id="defs4">
    <linearGradient
       id="linearGradient3923">
      <stop
         style="stop-color:#c4f211;stop-opacity:1;"
         offset="0"
         id="stop3925" />
      <stop
         style="stop-color:#24c80b;stop-opacity:1;"
         offset="1"
         id="stop3927" />
    </linearGradient>
    <linearGradient
       id="linearGradient5063">
      <stop
         id="stop5065"
         offset="0"
         style="stop-color:#ffffff;stop-opacity:1;" />
      <stop
         id="stop5067"
         offset="1"
         style="stop-color:#0e4c04;stop-opacity:1;" />
    </linearGradient>
    <pattern
       inkscape:collect="always"
       xlink:href="#Strips1_1"
       id="pattern4287"
       patternTransform="matrix(1.0652926,1.0652926,-1.0652926,1.0652926,8.125,-1.25)" />
    <linearGradient
       id="linearGradient3552">
      <stop
         style="stop-color:#ffffff;stop-opacity:0.89787233;"
         offset="0"
         id="stop3554" />
      <stop
         style="stop-color:#ffffff;stop-opacity:0.15319149;"
         offset="1"
         id="stop3556" />
    </linearGradient>
    <pattern
       inkscape:stockid="Stripes 1:1"
       id="Strips1_1"
       patternTransform="matrix(1.0652926,1.0652926,-1.0652926,1.0652926,-1.875,-1.25)"
       height="1"
       width="2"
       patternUnits="userSpaceOnUse"
       inkscape:collect="always">
      <rect
         id="rect4917"
         height="2"
         width="1"
         y="-0.5"
         x="0"
         style="fill:black;stroke:none" />
    </pattern>
    <clipPath
       clipPathUnits="userSpaceOnUse"
       id="clipPath4283">
      <rect
         style="opacity:0.26285712;fill:url(#pattern4287);fill-opacity:1;fill-rule:evenodd;stroke:none;stroke-width:5;stroke-miterlimit:4;stroke-dasharray:none;stroke-opacity:1"
         id="rect4285"
         width="350.52292"
         height="19.192898"
         x="10"
         y="-0.19289838"
         ry="7.6628008"
         rx="6.0661721" />
    </clipPath>
    <linearGradient
       inkscape:collect="always"
       xlink:href="#linearGradient5063"
       id="linearGradient5061"
       x1="137.88583"
       y1="-0.19289838"
       x2="137.68379"
       y2="21.667"
       gradientUnits="userSpaceOnUse" />
    <filter
       inkscape:collect="always"
       id="filter5190"
       x="-0.014631614"
       width="1.0292632"
       y="-0.267301"
       height="1.534602">
      <feGaussianBlur
         inkscape:collect="always"
         stdDeviation="2.1370158"
         id="feGaussianBlur5192" />
    </filter>
    <linearGradient
       inkscape:collect="always"
       xlink:href="#linearGradient3923"
       id="linearGradient3929"
       x1="162.62021"
       y1="-7.6401916"
       x2="163.84618"
       y2="19"
       gradientUnits="userSpaceOnUse" />
    <linearGradient
       gradientUnits="userSpaceOnUse"
       y2="11.001755"
       x2="175.25"
       y1="1.4969019"
       x1="175.25"
       id="linearGradient3562"
       xlink:href="#linearGradient3552"
       inkscape:collect="always" />
    <filter
       inkscape:collect="always"
       id="filter4228"
       x="-0.011543018"
       width="1.023086"
       y="-0.20641602"
       height="1.412832">
      <feGaussianBlur
         inkscape:collect="always"
         stdDeviation="1.6349615"
         id="feGaussianBlur4230" />
    </filter>
    <filter
       inkscape:collect="always"
       id="filter4264"
       x="-0.041812257"
       width="1.0836245"
       y="-0.68778703"
       height="2.3755741">
      <feGaussianBlur
         inkscape:collect="always"
         stdDeviation="3.8061131"
         id="feGaussianBlur4266" />
    </filter>
  </defs>
  <sodipodi:namedview
     id="base"
     pagecolor="#ffffff"
     bordercolor="#666666"
     borderopacity="1.0"
     gridtolerance="10000"
     guidetolerance="10"
     objecttolerance="10"
     inkscape:pageopacity="0.0"
     inkscape:pageshadow="2"
     inkscape:zoom="1.4142136"
     inkscape:cx="175"
     inkscape:cy="76.12852"
     inkscape:document-units="px"
     inkscape:current-layer="layer1"
     showgrid="false"
     showguides="true"
     inkscape:guide-bbox="true"
     inkscape:window-width="1024"
     inkscape:window-height="668"
     inkscape:window-x="154"
     inkscape:window-y="210" />
  <metadata
     id="metadata7">
    <rdf:RDF>
      <cc:Work
         rdf:about="">
        <dc:format>image/svg+xml</dc:format>
        <dc:type
           rdf:resource="http://purl.org/dc/dcmitype/StillImage" />
      </cc:Work>
    </rdf:RDF>
  </metadata>
  <g
     inkscape:label="Layer 1"
     inkscape:groupmode="layer"
     id="layer1">
    <rect
       style="opacity:1;fill:url(#linearGradient5061);fill-opacity:1;fill-rule:evenodd;stroke:none;stroke-width:5;stroke-miterlimit:4;stroke-dasharray:none;stroke-opacity:1"
       id="rect2383"
       width="350.52292"
       height="19.192898"
       x="0"
       y="-0.19289838"
       ry="7.6628008"
       rx="6.0661721" />
    <path
       sodipodi:type="inkscape:offset"
       inkscape:radius="0"
       inkscape:original="M 6.0625 -0.1875 C 2.7018406 -0.1875 0 3.2235583 0 7.46875 L 0 11.34375 C 0 15.588942 2.7018406 18.999999 6.0625 19 L 344.46875 19 C 347.82941 19 350.53125 15.588942 350.53125 11.34375 L 350.53125 7.46875 C 350.53125 3.2235584 347.8294 -0.1875 344.46875 -0.1875 L 6.0625 -0.1875 z "
       xlink:href="#rect2383"
       style="opacity:1;fill:url(#linearGradient3929);fill-opacity:1;fill-rule:evenodd;stroke:none;stroke-width:5;stroke-miterlimit:4;stroke-dasharray:none;stroke-opacity:1;filter:url(#filter5190)"
       id="path4879"
       inkscape:href="#rect2383"
       d="M 6.0625,-0.1875 C 2.7018406,-0.1875 0,3.2235583 0,7.46875 L 0,11.34375 C 0,15.588942 2.7018406,18.999999 6.0625,19 L 344.46875,19 C 347.82941,19 350.53125,15.588942 350.53125,11.34375 L 350.53125,7.46875 C 350.53125,3.2235584 347.8294,-0.1875 344.46875,-0.1875 L 6.0625,-0.1875 z"
       transform="matrix(0.9696508,0,0,0.7051803,5.3191905,2.7731484)" />
    <rect
       rx="6.0661721"
       ry="7.6628008"
       y="-0.19289838"
       x="0"
       height="19.192898"
       width="350.52292"
       id="rect3885"
       style="opacity:0.26285712000000000;fill:url(#Strips1_1);fill-opacity:1.0;fill-rule:evenodd;stroke:none;stroke-width:5;stroke-miterlimit:4;stroke-dasharray:none;stroke-opacity:1" />
    <text
       xml:space="preserve"
       style="font-size:48px;font-style:normal;font-weight:normal;fill:#000000;fill-opacity:1;stroke:none;stroke-width:1px;stroke-linecap:butt;stroke-linejoin:miter;stroke-opacity:1;font-family:Bitstream Vera Sans"
       x="122.68303"
       y="9.8076115"
       id="text10323"><tspan
         sodipodi:role="line"
         id="tspan10325"
         x="122.68303"
         y="9.8076115" /></text>
    <image
       y="0.84062207"
       x="326.32297"
       id="image3546"
       height="16.630682"
       width="16.630682"
       sodipodi:absref="star.png"
       xlink:href="star.png" />
    <g
       id="g4153"
       inkscape:label="Layer 1"
       transform="matrix(1.0332817,0,0,1,-1.7490283,51.087042)">
      <text
         id="text4155"
         y="9.8076115"
         x="122.68303"
         style="font-size:48px;font-style:normal;font-weight:normal;fill:#000000;fill-opacity:1;stroke:none;stroke-width:1px;stroke-linecap:butt;stroke-linejoin:miter;stroke-opacity:1;font-family:Bitstream Vera Sans"
         xml:space="preserve"><tspan
           y="9.8076115"
           x="122.68303"
           id="tspan4157"
           sodipodi:role="line" /></text>
      <path
         sodipodi:end="12.11149"
         sodipodi:start="5.8971803"
         transform="matrix(1,0,0,1.2763158,-4.2426406,-54.115374)"
         d="M 332.68359,-2.0766588 A 169.9375,9.5 0 1 1 327.90715,-2.6738733 L 175.25,1.4999999 z"
         sodipodi:ry="9.5"
         sodipodi:rx="169.9375"
         sodipodi:cy="1.4999999"
         sodipodi:cx="175.25"
         id="path3550"
         style="fill:url(#linearGradient3562);fill-opacity:1;fill-rule:evenodd;stroke:none;stroke-width:1px;stroke-linecap:butt;stroke-linejoin:miter;stroke-opacity:1;filter:url(#filter4228)"
         sodipodi:type="arc" />
    </g>
    <image
       y="-24.867971"
       x="-9.2197313"
       id="image10311"
       height="108.24203"
       width="108.24203"
       sodipodi:absref="walk_right_2.png"
       xlink:href="walk_right_2.png"
       clip-path="url(#clipPath4283)"
       style="opacity:0.95999995"
       transform="translate(-10,0)" />
    <path
       sodipodi:type="inkscape:offset"
       inkscape:radius="0"
       inkscape:original="M 103.6875 3.75 C 102.81282 3.7500104 102.0472 3.9290467 101.375 4.28125 C 100.55371 4.7184339 100.125 5.3356208 100.125 6.125 C 100.125 6.9251375 100.54297 7.5423244 101.375 7.96875 C 102.02571 8.3209694 102.78157 8.5000057 103.65625 8.5 C 104.04003 8.5000057 104.28938 8.5999405 104.375 8.78125 C 104.39615 8.8450574 104.40625 8.8938855 104.40625 8.96875 L 104.40625 11.8125 C 104.40625 11.983075 104.35123 12.112795 104.25 12.1875 C 104.14876 12.262209 103.96484 12.281252 103.6875 12.28125 L 102.9375 12.28125 C 102.85221 12.06771 102.68278 11.909182 102.4375 11.78125 C 102.19222 11.653323 101.90397 11.593753 101.5625 11.59375 C 101.16797 11.593753 100.83984 11.693687 100.5625 11.875 C 100.28516 12.056317 100.125 12.26465 100.125 12.53125 C 100.125 13.032553 100.4043 13.430014 100.9375 13.75 C 101.41764 14.038086 101.97428 14.1875 102.625 14.1875 L 103.6875 14.1875 C 104.88216 14.1875 105.81835 13.929688 106.46875 13.375 C 107.00227 12.927085 107.24999 12.419924 107.25 11.84375 L 107.25 8.96875 C 107.24999 8.179368 106.83202 7.5625066 106 7.125 C 105.33854 6.7731194 104.58268 6.6250076 103.71875 6.625 C 103.33463 6.6250076 103.08528 6.5250728 103 6.34375 C 102.97884 6.2796303 102.96875 6.1995523 102.96875 6.125 C 102.96875 5.9863363 102.99869 5.9078859 103.0625 5.84375 C 103.18001 5.726571 103.4095 5.6562585 103.71875 5.65625 L 104.46875 5.65625 C 104.55436 5.8802167 104.69222 6.0595785 104.9375 6.1875 C 105.18277 6.3154376 105.5026 6.3750078 105.84375 6.375 C 106.22786 6.3750078 106.56103 6.2802814 106.84375 6.09375 C 107.12646 5.9072349 107.24999 5.6936934 107.25 5.4375 C 107.24999 5.0003347 107.05175 4.6012466 106.625 4.28125 C 106.15559 3.9290467 105.5179 3.7500104 104.75 3.75 L 103.6875 3.75 z M 159.5 3.75 C 158.30534 3.7500104 157.36946 4.0390727 156.71875 4.59375 C 156.19596 5.0416758 155.9375 5.5488368 155.9375 6.125 L 155.9375 13.25 C 155.9375 13.516602 156.09766 13.756185 156.375 13.9375 C 156.65234 14.118815 156.95963 14.1875 157.34375 14.1875 C 157.73828 14.1875 158.09765 14.092936 158.375 13.90625 C 158.65234 13.719564 158.78125 13.50586 158.78125 13.25 L 158.78125 6.15625 C 158.78125 5.9427166 158.88118 5.7727949 159.0625 5.6875 C 159.13704 5.6556075 159.27571 5.6562585 159.5 5.65625 C 159.69173 5.6562585 159.86132 5.6914148 160 5.75 C 160.13867 5.8086021 160.1875 5.9427166 160.1875 6.15625 L 160.1875 13.25 C 160.1875 13.516602 160.34765 13.756185 160.625 13.9375 C 160.90234 14.118815 161.23014 14.1875 161.625 14.1875 C 162.00878 14.1875 162.34228 14.092936 162.625 13.90625 C 162.90771 13.719564 163.06249 13.50586 163.0625 13.25 L 163.0625 6.15625 C 163.06249 5.9427166 163.13118 5.7727949 163.3125 5.6875 C 163.38704 5.6556075 163.53645 5.6562585 163.75 5.65625 C 163.94205 5.6562585 164.10611 5.6914148 164.25 5.75 C 164.39387 5.8086021 164.46874 5.9427166 164.46875 6.15625 L 164.46875 13.25 C 164.46874 13.516602 164.59765 13.756185 164.875 13.9375 C 165.15233 14.118815 165.51138 14.1875 165.90625 14.1875 C 166.29003 14.1875 166.62352 14.092936 166.90625 13.90625 C 167.18895 13.719564 167.31249 13.50586 167.3125 13.25 L 167.3125 6.125 C 167.31249 5.5703211 167.04393 5.0631602 166.5 4.59375 C 165.84927 4.0390727 164.93391 3.7500104 163.75 3.75 C 162.88606 3.7500104 162.17968 3.8994244 161.625 4.1875 C 161.05956 3.8994244 160.35319 3.7500104 159.5 3.75 z M 212.46875 3.75 C 211.27409 3.7500104 210.33821 4.0390727 209.6875 4.59375 C 209.16471 5.0416758 208.90625 5.5488368 208.90625 6.125 L 208.90625 11.84375 C 208.90625 12.643882 209.32422 13.229493 210.15625 13.65625 C 210.80696 14.008138 211.58333 14.1875 212.46875 14.1875 L 213.53125 14.1875 C 213.91536 14.1875 214.2845 14.153158 214.59375 14.0625 C 214.90299 13.971843 215.16161 13.842123 215.375 13.6875 C 215.58837 13.532878 215.72639 13.353679 215.84375 13.15625 C 215.96109 12.958823 216.03124 12.75521 216.03125 12.53125 C 216.03124 12.26465 215.90234 12.056317 215.625 11.875 C 215.34765 11.693687 215.01985 11.593753 214.625 11.59375 C 214.29459 11.593753 213.97477 11.642581 213.71875 11.78125 C 213.46272 11.919924 213.32486 12.089195 213.25 12.28125 L 212.5 12.28125 C 212.00944 12.281252 211.75 12.153322 211.75 11.84375 L 211.75 6.15625 C 211.75 5.9427166 211.84993 5.7727949 212.03125 5.6875 C 212.10579 5.6556075 212.2552 5.6562585 212.46875 5.65625 L 213.25 5.65625 C 213.33561 5.8802167 213.47347 6.0595785 213.71875 6.1875 C 213.96402 6.3154376 214.28385 6.3750078 214.625 6.375 C 215.00911 6.3750078 215.34228 6.2802814 215.625 6.09375 C 215.90771 5.9072349 216.03124 5.6936934 216.03125 5.4375 C 216.03124 4.925465 215.78352 4.5074967 215.25 4.1875 C 214.78092 3.9101665 214.1927 3.7500104 213.53125 3.75 L 212.46875 3.75 z M 217.6875 3.75 C 217.29297 3.7500104 216.96484 3.8499452 216.6875 4.03125 C 216.41016 4.2125751 216.25 4.4518327 216.25 4.71875 L 216.25 13.25 C 216.25 13.516602 216.41016 13.756185 216.6875 13.9375 C 216.96484 14.118815 217.29297 14.1875 217.6875 14.1875 C 218.07161 14.1875 218.40478 14.092936 218.6875 13.90625 C 218.97021 13.719564 219.09375 13.50586 219.09375 13.25 L 219.09375 8.5 L 219.78125 8.5 C 220.16503 8.5000057 220.41438 8.5999405 220.5 8.78125 C 220.52115 8.8450574 220.53125 8.8938855 220.53125 8.96875 L 220.53125 13.25 C 220.53125 13.516602 220.66015 13.756185 220.9375 13.9375 C 221.21484 14.118815 221.57421 14.1875 221.96875 14.1875 C 222.35286 14.1875 222.68603 14.092936 222.96875 13.90625 C 223.25146 13.719564 223.37499 13.50586 223.375 13.25 L 223.375 8.96875 C 223.37499 8.179368 222.95702 7.5625066 222.125 7.125 C 221.45312 6.7731194 220.68717 6.6250076 219.8125 6.625 L 219.09375 6.625 L 219.09375 4.71875 C 219.09375 4.4518327 218.96484 4.2125751 218.6875 4.03125 C 218.41015 3.8499452 218.08235 3.7500104 217.6875 3.75 z M 257.46875 3.75 C 257.07422 3.7500104 256.74609 3.8499452 256.46875 4.03125 C 256.19141 4.2125751 256.03125 4.4518327 256.03125 4.71875 L 256.03125 13.25 C 256.03125 13.516602 256.19141 13.756185 256.46875 13.9375 C 256.74609 14.118815 257.07422 14.1875 257.46875 14.1875 C 257.85286 14.1875 258.18603 14.092936 258.46875 13.90625 C 258.75146 13.719564 258.875 13.50586 258.875 13.25 L 258.875 4.71875 C 258.875 4.4518327 258.74609 4.2125751 258.46875 4.03125 C 258.1914 3.8499452 257.8636 3.7500104 257.46875 3.75 z M 280.46875 3.75 C 280.07422 3.7500104 279.74609 3.8499452 279.46875 4.03125 C 279.19141 4.2125751 279.03125 4.4518327 279.03125 4.71875 L 279.03125 13.25 C 279.03125 13.516602 279.19141 13.756185 279.46875 13.9375 C 279.74609 14.118815 280.07422 14.1875 280.46875 14.1875 C 280.85286 14.1875 281.18603 14.092936 281.46875 13.90625 C 281.75146 13.719564 281.875 13.50586 281.875 13.25 L 281.875 8.5 L 282.59375 8.5 C 283.47884 8.5000057 284.26529 8.3209694 284.9375 7.96875 C 285.75878 7.5315822 286.15624 6.9143953 286.15625 6.125 C 286.15624 5.3356208 285.73827 4.7184339 284.90625 4.28125 C 284.23437 3.9290467 283.46842 3.7500104 282.59375 3.75 L 280.46875 3.75 z M 287.8125 3.75 C 287.41797 3.7500104 287.08984 3.8499452 286.8125 4.03125 C 286.53516 4.2125751 286.375 4.4518327 286.375 4.71875 L 286.375 13.25 C 286.375 13.516602 286.53516 13.756185 286.8125 13.9375 C 287.08984 14.118815 287.41797 14.1875 287.8125 14.1875 C 288.19661 14.1875 288.52978 14.092936 288.8125 13.90625 C 289.09521 13.719564 289.21875 13.50586 289.21875 13.25 L 289.21875 4.71875 C 289.21875 4.4518327 289.08984 4.2125751 288.8125 4.03125 C 288.53515 3.8499452 288.20735 3.7500104 287.8125 3.75 z M 247.0625 4.46875 C 246.66797 4.4687597 246.33984 4.5579523 246.0625 4.75 C 245.78516 4.9420665 245.625 5.1816496 245.625 5.4375 C 245.625 5.7041101 245.78516 5.9124432 246.0625 6.09375 C 246.33984 6.275073 246.66797 6.3750078 247.0625 6.375 C 247.44661 6.3750078 247.77978 6.2802814 248.0625 6.09375 C 248.34521 5.9072349 248.46875 5.6936934 248.46875 5.4375 C 248.46875 5.1601653 248.33447 4.9313244 248.0625 4.75 C 247.79052 4.5686945 247.4681 4.4687597 247.0625 4.46875 z M 139.53125 5.1875 C 139.13672 5.187509 138.80859 5.2874438 138.53125 5.46875 C 138.25391 5.6500737 138.09375 5.8584068 138.09375 6.125 L 138.09375 11.84375 C 138.09375 12.419924 138.37305 12.927085 138.90625 13.375 C 139.55696 13.929688 140.472 14.1875 141.65625 14.1875 L 142.71875 14.1875 C 143.39062 14.1875 143.97786 14.048828 144.46875 13.75 C 144.97004 13.440756 145.21874 13.032553 145.21875 12.53125 C 145.21874 12.26465 145.08984 12.056317 144.8125 11.875 C 144.53515 11.693687 144.20735 11.593753 143.8125 11.59375 C 143.48209 11.593753 143.16227 11.642581 142.90625 11.78125 C 142.65022 11.919924 142.51236 12.089195 142.4375 12.28125 L 141.65625 12.28125 C 141.45345 12.281252 141.31477 12.261395 141.21875 12.21875 C 141.04817 12.143882 140.9375 12.014976 140.9375 11.8125 L 140.9375 8.5 L 141.65625 8.5 C 142.06152 8.5000057 142.38427 8.4002337 142.65625 8.21875 C 142.92822 8.0372783 143.09374 7.8291079 143.09375 7.5625 C 143.09374 7.2959053 142.93359 7.0563222 142.65625 6.875 C 142.3789 6.6936924 142.05078 6.6250076 141.65625 6.625 L 140.9375 6.625 L 140.9375 6.125 C 140.9375 5.8584068 140.80859 5.6500737 140.53125 5.46875 C 140.2539 5.2874438 139.9261 5.187509 139.53125 5.1875 z M 281.875 5.65625 L 282.5625 5.65625 C 282.94628 5.6562585 283.19563 5.7561933 283.28125 5.9375 C 283.3024 6.0016358 283.3125 6.0504639 283.3125 6.125 C 283.3125 6.2636798 283.28287 6.3733802 283.21875 6.4375 C 283.10156 6.5546951 282.87174 6.6250076 282.5625 6.625 L 281.875 6.625 L 281.875 5.65625 z M 111.28125 6.625 C 110.08659 6.6250076 109.15071 6.8828198 108.5 7.4375 C 107.97721 7.8642641 107.71875 8.3714251 107.71875 8.96875 L 107.71875 11.84375 C 107.71875 12.643882 108.13672 13.229493 108.96875 13.65625 C 109.61946 14.008138 110.39583 14.1875 111.28125 14.1875 L 112.34375 14.1875 C 112.72786 14.1875 113.097 14.153158 113.40625 14.0625 C 113.71549 13.971843 113.97411 13.842123 114.1875 13.6875 C 114.40087 13.532878 114.53889 13.353679 114.65625 13.15625 C 114.77359 12.958823 114.84374 12.75521 114.84375 12.53125 C 114.84374 12.26465 114.71484 12.056317 114.4375 11.875 C 114.16015 11.693687 113.83235 11.593753 113.4375 11.59375 C 113.10709 11.593753 112.78727 11.642581 112.53125 11.78125 C 112.27522 11.919924 112.13736 12.089195 112.0625 12.28125 L 111.3125 12.28125 C 110.82194 12.281252 110.5625 12.153322 110.5625 11.84375 L 110.5625 11.34375 L 111.28125 11.34375 C 112.47591 11.343753 113.4121 11.085941 114.0625 10.53125 C 114.59602 10.083337 114.84374 9.544601 114.84375 8.96875 C 114.84374 8.4033261 114.57519 7.9069073 114.03125 7.4375 C 113.36979 6.893562 112.45442 6.6250076 111.28125 6.625 z M 118.875 6.625 C 118.00032 6.6250076 117.2347 6.7731194 116.5625 7.125 C 115.74121 7.5625066 115.3125 8.179368 115.3125 8.96875 L 115.3125 11.84375 C 115.3125 12.419924 115.5918 12.927085 116.125 13.375 C 116.77571 13.929688 117.69075 14.1875 118.875 14.1875 L 119.9375 14.1875 C 120.60937 14.1875 121.19661 14.048828 121.6875 13.75 C 122.18879 13.440756 122.43749 13.032553 122.4375 12.53125 C 122.43749 12.26465 122.30859 12.056317 122.03125 11.875 C 121.7539 11.693687 121.4261 11.593753 121.03125 11.59375 C 120.70084 11.593753 120.38102 11.642581 120.125 11.78125 C 119.86897 11.919924 119.73111 12.089195 119.65625 12.28125 L 118.875 12.28125 C 118.6722 12.281252 118.53352 12.261395 118.4375 12.21875 C 118.26692 12.143882 118.15625 12.014976 118.15625 11.8125 L 118.15625 8.96875 C 118.15625 8.8300835 118.18619 8.7516331 118.25 8.6875 C 118.36751 8.5703181 118.597 8.5000057 118.90625 8.5 L 119.65625 8.5 C 119.74186 8.7239638 119.87972 8.9033256 120.125 9.03125 C 120.37027 9.1591847 120.6901 9.218755 121.03125 9.21875 C 121.4261 9.218755 121.7539 9.1293996 122.03125 8.9375 C 122.30859 8.7456109 122.43749 8.5061906 122.4375 8.25 C 122.43749 7.7913475 122.23925 7.4235094 121.8125 7.125 C 121.34309 6.7835361 120.7054 6.6250076 119.9375 6.625 L 118.875 6.625 z M 126.46875 6.625 C 125.27409 6.6250076 124.33821 6.8828198 123.6875 7.4375 C 123.16471 7.8642641 122.90625 8.3714251 122.90625 8.96875 L 122.90625 13.25 C 122.90625 13.516602 123.06641 13.756185 123.34375 13.9375 C 123.62109 14.118815 123.94922 14.1875 124.34375 14.1875 C 124.72786 14.1875 125.06103 14.092936 125.34375 13.90625 C 125.62646 13.719564 125.75 13.50586 125.75 13.25 L 125.75 9 C 125.75 8.7867893 125.84993 8.647792 126.03125 8.5625 C 126.10579 8.5306046 126.2552 8.5000057 126.46875 8.5 L 127.25 8.5 C 127.33561 8.7239638 127.47347 8.9033256 127.71875 9.03125 C 127.96402 9.1591847 128.28385 9.218755 128.625 9.21875 C 129.01985 9.218755 129.34765 9.1293996 129.625 8.9375 C 129.90234 8.7456109 130.03124 8.5061906 130.03125 8.25 C 130.03124 7.7379622 129.78254 7.3505928 129.28125 7.0625 C 128.79036 6.7640048 128.20312 6.6250076 127.53125 6.625 L 126.46875 6.625 z M 134.0625 6.625 C 132.86784 6.6250076 131.93196 6.8828198 131.28125 7.4375 C 130.75846 7.8642641 130.5 8.3714251 130.5 8.96875 L 130.5 11.84375 C 130.5 12.643882 130.91797 13.229493 131.75 13.65625 C 132.40071 14.008138 133.17708 14.1875 134.0625 14.1875 L 135.125 14.1875 C 135.50911 14.1875 135.87825 14.153158 136.1875 14.0625 C 136.49674 13.971843 136.75536 13.842123 136.96875 13.6875 C 137.18212 13.532878 137.32014 13.353679 137.4375 13.15625 C 137.55484 12.958823 137.62499 12.75521 137.625 12.53125 C 137.62499 12.26465 137.49609 12.056317 137.21875 11.875 C 136.9414 11.693687 136.6136 11.593753 136.21875 11.59375 C 135.88834 11.593753 135.56852 11.642581 135.3125 11.78125 C 135.05647 11.919924 134.91861 12.089195 134.84375 12.28125 L 134.09375 12.28125 C 133.60319 12.281252 133.34375 12.153322 133.34375 11.84375 L 133.34375 11.34375 L 134.0625 11.34375 C 135.25716 11.343753 136.19335 11.085941 136.84375 10.53125 C 137.37727 10.083337 137.62499 9.544601 137.625 8.96875 C 137.62499 8.4033261 137.35644 7.9069073 136.8125 7.4375 C 136.15104 6.893562 135.23567 6.6250076 134.0625 6.625 z M 170.28125 6.625 C 169.52376 6.6250076 168.91732 6.7731194 168.4375 7.125 C 168.01074 7.4449937 167.78125 7.8232486 167.78125 8.25 C 167.78125 8.5273494 167.91553 8.7561903 168.1875 8.9375 C 168.45947 9.1188202 168.81348 9.218755 169.21875 9.21875 C 169.54948 9.218755 169.83773 9.1386769 170.09375 9 C 170.34977 8.8613334 170.5192 8.7024795 170.59375 8.5 L 171.3125 8.5 C 171.69628 8.5000057 171.94563 8.5999405 172.03125 8.78125 C 172.0524 8.8450574 172.0625 8.8938855 172.0625 8.96875 L 172.0625 9.46875 L 171.34375 9.46875 C 170.14909 9.4687547 169.21321 9.726567 168.5625 10.28125 C 168.03971 10.707686 167.78125 11.246422 167.78125 11.84375 C 167.78125 12.419924 168.06055 12.927085 168.59375 13.375 C 169.24446 13.929688 170.1595 14.1875 171.34375 14.1875 C 172.53841 14.1875 173.4746 13.929688 174.125 13.375 C 174.65852 12.927085 174.90624 12.419924 174.90625 11.84375 L 174.90625 8.96875 C 174.90624 8.179368 174.48827 7.5625066 173.65625 7.125 C 172.98437 6.7731194 172.21842 6.6250076 171.34375 6.625 L 170.28125 6.625 z M 178.9375 6.625 C 177.74284 6.6250076 176.80696 6.8828198 176.15625 7.4375 C 175.63346 7.8642641 175.375 8.3714251 175.375 8.96875 L 175.375 13.25 C 175.375 13.516602 175.53516 13.756185 175.8125 13.9375 C 176.08984 14.118815 176.41797 14.1875 176.8125 14.1875 C 177.19661 14.1875 177.52978 14.092936 177.8125 13.90625 C 178.09521 13.719564 178.21875 13.50586 178.21875 13.25 L 178.21875 9 C 178.21875 8.7867893 178.31868 8.647792 178.5 8.5625 C 178.57454 8.5306046 178.72395 8.5000057 178.9375 8.5 L 179.71875 8.5 C 179.80436 8.7239638 179.94222 8.9033256 180.1875 9.03125 C 180.43277 9.1591847 180.7526 9.218755 181.09375 9.21875 C 181.4886 9.218755 181.8164 9.1293996 182.09375 8.9375 C 182.37109 8.7456109 182.49999 8.5061906 182.5 8.25 C 182.49999 7.7379622 182.25129 7.3505928 181.75 7.0625 C 181.25911 6.7640048 180.67187 6.6250076 180 6.625 L 178.9375 6.625 z M 184.40625 6.625 C 184.01172 6.6250076 183.68359 6.6936924 183.40625 6.875 C 183.12891 7.0563222 182.96875 7.2959053 182.96875 7.5625 L 182.96875 11.84375 C 182.96875 12.419924 183.24805 12.927085 183.78125 13.375 C 184.43196 13.929688 185.347 14.1875 186.53125 14.1875 L 187.25 14.1875 L 187.25 14.65625 C 187.25 14.827148 187.19498 14.956705 187.09375 15.03125 C 186.99251 15.105793 186.80859 15.124999 186.53125 15.125 L 185.78125 15.125 C 185.69596 14.911783 185.52653 14.752929 185.28125 14.625 C 185.03597 14.49707 184.74772 14.4375 184.40625 14.4375 C 184.01172 14.4375 183.68359 14.537435 183.40625 14.71875 C 183.12891 14.900064 182.96875 15.108398 182.96875 15.375 C 182.96875 15.8763 183.24805 16.305011 183.78125 16.625 C 184.26139 16.913083 184.81803 17.031247 185.46875 17.03125 L 186.53125 17.03125 C 187.72591 17.031247 188.6621 16.773435 189.3125 16.21875 C 189.84602 15.770832 190.09374 15.243163 190.09375 14.65625 L 190.09375 7.5625 C 190.09374 7.2959053 189.96484 7.0563222 189.6875 6.875 C 189.41015 6.6936924 189.08235 6.6250076 188.6875 6.625 C 188.29296 6.6250076 187.93359 6.6936924 187.65625 6.875 C 187.3789 7.0563222 187.25 7.2959053 187.25 7.5625 L 187.25 12.28125 L 186.53125 12.28125 C 186.32845 12.281252 186.18977 12.261395 186.09375 12.21875 C 185.92317 12.143882 185.8125 12.014976 185.8125 11.8125 L 185.8125 7.5625 C 185.8125 7.2959053 185.68359 7.0563222 185.40625 6.875 C 185.1289 6.6936924 184.8011 6.6250076 184.40625 6.625 z M 194.125 6.625 C 192.93034 6.6250076 191.99446 6.8828198 191.34375 7.4375 C 190.82096 7.8642641 190.5625 8.3714251 190.5625 8.96875 L 190.5625 11.84375 C 190.5625 12.419924 190.8418 12.927085 191.375 13.375 C 192.02571 13.929688 192.94075 14.1875 194.125 14.1875 C 195.31966 14.1875 196.25585 13.929688 196.90625 13.375 C 197.43977 12.927085 197.68749 12.419924 197.6875 11.84375 L 197.6875 8.96875 C 197.68749 8.4033261 197.41894 7.9069073 196.875 7.4375 C 196.21354 6.893562 195.29817 6.6250076 194.125 6.625 z M 227.15625 6.625 C 225.96159 6.6250076 225.02571 6.8828198 224.375 7.4375 C 223.85221 7.8642641 223.59375 8.3714251 223.59375 8.96875 L 223.59375 13.25 C 223.59375 13.516602 223.75391 13.756185 224.03125 13.9375 C 224.30859 14.118815 224.63672 14.1875 225.03125 14.1875 C 225.41536 14.1875 225.74853 14.092936 226.03125 13.90625 C 226.31396 13.719564 226.4375 13.50586 226.4375 13.25 L 226.4375 9 C 226.4375 8.7867893 226.53743 8.647792 226.71875 8.5625 C 226.79329 8.5306046 226.9427 8.5000057 227.15625 8.5 L 227.9375 8.5 C 228.02311 8.7239638 228.16097 8.9033256 228.40625 9.03125 C 228.65152 9.1591847 228.97135 9.218755 229.3125 9.21875 C 229.70735 9.218755 230.03515 9.1293996 230.3125 8.9375 C 230.58984 8.7456109 230.71874 8.5061906 230.71875 8.25 C 230.71874 7.7379622 230.47004 7.3505928 229.96875 7.0625 C 229.47786 6.7640048 228.89062 6.6250076 228.21875 6.625 L 227.15625 6.625 z M 234.5 6.625 C 233.30534 6.6250076 232.36946 6.8828198 231.71875 7.4375 C 231.19596 7.8642641 230.9375 8.3714251 230.9375 8.96875 L 230.9375 11.84375 C 230.9375 12.419924 231.2168 12.927085 231.75 13.375 C 232.40071 13.929688 233.31575 14.1875 234.5 14.1875 C 235.69466 14.1875 236.63085 13.929688 237.28125 13.375 C 237.81477 12.927085 238.06249 12.419924 238.0625 11.84375 L 238.0625 8.96875 C 238.06249 8.4033261 237.79394 7.9069073 237.25 7.4375 C 236.58854 6.893562 235.67317 6.6250076 234.5 6.625 z M 241.84375 6.625 C 240.64909 6.6250076 239.71321 6.8828198 239.0625 7.4375 C 238.53971 7.8642641 238.28125 8.3714251 238.28125 8.96875 L 238.28125 13.25 C 238.28125 13.516602 238.44141 13.756185 238.71875 13.9375 C 238.99609 14.118815 239.32422 14.1875 239.71875 14.1875 C 240.10286 14.1875 240.43603 14.092936 240.71875 13.90625 C 241.00146 13.719564 241.125 13.50586 241.125 13.25 L 241.125 9 C 241.125 8.7867893 241.22493 8.647792 241.40625 8.5625 C 241.48079 8.5306046 241.6302 8.5000057 241.84375 8.5 C 242.03548 8.5000057 242.1997 8.5351619 242.34375 8.59375 C 242.48779 8.6523493 242.5625 8.7867893 242.5625 9 L 242.5625 13.25 C 242.5625 13.516602 242.6914 13.756185 242.96875 13.9375 C 243.24609 14.118815 243.60546 14.1875 244 14.1875 C 244.38411 14.1875 244.71728 14.092936 245 13.90625 C 245.28271 13.719564 245.40624 13.50586 245.40625 13.25 L 245.40625 8.96875 C 245.40624 8.4033261 245.13769 7.9069073 244.59375 7.4375 C 243.93229 6.893562 243.01692 6.6250076 241.84375 6.625 z M 247.0625 6.625 C 246.66797 6.6250076 246.33984 6.6936924 246.0625 6.875 C 245.78516 7.0563222 245.625 7.2959053 245.625 7.5625 L 245.625 13.25 C 245.625 13.516602 245.78516 13.756185 246.0625 13.9375 C 246.33984 14.118815 246.66797 14.1875 247.0625 14.1875 C 247.44661 14.1875 247.77978 14.092936 248.0625 13.90625 C 248.34521 13.719564 248.46875 13.50586 248.46875 13.25 L 248.46875 7.5625 C 248.46875 7.2959053 248.33984 7.0563222 248.0625 6.875 C 247.78515 6.6936924 247.45735 6.6250076 247.0625 6.625 z M 252.25 6.625 C 251.37532 6.6250076 250.6097 6.7731194 249.9375 7.125 C 249.11621 7.5625066 248.6875 8.179368 248.6875 8.96875 L 248.6875 11.84375 C 248.6875 12.419924 248.9668 12.927085 249.5 13.375 C 250.15071 13.929688 251.06575 14.1875 252.25 14.1875 L 253.3125 14.1875 C 253.98437 14.1875 254.57161 14.048828 255.0625 13.75 C 255.56379 13.440756 255.81249 13.032553 255.8125 12.53125 C 255.81249 12.26465 255.68359 12.056317 255.40625 11.875 C 255.1289 11.693687 254.8011 11.593753 254.40625 11.59375 C 254.07584 11.593753 253.75602 11.642581 253.5 11.78125 C 253.24397 11.919924 253.10611 12.089195 253.03125 12.28125 L 252.25 12.28125 C 252.0472 12.281252 251.90852 12.261395 251.8125 12.21875 C 251.64192 12.143882 251.53125 12.014976 251.53125 11.8125 L 251.53125 8.96875 C 251.53125 8.8300835 251.56119 8.7516331 251.625 8.6875 C 251.74251 8.5703181 251.972 8.5000057 252.28125 8.5 L 253.03125 8.5 C 253.11686 8.7239638 253.25472 8.9033256 253.5 9.03125 C 253.74527 9.1591847 254.0651 9.218755 254.40625 9.21875 C 254.8011 9.218755 255.1289 9.1293996 255.40625 8.9375 C 255.68359 8.7456109 255.81249 8.5061906 255.8125 8.25 C 255.81249 7.7913475 255.61425 7.4235094 255.1875 7.125 C 254.71809 6.7835361 254.0804 6.6250076 253.3125 6.625 L 252.25 6.625 z M 262.65625 6.625 C 261.46159 6.6250076 260.52571 6.8828198 259.875 7.4375 C 259.35221 7.8642641 259.09375 8.3714251 259.09375 8.96875 L 259.09375 11.84375 C 259.09375 12.643882 259.51172 13.229493 260.34375 13.65625 C 260.99446 14.008138 261.77083 14.1875 262.65625 14.1875 L 263.71875 14.1875 C 264.10286 14.1875 264.472 14.153158 264.78125 14.0625 C 265.09049 13.971843 265.34911 13.842123 265.5625 13.6875 C 265.77587 13.532878 265.91389 13.353679 266.03125 13.15625 C 266.14859 12.958823 266.21874 12.75521 266.21875 12.53125 C 266.21874 12.26465 266.08984 12.056317 265.8125 11.875 C 265.53515 11.693687 265.20735 11.593753 264.8125 11.59375 C 264.48209 11.593753 264.16227 11.642581 263.90625 11.78125 C 263.65022 11.919924 263.51236 12.089195 263.4375 12.28125 L 262.6875 12.28125 C 262.19694 12.281252 261.9375 12.153322 261.9375 11.84375 L 261.9375 11.34375 L 262.65625 11.34375 C 263.85091 11.343753 264.7871 11.085941 265.4375 10.53125 C 265.97102 10.083337 266.21874 9.544601 266.21875 8.96875 C 266.21874 8.4033261 265.95019 7.9069073 265.40625 7.4375 C 264.74479 6.893562 263.82942 6.6250076 262.65625 6.625 z M 270.25 6.625 C 269.37532 6.6250076 268.6097 6.7731194 267.9375 7.125 C 267.11621 7.5625066 266.6875 8.179368 266.6875 8.96875 C 266.6875 9.7685591 267.10547 10.385746 267.9375 10.8125 C 268.58821 11.164391 269.34407 11.343753 270.21875 11.34375 C 270.60253 11.343753 270.85188 11.443688 270.9375 11.625 C 270.95865 11.68913 270.96875 11.769208 270.96875 11.84375 C 270.96875 11.982424 270.93912 12.060875 270.875 12.125 C 270.76855 12.231773 270.53873 12.281252 270.21875 12.28125 L 269.5 12.28125 C 269.41471 12.06771 269.24528 11.909182 269 11.78125 C 268.75472 11.653323 268.46647 11.593753 268.125 11.59375 C 267.73047 11.593753 267.40234 11.693687 267.125 11.875 C 266.84766 12.056317 266.6875 12.26465 266.6875 12.53125 C 266.6875 13.032553 266.9668 13.430014 267.5 13.75 C 267.98014 14.038086 268.53678 14.1875 269.1875 14.1875 L 270.25 14.1875 C 271.12467 14.1875 271.91113 14.01888 272.59375 13.65625 C 273.41503 13.218751 273.81249 12.622397 273.8125 11.84375 C 273.81249 11.054691 273.39452 10.437504 272.5625 10 C 271.90104 9.6481165 271.14518 9.4687547 270.28125 9.46875 C 269.89713 9.4687547 269.64778 9.3688199 269.5625 9.1875 C 269.54134 9.1233775 269.53125 9.0432994 269.53125 8.96875 C 269.53125 8.8300835 269.56119 8.7516331 269.625 8.6875 C 269.74251 8.5703181 269.972 8.5000057 270.28125 8.5 L 271.03125 8.5 C 271.11686 8.7239638 271.25472 8.9033256 271.5 9.03125 C 271.74527 9.1591847 272.0651 9.218755 272.40625 9.21875 C 272.8011 9.218755 273.1289 9.1293996 273.40625 8.9375 C 273.68359 8.7456109 273.81249 8.5061906 273.8125 8.25 C 273.81249 7.7913475 273.61425 7.4235094 273.1875 7.125 C 272.71809 6.7835361 272.0804 6.6250076 271.3125 6.625 L 270.25 6.625 z M 291.9375 6.625 C 291.18001 6.6250076 290.57357 6.7731194 290.09375 7.125 C 289.66699 7.4449937 289.4375 7.8232486 289.4375 8.25 C 289.4375 8.5273494 289.57178 8.7561903 289.84375 8.9375 C 290.11572 9.1188202 290.46973 9.218755 290.875 9.21875 C 291.20573 9.218755 291.49398 9.1386769 291.75 9 C 292.00602 8.8613334 292.17545 8.7024795 292.25 8.5 L 292.96875 8.5 C 293.35253 8.5000057 293.60188 8.5999405 293.6875 8.78125 C 293.70865 8.8450574 293.71875 8.8938855 293.71875 8.96875 L 293.71875 9.46875 L 293 9.46875 C 291.80534 9.4687547 290.86946 9.726567 290.21875 10.28125 C 289.69596 10.707686 289.4375 11.246422 289.4375 11.84375 C 289.4375 12.419924 289.7168 12.927085 290.25 13.375 C 290.90071 13.929688 291.81575 14.1875 293 14.1875 C 294.19466 14.1875 295.13085 13.929688 295.78125 13.375 C 296.31477 12.927085 296.56249 12.419924 296.5625 11.84375 L 296.5625 8.96875 C 296.56249 8.179368 296.14452 7.5625066 295.3125 7.125 C 294.64062 6.7731194 293.87467 6.6250076 293 6.625 L 291.9375 6.625 z M 298.21875 6.625 C 297.82422 6.6250076 297.49609 6.6936924 297.21875 6.875 C 296.94141 7.0563222 296.78125 7.2959053 296.78125 7.5625 L 296.78125 11.84375 C 296.78125 12.419924 297.06055 12.927085 297.59375 13.375 C 298.24446 13.929688 299.1595 14.1875 300.34375 14.1875 L 301.0625 14.1875 L 301.0625 14.65625 C 301.0625 14.827148 301.00748 14.956705 300.90625 15.03125 C 300.80501 15.105793 300.62109 15.124999 300.34375 15.125 L 299.59375 15.125 C 299.50846 14.911783 299.33903 14.752929 299.09375 14.625 C 298.84847 14.49707 298.56022 14.4375 298.21875 14.4375 C 297.82422 14.4375 297.49609 14.537435 297.21875 14.71875 C 296.94141 14.900064 296.78125 15.108398 296.78125 15.375 C 296.78125 15.8763 297.06055 16.305011 297.59375 16.625 C 298.07389 16.913083 298.63053 17.031247 299.28125 17.03125 L 300.34375 17.03125 C 301.53841 17.031247 302.4746 16.773435 303.125 16.21875 C 303.65852 15.770832 303.90624 15.243163 303.90625 14.65625 L 303.90625 7.5625 C 303.90624 7.2959053 303.77734 7.0563222 303.5 6.875 C 303.22265 6.6936924 302.89485 6.6250076 302.5 6.625 C 302.10546 6.6250076 301.74609 6.6936924 301.46875 6.875 C 301.1914 7.0563222 301.0625 7.2959053 301.0625 7.5625 L 301.0625 12.28125 L 300.34375 12.28125 C 300.14095 12.281252 300.00227 12.261395 299.90625 12.21875 C 299.73567 12.143882 299.625 12.014976 299.625 11.8125 L 299.625 7.5625 C 299.625 7.2959053 299.49609 7.0563222 299.21875 6.875 C 298.9414 6.6936924 298.6136 6.6250076 298.21875 6.625 z M 307.6875 6.625 C 306.49284 6.6250076 305.55696 6.8828198 304.90625 7.4375 C 304.38346 7.8642641 304.125 8.3714251 304.125 8.96875 L 304.125 11.84375 C 304.125 12.643882 304.54297 13.229493 305.375 13.65625 C 306.02571 14.008138 306.80208 14.1875 307.6875 14.1875 L 308.75 14.1875 C 309.13411 14.1875 309.50325 14.153158 309.8125 14.0625 C 310.12174 13.971843 310.38036 13.842123 310.59375 13.6875 C 310.80712 13.532878 310.94514 13.353679 311.0625 13.15625 C 311.17984 12.958823 311.24999 12.75521 311.25 12.53125 C 311.24999 12.26465 311.12109 12.056317 310.84375 11.875 C 310.5664 11.693687 310.2386 11.593753 309.84375 11.59375 C 309.51334 11.593753 309.19352 11.642581 308.9375 11.78125 C 308.68147 11.919924 308.54361 12.089195 308.46875 12.28125 L 307.71875 12.28125 C 307.22819 12.281252 306.96875 12.153322 306.96875 11.84375 L 306.96875 11.34375 L 307.6875 11.34375 C 308.88216 11.343753 309.81835 11.085941 310.46875 10.53125 C 311.00227 10.083337 311.24999 9.544601 311.25 8.96875 C 311.24999 8.4033261 310.98144 7.9069073 310.4375 7.4375 C 309.77604 6.893562 308.86067 6.6250076 307.6875 6.625 z M 315.03125 6.625 C 313.83659 6.6250076 312.90071 6.8828198 312.25 7.4375 C 311.72721 7.8642641 311.46875 8.3714251 311.46875 8.96875 L 311.46875 13.25 C 311.46875 13.516602 311.62891 13.756185 311.90625 13.9375 C 312.18359 14.118815 312.51172 14.1875 312.90625 14.1875 C 313.29036 14.1875 313.62353 14.092936 313.90625 13.90625 C 314.18896 13.719564 314.3125 13.50586 314.3125 13.25 L 314.3125 9 C 314.3125 8.7867893 314.41243 8.647792 314.59375 8.5625 C 314.66829 8.5306046 314.8177 8.5000057 315.03125 8.5 L 315.8125 8.5 C 315.89811 8.7239638 316.03597 8.9033256 316.28125 9.03125 C 316.52652 9.1591847 316.84635 9.218755 317.1875 9.21875 C 317.58235 9.218755 317.91015 9.1293996 318.1875 8.9375 C 318.46484 8.7456109 318.59374 8.5061906 318.59375 8.25 C 318.59374 7.7379622 318.34504 7.3505928 317.84375 7.0625 C 317.35286 6.7640048 316.76562 6.6250076 316.09375 6.625 L 315.03125 6.625 z M 111.28125 8.5 C 111.47298 8.5000057 111.6372 8.5351619 111.78125 8.59375 C 111.92529 8.6523493 112 8.7659559 112 8.96875 C 112 9.139328 111.94498 9.2690479 111.84375 9.34375 C 111.74251 9.4184618 111.55859 9.4687547 111.28125 9.46875 L 110.5625 9.46875 L 110.5625 9 C 110.5625 8.7867893 110.66243 8.647792 110.84375 8.5625 C 110.91829 8.5306046 111.0677 8.5000057 111.28125 8.5 z M 134.0625 8.5 C 134.25423 8.5000057 134.41845 8.5351619 134.5625 8.59375 C 134.70654 8.6523493 134.78125 8.7659559 134.78125 8.96875 C 134.78125 9.139328 134.72623 9.2690479 134.625 9.34375 C 134.52376 9.4184618 134.33984 9.4687547 134.0625 9.46875 L 133.34375 9.46875 L 133.34375 9 C 133.34375 8.7867893 133.44368 8.647792 133.625 8.5625 C 133.69954 8.5306046 133.84895 8.5000057 134.0625 8.5 z M 194.125 8.5 C 194.31673 8.5000057 194.48095 8.5351619 194.625 8.59375 C 194.76904 8.6523493 194.84375 8.7867893 194.84375 9 L 194.84375 11.8125 C 194.84375 11.983075 194.78873 12.112795 194.6875 12.1875 C 194.58626 12.262209 194.40234 12.281252 194.125 12.28125 C 193.9222 12.281252 193.78352 12.261395 193.6875 12.21875 C 193.51692 12.143882 193.40625 12.014976 193.40625 11.8125 L 193.40625 9 C 193.40625 8.7867893 193.50618 8.647792 193.6875 8.5625 C 193.76204 8.5306046 193.91145 8.5000057 194.125 8.5 z M 234.5 8.5 C 234.69173 8.5000057 234.85595 8.5351619 235 8.59375 C 235.14404 8.6523493 235.21875 8.7867893 235.21875 9 L 235.21875 11.8125 C 235.21875 11.983075 235.16373 12.112795 235.0625 12.1875 C 234.96126 12.262209 234.77734 12.281252 234.5 12.28125 C 234.2972 12.281252 234.15852 12.261395 234.0625 12.21875 C 233.89192 12.143882 233.78125 12.014976 233.78125 11.8125 L 233.78125 9 C 233.78125 8.7867893 233.88118 8.647792 234.0625 8.5625 C 234.13704 8.5306046 234.28645 8.5000057 234.5 8.5 z M 262.65625 8.5 C 262.84798 8.5000057 263.0122 8.5351619 263.15625 8.59375 C 263.30029 8.6523493 263.375 8.7659559 263.375 8.96875 C 263.375 9.139328 263.31998 9.2690479 263.21875 9.34375 C 263.11751 9.4184618 262.93359 9.4687547 262.65625 9.46875 L 261.9375 9.46875 L 261.9375 9 C 261.9375 8.7867893 262.03743 8.647792 262.21875 8.5625 C 262.29329 8.5306046 262.4427 8.5000057 262.65625 8.5 z M 307.6875 8.5 C 307.87923 8.5000057 308.04345 8.5351619 308.1875 8.59375 C 308.33154 8.6523493 308.40625 8.7659559 308.40625 8.96875 C 308.40625 9.139328 308.35123 9.2690479 308.25 9.34375 C 308.14876 9.4184618 307.96484 9.4687547 307.6875 9.46875 L 306.96875 9.46875 L 306.96875 9 C 306.96875 8.7867893 307.06868 8.647792 307.25 8.5625 C 307.32454 8.5306046 307.47395 8.5000057 307.6875 8.5 z M 171.34375 11.34375 L 172.0625 11.34375 L 172.0625 11.8125 C 172.0625 11.983075 172.00748 12.112795 171.90625 12.1875 C 171.80501 12.262209 171.62109 12.281252 171.34375 12.28125 C 171.15169 12.281252 170.98242 12.272137 170.84375 12.21875 C 170.70507 12.165367 170.625 12.046552 170.625 11.84375 C 170.625 11.641279 170.72493 11.491539 170.90625 11.40625 C 170.98079 11.374026 171.1302 11.343753 171.34375 11.34375 z M 293 11.34375 L 293.71875 11.34375 L 293.71875 11.8125 C 293.71875 11.983075 293.66373 12.112795 293.5625 12.1875 C 293.46126 12.262209 293.27734 12.281252 293 12.28125 C 292.80794 12.281252 292.63867 12.272137 292.5 12.21875 C 292.36132 12.165367 292.28125 12.046552 292.28125 11.84375 C 292.28125 11.641279 292.38118 11.491539 292.5625 11.40625 C 292.63704 11.374026 292.78645 11.343753 293 11.34375 z "
       xlink:href="#text2431"
       style="font-size:20px;font-style:normal;font-variant:normal;font-weight:normal;font-stretch:normal;fill:#68ff53;fill-opacity:1;stroke:none;stroke-width:0.60000001999999997;stroke-linecap:round;stroke-linejoin:round;stroke-miterlimit:4;stroke-dasharray:none;stroke-dashoffset:0;stroke-opacity:1;font-family:Visitor TT2 BRK;-inkscape-font-specification:Visitor TT2 BRK;filter:url(#filter4264)"
       id="path4242"
       inkscape:href="#text2431"
       d="M 103.6875,3.75 C 102.81282,3.7500104 102.0472,3.9290467 101.375,4.28125 C 100.55371,4.7184339 100.125,5.3356208 100.125,6.125 C 100.125,6.9251375 100.54297,7.5423244 101.375,7.96875 C 102.02571,8.3209694 102.78157,8.5000057 103.65625,8.5 C 104.04003,8.5000057 104.28938,8.5999405 104.375,8.78125 C 104.39615,8.8450574 104.40625,8.8938855 104.40625,8.96875 L 104.40625,11.8125 C 104.40625,11.983075 104.35123,12.112795 104.25,12.1875 C 104.14876,12.262209 103.96484,12.281252 103.6875,12.28125 L 102.9375,12.28125 C 102.85221,12.06771 102.68278,11.909182 102.4375,11.78125 C 102.19222,11.653323 101.90397,11.593753 101.5625,11.59375 C 101.16797,11.593753 100.83984,11.693687 100.5625,11.875 C 100.28516,12.056317 100.125,12.26465 100.125,12.53125 C 100.125,13.032553 100.4043,13.430014 100.9375,13.75 C 101.41764,14.038086 101.97428,14.1875 102.625,14.1875 L 103.6875,14.1875 C 104.88216,14.1875 105.81835,13.929688 106.46875,13.375 C 107.00227,12.927085 107.24999,12.419924 107.25,11.84375 L 107.25,8.96875 C 107.24999,8.179368 106.83202,7.5625066 106,7.125 C 105.33854,6.7731194 104.58268,6.6250076 103.71875,6.625 C 103.33463,6.6250076 103.08528,6.5250728 103,6.34375 C 102.97884,6.2796303 102.96875,6.1995523 102.96875,6.125 C 102.96875,5.9863363 102.99869,5.9078859 103.0625,5.84375 C 103.18001,5.726571 103.4095,5.6562585 103.71875,5.65625 L 104.46875,5.65625 C 104.55436,5.8802167 104.69222,6.0595785 104.9375,6.1875 C 105.18277,6.3154376 105.5026,6.3750078 105.84375,6.375 C 106.22786,6.3750078 106.56103,6.2802814 106.84375,6.09375 C 107.12646,5.9072349 107.24999,5.6936934 107.25,5.4375 C 107.24999,5.0003347 107.05175,4.6012466 106.625,4.28125 C 106.15559,3.9290467 105.5179,3.7500104 104.75,3.75 L 103.6875,3.75 z M 159.5,3.75 C 158.30534,3.7500104 157.36946,4.0390727 156.71875,4.59375 C 156.19596,5.0416758 155.9375,5.5488368 155.9375,6.125 L 155.9375,13.25 C 155.9375,13.516602 156.09766,13.756185 156.375,13.9375 C 156.65234,14.118815 156.95963,14.1875 157.34375,14.1875 C 157.73828,14.1875 158.09765,14.092936 158.375,13.90625 C 158.65234,13.719564 158.78125,13.50586 158.78125,13.25 L 158.78125,6.15625 C 158.78125,5.9427166 158.88118,5.7727949 159.0625,5.6875 C 159.13704,5.6556075 159.27571,5.6562585 159.5,5.65625 C 159.69173,5.6562585 159.86132,5.6914148 160,5.75 C 160.13867,5.8086021 160.1875,5.9427166 160.1875,6.15625 L 160.1875,13.25 C 160.1875,13.516602 160.34765,13.756185 160.625,13.9375 C 160.90234,14.118815 161.23014,14.1875 161.625,14.1875 C 162.00878,14.1875 162.34228,14.092936 162.625,13.90625 C 162.90771,13.719564 163.06249,13.50586 163.0625,13.25 L 163.0625,6.15625 C 163.06249,5.9427166 163.13118,5.7727949 163.3125,5.6875 C 163.38704,5.6556075 163.53645,5.6562585 163.75,5.65625 C 163.94205,5.6562585 164.10611,5.6914148 164.25,5.75 C 164.39387,5.8086021 164.46874,5.9427166 164.46875,6.15625 L 164.46875,13.25 C 164.46874,13.516602 164.59765,13.756185 164.875,13.9375 C 165.15233,14.118815 165.51138,14.1875 165.90625,14.1875 C 166.29003,14.1875 166.62352,14.092936 166.90625,13.90625 C 167.18895,13.719564 167.31249,13.50586 167.3125,13.25 L 167.3125,6.125 C 167.31249,5.5703211 167.04393,5.0631602 166.5,4.59375 C 165.84927,4.0390727 164.93391,3.7500104 163.75,3.75 C 162.88606,3.7500104 162.17968,3.8994244 161.625,4.1875 C 161.05956,3.8994244 160.35319,3.7500104 159.5,3.75 z M 212.46875,3.75 C 211.27409,3.7500104 210.33821,4.0390727 209.6875,4.59375 C 209.16471,5.0416758 208.90625,5.5488368 208.90625,6.125 L 208.90625,11.84375 C 208.90625,12.643882 209.32422,13.229493 210.15625,13.65625 C 210.80696,14.008138 211.58333,14.1875 212.46875,14.1875 L 213.53125,14.1875 C 213.91536,14.1875 214.2845,14.153158 214.59375,14.0625 C 214.90299,13.971843 215.16161,13.842123 215.375,13.6875 C 215.58837,13.532878 215.72639,13.353679 215.84375,13.15625 C 215.96109,12.958823 216.03124,12.75521 216.03125,12.53125 C 216.03124,12.26465 215.90234,12.056317 215.625,11.875 C 215.34765,11.693687 215.01985,11.593753 214.625,11.59375 C 214.29459,11.593753 213.97477,11.642581 213.71875,11.78125 C 213.46272,11.919924 213.32486,12.089195 213.25,12.28125 L 212.5,12.28125 C 212.00944,12.281252 211.75,12.153322 211.75,11.84375 L 211.75,6.15625 C 211.75,5.9427166 211.84993,5.7727949 212.03125,5.6875 C 212.10579,5.6556075 212.2552,5.6562585 212.46875,5.65625 L 213.25,5.65625 C 213.33561,5.8802167 213.47347,6.0595785 213.71875,6.1875 C 213.96402,6.3154376 214.28385,6.3750078 214.625,6.375 C 215.00911,6.3750078 215.34228,6.2802814 215.625,6.09375 C 215.90771,5.9072349 216.03124,5.6936934 216.03125,5.4375 C 216.03124,4.925465 215.78352,4.5074967 215.25,4.1875 C 214.78092,3.9101665 214.1927,3.7500104 213.53125,3.75 L 212.46875,3.75 z M 217.6875,3.75 C 217.29297,3.7500104 216.96484,3.8499452 216.6875,4.03125 C 216.41016,4.2125751 216.25,4.4518327 216.25,4.71875 L 216.25,13.25 C 216.25,13.516602 216.41016,13.756185 216.6875,13.9375 C 216.96484,14.118815 217.29297,14.1875 217.6875,14.1875 C 218.07161,14.1875 218.40478,14.092936 218.6875,13.90625 C 218.97021,13.719564 219.09375,13.50586 219.09375,13.25 L 219.09375,8.5 L 219.78125,8.5 C 220.16503,8.5000057 220.41438,8.5999405 220.5,8.78125 C 220.52115,8.8450574 220.53125,8.8938855 220.53125,8.96875 L 220.53125,13.25 C 220.53125,13.516602 220.66015,13.756185 220.9375,13.9375 C 221.21484,14.118815 221.57421,14.1875 221.96875,14.1875 C 222.35286,14.1875 222.68603,14.092936 222.96875,13.90625 C 223.25146,13.719564 223.37499,13.50586 223.375,13.25 L 223.375,8.96875 C 223.37499,8.179368 222.95702,7.5625066 222.125,7.125 C 221.45312,6.7731194 220.68717,6.6250076 219.8125,6.625 L 219.09375,6.625 L 219.09375,4.71875 C 219.09375,4.4518327 218.96484,4.2125751 218.6875,4.03125 C 218.41015,3.8499452 218.08235,3.7500104 217.6875,3.75 z M 257.46875,3.75 C 257.07422,3.7500104 256.74609,3.8499452 256.46875,4.03125 C 256.19141,4.2125751 256.03125,4.4518327 256.03125,4.71875 L 256.03125,13.25 C 256.03125,13.516602 256.19141,13.756185 256.46875,13.9375 C 256.74609,14.118815 257.07422,14.1875 257.46875,14.1875 C 257.85286,14.1875 258.18603,14.092936 258.46875,13.90625 C 258.75146,13.719564 258.875,13.50586 258.875,13.25 L 258.875,4.71875 C 258.875,4.4518327 258.74609,4.2125751 258.46875,4.03125 C 258.1914,3.8499452 257.8636,3.7500104 257.46875,3.75 z M 280.46875,3.75 C 280.07422,3.7500104 279.74609,3.8499452 279.46875,4.03125 C 279.19141,4.2125751 279.03125,4.4518327 279.03125,4.71875 L 279.03125,13.25 C 279.03125,13.516602 279.19141,13.756185 279.46875,13.9375 C 279.74609,14.118815 280.07422,14.1875 280.46875,14.1875 C 280.85286,14.1875 281.18603,14.092936 281.46875,13.90625 C 281.75146,13.719564 281.875,13.50586 281.875,13.25 L 281.875,8.5 L 282.59375,8.5 C 283.47884,8.5000057 284.26529,8.3209694 284.9375,7.96875 C 285.75878,7.5315822 286.15624,6.9143953 286.15625,6.125 C 286.15624,5.3356208 285.73827,4.7184339 284.90625,4.28125 C 284.23437,3.9290467 283.46842,3.7500104 282.59375,3.75 L 280.46875,3.75 z M 287.8125,3.75 C 287.41797,3.7500104 287.08984,3.8499452 286.8125,4.03125 C 286.53516,4.2125751 286.375,4.4518327 286.375,4.71875 L 286.375,13.25 C 286.375,13.516602 286.53516,13.756185 286.8125,13.9375 C 287.08984,14.118815 287.41797,14.1875 287.8125,14.1875 C 288.19661,14.1875 288.52978,14.092936 288.8125,13.90625 C 289.09521,13.719564 289.21875,13.50586 289.21875,13.25 L 289.21875,4.71875 C 289.21875,4.4518327 289.08984,4.2125751 288.8125,4.03125 C 288.53515,3.8499452 288.20735,3.7500104 287.8125,3.75 z M 247.0625,4.46875 C 246.66797,4.4687597 246.33984,4.5579523 246.0625,4.75 C 245.78516,4.9420665 245.625,5.1816496 245.625,5.4375 C 245.625,5.7041101 245.78516,5.9124432 246.0625,6.09375 C 246.33984,6.275073 246.66797,6.3750078 247.0625,6.375 C 247.44661,6.3750078 247.77978,6.2802814 248.0625,6.09375 C 248.34521,5.9072349 248.46875,5.6936934 248.46875,5.4375 C 248.46875,5.1601653 248.33447,4.9313244 248.0625,4.75 C 247.79052,4.5686945 247.4681,4.4687597 247.0625,4.46875 z M 139.53125,5.1875 C 139.13672,5.187509 138.80859,5.2874438 138.53125,5.46875 C 138.25391,5.6500737 138.09375,5.8584068 138.09375,6.125 L 138.09375,11.84375 C 138.09375,12.419924 138.37305,12.927085 138.90625,13.375 C 139.55696,13.929688 140.472,14.1875 141.65625,14.1875 L 142.71875,14.1875 C 143.39062,14.1875 143.97786,14.048828 144.46875,13.75 C 144.97004,13.440756 145.21874,13.032553 145.21875,12.53125 C 145.21874,12.26465 145.08984,12.056317 144.8125,11.875 C 144.53515,11.693687 144.20735,11.593753 143.8125,11.59375 C 143.48209,11.593753 143.16227,11.642581 142.90625,11.78125 C 142.65022,11.919924 142.51236,12.089195 142.4375,12.28125 L 141.65625,12.28125 C 141.45345,12.281252 141.31477,12.261395 141.21875,12.21875 C 141.04817,12.143882 140.9375,12.014976 140.9375,11.8125 L 140.9375,8.5 L 141.65625,8.5 C 142.06152,8.5000057 142.38427,8.4002337 142.65625,8.21875 C 142.92822,8.0372783 143.09374,7.8291079 143.09375,7.5625 C 143.09374,7.2959053 142.93359,7.0563222 142.65625,6.875 C 142.3789,6.6936924 142.05078,6.6250076 141.65625,6.625 L 140.9375,6.625 L 140.9375,6.125 C 140.9375,5.8584068 140.80859,5.6500737 140.53125,5.46875 C 140.2539,5.2874438 139.9261,5.187509 139.53125,5.1875 z M 281.875,5.65625 L 282.5625,5.65625 C 282.94628,5.6562585 283.19563,5.7561933 283.28125,5.9375 C 283.3024,6.0016358 283.3125,6.0504639 283.3125,6.125 C 283.3125,6.2636798 283.28287,6.3733802 283.21875,6.4375 C 283.10156,6.5546951 282.87174,6.6250076 282.5625,6.625 L 281.875,6.625 L 281.875,5.65625 z M 111.28125,6.625 C 110.08659,6.6250076 109.15071,6.8828198 108.5,7.4375 C 107.97721,7.8642641 107.71875,8.3714251 107.71875,8.96875 L 107.71875,11.84375 C 107.71875,12.643882 108.13672,13.229493 108.96875,13.65625 C 109.61946,14.008138 110.39583,14.1875 111.28125,14.1875 L 112.34375,14.1875 C 112.72786,14.1875 113.097,14.153158 113.40625,14.0625 C 113.71549,13.971843 113.97411,13.842123 114.1875,13.6875 C 114.40087,13.532878 114.53889,13.353679 114.65625,13.15625 C 114.77359,12.958823 114.84374,12.75521 114.84375,12.53125 C 114.84374,12.26465 114.71484,12.056317 114.4375,11.875 C 114.16015,11.693687 113.83235,11.593753 113.4375,11.59375 C 113.10709,11.593753 112.78727,11.642581 112.53125,11.78125 C 112.27522,11.919924 112.13736,12.089195 112.0625,12.28125 L 111.3125,12.28125 C 110.82194,12.281252 110.5625,12.153322 110.5625,11.84375 L 110.5625,11.34375 L 111.28125,11.34375 C 112.47591,11.343753 113.4121,11.085941 114.0625,10.53125 C 114.59602,10.083337 114.84374,9.544601 114.84375,8.96875 C 114.84374,8.4033261 114.57519,7.9069073 114.03125,7.4375 C 113.36979,6.893562 112.45442,6.6250076 111.28125,6.625 z M 118.875,6.625 C 118.00032,6.6250076 117.2347,6.7731194 116.5625,7.125 C 115.74121,7.5625066 115.3125,8.179368 115.3125,8.96875 L 115.3125,11.84375 C 115.3125,12.419924 115.5918,12.927085 116.125,13.375 C 116.77571,13.929688 117.69075,14.1875 118.875,14.1875 L 119.9375,14.1875 C 120.60937,14.1875 121.19661,14.048828 121.6875,13.75 C 122.18879,13.440756 122.43749,13.032553 122.4375,12.53125 C 122.43749,12.26465 122.30859,12.056317 122.03125,11.875 C 121.7539,11.693687 121.4261,11.593753 121.03125,11.59375 C 120.70084,11.593753 120.38102,11.642581 120.125,11.78125 C 119.86897,11.919924 119.73111,12.089195 119.65625,12.28125 L 118.875,12.28125 C 118.6722,12.281252 118.53352,12.261395 118.4375,12.21875 C 118.26692,12.143882 118.15625,12.014976 118.15625,11.8125 L 118.15625,8.96875 C 118.15625,8.8300835 118.18619,8.7516331 118.25,8.6875 C 118.36751,8.5703181 118.597,8.5000057 118.90625,8.5 L 119.65625,8.5 C 119.74186,8.7239638 119.87972,8.9033256 120.125,9.03125 C 120.37027,9.1591847 120.6901,9.218755 121.03125,9.21875 C 121.4261,9.218755 121.7539,9.1293996 122.03125,8.9375 C 122.30859,8.7456109 122.43749,8.5061906 122.4375,8.25 C 122.43749,7.7913475 122.23925,7.4235094 121.8125,7.125 C 121.34309,6.7835361 120.7054,6.6250076 119.9375,6.625 L 118.875,6.625 z M 126.46875,6.625 C 125.27409,6.6250076 124.33821,6.8828198 123.6875,7.4375 C 123.16471,7.8642641 122.90625,8.3714251 122.90625,8.96875 L 122.90625,13.25 C 122.90625,13.516602 123.06641,13.756185 123.34375,13.9375 C 123.62109,14.118815 123.94922,14.1875 124.34375,14.1875 C 124.72786,14.1875 125.06103,14.092936 125.34375,13.90625 C 125.62646,13.719564 125.75,13.50586 125.75,13.25 L 125.75,9 C 125.75,8.7867893 125.84993,8.647792 126.03125,8.5625 C 126.10579,8.5306046 126.2552,8.5000057 126.46875,8.5 L 127.25,8.5 C 127.33561,8.7239638 127.47347,8.9033256 127.71875,9.03125 C 127.96402,9.1591847 128.28385,9.218755 128.625,9.21875 C 129.01985,9.218755 129.34765,9.1293996 129.625,8.9375 C 129.90234,8.7456109 130.03124,8.5061906 130.03125,8.25 C 130.03124,7.7379622 129.78254,7.3505928 129.28125,7.0625 C 128.79036,6.7640048 128.20312,6.6250076 127.53125,6.625 L 126.46875,6.625 z M 134.0625,6.625 C 132.86784,6.6250076 131.93196,6.8828198 131.28125,7.4375 C 130.75846,7.8642641 130.5,8.3714251 130.5,8.96875 L 130.5,11.84375 C 130.5,12.643882 130.91797,13.229493 131.75,13.65625 C 132.40071,14.008138 133.17708,14.1875 134.0625,14.1875 L 135.125,14.1875 C 135.50911,14.1875 135.87825,14.153158 136.1875,14.0625 C 136.49674,13.971843 136.75536,13.842123 136.96875,13.6875 C 137.18212,13.532878 137.32014,13.353679 137.4375,13.15625 C 137.55484,12.958823 137.62499,12.75521 137.625,12.53125 C 137.62499,12.26465 137.49609,12.056317 137.21875,11.875 C 136.9414,11.693687 136.6136,11.593753 136.21875,11.59375 C 135.88834,11.593753 135.56852,11.642581 135.3125,11.78125 C 135.05647,11.919924 134.91861,12.089195 134.84375,12.28125 L 134.09375,12.28125 C 133.60319,12.281252 133.34375,12.153322 133.34375,11.84375 L 133.34375,11.34375 L 134.0625,11.34375 C 135.25716,11.343753 136.19335,11.085941 136.84375,10.53125 C 137.37727,10.083337 137.62499,9.544601 137.625,8.96875 C 137.62499,8.4033261 137.35644,7.9069073 136.8125,7.4375 C 136.15104,6.893562 135.23567,6.6250076 134.0625,6.625 z M 170.28125,6.625 C 169.52376,6.6250076 168.91732,6.7731194 168.4375,7.125 C 168.01074,7.4449937 167.78125,7.8232486 167.78125,8.25 C 167.78125,8.5273494 167.91553,8.7561903 168.1875,8.9375 C 168.45947,9.1188202 168.81348,9.218755 169.21875,9.21875 C 169.54948,9.218755 169.83773,9.1386769 170.09375,9 C 170.34977,8.8613334 170.5192,8.7024795 170.59375,8.5 L 171.3125,8.5 C 171.69628,8.5000057 171.94563,8.5999405 172.03125,8.78125 C 172.0524,8.8450574 172.0625,8.8938855 172.0625,8.96875 L 172.0625,9.46875 L 171.34375,9.46875 C 170.14909,9.4687547 169.21321,9.726567 168.5625,10.28125 C 168.03971,10.707686 167.78125,11.246422 167.78125,11.84375 C 167.78125,12.419924 168.06055,12.927085 168.59375,13.375 C 169.24446,13.929688 170.1595,14.1875 171.34375,14.1875 C 172.53841,14.1875 173.4746,13.929688 174.125,13.375 C 174.65852,12.927085 174.90624,12.419924 174.90625,11.84375 L 174.90625,8.96875 C 174.90624,8.179368 174.48827,7.5625066 173.65625,7.125 C 172.98437,6.7731194 172.21842,6.6250076 171.34375,6.625 L 170.28125,6.625 z M 178.9375,6.625 C 177.74284,6.6250076 176.80696,6.8828198 176.15625,7.4375 C 175.63346,7.8642641 175.375,8.3714251 175.375,8.96875 L 175.375,13.25 C 175.375,13.516602 175.53516,13.756185 175.8125,13.9375 C 176.08984,14.118815 176.41797,14.1875 176.8125,14.1875 C 177.19661,14.1875 177.52978,14.092936 177.8125,13.90625 C 178.09521,13.719564 178.21875,13.50586 178.21875,13.25 L 178.21875,9 C 178.21875,8.7867893 178.31868,8.647792 178.5,8.5625 C 178.57454,8.5306046 178.72395,8.5000057 178.9375,8.5 L 179.71875,8.5 C 179.80436,8.7239638 179.94222,8.9033256 180.1875,9.03125 C 180.43277,9.1591847 180.7526,9.218755 181.09375,9.21875 C 181.4886,9.218755 181.8164,9.1293996 182.09375,8.9375 C 182.37109,8.7456109 182.49999,8.5061906 182.5,8.25 C 182.49999,7.7379622 182.25129,7.3505928 181.75,7.0625 C 181.25911,6.7640048 180.67187,6.6250076 180,6.625 L 178.9375,6.625 z M 184.40625,6.625 C 184.01172,6.6250076 183.68359,6.6936924 183.40625,6.875 C 183.12891,7.0563222 182.96875,7.2959053 182.96875,7.5625 L 182.96875,11.84375 C 182.96875,12.419924 183.24805,12.927085 183.78125,13.375 C 184.43196,13.929688 185.347,14.1875 186.53125,14.1875 L 187.25,14.1875 L 187.25,14.65625 C 187.25,14.827148 187.19498,14.956705 187.09375,15.03125 C 186.99251,15.105793 186.80859,15.124999 186.53125,15.125 L 185.78125,15.125 C 185.69596,14.911783 185.52653,14.752929 185.28125,14.625 C 185.03597,14.49707 184.74772,14.4375 184.40625,14.4375 C 184.01172,14.4375 183.68359,14.537435 183.40625,14.71875 C 183.12891,14.900064 182.96875,15.108398 182.96875,15.375 C 182.96875,15.8763 183.24805,16.305011 183.78125,16.625 C 184.26139,16.913083 184.81803,17.031247 185.46875,17.03125 L 186.53125,17.03125 C 187.72591,17.031247 188.6621,16.773435 189.3125,16.21875 C 189.84602,15.770832 190.09374,15.243163 190.09375,14.65625 L 190.09375,7.5625 C 190.09374,7.2959053 189.96484,7.0563222 189.6875,6.875 C 189.41015,6.6936924 189.08235,6.6250076 188.6875,6.625 C 188.29296,6.6250076 187.93359,6.6936924 187.65625,6.875 C 187.3789,7.0563222 187.25,7.2959053 187.25,7.5625 L 187.25,12.28125 L 186.53125,12.28125 C 186.32845,12.281252 186.18977,12.261395 186.09375,12.21875 C 185.92317,12.143882 185.8125,12.014976 185.8125,11.8125 L 185.8125,7.5625 C 185.8125,7.2959053 185.68359,7.0563222 185.40625,6.875 C 185.1289,6.6936924 184.8011,6.6250076 184.40625,6.625 z M 194.125,6.625 C 192.93034,6.6250076 191.99446,6.8828198 191.34375,7.4375 C 190.82096,7.8642641 190.5625,8.3714251 190.5625,8.96875 L 190.5625,11.84375 C 190.5625,12.419924 190.8418,12.927085 191.375,13.375 C 192.02571,13.929688 192.94075,14.1875 194.125,14.1875 C 195.31966,14.1875 196.25585,13.929688 196.90625,13.375 C 197.43977,12.927085 197.68749,12.419924 197.6875,11.84375 L 197.6875,8.96875 C 197.68749,8.4033261 197.41894,7.9069073 196.875,7.4375 C 196.21354,6.893562 195.29817,6.6250076 194.125,6.625 z M 227.15625,6.625 C 225.96159,6.6250076 225.02571,6.8828198 224.375,7.4375 C 223.85221,7.8642641 223.59375,8.3714251 223.59375,8.96875 L 223.59375,13.25 C 223.59375,13.516602 223.75391,13.756185 224.03125,13.9375 C 224.30859,14.118815 224.63672,14.1875 225.03125,14.1875 C 225.41536,14.1875 225.74853,14.092936 226.03125,13.90625 C 226.31396,13.719564 226.4375,13.50586 226.4375,13.25 L 226.4375,9 C 226.4375,8.7867893 226.53743,8.647792 226.71875,8.5625 C 226.79329,8.5306046 226.9427,8.5000057 227.15625,8.5 L 227.9375,8.5 C 228.02311,8.7239638 228.16097,8.9033256 228.40625,9.03125 C 228.65152,9.1591847 228.97135,9.218755 229.3125,9.21875 C 229.70735,9.218755 230.03515,9.1293996 230.3125,8.9375 C 230.58984,8.7456109 230.71874,8.5061906 230.71875,8.25 C 230.71874,7.7379622 230.47004,7.3505928 229.96875,7.0625 C 229.47786,6.7640048 228.89062,6.6250076 228.21875,6.625 L 227.15625,6.625 z M 234.5,6.625 C 233.30534,6.6250076 232.36946,6.8828198 231.71875,7.4375 C 231.19596,7.8642641 230.9375,8.3714251 230.9375,8.96875 L 230.9375,11.84375 C 230.9375,12.419924 231.2168,12.927085 231.75,13.375 C 232.40071,13.929688 233.31575,14.1875 234.5,14.1875 C 235.69466,14.1875 236.63085,13.929688 237.28125,13.375 C 237.81477,12.927085 238.06249,12.419924 238.0625,11.84375 L 238.0625,8.96875 C 238.06249,8.4033261 237.79394,7.9069073 237.25,7.4375 C 236.58854,6.893562 235.67317,6.6250076 234.5,6.625 z M 241.84375,6.625 C 240.64909,6.6250076 239.71321,6.8828198 239.0625,7.4375 C 238.53971,7.8642641 238.28125,8.3714251 238.28125,8.96875 L 238.28125,13.25 C 238.28125,13.516602 238.44141,13.756185 238.71875,13.9375 C 238.99609,14.118815 239.32422,14.1875 239.71875,14.1875 C 240.10286,14.1875 240.43603,14.092936 240.71875,13.90625 C 241.00146,13.719564 241.125,13.50586 241.125,13.25 L 241.125,9 C 241.125,8.7867893 241.22493,8.647792 241.40625,8.5625 C 241.48079,8.5306046 241.6302,8.5000057 241.84375,8.5 C 242.03548,8.5000057 242.1997,8.5351619 242.34375,8.59375 C 242.48779,8.6523493 242.5625,8.7867893 242.5625,9 L 242.5625,13.25 C 242.5625,13.516602 242.6914,13.756185 242.96875,13.9375 C 243.24609,14.118815 243.60546,14.1875 244,14.1875 C 244.38411,14.1875 244.71728,14.092936 245,13.90625 C 245.28271,13.719564 245.40624,13.50586 245.40625,13.25 L 245.40625,8.96875 C 245.40624,8.4033261 245.13769,7.9069073 244.59375,7.4375 C 243.93229,6.893562 243.01692,6.6250076 241.84375,6.625 z M 247.0625,6.625 C 246.66797,6.6250076 246.33984,6.6936924 246.0625,6.875 C 245.78516,7.0563222 245.625,7.2959053 245.625,7.5625 L 245.625,13.25 C 245.625,13.516602 245.78516,13.756185 246.0625,13.9375 C 246.33984,14.118815 246.66797,14.1875 247.0625,14.1875 C 247.44661,14.1875 247.77978,14.092936 248.0625,13.90625 C 248.34521,13.719564 248.46875,13.50586 248.46875,13.25 L 248.46875,7.5625 C 248.46875,7.2959053 248.33984,7.0563222 248.0625,6.875 C 247.78515,6.6936924 247.45735,6.6250076 247.0625,6.625 z M 252.25,6.625 C 251.37532,6.6250076 250.6097,6.7731194 249.9375,7.125 C 249.11621,7.5625066 248.6875,8.179368 248.6875,8.96875 L 248.6875,11.84375 C 248.6875,12.419924 248.9668,12.927085 249.5,13.375 C 250.15071,13.929688 251.06575,14.1875 252.25,14.1875 L 253.3125,14.1875 C 253.98437,14.1875 254.57161,14.048828 255.0625,13.75 C 255.56379,13.440756 255.81249,13.032553 255.8125,12.53125 C 255.81249,12.26465 255.68359,12.056317 255.40625,11.875 C 255.1289,11.693687 254.8011,11.593753 254.40625,11.59375 C 254.07584,11.593753 253.75602,11.642581 253.5,11.78125 C 253.24397,11.919924 253.10611,12.089195 253.03125,12.28125 L 252.25,12.28125 C 252.0472,12.281252 251.90852,12.261395 251.8125,12.21875 C 251.64192,12.143882 251.53125,12.014976 251.53125,11.8125 L 251.53125,8.96875 C 251.53125,8.8300835 251.56119,8.7516331 251.625,8.6875 C 251.74251,8.5703181 251.972,8.5000057 252.28125,8.5 L 253.03125,8.5 C 253.11686,8.7239638 253.25472,8.9033256 253.5,9.03125 C 253.74527,9.1591847 254.0651,9.218755 254.40625,9.21875 C 254.8011,9.218755 255.1289,9.1293996 255.40625,8.9375 C 255.68359,8.7456109 255.81249,8.5061906 255.8125,8.25 C 255.81249,7.7913475 255.61425,7.4235094 255.1875,7.125 C 254.71809,6.7835361 254.0804,6.6250076 253.3125,6.625 L 252.25,6.625 z M 262.65625,6.625 C 261.46159,6.6250076 260.52571,6.8828198 259.875,7.4375 C 259.35221,7.8642641 259.09375,8.3714251 259.09375,8.96875 L 259.09375,11.84375 C 259.09375,12.643882 259.51172,13.229493 260.34375,13.65625 C 260.99446,14.008138 261.77083,14.1875 262.65625,14.1875 L 263.71875,14.1875 C 264.10286,14.1875 264.472,14.153158 264.78125,14.0625 C 265.09049,13.971843 265.34911,13.842123 265.5625,13.6875 C 265.77587,13.532878 265.91389,13.353679 266.03125,13.15625 C 266.14859,12.958823 266.21874,12.75521 266.21875,12.53125 C 266.21874,12.26465 266.08984,12.056317 265.8125,11.875 C 265.53515,11.693687 265.20735,11.593753 264.8125,11.59375 C 264.48209,11.593753 264.16227,11.642581 263.90625,11.78125 C 263.65022,11.919924 263.51236,12.089195 263.4375,12.28125 L 262.6875,12.28125 C 262.19694,12.281252 261.9375,12.153322 261.9375,11.84375 L 261.9375,11.34375 L 262.65625,11.34375 C 263.85091,11.343753 264.7871,11.085941 265.4375,10.53125 C 265.97102,10.083337 266.21874,9.544601 266.21875,8.96875 C 266.21874,8.4033261 265.95019,7.9069073 265.40625,7.4375 C 264.74479,6.893562 263.82942,6.6250076 262.65625,6.625 z M 270.25,6.625 C 269.37532,6.6250076 268.6097,6.7731194 267.9375,7.125 C 267.11621,7.5625066 266.6875,8.179368 266.6875,8.96875 C 266.6875,9.7685591 267.10547,10.385746 267.9375,10.8125 C 268.58821,11.164391 269.34407,11.343753 270.21875,11.34375 C 270.60253,11.343753 270.85188,11.443688 270.9375,11.625 C 270.95865,11.68913 270.96875,11.769208 270.96875,11.84375 C 270.96875,11.982424 270.93912,12.060875 270.875,12.125 C 270.76855,12.231773 270.53873,12.281252 270.21875,12.28125 L 269.5,12.28125 C 269.41471,12.06771 269.24528,11.909182 269,11.78125 C 268.75472,11.653323 268.46647,11.593753 268.125,11.59375 C 267.73047,11.593753 267.40234,11.693687 267.125,11.875 C 266.84766,12.056317 266.6875,12.26465 266.6875,12.53125 C 266.6875,13.032553 266.9668,13.430014 267.5,13.75 C 267.98014,14.038086 268.53678,14.1875 269.1875,14.1875 L 270.25,14.1875 C 271.12467,14.1875 271.91113,14.01888 272.59375,13.65625 C 273.41503,13.218751 273.81249,12.622397 273.8125,11.84375 C 273.81249,11.054691 273.39452,10.437504 272.5625,10 C 271.90104,9.6481165 271.14518,9.4687547 270.28125,9.46875 C 269.89713,9.4687547 269.64778,9.3688199 269.5625,9.1875 C 269.54134,9.1233775 269.53125,9.0432994 269.53125,8.96875 C 269.53125,8.8300835 269.56119,8.7516331 269.625,8.6875 C 269.74251,8.5703181 269.972,8.5000057 270.28125,8.5 L 271.03125,8.5 C 271.11686,8.7239638 271.25472,8.9033256 271.5,9.03125 C 271.74527,9.1591847 272.0651,9.218755 272.40625,9.21875 C 272.8011,9.218755 273.1289,9.1293996 273.40625,8.9375 C 273.68359,8.7456109 273.81249,8.5061906 273.8125,8.25 C 273.81249,7.7913475 273.61425,7.4235094 273.1875,7.125 C 272.71809,6.7835361 272.0804,6.6250076 271.3125,6.625 L 270.25,6.625 z M 291.9375,6.625 C 291.18001,6.6250076 290.57357,6.7731194 290.09375,7.125 C 289.66699,7.4449937 289.4375,7.8232486 289.4375,8.25 C 289.4375,8.5273494 289.57178,8.7561903 289.84375,8.9375 C 290.11572,9.1188202 290.46973,9.218755 290.875,9.21875 C 291.20573,9.218755 291.49398,9.1386769 291.75,9 C 292.00602,8.8613334 292.17545,8.7024795 292.25,8.5 L 292.96875,8.5 C 293.35253,8.5000057 293.60188,8.5999405 293.6875,8.78125 C 293.70865,8.8450574 293.71875,8.8938855 293.71875,8.96875 L 293.71875,9.46875 L 293,9.46875 C 291.80534,9.4687547 290.86946,9.726567 290.21875,10.28125 C 289.69596,10.707686 289.4375,11.246422 289.4375,11.84375 C 289.4375,12.419924 289.7168,12.927085 290.25,13.375 C 290.90071,13.929688 291.81575,14.1875 293,14.1875 C 294.19466,14.1875 295.13085,13.929688 295.78125,13.375 C 296.31477,12.927085 296.56249,12.419924 296.5625,11.84375 L 296.5625,8.96875 C 296.56249,8.179368 296.14452,7.5625066 295.3125,7.125 C 294.64062,6.7731194 293.87467,6.6250076 293,6.625 L 291.9375,6.625 z M 298.21875,6.625 C 297.82422,6.6250076 297.49609,6.6936924 297.21875,6.875 C 296.94141,7.0563222 296.78125,7.2959053 296.78125,7.5625 L 296.78125,11.84375 C 296.78125,12.419924 297.06055,12.927085 297.59375,13.375 C 298.24446,13.929688 299.1595,14.1875 300.34375,14.1875 L 301.0625,14.1875 L 301.0625,14.65625 C 301.0625,14.827148 301.00748,14.956705 300.90625,15.03125 C 300.80501,15.105793 300.62109,15.124999 300.34375,15.125 L 299.59375,15.125 C 299.50846,14.911783 299.33903,14.752929 299.09375,14.625 C 298.84847,14.49707 298.56022,14.4375 298.21875,14.4375 C 297.82422,14.4375 297.49609,14.537435 297.21875,14.71875 C 296.94141,14.900064 296.78125,15.108398 296.78125,15.375 C 296.78125,15.8763 297.06055,16.305011 297.59375,16.625 C 298.07389,16.913083 298.63053,17.031247 299.28125,17.03125 L 300.34375,17.03125 C 301.53841,17.031247 302.4746,16.773435 303.125,16.21875 C 303.65852,15.770832 303.90624,15.243163 303.90625,14.65625 L 303.90625,7.5625 C 303.90624,7.2959053 303.77734,7.0563222 303.5,6.875 C 303.22265,6.6936924 302.89485,6.6250076 302.5,6.625 C 302.10546,6.6250076 301.74609,6.6936924 301.46875,6.875 C 301.1914,7.0563222 301.0625,7.2959053 301.0625,7.5625 L 301.0625,12.28125 L 300.34375,12.28125 C 300.14095,12.281252 300.00227,12.261395 299.90625,12.21875 C 299.73567,12.143882 299.625,12.014976 299.625,11.8125 L 299.625,7.5625 C 299.625,7.2959053 299.49609,7.0563222 299.21875,6.875 C 298.9414,6.6936924 298.6136,6.6250076 298.21875,6.625 z M 307.6875,6.625 C 306.49284,6.6250076 305.55696,6.8828198 304.90625,7.4375 C 304.38346,7.8642641 304.125,8.3714251 304.125,8.96875 L 304.125,11.84375 C 304.125,12.643882 304.54297,13.229493 305.375,13.65625 C 306.02571,14.008138 306.80208,14.1875 307.6875,14.1875 L 308.75,14.1875 C 309.13411,14.1875 309.50325,14.153158 309.8125,14.0625 C 310.12174,13.971843 310.38036,13.842123 310.59375,13.6875 C 310.80712,13.532878 310.94514,13.353679 311.0625,13.15625 C 311.17984,12.958823 311.24999,12.75521 311.25,12.53125 C 311.24999,12.26465 311.12109,12.056317 310.84375,11.875 C 310.5664,11.693687 310.2386,11.593753 309.84375,11.59375 C 309.51334,11.593753 309.19352,11.642581 308.9375,11.78125 C 308.68147,11.919924 308.54361,12.089195 308.46875,12.28125 L 307.71875,12.28125 C 307.22819,12.281252 306.96875,12.153322 306.96875,11.84375 L 306.96875,11.34375 L 307.6875,11.34375 C 308.88216,11.343753 309.81835,11.085941 310.46875,10.53125 C 311.00227,10.083337 311.24999,9.544601 311.25,8.96875 C 311.24999,8.4033261 310.98144,7.9069073 310.4375,7.4375 C 309.77604,6.893562 308.86067,6.6250076 307.6875,6.625 z M 315.03125,6.625 C 313.83659,6.6250076 312.90071,6.8828198 312.25,7.4375 C 311.72721,7.8642641 311.46875,8.3714251 311.46875,8.96875 L 311.46875,13.25 C 311.46875,13.516602 311.62891,13.756185 311.90625,13.9375 C 312.18359,14.118815 312.51172,14.1875 312.90625,14.1875 C 313.29036,14.1875 313.62353,14.092936 313.90625,13.90625 C 314.18896,13.719564 314.3125,13.50586 314.3125,13.25 L 314.3125,9 C 314.3125,8.7867893 314.41243,8.647792 314.59375,8.5625 C 314.66829,8.5306046 314.8177,8.5000057 315.03125,8.5 L 315.8125,8.5 C 315.89811,8.7239638 316.03597,8.9033256 316.28125,9.03125 C 316.52652,9.1591847 316.84635,9.218755 317.1875,9.21875 C 317.58235,9.218755 317.91015,9.1293996 318.1875,8.9375 C 318.46484,8.7456109 318.59374,8.5061906 318.59375,8.25 C 318.59374,7.7379622 318.34504,7.3505928 317.84375,7.0625 C 317.35286,6.7640048 316.76562,6.6250076 316.09375,6.625 L 315.03125,6.625 z M 111.28125,8.5 C 111.47298,8.5000057 111.6372,8.5351619 111.78125,8.59375 C 111.92529,8.6523493 112,8.7659559 112,8.96875 C 112,9.139328 111.94498,9.2690479 111.84375,9.34375 C 111.74251,9.4184618 111.55859,9.4687547 111.28125,9.46875 L 110.5625,9.46875 L 110.5625,9 C 110.5625,8.7867893 110.66243,8.647792 110.84375,8.5625 C 110.91829,8.5306046 111.0677,8.5000057 111.28125,8.5 z M 134.0625,8.5 C 134.25423,8.5000057 134.41845,8.5351619 134.5625,8.59375 C 134.70654,8.6523493 134.78125,8.7659559 134.78125,8.96875 C 134.78125,9.139328 134.72623,9.2690479 134.625,9.34375 C 134.52376,9.4184618 134.33984,9.4687547 134.0625,9.46875 L 133.34375,9.46875 L 133.34375,9 C 133.34375,8.7867893 133.44368,8.647792 133.625,8.5625 C 133.69954,8.5306046 133.84895,8.5000057 134.0625,8.5 z M 194.125,8.5 C 194.31673,8.5000057 194.48095,8.5351619 194.625,8.59375 C 194.76904,8.6523493 194.84375,8.7867893 194.84375,9 L 194.84375,11.8125 C 194.84375,11.983075 194.78873,12.112795 194.6875,12.1875 C 194.58626,12.262209 194.40234,12.281252 194.125,12.28125 C 193.9222,12.281252 193.78352,12.261395 193.6875,12.21875 C 193.51692,12.143882 193.40625,12.014976 193.40625,11.8125 L 193.40625,9 C 193.40625,8.7867893 193.50618,8.647792 193.6875,8.5625 C 193.76204,8.5306046 193.91145,8.5000057 194.125,8.5 z M 234.5,8.5 C 234.69173,8.5000057 234.85595,8.5351619 235,8.59375 C 235.14404,8.6523493 235.21875,8.7867893 235.21875,9 L 235.21875,11.8125 C 235.21875,11.983075 235.16373,12.112795 235.0625,12.1875 C 234.96126,12.262209 234.77734,12.281252 234.5,12.28125 C 234.2972,12.281252 234.15852,12.261395 234.0625,12.21875 C 233.89192,12.143882 233.78125,12.014976 233.78125,11.8125 L 233.78125,9 C 233.78125,8.7867893 233.88118,8.647792 234.0625,8.5625 C 234.13704,8.5306046 234.28645,8.5000057 234.5,8.5 z M 262.65625,8.5 C 262.84798,8.5000057 263.0122,8.5351619 263.15625,8.59375 C 263.30029,8.6523493 263.375,8.7659559 263.375,8.96875 C 263.375,9.139328 263.31998,9.2690479 263.21875,9.34375 C 263.11751,9.4184618 262.93359,9.4687547 262.65625,9.46875 L 261.9375,9.46875 L 261.9375,9 C 261.9375,8.7867893 262.03743,8.647792 262.21875,8.5625 C 262.29329,8.5306046 262.4427,8.5000057 262.65625,8.5 z M 307.6875,8.5 C 307.87923,8.5000057 308.04345,8.5351619 308.1875,8.59375 C 308.33154,8.6523493 308.40625,8.7659559 308.40625,8.96875 C 308.40625,9.139328 308.35123,9.2690479 308.25,9.34375 C 308.14876,9.4184618 307.96484,9.4687547 307.6875,9.46875 L 306.96875,9.46875 L 306.96875,9 C 306.96875,8.7867893 307.06868,8.647792 307.25,8.5625 C 307.32454,8.5306046 307.47395,8.5000057 307.6875,8.5 z M 171.34375,11.34375 L 172.0625,11.34375 L 172.0625,11.8125 C 172.0625,11.983075 172.00748,12.112795 171.90625,12.1875 C 171.80501,12.262209 171.62109,12.281252 171.34375,12.28125 C 171.15169,12.281252 170.98242,12.272137 170.84375,12.21875 C 170.70507,12.165367 170.625,12.046552 170.625,11.84375 C 170.625,11.641279 170.72493,11.491539 170.90625,11.40625 C 170.98079,11.374026 171.1302,11.343753 171.34375,11.34375 z M 293,11.34375 L 293.71875,11.34375 L 293.71875,11.8125 C 293.71875,11.983075 293.66373,12.112795 293.5625,12.1875 C 293.46126,12.262209 293.27734,12.281252 293,12.28125 C 292.80794,12.281252 292.63867,12.272137 292.5,12.21875 C 292.36132,12.165367 292.28125,12.046552 292.28125,11.84375 C 292.28125,11.641279 292.38118,11.491539 292.5625,11.40625 C 292.63704,11.374026 292.78645,11.343753 293,11.34375 z" />
    <text
       xml:space="preserve"
       style="font-size:20px;font-style:normal;font-variant:normal;font-weight:normal;font-stretch:normal;fill:#ffffff;fill-opacity:1;stroke:#000000;stroke-width:0.4;stroke-linecap:round;stroke-linejoin:round;stroke-miterlimit:4;stroke-dasharray:none;stroke-dashoffset:0;stroke-opacity:1;font-family:Visitor TT2 BRK;-inkscape-font-specification:Visitor TT2 BRK"
       x="99.653595"
       y="14.196699"
       id="text2431"><tspan
         sodipodi:role="line"
         id="tspan2433"
         x="99.653595"
         y="14.196699"
         dx="0 -0.5 -0.5 -0.5 -0.5 -0.5 -6.25 0 0 -0.5 -0.5 -0.5 -0.5 -5.75 0 0 -0.75 -0.75 -0.75 -0.75 -0.75 -0.75 -0.75 -0.75 -0.5 -3.75 0 -0.75 -0.75 -0.75 -0.75 -0.75"
         style="font-size:16px;font-style:normal;font-variant:normal;font-weight:normal;font-stretch:normal;text-align:start;text-anchor:start;fill:#ffffff;fill-opacity:1;stroke:#000000;stroke-width:0.4;stroke-linecap:round;stroke-linejoin:round;stroke-miterlimit:4;stroke-dasharray:none;stroke-dashoffset:0;stroke-opacity:1;font-family:Chumbly BRK;-inkscape-font-specification:Chumbly BRK">Secret  Maryo  Chronicles Player</tspan></text>
  </g>
</svg>
