<?xml version="1.0" encoding="UTF-8" standalone="no"?>
<!-- Created with Inkscape (http://www.inkscape.org/) -->
<svg
   xmlns:dc="http://purl.org/dc/elements/1.1/"
   xmlns:cc="http://creativecommons.org/ns#"
   xmlns:rdf="http://www.w3.org/1999/02/22-rdf-syntax-ns#"
   xmlns:svg="http://www.w3.org/2000/svg"
   xmlns="http://www.w3.org/2000/svg"
   xmlns:xlink="http://www.w3.org/1999/xlink"
   xmlns:sodipodi="http://sodipodi.sourceforge.net/DTD/sodipodi-0.dtd"
   xmlns:inkscape="http://www.inkscape.org/namespaces/inkscape"
   width="512"
   height="512"
   id="svg2"
   sodipodi:version="0.32"
   inkscape:version="0.46"
   version="1.0"
   sodipodi:docbase="D:\Dateien\Desktop\Secret Maryo Chronicles\Drafts\Game\Frostbringer\level\ground\green_2\hedges"
   sodipodi:docname="middle.svg"
   inkscape:export-filename="D:\Dateien\Desktop\Secret Maryo Chronicles\SMC\data\pixmaps\hills\light_blue_1\middle.png"
   inkscape:export-xdpi="90"
   inkscape:export-ydpi="90"
   inkscape:output_extension="org.inkscape.output.svg.inkscape">
  <defs
     id="defs4">
    <inkscape:perspective
       sodipodi:type="inkscape:persp3d"
       inkscape:vp_x="0 : 256 : 1"
       inkscape:vp_y="0 : 1000 : 0"
       inkscape:vp_z="512 : 256 : 1"
       inkscape:persp3d-origin="256 : 170.66667 : 1"
       id="perspective33" />
    <linearGradient
       id="linearGradient3260">
      <stop
         id="stop3262"
         offset="0"
         style="stop-color:#1a58b0;stop-opacity:1;" />
      <stop
         id="stop3264"
         offset="1"
         style="stop-color:#1a52af;stop-opacity:1;" />
    </linearGradient>
    <linearGradient
       id="linearGradient3240">
      <stop
         style="stop-color:#1a6cb9;stop-opacity:1;"
         offset="0"
         id="stop3242" />
      <stop
         style="stop-color:#023a98;stop-opacity:1;"
         offset="1"
         id="stop3244" />
    </linearGradient>
    <marker
       inkscape:stockid="DotS"
       orient="auto"
       refY="0.0"
       refX="0.0"
       id="DotS"
       style="overflow:visible">
      <path
         id="path3312"
         d="M -2.5,-1.0 C -2.5,1.7600000 -4.7400000,4.0 -7.5,4.0 C -10.260000,4.0 -12.5,1.7600000 -12.5,-1.0 C -12.5,-3.7600000 -10.260000,-6.0 -7.5,-6.0 C -4.7400000,-6.0 -2.5,-3.7600000 -2.5,-1.0 z "
         style="fill-rule:evenodd;stroke:#000000;stroke-width:1.0pt;marker-start:none;marker-end:none"
         transform="scale(0.2) translate(7.4, 1)" />
    </marker>
    <filter
       inkscape:collect="always"
       id="filter9523">
      <feGaussianBlur
         inkscape:collect="always"
         stdDeviation="2.6062897"
         id="feGaussianBlur9525" />
    </filter>
    <linearGradient
       inkscape:collect="always"
       xlink:href="#linearGradient3260"
       id="linearGradient3246"
       x1="2"
       y1="255.99998"
       x2="510"
       y2="255.99998"
       gradientUnits="userSpaceOnUse" />
    <linearGradient
       inkscape:collect="always"
       xlink:href="#linearGradient3240"
       id="linearGradient3250"
       gradientUnits="userSpaceOnUse"
       x1="2.0000001"
       y1="255.99999"
       x2="510.00001"
       y2="255.99999" />
    <filter
       inkscape:collect="always"
       id="filter3256">
      <feGaussianBlur
         inkscape:collect="always"
         stdDeviation="7.7416192"
         id="feGaussianBlur3258" />
    </filter>
  </defs>
  <sodipodi:namedview
     id="base"
     pagecolor="#000000"
     bordercolor="#666666"
     borderopacity="1.0"
     inkscape:pageopacity="0"
     inkscape:pageshadow="2"
     inkscape:zoom="0.72920387"
     inkscape:cx="313.37499"
     inkscape:cy="319.03198"
     inkscape:document-units="px"
     inkscape:current-layer="layer1"
     width="128px"
     height="128px"
     showgrid="false"
     gridtolerance="10000"
     inkscape:grid-points="true"
     inkscape:window-width="1106"
     inkscape:window-height="848"
     inkscape:window-x="72"
     inkscape:window-y="73"
     showguides="true">
    <inkscape:grid
       id="GridFromPre046Settings"
       type="xygrid"
       originx="0px"
       originy="0px"
       spacingx="32px"
       spacingy="32px"
       color="#0000ff"
       empcolor="#00009c"
       opacity="0.2"
       empopacity="0.4"
       empspacing="4"
       visible="true"
       enabled="true" />
  </sodipodi:namedview>
  <metadata
     id="metadata7">
    <rdf:RDF>
      <cc:Work
         rdf:about="">
        <dc:format>image/svg+xml</dc:format>
        <dc:type
           rdf:resource="http://purl.org/dc/dcmitype/StillImage" />
      </cc:Work>
    </rdf:RDF>
  </metadata>
  <g
     inkscape:label="hill_back"
     inkscape:groupmode="layer"
     id="layer1"
     style="display:inline">
    <rect
       style="opacity:1;fill:url(#linearGradient3250);fill-opacity:1;fill-rule:nonzero;stroke:#000000;stroke-width:3;stroke-linecap:butt;stroke-linejoin:miter;stroke-miterlimit:4;stroke-dasharray:none;stroke-dashoffset:0;stroke-opacity:1"
       id="rect3237"
       width="505.00003"
       height="525.50397"
       x="3.4999914"
       y="-6.7519908" />
    <path
       sodipodi:type="inkscape:offset"
       inkscape:radius="0"
       inkscape:original="M 3.5 -6.75 L 3.5 518.75 L 508.5 518.75 L 508.5 -6.75 L 3.5 -6.75 z "
       xlink:href="#rect3237"
       style="opacity:1;fill:url(#linearGradient3246);fill-opacity:1;fill-rule:nonzero;stroke:none;stroke-width:2.9999826;stroke-linecap:butt;stroke-linejoin:miter;stroke-miterlimit:4;stroke-dasharray:none;stroke-dashoffset:0;stroke-opacity:1;filter:url(#filter3256)"
       id="path3248"
       inkscape:href="#rect3237"
       d="M 3.5,-6.75 L 3.5,518.75 L 508.5,518.75 L 508.5,-6.75 L 3.5,-6.75 z"
       transform="matrix(0.970297,0,0,1.0573278,7.6039604,-14.675917)" />
    <path
       sodipodi:type="spiral"
       style="fill:none;fill-opacity:1;fill-rule:evenodd;stroke:#000000;stroke-width:5;stroke-linecap:round;stroke-linejoin:round;stroke-miterlimit:4;stroke-dasharray:none;stroke-opacity:1;marker-start:url(#DotS);marker-mid:none;marker-end:url(#DotS);filter:url(#filter9523);opacity:0.4"
       id="path3239"
       sodipodi:cx="168.67711"
       sodipodi:cy="244.58507"
       sodipodi:expansion="1.25"
       sodipodi:revolution="5.2316532"
       sodipodi:radius="90.954117"
       sodipodi:argument="-51.579105"
       sodipodi:t0="0.021430753"
       d="M 169.28876,244.15834 C 170.87568,244.00558 171.01062,246.25089 170.52476,247.23337 C 169.2288,249.85399 165.61616,249.6914 163.57266,248.14631 C 159.91238,245.37877 160.35815,239.91244 163.21304,236.75323 C 167.5339,231.9718 175.11588,232.75178 179.44408,237.07323 C 185.41536,243.0352 184.26259,252.90918 178.356,258.45816 C 170.67214,265.67683 158.36881,264.12153 151.5513,256.53329 C 143.03545,247.0547 145.01755,232.20725 154.36952,224.07751 C 165.70868,214.2203 183.20001,216.64982 192.68216,227.83737 C 203.92064,241.09713 201.02565,261.32115 187.93835,272.19288 C 172.70284,284.84915 149.66565,281.47257 137.36979,266.42737 C 123.26193,249.16503 127.13471,223.24086 144.19117,209.48852 C 163.52794,193.8976 192.40742,198.27998 207.64662,217.39706 C 224.75015,238.85286 219.84577,270.75143 198.62206,287.50619 C 175.0052,306.15019 140.02769,300.71224 121.73016,277.33872 C 101.5193,251.52108 107.50167,213.40814 133.06569,193.54199 C 161.12185,171.73917 202.42375,178.27618 223.88318,206.06923 C 247.30191,236.39984 240.20056,280.94161 210.14186,304.01793 C 177.50248,329.07547 129.67225,321.40058 104.95642,289.04132 C 78.238109,254.0603 86.49532,202.89511 121.18853,176.51804 C 158.54275,148.11782 213.0875,156.96575 241.14673,194.02491 C 254.78319,212.03523 261.05766,234.99944 258.71709,257.44793"
       transform="translate(-20.570379,-111.08005)" />
    <path
       sodipodi:type="spiral"
       style="opacity:0.4;fill:none;fill-opacity:1;fill-rule:evenodd;stroke:#000000;stroke-width:5;stroke-linecap:round;stroke-linejoin:round;marker-start:url(#DotS);marker-mid:none;marker-end:url(#DotS);stroke-miterlimit:4;stroke-dasharray:none;stroke-opacity:1;display:inline;filter:url(#filter9523)"
       id="path10090"
       sodipodi:cx="168.67711"
       sodipodi:cy="244.58507"
       sodipodi:expansion="1.25"
       sodipodi:revolution="4.8319445"
       sodipodi:radius="82.352371"
       sodipodi:argument="-51.579105"
       sodipodi:t0="0.023"
       d="M 169.27944,244.15928 C 170.86057,243.99121 171.01124,246.23143 170.53477,247.21295 C 169.26068,249.83756 165.65366,249.69827 163.60497,248.17057 C 159.93195,245.43162 160.34276,239.97053 163.17261,236.79827 C 167.45758,231.99482 175.03552,232.72658 179.3856,237.01522 C 185.38877,242.93358 184.29851,252.80518 178.43274,258.38562 C 170.80052,265.64659 158.49762,264.16892 151.63847,256.62971 C 143.06944,247.21109 144.95809,232.36189 154.25259,224.1798 C 165.52321,214.2581 183.01862,216.57775 192.5643,227.69918 C 203.87895,240.8816 201.11079,261.1122 188.09848,272.05901 C 172.94931,284.8035 149.90293,281.57121 137.52003,266.61005 C 123.3116,249.44326 127.02219,223.50716 143.98536,209.65552 C 163.2172,193.95135 192.11144,198.15322 207.46254,217.16759 C 224.69227,238.50891 219.98711,270.42516 198.87568,287.3047 C 175.38303,306.08812 140.38482,300.86847 121.94938,277.61697 C 101.58562,251.93341 107.33026,213.79668 132.76237,193.77921 C 160.67442,171.80979 202.00327,178.08932 223.62768,205.74042 C 247.22693,235.91676 240.40314,280.48871 210.49656,303.74388 C 178.02176,328.99609 130.15806,321.61912 105.24928,289.4223 C 81.845209,259.17044 84.310407,215.42534 109.67286,187.13586"
       transform="translate(124.83317,72.466841)" />
    <path
       sodipodi:type="spiral"
       style="opacity:0.4;fill:none;fill-opacity:1;fill-rule:evenodd;stroke:#000000;stroke-width:5;stroke-linecap:round;stroke-linejoin:round;marker-start:url(#DotS);marker-mid:none;marker-end:url(#DotS);stroke-miterlimit:4;stroke-dasharray:none;stroke-opacity:1;display:inline;filter:url(#filter9523)"
       id="path10092"
       sodipodi:cx="168.67711"
       sodipodi:cy="244.58507"
       sodipodi:expansion="1.25"
       sodipodi:revolution="2.9589026"
       sodipodi:radius="44.6105"
       sodipodi:argument="-51.579105"
       sodipodi:t0="0.037559431"
       d="M 169.27944,244.15928 C 170.86057,243.99121 171.01124,246.23143 170.53477,247.21295 C 169.26068,249.83756 165.65366,249.69827 163.60497,248.17057 C 159.93195,245.43162 160.34276,239.97053 163.17261,236.79827 C 167.45758,231.99482 175.03552,232.72658 179.3856,237.01521 C 185.38877,242.93358 184.29852,252.80518 178.43274,258.38562 C 170.80052,265.64659 158.49762,264.16892 151.63847,256.62971 C 143.06944,247.21109 144.95808,232.36189 154.25259,224.1798 C 165.52321,214.2581 183.01862,216.57775 192.5643,227.69917 C 203.87895,240.88159 201.11079,261.1122 188.09849,272.05901 C 172.94932,284.80351 149.90293,281.57121 137.52003,266.61006 C 123.31159,249.44326 127.02218,223.50717 143.98535,209.65552 C 150.95345,203.96556 159.66288,200.58697 168.6303,199.97459"
       transform="translate(241.10019,-11.980267)" />
    <path
       sodipodi:type="spiral"
       style="opacity:0.4;fill:none;fill-opacity:1;fill-rule:evenodd;stroke:#000000;stroke-width:5;stroke-linecap:round;stroke-linejoin:round;marker-start:url(#DotS);marker-mid:none;marker-end:url(#DotS);stroke-miterlimit:4;stroke-dasharray:none;stroke-opacity:1;display:inline;filter:url(#filter9523)"
       id="path10094"
       sodipodi:cx="168.67711"
       sodipodi:cy="244.58507"
       sodipodi:expansion="1.25"
       sodipodi:revolution="2.5966756"
       sodipodi:radius="37.891861"
       sodipodi:argument="-51.579105"
       sodipodi:t0="0.042798836"
       d="M 169.27944,244.15928 C 170.86057,243.99121 171.01124,246.23143 170.53477,247.21295 C 169.26068,249.83756 165.65366,249.69827 163.60497,248.17057 C 159.93195,245.43162 160.34276,239.97053 163.17261,236.79827 C 167.45758,231.99482 175.03552,232.72658 179.38561,237.01521 C 185.38877,242.93358 184.29852,252.80518 178.43275,258.38562 C 170.80052,265.64659 158.49762,264.16892 151.63847,256.62971 C 143.06943,247.21109 144.95808,232.36189 154.25258,224.1798 C 165.52321,214.2581 183.01862,216.57774 192.5643,227.69917 C 203.87896,240.88159 201.1108,261.1122 188.09849,272.05902 C 173.97757,283.93848 152.65572,282.05326 139.84752,269.17466"
       transform="translate(208.80528,-161.13737)" />
    <path
       sodipodi:type="spiral"
       style="opacity:0.4;fill:none;fill-opacity:1;fill-rule:evenodd;stroke:#000000;stroke-width:5;stroke-linecap:round;stroke-linejoin:round;marker-start:url(#DotS);marker-mid:none;marker-end:url(#DotS);stroke-miterlimit:4;stroke-dasharray:none;stroke-opacity:1;display:inline;filter:url(#filter9523)"
       id="path10096"
       sodipodi:cx="168.67711"
       sodipodi:cy="244.58507"
       sodipodi:expansion="1.25"
       sodipodi:revolution="2.7337568"
       sodipodi:radius="40.408585"
       sodipodi:argument="-51.579105"
       sodipodi:t0="0.040652741"
       d="M 169.27944,244.15928 C 170.86057,243.99121 171.01124,246.23143 170.53477,247.21295 C 169.26068,249.83756 165.65366,249.69827 163.60497,248.17057 C 159.93195,245.43162 160.34276,239.97053 163.17261,236.79827 C 167.45758,231.99482 175.03552,232.72658 179.38561,237.01521 C 185.38877,242.93358 184.29852,252.80518 178.43274,258.38562 C 170.80052,265.64659 158.49762,264.16892 151.63847,256.62971 C 143.06943,247.21109 144.95808,232.36189 154.25259,224.17979 C 165.52321,214.2581 183.01863,216.57775 192.5643,227.69917 C 203.87895,240.88159 201.11079,261.1122 188.09849,272.05902 C 172.94932,284.80351 149.90293,281.57122 137.52003,266.61006 C 131.02758,258.76581 127.91646,248.47103 128.75367,238.34223"
       transform="translate(-79.085648,117.69374)" />
    <path
       sodipodi:type="spiral"
       style="opacity:0.4;fill:none;fill-opacity:1;fill-rule:evenodd;stroke:#000000;stroke-width:5;stroke-linecap:round;stroke-linejoin:round;marker-start:url(#DotS);marker-mid:none;marker-end:url(#DotS);stroke-miterlimit:4;stroke-dasharray:none;stroke-opacity:1;display:inline;filter:url(#filter9523)"
       id="path10098"
       sodipodi:cx="168.67711"
       sodipodi:cy="244.58507"
       sodipodi:expansion="1.25"
       sodipodi:revolution="3.1866789"
       sodipodi:radius="48.943699"
       sodipodi:argument="-51.579105"
       sodipodi:t0="0.034874767"
       d="M 169.27944,244.15928 C 170.86058,243.99121 171.01124,246.23143 170.53477,247.21295 C 169.26068,249.83756 165.65366,249.69827 163.60497,248.17057 C 159.93194,245.43162 160.34275,239.97053 163.1726,236.79827 C 167.45757,231.99482 175.03552,232.72657 179.38561,237.01521 C 185.38878,242.93358 184.29852,252.80518 178.43275,258.38562 C 170.80052,265.64659 158.49762,264.16893 151.63846,256.62972 C 143.06943,247.21109 144.95807,232.36189 154.25258,224.17979 C 165.52321,214.25809 183.01862,216.57774 192.5643,227.69916 C 203.87896,240.88159 201.1108,261.1122 188.0985,272.05902 C 172.94933,284.80352 149.90293,281.57123 137.52002,266.61007 C 123.31158,249.44327 127.02217,223.50716 143.98534,209.65551 C 163.21718,193.95132 192.11144,198.15319 207.46255,217.16757 C 212.27109,223.12357 215.59429,230.2273 217.13725,237.72212"
       transform="translate(222.61324,209.57477)" />
    <path
       sodipodi:type="spiral"
       style="opacity:0.4;fill:none;fill-opacity:1;fill-rule:evenodd;stroke:#000000;stroke-width:5;stroke-linecap:round;stroke-linejoin:round;marker-start:url(#DotS);marker-mid:none;marker-end:url(#DotS);stroke-miterlimit:4;stroke-dasharray:none;stroke-opacity:1;display:inline;filter:url(#filter9523)"
       id="path10100"
       sodipodi:cx="168.67711"
       sodipodi:cy="244.58507"
       sodipodi:expansion="1.25"
       sodipodi:revolution="2.3639164"
       sodipodi:radius="33.694881"
       sodipodi:argument="-51.579105"
       sodipodi:t0="0.047012966"
       d="M 169.27944,244.15928 C 170.86058,243.99121 171.01124,246.23143 170.53477,247.21296 C 169.26068,249.83756 165.65366,249.69827 163.60497,248.17057 C 159.93195,245.43162 160.34276,239.97053 163.17261,236.79827 C 167.45758,231.99482 175.03552,232.72658 179.38561,237.01521 C 185.38877,242.93358 184.29852,252.80518 178.43274,258.38562 C 170.80052,265.64659 158.49762,264.16892 151.63847,256.62971 C 143.06943,247.21109 144.95808,232.36189 154.25259,224.17979 C 165.52321,214.2581 183.01863,216.57775 192.5643,227.69917 C 203.87896,240.8816 201.11079,261.1122 188.09849,272.05902 C 187.94785,272.18575 187.7961,272.31115 187.64326,272.43521"
       transform="translate(92.334181,223.28835)" />
  </g>
  <g
     inkscape:groupmode="layer"
     id="layer3"
     inkscape:label="hill_middle"
     style="display:inline" />
  <g
     inkscape:groupmode="layer"
     id="layer2"
     style="display:inline" />
</svg>
