<?xml version="1.0" encoding="UTF-8" standalone="no"?>
<!-- Created with Inkscape (http://www.inkscape.org/) -->
<svg
   xmlns:dc="http://purl.org/dc/elements/1.1/"
   xmlns:cc="http://creativecommons.org/ns#"
   xmlns:rdf="http://www.w3.org/1999/02/22-rdf-syntax-ns#"
   xmlns:svg="http://www.w3.org/2000/svg"
   xmlns="http://www.w3.org/2000/svg"
   xmlns:xlink="http://www.w3.org/1999/xlink"
   xmlns:sodipodi="http://sodipodi.sourceforge.net/DTD/sodipodi-0.dtd"
   xmlns:inkscape="http://www.inkscape.org/namespaces/inkscape"
   width="128"
   height="32"
   id="svg2"
   sodipodi:version="0.32"
   inkscape:version="0.46"
   version="1.0"
   sodipodi:docname="wild_medium.svg"
   inkscape:output_extension="org.inkscape.output.svg.inkscape"
   inkscape:export-filename="D:\Dateien\Desktop\Secret Maryo Chronicles\SMC\data\pixmaps\ground\green_1\hedges\wild_medium.png"
   inkscape:export-xdpi="360"
   inkscape:export-ydpi="360"
   sodipodi:docbase="D:\Dateien\Desktop\Secret Maryo Chronicles\Drafts\Game\needcoffee\level\jungle\grass">
  <sodipodi:namedview
     id="base"
     pagecolor="#000000"
     bordercolor="#666666"
     borderopacity="1.0"
     inkscape:pageopacity="0"
     inkscape:pageshadow="2"
     inkscape:zoom="5.6568542"
     inkscape:cx="59.456256"
     inkscape:cy="47.429056"
     inkscape:document-units="px"
     inkscape:current-layer="layer2"
     showgrid="false"
     inkscape:showpageshadow="false"
     inkscape:window-width="1254"
     inkscape:window-height="945"
     inkscape:window-x="18"
     inkscape:window-y="18"
     showguides="true"
     inkscape:guide-bbox="true" />
  <defs
     id="defs4">
    <linearGradient
       id="linearGradient3249">
      <stop
         style="stop-color:#067800;stop-opacity:1;"
         offset="0"
         id="stop3251" />
      <stop
         id="stop3202"
         offset="0.60119045"
         style="stop-color:#0e9600;stop-opacity:1;" />
      <stop
         style="stop-color:#2ac800;stop-opacity:1;"
         offset="1"
         id="stop3253" />
    </linearGradient>
    <linearGradient
       id="linearGradient3253">
      <stop
         style="stop-color:#101010;stop-opacity:1;"
         offset="0"
         id="stop3255" />
      <stop
         id="stop3261"
         offset="0.5"
         style="stop-color:#e0e0e0;stop-opacity:1;" />
      <stop
         style="stop-color:#000000;stop-opacity:1;"
         offset="1"
         id="stop3257" />
    </linearGradient>
    <linearGradient
       inkscape:collect="always"
       xlink:href="#linearGradient3253"
       id="linearGradient3259"
       x1="52.090357"
       y1="687.83378"
       x2="178.10448"
       y2="687.83378"
       gradientUnits="userSpaceOnUse"
       gradientTransform="translate(5.7570596,63.534697)" />
    <filter
       id="filter3192"
       inkscape:label="filter2"
       width="1"
       height="1"
       x="0"
       y="0">
      <feTurbulence
         id="feTurbulence3194"
         type="turbulence"
         baseFrequency="0.26000000000000001"
         numOctaves="1"
         seed="400"
         result="result0"
         in="SourceGraphic" />
      <feColorMatrix
         id="feColorMatrix3198"
         type="matrix"
         values="0 1.3 0 0 0 0.2 2.8 0.1 0.9 0 0 0 0 0 0 0.5 0.2 1.9 0.1 0 "
         result="result1" />
      <feComposite
         id="feComposite3216"
         in2="SourceGraphic"
         operator="in" />
    </filter>
    <filter
       inkscape:collect="always"
       id="filter3171"
       x="-0.021846303"
       width="1.0436926"
       y="-0.10223673"
       height="1.2044735">
      <feGaussianBlur
         inkscape:collect="always"
         stdDeviation="1.1052114"
         id="feGaussianBlur3173" />
    </filter>
    <filter
       inkscape:collect="always"
       id="filter3198">
      <feGaussianBlur
         inkscape:collect="always"
         stdDeviation="0.78072366"
         id="feGaussianBlur3200" />
    </filter>
    <radialGradient
       inkscape:collect="always"
       xlink:href="#linearGradient3249"
       id="radialGradient3204"
       cx="120.85448"
       cy="720.7207"
       fx="120.85448"
       fy="720.7207"
       r="63.007061"
       gradientTransform="matrix(1.0645303,5.611511e-3,-1.1272835e-3,0.213851,-6.9863185,598.56343)"
       gradientUnits="userSpaceOnUse" />
  </defs>
  <metadata
     id="metadata7">
    <rdf:RDF>
      <cc:Work
         rdf:about="">
        <dc:format>image/svg+xml</dc:format>
        <dc:type
           rdf:resource="http://purl.org/dc/dcmitype/StillImage" />
      </cc:Work>
      <cc:Work
         rdf:about="">
        <dc:format>image/svg+xml</dc:format>
        <dc:type
           rdf:resource="http://purl.org/dc/dcmitype/StillImage" />
      </cc:Work>
    </rdf:RDF>
  </metadata>
  <g
     transform="translate(-56.847417,-735.33378)"
     inkscape:label="plants"
     id="layer2"
     inkscape:groupmode="layer">
    <path
       style="fill:url(#radialGradient3204);fill-opacity:1;fill-rule:evenodd;stroke:none;stroke-width:0.5;stroke-linecap:butt;stroke-linejoin:miter;stroke-miterlimit:4;stroke-dasharray:none;stroke-opacity:1;filter:url(#filter3198)"
       d="M 110.0157,736.30533 C 109.78329,736.38145 109.07854,737.30297 108.48445,738.61783 C 107.81751,738.0211 107.02922,737.5123 106.1407,737.21158 C 102.35067,735.92882 95.344437,738.14227 95.109446,738.83658 C 94.98891,739.19272 96.294742,740.90814 98.109446,742.61783 C 97.319077,742.87463 96.586042,743.169 95.921946,743.46158 C 95.867476,743.04743 95.807361,742.64421 95.703196,742.27408 C 94.619274,738.42248 89.738788,736.37468 89.265696,736.55533 C 88.956334,736.64239 87.783751,738.13281 87.078196,740.11783 C 85.215708,737.43514 81.626337,736.16766 81.234446,736.33658 C 81.001178,736.41298 80.298705,737.3263 79.703196,738.64908 C 79.03915,738.05744 78.273483,737.54161 77.390696,737.24283 C 73.60067,735.96007 66.563189,738.17352 66.328196,738.86783 C 66.237709,739.13518 66.984603,740.17133 68.109446,741.39908 C 67.479882,741.01761 66.849999,740.70116 66.234446,740.49283 C 62.444424,739.21007 57.977816,742.09421 57.859446,742.58658 C 57.683098,743.10762 59.444418,748.02259 63.234446,749.30533 C 63.304116,749.32891 63.381408,749.34656 63.453196,749.36783 C 60.328679,750.68202 58.345866,754.22104 58.453196,754.64908 C 58.495725,754.92081 59.488171,755.92963 60.953196,756.80533 C 59.400941,759.80127 58.596203,763.34913 58.921946,763.74283 C 59.225608,764.10985 62.600211,763.71397 65.671946,762.58658 C 65.910421,764.2354 66.419422,765.50568 66.640696,765.61783 C 67.106884,765.90981 72.298125,765.32136 74.421946,761.93033 C 74.722943,761.44974 74.969423,760.882 75.171946,760.27408 C 75.318404,761.23778 75.558016,761.92879 75.703196,762.02408 C 76.127401,762.36104 81.172317,762.36063 83.703196,759.36783 C 84.345745,762.21266 86.413495,764.5484 86.796946,764.58658 C 86.969013,764.61961 87.5836,764.37628 88.328196,763.93033 C 90.27555,764.95643 94.718805,766.44112 97.765696,766.02408 C 100.76839,765.6131 103.04278,762.90291 103.92195,761.39908 C 104.06,761.56692 104.20134,761.74502 104.35945,761.89908 C 107.2253,764.69134 113.94233,766.2976 114.42195,765.80533 C 114.49821,765.72705 114.54827,765.45778 114.54695,765.11783 C 116.98755,765.85554 120.79541,766.48516 123.2657,765.64908 C 123.86504,765.44623 124.39234,765.15818 124.8907,764.80533 C 125.12119,765.42893 125.32515,765.8557 125.4532,765.93033 C 125.86592,766.22378 131.12605,765.44984 133.1407,761.99283 C 133.44086,761.47778 133.67783,760.87845 133.8907,760.24283 C 133.6115,763.25088 135.0526,766.25166 135.42195,766.39908 C 135.89928,766.64166 140.74164,765.6475 142.67195,762.30533 C 143.9248,764.76112 146.21335,766.46761 146.5782,766.43033 C 147.10821,766.42427 150.8754,763.35763 151.10945,759.55533 C 151.72231,759.92749 152.37201,760.18897 153.04695,760.36783 C 153.63386,763.38412 154.84753,766.18737 155.29695,766.30533 C 155.80219,766.43794 158.76589,763.6543 160.60945,760.61783 C 162.03032,764.18638 166.68995,765.90586 167.1407,765.71158 C 167.37397,765.63518 168.07644,764.72186 168.67195,763.39908 C 169.33889,763.9958 170.09593,764.50461 170.98445,764.80533 C 174.77448,766.08809 181.81196,763.87464 182.04695,763.18033 C 182.16786,762.8231 180.83922,761.11386 179.0157,759.39908 C 181.5977,758.56183 183.78549,757.37153 183.85945,756.96158 C 183.93231,756.55774 182.09226,754.76455 179.7657,753.24283 C 181.9292,751.65976 183.60287,749.87008 183.54695,749.46158 C 183.47491,748.93524 179.64125,747.22164 176.0782,746.71158 C 179.14107,744.13764 180.95005,737.08681 180.48445,736.52408 C 180.04633,735.99455 173.19226,737.03588 170.10945,739.58658 C 169.65212,739.96497 169.27998,740.42527 168.9532,740.89908 C 167.38595,741.7472 165.81621,742.81311 164.8282,743.99283 C 164.30067,741.37839 163.37694,739.11339 162.98445,738.99283 C 162.67101,738.89655 161.35703,739.93601 159.92195,741.43033 C 159.66617,738.77881 159.01722,736.4599 158.6407,736.33658 C 158.19575,736.19084 155.59171,737.90794 153.4532,740.14908 C 153.22307,738.95902 152.87867,738.11986 152.7032,738.02408 C 152.25371,737.72305 147.20644,738.12957 144.92195,741.30533 C 144.05135,738.52092 141.80733,736.3748 141.42195,736.36783 C 140.89003,736.30989 136.7056,738.93822 136.0782,742.74283 C 133.23778,740.70847 129.00647,741.06215 128.7032,741.39908 C 128.54028,741.5501 128.2987,742.49187 128.2657,743.74283 C 127.39706,743.01343 126.34106,746.3391 125.29695,745.77408 C 124.99354,745.33206 124.64727,744.91753 124.23445,744.55533 C 125.14943,742.32937 125.67138,739.90223 125.8907,737.21158 C 124.07911,739.16014 122.49577,740.94416 120.48445,742.55533 C 117.42376,741.44001 114.09986,741.03297 113.79695,741.39908 C 113.73274,741.47669 113.71471,741.69653 113.73445,741.99283 C 112.05005,740.76274 110.2842,736.1896 110.0157,736.30533 z"
       id="path3431" />
    <path
       style="opacity:0.59999999999999998;fill:#15e500;fill-opacity:1;fill-rule:evenodd;stroke:none;stroke-width:1px;stroke-linecap:butt;stroke-linejoin:miter;stroke-opacity:1;filter:url(#filter3171)"
       d="M 109.98034,739.88111 C 107.89177,744.8578 107.12008,740.1868 105.64211,739.38034 C 104.97517,738.78361 101.59069,738.43014 97.577169,739.12942 C 99.61275,741.96908 100.58779,742.62416 98.961663,744.87666 C 96.352314,745.41438 96.470033,745.4936 94.09831,745.15791 C 93.889388,742.43131 90.608776,739.43528 90.135684,739.61593 C 89.826322,739.70299 88.687749,741.37019 87.09831,743.00166 C 85.235822,740.31897 82.849878,738.69793 82.457987,738.86685 C 82.224719,738.94325 78.693819,740.21013 78.09831,741.53291 C 77.434264,740.94127 76.668597,740.42544 75.78581,740.12666 C 71.995784,738.8439 69.731274,739.64313 69.496281,740.33744 C 69.405794,740.60479 69.092028,742.17127 70.216871,743.39902 C 69.587307,743.01755 67.719987,743.05466 67.104434,742.84633 C 63.314412,741.56357 60.085241,742.32639 59.966871,742.81876 C 59.790523,743.3398 61.728619,747.54766 65.518647,748.8304 C 65.588317,748.85398 65.665609,748.87163 65.737397,748.8929 C 62.61288,750.20709 60.630067,753.74611 60.737397,754.17415 C 60.779926,754.44588 61.772372,755.4547 63.237397,756.3304 C 61.685142,759.32634 60.526851,761.10643 60.852594,761.50013 C 61.156256,761.86715 63.912141,761.2061 66.983876,760.07871 C 67.222351,761.72753 68.084905,763.8817 68.306179,763.99385 C 68.772367,764.28583 72.726172,760.86895 74.849993,757.47792 C 75.15099,756.99733 75.39747,756.42959 75.599993,755.82167 C 75.746451,756.78537 77.361063,759.60138 77.506243,759.69667 C 77.930448,760.03363 82.395859,758.7921 84.926738,755.7993 C 85.569287,758.64413 86.664765,762.21731 87.048216,762.25549 C 87.220283,762.28852 89.249083,762.31036 89.993679,761.86441 C 91.941033,762.89051 93.997803,764.19842 97.04469,763.78138 C 100.04738,763.3704 102.32177,760.66021 103.20094,759.15638 C 103.33899,759.32422 103.48033,759.50232 103.63844,759.65638 C 106.50429,762.44864 113.22132,764.0549 113.70094,763.56263 C 113.7772,763.48435 113.82726,763.21508 113.82594,762.87513 C 116.26654,763.61284 120.0744,764.24246 122.54469,763.40638 C 123.14403,763.20353 123.67133,762.91548 124.16969,762.56263 C 124.40018,763.18623 124.60414,763.613 124.73219,763.68763 C 125.14491,763.98108 130.40504,763.20714 132.41969,759.75013 C 132.71985,759.23508 134.6362,758.90092 134.84907,758.2653 C 134.56987,761.27335 136.36452,763.74379 136.73387,763.89121 C 137.2112,764.13379 140.02063,763.4048 141.95094,760.06263 C 143.20379,762.51842 145.49234,764.22491 145.85719,764.18763 C 146.3872,764.18157 150.15439,761.11493 150.38844,757.31263 C 151.0013,757.68479 153.1536,758.12305 153.82854,758.30191 C 154.41545,761.3182 155.62912,763.50273 156.07854,763.62069 C 156.58378,763.7533 159.28232,761.23482 161.12588,758.19835 C 162.54675,761.7669 165.96894,763.66316 166.41969,763.46888 C 166.65296,763.39248 167.35543,762.47916 167.95094,761.15638 C 168.61788,761.7531 167.78393,761.90836 168.67245,762.20908 C 172.46248,763.49184 178.70446,762.86938 178.93945,762.17507 C 179.06036,761.81784 177.82011,759.66666 175.99659,757.95188 C 178.57859,757.11463 181.29671,756.98499 181.37067,756.57504 C 181.44353,756.1712 179.4267,754.81995 177.10014,753.29823 C 179.26364,751.71516 181.11409,750.10226 181.05817,749.69376 C 180.98613,749.16742 176.71053,748.07254 173.14748,747.56248 C 176.21035,744.98854 178.37916,738.86708 177.91356,738.30435 C 177.47544,737.77482 173.00158,740.80359 169.91877,743.35429 C 169.46144,743.73268 167.67508,743.3091 167.3483,743.78291 C 165.78105,744.63103 165.44875,745.69694 164.46074,746.87666 C 163.93321,744.26222 162.65593,741.99722 162.26344,741.87666 C 161.95,741.78038 159.75213,742.81984 158.31705,744.31416 C 158.06127,741.66264 157.41232,739.34373 157.0358,739.22041 C 156.59085,739.07467 155.22425,741.14532 153.08574,743.38646 C 152.85561,742.1964 150.76489,739.90013 150.58942,739.80435 C 150.13993,739.50332 147.19253,741.19017 144.90804,744.36593 C 144.03744,741.58152 141.61665,739.08185 141.23127,739.07488 C 140.69935,739.01694 137.75235,740.76139 137.12495,744.566 C 133.21334,744.6236 133.92618,742.7364 130.44634,743.20356 C 128.7027,744.97416 126.74505,747.74437 123.20094,746.80435 C 122.24956,744.36146 123.53138,743.75961 123.5787,741.33284 C 121.76711,743.2814 121.06765,744.88865 116.75823,744.02495 C 113.69754,742.90963 112.49496,743.9168 112.19205,744.28291 C 112.12784,744.36052 112.10981,744.58036 112.12955,744.87666 C 110.44515,743.64657 111.92822,743.56607 109.98034,739.88111 z"
       id="path2431"
       sodipodi:nodetypes="cccccccscsscscscccsccscscscscsscscssccccccscccsscscscssccscscscccccccscc" />
    <path
       style="opacity:0.20000000000000001;fill:url(#linearGradient3259);fill-opacity:1;fill-rule:evenodd;stroke:none;stroke-width:1px;stroke-linecap:butt;stroke-linejoin:miter;stroke-opacity:1;filter:url(#filter3192)"
       d="M 110.0157,736.30533 C 109.78329,736.38145 109.07854,737.30297 108.48445,738.61783 C 107.81751,738.0211 107.02922,737.5123 106.1407,737.21158 C 102.35067,735.92882 95.34444,738.14227 95.10945,738.83658 C 94.98891,739.19272 96.29474,740.90814 98.10945,742.61783 C 97.31908,742.87463 96.58604,743.169 95.92195,743.46158 C 95.86748,743.04743 95.80736,742.64421 95.7032,742.27408 C 94.61927,738.42248 89.73879,736.37468 89.2657,736.55533 C 88.95633,736.64239 87.78375,738.13281 87.0782,740.11783 C 85.21571,737.43514 81.62634,736.16766 81.23445,736.33658 C 81.00118,736.41298 80.29871,737.3263 79.7032,738.64908 C 79.03915,738.05744 78.27348,737.54161 77.3907,737.24283 C 73.60067,735.96007 66.563189,738.17352 66.328196,738.86783 C 66.237709,739.13518 66.984603,740.17133 68.109446,741.39908 C 67.479882,741.01761 66.849999,740.70116 66.234446,740.49283 C 62.444424,739.21007 57.977816,742.09421 57.859446,742.58658 C 57.683098,743.10762 59.444418,748.02259 63.234446,749.30533 C 63.304116,749.32891 63.381408,749.34656 63.453196,749.36783 C 60.328679,750.68202 58.345866,754.22104 58.453196,754.64908 C 58.495725,754.92081 59.488171,755.92963 60.953196,756.80533 C 59.400941,759.80127 58.596203,763.34913 58.921946,763.74283 C 59.225608,764.10985 62.600211,763.71397 65.671946,762.58658 C 65.910421,764.2354 66.419422,765.50568 66.640696,765.61783 C 67.106884,765.90981 72.298125,765.32136 74.421946,761.93033 C 74.722943,761.44974 74.969423,760.882 75.171946,760.27408 C 75.3184,761.23778 75.55802,761.92879 75.7032,762.02408 C 76.1274,762.36104 81.17232,762.36063 83.7032,759.36783 C 84.34575,762.21266 86.4135,764.5484 86.79695,764.58658 C 86.96901,764.61961 87.5836,764.37628 88.3282,763.93033 C 90.27555,764.95643 94.71881,766.44112 97.7657,766.02408 C 100.76839,765.6131 103.04278,762.90291 103.92195,761.39908 C 104.06,761.56692 104.20134,761.74502 104.35945,761.89908 C 107.2253,764.69134 113.94233,766.2976 114.42195,765.80533 C 114.49821,765.72705 114.54827,765.45778 114.54695,765.11783 C 116.98755,765.85554 120.79541,766.48516 123.2657,765.64908 C 123.86504,765.44623 124.39234,765.15818 124.8907,764.80533 C 125.12119,765.42893 125.32515,765.8557 125.4532,765.93033 C 125.86592,766.22378 131.12605,765.44984 133.1407,761.99283 C 133.44086,761.47778 133.67783,760.87845 133.8907,760.24283 C 133.6115,763.25088 135.0526,766.25166 135.42195,766.39908 C 135.89928,766.64166 140.74164,765.6475 142.67195,762.30533 C 143.9248,764.76112 146.21335,766.46761 146.5782,766.43033 C 147.10821,766.42427 150.8754,763.35763 151.10945,759.55533 C 151.72231,759.92749 152.37201,760.18897 153.04695,760.36783 C 153.63386,763.38412 154.84753,766.18737 155.29695,766.30533 C 155.80219,766.43794 158.76589,763.6543 160.60945,760.61783 C 162.03032,764.18638 166.68995,765.90586 167.1407,765.71158 C 167.37397,765.63518 168.07644,764.72186 168.67195,763.39908 C 169.33889,763.9958 170.09593,764.50461 170.98445,764.80533 C 174.77448,766.08809 181.81196,763.87464 182.04695,763.18033 C 182.16786,762.8231 180.83922,761.11386 179.0157,759.39908 C 181.5977,758.56183 183.78549,757.37153 183.85945,756.96158 C 183.93231,756.55774 182.09226,754.76455 179.7657,753.24283 C 181.9292,751.65976 183.60287,749.87008 183.54695,749.46158 C 183.47491,748.93524 179.64125,747.22164 176.0782,746.71158 C 179.14107,744.13764 180.95005,737.08681 180.48445,736.52408 C 180.04633,735.99455 173.19226,737.03588 170.10945,739.58658 C 169.65212,739.96497 169.27998,740.42527 168.9532,740.89908 C 167.38595,741.7472 165.81621,742.81311 164.8282,743.99283 C 164.30067,741.37839 163.37694,739.11339 162.98445,738.99283 C 162.67101,738.89655 161.35703,739.93601 159.92195,741.43033 C 159.66617,738.77881 159.01722,736.4599 158.6407,736.33658 C 158.19575,736.19084 155.59171,737.90794 153.4532,740.14908 C 153.22307,738.95902 152.87867,738.11986 152.7032,738.02408 C 152.25371,737.72305 147.20644,738.12957 144.92195,741.30533 C 144.05135,738.52092 141.80733,736.3748 141.42195,736.36783 C 140.89003,736.30989 136.7056,738.93822 136.0782,742.74283 C 133.23778,740.70847 129.00647,741.06215 128.7032,741.39908 C 128.54028,741.5501 128.2987,742.49187 128.2657,743.74283 C 127.39706,743.01343 126.34106,746.3391 125.29695,745.77408 C 124.99354,745.33206 124.64727,744.91753 124.23445,744.55533 C 125.14943,742.32937 125.67138,739.90223 125.8907,737.21158 C 124.07911,739.16014 122.49577,740.94416 120.48445,742.55533 C 117.42376,741.44001 114.09986,741.03297 113.79695,741.39908 C 113.73274,741.47669 113.71471,741.69653 113.73445,741.99283 C 112.05005,740.76274 110.2842,736.1896 110.0157,736.30533 z"
       id="path3251" />
    <path
       style="fill:#0e7d00;fill-opacity:1;stroke:#085100;stroke-width:0.99999994;stroke-miterlimit:4;stroke-dasharray:none;stroke-opacity:1"
       d="M 125.00864,691.77686 C 124.77623,691.85297 124.07147,692.7745 123.47739,694.08936 C 122.81045,693.49263 122.02215,692.98383 121.13364,692.68311 C 117.34361,691.40035 110.33738,693.6138 110.10239,694.30811 C 109.98185,694.66425 111.28768,696.37967 113.10239,698.08936 C 112.31202,698.34616 111.57898,698.64053 110.91489,698.93311 C 110.86041,698.51895 110.8003,698.11574 110.69614,697.74561 C 109.61221,693.89401 104.73173,691.84621 104.25864,692.02686 C 103.94927,692.11391 102.77669,693.60434 102.07114,695.58936 C 100.20865,692.90666 96.619277,691.63919 96.227386,691.80811 C 95.994117,691.88451 95.291645,692.79783 94.696136,694.12061 C 94.032089,693.52897 93.266423,693.01314 92.383636,692.71436 C 88.593609,691.4316 81.556129,693.64505 81.321136,694.33936 C 81.230649,694.60671 81.977543,695.64285 83.102386,696.87061 C 82.472822,696.48914 81.842939,696.17269 81.227386,695.96436 C 77.437364,694.6816 72.970756,697.56574 72.852386,698.05811 C 72.676038,698.57915 74.437357,703.49412 78.227386,704.77686 C 78.297055,704.80044 78.374347,704.81809 78.446136,704.83936 C 75.321619,706.15355 73.338806,709.69257 73.446136,710.12061 C 73.488665,710.39234 74.481111,711.40116 75.946136,712.27686 C 74.39388,715.2728 73.589142,718.82066 73.914886,719.21436 C 74.218548,719.58137 77.593151,719.18549 80.664886,718.05811 C 80.903361,719.70693 81.412362,720.97721 81.633636,721.08936 C 82.099824,721.38134 87.291065,720.79289 89.414886,717.40186 C 89.715882,716.92127 89.962363,716.35353 90.164886,715.74561 C 90.311343,716.7093 90.550956,717.40031 90.696136,717.49561 C 91.12034,717.83257 96.165257,717.83215 98.696136,714.83936 C 99.338684,717.68419 101.40643,720.01992 101.78989,720.05811 C 101.96195,720.09114 102.57654,719.8478 103.32114,719.40186 C 105.26849,720.42795 109.71174,721.91265 112.75864,721.49561 C 115.76132,721.08463 118.03572,718.37444 118.91489,716.87061 C 119.05293,717.03845 119.19427,717.21655 119.35239,717.37061 C 122.21824,720.16286 128.93527,721.76913 129.41489,721.27686 C 129.49115,721.19858 129.5412,720.9293 129.53989,720.58936 C 131.98049,721.32706 135.78835,721.95669 138.25864,721.12061 C 138.85798,720.91776 139.38528,720.62971 139.88364,720.27686 C 140.11413,720.90045 140.31808,721.32723 140.44614,721.40186 C 140.85885,721.6953 146.11899,720.92137 148.13364,717.46436 C 148.43379,716.94931 148.67077,716.34998 148.88364,715.71436 C 148.60444,718.72241 150.04554,721.72318 150.41489,721.87061 C 150.89222,722.11319 155.73458,721.11903 157.66489,717.77686 C 158.91774,720.23265 161.20629,721.93914 161.57114,721.90186 C 162.10114,721.89579 165.86834,718.82916 166.10239,715.02686 C 166.71525,715.39901 167.36495,715.6605 168.03989,715.83936 C 168.6268,718.85565 169.84046,721.6589 170.28989,721.77686 C 170.79513,721.90947 173.75883,719.12583 175.60239,716.08936 C 177.02326,719.65791 181.68289,721.37739 182.13364,721.18311 C 182.36691,721.10671 183.06938,720.19338 183.66489,718.87061 C 184.33183,719.46733 185.08887,719.97613 185.97739,720.27686 C 189.76742,721.55962 196.8049,719.34617 197.03989,718.65186 C 197.1608,718.29462 195.83216,716.58538 194.00864,714.87061 C 196.59064,714.03336 198.77843,712.84306 198.85239,712.43311 C 198.92525,712.02927 197.0852,710.23607 194.75864,708.71436 C 196.92214,707.13129 198.59581,705.34161 198.53989,704.93311 C 198.46785,704.40676 194.63419,702.69317 191.07114,702.18311 C 194.13401,699.60917 195.94299,692.55834 195.47739,691.99561 C 195.03927,691.46608 188.1852,692.50741 185.10239,695.05811 C 184.64506,695.4365 184.27292,695.89679 183.94614,696.37061 C 182.37889,697.21873 180.80915,698.28464 179.82114,699.46436 C 179.29361,696.84992 178.36988,694.58491 177.97739,694.46436 C 177.66395,694.36808 176.34997,695.40754 174.91489,696.90186 C 174.65911,694.25034 174.01016,691.93142 173.63364,691.80811 C 173.18869,691.66237 170.58464,693.37947 168.44614,695.62061 C 168.216,694.43054 167.8716,693.59139 167.69614,693.49561 C 167.24664,693.19458 162.19938,693.60109 159.91489,696.77686 C 159.04429,693.99244 156.80027,691.84633 156.41489,691.83936 C 155.88297,691.78142 151.69854,694.40975 151.07114,698.21436 C 148.23072,696.17999 143.9994,696.53368 143.69614,696.87061 C 143.53322,697.02162 143.29163,697.9634 143.25864,699.21436 C 142.38999,698.48495 141.33399,697.81063 140.28989,697.24561 C 139.96122,696.76678 139.59518,696.31498 139.13364,695.93311 C 136.05082,693.38241 129.22801,692.34108 128.78989,692.87061 C 128.72567,692.94822 128.70765,693.16805 128.72739,693.46436 C 127.04299,692.23427 125.27714,691.66112 125.00864,691.77686 z"
       id="path2625"
       sodipodi:nodetypes="ccssccsccscsscscscccsccscscscscsscscssccccccscccsscscscssccscscscccsccsscc"
       transform="translate(56.847417,735.33378)" />
  </g>
</svg>
