<?xml version="1.0" encoding="UTF-8" standalone="no"?>
<!-- Created with Inkscape (http://www.inkscape.org/) -->

<svg
   xmlns:dc="http://purl.org/dc/elements/1.1/"
   xmlns:cc="http://creativecommons.org/ns#"
   xmlns:rdf="http://www.w3.org/1999/02/22-rdf-syntax-ns#"
   xmlns:svg="http://www.w3.org/2000/svg"
   xmlns="http://www.w3.org/2000/svg"
   xmlns:xlink="http://www.w3.org/1999/xlink"
   xmlns:sodipodi="http://sodipodi.sourceforge.net/DTD/sodipodi-0.dtd"
   xmlns:inkscape="http://www.inkscape.org/namespaces/inkscape"
   width="64"
   height="64"
   id="svg2"
   sodipodi:version="0.32"
   inkscape:version="0.47 r22583"
   version="1.0"
   sodipodi:docname="tendril_top.svg"
   inkscape:export-filename="tendril_top.png"
   inkscape:export-xdpi="180"
   inkscape:export-ydpi="180"
   inkscape:output_extension="org.inkscape.output.svg.inkscape">
  <defs
     id="defs4">
    <linearGradient
       id="linearGradient3361">
      <stop
         style="stop-color:#19c900;stop-opacity:1"
         offset="0"
         id="stop3363" />
      <stop
         style="stop-color:#008000;stop-opacity:1"
         offset="1"
         id="stop3365" />
    </linearGradient>
    <linearGradient
       id="linearGradient3301">
      <stop
         id="stop3303"
         offset="0"
         style="stop-color:#40e300;stop-opacity:1" />
      <stop
         id="stop3305"
         offset="1"
         style="stop-color:#08b700;stop-opacity:1" />
    </linearGradient>
    <linearGradient
       id="linearGradient3295">
      <stop
         id="stop3297"
         offset="0"
         style="stop-color:#08b600;stop-opacity:1;" />
      <stop
         id="stop3299"
         offset="1"
         style="stop-color:#68ff61;stop-opacity:1;" />
    </linearGradient>
    <linearGradient
       id="linearGradient3261">
      <stop
         id="stop3263"
         offset="0"
         style="stop-color:#65ce26;stop-opacity:1;" />
      <stop
         id="stop3265"
         offset="1"
         style="stop-color:#068e00;stop-opacity:1" />
    </linearGradient>
    <linearGradient
       inkscape:collect="always"
       id="linearGradient3213">
      <stop
         style="stop-color:#46e300;stop-opacity:1"
         offset="0"
         id="stop3215" />
      <stop
         style="stop-color:#068900;stop-opacity:1"
         offset="1"
         id="stop3217" />
    </linearGradient>
    <linearGradient
       id="linearGradient6366">
      <stop
         style="stop-color:#08b600;stop-opacity:1;"
         offset="0"
         id="stop6368" />
      <stop
         style="stop-color:#68ff61;stop-opacity:1;"
         offset="1"
         id="stop6370" />
    </linearGradient>
    <linearGradient
       id="linearGradient6356">
      <stop
         style="stop-color:#24981d;stop-opacity:1;"
         offset="0"
         id="stop6358" />
      <stop
         style="stop-color:#59ff51;stop-opacity:1;"
         offset="1"
         id="stop6360" />
    </linearGradient>
    <linearGradient
       inkscape:collect="always"
       xlink:href="#linearGradient3295"
       id="linearGradient2428"
       gradientUnits="userSpaceOnUse"
       gradientTransform="matrix(0.8683559,0,0,1,4.2632883,-2)"
       x1="4.8814063"
       y1="42.250126"
       x2="35.339729"
       y2="42.250126" />
    <linearGradient
       inkscape:collect="always"
       xlink:href="#linearGradient6366"
       id="linearGradient2431"
       gradientUnits="userSpaceOnUse"
       gradientTransform="matrix(0.8683559,0,0,1,4.2632883,-2)"
       x1="28.660273"
       y1="42.250126"
       x2="59.118595"
       y2="42.250126" />
    <linearGradient
       inkscape:collect="always"
       xlink:href="#linearGradient6356"
       id="linearGradient2434"
       gradientUnits="userSpaceOnUse"
       gradientTransform="matrix(0.8683559,0,0,1,4.2632883,-2)"
       x1="13.625"
       y1="38.250125"
       x2="35.339728"
       y2="38.250125" />
    <linearGradient
       inkscape:collect="always"
       xlink:href="#linearGradient6366"
       id="linearGradient2437"
       gradientUnits="userSpaceOnUse"
       gradientTransform="matrix(0.8683559,0,0,1,4.2632883,-2)"
       x1="28.660272"
       y1="38.250125"
       x2="50.375"
       y2="38.250125" />
    <linearGradient
       inkscape:collect="always"
       xlink:href="#linearGradient3213"
       id="linearGradient3219"
       x1="27.688354"
       y1="-5.4998746"
       x2="35.893196"
       y2="38.750126"
       gradientUnits="userSpaceOnUse"
       gradientTransform="translate(0,2.9997526)" />
    <filter
       inkscape:collect="always"
       id="filter3253"
       x="-0.22932686"
       width="1.4586537"
       y="-0.05921073"
       height="1.1184215">
      <feGaussianBlur
         inkscape:collect="always"
         stdDeviation="1.7394008"
         id="feGaussianBlur3255" />
    </filter>
    <linearGradient
       inkscape:collect="always"
       xlink:href="#linearGradient3261"
       id="linearGradient3259"
       gradientUnits="userSpaceOnUse"
       gradientTransform="matrix(0.8683559,0,0,1,4.2632883,-2)"
       x1="13.56815"
       y1="1.5001255"
       x2="28.718019"
       y2="41.250126" />
    <filter
       inkscape:collect="always"
       id="filter3287"
       x="-0.17608079"
       width="1.3521616"
       y="-0.046790254"
       height="1.0935805">
      <feGaussianBlur
         inkscape:collect="always"
         stdDeviation="1.3355395"
         id="feGaussianBlur3289" />
    </filter>
    <linearGradient
       inkscape:collect="always"
       xlink:href="#linearGradient3301"
       id="linearGradient3293"
       gradientUnits="userSpaceOnUse"
       gradientTransform="matrix(0.8683559,0,0,1,4.2632883,-2)"
       x1="4.8245554"
       y1="11.625"
       x2="22.384212"
       y2="48.500126" />
    <filter
       inkscape:collect="always"
       id="filter3351">
      <feGaussianBlur
         inkscape:collect="always"
         stdDeviation="0.89133937"
         id="feGaussianBlur3353" />
    </filter>
    <linearGradient
       inkscape:collect="always"
       xlink:href="#linearGradient3361"
       id="linearGradient3367"
       x1="6.5540061"
       y1="18.201527"
       x2="18.593111"
       y2="62.95153"
       gradientUnits="userSpaceOnUse" />
    <filter
       inkscape:collect="always"
       id="filter3373"
       x="-0.12064377"
       width="1.2412875"
       y="-0.067531896"
       height="1.1350638">
      <feGaussianBlur
         inkscape:collect="always"
         stdDeviation="1.3479101"
         id="feGaussianBlur3375" />
    </filter>
    <filter
       inkscape:collect="always"
       id="filter3404"
       x="-0.38769291"
       width="1.7753858"
       y="-0.12759487"
       height="1.2551897">
      <feGaussianBlur
         inkscape:collect="always"
         stdDeviation="2.0001054"
         id="feGaussianBlur3406" />
    </filter>
    <filter
       inkscape:collect="always"
       id="filter3436"
       x="-0.33367245"
       width="1.6673449"
       y="-0.13477605"
       height="1.2695521">
      <feGaussianBlur
         inkscape:collect="always"
         stdDeviation="2.2541286"
         id="feGaussianBlur3438" />
    </filter>
  </defs>
  <sodipodi:namedview
     id="base"
     pagecolor="#000000"
     bordercolor="#666666"
     borderopacity="1.0"
     inkscape:pageopacity="0"
     inkscape:pageshadow="2"
     inkscape:zoom="4"
     inkscape:cx="2.509434"
     inkscape:cy="38.064433"
     inkscape:document-units="px"
     inkscape:current-layer="layer1"
     width="64px"
     height="64px"
     inkscape:grid-points="false"
     gridtolerance="50"
     showgrid="true"
     inkscape:window-width="1024"
     inkscape:window-height="696"
     inkscape:window-x="94"
     inkscape:window-y="97"
     inkscape:grid-bbox="false"
     showguides="true"
     inkscape:guide-bbox="false"
     inkscape:object-paths="false"
     inkscape:window-maximized="0">
    <sodipodi:guide
       orientation="vertical"
       position="8"
       id="guide1892" />
    <sodipodi:guide
       orientation="vertical"
       position="56"
       id="guide1894" />
  </sodipodi:namedview>
  <metadata
     id="metadata7">
    <rdf:RDF>
      <cc:Work
         rdf:about="">
        <dc:format>image/svg+xml</dc:format>
        <dc:type
           rdf:resource="http://purl.org/dc/dcmitype/StillImage" />
        <dc:creator>
          <cc:Agent>
            <dc:title>Frostbringer</dc:title>
          </cc:Agent>
        </dc:creator>
        <cc:license
           rdf:resource="http://creativecommons.org/licenses/by-sa/2.5/" />
        <dc:title></dc:title>
      </cc:Work>
      <cc:License
         rdf:about="http://creativecommons.org/licenses/by-sa/2.5/">
        <cc:permits
           rdf:resource="http://web.resource.org/cc/Reproduction" />
        <cc:permits
           rdf:resource="http://web.resource.org/cc/Distribution" />
        <cc:requires
           rdf:resource="http://web.resource.org/cc/Notice" />
        <cc:requires
           rdf:resource="http://web.resource.org/cc/Attribution" />
        <cc:permits
           rdf:resource="http://web.resource.org/cc/DerivativeWorks" />
        <cc:requires
           rdf:resource="http://web.resource.org/cc/ShareAlike" />
      </cc:License>
    </rdf:RDF>
  </metadata>
  <g
     inkscape:label="Layer 1"
     inkscape:groupmode="layer"
     id="layer1">
    <path
       style="fill:url(#linearGradient3219);fill-opacity:1;fill-rule:nonzero;stroke:#000000;stroke-width:1.2;stroke-linecap:round;stroke-linejoin:round;stroke-miterlimit:4;stroke-dasharray:none;stroke-dashoffset:59.92000295000000400;stroke-opacity:1"
       d="M 37.260811,42.999751 C 37.260811,51.366001 41.680471,60.999751 42.470946,67.118189 C 43.291578,73.470041 33.20019,71.822481 29.523488,68.999751 C 24.313354,64.999751 24.313354,66.999751 24.313354,60.999751 C 24.313354,54.577976 28.577252,51.366001 28.577252,42.999751 C 28.577252,26.267251 28.249681,0.99975274 32.050676,0.99975274 C 35.524099,0.99975274 37.260811,26.267251 37.260811,42.999751 z"
       id="path2798"
       sodipodi:nodetypes="cssssss" />
    <path
       sodipodi:type="inkscape:offset"
       inkscape:radius="0"
       inkscape:original="M 32.0625 1 C 28.261505 1 28.5625 26.2675 28.5625 43 C 28.5625 51.36625 24.3125 54.578225 24.3125 61 C 24.3125 67 24.321116 65 29.53125 69 C 33.207952 71.82273 43.289382 73.476852 42.46875 67.125 C 41.678275 61.006562 37.25 51.36625 37.25 43 C 37.25 26.2675 35.535923 1 32.0625 1 z "
       xlink:href="#path2798"
       style="fill:#08b600;fill-opacity:1;fill-rule:nonzero;stroke:none;stroke-width:0.75;stroke-linecap:round;stroke-linejoin:round;stroke-miterlimit:4;stroke-dashoffset:59.92000295;stroke-opacity:1;filter:url(#filter3253)"
       id="path3211"
       inkscape:href="#path2798"
       d="M 32.0625,0.625 C 28.261505,0.625 28.562501,25.892499 28.5625,42.625 C 28.5625,50.99125 24.3125,54.203224 24.3125,60.625 C 24.3125,66.625 24.321117,64.625003 29.53125,68.625 C 33.207952,71.44773 43.289381,73.101854 42.46875,66.75 C 41.678275,60.631562 37.25,50.991249 37.25,42.625 C 37.25,25.8925 35.535925,0.62500002 32.0625,0.625 z"
       transform="matrix(0.6520651,0,0,0.9287267,11.12599,1.6199614)" />
    <path
       sodipodi:nodetypes="cssssss"
       id="path2792"
       d="M 30.313964,52 C 30.313964,60.36625 30.313964,60 29.523488,66.118438 C 28.702857,72.470295 38.794244,70.822731 42.470946,68 C 47.681081,64 47.681081,66 47.681081,60 C 47.681081,53.578225 40.734234,50.36625 40.734234,42 C 40.734234,25.2675 48.008653,2 44.207658,2 C 40.734234,2 30.313964,35.2675 30.313964,52 z "
       style="fill:url(#linearGradient2437);fill-opacity:1;fill-rule:nonzero;stroke:#000000;stroke-width:1.2;stroke-linecap:round;stroke-linejoin:round;stroke-miterlimit:4;stroke-dashoffset:59.92000295000000400;stroke-opacity:1;stroke-dasharray:none" />
    <path
       style="fill:url(#linearGradient3259);fill-opacity:1;fill-rule:nonzero;stroke:#000000;stroke-width:1.2;stroke-linecap:round;stroke-linejoin:round;stroke-miterlimit:4;stroke-dashoffset:59.92000295000000400;stroke-opacity:1;stroke-dasharray:none"
       d="M 33.787388,52 C 33.787388,60.36625 33.787388,60 34.577863,66.118438 C 35.398495,72.470295 25.307107,70.822731 21.630405,68 C 16.420271,64 16.420271,66 16.420271,60 C 16.420271,53.578225 23.367117,50.36625 23.367117,42 C 23.367117,25.2675 16.092699,2 19.893693,2 C 23.367117,2 33.787388,35.2675 33.787388,52 z"
       id="path2790"
       sodipodi:nodetypes="cssssss" />
    <path
       sodipodi:type="inkscape:offset"
       inkscape:radius="0"
       inkscape:original="M 19.90625 2 C 16.105256 2 23.375 25.2675 23.375 42 C 23.375 50.36625 16.40625 53.578225 16.40625 60 C 16.40625 66 16.414866 64 21.625 68 C 25.301702 70.822731 35.383132 72.476857 34.5625 66.125 C 33.772025 60.006562 33.78125 60.36625 33.78125 52 C 33.78125 35.2675 23.379674 2 19.90625 2 z "
       xlink:href="#path2790"
       style="fill:url(#linearGradient2434);fill-opacity:1;fill-rule:nonzero;stroke:none;stroke-width:0.75000000000000000;stroke-linecap:round;stroke-linejoin:round;stroke-miterlimit:4;stroke-dashoffset:59.92000295000000400;stroke-opacity:1;filter:url(#filter3287)"
       id="path3257"
       inkscape:href="#path2790"
       d="M 19.90625,2 C 16.105256,2 23.375,25.2675 23.375,42 C 23.375,50.36625 16.40625,53.578225 16.40625,60 C 16.40625,66 16.414866,64 21.625,68 C 25.301702,70.822731 35.383133,72.476856 34.5625,66.125 C 33.772025,60.006562 33.78125,60.36625 33.78125,52 C 33.78125,35.2675 23.379673,2 19.90625,2 z"
       transform="matrix(0.6709803,0,0,0.7335438,7.517645,3.7844983)" />
    <path
       style="fill:url(#linearGradient2431);fill-opacity:1;fill-rule:nonzero;stroke:#000000;stroke-width:1.2;stroke-linecap:round;stroke-linejoin:round;stroke-miterlimit:4;stroke-dashoffset:59.92000295000000400;stroke-opacity:1;stroke-dasharray:none"
       d="M 32.050676,52 C 30.313964,60 30.313964,60 29.523488,66.118438 C 28.702857,72.470295 38.794244,70.822731 42.470946,68 C 47.681081,64 47.681081,66 47.681081,60 C 47.681081,53.578225 44.207658,50.36625 44.207658,42 C 44.207658,25.2675 58.428923,10 54.627928,10 C 51.154505,10 35.574661,35.767091 32.050676,52 z "
       id="path2794"
       sodipodi:nodetypes="cssssss" />
    <path
       sodipodi:nodetypes="cssssss"
       id="path2786"
       d="M 32.050676,52 C 33.787388,60 33.787388,60 34.577863,66.118438 C 35.398495,72.470295 25.307107,70.822731 21.630405,68 C 16.420271,64 16.420271,66 16.420271,60 C 16.420271,53.578225 19.893693,50.36625 19.893693,42 C 19.893693,25.2675 5.6724287,10 9.4734235,10 C 12.946847,10 28.52669,35.767091 32.050676,52 z"
       style="fill:url(#linearGradient3293);fill-opacity:1;fill-rule:nonzero;stroke:#000000;stroke-width:1.2;stroke-linecap:round;stroke-linejoin:round;stroke-miterlimit:4;stroke-dashoffset:59.92000295000000400;stroke-opacity:1;stroke-dasharray:none" />
    <path
       sodipodi:type="inkscape:offset"
       inkscape:radius="0"
       inkscape:original="M 9.46875 10 C 5.6677552 10 19.90625 25.2675 19.90625 42 C 19.90625 50.36625 16.40625 53.578225 16.40625 60 C 16.40625 66 16.414866 64 21.625 68 C 25.301702 70.822731 35.383132 72.476857 34.5625 66.125 C 33.772025 60.006562 33.799212 60 32.0625 52 C 28.538514 35.767091 12.942173 10 9.46875 10 z "
       xlink:href="#path2786"
       style="fill:url(#linearGradient2428);fill-opacity:1;fill-rule:nonzero;stroke:none;stroke-width:0.75000000000000000;stroke-linecap:round;stroke-linejoin:round;stroke-miterlimit:4;stroke-dashoffset:59.92000295000000400;stroke-opacity:1;filter:url(#filter3351)"
       id="path3291"
       inkscape:href="#path2786"
       d="M 9.46875,10 C 5.6677552,10 19.906249,25.2675 19.90625,42 C 19.90625,50.36625 16.40625,53.578225 16.40625,60 C 16.40625,66 16.414866,64 21.625,68 C 25.301702,70.822731 35.383133,72.476856 34.5625,66.125 C 33.772025,60.006562 33.799214,60 32.0625,52 C 28.538514,35.767091 12.942173,10 9.46875,10 z"
       transform="matrix(0.7139584,0,0,0.8293137,5.9618945,6.1204162)" />
    <path
       sodipodi:nodetypes="csssssss"
       id="path2796"
       d="M 35.524099,56 C 30.313964,64 30.313964,60 29.523488,66.118438 C 28.702857,72.470295 46.293196,73.59829 49.417793,70 C 52.891217,66 52.891217,68 52.891217,62 C 52.891217,55.578225 51.154505,54.36625 51.154505,46 C 51.154505,29.2675 61.902346,24 58.101352,24 C 56.36464,24 49.027033,30.6 44.207658,38 C 39.388282,45.4 37.08714,53.6 35.524099,56 z "
       style="fill:#008000;fill-opacity:1;fill-rule:nonzero;stroke:#000000;stroke-width:1.2;stroke-linecap:round;stroke-linejoin:round;stroke-miterlimit:4;stroke-dashoffset:59.92000295000000400;stroke-opacity:1;opacity:1;color:#000000;marker:none;marker-start:none;marker-mid:none;marker-end:none;stroke-dasharray:none;visibility:visible;display:inline;overflow:visible;enable-background:accumulate" />
    <path
       style="opacity:1;fill:url(#linearGradient3367);fill-opacity:1;fill-rule:nonzero;stroke:#000000;stroke-width:1.2;stroke-linecap:round;stroke-linejoin:round;marker:none;marker-start:none;marker-mid:none;marker-end:none;stroke-miterlimit:4;stroke-dasharray:none;stroke-dashoffset:59.92000295000000400;stroke-opacity:1;visibility:visible;display:inline;overflow:visible;enable-background:accumulate"
       d="M 28,56 C 30,60 32,59.83071 32,66 C 32,72 17.808154,73.59829 14.683559,70 C 11.210135,66 11.907,67.25 11.657,64 C 11.164472,57.59714 12.946847,54.36625 12.946847,46 C 12.946847,29.2675 2.1990053,24 6,24 C 7.7367117,24 15.074319,30.6 19.893693,38 C 24.713068,45.4 26.719134,53.438267 28,56 z"
       id="path1896"
       sodipodi:nodetypes="csssssss" />
    <path
       sodipodi:type="inkscape:offset"
       inkscape:radius="0"
       inkscape:original="M 6 24 C 2.1990053 24 12.9375 29.2675 12.9375 46 C 12.9375 54.36625 11.163722 57.59714 11.65625 64 C 11.90625 67.25 11.214076 66 14.6875 70 C 17.812095 73.59829 32 72 32 66 C 32 59.83071 30 60 28 56 C 26.719134 53.438267 24.725625 45.4 19.90625 38 C 15.086876 30.6 7.7367117 24 6 24 z "
       xlink:href="#path1896"
       style="opacity:1;fill:#008000;fill-opacity:1;fill-rule:nonzero;stroke:none;stroke-width:0.76442902999999984;stroke-linecap:round;stroke-linejoin:round;marker:none;marker-start:none;marker-mid:none;marker-end:none;stroke-miterlimit:4;stroke-dasharray:none;stroke-dashoffset:59.92000295000000400;stroke-opacity:1;visibility:visible;display:inline;overflow:visible;enable-background:accumulate;filter:url(#filter3373)"
       id="path3355"
       inkscape:href="#path1896"
       d="M 6,24 C 2.1990053,24 12.9375,29.2675 12.9375,46 C 12.9375,54.36625 11.21875,55.578225 11.21875,62 C 11.21875,68 11.214076,66 14.6875,70 C 17.812095,73.59829 32,72 32,66 C 32,59.83071 30,60 28,56 C 26.719134,53.438267 24.725624,45.4 19.90625,38 C 15.086876,30.6 7.7367117,24 6,24 z"
       transform="matrix(0.7194435,0,0,0.8676591,5.2163371,7.0959486)" />
    <path
       style="fill:#40e040;fill-opacity:1;fill-rule:nonzero;stroke:none;stroke-width:0.76442902999999984;stroke-linecap:round;stroke-linejoin:round;stroke-miterlimit:4;stroke-dashoffset:59.92000295000000400;stroke-opacity:1;filter:url(#filter3404)"
       d="M 3.9292476,-46.655841 C 2.2433394,-35.186519 1.3885098,-23.359898 1.3885098,-23.359898 C 1.5154712,-14.032853 2.5045067,-15.420221 -2.7604076,-12.955198 L -8.1041576,-16.705198 C -8.1041576,-16.705198 -9.0058778,-24.886924 -5.7934974,-32.998093 C -2.6357919,-40.971209 5.6455191,-58.331726 3.9292476,-46.655841 z"
       id="path2440"
       sodipodi:nodetypes="ccccss"
       transform="matrix(-1,0,0,1,18.360857,84.88287)" />
    <path
       style="fill:#40e040;fill-opacity:1;fill-rule:nonzero;stroke:none;stroke-width:0.76442902999999984;stroke-linecap:round;stroke-linejoin:round;stroke-miterlimit:4;stroke-dashoffset:59.92000295000000400;stroke-opacity:1;filter:url(#filter3436)"
       d="M 50.869481,29.682734 L 47.770238,49.562308 L 47.063131,69.572717 L 34.65625,69.822717 L 39.459552,51.767259 L 50.869481,29.682734 z"
       id="path2442"
       sodipodi:nodetypes="cccccc" />
  </g>
</svg>
