<?xml version="1.0" encoding="UTF-8" standalone="no"?>
<!-- Created with Inkscape (http://www.inkscape.org/) -->

<svg
   xmlns:dc="http://purl.org/dc/elements/1.1/"
   xmlns:cc="http://creativecommons.org/ns#"
   xmlns:rdf="http://www.w3.org/1999/02/22-rdf-syntax-ns#"
   xmlns:svg="http://www.w3.org/2000/svg"
   xmlns="http://www.w3.org/2000/svg"
   xmlns:xlink="http://www.w3.org/1999/xlink"
   xmlns:sodipodi="http://sodipodi.sourceforge.net/DTD/sodipodi-0.dtd"
   xmlns:inkscape="http://www.inkscape.org/namespaces/inkscape"
   id="svg2"
   sodipodi:version="0.32"
   inkscape:version="0.46+devel 22040"
   width="768"
   height="256"
   sodipodi:docname="blue.svg"
   inkscape:output_extension="org.inkscape.output.svg.inkscape"
   version="1.0"
   inkscape:export-filename="E:\Kaustubh - Electrical\New Folder\Right.png"
   inkscape:export-xdpi="90"
   inkscape:export-ydpi="90">
  <metadata
     id="metadata7">
    <rdf:RDF>
      <cc:Work
         rdf:about="">
        <dc:format>image/svg+xml</dc:format>
        <dc:type
           rdf:resource="http://purl.org/dc/dcmitype/StillImage" />
        <dc:title />
      </cc:Work>
    </rdf:RDF>
  </metadata>
  <defs
     id="defs5">
    <linearGradient
       id="linearGradient2860">
      <stop
         id="stop2862"
         offset="0"
         style="stop-color:#003fea;stop-opacity:1" />
      <stop
         style="stop-color:#003fea;stop-opacity:1"
         offset="0.22731228"
         id="stop2866" />
      <stop
         id="stop2864"
         offset="1"
         style="stop-color:#dedefc;stop-opacity:1;" />
    </linearGradient>
    <filter
       inkscape:collect="always"
       id="filter5006"
       color-interpolation-filters="sRGB">
      <feGaussianBlur
         inkscape:collect="always"
         stdDeviation="0.54805542"
         id="feGaussianBlur5008" />
    </filter>
    <radialGradient
       inkscape:collect="always"
       xlink:href="#linearGradient2860"
       id="radialGradient3350"
       gradientUnits="userSpaceOnUse"
       gradientTransform="matrix(-1.5446394,-0.00385294,-0.00268656,1.0352536,970.16738,-258.2162)"
       cx="378.09436"
       cy="482.79758"
       fx="378.09436"
       fy="482.79758"
       r="378.53409" />
    <filter
       id="filter3629"
       inkscape:menu-tooltip="Draws a black outline around"
       inkscape:menu="ABCs"
       inkscape:label="Black outline">
      <feMorphology
         id="feMorphology3637"
         radius="4"
         operator="dilate"
         in="SourceAlpha"
         result="result5" />
      <feGaussianBlur
         id="feGaussianBlur3631"
         stdDeviation="2"
         in="result5"
         result="result0" />
      <feComposite
         id="feComposite3633"
         in2="result0"
         result="result3"
         operator="arithmetic"
         in="SourceGraphic"
         k2="1"
         k3="10" />
      <feComposite
         id="feComposite3635"
         in2="result3"
         k2="1"
         operator="in"
         in="result3"
         result="result4" />
    </filter>
  </defs>
  <sodipodi:namedview
     inkscape:window-height="760"
     inkscape:window-width="1268"
     inkscape:pageshadow="2"
     inkscape:pageopacity="0"
     guidetolerance="10.0"
     gridtolerance="10.0"
     objecttolerance="10.0"
     borderopacity="1.0"
     bordercolor="#666666"
     pagecolor="#000000"
     id="base"
     showgrid="false"
     inkscape:zoom="0.63943446"
     inkscape:cx="441.06869"
     inkscape:cy="263.9105"
     inkscape:window-x="-8"
     inkscape:window-y="-8"
     inkscape:current-layer="svg2"
     showguides="true"
     inkscape:guide-bbox="true"
     inkscape:window-maximized="0"
     inkscape:snap-grids="false"
     inkscape:snap-to-guides="false">
    <sodipodi:guide
       orientation="0,1"
       position="-309.64862,107.90785"
       id="guide2437" />
    <sodipodi:guide
       orientation="1,0"
       position="256,186.102"
       id="guide2441" />
    <sodipodi:guide
       orientation="1,0"
       position="512,204.86853"
       id="guide2443" />
    <sodipodi:guide
       orientation="1,0"
       position="768,140.74937"
       id="guide2445" />
    <sodipodi:guide
       orientation="1,0"
       position="384,173.59089"
       id="guide2447" />
    <sodipodi:guide
       orientation="1,0"
       position="640,123.54667"
       id="guide2449" />
    <sodipodi:guide
       orientation="0,1"
       position="-300.26533,148.56878"
       id="guide2451" />
  </sodipodi:namedview>
  <path
     style="fill:url(#radialGradient3350);fill-opacity:1;stroke:none;filter:url(#filter3629)"
     d="m 581.15621,7.2861159 c 37.13011,0.4005593 74.9051,-0.9847753 111.30725,7.0699111 19.36249,4.542418 36.20699,16.056745 50.11386,29.593065 10.7149,10.471295 15.29601,25.233281 16.23784,39.724004 5.56322,42.733924 4.56315,86.002014 5.94484,129.001714 -0.34727,7.86277 1.35741,16.68764 -0.25895,23.95448 -8.15478,6.55791 -19.68395,6.05043 -29.59233,7.71006 -60.62073,5.05796 -121.54479,3.38378 -182.31596,4.14247 -161.23241,0.22397 -322.4712,0.49406 -483.699201,-0.77624 -17.25534,-1.26563 -35.07189,-0.99214 -51.7163,-5.99409 -4.32397,-1.72308 -10.4194502,-3.07797 -12.3952802,-7.20091 1.58258,-42.61242 1.14678,-85.36822 5.12727,-127.8532 C 13.820449,72.09488 33.154899,39.486634 61.971529,19.414988 76.765939,11.478426 94.401659,11.286364 110.85438,9.3633222 170.50292,7.8667487 230.21127,8.4148154 289.88395,7.9346277 386.97423,7.6018529 484.06535,7.2917453 581.15621,7.2861159 z"
     id="path2407"
     transform="matrix(0.99030518,0,0,1,3.7324655,0)" />
  <path
     transform="matrix(-1.2778756,0,0,1.2774836,1393.2307,-753.31149)"
     id="use3191"
     d="m 590.52074,705.60879 c -41.50693,0 -75.47526,32.48965 -77.84375,73.40625 l 155.6875,0 c -2.36851,-40.91661 -36.33682,-73.40627 -77.84375,-73.40625 z"
     style="fill:#ffffff;fill-opacity:1;stroke:#90b4ff;stroke-width:3.8410759;stroke-linejoin:round;stroke-miterlimit:4;stroke-opacity:0.88888891;stroke-dasharray:none;filter:url(#filter5006)" />
  <use
     height="256"
     width="768"
     transform="translate(-507.1362,-3.880915e-6)"
     id="use3193"
     xlink:href="#use3191"
     y="0"
     x="0" />
  <use
     height="256"
     width="768"
     transform="matrix(1,0,0,-1,-127.99996,255.52337)"
     id="use3195"
     xlink:href="#use3191"
     y="0"
     x="0" />
  <use
     height="256"
     width="768"
     transform="translate(-256,3.8809141e-6)"
     id="use3197"
     xlink:href="#use3195"
     y="0"
     x="0" />
  <path
     transform="matrix(-0.5841691,0,0,0.53857837,1040.8768,-257.72657)"
     d="m 636.65635,583.69653 a 45.556805,50.681946 0 1 1 -91.11361,0 45.556805,50.681946 0 1 1 91.11361,0 z"
     sodipodi:ry="50.681946"
     sodipodi:rx="45.556805"
     sodipodi:cy="583.69653"
     sodipodi:cx="591.09955"
     id="use3199"
     style="fill:#ffffff;fill-opacity:1;stroke:#90b4ff;stroke-width:10.53985405;stroke-linejoin:round;stroke-miterlimit:4;stroke-opacity:0.88888891;stroke-dasharray:none;filter:url(#filter5006)"
     sodipodi:type="arc" />
  <path
     transform="matrix(-0.5841691,0,0,0.53857837,727.92082,-234.23131)"
     d="m 636.65635,583.69653 a 45.556805,50.681946 0 1 1 -91.11361,0 45.556805,50.681946 0 1 1 91.11361,0 z"
     sodipodi:ry="50.681946"
     sodipodi:rx="45.556805"
     sodipodi:cy="583.69653"
     sodipodi:cx="591.09955"
     id="use3201"
     style="fill:#ffffff;fill-opacity:1;stroke:#90b4ff;stroke-width:10.53985405;stroke-linejoin:round;stroke-miterlimit:4;stroke-opacity:0.88888891;stroke-dasharray:none;filter:url(#filter5006)"
     sodipodi:type="arc" />
  <path
     transform="matrix(-0.5841691,0,0,0.53857837,435.6545,-259.29046)"
     d="m 636.65635,583.69653 a 45.556805,50.681946 0 1 1 -91.11361,0 45.556805,50.681946 0 1 1 91.11361,0 z"
     sodipodi:ry="50.681946"
     sodipodi:rx="45.556805"
     sodipodi:cy="583.69653"
     sodipodi:cx="591.09955"
     id="use3207"
     style="fill:#ffffff;fill-opacity:1;stroke:#90b4ff;stroke-width:10.53985405;stroke-linejoin:round;stroke-miterlimit:4;stroke-opacity:0.88888891;stroke-dasharray:none;filter:url(#filter5006)"
     sodipodi:type="arc" />
  <path
     transform="matrix(-0.430979,0,0,0.36399125,984.26578,-64.368278)"
     d="m 636.65635,583.69653 a 45.556805,50.681946 0 1 1 -91.11361,0 45.556805,50.681946 0 1 1 91.11361,0 z"
     sodipodi:ry="50.681946"
     sodipodi:rx="45.556805"
     sodipodi:cy="583.69653"
     sodipodi:cx="591.09955"
     id="use3209"
     style="fill:#ffffff;fill-opacity:1;stroke:#90b4ff;stroke-width:12.39085674;stroke-linejoin:round;stroke-miterlimit:4;stroke-opacity:0.88888891;stroke-dasharray:none;filter:url(#filter5006)"
     sodipodi:type="arc" />
  <use
     height="256"
     width="768"
     transform="translate(-90.895561,-38.7748)"
     id="use3211"
     xlink:href="#use3209"
     y="0"
     x="0" />
  <use
     height="256"
     width="768"
     transform="translate(-315.16624,11.702645)"
     id="use3213"
     xlink:href="#use3211"
     y="0"
     x="0" />
  <path
     transform="matrix(-1.2778756,0,0,1.2774836,1137.2307,-753.31149)"
     id="use2419"
     d="m 590.52074,705.60879 c -41.50693,0 -75.47526,32.48965 -77.84375,73.40625 l 155.6875,0 c -2.36851,-40.91661 -36.33682,-73.40627 -77.84375,-73.40625 z"
     style="fill:#ffffff;fill-opacity:1;stroke:#90b4ff;stroke-width:3.8410759;stroke-linejoin:round;stroke-miterlimit:4;stroke-opacity:0.88888891;stroke-dasharray:none;filter:url(#filter5006)" />
  <use
     x="0"
     y="0"
     xlink:href="#use3213"
     id="use2427"
     transform="translate(113.3725,7.55109)"
     width="1024"
     height="256" />
  <use
     x="0"
     y="0"
     xlink:href="#use2427"
     id="use2429"
     transform="translate(-298.4581,-21.139872)"
     width="1024"
     height="256" />
  <use
     x="0"
     y="0"
     xlink:href="#use2429"
     id="use2431"
     transform="translate(-95.396801,40.660931)"
     width="1024"
     height="256" />
</svg>
