<?xml version="1.0" encoding="UTF-8" standalone="no"?>
<!-- Created with Inkscape (http://www.inkscape.org/) -->
<svg
   xmlns:dc="http://purl.org/dc/elements/1.1/"
   xmlns:cc="http://web.resource.org/cc/"
   xmlns:rdf="http://www.w3.org/1999/02/22-rdf-syntax-ns#"
   xmlns:svg="http://www.w3.org/2000/svg"
   xmlns="http://www.w3.org/2000/svg"
   xmlns:xlink="http://www.w3.org/1999/xlink"
   xmlns:sodipodi="http://sodipodi.sourceforge.net/DTD/sodipodi-0.dtd"
   xmlns:inkscape="http://www.inkscape.org/namespaces/inkscape"
   width="256"
   height="64"
   id="svg2"
   sodipodi:version="0.32"
   inkscape:version="0.45.1"
   version="1.0"
   sodipodi:docbase="D:\Dateien\Desktop\Secret Maryo Chronicles\Drafts\Game\Frostbringer\level\ground\mushroom\platform"
   sodipodi:docname="gold.svg"
   inkscape:export-filename="/home/frosty/_Bilder/Inkscape/smc/export/mushroom_plattform.png"
   inkscape:export-xdpi="45"
   inkscape:export-ydpi="45"
   inkscape:output_extension="org.inkscape.output.svg.inkscape">
  <defs
     id="defs4">
    <linearGradient
       id="linearGradient3763">
      <stop
         id="stop3765"
         offset="0"
         style="stop-color:#ffb300;stop-opacity:1;" />
      <stop
         id="stop3769"
         offset="1"
         style="stop-color:#ffe4af;stop-opacity:1;" />
    </linearGradient>
    <linearGradient
       id="linearGradient3726">
      <stop
         style="stop-color:#ffa800;stop-opacity:1;"
         offset="0"
         id="stop3728" />
      <stop
         id="stop3734"
         offset="0.5"
         style="stop-color:#ffdb30;stop-opacity:1;" />
      <stop
         style="stop-color:#ffcf72;stop-opacity:1;"
         offset="1"
         id="stop3730" />
    </linearGradient>
    <linearGradient
       id="linearGradient5481">
      <stop
         style="stop-color:#8e681a;stop-opacity:1;"
         offset="0"
         id="stop5483" />
      <stop
         style="stop-color:#ffb213;stop-opacity:1;"
         offset="1"
         id="stop5485" />
    </linearGradient>
    <linearGradient
       inkscape:collect="always"
       xlink:href="#linearGradient5481"
       id="linearGradient5487"
       x1="1.5"
       y1="38"
       x2="26.5"
       y2="38"
       gradientUnits="userSpaceOnUse" />
    <linearGradient
       inkscape:collect="always"
       xlink:href="#linearGradient5481"
       id="linearGradient5489"
       x1="1.6129525"
       y1="38"
       x2="26.387049"
       y2="38"
       gradientUnits="userSpaceOnUse"
       gradientTransform="matrix(1.25,0,0,1.335062,5.5,-24.23235)" />
    <linearGradient
       inkscape:collect="always"
       xlink:href="#linearGradient5481"
       id="linearGradient5491"
       x1="1.5735986"
       y1="38"
       x2="26.426401"
       y2="38"
       gradientUnits="userSpaceOnUse"
       gradientTransform="matrix(1.565299,0,0,1,21.36941,-22.89394)" />
    <linearGradient
       inkscape:collect="always"
       xlink:href="#linearGradient5481"
       id="linearGradient5493"
       x1="1.6197655"
       y1="38"
       x2="26.380236"
       y2="38"
       gradientUnits="userSpaceOnUse"
       gradientTransform="matrix(1.729167,0,0,1,16.54167,-0.606061)" />
    <linearGradient
       inkscape:collect="always"
       xlink:href="#linearGradient5481"
       id="linearGradient5495"
       x1="1.629232"
       y1="38"
       x2="26.370768"
       y2="38"
       gradientUnits="userSpaceOnUse" />
    <linearGradient
       inkscape:collect="always"
       xlink:href="#linearGradient3726"
       id="linearGradient3732"
       x1="140.01836"
       y1="-0.75"
       x2="140.23022"
       y2="64.75"
       gradientUnits="userSpaceOnUse"
       gradientTransform="matrix(1,0,0,0.9670891,0,1.106299)" />
    <radialGradient
       inkscape:collect="always"
       xlink:href="#linearGradient3726"
       id="radialGradient4629"
       cx="26.167669"
       cy="-0.77892518"
       fx="26.167669"
       fy="-0.77892518"
       r="11.015718"
       gradientTransform="matrix(3.0024157,-0.438865,0.800714,5.6596145,-56.230213,16.168459)"
       gradientUnits="userSpaceOnUse" />
    <radialGradient
       inkscape:collect="always"
       xlink:href="#linearGradient3726"
       id="radialGradient7345"
       cx="239.42816"
       cy="23.460396"
       fx="239.42816"
       fy="23.460396"
       r="8.3474722"
       gradientTransform="matrix(-2.7639564,-0.8713136,2.5280542,-8.8711619,842.45985,417.73797)"
       gradientUnits="userSpaceOnUse" />
    <radialGradient
       inkscape:collect="always"
       xlink:href="#linearGradient3763"
       id="radialGradient3773"
       cx="172.17075"
       cy="-3.5047748"
       fx="172.17075"
       fy="-3.5047748"
       r="20.25"
       gradientTransform="matrix(1.36099,-7.004896e-4,3.894032e-4,0.75661,-62.15055,6.554324)"
       gradientUnits="userSpaceOnUse" />
    <filter
       inkscape:collect="always"
       id="filter3161">
      <feGaussianBlur
         inkscape:collect="always"
         stdDeviation="0.40072205"
         id="feGaussianBlur3163" />
    </filter>
    <filter
       inkscape:collect="always"
       id="filter5123">
      <feGaussianBlur
         inkscape:collect="always"
         stdDeviation="0.30875"
         id="feGaussianBlur5125" />
    </filter>
  </defs>
  <sodipodi:namedview
     id="base"
     pagecolor="#000000"
     bordercolor="#666666"
     borderopacity="1.0"
     inkscape:pageopacity="0"
     inkscape:pageshadow="2"
     inkscape:zoom="5.8115338"
     inkscape:cx="85.239326"
     inkscape:cy="32"
     inkscape:document-units="px"
     inkscape:current-layer="layer1"
     width="256px"
     height="64px"
     inkscape:grid-points="false"
     gridtolerance="10000"
     showgrid="true"
     gridspacingx="2px"
     gridspacingy="2px"
     inkscape:window-width="1142"
     inkscape:window-height="784"
     inkscape:window-x="60"
     inkscape:window-y="112"
     inkscape:grid-bbox="true"
     inkscape:guide-bbox="true"
     showguides="true"
     inkscape:object-bbox="false"
     inkscape:object-points="false"
     guidetolerance="10000">
    <sodipodi:guide
       orientation="vertical"
       position="64"
       id="guide1910" />
    <sodipodi:guide
       orientation="vertical"
       position="128"
       id="guide1912" />
    <sodipodi:guide
       orientation="vertical"
       position="192"
       id="guide1914" />
  </sodipodi:namedview>
  <metadata
     id="metadata7">
    <rdf:RDF>
      <cc:Work
         rdf:about="">
        <dc:format>image/svg+xml</dc:format>
        <dc:type
           rdf:resource="http://purl.org/dc/dcmitype/StillImage" />
        <dc:creator>
          <cc:Agent>
            <dc:title>Frostbringer</dc:title>
          </cc:Agent>
        </dc:creator>
        <cc:license
           rdf:resource="http://creativecommons.org/licenses/by-sa/2.5/" />
      </cc:Work>
      <cc:License
         rdf:about="http://creativecommons.org/licenses/by-sa/2.5/">
        <cc:permits
           rdf:resource="http://web.resource.org/cc/Reproduction" />
        <cc:permits
           rdf:resource="http://web.resource.org/cc/Distribution" />
        <cc:requires
           rdf:resource="http://web.resource.org/cc/Notice" />
        <cc:requires
           rdf:resource="http://web.resource.org/cc/Attribution" />
        <cc:permits
           rdf:resource="http://web.resource.org/cc/DerivativeWorks" />
        <cc:requires
           rdf:resource="http://web.resource.org/cc/ShareAlike" />
      </cc:License>
    </rdf:RDF>
  </metadata>
  <g
     inkscape:label="Ebene 1"
     inkscape:groupmode="layer"
     id="layer1"
     style="display:inline">
    <path
       style="fill:url(#radialGradient7345);fill-opacity:1;fill-rule:nonzero;stroke:none;stroke-width:1.5;stroke-linecap:round;stroke-linejoin:miter;stroke-miterlimit:4;stroke-dashoffset:59.92000295;stroke-opacity:1"
       d="M 240,62 C 249.04157,60.952036 254.71497,58.682038 254.71497,53.233895 C 254.71497,45.144598 258.30539,5.1847849 240,1 C 240.18822,1.7189823 240,2.8462391 240,3.6298315 M 240,3.6298315 L 240,62"
       id="path2839"
       sodipodi:nodetypes="cscccc" />
    <path
       style="fill:url(#radialGradient4629);fill-opacity:1;fill-rule:nonzero;stroke:none;stroke-width:1.5;stroke-linecap:round;stroke-linejoin:miter;stroke-miterlimit:4;stroke-dashoffset:59.92000295;stroke-opacity:1"
       d="M 21,1 C -0.11433771,2.871345 1.5298567,44.614324 1.5298567,52.949555 C 1.5298567,58.851594 9.1122874,61.108327 20.525118,62"
       id="path2837"
       sodipodi:nodetypes="csc" />
    <path
       style="fill:url(#linearGradient3732);fill-opacity:1;fill-rule:nonzero;stroke:none;stroke-width:1.5;stroke-linecap:round;stroke-linejoin:miter;stroke-miterlimit:4;stroke-dashoffset:59.92000295;stroke-opacity:1"
       d="M 238.0625,1.0156344 C 237.36067,1.0449765 236.63433,1.106299 236,1.106299 C 223.21123,1.106299 196.73886,1.106299 173.21875,1.106299 C 173.24414,1.3575261 173.25,1.6041957 173.25,1.8618374 C 173.25,6.1487411 169.65154,9.6287716 165.21875,9.6287716 C 160.78597,9.6287712 157.1875,6.1487411 157.1875,1.8618374 C 157.1875,1.6041957 157.19336,1.3575261 157.21875,1.106299 C 146.28641,1.106299 137.55778,1.106299 128,1.106299 C 92.672,1.106299 46,1.106299 22,1.106299 C 21.464998,1.106299 21.009454,1.2446682 20.5,1.2876282 L 19.3125,62.395569 C 24.655358,62.792732 31.228848,63 38,63 C 61.881028,63 92.672,63 128,63 C 163.328,63 196.11897,63 220,63 C 227.97014,63 234.41509,62.688558 240,62.093354 L 240,3.7355725 C 240,2.9521464 240.20466,1.8251288 240,1.106299 C 239.44165,0.98893102 238.76433,0.98629243 238.0625,1.0156344 z "
       id="path1942" />
    <path
       style="fill:none;fill-opacity:1;fill-rule:nonzero;stroke:#000000;stroke-width:1.47650278;stroke-linecap:round;stroke-linejoin:miter;stroke-miterlimit:4;stroke-dashoffset:59.92000295;stroke-opacity:1;filter:url(#filter3161)"
       d="M 239.30067,62.845877 C 249.05118,61.787474 255.78326,59.859881 255.77778,54.357471 C 255.76996,46.378327 260.7577,5.6487815 241.01702,1.4223114 C 239.90947,1.185187 238.2863,1.2382506 237.02805,1.2382506 C 231.57317,1.2382506 224.23507,1.2382506 215.74883,1.2382506 C 207.26259,1.2382506 184.73535,0.99099428 174.68788,0.99099428 C 178.12654,5.2545851 172.48827,12.612896 165.96182,12.728832 C 159.43559,12.844763 156.70779,6.6679967 157.66866,1.1146224 C 147.53009,1.1146224 136.97897,1.2382506 128.21942,1.2382506 C 93.181225,1.2382506 46.892083,1.2382506 23.088959,1.2382506 C 22.558346,1.2382506 22.106539,1.3780277 21.601264,1.4214249 M 21.601264,1.4214249 C -0.44753243,3.3151572 1.2694295,45.557508 1.2694295,53.992452 C 1.2694295,59.965097 9.1874366,62.248828 21.105365,63.151167 M 20.429153,63.151167 C 25.728184,63.552372 32.242102,63.761749 38.957708,63.761749 C 62.642836,63.761749 93.181225,63.761749 128.21942,63.761749 C 163.25763,63.761749 195.77962,63.761749 219.46473,63.761749 C 227.3695,63.761749 233.76158,63.447139 239.30067,62.845877"
       id="path4670"
       sodipodi:nodetypes="cssssczcssccsccsssc"
       transform="matrix(0.9938642,0,0,0.9961781,3.9215289e-3,-0.2526316)" />
    <path
       style="fill:url(#radialGradient3773);fill-opacity:1;fill-rule:nonzero;stroke:#000000;stroke-width:1.5;stroke-linecap:round;stroke-linejoin:miter;stroke-miterlimit:4;stroke-dashoffset:59.92000295;stroke-opacity:1;filter:url(#filter5123)"
       d="M 145.84375,1.1 C 146.52886,11.697766 155.07384,19.350001 165.84375,19.35 C 176.61366,19.35 185.65863,11.697766 186.34375,1.1 C 181.60338,1.1 177.49468,1.1 173.25,1.1 C 173.25017,1.1212412 173.25,1.14122 173.25,1.1625 C 173.25,5.595291 169.65154,9.19375 165.21875,9.19375 C 160.78597,9.1937496 157.1875,5.595291 157.1875,1.1625 C 157.1875,1.14122 157.18733,1.1212412 157.1875,1.1 C 153.47385,1.1 149.95682,1.1 145.84375,1.1 z "
       id="path2873"
       sodipodi:nodetypes="csccssscc" />
  </g>
  <g
     inkscape:groupmode="layer"
     id="layer2"
     inkscape:label="Auswahl"
     style="display:inline" />
</svg>
