<?xml version="1.0" encoding="UTF-8" standalone="no"?>
<!-- Created with Inkscape (http://www.inkscape.org/) -->
<svg
   xmlns:dc="http://purl.org/dc/elements/1.1/"
   xmlns:cc="http://web.resource.org/cc/"
   xmlns:rdf="http://www.w3.org/1999/02/22-rdf-syntax-ns#"
   xmlns:svg="http://www.w3.org/2000/svg"
   xmlns="http://www.w3.org/2000/svg"
   xmlns:xlink="http://www.w3.org/1999/xlink"
   xmlns:sodipodi="http://sodipodi.sourceforge.net/DTD/sodipodi-0.dtd"
   xmlns:inkscape="http://www.inkscape.org/namespaces/inkscape"
   width="256"
   height="64"
   id="svg2"
   sodipodi:version="0.32"
   inkscape:version="0.45.1"
   version="1.0"
   sodipodi:docbase="D:\Dateien\Desktop\Secret Maryo Chronicles\Drafts\Game\Frostbringer\level\ground\mushroom\platform"
   sodipodi:docname="green.svg"
   inkscape:export-filename="/home/frosty/_Bilder/Inkscape/smc/export/mushroom_plattform.png"
   inkscape:export-xdpi="45"
   inkscape:export-ydpi="45"
   inkscape:output_extension="org.inkscape.output.svg.inkscape">
  <defs
     id="defs4">
    <linearGradient
       id="linearGradient4156">
      <stop
         style="stop-color:#308324;stop-opacity:1;"
         offset="0"
         id="stop4158" />
      <stop
         style="stop-color:#535a64;stop-opacity:0;"
         offset="1"
         id="stop4160" />
    </linearGradient>
    <linearGradient
       id="linearGradient3726">
      <stop
         style="stop-color:#108a00;stop-opacity:1;"
         offset="0"
         id="stop3728" />
      <stop
         id="stop3734"
         offset="0.5"
         style="stop-color:#91ff30;stop-opacity:1;" />
      <stop
         style="stop-color:#83ff72;stop-opacity:1;"
         offset="1"
         id="stop3730" />
    </linearGradient>
    <linearGradient
       id="linearGradient5481">
      <stop
         style="stop-color:#8e681a;stop-opacity:1;"
         offset="0"
         id="stop5483" />
      <stop
         style="stop-color:#ffb213;stop-opacity:1;"
         offset="1"
         id="stop5485" />
    </linearGradient>
    <linearGradient
       inkscape:collect="always"
       xlink:href="#linearGradient5481"
       id="linearGradient5487"
       x1="1.5"
       y1="38"
       x2="26.5"
       y2="38"
       gradientUnits="userSpaceOnUse" />
    <linearGradient
       inkscape:collect="always"
       xlink:href="#linearGradient5481"
       id="linearGradient5489"
       x1="1.6129525"
       y1="38"
       x2="26.387049"
       y2="38"
       gradientUnits="userSpaceOnUse"
       gradientTransform="matrix(1.25,0,0,1.335062,5.5,-24.23235)" />
    <linearGradient
       inkscape:collect="always"
       xlink:href="#linearGradient5481"
       id="linearGradient5491"
       x1="1.5735986"
       y1="38"
       x2="26.426401"
       y2="38"
       gradientUnits="userSpaceOnUse"
       gradientTransform="matrix(1.565299,0,0,1,21.36941,-22.89394)" />
    <linearGradient
       inkscape:collect="always"
       xlink:href="#linearGradient5481"
       id="linearGradient5493"
       x1="1.6197655"
       y1="38"
       x2="26.380236"
       y2="38"
       gradientUnits="userSpaceOnUse"
       gradientTransform="matrix(1.729167,0,0,1,16.54167,-0.606061)" />
    <linearGradient
       inkscape:collect="always"
       xlink:href="#linearGradient5481"
       id="linearGradient5495"
       x1="1.629232"
       y1="38"
       x2="26.370768"
       y2="38"
       gradientUnits="userSpaceOnUse" />
    <linearGradient
       inkscape:collect="always"
       xlink:href="#linearGradient3726"
       id="linearGradient3732"
       x1="140.01836"
       y1="-0.75"
       x2="140.23022"
       y2="64.75"
       gradientUnits="userSpaceOnUse"
       gradientTransform="matrix(0.9964997,0,0,0.9564931,-0.250576,1.0031839)" />
    <radialGradient
       inkscape:collect="always"
       xlink:href="#linearGradient3726"
       id="radialGradient4629"
       cx="26.167669"
       cy="-0.77892518"
       fx="26.167669"
       fy="-0.77892518"
       r="11.015718"
       gradientTransform="matrix(3.0794008,-0.438865,0.821245,5.6596144,-58.510475,16.16846)"
       gradientUnits="userSpaceOnUse" />
    <radialGradient
       inkscape:collect="always"
       xlink:href="#linearGradient3726"
       id="radialGradient7345"
       cx="239.42816"
       cy="23.460396"
       fx="239.42816"
       fy="23.460396"
       r="8.3474722"
       gradientTransform="matrix(-3.3167486,-0.8855974,3.0336658,-9.0165908,960.15202,423.56974)"
       gradientUnits="userSpaceOnUse" />
    <filter
       inkscape:collect="always"
       id="filter7105">
      <feGaussianBlur
         inkscape:collect="always"
         stdDeviation="0.40072205"
         id="feGaussianBlur7107" />
    </filter>
  </defs>
  <sodipodi:namedview
     id="base"
     pagecolor="#000000"
     bordercolor="#666666"
     borderopacity="1.0"
     inkscape:pageopacity="0"
     inkscape:pageshadow="2"
     inkscape:zoom="5.8115339"
     inkscape:cx="83.557426"
     inkscape:cy="37.561348"
     inkscape:document-units="px"
     inkscape:current-layer="layer1"
     width="256px"
     height="64px"
     inkscape:grid-points="false"
     gridtolerance="10000"
     showgrid="true"
     gridspacingx="2px"
     gridspacingy="2px"
     inkscape:window-width="1050"
     inkscape:window-height="784"
     inkscape:window-x="116"
     inkscape:window-y="67"
     inkscape:grid-bbox="true"
     inkscape:guide-bbox="true"
     showguides="true"
     inkscape:object-bbox="false"
     inkscape:object-points="false"
     guidetolerance="10000">
    <sodipodi:guide
       orientation="vertical"
       position="64"
       id="guide1910" />
    <sodipodi:guide
       orientation="vertical"
       position="128"
       id="guide1912" />
    <sodipodi:guide
       orientation="vertical"
       position="192"
       id="guide1914" />
  </sodipodi:namedview>
  <metadata
     id="metadata7">
    <rdf:RDF>
      <cc:Work
         rdf:about="">
        <dc:format>image/svg+xml</dc:format>
        <dc:type
           rdf:resource="http://purl.org/dc/dcmitype/StillImage" />
        <dc:creator>
          <cc:Agent>
            <dc:title>Frostbringer</dc:title>
          </cc:Agent>
        </dc:creator>
        <cc:license
           rdf:resource="http://creativecommons.org/licenses/by-sa/2.5/" />
      </cc:Work>
      <cc:License
         rdf:about="http://creativecommons.org/licenses/by-sa/2.5/">
        <cc:permits
           rdf:resource="http://web.resource.org/cc/Reproduction" />
        <cc:permits
           rdf:resource="http://web.resource.org/cc/Distribution" />
        <cc:requires
           rdf:resource="http://web.resource.org/cc/Notice" />
        <cc:requires
           rdf:resource="http://web.resource.org/cc/Attribution" />
        <cc:permits
           rdf:resource="http://web.resource.org/cc/DerivativeWorks" />
        <cc:requires
           rdf:resource="http://web.resource.org/cc/ShareAlike" />
      </cc:License>
    </rdf:RDF>
  </metadata>
  <g
     inkscape:label="Ebene 1"
     inkscape:groupmode="layer"
     id="layer1"
     style="display:inline">
    <path
       style="fill:url(#radialGradient7345);fill-opacity:1;fill-rule:nonzero;stroke:none;stroke-width:1.5;stroke-linecap:round;stroke-linejoin:miter;stroke-miterlimit:4;stroke-dashoffset:59.92000295;stroke-opacity:1"
       d="M 237.2,62 C 248.04988,60.934856 254.85797,58.627645 254.85797,53.090188 C 254.85797,44.86828 259.16648,4.2533879 237.2,-5.1070259e-015 C 237.42586,0.7307689 237.2,1.8765053 237.2,2.6729435 M 237.2,2.6729435 L 237.2,62"
       id="path2839"
       sodipodi:nodetypes="cscccc" />
    <path
       style="fill:url(#radialGradient4629);fill-opacity:1;fill-rule:nonzero;stroke:none;stroke-width:1.5;stroke-linecap:round;stroke-linejoin:miter;stroke-miterlimit:4;stroke-dashoffset:59.92000295;stroke-opacity:1"
       d="M 20.7,1 C -0.955731,2.871345 0.73062233,44.614324 0.73062233,52.949555 C 0.73062233,58.851593 8.5074744,61.108328 20.212942,62"
       id="path2837"
       sodipodi:nodetypes="csc" />
    <path
       style="fill:url(#linearGradient3732);fill-opacity:1;fill-rule:nonzero;stroke:none;stroke-width:1.5;stroke-linecap:round;stroke-linejoin:miter;stroke-miterlimit:4;stroke-dashoffset:59.92000295;stroke-opacity:1"
       d="M 19,61.620936 C 55.063567,62.900031 91.211903,62.218743 127.30139,62.218743 C 162.50573,62.218743 195.18193,62.218743 218.97937,62.218743 C 226.92161,62.218743 233.344,61.910715 238.90936,61.322032 L 238.90936,3.6036495 C 238.90936,2.828807 239.11331,1.7141378 238.90936,1.0031841 C 237.79656,0.77102002 236.18758,1.0031841 234.92335,1.0031841 C 213.00036,1.0031841 162.50573,1.0031841 127.30139,1.0031841 L 19.325957,1.2991021"
       id="path1942"
       sodipodi:nodetypes="ccscccscs" />
    <path
       style="fill:#ffffff;fill-opacity:1;fill-rule:nonzero;stroke:#c9ffbd;stroke-width:1.5;stroke-linecap:round;stroke-linejoin:miter;stroke-miterlimit:4;stroke-dashoffset:59.92000295;stroke-opacity:1"
       d="M 40.40625,2 C 40.359305,2.610743 40.3125,3.221039 40.3125,3.84375 C 40.3125,17.007795 50.992205,27.6875 64.15625,27.6875 C 77.320295,27.6875 88,17.007795 88,3.84375 C 88,3.221039 87.953195,2.610743 87.90625,2 C 70.410573,2 54.229669,2 40.40625,2 z "
       id="path4644" />
    <path
       style="fill:#ffffff;fill-opacity:1;fill-rule:nonzero;stroke:#c9ffbd;stroke-width:1.5;stroke-linecap:round;stroke-linejoin:miter;stroke-miterlimit:4;stroke-dashoffset:59.92000295;stroke-opacity:1;display:inline"
       d="M 96.15625,38 C 82.992205,38 72.312498,48.679705 72.3125,61.84375 C 72.3125,61.896456 72.312158,61.947374 72.3125,62 C 87.575125,62 101.71838,62 120,62 C 120.00034,61.947374 120,61.896456 120,61.84375 C 120,48.679705 109.32029,38 96.15625,38 z "
       id="path4646" />
    <path
       style="fill:#ffffff;fill-opacity:1;fill-rule:nonzero;stroke:#c9ffbd;stroke-width:1.5;stroke-linecap:round;stroke-linejoin:miter;stroke-miterlimit:4;stroke-dashoffset:59.92000295;stroke-opacity:1;display:inline"
       d="M 104.09375,2 C 104.02986,2.711034 104,3.4286784 104,4.15625 C 104,17.320295 114.67971,28 127.84375,28 C 141.00779,28 151.6875,17.320295 151.6875,4.15625 C 151.6875,3.4286784 151.65764,2.711034 151.59375,2 C 142.8703,2 135.71778,2 128,2 C 120.03245,2 112.82509,2 104.09375,2 z "
       id="path4648" />
    <path
       style="fill:#ffffff;fill-opacity:1;fill-rule:nonzero;stroke:#c9ffbd;stroke-width:1.5;stroke-linecap:round;stroke-linejoin:miter;stroke-miterlimit:4;stroke-dashoffset:59.92000295;stroke-opacity:1;display:inline"
       d="M 168.09375,2 C 168.02986,2.711034 168,3.4286784 168,4.15625 C 168,17.320295 178.6797,28 191.84375,28 C 205.0078,28 215.68751,17.320295 215.6875,4.15625 C 215.6875,3.4286784 215.65764,2.711034 215.59375,2 C 201.84358,2 185.97414,2 168.09375,2 z "
       id="path4650" />
    <path
       style="fill:#ffffff;fill-opacity:1;fill-rule:nonzero;stroke:#c9ffbd;stroke-width:1.5;stroke-linecap:round;stroke-linejoin:miter;stroke-miterlimit:4;stroke-dashoffset:59.92000295;stroke-opacity:1;display:inline"
       d="M 159.84375,38.3125 C 146.73241,38.3125 136.08508,48.908576 136,62 C 154.05832,62 168.1778,62 183.6875,62 C 183.60242,48.908573 172.95508,38.3125 159.84375,38.3125 z "
       id="path4652" />
    <path
       style="fill:#ffffff;fill-opacity:1;fill-rule:nonzero;stroke:#c9ffbd;stroke-width:1.5;stroke-linecap:round;stroke-linejoin:miter;stroke-miterlimit:4;stroke-dashoffset:59.92000295;stroke-opacity:1;display:inline"
       d="M 221.84375,38.3125 C 208.73241,38.3125 198.08509,48.908576 198,62 C 204.64254,62 214.28932,62 220,62 C 227.97014,62 234.41509,61.67796 240,61.0625 C 242.03045,60.838743 243.89782,60.568101 245.59375,60.21875 C 244.60393,47.962375 234.35363,38.3125 221.84375,38.3125 z "
       id="path4654" />
    <path
       style="fill:#ffffff;fill-opacity:1;fill-rule:nonzero;stroke:#c9ffbd;stroke-width:1.5;stroke-linecap:round;stroke-linejoin:miter;stroke-miterlimit:4;stroke-dashoffset:59.92000295;stroke-opacity:1;display:inline"
       d="M 35.84375,36.3125 C 22.679705,36.3125 12,46.992205 12,60.15625 C 12,60.240579 11.999125,60.322126 12,60.40625 C 14.207061,60.801015 16.646755,61.091913 19.3125,61.3125 L 19.3125,61.375 C 24.655358,61.785679 31.228848,62 38,62 C 43.729788,62 53.101171,62 59.59375,62 C 59.640695,61.389257 59.6875,60.778961 59.6875,60.15625 C 59.6875,46.992205 49.007793,36.3125 35.84375,36.3125 z "
       id="path4656" />
    <path
       id="path4670"
       style="fill:none;fill-opacity:1;fill-rule:nonzero;stroke:#000000;stroke-width:1.47650278;stroke-linecap:round;stroke-linejoin:miter;stroke-miterlimit:4;stroke-dashoffset:59.92000295;stroke-opacity:1;filter:url(#filter7105)"
       d="M 239.30067,62.345877 C 249.05118,61.287474 255.78326,59.359881 255.77778,53.857471 C 255.76996,45.878327 260.7577,5.1487823 241.01702,0.92231219 C 239.90947,0.68518781 238.2863,0.73825138 237.02805,0.73825138 C 215.20851,0.73825138 163.25763,0.73825138 128.21942,0.73825138 C 93.181225,0.73825138 46.892083,0.73825138 23.088959,0.73825138 C 22.558346,0.73825138 22.106539,0.87802852 21.601264,0.92142569 M 21.601264,0.92142569 C -0.44753243,2.815158 1.2694295,45.057508 1.2694295,53.492452 C 1.2694295,59.465097 9.1874366,61.748828 21.105365,62.651167 M 20.429153,62.651167 C 25.728184,63.052372 32.242102,63.261749 38.957708,63.261749 C 62.642836,63.261749 93.181225,63.261749 128.21942,63.261749 C 163.25763,63.261749 195.77962,63.261749 219.46473,63.261749 C 227.3695,63.261749 233.76158,62.947139 239.30067,62.345877"
       sodipodi:nodetypes="cscsssccsccsssc"
       transform="matrix(0.9938532,0,0,0.9999917,5.3357752e-3,2.800178e-3)" />
    <path
       sodipodi:type="arc"
       style="opacity:1;fill:white;fill-opacity:1;fill-rule:nonzero;stroke:#c9ffbd;stroke-width:1.0539824;stroke-linecap:round;stroke-linejoin:miter;stroke-miterlimit:4;stroke-dasharray:none;stroke-dashoffset:59.92000295;stroke-opacity:1"
       id="path5583"
       sodipodi:cx="79.209122"
       sodipodi:cy="34.311787"
       sodipodi:rx="6.4486694"
       sodipodi:ry="6.0836501"
       d="M 85.657791 34.311787 A 6.4486694 6.0836501 0 1 1  72.760452,34.311787 A 6.4486694 6.0836501 0 1 1  85.657791 34.311787 z"
       transform="matrix(0.930427,0,0,0.9675,0.301678,2.689278)" />
    <path
       sodipodi:type="arc"
       style="opacity:1;fill:white;fill-opacity:1;fill-rule:nonzero;stroke:#c9ffbd;stroke-width:1.0539824;stroke-linecap:round;stroke-linejoin:miter;stroke-miterlimit:4;stroke-dasharray:none;stroke-dashoffset:59.92000295;stroke-opacity:1;display:inline"
       id="path5585"
       sodipodi:cx="79.209122"
       sodipodi:cy="34.311787"
       sodipodi:rx="6.4486694"
       sodipodi:ry="6.0836501"
       d="M 85.657791 34.311787 A 6.4486694 6.0836501 0 1 1  72.760452,34.311787 A 6.4486694 6.0836501 0 1 1  85.657791 34.311787 z"
       transform="matrix(0.930427,0,0,0.9675,22.30171,-19.08259)" />
    <path
       sodipodi:type="arc"
       style="opacity:1;fill:white;fill-opacity:1;fill-rule:nonzero;stroke:#c9ffbd;stroke-width:1.0539824;stroke-linecap:round;stroke-linejoin:miter;stroke-miterlimit:4;stroke-dasharray:none;stroke-dashoffset:59.92000295;stroke-opacity:1;display:inline"
       id="path5587"
       sodipodi:cx="79.209122"
       sodipodi:cy="34.311787"
       sodipodi:rx="6.4486694"
       sodipodi:ry="6.0836501"
       d="M 85.657791 34.311787 A 6.4486694 6.0836501 0 1 1  72.760452,34.311787 A 6.4486694 6.0836501 0 1 1  85.657791 34.311787 z"
       transform="matrix(0.930427,0,0,0.9675,44.30171,2.917415)" />
    <path
       sodipodi:type="arc"
       style="opacity:1;fill:white;fill-opacity:1;fill-rule:nonzero;stroke:#c9ffbd;stroke-width:1.0539824;stroke-linecap:round;stroke-linejoin:miter;stroke-miterlimit:4;stroke-dasharray:none;stroke-dashoffset:59.92000295;stroke-opacity:1;display:inline"
       id="path5589"
       sodipodi:cx="79.209122"
       sodipodi:cy="34.311787"
       sodipodi:rx="6.4486694"
       sodipodi:ry="6.0836501"
       d="M 85.657791 34.311787 A 6.4486694 6.0836501 0 1 1  72.760452,34.311787 A 6.4486694 6.0836501 0 1 1  85.657791 34.311787 z"
       transform="matrix(0.930427,0,0,0.9675,98.30168,-1.310722)" />
    <path
       sodipodi:type="arc"
       style="opacity:1;fill:white;fill-opacity:1;fill-rule:nonzero;stroke:#c9ffbd;stroke-width:1.0539824;stroke-linecap:round;stroke-linejoin:miter;stroke-miterlimit:4;stroke-dasharray:none;stroke-dashoffset:59.92000295;stroke-opacity:1;display:inline"
       id="path5591"
       sodipodi:cx="79.209122"
       sodipodi:cy="34.311787"
       sodipodi:rx="6.4486694"
       sodipodi:ry="6.0836501"
       d="M 85.657791 34.311787 A 6.4486694 6.0836501 0 1 1  72.760452,34.311787 A 6.4486694 6.0836501 0 1 1  85.657791 34.311787 z"
       transform="matrix(0.930427,0,0,0.9675,72.30168,-1.310722)" />
    <path
       sodipodi:type="arc"
       style="opacity:1;fill:white;fill-opacity:1;fill-rule:nonzero;stroke:#c9ffbd;stroke-width:1.0539824;stroke-linecap:round;stroke-linejoin:miter;stroke-miterlimit:4;stroke-dasharray:none;stroke-dashoffset:59.92000295;stroke-opacity:1;display:inline"
       id="path5593"
       sodipodi:cx="79.209122"
       sodipodi:cy="34.311787"
       sodipodi:rx="6.4486694"
       sodipodi:ry="6.0836501"
       d="M 85.657791 34.311787 A 6.4486694 6.0836501 0 1 1  72.760452,34.311787 A 6.4486694 6.0836501 0 1 1  85.657791 34.311787 z"
       transform="matrix(0.930427,0,0,0.9675,86.30168,-15.31072)" />
    <path
       sodipodi:type="arc"
       style="opacity:1;fill:white;fill-opacity:1;fill-rule:nonzero;stroke:#c9ffbd;stroke-width:1.0539824;stroke-linecap:round;stroke-linejoin:miter;stroke-miterlimit:4;stroke-dasharray:none;stroke-dashoffset:59.92000295;stroke-opacity:1;display:inline"
       id="path5595"
       sodipodi:cx="79.209122"
       sodipodi:cy="34.311787"
       sodipodi:rx="6.4486694"
       sodipodi:ry="6.0836501"
       d="M 85.657791 34.311787 A 6.4486694 6.0836501 0 1 1  72.760452,34.311787 A 6.4486694 6.0836501 0 1 1  85.657791 34.311787 z"
       transform="matrix(0.930427,0,0,0.9675,162.3017,-19.08259)" />
    <path
       sodipodi:type="arc"
       style="opacity:1;fill:white;fill-opacity:1;fill-rule:nonzero;stroke:#c9ffbd;stroke-width:1.0539824;stroke-linecap:round;stroke-linejoin:miter;stroke-miterlimit:4;stroke-dasharray:none;stroke-dashoffset:59.92000295;stroke-opacity:1;display:inline"
       id="path5597"
       sodipodi:cx="79.209122"
       sodipodi:cy="34.311787"
       sodipodi:rx="6.4486694"
       sodipodi:ry="6.0836501"
       d="M 85.657791 34.311787 A 6.4486694 6.0836501 0 1 1  72.760452,34.311787 A 6.4486694 6.0836501 0 1 1  85.657791 34.311787 z"
       transform="matrix(0.930427,0,0,0.9675,168.3017,2.917415)" />
    <path
       sodipodi:type="arc"
       style="opacity:1;fill:white;fill-opacity:1;fill-rule:nonzero;stroke:#c9ffbd;stroke-width:1.0539824;stroke-linecap:round;stroke-linejoin:miter;stroke-miterlimit:4;stroke-dasharray:none;stroke-dashoffset:59.92000295;stroke-opacity:1;display:inline"
       id="path5599"
       sodipodi:cx="79.209122"
       sodipodi:cy="34.311787"
       sodipodi:rx="6.4486694"
       sodipodi:ry="6.0836501"
       d="M 85.657791 34.311787 A 6.4486694 6.0836501 0 1 1  72.760452,34.311787 A 6.4486694 6.0836501 0 1 1  85.657791 34.311787 z"
       transform="matrix(0.930427,0,0,0.9675,142.3017,-3.310722)" />
    <path
       sodipodi:type="arc"
       style="opacity:1;fill:white;fill-opacity:1;fill-rule:nonzero;stroke:#c9ffbd;stroke-width:1.0539824;stroke-linecap:round;stroke-linejoin:miter;stroke-miterlimit:4;stroke-dasharray:none;stroke-dashoffset:59.92000295;stroke-opacity:1;display:inline"
       id="path5601"
       sodipodi:cx="79.209122"
       sodipodi:cy="34.311787"
       sodipodi:rx="6.4486694"
       sodipodi:ry="6.0836501"
       d="M 85.657791 34.311787 A 6.4486694 6.0836501 0 1 1  72.760452,34.311787 A 6.4486694 6.0836501 0 1 1  85.657791 34.311787 z"
       transform="matrix(0.930427,0,0,0.9675,-27.69829,-3.082585)" />
    <path
       sodipodi:type="arc"
       style="opacity:1;fill:white;fill-opacity:1;fill-rule:nonzero;stroke:#c9ffbd;stroke-width:1.0539824;stroke-linecap:round;stroke-linejoin:miter;stroke-miterlimit:4;stroke-dasharray:none;stroke-dashoffset:59.92000295;stroke-opacity:1;display:inline"
       id="path5603"
       sodipodi:cx="79.209122"
       sodipodi:cy="34.311787"
       sodipodi:rx="6.4486694"
       sodipodi:ry="6.0836501"
       d="M 85.657791 34.311787 A 6.4486694 6.0836501 0 1 1  72.760452,34.311787 A 6.4486694 6.0836501 0 1 1  85.657791 34.311787 z"
       transform="matrix(0.930427,0,0,0.9675,-63.69832,8.689278)" />
    <path
       sodipodi:type="arc"
       style="opacity:1;fill:white;fill-opacity:1;fill-rule:nonzero;stroke:#c9ffbd;stroke-width:1.0539824;stroke-linecap:round;stroke-linejoin:miter;stroke-miterlimit:4;stroke-dasharray:none;stroke-dashoffset:59.92000295;stroke-opacity:1;display:inline"
       id="path5605"
       sodipodi:cx="79.209122"
       sodipodi:cy="34.311787"
       sodipodi:rx="6.4486694"
       sodipodi:ry="6.0836501"
       d="M 85.657791 34.311787 A 6.4486694 6.0836501 0 1 1  72.760452,34.311787 A 6.4486694 6.0836501 0 1 1  85.657791 34.311787 z"
       transform="matrix(0.930427,0,0,0.9675,-57.69832,-9.310722)" />
    <path
       sodipodi:type="arc"
       style="opacity:1;fill:white;fill-opacity:1;fill-rule:nonzero;stroke:#c9ffbd;stroke-width:1.0539824;stroke-linecap:round;stroke-linejoin:miter;stroke-miterlimit:4;stroke-dasharray:none;stroke-dashoffset:59.92000295;stroke-opacity:1;display:inline"
       id="path5607"
       sodipodi:cx="79.209122"
       sodipodi:cy="34.311787"
       sodipodi:rx="6.4486694"
       sodipodi:ry="6.0836501"
       d="M 85.657791 34.311787 A 6.4486694 6.0836501 0 1 1  72.760452,34.311787 A 6.4486694 6.0836501 0 1 1  85.657791 34.311787 z"
       transform="matrix(0.930427,0,0,0.9675,-41.69829,-17.08259)" />
  </g>
  <g
     inkscape:groupmode="layer"
     id="layer2"
     inkscape:label="Auswahl"
     style="display:inline" />
</svg>
