<?xml version="1.0" encoding="UTF-8" standalone="no"?>
<!-- Created with Inkscape (http://www.inkscape.org/) -->
<svg
   xmlns:dc="http://purl.org/dc/elements/1.1/"
   xmlns:cc="http://web.resource.org/cc/"
   xmlns:rdf="http://www.w3.org/1999/02/22-rdf-syntax-ns#"
   xmlns:svg="http://www.w3.org/2000/svg"
   xmlns="http://www.w3.org/2000/svg"
   xmlns:xlink="http://www.w3.org/1999/xlink"
   xmlns:sodipodi="http://sodipodi.sourceforge.net/DTD/sodipodi-0.dtd"
   xmlns:inkscape="http://www.inkscape.org/namespaces/inkscape"
   width="256"
   height="64"
   id="svg2"
   sodipodi:version="0.32"
   inkscape:version="0.45.1"
   version="1.0"
   sodipodi:docbase="D:\Dateien\Desktop\Secret Maryo Chronicles\Drafts\Game\Frostbringer\level\ground\mushroom\platform"
   sodipodi:docname="red.svg"
   inkscape:export-filename="/home/frosty/_Bilder/Inkscape/smc/export/mushroom_plattform.png"
   inkscape:export-xdpi="45"
   inkscape:export-ydpi="45"
   inkscape:output_extension="org.inkscape.output.svg.inkscape">
  <defs
     id="defs4">
    <marker
       inkscape:stockid="StopS"
       orient="auto"
       refY="0.0"
       refX="0.0"
       id="StopS"
       style="overflow:visible">
      <path
         id="path4436"
         d="M 0.0,5.65 L 0.0,-5.65"
         style="fill:none;fill-opacity:0.75000000;fill-rule:evenodd;stroke:#000000;stroke-width:1.0pt"
         transform="scale(0.2)" />
    </marker>
    <marker
       inkscape:stockid="Dot_s"
       orient="auto"
       refY="0.0"
       refX="0.0"
       id="Dot_s"
       style="overflow:visible">
      <path
         id="path4391"
         d="M -2.5,-1.0 C -2.5,1.7600000 -4.7400000,4.0 -7.5,4.0 C -10.260000,4.0 -12.5,1.7600000 -12.5,-1.0 C -12.5,-3.7600000 -10.260000,-6.0 -7.5,-6.0 C -4.7400000,-6.0 -2.5,-3.7600000 -2.5,-1.0 z "
         style="fill-rule:evenodd;stroke:#000000;stroke-width:1.0pt;marker-start:none;marker-end:none"
         transform="scale(0.2) translate(7.4, 1)" />
    </marker>
    <marker
       inkscape:stockid="Dot_m"
       orient="auto"
       refY="0.0"
       refX="0.0"
       id="Dot_m"
       style="overflow:visible">
      <path
         id="path4388"
         d="M -2.5,-1.0 C -2.5,1.7600000 -4.7400000,4.0 -7.5,4.0 C -10.260000,4.0 -12.5,1.7600000 -12.5,-1.0 C -12.5,-3.7600000 -10.260000,-6.0 -7.5,-6.0 C -4.7400000,-6.0 -2.5,-3.7600000 -2.5,-1.0 z "
         style="fill-rule:evenodd;stroke:#000000;stroke-width:1.0pt;marker-start:none;marker-end:none"
         transform="scale(0.4) translate(7.4, 1)" />
    </marker>
    <marker
       inkscape:stockid="Arrow1Mstart"
       orient="auto"
       refY="0.0"
       refX="0.0"
       id="Arrow1Mstart"
       style="overflow:visible">
      <path
         id="path4329"
         d="M 0.0,0.0 L 5.0,-5.0 L -12.5,0.0 L 5.0,5.0 L 0.0,0.0 z "
         style="fill-rule:evenodd;stroke:#000000;stroke-width:1.0pt;marker-start:none"
         transform="scale(0.4) translate(10,0)" />
    </marker>
    <linearGradient
       id="linearGradient3726">
      <stop
         style="stop-color:#ff0101;stop-opacity:1;"
         offset="0"
         id="stop3728" />
      <stop
         id="stop3734"
         offset="0.5"
         style="stop-color:#ffa645;stop-opacity:1;" />
      <stop
         style="stop-color:#ff7272;stop-opacity:1;"
         offset="1"
         id="stop3730" />
    </linearGradient>
    <linearGradient
       id="linearGradient5481">
      <stop
         style="stop-color:#8e681a;stop-opacity:1;"
         offset="0"
         id="stop5483" />
      <stop
         style="stop-color:#ffb213;stop-opacity:1;"
         offset="1"
         id="stop5485" />
    </linearGradient>
    <linearGradient
       inkscape:collect="always"
       xlink:href="#linearGradient5481"
       id="linearGradient5487"
       x1="1.5"
       y1="38"
       x2="26.5"
       y2="38"
       gradientUnits="userSpaceOnUse" />
    <linearGradient
       inkscape:collect="always"
       xlink:href="#linearGradient5481"
       id="linearGradient5489"
       x1="1.6129525"
       y1="38"
       x2="26.387049"
       y2="38"
       gradientUnits="userSpaceOnUse"
       gradientTransform="matrix(1.25,0,0,1.335062,5.5,-24.23235)" />
    <linearGradient
       inkscape:collect="always"
       xlink:href="#linearGradient5481"
       id="linearGradient5491"
       x1="1.5735986"
       y1="38"
       x2="26.426401"
       y2="38"
       gradientUnits="userSpaceOnUse"
       gradientTransform="matrix(1.565299,0,0,1,21.36941,-22.89394)" />
    <linearGradient
       inkscape:collect="always"
       xlink:href="#linearGradient5481"
       id="linearGradient5493"
       x1="1.6197655"
       y1="38"
       x2="26.380236"
       y2="38"
       gradientUnits="userSpaceOnUse"
       gradientTransform="matrix(1.729167,0,0,1,16.54167,-0.606061)" />
    <linearGradient
       inkscape:collect="always"
       xlink:href="#linearGradient5481"
       id="linearGradient5495"
       x1="1.629232"
       y1="38"
       x2="26.370768"
       y2="38"
       gradientUnits="userSpaceOnUse" />
    <linearGradient
       inkscape:collect="always"
       xlink:href="#linearGradient3726"
       id="linearGradient3732"
       x1="140.01836"
       y1="-0.75"
       x2="140.23022"
       y2="64.75"
       gradientUnits="userSpaceOnUse"
       gradientTransform="matrix(1,0,0,0.9671198,0,1.1043304)" />
    <radialGradient
       inkscape:collect="always"
       xlink:href="#linearGradient3726"
       id="radialGradient4629"
       cx="26.167669"
       cy="-0.77892518"
       fx="26.167669"
       fy="-0.77892518"
       r="11.015718"
       gradientTransform="matrix(3.0024158,-0.438865,0.8007139,5.6596145,-56.730213,16.168459)"
       gradientUnits="userSpaceOnUse" />
    <radialGradient
       inkscape:collect="always"
       xlink:href="#linearGradient3726"
       id="radialGradient7345"
       cx="239.42816"
       cy="23.460396"
       fx="239.42816"
       fy="23.460396"
       r="8.3474722"
       gradientTransform="matrix(-2.763956,-0.8713136,2.5280538,-8.8711619,842.45975,417.73797)"
       gradientUnits="userSpaceOnUse" />
    <filter
       inkscape:collect="always"
       id="filter3179">
      <feGaussianBlur
         inkscape:collect="always"
         stdDeviation="0.40072205"
         id="feGaussianBlur3181" />
    </filter>
  </defs>
  <sodipodi:namedview
     id="base"
     pagecolor="#000000"
     bordercolor="#666666"
     borderopacity="1.0"
     inkscape:pageopacity="0"
     inkscape:pageshadow="2"
     inkscape:zoom="4.109375"
     inkscape:cx="128"
     inkscape:cy="32"
     inkscape:document-units="px"
     inkscape:current-layer="layer1"
     width="256px"
     height="64px"
     inkscape:grid-points="false"
     gridtolerance="10000"
     showgrid="true"
     gridspacingx="2px"
     gridspacingy="2px"
     inkscape:window-width="1142"
     inkscape:window-height="784"
     inkscape:window-x="79"
     inkscape:window-y="86"
     inkscape:grid-bbox="true"
     inkscape:guide-bbox="true"
     showguides="true">
    <sodipodi:guide
       orientation="vertical"
       position="64"
       id="guide1910" />
    <sodipodi:guide
       orientation="vertical"
       position="128"
       id="guide1912" />
    <sodipodi:guide
       orientation="vertical"
       position="192"
       id="guide1914" />
  </sodipodi:namedview>
  <metadata
     id="metadata7">
    <rdf:RDF>
      <cc:Work
         rdf:about="">
        <dc:format>image/svg+xml</dc:format>
        <dc:type
           rdf:resource="http://purl.org/dc/dcmitype/StillImage" />
        <dc:creator>
          <cc:Agent>
            <dc:title>Frostbringer</dc:title>
          </cc:Agent>
        </dc:creator>
        <cc:license
           rdf:resource="http://creativecommons.org/licenses/by-sa/2.5/" />
      </cc:Work>
      <cc:License
         rdf:about="http://creativecommons.org/licenses/by-sa/2.5/">
        <cc:permits
           rdf:resource="http://web.resource.org/cc/Reproduction" />
        <cc:permits
           rdf:resource="http://web.resource.org/cc/Distribution" />
        <cc:requires
           rdf:resource="http://web.resource.org/cc/Notice" />
        <cc:requires
           rdf:resource="http://web.resource.org/cc/Attribution" />
        <cc:permits
           rdf:resource="http://web.resource.org/cc/DerivativeWorks" />
        <cc:requires
           rdf:resource="http://web.resource.org/cc/ShareAlike" />
      </cc:License>
    </rdf:RDF>
  </metadata>
  <g
     inkscape:label="Ebene 1"
     inkscape:groupmode="layer"
     id="layer1">
    <path
       style="fill:url(#radialGradient7345);fill-opacity:1;fill-rule:nonzero;stroke:none;stroke-width:1.5;stroke-linecap:round;stroke-linejoin:miter;stroke-miterlimit:4;stroke-dashoffset:59.92000295;stroke-opacity:1"
       d="M 240,62 C 249.04157,60.952036 254.71497,58.682038 254.71497,53.233895 C 254.71497,45.144598 258.30539,5.1847848 240,1 C 240.18822,1.7189823 240,2.8462391 240,3.6298315 M 240,3.6298315 L 240,62"
       id="path2839"
       sodipodi:nodetypes="cscccc" />
    <path
       style="fill:url(#radialGradient4629);fill-opacity:1;fill-rule:nonzero;stroke:none;stroke-width:1.5;stroke-linecap:round;stroke-linejoin:miter;stroke-miterlimit:4;stroke-dashoffset:59.92000295;stroke-opacity:1"
       d="M 20.5,1 C -0.61433775,2.871345 1.0298568,44.614324 1.0298568,52.949555 C 1.0298568,58.851594 8.6122875,61.108327 20.025118,62"
       id="path2837"
       sodipodi:nodetypes="csc" />
    <path
       style="fill:url(#linearGradient3732);fill-opacity:1;fill-rule:nonzero;stroke:none;stroke-width:1.5;stroke-linecap:round;stroke-linejoin:miter;stroke-miterlimit:4;stroke-dashoffset:59.92000295;stroke-opacity:1"
       d="M 19.318195,62.39555 C 24.661053,62.792726 31.228848,63 38,63 C 61.881028,63 92.672,63 128,63 C 163.328,63 196.11897,63 220,63 C 227.97014,63 234.41509,62.688548 240,62.093325 L 240,3.7336875 C 240,2.9502365 240.20466,1.823183 240,1.1043304 C 238.8833,0.8695869 237.26866,1.1043304 236,1.1043304 C 214,1.1043304 163.328,1.1043304 128,1.1043304 C 92.672,1.1043304 46,1.1043304 22,1.1043304 C 21.464998,1.1043304 21.009454,1.242704 20.5,1.2856654"
       id="path1942"
       sodipodi:nodetypes="cssscccsssc" />
    <path
       sodipodi:type="arc"
       style="opacity:1;fill:#ffffff;fill-opacity:1;fill-rule:nonzero;stroke:#ffd37b;stroke-width:1.9109398;stroke-linecap:round;stroke-linejoin:round;stroke-miterlimit:4;stroke-dasharray:1.9109398,5.73281939;stroke-dashoffset:0;stroke-opacity:1;marker-mid:none"
       id="path4631"
       sodipodi:cx="29"
       sodipodi:cy="17"
       sodipodi:rx="17"
       sodipodi:ry="9"
       d="M 46 17 A 17 9 0 1 1  12,17 A 17 9 0 1 1  46 17 z"
       transform="matrix(0.7933394,0,0,0.7766574,12.473885,1.0213078)" />
    <path
       sodipodi:type="arc"
       style="opacity:1;fill:#ffffff;fill-opacity:1;fill-rule:nonzero;stroke:#ffd37b;stroke-width:1.66991536;stroke-linecap:round;stroke-linejoin:round;stroke-miterlimit:4;stroke-dasharray:1.66991536,5.00974607;stroke-dashoffset:0;stroke-opacity:1;marker-mid:none"
       id="path4634"
       sodipodi:cx="29"
       sodipodi:cy="17"
       sodipodi:rx="17"
       sodipodi:ry="9"
       d="M 46 17 A 17 9 0 1 1  12,17 A 17 9 0 1 1  46 17 z"
       transform="matrix(0.8933598,0,0,0.9031652,-0.7203176,31.436872)" />
    <path
       sodipodi:type="arc"
       style="opacity:1;fill:#ffffff;fill-opacity:1;fill-rule:nonzero;stroke:#ffd37b;stroke-width:1.9109398;stroke-linecap:round;stroke-linejoin:round;stroke-miterlimit:4;stroke-dasharray:1.9109398,5.73281939;stroke-dashoffset:0;stroke-opacity:1;marker-mid:none"
       id="path4636"
       sodipodi:cx="29"
       sodipodi:cy="17"
       sodipodi:rx="17"
       sodipodi:ry="9"
       d="M 46 17 A 17 9 0 1 1  12,17 A 17 9 0 1 1  46 17 z"
       transform="matrix(0.7933394,0,0,0.7766574,40.352517,18.537974)" />
    <path
       sodipodi:type="arc"
       style="opacity:1;fill:#ffffff;fill-opacity:1;fill-rule:nonzero;stroke:#ffd37b;stroke-width:1.88581943;stroke-linecap:round;stroke-linejoin:round;stroke-miterlimit:4;stroke-dasharray:1.88581943,5.65745829;stroke-dashoffset:0;stroke-opacity:1;marker-mid:none"
       id="path4638"
       sodipodi:cx="29"
       sodipodi:cy="17"
       sodipodi:rx="17"
       sodipodi:ry="9"
       d="M 46 17 A 17 9 0 1 1  12,17 A 17 9 0 1 1  46 17 z"
       transform="matrix(0.8039072,0,0,0.787003,101.52008,18.37095)" />
    <path
       sodipodi:type="arc"
       style="opacity:1;fill:#ffffff;fill-opacity:1;fill-rule:nonzero;stroke:#ffd37b;stroke-width:1.9109398;stroke-linecap:round;stroke-linejoin:round;stroke-miterlimit:4;stroke-dasharray:1.9109398,5.73281939;stroke-dashoffset:0;stroke-opacity:1;marker-mid:none"
       id="path4640"
       sodipodi:cx="29"
       sodipodi:cy="17"
       sodipodi:rx="17"
       sodipodi:ry="9"
       d="M 46 17 A 17 9 0 1 1  12,17 A 17 9 0 1 1  46 17 z"
       transform="matrix(0.7933394,0,0,0.7766574,166.17649,18.526774)" />
    <path
       sodipodi:type="arc"
       style="opacity:1;fill:#ffffff;fill-opacity:1;fill-rule:nonzero;stroke:#ffd37b;stroke-width:1.91952492;stroke-linecap:round;stroke-linejoin:round;stroke-miterlimit:4;stroke-dasharray:1.91952492,5.75857475;stroke-dashoffset:0;stroke-opacity:1;marker-mid:none"
       id="path4642"
       sodipodi:cx="29"
       sodipodi:cy="17"
       sodipodi:rx="17"
       sodipodi:ry="9"
       d="M 46 17 A 17 9 0 1 1  12,17 A 17 9 0 1 1  46 17 z"
       transform="matrix(0.7782284,0,0,0.7846716,85.363606,38.138827)" />
    <path
       sodipodi:type="arc"
       style="opacity:1;fill:#ffffff;fill-opacity:1;fill-rule:nonzero;stroke:#ffd37b;stroke-width:1.9109398;stroke-linecap:round;stroke-linejoin:round;stroke-miterlimit:4;stroke-dasharray:1.9109398,5.73281939;stroke-dashoffset:0;stroke-opacity:1;marker-mid:none"
       id="path4644"
       sodipodi:cx="29"
       sodipodi:cy="17"
       sodipodi:rx="17"
       sodipodi:ry="9"
       d="M 46 17 A 17 9 0 1 1  12,17 A 17 9 0 1 1  46 17 z"
       transform="matrix(0.7933394,0,0,0.7766574,63.543596,-2.6793951)" />
    <path
       sodipodi:type="arc"
       style="opacity:1;fill:#ffffff;fill-opacity:1;fill-rule:nonzero;stroke:#ffd37b;stroke-width:1.28007696;stroke-linecap:round;stroke-linejoin:round;stroke-miterlimit:4;stroke-dasharray:1.28007696,3.84023088;stroke-dashoffset:0;stroke-opacity:1;marker-mid:none"
       id="path4646"
       sodipodi:cx="29"
       sodipodi:cy="17"
       sodipodi:rx="17"
       sodipodi:ry="9"
       d="M 46 17 A 17 9 0 1 1  12,17 A 17 9 0 1 1  46 17 z"
       transform="matrix(1.1379844,0,0,1.2066298,123.38442,-4.3145152)" />
    <path
       sodipodi:type="arc"
       style="opacity:1;fill:#ffffff;fill-opacity:1;fill-rule:nonzero;stroke:#ffd37b;stroke-width:1.9109398;stroke-linecap:round;stroke-linejoin:round;stroke-miterlimit:4;stroke-dasharray:1.9109398,5.73281939;stroke-dashoffset:0;stroke-opacity:1;marker-mid:none"
       id="path4648"
       sodipodi:cx="29"
       sodipodi:cy="17"
       sodipodi:rx="17"
       sodipodi:ry="9"
       d="M 46 17 A 17 9 0 1 1  12,17 A 17 9 0 1 1  46 17 z"
       transform="matrix(0.7933394,0,0,0.7766574,126.70232,36.794781)" />
    <path
       sodipodi:type="arc"
       style="opacity:1;fill:white;fill-opacity:1;fill-rule:nonzero;stroke:#ffd37b;stroke-width:3.21758335;stroke-linecap:round;stroke-linejoin:round;stroke-miterlimit:4;stroke-dasharray:3.21758335,9.65275005;stroke-dashoffset:0;stroke-opacity:1;marker-mid:none"
       id="path4650"
       sodipodi:cx="29"
       sodipodi:cy="17"
       sodipodi:rx="17"
       sodipodi:ry="9"
       d="M 46 17 A 17 9 0 1 1  12,17 A 17 9 0 1 1  46 17 z"
       transform="matrix(0.420609,0,0,0.516707,65.80235,44.21599)" />
    <path
       sodipodi:type="arc"
       style="opacity:1;fill:#ffffff;fill-opacity:1;fill-rule:nonzero;stroke:#ffd37b;stroke-width:3.12298122;stroke-linecap:round;stroke-linejoin:round;stroke-miterlimit:4;stroke-dasharray:3.12298122,9.36894366;stroke-dashoffset:0;stroke-opacity:1;marker-mid:none"
       id="path4652"
       sodipodi:cx="29"
       sodipodi:cy="17"
       sodipodi:rx="17"
       sodipodi:ry="9"
       d="M 46 17 A 17 9 0 1 1  12,17 A 17 9 0 1 1  46 17 z"
       transform="matrix(0.4516352,0,0,0.510806,-1.0168704,20.31629)" />
    <path
       sodipodi:type="arc"
       style="opacity:1;fill:white;fill-opacity:1;fill-rule:nonzero;stroke:#ffd37b;stroke-width:3.02510303;stroke-linecap:round;stroke-linejoin:round;stroke-miterlimit:4;stroke-dasharray:3.02510303,9.07530909;stroke-dashoffset:0;stroke-opacity:1;marker-mid:none"
       id="path4654"
       sodipodi:cx="29"
       sodipodi:cy="17"
       sodipodi:rx="17"
       sodipodi:ry="9"
       d="M 46 17 A 17 9 0 1 1  12,17 A 17 9 0 1 1  46 17 z"
       transform="matrix(0.478124,0,0,0.514235,81.63441,24.25801)" />
    <path
       sodipodi:type="arc"
       style="opacity:1;fill:white;fill-opacity:1;fill-rule:nonzero;stroke:#ffd37b;stroke-width:3.21758335;stroke-linecap:round;stroke-linejoin:round;stroke-miterlimit:4;stroke-dasharray:3.21758335,9.65275005;stroke-dashoffset:0;stroke-opacity:1;marker-mid:none"
       id="path4656"
       sodipodi:cx="29"
       sodipodi:cy="17"
       sodipodi:rx="17"
       sodipodi:ry="9"
       d="M 46 17 A 17 9 0 1 1  12,17 A 17 9 0 1 1  46 17 z"
       transform="matrix(0.420609,0,0,0.516707,103.8023,5.215981)" />
    <path
       sodipodi:type="arc"
       style="opacity:1;fill:white;fill-opacity:1;fill-rule:nonzero;stroke:#ffd37b;stroke-width:3.21758335;stroke-linecap:round;stroke-linejoin:round;stroke-miterlimit:4;stroke-dasharray:3.21758335,9.65275005;stroke-dashoffset:0;stroke-opacity:1;marker-mid:none"
       id="path4658"
       sodipodi:cx="29"
       sodipodi:cy="17"
       sodipodi:rx="17"
       sodipodi:ry="9"
       d="M 46 17 A 17 9 0 1 1  12,17 A 17 9 0 1 1  46 17 z"
       transform="matrix(0.420609,0,0,0.516707,41.80234,47.21598)" />
    <path
       sodipodi:type="arc"
       style="opacity:1;fill:white;fill-opacity:1;fill-rule:nonzero;stroke:#ffd37b;stroke-width:3.21758335;stroke-linecap:round;stroke-linejoin:round;stroke-miterlimit:4;stroke-dasharray:3.21758335,9.65275005;stroke-dashoffset:0;stroke-opacity:1;marker-mid:none"
       id="path4660"
       sodipodi:cx="29"
       sodipodi:cy="17"
       sodipodi:rx="17"
       sodipodi:ry="9"
       d="M 46 17 A 17 9 0 1 1  12,17 A 17 9 0 1 1  46 17 z"
       transform="matrix(0.420609,0,0,0.516707,168.3023,40.21599)" />
    <path
       sodipodi:type="arc"
       style="opacity:1;fill:#ffffff;fill-opacity:1;fill-rule:nonzero;stroke:#ffd37b;stroke-width:1.25736775;stroke-linecap:round;stroke-linejoin:round;stroke-miterlimit:4;stroke-dasharray:1.25736775,3.77210324;stroke-dashoffset:0;stroke-opacity:1;marker-mid:none"
       id="path4662"
       sodipodi:cx="29"
       sodipodi:cy="17"
       sodipodi:rx="17"
       sodipodi:ry="9"
       d="M 46 17 A 17 9 0 1 1  12,17 A 17 9 0 1 1  46 17 z"
       transform="matrix(1.2996928,0,0,1.0950077,182.15317,30.149264)" />
    <path
       sodipodi:type="arc"
       style="opacity:1;fill:#ffffff;fill-opacity:1;fill-rule:nonzero;stroke:#ffd37b;stroke-width:1.9109398;stroke-linecap:round;stroke-linejoin:round;stroke-miterlimit:4;stroke-dasharray:1.9109398,5.73281939;stroke-dashoffset:0;stroke-opacity:1;marker-mid:none"
       id="path4664"
       sodipodi:cx="29"
       sodipodi:cy="17"
       sodipodi:rx="17"
       sodipodi:ry="9"
       d="M 46 17 A 17 9 0 1 1  12,17 A 17 9 0 1 1  46 17 z"
       transform="matrix(0.7933394,0,0,0.7766574,189.861,-0.7056864)" />
    <path
       sodipodi:type="arc"
       style="opacity:1;fill:white;fill-opacity:1;fill-rule:nonzero;stroke:#ffd37b;stroke-width:3.21758335;stroke-linecap:round;stroke-linejoin:round;stroke-miterlimit:4;stroke-dasharray:3.21758335,9.65275005;stroke-dashoffset:0;stroke-opacity:1;marker-mid:none"
       id="path4666"
       sodipodi:cx="29"
       sodipodi:cy="17"
       sodipodi:rx="17"
       sodipodi:ry="9"
       d="M 46 17 A 17 9 0 1 1  12,17 A 17 9 0 1 1  46 17 z"
       transform="matrix(0.420609,0,0,0.516707,209.8023,19.21598)" />
    <path
       sodipodi:type="arc"
       style="opacity:1;fill:#ffffff;fill-opacity:1;fill-rule:nonzero;stroke:#ffd37b;stroke-width:3.38216801;stroke-linecap:round;stroke-linejoin:round;stroke-miterlimit:4;stroke-dasharray:3.38216801,10.14650403;stroke-dashoffset:0;stroke-opacity:1;marker-mid:none"
       id="path4668"
       sodipodi:cx="29"
       sodipodi:cy="17"
       sodipodi:rx="17"
       sodipodi:ry="9"
       d="M 46 17 A 17 9 0 1 1  12,17 A 17 9 0 1 1  46 17 z"
       transform="matrix(0.3824992,0,0,0.514235,228.7819,18.25801)" />
    <path
       id="path4670"
       style="fill:none;fill-opacity:1;fill-rule:nonzero;stroke:#000000;stroke-width:1.47650278;stroke-linecap:round;stroke-linejoin:miter;stroke-miterlimit:4;stroke-dashoffset:59.92000295;stroke-opacity:1;filter:url(#filter3179)"
       d="M 238.80067,62.345877 C 248.55118,61.287474 255.28326,59.359881 255.27778,53.857471 C 255.26996,45.878327 260.2577,5.1487823 240.51702,0.92231219 C 239.40947,0.68518781 237.7863,0.73825138 236.52805,0.73825138 C 214.70851,0.73825138 162.75763,0.73825138 127.71942,0.73825138 C 92.681225,0.73825138 46.392083,0.73825138 22.588959,0.73825138 C 22.058346,0.73825138 21.606539,0.87802852 21.101264,0.92142569 M 21.101264,0.92142569 C -0.94753245,2.815158 0.76942953,45.057508 0.76942953,53.492452 C 0.76942953,59.465097 8.6874366,61.748828 20.605365,62.651167 M 19.929153,62.651167 C 25.228184,63.052372 31.742102,63.261749 38.457708,63.261749 C 62.142836,63.261749 92.681225,63.261749 127.71942,63.261749 C 162.75763,63.261749 195.27962,63.261749 218.96473,63.261749 C 226.8695,63.261749 233.26158,62.947139 238.80067,62.345877"
       sodipodi:nodetypes="cscsssccsccsssc"
       transform="matrix(0.9938532,0,0,0.9999917,0.5022624,2.80318e-3)" />
  </g>
  <g
     inkscape:groupmode="layer"
     id="layer2"
     inkscape:label="Auswahl" />
</svg>
