<?xml version="1.0" encoding="UTF-8" standalone="no"?>
<!-- Created with Inkscape (http://www.inkscape.org/) -->
<svg
   xmlns:dc="http://purl.org/dc/elements/1.1/"
   xmlns:cc="http://creativecommons.org/ns#"
   xmlns:rdf="http://www.w3.org/1999/02/22-rdf-syntax-ns#"
   xmlns:svg="http://www.w3.org/2000/svg"
   xmlns="http://www.w3.org/2000/svg"
   xmlns:xlink="http://www.w3.org/1999/xlink"
   xmlns:sodipodi="http://sodipodi.sourceforge.net/DTD/sodipodi-0.dtd"
   xmlns:inkscape="http://www.inkscape.org/namespaces/inkscape"
   width="2400"
   height="3000"
   id="svg2"
   sodipodi:version="0.32"
   inkscape:version="0.46"
   sodipodi:docname="pipe_connection.svg"
   inkscape:output_extension="org.inkscape.output.svg.inkscape"
   version="1.0">
  <defs
     id="defs4">
    <linearGradient
       id="linearGradient3263">
      <stop
         style="stop-color:#ff240f;stop-opacity:1;"
         offset="0"
         id="stop3265" />
      <stop
         style="stop-color:#d92a00;stop-opacity:1;"
         offset="1"
         id="stop3267" />
    </linearGradient>
    <linearGradient
       id="linearGradient3249">
      <stop
         style="stop-color:#115fff;stop-opacity:1;"
         offset="0"
         id="stop3251" />
      <stop
         style="stop-color:#0039ea;stop-opacity:1;"
         offset="1"
         id="stop3253" />
    </linearGradient>
    <linearGradient
       id="linearGradient3223">
      <stop
         style="stop-color:#00b808;stop-opacity:1;"
         offset="0"
         id="stop3225" />
      <stop
         style="stop-color:#309800;stop-opacity:1;"
         offset="1"
         id="stop3227" />
    </linearGradient>
    <linearGradient
       id="linearGradient3218">
      <stop
         id="stop3508"
         offset="0"
         style="stop-color:#f89800;stop-opacity:1;" />
      <stop
         style="stop-color:#e37900;stop-opacity:1;"
         offset="1"
         id="stop3222" />
    </linearGradient>
    <inkscape:perspective
       sodipodi:type="inkscape:persp3d"
       inkscape:vp_x="0 : 1800 : 1"
       inkscape:vp_y="0 : 1000 : 0"
       inkscape:vp_z="2400 : 1800 : 1"
       inkscape:persp3d-origin="1200 : 1200 : 1"
       id="perspective114" />
    <linearGradient
       id="linearGradient3693">
      <stop
         style="stop-color:#fd988d;stop-opacity:1;"
         offset="0"
         id="stop3695" />
      <stop
         style="stop-color:#ffffff;stop-opacity:0;"
         offset="1"
         id="stop3697" />
    </linearGradient>
    <filter
       inkscape:collect="always"
       id="filter3330">
      <feGaussianBlur
         inkscape:collect="always"
         stdDeviation="26.605026"
         id="feGaussianBlur3332" />
    </filter>
    <filter
       inkscape:collect="always"
       id="filter3338"
       x="-0.089484568"
       width="1.1789691"
       y="-0.10353872"
       height="1.2070774">
      <feGaussianBlur
         inkscape:collect="always"
         stdDeviation="24.797894"
         id="feGaussianBlur3340" />
    </filter>
    <filter
       inkscape:collect="always"
       id="filter3428">
      <feGaussianBlur
         inkscape:collect="always"
         stdDeviation="22.997547"
         id="feGaussianBlur3430" />
    </filter>
    <linearGradient
       inkscape:collect="always"
       xlink:href="#linearGradient3693"
       id="linearGradient3616"
       gradientUnits="userSpaceOnUse"
       gradientTransform="translate(-1492.5688,-1137.9219)"
       x1="149.03621"
       y1="705.6806"
       x2="273.19925"
       y2="830.83618" />
    <linearGradient
       inkscape:collect="always"
       xlink:href="#linearGradient3693"
       id="linearGradient3618"
       gradientUnits="userSpaceOnUse"
       gradientTransform="translate(-1138.2831,-1137.9219)"
       x1="149.03621"
       y1="705.6806"
       x2="273.19925"
       y2="830.83618" />
    <radialGradient
       inkscape:collect="always"
       xlink:href="#linearGradient3223"
       id="radialGradient3229"
       cx="331.73407"
       cy="541.48156"
       fx="331.73407"
       fy="541.48156"
       r="46.967014"
       gradientTransform="matrix(1,0,0,1.0860307,0,-46.584065)"
       gradientUnits="userSpaceOnUse" />
    <radialGradient
       inkscape:collect="always"
       xlink:href="#linearGradient3218"
       id="radialGradient3243"
       cx="127.2792"
       cy="541.48157"
       fx="127.2792"
       fy="541.48157"
       r="46.967014"
       gradientTransform="matrix(1,0,0,1.0860307,0,-46.584065)"
       gradientUnits="userSpaceOnUse" />
    <radialGradient
       inkscape:collect="always"
       xlink:href="#linearGradient3249"
       id="radialGradient3255"
       cx="229.50664"
       cy="541.48156"
       fx="229.50664"
       fy="541.48156"
       r="46.967014"
       gradientTransform="matrix(1,0,0,1.0860307,0,-46.584065)"
       gradientUnits="userSpaceOnUse" />
    <radialGradient
       inkscape:collect="always"
       xlink:href="#linearGradient3263"
       id="radialGradient3269"
       cx="433.96152"
       cy="541.48156"
       fx="433.96152"
       fy="541.48156"
       r="46.967014"
       gradientTransform="matrix(1,0,0,1.0860307,0,-46.584065)"
       gradientUnits="userSpaceOnUse" />
    <radialGradient
       inkscape:collect="always"
       xlink:href="#linearGradient3263"
       id="radialGradient3271"
       gradientUnits="userSpaceOnUse"
       gradientTransform="matrix(1,0,0,0.9995545,0,-0.2631228)"
       cx="-1141.8726"
       cy="-590.56439"
       fx="-1141.8726"
       fy="-590.56439"
       r="287.5325" />
    <radialGradient
       inkscape:collect="always"
       xlink:href="#linearGradient3263"
       id="radialGradient3273"
       gradientUnits="userSpaceOnUse"
       gradientTransform="matrix(1,0,0,0.864269,0,41.94717)"
       cx="-1268.4757"
       cy="309.0463"
       fx="-1268.4757"
       fy="309.0463"
       r="332.54031" />
    <radialGradient
       inkscape:collect="always"
       xlink:href="#linearGradient3263"
       id="radialGradient3275"
       gradientUnits="userSpaceOnUse"
       gradientTransform="matrix(1,0,0,0.9992802,0,0.6383758)"
       cx="-614.29663"
       cy="886.87799"
       fx="-614.29663"
       fy="886.87799"
       r="332.67987" />
  </defs>
  <sodipodi:namedview
     id="base"
     pagecolor="#000000"
     bordercolor="#666666"
     borderopacity="1.0"
     gridtolerance="10000"
     guidetolerance="10"
     objecttolerance="10"
     inkscape:pageopacity="0"
     inkscape:pageshadow="2"
     inkscape:zoom="0.24748737"
     inkscape:cx="1180.0645"
     inkscape:cy="1363.0892"
     inkscape:document-units="px"
     inkscape:current-layer="layer1"
     showgrid="false"
     inkscape:window-width="1178"
     inkscape:window-height="874"
     inkscape:window-x="41"
     inkscape:window-y="52" />
  <metadata
     id="metadata7">
    <rdf:RDF>
      <cc:Work
         rdf:about="">
        <dc:format>image/svg+xml</dc:format>
        <dc:type
           rdf:resource="http://purl.org/dc/dcmitype/StillImage" />
        <dc:title>SMC Pipe Connectors</dc:title>
        <dc:creator>
          <cc:Agent>
            <dc:title>Brian Allen Vanderburg II</dc:title>
          </cc:Agent>
        </dc:creator>
        <cc:license
           rdf:resource="http://creativecommons.org/licenses/publicdomain/" />
      </cc:Work>
      <cc:License
         rdf:about="http://creativecommons.org/licenses/publicdomain/">
        <cc:permits
           rdf:resource="http://creativecommons.org/ns#Reproduction" />
        <cc:permits
           rdf:resource="http://creativecommons.org/ns#Distribution" />
        <cc:permits
           rdf:resource="http://creativecommons.org/ns#DerivativeWorks" />
      </cc:License>
    </rdf:RDF>
  </metadata>
  <g
     inkscape:label="Layer 1"
     inkscape:groupmode="layer"
     id="layer1">
    <text
       xml:space="preserve"
       style="font-size:32px;font-style:normal;font-weight:bold;fill:#000000;fill-opacity:1;stroke:none;stroke-width:1px;stroke-linecap:butt;stroke-linejoin:miter;stroke-opacity:1;font-family:Courier New;-inkscape-font-specification:Courier New Bold"
       x="1014.7064"
       y="91.320343"
       id="text3527"><tspan
         sodipodi:role="line"
         id="tspan3529"
         x="1014.7064"
         y="91.320343"
         style="font-size:56px">Base Shapes For</tspan><tspan
         sodipodi:role="line"
         x="1014.7064"
         y="161.32034"
         style="font-size:56px"
         id="tspan3531">The Clones Below</tspan></text>
    <g
       id="Screw1"
       inkscape:label="Screw1"
       transform="translate(1080.5415,559.60089)">
      <path
         id="path3930"
         d="M -931.28879,-434.14907 C -970.67741,-434.38079 -1002.5266,-389.83213 -989.22629,-352.61782 C -978.49417,-317.14486 -932.62285,-297.5614 -900.03879,-316.36782 C -870.19345,-332.06081 -857.02263,-374.46494 -875.78879,-403.21157 C -887.23854,-422.20443 -908.82711,-434.8729 -931.28879,-434.14907 z"
         style="fill:url(#linearGradient3618);fill-opacity:1;fill-rule:nonzero;stroke:#00002b;stroke-width:4;stroke-linecap:butt;stroke-linejoin:miter;marker:none;marker-start:none;marker-mid:none;marker-end:none;stroke-miterlimit:4;stroke-dasharray:none;stroke-dashoffset:0;stroke-opacity:1;visibility:visible;display:inline;overflow:visible;enable-background:accumulate" />
      <g
         transform="matrix(0.7071068,0.7071068,0.7071068,-0.7071068,-1526.1574,159.4713)"
         id="g3932">
        <path
           style="opacity:1;fill:#ffffff;fill-opacity:1;fill-rule:nonzero;stroke:#00002b;stroke-width:4;stroke-linecap:butt;stroke-linejoin:miter;marker:none;marker-start:none;marker-mid:none;marker-end:none;stroke-miterlimit:4;stroke-dasharray:none;stroke-dashoffset:0;stroke-opacity:1;visibility:visible;display:inline;overflow:visible;enable-background:accumulate"
           d="M 46.71875,841.53125 C 70.927428,841.25485 90.500003,821.58628 90.5,797.3125 C 90.5,773.03874 70.927427,753.3389 46.71875,753.0625 L 46.71875,841.53125 z"
           id="path3934" />
        <path
           style="opacity:1;fill:#ffffff;fill-opacity:1;fill-rule:nonzero;stroke:#00002b;stroke-width:4;stroke-linecap:butt;stroke-linejoin:miter;marker:none;marker-start:none;marker-mid:none;marker-end:none;stroke-miterlimit:4;stroke-dasharray:none;stroke-dashoffset:0;stroke-opacity:1;visibility:visible;display:inline;overflow:visible;enable-background:accumulate"
           d="M 45.71875,753.0625 C 21.509249,753.33795 1.9374999,773.03816 1.9375,797.3125 C 1.9375,821.58686 21.509249,841.25583 45.71875,841.53125 L 45.71875,753.0625 z"
           id="path3936" />
      </g>
    </g>
    <g
       id="Screw2"
       inkscape:label="Screw2"
       transform="translate(1670.4706,555.56039)">
      <path
         id="path3940"
         d="M -1285.5745,-434.14907 C -1324.9631,-434.38079 -1356.8123,-389.83213 -1343.512,-352.61782 C -1332.7799,-317.14486 -1286.9086,-297.5614 -1254.3245,-316.36782 C -1224.4792,-332.06081 -1211.3083,-374.46494 -1230.0745,-403.21157 C -1241.5242,-422.20443 -1263.1128,-434.8729 -1285.5745,-434.14907 z"
         style="fill:url(#linearGradient3616);fill-opacity:1;fill-rule:nonzero;stroke:#00002b;stroke-width:4;stroke-linecap:butt;stroke-linejoin:miter;marker:none;marker-start:none;marker-mid:none;marker-end:none;stroke-miterlimit:4;stroke-dasharray:none;stroke-dashoffset:0;stroke-opacity:1;visibility:visible;display:inline;overflow:visible;enable-background:accumulate" />
      <g
         transform="matrix(-0.7071068,0.7071068,-0.7071068,-0.7071068,-687.5157,159.4661)"
         id="g3942">
        <path
           style="opacity:1;fill:#ffffff;fill-opacity:1;fill-rule:nonzero;stroke:#00002b;stroke-width:4;stroke-linecap:butt;stroke-linejoin:miter;marker:none;marker-start:none;marker-mid:none;marker-end:none;stroke-miterlimit:4;stroke-dasharray:none;stroke-dashoffset:0;stroke-opacity:1;visibility:visible;display:inline;overflow:visible;enable-background:accumulate"
           d="M 46.71875,841.53125 C 70.927428,841.25485 90.500003,821.58628 90.5,797.3125 C 90.5,773.03874 70.927427,753.3389 46.71875,753.0625 L 46.71875,841.53125 z"
           id="path3944" />
        <path
           style="opacity:1;fill:#ffffff;fill-opacity:1;fill-rule:nonzero;stroke:#00002b;stroke-width:4;stroke-linecap:butt;stroke-linejoin:miter;marker:none;marker-start:none;marker-mid:none;marker-end:none;stroke-miterlimit:4;stroke-dasharray:none;stroke-dashoffset:0;stroke-opacity:1;visibility:visible;display:inline;overflow:visible;enable-background:accumulate"
           d="M 45.71875,753.0625 C 21.509249,753.33795 1.9374999,773.03816 1.9375,797.3125 C 1.9375,821.58686 21.509249,841.25583 45.71875,841.53125 L 45.71875,753.0625 z"
           id="path3946" />
      </g>
    </g>
    <rect
       style="opacity:1;fill:#7c7c7c;fill-opacity:1;fill-rule:nonzero;stroke:#00002b;stroke-width:0.06280861;stroke-linecap:butt;stroke-linejoin:miter;marker:none;marker-start:none;marker-mid:none;marker-end:none;stroke-miterlimit:4;stroke-dasharray:none;stroke-dashoffset:0;stroke-opacity:1;visibility:visible;display:inline;overflow:visible;enable-background:accumulate"
       id="rect3952"
       width="2399.8787"
       height="4.930337"
       x="0.063815743"
       y="1286.1461" />
    <text
       xml:space="preserve"
       style="font-size:32px;font-style:normal;font-weight:bold;fill:#000000;fill-opacity:1;stroke:none;stroke-width:1px;stroke-linecap:butt;stroke-linejoin:miter;stroke-opacity:1;font-family:Courier New;-inkscape-font-specification:Courier New Bold"
       x="51.01894"
       y="71.823265"
       id="text3954"><tspan
         sodipodi:role="line"
         id="tspan3956"
         x="51.01894"
         y="71.823265"
         style="font-size:56px">Screws</tspan></text>
    <g
       id="RightConnector"
       transform="translate(3193.2709,917.75026)"
       inkscape:label="RightConnector">
      <path
         id="path3992"
         d="M -1382.9121,-891.82309 C -1416.1521,-891.82309 -1442.9121,-865.06309 -1442.9121,-831.82309 L -1442.9121,-439.82309 C -1442.9121,-406.58309 -1416.1521,-379.8231 -1382.9121,-379.82309 L -1352.9121,-379.82309 L -1352.9121,-349.82309 C -1352.9121,-316.58309 -1326.1521,-289.82309 -1292.9121,-289.82309 L -900.91198,-289.82309 C -867.67198,-289.82309 -840.91195,-316.58309 -840.91198,-349.82309 L -840.91198,-471.10221 L -840.91198,-506.55398 C -840.91198,-750.08404 -1051.23,-891.82309 -1207.9983,-891.82309 L -1225.2674,-891.82309 L -1292.9121,-891.82309 L -1382.9121,-891.82309 z"
         style="opacity:1;fill:#000000;fill-opacity:1;fill-rule:nonzero;stroke:none;stroke-width:2.49499988999999990;stroke-linecap:butt;stroke-linejoin:miter;marker:none;marker-start:none;marker-mid:none;marker-end:none;stroke-miterlimit:4;stroke-dasharray:none;stroke-dashoffset:0;stroke-opacity:1;visibility:visible;display:inline;overflow:visible;enable-background:accumulate"
         sodipodi:nodetypes="ccccccccccccccc" />
      <path
         id="path3994"
         d="M -1225.0926,-877.96875 C -1388.248,-877.22781 -1228.1597,-878.6899 -1391.3125,-877.1875 C -1415.6477,-873.16797 -1433.0539,-847.26658 -1428.75,-823.09375 C -1428.5271,-691.94404 -1430.0019,-560.73863 -1427.9375,-429.625 C -1422.8892,-406.01479 -1397.4972,-389.83831 -1373.8438,-393.80498 C -1362.4689,-393.72392 -1351.0936,-393.91416 -1339.7188,-393.8125 C -1336.2062,-370.71807 -1344.5615,-345.02929 -1331.3125,-324.15625 C -1319.7475,-306.38199 -1296.7743,-301.14381 -1276.875,-303.81637 C -1147.8612,-304.52242 -1018.7868,-302.3641 -889.8125,-305.03125 C -866.44212,-310.45652 -850.79977,-335.9202 -855.03125,-359.4375 C -855.15631,-519.89568 -854.07687,-373.272 -855.65625,-533.72613 C -855.65625,-660.0711 -993.45043,-877.96875 -1225.0926,-877.96875 z"
         style="opacity:1;fill:url(#radialGradient3271);fill-opacity:1;fill-rule:nonzero;stroke:none;stroke-width:2.49499988999999990;stroke-linecap:butt;stroke-linejoin:miter;marker:none;marker-start:none;marker-mid:none;marker-end:none;stroke-miterlimit:4;stroke-dasharray:none;stroke-dashoffset:0;stroke-opacity:1;visibility:visible;display:inline;overflow:visible;enable-background:accumulate"
         sodipodi:nodetypes="cccccccccccc" />
      <path
         sodipodi:type="inkscape:offset"
         inkscape:radius="0"
         inkscape:original="M -1225.0938 -877.96875 C -1388.2491 -877.22781 -1228.1597 -878.6899 -1391.3125 -877.1875 C -1415.6477 -873.16797 -1433.0539 -847.26658 -1428.75 -823.09375 C -1428.5271 -691.94404 -1430.0019 -560.73863 -1427.9375 -429.625 C -1422.8892 -406.01479 -1397.4971 -389.84583 -1373.8438 -393.8125 C -1362.4689 -393.73143 -1351.0935 -393.91416 -1339.7188 -393.8125 C -1336.2062 -370.71807 -1344.5615 -345.02929 -1331.3125 -324.15625 C -1319.7475 -306.38199 -1296.7743 -301.13994 -1276.875 -303.8125 C -1147.8612 -304.51854 -1018.7868 -302.3641 -889.8125 -305.03125 C -866.44212 -310.45652 -850.79977 -335.9202 -855.03125 -359.4375 C -855.15631 -519.89568 -854.07687 -373.26462 -855.65625 -533.71875 C -855.65625 -660.06371 -993.45158 -877.96875 -1225.0938 -877.96875 z "
         xlink:href="#path3994"
         style="opacity:1;fill:#ff250f;fill-opacity:1;fill-rule:nonzero;stroke:none;stroke-width:2.49499988999999990;stroke-linecap:butt;stroke-linejoin:miter;marker:none;marker-start:none;marker-mid:none;marker-end:none;stroke-miterlimit:4;stroke-dasharray:none;stroke-dashoffset:0;stroke-opacity:1;visibility:visible;display:inline;overflow:visible;filter:url(#filter3428);enable-background:accumulate"
         id="path3426"
         inkscape:href="#path3994"
         d="M -1225.0938,-877.96875 C -1388.2491,-877.22781 -1228.1597,-878.6899 -1391.3125,-877.1875 C -1415.6477,-873.16797 -1433.0539,-847.26658 -1428.75,-823.09375 C -1428.5271,-691.94404 -1430.0019,-560.73863 -1427.9375,-429.625 C -1422.8892,-406.01479 -1397.4971,-389.84583 -1373.8438,-393.8125 C -1362.4689,-393.73143 -1351.0935,-393.91416 -1339.7188,-393.8125 C -1336.2062,-370.71807 -1344.5615,-345.02929 -1331.3125,-324.15625 C -1319.7475,-306.38199 -1296.7743,-301.13994 -1276.875,-303.8125 C -1147.8612,-304.51854 -1018.7868,-302.3641 -889.8125,-305.03125 C -866.44212,-310.45652 -850.79977,-335.9202 -855.03125,-359.4375 C -855.15631,-519.89568 -854.07687,-373.26462 -855.65625,-533.71875 C -855.65625,-660.06371 -993.45158,-877.96875 -1225.0938,-877.96875 z"
         transform="matrix(0.8707653,0,0,0.8707653,-147.56959,-76.321188)" />
    </g>
    <g
       id="TConnector"
       transform="translate(3263.1283,639.84106)"
       inkscape:label="TConnector">
      <path
         id="path3998"
         d="M -1554.5759,7.7946429 C -1587.8159,7.7946429 -1614.5759,34.554643 -1614.5759,67.794643 L -1614.5759,459.79464 C -1614.5759,493.03464 -1587.8159,519.79464 -1554.5759,519.79464 L -1524.5759,519.79464 L -1524.5759,549.79464 C -1524.5759,583.03464 -1497.8159,609.79464 -1464.5759,609.79464 L -1072.5759,609.79464 C -1039.3359,609.79464 -1012.5759,583.03464 -1012.5759,549.79464 L -1012.5759,519.79464 L -982.5759,519.79464 C -949.3359,519.79464 -922.5759,493.03464 -922.5759,459.79464 L -922.5759,67.794643 C -922.5759,34.554643 -949.3359,7.7946429 -982.5759,7.7946429 L -1162.5759,7.7946429 L -1554.5759,7.7946429 z"
         style="opacity:1;fill:#000000;fill-opacity:1;fill-rule:nonzero;stroke:none;stroke-width:2.49499988999999990;stroke-linecap:butt;stroke-linejoin:miter;marker:none;marker-start:none;marker-mid:none;marker-end:none;stroke-miterlimit:4;stroke-dasharray:none;stroke-dashoffset:0;stroke-opacity:1;visibility:visible;display:inline;overflow:visible;enable-background:accumulate" />
      <path
         id="path4000"
         d="M -983.125,21.65625 C -1176.0829,22.240243 -1369.0432,21.158313 -1562,22.21875 C -1586.6028,25.81456 -1604.6974,51.736522 -1600.3763,76.093749 C -1600.3396,207.07965 -1601.4048,338.18014 -1599.7188,469.09375 C -1595.272,493.35318 -1569.0838,510.0027 -1545.0312,505.78125 C -1533.8021,505.78125 -1522.5729,505.78125 -1511.3438,505.78125 C -1508.5228,528.74324 -1515.4433,553.89874 -1503.4062,574.96875 C -1492.2734,592.81906 -1469.5336,598.08729 -1449.7812,596.03125 C -1355.2394,594.98907 -1260.6527,596.40045 -1166.0939,595.81258 C -1131.1522,595.57536 -1096.1435,595.60639 -1061.25,594.53125 C -1037.7776,588.98224 -1022.3704,563.06016 -1026.5625,539.5 C -1026.5625,528.54167 -1026.5625,517.58333 -1026.5625,506.625 C -999.97926,503.02268 -966.34766,513.73822 -947.09375,489.28125 C -936.19522,475.68021 -934.81778,457.47513 -936.57028,440.75001 C -937.11583,313.09926 -935.42012,185.40227 -937.53125,57.78125 C -941.89925,37.132289 -962.03331,21.09631 -983.125,21.65625 z"
         style="opacity:1;fill:url(#radialGradient3273);fill-opacity:1;fill-rule:nonzero;stroke:none;stroke-width:2.49499988999999990;stroke-linecap:butt;stroke-linejoin:miter;marker:none;marker-start:none;marker-mid:none;marker-end:none;stroke-miterlimit:4;stroke-dasharray:none;stroke-dashoffset:0;stroke-opacity:1;visibility:visible;display:inline;overflow:visible;enable-background:accumulate" />
      <path
         sodipodi:type="inkscape:offset"
         inkscape:radius="0"
         inkscape:original="M -983.125 21.65625 C -1176.0829 22.240243 -1369.0432 21.158313 -1562 22.21875 C -1586.6028 25.81456 -1604.6961 51.736523 -1600.375 76.09375 C -1600.3383 207.07965 -1601.4047 338.18014 -1599.7188 469.09375 C -1595.272 493.35318 -1569.0839 510.0027 -1545.0312 505.78125 C -1533.8021 505.78125 -1522.5728 505.78125 -1511.3438 505.78125 C -1508.5228 528.74324 -1515.4434 553.89874 -1503.4062 574.96875 C -1492.2734 592.81906 -1469.5337 598.08729 -1449.7812 596.03125 C -1355.2394 594.98907 -1260.6526 596.40037 -1166.0938 595.8125 C -1131.1521 595.5753 -1096.1435 595.60639 -1061.25 594.53125 C -1037.7776 588.98224 -1022.3704 563.06016 -1026.5625 539.5 C -1026.5625 528.54167 -1026.5625 517.58333 -1026.5625 506.625 C -999.97926 503.02268 -966.34766 513.73822 -947.09375 489.28125 C -936.19522 475.68021 -934.81 457.47512 -936.5625 440.75 C -937.10808 313.09926 -935.42012 185.40227 -937.53125 57.78125 C -941.89925 37.132289 -962.03331 21.09631 -983.125 21.65625 z "
         xlink:href="#path4000"
         style="opacity:1;fill:#ff250f;fill-opacity:1;fill-rule:nonzero;stroke:none;stroke-width:2.49499988999999990;stroke-linecap:butt;stroke-linejoin:miter;marker:none;marker-start:none;marker-mid:none;marker-end:none;stroke-miterlimit:4;stroke-dasharray:none;stroke-dashoffset:0;stroke-opacity:1;visibility:visible;display:inline;overflow:visible;filter:url(#filter3338);enable-background:accumulate"
         id="path3336"
         inkscape:href="#path4000"
         d="M -983.125,21.65625 C -1176.0829,22.240243 -1369.0432,21.158313 -1562,22.21875 C -1586.6028,25.81456 -1604.6961,51.736523 -1600.375,76.09375 C -1600.3383,207.07965 -1601.4047,338.18014 -1599.7188,469.09375 C -1595.272,493.35318 -1569.0839,510.0027 -1545.0312,505.78125 C -1533.8021,505.78125 -1522.5728,505.78125 -1511.3438,505.78125 C -1508.5228,528.74324 -1515.4434,553.89874 -1503.4062,574.96875 C -1492.2734,592.81906 -1469.5337,598.08729 -1449.7812,596.03125 C -1355.2394,594.98907 -1260.6526,596.40037 -1166.0938,595.8125 C -1131.1521,595.5753 -1096.1435,595.60639 -1061.25,594.53125 C -1037.7776,588.98224 -1022.3704,563.06016 -1026.5625,539.5 C -1026.5625,528.54167 -1026.5625,517.58333 -1026.5625,506.625 C -999.97926,503.02268 -966.34766,513.73822 -947.09375,489.28125 C -936.19522,475.68021 -934.81,457.47512 -936.5625,440.75 C -937.10808,313.09926 -935.42012,185.40227 -937.53125,57.78125 C -941.89925,37.132289 -962.03331,21.09631 -983.125,21.65625 z"
         transform="matrix(0.8707644,0,0,0.8707644,-163.93167,39.939776)" />
    </g>
    <g
       id="QuadConnector"
       transform="translate(1889.6096,41.789806)"
       inkscape:label="QuadConnector">
      <path
         id="path4004"
         d="M -810.28571,540.64285 C -843.52571,540.64285 -870.28571,567.40285 -870.28571,600.64285 L -870.28571,630.64285 L -900.28571,630.64285 C -933.52571,630.64285 -960.28571,657.40285 -960.28571,690.64285 L -960.28571,1082.6428 C -960.28571,1115.8828 -933.52571,1142.6428 -900.28571,1142.6428 L -870.28571,1142.6428 L -870.28571,1172.6428 C -870.28571,1205.8828 -843.52571,1232.6428 -810.28571,1232.6428 L -418.28567,1232.6428 C -385.04567,1232.6428 -358.28567,1205.8828 -358.28567,1172.6428 L -358.28567,1142.6428 L -328.28567,1142.6428 C -295.04567,1142.6428 -268.28567,1115.8828 -268.28567,1082.6428 L -268.28567,690.64285 C -268.28567,657.40285 -295.04567,630.64285 -328.28567,630.64285 L -358.28567,630.64285 L -358.28567,600.64285 C -358.28567,567.40285 -385.04567,540.64285 -418.28567,540.64285 L -810.28571,540.64285 z"
         style="opacity:1;fill:#000000;fill-opacity:1;fill-rule:nonzero;stroke:none;stroke-width:2.49499988999999990;stroke-linecap:butt;stroke-linejoin:miter;marker:none;marker-start:none;marker-mid:none;marker-end:none;stroke-miterlimit:4;stroke-dasharray:none;stroke-dashoffset:0;stroke-opacity:1;visibility:visible;display:inline;overflow:visible;enable-background:accumulate" />
      <path
         id="path4006"
         d="M -420.90625,554.46875 C -554.06511,555.46022 -687.28342,553.38556 -820.40625,555.625 C -844.10172,560.62267 -860.26467,586.02795 -856.25375,609.68749 C -856.30612,621.07283 -856.27104,632.45833 -856.28125,643.84375 C -879.09705,647.33872 -904.31765,639.17692 -925.1875,651.75 C -943.42107,663.04745 -949.14065,686.58708 -946.27738,706.65624 C -945.67483,835.48874 -947.5504,964.3336 -945.25,1093.1562 C -939.93949,1117.1893 -913.7979,1132.9018 -889.96875,1128.6562 C -879.01042,1128.6562 -868.05208,1128.6562 -857.09375,1128.6562 C -853.58004,1151.6568 -861.87025,1177.1422 -848.84375,1198.0312 C -837.4216,1216.0232 -814.21176,1221.3689 -794.25001,1218.6524 C -665.24665,1217.9463 -536.18265,1220.1047 -407.21875,1217.4375 C -383.85111,1212.0964 -368.31123,1186.6245 -372.3087,1163.2188 C -372.25624,1151.9793 -372.29156,1140.7396 -372.28125,1129.5 C -349.3503,1125.8528 -323.98919,1134.2784 -303.125,1121.3125 C -284.95564,1109.9931 -279.5511,1086.6589 -282.28512,1066.625 C -282.99115,937.61123 -280.83289,808.53682 -283.5,679.5625 C -288.87891,656.16157 -314.29816,640.70371 -337.68749,644.68371 C -348.94783,644.63131 -360.20833,644.66652 -371.46875,644.65625 C -374.99273,621.53857 -366.6396,595.94395 -379.875,575 C -388.88508,561.62492 -404.92563,553.88156 -420.90625,554.46875 z"
         style="opacity:1;fill:url(#radialGradient3275);fill-opacity:1;fill-rule:nonzero;stroke:none;stroke-width:2.49499988999999990;stroke-linecap:butt;stroke-linejoin:miter;marker:none;marker-start:none;marker-mid:none;marker-end:none;stroke-miterlimit:4;stroke-dasharray:none;stroke-dashoffset:0;stroke-opacity:1;visibility:visible;display:inline;overflow:visible;enable-background:accumulate" />
      <path
         sodipodi:type="inkscape:offset"
         inkscape:radius="0"
         inkscape:original="M -420.90625 554.46875 C -554.06511 555.46022 -687.28342 553.38556 -820.40625 555.625 C -844.10172 560.62267 -860.26092 586.02796 -856.25 609.6875 C -856.3024 621.07283 -856.27104 632.45833 -856.28125 643.84375 C -879.09705 647.33872 -904.31765 639.17692 -925.1875 651.75 C -943.42107 663.04745 -949.14452 686.58709 -946.28125 706.65625 C -945.67868 835.48874 -947.5504 964.33365 -945.25 1093.1562 C -939.93949 1117.1893 -913.7979 1132.9019 -889.96875 1128.6562 C -879.01042 1128.6562 -868.05208 1128.6562 -857.09375 1128.6562 C -853.58004 1151.6568 -861.87025 1177.1423 -848.84375 1198.0312 C -837.4216 1216.0232 -814.21175 1221.3727 -794.25 1218.6562 C -665.24665 1217.9502 -536.18265 1220.1047 -407.21875 1217.4375 C -383.85111 1212.0964 -368.31503 1186.6244 -372.3125 1163.2188 C -372.26005 1151.9793 -372.29156 1140.7396 -372.28125 1129.5 C -349.3503 1125.8528 -323.98919 1134.2784 -303.125 1121.3125 C -284.95564 1109.9931 -279.54723 1086.6589 -282.28125 1066.625 C -282.98727 937.61123 -280.83289 808.53682 -283.5 679.5625 C -288.87891 656.16157 -314.29817 640.7075 -337.6875 644.6875 C -348.94783 644.63509 -360.20833 644.66652 -371.46875 644.65625 C -374.99273 621.53857 -366.6396 595.94395 -379.875 575 C -388.88508 561.62492 -404.92563 553.88156 -420.90625 554.46875 z "
         xlink:href="#path4006"
         style="opacity:1;fill:#ff250f;fill-opacity:1;fill-rule:nonzero;stroke:none;stroke-width:2.49499988999999990;stroke-linecap:butt;stroke-linejoin:miter;marker:none;marker-start:none;marker-mid:none;marker-end:none;stroke-miterlimit:4;stroke-dasharray:none;stroke-dashoffset:0;stroke-opacity:1;visibility:visible;display:inline;overflow:visible;filter:url(#filter3330);enable-background:accumulate"
         id="path2438"
         inkscape:href="#path4006"
         d="M -420.90625,554.46875 C -554.06511,555.46022 -687.28342,553.38556 -820.40625,555.625 C -844.10172,560.62267 -860.26092,586.02796 -856.25,609.6875 C -856.3024,621.07283 -856.27104,632.45833 -856.28125,643.84375 C -879.09705,647.33872 -904.31765,639.17692 -925.1875,651.75 C -943.42107,663.04745 -949.14452,686.58709 -946.28125,706.65625 C -945.67868,835.48874 -947.5504,964.33365 -945.25,1093.1562 C -939.93949,1117.1893 -913.7979,1132.9019 -889.96875,1128.6562 C -879.01042,1128.6562 -868.05208,1128.6562 -857.09375,1128.6562 C -853.58004,1151.6568 -861.87025,1177.1423 -848.84375,1198.0312 C -837.4216,1216.0232 -814.21175,1221.3727 -794.25,1218.6562 C -665.24665,1217.9502 -536.18265,1220.1047 -407.21875,1217.4375 C -383.85111,1212.0964 -368.31503,1186.6244 -372.3125,1163.2188 C -372.26005,1151.9793 -372.29156,1140.7396 -372.28125,1129.5 C -349.3503,1125.8528 -323.98919,1134.2784 -303.125,1121.3125 C -284.95564,1109.9931 -279.54723,1086.6589 -282.28125,1066.625 C -282.98727,937.61123 -280.83289,808.53682 -283.5,679.5625 C -288.87891,656.16157 -314.29817,640.7075 -337.6875,644.6875 C -348.94783,644.63509 -360.20833,644.66652 -371.46875,644.65625 C -374.99273,621.53857 -366.6396,595.94395 -379.875,575 C -388.88508,561.62492 -404.92563,553.88156 -420.90625,554.46875 z"
         transform="matrix(0.8625892,0,0,0.8625892,-84.410963,121.86681)" />
    </g>
    <g
       id="g4278"
       transform="translate(1928.1302,2136.9398)"
       inkscape:export-xdpi="66.589592"
       inkscape:export-ydpi="66.589592">
      <use
         height="1052.3622"
         width="744.09448"
         transform="matrix(-1,0,0,1,528.04876,-680.69736)"
         id="use4212"
         xlink:href="#RightConnector"
         y="0"
         x="0"
         inkscape:export-xdpi="76.544846"
         inkscape:export-ydpi="76.544846" />
      <use
         height="1052.3622"
         width="744.09448"
         transform="matrix(0,1,1,0,-1570.8076,-363.51075)"
         id="use4216"
         xlink:href="#Screw1"
         y="0"
         x="0" />
      <use
         height="1052.3622"
         width="744.09448"
         transform="matrix(0,1,1,0,-1566.767,-940.04081)"
         id="use4218"
         xlink:href="#Screw2"
         y="0"
         x="0" />
      <use
         height="1052.3622"
         width="744.09448"
         transform="matrix(0,1,1,0,-1911.0532,-599.15425)"
         id="use4222"
         xlink:href="#Screw2"
         y="0"
         x="0" />
    </g>
    <g
       id="g4404"
       transform="translate(2554.7903,2197.5489)"
       inkscape:export-xdpi="66.589592"
       inkscape:export-ydpi="66.589592">
      <use
         height="1052.3622"
         width="744.09448"
         transform="translate(-3336.0349,-1363.0149)"
         id="use4286"
         xlink:href="#TConnector"
         y="0"
         x="0"
         inkscape:export-xdpi="66.589592"
         inkscape:export-ydpi="66.589592" />
      <use
         height="1052.3622"
         width="744.09448"
         transform="translate(-1318.2209,-462.58069)"
         id="use4290"
         xlink:href="#Screw1"
         y="0"
         x="0" />
      <use
         height="1052.3622"
         width="744.09448"
         transform="translate(-1908.15,-458.54009)"
         id="use4292"
         xlink:href="#Screw2"
         y="0"
         x="0" />
      <use
         height="1052.3622"
         width="744.09448"
         transform="translate(-1672.5066,-802.06405)"
         id="use4294"
         xlink:href="#Screw1"
         y="0"
         x="0" />
      <use
         height="1052.3622"
         width="744.09448"
         transform="translate(-1553.8644,-798.02355)"
         id="use4296"
         xlink:href="#Screw2"
         y="0"
         x="0" />
    </g>
    <g
       id="g4393"
       transform="translate(2562.8715,1963.4778)"
       inkscape:export-xdpi="66.5896"
       inkscape:export-ydpi="66.5896">
      <use
         height="1052.3622"
         width="744.09448"
         transform="translate(-2674.5117,-304.66581)"
         id="use4377"
         xlink:href="#QuadConnector"
         y="0"
         x="0"
         inkscape:export-xdpi="66.5896"
         inkscape:export-ydpi="66.5896" />
      <use
         height="1052.3622"
         width="744.09448"
         transform="translate(-1372.8957,612.94111)"
         id="use4381"
         xlink:href="#Screw1"
         y="0"
         x="0" />
      <use
         height="1052.3622"
         width="744.09448"
         transform="translate(-1962.8248,616.98171)"
         id="use4383"
         xlink:href="#Screw2"
         y="0"
         x="0" />
      <use
         height="1052.3622"
         width="744.09448"
         transform="translate(-1727.1814,258.65521)"
         id="use4385"
         xlink:href="#Screw1"
         y="0"
         x="0" />
      <use
         height="1052.3622"
         width="744.09448"
         transform="translate(-1608.5392,262.69541)"
         id="use4387"
         xlink:href="#Screw2"
         y="0"
         x="0" />
    </g>
    <rect
       inkscape:tile-y0="436.20233"
       inkscape:tile-x0="72.730972"
       y="490.97394"
       x="80.812187"
       height="101.01524"
       width="92.934029"
       id="use3423"
       style="fill:url(#radialGradient3243);fill-opacity:1.0;fill-rule:nonzero;stroke:#00002b;stroke-width:0.99999994000000003;stroke-linecap:butt;stroke-linejoin:miter;marker:none;marker-start:none;marker-mid:none;marker-end:none;stroke-miterlimit:4;stroke-dasharray:none;stroke-dashoffset:0;stroke-opacity:1;visibility:visible;display:inline;overflow:visible;enable-background:accumulate" />
    <rect
       inkscape:tile-y0="436.20233"
       inkscape:tile-x0="72.730972"
       y="602.0907"
       x="80.812187"
       height="101.01524"
       width="92.934029"
       id="use3425"
       style="fill:#ff9c04;fill-opacity:1;fill-rule:nonzero;stroke:#00002b;stroke-width:0.99999994;stroke-linecap:butt;stroke-linejoin:miter;marker:none;marker-start:none;marker-mid:none;marker-end:none;stroke-miterlimit:4;stroke-dasharray:none;stroke-dashoffset:0;stroke-opacity:1;visibility:visible;display:inline;overflow:visible;enable-background:accumulate" />
    <rect
       inkscape:tile-y0="436.20233"
       inkscape:tile-x0="72.730972"
       y="490.97394"
       x="183.03963"
       height="101.01524"
       width="92.934029"
       id="use3433"
       style="fill:url(#radialGradient3255);fill-opacity:1;fill-rule:nonzero;stroke:#00002b;stroke-width:0.99999994000000003;stroke-linecap:butt;stroke-linejoin:miter;marker:none;marker-start:none;marker-mid:none;marker-end:none;stroke-miterlimit:4;stroke-dasharray:none;stroke-dashoffset:0;stroke-opacity:1;visibility:visible;display:inline;overflow:visible;enable-background:accumulate" />
    <rect
       inkscape:tile-y0="436.20233"
       inkscape:tile-x0="72.730972"
       y="602.0907"
       x="183.03963"
       height="101.01524"
       width="92.934029"
       id="use3435"
       style="fill:#ff9c04;fill-opacity:1;fill-rule:nonzero;stroke:#00002b;stroke-width:0.99999994;stroke-linecap:butt;stroke-linejoin:miter;marker:none;marker-start:none;marker-mid:none;marker-end:none;stroke-miterlimit:4;stroke-dasharray:none;stroke-dashoffset:0;stroke-opacity:1;visibility:visible;display:inline;overflow:visible;enable-background:accumulate" />
    <rect
       inkscape:tile-y0="436.20233"
       inkscape:tile-x0="72.730972"
       y="490.97394"
       x="285.26706"
       height="101.01524"
       width="92.934029"
       id="use3443"
       style="fill:url(#radialGradient3229);fill-opacity:1;fill-rule:nonzero;stroke:#00002b;stroke-width:0.99999994000000003;stroke-linecap:butt;stroke-linejoin:miter;marker:none;marker-start:none;marker-mid:none;marker-end:none;stroke-miterlimit:4;stroke-dasharray:none;stroke-dashoffset:0;stroke-opacity:1;visibility:visible;display:inline;overflow:visible;enable-background:accumulate" />
    <rect
       inkscape:tile-y0="436.20233"
       inkscape:tile-x0="72.730972"
       y="602.0907"
       x="285.26706"
       height="101.01524"
       width="92.934029"
       id="use3445"
       style="fill:#ff9c04;fill-opacity:1;fill-rule:nonzero;stroke:#00002b;stroke-width:0.99999994;stroke-linecap:butt;stroke-linejoin:miter;marker:none;marker-start:none;marker-mid:none;marker-end:none;stroke-miterlimit:4;stroke-dasharray:none;stroke-dashoffset:0;stroke-opacity:1;visibility:visible;display:inline;overflow:visible;enable-background:accumulate" />
    <rect
       inkscape:tile-y0="436.20233"
       inkscape:tile-x0="72.730972"
       y="490.97394"
       x="387.49451"
       height="101.01524"
       width="92.934029"
       id="use3453"
       style="fill:url(#radialGradient3269);fill-opacity:1;fill-rule:nonzero;stroke:#00002b;stroke-width:0.99999994000000003;stroke-linecap:butt;stroke-linejoin:miter;marker:none;marker-start:none;marker-mid:none;marker-end:none;stroke-miterlimit:4;stroke-dasharray:none;stroke-dashoffset:0;stroke-opacity:1;visibility:visible;display:inline;overflow:visible;enable-background:accumulate" />
    <rect
       inkscape:tile-y0="436.20233"
       inkscape:tile-x0="72.730972"
       y="602.0907"
       x="387.49451"
       height="101.01524"
       width="92.934029"
       id="use3455"
       style="fill:#ff9c04;fill-opacity:1;fill-rule:nonzero;stroke:#00002b;stroke-width:0.99999994;stroke-linecap:butt;stroke-linejoin:miter;marker:none;marker-start:none;marker-mid:none;marker-end:none;stroke-miterlimit:4;stroke-dasharray:none;stroke-dashoffset:0;stroke-opacity:1;visibility:visible;display:inline;overflow:visible;enable-background:accumulate" />
    <rect
       inkscape:tile-y0="436.20233"
       inkscape:tile-x0="72.730972"
       y="490.97394"
       x="489.72195"
       height="101.01524"
       width="92.934029"
       id="use3463"
       style="fill:#c1bdb7;fill-opacity:1;fill-rule:nonzero;stroke:#00002b;stroke-width:0.99999994;stroke-linecap:butt;stroke-linejoin:miter;marker:none;marker-start:none;marker-mid:none;marker-end:none;stroke-miterlimit:4;stroke-dasharray:none;stroke-dashoffset:0;stroke-opacity:1;visibility:visible;display:inline;overflow:visible;enable-background:accumulate" />
    <rect
       inkscape:tile-y0="436.20233"
       inkscape:tile-x0="72.730972"
       y="602.0907"
       x="489.72195"
       height="101.01524"
       width="92.934029"
       id="use3465"
       style="fill:#ff9c04;fill-opacity:1;fill-rule:nonzero;stroke:#00002b;stroke-width:0.99999994;stroke-linecap:butt;stroke-linejoin:miter;marker:none;marker-start:none;marker-mid:none;marker-end:none;stroke-miterlimit:4;stroke-dasharray:none;stroke-dashoffset:0;stroke-opacity:1;visibility:visible;display:inline;overflow:visible;enable-background:accumulate" />
    <text
       xml:space="preserve"
       style="font-size:32px;font-style:normal;font-weight:bold;fill:#000000;fill-opacity:1;stroke:none;stroke-width:1px;stroke-linecap:butt;stroke-linejoin:miter;stroke-opacity:1;font-family:Courier New;-inkscape-font-specification:Courier New Bold"
       x="45.509171"
       y="426.08316"
       id="text3523"><tspan
         sodipodi:role="line"
         id="tspan3525"
         x="45.509171"
         y="426.08316"
         style="font-size:56px">Colors</tspan></text>
  </g>
</svg>
