<?xml version="1.0" encoding="UTF-8" standalone="no"?>
<!-- Created with Inkscape (http://www.inkscape.org/) -->
<svg
   xmlns:dc="http://purl.org/dc/elements/1.1/"
   xmlns:cc="http://web.resource.org/cc/"
   xmlns:rdf="http://www.w3.org/1999/02/22-rdf-syntax-ns#"
   xmlns:svg="http://www.w3.org/2000/svg"
   xmlns="http://www.w3.org/2000/svg"
   xmlns:xlink="http://www.w3.org/1999/xlink"
   xmlns:sodipodi="http://sodipodi.sourceforge.net/DTD/sodipodi-0.dtd"
   xmlns:inkscape="http://www.inkscape.org/namespaces/inkscape"
   width="192"
   height="64"
   id="svg2"
   sodipodi:version="0.32"
   inkscape:version="0.45.1"
   version="1.0"
   sodipodi:docbase="D:\Dateien\Desktop\Secret Maryo Chronicles\Drafts\Game\Frostbringer\level\ground\desert\bones"
   sodipodi:docname="rackabones.svg"
   inkscape:output_extension="org.inkscape.output.svg.inkscape">
  <defs
     id="defs4">
    <linearGradient
       id="linearGradient3745">
      <stop
         style="stop-color:#404040;stop-opacity:1;"
         offset="0"
         id="stop3747" />
      <stop
         style="stop-color:#bfbfbf;stop-opacity:1;"
         offset="1"
         id="stop3749" />
    </linearGradient>
    <linearGradient
       id="linearGradient5481">
      <stop
         style="stop-color:#8e681a;stop-opacity:1;"
         offset="0"
         id="stop5483" />
      <stop
         style="stop-color:#ffb213;stop-opacity:1;"
         offset="1"
         id="stop5485" />
    </linearGradient>
    <linearGradient
       inkscape:collect="always"
       xlink:href="#linearGradient5481"
       id="linearGradient5487"
       x1="1.5"
       y1="38"
       x2="26.5"
       y2="38"
       gradientUnits="userSpaceOnUse" />
    <linearGradient
       inkscape:collect="always"
       xlink:href="#linearGradient5481"
       id="linearGradient5489"
       x1="1.6129525"
       y1="38"
       x2="26.387049"
       y2="38"
       gradientUnits="userSpaceOnUse"
       gradientTransform="matrix(1.25,0,0,1.335062,5.5,-24.23235)" />
    <linearGradient
       inkscape:collect="always"
       xlink:href="#linearGradient5481"
       id="linearGradient5491"
       x1="1.5735986"
       y1="38"
       x2="26.426401"
       y2="38"
       gradientUnits="userSpaceOnUse"
       gradientTransform="matrix(1.565299,0,0,1,21.36941,-22.89394)" />
    <linearGradient
       inkscape:collect="always"
       xlink:href="#linearGradient5481"
       id="linearGradient5493"
       x1="1.6197655"
       y1="38"
       x2="26.380236"
       y2="38"
       gradientUnits="userSpaceOnUse"
       gradientTransform="matrix(1.729167,0,0,1,16.54167,-0.606061)" />
    <linearGradient
       inkscape:collect="always"
       xlink:href="#linearGradient5481"
       id="linearGradient5495"
       x1="1.629232"
       y1="38"
       x2="26.370768"
       y2="38"
       gradientUnits="userSpaceOnUse" />
    <radialGradient
       inkscape:collect="always"
       xlink:href="#linearGradient3745"
       id="radialGradient3751"
       cx="175.93791"
       cy="35.245361"
       fx="175.93791"
       fy="35.245361"
       r="12.062091"
       gradientTransform="matrix(1,0,0,2.424568,0,-50.20943)"
       gradientUnits="userSpaceOnUse" />
    <radialGradient
       inkscape:collect="always"
       xlink:href="#linearGradient3745"
       id="radialGradient3753"
       cx="159.9379"
       cy="32.245365"
       fx="159.9379"
       fy="32.245365"
       r="12.062089"
       gradientTransform="matrix(1,0,0,2.673282,0,-53.95558)"
       gradientUnits="userSpaceOnUse" />
    <radialGradient
       inkscape:collect="always"
       xlink:href="#linearGradient3745"
       id="radialGradient3755"
       cx="144.33109"
       cy="32.048775"
       fx="144.33109"
       fy="32.048775"
       r="12.06209"
       gradientTransform="matrix(1,0,0,2.656984,0,-53.10429)"
       gradientUnits="userSpaceOnUse" />
    <radialGradient
       inkscape:collect="always"
       xlink:href="#linearGradient3745"
       id="radialGradient3757"
       cx="127.9379"
       cy="32.245365"
       fx="127.9379"
       fy="32.245365"
       r="12.062089"
       gradientTransform="matrix(1,0,0,2.673282,0,-53.95558)"
       gradientUnits="userSpaceOnUse" />
    <radialGradient
       inkscape:collect="always"
       xlink:href="#linearGradient3745"
       id="radialGradient3759"
       cx="111.9379"
       cy="32.245365"
       fx="111.9379"
       fy="32.245365"
       r="12.062088"
       gradientTransform="matrix(1,0,0,2.673282,0,-53.95559)"
       gradientUnits="userSpaceOnUse" />
    <radialGradient
       inkscape:collect="always"
       xlink:href="#linearGradient3745"
       id="radialGradient3761"
       cx="95.937904"
       cy="32.245365"
       fx="95.937904"
       fy="32.245365"
       r="12.062085"
       gradientTransform="matrix(1,0,0,2.673283,0,-53.95561)"
       gradientUnits="userSpaceOnUse" />
    <radialGradient
       inkscape:collect="always"
       xlink:href="#linearGradient3745"
       id="radialGradient3763"
       cx="79.937912"
       cy="32.245365"
       fx="79.937912"
       fy="32.245365"
       r="12.062089"
       gradientTransform="matrix(1,0,0,2.673282,0,-53.95558)"
       gradientUnits="userSpaceOnUse" />
    <radialGradient
       inkscape:collect="always"
       xlink:href="#linearGradient3745"
       id="radialGradient3765"
       cx="63.937912"
       cy="32.245365"
       fx="63.937912"
       fy="32.245365"
       r="12.062089"
       gradientTransform="matrix(1,0,0,2.673282,0,-53.95558)"
       gradientUnits="userSpaceOnUse" />
    <radialGradient
       inkscape:collect="always"
       xlink:href="#linearGradient3745"
       id="radialGradient3767"
       cx="48.331085"
       cy="32.06662"
       fx="48.331085"
       fy="32.06662"
       r="12.062089"
       gradientTransform="matrix(1,0,0,2.658463,0,-53.18131)"
       gradientUnits="userSpaceOnUse" />
    <radialGradient
       inkscape:collect="always"
       xlink:href="#linearGradient3745"
       id="radialGradient3769"
       cx="34.331085"
       cy="32.06662"
       fx="34.331085"
       fy="32.06662"
       r="12.062089"
       gradientTransform="matrix(1,0,0,2.658463,0,-53.18131)"
       gradientUnits="userSpaceOnUse" />
    <radialGradient
       inkscape:collect="always"
       xlink:href="#linearGradient3745"
       id="radialGradient3771"
       cx="12.062089"
       cy="31.942137"
       fx="12.062089"
       fy="31.942137"
       r="12.062089"
       gradientTransform="matrix(1,0,0,2.657737,0,-52.95167)"
       gradientUnits="userSpaceOnUse" />
    <radialGradient
       inkscape:collect="always"
       xlink:href="#linearGradient3745"
       id="radialGradient3773"
       cx="19.081264"
       cy="34.90826"
       fx="19.081264"
       fy="34.90826"
       r="8.062089"
       gradientTransform="matrix(1,0,0,2.277311,0,-44.5887)"
       gradientUnits="userSpaceOnUse" />
    <radialGradient
       inkscape:collect="always"
       xlink:href="#linearGradient3745"
       id="radialGradient3775"
       cx="175.41937"
       cy="53.578449"
       fx="175.41937"
       fy="53.578449"
       r="16.580626"
       gradientTransform="matrix(1,0,0,0.577689,0,22.62676)"
       gradientUnits="userSpaceOnUse" />
  </defs>
  <sodipodi:namedview
     id="base"
     pagecolor="#000000"
     bordercolor="#666666"
     borderopacity="1.0"
     inkscape:pageopacity="0"
     inkscape:pageshadow="2"
     inkscape:zoom="5.53125"
     inkscape:cx="96"
     inkscape:cy="32"
     inkscape:document-units="px"
     inkscape:current-layer="layer2"
     width="192px"
     height="64px"
     inkscape:grid-points="true"
     gridtolerance="10000"
     showgrid="true"
     gridspacingx="2px"
     gridspacingy="2px"
     inkscape:window-width="1152"
     inkscape:window-height="788"
     inkscape:window-x="67"
     inkscape:window-y="100"
     showguides="true"
     inkscape:guide-bbox="true">
    <sodipodi:guide
       orientation="vertical"
       position="64"
       id="guide1934" />
    <sodipodi:guide
       orientation="vertical"
       position="128"
       id="guide1936" />
  </sodipodi:namedview>
  <metadata
     id="metadata7">
    <rdf:RDF>
      <cc:Work
         rdf:about="">
        <dc:format>image/svg+xml</dc:format>
        <dc:type
           rdf:resource="http://purl.org/dc/dcmitype/StillImage" />
        <dc:creator>
          <cc:Agent>
            <dc:title>Frostbringer</dc:title>
          </cc:Agent>
        </dc:creator>
        <cc:license
           rdf:resource="http://creativecommons.org/licenses/by-sa/2.5/" />
      </cc:Work>
      <cc:License
         rdf:about="http://creativecommons.org/licenses/by-sa/2.5/">
        <cc:permits
           rdf:resource="http://web.resource.org/cc/Reproduction" />
        <cc:permits
           rdf:resource="http://web.resource.org/cc/Distribution" />
        <cc:requires
           rdf:resource="http://web.resource.org/cc/Notice" />
        <cc:requires
           rdf:resource="http://web.resource.org/cc/Attribution" />
        <cc:permits
           rdf:resource="http://web.resource.org/cc/DerivativeWorks" />
        <cc:requires
           rdf:resource="http://web.resource.org/cc/ShareAlike" />
      </cc:License>
    </rdf:RDF>
  </metadata>
  <g
     inkscape:label="Ebene 1"
     inkscape:groupmode="layer"
     id="layer1"
     style="display:inline">
    <path
       style="fill:url(#radialGradient3775);fill-opacity:1;fill-rule:nonzero;stroke:black;stroke-width:0.44160259;stroke-linecap:round;stroke-linejoin:round;stroke-miterlimit:4;stroke-dashoffset:59.92000295;stroke-opacity:1"
       d="M 173.91627,56.61368 C 166.16014,56.00104 165.10236,38.414185 160.01376,46.210747 C 155.91872,52.485034 165.85839,62.005692 173.61453,62.618331 C 177.4926,62.924651 182.32271,63.498328 184.89041,61.499492 C 188.55233,58.648852 189.92654,57.573293 191.7792,51.996146 C 185.09157,57.496391 181.67241,57.226319 173.91627,56.61368 z "
       id="path2858"
       sodipodi:nodetypes="cssscs" />
    <path
       style="fill:url(#radialGradient3773);fill-opacity:1;fill-rule:nonzero;stroke:black;stroke-width:0.49310297;stroke-linecap:round;stroke-linejoin:round;stroke-miterlimit:4;stroke-dashoffset:59.92000295;stroke-opacity:1"
       d="M 17.159435,34.397464 C 17.159435,44.114063 32.68633,46.139277 24.526572,52 C 17.960004,56.716412 11.265728,44.114063 11.265728,34.397464 C 11.265728,29.539163 12.523214,22.38339 15.686009,20.315435 C 19.290845,17.958458 19.290845,17.958458 26,16.794929 C 17.159435,21.488938 17.159435,24.680864 17.159435,34.397464 z "
       id="path1963"
       sodipodi:nodetypes="cssscs" />
    <path
       style="fill:url(#radialGradient3771);fill-opacity:1;fill-rule:nonzero;stroke:black;stroke-width:0.79640466;stroke-linecap:round;stroke-linejoin:round;stroke-miterlimit:4;stroke-dashoffset:59.92000295;stroke-opacity:1"
       d="M 9.1939569,31.049333 C 9.1939569,48.032639 32.366251,51.57244 20.18865,61.816191 C 10.388723,70.059852 0.39820233,48.032639 0.39820233,31.049333 C 0.39820233,22.55768 2.2748717,10.050353 6.9950183,6.4358471 C 12.374865,2.3161684 12.374865,2.3161684 22.38759,0.2824756 C 9.1939569,8.4869706 9.1939569,14.066028 9.1939569,31.049333 z "
       id="path1938"
       sodipodi:nodetypes="cssscs" />
    <path
       style="fill:url(#radialGradient3769);fill-opacity:1;fill-rule:nonzero;stroke:black;stroke-width:0.79651225;stroke-linecap:round;stroke-linejoin:round;stroke-miterlimit:4;stroke-dashoffset:59.92000295;stroke-opacity:1"
       d="M 37.199206,31.173572 C 37.199206,48.161547 14.027019,51.702321 26.204563,61.948888 C 36.004445,70.194815 45.99492,48.161547 45.99492,31.173572 C 45.99492,22.679584 44.118259,10.168819 39.398134,6.5533191 C 34.018312,2.432508 34.018312,2.432508 24.005634,0.39825613 C 37.199206,8.6050065 37.199206,14.185598 37.199206,31.173572 z "
       id="path1947"
       sodipodi:nodetypes="cssscs" />
    <path
       style="fill:url(#radialGradient3767);fill-opacity:1;fill-rule:nonzero;stroke:black;stroke-width:0.79651225;stroke-linecap:round;stroke-linejoin:round;stroke-miterlimit:4;stroke-dashoffset:59.92000295;stroke-opacity:1"
       d="M 51.199206,31.173572 C 51.199206,48.161547 28.027019,51.702321 40.204563,61.948888 C 50.004445,70.194815 59.99492,48.161547 59.99492,31.173572 C 59.99492,22.679584 58.118259,10.168819 53.398134,6.5533193 C 48.018312,2.4325082 48.018312,2.4325082 38.005634,0.39825613 C 51.199206,8.6050065 51.199206,14.185598 51.199206,31.173572 z "
       id="path1949"
       sodipodi:nodetypes="cssscs" />
    <path
       style="fill:url(#radialGradient3765);fill-opacity:1;fill-rule:nonzero;stroke:black;stroke-width:0.79870564;stroke-linecap:round;stroke-linejoin:round;stroke-miterlimit:4;stroke-dashoffset:59.92000295;stroke-opacity:1"
       d="M 66.80576,31.347305 C 66.80576,48.430575 43.635752,51.991212 55.812151,62.295258 C 65.611112,70.587441 75.600647,48.430575 75.600647,31.347305 C 75.600647,22.80567 73.724163,10.224725 69.004482,6.5889433 C 63.625165,2.4450161 63.625165,2.4450161 53.613429,0.39935282 C 66.80576,8.6521396 66.80576,14.264036 66.80576,31.347305 z "
       id="path1953"
       sodipodi:nodetypes="cssscs" />
    <path
       style="fill:url(#radialGradient3763);fill-opacity:1;fill-rule:nonzero;stroke:black;stroke-width:0.79870564;stroke-linecap:round;stroke-linejoin:round;stroke-miterlimit:4;stroke-dashoffset:59.92000295;stroke-opacity:1"
       d="M 82.80576,31.347305 C 82.80576,48.430575 59.635752,51.991212 71.812151,62.295258 C 81.611112,70.587441 91.600647,48.430575 91.600647,31.347305 C 91.600647,22.80567 89.724161,10.224725 85.004482,6.5889431 C 79.625166,2.4450159 79.625166,2.4450159 69.613429,0.39935282 C 82.80576,8.6521396 82.80576,14.264036 82.80576,31.347305 z "
       id="path1955"
       sodipodi:nodetypes="cssscs" />
    <path
       style="fill:url(#radialGradient3761);fill-opacity:1;fill-rule:nonzero;stroke:black;stroke-width:0.79870564;stroke-linecap:round;stroke-linejoin:round;stroke-miterlimit:4;stroke-dashoffset:59.92000295;stroke-opacity:1"
       d="M 98.805765,31.347305 C 98.805765,48.430575 75.635752,51.991212 87.812151,62.295258 C 97.611108,70.587441 107.60064,48.430575 107.60064,31.347305 C 107.60064,22.80567 105.72416,10.224725 101.00448,6.5889431 C 95.62517,2.4450159 95.62517,2.4450159 85.613429,0.39935282 C 98.805765,8.6521396 98.805765,14.264036 98.805765,31.347305 z "
       id="path1957"
       sodipodi:nodetypes="cssscs" />
    <path
       style="fill:url(#radialGradient3759);fill-opacity:1;fill-rule:nonzero;stroke:black;stroke-width:0.79870564;stroke-linecap:round;stroke-linejoin:round;stroke-miterlimit:4;stroke-dashoffset:59.92000295;stroke-opacity:1"
       d="M 114.80576,31.347305 C 114.80576,48.430575 91.635752,51.991212 103.81214,62.295258 C 113.6111,70.587441 123.60064,48.430575 123.60064,31.347305 C 123.60064,22.80567 121.72416,10.224725 117.00448,6.5889431 C 111.62517,2.4450159 111.62517,2.4450159 101.61343,0.39935282 C 114.80576,8.6521396 114.80576,14.264036 114.80576,31.347305 z "
       id="path1959"
       sodipodi:nodetypes="cssscs" />
    <path
       style="fill:url(#radialGradient3757);fill-opacity:1;fill-rule:nonzero;stroke:black;stroke-width:0.79870564;stroke-linecap:round;stroke-linejoin:round;stroke-miterlimit:4;stroke-dashoffset:59.92000295;stroke-opacity:1"
       d="M 130.80576,31.347305 C 130.80576,48.430575 107.63575,51.991212 119.81214,62.295258 C 129.6111,70.587441 139.60064,48.430575 139.60064,31.347305 C 139.60064,22.80567 137.72416,10.224725 133.00448,6.5889433 C 127.62517,2.4450161 127.62517,2.4450161 117.61343,0.39935282 C 130.80576,8.6521396 130.80576,14.264036 130.80576,31.347305 z "
       id="path1961"
       sodipodi:nodetypes="cssscs" />
    <path
       style="fill:url(#radialGradient3755);fill-opacity:1;fill-rule:nonzero;stroke:black;stroke-width:0.79629296;stroke-linecap:round;stroke-linejoin:round;stroke-miterlimit:4;stroke-dashoffset:59.92000295;stroke-opacity:1"
       d="M 147.19924,31.156227 C 147.19924,48.134688 124.02683,51.673479 136.20448,61.914308 C 146.00446,70.155617 155.99503,48.134688 155.99503,31.156227 C 155.99503,22.666997 154.11835,10.163238 149.39818,6.5497626 C 144.01831,2.4312592 144.01831,2.4312592 134.00554,0.39814647 C 147.19924,8.6003007 147.19924,14.177767 147.19924,31.156227 z "
       id="path1965"
       sodipodi:nodetypes="cssscs" />
    <path
       style="fill:url(#radialGradient3753);fill-opacity:1;fill-rule:nonzero;stroke:black;stroke-width:0.79870564;stroke-linecap:round;stroke-linejoin:round;stroke-miterlimit:4;stroke-dashoffset:59.92000295;stroke-opacity:1"
       d="M 162.80576,31.347305 C 162.80576,48.430575 139.63575,51.991212 151.81214,62.295258 C 161.6111,70.587441 171.60064,48.430575 171.60064,31.347305 C 171.60064,22.80567 169.72416,10.224725 165.00448,6.5889431 C 159.62517,2.4450161 159.62517,2.4450161 149.61343,0.39935282 C 162.80576,8.6521396 162.80576,14.264036 162.80576,31.347305 z "
       id="path1967"
       sodipodi:nodetypes="cssscs" />
    <path
       style="fill:url(#radialGradient3751);fill-opacity:1;fill-rule:nonzero;stroke:black;stroke-width:0.76101732;stroke-linecap:round;stroke-linejoin:round;stroke-miterlimit:4;stroke-dashoffset:59.92000295;stroke-opacity:1"
       d="M 178.8104,34.431374 C 178.8104,49.915452 155.60295,53.142771 167.79901,62.482239 C 177.61381,69.998178 187.61949,49.915452 187.61949,34.431374 C 187.61949,26.689335 184,14 181.01267,11.990682 C 178.01642,9.9753662 174,6 168,6 C 174,10 178.8104,18.947297 178.8104,34.431374 z "
       id="path1969"
       sodipodi:nodetypes="cssscs" />
  </g>
  <g
     inkscape:groupmode="layer"
     id="layer2"
     inkscape:label="Auswahl"
     style="display:inline">
    <rect
       style="opacity:1;fill:black;fill-opacity:0;fill-rule:nonzero;stroke:none;stroke-width:0.75;stroke-linecap:round;stroke-linejoin:round;stroke-miterlimit:4;stroke-dasharray:none;stroke-dashoffset:59.92000295;stroke-opacity:1"
       id="rackabones_front"
       width="64"
       height="64"
       x="0"
       y="0"
       inkscape:label="#rect3778"
       inkscape:export-xdpi="180"
       inkscape:export-ydpi="180"
       inkscape:export-filename="N:\Dokumente und Einstellungen\FluXy\Desktop\rackabones_front.png" />
    <rect
       style="opacity:1;fill:black;fill-opacity:0;fill-rule:nonzero;stroke:none;stroke-width:0.75;stroke-linecap:round;stroke-linejoin:round;stroke-miterlimit:4;stroke-dasharray:none;stroke-dashoffset:59.92000295;stroke-opacity:1"
       id="rackabones_middle"
       width="64"
       height="64"
       x="64"
       y="0"
       inkscape:label="#rect4665"
       inkscape:export-xdpi="180"
       inkscape:export-ydpi="180"
       inkscape:export-filename="N:\Dokumente und Einstellungen\FluXy\Desktop\rackabones_middle.png" />
    <rect
       style="opacity:1;fill:black;fill-opacity:0;fill-rule:nonzero;stroke:none;stroke-width:0.75;stroke-linecap:round;stroke-linejoin:round;stroke-miterlimit:4;stroke-dasharray:none;stroke-dashoffset:59.92000295;stroke-opacity:1"
       id="rackabones_back"
       width="64"
       height="64"
       x="128"
       y="0"
       inkscape:label="#rect4667"
       inkscape:export-xdpi="180"
       inkscape:export-ydpi="180"
       inkscape:export-filename="N:\Dokumente und Einstellungen\FluXy\Desktop\rackabones_back.png" />
  </g>
</svg>
