<?xml version="1.0" encoding="UTF-8" standalone="no"?>
<!-- Created with Inkscape (http://www.inkscape.org/) -->
<svg
   xmlns:dc="http://purl.org/dc/elements/1.1/"
   xmlns:cc="http://creativecommons.org/ns#"
   xmlns:rdf="http://www.w3.org/1999/02/22-rdf-syntax-ns#"
   xmlns:svg="http://www.w3.org/2000/svg"
   xmlns="http://www.w3.org/2000/svg"
   xmlns:sodipodi="http://sodipodi.sourceforge.net/DTD/sodipodi-0.dtd"
   xmlns:inkscape="http://www.inkscape.org/namespaces/inkscape"
   width="128"
   height="64"
   id="svg2"
   sodipodi:version="0.32"
   inkscape:version="0.46"
   version="1.0"
   sodipodi:docbase="C:\Dokumente und Einstellungen\Frosty\Eigene Dateien\inkscape\smc"
   sodipodi:docname="cloud3.svg"
   inkscape:output_extension="org.inkscape.output.svg.inkscape"
   inkscape:export-filename="C:\Dokumente und Einstellungen\Frosty\Desktop\SMC\Drafts\Game\Frostbringer\overworld\gras\cloud3.png"
   inkscape:export-xdpi="90"
   inkscape:export-ydpi="90">
  <defs
     id="defs4">
    <inkscape:perspective
       sodipodi:type="inkscape:persp3d"
       inkscape:vp_x="0 : 16 : 1"
       inkscape:vp_y="0 : 1000 : 0"
       inkscape:vp_z="64 : 16 : 1"
       inkscape:persp3d-origin="32 : 10.666667 : 1"
       id="perspective36" />
    <filter
       inkscape:collect="always"
       x="-0.078506716"
       width="1.1570134"
       y="-0.15271954"
       height="1.3054391"
       id="filter5126">
      <feGaussianBlur
         inkscape:collect="always"
         stdDeviation="2.1814236"
         id="feGaussianBlur5128" />
    </filter>
    <clipPath
       clipPathUnits="userSpaceOnUse"
       id="clipPath5130">
      <path
         style="opacity:1;fill:#ffffff;fill-opacity:1;fill-rule:evenodd;stroke:#000000;stroke-width:1;stroke-linecap:round;stroke-linejoin:miter;marker:none;marker-start:none;marker-mid:none;marker-end:none;stroke-miterlimit:4;stroke-dasharray:none;stroke-dashoffset:0;stroke-opacity:1;visibility:visible;display:inline;overflow:visible;enable-background:accumulate"
         d="M 13.09375,42.21875 C 6.140898,42.21875 0.5,44.686987 0.5,47.75 C 0.5,50.789681 6.057666,53.275026 12.9375,53.3125 C 12.909376,53.540403 12.90625,53.766312 12.90625,54 C 12.90625,56.206654 14.177234,58.169825 16.1875,59.46875 C 16.132441,59.805537 16.09375,60.154522 16.09375,60.5 C 16.09375,66.193821 23.754173,70.8125 33.1875,70.8125 C 36.291534,70.8125 39.209029,70.311764 41.71875,69.4375 C 42.947608,70.648298 45.661733,71.499999 48.8125,71.5 C 53.115751,71.5 56.593751,69.935523 56.59375,68 C 56.59375,66.083762 53.181615,64.499623 48.9375,64.46875 C 49.792635,63.240902 50.28125,61.914733 50.28125,60.5 C 50.28125,59.950926 50.199621,59.40094 50.0625,58.875 C 50.293547,58.883919 50.515469,58.90625 50.75,58.90625 C 57.063941,58.90625 62.187501,55.60267 62.1875,51.5625 C 62.1875,47.52233 57.063941,44.25 50.75,44.25 C 44.796623,44.25 39.914742,47.186512 39.375,50.90625 C 37.455791,50.4556 35.369699,50.1875 33.1875,50.1875 C 31.963187,50.1875 30.776586,50.289579 29.625,50.4375 C 28.703195,49.197308 27.319267,48.204352 25.65625,47.59375 C 25.463181,44.604888 19.924714,42.21875 13.09375,42.21875 z"
         id="path5132" />
    </clipPath>
    <filter
       inkscape:collect="always"
       x="-0.37984458"
       width="1.7596892"
       y="-0.25507432"
       height="1.5101486"
       id="filter6167">
      <feGaussianBlur
         inkscape:collect="always"
         stdDeviation="0.71242271"
         id="feGaussianBlur6169" />
    </filter>
    <filter
       inkscape:collect="always"
       x="-0.28424773"
       width="1.5684954"
       y="-0.86444956"
       height="2.7288992"
       id="filter6171">
      <feGaussianBlur
         inkscape:collect="always"
         stdDeviation="0.99405536"
         id="feGaussianBlur6173" />
    </filter>
    <filter
       inkscape:collect="always"
       x="-0.22601171"
       width="1.4520234"
       y="-0.42426875"
       height="1.8485374"
       id="filter6175">
      <feGaussianBlur
         inkscape:collect="always"
         stdDeviation="0.71242271"
         id="feGaussianBlur6177" />
    </filter>
    <filter
       inkscape:collect="always"
       x="-0.69939578"
       width="2.3987916"
       y="-0.22970362"
       height="1.4594072"
       id="filter6179">
      <feGaussianBlur
         inkscape:collect="always"
         stdDeviation="0.71242271"
         id="feGaussianBlur6181" />
    </filter>
    <filter
       inkscape:collect="always"
       x="-0.31716737"
       width="1.6343348"
       y="-0.14904413"
       height="1.2980882"
       id="filter6183">
      <feGaussianBlur
         inkscape:collect="always"
         stdDeviation="0.82653809"
         id="feGaussianBlur6185" />
    </filter>
    <filter
       inkscape:collect="always"
       x="-0.2024136"
       width="1.4048272"
       y="-0.99404567"
       height="2.9880915"
       id="filter6187">
      <feGaussianBlur
         inkscape:collect="always"
         stdDeviation="0.490174"
         id="feGaussianBlur6189" />
    </filter>
    <filter
       inkscape:collect="always"
       x="-0.18355498"
       width="1.3671099"
       y="-0.23237026"
       height="1.4647405"
       id="filter6191">
      <feGaussianBlur
         inkscape:collect="always"
         stdDeviation="0.78767115"
         id="feGaussianBlur6193" />
    </filter>
    <filter
       inkscape:collect="always"
       x="-0.12760599"
       width="1.2552119"
       y="-0.22355121"
       height="1.4471024"
       id="filter6195">
      <feGaussianBlur
         inkscape:collect="always"
         stdDeviation="0.78767119"
         id="feGaussianBlur6197" />
    </filter>
  </defs>
  <sodipodi:namedview
     id="base"
     pagecolor="#ffffff"
     bordercolor="#666666"
     borderopacity="1.0"
     inkscape:pageopacity="0.0"
     inkscape:pageshadow="2"
     inkscape:zoom="1"
     inkscape:cx="26.628846"
     inkscape:cy="4.4263276"
     inkscape:document-units="px"
     inkscape:current-layer="layer1"
     width="64px"
     height="32px"
     inkscape:window-width="1024"
     inkscape:window-height="696"
     inkscape:window-x="-4"
     inkscape:window-y="-4"
     showgrid="false" />
  <metadata
     id="metadata7">
    <rdf:RDF>
      <cc:Work
         rdf:about="">
        <dc:format>image/svg+xml</dc:format>
        <dc:type
           rdf:resource="http://purl.org/dc/dcmitype/StillImage" />
      </cc:Work>
    </rdf:RDF>
  </metadata>
  <g
     inkscape:label="Ebene 1"
     inkscape:groupmode="layer"
     id="layer1">
    <path
       style="opacity:1;fill:#ffffff;fill-opacity:1;fill-rule:evenodd;stroke:#666666;stroke-width:3;stroke-linecap:round;stroke-linejoin:miter;marker:none;marker-start:none;marker-mid:none;marker-end:none;stroke-miterlimit:4;stroke-dasharray:none;stroke-dashoffset:0;stroke-opacity:1;visibility:visible;display:inline;overflow:visible;filter:url(#filter5126);enable-background:accumulate"
       d="M 13.09375,42.21875 C 6.140899,42.21875 0.5,44.686987 0.5,47.75 C 0.5,50.789681 6.057666,53.275026 12.9375,53.3125 C 12.909376,53.540403 12.90625,53.766312 12.90625,54 C 12.90625,56.206654 14.177234,58.169825 16.1875,59.46875 C 16.132441,59.805537 16.09375,60.154522 16.09375,60.5 C 16.09375,66.193821 23.754173,70.8125 33.1875,70.8125 C 36.291534,70.8125 39.209029,70.311764 41.71875,69.4375 C 42.947608,70.648298 45.661733,71.499999 48.8125,71.5 C 53.115751,71.5 56.593751,69.935523 56.59375,68 C 56.59375,66.083762 53.181615,64.499623 48.9375,64.46875 C 49.792635,63.240902 50.28125,61.914733 50.28125,60.5 C 50.28125,59.950926 50.199621,59.40094 50.0625,58.875 C 50.293547,58.883919 50.515469,58.90625 50.75,58.90625 C 57.063941,58.90625 62.187501,55.60267 62.1875,51.5625 C 62.1875,47.52233 57.063941,44.25 50.75,44.25 C 44.796623,44.25 39.914742,47.186513 39.375,50.90625 C 37.455791,50.4556 35.369699,50.1875 33.1875,50.1875 C 31.963187,50.1875 30.776586,50.289579 29.625,50.4375 C 28.703195,49.197309 27.319267,48.204352 25.65625,47.59375 C 25.463181,44.604889 19.924714,42.21875 13.09375,42.21875 z"
       id="path4131"
       clip-path="url(#clipPath5130)"
       transform="matrix(2.058698,0,0,2.058698,0.2876723,-84.458607)" />
    <path
       sodipodi:type="spiral"
       style="fill:none;fill-rule:evenodd;stroke:#666666;stroke-width:0.71473223;stroke-linecap:butt;stroke-linejoin:miter;stroke-miterlimit:4;stroke-dasharray:none;stroke-opacity:1;filter:url(#filter6195)"
       id="path2171"
       sodipodi:cx="13.821277"
       sodipodi:cy="13.344681"
       sodipodi:expansion="0.44"
       sodipodi:revolution="0.82280737"
       sodipodi:radius="6.5162816"
       sodipodi:argument="-5.6241531"
       sodipodi:t0="0"
       d="M 13.821277,13.344681 C 16.333514,15.290548 13.561247,17.248958 11.458823,16.394759 C 9.017476,15.402859 8.4631171,12.271845 9.6835275,10.139765 C 11.278797,7.3527997 15.025818,6.730439 17.652141,8.3987924 C 18.478594,8.9237913 19.174124,9.645346 19.676596,10.485107"
       transform="matrix(-1.7761223,1.299878,-2.5332769,-0.773522,83.393045,7.3604701)" />
    <path
       sodipodi:type="spiral"
       style="fill:none;fill-rule:evenodd;stroke:#666666;stroke-width:0.71473217;stroke-linecap:butt;stroke-linejoin:miter;stroke-miterlimit:4;stroke-dasharray:none;stroke-opacity:1;filter:url(#filter6191)"
       id="path4113"
       sodipodi:cx="13.821277"
       sodipodi:cy="13.344681"
       sodipodi:expansion="0.44"
       sodipodi:revolution="0.82280737"
       sodipodi:radius="6.5162816"
       sodipodi:argument="-5.6241531"
       sodipodi:t0="0.6719662"
       d="M 10.826057,8.7669287 C 13.354092,6.6142506 17.220524,7.2781457 19.215624,9.8151633 C 19.383303,10.028388 19.537319,10.252338 19.676596,10.485107"
       transform="matrix(-1.3068664,1.7709867,-2.6486774,1.8327423e-2,90.086774,-6.0562392)" />
    <path
       sodipodi:type="spiral"
       style="fill:none;fill-rule:evenodd;stroke:#666666;stroke-width:0.44478351;stroke-linecap:butt;stroke-linejoin:miter;stroke-miterlimit:4;stroke-dasharray:none;stroke-opacity:1;filter:url(#filter6187)"
       id="path4115"
       sodipodi:cx="13.821277"
       sodipodi:cy="13.344681"
       sodipodi:expansion="1.3"
       sodipodi:revolution="1.0691742"
       sodipodi:radius="3.7100759"
       sodipodi:argument="-5.6241531"
       sodipodi:t0="0.83750027"
       d="M 16.767478,13.350639 C 17.0499,14.584284 16.501688,15.869392 15.525061,16.640403"
       transform="matrix(-0.9541326,3.1219142,-4.3937636,1.746406,121.8803,-39.946724)" />
    <path
       sodipodi:type="spiral"
       style="opacity:1;fill:none;fill-opacity:1;fill-rule:evenodd;stroke:#666666;stroke-width:0.75;stroke-linecap:butt;stroke-linejoin:miter;marker:none;marker-start:none;marker-mid:none;marker-end:none;stroke-miterlimit:4;stroke-dasharray:none;stroke-dashoffset:0;stroke-opacity:1;visibility:visible;display:inline;overflow:visible;filter:url(#filter6183);enable-background:accumulate"
       id="path4117"
       sodipodi:cx="30.570213"
       sodipodi:cy="11.642553"
       sodipodi:expansion="1.3"
       sodipodi:revolution="1.0691742"
       sodipodi:radius="9.1735678"
       sodipodi:argument="-5.5675082"
       sodipodi:t0="0.69004965"
       d="M 33.947491,7.0962467 C 37.691268,8.5289872 38.789763,13.163932 37.213935,16.577921 C 36.576823,17.958207 35.557573,19.145457 34.314894,20.017021"
       transform="matrix(1.9856698,0.5434637,-0.5434637,1.9856698,-2.6801625,-13.506916)" />
    <path
       sodipodi:type="spiral"
       style="fill:none;fill-rule:evenodd;stroke:#666666;stroke-width:0.64645177;stroke-linecap:butt;stroke-linejoin:miter;stroke-miterlimit:4;stroke-dasharray:none;stroke-opacity:1;filter:url(#filter6175)"
       id="path4119"
       sodipodi:cx="13.821277"
       sodipodi:cy="13.344681"
       sodipodi:expansion="0.13"
       sodipodi:revolution="0.7687605"
       sodipodi:radius="6.4721656"
       sodipodi:argument="-5.6241531"
       sodipodi:t0="0.79089528"
       d="M 12.371004,7.2367313 C 14.471429,6.6618848 16.768507,7.2479941 18.358768,8.7294782"
       transform="matrix(1.7761223,1.5889747,2.5332769,-0.9455557,48.115394,15.217286)" />
    <path
       sodipodi:type="spiral"
       style="fill:none;fill-rule:evenodd;stroke:#666666;stroke-width:0.64645177;stroke-linecap:butt;stroke-linejoin:miter;stroke-miterlimit:4;stroke-dasharray:none;stroke-opacity:1;filter:url(#filter6179)"
       id="path4121"
       sodipodi:cx="13.821277"
       sodipodi:cy="13.344681"
       sodipodi:expansion="0.13"
       sodipodi:revolution="0.7687605"
       sodipodi:radius="6.4721656"
       sodipodi:argument="-5.6241531"
       sodipodi:t0="0.79089528"
       d="M 12.371004,7.2367313 C 14.471429,6.6618848 16.768507,7.2479941 18.358768,8.7294782"
       transform="matrix(-9.3008339e-2,2.3813443,2.3428668,1.3500155,65.43119,-18.70923)" />
    <path
       sodipodi:type="spiral"
       style="fill:none;fill-rule:evenodd;stroke:#666666;stroke-width:0.64645177;stroke-linecap:butt;stroke-linejoin:miter;stroke-miterlimit:4;stroke-dasharray:none;stroke-opacity:1;filter:url(#filter6167)"
       id="path4123"
       sodipodi:cx="13.821277"
       sodipodi:cy="13.344681"
       sodipodi:expansion="0.13"
       sodipodi:revolution="0.7687605"
       sodipodi:radius="6.4721656"
       sodipodi:argument="-5.6241531"
       sodipodi:t0="0.79089528"
       d="M 12.371004,7.2367313 C 14.471429,6.6618848 16.768507,7.2479941 18.358768,8.7294782"
       transform="matrix(0.6669134,2.2879418,2.6500458,0.5374239,50.641137,11.111037)" />
    <path
       sodipodi:type="spiral"
       style="fill:none;fill-rule:evenodd;stroke:#666666;stroke-width:0.90200502;stroke-linecap:butt;stroke-linejoin:miter;stroke-miterlimit:4;stroke-dasharray:none;stroke-opacity:1;filter:url(#filter6171)"
       id="path4127"
       sodipodi:cx="13.821277"
       sodipodi:cy="13.344681"
       sodipodi:expansion="0.13"
       sodipodi:revolution="0.7687605"
       sodipodi:radius="6.4721656"
       sodipodi:argument="-5.6241531"
       sodipodi:t0="0.79089528"
       d="M 12.371004,7.2367313 C 14.471429,6.6618848 16.768507,7.2479941 18.358768,8.7294782"
       transform="matrix(1.2209479,-0.1702043,0.5564605,-2.4774703,73.132789,73.000883)" />
  </g>
</svg>
