<?xml version="1.0" encoding="UTF-8" standalone="no"?>
<!-- Created with Inkscape (http://www.inkscape.org/) -->
<svg
   xmlns:dc="http://purl.org/dc/elements/1.1/"
   xmlns:cc="http://creativecommons.org/ns#"
   xmlns:rdf="http://www.w3.org/1999/02/22-rdf-syntax-ns#"
   xmlns:svg="http://www.w3.org/2000/svg"
   xmlns="http://www.w3.org/2000/svg"
   xmlns:xlink="http://www.w3.org/1999/xlink"
   xmlns:sodipodi="http://sodipodi.sourceforge.net/DTD/sodipodi-0.dtd"
   xmlns:inkscape="http://www.inkscape.org/namespaces/inkscape"
   width="64"
   height="64"
   id="svg2"
   sodipodi:version="0.32"
   inkscape:version="0.46"
   version="1.0"
   sodipodi:docbase="C:\Dokumente und Einstellungen\Frosty\Eigene Dateien\inkscape\smc"
   sodipodi:docname="cloud_baby.svg"
   inkscape:output_extension="org.inkscape.output.svg.inkscape"
   inkscape:export-filename="C:\Dokumente und Einstellungen\Frosty\Desktop\SMC\Drafts\Game\Frostbringer\overworld\gras\cloud_baby.png"
   inkscape:export-xdpi="90"
   inkscape:export-ydpi="90">
  <defs
     id="defs4">
    <inkscape:perspective
       sodipodi:type="inkscape:persp3d"
       inkscape:vp_x="0 : 16 : 1"
       inkscape:vp_y="0 : 1000 : 0"
       inkscape:vp_z="32 : 16 : 1"
       inkscape:persp3d-origin="16 : 10.666667 : 1"
       id="perspective37" />
    <linearGradient
       id="linearGradient13049">
      <stop
         style="stop-color:#3535ff;stop-opacity:1;"
         offset="0"
         id="stop13051" />
      <stop
         style="stop-color:#0000ff;stop-opacity:1;"
         offset="1"
         id="stop13053" />
    </linearGradient>
    <clipPath
       clipPathUnits="userSpaceOnUse"
       id="clipPath10034">
      <path
         style="opacity:1;fill:#ff0000;fill-opacity:1;fill-rule:evenodd;stroke:none;stroke-width:1.5;stroke-linecap:butt;stroke-linejoin:miter;marker:none;marker-start:none;marker-mid:none;marker-end:none;stroke-miterlimit:4;stroke-dasharray:none;stroke-dashoffset:0;stroke-opacity:1;visibility:visible;display:inline;overflow:visible;enable-background:accumulate"
         d="M 24.790554,39.388957 C 20.133681,39.388957 16.286202,42.639009 15.603054,46.857707 C 15.469725,46.84221 15.333168,46.826457 15.196804,46.826457 C 12.681022,46.826457 10.634304,49.539016 10.634304,52.857707 C 10.634304,54.517052 11.153133,56.019513 11.978054,57.107707 C 10.962115,58.451142 10.384304,60.025325 10.384304,61.701457 C 10.384304,66.661651 15.492178,70.701457 21.790554,70.701457 C 27.034952,70.701457 32.5253,68.357875 33.987586,62.426899 C 37.778938,64.902908 41.070118,59.872822 41.415553,54.670207 C 41.762316,49.447602 37.88967,45.170207 33.571804,45.170207 C 33.550248,45.170207 33.530817,45.169995 33.509304,45.170207 C 32.203564,41.804282 28.805099,39.388957 24.790554,39.388957 z"
         id="path10036"
         sodipodi:nodetypes="ccsscsscsscc" />
    </clipPath>
    <filter
       inkscape:collect="always"
       x="-0.1816994"
       width="1.3633988"
       y="-0.13264455"
       height="1.2652891"
       id="filter12054">
      <feGaussianBlur
         inkscape:collect="always"
         stdDeviation="0.53443787"
         id="feGaussianBlur12056" />
    </filter>
    <filter
       inkscape:collect="always"
       x="-0.14623828"
       width="1.2924767"
       y="-0.45298102"
       height="1.905962"
       id="filter12058">
      <feGaussianBlur
         inkscape:collect="always"
         stdDeviation="0.53443785"
         id="feGaussianBlur12060" />
    </filter>
    <radialGradient
       inkscape:collect="always"
       xlink:href="#linearGradient13049"
       id="radialGradient13055"
       cx="13.248098"
       cy="23.383913"
       fx="13.248098"
       fy="23.383913"
       r="4.2330489"
       gradientTransform="matrix(1.6861678,0,0,1.0568513,5.209098,18.490571)"
       gradientUnits="userSpaceOnUse" />
    <filter
       inkscape:collect="always"
       x="-0.11447653"
       width="1.2289531"
       y="-0.11352742"
       height="1.2270548"
       id="filter3176">
      <feGaussianBlur
         inkscape:collect="always"
         stdDeviation="1.4811781"
         id="feGaussianBlur3178" />
    </filter>
    <filter
       inkscape:collect="always"
       x="-0.2990534"
       width="1.5981067"
       y="-0.13457403"
       height="1.269148"
       id="filter4393">
      <feGaussianBlur
         inkscape:collect="always"
         stdDeviation="0.28999116"
         id="feGaussianBlur4395" />
    </filter>
    <filter
       inkscape:collect="always"
       x="-0.2990534"
       width="1.5981067"
       y="-0.13457403"
       height="1.269148"
       id="filter4397">
      <feGaussianBlur
         inkscape:collect="always"
         stdDeviation="0.28999116"
         id="feGaussianBlur4399" />
    </filter>
    <filter
       inkscape:collect="always"
       x="-0.13051"
       width="1.2610199"
       y="-0.0587295"
       height="1.1174591"
       id="filter4401">
      <feGaussianBlur
         inkscape:collect="always"
         stdDeviation="0.12655515"
         id="feGaussianBlur4403" />
    </filter>
    <filter
       inkscape:collect="always"
       x="-0.13051"
       width="1.2610199"
       y="-0.0587295"
       height="1.1174591"
       id="filter4405">
      <feGaussianBlur
         inkscape:collect="always"
         stdDeviation="0.12655515"
         id="feGaussianBlur4407" />
    </filter>
  </defs>
  <sodipodi:namedview
     id="base"
     pagecolor="#ffffff"
     bordercolor="#666666"
     borderopacity="1.0"
     inkscape:pageopacity="0.0"
     inkscape:pageshadow="2"
     inkscape:zoom="7.65625"
     inkscape:cx="32"
     inkscape:cy="32"
     inkscape:document-units="px"
     inkscape:current-layer="layer1"
     width="32px"
     height="32px"
     inkscape:window-width="1024"
     inkscape:window-height="696"
     inkscape:window-x="-4"
     inkscape:window-y="-4"
     showgrid="false" />
  <metadata
     id="metadata7">
    <rdf:RDF>
      <cc:Work
         rdf:about="">
        <dc:format>image/svg+xml</dc:format>
        <dc:type
           rdf:resource="http://purl.org/dc/dcmitype/StillImage" />
      </cc:Work>
    </rdf:RDF>
  </metadata>
  <g
     inkscape:label="Ebene 1"
     inkscape:groupmode="layer"
     id="layer1">
    <path
       style="opacity:1;fill:#ffffff;fill-opacity:1;fill-rule:evenodd;stroke:#4d4d4d;stroke-width:2.12045717;stroke-linecap:butt;stroke-linejoin:miter;marker:none;marker-start:none;marker-mid:none;marker-end:none;stroke-miterlimit:4;stroke-dasharray:none;stroke-dashoffset:0;stroke-opacity:1;visibility:visible;display:inline;overflow:visible;filter:url(#filter3176);enable-background:accumulate"
       d="M 25.15625,39.9375 C 20.499377,39.9375 16.651898,43.187552 15.96875,47.40625 C 15.835421,47.390753 15.698864,47.375 15.5625,47.375 C 13.046718,47.375 11,50.087559 11,53.40625 C 11,55.065595 11.518829,56.568056 12.34375,57.65625 C 11.327811,58.999685 10.75,60.573868 10.75,62.25 C 10.75,67.210194 15.857874,71.25 22.15625,71.25 C 27.400649,71.25 32.890996,68.906418 34.353283,62.975442 C 38.144635,65.451451 41.435814,60.421365 41.78125,55.21875 C 42.128013,49.996145 38.255367,45.71875 33.9375,45.71875 C 33.915945,45.71875 33.896514,45.718538 33.875,45.71875 C 32.569261,42.352825 29.170795,39.9375 25.15625,39.9375 z"
       id="path2160"
       sodipodi:nodetypes="ccsscsscsscc"
       clip-path="url(#clipPath10034)"
       transform="matrix(2.0002411,0,0,1.934671,-19.531281,-74.985449)" />
    <path
       sodipodi:type="spiral"
       style="fill:none;fill-rule:evenodd;stroke:#4d4d4d;stroke-width:0.79517138;stroke-linecap:round;stroke-linejoin:miter;stroke-miterlimit:4;stroke-dasharray:none;stroke-opacity:1;filter:url(#filter12058)"
       id="path2169"
       sodipodi:cx="8.4686871"
       sodipodi:cy="11.442424"
       sodipodi:expansion="1.84"
       sodipodi:revolution="1.4012214"
       sodipodi:radius="6.0476832"
       sodipodi:argument="-12.199874"
       sodipodi:t0="0.7919482"
       d="M 10.408141,14.868839 C 8.4312582,16.797617 5.217934,16.203851 3.4890503,14.261049 C 3.1411871,13.870144 2.8476068,13.431676 2.6152677,12.962935"
       transform="matrix(-1.9520442,-0.4221428,-0.43645,1.8880542,31.638024,12.428418)" />
    <path
       sodipodi:type="arc"
       style="opacity:1;fill:#000000;fill-opacity:1;fill-rule:evenodd;stroke:none;stroke-width:0.13242319;stroke-linecap:butt;stroke-linejoin:miter;marker:none;marker-start:none;marker-mid:none;marker-end:none;stroke-miterlimit:4;stroke-dasharray:none;stroke-dashoffset:0;stroke-opacity:1;visibility:visible;display:inline;overflow:visible;filter:url(#filter4405);enable-background:accumulate"
       id="path4114"
       sodipodi:cx="12.670707"
       sodipodi:cy="9.69697"
       sodipodi:rx="1.1636363"
       sodipodi:ry="2.5858586"
       d="M 13.834343,9.69697 A 1.1636363,2.5858586 0 1 1 11.50707,9.69697 A 1.1636363,2.5858586 0 1 1 13.834343,9.69697 z"
       transform="matrix(3.4428488,0,0,3.3391048,-19.80118,-10.585675)" />
    <path
       sodipodi:type="arc"
       style="opacity:1;fill:#000000;fill-opacity:1;fill-rule:evenodd;stroke:none;stroke-width:0.13242319;stroke-linecap:butt;stroke-linejoin:miter;marker:none;marker-start:none;marker-mid:none;marker-end:none;stroke-miterlimit:4;stroke-dasharray:none;stroke-dashoffset:0;stroke-opacity:1;visibility:visible;display:inline;overflow:visible;filter:url(#filter4401);enable-background:accumulate"
       id="path6058"
       sodipodi:cx="12.670707"
       sodipodi:cy="9.69697"
       sodipodi:rx="1.1636363"
       sodipodi:ry="2.5858586"
       d="M 13.834343,9.69697 A 1.1636363,2.5858586 0 1 1 11.50707,9.69697 A 1.1636363,2.5858586 0 1 1 13.834343,9.69697 z"
       transform="matrix(-3.4428488,0,0,3.3391048,79.909286,-10.369815)" />
    <path
       sodipodi:type="arc"
       style="opacity:1;fill:#ffffff;fill-opacity:1;fill-rule:evenodd;stroke:none;stroke-width:0.43370333;stroke-linecap:butt;stroke-linejoin:miter;marker:none;marker-start:none;marker-mid:none;marker-end:none;stroke-miterlimit:4;stroke-dasharray:none;stroke-dashoffset:0;stroke-opacity:1;visibility:visible;display:inline;overflow:visible;filter:url(#filter4397);enable-background:accumulate"
       id="path6060"
       sodipodi:cx="12.670707"
       sodipodi:cy="9.69697"
       sodipodi:rx="1.1636363"
       sodipodi:ry="2.5858586"
       d="M 13.834343,9.69697 A 1.1636363,2.5858586 0 1 1 11.50707,9.69697 A 1.1636363,2.5858586 0 1 1 13.834343,9.69697 z"
       transform="matrix(-1.3756781,0,0,1.5915537,52.218714,5.5109977)" />
    <path
       style="fill:url(#radialGradient13055);fill-opacity:1;fill-rule:evenodd;stroke:none;stroke-width:0.25;stroke-linecap:butt;stroke-linejoin:miter;marker:none;marker-start:none;marker-mid:none;marker-end:none;stroke-miterlimit:4;stroke-dashoffset:0;stroke-opacity:1;visibility:visible;display:inline;overflow:visible;enable-background:accumulate"
       d="M 24.675048,39.481473 C 23.904769,39.566665 23.462116,40.127253 23.462116,41.557082 C 23.462116,45.36996 24.873868,48.415607 30.553095,48.415611 C 36.039307,48.415611 37.737374,45.36996 37.737374,41.557082 C 37.737374,37.744201 34.495201,40.383911 30.553095,40.383911 C 28.089278,40.383911 25.958842,39.339491 24.675048,39.481473 z M 25.694964,40.807238 C 26.147775,40.807238 26.534685,41.181466 26.534685,41.619432 C 26.534685,42.057398 26.147775,42.341382 25.694964,42.341382 C 25.242153,42.341382 24.855244,42.057398 24.855244,41.619432 C 24.855244,41.181466 25.242153,40.807238 25.694964,40.807238 z M 35.42084,41.037497 C 35.873649,41.037497 36.260558,41.411723 36.260558,41.849689 C 36.260558,42.287656 35.873649,42.661885 35.42084,42.661885 C 34.968031,42.66189 34.581118,42.28766 34.581118,41.849689 C 34.581118,41.411723 34.968027,41.037497 35.42084,41.037497 z"
       id="path6062"
       sodipodi:nodetypes="cssssccsssccsssc" />
    <path
       style="fill:#00ffff;fill-opacity:1;fill-rule:evenodd;stroke:none;stroke-width:0.25;stroke-linecap:butt;stroke-linejoin:miter;marker:none;marker-start:none;marker-mid:none;marker-end:none;stroke-miterlimit:4;stroke-dashoffset:0;stroke-opacity:1;visibility:visible;display:inline;overflow:visible;enable-background:accumulate"
       d="M 29.215538,42.152731 C 27.847242,42.135407 26.859453,42.243252 26.859453,43.769977 C 26.859453,45.805608 28.630969,47.445538 30.735589,47.445538 C 32.840212,47.445538 34.535721,45.805608 34.535721,43.769977 C 34.535721,41.734347 32.840212,42.152735 30.735589,42.152731 C 30.209435,42.152731 29.67163,42.158503 29.215538,42.152731 z M 28.759521,42.814331 C 29.257537,42.703024 29.976192,42.814331 30.735589,42.814331 C 32.254389,42.814331 33.471686,42.521496 33.471686,43.990511 C 33.471686,45.45952 32.254389,46.636917 30.735589,46.636917 C 29.216787,46.636917 27.92349,45.45952 27.92349,43.990511 C 27.92349,43.256008 28.261509,42.925641 28.759521,42.814331 z"
       id="path7042" />
    <path
       style="fill:#008080;fill-opacity:1;fill-rule:evenodd;stroke:none;stroke-width:0.25;stroke-linecap:butt;stroke-linejoin:miter;marker:none;marker-start:none;marker-mid:none;marker-end:none;stroke-miterlimit:4;stroke-dashoffset:0;stroke-opacity:1;visibility:visible;display:inline;overflow:visible;enable-background:accumulate"
       d="M 31.555986,42.520022 C 31.58504,43.142268 31.152511,43.138229 30.65536,43.138229 C 30.158215,43.138229 29.747431,43.100044 29.754737,42.520022 C 29.763676,41.827436 30.158215,41.901818 30.65536,41.901818 C 31.152511,41.901818 31.570515,41.841577 31.555986,42.520022 z"
       id="path7048"
       sodipodi:nodetypes="csssc" />
    <path
       sodipodi:type="spiral"
       style="fill:none;fill-rule:evenodd;stroke:#4d4d4d;stroke-width:0.79517138;stroke-linecap:round;stroke-linejoin:miter;stroke-miterlimit:4;stroke-dasharray:none;stroke-opacity:1;filter:url(#filter12054)"
       id="path7051"
       sodipodi:cx="8.4686871"
       sodipodi:cy="11.442424"
       sodipodi:expansion="1.84"
       sodipodi:revolution="1.4012214"
       sodipodi:radius="6.0476832"
       sodipodi:argument="-12.199874"
       sodipodi:t0="0"
       d="M 8.4686871,11.442424 C 8.5784408,11.484551 8.4175125,11.657646 8.3777942,11.679224 C 8.0128201,11.877505 7.6723858,11.429309 7.6209193,11.117018 C 7.4781823,10.250909 8.3902633,9.6591675 9.1548592,9.6547643 C 10.679455,9.6459845 11.617364,11.218834 11.503781,12.607409 C 11.31241,14.946943 8.887294,16.316895 6.7122412,16.018429 C 4.9285423,15.773665 3.4059639,14.558153 2.6152677,12.962935"
       transform="matrix(-0.1021947,-1.9321445,-1.9976287,9.8844639e-2,73.479773,48.649446)" />
    <path
       sodipodi:type="arc"
       style="opacity:1;fill:#ffffff;fill-opacity:1;fill-rule:evenodd;stroke:none;stroke-width:0.43370333;stroke-linecap:butt;stroke-linejoin:miter;marker:none;marker-start:none;marker-mid:none;marker-end:none;stroke-miterlimit:4;stroke-dasharray:none;stroke-dashoffset:0;stroke-opacity:1;visibility:visible;display:inline;overflow:visible;filter:url(#filter4393);enable-background:accumulate"
       id="path3150"
       sodipodi:cx="12.670707"
       sodipodi:cy="9.69697"
       sodipodi:rx="1.1636363"
       sodipodi:ry="2.5858586"
       d="M 13.834343,9.69697 A 1.1636363,2.5858586 0 1 1 11.50707,9.69697 A 1.1636363,2.5858586 0 1 1 13.834343,9.69697 z"
       transform="matrix(-1.3756781,0,0,1.5915537,42.566067,5.6386034)" />
  </g>
</svg>
