<?xml version="1.0" encoding="UTF-8" standalone="no"?>
<!-- Created with Inkscape (http://www.inkscape.org/) -->
<svg
   xmlns:dc="http://purl.org/dc/elements/1.1/"
   xmlns:cc="http://creativecommons.org/ns#"
   xmlns:rdf="http://www.w3.org/1999/02/22-rdf-syntax-ns#"
   xmlns:svg="http://www.w3.org/2000/svg"
   xmlns="http://www.w3.org/2000/svg"
   xmlns:xlink="http://www.w3.org/1999/xlink"
   xmlns:sodipodi="http://sodipodi.sourceforge.net/DTD/sodipodi-0.dtd"
   xmlns:inkscape="http://www.inkscape.org/namespaces/inkscape"
   width="64"
   height="64"
   id="svg2"
   sodipodi:version="0.32"
   inkscape:version="0.46"
   version="1.0"
   sodipodi:docbase="C:\Dokumente und Einstellungen\Frosty\Eigene Dateien\inkscape\smc"
   sodipodi:docname="cloud2.svg"
   inkscape:output_extension="org.inkscape.output.svg.inkscape"
   inkscape:export-filename="C:\Dokumente und Einstellungen\Frosty\Desktop\SMC\Drafts\Game\Frostbringer\overworld\gras\cloud2.png"
   inkscape:export-xdpi="90"
   inkscape:export-ydpi="90">
  <defs
     id="defs4">
    <inkscape:perspective
       sodipodi:type="inkscape:persp3d"
       inkscape:vp_x="0 : 8 : 1"
       inkscape:vp_y="0 : 1000 : 0"
       inkscape:vp_z="16 : 8 : 1"
       inkscape:persp3d-origin="8 : 5.3333333 : 1"
       id="perspective69" />
    <linearGradient
       id="linearGradient16913">
      <stop
         style="stop-color:#c1c1c1;stop-opacity:1;"
         offset="0"
         id="stop16915" />
      <stop
         style="stop-color:#707070;stop-opacity:1;"
         offset="1"
         id="stop16917" />
    </linearGradient>
    <linearGradient
       id="linearGradient16905">
      <stop
         style="stop-color:#9f9f9f;stop-opacity:1;"
         offset="0"
         id="stop16907" />
      <stop
         style="stop-color:#525252;stop-opacity:1;"
         offset="1"
         id="stop16909" />
    </linearGradient>
    <linearGradient
       id="linearGradient16897">
      <stop
         style="stop-color:#8c8c8c;stop-opacity:1;"
         offset="0"
         id="stop16899" />
      <stop
         style="stop-color:#4d4d4d;stop-opacity:1;"
         offset="1"
         id="stop16901" />
    </linearGradient>
    <linearGradient
       id="linearGradient7101">
      <stop
         id="stop7103"
         offset="0"
         style="stop-color:#3d9900;stop-opacity:1;" />
      <stop
         id="stop7105"
         offset="1"
         style="stop-color:#2f7700;stop-opacity:1;" />
    </linearGradient>
    <linearGradient
       id="linearGradient14556">
      <stop
         style="stop-color:#909090;stop-opacity:1;"
         offset="0"
         id="stop14558" />
      <stop
         style="stop-color:#252525;stop-opacity:1;"
         offset="1"
         id="stop14560" />
    </linearGradient>
    <linearGradient
       id="linearGradient14548">
      <stop
         style="stop-color:#a2a2a2;stop-opacity:1;"
         offset="0"
         id="stop14550" />
      <stop
         style="stop-color:#424242;stop-opacity:1;"
         offset="1"
         id="stop14552" />
    </linearGradient>
    <linearGradient
       id="linearGradient13563">
      <stop
         style="stop-color:#585858;stop-opacity:1;"
         offset="0"
         id="stop13565" />
      <stop
         style="stop-color:#181818;stop-opacity:1;"
         offset="1"
         id="stop13567" />
    </linearGradient>
    <clipPath
       clipPathUnits="userSpaceOnUse"
       id="clipPath10508">
      <path
         style="opacity:1;fill:#008000;fill-opacity:1;fill-rule:evenodd;stroke:#000000;stroke-width:0.25;stroke-linecap:butt;stroke-linejoin:miter;marker:none;marker-start:none;marker-mid:none;marker-end:none;stroke-miterlimit:4;stroke-dasharray:none;stroke-dashoffset:3.2;stroke-opacity:1;visibility:visible;display:inline;overflow:visible;enable-background:accumulate"
         d="M 4.8466856,7.5649309 C 3.936722,7.5649309 3.1904352,7.9984079 3.1904356,8.5336809 C 3.1904356,8.8260649 3.4359022,9.0745939 3.7841856,9.2524309 C 3.6109375,9.4487089 3.4617991,9.6689529 3.4404356,9.9399309 C 3.2027098,10.188481 3.0654357,10.486543 3.0654356,10.814931 C 3.0654356,11.653525 3.9726131,12.346181 5.0966856,12.346181 C 6.2207583,12.346181 7.1279358,11.653525 7.1279356,10.814931 C 7.2639538,10.842223 7.4191792,10.846181 7.5654356,10.846181 C 8.5467689,10.846181 9.3466857,10.21159 9.3466856,9.4086809 C 9.3466856,8.6057719 8.5467689,7.9399309 7.5654356,7.9399309 C 7.1361023,7.9399309 6.7477793,8.0761269 6.4404356,8.2836809 C 6.2484177,7.8733549 5.6049888,7.5649309 4.8466856,7.5649309 z"
         id="path10510" />
    </clipPath>
    <clipPath
       clipPathUnits="userSpaceOnUse"
       id="clipPath11561">
      <path
         style="opacity:1;fill:#008000;fill-opacity:1;fill-rule:evenodd;stroke:#000000;stroke-width:0.25;stroke-linecap:butt;stroke-linejoin:miter;marker:none;marker-start:none;marker-mid:none;marker-end:none;stroke-miterlimit:4;stroke-dasharray:none;stroke-dashoffset:3.2;stroke-opacity:1;visibility:visible;display:inline;overflow:visible;enable-background:accumulate"
         d="M 0.5478219,19.645581 C -0.2357579,19.645581 -0.9039989,19.931065 -1.2334281,20.333081 C -1.9624161,20.392418 -2.5459283,20.829108 -2.5459281,21.395581 C -2.5459281,21.590475 -2.4451006,21.768066 -2.3271781,21.926831 C -2.7903059,22.117834 -3.1396779,22.430287 -3.1396779,22.801831 C -3.1396779,23.157201 -2.8192589,23.451704 -2.3896781,23.645581 C -2.5698505,23.838443 -2.6709279,24.061483 -2.6709279,24.301831 C -2.6709279,25.015528 -1.763751,25.614332 -0.6396781,25.614331 C -0.5206586,25.614331 -0.4093674,25.595541 -0.2959281,25.583081 C 0.1012923,25.910235 0.6832572,26.114331 1.3603219,26.114331 C 1.6697929,26.114331 1.9689637,26.099241 2.2353219,26.020581 C 2.4047495,26.458262 2.972481,26.770581 3.6415719,26.770581 C 4.444481,26.770581 5.0790719,26.310289 5.0790719,25.739331 C 5.0790719,25.168373 4.444481,24.708081 3.6415719,24.708081 C 3.6085254,24.708081 3.5803211,24.706536 3.5478219,24.708081 C 3.5481601,24.697508 3.5478219,24.687458 3.5478219,24.676831 C 3.5478219,24.175013 3.1551704,23.719558 2.5790719,23.458081 C 2.8944607,23.184811 3.0790719,22.819049 3.0790719,22.426831 C 3.0790719,21.978147 2.8228831,21.585195 2.4228219,21.301831 C 2.4992334,21.171871 2.5478219,21.041614 2.5478219,20.895581 C 2.5478219,20.217569 1.6540523,19.645581 0.5478219,19.645581 z"
         id="path11563" />
    </clipPath>
    <clipPath
       clipPathUnits="userSpaceOnUse"
       id="clipPath12574">
      <path
         style="opacity:1;fill:#008000;fill-opacity:1;fill-rule:evenodd;stroke:#000000;stroke-width:0.25;stroke-linecap:butt;stroke-linejoin:miter;marker:none;marker-start:none;marker-mid:none;marker-end:none;stroke-miterlimit:4;stroke-dasharray:none;stroke-dashoffset:3.2;stroke-opacity:1;visibility:visible;display:inline;overflow:visible;enable-background:accumulate"
         d="M 36.626894,27.501199 C 35.867596,27.501199 35.206293,27.796825 34.876894,28.219949 C 34.692733,28.118411 34.481996,28.032449 34.251894,28.032449 C 33.743385,28.032449 33.313439,28.313949 33.126894,28.719949 C 32.994249,28.690058 32.863179,28.657449 32.720644,28.657449 C 31.757153,28.657449 30.970643,29.390328 30.970644,30.282449 C 30.970644,30.72851 31.154717,31.146174 31.470644,31.438699 C 30.234445,31.544466 29.283144,31.986226 29.283144,32.532449 C 29.283144,32.934535 29.80516,33.269296 30.564394,33.469949 C 30.388455,33.593779 30.251894,33.719649 30.251894,33.876199 C 30.251894,34.32226 31.078625,34.688699 32.095644,34.688699 C 32.73128,34.688699 33.26444,34.528661 33.595644,34.313699 C 33.933331,34.463518 34.337797,34.563699 34.783144,34.563699 C 35.925059,34.563699 36.845645,33.964896 36.845644,33.251199 C 36.845644,32.883645 36.615048,32.549175 36.220644,32.313699 C 37.150784,32.097752 37.814395,31.513194 37.814394,30.782449 C 37.814394,30.505085 37.704207,30.230647 37.533144,30.001199 C 38.155134,29.778201 38.595643,29.351553 38.595644,28.844949 C 38.595644,28.11341 37.715281,27.501199 36.626894,27.501199 z"
         id="path12576" />
    </clipPath>
    <clipPath
       clipPathUnits="userSpaceOnUse"
       id="clipPath4290">
      <path
         style="opacity:1;fill:#008000;fill-opacity:1;fill-rule:evenodd;stroke:#000000;stroke-width:0.25;stroke-linecap:butt;stroke-linejoin:miter;marker:none;marker-start:none;marker-mid:none;marker-end:none;stroke-miterlimit:4;stroke-dasharray:none;stroke-dashoffset:3.2;stroke-opacity:1;visibility:visible;display:inline;overflow:visible;enable-background:accumulate"
         d="M 1.2696654,11.535322 C 0.056380335,11.535322 -0.94908468,12.174347 -0.94908468,12.941572 C -0.94908468,13.047065 -0.92185268,13.155287 -0.88658468,13.254072 C -1.7139647,13.488177 -2.2928347,13.987717 -2.2928347,14.566572 C -2.2928347,15.369481 -1.1801087,16.004071 0.17591534,16.004072 C 1.102932,16.004072 1.882687,15.703291 2.3009154,15.254072 C 2.6408914,15.314484 3.0046617,15.347822 3.3946654,15.347822 C 5.0004836,15.347822 6.3009153,14.793676 6.3009154,14.097822 C 6.3009154,13.411098 5.0339072,12.862374 3.4571654,12.847822 C 3.3806725,12.124361 2.4330132,11.535322 1.2696654,11.535322 z"
         id="path4292" />
    </clipPath>
    <clipPath
       clipPathUnits="userSpaceOnUse"
       id="clipPath9098">
      <path
         style="opacity:1;fill:#999999;fill-opacity:1;fill-rule:evenodd;stroke:#2f2f2f;stroke-width:0.5;stroke-linecap:butt;stroke-linejoin:miter;marker:none;marker-start:none;marker-mid:none;marker-end:none;stroke-miterlimit:4;stroke-dasharray:none;stroke-dashoffset:3.2;stroke-opacity:1;visibility:visible;display:inline;overflow:visible;enable-background:accumulate"
         d="M 9.7808085,75.239899 C 8.8193995,77.929909 8.7727885,81.39364 7.7495585,81.208649 C 7.5554195,83.648654 7.6352695,84.956141 7.4683085,86.896145 C 9.5730575,94.724295 20.482109,94.666385 27.312058,95.083645 C 38.237476,95.083645 47.093308,91.739805 47.093308,87.614895 C 46.875268,84.724045 46.657327,83.869595 46.718308,82.427399 C 45.066969,82.398992 45.749106,77.670766 45.343308,75.458649 C 41.045021,86.505365 14.6927,87.499705 9.4058085,77.802399 C 9.4065075,76.661256 9.6157105,75.885341 9.9058085,75.239899 L 9.7808085,75.239899 z"
         id="path9100" />
    </clipPath>
    <clipPath
       clipPathUnits="userSpaceOnUse"
       id="clipPath12028">
      <path
         style="opacity:1;fill:#4d4d4d;fill-opacity:1;fill-rule:evenodd;stroke:#000000;stroke-width:0.5;stroke-linecap:butt;stroke-linejoin:miter;marker:none;marker-start:none;marker-mid:none;marker-end:none;stroke-miterlimit:4;stroke-dasharray:none;stroke-dashoffset:3.2;stroke-opacity:1;visibility:visible;display:inline;overflow:visible;enable-background:accumulate"
         d="M 10.597917,77.843749 C 9.9805433,81.280789 10.497334,87.006598 8.6291669,86.78125 C 7.4227429,90.741912 9.2039129,94.77026 7.3479169,94.9375 C 7.0703809,97.162891 7.4744019,99.037556 7.4416669,100.59375 C 7.4416659,102.69448 12.00668,103.75 17.097917,103.75 C 22.189154,103.75 26.316665,102.66323 26.316667,100.5625 C 26.316666,100.32616 25.745594,96.079853 25.597917,95.09375 C 24.268038,95.344663 25.396524,90.381794 24.472917,86.46875 C 23.049971,86.537761 23.767352,81.097054 23.410417,78.406249 L 23.254167,78.406249 C 22.46871,79.371293 19.994284,80.062499 17.066667,80.062499 C 13.601259,80.0625 10.744086,79.081244 10.597917,77.843749 z"
         id="path12030" />
    </clipPath>
    <clipPath
       clipPathUnits="userSpaceOnUse"
       id="clipPath15924">
      <path
         style="opacity:1;fill:none;fill-opacity:1;fill-rule:evenodd;stroke:#3c3c3c;stroke-width:0.5;stroke-linecap:butt;stroke-linejoin:miter;marker:none;marker-start:none;marker-mid:none;marker-end:none;stroke-miterlimit:4;stroke-dasharray:none;stroke-dashoffset:3.2;stroke-opacity:1;visibility:visible;display:inline;overflow:visible;enable-background:accumulate"
         d="M 15.437614,82.214098 C 14.78721,82.938609 14.184579,85.900522 12.656325,85.995348 C 12.550315,87.835627 10.417238,90.2273 9.4062802,90.339098 C 9.3454704,93.374824 7.2522013,93.498233 7.2500003,97.089098 C 12.582744,106.87038 39.366284,105.78198 43.313002,94.464098 C 42.388071,93.271054 40.245514,91.699514 40.031706,90.089098 C 38.815024,90.085629 36.774338,87.479972 36.656659,86.120348 C 35.62007,86.188469 35.330267,83.940542 34.375377,82.495348 C 33.977285,84.385241 30.044772,85.339097 25.219,85.339098 C 20.127692,85.339096 15.531366,84.314831 15.531365,82.214098 L 15.437614,82.214098 z"
         id="path15926" />
    </clipPath>
    <clipPath
       clipPathUnits="userSpaceOnUse"
       id="clipPath21818">
      <path
         style="opacity:1;fill:none;fill-opacity:1;fill-rule:evenodd;stroke:#0000ff;stroke-width:0.25;stroke-linecap:butt;stroke-linejoin:miter;marker:none;marker-start:none;marker-mid:none;marker-end:none;stroke-miterlimit:4;stroke-dasharray:none;stroke-dashoffset:3.2;stroke-opacity:1;visibility:visible;display:inline;overflow:visible;enable-background:accumulate"
         d="M 11.29438,-0.27029059 C 5.6818574,2.8715944 2.7511552,8.7119086 4.8167743,12.597813 C 5.1007973,13.132126 5.5181417,13.609741 5.9472448,14.018745 C 2.7501647,17.347018 1.4173051,21.376158 2.9757701,24.307989 C 5.1374685,28.374641 11.99334,28.707288 18.266155,25.195771 C 22.554427,22.7952 25.351686,19.252546 26.076917,15.894265 C 27.812266,15.319871 29.58477,14.546699 31.38889,13.536754 C 38.817222,9.378381 43.340941,3.2041495 41.467471,-0.3202791 C 39.618585,-3.7984588 32.280203,-3.2966766 24.94719,0.71269712 C 22.645548,-2.7534684 16.675896,-3.2828589 11.29438,-0.27029059 z"
         id="path21820" />
    </clipPath>
    <clipPath
       clipPathUnits="userSpaceOnUse"
       id="clipPath21822">
      <path
         style="opacity:1;fill:none;fill-opacity:1;fill-rule:evenodd;stroke:#0000ff;stroke-width:0.25;stroke-linecap:butt;stroke-linejoin:miter;marker:none;marker-start:none;marker-mid:none;marker-end:none;stroke-miterlimit:4;stroke-dasharray:none;stroke-dashoffset:3.2;stroke-opacity:1;visibility:visible;display:inline;overflow:visible;enable-background:accumulate"
         d="M 9.5535068,-0.51081244 C 14.45323,-4.7248391 20.822934,-5.3924558 23.595444,-2.0011962 C 23.976664,-1.5348973 24.257772,-0.9619511 24.472324,-0.40281577 C 28.659594,-2.2417183 32.802482,-2.0442164 34.89428,0.51441566 C 37.795749,4.0634149 35.595334,10.73317 30.119175,15.442962 C 26.375521,18.662707 22.139631,20.041477 18.827317,19.508455 C 17.672683,20.956319 16.324098,22.367119 14.749104,23.721699 C 8.2641819,29.299082 1.0100232,31.366385 -1.5045812,28.290588 C -3.9861879,25.255153 -0.8524256,18.429086 5.4624907,12.888363 C 3.1570357,9.4248658 4.8554509,3.5297693 9.5535068,-0.51081244 z"
         id="path21824" />
    </clipPath>
    <clipPath
       clipPathUnits="userSpaceOnUse"
       id="clipPath21826">
      <path
         style="opacity:1;fill:none;fill-opacity:1;fill-rule:evenodd;stroke:#0000ff;stroke-width:0.24999999;stroke-linecap:butt;stroke-linejoin:miter;marker:none;marker-start:none;marker-mid:none;marker-end:none;stroke-miterlimit:4;stroke-dasharray:none;stroke-dashoffset:3.2;stroke-opacity:1;visibility:visible;display:inline;overflow:visible;enable-background:accumulate"
         d="M 22.883514,8.7554973 C 25.478418,13.26798 25.116695,18.528555 22.100566,20.354718 C 21.685847,20.605816 21.202157,20.762126 20.738386,20.866087 C 21.587619,24.500523 20.861866,27.842488 18.586261,29.220289 C 15.42984,31.131393 10.555292,28.503378 7.655106,23.460017 C 5.6724585,20.012236 5.1872025,16.396222 6.0587039,13.771492 C 5.0940765,12.650847 4.1850232,11.377249 3.3509029,9.9267315 C -0.083526022,3.9543336 -0.68635438,-2.201252 2.0492079,-3.8575415 C 4.748873,-5.4920965 9.6158304,-2.0858893 13.045285,3.7437328 C 16.05297,2.3062296 20.395413,4.4287439 22.883514,8.7554973 z"
         id="path21828" />
    </clipPath>
    <clipPath
       clipPathUnits="userSpaceOnUse"
       id="clipPath21830">
      <path
         style="opacity:1;fill:none;fill-opacity:1;fill-rule:evenodd;stroke:#0000ff;stroke-width:0.25;stroke-linecap:butt;stroke-linejoin:miter;marker:none;marker-start:none;marker-mid:none;marker-end:none;stroke-miterlimit:4;stroke-dasharray:none;stroke-dashoffset:3.2;stroke-opacity:1;visibility:visible;display:inline;overflow:visible;enable-background:accumulate"
         d="M 14.906311,93.659427 C 12.469077,93.659427 10.44931,95.030867 10.44931,96.677439 C 10.44931,96.903843 10.504014,97.136104 10.574859,97.348109 C 8.912827,97.850532 7.75,98.922617 7.75,100.16492 C 7.75,101.88808 9.985232,103.25 12.709198,103.25 C 14.571377,103.25 16.137741,102.60448 16.977874,101.64039 C 17.660814,101.77005 18.39155,101.84159 19.174988,101.84159 C 22.400736,101.84159 25.01303,100.65232 25.01303,99.158916 C 25.01303,97.685109 22.467878,96.507471 19.300536,96.476239 C 19.146878,94.923589 17.243231,93.659427 14.906311,93.659427 z"
         id="path21832" />
    </clipPath>
    <radialGradient
       inkscape:collect="always"
       xlink:href="#linearGradient7101"
       id="radialGradient2268"
       gradientUnits="userSpaceOnUse"
       gradientTransform="matrix(1,0,0,1.1538301,36.977778,-5.9787298)"
       cx="-16.926315"
       cy="39.454529"
       fx="-16.926315"
       fy="39.454529"
       r="8.3468533" />
    <radialGradient
       inkscape:collect="always"
       xlink:href="#linearGradient7101"
       id="radialGradient3250"
       gradientUnits="userSpaceOnUse"
       gradientTransform="matrix(1,0,0,1.1538301,36.977778,-5.9787298)"
       cx="-1.023285"
       cy="40.238918"
       fx="-1.023285"
       fy="40.238918"
       r="8.3468533" />
    <radialGradient
       inkscape:collect="always"
       xlink:href="#linearGradient7101"
       id="radialGradient3252"
       gradientUnits="userSpaceOnUse"
       gradientTransform="matrix(1,0,0,1.1538301,36.977778,-5.9787298)"
       cx="-10.07379"
       cy="37.885754"
       fx="-10.07379"
       fy="37.885754"
       r="8.3468533" />
    <radialGradient
       inkscape:collect="always"
       xlink:href="#linearGradient7101"
       id="radialGradient3240"
       gradientUnits="userSpaceOnUse"
       gradientTransform="matrix(1,0,0,1.2474083,81.280078,-20.312036)"
       cx="-10.07379"
       cy="37.885754"
       fx="-10.07379"
       fy="37.885754"
       r="8.3468533" />
    <radialGradient
       inkscape:collect="always"
       xlink:href="#linearGradient7101"
       id="radialGradient3244"
       gradientUnits="userSpaceOnUse"
       gradientTransform="matrix(1,0,0,1.2474083,81.280078,-20.312036)"
       cx="-16.926315"
       cy="39.454529"
       fx="-16.926315"
       fy="39.454529"
       r="8.3468533" />
    <radialGradient
       inkscape:collect="always"
       xlink:href="#linearGradient7101"
       id="radialGradient3248"
       gradientUnits="userSpaceOnUse"
       gradientTransform="matrix(1,0,0,1.2474083,81.280078,-20.312036)"
       cx="-1.023285"
       cy="40.238918"
       fx="-1.023285"
       fy="40.238918"
       r="8.3468533" />
    <filter
       inkscape:collect="always"
       x="-0.089489222"
       width="1.1789784"
       y="-0.16096662"
       height="1.3219332"
       id="filter5505">
      <feGaussianBlur
         inkscape:collect="always"
         stdDeviation="0.65596608"
         id="feGaussianBlur5507" />
    </filter>
    <filter
       inkscape:collect="always"
       x="-0.71430224"
       width="2.4286046"
       y="-0.47711226"
       height="1.9542245"
       id="filter3285">
      <feGaussianBlur
         inkscape:collect="always"
         stdDeviation="1.4164746"
         id="feGaussianBlur3287" />
    </filter>
    <filter
       inkscape:collect="always"
       x="-0.35164124"
       width="1.7032825"
       y="-0.19020846"
       height="1.3804169"
       id="filter3289">
      <feGaussianBlur
         inkscape:collect="always"
         stdDeviation="1.1405749"
         id="feGaussianBlur3291" />
    </filter>
    <filter
       inkscape:collect="always"
       x="-0.82513428"
       width="2.6502686"
       y="-0.44008818"
       height="1.8801764"
       id="filter3293">
      <feGaussianBlur
         inkscape:collect="always"
         stdDeviation="1.4164742"
         id="feGaussianBlur3295" />
    </filter>
  </defs>
  <sodipodi:namedview
     id="base"
     pagecolor="#ffffff"
     bordercolor="#666666"
     borderopacity="1.0"
     inkscape:pageopacity="0.0"
     inkscape:pageshadow="2"
     inkscape:zoom="11.313708"
     inkscape:cx="4.8077077"
     inkscape:cy="-1.0571648"
     inkscape:document-units="px"
     inkscape:current-layer="layer1"
     width="16px"
     height="16px"
     inkscape:window-width="1024"
     inkscape:window-height="696"
     inkscape:window-x="-4"
     inkscape:window-y="-4"
     showguides="true"
     inkscape:guide-bbox="true"
     guidetolerance="4"
     showgrid="false">
    <sodipodi:guide
       orientation="horizontal"
       position="-40"
       id="guide8091" />
  </sodipodi:namedview>
  <metadata
     id="metadata7">
    <rdf:RDF>
      <cc:Work
         rdf:about="">
        <dc:format>image/svg+xml</dc:format>
        <dc:type
           rdf:resource="http://purl.org/dc/dcmitype/StillImage" />
      </cc:Work>
    </rdf:RDF>
  </metadata>
  <g
     inkscape:label="Ebene 1"
     inkscape:groupmode="layer"
     id="layer1">
    <path
       style="opacity:1;fill:#ffffff;fill-opacity:1;fill-rule:evenodd;stroke:#808080;stroke-width:1.31600165;stroke-linecap:butt;stroke-linejoin:miter;marker:none;marker-start:none;marker-mid:none;marker-end:none;stroke-miterlimit:4;stroke-dasharray:none;stroke-dashoffset:3.2;stroke-opacity:1;visibility:visible;display:inline;overflow:visible;filter:url(#filter5505);enable-background:accumulate"
       d="M 14.906311,93.659427 C 12.469077,93.659427 10.44931,95.030867 10.44931,96.677439 C 10.44931,96.903843 10.504014,97.136104 10.574859,97.348109 C 8.912827,97.850532 7.75,98.922617 7.75,100.16492 C 7.75,101.88808 9.985232,103.25 12.709198,103.25 C 14.571377,103.25 16.137741,102.60448 16.977874,101.64039 C 17.660814,101.77005 18.39155,101.84159 19.174988,101.84159 C 22.400736,101.84159 25.01303,100.65232 25.01303,99.158916 C 25.01303,97.685109 22.467878,96.507471 19.300536,96.476239 C 19.146878,94.923589 17.243231,93.659427 14.906311,93.659427 z"
       id="path3284"
       clip-path="url(#clipPath21830)"
       transform="matrix(3.5910622,0,0,4.3093857,-26.582189,-391.82679)" />
    <path
       sodipodi:type="spiral"
       style="fill:none;fill-rule:evenodd;stroke:#808080;stroke-width:1.12559736;stroke-linecap:round;stroke-linejoin:miter;stroke-miterlimit:4;stroke-dasharray:none;stroke-opacity:1;filter:url(#filter3289)"
       id="path9102"
       sodipodi:cx="14.353554"
       sodipodi:cy="10.88271"
       sodipodi:expansion="1.84"
       sodipodi:revolution="1.5"
       sodipodi:radius="7.7457147"
       sodipodi:argument="-0.39386258"
       sodipodi:t0="0.31462139"
       d="M 13.576963,11.38072 C 12.744291,10.983408 12.804951,9.8355843 13.264793,9.1849086 C 14.205829,7.8533438 16.160036,8.0356853 17.287849,9.0010147 C 19.216192,10.651542 18.862233,13.645298 17.220806,15.353872 C 14.700892,17.976871 10.445289,17.401888 8.0560672,14.921143 C 7.7396234,14.592577 7.4534161,14.235063 7.2009001,13.855191"
       transform="matrix(-0.8710615,-1.74502,-1.4386623,1.0034739,58.71917,43.327087)"
       clip-path="url(#clipPath21826)" />
    <path
       sodipodi:type="spiral"
       style="fill:none;fill-rule:evenodd;stroke:#808080;stroke-width:1.397874;stroke-linecap:round;stroke-linejoin:miter;stroke-miterlimit:4;stroke-dasharray:none;stroke-opacity:1;filter:url(#filter3285)"
       id="path11042"
       sodipodi:cx="14.353554"
       sodipodi:cy="10.88271"
       sodipodi:expansion="1.84"
       sodipodi:revolution="1.5"
       sodipodi:radius="7.7457147"
       sodipodi:argument="-0.39386258"
       sodipodi:t0="0.89812118"
       d="M 12.986618,17.09019 C 10.649823,17.083876 8.4808054,15.780614 7.2009001,13.855191"
       transform="matrix(-0.238589,1.2711327,1.5717987,0.8237291,21.333207,4.9842454)"
       clip-path="url(#clipPath21822)"
       inkscape:transform-center-x="4.6798518"
       inkscape:transform-center-y="0.39317839" />
    <path
       sodipodi:type="spiral"
       style="fill:none;fill-rule:evenodd;stroke:#808080;stroke-width:1.39787364;stroke-linecap:round;stroke-linejoin:miter;stroke-miterlimit:4;stroke-dasharray:none;stroke-opacity:1;filter:url(#filter3293)"
       id="path11044"
       sodipodi:cx="14.353554"
       sodipodi:cy="10.88271"
       sodipodi:expansion="1.84"
       sodipodi:revolution="1.5"
       sodipodi:radius="7.7457147"
       sodipodi:argument="-0.39386258"
       sodipodi:t0="0.86780512"
       d="M 14.764795,16.835554 C 11.891312,17.693851 8.82066,16.291873 7.2009001,13.855191"
       transform="matrix(0.782612,1.0093698,-1.2462224,1.1967608,24.85269,4.8616118)"
       clip-path="url(#clipPath21818)" />
  </g>
</svg>
