<?xml version="1.0" encoding="UTF-8" standalone="no"?>
<!-- Created with Inkscape (http://www.inkscape.org/) -->
<svg
   xmlns:dc="http://purl.org/dc/elements/1.1/"
   xmlns:cc="http://creativecommons.org/ns#"
   xmlns:rdf="http://www.w3.org/1999/02/22-rdf-syntax-ns#"
   xmlns:svg="http://www.w3.org/2000/svg"
   xmlns="http://www.w3.org/2000/svg"
   xmlns:sodipodi="http://sodipodi.sourceforge.net/DTD/sodipodi-0.dtd"
   xmlns:inkscape="http://www.inkscape.org/namespaces/inkscape"
   width="128"
   height="64"
   id="svg2"
   sodipodi:version="0.32"
   inkscape:version="0.46"
   version="1.0"
   sodipodi:docbase="C:\Dokumente und Einstellungen\Frosty\Eigene Dateien\inkscape\smc"
   sodipodi:docname="cloud.svg"
   inkscape:output_extension="org.inkscape.output.svg.inkscape"
   inkscape:export-filename="C:\Dokumente und Einstellungen\Frosty\Desktop\SMC\Drafts\Game\Frostbringer\overworld\gras\cloud.png"
   inkscape:export-xdpi="90"
   inkscape:export-ydpi="90">
  <defs
     id="defs4">
    <inkscape:perspective
       sodipodi:type="inkscape:persp3d"
       inkscape:vp_x="0 : 16 : 1"
       inkscape:vp_y="0 : 1000 : 0"
       inkscape:vp_z="64 : 16 : 1"
       inkscape:persp3d-origin="32 : 10.666667 : 1"
       id="perspective48" />
    <clipPath
       clipPathUnits="userSpaceOnUse"
       id="clipPath6248">
      <path
         style="opacity:1;fill:none;fill-opacity:1;fill-rule:evenodd;stroke:#000080;stroke-width:1.49999988;stroke-linecap:butt;stroke-linejoin:miter;marker:none;marker-start:none;marker-mid:none;marker-end:none;stroke-miterlimit:4;stroke-dasharray:none;stroke-dashoffset:3.2;stroke-opacity:1;visibility:visible;display:inline;overflow:visible;enable-background:accumulate"
         d="M 60.626124,110.82451 C 64.624985,121.27383 73.275324,128.13063 83.340849,128.79676 C 74.499491,148.63121 79.508992,164.34319 94.818353,163.99371 C 95.758739,163.97224 96.695559,163.89092 97.666473,163.75216 C 99.837885,180.50652 112.58043,191.18942 127.60184,188.02367 C 143.77421,184.61537 156.44848,166.4577 155.91179,147.46741 C 155.64125,137.89368 152.11065,129.93068 146.55391,124.82589 C 151.71992,118.16616 153.66183,109.22727 150.82875,100.62514 C 147.87071,91.643643 140.49533,85.235217 131.82982,82.952325 C 134.01789,75.293532 132.38226,66.026198 126.36983,57.411013 C 115.3818,41.666416 94.079641,34.049054 78.869987,40.372121 C 66.251282,45.618067 61.818695,58.831939 66.923921,72.175459 C 60.866104,79.935703 57.509351,90.39584 58.472698,101.04266 C 58.790519,104.55515 59.482327,107.83567 60.626124,110.82451 z"
         id="path6250" />
    </clipPath>
    <clipPath
       clipPathUnits="userSpaceOnUse"
       id="clipPath6252">
      <path
         style="opacity:1;fill:none;fill-opacity:1;fill-rule:evenodd;stroke:#000080;stroke-width:1.49999988;stroke-linecap:butt;stroke-linejoin:miter;marker:none;marker-start:none;marker-mid:none;marker-end:none;stroke-miterlimit:4;stroke-dasharray:none;stroke-dashoffset:3.2;stroke-opacity:1;visibility:visible;display:inline;overflow:visible;enable-background:accumulate"
         d="M 55.326127,118.9448 C 55.180487,110.83382 59.594564,103.19739 66.926814,98.913142 C 54.35399,89.826884 53.384179,78.016182 64.945539,72.357457 C 65.655702,72.009867 66.381172,71.70131 67.149407,71.415812 C 63.742733,60.038967 70.07008,48.42351 82.261723,44.647552 C 95.387515,40.582269 110.32504,47.141575 115.62651,59.297709 C 118.29919,65.426069 118.04857,71.792679 115.42336,77.138708 C 121.28925,79.345789 125.42692,84.225106 125.89021,90.726055 C 126.37391,97.513711 122.77926,104.37843 116.98023,109.14245 C 120.91767,113.12172 122.47681,119.58145 120.56482,127.31146 C 117.07054,141.43838 103.41718,154.41159 90.136465,156.27302 C 79.11811,157.81735 71.832751,151.20431 71.645859,140.84726 C 64.782108,138.2901 59.128815,132.99679 56.652304,125.92713 C 55.835282,123.59478 55.367789,121.2648 55.326127,118.9448 z"
         id="path6254" />
    </clipPath>
    <clipPath
       clipPathUnits="userSpaceOnUse"
       id="clipPath6256">
      <path
         style="opacity:1;fill:none;fill-opacity:1;fill-rule:evenodd;stroke:#000080;stroke-width:1.49999988;stroke-linecap:butt;stroke-linejoin:miter;marker:none;marker-start:none;marker-mid:none;marker-end:none;stroke-miterlimit:4;stroke-dasharray:none;stroke-dashoffset:3.2;stroke-opacity:1;visibility:visible;display:inline;overflow:visible;enable-background:accumulate"
         d="M 34.842213,45.505912 C 30.783953,45.590476 27.466599,46.787524 26.142641,48.651328 C 20.223613,45.699178 14.230407,45.636271 12.689308,48.558816 C 12.594645,48.738335 12.521128,48.921033 12.463833,49.113889 C 6.4172688,48.446236 1.3285986,50.172066 0.79550967,53.221431 C 0.22157294,56.504445 5.1428729,60.074675 11.787408,61.195985 C 15.137168,61.761285 18.282275,61.605305 20.656086,60.881445 C 22.404899,62.288925 25.294254,63.232445 28.585285,63.249755 C 32.021456,63.267825 35.04487,62.283415 36.777538,60.788935 C 39.196197,61.696645 42.587916,61.983625 46.228692,61.399515 C 52.882365,60.332015 57.837249,56.787325 57.295748,53.498968 C 56.846489,50.770779 52.744916,49.080144 47.562752,49.187899 C 45.529089,47.540612 42.265758,46.231112 38.468599,45.727942 C 37.215879,45.561942 36.003004,45.481725 34.842213,45.505912 z"
         id="path6258" />
    </clipPath>
    <clipPath
       clipPathUnits="userSpaceOnUse"
       id="clipPath6260">
      <path
         style="opacity:1;fill:none;fill-opacity:1;fill-rule:evenodd;stroke:#000080;stroke-width:1.49999988;stroke-linecap:butt;stroke-linejoin:miter;marker:none;marker-start:none;marker-mid:none;marker-end:none;stroke-miterlimit:4;stroke-dasharray:none;stroke-dashoffset:3.2;stroke-opacity:1;visibility:visible;display:inline;overflow:visible;enable-background:accumulate"
         d="M 34.842213,45.505912 C 30.783953,45.590476 27.466599,46.787524 26.142641,48.651328 C 20.223613,45.699178 14.230407,45.636271 12.689308,48.558816 C 12.594645,48.738335 12.521128,48.921033 12.463833,49.113889 C 6.4172688,48.446236 1.3285986,50.172066 0.79550967,53.221431 C 0.22157294,56.504445 5.1428729,60.074675 11.787408,61.195985 C 15.137168,61.761285 18.282275,61.605305 20.656086,60.881445 C 22.404899,62.288925 25.294254,63.232445 28.585285,63.249755 C 32.021456,63.267825 35.04487,62.283415 36.777538,60.788935 C 39.196197,61.696645 42.587916,61.983625 46.228692,61.399515 C 52.882365,60.332015 57.837249,56.787325 57.295748,53.498968 C 56.846489,50.770779 52.744916,49.080144 47.562752,49.187899 C 45.529089,47.540612 42.265758,46.231112 38.468599,45.727942 C 37.215879,45.561942 36.003004,45.481725 34.842213,45.505912 z"
         id="path6262" />
    </clipPath>
    <filter
       inkscape:collect="always"
       x="-0.7825073"
       width="2.5650146"
       y="-0.46358803"
       height="1.9271761"
       id="filter7549">
      <feGaussianBlur
         inkscape:collect="always"
         stdDeviation="1.1239608"
         id="feGaussianBlur7551" />
    </filter>
    <filter
       inkscape:collect="always"
       x="-0.52429992"
       width="2.0485997"
       y="-0.47696686"
       height="1.9539337"
       id="filter7553">
      <feGaussianBlur
         inkscape:collect="always"
         stdDeviation="1.1239608"
         id="feGaussianBlur7555" />
    </filter>
    <filter
       inkscape:collect="always"
       x="-0.70185739"
       width="2.4037147"
       y="-0.56918854"
       height="2.138377"
       id="filter7557">
      <feGaussianBlur
         inkscape:collect="always"
         stdDeviation="1.1239608"
         id="feGaussianBlur7559" />
    </filter>
    <filter
       inkscape:collect="always"
       x="-0.21161358"
       width="1.4232272"
       y="-0.44762716"
       height="1.8952543"
       id="filter7561">
      <feGaussianBlur
         inkscape:collect="always"
         stdDeviation="4.4434009"
         id="feGaussianBlur7563" />
    </filter>
    <filter
       inkscape:collect="always"
       x="-0.14077947"
       width="1.2815589"
       y="-0.38940376"
       height="1.7788075"
       id="filter7565">
      <feGaussianBlur
         inkscape:collect="always"
         stdDeviation="3.4020874"
         id="feGaussianBlur7567" />
    </filter>
    <filter
       inkscape:collect="always"
       x="-0.049332298"
       width="1.0986646"
       y="-0.14860378"
       height="1.2972076"
       id="filter7569">
      <feGaussianBlur
         inkscape:collect="always"
         stdDeviation="1.1239608"
         id="feGaussianBlur7571" />
    </filter>
    <clipPath
       clipPathUnits="userSpaceOnUse"
       id="clipPath8548">
      <path
         style="opacity:1;fill:none;fill-opacity:1;fill-rule:evenodd;stroke:#000080;stroke-width:1.49999988;stroke-linecap:butt;stroke-linejoin:miter;marker:none;marker-start:none;marker-mid:none;marker-end:none;stroke-miterlimit:4;stroke-dasharray:none;stroke-dashoffset:3.2;stroke-opacity:1;visibility:visible;display:inline;overflow:visible;enable-background:accumulate"
         d="M 27.962788,49.092638 C 24.156561,49.348476 20.952302,48.503422 19.559296,46.870712 C 14.261221,50.118282 8.6556752,50.671614 6.9721733,48.067296 C 6.8687633,47.907325 6.7848846,47.742637 6.7153552,47.567117 C 1.1096777,48.690063 -3.7964076,47.496957 -4.5466804,44.690933 C -5.354443,41.669902 -1.0413314,37.926994 5.0867844,36.330703 C 8.1761966,35.525952 11.13344,35.41221 13.415381,35.892869 C 14.936645,34.433093 17.563877,33.312833 20.643444,33.025096 C 23.858842,32.724667 26.770393,33.39524 28.515599,34.649049 C 30.705124,33.601101 33.856742,33.053005 37.313287,33.29851 C 43.630267,33.747177 48.560943,36.65128 48.3249,39.769341 C 48.129047,42.356247 44.428508,44.274805 39.568199,44.601707 C 37.800023,46.309114 34.852823,47.802284 31.339446,48.585888 C 30.180357,48.844405 29.051488,49.019461 27.962788,49.092638 z"
         id="path8550" />
    </clipPath>
    <clipPath
       clipPathUnits="userSpaceOnUse"
       id="clipPath8552">
      <path
         style="opacity:1;fill:none;fill-opacity:1;fill-rule:evenodd;stroke:#000080;stroke-width:1.49999988;stroke-linecap:butt;stroke-linejoin:miter;marker:none;marker-start:none;marker-mid:none;marker-end:none;stroke-miterlimit:4;stroke-dasharray:none;stroke-dashoffset:3.2;stroke-opacity:1;visibility:visible;display:inline;overflow:visible;enable-background:accumulate"
         d="M 42.690983,52.368477 C 44.685533,49.116618 45.42555,45.886483 44.626714,43.894482 C 49.963626,40.711137 53.057412,36.004035 51.53308,33.303467 C 51.439447,33.137584 51.332566,32.986806 51.209426,32.843704 C 54.807707,28.401069 56.029994,23.502173 53.893554,21.534356 C 51.593413,19.415758 46.275356,21.496761 42.015221,26.182184 C 39.867526,28.544281 38.393164,31.110305 37.758865,33.354398 C 35.7595,34.023526 33.547082,35.829774 31.861814,38.423304 C 30.102214,41.131228 29.343644,44.021102 29.643339,46.149003 C 27.698272,47.601219 25.74897,50.137619 24.360822,53.312681 C 21.823922,59.115239 22.105426,64.830668 24.976341,66.06997 C 27.358211,67.098143 30.776131,64.712209 33.323234,60.559893 C 35.656584,59.78713 38.347867,57.870743 40.673765,55.123371 C 41.441096,54.216993 42.120479,53.298609 42.690983,52.368477 z"
         id="path8554" />
    </clipPath>
    <clipPath
       clipPathUnits="userSpaceOnUse"
       id="clipPath8556">
      <path
         style="opacity:1;fill:none;fill-opacity:1;fill-rule:evenodd;stroke:#000080;stroke-width:1.49999988;stroke-linecap:butt;stroke-linejoin:miter;marker:none;marker-start:none;marker-mid:none;marker-end:none;stroke-miterlimit:4;stroke-dasharray:none;stroke-dashoffset:3.2;stroke-opacity:1;visibility:visible;display:inline;overflow:visible;enable-background:accumulate"
         d="M 35.184173,18.506966 C 38.223061,20.813039 40.085097,23.554247 40.063812,25.700349 C 46.192227,26.729353 50.783609,29.992408 50.343511,33.062093 C 50.316478,33.25065 50.271617,33.42994 50.20882,33.60798 C 55.174291,36.441481 58.091439,40.562576 56.815003,43.171673 C 55.440763,45.98069 49.730052,45.971998 44.05974,43.152511 C 41.201123,41.731103 38.895891,39.875266 37.490281,38.014473 C 35.384399,38.116724 32.667238,37.236746 30.155501,35.431835 C 27.532978,33.547315 25.777165,31.129895 25.284022,29.038343 C 22.944486,28.391206 20.20746,26.735369 17.76149,24.280739 C 13.291376,19.794804 11.479064,14.367014 13.704319,12.170139 C 15.550522,10.347509 19.601381,11.330056 23.481988,14.274601 C 25.936694,14.147686 29.140038,14.95647 32.304554,16.67219 C 33.34855,17.238218 34.314956,17.847358 35.184173,18.506966 z"
         id="path8558" />
    </clipPath>
    <clipPath
       clipPathUnits="userSpaceOnUse"
       id="clipPath8560">
      <path
         style="opacity:1;fill:none;fill-opacity:1;fill-rule:evenodd;stroke:#000080;stroke-width:1.49999988;stroke-linecap:butt;stroke-linejoin:miter;marker:none;marker-start:none;marker-mid:none;marker-end:none;stroke-miterlimit:4;stroke-dasharray:none;stroke-dashoffset:3.2;stroke-opacity:1;visibility:visible;display:inline;overflow:visible;enable-background:accumulate"
         d="M 60.57276,110.66753 C 64.577971,121.13553 73.233505,128.00762 83.301108,128.67986 C 74.469009,148.54155 79.4879,164.28114 94.799671,163.93875 C 95.740203,163.91772 96.67714,163.83674 97.648148,163.69825 C 99.829032,180.48046 112.57955,191.18679 127.60178,188.0235 C 143.77507,184.61784 156.4416,166.43753 155.89452,147.41662 C 155.61872,137.82747 152.08319,129.84996 146.52275,124.73426 C 151.68603,118.06645 153.62343,109.11424 150.78519,100.49698 C 147.82175,91.49964 140.44164,85.077304 131.7734,82.786437 C 133.95768,75.116506 132.31676,65.83355 126.29861,57.2016 C 115.3002,41.426347 93.990259,33.786176 78.781457,40.111711 C 66.163466,45.359758 61.737301,58.592519 66.850631,71.959876 C 60.796,79.729495 57.444368,90.204683 58.413659,100.869 C 58.733434,104.38723 59.427146,107.67336 60.57276,110.66753 z"
         id="path8562" />
    </clipPath>
    <clipPath
       clipPathUnits="userSpaceOnUse"
       id="clipPath8564">
      <path
         style="opacity:1;fill:none;fill-opacity:1;fill-rule:evenodd;stroke:#000080;stroke-width:1.49999988;stroke-linecap:butt;stroke-linejoin:miter;marker:none;marker-start:none;marker-mid:none;marker-end:none;stroke-miterlimit:4;stroke-dasharray:none;stroke-dashoffset:3.2;stroke-opacity:1;visibility:visible;display:inline;overflow:visible;enable-background:accumulate"
         d="M 55.333343,119.0641 C 55.186845,110.93893 59.600217,103.29088 66.93219,99.001995 C 54.358114,89.895042 53.387036,78.063361 64.948072,72.39925 C 65.658213,72.051329 66.383666,71.742509 67.151889,71.456802 C 63.743939,60.058797 70.070212,48.425537 82.26174,44.647714 C 95.387423,40.580418 110.32597,47.156946 115.62885,59.336334 C 118.30223,65.476419 118.05228,71.854044 115.42757,77.208366 C 121.29384,79.421577 125.43214,84.311001 125.89611,90.823456 C 126.38053,97.623156 122.78653,104.49844 116.98783,109.26853 C 120.92579,113.25626 122.48566,119.72786 120.57443,127.47061 C 117.08158,141.6208 103.42924,154.61135 90.148431,156.4709 C 79.129977,158.01364 71.843751,151.38625 71.655765,141.01108 C 64.791582,138.4468 59.137601,133.14206 56.660285,126.05911 C 55.843,123.7224 55.375247,121.38815 55.333343,119.0641 z"
         id="path8566" />
    </clipPath>
    <clipPath
       clipPathUnits="userSpaceOnUse"
       id="clipPath8568">
      <path
         style="opacity:1;fill:none;fill-opacity:1;fill-rule:evenodd;stroke:#000080;stroke-width:1.49999988;stroke-linecap:butt;stroke-linejoin:miter;marker:none;marker-start:none;marker-mid:none;marker-end:none;stroke-miterlimit:4;stroke-dasharray:none;stroke-dashoffset:3.2;stroke-opacity:1;visibility:visible;display:inline;overflow:visible;enable-background:accumulate"
         d="M 32.790213,46.601634 C 28.976223,46.680976 25.858535,47.804104 24.614263,49.552816 C 19.051508,46.782965 13.419028,46.723943 11.97069,49.466017 C 11.881725,49.63445 11.81263,49.805866 11.75878,49.986813 C 6.0761557,49.360389 1.2937737,50.979647 0.79277068,53.840709 C 0.25337768,56.920995 4.8784637,60.270752 11.123069,61.322823 C 14.271208,61.853212 17.227017,61.706865 19.457943,61.027705 C 21.101502,62.348275 23.816947,63.233534 26.909885,63.249771 C 30.139243,63.266724 32.980673,62.343103 34.609053,60.940905 C 36.882133,61.792563 40.069703,62.061826 43.491343,61.513781 C 49.744533,60.512208 54.401183,57.186402 53.892283,54.101108 C 53.470053,51.541388 49.615353,49.955152 44.745113,50.056253 C 42.833853,48.510688 39.766933,47.282052 36.198323,46.809953 C 35.021013,46.654204 33.881133,46.57894 32.790213,46.601634 z"
         id="path8570" />
    </clipPath>
    <clipPath
       clipPathUnits="userSpaceOnUse"
       id="clipPath8572">
      <path
         style="opacity:1;fill:none;fill-opacity:1;fill-rule:evenodd;stroke:#000080;stroke-width:1.49999988;stroke-linecap:butt;stroke-linejoin:miter;marker:none;marker-start:none;marker-mid:none;marker-end:none;stroke-miterlimit:4;stroke-dasharray:none;stroke-dashoffset:3.2;stroke-opacity:1;visibility:visible;display:inline;overflow:visible;enable-background:accumulate"
         d="M 32.790213,46.601634 C 28.976223,46.680976 25.858535,47.804104 24.614263,49.552816 C 19.051508,46.782965 13.419028,46.723943 11.97069,49.466017 C 11.881725,49.63445 11.81263,49.805866 11.75878,49.986813 C 6.0761557,49.360389 1.2937737,50.979647 0.79277068,53.840709 C 0.25337768,56.920995 4.8784637,60.270752 11.123069,61.322823 C 14.271208,61.853212 17.227017,61.706865 19.457943,61.027705 C 21.101502,62.348275 23.816947,63.233534 26.909885,63.249771 C 30.139243,63.266724 32.980673,62.343103 34.609053,60.940905 C 36.882133,61.792563 40.069703,62.061826 43.491343,61.513781 C 49.744533,60.512208 54.401183,57.186402 53.892283,54.101108 C 53.470053,51.541388 49.615353,49.955152 44.745113,50.056253 C 42.833853,48.510688 39.766933,47.282052 36.198323,46.809953 C 35.021013,46.654204 33.881133,46.57894 32.790213,46.601634 z"
         id="path8574" />
    </clipPath>
  </defs>
  <sodipodi:namedview
     id="base"
     pagecolor="#ffffff"
     bordercolor="#666666"
     borderopacity="1.0"
     inkscape:pageopacity="0.0"
     inkscape:pageshadow="2"
     inkscape:zoom="8.0000002"
     inkscape:cx="16.132788"
     inkscape:cy="8.2612634"
     inkscape:document-units="px"
     inkscape:current-layer="layer1"
     width="64px"
     height="32px"
     showguides="true"
     inkscape:guide-bbox="true"
     inkscape:window-width="1024"
     inkscape:window-height="696"
     inkscape:window-x="-4"
     inkscape:window-y="-4"
     showgrid="false" />
  <metadata
     id="metadata7">
    <rdf:RDF>
      <cc:Work
         rdf:about="">
        <dc:format>image/svg+xml</dc:format>
        <dc:type
           rdf:resource="http://purl.org/dc/dcmitype/StillImage" />
      </cc:Work>
    </rdf:RDF>
  </metadata>
  <g
     inkscape:label="Ebene 1"
     inkscape:groupmode="layer"
     id="layer1">
    <path
       style="opacity:1;fill:#ffffff;fill-opacity:1;fill-rule:evenodd;stroke:none;stroke-width:1.49999988;stroke-linecap:butt;stroke-linejoin:miter;marker:none;marker-start:none;marker-mid:none;marker-end:none;stroke-miterlimit:4;stroke-dasharray:none;stroke-dashoffset:3.2;stroke-opacity:1;visibility:visible;display:inline;overflow:visible;enable-background:accumulate"
       d="M 32.040213,47.351633 C 28.226223,47.430975 25.108535,48.554103 23.864263,50.302815 C 18.301508,47.532964 12.669028,47.473942 11.22069,50.216016 C 11.131725,50.384449 11.06263,50.555865 11.00878,50.736812 C 5.3261557,50.110388 0.54377374,51.729646 0.042770739,54.590708 C -0.49662226,57.670994 4.1284637,61.020751 10.373069,62.072822 C 13.521208,62.603211 16.477017,62.456864 18.707943,61.777704 C 20.351502,63.098274 23.066947,63.983533 26.159885,63.99977 C 29.389243,64.016723 32.230673,63.093102 33.859053,61.690904 C 36.132133,62.542562 39.319703,62.811825 42.741343,62.26378 C 48.994533,61.262207 53.651183,57.936401 53.142283,54.851107 C 52.720053,52.291387 48.865353,50.705151 43.995113,50.806252 C 42.083853,49.260687 39.016933,48.032051 35.448323,47.559952 C 34.271013,47.404203 33.131133,47.328939 32.040213,47.351633 z"
       id="path6314"
       clip-path="url(#clipPath8572)"
       transform="matrix(2.3542361,0,0,3.0663225,-0.5201065,-136.20259)" />
    <path
       style="opacity:1;fill:none;fill-opacity:1;fill-rule:evenodd;stroke:#1a1a1a;stroke-width:1.26718926;stroke-linecap:butt;stroke-linejoin:miter;marker:none;marker-start:none;marker-mid:none;marker-end:none;stroke-miterlimit:4;stroke-dasharray:none;stroke-dashoffset:3.2;stroke-opacity:1;visibility:visible;display:inline;overflow:visible;filter:url(#filter7569);enable-background:accumulate"
       d="M 32.790213,46.601634 C 28.976223,46.680976 25.858535,47.804104 24.614263,49.552816 C 19.051508,46.782965 13.419028,46.723943 11.97069,49.466017 C 11.881725,49.63445 11.81263,49.805866 11.75878,49.986813 C 6.0761557,49.360389 1.2937737,50.979647 0.79277068,53.840709 C 0.25337768,56.920995 4.8784637,60.270752 11.123069,61.322823 C 14.271208,61.853212 17.227017,61.706865 19.457943,61.027705 C 21.101502,62.348275 23.816947,63.233534 26.909885,63.249771 C 30.139243,63.266724 32.980673,62.343103 34.609053,60.940905 C 36.882133,61.792563 40.069703,62.061826 43.491343,61.513781 C 49.744533,60.512208 54.401183,57.186402 53.892283,54.101108 C 53.470053,51.541388 49.615353,49.955152 44.745113,50.056253 C 42.833853,48.510688 39.766933,47.282052 36.198323,46.809953 C 35.021013,46.654204 33.881133,46.57894 32.790213,46.601634 z"
       id="path6302"
       clip-path="url(#clipPath8568)"
       transform="matrix(2.3542361,0,0,3.0663225,-0.5201065,-136.20259)" />
    <path
       sodipodi:type="spiral"
       style="fill:none;fill-rule:evenodd;stroke:#1a1a1a;stroke-width:2.84017301px;stroke-linecap:butt;stroke-linejoin:miter;stroke-opacity:1;filter:url(#filter7565)"
       id="path6304"
       sodipodi:cx="88.640884"
       sodipodi:cy="67.535538"
       sodipodi:expansion="0.44"
       sodipodi:revolution="0.82280737"
       sodipodi:radius="20.743753"
       sodipodi:argument="-8.5175371"
       sodipodi:t0="0"
       d="M 88.640884,67.535538 C 82.410353,59.566249 92.496637,55.691017 98.316303,59.971123 C 105.07413,64.941206 104.33616,75.036474 98.902802,80.661252 C 91.800541,88.013729 79.751209,87.003852 72.951601,79.801699 C 70.811895,77.535319 69.229912,74.764793 68.336114,71.780486"
       transform="matrix(0.2278051,0.6140963,1.0262568,-3.7103436e-2,-62.045991,-21.405866)"
       clip-path="url(#clipPath8564)" />
    <path
       sodipodi:type="spiral"
       style="fill:none;fill-rule:evenodd;stroke:#1a1a1a;stroke-width:3.33975506px;stroke-linecap:butt;stroke-linejoin:miter;stroke-opacity:1;filter:url(#filter7561)"
       id="path6306"
       sodipodi:cx="88.640884"
       sodipodi:cy="67.535538"
       sodipodi:expansion="0.44"
       sodipodi:revolution="0.82280737"
       sodipodi:radius="20.743753"
       sodipodi:argument="-8.5175371"
       sodipodi:t0="0"
       d="M 88.640884,67.535538 C 82.410353,59.566249 92.496637,55.691017 98.316303,59.971123 C 105.07413,64.941206 104.33616,75.036474 98.902802,80.661252 C 91.800541,88.013729 79.751209,87.003852 72.951601,79.801699 C 70.811895,77.535319 69.229912,74.764793 68.336114,71.780486"
       transform="matrix(-0.2398157,0.5449825,-0.7660032,-0.1852773,175.97378,-5.8138542)"
       clip-path="url(#clipPath8560)" />
    <path
       sodipodi:type="spiral"
       style="fill:none;fill-rule:evenodd;stroke:#1a1a1a;stroke-width:0.8447929px;stroke-linecap:butt;stroke-linejoin:miter;stroke-opacity:1;filter:url(#filter7557)"
       id="path6308"
       sodipodi:cx="36.870567"
       sodipodi:cy="30.664967"
       sodipodi:expansion="0.44"
       sodipodi:revolution="0.22"
       sodipodi:radius="5.8302956"
       sodipodi:argument="-2.3363113"
       sodipodi:t0="0.3260102"
       d="M 35.7679,27.279503 C 36.593987,25.702291 38.698877,25.41671 40.242904,25.908951"
       transform="matrix(-1.9045818,-1.8024019,-1.3838334,2.4806613,169.29749,24.199564)"
       clip-path="url(#clipPath8556)" />
    <path
       sodipodi:type="spiral"
       style="fill:none;fill-rule:evenodd;stroke:#1a1a1a;stroke-width:0.8447929px;stroke-linecap:butt;stroke-linejoin:miter;stroke-opacity:1;filter:url(#filter7553)"
       id="path6310"
       sodipodi:cx="43.941635"
       sodipodi:cy="38.114841"
       sodipodi:expansion="0.44"
       sodipodi:revolution="0.22796342"
       sodipodi:radius="7.4710875"
       sodipodi:argument="-3.9216061"
       sodipodi:t0="0.31462139"
       d="M 39.691381,39.567667 C 37.550285,38.485503 37.256347,35.602393 38.004543,33.579637"
       transform="matrix(-1.2723686,-2.5799124,1.980784,-1.6572222,27.263814,203.61826)"
       clip-path="url(#clipPath8552)" />
    <path
       sodipodi:type="spiral"
       style="fill:none;fill-rule:evenodd;stroke:#1a1a1a;stroke-width:0.8447929px;stroke-linecap:butt;stroke-linejoin:miter;stroke-opacity:1;filter:url(#filter7549)"
       id="path6312"
       sodipodi:cx="28.789347"
       sodipodi:cy="37.988571"
       sodipodi:expansion="0.64999998"
       sodipodi:revolution="1.3099999"
       sodipodi:radius="2.9369435"
       sodipodi:argument="-3.6488438"
       sodipodi:t0="0.69975698"
       d="M 27.592004,39.985859 C 26.316311,39.404405 25.856481,37.818107 26.453106,36.588031 C 26.829301,35.81242 27.56758,35.254789 28.40786,35.076509"
       transform="matrix(2.3451439,-0.2692267,-0.2067046,-3.0544804,21.246707,164.17388)"
       clip-path="url(#clipPath8548)" />
  </g>
</svg>
