<?xml version="1.0" encoding="UTF-8" standalone="no"?>
<!-- Created with Inkscape (http://www.inkscape.org/) -->
<svg
   xmlns:dc="http://purl.org/dc/elements/1.1/"
   xmlns:cc="http://creativecommons.org/ns#"
   xmlns:rdf="http://www.w3.org/1999/02/22-rdf-syntax-ns#"
   xmlns:svg="http://www.w3.org/2000/svg"
   xmlns="http://www.w3.org/2000/svg"
   xmlns:xlink="http://www.w3.org/1999/xlink"
   xmlns:sodipodi="http://sodipodi.sourceforge.net/DTD/sodipodi-0.dtd"
   xmlns:inkscape="http://www.inkscape.org/namespaces/inkscape"
   width="512"
   height="512"
   id="svg2"
   sodipodi:version="0.32"
   inkscape:version="0.46"
   version="1.0"
   sodipodi:docname="2.svg"
   inkscape:output_extension="org.inkscape.output.svg.inkscape"
   inkscape:export-filename="D:\Dateien\Desktop\Secret Maryo Chronicles\SMC\data\pixmaps\enemy\eato\green\2.png"
   inkscape:export-xdpi="45"
   inkscape:export-ydpi="45">
  <defs
     id="defs4">
    <inkscape:perspective
       sodipodi:type="inkscape:persp3d"
       inkscape:vp_x="-50 : 600 : 1"
       inkscape:vp_y="0 : 1000 : 0"
       inkscape:vp_z="700 : 600 : 1"
       inkscape:persp3d-origin="300 : 400 : 1"
       id="perspective103" />
    <linearGradient
       id="linearGradient3986">
      <stop
         style="stop-color:#6f6f6f;stop-opacity:1;"
         offset="0"
         id="stop3988" />
      <stop
         style="stop-color:#fbf0f0;stop-opacity:1;"
         offset="1"
         id="stop3990" />
    </linearGradient>
    <linearGradient
       id="linearGradient3781">
      <stop
         style="stop-color:#625c1f;stop-opacity:1;"
         offset="0"
         id="stop3783" />
      <stop
         style="stop-color:#d6f222;stop-opacity:1;"
         offset="1"
         id="stop3785" />
    </linearGradient>
    <linearGradient
       id="linearGradient3773">
      <stop
         style="stop-color:#87ef45;stop-opacity:0.05309734;"
         offset="0"
         id="stop3775" />
      <stop
         style="stop-color:#87ef45;stop-opacity:0;"
         offset="1"
         id="stop3777" />
    </linearGradient>
    <linearGradient
       id="linearGradient3383">
      <stop
         style="stop-color:#c1e826;stop-opacity:1;"
         offset="0"
         id="stop3385" />
      <stop
         style="stop-color:#446b28;stop-opacity:1;"
         offset="1"
         id="stop3387" />
    </linearGradient>
    <inkscape:perspective
       sodipodi:type="inkscape:persp3d"
       inkscape:vp_x="-50 : 600 : 1"
       inkscape:vp_y="0 : 1000 : 0"
       inkscape:vp_z="700 : 600 : 1"
       inkscape:persp3d-origin="300 : 400 : 1"
       id="perspective10" />
    <radialGradient
       inkscape:collect="always"
       xlink:href="#linearGradient3383"
       id="radialGradient3389"
       cx="407.58194"
       cy="432.11823"
       fx="407.58194"
       fy="432.11823"
       r="61.775566"
       gradientTransform="matrix(1.2136722,0.1461162,-0.3969205,3.2969077,97.820846,-1062.5233)"
       gradientUnits="userSpaceOnUse" />
    <radialGradient
       inkscape:collect="always"
       xlink:href="#linearGradient3383"
       id="radialGradient3397"
       cx="321.60919"
       cy="404.51236"
       fx="321.60919"
       fy="404.51236"
       r="75.227905"
       gradientTransform="matrix(1,0,0,1.9328993,0,-377.36927)"
       gradientUnits="userSpaceOnUse" />
    <filter
       inkscape:collect="always"
       id="filter3455"
       x="-0.50270671"
       width="2.0054133"
       y="-0.080144674"
       height="1.1602894">
      <feGaussianBlur
         inkscape:collect="always"
         stdDeviation="7.3378745"
         id="feGaussianBlur3457" />
    </filter>
    <filter
       inkscape:collect="always"
       id="filter3587"
       x="-0.31584668"
       width="1.6316932"
       y="-0.051445428"
       height="1.1028908">
      <feGaussianBlur
         inkscape:collect="always"
         stdDeviation="4.9804994"
         id="feGaussianBlur3589" />
    </filter>
    <filter
       inkscape:collect="always"
       id="filter3751">
      <feGaussianBlur
         inkscape:collect="always"
         stdDeviation="3.4115496"
         id="feGaussianBlur3753" />
    </filter>
    <linearGradient
       inkscape:collect="always"
       xlink:href="#linearGradient3781"
       id="linearGradient3787"
       x1="520.10028"
       y1="542.8028"
       x2="507.00122"
       y2="490.27484"
       gradientUnits="userSpaceOnUse" />
    <linearGradient
       inkscape:collect="always"
       xlink:href="#linearGradient3781"
       id="linearGradient3826"
       gradientUnits="userSpaceOnUse"
       x1="520.10028"
       y1="542.8028"
       x2="507.00122"
       y2="490.27484" />
    <radialGradient
       inkscape:collect="always"
       xlink:href="#linearGradient3781"
       id="radialGradient3856"
       cx="451.96536"
       cy="594.42499"
       fx="451.96536"
       fy="594.42499"
       r="113.16997"
       gradientTransform="matrix(1.9281898,-0.4512372,5.5606322e-2,0.2376125,-413.08391,579.23957)"
       gradientUnits="userSpaceOnUse"
       spreadMethod="pad" />
    <linearGradient
       inkscape:collect="always"
       xlink:href="#linearGradient3781"
       id="linearGradient3874"
       gradientUnits="userSpaceOnUse"
       x1="520.10028"
       y1="542.8028"
       x2="507.00122"
       y2="490.27484" />
    <radialGradient
       inkscape:collect="always"
       xlink:href="#linearGradient3383"
       id="radialGradient3954"
       gradientUnits="userSpaceOnUse"
       gradientTransform="matrix(1,0,0,1.9328993,0,-377.36927)"
       cx="321.60919"
       cy="404.51236"
       fx="321.60919"
       fy="404.51236"
       r="75.227905" />
    <linearGradient
       inkscape:collect="always"
       xlink:href="#linearGradient3986"
       id="linearGradient3992"
       x1="330.5"
       y1="318.29318"
       x2="328.18765"
       y2="293.99188"
       gradientUnits="userSpaceOnUse" />
    <linearGradient
       inkscape:collect="always"
       xlink:href="#linearGradient3986"
       id="linearGradient3996"
       gradientUnits="userSpaceOnUse"
       x1="330.5"
       y1="318.29318"
       x2="328.18765"
       y2="293.99188"
       gradientTransform="matrix(0.7320427,0,0,0.7682803,116.15578,139.01075)" />
    <linearGradient
       inkscape:collect="always"
       xlink:href="#linearGradient3986"
       id="linearGradient4000"
       gradientUnits="userSpaceOnUse"
       gradientTransform="matrix(0.4647031,0,0,0.5095897,216.10138,291.72853)"
       x1="330.5"
       y1="318.29318"
       x2="328.18765"
       y2="293.99188" />
    <filter
       inkscape:collect="always"
       id="filter4062"
       x="-0.28751922"
       width="1.5750384"
       y="-0.060188156"
       height="1.1203763">
      <feGaussianBlur
         inkscape:collect="always"
         stdDeviation="4.4819801"
         id="feGaussianBlur4064" />
    </filter>
    <linearGradient
       inkscape:collect="always"
       xlink:href="#linearGradient3986"
       id="linearGradient2523"
       gradientUnits="userSpaceOnUse"
       x1="330.5"
       y1="318.29318"
       x2="328.18765"
       y2="293.99188" />
    <linearGradient
       inkscape:collect="always"
       xlink:href="#linearGradient3986"
       id="linearGradient2525"
       gradientUnits="userSpaceOnUse"
       gradientTransform="matrix(0.7320427,0,0,0.7682803,116.15578,139.01075)"
       x1="330.5"
       y1="318.29318"
       x2="328.18765"
       y2="293.99188" />
    <linearGradient
       inkscape:collect="always"
       xlink:href="#linearGradient3986"
       id="linearGradient2527"
       gradientUnits="userSpaceOnUse"
       gradientTransform="matrix(0.4647031,0,0,0.5095897,216.10138,291.72853)"
       x1="330.5"
       y1="318.29318"
       x2="328.18765"
       y2="293.99188" />
    <radialGradient
       inkscape:collect="always"
       xlink:href="#linearGradient3383"
       id="radialGradient2529"
       gradientUnits="userSpaceOnUse"
       gradientTransform="matrix(1.2136722,0.1461162,-0.3969205,3.2969077,97.820846,-1062.5233)"
       cx="407.58194"
       cy="432.11823"
       fx="407.58194"
       fy="432.11823"
       r="61.775566" />
  </defs>
  <sodipodi:namedview
     id="base"
     pagecolor="#000000"
     bordercolor="#666666"
     borderopacity="1.0"
     gridtolerance="10000"
     guidetolerance="10"
     objecttolerance="10"
     inkscape:pageopacity="0"
     inkscape:pageshadow="2"
     inkscape:zoom="0.70710678"
     inkscape:cx="295.42967"
     inkscape:cy="284.05267"
     inkscape:document-units="px"
     inkscape:current-layer="layer1"
     showgrid="false"
     inkscape:window-width="958"
     inkscape:window-height="706"
     inkscape:window-x="178"
     inkscape:window-y="202" />
  <metadata
     id="metadata7">
    <rdf:RDF>
      <cc:Work
         rdf:about="">
        <dc:format>image/svg+xml</dc:format>
        <dc:type
           rdf:resource="http://purl.org/dc/dcmitype/StillImage" />
      </cc:Work>
    </rdf:RDF>
  </metadata>
  <g
     inkscape:label="Layer 1"
     inkscape:groupmode="layer"
     id="layer1">
    <path
       style="fill:#217844;fill-rule:evenodd;stroke:#000000;stroke-width:2.3059926;stroke-linecap:butt;stroke-linejoin:miter;stroke-miterlimit:4;stroke-dasharray:none;stroke-opacity:1"
       d="M 257.75495,496.57371 C 259.13903,491.3326 256.42175,477.68736 253.03494,468.68674 C 249.62553,459.62612 240.06024,442.34146 233.04729,432.60538 C 231.11067,440.17386 228.63888,442.1155 226.7265,450.61723 C 224.33022,433.13101 192.30888,398.88355 177.77777,387.69929 C 174.9683,396.75044 175.27869,400.72686 174.5123,406.97512 C 164.09412,388.37089 139.99475,373.05383 117.71484,362.93243 C 119.7709,368.99824 119.42928,373.70419 123.23069,379.87525 C 100.66372,361.56163 66.208675,350.51488 37.438988,342.61405 C 34.836213,360.04764 58.344307,380.24111 71.59605,392.31235 C 62.545249,391.65503 56.941341,393.09123 47.742415,394.64143 C 58.786874,412.65483 117.98213,430.35221 117.15751,431.83838 C 105.1677,432.23394 98.358224,432.47206 88.049983,438.69531 C 116.41123,453.29235 152.23512,464.87406 183.42336,469.90476 C 186.26202,470.73304 161.88511,473.26736 164.40912,474.71698 C 193.21921,487.3485 225.37818,496.2707 257.75495,496.57371 z"
       id="path3323"
       inkscape:transform-center-x="93.807899"
       inkscape:transform-center-y="-68.415143"
       sodipodi:nodetypes="cscccccccccccccc" />
    <g
       id="g3759"
       transform="matrix(-1.147635,-0.1110601,-0.1110601,1.147635,706.14336,-94.477863)"
       inkscape:transform-center-x="56.702609"
       inkscape:transform-center-y="-67.950407">
      <path
         style="fill:#3e6b20;fill-opacity:1;fill-rule:evenodd;stroke:#000000;stroke-width:1px;stroke-linecap:butt;stroke-linejoin:miter;stroke-opacity:1"
         d="M 421.4062,519.90206 C 433.47742,487.04675 468.17512,466.00575 502.54734,465.99414 C 522.61447,463.71751 543.60177,445.88368 540.13231,424.19526 C 538.44895,415.16762 522.99661,402.95773 537.50964,397.35545 C 552.0962,396.95922 558.26853,416.11071 559.1162,428.21583 C 559.61354,446.33818 551.25585,464.4906 535.83304,474.46421 C 511.15609,492.65594 475.8568,494.35151 456.45006,519.92837 C 453.76802,523.84837 451.93686,528.4847 451.95353,533.28511"
         id="path3761"
         inkscape:transform-center-x="-46.228062"
         inkscape:transform-center-y="-48.609246" />
      <path
         sodipodi:type="inkscape:offset"
         inkscape:radius="-5.6517529"
         inkscape:original="M 537.5 397.34375 C 522.98697 402.94603 538.44163 415.15987 540.125 424.1875 C 543.59446 445.87592 522.62964 463.72337 502.5625 466 C 468.19028 466.01161 433.47748 487.05096 421.40625 519.90625 L 451.96875 533.28125 C 451.95208 528.48084 453.75545 523.85753 456.4375 519.9375 C 475.84424 494.36064 511.16677 492.66049 535.84375 474.46875 C 551.26656 464.49514 559.62233 446.34111 559.125 428.21875 C 558.27733 416.11363 552.08656 396.94753 537.5 397.34375 z "
         style="fill:#87ef45;fill-opacity:1;fill-rule:evenodd;stroke:none;stroke-width:1px;stroke-linecap:butt;stroke-linejoin:miter;stroke-opacity:1;filter:url(#filter3751)"
         id="path3763"
         d="M 538.53125,403.125 C 537.31315,403.73291 537.00373,404.11132 537,404.125 C 536.9952,404.14259 536.98883,405.17934 537.875,407.09375 C 539.64735,410.92257 544.35868,416.03001 545.6875,423.15625 C 545.69839,423.1978 545.70881,423.23947 545.71875,423.28125 C 547.77215,436.11757 542.49431,447.90804 534.21875,456.34375 C 525.94319,464.77946 514.64572,470.32506 503.1875,471.625 C 502.9799,471.64695 502.77125,471.65738 502.5625,471.65625 C 472.27449,471.66648 441.48629,489.43981 428.78125,516.9375 L 447.65625,525.1875 C 448.63186,522.13166 450.05076,519.27925 451.78125,516.75 C 451.83159,516.67585 451.88369,516.60292 451.9375,516.53125 C 462.60247,502.47549 477.41072,495.2169 492,489.21875 C 506.58928,483.2206 521.13054,478.28775 532.5,469.90625 C 532.59186,469.84096 532.68565,469.77843 532.78125,469.71875 C 546.35967,460.93787 553.91562,444.6586 553.46875,428.375 C 553.09737,423.07152 551.43006,416.05877 548.53125,410.84375 C 545.82414,405.9736 542.81758,403.35861 538.53125,403.125 z" />
    </g>
    <path
       sodipodi:nodetypes="cscccccccccccccc"
       inkscape:transform-center-y="-65.674554"
       inkscape:transform-center-x="-95.744941"
       id="path3321"
       d="M 257.26905,500.71527 C 256.03597,495.43659 259.14383,481.87497 262.78761,472.97527 C 266.4557,464.01626 276.5132,447.01329 283.80274,437.48252 C 285.5213,445.10349 287.93635,447.11528 289.60388,455.6684 C 292.50114,438.25817 325.49234,404.94401 340.33852,394.18147 C 342.88703,403.30954 342.46264,407.2754 343.04932,413.54311 C 353.99725,395.24558 378.52637,380.62662 401.08762,371.14894 C 398.85832,377.15323 399.06469,381.86705 395.08772,387.92645 C 418.17107,370.26816 452.92902,360.21498 481.91366,353.14326 C 484.01491,370.64438 459.93685,390.1547 446.34406,401.84058 C 455.41,401.44336 460.97037,403.03983 470.12102,404.85345 C 458.56402,422.54239 398.88517,438.53324 399.66676,440.0425 C 411.64028,440.78203 418.44013,441.21554 428.56546,447.73212 C 399.79692,461.50905 363.65534,472.05764 332.33552,476.191 C 329.47427,476.93746 353.76838,480.17049 351.2038,481.54705 C 322.043,493.34636 289.64116,501.34177 257.26905,500.71527 z"
       style="fill:#217844;fill-rule:evenodd;stroke:#000000;stroke-width:2.3059926;stroke-linecap:butt;stroke-linejoin:miter;stroke-miterlimit:4;stroke-dasharray:none;stroke-opacity:1" />
    <g
       id="g2519"
       transform="matrix(1.1529962,0,0,1.0924581,-199.00895,-104.30874)">
      <path
         sodipodi:nodetypes="cccccccc"
         id="path4023"
         d="M 377,548.09448 C 365.40568,508.10027 372.4445,406.6593 385.9661,386.9645 C 390.99709,376.98029 390.99409,364.84811 389.93369,354.46335 C 389.39434,348.65155 385.55879,342.99645 389.48453,338.32943 C 394.61112,334.34745 402.61192,337.81032 404.7315,343.52941 C 417.67599,362.53641 422.38313,387.34997 415.53091,409.49433 C 412.42665,422.15438 410.54282,435.90992 415.44761,448.38669 C 418.36083,457.19388 428.49513,530.52172 432,539.09448"
         style="fill:#890f34;fill-opacity:1;fill-rule:evenodd;stroke:#000000;stroke-width:4;stroke-linecap:butt;stroke-linejoin:miter;stroke-miterlimit:4;stroke-dasharray:none;stroke-opacity:1" />
      <path
         transform="matrix(1,0,0,1.0335723,-184,85.659381)"
         d="M 584.65625,248.4375 C 585.45466,258.90031 585.1822,271.10077 579.34375,282.6875 C 579.13189,283.10947 578.89176,283.51665 578.625,283.90625 C 577.38079,285.7185 573.80484,295.3939 571.53125,307.71875 C 569.25766,320.0436 567.51062,335.50121 566.53125,351.5625 C 564.86734,378.84986 565.74934,408.33659 569.09375,427.15625 L 603.125,421.59375 C 602.77682,419.62233 602.47857,417.87456 602.03125,415.40625 C 600.51698,407.05051 598.82753,396.7665 597.15625,386.5 C 595.48497,376.2335 593.83763,366.00231 592.4375,357.84375 C 591.03737,349.68519 589.43574,342.46199 589.5,342.65625 C 583.57877,327.06721 586.09571,311.24655 589.34375,298 C 589.40036,297.80027 589.46289,297.60227 589.53125,297.40625 C 594.43356,281.56343 592.21888,263.58419 584.65625,248.4375 z"
         id="path4048"
         style="fill:#e563a8;fill-opacity:1;fill-rule:evenodd;stroke:none;stroke-width:4;stroke-linecap:butt;stroke-linejoin:miter;stroke-miterlimit:4;stroke-dasharray:none;stroke-opacity:1;filter:url(#filter4062)"
         xlink:href="#path4046"
         inkscape:original="M 577.71875 227.65625 C 576.21463 227.80221 574.78164 228.34825 573.5 229.34375 C 569.57426 234.01077 573.39812 239.65695 573.9375 245.46875 C 574.9979 255.85351 574.99971 267.98453 569.96875 277.96875 C 556.44715 297.66355 549.40568 399.09954 561 439.09375 L 616 430.09375 C 612.49513 421.52099 602.3507 348.18219 599.4375 339.375 C 594.53271 326.89823 596.42702 313.16006 599.53125 300.5 C 606.38347 278.35564 601.66323 253.53826 588.71875 234.53125 C 587.12907 230.24193 582.23111 227.21837 577.71875 227.65625 z "
         inkscape:radius="-10.482598"
         sodipodi:type="inkscape:offset"
         inkscape:href="#path4046" />
    </g>
    <g
       id="g2475"
       inkscape:transform-center-x="-59.976846"
       inkscape:transform-center-y="-164.24895"
       transform="matrix(1.1345124,-0.2056259,0.2056259,1.1345124,-302.8424,-45.925411)">
      <g
         transform="matrix(-1,0,0,1,786.37528,23)"
         id="g4007">
        <path
           sodipodi:nodetypes="csc"
           id="path4009"
           d="M 308,287.09448 C 370,283.09448 376,300.09448 371,306.09448 C 366,312.09448 335,311.09448 320,322.09448"
           style="fill:url(#linearGradient2523);fill-opacity:1;fill-rule:evenodd;stroke:#000000;stroke-width:3;stroke-linecap:butt;stroke-linejoin:miter;stroke-miterlimit:4;stroke-dasharray:none;stroke-opacity:1" />
        <path
           style="fill:url(#linearGradient2525);fill-opacity:1;fill-rule:evenodd;stroke:#000000;stroke-width:2.24982786;stroke-linecap:butt;stroke-linejoin:miter;stroke-miterlimit:4;stroke-dasharray:none;stroke-opacity:1"
           d="M 341.62491,359.57976 C 387.01156,356.50664 391.40382,369.5674 387.7436,374.17708 C 384.08339,378.78676 361.39007,378.01848 350.40942,386.46957"
           id="path4011"
           sodipodi:nodetypes="csc" />
        <path
           sodipodi:nodetypes="csc"
           id="path4013"
           d="M 359.22994,438.0289 C 388.04154,435.99054 390.82976,444.65356 388.50624,447.7111 C 386.18272,450.76864 371.77693,450.25905 364.80638,455.86454"
           style="fill:url(#linearGradient2527);fill-opacity:1;fill-rule:evenodd;stroke:#000000;stroke-width:1.45988739;stroke-linecap:butt;stroke-linejoin:miter;stroke-miterlimit:4;stroke-dasharray:none;stroke-opacity:1" />
      </g>
      <g
         transform="matrix(0.9430751,0.3325799,-0.3325799,0.9430751,198.92478,-102.32819)"
         inkscape:transform-center-y="-120.78537"
         inkscape:transform-center-x="-69.606148"
         id="g3912">
        <path
           sodipodi:nodetypes="cccc"
           id="path2421"
           d="M 434.25557,263.58113 C 437.35115,310.03691 472.94647,331.18222 492.69679,364.52653 C 517.91408,405.38733 523.77891,482.75617 491.83286,516.62595 C 460.31263,545.19995 432.58015,553.73609 395.19077,542.98586"
           style="fill:url(#radialGradient2529);fill-opacity:1;fill-rule:evenodd;stroke:#000000;stroke-width:5;stroke-linecap:butt;stroke-linejoin:miter;stroke-miterlimit:4;stroke-dasharray:none;stroke-opacity:1" />
        <path
           sodipodi:nodetypes="cccccscc"
           id="path3399"
           d="M 396.42859,546.2373 C 396.60985,482.57199 385.87844,420.36014 390.83893,356.7166 C 391.70142,326.64901 388.48821,295.21466 391.20539,265.19439 C 391.50002,251.76996 399.52487,234.16693 415.6485,237.273 C 429.67489,238.52614 434.03561,252.8979 437.9969,264.05133 C 448.61348,295.62937 438.2593,328.83497 431.63491,360.39554 C 418.84975,421.30783 408.9964,475.17471 397.97558,534.9566 C 396.88805,538.6033 396.1666,542.41669 396.42859,546.2373 z"
           style="fill:#cac724;fill-opacity:1;fill-rule:evenodd;stroke:#000000;stroke-width:2;stroke-linecap:butt;stroke-linejoin:miter;stroke-miterlimit:4;stroke-dasharray:none;stroke-opacity:1" />
        <path
           sodipodi:type="inkscape:offset"
           inkscape:radius="-7.5525618"
           inkscape:original="M 409.96875 237.03125 C 397.62714 238.50329 391.47656 253.44112 391.21875 265.1875 C 388.50157 295.20777 391.70624 326.65115 390.84375 356.71875 C 385.88326 420.36229 396.61876 482.58469 396.4375 546.25 C 396.17551 542.42939 396.88121 538.61545 397.96875 534.96875 C 408.98957 475.18686 418.83983 421.31854 431.625 360.40625 C 438.24939 328.84568 448.61659 295.64054 438 264.0625 C 434.03871 252.90907 429.68264 238.5344 415.65625 237.28125 C 413.6408 236.89299 411.73184 236.82096 409.96875 237.03125 z "
           xlink:href="#path3399"
           style="fill:#ffffc8;fill-opacity:1;fill-rule:evenodd;stroke:none;stroke-width:1px;stroke-linecap:butt;stroke-linejoin:miter;stroke-opacity:1;filter:url(#filter3455)"
           id="path3401"
           inkscape:href="#path3399"
           d="M 410.875,244.53125 C 407.54091,244.92892 404.91661,247.01121 402.59375,251.03125 C 400.27089,255.05129 398.88278,260.7176 398.78125,265.34375 C 398.77708,265.52115 398.76665,265.69834 398.75,265.875 C 396.12356,294.89279 399.28844,326.18306 398.40625,356.9375 C 398.39895,357.06274 398.38853,357.18778 398.375,357.3125 C 395.27881,397.03696 398.40926,436.66462 401.09375,476.8125 C 408.29979,438.20119 415.59412,399.934 424.21875,358.84375 C 430.94979,326.77508 440.47742,295.12319 430.84375,266.46875 C 428.81284,260.75051 426.84609,255.01602 424.28125,251.0625 C 421.71641,247.10898 419.50152,245.21747 414.96875,244.8125 C 414.71681,244.78345 414.46649,244.74173 414.21875,244.6875 C 412.90277,244.43399 411.8001,244.42091 410.875,244.53125 z" />
        <path
           sodipodi:type="arc"
           style="opacity:1;fill:#e5ff80;fill-opacity:1;fill-rule:evenodd;stroke:none;stroke-width:1;stroke-miterlimit:4;stroke-dasharray:none;stroke-opacity:1"
           id="path2503"
           sodipodi:cx="466.69049"
           sodipodi:cy="418.82535"
           sodipodi:rx="7.0710678"
           sodipodi:ry="15.152288"
           d="M 473.76156,418.82535 A 7.0710678,15.152288 0 1 1 459.61942,418.82535 A 7.0710678,15.152288 0 1 1 473.76156,418.82535 z"
           transform="translate(25.722995,26.090652)" />
        <path
           sodipodi:type="arc"
           style="opacity:1;fill:#e5ff80;fill-opacity:1;fill-rule:evenodd;stroke:none;stroke-width:1;stroke-miterlimit:4;stroke-dasharray:none;stroke-opacity:1"
           id="path3277"
           sodipodi:cx="466.69049"
           sodipodi:cy="418.82535"
           sodipodi:rx="7.0710678"
           sodipodi:ry="15.152288"
           d="M 473.76156,418.82535 A 7.0710678,15.152288 0 1 1 459.61942,418.82535 A 7.0710678,15.152288 0 1 1 473.76156,418.82535 z"
           transform="matrix(0.4849608,-0.2687468,0.1435854,0.5622779,207.54522,277.78432)" />
        <path
           transform="matrix(0.5254661,-0.1769098,3.985989e-2,0.5789512,212.0846,248.65598)"
           d="M 473.76156,418.82535 A 7.0710678,15.152288 0 1 1 459.61942,418.82535 A 7.0710678,15.152288 0 1 1 473.76156,418.82535 z"
           sodipodi:ry="15.152288"
           sodipodi:rx="7.0710678"
           sodipodi:cy="418.82535"
           sodipodi:cx="466.69049"
           id="path3279"
           style="opacity:1;fill:#e5ff80;fill-opacity:1;fill-rule:evenodd;stroke:none;stroke-width:1;stroke-miterlimit:4;stroke-dasharray:none;stroke-opacity:1"
           sodipodi:type="arc" />
        <g
           id="g3831">
          <path
             id="path3364"
             d="M 390.92904,296.5969 C 391.93919,281.44462 402.04071,274.37355 408.10163,273.3634"
             style="fill:none;fill-rule:evenodd;stroke:#988330;stroke-width:3;stroke-linecap:butt;stroke-linejoin:miter;stroke-miterlimit:4;stroke-dasharray:none;stroke-opacity:1" />
          <path
             id="path3366"
             d="M 390.92904,327.91163 C 391.93919,315.7898 402.04071,314.77965 402.04071,314.77965"
             style="fill:none;fill-rule:evenodd;stroke:#988330;stroke-width:3;stroke-linecap:butt;stroke-linejoin:miter;stroke-miterlimit:4;stroke-dasharray:none;stroke-opacity:1" />
          <path
             id="path3368"
             d="M 390.92904,369.32789 C 391.93919,357.20606 399.01026,359.22636 399.01026,359.22636"
             style="fill:none;fill-rule:evenodd;stroke:#988330;stroke-width:3;stroke-linecap:butt;stroke-linejoin:miter;stroke-miterlimit:4;stroke-dasharray:none;stroke-opacity:1" />
        </g>
      </g>
    </g>
    <g
       id="g2500"
       inkscape:transform-center-x="81.917336"
       inkscape:transform-center-y="-165.3455"
       transform="matrix(1.1362409,0.1958496,-0.1958496,1.1362409,-86.111508,-206.50274)">
      <g
         id="g4002">
        <path
           style="fill:url(#linearGradient3992);fill-opacity:1;fill-rule:evenodd;stroke:#000000;stroke-width:3;stroke-linecap:butt;stroke-linejoin:miter;stroke-miterlimit:4;stroke-dasharray:none;stroke-opacity:1"
           d="M 308,287.09448 C 370,283.09448 376,300.09448 371,306.09448 C 366,312.09448 335,311.09448 320,322.09448"
           id="path3984"
           sodipodi:nodetypes="csc" />
        <path
           sodipodi:nodetypes="csc"
           id="path3994"
           d="M 341.62491,359.57976 C 387.01156,356.50664 391.40382,369.5674 387.7436,374.17708 C 384.08339,378.78676 361.39007,378.01848 350.40942,386.46957"
           style="fill:url(#linearGradient3996);fill-opacity:1;fill-rule:evenodd;stroke:#000000;stroke-width:2.24982786;stroke-linecap:butt;stroke-linejoin:miter;stroke-miterlimit:4;stroke-dasharray:none;stroke-opacity:1" />
        <path
           style="fill:url(#linearGradient4000);fill-opacity:1;fill-rule:evenodd;stroke:#000000;stroke-width:1.45988739;stroke-linecap:butt;stroke-linejoin:miter;stroke-miterlimit:4;stroke-dasharray:none;stroke-opacity:1"
           d="M 359.22994,438.0289 C 388.04154,435.99054 390.82976,444.65356 388.50624,447.7111 C 386.18272,450.76864 371.77693,450.25905 364.80638,455.86454"
           id="path3998"
           sodipodi:nodetypes="csc" />
      </g>
      <g
         transform="matrix(0.9574425,-0.2886242,0.2886242,0.9574425,-139.253,138.41896)"
         inkscape:transform-center-y="-129.1364"
         inkscape:transform-center-x="91.030373"
         id="g3940">
        <g
           id="g3926">
          <path
             sodipodi:nodetypes="cccc"
             id="path2400"
             d="M 342.00074,261.60438 C 338.20264,308.04595 298.93507,331.20479 274.70249,364.53891 C 243.76225,405.38722 236.56642,482.7324 275.76249,516.59183 C 314.4361,545.1571 348.46236,553.69063 394.3371,542.94368"
             style="fill:url(#radialGradient3954);fill-opacity:1;fill-rule:evenodd;stroke:#000000;stroke-width:5;stroke-linecap:butt;stroke-linejoin:miter;stroke-miterlimit:4;stroke-dasharray:none;stroke-opacity:1" />
          <path
             id="path2388"
             d="M 395.71429,544.80878 C 381.90789,485.40299 365.0286,426.71984 353.1081,366.87819 C 344.49318,330.21342 332.74627,292.24602 340.2957,254.34961 C 343.63274,241.36831 359.7421,230.34894 372.08028,238.96802 C 386.01734,250.55348 387.45948,270.30822 388.85637,287.16965 C 389.9063,314.39959 395.20711,341.26374 395.37706,368.55488 C 395.89532,401.89125 396.81915,435.21566 397.67014,468.54264 C 397.685,489.43622 398.03944,510.33233 398.7506,531.19979 C 398.54044,535.86177 397.71181,540.55996 395.71429,544.80878 z"
             style="fill:#cac724;fill-opacity:1;fill-rule:evenodd;stroke:#000000;stroke-width:2;stroke-linecap:butt;stroke-linejoin:miter;stroke-miterlimit:4;stroke-dasharray:none;stroke-opacity:1" />
          <path
             transform="matrix(-1,0,0,1,784.02332,0)"
             sodipodi:type="inkscape:offset"
             inkscape:radius="-9.4330635"
             inkscape:original="M 409.96875 237.03125 C 397.62714 238.50329 391.47656 253.44112 391.21875 265.1875 C 388.50157 295.20777 391.70624 326.65115 390.84375 356.71875 C 385.88326 420.36229 396.61876 482.58469 396.4375 546.25 C 396.17551 542.42939 396.88121 538.61545 397.96875 534.96875 C 408.98957 475.18686 418.83983 421.31854 431.625 360.40625 C 438.24939 328.84568 448.61659 295.64054 438 264.0625 C 434.03871 252.90907 429.68264 238.5344 415.65625 237.28125 C 413.6408 236.89299 411.73184 236.82096 409.96875 237.03125 z "
             xlink:href="#path3399"
             style="fill:#ffffc8;fill-opacity:1;fill-rule:evenodd;stroke:none;stroke-width:1px;stroke-linecap:butt;stroke-linejoin:miter;stroke-opacity:1;filter:url(#filter3587)"
             id="path3565"
             inkscape:href="#path3399"
             d="M 411.09375,246.40625 C 408.46597,246.71968 406.34497,248.28901 404.21875,251.96875 C 402.09253,255.64849 400.75097,261.0906 400.65625,265.40625 C 400.65275,265.61487 400.64233,265.82332 400.625,266.03125 C 398.02115,294.79943 401.16835,326.07455 400.28125,357 C 400.27423,357.14606 400.26381,357.29193 400.25,357.4375 C 397.55184,392.05517 399.63261,426.6887 402,461.71875 C 408.33503,428.07242 414.86516,394.39669 422.40625,358.46875 C 429.16384,326.27357 438.45144,294.989 429.0625,267.0625 C 427.01908,261.30903 425.05996,255.75073 422.6875,252.09375 C 420.31504,248.43677 418.72768,247.03729 414.8125,246.6875 C 414.49757,246.6512 414.18468,246.59905 413.875,246.53125 C 412.73318,246.31129 411.8102,246.3208 411.09375,246.40625 z" />
          <path
             transform="matrix(-1.5084835,0.3798933,0.2442127,0.9697217,900.91166,-99.949193)"
             d="M 473.76156,418.82535 A 7.0710678,15.152288 0 1 1 459.61942,418.82535 A 7.0710678,15.152288 0 1 1 473.76156,418.82535 z"
             sodipodi:ry="15.152288"
             sodipodi:rx="7.0710678"
             sodipodi:cy="418.82535"
             sodipodi:cx="466.69049"
             id="path3281"
             style="opacity:1;fill:#e5ff80;fill-opacity:1;fill-rule:evenodd;stroke:none;stroke-width:1;stroke-miterlimit:4;stroke-dasharray:none;stroke-opacity:1"
             sodipodi:type="arc" />
          <path
             sodipodi:type="arc"
             style="opacity:1;fill:#e5ff80;fill-opacity:1;fill-rule:evenodd;stroke:none;stroke-width:1;stroke-miterlimit:4;stroke-dasharray:none;stroke-opacity:1"
             id="path3283"
             sodipodi:cx="466.69049"
             sodipodi:cy="418.82535"
             sodipodi:rx="7.0710678"
             sodipodi:ry="15.152288"
             d="M 473.76156,418.82535 A 7.0710678,15.152288 0 1 1 459.61942,418.82535 A 7.0710678,15.152288 0 1 1 473.76156,418.82535 z"
             transform="matrix(-0.957135,-1.777965e-2,-0.1049517,0.9921813,756.27005,14.091502)" />
          <path
             sodipodi:type="arc"
             style="opacity:1;fill:#e5ff80;fill-opacity:1;fill-rule:evenodd;stroke:none;stroke-width:1;stroke-miterlimit:4;stroke-dasharray:none;stroke-opacity:1"
             id="path3285"
             sodipodi:cx="466.69049"
             sodipodi:cy="418.82535"
             sodipodi:rx="7.0710678"
             sodipodi:ry="15.152288"
             d="M 473.76156,418.82535 A 7.0710678,15.152288 0 1 1 459.61942,418.82535 A 7.0710678,15.152288 0 1 1 473.76156,418.82535 z"
             transform="matrix(0.5347301,0.1465455,-0.2901112,0.5026019,176.67577,67.536573)" />
          <path
             transform="matrix(0.5543033,1.2637672e-2,-0.1597101,0.557912,116.4973,151.15051)"
             d="M 473.76156,418.82535 A 7.0710678,15.152288 0 1 1 459.61942,418.82535 A 7.0710678,15.152288 0 1 1 473.76156,418.82535 z"
             sodipodi:ry="15.152288"
             sodipodi:rx="7.0710678"
             sodipodi:cy="418.82535"
             sodipodi:cx="466.69049"
             id="path3287"
             style="opacity:1;fill:#e5ff80;fill-opacity:1;fill-rule:evenodd;stroke:none;stroke-width:1;stroke-miterlimit:4;stroke-dasharray:none;stroke-opacity:1"
             sodipodi:type="arc" />
          <path
             transform="matrix(-0.9568697,2.3948805e-2,-5.6665509e-2,0.8311298,797.35134,80.99823)"
             d="M 473.76156,418.82535 A 7.0710678,15.152288 0 1 1 459.61942,418.82535 A 7.0710678,15.152288 0 1 1 473.76156,418.82535 z"
             sodipodi:ry="15.152288"
             sodipodi:rx="7.0710678"
             sodipodi:cy="418.82535"
             sodipodi:cx="466.69049"
             id="path3289"
             style="opacity:1;fill:#e5ff80;fill-opacity:1;fill-rule:evenodd;stroke:none;stroke-width:1;stroke-miterlimit:4;stroke-dasharray:none;stroke-opacity:1"
             sodipodi:type="arc" />
          <path
             style="fill:none;fill-rule:evenodd;stroke:#988330;stroke-width:2;stroke-linecap:butt;stroke-linejoin:miter;stroke-miterlimit:4;stroke-dasharray:none;stroke-opacity:1"
             d="M 390.10163,295.84467 C 389.09148,276.25225 378.98996,267.10911 372.92904,265.80295"
             id="path3838" />
          <path
             style="fill:none;fill-rule:evenodd;stroke:#988330;stroke-width:2;stroke-linecap:butt;stroke-linejoin:miter;stroke-miterlimit:4;stroke-dasharray:none;stroke-opacity:1"
             d="M 392.10163,336.33569 C 391.09148,320.66175 380.98996,319.35559 380.98996,319.35559"
             id="path3840" />
        </g>
        <path
           id="path3842"
           d="M 396.10163,389.88834 C 395.09148,374.2144 388.02041,376.82671 388.02041,376.82671"
           style="fill:none;fill-rule:evenodd;stroke:#988330;stroke-width:2;stroke-linecap:butt;stroke-linejoin:miter;stroke-miterlimit:4;stroke-dasharray:none;stroke-opacity:1" />
      </g>
    </g>
    <g
       id="g3810"
       transform="matrix(-1.1516667,5.5353438e-2,5.5353438e-2,1.1516667,688.09295,-154.91406)"
       inkscape:transform-center-x="114.50838"
       inkscape:transform-center-y="-27.011577">
      <path
         style="fill:url(#linearGradient3826);fill-opacity:1;fill-rule:evenodd;stroke:#000000;stroke-width:3;stroke-linecap:butt;stroke-linejoin:miter;stroke-miterlimit:4;stroke-dasharray:none;stroke-opacity:1"
         d="M 395.33125,548.21721 C 395.61848,543.5245 401.57121,533.02799 406.8107,526.53844 C 412.08513,520.00563 424.66782,508.37669 433.09353,502.26879 C 432.62761,509.02842 434.1344,511.30028 433.39442,518.8218 C 440.1286,505.075 475.82141,485.59189 490.83232,480.33842 C 490.68149,488.55662 489.34326,491.74655 488.27313,497.10042 C 501.91744,484.61706 525.93268,478.56552 547.03506,476.29702 C 543.69047,480.73219 542.6905,484.70037 537.88,488.74701 C 561.44923,479.81067 592.82931,480.09508 618.6712,481.42209 C 616.06789,496.48664 591.21185,506.7147 577.01294,513.04689 C 584.64489,514.96986 588.86846,517.67827 596.02137,521.45937 C 582.02222,533.28567 528.45877,531.74186 528.73317,533.19019 C 538.49862,536.78033 544.04114,538.83043 550.83519,546.76162 C 523.5065,551.05991 490.85357,550.84332 463.80154,546.49438 C 461.2385,546.40356 480.62195,555.12752 478.14884,555.63401 C 450.98568,558.19154 422.07477,556.78281 395.33125,548.21721 z"
         id="path3812"
         inkscape:transform-center-x="-95.944227"
         inkscape:transform-center-y="-29.054215"
         sodipodi:nodetypes="cscccccccccccccc" />
      <path
         style="fill:none;fill-rule:evenodd;stroke:#1c6c1d;stroke-width:3;stroke-linecap:butt;stroke-linejoin:miter;stroke-miterlimit:4;stroke-dasharray:none;stroke-opacity:1"
         d="M 398.0001,545.09443 C 498.97223,503.03829 599.60662,495.94027 618.24382,481.44467"
         id="path3814"
         sodipodi:nodetypes="cc" />
      <path
         style="fill:none;fill-opacity:1;fill-rule:evenodd;stroke:#287228;stroke-width:2;stroke-linecap:butt;stroke-linejoin:miter;stroke-miterlimit:4;stroke-dasharray:none;stroke-opacity:1"
         d="M 454.56865,523.88123 C 460.62956,506.70864 476.792,497.61726 476.792,497.61726"
         id="path3816"
         sodipodi:nodetypes="cc" />
      <path
         style="fill:none;fill-rule:evenodd;stroke:#287228;stroke-width:2;stroke-linecap:butt;stroke-linejoin:miter;stroke-miterlimit:4;stroke-dasharray:none;stroke-opacity:1"
         d="M 509.09658,508.70863 C 515.15749,498.10203 529.29963,489.51574 529.29963,489.51574"
         id="path3818"
         sodipodi:nodetypes="cc" />
      <path
         style="fill:none;fill-rule:evenodd;stroke:#287228;stroke-width:2;stroke-linecap:butt;stroke-linejoin:miter;stroke-miterlimit:4;stroke-dasharray:none;stroke-opacity:1"
         d="M 452.54834,523.88123 C 473.76154,537.01321 505.07627,534.99291 505.07627,534.99291"
         id="path3820" />
      <path
         style="fill:none;fill-rule:evenodd;stroke:#287228;stroke-width:2;stroke-linecap:butt;stroke-linejoin:miter;stroke-miterlimit:4;stroke-dasharray:none;stroke-opacity:1"
         d="M 507.09658,508.72894 C 531.34024,515.80001 551.54329,512.76955 551.54329,512.76955"
         id="path3822" />
      <path
         style="fill:none;fill-rule:evenodd;stroke:#287228;stroke-width:2;stroke-linecap:butt;stroke-linejoin:miter;stroke-miterlimit:4;stroke-dasharray:none;stroke-opacity:1"
         d="M 427.29453,521.35585 C 427.29453,521.35585 417.69808,527.41676 416.18285,537.01321 C 438.91128,548.62997 452.54835,545.09443 452.54835,545.09443"
         id="path3824"
         sodipodi:nodetypes="ccc" />
    </g>
    <g
       id="g3755"
       transform="matrix(1.151956,-4.896593e-2,4.896593e-2,1.151956,-206.24127,-120.15344)"
       inkscape:transform-center-x="-55.790102"
       inkscape:transform-center-y="-81.602474">
      <path
         inkscape:transform-center-y="-48.609246"
         inkscape:transform-center-x="-46.228062"
         id="path2489"
         d="M 421.4062,519.90206 C 433.47742,487.04675 468.17512,466.00575 502.54734,465.99414 C 522.61447,463.71751 543.60177,445.88368 540.13231,424.19526 C 538.44895,415.16762 522.99661,402.95773 537.50964,397.35545 C 552.0962,396.95922 558.26853,416.11071 559.1162,428.21583 C 559.61354,446.33818 551.25585,464.4906 535.83304,474.46421 C 511.15609,492.65594 475.8568,494.35151 456.45006,519.92837 C 453.76802,523.84837 451.93686,528.4847 451.95353,533.28511"
         style="fill:#3e6b20;fill-opacity:1;fill-rule:evenodd;stroke:#000000;stroke-width:1px;stroke-linecap:butt;stroke-linejoin:miter;stroke-opacity:1" />
      <path
         d="M 538.53125,403.125 C 537.31315,403.73291 537.00373,404.11132 537,404.125 C 536.9952,404.14259 536.98883,405.17934 537.875,407.09375 C 539.64735,410.92257 544.35868,416.03001 545.6875,423.15625 C 545.69839,423.1978 545.70881,423.23947 545.71875,423.28125 C 547.77215,436.11757 542.49431,447.90804 534.21875,456.34375 C 525.94319,464.77946 514.64572,470.32506 503.1875,471.625 C 502.9799,471.64695 502.77125,471.65738 502.5625,471.65625 C 472.27449,471.66648 441.48629,489.43981 428.78125,516.9375 L 447.65625,525.1875 C 448.63186,522.13166 450.05076,519.27925 451.78125,516.75 C 451.83159,516.67585 451.88369,516.60292 451.9375,516.53125 C 462.60247,502.47549 477.41072,495.2169 492,489.21875 C 506.58928,483.2206 521.13054,478.28775 532.5,469.90625 C 532.59186,469.84096 532.68565,469.77843 532.78125,469.71875 C 546.35967,460.93787 553.91562,444.6586 553.46875,428.375 C 553.09737,423.07152 551.43006,416.05877 548.53125,410.84375 C 545.82414,405.9736 542.81758,403.35861 538.53125,403.125 z"
         id="path3593"
         style="fill:#87ef45;fill-opacity:1;fill-rule:evenodd;stroke:none;stroke-width:1px;stroke-linecap:butt;stroke-linejoin:miter;stroke-opacity:1;filter:url(#filter3751)"
         inkscape:original="M 537.5 397.34375 C 522.98697 402.94603 538.44163 415.15987 540.125 424.1875 C 543.59446 445.87592 522.62964 463.72337 502.5625 466 C 468.19028 466.01161 433.47748 487.05096 421.40625 519.90625 L 451.96875 533.28125 C 451.95208 528.48084 453.75545 523.85753 456.4375 519.9375 C 475.84424 494.36064 511.16677 492.66049 535.84375 474.46875 C 551.26656 464.49514 559.62233 446.34111 559.125 428.21875 C 558.27733 416.11363 552.08656 396.94753 537.5 397.34375 z "
         inkscape:radius="-5.6517529"
         sodipodi:type="inkscape:offset" />
    </g>
    <g
       transform="matrix(1.1526488,2.8310092e-2,-2.8310092e-2,1.1526488,-189.13408,-145.28513)"
       id="g3858"
       inkscape:transform-center-x="-124.25978"
       inkscape:transform-center-y="-32.840741">
      <path
         sodipodi:nodetypes="cscccccccccccccc"
         inkscape:transform-center-y="-29.054215"
         inkscape:transform-center-x="-95.944227"
         id="path3860"
         d="M 395.33125,548.21721 C 395.61848,543.5245 401.57121,533.02799 406.8107,526.53844 C 412.08513,520.00563 424.66782,508.37669 433.09353,502.26879 C 432.62761,509.02842 434.1344,511.30028 433.39442,518.8218 C 440.1286,505.075 475.82141,485.59189 490.83232,480.33842 C 490.68149,488.55662 489.34326,491.74655 488.27313,497.10042 C 501.91744,484.61706 525.93268,478.56552 547.03506,476.29702 C 543.69047,480.73219 542.6905,484.70037 537.88,488.74701 C 561.44923,479.81067 592.82931,480.09508 618.6712,481.42209 C 616.06789,496.48664 591.21185,506.7147 577.01294,513.04689 C 584.64489,514.96986 588.86846,517.67827 596.02137,521.45937 C 582.02222,533.28567 528.45877,531.74186 528.73317,533.19019 C 538.49862,536.78033 544.04114,538.83043 550.83519,546.76162 C 523.5065,551.05991 490.85357,550.84332 463.80154,546.49438 C 461.2385,546.40356 480.62195,555.12752 478.14884,555.63401 C 450.98568,558.19154 422.07477,556.78281 395.33125,548.21721 z"
         style="fill:url(#linearGradient3874);fill-opacity:1;fill-rule:evenodd;stroke:#000000;stroke-width:3;stroke-linecap:butt;stroke-linejoin:miter;stroke-miterlimit:4;stroke-dasharray:none;stroke-opacity:1" />
      <path
         sodipodi:nodetypes="cc"
         id="path3862"
         d="M 398.0001,545.09443 C 498.97223,503.03829 599.60662,495.94027 618.24382,481.44467"
         style="fill:none;fill-rule:evenodd;stroke:#1c6c1d;stroke-width:3;stroke-linecap:butt;stroke-linejoin:miter;stroke-miterlimit:4;stroke-dasharray:none;stroke-opacity:1" />
      <path
         sodipodi:nodetypes="cc"
         id="path3864"
         d="M 454.56865,523.88123 C 460.62956,506.70864 476.792,497.61726 476.792,497.61726"
         style="fill:none;fill-opacity:1;fill-rule:evenodd;stroke:#287228;stroke-width:2;stroke-linecap:butt;stroke-linejoin:miter;stroke-miterlimit:4;stroke-dasharray:none;stroke-opacity:1" />
      <path
         sodipodi:nodetypes="cc"
         id="path3866"
         d="M 509.09658,508.70863 C 515.15749,498.10203 529.29963,489.51574 529.29963,489.51574"
         style="fill:none;fill-rule:evenodd;stroke:#287228;stroke-width:2;stroke-linecap:butt;stroke-linejoin:miter;stroke-miterlimit:4;stroke-dasharray:none;stroke-opacity:1" />
      <path
         id="path3868"
         d="M 452.54834,523.88123 C 473.76154,537.01321 505.07627,534.99291 505.07627,534.99291"
         style="fill:none;fill-rule:evenodd;stroke:#287228;stroke-width:2;stroke-linecap:butt;stroke-linejoin:miter;stroke-miterlimit:4;stroke-dasharray:none;stroke-opacity:1" />
      <path
         id="path3870"
         d="M 507.09658,508.72894 C 531.34024,515.80001 551.54329,512.76955 551.54329,512.76955"
         style="fill:none;fill-rule:evenodd;stroke:#287228;stroke-width:2;stroke-linecap:butt;stroke-linejoin:miter;stroke-miterlimit:4;stroke-dasharray:none;stroke-opacity:1" />
      <path
         sodipodi:nodetypes="ccc"
         id="path3872"
         d="M 427.29453,521.35585 C 427.29453,521.35585 417.69808,527.41676 416.18285,537.01321 C 438.91128,548.62997 452.54835,545.09443 452.54835,545.09443"
         style="fill:none;fill-rule:evenodd;stroke:#287228;stroke-width:2;stroke-linecap:butt;stroke-linejoin:miter;stroke-miterlimit:4;stroke-dasharray:none;stroke-opacity:1" />
    </g>
  </g>
</svg>
