<?xml version="1.0" encoding="UTF-8" standalone="no"?>
<!-- Created with Inkscape (http://www.inkscape.org/) -->
<svg
   xmlns:dc="http://purl.org/dc/elements/1.1/"
   xmlns:cc="http://creativecommons.org/ns#"
   xmlns:rdf="http://www.w3.org/1999/02/22-rdf-syntax-ns#"
   xmlns:svg="http://www.w3.org/2000/svg"
   xmlns="http://www.w3.org/2000/svg"
   xmlns:xlink="http://www.w3.org/1999/xlink"
   xmlns:sodipodi="http://sodipodi.sourceforge.net/DTD/sodipodi-0.dtd"
   xmlns:inkscape="http://www.inkscape.org/namespaces/inkscape"
   width="256"
   height="256"
   id="svg2"
   sodipodi:version="0.32"
   inkscape:version="0.46"
   version="1.0"
   sodipodi:docname="fireplant.svg"
   inkscape:output_extension="org.inkscape.output.svg.inkscape"
   inkscape:export-filename="D:\Dateien\Desktop\Secret Maryo Chronicles\SMC\data\pixmaps\game\items\fireplant.png"
   inkscape:export-xdpi="90"
   inkscape:export-ydpi="90">
  <metadata
     id="metadata105">
    <rdf:RDF>
      <cc:Work
         rdf:about="">
        <dc:format>image/svg+xml</dc:format>
        <dc:type
           rdf:resource="http://purl.org/dc/dcmitype/StillImage" />
      </cc:Work>
    </rdf:RDF>
  </metadata>
  <sodipodi:namedview
     inkscape:window-height="801"
     inkscape:window-width="1026"
     inkscape:pageshadow="2"
     inkscape:pageopacity="0"
     guidetolerance="10.0"
     gridtolerance="10.0"
     objecttolerance="10.0"
     borderopacity="1.0"
     bordercolor="#666666"
     pagecolor="#000000"
     id="base"
     showgrid="false"
     inkscape:zoom="0.99583334"
     inkscape:cx="56.870287"
     inkscape:cy="146.64287"
     inkscape:window-x="128"
     inkscape:window-y="65"
     inkscape:current-layer="Document" />
  <defs
     id="defs4">
    <radialGradient
       id="radialGradient3348"
       gradientUnits="userSpaceOnUse"
       cx="0"
       cy="0"
       r="351.475"
       gradientTransform="matrix(-0.1906205,-0.9816638,0.7747285,-0.1240219,82.468,306.646)">
      <stop
         offset="0"
         stop-color="#b5f7b4"
         id="stop3350"
         style="stop-color:#219910;stop-opacity:1;" />
      <stop
         style="stop-color:#2dcf16;stop-opacity:1;"
         id="stop3352"
         stop-color="#b5f7b4"
         offset="0.2536265" />
      <stop
         offset="1"
         stop-color="#75d44c"
         id="stop3354"
         style="stop-color:#21b016;stop-opacity:1" />
    </radialGradient>
    <radialGradient
       gradientTransform="matrix(-0.1906205,-0.9816638,0.7747285,-0.1240219,82.468,306.646)"
       r="351.475"
       cy="0"
       cx="0"
       gradientUnits="userSpaceOnUse"
       id="radialGradient3282">
      <stop
         style="stop-color:#219910;stop-opacity:1;"
         id="stop3284"
         stop-color="#b5f7b4"
         offset="0" />
      <stop
         offset="0.21428572"
         stop-color="#b5f7b4"
         id="stop3288"
         style="stop-color:#2dcf16;stop-opacity:1;" />
      <stop
         style="stop-color:#21b016;stop-opacity:1"
         id="stop3286"
         stop-color="#75d44c"
         offset="1" />
    </radialGradient>
    <radialGradient
       gradientTransform="matrix(-0.1906205,-0.9816638,0.7747285,-0.1240219,82.468,306.646)"
       r="351.475"
       cy="0"
       cx="0"
       gradientUnits="userSpaceOnUse"
       id="radialGradient3215">
      <stop
         style="stop-color:#7fff11;stop-opacity:1"
         id="stop3217"
         stop-color="#b5f7b4"
         offset="0" />
      <stop
         style="stop-color:#1f5615;stop-opacity:1"
         id="stop3219"
         stop-color="#75d44c"
         offset="1" />
    </radialGradient>
    <inkscape:perspective
       sodipodi:type="inkscape:persp3d"
       inkscape:vp_x="0 : 128 : 1"
       inkscape:vp_y="0 : 1000 : 0"
       inkscape:vp_z="256 : 128 : 1"
       inkscape:persp3d-origin="128 : 85.333333 : 1"
       id="perspective38" />
    <radialGradient
       gradientTransform="matrix(0.5056544,-0.8627362,0.8557249,0.5097972,97.337,383.343)"
       r="281.498"
       cy="0"
       cx="0"
       gradientUnits="userSpaceOnUse"
       id="radialGradient3230">
      <stop
         style="stop-color:#ffa400;stop-opacity:1"
         id="stop3232"
         stop-color="#f7ce61"
         offset="0" />
      <stop
         style="stop-color:#ff7300;stop-opacity:1"
         id="stop3234"
         stop-color="#f76b1d"
         offset="1" />
    </radialGradient>
    <radialGradient
       id="RadialGradient"
       gradientUnits="userSpaceOnUse"
       cx="0"
       cy="0"
       r="351.475"
       gradientTransform="matrix(-0.1906205,-0.9816638,0.7747285,-0.1240219,82.468,306.646)">
      <stop
         offset="0"
         stop-color="#b5f7b4"
         id="stop84"
         style="stop-color:#18cf16;stop-opacity:1;" />
      <stop
         offset="1"
         stop-color="#75d44c"
         id="stop86"
         style="stop-color:#5ace28;stop-opacity:1;" />
    </radialGradient>
    <radialGradient
       id="RadialGradient_1"
       gradientUnits="userSpaceOnUse"
       cx="0"
       cy="0"
       r="281.498"
       gradientTransform="matrix(0.5056544,-0.8627362,0.8557249,0.5097972,97.337,383.343)">
      <stop
         offset="0"
         stop-color="#f7ce61"
         id="stop89"
         style="stop-color:#f78400;stop-opacity:1" />
      <stop
         offset="1"
         stop-color="#f76b1d"
         id="stop91"
         style="stop-color:#b96813;stop-opacity:1" />
    </radialGradient>
    <filter
       id="filter3328"
       inkscape:label="fire">
      <feTurbulence
         id="feTurbulence3330"
         in="SourceGraphic"
         numOctaves="1"
         baseFrequency="0.005263157894736842 0.042105263157894736"
         seed="408"
         type="fractalNoise" />
      <feColorMatrix
         id="feColorMatrix3332"
         values="0.5 0.5 0.9 0 0 0.7 0.5 0.4 0 0 0.15 0.5 0.2 0 0 0 0 0.4 0 0 " />
      <feComposite
         id="feComposite3334"
         operator="in"
         in2="SourceGraphic" />
    </filter>
    <filter
       inkscape:collect="always"
       id="filter3615"
       x="-0.26393884"
       width="1.5278777"
       y="-0.30361039"
       height="1.6072208">
      <feGaussianBlur
         inkscape:collect="always"
         stdDeviation="2.0765203"
         id="feGaussianBlur3617" />
    </filter>
    <filter
       inkscape:collect="always"
       id="filter3619"
       x="-0.32605838"
       width="1.6521168"
       y="-0.24576757"
       height="1.4915351">
      <feGaussianBlur
         inkscape:collect="always"
         stdDeviation="4.2157515"
         id="feGaussianBlur3621" />
    </filter>
    <linearGradient
       inkscape:collect="always"
       xlink:href="#radialGradient3282"
       id="linearGradient3254"
       gradientUnits="userSpaceOnUse"
       x1="132.10344"
       y1="-166.01669"
       x2="124.28371"
       y2="-276.58609"
       gradientTransform="translate(0,124)" />
    <filter
       inkscape:collect="always"
       id="filter3278">
      <feGaussianBlur
         inkscape:collect="always"
         stdDeviation="4.2984778"
         id="feGaussianBlur3280" />
    </filter>
    <linearGradient
       inkscape:collect="always"
       xlink:href="#radialGradient3215"
       id="linearGradient3292"
       gradientUnits="userSpaceOnUse"
       x1="124.17427"
       y1="-137.65353"
       x2="118.14916"
       y2="-252.46693"
       gradientTransform="matrix(-1,0,0,-1,248.34854,1.4843702)" />
    <filter
       inkscape:label="grass"
       id="filter3294">
      <feTurbulence
         type="turbulence"
         seed="230"
         baseFrequency="0.14385964912280702"
         numOctaves="1"
         in="SourceGraphic"
         id="feTurbulence3296" />
      <feColorMatrix
         values="0 1 0.6 0 0 0.2 2 0.1 0.9 0 0 0.5 0 0 0 0.5 0.2 0.3 0.1 0 "
         id="feColorMatrix3298" />
      <feComposite
         in2="SourceGraphic"
         operator="in"
         id="feComposite3300" />
    </filter>
    <linearGradient
       inkscape:collect="always"
       xlink:href="#radialGradient3348"
       id="linearGradient3342"
       gradientUnits="userSpaceOnUse"
       gradientTransform="translate(0,426.00027)"
       x1="130.09506"
       y1="-252.83372"
       x2="122.97346"
       y2="-165.76701" />
    <filter
       inkscape:collect="always"
       id="filter3380">
      <feGaussianBlur
         inkscape:collect="always"
         stdDeviation="3.9413009"
         id="feGaussianBlur3382" />
    </filter>
    <filter
       id="filter3394"
       inkscape:label="light">
      <feGaussianBlur
         stdDeviation="6.2999999999999998"
         id="feGaussianBlur3396"
         in="SourceGraphic" />
      <feDiffuseLighting
         id="feDiffuseLighting3398"
         surfaceScale="4"
         diffuseConstant="1.1000000000000001"
         kernelUnitLength="0.01"
         lighting-color="rgb(255,255,255)">
        <feDistantLight
           id="feDistantLight3404"
           azimuth="232"
           elevation="58" />
      </feDiffuseLighting>
      <feComposite
         id="feComposite3400"
         in2="SourceGraphic"
         operator="arithmetic"
         k1="1" />
      <feGaussianBlur
         stdDeviation="5.4000000000000004"
         id="feGaussianBlur3402" />
    </filter>
    <linearGradient
       inkscape:collect="always"
       xlink:href="#RadialGradient_1"
       id="linearGradient3408"
       gradientUnits="userSpaceOnUse"
       gradientTransform="matrix(-1,0,0,-1,255.34256,2.849235)"
       x1="181.01266"
       y1="5.409255"
       x2="75.019066"
       y2="-163.87178" />
    <linearGradient
       inkscape:collect="always"
       xlink:href="#radialGradient3230"
       id="linearGradient3410"
       x1="94.157501"
       y1="8.5308962"
       x2="197.03775"
       y2="162.86569"
       gradientUnits="userSpaceOnUse" />
  </defs>
  <g
     id="Document">
    <path
       d="M 155.74721,259.31115 L 155.74721,221.46611 L 158.45645,222.80201 C 167.55231,226.20193 187.71444,226.02407 199.21197,221.09303 C 217.60963,213.20469 235.74251,190.37678 229.29972,177.98999 C 222.8576,165.60386 186.29229,168.08042 167.89531,175.9701 C 163.29589,177.94251 159.24006,180.44983 155.84416,183.29546 L 155.74721,183.3904 L 155.74721,148.17303 L 91.05789,148.17303 L 91.05789,190.0545 L 90.70753,189.78505 C 87.90803,187.79926 76.96946,180.66846 73.51205,179.20419 C 55.07227,171.39743 29.05573,169.42501 20.022719,183.45392 C 12.119669,195.72839 26.04629,214.58471 39.4126,222.30723 C 54.12217,230.80669 81.90987,234.799 90.98768,231.3583 L 91.05855,231.32821 L 91.05789,259.31115 L 155.74721,259.31115 z"
       stroke-miterlimit="79.8403193612775"
       id="path96"
       style="fill:url(#linearGradient3292);fill-opacity:1;stroke:#000000;stroke-width:2.5;stroke-linecap:round;stroke-linejoin:round;marker-start:none;marker-end:none;stroke-miterlimit:79.84031677;stroke-dasharray:none" />
    <path
       d="M 148.94438,259.22908 L 149.13494,212.56919 C 158.2308,215.96911 181.91978,219.87414 193.41731,214.9431 C 224.65241,193.53912 229.33022,186.41608 219.59889,178.49331 C 213.10159,173.20352 186.5898,170.80067 171.11122,183.98384 C 163.48019,190.48322 152.46108,185.70963 149.06517,188.55527 L 156.97785,145.04941 L 92.290355,145.04941 L 100.32383,189.93695 L 91.074027,202.46989 C 88.274527,200.48412 69.663225,189.98048 66.205815,188.51621 C 47.766035,180.70945 36.018546,170.31848 26.985536,184.34739 C 19.082487,196.62188 34.297084,210.4477 47.663394,218.17022 C 62.372964,226.66968 87.461243,223.91559 96.539053,220.47489 L 98.31546,260.23326 L 148.94438,259.22908 z"
       id="path3207"
       sodipodi:nodetypes="cccsscccccsssccc"
       style="fill:url(#linearGradient3342);fill-opacity:1;stroke:none;stroke-width:4.01183890999999980;stroke-linecap:round;stroke-linejoin:round;marker-start:none;marker-end:none;stroke-miterlimit:79.84031677000000100;filter:url(#filter3380)" />
    <path
       sodipodi:type="inkscape:offset"
       inkscape:radius="0"
       inkscape:original="M 91.0625 148.1875 L 91.0625 190.0625 L 90.71875 189.78125 C 87.919253 187.79546 76.95741 180.68302 73.5 179.21875 C 55.060223 171.41199 29.064261 169.43984 20.03125 183.46875 C 12.128201 195.74322 26.03994 214.58998 39.40625 222.3125 C 54.115819 230.81195 81.92219 234.78445 91 231.34375 L 91.0625 231.34375 L 91.0625 259.3125 L 155.75 259.3125 L 155.75 221.46875 L 158.46875 222.8125 C 167.56461 226.21241 187.72122 226.02479 199.21875 221.09375 C 217.6164 213.20541 235.75529 190.38679 229.3125 178 C 222.87039 165.61387 186.30323 168.07907 167.90625 175.96875 C 163.30683 177.94117 159.23965 180.43562 155.84375 183.28125 L 155.75 183.375 L 155.75 148.1875 L 91.0625 148.1875 z "
       xlink:href="#path96"
       style="opacity:0.3;fill:#000000;fill-opacity:1;stroke:none;stroke-width:4.01200008;stroke-linecap:round;stroke-linejoin:round;marker-start:none;marker-end:none;stroke-miterlimit:79.84031677;stroke-dasharray:none;filter:url(#filter3294)"
       id="path3290"
       inkscape:href="#path96"
       d="M 91.0625,148.1875 L 91.0625,190.0625 L 90.71875,189.78125 C 87.919253,187.79546 76.95741,180.68302 73.5,179.21875 C 55.060223,171.41199 29.064261,169.43984 20.03125,183.46875 C 12.128201,195.74322 26.03994,214.58998 39.40625,222.3125 C 54.115819,230.81195 81.92219,234.78445 91,231.34375 L 91.0625,231.34375 L 91.0625,259.3125 L 155.75,259.3125 L 155.75,221.46875 L 158.46875,222.8125 C 167.56461,226.21241 187.72122,226.02479 199.21875,221.09375 C 217.6164,213.20541 235.75529,190.38679 229.3125,178 C 222.87039,165.61387 186.30323,168.07907 167.90625,175.96875 C 163.30683,177.94117 159.23965,180.43562 155.84375,183.28125 L 155.75,183.375 L 155.75,148.1875 L 91.0625,148.1875 z"
       transform="matrix(0.9277078,0,0,0.9186713,8.9768541,18.053353)" />
    <path
       d="M 147.39849,8.766015 C 153.63156,9.512155 156.5724,21.552415 162.66099,23.081095 C 169.16885,24.715045 178.16466,14.511755 184.26734,17.300905 C 189.39437,19.644145 187.64452,31.297735 192.47461,34.204205 C 198.42152,37.782725 210.55442,28.615035 215.59537,33.385815 C 219.48257,37.064675 212.49056,47.135755 215.9464,51.222505 C 220.35624,56.437435 235.14068,49.399195 238.3163,55.445485 C 240.91357,60.390605 228.79132,67.247785 230.77564,72.469125 C 233.0513,78.457055 249.08271,75.014615 250.20698,81.320945 C 251.29555,87.42706 235.30439,89.66651 235.51346,95.86537 C 235.70849,101.6477 250.77292,102.73148 250.10268,108.47815 C 249.30278,115.33649 231.69439,112.511 229.69449,119.11985 C 228.19336,124.0805 240.11901,129.52457 238.01409,134.26068 C 234.99382,141.05632 218.27827,133.95482 213.88906,139.95796 C 211.01476,143.88916 218.42149,152.55896 215.12533,156.14383 C 209.95107,161.77132 195.92276,151.97779 189.64369,156.3384 C 185.51715,159.20414 188.0948,169.59671 183.67495,171.98536 C 177.09823,175.53966 166.4653,164.42209 159.33196,166.6585 C 154.03183,168.32016 152.20537,179.23252 146.74191,180.23409 C 139.88388,181.4913 132.89088,169.7168 125.92118,169.9073 C 119.72606,170.07664 114.09691,180.82038 107.94342,180.08365 C 101.71022,179.33737 98.769646,167.29657 92.680906,165.7679 C 86.173176,164.13403 77.177846,174.33768 71.075226,171.54876 C 65.947886,169.20554 67.697666,157.55129 62.867286,154.64479 C 56.920456,151.06652 44.788086,160.23442 39.747196,155.46385 C 35.859786,151.7849 42.852186,141.71335 39.396166,137.62649 C 34.986286,132.41166 20.202056,139.45034 17.026266,133.40418 C 14.428886,128.45922 26.550606,121.60178 24.566256,116.38053 C 22.290606,110.3928 6.2599262,113.83485 5.1355862,107.52872 C 4.0469162,101.42263 20.037656,99.18248 19.828436,92.98363 C 19.633276,87.20129 4.5689762,86.11752 5.2392262,80.370835 C 6.0391262,73.512505 23.647566,76.338015 25.647406,69.729135 C 27.148446,64.768645 15.222986,59.324945 17.327806,54.588985 C 20.348116,47.793145 37.064166,54.894995 41.453506,48.891705 C 44.327816,44.960515 36.921076,36.290705 40.217236,32.705835 C 45.391366,27.078485 59.419226,36.871645 65.698216,32.511265 C 69.824856,29.645555 67.247686,19.252955 71.667616,16.864305 C 78.244316,13.310065 88.877336,24.426985 96.010616,22.190505 C 101.31046,20.528845 103.13683,9.617135 108.6,8.615575 C 115.45819,7.358275 122.45151,19.132975 129.42139,18.942365 C 135.61634,18.772945 141.24515,8.029425 147.39849,8.766015 z"
       stroke-miterlimit="79.8403193612775"
       id="path98"
       style="fill:url(#linearGradient3408);fill-opacity:1;stroke:#000000;stroke-width:2.5;stroke-linecap:round;stroke-linejoin:round;marker-start:none;marker-end:none;stroke-miterlimit:79.84031677;stroke-dasharray:none" />
    <path
       sodipodi:type="inkscape:offset"
       inkscape:radius="0"
       inkscape:original="M 108.59375 8.625 C 103.13058 9.62656 101.29985 20.525841 96 22.1875 C 88.86672 24.42398 78.232948 13.32076 71.65625 16.875 C 67.23632 19.26365 69.814137 29.63429 65.6875 32.5 C 59.40851 36.86038 45.39288 27.091402 40.21875 32.71875 C 36.92259 36.30362 44.34306 44.97506 41.46875 48.90625 C 37.07941 54.90954 20.33281 47.79791 17.3125 54.59375 C 15.20768 59.32971 27.15729 64.758261 25.65625 69.71875 C 23.65641 76.32763 6.0498999 73.516671 5.25 80.375 C 4.57975 86.121685 19.64859 87.186413 19.84375 92.96875 C 20.05297 99.1676 4.0363299 101.42516 5.125 107.53125 C 6.24934 113.83738 22.28685 110.38727 24.5625 116.375 C 26.54685 121.59625 14.43387 128.4613 17.03125 133.40625 C 20.20704 139.45241 34.996368 132.41016 39.40625 137.625 C 42.86227 141.71186 35.86259 151.7898 39.75 155.46875 C 44.79089 160.23932 56.928169 151.07798 62.875 154.65625 C 67.70538 157.56275 65.93516 169.21927 71.0625 171.5625 C 77.16512 174.35142 86.179768 164.14738 92.6875 165.78125 C 98.77624 167.30992 101.7043 179.34747 107.9375 180.09375 C 114.09099 180.83048 119.71113 170.07559 125.90625 169.90625 C 132.87595 169.71575 139.89197 181.47596 146.75 180.21875 C 152.21346 179.21718 154.04363 168.31792 159.34375 166.65625 C 166.47709 164.41984 177.11077 175.55429 183.6875 172 C 188.10735 169.61135 185.52971 159.2095 189.65625 156.34375 C 195.93532 151.98314 209.95073 161.78374 215.125 156.15625 C 218.42116 152.57138 211.00071 143.89995 213.875 139.96875 C 218.26421 133.96561 234.97974 141.04564 238 134.25 C 240.10492 129.51389 228.18637 124.08565 229.6875 119.125 C 231.6874 112.51615 249.29385 115.32709 250.09375 108.46875 C 250.76399 102.72208 235.69503 101.65733 235.5 95.875 C 235.29093 89.67614 251.30731 87.418614 250.21875 81.3125 C 249.09448 75.00617 233.05692 78.456681 230.78125 72.46875 C 228.79693 67.24741 240.90977 60.382621 238.3125 55.4375 C 235.13688 49.39121 220.34734 56.433681 215.9375 51.21875 C 212.48166 47.132 219.48095 37.05386 215.59375 33.375 C 210.5528 28.60422 198.41566 37.79727 192.46875 34.21875 C 187.63866 31.31228 189.40829 19.65574 184.28125 17.3125 C 178.17857 14.52335 169.1641 24.7277 162.65625 23.09375 C 156.56766 21.56507 153.63933 9.5273899 147.40625 8.78125 C 141.25291 8.04466 135.6012 18.768079 129.40625 18.9375 C 122.43637 19.12811 115.45194 7.3677002 108.59375 8.625 z "
       xlink:href="#path98"
       style="fill:url(#linearGradient3410);fill-opacity:1;stroke:none;stroke-width:1.25674069000000000;stroke-linecap:round;stroke-linejoin:round;marker-start:none;marker-end:none;stroke-miterlimit:79.84031677000000100;stroke-dasharray:none;filter:url(#filter3394)"
       id="path3226"
       inkscape:href="#path98"
       d="M 108.59375,8.625 C 103.13058,9.62656 101.29985,20.525841 96,22.1875 C 88.86672,24.42398 78.232948,13.32076 71.65625,16.875 C 67.23632,19.26365 69.814137,29.63429 65.6875,32.5 C 59.40851,36.86038 45.39288,27.091402 40.21875,32.71875 C 36.92259,36.30362 44.34306,44.97506 41.46875,48.90625 C 37.07941,54.90954 20.33281,47.79791 17.3125,54.59375 C 15.20768,59.32971 27.15729,64.758261 25.65625,69.71875 C 23.65641,76.32763 6.0498999,73.516671 5.25,80.375 C 4.57975,86.121685 19.64859,87.186413 19.84375,92.96875 C 20.05297,99.1676 4.0363299,101.42516 5.125,107.53125 C 6.24934,113.83738 22.28685,110.38727 24.5625,116.375 C 26.54685,121.59625 14.43387,128.4613 17.03125,133.40625 C 20.20704,139.45241 34.996368,132.41016 39.40625,137.625 C 42.86227,141.71186 35.86259,151.7898 39.75,155.46875 C 44.79089,160.23932 56.928169,151.07798 62.875,154.65625 C 67.70538,157.56275 65.93516,169.21927 71.0625,171.5625 C 77.16512,174.35142 86.179768,164.14738 92.6875,165.78125 C 98.77624,167.30992 101.7043,179.34747 107.9375,180.09375 C 114.09099,180.83048 119.71113,170.07559 125.90625,169.90625 C 132.87595,169.71575 139.89197,181.47596 146.75,180.21875 C 152.21346,179.21718 154.04363,168.31792 159.34375,166.65625 C 166.47709,164.41984 177.11077,175.55429 183.6875,172 C 188.10735,169.61135 185.52971,159.2095 189.65625,156.34375 C 195.93532,151.98314 209.95073,161.78374 215.125,156.15625 C 218.42116,152.57138 211.00071,143.89995 213.875,139.96875 C 218.26421,133.96561 234.97974,141.04564 238,134.25 C 240.10492,129.51389 228.18637,124.08565 229.6875,119.125 C 231.6874,112.51615 249.29385,115.32709 250.09375,108.46875 C 250.76399,102.72208 235.69503,101.65733 235.5,95.875 C 235.29093,89.67614 251.30731,87.418614 250.21875,81.3125 C 249.09448,75.00617 233.05692,78.456681 230.78125,72.46875 C 228.79693,67.24741 240.90977,60.382621 238.3125,55.4375 C 235.13688,49.39121 220.34734,56.433681 215.9375,51.21875 C 212.48166,47.132 219.48095,37.05386 215.59375,33.375 C 210.5528,28.60422 198.41566,37.79727 192.46875,34.21875 C 187.63866,31.31228 189.40829,19.65574 184.28125,17.3125 C 178.17857,14.52335 169.1641,24.7277 162.65625,23.09375 C 156.56766,21.56507 153.63933,9.5273899 147.40625,8.78125 C 141.25291,8.04466 135.6012,18.768079 129.40625,18.9375 C 122.43637,19.12811 115.45194,7.3677002 108.59375,8.625 z"
       transform="matrix(0.9243143,0,0,0.9243143,9.6629394,7.0688431)" />
    <path
       sodipodi:type="inkscape:offset"
       inkscape:radius="0"
       inkscape:original="M 108.59375 8.625 C 103.13058 9.62656 101.29985 20.525841 96 22.1875 C 88.86672 24.42398 78.232948 13.32076 71.65625 16.875 C 67.23632 19.26365 69.814137 29.63429 65.6875 32.5 C 59.40851 36.86038 45.39288 27.091402 40.21875 32.71875 C 36.92259 36.30362 44.34306 44.97506 41.46875 48.90625 C 37.07941 54.90954 20.33281 47.79791 17.3125 54.59375 C 15.20768 59.32971 27.15729 64.758261 25.65625 69.71875 C 23.65641 76.32763 6.0498999 73.516671 5.25 80.375 C 4.57975 86.121685 19.64859 87.186413 19.84375 92.96875 C 20.05297 99.1676 4.0363299 101.42516 5.125 107.53125 C 6.24934 113.83738 22.28685 110.38727 24.5625 116.375 C 26.54685 121.59625 14.43387 128.4613 17.03125 133.40625 C 20.20704 139.45241 34.996368 132.41016 39.40625 137.625 C 42.86227 141.71186 35.86259 151.7898 39.75 155.46875 C 44.79089 160.23932 56.928169 151.07798 62.875 154.65625 C 67.70538 157.56275 65.93516 169.21927 71.0625 171.5625 C 77.16512 174.35142 86.179768 164.14738 92.6875 165.78125 C 98.77624 167.30992 101.7043 179.34747 107.9375 180.09375 C 114.09099 180.83048 119.71113 170.07559 125.90625 169.90625 C 132.87595 169.71575 139.89197 181.47596 146.75 180.21875 C 152.21346 179.21718 154.04363 168.31792 159.34375 166.65625 C 166.47709 164.41984 177.11077 175.55429 183.6875 172 C 188.10735 169.61135 185.52971 159.2095 189.65625 156.34375 C 195.93532 151.98314 209.95073 161.78374 215.125 156.15625 C 218.42116 152.57138 211.00071 143.89995 213.875 139.96875 C 218.26421 133.96561 234.97974 141.04564 238 134.25 C 240.10492 129.51389 228.18637 124.08565 229.6875 119.125 C 231.6874 112.51615 249.29385 115.32709 250.09375 108.46875 C 250.76399 102.72208 235.69503 101.65733 235.5 95.875 C 235.29093 89.67614 251.30731 87.418614 250.21875 81.3125 C 249.09448 75.00617 233.05692 78.456681 230.78125 72.46875 C 228.79693 67.24741 240.90977 60.382621 238.3125 55.4375 C 235.13688 49.39121 220.34734 56.433681 215.9375 51.21875 C 212.48166 47.132 219.48095 37.05386 215.59375 33.375 C 210.5528 28.60422 198.41566 37.79727 192.46875 34.21875 C 187.63866 31.31228 189.40829 19.65574 184.28125 17.3125 C 178.17857 14.52335 169.1641 24.7277 162.65625 23.09375 C 156.56766 21.56507 153.63933 9.5273899 147.40625 8.78125 C 141.25291 8.04466 135.6012 18.768079 129.40625 18.9375 C 122.43637 19.12811 115.45194 7.3677002 108.59375 8.625 z "
       xlink:href="#path98"
       style="opacity:1;fill:#000000;filter:url(#filter3328)"
       id="path3324"
       inkscape:href="#path98"
       d="M 108.59375,8.625 C 103.13058,9.62656 101.29985,20.525841 96,22.1875 C 88.86672,24.42398 78.232948,13.32076 71.65625,16.875 C 67.23632,19.26365 69.814137,29.63429 65.6875,32.5 C 59.40851,36.86038 45.39288,27.091402 40.21875,32.71875 C 36.92259,36.30362 44.34306,44.97506 41.46875,48.90625 C 37.07941,54.90954 20.33281,47.79791 17.3125,54.59375 C 15.20768,59.32971 27.15729,64.758261 25.65625,69.71875 C 23.65641,76.32763 6.0498999,73.516671 5.25,80.375 C 4.57975,86.121685 19.64859,87.186413 19.84375,92.96875 C 20.05297,99.1676 4.0363299,101.42516 5.125,107.53125 C 6.24934,113.83738 22.28685,110.38727 24.5625,116.375 C 26.54685,121.59625 14.43387,128.4613 17.03125,133.40625 C 20.20704,139.45241 34.996368,132.41016 39.40625,137.625 C 42.86227,141.71186 35.86259,151.7898 39.75,155.46875 C 44.79089,160.23932 56.928169,151.07798 62.875,154.65625 C 67.70538,157.56275 65.93516,169.21927 71.0625,171.5625 C 77.16512,174.35142 86.179768,164.14738 92.6875,165.78125 C 98.77624,167.30992 101.7043,179.34747 107.9375,180.09375 C 114.09099,180.83048 119.71113,170.07559 125.90625,169.90625 C 132.87595,169.71575 139.89197,181.47596 146.75,180.21875 C 152.21346,179.21718 154.04363,168.31792 159.34375,166.65625 C 166.47709,164.41984 177.11077,175.55429 183.6875,172 C 188.10735,169.61135 185.52971,159.2095 189.65625,156.34375 C 195.93532,151.98314 209.95073,161.78374 215.125,156.15625 C 218.42116,152.57138 211.00071,143.89995 213.875,139.96875 C 218.26421,133.96561 234.97974,141.04564 238,134.25 C 240.10492,129.51389 228.18637,124.08565 229.6875,119.125 C 231.6874,112.51615 249.29385,115.32709 250.09375,108.46875 C 250.76399,102.72208 235.69503,101.65733 235.5,95.875 C 235.29093,89.67614 251.30731,87.418614 250.21875,81.3125 C 249.09448,75.00617 233.05692,78.456681 230.78125,72.46875 C 228.79693,67.24741 240.90977,60.382621 238.3125,55.4375 C 235.13688,49.39121 220.34734,56.433681 215.9375,51.21875 C 212.48166,47.132 219.48095,37.05386 215.59375,33.375 C 210.5528,28.60422 198.41566,37.79727 192.46875,34.21875 C 187.63866,31.31228 189.40829,19.65574 184.28125,17.3125 C 178.17857,14.52335 169.1641,24.7277 162.65625,23.09375 C 156.56766,21.56507 153.63933,9.5273899 147.40625,8.78125 C 141.25291,8.04466 135.6012,18.768079 129.40625,18.9375 C 122.43637,19.12811 115.45194,7.3677002 108.59375,8.625 z"
       transform="translate(0,1.5773074e-4)" />
    <ellipse
       rx="13.488"
       ry="23.677999"
       transform="matrix(0,0.6084897,-0.398721,0,107.44092,79.23792)"
       stroke-miterlimit="79.8403193612775"
       id="ellipse100"
       style="fill:#654112;fill-opacity:1;stroke:none;stroke-width:2.99125099;stroke-linecap:round;stroke-linejoin:round;stroke-miterlimit:79.84031677;stroke-dasharray:none;stroke-opacity:1;filter:url(#filter3619)"
       cx="0"
       cy="0"
       sodipodi:cx="0"
       sodipodi:cy="0"
       sodipodi:rx="13.488"
       sodipodi:ry="23.677999" />
    <use
       x="0"
       y="0"
       xlink:href="#ellipse100"
       id="use3338"
       transform="translate(40,-4.7e-6)"
       width="256"
       height="256"
       style="fill:#654112;fill-opacity:1;filter:url(#filter3615)" />
  </g>
</svg>
