<?xml version="1.0" encoding="UTF-8" standalone="no"?>
<!-- Created with Inkscape (http://www.inkscape.org/) -->
<svg
   xmlns:dc="http://purl.org/dc/elements/1.1/"
   xmlns:cc="http://creativecommons.org/ns#"
   xmlns:rdf="http://www.w3.org/1999/02/22-rdf-syntax-ns#"
   xmlns:svg="http://www.w3.org/2000/svg"
   xmlns="http://www.w3.org/2000/svg"
   xmlns:xlink="http://www.w3.org/1999/xlink"
   xmlns:sodipodi="http://sodipodi.sourceforge.net/DTD/sodipodi-0.dtd"
   xmlns:inkscape="http://www.inkscape.org/namespaces/inkscape"
   width="32"
   height="32"
   id="svg2"
   sodipodi:version="0.32"
   inkscape:version="0.46"
   version="1.0"
   sodipodi:docbase="D:\Dateien\Desktop\Secret Maryo Chronicles\Drafts\Game\Frostbringer\level\ground\green_2\hedges"
   sodipodi:docname="small_2.svg"
   inkscape:export-filename="D:\Dateien\Desktop\Secret Maryo Chronicles\SMC\data\pixmaps\ground\green_2\hedges\small_2.png"
   inkscape:export-xdpi="720"
   inkscape:export-ydpi="720"
   inkscape:output_extension="org.inkscape.output.svg.inkscape">
  <defs
     id="defs4">
    <linearGradient
       id="linearGradient3555">
      <stop
         style="stop-color:#24e41d;stop-opacity:1;"
         offset="0"
         id="stop3557" />
      <stop
         style="stop-color:#22b225;stop-opacity:1;"
         offset="1"
         id="stop3559" />
    </linearGradient>
    <linearGradient
       id="linearGradient3161">
      <stop
         id="stop3163"
         offset="0"
         style="stop-color:#cce45c;stop-opacity:1;" />
      <stop
         id="stop3165"
         offset="1"
         style="stop-color:#217200;stop-opacity:1;" />
    </linearGradient>
    <radialGradient
       inkscape:collect="always"
       xlink:href="#linearGradient3161"
       id="radialGradient4548"
       cx="15.105124"
       cy="19.806374"
       fx="15.105124"
       fy="19.806374"
       r="12.5"
       gradientTransform="matrix(0.8509798,-0.2598077,0.632954,2.0731914,-14.845706,-22.156492)"
       gradientUnits="userSpaceOnUse" />
    <radialGradient
       inkscape:collect="always"
       xlink:href="#linearGradient3555"
       id="radialGradient3561"
       cx="12.412045"
       cy="12.687005"
       fx="12.412045"
       fy="12.687005"
       r="10.393677"
       gradientTransform="matrix(0.9116367,-0.410997,0.3699828,0.8206628,-3.5972049,6.0630139)"
       gradientUnits="userSpaceOnUse" />
    <radialGradient
       inkscape:collect="always"
       xlink:href="#linearGradient3555"
       id="radialGradient3569"
       cx="22.929703"
       cy="20.215649"
       fx="22.929703"
       fy="20.215649"
       r="5.8126392"
       gradientTransform="matrix(0.8872238,-0.4613393,0.4723375,0.9083749,-6.9626842,11.606049)"
       gradientUnits="userSpaceOnUse" />
    <radialGradient
       inkscape:collect="always"
       xlink:href="#linearGradient3161"
       id="radialGradient3202"
       cx="11.514997"
       cy="9.4373131"
       fx="11.514997"
       fy="9.4373131"
       r="11.99541"
       gradientTransform="matrix(0.9513818,-0.3080142,0.4304998,1.3297103,-4.8149173,-2.1178258)"
       gradientUnits="userSpaceOnUse" />
    <radialGradient
       inkscape:collect="always"
       xlink:href="#linearGradient3161"
       id="radialGradient3204"
       cx="29.834003"
       cy="13.69742"
       fx="29.834003"
       fy="13.69742"
       r="7.5"
       gradientTransform="matrix(0.7449735,-0.8507405,1.0476416,0.9173946,-14.395635,28.7304)"
       gradientUnits="userSpaceOnUse" />
    <filter
       inkscape:collect="always"
       id="filter3222"
       x="-0.17958056"
       width="1.3591611"
       y="-0.12018714"
       height="1.2403743">
      <feGaussianBlur
         inkscape:collect="always"
         stdDeviation="0.8701705"
         id="feGaussianBlur3224" />
    </filter>
    <filter
       inkscape:collect="always"
       id="filter3238">
      <feGaussianBlur
         inkscape:collect="always"
         stdDeviation="0.027761789"
         id="feGaussianBlur3240" />
    </filter>
    <filter
       inkscape:collect="always"
       id="filter3246">
      <feGaussianBlur
         inkscape:collect="always"
         stdDeviation="0.017885213"
         id="feGaussianBlur3248" />
    </filter>
    <filter
       inkscape:collect="always"
       id="filter3266">
      <feGaussianBlur
         inkscape:collect="always"
         stdDeviation="0.015555187"
         id="feGaussianBlur3268" />
    </filter>
    <filter
       inkscape:collect="always"
       id="filter3270">
      <feGaussianBlur
         inkscape:collect="always"
         stdDeviation="0.015555187"
         id="feGaussianBlur3272" />
    </filter>
    <filter
       inkscape:collect="always"
       id="filter3274">
      <feGaussianBlur
         inkscape:collect="always"
         stdDeviation="0.02093107"
         id="feGaussianBlur3276" />
    </filter>
    <filter
       inkscape:collect="always"
       id="filter3278">
      <feGaussianBlur
         inkscape:collect="always"
         stdDeviation="0.02093107"
         id="feGaussianBlur3280" />
    </filter>
    <filter
       inkscape:collect="always"
       id="filter3282"
       x="-0.14353563"
       width="1.2870713"
       y="-0.10309538"
       height="1.2061908">
      <feGaussianBlur
         inkscape:collect="always"
         stdDeviation="1.1534802"
         id="feGaussianBlur3284" />
    </filter>
  </defs>
  <sodipodi:namedview
     id="base"
     pagecolor="#000000"
     bordercolor="#666666"
     borderopacity="1.0"
     inkscape:pageopacity="0"
     inkscape:pageshadow="2"
     inkscape:zoom="11.8125"
     inkscape:cx="17.412665"
     inkscape:cy="20.997806"
     inkscape:document-units="px"
     inkscape:current-layer="layer2"
     width="32px"
     height="32px"
     gridtolerance="10000"
     showgrid="true"
     inkscape:grid-points="true"
     inkscape:window-width="1024"
     inkscape:window-height="719"
     inkscape:window-x="110"
     inkscape:window-y="150"
     showguides="true"
     inkscape:guide-bbox="true" />
  <metadata
     id="metadata7">
    <rdf:RDF>
      <cc:Work
         rdf:about="">
        <dc:format>image/svg+xml</dc:format>
        <dc:type
           rdf:resource="http://purl.org/dc/dcmitype/StillImage" />
      </cc:Work>
    </rdf:RDF>
  </metadata>
  <g
     inkscape:label="big_hill"
     inkscape:groupmode="layer"
     id="layer1"
     style="display:inline">
    <path
       sodipodi:type="inkscape:offset"
       inkscape:radius="0"
       inkscape:original="M 13 1 C 6.376 1 1.8253098 13.657851 2.03125 21.0625 C 2.1841053 26.473808 2.084529 31.47896 5.75 31.53125 C 8.7055984 31.573414 17.84648 31.448251 21 31.53125 C 23.158672 31.588065 25 24 25 21.5 C 25 10.184 19.624 1 13 1 z "
       xlink:href="#path2760"
       style="fill:url(#radialGradient4548);fill-opacity:1;stroke:#000000;stroke-width:1;stroke-miterlimit:4;stroke-dashoffset:0;stroke-opacity:1"
       id="path2404"
       inkscape:href="#path2760"
       d="M 13,1 C 6.376,1 1.8253098,13.657851 2.03125,21.0625 C 2.1841053,26.473808 2.3384973,31.394304 5.75,31.53125 C 8.7035204,31.649812 17.84648,31.448251 21,31.53125 C 23.158672,31.588065 25,24 25,21.5 C 25,10.184 19.624,1 13,1 z" />
    <path
       style="fill:url(#radialGradient3202);fill-opacity:1;stroke:#000000;stroke-width:1;stroke-miterlimit:4;stroke-dashoffset:0;stroke-opacity:1;filter:url(#filter3238)"
       d="M 25,21.5 C 25,24 23.158672,31.580625 21,31.52381 C 17.84648,31.44081 8.7175032,31.565974 5.7619048,31.52381 C 2.0964337,31.471519 2.1687283,26.488028 2.015873,21.07672 C 1.8099328,13.67207 6.376,1 13,1 C 19.624,1 25,10.184 25,21.5 z"
       id="path2760"
       sodipodi:nodetypes="csssss" />
    <path
       sodipodi:type="inkscape:offset"
       inkscape:radius="-1.833112"
       inkscape:original="M 13 1 C 6.376 1 1.8253098 13.657851 2.03125 21.0625 C 2.1841053 26.473808 2.084529 31.47896 5.75 31.53125 C 8.7055984 31.573414 17.84648 31.448251 21 31.53125 C 23.158672 31.588065 25 24 25 21.5 C 25 10.184 19.624 1 13 1 z "
       xlink:href="#path2760"
       style="fill:url(#radialGradient3561);fill-opacity:1;stroke:none;stroke-width:1;stroke-miterlimit:4;stroke-dashoffset:0;stroke-opacity:1;filter:url(#filter3282)"
       id="path2408"
       inkscape:href="#path2760"
       d="M 13,2.84375 C 11.927818,2.84375 10.845144,3.3235336 9.71875,4.40625 C 8.5923564,5.4889664 7.5273992,7.1286801 6.625,9.03125 C 4.8202015,12.83639 3.7832691,17.701784 3.875,21 C 3.9513786,23.703917 4.0369483,26.220978 4.4375,27.8125 C 4.6377759,28.608261 4.9155418,29.136649 5.125,29.375 C 5.3344582,29.613351 5.3986649,29.670888 5.8125,29.6875 C 8.4700409,29.794181 17.217034,29.614232 20.71875,29.6875 C 20.746809,29.658024 20.847102,29.582143 21,29.34375 C 21.3361,28.819716 21.726977,27.918295 22.0625,26.90625 C 22.733546,24.882161 23.15625,22.299952 23.15625,21.5 C 23.15625,16.132291 21.873036,11.297426 19.90625,7.9375 C 17.939464,4.5775741 15.464813,2.84375 13,2.84375 z"
       transform="matrix(1.0566925,0,0,1.0566925,-0.7660756,-0.9231241)" />
    <path
       sodipodi:type="arc"
       style="fill:#000000;fill-opacity:1;stroke:#000000;stroke-width:1;stroke-miterlimit:4;stroke-dasharray:none;stroke-dashoffset:0;stroke-opacity:1;filter:url(#filter3270)"
       id="path4554"
       sodipodi:cx="8.5"
       sodipodi:cy="10"
       sodipodi:rx="0.5"
       sodipodi:ry="2"
       d="M 9,10 A 0.5,2 0 1 1 8,10 A 0.5,2 0 1 1 9,10 z"
       transform="matrix(1.1613911,0,0,0.7061405,6.2798666,0.6952086)" />
    <path
       sodipodi:type="arc"
       style="fill:#000000;fill-opacity:1;stroke:#000000;stroke-width:1;stroke-miterlimit:4;stroke-dasharray:none;stroke-dashoffset:0;stroke-opacity:1;filter:url(#filter3266)"
       id="path4552"
       sodipodi:cx="8.5"
       sodipodi:cy="10"
       sodipodi:rx="0.5"
       sodipodi:ry="2"
       d="M 9,10 A 0.5,2 0 1 1 8,10 A 0.5,2 0 1 1 9,10 z"
       transform="matrix(1.1613911,0,0,0.7061405,1.0002935,0.6952086)" />
    <g
       id="g3801"
       transform="translate(-2.0072352,-5.3904638)">
      <g
         style="display:inline"
         id="g3803"
         inkscape:label="big_hill" />
    </g>
  </g>
  <g
     inkscape:groupmode="layer"
     id="layer2"
     inkscape:label="small_hill"
     style="display:inline">
    <path
       style="fill:url(#radialGradient3204);fill-opacity:1;stroke:#000000;stroke-width:1;stroke-miterlimit:4;stroke-dashoffset:0;stroke-opacity:1;display:inline;filter:url(#filter3246)"
       d="M 30.449735,24.397223 C 30.343566,31.57481 30.236432,31.62922 23.259259,31.659128 C 17.553003,31.683588 16.619047,31.791403 16.449735,24.397223 C 16.30262,17.898888 19.585735,11.897224 23.449735,11.897224 C 27.313735,11.897224 30.449735,17.497223 30.449735,24.397223 z"
       id="path2764"
       sodipodi:nodetypes="csssc" />
    <path
       sodipodi:type="inkscape:offset"
       inkscape:radius="-1.1961735"
       inkscape:original="M 23.4375 11.90625 C 19.5735 11.90625 16.290384 17.907915 16.4375 24.40625 C 16.606812 31.80043 17.543745 31.68071 23.25 31.65625 C 30.227173 31.626342 30.33133 31.583837 30.4375 24.40625 C 30.4375 17.50625 27.301499 11.90625 23.4375 11.90625 z "
       xlink:href="#path2764"
       style="fill:url(#radialGradient3569);fill-opacity:1;stroke:none;stroke-width:1;stroke-miterlimit:4;stroke-dashoffset:0;stroke-opacity:1;display:inline;filter:url(#filter3222)"
       id="path3238"
       inkscape:href="#path2764"
       d="M 23.4375,13.09375 C 22.124809,13.09375 20.632196,14.219197 19.46875,16.3125 C 18.305304,18.405803 17.556188,21.335453 17.625,24.375 C 17.666748,26.198229 17.762325,27.540547 17.9375,28.4375 C 18.112675,29.334453 18.334736,29.727934 18.5625,29.9375 C 18.790264,30.147066 19.166855,30.287943 19.9375,30.375 C 20.708145,30.462057 21.819394,30.474882 23.25,30.46875 C 24.993092,30.461278 26.282453,30.449688 27.15625,30.34375 C 28.030047,30.237812 28.377764,30.059757 28.5625,29.875 C 28.747236,29.690243 28.944096,29.303974 29.0625,28.40625 C 29.180904,27.508526 29.2235,26.166522 29.25,24.375 C 29.25,21.106217 28.484106,18.1926 27.34375,16.15625 C 26.203394,14.1199 24.791638,13.09375 23.4375,13.09375 z"
       transform="matrix(1.0288743,0,0,1.0288743,-0.67679,-0.6320408)" />
    <path
       sodipodi:type="arc"
       style="fill:#000000;fill-opacity:1;stroke:#000000;stroke-width:1;stroke-miterlimit:4;stroke-dasharray:none;stroke-dashoffset:0;stroke-opacity:1;display:inline;filter:url(#filter3274)"
       id="path4556"
       sodipodi:cx="8.5"
       sodipodi:cy="10"
       sodipodi:rx="0.5"
       sodipodi:ry="2"
       d="M 9,10 A 0.5,2 0 1 1 8,10 A 0.5,2 0 1 1 9,10 z"
       transform="matrix(0.8723888,0,0,0.519191,14.315067,11.479669)" />
    <path
       sodipodi:type="arc"
       style="fill:#000000;fill-opacity:1;stroke:#000000;stroke-width:1;stroke-miterlimit:4;stroke-dasharray:none;stroke-dashoffset:0;stroke-opacity:1;display:inline;filter:url(#filter3278)"
       id="path4558"
       sodipodi:cx="8.5"
       sodipodi:cy="10"
       sodipodi:rx="0.5"
       sodipodi:ry="2"
       d="M 9,10 A 0.5,2 0 1 1 8,10 A 0.5,2 0 1 1 9,10 z"
       transform="matrix(0.8723888,0,0,0.519191,17.669143,11.479669)" />
  </g>
</svg>
