<?xml version="1.0" encoding="UTF-8" standalone="no"?>
<!-- Created with Inkscape (http://www.inkscape.org/) -->
<svg
   xmlns:dc="http://purl.org/dc/elements/1.1/"
   xmlns:cc="http://creativecommons.org/ns#"
   xmlns:rdf="http://www.w3.org/1999/02/22-rdf-syntax-ns#"
   xmlns:svg="http://www.w3.org/2000/svg"
   xmlns="http://www.w3.org/2000/svg"
   xmlns:xlink="http://www.w3.org/1999/xlink"
   xmlns:sodipodi="http://sodipodi.sourceforge.net/DTD/sodipodi-0.dtd"
   xmlns:inkscape="http://www.inkscape.org/namespaces/inkscape"
   width="32"
   height="32"
   id="svg2"
   sodipodi:version="0.32"
   inkscape:version="0.46"
   version="1.0"
   sodipodi:docbase="D:\Dateien\Desktop\Secret Maryo Chronicles\Drafts\Game\Frostbringer\level\ground\green_2\hedges"
   sodipodi:docname="small_1.svg"
   inkscape:export-filename="D:\Dateien\Desktop\Secret Maryo Chronicles\SMC\data\pixmaps\ground\green_2\hedges\small_1.png"
   inkscape:export-xdpi="720"
   inkscape:export-ydpi="720"
   inkscape:output_extension="org.inkscape.output.svg.inkscape">
  <defs
     id="defs4">
    <linearGradient
       id="linearGradient3185">
      <stop
         id="stop3187"
         offset="0"
         style="stop-color:#d2ed53;stop-opacity:1;" />
      <stop
         id="stop3189"
         offset="1"
         style="stop-color:#1a771a;stop-opacity:1;" />
    </linearGradient>
    <linearGradient
       id="linearGradient3674">
      <stop
         style="stop-color:#31d930;stop-opacity:1;"
         offset="0"
         id="stop3676" />
      <stop
         style="stop-color:#23a023;stop-opacity:1;"
         offset="1"
         id="stop3678" />
    </linearGradient>
    <radialGradient
       inkscape:collect="always"
       xlink:href="#linearGradient3185"
       id="radialGradient3178"
       cx="11.808916"
       cy="14.794761"
       fx="11.808916"
       fy="14.794761"
       r="14.539683"
       gradientTransform="matrix(0.8349429,0.5482253,-0.5096106,0.7761331,9.8515123,-3.056464)"
       gradientUnits="userSpaceOnUse" />
    <filter
       inkscape:collect="always"
       id="filter3186"
       x="-0.11053916"
       width="1.2210783"
       y="-0.07254534"
       height="1.1450907">
      <feGaussianBlur
         inkscape:collect="always"
         stdDeviation="0.52731397"
         id="feGaussianBlur3188" />
    </filter>
    <radialGradient
       inkscape:collect="always"
       xlink:href="#linearGradient3674"
       id="radialGradient3195"
       gradientUnits="userSpaceOnUse"
       gradientTransform="matrix(-1.706428e-7,1.15561,-1.1978148,-9.5832659e-8,23.665063,-3.1412516)"
       cx="10.723298"
       cy="7.7468786"
       fx="10.723298"
       fy="7.7468786"
       r="11.5" />
    <filter
       inkscape:collect="always"
       id="filter3215">
      <feGaussianBlur
         inkscape:collect="always"
         stdDeviation="0.12289916"
         id="feGaussianBlur3217" />
    </filter>
    <filter
       inkscape:collect="always"
       id="filter3219">
      <feGaussianBlur
         inkscape:collect="always"
         stdDeviation="0.14075422"
         id="feGaussianBlur3221" />
    </filter>
    <filter
       inkscape:collect="always"
       id="filter3223">
      <feGaussianBlur
         inkscape:collect="always"
         stdDeviation="0.12385334"
         id="feGaussianBlur3225" />
    </filter>
    <radialGradient
       inkscape:collect="always"
       xlink:href="#linearGradient3674"
       id="radialGradient3183"
       gradientUnits="userSpaceOnUse"
       gradientTransform="matrix(0.7130245,0.4681734,-0.4351972,0.6628021,10.690924,9.1213579e-2)"
       cx="11.808916"
       cy="14.794761"
       fx="11.808916"
       fy="14.794761"
       r="14.539683" />
    <filter
       inkscape:collect="always"
       id="filter3195">
      <feGaussianBlur
         inkscape:collect="always"
         stdDeviation="0.69266255"
         id="feGaussianBlur3197" />
    </filter>
    <radialGradient
       inkscape:collect="always"
       xlink:href="#linearGradient3185"
       id="radialGradient3208"
       gradientUnits="userSpaceOnUse"
       gradientTransform="matrix(-1.5163899e-7,1.1737681,-1.064419,-9.7338478e-8,19.561435,-3.7312971)"
       cx="9.0883312"
       cy="9.2175007"
       fx="9.0883312"
       fy="9.2175007"
       r="11.5" />
    <filter
       inkscape:collect="always"
       id="filter3218"
       x="-0.12368652"
       width="1.247373"
       y="-0.078441352"
       height="1.1568827">
      <feGaussianBlur
         inkscape:collect="always"
         stdDeviation="1.008174"
         id="feGaussianBlur3220" />
    </filter>
    <radialGradient
       inkscape:collect="always"
       xlink:href="#linearGradient3185"
       id="radialGradient3227"
       gradientUnits="userSpaceOnUse"
       gradientTransform="matrix(-1.5163899e-7,1.1737681,-1.064419,-9.7338478e-8,19.561435,-3.7312971)"
       cx="9.0883312"
       cy="9.2175007"
       fx="9.0883312"
       fy="9.2175007"
       r="11.5" />
    <radialGradient
       inkscape:collect="always"
       xlink:href="#linearGradient3674"
       id="radialGradient3229"
       gradientUnits="userSpaceOnUse"
       gradientTransform="matrix(-1.706428e-7,1.15561,-1.1978148,-9.5832659e-8,23.665063,-3.1412516)"
       cx="10.723298"
       cy="7.7468786"
       fx="10.723298"
       fy="7.7468786"
       r="11.5" />
    <radialGradient
       inkscape:collect="always"
       xlink:href="#linearGradient3674"
       id="radialGradient3239"
       gradientUnits="userSpaceOnUse"
       gradientTransform="matrix(0.7181617,0.4602544,-0.4587767,0.7158562,10.979113,-0.6001936)"
       cx="11.808916"
       cy="14.794761"
       fx="11.808916"
       fy="14.794761"
       r="14.539683" />
    <radialGradient
       inkscape:collect="always"
       xlink:href="#linearGradient3185"
       id="radialGradient3241"
       gradientUnits="userSpaceOnUse"
       gradientTransform="matrix(1.3006741,0.4656968,-0.3129809,0.8741444,2.5168946,-3.5708132)"
       cx="9.9837475"
       cy="13.654473"
       fx="9.9837475"
       fy="13.654473"
       r="14.539683" />
    <filter
       inkscape:collect="always"
       id="filter3243"
       x="-0.10398575"
       width="1.2079715"
       y="-0.11233663"
       height="1.2246733">
      <feGaussianBlur
         inkscape:collect="always"
         stdDeviation="1.0389938"
         id="feGaussianBlur3245" />
    </filter>
    <filter
       inkscape:collect="always"
       id="filter3251"
       x="-0.13998803"
       width="1.2799761"
       y="-0.087695134"
       height="1.1753903">
      <feGaussianBlur
         inkscape:collect="always"
         stdDeviation="1.1416088"
         id="feGaussianBlur3253" />
    </filter>
  </defs>
  <sodipodi:namedview
     id="base"
     pagecolor="#000000"
     bordercolor="#666666"
     borderopacity="1.0"
     inkscape:pageopacity="0"
     inkscape:pageshadow="2"
     inkscape:zoom="11.667262"
     inkscape:cx="18.295127"
     inkscape:cy="21.136328"
     inkscape:document-units="px"
     inkscape:current-layer="g3222"
     width="32px"
     height="32px"
     showgrid="true"
     inkscape:grid-points="true"
     gridtolerance="10000"
     inkscape:window-width="1008"
     inkscape:window-height="827"
     inkscape:window-x="108"
     inkscape:window-y="84"
     showguides="true"
     inkscape:guide-bbox="true" />
  <metadata
     id="metadata7">
    <rdf:RDF>
      <cc:Work
         rdf:about="">
        <dc:format>image/svg+xml</dc:format>
        <dc:type
           rdf:resource="http://purl.org/dc/dcmitype/StillImage" />
      </cc:Work>
    </rdf:RDF>
  </metadata>
  <g
     inkscape:groupmode="layer"
     id="layer2"
     inkscape:label="hill_back"
     style="display:inline">
    <g
       id="g3222"
       transform="matrix(1,0,0,0.9867052,8,0.3187696)">
      <path
         sodipodi:nodetypes="csssc"
         id="path2787"
         d="M 22.524973,18.250004 C 22.439263,32.090157 22.175046,31.538363 13.092839,31.653776 C 3.155296,31.781261 2.8893151,32.690126 2.975025,18.250004 C 3.0336099,8.4383908 7.354213,0.475026 12.749999,0.475026 C 18.145785,0.475026 22.524973,8.4382159 22.524973,18.250004 z"
         style="fill:url(#radialGradient3227);fill-opacity:1;fill-rule:nonzero;stroke:#000000;stroke-width:1;stroke-linejoin:round;stroke-miterlimit:4;stroke-dasharray:none;stroke-dashoffset:0;stroke-opacity:1;display:inline" />
      <path
         transform="matrix(0.8441578,0,0,0.8441578,2.6103567,2.4766207)"
         d="M 12.75,0.46875 C 7.354214,0.46875 3.027335,8.438387 2.96875,18.25 C 2.8830401,32.690122 3.1562068,31.783735 13.09375,31.65625 C 22.175957,31.540837 22.44554,32.090153 22.53125,18.25 C 22.53125,8.4382119 18.145786,0.46874999 12.75,0.46875 z"
         inkscape:href="#path2787"
         id="path3206"
         style="fill:url(#radialGradient3229);fill-opacity:1;fill-rule:nonzero;stroke:none;stroke-width:1.05257499000000010;stroke-linejoin:round;stroke-miterlimit:4;stroke-dasharray:none;stroke-dashoffset:0;stroke-opacity:1;display:inline;filter:url(#filter3251)"
         xlink:href="#path2787"
         inkscape:original="M 12.75 0.46875 C 7.354214 0.46875 3.027335 8.438387 2.96875 18.25 C 2.8830401 32.690122 3.1562068 31.783735 13.09375 31.65625 C 22.175957 31.540837 22.44554 32.090153 22.53125 18.25 C 22.53125 8.4382119 18.145786 0.46874999 12.75 0.46875 z "
         inkscape:radius="0"
         sodipodi:type="inkscape:offset" />
      <path
         transform="translate(-4.5762884,-15.04155)"
         d="M 20.088303,27.914506 C 19.637654,27.885235 19.139899,26.538312 18.796969,26.235259 C 18.45404,25.932206 16.967464,25.400308 16.988567,24.948549 C 17.00967,24.49679 18.490743,24.195005 18.796498,23.864744 C 19.102253,23.534484 19.452667,21.909532 19.901112,21.942307 C 20.349557,21.975082 20.856658,23.549063 21.192727,23.865467 C 21.528796,24.181872 22.872299,24.533549 22.904579,24.978208 C 22.936859,25.422866 21.492628,25.902823 21.193198,26.235982 C 20.893769,26.569141 20.538952,27.943778 20.088303,27.914506 z"
         inkscape:randomized="0.047"
         inkscape:rounded="0.21"
         inkscape:flatsided="false"
         sodipodi:arg2="2.3561945"
         sodipodi:arg1="1.5707963"
         sodipodi:r2="1.7728418"
         sodipodi:r1="3"
         sodipodi:cy="25"
         sodipodi:cx="20"
         sodipodi:sides="4"
         id="path3227"
         style="fill:#ffbc19;fill-opacity:1;stroke:#a07100;stroke-width:0.20000000000000001;stroke-miterlimit:4;stroke-dasharray:none;stroke-dashoffset:0;stroke-opacity:1;display:inline;filter:url(#filter3215)"
         sodipodi:type="star" />
    </g>
  </g>
  <g
     inkscape:label="hill_front"
     inkscape:groupmode="layer"
     id="layer1"
     style="display:inline">
    <g
       id="g3199"
       transform="translate(0,0.1996137)">
      <path
         sodipodi:nodetypes="csssscccsss"
         id="path2784"
         d="M 28.790527,20.018276 C 29.681206,25.73647 30.790581,31.500274 26.790472,31.500274 C 23.478381,31.500274 5.846035,31.452749 2.7898152,31.500274 C 0.12969927,31.541639 2.2438626,20.140781 4.7898699,14.526886 C 6.1493301,11.529304 8.4485293,6.2925849 13.790117,5.5409738 C 18.542999,4.872199 21.351338,12.492006 20.790307,15.52532 C 20.843692,16.909427 20.790307,20.123571 20.790307,17.174806 C 20.790307,14.179502 20.790307,17.522189 20.790307,15.52532 C 20.982751,12.978377 23.001715,11.241343 25.274194,11.573775 C 26.65832,11.776253 27.556466,14.167739 27.846912,15.614028 C 28.094692,16.84786 28.56518,18.571544 28.790527,20.018276 z"
         style="fill:url(#radialGradient3241);fill-opacity:1;stroke:#000000;stroke-width:1;stroke-linejoin:round;stroke-miterlimit:4;stroke-dasharray:none;stroke-dashoffset:0;stroke-opacity:1;filter:url(#filter3437)" />
      <path
         sodipodi:nodetypes="cssssccsss"
         id="path3181"
         d="M 26.864461,19.796577 C 27.625083,24.6798 28.572467,29.601972 25.156454,29.601972 C 22.327995,29.601972 7.2703267,29.561387 4.6603765,29.601972 C 2.3886911,29.637297 4.194144,19.901194 6.368383,15.107041 C 7.5293347,12.547166 9.4928045,8.0751133 14.054413,7.4332525 C 18.113278,6.8621323 19.911574,14.997782 19.432465,17.588171 C 19.774132,20.511211 21.746632,19.80699 22.089472,18.188141 C 22.253816,16.013103 22.606611,12.729803 24.547263,13.013693 C 25.729278,13.186605 25.810598,14.800336 26.058633,16.035438 C 26.270232,17.089106 26.672019,18.561097 26.864461,19.796577 z"
         style="fill:url(#radialGradient3239);fill-opacity:1;stroke:none;stroke-width:0.10000000000000001;stroke-linejoin:round;stroke-miterlimit:4;stroke-dasharray:none;stroke-dashoffset:0;stroke-opacity:1;display:inline;filter:url(#filter3243)" />
      <path
         transform="translate(-2.101439,1.090832)"
         d="M 10.003163,24.909168 C 9.5557161,24.913251 9.028636,23.554434 8.7118292,23.22992 C 8.3950225,22.905407 6.9156629,22.391162 6.903427,21.943211 C 6.8911911,21.495259 8.3851475,21.163449 8.7113576,20.859406 C 9.0375678,20.555363 9.6524638,18.937428 10.097972,18.936969 C 10.54348,18.936509 11.08051,20.522894 11.389587,20.860129 C 11.698664,21.197363 12.887396,21.424143 12.915989,21.864839 C 12.944582,22.305535 11.710215,22.923289 11.390058,23.230643 C 11.069902,23.537998 10.45061,24.905085 10.003163,24.909168 z"
         inkscape:randomized="0.047"
         inkscape:rounded="0.21"
         inkscape:flatsided="false"
         sodipodi:arg2="2.3561945"
         sodipodi:arg1="1.5707963"
         sodipodi:r2="1.7728418"
         sodipodi:r1="3"
         sodipodi:cy="22"
         sodipodi:cx="10"
         sodipodi:sides="4"
         id="path3692"
         style="fill:#ffec00;fill-opacity:1;stroke:#948800;stroke-width:0.2;stroke-miterlimit:4;stroke-dasharray:none;stroke-dashoffset:0;stroke-opacity:1;filter:url(#filter3223)"
         sodipodi:type="star" />
      <path
         transform="translate(1.011433,2.057693)"
         d="M 20.088303,27.914506 C 19.637654,27.885235 19.139899,26.538312 18.796969,26.235259 C 18.45404,25.932206 16.967464,25.400308 16.988567,24.948549 C 17.00967,24.49679 18.490743,24.195005 18.796498,23.864744 C 19.102253,23.534484 19.452667,21.909532 19.901112,21.942307 C 20.349557,21.975082 20.856658,23.549063 21.192727,23.865467 C 21.528796,24.181872 22.872299,24.533549 22.904579,24.978208 C 22.936859,25.422866 21.492628,25.902823 21.193198,26.235982 C 20.893769,26.569141 20.538952,27.943778 20.088303,27.914506 z"
         inkscape:randomized="0.047"
         inkscape:rounded="0.21"
         inkscape:flatsided="false"
         sodipodi:arg2="2.3561945"
         sodipodi:arg1="1.5707963"
         sodipodi:r2="1.7728418"
         sodipodi:r1="3"
         sodipodi:cy="25"
         sodipodi:cx="20"
         sodipodi:sides="4"
         id="path3694"
         style="fill:#ff9b00;fill-opacity:1;stroke:#975b00;stroke-width:0.2;stroke-miterlimit:4;stroke-dasharray:none;stroke-dashoffset:0;stroke-opacity:1;filter:url(#filter3215)"
         sodipodi:type="star" />
      <path
         transform="translate(-0.976234,1.11263)"
         d="M 15.076251,15.957066 C 14.633337,15.929482 14.099297,14.641861 13.784636,14.315906 C 13.469976,13.989951 11.985946,13.476749 11.976234,13.029196 C 11.966522,12.581643 13.456592,11.965287 13.784165,11.663391 C 14.111737,11.361496 14.443736,10.020915 14.888779,10.022954 C 15.333821,10.024993 15.804185,11.446083 16.123112,11.765458 C 16.44204,12.084833 18.097949,12.421778 18.116964,12.878198 C 18.135979,13.334619 16.440734,13.80426 16.123584,14.135973 C 15.806434,14.467685 15.519166,15.98465 15.076251,15.957066 z"
         inkscape:randomized="0.047"
         inkscape:rounded="0.21"
         inkscape:flatsided="false"
         sodipodi:arg2="2.3561945"
         sodipodi:arg1="1.5707963"
         sodipodi:r2="1.7728418"
         sodipodi:r1="3"
         sodipodi:cy="13"
         sodipodi:cx="15"
         sodipodi:sides="4"
         id="path3696"
         style="fill:#ff0000;fill-opacity:1;stroke:#cb0000;stroke-width:0.2;stroke-miterlimit:4;stroke-dasharray:none;stroke-dashoffset:0;stroke-opacity:1;filter:url(#filter3219)"
         sodipodi:type="star" />
    </g>
  </g>
</svg>
