<?xml version="1.0" encoding="UTF-8" standalone="no"?>
<!-- Created with Inkscape (http://www.inkscape.org/) -->
<svg
   xmlns:dc="http://purl.org/dc/elements/1.1/"
   xmlns:cc="http://web.resource.org/cc/"
   xmlns:rdf="http://www.w3.org/1999/02/22-rdf-syntax-ns#"
   xmlns:svg="http://www.w3.org/2000/svg"
   xmlns="http://www.w3.org/2000/svg"
   xmlns:xlink="http://www.w3.org/1999/xlink"
   xmlns:sodipodi="http://sodipodi.sourceforge.net/DTD/sodipodi-0.dtd"
   xmlns:inkscape="http://www.inkscape.org/namespaces/inkscape"
   width="744.09448819"
   height="1052.3622047"
   id="svg2"
   sodipodi:version="0.32"
   inkscape:version="0.45.1"
   sodipodi:docbase="/media/home/piers/Documents/Maryo/croc-saw/svgs"
   sodipodi:docname="croc-saw-v1.svg"
   inkscape:output_extension="org.inkscape.output.svg.inkscape">
  <defs
     id="defs4">
    <linearGradient
       id="linearGradient3531">
      <stop
         style="stop-color:#00a800;stop-opacity:1;"
         offset="0"
         id="stop3533" />
      <stop
         id="stop3250"
         offset="0.83333331"
         style="stop-color:#006600;stop-opacity:1;" />
      <stop
         style="stop-color:#002417;stop-opacity:1;"
         offset="1"
         id="stop3535" />
    </linearGradient>
    <radialGradient
       inkscape:collect="always"
       xlink:href="#linearGradient3531"
       id="radialGradient3248"
       cx="368.79208"
       cy="479.87518"
       fx="368.79208"
       fy="479.87518"
       r="265.24637"
       gradientTransform="matrix(1,0,0,1.0058537,0,-2.8090647)"
       gradientUnits="userSpaceOnUse" />
    <radialGradient
       inkscape:collect="always"
       xlink:href="#linearGradient3531"
       id="radialGradient3311"
       gradientUnits="userSpaceOnUse"
       gradientTransform="matrix(1,0,0,1.0058537,-1.8523339,-1.0872864)"
       cx="368.79208"
       cy="479.87518"
       fx="368.79208"
       fy="479.87518"
       r="265.24637" />
  </defs>
  <sodipodi:namedview
     id="base"
     pagecolor="#ffffff"
     bordercolor="#666666"
     borderopacity="1.0"
     gridtolerance="10000"
     guidetolerance="10"
     objecttolerance="10"
     inkscape:pageopacity="0.0"
     inkscape:pageshadow="2"
     inkscape:zoom="0.24748737"
     inkscape:cx="-62.362443"
     inkscape:cy="583.46611"
     inkscape:document-units="px"
     inkscape:current-layer="layer7"
     showguides="true"
     inkscape:guide-bbox="true"
     inkscape:window-width="748"
     inkscape:window-height="572"
     inkscape:window-x="6"
     inkscape:window-y="31">
    <sodipodi:guide
       orientation="horizontal"
       position="852.85714"
       id="guide2223" />
    <sodipodi:guide
       orientation="vertical"
       position="60"
       id="guide2225" />
  </sodipodi:namedview>
  <metadata
     id="metadata7">
    <rdf:RDF>
      <cc:Work
         rdf:about="">
        <dc:format>image/svg+xml</dc:format>
        <dc:type
           rdf:resource="http://purl.org/dc/dcmitype/StillImage" />
      </cc:Work>
    </rdf:RDF>
  </metadata>
  <g
     inkscape:groupmode="layer"
     id="layer2"
     inkscape:label="sketch"
     style="display:none">
    <image
       y="167.93359"
       x="44.142849"
       id="image2218"
       height="654.57141"
       width="654.57141"
       sodipodi:absref="/media/home/piers/Documents/Maryo/sketches/croco-spin.jpg"
       xlink:href="/media/home/piers/Documents/Maryo/sketches/croco-spin.jpg" />
  </g>
  <g
     inkscape:label="guides"
     inkscape:groupmode="layer"
     id="layer1"
     style="display:none">
    <path
       sodipodi:type="arc"
       style="opacity:1;fill:none;fill-opacity:1;fill-rule:nonzero;stroke:#000000;stroke-width:5;stroke-linecap:round;stroke-miterlimit:4;stroke-dasharray:none;stroke-opacity:1"
       id="path2227"
       sodipodi:cx="323.57144"
       sodipodi:cy="464.50504"
       sodipodi:rx="265"
       sodipodi:ry="265"
       d="M 588.57144 464.50504 A 265 265 0 1 1  58.571442,464.50504 A 265 265 0 1 1  588.57144 464.50504 z"
       transform="matrix(0.9839786,0,0,0.9839786,50.898341,24.227724)" />
    <path
       transform="matrix(1.1094793,0,0,1.1094793,23.861338,-19.067966)"
       d="M 588.57144 464.50504 A 265 265 0 1 1  58.571442,464.50504 A 265 265 0 1 1  588.57144 464.50504 z"
       sodipodi:ry="265"
       sodipodi:rx="265"
       sodipodi:cy="464.50504"
       sodipodi:cx="323.57144"
       id="path3200"
       style="opacity:1;fill:none;fill-opacity:1;fill-rule:nonzero;stroke:#000000;stroke-width:5;stroke-linecap:round;stroke-miterlimit:4;stroke-dasharray:none;stroke-opacity:1"
       sodipodi:type="arc" />
  </g>
  <g
     inkscape:groupmode="layer"
     id="layer9"
     inkscape:label="under legs" />
  <g
     inkscape:groupmode="layer"
     id="layer3"
     inkscape:label="spines" />
  <g
     inkscape:groupmode="layer"
     id="layer4"
     inkscape:label="body"
     style="display:inline" />
  <g
     inkscape:groupmode="layer"
     id="layer6"
     inkscape:label="mouth" />
  <g
     inkscape:groupmode="layer"
     id="layer8"
     inkscape:label="belly"
     style="opacity:1" />
  <g
     inkscape:groupmode="layer"
     id="layer5"
     inkscape:label="head"
     style="display:inline" />
  <g
     inkscape:groupmode="layer"
     id="layer7"
     inkscape:label="legs">
    <g
       style="stroke-width:5;stroke-miterlimit:4;stroke-dasharray:none"
       id="g3188"
       transform="translate(-1.8523339,1.7217783)" />
    <g
       id="g3368"
       inkscape:export-filename="/media/home/piers/Documents/Maryo/croc-saw/PNGs/croc-saw_1.png"
       inkscape:export-xdpi="19.299999"
       inkscape:export-ydpi="19.299999">
      <path
         style="fill:#060d06;fill-opacity:1;fill-rule:evenodd;stroke:#000000;stroke-width:5;stroke-linecap:butt;stroke-linejoin:miter;stroke-miterlimit:4;stroke-dasharray:none;stroke-opacity:1;display:inline"
         d="M 433.62537,285.78484 C 412.05303,357.3557 368.77515,389.30728 368.77515,389.30728 L 364.43404,381.38343 C 364.43404,381.38343 379.75093,358.56906 384.3667,319.98281"
         id="path3282" />
      <path
         style="fill:#060d06;fill-opacity:1;fill-rule:evenodd;stroke:#000000;stroke-width:3;stroke-linecap:butt;stroke-linejoin:miter;stroke-miterlimit:4;stroke-dasharray:none;stroke-opacity:1"
         d="M 396.348,400.27555 C 380.15463,427.24906 359.65903,442.10661 323.3718,434.90527 C 342.71886,430.6883 347.38121,426.47457 350.46931,422.63035 C 336.24065,422.85064 325.85297,411.47431 326.59777,391.69185 C 336.07043,414.09956 353.85423,410.81667 353.85423,410.81667 C 353.85423,410.81667 344.29631,395.64006 355.30248,380.74119 C 356.00145,399.25301 362.98384,403.97446 367.51151,404.45118 C 378.9877,405.65952 392.39461,394.47853 392.39461,394.47853 L 396.348,400.27555 z "
         id="path3284"
         sodipodi:nodetypes="ccccccscc" />
      <path
         style="fill:#060d06;fill-opacity:1;fill-rule:evenodd;stroke:#000000;stroke-width:5;stroke-linecap:butt;stroke-linejoin:miter;stroke-miterlimit:4;stroke-dasharray:none;stroke-opacity:1;display:inline"
         d="M 338.82403,626.12998 C 329.94235,551.90821 356.81102,505.304 356.81102,505.304 L 363.96109,510.82751 C 363.96109,510.82751 359.05769,537.86561 370.27416,575.07307"
         id="path3292" />
      <path
         style="fill:#060d06;fill-opacity:1;fill-rule:evenodd;stroke:#000000;stroke-width:3;stroke-linecap:butt;stroke-linejoin:miter;stroke-miterlimit:4;stroke-dasharray:none;stroke-opacity:1"
         d="M 357.81152,514.35426 C 346.93731,484.83227 348.20127,459.5495 376.55163,435.7823 C 367.71486,453.50243 368.07723,459.77633 369.13809,464.59182 C 377.88232,453.36498 393.2573,452.39815 408.20763,465.3746 C 384.80895,458.71589 376.22379,474.63241 376.22379,474.63241 C 376.22379,474.63241 394.04049,476.69356 398.75497,494.60685 C 383.89019,483.55178 375.83536,486.03482 372.62673,489.26463 C 364.49387,497.4512 364.80655,514.90577 364.80655,514.90577 L 357.81152,514.35426 z "
         id="path3294"
         sodipodi:nodetypes="ccccccscc" />
      <path
         id="path3204"
         d="M 318.14767,738.36968 C 392.43338,788.36968 475.29053,774.08396 475.29053,774.08396 C 475.29053,774.08396 452.43338,764.08396 433.86196,732.65539 C 415.29053,701.22682 318.14767,736.94111 318.14767,738.36968 z "
         style="fill:#977e0a;fill-opacity:1;fill-rule:evenodd;stroke:#000000;stroke-width:10;stroke-linecap:butt;stroke-linejoin:miter;stroke-miterlimit:4;stroke-dasharray:none;stroke-opacity:1" />
      <path
         sodipodi:nodetypes="cccsc"
         id="path3206"
         d="M 482.07624,775.86968 C 463.50482,762.65539 454.93339,728.01253 454.93339,728.01253 L 417.43338,719.4411 C 417.43338,719.4411 442.55843,752.04829 451.7191,760.86967 C 461.36195,770.15539 481.7191,775.51254 482.07624,775.86968 z "
         style="fill:#afd02f;fill-opacity:1;fill-rule:evenodd;stroke:#000000;stroke-width:5;stroke-linecap:butt;stroke-linejoin:miter;stroke-miterlimit:4;stroke-dasharray:none;stroke-opacity:1" />
      <path
         style="fill:#977e0a;fill-opacity:1;fill-rule:evenodd;stroke:#000000;stroke-width:9.6370306;stroke-linecap:butt;stroke-linejoin:miter;stroke-miterlimit:4;stroke-dasharray:none;stroke-opacity:1"
         d="M 461.59734,725.43392 C 547.83292,728.63854 608.42745,674.84438 608.42745,674.84438 C 608.42745,674.84438 584.62906,678.26785 553.45353,661.96593 C 522.278,645.66402 460.87155,724.26405 461.59734,725.43392 z "
         id="path3334" />
      <path
         style="fill:#afd02f;fill-opacity:1;fill-rule:evenodd;stroke:#000000;stroke-width:4.8185153;stroke-linecap:butt;stroke-linejoin:miter;stroke-miterlimit:4;stroke-dasharray:none;stroke-opacity:1"
         d="M 614.89155,672.85924 C 592.96977,671.47315 568.35029,647.45854 568.35029,647.45854 L 533.28654,659.49117 C 533.28654,659.49117 570.42768,673.4287 582.41112,675.99853 C 595.02532,678.70364 614.41764,672.74822 614.89155,672.85924 z "
         id="path3336"
         sodipodi:nodetypes="cccsc" />
      <path
         id="path3342"
         d="M 576.03559,640.14794 C 645.58014,601.35438 667.59138,529.89542 667.59138,529.89542 C 667.59138,529.89542 650.46337,543.9986 618.06577,546.08037 C 585.66817,548.16215 574.90265,639.57311 576.03559,640.14794 z "
         style="fill:#977e0a;fill-opacity:1;fill-rule:evenodd;stroke:#000000;stroke-width:8.89301682;stroke-linecap:butt;stroke-linejoin:miter;stroke-miterlimit:4;stroke-dasharray:none;stroke-opacity:1" />
      <path
         sodipodi:nodetypes="cccsc"
         id="path3344"
         d="M 671.73804,525.2325 C 653.78543,534.64346 622.86258,527.50127 622.86258,527.50127 L 600.97541,553.79194 C 600.97541,553.79194 636.94482,546.98702 647.62683,543.27168 C 658.87111,539.36079 671.3111,525.37203 671.73804,525.2325 z "
         style="fill:#afd02f;fill-opacity:1;fill-rule:evenodd;stroke:#000000;stroke-width:4.44650841;stroke-linecap:butt;stroke-linejoin:miter;stroke-miterlimit:4;stroke-dasharray:none;stroke-opacity:1" />
      <path
         style="fill:#977e0a;fill-opacity:1;fill-rule:evenodd;stroke:#000000;stroke-width:7.76998472;stroke-linecap:butt;stroke-linejoin:miter;stroke-miterlimit:4;stroke-dasharray:none;stroke-opacity:1"
         d="M 622.91295,519.90133 C 663.37807,463.30208 654.10139,398.6343 654.10139,398.6343 C 654.10139,398.6343 645.83275,416.16766 621.01487,429.90195 C 596.19699,443.63625 621.80339,519.86997 622.91295,519.90133 z "
         id="path3356" />
      <path
         style="fill:#afd02f;fill-opacity:1;fill-rule:evenodd;stroke:#000000;stroke-width:3.88499236;stroke-linecap:butt;stroke-linejoin:miter;stroke-miterlimit:4;stroke-dasharray:none;stroke-opacity:1"
         d="M 655.6373,393.40312 C 644.96624,407.53725 617.87137,413.4341 617.87137,413.4341 L 610.39085,442.37176 C 610.39085,442.37176 636.26801,423.57322 643.32057,416.65188 C 650.74436,409.36623 655.35207,393.67267 655.6373,393.40312 z "
         id="path3358"
         sodipodi:nodetypes="cccsc" />
      <path
         id="path3364"
         d="M 614.75074,406.10345 C 627.29141,346.20429 596.92503,297.42091 596.92503,297.42091 C 596.92503,297.42091 596.47554,314.4658 581.35608,334.31148 C 566.23663,354.15716 613.84627,406.47107 614.75074,406.10345 z "
         style="fill:#977e0a;fill-opacity:1;fill-rule:evenodd;stroke:#000000;stroke-width:6.8342886;stroke-linecap:butt;stroke-linejoin:miter;stroke-miterlimit:4;stroke-dasharray:none;stroke-opacity:1" />
      <path
         sodipodi:nodetypes="cccsc"
         id="path3366"
         d="M 596.30946,292.66514 C 592.72205,307.82373 572.99423,322.16523 572.99423,322.16523 L 577.21726,348.11338 C 577.21726,348.11338 591.39649,323.81509 594.62427,315.74517 C 598.02196,307.25048 596.17524,292.98316 596.30946,292.66514 z "
         style="fill:#afd02f;fill-opacity:1;fill-rule:evenodd;stroke:#000000;stroke-width:3.4171443;stroke-linecap:butt;stroke-linejoin:miter;stroke-miterlimit:4;stroke-dasharray:none;stroke-opacity:1" />
      <path
         style="fill:#977e0a;fill-opacity:1;fill-rule:evenodd;stroke:#000000;stroke-width:5.36739397;stroke-linecap:butt;stroke-linejoin:miter;stroke-miterlimit:4;stroke-dasharray:none;stroke-opacity:1"
         d="M 570.97953,319.60737 C 564.23159,272.02092 528.76825,244.11096 528.76825,244.11096 C 528.76825,244.11096 532.99184,256.81852 527.13041,275.51522 C 521.26899,294.21192 570.40984,320.12058 570.97953,319.60737 z "
         id="path3372" />
      <path
         style="fill:#afd02f;fill-opacity:1;fill-rule:evenodd;stroke:#000000;stroke-width:2.68369699;stroke-linecap:butt;stroke-linejoin:miter;stroke-miterlimit:4;stroke-dasharray:none;stroke-opacity:1"
         d="M 527.04261,240.7634 C 528.44474,252.91662 517.70901,268.78021 517.70901,268.78021 L 527.76273,286.8139 C 527.76273,286.8139 531.73979,265.08031 531.96664,258.2581 C 532.20544,251.07679 527.02849,241.03413 527.04261,240.7634 z "
         id="path3374"
         sodipodi:nodetypes="cccsc" />
      <path
         id="path3380"
         d="M 513.21791,265.2895 C 492.81293,226.61221 453.8649,213.6112 453.8649,213.6112 C 453.8649,213.6112 461.38766,223.19534 462.1148,241.00811 C 462.84195,258.82089 512.88779,265.9041 513.21791,265.2895 z "
         style="fill:#977e0a;fill-opacity:1;fill-rule:evenodd;stroke:#000000;stroke-width:4.88353872;stroke-linecap:butt;stroke-linejoin:miter;stroke-miterlimit:4;stroke-dasharray:none;stroke-opacity:1" />
      <path
         sodipodi:nodetypes="cccsc"
         id="path3382"
         d="M 451.3582,211.27488 C 456.29438,221.2515 451.97655,238.13628 451.97655,238.13628 L 466.12909,250.48956 C 466.12909,250.48956 462.85481,230.65528 460.95219,224.74325 C 458.94942,218.52003 451.42932,211.51105 451.3582,211.27488 z "
         style="fill:#afd02f;fill-opacity:1;fill-rule:evenodd;stroke:#000000;stroke-width:2.44176936;stroke-linecap:butt;stroke-linejoin:miter;stroke-miterlimit:4;stroke-dasharray:none;stroke-opacity:1" />
      <path
         style="fill:#977e0a;fill-opacity:1;fill-rule:evenodd;stroke:#000000;stroke-width:4.06850338;stroke-linecap:butt;stroke-linejoin:miter;stroke-miterlimit:4;stroke-dasharray:none;stroke-opacity:1"
         d="M 448.18331,236.57758 C 424.65345,208.76386 390.63573,205.16237 390.63573,205.16237 C 390.63573,205.16237 398.47313,211.61275 402.2554,225.97537 C 406.03766,240.33798 448.02481,237.13677 448.18331,236.57758 z "
         id="path3422" />
      <path
         style="fill:#afd02f;fill-opacity:1;fill-rule:evenodd;stroke:#000000;stroke-width:2.03425169;stroke-linecap:butt;stroke-linejoin:miter;stroke-miterlimit:4;stroke-dasharray:none;stroke-opacity:1"
         d="M 388.17774,203.71049 C 393.98095,210.94352 393.49229,225.45476 393.49229,225.45476 L 407.21984,232.97063 C 407.21984,232.97063 401.00307,217.41952 398.39608,212.95017 C 395.65188,208.24556 388.27791,203.88991 388.17774,203.71049 z "
         id="path3424"
         sodipodi:nodetypes="cccsc" />
      <path
         id="path3430"
         d="M 390.72498,222.09199 C 366.21106,202.4873 336.85344,205.09468 336.85344,205.09468 C 336.85344,205.09468 344.55108,209.24574 350.13507,220.75974 C 355.71906,232.27373 390.68389,222.59107 390.72498,222.09199 z "
         style="fill:#977e0a;fill-opacity:1;fill-rule:evenodd;stroke:#000000;stroke-width:3.50538754;stroke-linecap:butt;stroke-linejoin:miter;stroke-miterlimit:4;stroke-dasharray:none;stroke-opacity:1" />
      <path
         sodipodi:nodetypes="cccsc"
         id="path3432"
         d="M 334.53418,204.27564 C 340.64211,209.42635 342.64008,221.77562 342.64008,221.77562 L 355.49439,225.84881 C 355.49439,225.84881 347.65475,213.73454 344.70816,210.38922 C 341.60648,206.86782 334.64867,204.41068 334.53418,204.27564 z "
         style="fill:#afd02f;fill-opacity:1;fill-rule:evenodd;stroke:#000000;stroke-width:1.75269377;stroke-linecap:butt;stroke-linejoin:miter;stroke-miterlimit:4;stroke-dasharray:none;stroke-opacity:1" />
      <path
         style="fill:#977e0a;fill-opacity:1;fill-rule:evenodd;stroke:#000000;stroke-width:3.50538707;stroke-linecap:butt;stroke-linejoin:miter;stroke-miterlimit:4;stroke-dasharray:none;stroke-opacity:1"
         d="M 341.41898,222.49644 C 313.08023,208.99863 285.09078,218.23219 285.09078,218.23219 C 285.09078,218.23219 293.53222,220.51846 301.59479,230.45566 C 309.65736,240.39285 341.49278,222.99174 341.41898,222.49644 z "
         id="path3438" />
      <path
         style="fill:#afd02f;fill-opacity:1;fill-rule:evenodd;stroke:#000000;stroke-width:1.75269353;stroke-linecap:butt;stroke-linejoin:miter;stroke-miterlimit:4;stroke-dasharray:none;stroke-opacity:1"
         d="M 282.64584,217.96363 C 289.76743,221.58573 294.52895,233.15398 294.52895,233.15398 L 307.97343,234.18847 C 307.97343,234.18847 297.57775,224.1812 293.94592,221.59599 C 290.12292,218.8747 282.78812,218.069 282.64584,217.96363 z "
         id="path3440"
         sodipodi:nodetypes="cccsc" />
      <path
         id="path3446"
         d="M 291.41875,232.51389 C 263.62768,225.46271 240.19386,238.71513 240.19386,238.71513 C 240.19386,238.71513 248.16357,239.2616 257.15507,246.73018 C 266.14658,254.19876 291.57299,232.94452 291.41875,232.51389 z "
         style="fill:#977e0a;fill-opacity:1;fill-rule:evenodd;stroke:#000000;stroke-width:3.2019124;stroke-linecap:butt;stroke-linejoin:miter;stroke-miterlimit:4;stroke-dasharray:none;stroke-opacity:1" />
      <path
         sodipodi:nodetypes="cccsc"
         id="path3448"
         d="M 237.95558,238.90951 C 244.98047,240.88762 251.30464,250.40482 251.30464,250.40482 L 263.53403,248.93966 C 263.53403,248.93966 252.43976,241.8234 248.72593,240.15339 C 244.81663,238.39547 238.1018,238.9786 237.95558,238.90951 z "
         style="fill:#afd02f;fill-opacity:1;fill-rule:evenodd;stroke:#000000;stroke-width:1.6009562;stroke-linecap:butt;stroke-linejoin:miter;stroke-miterlimit:4;stroke-dasharray:none;stroke-opacity:1" />
      <path
         style="fill:#977e0a;fill-opacity:1;fill-rule:evenodd;stroke:#000000;stroke-width:3.2019124;stroke-linecap:butt;stroke-linejoin:miter;stroke-miterlimit:4;stroke-dasharray:none;stroke-opacity:1"
         d="M 248.10949,250.67311 C 219.48155,249.09082 199.02929,266.59728 199.02929,266.59728 C 199.02929,266.59728 206.95559,265.60289 217.21413,271.2055 C 227.47267,276.8081 248.34357,251.0661 248.10949,250.67311 z "
         id="path3454" />
      <path
         style="fill:#afd02f;fill-opacity:1;fill-rule:evenodd;stroke:#000000;stroke-width:1.6009562;stroke-linecap:butt;stroke-linejoin:miter;stroke-miterlimit:4;stroke-dasharray:none;stroke-opacity:1"
         d="M 196.87002,267.21792 C 204.14404,267.80999 212.17838,275.93537 212.17838,275.93537 L 223.89868,272.14868 C 223.89868,272.14868 211.64419,267.2957 207.67876,266.37006 C 203.50461,265.3957 197.02679,267.25765 196.87002,267.21792 z "
         id="path3456"
         sodipodi:nodetypes="cccsc" />
      <path
         id="path3348"
         d="M 204.10742,685.50652 C 237.29616,755.88818 305.49532,782.10509 305.49532,782.10509 C 305.49532,782.10509 292.88674,764.46801 293.01452,732.7452 C 293.1423,701.02239 204.74326,684.4403 204.10742,685.50652 z "
         style="fill:#977e0a;fill-opacity:1;fill-rule:evenodd;stroke:#000000;stroke-width:8.68993855;stroke-linecap:butt;stroke-linejoin:miter;stroke-miterlimit:4;stroke-dasharray:none;stroke-opacity:1" />
      <path
         sodipodi:nodetypes="cccsc"
         id="path3350"
         d="M 309.76504,786.45814 C 301.78579,768.32961 310.80775,738.65872 310.80775,738.65872 L 286.63458,715.57044 C 286.63458,715.57044 290.87353,751.08989 293.78429,761.7511 C 296.84826,772.97348 309.65745,786.03262 309.76504,786.45814 z "
         style="fill:#afd02f;fill-opacity:1;fill-rule:evenodd;stroke:#000000;stroke-width:4.34496927;stroke-linecap:butt;stroke-linejoin:miter;stroke-miterlimit:4;stroke-dasharray:none;stroke-opacity:1" />
      <path
         style="fill:#977e0a;fill-opacity:1;fill-rule:evenodd;stroke:#000000;stroke-width:7.91968441;stroke-linecap:butt;stroke-linejoin:miter;stroke-miterlimit:4;stroke-dasharray:none;stroke-opacity:1"
         d="M 133.2637,598.56619 C 134.07414,669.47864 180.64766,717.06988 180.64766,717.06988 C 180.64766,717.06988 176.88801,697.6721 189.02514,671.4319 C 201.16227,645.19168 134.195,597.92377 133.2637,598.56619 z "
         id="path3388" />
      <path
         style="fill:#afd02f;fill-opacity:1;fill-rule:evenodd;stroke:#000000;stroke-width:3.95984221;stroke-linecap:butt;stroke-linejoin:miter;stroke-miterlimit:4;stroke-dasharray:none;stroke-opacity:1"
         d="M 182.53504,722.29659 C 182.79809,704.24727 201.52761,683.08071 201.52761,683.08071 L 190.25182,654.77952 C 190.25182,654.77952 180.29347,685.82212 178.66223,695.761 C 176.94512,706.22303 182.60726,721.90316 182.53504,722.29659 z "
         id="path3390"
         sodipodi:nodetypes="cccsc" />
      <path
         id="path3396"
         d="M 107.10047,517.39977 C 88.220238,567.71266 108.06325,614.10583 108.06325,614.10583 C 108.06325,614.10583 110.72873,599.37243 126.50028,584.16654 C 142.27182,568.96064 107.93455,517.20145 107.10047,517.39977 z "
         style="fill:#977e0a;fill-opacity:1;fill-rule:evenodd;stroke:#000000;stroke-width:6.00128651;stroke-linecap:butt;stroke-linejoin:miter;stroke-miterlimit:4;stroke-dasharray:none;stroke-opacity:1" />
      <path
         sodipodi:nodetypes="cccsc"
         id="path3398"
         d="M 107.96265,618.31557 C 113.09975,605.6382 132.13617,595.82461 132.13617,595.82461 L 131.93485,572.74027 C 131.93485,572.74027 116.38494,591.93612 112.50625,598.50919 C 108.42338,605.42823 108.12159,618.05748 107.96265,618.31557 z "
         style="fill:#afd02f;fill-opacity:1;fill-rule:evenodd;stroke:#000000;stroke-width:3.00064325;stroke-linecap:butt;stroke-linejoin:miter;stroke-miterlimit:4;stroke-dasharray:none;stroke-opacity:1" />
      <path
         style="fill:#977e0a;fill-opacity:1;fill-rule:evenodd;stroke:#000000;stroke-width:6.00128603;stroke-linecap:butt;stroke-linejoin:miter;stroke-miterlimit:4;stroke-dasharray:none;stroke-opacity:1"
         d="M 111.13275,430.96024 C 76.678047,472.20007 80.064494,522.54491 80.064494,522.54491 C 80.064494,522.54491 87.451795,509.52164 107.36418,500.38611 C 127.27656,491.25058 111.98548,431.04887 111.13275,430.96024 z "
         id="path3404" />
      <path
         style="fill:#afd02f;fill-opacity:1;fill-rule:evenodd;stroke:#000000;stroke-width:3.00064301;stroke-linecap:butt;stroke-linejoin:miter;stroke-miterlimit:4;stroke-dasharray:none;stroke-opacity:1"
         d="M 78.577555,526.48459 C 87.617598,516.21896 108.82818,513.25198 108.82818,513.25198 L 116.27127,491.39957 C 116.27127,491.39957 95.248732,504.37391 89.414763,509.29471 C 83.273707,514.47451 78.812895,526.29357 78.577555,526.48459 z "
         id="path3406"
         sodipodi:nodetypes="cccsc" />
      <path
         id="path3412"
         d="M 129.45947,349.06023 C 87.935494,383.17195 81.898842,433.26816 81.898842,433.26816 C 81.898842,433.26816 91.579531,421.84616 112.84363,416.5737 C 134.10773,411.30123 130.28084,349.30593 129.45947,349.06023 z "
         style="fill:#977e0a;fill-opacity:1;fill-rule:evenodd;stroke:#000000;stroke-width:6.00128603;stroke-linecap:butt;stroke-linejoin:miter;stroke-miterlimit:4;stroke-dasharray:none;stroke-opacity:1" />
      <path
         sodipodi:nodetypes="cccsc"
         id="path3414"
         d="M 79.70508,436.86253 C 90.496757,428.45745 111.88907,429.48736 111.88907,429.48736 L 123.26677,409.40066 C 123.26677,409.40066 100.19788,418.23847 93.550454,421.9883 C 86.553128,425.9355 79.971843,436.71861 79.70508,436.86253 z "
         style="fill:#afd02f;fill-opacity:1;fill-rule:evenodd;stroke:#000000;stroke-width:3.00064301;stroke-linecap:butt;stroke-linejoin:miter;stroke-miterlimit:4;stroke-dasharray:none;stroke-opacity:1" />
      <path
         sodipodi:nodetypes="ccssssssssssssc"
         id="path2199"
         d="M 106.7191,489.79825 C 161.7191,519.08396 231.00481,509.79825 231.00481,509.79825 C 231.00481,509.79825 230.75988,569.34014 296.7191,616.22682 C 356.00481,658.36968 445.29052,661.94111 496.00481,614.08396 C 555.51851,557.92314 567.43338,458.36968 541.7191,413.36968 C 516.00481,368.36968 448.86196,321.94111 401.00481,309.08396 C 353.14767,296.22682 277.43338,297.65539 237.43338,344.08396 C 197.43338,390.51253 175.29053,358.36968 175.29053,339.79825 C 175.29053,321.22682 186.00481,289.79825 214.57624,271.22682 C 243.14767,252.65539 345.29053,191.94111 449.57624,234.79825 C 553.86196,277.65539 595.29053,337.65539 618.14767,409.79825 C 641.00481,481.94111 618.86196,589.79825 570.29053,645.51253 C 521.7191,701.22682 425.29053,762.65539 312.43338,737.65539 C 199.57624,712.65539 148.86196,626.22682 134.57624,592.65539 C 120.29053,559.08396 106.00481,489.08396 106.7191,489.79825 z "
         style="fill:url(#radialGradient3311);fill-opacity:1;fill-rule:evenodd;stroke:#000000;stroke-width:10;stroke-linecap:butt;stroke-linejoin:miter;stroke-miterlimit:4;stroke-dasharray:none;stroke-opacity:1;display:inline" />
      <path
         id="path3220"
         d="M 269.8787,461.88203 L 238.31144,452.03305 L 206.49163,446.47721 L 193.10711,456.07366 L 185.02589,466.68026 L 185.02589,479.5597 L 208.2594,480.06478 L 243.3622,473.24625 L 269.8787,461.88203 z "
         style="fill:#ffffff;fill-rule:evenodd;stroke:#000000;stroke-width:1px;stroke-linecap:butt;stroke-linejoin:miter;stroke-opacity:1" />
      <path
         id="path3222"
         d="M 190.32919,461.12442 L 195.37995,478.54955 L 199.92564,451.52797 L 209.26955,477.28686 L 213.81524,448.49751 L 222.90661,477.28686 L 228.96753,450.51782 L 239.06905,475.01402 L 242.60459,453.29574 L 253.46373,471.22594 L 256.49418,455.31604 L 262.80764,466.17518"
         style="fill:none;fill-rule:evenodd;stroke:#000000;stroke-width:3;stroke-linecap:butt;stroke-linejoin:miter;stroke-miterlimit:4;stroke-dasharray:none;stroke-opacity:1" />
      <path
         inkscape:transform-center-x="25.982369"
         style="fill:#fff5b2;fill-opacity:1;fill-rule:evenodd;stroke:#000000;stroke-width:4.38495064;stroke-linecap:butt;stroke-linejoin:miter;stroke-miterlimit:4;stroke-dasharray:none;stroke-opacity:1"
         d="M 417.44963,340.6347 C 412.6412,341.98864 394.92826,337.34185 391.67226,336.12 C 387.80631,334.66922 385.16214,331.36079 384.68832,327.18231 C 384.20911,322.95648 386.44656,316.2952 389.66564,312.94223 C 391.07742,311.47173 393.59883,309.04894 395.84545,308.52338 C 397.75975,308.07557 407.04427,308.09362 413.82763,310.0075 C 420.61096,311.92139 436.3426,319.40417 437.29869,325.13227 C 438.25476,330.86037 417.33595,340.59203 417.44963,340.6347 z "
         id="path3270"
         sodipodi:nodetypes="cszszssc"
         inkscape:transform-center-y="1.0489466" />
      <path
         id="path3268"
         d="M 447.49094,374.04898 C 442.86695,374.22175 438.6008,371.89253 434.44912,370.147 C 429.28852,367.60992 424.04943,365.06717 419.42936,361.61564 C 414.26437,356.9529 414.1964,348.96759 416.56931,342.88087 C 419.42504,335.03845 424.5238,327.50275 432.3242,323.94444 C 435.49449,322.87305 438.8464,324.21209 441.98687,324.82467 C 448.40851,326.42497 454.54919,329.30784 459.48865,333.77155 C 465.29376,338.84928 471.129,344.46412 474.14186,351.70832 C 475.24049,354.28874 475.17761,357.49523 473.10099,359.58463 C 468.26771,364.8048 461.62413,367.79528 455.29235,370.7799 C 452.72365,371.94481 450.10217,372.98593 447.49094,374.04898 z "
         style="fill:#fff5b2;fill-opacity:1;fill-rule:evenodd;stroke:#000000;stroke-width:5;stroke-linecap:butt;stroke-linejoin:miter;stroke-miterlimit:4;stroke-dasharray:none;stroke-opacity:1" />
      <path
         inkscape:transform-center-x="29.514379"
         style="fill:#fff5b2;fill-opacity:1;fill-rule:evenodd;stroke:#000000;stroke-width:5;stroke-linecap:butt;stroke-linejoin:miter;stroke-miterlimit:4;stroke-dasharray:none;stroke-opacity:1"
         d="M 481.16149,405.68849 C 475.25861,405.56613 459.10837,392.10469 456.35314,389.13365 C 453.08176,385.60602 452.18917,380.06539 454.11126,374.23032 C 456.05512,368.32909 462.30396,360.24111 467.67635,357.01907 C 470.0325,355.60597 474.12237,353.35706 476.81819,353.55879 C 479.11522,353.73067 488.98447,357.52177 495.09137,362.85841 C 501.19824,368.19505 513.59338,384.68256 511.28467,392.80598 C 508.97595,400.9294 481.0653,405.58474 481.16149,405.68849 z "
         id="path3266"
         sodipodi:nodetypes="cszszssc"
         inkscape:transform-center-y="-10.890717" />
      <path
         inkscape:transform-center-y="-24.771426"
         sodipodi:nodetypes="cszszssc"
         id="path3264"
         d="M 501.73049,448.70508 C 495.18466,446.18227 482.58148,424.61344 480.70405,420.18015 C 478.4749,414.91635 479.7173,408.365 484.22353,402.62244 C 488.78085,396.81476 499.03206,390.30403 506.33705,388.87571 C 509.54081,388.24927 515.01947,387.3898 517.94997,388.70492 C 520.44697,389.82549 529.94141,398.0507 534.60741,406.4819 C 539.2734,414.91309 546.45778,438.34504 540.59455,446.48808 C 534.73133,454.63113 501.66494,448.55027 501.73049,448.70508 z "
         style="fill:#fff5b2;fill-opacity:1;fill-rule:evenodd;stroke:#000000;stroke-width:5;stroke-linecap:butt;stroke-linejoin:miter;stroke-miterlimit:4;stroke-dasharray:none;stroke-opacity:1"
         inkscape:transform-center-x="30.947811" />
      <path
         inkscape:transform-center-x="19.094149"
         style="fill:#fff5b2;fill-opacity:1;fill-rule:evenodd;stroke:#000000;stroke-width:5;stroke-linecap:butt;stroke-linejoin:miter;stroke-miterlimit:4;stroke-dasharray:none;stroke-opacity:1"
         d="M 507.3601,494.66756 C 502.38457,489.7222 499.53499,464.90417 499.60195,460.0902 C 499.68144,454.3744 503.45704,448.87817 509.89437,445.43667 C 516.40469,441.95614 528.40987,440.12518 535.6715,441.75973 C 538.85625,442.47658 544.21711,443.8963 546.36982,446.28025 C 548.20409,448.31154 553.58202,459.66391 554.45743,469.26028 C 555.33283,478.85664 552.47215,503.19771 543.82599,508.28992 C 535.17984,513.38213 507.36245,494.49946 507.3601,494.66756 z "
         id="path3262"
         sodipodi:nodetypes="cszszssc"
         inkscape:transform-center-y="-31.621089" />
      <path
         inkscape:transform-center-y="-43.906851"
         sodipodi:nodetypes="cszszssc"
         id="path3260"
         d="M 478.14815,549.1452 C 474.01693,541.23452 480.10764,510.04355 482.04051,504.23178 C 484.33547,497.33126 491.02794,492.11868 500.15775,490.42154 C 509.39109,488.70515 524.6531,491.10263 532.83,495.87789 C 536.41616,497.97217 542.37076,501.75579 544.06421,505.47464 C 545.50716,508.64338 547.6619,524.47811 545.03223,536.4516 C 542.40254,548.42508 529.57091,576.84124 517.12769,579.69045 C 504.68448,582.53966 478.21566,548.94225 478.14815,549.1452 z "
         style="fill:#fff5b2;fill-opacity:1;fill-rule:evenodd;stroke:#000000;stroke-width:5;stroke-linecap:butt;stroke-linejoin:miter;stroke-miterlimit:4;stroke-dasharray:none;stroke-opacity:1"
         inkscape:transform-center-x="9.0796015" />
      <path
         inkscape:transform-center-y="4.5356878"
         inkscape:transform-center-x="-40.978854"
         style="fill:#fff5b2;fill-opacity:1;fill-rule:evenodd;stroke:#000000;stroke-width:5;stroke-linecap:butt;stroke-linejoin:miter;stroke-miterlimit:4;stroke-dasharray:none;stroke-opacity:1"
         d="M 436.6653,584.22451 C 436.65111,574.78768 457.58801,548.50231 462.2377,543.99407 C 467.75843,538.64129 476.58032,537.01817 485.97271,539.88225 C 495.4716,542.77882 508.6177,552.47677 513.95719,560.94708 C 516.29895,564.66191 520.03785,571.11737 519.81128,575.43231 C 519.61821,579.10896 513.91085,595.01412 505.60014,604.96215 C 497.28942,614.91016 471.38365,635.30258 458.32088,631.90197 C 445.25812,628.50136 436.82767,584.06708 436.6653,584.22451 z "
         id="path3258"
         sodipodi:nodetypes="cszszssc" />
      <path
         sodipodi:nodetypes="cszszssc"
         id="path3254"
         d="M 385.28863,579.5648 C 392.61224,571.98866 429.82736,567.19043 437.05895,567.19044 C 445.64525,567.19044 453.97901,572.74627 459.28231,582.34272 C 464.64576,592.048 467.64649,610.04054 465.34322,620.98106 C 464.33307,625.77928 462.31276,633.8605 458.77723,637.1435 C 455.7647,639.94085 438.82672,648.25518 424.43204,649.77041 C 410.03737,651.28563 373.41934,647.49756 365.59066,634.61812 C 357.76198,621.73867 385.54117,579.5648 385.28863,579.5648 z "
         style="fill:#fff5b2;fill-opacity:1;fill-rule:evenodd;stroke:#000000;stroke-width:5;stroke-linecap:butt;stroke-linejoin:miter;stroke-miterlimit:4;stroke-dasharray:none;stroke-opacity:1" />
      <path
         inkscape:transform-center-y="-40.833086"
         inkscape:transform-center-x="27.017141"
         style="fill:#fff5b2;fill-opacity:1;fill-rule:evenodd;stroke:#000000;stroke-width:5;stroke-linecap:butt;stroke-linejoin:miter;stroke-miterlimit:4;stroke-dasharray:none;stroke-opacity:1"
         d="M 347.8375,563.04217 C 357.70079,559.33424 393.38312,570.94284 399.91739,574.0411 C 407.67574,577.71975 412.82561,586.3103 413.50611,597.25351 C 414.19432,608.32082 409.19712,625.86402 402.42867,634.76279 C 399.46021,638.66556 394.17246,645.10197 389.5713,646.55367 C 385.65078,647.79062 366.78394,648.04645 353.12811,643.24843 C 339.47229,638.4504 308.00813,619.33925 306.45231,604.34766 C 304.89649,589.35607 348.06569,563.15037 347.8375,563.04217 z "
         id="path3276"
         sodipodi:nodetypes="cszszssc" />
      <path
         sodipodi:nodetypes="cszszssc"
         id="path3318"
         d="M 320.9656,540.31187 C 331.69819,539.08606 364.1526,560.71862 369.8481,565.69309 C 376.61055,571.59943 379.5334,581.92533 377.42171,593.50724 C 375.28608,605.22047 365.859,622.15994 356.87571,629.62064 C 352.93588,632.89271 346.04914,638.18414 341.11326,638.46634 C 336.90754,638.70679 318.11907,633.92937 305.78908,625.28029 C 293.45911,616.6312 267.10153,588.31063 269.37559,572.27737 C 271.64966,556.2441 321.1645,540.48559 320.9656,540.31187 z "
         style="fill:#fff5b2;fill-opacity:1;fill-rule:evenodd;stroke:#000000;stroke-width:5.24857378;stroke-linecap:butt;stroke-linejoin:miter;stroke-miterlimit:4;stroke-dasharray:none;stroke-opacity:1"
         inkscape:transform-center-x="15.131265"
         inkscape:transform-center-y="-47.472989" />
      <path
         inkscape:transform-center-y="-47.959222"
         inkscape:transform-center-x="2.4669405"
         style="fill:#fff5b2;fill-opacity:1;fill-rule:evenodd;stroke:#000000;stroke-width:5.24857378;stroke-linecap:butt;stroke-linejoin:miter;stroke-miterlimit:4;stroke-dasharray:none;stroke-opacity:1"
         d="M 296.35319,517.30431 C 307.09912,518.40711 334.16332,546.49244 338.66038,552.57194 C 343.9999,559.79033 344.64187,570.50272 340.09709,581.36295 C 335.50078,592.34634 322.66238,606.87187 312.2889,612.23399 C 307.73936,614.58567 299.87862,618.27824 294.99693,617.49606 C 290.8374,616.82958 273.50935,608.13656 263.31945,597.04595 C 253.12959,585.95536 233.45389,552.64404 239.11125,537.47068 C 244.76862,522.2973 296.51024,517.51661 296.35319,517.30431 z "
         id="path3320"
         sodipodi:nodetypes="cszszssc" />
      <path
         sodipodi:nodetypes="cszszssc"
         id="path3322"
         d="M 275.69081,474.52352 C 285.95723,477.88386 306.43769,511.07735 309.54067,517.97339 C 313.22495,526.16129 311.57668,536.76556 304.82863,546.4125 C 298.00406,556.16884 282.37307,567.63565 271.09729,570.67179 C 266.15203,572.00336 257.68629,573.94183 253.08217,572.1405 C 249.15915,570.60564 234.0732,558.43009 226.4718,545.428 C 218.87043,532.42594 206.71998,495.69525 215.47143,482.06996 C 224.22291,468.44465 275.79918,474.76433 275.69081,474.52352 z "
         style="fill:#fff5b2;fill-opacity:1;fill-rule:evenodd;stroke:#000000;stroke-width:5.24857378;stroke-linecap:butt;stroke-linejoin:miter;stroke-miterlimit:4;stroke-dasharray:none;stroke-opacity:1"
         inkscape:transform-center-x="-10.288278"
         inkscape:transform-center-y="-46.630123" />
      <path
         inkscape:transform-center-y="6.8601775"
         sodipodi:nodetypes="cszszssc"
         id="path3324"
         d="M 394.24825,331.42977 C 389.82186,333.7452 371.53159,332.84693 368.09372,332.32202 C 364.01183,331.69874 360.74284,329.00597 359.41841,325.01471 C 358.07896,320.97824 358.8962,313.99891 361.35553,310.05473 C 362.43411,308.32494 364.40235,305.43471 366.49252,304.45762 C 368.27351,303.62507 377.36262,301.73012 384.39475,302.20559 C 391.42685,302.68107 408.36253,306.76265 410.4781,312.17094 C 412.59364,317.57923 394.12822,331.41143 394.24825,331.42977 z "
         style="fill:#fff5b2;fill-opacity:1;fill-rule:evenodd;stroke:#000000;stroke-width:5;stroke-linecap:butt;stroke-linejoin:miter;stroke-miterlimit:4;stroke-dasharray:none;stroke-opacity:1"
         inkscape:transform-center-x="25.104043" />
      <path
         inkscape:transform-center-x="25.206174"
         style="fill:#fff5b2;fill-opacity:1;fill-rule:evenodd;stroke:#000000;stroke-width:4.38495064;stroke-linecap:butt;stroke-linejoin:miter;stroke-miterlimit:4;stroke-dasharray:none;stroke-opacity:1"
         d="M 364.60789,328.3018 C 360.14233,330.54076 341.87022,329.32805 338.44188,328.74409 C 334.37132,328.0507 331.14912,325.3021 329.89353,321.28865 C 328.6237,317.22974 329.56086,310.2655 332.08766,306.3642 C 333.19583,304.65322 335.21349,301.79727 337.32016,300.85627 C 339.1152,300.05447 348.23556,298.31613 355.25847,298.91247 C 362.28135,299.50883 379.14433,303.88108 381.16657,309.32496 C 383.18878,314.76883 364.48819,328.2814 364.60789,328.3018 z "
         id="path3326"
         sodipodi:nodetypes="cszszssc"
         inkscape:transform-center-y="6.3769327" />
      <path
         inkscape:transform-center-y="17.42384"
         sodipodi:nodetypes="cszszssc"
         id="path3328"
         d="M 343.85268,326.45997 C 340.61322,330.2626 323.31391,336.26884 319.92916,337.06754 C 315.91033,338.01584 311.87157,336.7408 309.15075,333.53432 C 306.39909,330.29154 304.54724,323.51294 305.35331,318.93526 C 305.70681,316.92764 306.45152,313.51109 308.02469,311.82329 C 309.36515,310.38517 317.08632,305.22897 323.7861,303.04039 C 330.48586,300.85185 347.71919,298.30451 351.70363,302.52938 C 355.68804,306.75426 343.7345,326.48784 343.85268,326.45997 z "
         style="fill:#fff5b2;fill-opacity:1;fill-rule:evenodd;stroke:#000000;stroke-width:4.38495064;stroke-linecap:butt;stroke-linejoin:miter;stroke-miterlimit:4;stroke-dasharray:none;stroke-opacity:1"
         inkscape:transform-center-x="21.690671" />
      <path
         sodipodi:nodetypes="ccscsssssssssccsssssscsccc"
         id="path3176"
         d="M 271.34401,462.06365 C 240.98687,482.06365 184.57624,480.15539 184.57624,480.15539 C 184.57624,480.15539 181.7191,467.65539 190.29053,459.08396 C 198.86196,450.51253 207.79053,446.9411 207.79053,446.9411 C 207.79053,446.9411 269.93338,453.36968 311.00481,482.29825 C 352.07624,511.22682 408.86196,556.9411 410.29053,559.79825 C 411.7191,562.65539 414.57624,578.01253 427.07624,576.22682 C 439.57624,574.4411 448.14767,573.36968 451.00481,569.4411 C 453.86196,565.51253 461.36196,538.72682 476.00481,528.01253 C 490.64767,517.29825 520.29053,519.4411 525.64767,513.36968 C 531.00481,507.29825 530.29053,494.4411 529.57624,492.65539 C 528.86196,490.86968 521.36196,484.08396 522.07624,477.65539 C 522.79053,471.22682 522.07624,427.29825 505.29053,423.36968 C 488.50481,419.4411 469.93338,433.01253 466.36196,444.79825 C 448.29969,431.01682 431.95039,414.53801 409.2191,395.86968 C 387.43338,376.58396 357.79053,344.08396 350.29053,331.9411 C 342.79053,319.79825 336.00481,308.01253 324.93338,302.29825 C 313.86196,296.58396 293.86196,280.15539 244.93338,287.29825 C 196.00481,294.4411 159.93338,305.15539 139.93338,330.51253 C 119.93338,355.86968 86.719095,411.9411 108.14767,470.51253 C 129.57624,529.08396 144.2191,530.51253 159.2191,536.9411 C 164.14552,539.05243 175.33794,542.67456 185.61594,527.99461 C 216.60206,526.44664 239.28055,510.98521 260.64767,499.4411 C 278.42124,489.8385 290.29841,485.07616 298.44353,476.04299 C 289.16353,468.2725 271.00481,462.29825 271.00481,462.29825 L 271.00481,462.29825"
         style="fill:#008000;fill-opacity:1;fill-rule:evenodd;stroke:#000000;stroke-width:13;stroke-linecap:butt;stroke-linejoin:miter;stroke-miterlimit:4;stroke-dasharray:none;stroke-opacity:1;display:inline" />
      <path
         style="fill:#008000;fill-opacity:1;fill-rule:evenodd;stroke:#000000;stroke-width:5;stroke-linecap:butt;stroke-linejoin:miter;stroke-miterlimit:4;stroke-dasharray:none;stroke-opacity:1;display:inline"
         d="M 215.57815,337.89067 C 215.57815,275.63512 228.47168,248.59928 255.37146,249.32213 C 282.27123,250.04498 295.06641,267.95845 295.955,310.38241"
         id="path3180"
         sodipodi:nodetypes="czc" />
      <path
         sodipodi:nodetypes="czzc"
         id="path3178"
         d="M 145.87763,385.87292 C 143.35224,301.89909 158.26608,274.86325 185.16586,275.5861 C 209.366,276.23641 220.87443,308.85781 223.60465,318.54581 C 226.37517,328.37682 240.81251,338.44968 240.90169,342.7073"
         style="fill:#008000;fill-opacity:1;fill-rule:evenodd;stroke:#000000;stroke-width:7;stroke-linecap:butt;stroke-linejoin:miter;stroke-miterlimit:4;stroke-dasharray:none;stroke-opacity:1;display:inline" />
      <path
         sodipodi:nodetypes="ccsss"
         id="path3182"
         d="M 171.64137,299.50002 C 210.3368,323.4604 194.37865,338.40857 214.06778,346.4721 C 214.56401,359.58639 207.24924,376.77668 190.58173,376.77668 C 173.91421,376.77668 164.57031,358.08886 164.06523,342.93657 C 163.56015,327.78428 170.2877,298.66182 171.64137,299.50002 z "
         style="fill:#ffffff;fill-rule:evenodd;stroke:#000000;stroke-width:5;stroke-linecap:butt;stroke-linejoin:miter;stroke-miterlimit:4;stroke-dasharray:none;stroke-opacity:1" />
      <path
         style="fill:#ffffff;fill-rule:evenodd;stroke:#000000;stroke-width:5;stroke-linecap:butt;stroke-linejoin:miter;stroke-miterlimit:4;stroke-dasharray:none;stroke-opacity:1;display:inline"
         d="M 278.71134,273.74113 C 278.71134,273.74113 268.60096,316.18522 246.38645,323.74367 C 245.89022,336.85796 249.70412,357.75042 265.83189,353.54317 C 277.44865,350.51272 285.27732,331.31982 285.7824,316.16753 C 286.28748,301.01524 280.22657,273.23605 278.71134,273.74113 z "
         id="path3207"
         sodipodi:nodetypes="ccssc" />
      <path
         sodipodi:nodetypes="csc"
         id="path3224"
         d="M 184.30889,497.74245 C 179.7632,486.12569 177.23782,477.5394 180.26828,468.9531 C 183.29873,460.3668 195.92565,444.4569 222.18961,436.88075"
         style="fill:none;fill-rule:evenodd;stroke:#000000;stroke-width:7;stroke-linecap:round;stroke-linejoin:miter;stroke-miterlimit:4;stroke-dasharray:none;stroke-opacity:1;display:inline" />
      <path
         id="path3226"
         d="M 468.37368,439.91122 C 460.79754,461.12442 470.89906,475.26655 465.8483,479.81224"
         style="fill:none;fill-rule:evenodd;stroke:#000000;stroke-width:5;stroke-linecap:butt;stroke-linejoin:miter;stroke-miterlimit:4;stroke-dasharray:none;stroke-opacity:1;display:inline" />
      <path
         sodipodi:nodetypes="czzzsc"
         id="path3228"
         d="M 402.9663,528.29956 C 407.25945,518.45058 394.88508,510.62189 390.84447,495.97468 C 386.73908,481.09265 394.56862,462.39173 407.76453,457.84142 C 420.96043,453.29111 435.29118,458.85158 442.36225,471.98356 C 449.43332,485.11555 445.14017,499.76275 449.9384,500.77291 C 454.73662,501.78306 455.74677,501.02544 455.74677,501.02544"
         style="fill:none;fill-rule:evenodd;stroke:#000000;stroke-width:7;stroke-linecap:butt;stroke-linejoin:miter;stroke-miterlimit:4;stroke-dasharray:none;stroke-opacity:1;display:inline" />
      <path
         sodipodi:nodetypes="csscc"
         id="path3230"
         d="M 415.34067,519.20819 C 409.78483,502.79321 392.35971,479.05463 411.04753,469.96326 C 429.73535,460.87188 434.63714,491.24732 435.29119,496.47976 C 436.0488,502.54067 438.0691,508.60159 438.0691,508.60159 L 415.34067,519.20819 z "
         style="fill:#051700;fill-opacity:1;fill-rule:evenodd;stroke:#000000;stroke-width:1px;stroke-linecap:butt;stroke-linejoin:miter;stroke-opacity:1;display:inline" />
      <path
         style="fill:#051700;fill-opacity:1;fill-rule:evenodd;stroke:#000000;stroke-width:1px;stroke-linecap:butt;stroke-linejoin:miter;stroke-opacity:1;display:inline"
         d="M 481.34405,478.46985 C 482.80951,461.20222 473.15729,441.18181 493.04358,435.14665 C 512.54468,429.22838 509.19492,458.77988 509.72419,465.35307 C 510.21441,471.44144 510.71048,476.8176 510.71048,476.8176 L 481.34405,478.46985 z "
         id="path3232"
         sodipodi:nodetypes="csscc" />
      <path
         id="path3234"
         d="M 332.50816,383.34267 C 359.78228,411.62694 365.8432,424.75893 399.17823,439.91122"
         style="fill:none;fill-rule:evenodd;stroke:#000000;stroke-width:5;stroke-linecap:butt;stroke-linejoin:miter;stroke-miterlimit:4;stroke-dasharray:none;stroke-opacity:1;display:inline" />
      <path
         id="path3236"
         d="M 157.2467,380.81729 C 136.53857,387.88836 126.43704,401.52542 126.43704,401.52542"
         style="fill:none;fill-rule:evenodd;stroke:#000000;stroke-width:7;stroke-linecap:butt;stroke-linejoin:miter;stroke-miterlimit:4;stroke-dasharray:none;stroke-opacity:1;display:inline" />
      <path
         transform="translate(-1.0037464,-9.0178867)"
         d="M 200.76782 349.92737 A 5.6821079 16.541248 0 1 1  189.4036,349.92737 A 5.6821079 16.541248 0 1 1  200.76782 349.92737 z"
         sodipodi:ry="16.541248"
         sodipodi:rx="5.6821079"
         sodipodi:cy="349.92737"
         sodipodi:cx="195.08571"
         id="path3464"
         style="fill:#000000;fill-opacity:1;fill-rule:nonzero;stroke:#000000;stroke-width:5;stroke-linecap:round;stroke-miterlimit:4;stroke-dasharray:none;stroke-opacity:1"
         sodipodi:type="arc" />
      <path
         transform="translate(-1.0037464,-9.0178867)"
         d="M 199.00004 343.74017 A 2.1465743 8.0812206 0 1 1  194.7069,343.74017 A 2.1465743 8.0812206 0 1 1  199.00004 343.74017 z"
         sodipodi:ry="8.0812206"
         sodipodi:rx="2.1465743"
         sodipodi:cy="343.74017"
         sodipodi:cx="196.85347"
         id="path3466"
         style="fill:#ffffff;fill-opacity:1;fill-rule:nonzero;stroke:#ffffff;stroke-width:5;stroke-linecap:round;stroke-miterlimit:4;stroke-dasharray:none;stroke-opacity:1"
         sodipodi:type="arc" />
      <path
         sodipodi:nodetypes="cc"
         id="path3505"
         d="M 182.07624,307.29825 C 209.57624,331.22682 196.00481,336.94111 213.86196,346.9411"
         style="fill:none;fill-rule:evenodd;stroke:#000000;stroke-width:5;stroke-linecap:butt;stroke-linejoin:miter;stroke-miterlimit:4;stroke-dasharray:none;stroke-opacity:1;display:inline" />
      <path
         transform="translate(72.567682,-36.160744)"
         sodipodi:type="arc"
         style="fill:#000000;fill-opacity:1;fill-rule:nonzero;stroke:#000000;stroke-width:5;stroke-linecap:round;stroke-miterlimit:4;stroke-dasharray:none;stroke-opacity:1"
         id="path3517"
         sodipodi:cx="195.08571"
         sodipodi:cy="349.92737"
         sodipodi:rx="5.6821079"
         sodipodi:ry="16.541248"
         d="M 200.76782 349.92737 A 5.6821079 16.541248 0 1 1  189.4036,349.92737 A 5.6821079 16.541248 0 1 1  200.76782 349.92737 z" />
      <path
         transform="translate(72.567682,-36.160744)"
         sodipodi:type="arc"
         style="fill:#ffffff;fill-opacity:1;fill-rule:nonzero;stroke:#ffffff;stroke-width:5;stroke-linecap:round;stroke-miterlimit:4;stroke-dasharray:none;stroke-opacity:1"
         id="path3519"
         sodipodi:cx="196.85347"
         sodipodi:cy="343.74017"
         sodipodi:rx="2.1465743"
         sodipodi:ry="8.0812206"
         d="M 199.00004 343.74017 A 2.1465743 8.0812206 0 1 1  194.7069,343.74017 A 2.1465743 8.0812206 0 1 1  199.00004 343.74017 z" />
      <path
         id="path3521"
         d="M 277.79053,273.36968 C 269.04053,300.51253 261.89767,320.51253 246.00481,323.72682"
         style="fill:#005200;fill-opacity:1;fill-rule:evenodd;stroke:#000000;stroke-width:5;stroke-linecap:butt;stroke-linejoin:miter;stroke-miterlimit:4;stroke-dasharray:none;stroke-opacity:1;display:inline" />
      <g
         inkscape:transform-center-y="-11.813285"
         inkscape:transform-center-x="58.456482"
         transform="matrix(0.9186145,-0.3951549,0.3951549,0.9186145,1048.3848,-29.920814)"
         id="g3256">
        <g
           id="g3260">
          <path
             id="path3238"
             d="M -599.0187,228.60785 C -669.72938,204.36419 -700.03395,159.91747 -700.03395,159.91747 L -691.95273,155.87686 C -691.95273,155.87686 -669.72938,172.03931 -631.34358,178.10022"
             style="fill:#006c00;fill-opacity:1;fill-rule:evenodd;stroke:#000000;stroke-width:10;stroke-linecap:butt;stroke-linejoin:miter;stroke-miterlimit:4;stroke-dasharray:none;stroke-opacity:1;display:inline" />
          <path
             sodipodi:nodetypes="ccccccscc"
             id="path3242"
             d="M -687.16195,165.80507 C -718.47668,162.77461 -740.70004,150.65279 -749.79141,114.79237 C -737.66958,130.44973 -731.8612,132.84885 -727.06298,133.98527 C -733.37643,121.23209 -727.56805,106.96368 -709.3853,99.135001 C -725.54774,117.31775 -714.94114,131.96496 -714.94114,131.96496 C -714.94114,131.96496 -705.3447,116.81268 -687.16195,120.34821 C -703.57693,128.93451 -704.83962,137.26826 -703.32439,141.56141 C -699.48375,152.44317 -683.62641,159.74416 -683.62641,159.74416 L -687.16195,165.80507 z "
             style="fill:#803300;fill-rule:evenodd;stroke:#000000;stroke-width:5;stroke-linecap:butt;stroke-linejoin:miter;stroke-miterlimit:4;stroke-dasharray:none;stroke-opacity:1" />
        </g>
      </g>
      <path
         style="fill:#006f00;fill-opacity:1;fill-rule:evenodd;stroke:#000000;stroke-width:10;stroke-linecap:butt;stroke-linejoin:miter;stroke-miterlimit:4;stroke-dasharray:none;stroke-opacity:1;display:inline"
         d="M 205.48451,632.71209 C 235.69247,564.3364 282.5703,537.94801 282.5703,537.94801 L 285.90427,546.34546 C 285.90427,546.34546 267.89869,567.10362 258.57395,604.82966"
         id="path3250" />
      <path
         style="fill:#803300;fill-rule:evenodd;stroke:#000000;stroke-width:5;stroke-linecap:butt;stroke-linejoin:miter;stroke-miterlimit:4;stroke-dasharray:none;stroke-opacity:1"
         d="M 278.81592,546.24335 C 284.516,515.303 298.49579,494.19893 335.00285,488.21082 C 318.36526,498.94778 315.47771,504.52946 313.9347,509.21278 C 327.18154,504.01426 340.90034,511.02279 347.14372,529.80898 C 330.41133,512.1493 314.90989,521.46307 314.90989,521.46307 C 314.90989,521.46307 329.18503,532.32142 324.10591,550.13476 C 316.95636,533.04499 308.7613,531.07351 304.3542,532.21566 C 293.1836,535.11065 284.55192,550.28477 284.55192,550.28477 L 278.81592,546.24335 z "
         id="path3252"
         sodipodi:nodetypes="ccccccscc" />
    </g>
  </g>
</svg>
