<?xml version="1.0" encoding="UTF-8" standalone="no"?>
<!-- Created with Inkscape (http://www.inkscape.org/) -->
<svg
   xmlns:dc="http://purl.org/dc/elements/1.1/"
   xmlns:cc="http://web.resource.org/cc/"
   xmlns:rdf="http://www.w3.org/1999/02/22-rdf-syntax-ns#"
   xmlns:svg="http://www.w3.org/2000/svg"
   xmlns="http://www.w3.org/2000/svg"
   xmlns:xlink="http://www.w3.org/1999/xlink"
   xmlns:sodipodi="http://sodipodi.sourceforge.net/DTD/sodipodi-0.dtd"
   xmlns:inkscape="http://www.inkscape.org/namespaces/inkscape"
   id="svg2211"
   sodipodi:version="0.32"
   inkscape:version="0.45.1"
   width="300"
   height="275"
   version="1.0"
   sodipodi:docbase="/media/home/piers/Desktop/From Thumb Drive/Maryo/croc-saw/svgs"
   sodipodi:docname="Buzz-V3.svg"
   inkscape:output_extension="org.inkscape.output.svg.inkscape">
  <metadata
     id="metadata2216">
    <rdf:RDF>
      <cc:Work
         rdf:about="">
        <dc:format>image/svg+xml</dc:format>
        <dc:type
           rdf:resource="http://purl.org/dc/dcmitype/StillImage" />
      </cc:Work>
    </rdf:RDF>
  </metadata>
  <defs
     id="defs2214" />
  <sodipodi:namedview
     inkscape:window-height="695"
     inkscape:window-width="1024"
     inkscape:pageshadow="2"
     inkscape:pageopacity="0.0"
     guidetolerance="10.0"
     gridtolerance="10.0"
     objecttolerance="10.0"
     borderopacity="1.0"
     bordercolor="#666666"
     pagecolor="#ffffff"
     id="base"
     inkscape:zoom="1.8889733"
     inkscape:cx="149.04954"
     inkscape:cy="138.11257"
     inkscape:window-x="39"
     inkscape:window-y="128"
     inkscape:current-layer="svg2211" />
  <image
     xlink:href="/media/cornice/Maryo/croc-saw/sketches/Buzz_v3.gif"
     sodipodi:absref="/media/cornice/Maryo/croc-saw/sketches/Buzz_v3.gif"
     width="300"
     height="275"
     id="image2218"
     x="-358"
     y="14" />
  <path
     inkscape:transform-center-x="16.874313"
     inkscape:transform-center-y="-2.1470251"
     sodipodi:nodetypes="csssssccccsssccccsssssssssssccscscsc"
     id="path3278"
     d="M 195.24163,127.01396 C 192.61634,127.82137 190.65208,127.48926 189.62917,127.64367 C 183.11428,128.62711 179.89853,126.77004 178.72861,127.17069 C 176.57214,127.90919 172.30842,128.18157 171.22415,127.91254 C 168.95223,127.34882 165.14816,123.20394 165.99427,121.86328 C 166.19661,121.54269 169.57326,123.95853 171.10594,123.66503 C 172.63863,123.37155 175.15359,122.63203 175.15359,122.63203 L 176.10077,121.80569 L 175.08429,122.68502 L 173.33705,123.17082 C 173.33705,123.17082 170.82877,122.01006 169.87899,121.19886 C 168.92921,120.38768 165.92092,116.81275 167.22943,115.86705 C 167.58276,115.6113 170.21733,118.19464 171.28125,118.1498 C 172.34517,118.10496 174.26005,117.65569 174.26005,117.65569 L 175.24245,116.35535 L 174.23321,117.61188 L 173.36021,117.41308 C 173.36021,117.41308 171.38244,116.61152 170.75408,116.04368 C 169.14443,114.58907 169.22574,110.12962 170.14882,110.0224 C 170.62836,109.96669 172.07711,113.05178 172.81788,113.10656 C 173.55865,113.16133 174.50406,113.33139 176.11389,112.64396 C 177.72369,111.95651 178.85095,110.62978 182.59438,111.32476 C 185.36686,111.83948 185.07072,112.87574 187.38445,113.98202 C 189.09544,114.8001 192.38011,115.48205 194.6947,115.67648 C 199.72264,116.09881 199.17247,114.46549 202.10682,114.9851 C 204.89339,115.47854 207.77782,117.10229 207.32043,120.49874 C 207.05342,122.48138 203.74276,127.28744 202.98364,129.12127 C 201.58068,132.51043 200.43695,136.74228 199.23802,140.15987 C 196.31555,148.49042 189.95024,156.31102 189.95024,156.31102 C 189.95024,156.31102 196.50996,148.34692 199.12871,140.18693 C 206.05423,138.16283 213.63832,136.57297 216.25156,146.1797 C 221.17361,164.27402 188.24242,183.70083 175.09635,182.88144 C 168.65988,183.08115 169.15378,183.05824 167.32352,181.38287 C 166.65925,180.77482 164.54968,180.74473 164.64052,173.56459 C 162.5954,161.86789 166.40873,152.06072 171.54419,145.50115 C 179.91853,134.80451 185.35385,131.7451 189.2768,127.83222"
     style="fill:#1b5a00;fill-rule:evenodd;stroke:#000000;stroke-width:1.53396881;stroke-linecap:butt;stroke-linejoin:miter;stroke-miterlimit:4;stroke-dasharray:none;stroke-opacity:1;fill-opacity:1"
     inkscape:export-filename="/media/cornice/Maryo/croc-saw/PNGs/buzz_2_unshaded.png"
     inkscape:export-xdpi="46.900002"
     inkscape:export-ydpi="46.900002" />
  <g
     style="fill:#1b5a00;fill-opacity:1"
     transform="matrix(0.8979346,-0.1224881,0.1224881,0.8979346,28.895867,7.554286)"
     id="g3272"
     inkscape:export-filename="/media/cornice/Maryo/croc-saw/PNGs/buzz_2_unshaded.png"
     inkscape:export-xdpi="46.900002"
     inkscape:export-ydpi="46.900002">
    <path
       style="fill:#1b5a00;fill-opacity:1;fill-rule:nonzero;stroke:#000000;stroke-width:1.64094901;stroke-linecap:butt;stroke-linejoin:miter;stroke-miterlimit:4;stroke-dasharray:none;stroke-opacity:1"
       d="M 82.152119,163.48025 C 80.349652,153.89714 69.650207,152.48924 64.277389,154.44468 C 59.459244,156.19824 53.168149,167.70103 60.306973,186.86314 C 67.445798,206.02525 69.817662,207.72832 72.07203,208.10405 C 74.326396,208.47978 83.143699,204.93428 87.675657,195.60052 C 91.19926,188.34351 91.609867,181.05166 93.864233,177.29438 C 95.634422,179.67001 97.451415,180.22079 97.954222,181.18047 C 98.928987,183.04097 99.548299,185.96271 99.14978,187.2911 C 98.751261,188.6195 97.024343,190.34642 97.555703,191.67482 C 98.087062,193.00322 102.07225,193.2689 104.33053,190.34642 C 106.58881,187.42395 106.5556,185.69703 107.18659,184.86678 C 107.81758,184.03653 109.04634,182.97381 109.04634,182.97381 L 107.38585,184.86678 C 107.38585,184.86678 109.21239,185.96271 109.81017,187.49036 C 110.40795,189.01802 110.34153,191.44235 111.10536,191.64161 C 111.86919,191.84087 114.09425,191.01062 115.02413,188.81876 C 115.95401,186.62691 115.28981,181.37973 115.82117,180.54949 C 116.35253,179.71924 117.08315,178.95541 117.08315,178.95541 L 115.9208,180.61591 L 115.85438,181.44615 C 115.85438,181.44615 117.74735,181.77825 118.47797,182.9406 C 119.20859,184.10295 119.50748,188.35382 120.23809,188.81876 C 120.96871,189.2837 123.62551,185.9295 124.05724,184.20258 C 124.48897,182.47567 124.22329,176.9296 123.16057,175.43515 C 122.09785,173.94071 119.10896,171.44996 118.01303,169.25811 C 116.9171,167.06625 113.29722,159.06265 112.59981,157.00364 C 111.9024,154.94462 111.10536,152.02214 109.51128,151.25832 C 107.91721,150.49449 104.17303,149.65252 100.65058,149.74645 C 97.128136,149.84038 93.675857,150.68826 91.938116,152.61386 C 90.200376,154.53947 88.510114,156.3006 87.946523,157.05206 C 87.382931,157.80351 84.304307,161.0148 82.216676,163.48639 C 79.226772,167.02621 74.864012,170.2213 73.599534,174.60605 C 72.895045,177.04897 72.7895,179.3035 72.7895,179.3035"
       id="path3274"
       sodipodi:nodetypes="csssscsssssccsssscccssssssssssssc" />
    <path
       sodipodi:nodetypes="ccc"
       style="fill:#1b5a00;fill-opacity:1;fill-rule:evenodd;stroke:#000000;stroke-width:1.64094901;stroke-linecap:butt;stroke-linejoin:miter;stroke-miterlimit:4;stroke-dasharray:none;stroke-opacity:1"
       d="M 93.873797,177.32171 C 89.871273,172.15716 92.195319,167.89641 92.195319,167.89641 C 92.195319,167.89641 90.904182,167.28312 90.420006,165.41097"
       id="path3276" />
  </g>
  <path
     sodipodi:nodetypes="cccc"
     id="path3562"
     d="M 6.1198185,140.86933 C 1.1432016,127.86497 39.889805,116.0209 39.889805,116.0209 L 42.444157,121.94455 L 6.1198185,140.86933 z "
     style="fill:#808000;fill-rule:evenodd;stroke:#000000;stroke-width:1px;stroke-linecap:butt;stroke-linejoin:miter;stroke-opacity:1" />
  <path
     sodipodi:nodetypes="cssc"
     id="path3564"
     d="M 41.416076,121.68424 C 33.698121,122.17547 5.6283972,132.05565 6.3778049,140.61289 C 7.3351309,151.54428 39.750622,162.31935 46.946417,164.39871 C 54.142213,166.47807 43.473784,121.69043 41.416076,121.68424 z "
     style="fill:#e0d698;fill-opacity:1;fill-rule:evenodd;stroke:#000000;stroke-width:3;stroke-linecap:butt;stroke-linejoin:miter;stroke-miterlimit:4;stroke-dasharray:none;stroke-opacity:1" />
  <path
     style="fill:#808000;fill-rule:evenodd;stroke:#000000;stroke-width:1px;stroke-linecap:butt;stroke-linejoin:miter;stroke-opacity:1"
     d="M 38.700921,212.43217 C 27.536519,204.11133 53.925627,173.36729 53.925627,173.36729 L 59.253947,177.00368 L 38.700921,212.43217 z "
     id="path3568"
     sodipodi:nodetypes="cccc" />
  <path
     style="fill:#e0d698;fill-opacity:1;fill-rule:evenodd;stroke:#000000;stroke-width:3;stroke-linecap:butt;stroke-linejoin:miter;stroke-miterlimit:4;stroke-dasharray:none;stroke-opacity:1"
     d="M 58.246208,177.33409 C 51.989887,181.88014 33.568211,205.2504 38.781577,212.07747 C 45.441356,220.79866 78.589774,212.5495 85.780968,210.45429 C 92.972164,208.35907 59.987639,176.23791 58.246208,177.33409 z "
     id="path3570"
     sodipodi:nodetypes="cssc" />
  <path
     sodipodi:nodetypes="cssc"
     id="path3576"
     d="M 92.201984,219.19381 C 89.46236,226.42586 86.869839,256.07052 94.972895,258.92159 C 105.32409,262.56365 128.52311,237.49032 133.3883,231.79531 C 138.25349,226.10032 93.057323,217.32228 92.201984,219.19381 z "
     style="fill:#e0d698;fill-opacity:1;fill-rule:evenodd;stroke:#000000;stroke-width:3;stroke-linecap:butt;stroke-linejoin:miter;stroke-miterlimit:4;stroke-dasharray:none;stroke-opacity:1"
     inkscape:transform-center-x="-14.080948"
     inkscape:transform-center-y="-12.373605" />
  <path
     style="fill:#808000;fill-rule:evenodd;stroke:#000000;stroke-width:1px;stroke-linecap:butt;stroke-linejoin:miter;stroke-opacity:1"
     d="M 170.3404,268.26019 C 157.17475,272.79295 146.65144,233.66699 146.65144,233.66699 L 152.6583,231.31498 L 170.3404,268.26019 z "
     id="path3580"
     sodipodi:nodetypes="cccc" />
  <path
     style="fill:#e0d698;fill-opacity:1;fill-rule:evenodd;stroke:#000000;stroke-width:3;stroke-linecap:butt;stroke-linejoin:miter;stroke-miterlimit:4;stroke-dasharray:none;stroke-opacity:1"
     d="M 152.36328,232.33365 C 152.5925,240.06382 161.51512,268.45245 170.09286,267.99365 C 181.05043,267.40757 192.91854,235.37612 195.24072,228.25497 C 197.5629,221.13383 152.43924,230.27733 152.36328,232.33365 z "
     id="path3582"
     sodipodi:nodetypes="cssc" />
  <path
     sodipodi:nodetypes="cccc"
     id="path3586"
     d="M 240.83496,232.6131 C 254.15334,228.55094 239.69573,190.70178 239.69573,190.70178 L 233.45247,192.32534 L 240.83496,232.6131 z "
     style="fill:#808000;fill-rule:evenodd;stroke:#000000;stroke-width:1px;stroke-linecap:butt;stroke-linejoin:miter;stroke-opacity:1" />
  <path
     sodipodi:nodetypes="cssc"
     id="path3588"
     d="M 234.28944,192.97663 C 238.6432,199.36826 248.09129,227.58635 240.87882,232.252 C 231.66529,238.21209 203.24945,219.25409 197.18814,214.85366 C 191.12684,210.45323 233.02045,191.3568 234.28944,192.97663 z "
     style="fill:#e0d698;fill-opacity:1;fill-rule:evenodd;stroke:#000000;stroke-width:3;stroke-linecap:butt;stroke-linejoin:miter;stroke-miterlimit:4;stroke-dasharray:none;stroke-opacity:1" />
  <path
     style="fill:#808000;fill-rule:evenodd;stroke:#000000;stroke-width:1px;stroke-linecap:butt;stroke-linejoin:miter;stroke-opacity:1"
     d="M 291.84878,157.87136 C 297.34818,147.59889 266.4274,133.69048 266.4274,133.69048 L 263.68373,138.33948 L 291.84878,157.87136 z "
     id="path3592"
     sodipodi:nodetypes="cccc" />
  <path
     style="fill:#e0d698;fill-opacity:1;fill-rule:evenodd;stroke:#000000;stroke-width:3;stroke-linecap:butt;stroke-linejoin:miter;stroke-miterlimit:4;stroke-dasharray:none;stroke-opacity:1"
     d="M 264.5646,138.23152 C 270.92022,139.45117 293.18385,150.60612 291.66158,157.63134 C 289.71696,166.60565 261.67286,172.14115 255.48034,173.11047 C 249.28781,174.07979 262.85569,138.0202 264.5646,138.23152 z "
     id="path3594"
     sodipodi:nodetypes="cssc" />
  <path
     sodipodi:nodetypes="cccc"
     id="path3598"
     d="M 283.6129,78.382717 C 282.60022,66.774891 249.10633,72.037754 249.10633,72.037754 L 249.35129,77.430429 L 283.6129,78.382717 z "
     style="fill:#808000;fill-rule:evenodd;stroke:#000000;stroke-width:1.00000012px;stroke-linecap:butt;stroke-linejoin:miter;stroke-opacity:1" />
  <path
     sodipodi:nodetypes="cssc"
     id="path3600"
     d="M 250.02977,76.85837 C 256.01798,74.404221 280.75799,71.569808 283.32491,78.284115 C 286.60402,86.86126 266.15076,106.83068 261.49606,111.02838 C 256.84135,115.22609 248.48342,77.6159 250.02977,76.85837 z "
     style="fill:#e0d698;fill-opacity:1;fill-rule:evenodd;stroke:#000000;stroke-width:3;stroke-linecap:butt;stroke-linejoin:miter;stroke-miterlimit:4;stroke-dasharray:none;stroke-opacity:1" />
  <path
     style="fill:#808000;fill-rule:evenodd;stroke:#000000;stroke-width:1.5;stroke-linecap:butt;stroke-linejoin:miter;stroke-opacity:1;stroke-miterlimit:4;stroke-dasharray:none"
     d="M 242.36652,26.745292 C 236.94999,17.182355 210.27362,34.819966 210.27362,34.819966 L 212.5965,39.350987 L 242.36652,26.745292 z "
     id="path3604"
     sodipodi:nodetypes="cccc" />
  <path
     style="fill:#e0d698;fill-opacity:1;fill-rule:evenodd;stroke:#000000;stroke-width:1.5;stroke-linecap:butt;stroke-linejoin:miter;stroke-miterlimit:4;stroke-dasharray:none;stroke-opacity:1"
     d="M 212.95453,38.594341 C 217.13102,34.142631 237.24785,22.018199 242.08079,26.773515 C 248.2546,32.848161 238.5289,57.99523 236.17965,63.420507 C 233.8304,68.845785 211.92452,39.850131 212.95453,38.594341 z "
     id="path3606"
     sodipodi:nodetypes="cssc" />
  <g
     inkscape:transform-center-y="16.718214"
     inkscape:transform-center-x="5.558732"
     id="g3608"
     transform="matrix(-0.5821594,0.3773097,0.3773097,0.5821594,193.41706,-43.944452)"
     inkscape:export-filename="/media/cornice/Maryo/croc-saw/PNGs/buzz_2_unshaded.png"
     inkscape:export-xdpi="46.900002"
     inkscape:export-ydpi="46.900002"
     style="fill:#e0d698;fill-opacity:1">
    <path
       style="fill:#e0d698;fill-rule:evenodd;stroke:#000000;stroke-width:1.44146693px;stroke-linecap:butt;stroke-linejoin:miter;stroke-opacity:1;fill-opacity:1"
       d="M 40.740741,58.564815 C 46.378968,45.833334 82.208995,64.748677 82.208995,64.748677 L 79.844577,70.750661 L 40.740741,58.564815 z "
       id="path3610"
       sodipodi:nodetypes="cccc" />
    <path
       style="fill:#e0d698;fill-opacity:1;fill-rule:evenodd;stroke:#000000;stroke-width:2.88293386;stroke-linecap:butt;stroke-linejoin:miter;stroke-miterlimit:4;stroke-dasharray:none;stroke-opacity:1"
       d="M 79.298942,69.84127 C 73.478836,64.748678 46.605662,51.967452 41.104497,58.564815 C 34.077071,66.992572 49.470899,97.486772 53.108466,104.03439 C 56.746032,110.58201 80.753968,71.296296 79.298942,69.84127 z "
       id="path3612"
       sodipodi:nodetypes="cssc" />
  </g>
  <g
     transform="matrix(-0.3046292,0.4609199,0.4609199,0.3046292,126.26697,-26.29773)"
     id="g3614"
     inkscape:transform-center-x="-4.3105577"
     inkscape:transform-center-y="11.635685"
     inkscape:export-filename="/media/cornice/Maryo/croc-saw/PNGs/buzz_2_unshaded.png"
     inkscape:export-xdpi="46.900002"
     inkscape:export-ydpi="46.900002"
     style="fill:#e0d698;fill-opacity:1">
    <path
       sodipodi:nodetypes="cccc"
       id="path3616"
       d="M 40.740741,58.564815 C 46.378968,45.833334 82.208995,64.748677 82.208995,64.748677 L 79.844577,70.750661 L 40.740741,58.564815 z "
       style="fill:#e0d698;fill-rule:evenodd;stroke:#000000;stroke-width:1.80998492px;stroke-linecap:butt;stroke-linejoin:miter;stroke-opacity:1;fill-opacity:1" />
    <path
       sodipodi:nodetypes="cssc"
       id="path3618"
       d="M 79.298942,69.84127 C 73.478836,64.748678 46.605662,51.967452 41.104497,58.564815 C 34.077071,66.992572 49.470899,97.486772 53.108466,104.03439 C 56.746032,110.58201 80.753968,71.296296 79.298942,69.84127 z "
       style="fill:#e0d698;fill-opacity:1;fill-rule:evenodd;stroke:#000000;stroke-width:3.61996984;stroke-linecap:butt;stroke-linejoin:miter;stroke-miterlimit:4;stroke-dasharray:none;stroke-opacity:1" />
  </g>
  <path
     style="fill:#008000;fill-rule:evenodd;stroke:#000000;stroke-width:4;stroke-linecap:butt;stroke-linejoin:miter;stroke-opacity:1;stroke-miterlimit:4;stroke-dasharray:none;opacity:1"
     d="M 56.018519,85.846561 C 4.3650794,165.87302 70.568783,234.25926 138.22751,238.62434 C 205.88624,242.98942 266.99735,194.97354 266.99735,133.13492 C 266.99735,71.296296 224.07407,32.738095 191.33598,26.190476 C 158.59788,19.642857 117.85714,24.73545 115.6746,34.193122 C 113.49206,43.650794 119.31217,57.473545 152.77778,58.201058 C 186.24339,58.928571 209.52381,98.941799 200.79365,125.13228 C 192.06349,151.32275 184.06085,171.69312 162.96296,170.96561 C 141.86508,170.2381 120.03968,155.68783 119.31217,130.22487 C 118.58466,104.7619 55.291005,83.664021 56.018519,85.846561 z "
     id="path3262"
     inkscape:export-filename="/media/cornice/Maryo/croc-saw/PNGs/buzz_2_unshaded.png"
     inkscape:export-xdpi="46.900002"
     inkscape:export-ydpi="46.900002" />
  <path
     sodipodi:nodetypes="csssc"
     id="path3558"
     d="M 167.78031,57.034911 C 169.76804,56.572913 170.2636,57.624279 170.32431,58.373807 C 170.43893,59.788738 170.32963,60.669936 168.6716,60.841492 C 167.26478,60.987042 167.06741,60.615614 166.6885,59.462029 C 166.30959,58.308442 166.76875,57.192652 167.78031,57.034911 z "
     style="fill:#ebf6be;fill-opacity:1;fill-rule:evenodd;stroke:#000000;stroke-width:1px;stroke-linecap:butt;stroke-linejoin:miter;stroke-opacity:1"
     inkscape:export-filename="/media/cornice/Maryo/croc-saw/PNGs/buzz_2_unshaded.png"
     inkscape:export-xdpi="46.900002"
     inkscape:export-ydpi="46.900002" />
  <path
     style="fill:#ebf6be;fill-opacity:1;fill-rule:evenodd;stroke:#000000;stroke-width:0.99999994px;stroke-linecap:butt;stroke-linejoin:miter;stroke-opacity:1"
     d="M 172.79763,57.064101 C 176.21235,57.271365 176.50935,59.192244 176.25078,60.422183 C 175.76267,62.744019 175.16826,64.103899 172.42153,63.588413 C 170.09096,63.151007 169.95019,62.461766 169.88926,60.432703 C 169.82834,58.403639 171.09662,56.834644 172.79763,57.064101 z "
     id="path3556"
     sodipodi:nodetypes="csssc"
     inkscape:export-filename="/media/cornice/Maryo/croc-saw/PNGs/buzz_2_unshaded.png"
     inkscape:export-xdpi="46.900002"
     inkscape:export-ydpi="46.900002" />
  <path
     style="fill:#ffffff;fill-opacity:1;fill-rule:evenodd;stroke:#000000;stroke-width:2;stroke-linecap:butt;stroke-linejoin:miter;stroke-opacity:1;stroke-miterlimit:4;stroke-dasharray:none"
     d="M 146.04804,136.04497 C 146.04804,151.86839 145.98236,161.47894 149.19865,162.78108 C 155.03878,165.1455 158.36407,158.05225 161.80111,146.95767 C 165.23814,135.86309 146.04804,136.04497 146.04804,136.04497 z "
     id="path3244"
     sodipodi:nodetypes="cssc"
     inkscape:export-filename="/media/cornice/Maryo/croc-saw/PNGs/buzz_2_unshaded.png"
     inkscape:export-xdpi="46.900002"
     inkscape:export-ydpi="46.900002" />
  <path
     transform="matrix(-0.7910313,0,0,0.8389609,190.53252,10.930452)"
     d="M 111.30953 54.563492 A 15.641535 24.007936 0 1 1  80.026457,54.563492 A 15.641535 24.007936 0 1 1  111.30953 54.563492 z"
     sodipodi:ry="24.007936"
     sodipodi:rx="15.641535"
     sodipodi:cy="54.563492"
     sodipodi:cx="95.667992"
     id="path3232"
     style="fill:#ffffff;fill-opacity:1;stroke:#000000;stroke-width:3;stroke-miterlimit:4;stroke-dasharray:none;stroke-opacity:1"
     sodipodi:type="arc"
     inkscape:export-filename="/media/cornice/Maryo/croc-saw/PNGs/buzz_2_unshaded.png"
     inkscape:export-xdpi="46.900002"
     inkscape:export-ydpi="46.900002" />
  <path
     transform="matrix(-1.7687852,0,0,1.7687852,296.30302,-52.318234)"
     d="M 102.85218 63.793816 A 2.364418 3.8649139 0 1 1  98.123344,63.793816 A 2.364418 3.8649139 0 1 1  102.85218 63.793816 z"
     sodipodi:ry="3.8649139"
     sodipodi:rx="2.364418"
     sodipodi:cy="63.793816"
     sodipodi:cx="100.48776"
     id="path3234"
     style="fill:#000000;fill-opacity:1;stroke:#000000;stroke-width:3;stroke-miterlimit:4;stroke-dasharray:none;stroke-opacity:1"
     sodipodi:type="arc"
     inkscape:export-filename="/media/cornice/Maryo/croc-saw/PNGs/buzz_2_unshaded.png"
     inkscape:export-xdpi="46.900002"
     inkscape:export-ydpi="46.900002" />
  <path
     transform="matrix(-8.6337099,0,0,6.7151079,991.92132,-343.22452)"
     d="M 101.30622 59.837963 A 0.36375663 0.54563493 0 1 1  100.5787,59.837963 A 0.36375663 0.54563493 0 1 1  101.30622 59.837963 z"
     sodipodi:ry="0.54563493"
     sodipodi:rx="0.36375663"
     sodipodi:cy="59.837963"
     sodipodi:cx="100.94246"
     id="path3236"
     style="fill:#ffffff;fill-opacity:1;stroke:none;stroke-width:3;stroke-miterlimit:4;stroke-dasharray:none;stroke-opacity:1"
     sodipodi:type="arc"
     inkscape:export-filename="/media/cornice/Maryo/croc-saw/PNGs/buzz_2_unshaded.png"
     inkscape:export-xdpi="46.900002"
     inkscape:export-ydpi="46.900002" />
  <path
     sodipodi:nodetypes="cccs"
     id="path3238"
     d="M 115.02144,37.367791 C 100.3502,38.165877 107.94012,54.914298 110.38718,58.137234 C 115.75921,50.285811 118.87266,52.925447 124.65792,46.127768 C 124.07139,42.801803 121.14494,37.034685 115.02144,37.367791 z "
     style="fill:#008000;fill-rule:evenodd;stroke:#000000;stroke-width:0.90881163px;stroke-linecap:butt;stroke-linejoin:miter;stroke-opacity:1"
     inkscape:export-filename="/media/cornice/Maryo/croc-saw/PNGs/buzz_2_unshaded.png"
     inkscape:export-xdpi="46.900002"
     inkscape:export-ydpi="46.900002" />
  <path
     style="fill:#000000;fill-rule:evenodd;stroke:#000000;stroke-width:1px;stroke-linecap:butt;stroke-linejoin:miter;stroke-opacity:1"
     d="M 113.85582,122.94974 C 68.931878,108.21759 72.569445,110.21825 70.023148,114.58333 C 67.476852,118.94841 78.207672,135.49934 85.846561,135.8631 C 93.48545,136.22685 114.40146,123.13161 113.85582,122.94974 z "
     id="path3246"
     inkscape:export-filename="/media/cornice/Maryo/croc-saw/PNGs/buzz_2_unshaded.png"
     inkscape:export-xdpi="46.900002"
     inkscape:export-ydpi="46.900002" />
  <path
     sodipodi:nodetypes="cssc"
     id="path3252"
     d="M 85.664417,109.51601 C 85.664417,121.93776 85.613516,129.48226 88.106067,130.50447 C 92.632033,132.36059 95.209055,126.79223 97.872681,118.08273 C 100.5363,109.37323 85.664417,109.51601 85.664417,109.51601 z "
     style="fill:#ffffff;fill-opacity:1;fill-rule:evenodd;stroke:#000000;stroke-width:2;stroke-linecap:butt;stroke-linejoin:miter;stroke-miterlimit:4;stroke-dasharray:none;stroke-opacity:1"
     inkscape:export-filename="/media/cornice/Maryo/croc-saw/PNGs/buzz_2_unshaded.png"
     inkscape:export-xdpi="46.900002"
     inkscape:export-ydpi="46.900002" />
  <path
     style="fill:#ffffff;fill-opacity:1;fill-rule:evenodd;stroke:#000000;stroke-width:2;stroke-linecap:butt;stroke-linejoin:miter;stroke-miterlimit:4;stroke-dasharray:none;stroke-opacity:1"
     d="M 121.31124,119.1549 C 121.31124,131.57665 121.26034,139.12115 123.75289,140.14336 C 128.27886,141.99948 130.85588,136.43112 133.51951,127.72162 C 136.18313,119.01212 121.31124,119.1549 121.31124,119.1549 z "
     id="path3254"
     sodipodi:nodetypes="cssc"
     inkscape:export-filename="/media/cornice/Maryo/croc-saw/PNGs/buzz_2_unshaded.png"
     inkscape:export-xdpi="46.900002"
     inkscape:export-ydpi="46.900002" />
  <path
     sodipodi:nodetypes="cssc"
     id="path3256"
     d="M 183.6975,121.85714 C 183.6975,137.68056 183.64365,147.29111 186.28094,148.59325 C 191.06974,150.95767 193.79642,143.86442 196.61473,132.76984 C 199.43303,121.67526 183.6975,121.85714 183.6975,121.85714 z "
     style="fill:#ffffff;fill-opacity:1;fill-rule:evenodd;stroke:#000000;stroke-width:2;stroke-linecap:butt;stroke-linejoin:miter;stroke-miterlimit:4;stroke-dasharray:none;stroke-opacity:1"
     inkscape:export-filename="/media/cornice/Maryo/croc-saw/PNGs/buzz_2_unshaded.png"
     inkscape:export-xdpi="46.900002"
     inkscape:export-ydpi="46.900002" />
  <path
     style="fill:#808000;fill-rule:evenodd;stroke:#000000;stroke-width:1px;stroke-linecap:butt;stroke-linejoin:miter;stroke-opacity:1"
     d="M 40.740741,58.564815 C 46.378968,45.833334 82.208995,64.748677 82.208995,64.748677 L 79.844577,70.750661 L 40.740741,58.564815 z "
     id="path3266"
     sodipodi:nodetypes="cccc" />
  <path
     style="fill:#e0d698;fill-opacity:1;fill-rule:evenodd;stroke:#000000;stroke-width:3;stroke-linecap:butt;stroke-linejoin:miter;stroke-miterlimit:4;stroke-dasharray:none;stroke-opacity:1"
     d="M 79.298942,69.84127 C 73.478836,64.748678 46.605662,51.967452 41.104497,58.564815 C 34.077071,66.992572 49.470899,97.486772 53.108466,104.03439 C 56.746032,110.58201 80.753968,71.296296 79.298942,69.84127 z "
     id="path3264"
     sodipodi:nodetypes="cssc" />
  <path
     sodipodi:nodetypes="csssc"
     id="path3554"
     d="M 178.70461,58.219371 C 183.07594,58.48444 183.45615,60.941042 183.12514,62.514004 C 182.50028,65.483387 181.73935,67.222531 178.22314,66.563278 C 175.23968,66.003882 175.05947,65.122416 174.98147,62.527458 C 174.90349,59.932499 176.52707,57.925919 178.70461,58.219371 z "
     style="fill:#ebf6be;fill-opacity:1;fill-rule:evenodd;stroke:#000000;stroke-width:0.99999994px;stroke-linecap:butt;stroke-linejoin:miter;stroke-opacity:1"
     inkscape:export-filename="/media/cornice/Maryo/croc-saw/PNGs/buzz_2_unshaded.png"
     inkscape:export-xdpi="46.900002"
     inkscape:export-ydpi="46.900002" />
  <path
     style="fill:#ebf6be;fill-opacity:1;fill-rule:evenodd;stroke:#000000;stroke-width:0.99999988px;stroke-linecap:butt;stroke-linejoin:miter;stroke-opacity:1"
     d="M 187.7431,60.892485 C 192.69563,63.200024 191.70284,66.22631 190.39594,67.901275 C 187.92883,71.063161 186.02238,72.734386 182.29958,70.360351 C 179.14084,68.345993 179.44591,67.240081 180.87275,64.191398 C 182.29961,61.142711 185.37045,59.555602 187.7431,60.892485 z "
     id="path3552"
     sodipodi:nodetypes="csssc"
     inkscape:export-filename="/media/cornice/Maryo/croc-saw/PNGs/buzz_2_unshaded.png"
     inkscape:export-xdpi="46.900002"
     inkscape:export-ydpi="46.900002" />
  <path
     sodipodi:nodetypes="csssc"
     id="path3550"
     d="M 195.84472,65.289356 C 200.57873,68.252534 198.43234,71.50321 196.39926,73.238095 C 192.56129,76.513078 189.86052,78.192953 186.52146,75.260863 C 183.68831,72.772995 184.40826,71.580188 187.04666,68.341664 C 189.68506,65.103139 193.65617,63.614773 195.84472,65.289356 z "
     style="fill:#ebf6be;fill-opacity:1;fill-rule:evenodd;stroke:#000000;stroke-width:0.99999994px;stroke-linecap:butt;stroke-linejoin:miter;stroke-opacity:1"
     inkscape:export-filename="/media/cornice/Maryo/croc-saw/PNGs/buzz_2_unshaded.png"
     inkscape:export-xdpi="46.900002"
     inkscape:export-ydpi="46.900002" />
  <path
     style="fill:#ebf6be;fill-opacity:1;fill-rule:evenodd;stroke:#000000;stroke-width:0.99999994px;stroke-linecap:butt;stroke-linejoin:miter;stroke-opacity:1"
     d="M 203.06321,71.017989 C 208.45101,75.052931 205.74653,79.029255 203.26135,81.096986 C 198.56996,85.000291 195.30424,86.957562 191.552,83.04745 C 188.36828,79.729736 189.28125,78.266509 192.56256,74.335717 C 195.84388,70.404923 200.58977,68.767569 203.06321,71.017989 z "
     id="path3548"
     sodipodi:nodetypes="csssc"
     inkscape:export-filename="/media/cornice/Maryo/croc-saw/PNGs/buzz_2_unshaded.png"
     inkscape:export-xdpi="46.900002"
     inkscape:export-ydpi="46.900002" />
  <path
     sodipodi:nodetypes="csssc"
     id="path3546"
     d="M 210.80412,78.35829 C 216.42579,83.318603 213.06917,87.493442 210.12605,89.568365 C 204.57021,93.485243 200.77043,95.368019 196.95333,90.691925 C 193.71457,86.72428 194.85846,85.180683 198.85139,81.107756 C 202.84433,77.03483 208.25879,75.639077 210.80412,78.35829 z "
     style="fill:#ebf6be;fill-opacity:1;fill-rule:evenodd;stroke:#000000;stroke-width:0.99999982px;stroke-linecap:butt;stroke-linejoin:miter;stroke-opacity:1"
     inkscape:export-filename="/media/cornice/Maryo/croc-saw/PNGs/buzz_2_unshaded.png"
     inkscape:export-xdpi="46.900002"
     inkscape:export-ydpi="46.900002" />
  <path
     style="fill:#ebf6be;fill-opacity:1;fill-rule:evenodd;stroke:#000000;stroke-width:0.99999988px;stroke-linecap:butt;stroke-linejoin:miter;stroke-opacity:1"
     d="M 219.74656,87.277997 C 225.29089,94.292322 220.69306,98.828926 216.94766,100.86818 C 209.87735,104.71772 205.18538,106.37728 201.65676,100.01542 C 198.66278,94.617416 200.25146,92.923636 205.55975,88.619169 C 210.86804,84.314704 217.32164,83.523452 219.74656,87.277997 z "
     id="path3544"
     sodipodi:nodetypes="csssc"
     inkscape:export-filename="/media/cornice/Maryo/croc-saw/PNGs/buzz_2_unshaded.png"
     inkscape:export-xdpi="46.900002"
     inkscape:export-ydpi="46.900002" />
  <path
     sodipodi:nodetypes="csssc"
     id="path3542"
     d="M 225.65878,98.488983 C 230.80623,106.77371 225.26726,111.12842 220.95842,112.88006 C 212.82449,116.18668 207.53649,117.41059 204.49329,110.08044 C 201.91118,103.86085 203.84053,102.21929 210.1209,98.203381 C 216.40126,94.187473 223.49169,94.120992 225.65878,98.488983 z "
     style="fill:#ebf6be;fill-opacity:1;fill-rule:evenodd;stroke:#000000;stroke-width:0.99999988px;stroke-linecap:butt;stroke-linejoin:miter;stroke-opacity:1"
     inkscape:export-filename="/media/cornice/Maryo/croc-saw/PNGs/buzz_2_unshaded.png"
     inkscape:export-xdpi="46.900002"
     inkscape:export-ydpi="46.900002" />
  <path
     style="fill:#ebf6be;fill-opacity:1;fill-rule:evenodd;stroke:#000000;stroke-width:0.99999994px;stroke-linecap:butt;stroke-linejoin:miter;stroke-opacity:1"
     d="M 231.44044,113.16328 C 234.7678,123.94129 227.29986,127.19373 221.96971,127.89302 C 211.90783,129.21311 205.63766,129.03526 204.38305,119.94135 C 203.31854,112.22525 205.95634,110.95277 214.15386,108.29646 C 222.35138,105.64015 230.29745,107.64078 231.44044,113.16328 z "
     id="path3540"
     sodipodi:nodetypes="csssc"
     inkscape:export-filename="/media/cornice/Maryo/croc-saw/PNGs/buzz_2_unshaded.png"
     inkscape:export-xdpi="46.900002"
     inkscape:export-ydpi="46.900002" />
  <path
     sodipodi:nodetypes="csssc"
     id="path3538"
     d="M 232.41413,129.76955 C 233.68994,142.10304 224.94873,144.01205 219.05724,143.62554 C 207.93568,142.89593 201.21946,141.36249 201.81576,131.28841 C 202.32172,122.74066 205.43574,121.93302 214.83518,120.8229 C 224.23461,119.7128 232.36574,123.57028 232.41413,129.76955 z "
     style="fill:#ebf6be;fill-opacity:1;fill-rule:evenodd;stroke:#000000;stroke-width:0.99999988px;stroke-linecap:butt;stroke-linejoin:miter;stroke-opacity:1"
     inkscape:export-filename="/media/cornice/Maryo/croc-saw/PNGs/buzz_2_unshaded.png"
     inkscape:export-xdpi="46.900002"
     inkscape:export-ydpi="46.900002" />
  <path
     style="fill:#ebf6be;fill-opacity:1;fill-rule:evenodd;stroke:#000000;stroke-width:0.99999994px;stroke-linecap:butt;stroke-linejoin:miter;stroke-opacity:1"
     d="M 228.92541,149.37278 C 227.30651,162.6217 217.68229,162.53065 211.59679,160.7134 C 200.10896,157.28294 193.43355,154.06446 196.47398,143.6352 C 199.05377,134.7861 202.51294,134.68466 212.63589,135.77182 C 222.75883,136.85897 230.36085,142.85541 228.92541,149.37278 z "
     id="path3536"
     sodipodi:nodetypes="csssc"
     inkscape:export-filename="/media/cornice/Maryo/croc-saw/PNGs/buzz_2_unshaded.png"
     inkscape:export-xdpi="46.900002"
     inkscape:export-ydpi="46.900002" />
  <path
     sodipodi:nodetypes="csssc"
     id="path3534"
     d="M 219.51182,170.18931 C 213.63171,182.48854 204.34574,179.26779 199.04697,175.52773 C 189.04427,168.46753 183.63067,163.17895 189.96881,154.07211 C 195.34666,146.34507 198.72794,147.3728 208.17237,151.72022 C 217.61679,156.06761 223.02294,164.34712 219.51182,170.18931 z "
     style="fill:#ebf6be;fill-opacity:1;fill-rule:evenodd;stroke:#000000;stroke-width:0.99999994px;stroke-linecap:butt;stroke-linejoin:miter;stroke-opacity:1"
     inkscape:export-filename="/media/cornice/Maryo/croc-saw/PNGs/buzz_2_unshaded.png"
     inkscape:export-xdpi="46.900002"
     inkscape:export-ydpi="46.900002" />
  <path
     style="fill:#ebf6be;fill-opacity:1;fill-rule:evenodd;stroke:#000000;stroke-width:0.99999994px;stroke-linecap:butt;stroke-linejoin:miter;stroke-opacity:1"
     d="M 205.31889,186.42066 C 195.88884,196.2655 188.07497,190.30345 184.21083,185.09448 C 176.91632,175.26135 173.42715,168.54555 182.29438,161.8763 C 189.81812,156.21753 192.7087,158.25071 200.3209,165.33249 C 207.9331,172.41425 210.48027,181.96876 205.31889,186.42066 z "
     id="path3532"
     sodipodi:nodetypes="csssc"
     inkscape:export-filename="/media/cornice/Maryo/croc-saw/PNGs/buzz_2_unshaded.png"
     inkscape:export-xdpi="46.900002"
     inkscape:export-ydpi="46.900002" />
  <path
     sodipodi:nodetypes="csssc"
     id="path3530"
     d="M 185.72561,199.26307 C 172.8446,205.72129 167.17771,197.01413 165.17684,190.45742 C 161.3997,178.08009 160.30652,170.15604 171.50108,166.66008 C 180.99955,163.69382 183.15701,166.74324 188.22606,176.49378 C 193.29513,186.24429 192.44375,196.66073 185.72561,199.26307 z "
     style="fill:#ebf6be;fill-opacity:1;fill-rule:evenodd;stroke:#000000;stroke-width:1px;stroke-linecap:butt;stroke-linejoin:miter;stroke-opacity:1"
     inkscape:export-filename="/media/cornice/Maryo/croc-saw/PNGs/buzz_2_unshaded.png"
     inkscape:export-xdpi="46.900002"
     inkscape:export-ydpi="46.900002" />
  <path
     style="fill:#308d00;fill-rule:evenodd;stroke:#000000;stroke-width:2;stroke-linecap:butt;stroke-linejoin:miter;stroke-miterlimit:4;stroke-dasharray:none;stroke-opacity:1;fill-opacity:1"
     d="M 225.44845,134.53069 C 222.02558,135.5834 219.52237,135.94556 216.80506,136.05882 C 210.25367,136.32752 205.44401,134.21266 203.91866,134.73503 C 201.10703,135.69789 195.54797,136.05303 194.13428,135.70226 C 191.17214,134.96728 186.21237,129.56316 187.31553,127.81519 C 187.57934,127.39721 191.98184,130.54699 193.98016,130.16433 C 195.9785,129.78169 199.25752,128.81749 199.25752,128.81749 L 200.49246,127.74011 L 199.16717,128.88658 L 196.8891,129.51998 C 196.8891,129.51998 193.61878,128.00656 192.38046,126.94892 C 191.14213,125.89129 187.2199,121.23027 188.92594,119.99726 C 189.38661,119.66381 192.82159,123.03199 194.20873,122.97353 C 195.59588,122.91507 198.09252,122.32931 198.09252,122.32931 L 199.37337,120.63391 L 198.05752,122.27218 L 196.9193,122.01299 C 196.9193,122.01299 194.34067,120.96791 193.52141,120.22756 C 191.42273,118.33102 191.52874,112.51676 192.73226,112.37696 C 193.35749,112.30433 195.24638,116.32669 196.2122,116.39811 C 197.17802,116.46952 198.41066,116.69125 200.50957,115.79497 C 202.60844,114.89867 204.07816,113.16887 208.95887,114.07499 C 212.57366,114.74608 212.18755,116.09717 215.20421,117.53955 C 217.43501,118.60616 221.71758,119.4953 224.73536,119.7488 C 231.29083,120.29944 230.57351,118.1699 234.39934,118.84737 C 238.03249,119.49072 241.79323,121.60778 241.19688,126.0361 C 240.84876,128.62108 236.53229,134.88726 235.54255,137.27822 C 233.71336,141.69703 232.22215,147.21454 230.65898,151.67042 C 226.84864,162.53186 218.5495,172.72842 218.5495,172.72842 C 218.5495,172.72842 227.10212,162.34476 230.51646,151.7057 C 239.54601,149.06667 249.4342,146.9938 252.84136,159.51912 C 259.25877,183.11064 216.32283,208.43946 199.18289,207.37113 C 190.79097,207.63151 191.43492,207.60164 189.04862,205.41728 C 188.18254,204.6245 185.43206,204.58527 185.5505,195.22375 C 182.88406,179.97351 187.8559,167.18684 194.55155,158.63443 C 205.47008,144.68806 211.05409,141.14113 216.16887,136.03948"
     id="path2301"
     sodipodi:nodetypes="csssssccccsssccccsssssssssssccscscsc"
     inkscape:transform-center-y="-2.7993078"
     inkscape:transform-center-x="22.000855"
     inkscape:export-filename="/media/cornice/Maryo/croc-saw/PNGs/buzz_2_unshaded.png"
     inkscape:export-xdpi="46.900002"
     inkscape:export-ydpi="46.900002" />
  <path
     style="fill:none;fill-rule:evenodd;stroke:#000000;stroke-width:2;stroke-linecap:butt;stroke-linejoin:miter;stroke-miterlimit:4;stroke-dasharray:none;stroke-opacity:1"
     d="M 208.41973,123.3256 C 205.41452,119.43651 198.52023,120.14362 198.52023,120.14362"
     id="path3280"
     inkscape:export-filename="/media/cornice/Maryo/croc-saw/PNGs/buzz_2_unshaded.png"
     inkscape:export-xdpi="46.900002"
     inkscape:export-ydpi="46.900002" />
  <path
     sodipodi:nodetypes="csssc"
     id="path3624"
     d="M 87.05492,160.38875 C 79.733493,145.68392 89.673649,139.24903 97.152014,136.98735 C 111.26921,132.71787 120.30315,131.49512 124.2537,144.26842 C 127.60569,155.10646 124.12391,157.55709 112.99648,163.3073 C 101.86906,169.05751 90.000529,168.05586 87.05492,160.38875 z "
     style="fill:#ebf6be;fill-opacity:1;fill-rule:evenodd;stroke:#000000;stroke-width:1px;stroke-linecap:butt;stroke-linejoin:miter;stroke-opacity:1"
     inkscape:export-filename="/media/cornice/Maryo/croc-saw/PNGs/buzz_2_unshaded.png"
     inkscape:export-xdpi="46.900002"
     inkscape:export-ydpi="46.900002" />
  <path
     style="fill:#008000;fill-rule:evenodd;stroke:#000000;stroke-width:3;stroke-linecap:butt;stroke-linejoin:miter;stroke-opacity:1;stroke-miterlimit:4;stroke-dasharray:none;opacity:1"
     d="M 52.744709,90.575397 C 79.298942,56.746032 94.940476,62.929894 106.58069,63.657407 C 118.2209,64.384921 135.31746,73.115079 149.86773,79.662698 C 164.41799,86.210317 193.88228,101.85185 196.42857,108.39947 C 198.97487,114.94709 203.33995,126.5873 201.15741,128.76984 C 198.97487,130.95238 195.70106,131.31614 188.78968,137.86376 C 181.87831,144.41138 172.42064,161.14418 167.32804,158.59788 C 162.23545,156.05159 160.78042,150.95899 158.59788,148.77645 C 156.41534,146.59392 143.32011,138.95503 122.22222,130.22487 C 101.12434,121.49471 81.867064,109.71892 78.957011,112.99273 C 76.046958,116.26654 81.56118,133.144 91.256995,133.0941 C 98.145499,133.05956 110.13663,124.75831 110.13663,124.75831 L 119.50935,128.95682 C 119.50935,128.95682 105.49606,143.5479 89.484127,143.32011 C 85.417622,143.26161 78.935186,137.59094 73.842593,133.13492 C 63.293651,131.40707 36.933226,126.525 35.212969,119.00275 C 31.646825,103.40891 52.380952,92.030423 52.380952,92.030423 L 52.744709,90.575397 z "
     id="path2220"
     sodipodi:nodetypes="cssssssssssccscscc"
     inkscape:export-filename="/media/cornice/Maryo/croc-saw/PNGs/buzz_2_unshaded.png"
     inkscape:export-xdpi="46.900002"
     inkscape:export-ydpi="46.900002" />
  <g
     id="g3224"
     inkscape:export-filename="/media/cornice/Maryo/croc-saw/PNGs/buzz_2_unshaded.png"
     inkscape:export-xdpi="46.900002"
     inkscape:export-ydpi="46.900002">
    <path
       transform="matrix(0.8704018,0,0,0.9231406,12.3984,8.3769203)"
       d="M 111.30953 54.563492 A 15.641535 24.007936 0 1 1  80.026457,54.563492 A 15.641535 24.007936 0 1 1  111.30953 54.563492 z"
       sodipodi:ry="24.007936"
       sodipodi:rx="15.641535"
       sodipodi:cy="54.563492"
       sodipodi:cx="95.667992"
       id="path3216"
       style="opacity:1;fill:#ffffff;fill-opacity:1;stroke:#000000;stroke-width:3;stroke-miterlimit:4;stroke-dasharray:none;stroke-opacity:1"
       sodipodi:type="arc" />
    <path
       transform="matrix(1.9462617,0,0,1.9462617,-96.38005,-62.018527)"
       d="M 102.85218 63.793816 A 2.364418 3.8649139 0 1 1  98.123344,63.793816 A 2.364418 3.8649139 0 1 1  102.85218 63.793816 z"
       sodipodi:ry="3.8649139"
       sodipodi:rx="2.364418"
       sodipodi:cy="63.793816"
       sodipodi:cx="100.48776"
       id="path3220"
       style="opacity:1;fill:#000000;fill-opacity:1;stroke:#000000;stroke-width:3;stroke-miterlimit:4;stroke-dasharray:none;stroke-opacity:1"
       sodipodi:type="arc" />
    <path
       transform="matrix(9.4999997,0,0,7.3888888,-857.19242,-382.31391)"
       d="M 101.30622 59.837963 A 0.36375663 0.54563493 0 1 1  100.5787,59.837963 A 0.36375663 0.54563493 0 1 1  101.30622 59.837963 z"
       sodipodi:ry="0.54563493"
       sodipodi:rx="0.36375663"
       sodipodi:cy="59.837963"
       sodipodi:cx="100.94246"
       id="path3222"
       style="opacity:1;fill:#ffffff;fill-opacity:1;stroke:none;stroke-width:3;stroke-miterlimit:4;stroke-dasharray:none;stroke-opacity:1"
       sodipodi:type="arc" />
    <path
       sodipodi:nodetypes="cccs"
       id="path3218"
       d="M 95.486111,37.466931 C 107.42677,37.744712 108.58135,54.472552 108.49041,59.01951 C 102.57936,50.38029 90.848214,56.586888 84.482474,49.107143 C 86.02844,43.446181 88.740027,37.311179 95.486111,37.466931 z "
       style="fill:#008000;fill-rule:evenodd;stroke:#000000;stroke-width:1px;stroke-linecap:butt;stroke-linejoin:miter;stroke-opacity:1" />
  </g>
  <path
     style="fill:none;fill-rule:evenodd;stroke:#000000;stroke-width:3;stroke-linecap:butt;stroke-linejoin:miter;stroke-opacity:1;stroke-miterlimit:4;stroke-dasharray:none"
     d="M 86.937831,109.12698 C 76.817187,111.06821 75.413176,115.93301 73.95815,123.93565"
     id="path3248"
     sodipodi:nodetypes="cc"
     inkscape:export-filename="/media/cornice/Maryo/croc-saw/PNGs/buzz_2_unshaded.png"
     inkscape:export-xdpi="46.900002"
     inkscape:export-ydpi="46.900002" />
  <path
     style="fill:none;fill-rule:evenodd;stroke:#000000;stroke-width:2;stroke-linecap:butt;stroke-linejoin:miter;stroke-opacity:1;stroke-miterlimit:4;stroke-dasharray:none"
     d="M 45.287698,97.668651 C 52.017196,92.39418 62.384259,87.847222 71.114418,88.210979"
     id="path3250"
     inkscape:export-filename="/media/cornice/Maryo/croc-saw/PNGs/buzz_2_unshaded.png"
     inkscape:export-xdpi="46.900002"
     inkscape:export-ydpi="46.900002" />
  <image
     y="43.238865"
     x="-220.35884"
     id="image3363"
     height="146"
     width="150"
     sodipodi:absref="/media/cornice/Maryo/croc-saw/sketches/buzz_foot_b_214.gif"
     xlink:href="/media/cornice/Maryo/croc-saw/sketches/buzz_foot_b_214.gif" />
  <path
     style="fill:#ebf6be;fill-opacity:1;fill-rule:evenodd;stroke:#000000;stroke-width:1px;stroke-linecap:butt;stroke-linejoin:miter;stroke-opacity:1"
     d="M 104.17666,184.56545 C 91.668518,175.04695 97.475451,165.31746 102.93617,160.211 C 113.24459,150.57135 120.48013,145.69787 129.27767,154.98595 C 136.74228,162.8668 134.79151,166.44354 127.6758,176.08813 C 120.5601,185.73272 109.95022,189.89744 104.17666,184.56545 z "
     id="path3622"
     sodipodi:nodetypes="csssc"
     inkscape:export-filename="/media/cornice/Maryo/croc-saw/PNGs/buzz_2_unshaded.png"
     inkscape:export-xdpi="46.900002"
     inkscape:export-ydpi="46.900002" />
  <path
     sodipodi:nodetypes="csssc"
     id="path3620"
     d="M 129.84561,200.45251 C 115.48444,196.61106 117.0751,186.01332 120.02156,179.58537 C 125.58371,167.45107 130.16691,160.59016 141.19826,165.56138 C 150.55823,169.77942 150.13446,173.60933 147.36802,184.60237 C 144.6016,195.59541 136.8112,203.04685 129.84561,200.45251 z "
     style="fill:#ebf6be;fill-opacity:1;fill-rule:evenodd;stroke:#000000;stroke-width:1px;stroke-linecap:butt;stroke-linejoin:miter;stroke-opacity:1"
     inkscape:export-filename="/media/cornice/Maryo/croc-saw/PNGs/buzz_2_unshaded.png"
     inkscape:export-xdpi="46.900002"
     inkscape:export-ydpi="46.900002" />
  <g
     id="g3518"
     transform="matrix(1.207623,-0.164733,0.164733,1.207623,-43.024624,-18.749774)"
     style="fill:#308d00;fill-opacity:1"
     inkscape:export-filename="/media/cornice/Maryo/croc-saw/PNGs/buzz_2_unshaded.png"
     inkscape:export-xdpi="46.900002"
     inkscape:export-ydpi="46.900002">
    <path
       sodipodi:nodetypes="csssscsssssccsssscccssssssssssssc"
       id="path3508"
       d="M 82.152119,163.48025 C 80.349652,153.89714 69.650207,152.48924 64.277389,154.44468 C 59.459244,156.19824 53.168149,167.70103 60.306973,186.86314 C 67.445798,206.02525 69.817662,207.72832 72.07203,208.10405 C 74.326396,208.47978 83.143699,204.93428 87.675657,195.60052 C 91.19926,188.34351 91.609867,181.05166 93.864233,177.29438 C 95.634422,179.67001 97.451415,180.22079 97.954222,181.18047 C 98.928987,183.04097 99.548299,185.96271 99.14978,187.2911 C 98.751261,188.6195 97.024343,190.34642 97.555703,191.67482 C 98.087062,193.00322 102.07225,193.2689 104.33053,190.34642 C 106.58881,187.42395 106.5556,185.69703 107.18659,184.86678 C 107.81758,184.03653 109.04634,182.97381 109.04634,182.97381 L 107.38585,184.86678 C 107.38585,184.86678 109.21239,185.96271 109.81017,187.49036 C 110.40795,189.01802 110.34153,191.44235 111.10536,191.64161 C 111.86919,191.84087 114.09425,191.01062 115.02413,188.81876 C 115.95401,186.62691 115.28981,181.37973 115.82117,180.54949 C 116.35253,179.71924 117.08315,178.95541 117.08315,178.95541 L 115.9208,180.61591 L 115.85438,181.44615 C 115.85438,181.44615 117.74735,181.77825 118.47797,182.9406 C 119.20859,184.10295 119.50748,188.35382 120.23809,188.81876 C 120.96871,189.2837 123.62551,185.9295 124.05724,184.20258 C 124.48897,182.47567 124.22329,176.9296 123.16057,175.43515 C 122.09785,173.94071 119.10896,171.44996 118.01303,169.25811 C 116.9171,167.06625 113.29722,159.06265 112.59981,157.00364 C 111.9024,154.94462 111.10536,152.02214 109.51128,151.25832 C 107.91721,150.49449 104.17303,149.65252 100.65058,149.74645 C 97.128136,149.84038 93.675857,150.68826 91.938116,152.61386 C 90.200376,154.53947 88.510114,156.3006 87.946523,157.05206 C 87.382931,157.80351 84.304307,161.0148 82.216676,163.48639 C 79.226772,167.02621 74.864012,170.2213 73.599534,174.60605 C 72.895045,177.04897 72.7895,179.3035 72.7895,179.3035"
       style="fill:#308d00;fill-opacity:1;fill-rule:nonzero;stroke:#000000;stroke-width:1.64094901;stroke-linecap:butt;stroke-linejoin:miter;stroke-miterlimit:4;stroke-dasharray:none;stroke-opacity:1" />
    <path
       id="path3510"
       d="M 93.873797,177.32171 C 89.871273,172.15716 92.195319,167.89641 92.195319,167.89641 C 92.195319,167.89641 90.904182,167.28312 90.420006,165.41097"
       style="fill:#308d00;fill-opacity:1;fill-rule:evenodd;stroke:#000000;stroke-width:1.64094901;stroke-linecap:butt;stroke-linejoin:miter;stroke-miterlimit:4;stroke-dasharray:none;stroke-opacity:1"
       sodipodi:nodetypes="ccc" />
  </g>
  <g
     id="g3626"
     inkscape:export-filename="/media/cornice/Maryo/croc-saw/PNGs/buzz_2_unshaded.png"
     inkscape:export-xdpi="46.900002"
     inkscape:export-ydpi="46.900002">
    <path
       sodipodi:nodetypes="cssssc"
       id="path3208"
       d="M 199.54602,118.87023 C 199.54602,114.14139 210.0199,113.19458 206.25,100.21495 C 204.37587,93.7624 196.36044,91.62301 191.69973,93.121693 C 182.65555,96.029912 180.78704,102.94312 182.24206,107.3082 C 183.69709,111.67328 189.88095,114.94709 187.33466,115.6746 C 184.78836,116.40212 183.33333,117.49339 183.33333,117.49339"
       style="fill:#008000;fill-rule:evenodd;stroke:#000000;stroke-width:2;stroke-linecap:butt;stroke-linejoin:miter;stroke-opacity:1;stroke-miterlimit:4;stroke-dasharray:none" />
    <path
       sodipodi:nodetypes="csssc"
       id="path3210"
       d="M 192.74046,98.771024 C 198.62178,97.025325 200.94743,100.65546 201.52116,102.76125 C 202.13988,105.03217 202.10139,110.12602 196.06482,112.21892 C 191.02234,113.96716 189.60724,112.03704 187.83947,108.84652 C 186.16468,105.82379 186.26593,102.01423 192.74046,98.771024 z "
       style="fill:#0c230c;fill-opacity:1;fill-rule:evenodd;stroke:#000000;stroke-width:1px;stroke-linecap:butt;stroke-linejoin:miter;stroke-opacity:1" />
  </g>
  <g
     id="g3630"
     inkscape:export-filename="/media/cornice/Maryo/croc-saw/PNGs/buzz_2_unshaded.png"
     inkscape:export-xdpi="46.900002"
     inkscape:export-ydpi="46.900002">
    <path
       sodipodi:nodetypes="cssssc"
       id="path3194"
       d="M 158.7781,128.63732 C 160.50173,127.94207 160.45496,125.93892 159.70956,123.81321 C 157.59503,117.78303 160.4973,108.79547 169.07208,103.8168 C 180.07635,97.427516 187.80021,104.28136 189.17895,108.81935 C 191.66403,116.99876 188.92766,119.38812 189.5172,120.7672 C 190.08834,122.10322 190.91444,122.62336 190.91444,122.62336"
       style="fill:#008000;fill-opacity:1;fill-rule:evenodd;stroke:#000000;stroke-width:2;stroke-linecap:butt;stroke-linejoin:miter;stroke-opacity:1;stroke-miterlimit:4;stroke-dasharray:none" />
    <path
       sodipodi:nodetypes="csssc"
       id="path3196"
       d="M 173.7601,108.2125 C 166.12121,111.66819 165.23223,117.44747 165.59599,119.81189 C 165.95975,122.17631 168.41931,127.49669 176.24008,124.40476 C 184.06085,121.31283 185.33399,115.6746 184.97024,112.58267 C 184.60648,109.49074 179.21645,106.02996 173.7601,108.2125 z "
       style="fill:#0c230c;fill-opacity:1;fill-rule:evenodd;stroke:#000000;stroke-width:1px;stroke-linecap:butt;stroke-linejoin:miter;stroke-opacity:1" />
  </g>
  <path
     style="fill:#ebf6be;fill-opacity:1;fill-rule:evenodd;stroke:#000000;stroke-width:1px;stroke-linecap:butt;stroke-linejoin:miter;stroke-opacity:1"
     d="M 158.65969,205.9609 C 143.99659,208.40911 141.05744,198.10359 141.07862,191.03254 C 141.11861,177.68424 142.45047,169.54152 154.55014,169.50017 C 164.81657,169.46509 166.01627,173.12686 168.04876,184.27895 C 170.08126,195.43103 166.07437,205.43899 158.65969,205.9609 z "
     id="path3528"
     sodipodi:nodetypes="csssc"
     inkscape:export-filename="/media/cornice/Maryo/croc-saw/PNGs/buzz_2_unshaded.png"
     inkscape:export-xdpi="46.900002"
     inkscape:export-ydpi="46.900002" />
  <path
     style="fill:none;fill-rule:evenodd;stroke:#000000;stroke-width:1px;stroke-linecap:butt;stroke-linejoin:miter;stroke-opacity:1"
     d="M -260.9224,1.3496751 C -264.79178,2.1157016 -268.65818,8.19097 -272.23611,12.663384 C -277.40239,19.121236 -283.03923,28.102167 -285.67114,35.997907 C -288.04324,43.114195 -291.32799,48.121477 -291.32799,55.796897 C -291.32799,60.41888 -289.61579,63.873064 -286.37825,67.110606 C -282.76081,70.728039 -285.14487,66.419721 -284.25693,62.867965 C -282.89714,57.428823 -280.79501,54.084341 -276.47875,50.84715 C -272.34949,47.750205 -275.77165,50.448058 -275.77165,54.382684 C -275.77165,58.882582 -272.72566,62.215235 -270.11479,65.696392 C -267.835,68.736113 -262.03634,69.837325 -258.80108,70.64614 C -255.69091,71.423684 -262.40705,64.563929 -261.62951,61.453752 C -261.14444,59.513467 -259.17572,58.105538 -257.38687,57.211111 C -253.79676,55.416056 -251.78459,63.194231 -248.19448,64.989286 C -244.29878,66.937137 -240.95073,67.990396 -244.65895,64.282179 C -246.23883,62.7023 -246.07316,55.804896 -246.07316,53.675577 C -246.07316,50.271862 -245.31784,45.656328 -244.65895,42.361868 C -243.84063,38.270262 -243.50845,34.22433 -242.53763,30.341053 C -241.50741,26.220201 -240.15881,23.462103 -238.29499,19.734451 C -236.35993,15.864339 -234.41327,11.730407 -231.93102,8.4207429 C -229.13652,4.694739 -226.01206,1.2186217 -222.03153,-0.77164527 C -218.03499,-2.7699173 -214.68848,-6.5554394 -212.13203,-9.9640334 C -209.41364,-13.58856 -209.01367,-17.28957 -210.01071,-21.277742 C -210.94482,-25.014145 -212.75797,-28.186466 -214.25336,-31.177237 C -215.61006,-33.890638 -223.4457,-30.823703 -224.15285,-30.47013 C -227.36548,-28.863813 -233.13377,-29.763023 -236.88077,-29.763023 C -243.1306,-29.763023 -246.67774,-30.065316 -251.73001,-32.59145 C -256.80597,-35.129427 -262.5239,-36.447283 -267.99347,-37.541198 C -274.35377,-38.813259 -277.74283,-41.076732 -284.96403,-41.076732 C -291.7161,-41.076732 -298.87313,-34.829292 -304.76302,-31.884344 C -309.51346,-29.509125 -312.89393,-27.023603 -316.78384,-24.106169"
     id="path2237" />
  <path
     style="fill:none;fill-rule:evenodd;stroke:#000000;stroke-width:1px;stroke-linecap:butt;stroke-linejoin:miter;stroke-opacity:1"
     d="M -257.38687,48.018723 C -259.82389,49.237233 -254.33796,58.919296 -252.43712,61.453752 C -252.37007,62.921283 -251.02291,63.33937 -250.3158,64.282179"
     id="path2239" />
  <path
     style="fill:none;fill-rule:evenodd;stroke:#000000;stroke-width:1px;stroke-linecap:butt;stroke-linejoin:miter;stroke-opacity:1"
     d="M -272.94322,43.068975 C -270.4734,46.362066 -275.77165,50.973428 -275.77165,55.089791 C -275.77165,58.425304 -275.68439,61.1829 -275.06454,64.282179"
     id="path2241" />
  <path
     style="fill:none;fill-rule:evenodd;stroke:#000000;stroke-width:1px;stroke-linecap:butt;stroke-linejoin:miter;stroke-opacity:1"
     d="M -255.26555,53.675577 C -255.26555,57.682515 -259.95058,60.394877 -260.9224,64.282179 C -261.97034,68.473935 -259.39129,69.465715 -258.09398,72.060353 C -256.06064,76.127024 -255.31517,77.338842 -258.80108,75.595887 C -262.2329,73.879978 -264.70511,71.106073 -267.28636,68.524819 C -269.82511,65.986077 -271.22391,64.088347 -272.23611,60.039538 C -273.18752,56.233899 -273.68542,52.757873 -274.35743,48.72583 C -275.05199,44.558507 -273.98371,40.907326 -272.94322,38.826335"
     id="path2243" />
  <path
     style="fill:none;fill-rule:evenodd;stroke:#000000;stroke-width:1px;stroke-linecap:butt;stroke-linejoin:miter;stroke-opacity:1"
     d="M -152.73507,-17.035101 C -152.98563,-18.538482 -155.25535,-6.3376723 -159.80613,2.7638886 C -162.8774,8.90643 -163.34167,19.971031 -163.34167,26.805519 C -163.34167,31.320927 -163.65292,36.167122 -162.63456,40.240548 C -161.77661,43.672362 -157.61961,48.083923 -155.56349,50.140043 C -153.34268,52.360852 -149.03424,52.261363 -156.2706,52.261363 C -161.99629,52.261363 -167.3847,48.218331 -171.11984,44.483189 C -175.36802,40.235012 -180.31223,38.574215 -180.31223,31.755267 C -180.31223,28.595068 -178.55953,31.171035 -178.19091,31.04816"
     id="path2245" />
  <path
     style="fill:none;fill-rule:evenodd;stroke:#000000;stroke-width:1px;stroke-linecap:butt;stroke-linejoin:miter;stroke-opacity:1"
     d="M -173.94827,41.654762 C -173.94827,35.762205 -176.13671,53.86133 -173.94827,59.332431 C -172.31394,63.418245 -168.90007,67.916163 -173.24116,63.575072 C -177.65466,59.161571 -182.26989,56.124227 -185.26198,50.140043 C -188.55387,43.556252 -189.50462,35.509134 -189.50462,28.219733 C -189.50462,27.886399 -189.03321,27.748328 -188.79751,27.512626"
     id="path2247" />
  <path
     style="fill:none;fill-rule:evenodd;stroke:#000000;stroke-width:1px;stroke-linecap:butt;stroke-linejoin:miter;stroke-opacity:1"
     d="M -187.3833,45.897402 C -187.3833,40.124282 -197.26368,56.102674 -197.9899,57.918218 C -198.9686,60.364969 -197.7542,63.33937 -196.57569,65.696392 C -194.44131,69.965142 -202.21949,57.944327 -204.35386,53.675577 C -206.52663,49.330045 -206.47518,46.0335 -206.47518,40.947655 C -206.47518,35.421222 -204.229,29.841629 -202.93965,24.684199 C -201.72698,19.833536 -199.85312,14.493014 -197.9899,9.8349565 C -196.16708,5.2779178 -194.90626,-0.37828533 -193.74726,-5.014286 C -192.7111,-9.1589022 -191.62594,-12.43714 -191.62594,-17.035101 C -191.62594,-19.898477 -195.15501,-25.494554 -193.74726,-19.863528"
     id="path2249" />
  <path
     style="fill:none;fill-rule:evenodd;stroke:#000000;stroke-width:1px;stroke-linecap:butt;stroke-linejoin:miter;stroke-opacity:1"
     d="M -153.44217,-12.792461 C -153.44217,-17.446893 -151.78966,-26.116139 -149.19953,-32.59145 C -146.02661,-40.523756 -141.99082,-43.629873 -146.3711,-52.39044 C -150.70965,-61.067529 -166.71561,-58.754401 -174.65538,-58.754401 C -184.98968,-58.754401 -193.34824,-57.032102 -200.81833,-49.562013 C -207.14942,-43.230923 -213.68273,-40.096661 -217.78889,-31.884344 C -220.20717,-27.047784 -223.44568,-24.813306 -227.68838,-22.691956 C -237.75891,-17.656695 -247.32547,-12.166304 -257.38687,-7.1356063 C -259.08654,-6.2857697 -260.6867,-5.2499882 -262.33662,-4.3071792 C -265.51275,-2.4922476 -282.11102,0.47193856 -275.77165,2.0567819"
     id="path2251" />
  <path
     style="fill:none;fill-rule:evenodd;stroke:#000000;stroke-width:1px;stroke-linecap:butt;stroke-linejoin:miter;stroke-opacity:1"
     d="M -196.57569,6.2994226 C -199.62304,8.0407699 -204.68134,16.885168 -210.01071,21.148665 C -226.06782,33.99435 -245.49863,41.013941 -263.75083,50.140043 C -277.66531,57.097282 -296.83532,64.453506 -311.83409,61.453752 C -315.62082,60.696405 -319.77294,55.853171 -321.73359,54.382684 C -325.13531,51.831389 -325.97623,50.774697 -325.97623,44.483189 C -325.97623,26.274796 -320.78607,10.488331 -309.71277,-5.014286 C -297.40234,-22.248882 -277.8907,-39.310098 -258.80108,-48.854906 C -254.99641,-50.757245 -248.03188,-57.283474 -249.60869,-50.976227"
     id="path2253" />
  <path
     style="fill:none;fill-rule:evenodd;stroke:#000000;stroke-width:1px;stroke-linecap:butt;stroke-linejoin:miter;stroke-opacity:1"
     d="M 103.9447,331.56854 C 102.5328,337.21615 92.888074,335.32909 87.681241,337.9325 C 64.986692,349.27978 42.927543,366.54803 22.627417,381.77312 C 20.881367,383.08266 16.971398,385.66159 15.556349,386.72287"
     id="path2261" />
  <path
     style="fill:none;fill-rule:evenodd;stroke:#000000;stroke-width:1px;stroke-linecap:butt;stroke-linejoin:miter;stroke-opacity:1"
     d="M 20.506097,386.72287 C 15.950255,390.13975 53.826141,407.49335 57.275649,408.64318 C 67.08633,411.91341 76.772996,412.88582 86.974134,412.88582 C 89.881022,413.85478 85.836146,406.53841 86.974134,403.69343 C 94.601943,384.62391 113.63001,365.72385 127.98633,351.36753 C 130.6706,348.68326 150.37914,332.39295 140.71425,337.2254 C 138.28335,338.44085 137.18037,334.39862 135.0574,332.27565 C 127.59182,324.81008 105.5891,328.97444 96.166522,326.6188 C 94.280904,326.14739 92.395286,327.5616 90.509668,328.03301"
     id="path2263" />
  <path
     style="fill:none;fill-rule:evenodd;stroke:#000000;stroke-width:1px;stroke-linecap:butt;stroke-linejoin:miter;stroke-opacity:1"
     d="M 67.175144,395.20815 C 59.491216,393.28717 61.853398,419.176 62.932504,423.49242 C 64.961246,431.60739 72.007458,441.31751 77.074639,442.58431 C 81.190605,443.6133 76.377153,434.0413 77.074639,429.85639 C 78.660295,420.34245 89.300749,408.76864 92.630989,407.93608 C 93.142299,407.80825 92.159584,408.87888 91.923882,409.35029"
     id="path2265" />
  <path
     style="fill:none;fill-rule:evenodd;stroke:#000000;stroke-width:1px;stroke-linecap:butt;stroke-linejoin:miter;stroke-opacity:1"
     d="M 38.890873,392.37973 C 44.003973,391.10145 33.267713,401.45419 31.819805,406.52186 C 28.068744,419.65057 30.322125,432.60135 39.59798,441.8772 C 41.738691,444.01791 42.005882,431.95901 42.426407,429.85639 C 44.401765,419.97959 54.85185,407.25351 59.39697,401.57211 C 59.691454,401.20401 59.39697,402.51492 59.39697,402.98633"
     id="path2267" />
  <path
     style="fill:none;fill-rule:evenodd;stroke:#000000;stroke-width:1px;stroke-linecap:butt;stroke-linejoin:miter;stroke-opacity:1"
     d="M 20.506097,381.77312 C 21.229039,380.86945 11.62203,393.1773 4.9497475,406.52186 C -0.20927778,416.83991 1.2335474,426.35387 10.606602,431.97771 C 14.8893,434.54732 13.322767,422.30273 15.556349,417.83557 C 18.962471,411.02333 27.409286,399.36685 34.648232,402.98633"
     id="path2269" />
  <path
     style="fill:none;fill-rule:evenodd;stroke:#000000;stroke-width:1px;stroke-linecap:butt;stroke-linejoin:miter;stroke-opacity:1"
     d="M 36.769553,381.06602 C 37.615484,379.37415 36.648217,391.45086 34.648232,399.45079 C 33.010431,406.002 27.0635,402.58441 33.941126,400.86501 C 39.996584,399.35114 37.978045,384.6915 36.769553,381.06602 C 34.722875,374.92598 35.63772,394.14865 33.234019,400.1579 C 31.455975,404.60301 31.022431,407.31924 27.577165,410.7645"
     id="path2271" />
  <path
     style="fill:none;fill-rule:evenodd;stroke:#000000;stroke-width:1px;stroke-linecap:butt;stroke-linejoin:miter;stroke-opacity:1"
     d="M 60.104077,400.86501 C 58.420257,405.07456 62.225397,391.9638 62.225397,387.42998 C 62.225397,380.7412 62.225397,383.69022 62.225397,388.84419 C 62.225397,394.19161 60.572679,403.67662 59.39697,396.62237 C 59.155117,395.17125 62.932504,389.03772 62.932504,386.01576 C 62.932504,381.56035 59.570575,376.10359 61.51829,383.89444 C 63.949176,393.61799 61.371955,394.52561 59.39697,404.40054"
     id="path2273" />
  <path
     style="fill:none;fill-rule:evenodd;stroke:#000000;stroke-width:1px;stroke-linecap:butt;stroke-linejoin:miter;stroke-opacity:1"
     d="M 62.932504,378.23759 C 62.636519,379.71751 64.818122,375.88057 65.760931,374.70206 C 69.185693,370.4211 60.019515,384.23269 58.689863,389.5513 C 57.94868,392.51603 59.39697,403.15809 59.39697,395.20815 C 59.39697,388.51137 65.528556,384.72772 62.932504,378.23759 C 62.125447,376.21995 69.823511,377.54362 69.296465,379.6518 C 69.168637,380.16311 68.82506,380.59461 68.589358,381.06602"
     id="path2275" />
  <path
     style="fill:none;fill-rule:evenodd;stroke:#000000;stroke-width:1px;stroke-linecap:butt;stroke-linejoin:miter;stroke-opacity:1"
     d="M 111.72287,373.28784 C 111.45622,374.35443 129.64092,365.66057 139.30004,352.78175 C 143.78328,346.80409 145.25587,338.33352 140.00714,334.39697 C 139.51574,334.02842 138.71337,354.18041 138.59293,354.90307 C 135.89798,371.07278 120.6409,366.15342 111.72287,373.28784 C 110.39565,374.34962 108.89444,371.40222 107.48023,370.45942 C 105.12684,368.89049 113.61212,372.02834 115.96551,370.45942 C 126.21078,363.62924 137.0215,361.24095 144.95689,350.66043 C 148.73029,345.62923 145.14808,344.39206 140.71425,342.17514 C 140.14546,341.89075 140.00714,337.2012 140.00714,345.71068 C 140.00714,353.54293 136.09965,359.40595 131.52186,365.50967 C 127.32065,371.11128 110.85495,373.50482 106.06602,374.70206 C 101.80877,375.76637 97.357098,383.95693 94.752309,387.42998 C 90.672385,392.86988 87.597288,397.04213 86.267027,403.69343 C 85.341335,408.3219 87.580981,413.28686 89.095455,407.22897 C 90.7759,400.50719 94.490243,394.1351 96.166522,387.42998 C 97.761476,381.05016 96.250411,384.93711 97.580736,390.25841 C 99.133911,396.47111 98.411588,403.73763 96.166522,409.35029 C 94.161218,414.36355 87.32152,414.03333 85.559921,413.59293 C 80.385827,412.29941 93.673629,406.54589 96.873629,402.27922 C 99.281948,399.06813 99.004754,393.09664 96.166522,390.25841 C 93.148061,387.23994 96.337683,399.02289 94.752309,402.98633 C 91.908315,410.09631 87.379962,416.67345 79.903066,418.54268 C 73.814397,420.06484 91.021573,412.37392 95.459416,407.93608 C 99.860896,403.5346 97.860315,393.10315 98.99495,387.42998 C 100.09064,381.95155 103.05266,377.78287 108.18734,374.70206 C 109.27575,374.04901 110.54436,373.75925 111.72287,373.28784 C 116.54908,371.35736 121.62237,364.42562 121.62237,370.45942"
     id="path2277" />
  <path
     style="fill:none;fill-rule:evenodd;stroke:#000000;stroke-width:1px;stroke-linecap:butt;stroke-linejoin:miter;stroke-opacity:1"
     d="M 49.497475,352.07464 C 57.748771,348.77412 56.174777,360.42127 46.669048,348.53911 C 41.059586,341.52728 14.442822,333.57374 9.899495,332.27565 C 4.3806118,330.69883 20.83375,335.80082 26.162951,337.9325 C 51.450453,348.0475 73.457192,355.61017 101.11627,355.61017 C 109.96256,355.61017 130.36323,350.40485 132.22897,348.53911 C 135.66489,345.10318 122.87985,351.2758 118.08683,352.07464 C 100.79789,354.95613 83.446139,352.783 66.468038,349.95332 C 47.867135,346.85317 26.674911,339.24914 9.899495,330.86144 C 8.9566859,330.39003 8.0138769,329.91863 7.0710678,329.44722 C 6.6861693,329.25477 19.373085,331.99171 34.648232,342.17514 C 47.27054,350.59002 58.273673,354.1365 73.539105,356.31728"
     id="path2279" />
  <path
     style="fill:none;fill-rule:evenodd;stroke:#000000;stroke-width:1px;stroke-linecap:butt;stroke-linejoin:miter;stroke-opacity:1"
     d="M 78.488853,299.04163 C 82.28884,301.57496 96.179287,311.79508 101.11627,321.66905 C 105.18028,329.79707 109.93532,330.35459 98.99495,323.79037 C 93.532958,320.51317 72.909531,303.07441 90.509668,308.94113 C 103.61184,313.30851 117.18958,325.05247 127.98633,333.68986 C 134.1535,338.6236 133.30813,335.47613 130.10765,332.27565 C 128.15686,330.32487 125.00593,330.11634 122.32947,329.44722 C 117.88961,328.33726 131.25026,331.52328 135.7645,332.27565 C 142.73236,333.43696 143.53266,335.7711 144.95689,341.46804 C 146.42832,347.35375 142.53922,352.70548 139.30004,357.02439 C 135.06793,362.6672 135.3851,360.31414 140.71425,356.31728 C 147.83045,350.98013 138.25145,339.71234 134.35029,335.81118 C 130.8759,332.3368 118.54557,322.60552 130.81475,328.74012 C 139.90941,333.28744 148.41362,340.89226 142.12846,351.36753 C 138.67607,357.12152 131.88592,359.48875 127.27922,364.09545"
     id="path2281" />
  <path
     style="fill:none;fill-rule:evenodd;stroke:#000000;stroke-width:1px;stroke-linecap:butt;stroke-linejoin:miter;stroke-opacity:1"
     d="M 13.435029,388.84419 C 11.253519,392.48004 15.922839,379.99242 20.506097,375.40916 C 23.901033,372.01423 30.727105,371.71287 34.648232,369.75231 C 38.217982,367.96743 42.863175,367.16824 46.669048,366.21677 C 50.443365,365.2732 54.008214,361.14526 56.568543,357.73149 C 61.442652,351.23268 62.268797,350.36686 57.275649,357.02439 C 52.698964,363.12663 47.757174,368.50114 41.012193,371.87363 C 35.792572,374.48344 51.130305,365.07244 53.740115,359.85281 C 54.21152,358.91 54.682925,357.9672 55.154329,357.02439 C 57.823061,351.68692 58.134703,349.64943 55.154329,355.61017 C 52.449659,361.01951 53.347283,363.68297 48.083261,367.63099 C 46.126762,369.09836 54.703808,360.21781 56.568543,357.73149 C 59.991991,353.1669 48.431167,366.21903 43.133514,368.3381 C 35.31387,371.46595 29.191727,370.66271 21.92031,376.11627 C 14.986988,381.31626 10.285462,383.37882 8.4852814,392.37973 C 7.7503838,396.05421 8.0207732,402.50113 10.606602,397.32947 C 12.450511,393.64166 13.435029,388.84419 16.970563,386.72287 C 19.412704,385.25759 13.435029,391.65305 13.435029,394.50105 C 13.435029,399.64721 11.585392,406.57766 13.435029,397.32947 C 16.490762,382.05081 7.8309404,398.47986 6.363961,405.81475 C 4.4645497,415.31181 3.8694298,420.62468 8.4852814,429.85639 C 9.945065,432.77595 12.492096,434.33463 14.849242,436.22035"
     id="path2283" />
  <path
     style="fill:none;fill-rule:evenodd;stroke:#000000;stroke-width:1px;stroke-linecap:butt;stroke-linejoin:miter;stroke-opacity:1"
     d="M 201.52543,444.70563 C 205.4989,452.65256 166.00477,433.95732 161.22035,429.85639 C 130.2549,403.31458 158.55441,372.48411 189.50462,369.0452 C 225.14088,365.08562 237.96276,398.26443 222.73864,424.90664 C 207.26243,451.98999 167.21019,455.38209 154.14928,424.90664 C 139.32722,390.32183 179.87276,367.16757 210.01071,374.70206 C 249.25491,384.51311 228.66703,424.78595 202.93965,436.22035 C 182.99622,445.08409 163.50076,438.42297 151.32085,421.3711"
     id="path2285" />
  <path
     style="fill:none;fill-rule:evenodd;stroke:#000000;stroke-width:1px;stroke-linecap:butt;stroke-linejoin:miter;stroke-opacity:1"
     d="M 262.33662,368.3381 C 239.43255,378.51768 208.5965,362.11541 208.5965,336.51829 C 208.5965,301.16207 257.69466,304.64357 273.65032,323.79037 C 293.79457,347.96346 266.73031,374.75991 244.65895,381.06602 C 215.56225,389.37936 200.03082,339.36969 229.8097,330.86144 C 236.60712,328.91932 245.27794,332.52835 251.02291,335.81118"
     id="path2287" />
  <path
     style="fill:none;fill-rule:evenodd;stroke:#000000;stroke-width:1px;stroke-linecap:butt;stroke-linejoin:miter;stroke-opacity:1"
     d="M 226.98128,308.23402 C 228.2673,307.86658 235.77793,294.28975 241.83052,291.26346 C 251.16338,286.59703 267.36779,284.2331 275.77165,288.43503 C 276.74254,288.92048 271.95328,290.69776 269.40768,291.97056 C 263.02403,295.16239 259.10224,304.29915 256.67976,310.35534 C 254.87117,314.87682 254.8773,320.82318 255.97266,325.20458"
     id="path2289" />
  <path
     style="fill:none;fill-rule:evenodd;stroke:#000000;stroke-width:1px;stroke-linecap:butt;stroke-linejoin:miter;stroke-opacity:1"
     d="M 258.09398,312.47666 C 258.00642,312.69556 265.87435,307.52691 277.89297,307.52691 C 284.92057,307.52691 291.60217,307.80108 295.57064,311.76955 C 298.10923,314.30814 288.54323,313.85813 285.67114,316.01219 C 279.97867,320.28155 275.28912,324.75543 272.23611,330.86144 C 272.01671,331.30025 272.23611,333.06336 272.23611,333.68986"
     id="path2291" />
  <path
     style="fill:none;fill-rule:evenodd;stroke:#000000;stroke-width:1px;stroke-linecap:butt;stroke-linejoin:miter;stroke-opacity:1"
     d="M 275.77165,326.6188 C 275.60989,326.9423 284.26734,325.20458 294.15642,325.20458 C 299.99082,325.20458 301.78613,326.18513 304.76302,330.15433 C 307.85182,334.27273 307.59145,341.01665 307.59145,345.71068 C 307.59145,351.44182 309.36278,353.13886 305.47013,349.24621 C 302.84395,346.62003 297.21732,347.12489 293.44931,347.12489 C 288.92702,347.12489 283.79457,350.1845 280.01429,352.07464 C 275.24709,354.45824 274.11849,360.80858 272.94322,365.50967 C 271.96776,369.41149 269.48271,371.57351 268.70058,374.70206 C 267.89656,377.91811 264.30921,380.79292 263.04372,382.48023 C 261.38411,384.69305 257.63721,386.12996 255.26555,386.72287 C 252.22541,387.48291 249.17934,388.70532 246.07316,390.25841 C 242.52687,392.03155 238.90638,392.47544 236.17367,395.20815 C 233.23093,398.15089 231.59515,402.49135 229.1026,405.81475 C 225.8806,410.11076 223.91744,414.84962 220.61732,419.24978 C 219.91021,420.19259 219.2031,421.1354 218.496,422.07821 C 214.7479,427.07567 212.4144,429.36165 207.18229,431.97771 C 201.48418,434.82676 197.8906,438.34167 190.91883,438.34167 C 185.30595,438.34167 179.41827,436.24966 174.65538,433.39192 C 173.73819,432.84161 170.86969,431.49908 170.41273,431.2706"
     id="path2293" />
  <path
     style="fill:none;fill-rule:evenodd;stroke:#000000;stroke-width:1px;stroke-linecap:butt;stroke-linejoin:miter;stroke-opacity:1"
     d="M 227.68838,304.69848 C 224.10693,302.54961 225.70402,312.84137 224.15285,316.7193 C 221.47418,323.41597 213.33045,329.66302 208.5965,334.39697 C 203.1818,339.81167 195.49598,341.84064 190.21172,347.12489 C 184.61672,352.71989 181.55291,360.73346 176.06959,366.21677 C 173.80268,368.48369 171.84646,371.12751 170.41273,373.99495"
     id="path2295" />
  <path
     style="fill:none;fill-rule:evenodd;stroke:#000000;stroke-width:1px;stroke-linecap:butt;stroke-linejoin:miter;stroke-opacity:1"
     d="M 147.78532,325.91169 C 144.3494,329.34761 150.63367,335.24353 151.32085,340.05382 C 153.56487,355.76197 146.72083,369.06815 144.24978,383.89444 C 142.37537,395.14091 142.53791,405.92653 147.78532,416.42136 C 150.77816,422.40704 152.49454,426.32085 159.80613,426.32085"
     id="path2297" />
  <path
     style="fill:none;fill-rule:evenodd;stroke:#000000;stroke-width:1px;stroke-linecap:butt;stroke-linejoin:miter;stroke-opacity:1"
     d="M 188.79751,316.01219 C 190.76229,319.94175 191.22328,333.39526 192.33304,340.05382 C 195.55912,359.41026 191.85514,335.75266 193.04015,346.41779"
     id="path2299" />
  <path
     style="fill:none;fill-rule:evenodd;stroke:#000000;stroke-width:2;stroke-linecap:butt;stroke-linejoin:miter;stroke-miterlimit:4;stroke-dasharray:none;stroke-opacity:1"
     d="M 126,79.500005 C 146.5,98.500005 166,100.50001 166,100.50001"
     id="path3233" />
</svg>
