<?xml version="1.0" encoding="UTF-8" standalone="no"?>
<!-- Created with Inkscape (http://www.inkscape.org/) -->

<svg
   xmlns:dc="http://purl.org/dc/elements/1.1/"
   xmlns:cc="http://creativecommons.org/ns#"
   xmlns:rdf="http://www.w3.org/1999/02/22-rdf-syntax-ns#"
   xmlns:svg="http://www.w3.org/2000/svg"
   xmlns="http://www.w3.org/2000/svg"
   xmlns:xlink="http://www.w3.org/1999/xlink"
   xmlns:sodipodi="http://sodipodi.sourceforge.net/DTD/sodipodi-0.dtd"
   xmlns:inkscape="http://www.inkscape.org/namespaces/inkscape"
   inkscape:export-ydpi="180"
   inkscape:export-xdpi="180"
   inkscape:export-filename="moon_big_1.png"
   sodipodi:docname="big_moon.svg"
   inkscape:version="0.47 r22583"
   version="1.1"
   id="svg2"
   height="1024"
   width="1024">
  <sodipodi:namedview
     id="base"
     pagecolor="#3a3232"
     bordercolor="#666666"
     borderopacity="1.0"
     inkscape:pageopacity="0"
     inkscape:pageshadow="2"
     inkscape:zoom="0.25191891"
     inkscape:cx="494.97522"
     inkscape:cy="591.5404"
     inkscape:document-units="px"
     inkscape:current-layer="layer1"
     showgrid="false"
     inkscape:window-width="1237"
     inkscape:window-height="782"
     inkscape:window-x="22"
     inkscape:window-y="5"
     inkscape:window-maximized="0"
     inkscape:snap-grids="false"
     inkscape:snap-to-guides="false"
     inkscape:snap-nodes="true">
    <inkscape:grid
       snapvisiblegridlinesonly="true"
       enabled="true"
       visible="true"
       empspacing="5"
       id="grid6428"
       type="xygrid" />
  </sodipodi:namedview>
  <defs
     id="defs4">
    <linearGradient
       id="linearGradient3722">
      <stop
         style="stop-color:#a2a2a2;stop-opacity:1;"
         offset="0"
         id="stop3724" />
      <stop
         style="stop-color:#9a9a9a;stop-opacity:1;"
         offset="1"
         id="stop3726" />
    </linearGradient>
    <inkscape:perspective
       id="perspective121"
       inkscape:persp3d-origin="512 : 341.33333 : 1"
       inkscape:vp_z="1024 : 512 : 1"
       inkscape:vp_y="0 : 1000 : 0"
       inkscape:vp_x="0 : 512 : 1"
       sodipodi:type="inkscape:persp3d" />
    <linearGradient
       id="linearGradient3715">
      <stop
         id="stop3717"
         offset="0"
         style="stop-color:#bababa;stop-opacity:1;" />
      <stop
         id="stop3719"
         offset="1"
         style="stop-color:#525252;stop-opacity:1;" />
    </linearGradient>
    <linearGradient
       id="linearGradient3707">
      <stop
         id="stop3709"
         offset="0"
         style="stop-color:#909090;stop-opacity:1;" />
      <stop
         id="stop3711"
         offset="1"
         style="stop-color:#686868;stop-opacity:1;" />
    </linearGradient>
    <linearGradient
       id="linearGradient3699">
      <stop
         id="stop3701"
         offset="0"
         style="stop-color:#828282;stop-opacity:1;" />
      <stop
         id="stop3703"
         offset="1"
         style="stop-color:#656565;stop-opacity:1;" />
    </linearGradient>
    <linearGradient
       id="linearGradient3681">
      <stop
         id="stop3683"
         offset="0"
         style="stop-color:#8b8882;stop-opacity:1;" />
      <stop
         id="stop3685"
         offset="1"
         style="stop-color:#95928e;stop-opacity:1;" />
    </linearGradient>
    <linearGradient
       id="linearGradient3908">
      <stop
         style="stop-color:#ffffff;stop-opacity:1;"
         offset="0"
         id="stop3910" />
      <stop
         id="stop3710"
         offset="0.5"
         style="stop-color:#bdbbb9;stop-opacity:1;" />
      <stop
         style="stop-color:#0f0e0e;stop-opacity:1;"
         offset="1"
         id="stop3912" />
    </linearGradient>
    <radialGradient
       inkscape:collect="always"
       xlink:href="#linearGradient3908"
       id="radialGradient3914"
       cx="311.24274"
       cy="544.2948"
       fx="311.24274"
       fy="544.2948"
       r="367.52902"
       gradientTransform="matrix(0.87211638,-0.45089962,0.49910996,0.81979029,-283.10285,260.77953)"
       gradientUnits="userSpaceOnUse" />
    <filter
       inkscape:collect="always"
       id="filter3976-29"
       inkscape:label="Color_emboss"
       inkscape:menu="Color"
       inkscape:menu-tooltip="Render in shades of gray by reducing saturation to zero"
       color-interpolation-filters="sRGB"
       x="0"
       y="0"
       width="1"
       height="1">
      <feGaussianBlur
         inkscape:collect="always"
         stdDeviation="3.9"
         id="feGaussianBlur3978-9"
         result="fbSourceGraphic" />
      <feColorMatrix
         result="fbSourceGraphicAlpha"
         in="fbSourceGraphic"
         values="0 0 0 -1 0 0 0 0 -1 0 0 0 0 -1 0 0 0 0 1 0"
         id="feColorMatrix3980-8" />
      <feTurbulence
         id="feTurbulence3982-3"
         numOctaves="3"
         seed="0"
         type="turbulence"
         baseFrequency="0.04"
         result="result91" />
      <feDisplacementMap
         id="feDisplacementMap3984-86"
         in2="result91"
         scale="0"
         yChannelSelector="G"
         xChannelSelector="R"
         in="fbSourceGraphic"
         result="fbSourceGraphic" />
      <feColorMatrix
         result="fbSourceGraphicAlpha"
         in="fbSourceGraphic"
         values="0 0 0 -1 0 0 0 0 -1 0 0 0 0 -1 0 0 0 0 1 0"
         id="feColorMatrix4446" />
      <feColorMatrix
         id="feColorMatrix4448"
         type="luminanceToAlpha"
         result="result2"
         in="fbSourceGraphic" />
      <feDiffuseLighting
         id="feDiffuseLighting4450"
         surfaceScale="4"
         result="result1"
         diffuseConstant="1.2"
         lighting-color="rgb(220,212,205)">
        <feDistantLight
           id="feDistantLight4452"
           azimuth="225"
           elevation="35" />
      </feDiffuseLighting>
      <feFlood
         id="feFlood4454"
         flood-opacity="0.40296296296296297"
         result="result3"
         flood-color="rgb(96,93,85)"
         in="fbSourceGraphic" />
      <feComposite
         k4="0"
         id="feComposite4456"
         in2="result3"
         result="result4"
         operator="arithmetic"
         in="result1"
         k1="0.69999999999999996"
         k2="0.59999999999999998"
         k3="0.90000000000000002" />
      <feBlend
         id="feBlend4458"
         in2="fbSourceGraphic"
         mode="normal"
         in="result4"
         result="result91" />
      <feComposite
         k4="0"
         k3="0"
         k1="0"
         id="feComposite4460"
         in2="result91"
         operator="arithmetic"
         k2="1"
         result="result92" />
      <feComposite
         id="feComposite4462"
         in2="fbSourceGraphic"
         operator="in"
         result="fbSourceGraphic" />
      <feColorMatrix
         id="feColorMatrix4466"
         type="saturate"
         values="0.035767511177347243"
         in="fbSourceGraphic" />
    </filter>
    <linearGradient
       inkscape:collect="always"
       id="linearGradient3908-7-5">
      <stop
         style="stop-color:#858585;stop-opacity:1;"
         offset="0"
         id="stop3910-4-4" />
      <stop
         style="stop-color:#d4d4d4;stop-opacity:1"
         offset="1"
         id="stop3912-0-3" />
    </linearGradient>
    <radialGradient
       r="367.52902"
       fy="665.30212"
       fx="327.18991"
       cy="665.30212"
       cx="327.18991"
       gradientTransform="matrix(0.87211638,-0.45089962,0.49910996,0.81979029,-283.10285,260.77953)"
       gradientUnits="userSpaceOnUse"
       id="radialGradient6715"
       xlink:href="#linearGradient3908-7-5"
       inkscape:collect="always" />
    <clipPath
       id="clipPath6711-2"
       clipPathUnits="userSpaceOnUse">
      <path
         sodipodi:type="arc"
         style="fill:url(#radialGradient6715);fill-opacity:1;fill-rule:evenodd;stroke:#808080;stroke-width:1.56031334;stroke-linecap:round;stroke-linejoin:round;stroke-miterlimit:4;stroke-opacity:1;stroke-dasharray:none;display:inline"
         id="path6713-3"
         sodipodi:cx="260"
         sodipodi:cy="566.64789"
         sodipodi:rx="354.28571"
         sodipodi:ry="325.71429"
         d="m 614.28571,566.64789 a 354.28571,325.71429 0 1 1 -708.571416,0 354.28571,325.71429 0 1 1 708.571416,0 z"
         transform="matrix(1.0196969,0,0,1.0403991,-20.094935,-22.892064)" />
    </clipPath>
    <filter
       id="filter4833-4-3"
       inkscape:label="Air spray"
       inkscape:menu="Scatter"
       inkscape:menu-tooltip="Convert to small scattered particles with some thickness"
       color-interpolation-filters="sRGB"
       width="2"
       height="2"
       y="-0.5"
       x="-0.5">
      <feGaussianBlur
         id="feGaussianBlur4835-8-4"
         result="result0"
         in="SourceGraphic"
         stdDeviation="1" />
      <feTurbulence
         id="feTurbulence4837-8-1"
         baseFrequency="0.053427895981087471"
         seed="488"
         numOctaves="7"
         result="result1" />
      <feDisplacementMap
         id="feDisplacementMap4839-2-1"
         in2="result1"
         result="result5"
         xChannelSelector="R"
         scale="0"
         in="result1"
         yChannelSelector="G" />
      <feComposite
         id="feComposite4841-4-3"
         in2="result5"
         result="result2"
         operator="in"
         in="result0" />
      <feSpecularLighting
         id="feSpecularLighting4843-5-8"
         lighting-color="#ffe688"
         surfaceScale="2"
         result="result4"
         specularConstant="2"
         specularExponent="65"
         in="result2">
        <feDistantLight
           id="feDistantLight4845-5-7"
           elevation="62"
           azimuth="225" />
      </feSpecularLighting>
      <feComposite
         id="feComposite4847-1-4"
         in2="result2"
         k1="2.5"
         k3="0.90000000000000002"
         k2="-0.5"
         in="result4"
         operator="arithmetic"
         result="result91"
         k4="0" />
      <feBlend
         id="feBlend4849-7-2"
         in2="result91"
         result="fbSourceGraphic"
         mode="multiply" />
      <feColorMatrix
         id="feColorMatrix4851-1-7"
         values="1 0 0 -1 0 1 0 1 -1 0 1 0 0 -1 0 -1 -0.5 0 3 -1 "
         in="fbSourceGraphic"
         result="fbSourceGraphicAlpha" />
      <feGaussianBlur
         id="feGaussianBlur4853-1-7"
         stdDeviation="16"
         in="fbSourceGraphicAlpha"
         result="result0" />
      <feOffset
         id="feOffset4855-5-9"
         dx="2"
         dy="2"
         in="result0"
         result="result3" />
      <feSpecularLighting
         id="feSpecularLighting4857-2-3"
         in="result0"
         result="result1"
         lighting-color="#ffffff"
         surfaceScale="2"
         specularConstant="0.80000000000000004"
         specularExponent="15">
        <fePointLight
           id="fePointLight4859-7-1"
           x="-5000"
           y="-10000"
           z="20000" />
      </feSpecularLighting>
      <feComposite
         id="feComposite4861-6-9"
         in2="fbSourceGraphicAlpha"
         in="result1"
         result="result2"
         operator="in" />
      <feComposite
         id="feComposite4863-1-8"
         in2="result2"
         in="fbSourceGraphic"
         result="result4"
         operator="arithmetic"
         k2="1.5"
         k3="2"
         k1="0"
         k4="0" />
      <feBlend
         id="feBlend4865-4-6"
         in2="result4"
         mode="darken"
         result="fbSourceGraphic" />
      <feColorMatrix
         result="fbSourceGraphicAlpha"
         in="fbSourceGraphic"
         values="0 0 0 -1 0 0 0 0 -1 0 0 0 0 -1 0 0 0 0 1 0"
         id="feColorMatrix4867-2-5" />
      <feGaussianBlur
         id="feGaussianBlur4869-3-0"
         result="result6"
         stdDeviation="5"
         in="fbSourceGraphic" />
      <feComposite
         id="feComposite4871-2-2"
         in2="result6"
         operator="atop"
         in="fbSourceGraphic"
         result="result91" />
      <feComposite
         id="feComposite4873-2-8"
         in2="result91"
         operator="in"
         result="result92" />
      <feComposite
         id="feComposite4875-1-6"
         in2="result92"
         operator="in"
         result="fbSourceGraphic" />
      <feColorMatrix
         result="fbSourceGraphicAlpha"
         in="fbSourceGraphic"
         values="0 0 0 -1 0 0 0 0 -1 0 0 0 0 -1 0 0 0 0 1 0"
         id="feColorMatrix4881-6-0" />
      <feTurbulence
         id="feTurbulence4883-8-2"
         numOctaves="3"
         seed="0"
         type="turbulence"
         baseFrequency="0.040000000000000001"
         result="result91" />
      <feDisplacementMap
         id="feDisplacementMap4885-5-4"
         in2="result91"
         scale="0"
         yChannelSelector="G"
         xChannelSelector="R"
         in="fbSourceGraphic"
         result="fbSourceGraphic" />
      <feColorMatrix
         result="fbSourceGraphicAlpha"
         in="fbSourceGraphic"
         values="0 0 0 -1 0 0 0 0 -1 0 0 0 0 -1 0 0 0 0 1 0"
         id="feColorMatrix4887-7-8" />
      <feGaussianBlur
         id="feGaussianBlur4889-6-6"
         stdDeviation="0.01"
         result="result1"
         in="fbSourceGraphic" />
      <feBlend
         id="feBlend4891-1-5"
         in2="result1"
         result="fbSourceGraphic"
         mode="multiply" />
      <feTurbulence
         id="feTurbulence4893-8-0"
         baseFrequency="0.8"
         type="fractalNoise"
         seed="0"
         numOctaves="3"
         result="result3" />
      <feDisplacementMap
         id="feDisplacementMap4895-9-9"
         in2="result3"
         in="fbSourceGraphic"
         xChannelSelector="R"
         yChannelSelector="G"
         scale="50"
         result="result2" />
      <feMorphology
         id="feMorphology4897-2-0"
         radius="1"
         operator="dilate"
         result="result4" />
      <feBlend
         id="feBlend4899-7-0"
         in2="result2"
         mode="screen" />
    </filter>
    <radialGradient
       gradientUnits="userSpaceOnUse"
       gradientTransform="matrix(1,0,0,0.93801991,0,35.120886)"
       r="361.26404"
       fy="566.64789"
       fx="245.02626"
       cy="566.64789"
       cx="245.02626"
       id="radialGradient3687"
       xlink:href="#linearGradient3681"
       inkscape:collect="always" />
    <filter
       color-interpolation-filters="sRGB"
       inkscape:menu-tooltip="Basic diffuse bevel to use for building textures"
       inkscape:menu="ABCs"
       inkscape:label="diffuse light"
       id="filter3689">
      <feGaussianBlur
         result="result0"
         in="SourceGraphic"
         stdDeviation="32.988232189973616"
         id="feGaussianBlur3691" />
      <feDiffuseLighting
         lighting-color="rgb(98,107,110)"
         result="result5"
         surfaceScale="5"
         diffuseConstant="1"
         id="feDiffuseLighting3693">
        <feDistantLight
           azimuth="235"
           elevation="25"
           id="feDistantLight3695" />
      </feDiffuseLighting>
      <feComposite
         k3="0.6"
         k2="0"
         operator="arithmetic"
         result="result4"
         in="result5"
         k1="1"
         in2="SourceGraphic"
         id="feComposite3697" />
      <feMorphology
         id="feMorphology7393"
         radius="2"
         stdDeviation="1" />
      <feGaussianBlur
         stdDeviation="2"
         id="feGaussianBlur7395" />
    </filter>
    <filter
       color-interpolation-filters="sRGB"
       inkscape:menu-tooltip="Classic or colorized emboss effect: grayscale, color and 3D relief"
       inkscape:menu="Bumps"
       height="1"
       width="1"
       y="0"
       x="0"
       inkscape:label="color_emboss_light"
       id="filter3731">
      <feGaussianBlur
         result="result94"
         id="feGaussianBlur3753"
         stdDeviation="1.8488965517241378" />
      <feColorMatrix
         result="result2"
         type="luminanceToAlpha"
         id="feColorMatrix3733" />
      <feDiffuseLighting
         lighting-color="rgb(187,187,187)"
         diffuseConstant="1.3999999999999999"
         result="result1"
         surfaceScale="2"
         id="feDiffuseLighting3735">
        <feDistantLight
           elevation="35"
           azimuth="225"
           id="feDistantLight3737" />
      </feDiffuseLighting>
      <feFlood
         in="result94"
         flood-color="rgb(96,93,85)"
         result="result3"
         flood-opacity="0.40000000000000002"
         id="feFlood3739" />
      <feComposite
         k3="0.90000000000000002"
         k2="0.59999999999999998"
         k1="0.69999999999999996"
         in="result1"
         operator="arithmetic"
         result="result4"
         in2="result3"
         id="feComposite3741" />
      <feBlend
         result="result91"
         in="result4"
         mode="normal"
         in2="result94"
         id="feBlend3743" />
      <feComposite
         result="result92"
         k2="1"
         operator="arithmetic"
         in2="result91"
         id="feComposite3745" />
      <feComposite
         result="result93"
         operator="in"
         in2="result94"
         id="feComposite3747" />
      <feColorMatrix
         in="result93"
         values="0.042528735632183907"
         type="saturate"
         id="feColorMatrix3751" />
    </filter>
    <linearGradient
       inkscape:collect="always"
       xlink:href="#linearGradient3707"
       id="linearGradient7381"
       gradientUnits="userSpaceOnUse"
       x1="751.10217"
       y1="251.40588"
       x2="805.37177"
       y2="206.49577"
       gradientTransform="translate(-4,4)" />
    <linearGradient
       inkscape:collect="always"
       xlink:href="#linearGradient3715"
       id="linearGradient7383"
       gradientUnits="userSpaceOnUse"
       x1="199.54755"
       y1="764.79932"
       x2="154.64485"
       y2="804.0957"
       gradientTransform="translate(2,-2)" />
    <linearGradient
       inkscape:collect="always"
       xlink:href="#linearGradient3699"
       id="linearGradient7385"
       gradientUnits="userSpaceOnUse"
       gradientTransform="translate(2,4)"
       x1="691.88269"
       y1="875.82269"
       x2="710.65466"
       y2="912.31213" />
  </defs>
  <metadata
     id="metadata7">
    <rdf:RDF>
      <cc:Work
         rdf:about="">
        <dc:format>image/svg+xml</dc:format>
        <dc:type
           rdf:resource="http://purl.org/dc/dcmitype/StillImage" />
        <dc:title></dc:title>
      </cc:Work>
    </rdf:RDF>
  </metadata>
  <g
     transform="translate(0,124)"
     style="display:inline"
     inkscape:label="moon"
     id="layer3"
     inkscape:groupmode="layer" />
  <g
     inkscape:label="Layer 1"
     inkscape:groupmode="layer"
     id="layer1"
     style="display:inline"
     transform="translate(0,-28.36217)">
    <path
       sodipodi:type="arc"
       style="fill:#9a9a9a;fill-opacity:1;fill-rule:evenodd;stroke:none;stroke-width:1.56031334000000000;stroke-linecap:round;stroke-linejoin:round;stroke-miterlimit:4;stroke-opacity:1;stroke-dasharray:none;display:inline"
       id="path2816"
       sodipodi:cx="260"
       sodipodi:cy="566.64789"
       sodipodi:rx="354.28571"
       sodipodi:ry="325.71429"
       d="m 614.28571,566.64789 c 0,179.88704 -158.61912,325.71429 -354.28571,325.71429 -195.666592,0 -354.285706,-145.82725 -354.285706,-325.71429 0,-179.88704 158.619114,-325.7143 354.285706,-325.7143 195.66659,0 354.28571,145.82726 354.28571,325.7143 z"
       transform="matrix(1.2304704,0,0,1.335258,192.0777,-216.25896)" />
    <path
       style="fill:url(#linearGradient7381);fill-opacity:1;stroke:#666666;stroke-width:7.50939846;stroke-linecap:butt;stroke-linejoin:round;stroke-miterlimit:4;stroke-opacity:1;stroke-dasharray:none;display:inline;filter:url(#filter3731)"
       d="m 850.94781,265.43909 c 0,0 -34.03309,-40.88727 -52.93774,-56.80632 -18.90465,-15.91906 -59.12003,-38.65848 -59.12003,-38.65848 -2.97788,2.05181 -4.76766,5.40226 -5.94581,9.17672 -4.98878,15.98269 -8.30858,31.70652 -1.04414,45.64267 6.43635,12.34751 16.17463,23.86324 20.35808,34.91652 5.06904,13.39311 35.03517,9.61185 48.23657,17.12253 10.71621,6.09679 30.53326,-9.47647 43.29496,-7.73931 1.53262,0.20862 3.0184,0.10277 7.15811,-3.65433 z"
       id="path5829-4-2"
       sodipodi:nodetypes="czcsssssc" />
    <path
       style="fill:url(#linearGradient7385);fill-opacity:1;stroke:#666666;stroke-width:5.84000015;stroke-linecap:butt;stroke-linejoin:round;stroke-miterlimit:4;stroke-opacity:1;stroke-dasharray:none;display:inline;filter:url(#filter3731)"
       d="m 663.53132,946.35353 c 0,0 36.97268,-13.19436 54.40803,-22.09075 17.93219,-9.1499 51.23586,-31.97564 51.23586,-31.97564 -0.40923,-1.91057 -1.12634,-3.59358 -2.51775,-3.52774 -5.03828,0.2384 -25.47051,1.56918 -36.01194,-4.81498 -7.01278,-4.24712 -25.14628,-12.63681 -34.66939,-1.6016 -7.56629,8.76769 -17.16976,14.1068 -25.46112,23.02243 -16.42874,17.66572 -13.28747,19.37928 -6.98369,40.98828 z"
       id="path5829-4"
       sodipodi:nodetypes="cacssssc" />
    <path
       style="fill:url(#linearGradient7383);fill-opacity:1;stroke:#666666;stroke-width:5;stroke-linecap:butt;stroke-linejoin:round;stroke-miterlimit:4;stroke-opacity:1;stroke-dasharray:none;display:inline;filter:url(#filter3731)"
       d="m 132.72743,757.14713 c 0,0 13.63083,28.02074 22.97032,40.36858 11.68566,15.44973 40.7795,41.40378 40.7795,41.40378 1.93237,-0.10954 1.64585,-1.8615 2.5907,-2.58636 13.5118,-10.3659 10.40721,-22.30911 4.36991,-36.34312 -4.30892,-10.0163 1.48311,-22.08905 -9.01604,-27.83635 -8.0247,-4.39277 -17.96626,-20.76524 -27.66409,-23.814 -9.69783,-3.04875 -16.36349,4.11739 -30.52264,6.59965 -1.09682,0.19229 -1.15498,-0.47528 -3.50766,2.20782 z"
       id="path5829"
       sodipodi:nodetypes="cacsssssc" />
    <path
       id="path3928-52-6"
       d="m 151.70785,449.14672 c 0.59715,16.45871 5.20931,34.85003 -19.82043,38.7835 -15.15854,2.3822 -30.10614,16.80008 -48.886108,22.20934 -12.255991,3.53014 -19.15264,-9.08898 -27.484639,-17.13778 -8.332,-8.04881 -18.09935,-11.52731 -19.564997,-22.46331 -1.989597,-14.84548 3.168582,-34.37445 12.108888,-49.52514 8.940306,-15.15069 22.146554,-28.06233 34.801652,-23.25547 19.844994,7.53783 35.547314,-12.46593 45.783874,-1.655 14.17563,14.97103 22.49777,37.49914 23.06176,53.04386 z"
       style="fill:#909090;fill-opacity:1;fill-rule:evenodd;stroke:#808080;stroke-width:8.21399974999999930;stroke-linecap:round;stroke-linejoin:round;stroke-miterlimit:4;stroke-opacity:1;display:inline;filter:url(#filter3976-29)"
       transform="matrix(0.33957483,0,0,0.29999636,617.82861,747.68628)"
       sodipodi:nodetypes="cssssssss" />
    <path
       transform="matrix(0.18042358,0,0,0.23690297,814.43439,221.36451)"
       style="fill:#9f9f9f;fill-opacity:1;fill-rule:evenodd;stroke:#808080;stroke-width:8.21399974999999930;stroke-linecap:round;stroke-linejoin:round;stroke-miterlimit:4;stroke-opacity:1;display:inline;filter:url(#filter3976-29)"
       d="m 157.14285,463.79074 c 0,16.2098 8.18944,41.28173 -18.82885,46.46702 -16.81105,3.22634 -28.12026,19.24727 -45.45686,19.24727 -17.336603,0 -30.648063,-12.38206 -45.456864,-19.24727 -31.403777,-14.55847 -86.983144,-18.71709 -91.879967,-46.46702 -3.709629,-21.02219 40.1773394,-29.9578 54.931659,-47.94805 24.116947,-29.4063 54.048464,-20.2777 82.405172,-17.76624 17.22055,1.52517 47.9489,6.18096 45.45686,19.24727 -4.09608,21.47662 18.82885,30.25722 18.82885,46.46702 z"
       id="path3928-4-6"
       sodipodi:nodetypes="cssssssss" />
    <path
       transform="matrix(0.26942508,0,0,0.20573917,553.63183,759.07701)"
       style="fill:#919191;fill-opacity:1;fill-rule:evenodd;stroke:#808080;stroke-width:8.21399975;stroke-linecap:round;stroke-linejoin:round;stroke-miterlimit:4;stroke-opacity:1;display:inline;filter:url(#filter3976-29)"
       d="m 136.30676,463.79074 c 0,18.1465 -3.28866,26.90093 -11.01531,31.11874 -7.72666,4.21781 -22.49583,-6.3332 -40.247843,-6.3332 -17.75201,0 -27.31216,19.07783 -36.341075,14.00734 -8.379439,-4.70575 -14.922084,-10.41419 -20.131106,-38.79288 -3.238615,-17.64393 3.917477,-30.53261 8.586355,-47.36912 7.234058,-26.08685 27.529305,-20.05054 55.699359,-18.34517 17.73307,1.07353 27.29322,23.77713 33.72235,35.4007 6.42914,11.62356 9.72727,12.16709 9.72727,30.31359 z"
       id="path3928-4-7"
       sodipodi:nodetypes="csssssssc" />
    <path
       transform="matrix(0.29793903,0,0,0.23349036,220.02505,711.47785)"
       style="fill:#a9a9a9;fill-opacity:1;fill-rule:evenodd;stroke:#808080;stroke-width:8.21399974999999930;stroke-linecap:round;stroke-linejoin:round;stroke-miterlimit:4;stroke-opacity:1;display:inline;filter:url(#filter3976-29)"
       d="m 84.18508,393.09696 c 19.8649,4.53163 46.25416,20.52162 62.04348,8.50732 24.66526,-18.7681 31.75232,42.66864 15.45556,56.96577 -14.71377,12.90836 -10.27878,46.04868 -25.34787,54.26431 C 121.26717,521.05 100.77636,554.16096 80.813261,540.6576 67.326914,531.53522 55.672237,505.34707 49.1973,493.17868 42.722362,481.01029 50.454991,463.24252 49.833633,449.67043 48.779178,426.63837 39.485623,412.4832 46.020528,402.2136 52.555434,391.944 64.320178,388.56533 84.18508,393.09696 z"
       id="path3928-4-2-5"
       sodipodi:nodetypes="cssssssss" />
    <path
       id="path3928-4-74"
       d="m 164.16838,466.20188 c -0.93954,13.69817 -25.87415,30.1008 -37.72683,42.33209 -11.85269,12.2313 -20.66176,-0.52577 -36.195626,-3.51292 -12.512296,-2.40609 -32.143336,15.11952 -41.410951,7.13588 -9.267616,-7.98365 -14.864009,-20.65952 -12.691415,-41.83451 2.356397,-22.96641 26.288749,-25.57734 33.753246,-37.65952 7.464497,-12.08217 -1.538861,-33.63559 15.252531,-40.95746 30.907745,-13.47728 36.224535,5.62172 55.119355,15.56005 23.16741,12.18564 24.95872,43.49611 23.89969,58.93639 z"
       style="fill:#9a9a9a;fill-opacity:1;fill-rule:evenodd;stroke:#808080;stroke-width:8.21399975;stroke-linecap:round;stroke-linejoin:round;stroke-miterlimit:4;stroke-opacity:1;display:inline;filter:url(#filter3976-29)"
       transform="matrix(0.20971295,0,0,0.23596272,741.00399,674.34893)"
       sodipodi:nodetypes="cssssssss" />
    <path
       transform="matrix(0.18050094,-0.01582351,0.01818251,0.20741043,749.42579,493.09095)"
       style="fill:#adadad;fill-opacity:1;fill-rule:evenodd;stroke:#808080;stroke-width:8.21399975;stroke-linecap:round;stroke-linejoin:round;stroke-miterlimit:4;stroke-opacity:1;display:inline;filter:url(#filter3976-29)"
       d="m 154.98358,467.42061 c 0.14507,12.1516 2.89235,28.53286 -2.68394,40.53162 -5.57629,11.99876 -19.98345,24.65119 -52.625334,14.23664 C 85.85625,517.78015 94.362932,500.84869 58.138065,502.41334 41.662081,503.12498 38.309541,479.4448 38.32057,466.01654 38.33159,452.59787 24.8529,441.4221 41.770221,415.27061 c 8.433368,-13.03665 27.955495,-15.91423 41.126112,-16.30966 13.838653,-0.41549 39.484047,9.55045 43.171327,33.91565 2.75763,18.22214 28.73117,19.06873 28.91592,34.54401 z"
       id="path3928-4-5"
       sodipodi:nodetypes="cssssssss" />
    <path
       style="fill:#9c9c9c;fill-opacity:1;fill-rule:evenodd;stroke:#808080;stroke-width:8.21399974999999930;stroke-linecap:round;stroke-linejoin:round;stroke-miterlimit:4;stroke-opacity:1;display:inline;filter:url(#filter3976-29)"
       d="m 325.17333,391.73068 c 0,9.07325 0.30672,18.27361 -3.87829,25.66957 -4.18501,7.39596 -8.89223,14.47609 -10.98103,22.28602 -2.14915,8.03554 -14.53346,4.90829 -23.14139,7.71123 -8.60793,2.80293 -13.43947,11.53604 -22.31547,11.53604 -8.87601,0 -15.46791,-2.30482 -22.22697,-5.86314 -6.75906,-3.55832 -7.23478,-9.85871 -16.7794,-14.8727 -7.36375,-3.86834 -20.59403,-9.961 -24.49659,-18.59292 -3.90257,-8.63191 -4.92791,-18.3145 -0.78275,-26.38553 4.65989,-9.07325 7.94731,-13.25129 10.03538,-21.11324 2.08806,-7.86195 2.97676,-19.4078 8.79347,-25.35378 5.81671,-5.94597 14.2315,-6.29207 21.92253,-9.61739 7.69104,-3.32533 14.65832,-9.62988 23.53433,-9.62988 8.876,0 15.84329,10.64946 23.53433,14.90677 7.69103,4.2573 15.11344,6.58816 20.93015,8.80622 7.77208,2.9637 17.9374,7.06668 20.70159,15.6742 2.76419,8.60752 -4.84989,15.76528 -4.84989,24.83853 z"
       id="path3928"
       sodipodi:nodetypes="csssssssssssssssc" />
    <path
       transform="matrix(0.81218054,0,0,0.672788,515.15467,-65.956426)"
       style="fill:#969696;fill-opacity:1;fill-rule:evenodd;stroke:#808080;stroke-width:8.21399974999999930;stroke-linecap:round;stroke-linejoin:round;stroke-miterlimit:4;stroke-opacity:1;display:inline;filter:url(#filter3976-29)"
       d="m 157.14285,463.79074 c 0,18.1465 5.78705,46.32928 -18.82885,46.46702 -15.24382,0.0754 -14.72237,34.91954 -45.45686,19.24727 -16.352945,-8.33877 -30.373988,-21.91537 -45.456864,-19.24727 -21.370284,3.78032 -18.82885,-28.32052 -18.82885,-46.46702 0,-18.1465 11.907979,-23.02457 18.82885,-46.46702 6.701666,-22.69996 18.332489,-17.44207 45.456864,-19.24727 27.45885,-1.82746 30.73376,14.47799 45.45686,19.24727 24.6159,7.97388 18.82885,28.32052 18.82885,46.46702 z"
       id="path3928-0"
       sodipodi:nodetypes="csssssssc" />
    <path
       transform="matrix(1.454017,0.22076002,-0.21654862,1.4262789,1283.6282,-122.84747)"
       style="fill:#8c8c8c;fill-opacity:1;fill-rule:evenodd;stroke:#666666;stroke-width:8.21399975;stroke-linecap:round;stroke-linejoin:round;stroke-miterlimit:4;stroke-opacity:1;display:inline;filter:url(#filter3976-29)"
       d="m 157.14285,463.79074 c 9.71368,3.1317 -1.79886,17.71702 -5.05189,25.57897 -3.25303,7.86195 -3.58909,19.39824 -9.4058,25.34421 -5.81671,5.94598 -16.47252,10.23846 -24.80512,9.62696 -8.6624,-0.63572 -15.17553,3.18363 -25.0229,5.16415 -8.708156,1.7514 -19.2746,-0.35344 -25.022901,-5.16415 -6.457063,-5.40388 -9.760411,-14.57383 -20.433963,-14.08312 -8.228912,0.37832 -10.523926,-13.0261 -13.77696,-20.88805 -3.253034,-7.86195 -10.539083,-15.47077 -13.308516,-24.09358 -2.914104,-9.07325 10.055482,-19.20241 13.308516,-27.06436 3.253034,-7.86195 1.646356,-21.37876 7.463069,-27.32473 5.816713,-5.94598 19.056818,-4.32111 26.747854,-7.64644 7.691037,-3.32532 16.146896,-5.16415 25.022901,-5.16415 8.876,0 17.33186,1.83883 25.0229,5.16415 7.69104,3.32533 22.06074,5.85104 20.43396,14.08312 -1.46854,7.43136 6.54235,16.59703 13.77696,20.88805 9.08124,5.3863 5.05189,16.50572 5.05189,25.57897 z"
       id="path3928-8"
       sodipodi:nodetypes="csssssssssssssssc" />
    <path
       id="path3928-4"
       d="m 97.525052,406.92013 c 13.226598,2.12618 42.342578,-2.85257 54.125828,3.05657 11.78326,5.90915 6.23378,22.70618 9.48923,44.64769 3.25545,21.9415 1.25596,54.74099 -14.26664,50.40889 -13.65158,-3.80994 -28.37926,17.50089 -46.83818,17.50941 -16.942261,0.008 -30.346505,-11.44594 -44.959704,-20.41298 -14.613199,-8.96704 -30.435353,-15.44735 -30.628069,-29.2289 -0.310725,-22.22069 17.223161,-30.33596 26.385774,-51.25049 13.69133,-31.25176 33.465162,-16.85637 46.691761,-14.73019 z"
       style="fill:#949494;fill-opacity:1;fill-rule:evenodd;stroke:#808080;stroke-width:8.21399974999999930;stroke-linecap:round;stroke-linejoin:round;stroke-miterlimit:4;stroke-opacity:1;display:inline;filter:url(#filter3976-29)"
       transform="matrix(0.18389919,0,0,0.1254262,233.49509,672.09008)"
       sodipodi:nodetypes="cssssssss" />
    <path
       transform="matrix(0.61730105,0,0,0.60760566,560.39348,452.84596)"
       style="fill:#969696;fill-opacity:1;fill-rule:evenodd;stroke:#808080;stroke-width:8.21399974999999930;stroke-linecap:round;stroke-linejoin:round;stroke-miterlimit:4;stroke-opacity:1;display:inline;filter:url(#filter3976-29)"
       d="m 165.68335,481.14429 c 0,18.1465 -17.42623,28.8006 -29.05965,40.69255 -11.63343,11.89195 -17.47405,30.21877 -35.22606,25.02174 -17.057926,-4.99383 -50.904435,-3.01693 -45.456867,-19.24727 5.326302,-15.86904 -20.533984,-25.43328 -18.82885,-46.46702 1.466111,-18.08527 -18.426067,-34.57507 18.82885,-46.46702 15.744143,-5.02561 28.649861,-13.44132 45.456867,-19.24727 21.73066,-7.50682 21.01269,24.70887 45.45686,19.24727 16.11778,-3.60122 1.74785,28.32052 18.82885,46.46702 z"
       id="path3928-9"
       sodipodi:nodetypes="csssssssc" />
    <path
       transform="matrix(0.98329503,0.18201892,-0.18201892,0.98329503,841.19959,14.558506)"
       style="fill:#949494;fill-opacity:0.9011628;fill-rule:evenodd;stroke:#808080;stroke-width:8.21399974999999930;stroke-linecap:round;stroke-linejoin:round;stroke-miterlimit:4;stroke-opacity:1;display:inline;filter:url(#filter3976-29)"
       d="m 157.14285,463.79074 c 0,18.1465 -4.55939,47.75521 -18.82885,46.46702 -16.56857,-1.49575 -30.82464,29.29874 -45.45686,19.24727 -23.024067,-15.81617 -39.264799,-3.80663 -45.456864,-19.24727 -8.997397,-22.43607 -29.03082,-31.45985 -18.82885,-46.46702 10.544115,-15.51047 1.923366,-45.11919 18.82885,-46.46702 16.583335,-1.32215 28.695083,-13.4012 45.456864,-19.24727 15.11598,-5.27206 33.82344,7.35532 45.45686,19.24727 11.63343,11.89195 -2.25938,28.32052 18.82885,46.46702 z"
       id="path3928-5"
       sodipodi:nodetypes="csssssssc" />
    <path
       transform="matrix(0.80202358,0,0,0.8443166,330.34148,460.05282)"
       style="fill:#8d8d8d;fill-opacity:1;fill-rule:evenodd;stroke:#747474;stroke-width:8.21399974999999930;stroke-linecap:round;stroke-linejoin:round;stroke-miterlimit:4;stroke-opacity:1;display:inline;filter:url(#filter3976-29)"
       d="m 157.58032,463.37518 c 0,9.07325 -4.42367,19.7948 -11.17645,24.74786 -7.03872,5.16279 -2.27316,16.18874 -8.08987,22.13472 -5.81671,5.94597 -14.21488,11.20742 -21.32949,9.7709 -9.02369,-1.82199 -16.4454,13.70008 -24.12737,9.47637 -10.038037,-5.51912 -18.493896,-7.35795 -25.894425,-9.30349 -7.400528,-1.94555 -11.995851,-5.66003 -17.812564,-11.606 -5.816713,-5.94598 -15.048171,-6.59501 -17.719781,-19.55251 -1.785356,-8.65911 -1.845652,-16.61461 1.078275,-25.25229 2.324064,-6.8656 -0.952866,-17.18117 1.149869,-26.43093 2.102735,-9.24976 5.647916,-17.43372 13.741762,-20.03609 11.626872,-3.73832 9.73697,-12.95514 24.791583,-12.42738 7.859687,0.27554 11.789277,-6.81989 20.665281,-6.81989 8.87601,0 17.87449,4.02122 26.93051,6.56775 9.05603,2.54652 22.54427,0.70945 22.90104,9.77063 0.24964,6.34032 -5.71752,19.50789 1.74087,24.0927 6.54505,4.02337 8.50263,15.7944 13.15076,24.86765 z"
       id="path3928-89"
       sodipodi:nodetypes="csssssssssssssssc" />
    <path
       transform="matrix(0.79146006,0,0,0.77801762,387.07873,-0.47523588)"
       style="fill:#808080;fill-opacity:1;fill-rule:evenodd;stroke:#686868;stroke-width:8.21399974999999930;stroke-linecap:round;stroke-linejoin:round;stroke-miterlimit:4;stroke-opacity:1;display:inline;filter:url(#filter3976-29)"
       d="m 157.14285,463.79074 c 5.763,11.32809 1.53173,18.56405 -0.056,26.84952 -1.58774,8.28546 -1.86188,14.91463 -18.77285,19.6175 -7.95422,2.21204 -14.7453,7.47621 -21.93574,11.62193 -7.19044,4.14572 -12.42858,0.86083 -23.52112,7.62534 -7.6129,4.64253 -16.124586,-0.0508 -23.211983,-4.73693 -7.087398,-4.68614 -14.013612,-14.00763 -22.244881,-14.51034 -14.143188,-0.86377 -22.840169,-11.55164 -22.238354,-22.03704 0.527709,-9.19426 3.409504,-15.35673 3.409504,-24.42998 0,-9.07325 -1.111614,-19.73299 2.016109,-27.02454 3.127722,-7.29155 10.494781,-11.21491 16.812741,-19.44248 7.849497,-10.22202 18.534029,-8.31947 22.845167,-14.58434 4.966302,-7.21696 16.838846,0.29771 25.714851,0.29771 8.876006,0 15.894006,-6.50994 24.417686,-4.87869 8.52369,1.63126 23.87274,3.28631 26.35887,16.00855 1.60779,8.22757 -2.10784,18.46447 2.19742,25.75602 4.30526,7.29155 4.10914,15.80968 8.20858,23.86777 z"
       id="path3928-50"
       sodipodi:nodetypes="cssssssssssssssss" />
    <path
       style="fill:#979797;fill-opacity:1;fill-rule:evenodd;stroke:#808080;stroke-width:8.21399974999999930;stroke-linecap:round;stroke-linejoin:round;stroke-miterlimit:4;stroke-opacity:1;display:inline;filter:url(#filter3976-29)"
       d="m 444.85715,650.36213 c 0,18.1465 -7.19542,38.30298 -18.82885,46.46702 -13.61734,9.5563 -29.23015,26.44642 -45.45686,19.24727 -25.20783,-11.18372 -41.94571,-2.98606 -45.45686,-19.24727 -4.17762,-19.34776 -18.82885,-28.32052 -18.82885,-46.46702 0,-18.1465 16.51519,-27.11926 18.82885,-46.46702 1.97529,-16.51827 27.70485,-19.24727 45.45686,-19.24727 17.75201,0 33.82344,7.35532 45.45686,19.24727 11.63343,11.89195 7.64513,28.32052 18.82885,46.46702 z"
       id="path3928-95"
       sodipodi:nodetypes="csssssssc" />
    <path
       transform="matrix(0.33957483,0,0,0.29999636,694.75378,198.36945)"
       style="fill:#9f9f9f;fill-opacity:1;fill-rule:evenodd;stroke:#808080;stroke-width:8.21399974999999930;stroke-linecap:round;stroke-linejoin:round;stroke-miterlimit:4;stroke-opacity:1;display:inline;filter:url(#filter3976-29)"
       d="m 158.17608,474.31668 c -5.89093,16.85197 -3.15036,35.40266 -19.99257,41.16687 -13.6528,4.67265 -25.50789,-11.70859 -43.259902,-0.0131 -15.342454,10.10801 -38.011081,13.62869 -46.055542,-5.31448 -6.644157,-15.64572 -14.537565,-29.43006 -20.29664,-46.36523 -12.14724,-35.72024 9.110825,-45.49122 15.917825,-59.64732 12.603768,-26.21129 30.61588,-6.06697 48.367889,-6.06697 17.75201,0 27.33863,18.14886 39.47513,32.07513 12.13649,13.92626 33.02227,23.62993 25.84381,44.1651 z"
       id="path3928-52"
       sodipodi:nodetypes="cssssssss" />
    <path
       transform="matrix(0.61728541,0.00439467,-0.00432564,0.60759027,752.54723,425.9873)"
       style="fill:#8a8a8a;fill-opacity:1;fill-rule:evenodd;stroke:#747474;stroke-width:8.21399974999999930;stroke-linecap:round;stroke-linejoin:round;stroke-miterlimit:4;stroke-opacity:1;display:inline;filter:url(#filter3976-29)"
       d="m 157.14285,463.79074 c 0,18.1465 -2.88235,50.78415 -18.82885,46.46702 -20.17392,-5.4616 -28.30679,23.90397 -45.45686,19.24727 C 70.069024,523.31744 59.033702,522.14971 47.400276,510.25776 35.76685,498.36581 45.65242,481.93724 28.571426,463.79074 16.226636,450.67589 14.415608,424.87728 47.400276,417.32372 63.499324,413.637 61.523339,402.07853 79.275348,402.07853 c 17.75201,0 51.675482,-31.35386 59.038652,15.24519 2.61578,16.55434 48.72059,19.64374 18.82885,46.46702 z"
       id="path3928-04"
       sodipodi:nodetypes="csssssssc" />
    <path
       transform="matrix(0.7919154,0,0,0.76053398,298.46501,-148.08078)"
       style="fill:#9d9d9d;fill-opacity:1;fill-rule:evenodd;stroke:#808080;stroke-width:8.21399974999999930;stroke-linecap:round;stroke-linejoin:round;stroke-miterlimit:4;stroke-opacity:1;display:inline;filter:url(#filter3976-29)"
       d="m 162.03955,465.17474 c 0,9.07325 9.94782,16.33302 8.35912,24.19497 -1.58869,7.86195 -0.53622,18.17141 -18.76997,20.88805 -8.06903,1.2022 -17.14992,0.64139 -24.29765,4.40904 -7.14773,3.76765 -7.27428,13.73306 -21.15921,14.83823 -11.062938,0.88055 -18.634399,10.29711 -30.20016,-5.8241 -5.834684,-8.13282 -16.501178,-9.92804 -22.317891,-15.87402 -5.816713,-5.94597 -9.308602,-14.01752 -6.278795,-21.06019 4.708366,-10.94443 4.674807,-15.74615 -0.615289,-22.95598 -6.657349,-9.07325 -5.870692,-16.26133 -4.814702,-25.57897 0.794437,-7.0098 7.754687,-17.41795 18.769972,-20.88805 7.801965,-2.45782 10.214628,-11.458 12.944445,-17.98239 3.865372,-9.23843 13.65039,-6.46391 32.51242,-1.26488 8.58046,2.36508 20.72853,7.17264 30.37735,5.15847 14.05416,-2.93379 16.69761,5.77017 15.07951,14.0888 -2.50497,12.87802 2.20224,19.95815 7.5357,26.08709 5.33345,6.12894 2.87515,12.69068 2.87515,21.76393 z"
       id="path3928-6"
       sodipodi:nodetypes="csssssssssssssssc" />
    <path
       transform="matrix(0.7919154,0,0,0.76053398,87.036438,217.63351)"
       style="fill:#8e8e8e;fill-opacity:1;fill-rule:evenodd;stroke:#808080;stroke-width:8.21399974999999930;stroke-linecap:round;stroke-linejoin:round;stroke-miterlimit:4;stroke-opacity:1;display:inline;filter:url(#filter3976-29)"
       d="m 157.14285,463.79074 c 4.87358,13.68659 -0.96413,19.01107 -3.79979,27.52004 -2.83567,8.50897 -7.54289,15.5891 -15.02906,18.94698 -10.52417,4.72055 -11.24764,12.76171 -23.96455,13.16405 -7.3857,0.23367 -13.25005,2.65359 -21.49231,6.08322 -15.521796,6.45868 -16.812323,-1.82372 -24.243589,-5.14148 -7.431266,-3.31777 -14.35748,-8.12959 -21.213275,-14.10579 -7.136609,-6.22099 -10.07161,0.0776 -14.766882,-21.09431 -1.80785,-8.15195 -6.720285,-11.22478 -2.289757,-25.83404 2.623913,-8.65212 -5.289988,-14.19213 5.051891,-20.98363 5.831983,-3.82986 6.188035,-12.94896 12.004748,-25.02206 3.655071,-7.58642 4.378545,-13.78224 19.255784,-11.16144 8.572719,1.51018 17.325076,-8.08583 26.20108,-8.08583 8.87601,0 16.16191,6.91351 22.38187,10.23883 6.21995,3.32532 10.48785,-0.62821 23.07499,9.00844 6.56715,5.02778 12.4757,5.26659 14.9085,19.22043 1.53266,8.7909 3.92035,18.17334 3.92035,27.24659 z"
       id="path3928-6-3"
       sodipodi:nodetypes="csssssssssssssssc" />
    <path
       id="path3928-4-4"
       d="M 99.060572,530.25846 C 84.120154,530.72914 63.610345,527.03559 50.533665,514.01328 37.456978,500.99096 43.958034,491.61315 42.107647,475.28296 40.449431,460.64873 20.438951,437.70376 30.850232,426.12144 39.977571,415.96748 70.125293,409.6839 84.881467,408.5493 c 16.284923,-1.25215 33.069203,16.01691 46.155873,24.54403 15.4334,10.05623 32.4594,13.83237 34.09371,30.55058 1.74699,17.87087 -7.25,40.05844 -17.80178,49.88314 -10.55178,9.82471 -33.6087,16.26956 -48.268698,16.73141 z"
       style="fill:#949494;fill-opacity:1;fill-rule:evenodd;stroke:#808080;stroke-width:8.21399974999999930;stroke-linecap:round;stroke-linejoin:round;stroke-miterlimit:4;stroke-opacity:1;display:inline;filter:url(#filter3976-29)"
       transform="matrix(0.18119319,0,0,0.20820588,305.24605,426.60294)"
       sodipodi:nodetypes="cssssssss" />
    <path
       id="path3928-4-2"
       d="m 156.98882,426.10275 c 3.23636,18.79504 7.28207,52.75871 -3.66327,73.10423 -10.94534,20.34553 -12.15162,27.0729 -45.32699,27.45956 -12.756862,0.14868 -34.512874,-10.99538 -41.903878,-21.3692 -7.391003,-10.37381 -25.147114,-19.97737 -27.54893,-40.79049 -2.621182,-22.71406 -7.318456,-43.48023 3.648176,-56.98715 10.966632,-13.50692 37.59717,-19.75458 50.526632,-19.44232 13.20939,0.31902 32.48761,-12.40606 44.50267,-7.33315 12.01505,5.07292 16.76692,27.94384 19.76559,45.35852 z"
       style="fill:#a8a8a8;fill-opacity:1;fill-rule:evenodd;stroke:#808080;stroke-width:8.21399974999999930;stroke-linecap:round;stroke-linejoin:round;stroke-miterlimit:4;stroke-opacity:1;display:inline;filter:url(#filter3976-29)"
       transform="matrix(0.29793903,0,0,0.23349036,613.61357,295.67824)"
       sodipodi:nodetypes="cssssssss" />
    <path
       id="path3928-4-1"
       d="m 88.750457,407.1943 c 16.250483,-11.14259 39.232513,-9.85729 52.854283,-8.51191 13.62177,1.34537 9.32917,11.38044 19.92943,32.29235 17.53725,34.59702 -6.47711,36.44014 -5.36908,46.33862 2.77092,24.75386 -8.6105,14.81198 -20.57323,20.16141 -15.51426,6.93758 -47.268047,10.45068 -59.250021,-4.33439 -12.593909,-15.54017 -37.62208,-3.70422 -40.908977,-22.07498 -2.32188,-12.9772 5.818491,-24.85237 9.824939,-38.36699 6.942664,-23.41911 27.194464,-14.32881 43.492656,-25.50411 z"
       style="fill:#8b8b8b;fill-opacity:1;fill-rule:evenodd;stroke:#808080;stroke-width:8.21399974999999930;stroke-linecap:round;stroke-linejoin:round;stroke-miterlimit:4;stroke-opacity:1;display:inline;filter:url(#filter3976-29)"
       transform="matrix(0.18119319,0,0,0.20820588,276.96178,168.00389)"
       sodipodi:nodetypes="cssssssss" />
    <path
       id="path3928-4-12"
       d="m 141.84014,468.52784 c -1.97335,28.83294 -27.35289,31.72064 -32.09928,37.10404 -4.74639,5.38339 -4.11773,21.81948 -26.844147,22.98439 -27.472408,1.40819 -19.413383,-7.49978 -34.452153,-17.52878 -7.32497,-4.88485 1.181926,-32.19049 -5.199704,-46.50321 -9.973906,-22.36947 16.382783,-25.01968 19.795206,-47.35807 1.619409,-10.60097 17.917906,0.66823 32.363321,2.23002 29.823417,3.22441 30.122687,-12.441 33.724937,-3.36383 8.56162,21.57412 13.94639,34.39687 12.71182,52.43544 z"
       style="fill:#909090;fill-opacity:1;fill-rule:evenodd;stroke:#808080;stroke-width:8.21399974999999930;stroke-linecap:round;stroke-linejoin:round;stroke-miterlimit:4;stroke-opacity:1;display:inline;filter:url(#filter3976-29)"
       transform="matrix(0.29893504,0,0,0.20501361,128.64786,363.43373)"
       sodipodi:nodetypes="cssssssss" />
    <path
       transform="matrix(0.27055998,0,0,0.17773919,573.7295,74.695596)"
       style="fill:#979797;fill-opacity:1;fill-rule:evenodd;stroke:#808080;stroke-width:8.21399974999999930;stroke-linecap:round;stroke-linejoin:round;stroke-miterlimit:4;stroke-opacity:1;display:inline;filter:url(#filter3976-29)"
       d="m 155.2624,500.75092 c -6.63818,13.49948 -14.4703,22.99209 -28.6534,24.45436 -14.1831,1.46227 -25.45975,15.56404 -42.337708,-6.30559 -7.282255,-9.43599 -20.825866,-6.88494 -30.088763,-14.21482 -9.262898,-7.32988 -27.952718,1.36459 -16.623472,-36.50978 5.557991,-18.58071 11.220935,-18.02819 22.377154,-29.11556 19.75102,-19.62912 30.306307,1.25586 45.010339,0.77513 21.86558,-0.71486 38.85869,-6.98516 44.28795,12.47808 3.98746,14.29454 25.23054,9.3875 6.0279,48.43818 z"
       id="path3928-4-3"
       sodipodi:nodetypes="cssssssss" />
    <path
       id="path3928-52-8"
       d="m 146.47234,474.83023 c 0.22939,18.14192 -7.40415,29.56446 -25.25152,32.9341 -13.85314,2.61551 -19.22229,26.82571 -36.974297,26.82571 -17.752009,0 -42.593398,15.12841 -54.419044,-7.10902 -8.994267,-16.9132 -10.635548,-49.0115 -10.635548,-67.158 0,-18.1465 21.431183,-26.25632 32.311917,-45.16908 14.562631,-25.31258 37.375593,-17.9491 55.127602,-17.94865 21.94842,5.5e-4 11.95915,32.4644 23.83333,40.35789 15.85732,10.54132 15.79641,20.5675 16.00756,37.26705 z"
       style="fill:#919191;fill-opacity:1;fill-rule:evenodd;stroke:#808080;stroke-width:8.21399974999999930;stroke-linecap:round;stroke-linejoin:round;stroke-miterlimit:4;stroke-opacity:1;display:inline;filter:url(#filter3976-29)"
       transform="matrix(0.36813224,0,0,0.2992483,399.00421,364.17525)"
       sodipodi:nodetypes="cssssssss" />
    <path
       transform="matrix(0.18119319,0,0,0.20820588,150.71571,570.36034)"
       style="fill:#9a9a9a;fill-opacity:1;fill-rule:evenodd;stroke:#808080;stroke-width:8.21399974999999930;stroke-linecap:round;stroke-linejoin:round;stroke-miterlimit:4;stroke-opacity:1;display:inline;filter:url(#filter3976-29)"
       d="m 137.6428,460.63389 c -8.32235,12.40049 5.65149,45.1769 -0.22517,54.73768 -5.87666,9.56079 -17.23551,2.56861 -42.800283,4.2896 -22.619699,1.52273 -34.985376,16.70902 -44.458835,-7.01314 -4.066686,-10.18325 7.181956,-32.42765 11.622232,-51.72591 3.197897,-13.89865 -1.988442,-25.56912 2.462273,-42.56907 4.450715,-16.99994 3.04738,-32.58872 21.556839,-27.36142 49.837874,14.07483 51.865264,-6.12373 75.880964,8.69442 25.27052,15.59239 -8.55416,37.87652 -24.03802,60.94784 z"
       id="path3928-4-4-2"
       sodipodi:nodetypes="cssssssss" />
    <path
       transform="matrix(1.454017,0.22076002,-0.21654862,1.4262789,564.91431,-135.5518)"
       style="fill:#b2b2b2;fill-opacity:1;fill-rule:evenodd;stroke:#909090;stroke-width:8.21399974999999930;stroke-linecap:round;stroke-linejoin:round;stroke-miterlimit:4;stroke-opacity:1;display:inline;filter:url(#filter3976-29)"
       d="m 157.14285,463.79074 c 9.71368,3.1317 -1.79886,17.71702 -5.05189,25.57897 -3.25303,7.86195 -3.58909,19.39824 -9.4058,25.34421 -5.81671,5.94598 -16.47252,10.23846 -24.80512,9.62696 -8.6624,-0.63572 -16.035,-2.58727 -25.0229,5.16415 -6.776416,5.84417 -19.2746,-0.35344 -25.022901,-5.16415 C 61.377176,518.937 58.073828,509.76705 47.400276,510.25776 39.171364,510.63608 38.190308,493.09233 34.937274,485.23038 31.68424,477.36843 23.084233,473.89894 20.3148,465.27613 c -2.914104,-9.07325 11.819619,-18.66768 13.308516,-27.06436 1.879832,-10.60137 1.646356,-21.37876 7.463069,-27.32473 5.816713,-5.94598 19.056818,-4.32111 26.747854,-7.64644 7.691037,-3.32532 16.66063,-8.19563 25.536635,-8.19563 8.875996,0 16.818126,4.87031 24.509166,8.19563 7.69104,3.32533 22.06074,5.85104 20.43396,14.08312 -1.46854,7.43136 6.54235,16.59703 13.77696,20.88805 9.08124,5.3863 5.05189,16.50572 5.05189,25.57897 z"
       id="path3928-8-5"
       sodipodi:nodetypes="csssssssssssssssc" />
    <path
       sodipodi:nodetypes="cssssssss"
       transform="matrix(0.29793903,0,0,0.23349036,697.08968,532.82925)"
       style="fill:#979797;fill-opacity:1;fill-rule:evenodd;stroke:#808080;stroke-width:8.21399975;stroke-linecap:round;stroke-linejoin:round;stroke-miterlimit:4;stroke-opacity:1;display:inline;filter:url(#filter3976-29)"
       d="m 175.83081,426.10275 c 3.23636,18.79504 9.63732,70.79082 -1.30802,91.13634 -10.94534,20.34553 -33.34886,9.04079 -66.52423,9.42745 -12.756862,0.14868 -39.223372,7.03673 -46.614376,-3.33709 -7.391003,-10.37381 10.181622,-38.00948 7.779806,-58.8226 -2.621182,-22.71406 -68.55493206,-58.50699 -57.5883,-72.01391 10.966632,-13.50692 44.662917,-34.78134 57.592379,-34.46908 13.20939,0.31902 56.040101,17.64746 68.055161,22.72037 12.01505,5.07292 35.60891,27.94384 38.60758,45.35852 z"
       id="path3712" />
    <path
       sodipodi:nodetypes="cssssssss"
       transform="matrix(0.18389919,0,0,0.1254262,466.40136,620.34059)"
       style="fill:#adadad;fill-opacity:1;fill-rule:evenodd;stroke:#808080;stroke-width:8.21399975;stroke-linecap:round;stroke-linejoin:round;stroke-miterlimit:4;stroke-opacity:1;display:inline;filter:url(#filter3976-29)"
       d="m 101.34084,362.16262 c 13.2266,2.12618 38.52679,41.90494 50.31004,47.81408 11.78326,5.90915 21.49694,22.70618 24.75239,44.64769 3.25545,21.9415 -10.19141,105.09319 -25.71401,100.76109 -13.65158,-3.80994 -39.82663,-4.87786 -58.285549,-4.86934 -16.942261,0.008 -22.714926,-0.25656 -37.328125,-9.2236 -14.613199,-8.96704 -30.435353,-54.61018 -30.628069,-68.39173 -0.310725,-22.22069 -9.487367,-41.52534 -0.324754,-62.43987 13.69133,-31.25176 63.99148,-50.4245 77.218077,-48.29832 z"
       id="path3714" />
    <path
       sodipodi:nodetypes="cssssssss"
       id="path3716"
       d="m 165.63674,500.75092 c -6.63818,13.49948 -24.84464,22.99209 -39.02774,24.45436 -14.1831,1.46227 -26.718369,26.45019 -43.596329,4.58056 -7.282254,-9.43599 -19.567245,-17.77109 -28.830142,-25.10097 -9.262898,-7.32988 -27.952718,1.36459 -16.623472,-36.50978 5.557991,-18.58071 25.263165,-20.5393 36.419384,-31.62667 19.75102,-19.62912 31.825599,-31.76535 46.529629,-32.24608 21.86558,-0.71486 32.46688,17.38043 37.89614,36.84367 3.98746,14.29454 26.43517,20.55423 7.23253,59.60491 z"
       style="fill:#979797;fill-opacity:1;fill-rule:evenodd;stroke:#808080;stroke-width:8.21399975;stroke-linecap:round;stroke-linejoin:round;stroke-miterlimit:4;stroke-opacity:1;display:inline;filter:url(#filter3976-29)"
       transform="matrix(0.27055998,0,0,0.17773919,466.47718,123.11432)" />
    <path
       sodipodi:nodetypes="csccsssc"
       id="path3718"
       d="m 119.37744,448.44246 c 0,12.17772 -9.14881,12.40533 -16.87546,16.62314 -7.726663,4.21781 -16.635687,14.13117 -29.829801,14.13117 -10.071266,1.10099 -20.689878,0.95613 -24.566919,-11.9953 -3.238615,-17.64393 -0.837074,-24.15682 4.679588,-40.54766 3.327291,-9.88589 13.204493,-20.05054 23.794097,-18.34517 17.619277,2.83744 27.355755,-1.86222 33.722355,9.82023 4.47576,8.21283 9.72727,19.84123 9.07614,30.31359 z"
       style="fill:#909090;fill-opacity:1;fill-rule:evenodd;stroke:#808080;stroke-width:8.21399975;stroke-linecap:round;stroke-linejoin:round;stroke-miterlimit:4;stroke-opacity:1;display:inline;filter:url(#filter3976-29)"
       transform="matrix(0.26942508,0,0,0.20573917,682.39757,724.72326)" />
    <path
       clip-path="url(#clipPath6711-2)"
       sodipodi:type="arc"
       style="opacity:0.17000002;fill:url(#radialGradient3687);fill-opacity:1;fill-rule:evenodd;stroke:none;display:inline;filter:url(#filter4833-4-3)"
       id="path2816-6-9"
       sodipodi:cx="260"
       sodipodi:cy="566.64789"
       sodipodi:rx="354.28571"
       sodipodi:ry="325.71429"
       d="m 614.28571,566.64789 a 354.28571,325.71429 0 1 1 -708.571416,0 354.28571,325.71429 0 1 1 708.571416,0 z"
       transform="matrix(1.2190502,0,0,1.2862774,205.90145,-187.10427)" />
    <path
       transform="matrix(1.2481978,0,0,1.354495,187.46859,-227.15958)"
       d="m 614.28571,566.64789 a 354.28571,325.71429 0 1 1 -708.571416,0 354.28571,325.71429 0 1 1 708.571416,0 z"
       sodipodi:ry="325.71429"
       sodipodi:rx="354.28571"
       sodipodi:cy="566.64789"
       sodipodi:cx="260"
       id="path3720"
       style="opacity:0.22596154;fill:url(#radialGradient3914);fill-opacity:1;fill-rule:evenodd;stroke:none;display:inline;filter:url(#filter3689)"
       sodipodi:type="arc" />
  </g>
  <g
     inkscape:groupmode="layer"
     id="layer2"
     inkscape:label="above"
     style="display:inline"
     transform="translate(0,-28.36217)" />
</svg>
