<?xml version="1.0" encoding="UTF-8" standalone="no"?>
<!-- Created with Inkscape (http://www.inkscape.org/) -->

<svg
   xmlns:dc="http://purl.org/dc/elements/1.1/"
   xmlns:cc="http://creativecommons.org/ns#"
   xmlns:rdf="http://www.w3.org/1999/02/22-rdf-syntax-ns#"
   xmlns:svg="http://www.w3.org/2000/svg"
   xmlns="http://www.w3.org/2000/svg"
   xmlns:xlink="http://www.w3.org/1999/xlink"
   xmlns:sodipodi="http://sodipodi.sourceforge.net/DTD/sodipodi-0.dtd"
   xmlns:inkscape="http://www.inkscape.org/namespaces/inkscape"
   width="256"
   height="256"
   id="svg2"
   sodipodi:version="0.32"
   inkscape:version="0.47pre2 r22153"
   version="1.0"
   sodipodi:docname="big_1.svg"
   inkscape:export-filename="C:\Dateien\Desktop\Secret Maryo Chronicles\SMC\data\pixmaps\ground\green_2\hedges\big_1.png"
   inkscape:export-xdpi="180"
   inkscape:export-ydpi="180"
   inkscape:output_extension="org.inkscape.output.svg.inkscape"
   style="display:inline">
  <defs
     id="defs4">
    <linearGradient
       id="linearGradient4003">
      <stop
         style="stop-color:#0cbc00;stop-opacity:1;"
         offset="0"
         id="stop4005" />
      <stop
         style="stop-color:#08500c;stop-opacity:1;"
         offset="1"
         id="stop4007" />
    </linearGradient>
    <linearGradient
       id="linearGradient3985">
      <stop
         style="stop-color:#02d300;stop-opacity:1"
         offset="0"
         id="stop3987" />
      <stop
         style="stop-color:#00b80b;stop-opacity:1;"
         offset="1"
         id="stop3989" />
    </linearGradient>
    <filter
       id="filter3629"
       inkscape:label="lighting big"
       inkscape:menu="ABCs"
       inkscape:menu-tooltip="Basic diffuse bevel to use for building textures"
       color-interpolation-filters="sRGB">
      <feGaussianBlur
         id="feGaussianBlur3631"
         stdDeviation="8"
         in="SourceGraphic"
         result="result0" />
      <feDiffuseLighting
         id="feDiffuseLighting3633"
         diffuseConstant="1"
         surfaceScale="9"
         result="result5">
        <feDistantLight
           id="feDistantLight3635"
           elevation="40"
           azimuth="237" />
      </feDiffuseLighting>
      <feComposite
         id="feComposite3637"
         in2="SourceGraphic"
         k1="0.69999999999999996"
         in="result5"
         result="result4"
         operator="arithmetic"
         k2="0"
         k3="0.5"
         k4="0" />
      <feMorphology
         id="feMorphology3639"
         operator="erode"
         radius="1.7" />
      <feGaussianBlur
         stdDeviation="3"
         id="feGaussianBlur3641" />
    </filter>
    <filter
       id="filter3902"
       inkscape:menu-tooltip="Draws a black outline around"
       inkscape:menu="ABCs"
       inkscape:label="black outline">
      <feGaussianBlur
         id="feGaussianBlur3904"
         stdDeviation="1.5"
         in="SourceAlpha"
         result="result0" />
      <feComposite
         id="feComposite3906"
         in2="result0"
         result="result3"
         operator="arithmetic"
         in="SourceGraphic"
         k2="1"
         k3="10" />
      <feComposite
         id="feComposite3908"
         in2="result3"
         k2="1"
         operator="in"
         in="result3"
         result="result4" />
    </filter>
    <filter
       color-interpolation-filters="sRGB"
       inkscape:menu-tooltip="Basic diffuse bevel to use for building textures"
       inkscape:menu="ABCs"
       inkscape:label="lighting medium"
       id="filter4035">
      <feGaussianBlur
         result="result0"
         in="SourceGraphic"
         stdDeviation="6"
         id="feGaussianBlur4037" />
      <feDiffuseLighting
         result="result5"
         surfaceScale="6"
         diffuseConstant="1"
         id="feDiffuseLighting4039">
        <feDistantLight
           azimuth="237"
           elevation="40"
           id="feDistantLight4041" />
      </feDiffuseLighting>
      <feComposite
         k4="0"
         k3="0.5"
         k2="0"
         operator="arithmetic"
         result="result4"
         in="result5"
         k1="0.69999999999999996"
         in2="SourceGraphic"
         id="feComposite4043" />
      <feMorphology
         radius="1.2"
         operator="erode"
         id="feMorphology4045" />
      <feGaussianBlur
         id="feGaussianBlur4047"
         stdDeviation="2" />
    </filter>
    <filter
       id="filter4075"
       inkscape:label="turbulence">
      <feTurbulence
         id="feTurbulence4077"
         in="SourceGraphic"
         baseFrequency="0.28999999999999998"
         seed="398" />
      <feColorMatrix
         id="feColorMatrix4079"
         result="result2"
         values="0 1.3 0 0 0 0.2 2.8 0.1 0.9 0 0 0 1 0 0 0.05 0.12 0.08 0.05 0 " />
      <feMorphology
         id="feMorphology4081"
         result="result1"
         in="SourceGraphic"
         operator="erode"
         radius="1" />
      <feComposite
         id="feComposite4083"
         in2="result1"
         in="result2"
         operator="in" />
    </filter>
    <linearGradient
       inkscape:collect="always"
       xlink:href="#linearGradient3985"
       id="linearGradient3752"
       x1="110.10313"
       y1="-75.489113"
       x2="154.55882"
       y2="141.72301"
       gradientUnits="userSpaceOnUse" />
    <linearGradient
       inkscape:collect="always"
       xlink:href="#linearGradient3985"
       id="linearGradient3760"
       x1="82.220268"
       y1="53.491486"
       x2="96.202065"
       y2="138.8248"
       gradientUnits="userSpaceOnUse" />
    <linearGradient
       inkscape:collect="always"
       xlink:href="#linearGradient4003"
       id="linearGradient3772"
       gradientUnits="userSpaceOnUse"
       gradientTransform="translate(0,-130)"
       x1="91.917236"
       y1="181.49149"
       x2="100.08086"
       y2="264.88541" />
    <linearGradient
       inkscape:collect="always"
       xlink:href="#linearGradient4003"
       id="linearGradient3776"
       gradientUnits="userSpaceOnUse"
       gradientTransform="translate(0,-128)"
       x1="115.92131"
       y1="48.632103"
       x2="162.31639"
       y2="260.02603" />
  </defs>
  <sodipodi:namedview
     id="base"
     pagecolor="#000000"
     bordercolor="#666666"
     borderopacity="1.0"
     inkscape:pageopacity="0"
     inkscape:pageshadow="2"
     inkscape:zoom="1.03125"
     inkscape:cx="84.160855"
     inkscape:cy="121.12192"
     inkscape:document-units="px"
     inkscape:current-layer="layer1"
     width="128px"
     height="128px"
     showgrid="false"
     gridtolerance="10000"
     inkscape:grid-points="true"
     inkscape:window-width="1104"
     inkscape:window-height="848"
     inkscape:window-x="114"
     inkscape:window-y="55"
     inkscape:window-maximized="0"
     inkscape:snap-nodes="false"
     inkscape:snap-to-guides="false">
    <inkscape:grid
       id="GridFromPre046Settings"
       type="xygrid"
       originx="0px"
       originy="0px"
       spacingx="4px"
       spacingy="4px"
       color="#0000ff"
       empcolor="#0000ff"
       opacity="0.2"
       empopacity="0.4"
       empspacing="5"
       visible="true"
       enabled="true"
       snapvisiblegridlinesonly="true" />
  </sodipodi:namedview>
  <metadata
     id="metadata7">
    <rdf:RDF>
      <cc:Work
         rdf:about="">
        <dc:format>image/svg+xml</dc:format>
        <dc:type
           rdf:resource="http://purl.org/dc/dcmitype/StillImage" />
        <dc:title></dc:title>
      </cc:Work>
    </rdf:RDF>
  </metadata>
  <g
     inkscape:label="hill_big"
     inkscape:groupmode="layer"
     id="layer1"
     style="display:inline"
     transform="translate(0,128)">
    <path
       style="color:#000000;fill:url(#linearGradient3776);fill-opacity:1;fill-rule:nonzero;stroke:none;stroke-width:1;marker:none;visibility:visible;display:inline;overflow:visible;filter:url(#filter3902);enable-background:accumulate"
       d="m 125.625,-87.28125 c -5.28637,0 -9.89082,3.594902 -12.4375,8.9375 -1.53127,-0.763063 -3.22599,-1.15625 -5,-1.15625 -5.50644,0 -10.189151,4.072049 -11.90625,9.75 -0.235615,-0.04284 -0.478763,-0.0625 -0.71875,-0.0625 -5.033315,0 -9.145394,9.575411 -9.625,21.84375 -6.747718,2.209803 -11.75,10.178023 -11.75,19.71875 0,1.20079 0.09811,2.38751 0.25,3.53125 -6.786305,1.76009 -11.84375,8.24747 -11.84375,16 0,1.20357 0.113257,2.36975 0.34375,3.5 -9.039047,2.37644 -15.78125,11.63573 -15.78125,22.6875 0,1.77418 0.170952,3.49581 0.5,5.15625 -5.91666,2.50254 -10.09375,8.35925 -10.09375,15.1875 0,1.25082 0.173551,2.45393 0.4375,3.625 -5.855898,2.47522 -10.1875,11.20076 -10.1875,21.59375 0,3.2147 0.411073,6.2703 1.15625,9.03125 -6.186244,1.35631 -10.84375,7.22092 -10.84375,14.25 0,1.46036 0.188754,2.85765 0.5625,4.1875 -4.859768,2.50943 -8.25,8.37047 -8.25,15.1875 0,2.73177 0.531416,5.32519 1.5,7.59375 -3.1888257,2.63942 -5.28125,6.93879 -5.28125,11.8125 0,8.03323 0.625,12.90625 0.625,12.90625 l 244.40625,0 c 0,0 0.5,-1.97222 0.5,-13.21875 0,-7.04726 -2.90838,-13.25047 -7.3125,-16.90625 1.0927,-2.44115 1.71875,-5.27966 1.71875,-8.3125 0,-6.50416 -2.87871,-12.09916 -7.0625,-14.78125 0.87417,-2.50738 1.375,-5.33668 1.375,-8.34375 0,-8.13078 -3.59345,-15.02382 -8.59375,-17.46875 0.57851,-2.07265 0.90625,-4.33117 0.90625,-6.71875 0,-6.00493 -2.01575,-11.29683 -5.09375,-14.4375 0.81114,-2.04965 1.28125,-4.34805 1.28125,-6.78125 0,-7.74658 -4.62685,-14.15168 -10.65625,-15.3125 1.79993,-2.46782 2.875,-5.56279 2.875,-8.9375 0,-8.03323 -6.06482,-14.53125 -13.5625,-14.53125 -0.39421,0 -0.77057,0.0272 -1.15625,0.0625 0.73232,-2.08915 1.15625,-4.39519 1.15625,-6.84375 0,-5.37313 -1.98883,-10.14673 -5.03125,-13.15625 0.73604,-1.624181 1.15625,-3.406829 1.15625,-5.28125 0,-7.24389 -6.0937,-13.138854 -13.75,-13.53125 0.10207,-0.64905 0.15625,-1.324497 0.15625,-2 0,-6.631684 -5.0768,-12.125579 -11.8125,-13.3125 0.12379,-0.712654 0.1875,-1.442217 0.1875,-2.1875 0,-7.497684 -6.49802,-13.5625 -14.53125,-13.5625 -2.74127,0 -5.31129,0.707083 -7.5,1.9375 -3.1892,-2.496218 -7.73882,-4.0625 -12.8125,-4.0625 -2.21368,0 -4.3326,0.300884 -6.28125,0.84375 -2.59115,-5.070844 -7.0951,-8.4375 -12.21875,-8.4375 z"
       id="path3695"
       sodipodi:nodetypes="ccscscscscscscscscscsccscscscscscsscscscscsscscc" />
    <path
       sodipodi:type="inkscape:offset"
       inkscape:radius="0"
       inkscape:original="M 125.625 -87.28125 C 120.33863 -87.28125 115.73418 -83.686348 113.1875 -78.34375 C 111.65623 -79.106813 109.96151 -79.5 108.1875 -79.5 C 102.68106 -79.5 97.998349 -75.427951 96.28125 -69.75 C 96.045635 -69.79284 95.802487 -69.8125 95.5625 -69.8125 C 90.529185 -69.8125 86.417106 -60.237089 85.9375 -47.96875 C 79.189782 -45.758947 74.1875 -37.790727 74.1875 -28.25 C 74.1875 -27.04921 74.28561 -25.86249 74.4375 -24.71875 C 67.651195 -22.95866 62.59375 -16.47128 62.59375 -8.71875 C 62.59375 -7.51518 62.707007 -6.349 62.9375 -5.21875 C 53.898453 -2.84231 47.15625 6.41698 47.15625 17.46875 C 47.15625 19.24293 47.327202 20.96456 47.65625 22.625 C 41.73959 25.12754 37.5625 30.98425 37.5625 37.8125 C 37.5625 39.06332 37.736051 40.26643 38 41.4375 C 32.144102 43.91272 27.8125 52.63826 27.8125 63.03125 C 27.8125 66.24595 28.223573 69.30155 28.96875 72.0625 C 22.782506 73.41881 18.125 79.28342 18.125 86.3125 C 18.125 87.77286 18.313754 89.17015 18.6875 90.5 C 13.827732 93.00943 10.4375 98.87047 10.4375 105.6875 C 10.4375 108.41927 10.968916 111.01269 11.9375 113.28125 C 8.7486743 115.92067 6.65625 120.22004 6.65625 125.09375 C 6.65625 133.12698 7.28125 138 7.28125 138 L 251.6875 138 C 251.6875 138 252.1875 136.02778 252.1875 124.78125 C 252.1875 117.73399 249.27912 111.53078 244.875 107.875 C 245.9677 105.43385 246.59375 102.59534 246.59375 99.5625 C 246.59375 93.05834 243.71504 87.46334 239.53125 84.78125 C 240.40542 82.27387 240.90625 79.44457 240.90625 76.4375 C 240.90625 68.30672 237.3128 61.41368 232.3125 58.96875 C 232.89101 56.8961 233.21875 54.63758 233.21875 52.25 C 233.21875 46.24507 231.203 40.95317 228.125 37.8125 C 228.93614 35.76285 229.40625 33.46445 229.40625 31.03125 C 229.40625 23.28467 224.7794 16.87957 218.75 15.71875 C 220.54993 13.25093 221.625 10.15596 221.625 6.78125 C 221.625 -1.25198 215.56018 -7.75 208.0625 -7.75 C 207.66829 -7.75 207.29193 -7.7228 206.90625 -7.6875 C 207.63857 -9.77665 208.0625 -12.08269 208.0625 -14.53125 C 208.0625 -19.90438 206.07367 -24.67798 203.03125 -27.6875 C 203.76729 -29.311681 204.1875 -31.094329 204.1875 -32.96875 C 204.1875 -40.21264 198.0938 -46.107604 190.4375 -46.5 C 190.53957 -47.14905 190.59375 -47.824497 190.59375 -48.5 C 190.59375 -55.131684 185.51695 -60.625579 178.78125 -61.8125 C 178.90504 -62.525154 178.96875 -63.254717 178.96875 -64 C 178.96875 -71.497684 172.47073 -77.5625 164.4375 -77.5625 C 161.69623 -77.5625 159.12621 -76.855417 156.9375 -75.625 C 153.7483 -78.121218 149.19868 -79.6875 144.125 -79.6875 C 141.91132 -79.6875 139.7924 -79.386616 137.84375 -78.84375 C 135.2526 -83.914594 130.74865 -87.28125 125.625 -87.28125 z "
       xlink:href="#path3695"
       style="color:#000000;fill:url(#linearGradient3752);fill-opacity:1;fill-rule:nonzero;stroke:none;stroke-width:1;marker:none;visibility:visible;display:inline;overflow:visible;enable-background:accumulate;filter:url(#filter3629)"
       id="path3762"
       inkscape:href="#path3695"
       d="m 125.625,-87.28125 c -5.28637,0 -9.89082,3.594902 -12.4375,8.9375 -1.53127,-0.763063 -3.22599,-1.15625 -5,-1.15625 -5.50644,0 -10.189151,4.072049 -11.90625,9.75 -0.235615,-0.04284 -0.478763,-0.0625 -0.71875,-0.0625 -5.033315,0 -9.145394,9.575411 -9.625,21.84375 -6.747718,2.209803 -11.75,10.178023 -11.75,19.71875 0,1.20079 0.09811,2.38751 0.25,3.53125 -6.786305,1.76009 -11.84375,8.24747 -11.84375,16 0,1.20357 0.113257,2.36975 0.34375,3.5 -9.039047,2.37644 -15.78125,11.63573 -15.78125,22.6875 0,1.77418 0.170952,3.49581 0.5,5.15625 -5.91666,2.50254 -10.09375,8.35925 -10.09375,15.1875 0,1.25082 0.173551,2.45393 0.4375,3.625 -5.855898,2.47522 -10.1875,11.20076 -10.1875,21.59375 0,3.2147 0.411073,6.2703 1.15625,9.03125 -6.186244,1.35631 -10.84375,7.22092 -10.84375,14.25 0,1.46036 0.188754,2.85765 0.5625,4.1875 -4.859768,2.50943 -8.25,8.37047 -8.25,15.1875 0,2.73177 0.531416,5.32519 1.5,7.59375 -3.1888257,2.63942 -5.28125,6.93879 -5.28125,11.8125 0,8.03323 0.625,12.90625 0.625,12.90625 l 244.40625,0 c 0,0 0.5,-1.97222 0.5,-13.21875 0,-7.04726 -2.90838,-13.25047 -7.3125,-16.90625 1.0927,-2.44115 1.71875,-5.27966 1.71875,-8.3125 0,-6.50416 -2.87871,-12.09916 -7.0625,-14.78125 0.87417,-2.50738 1.375,-5.33668 1.375,-8.34375 0,-8.13078 -3.59345,-15.02382 -8.59375,-17.46875 0.57851,-2.07265 0.90625,-4.33117 0.90625,-6.71875 0,-6.00493 -2.01575,-11.29683 -5.09375,-14.4375 0.81114,-2.04965 1.28125,-4.34805 1.28125,-6.78125 0,-7.74658 -4.62685,-14.15168 -10.65625,-15.3125 1.79993,-2.46782 2.875,-5.56279 2.875,-8.9375 0,-8.03323 -6.06482,-14.53125 -13.5625,-14.53125 -0.39421,0 -0.77057,0.0272 -1.15625,0.0625 0.73232,-2.08915 1.15625,-4.39519 1.15625,-6.84375 0,-5.37313 -1.98883,-10.14673 -5.03125,-13.15625 0.73604,-1.624181 1.15625,-3.406829 1.15625,-5.28125 0,-7.24389 -6.0937,-13.138854 -13.75,-13.53125 0.10207,-0.64905 0.15625,-1.324497 0.15625,-2 0,-6.631684 -5.0768,-12.125579 -11.8125,-13.3125 0.12379,-0.712654 0.1875,-1.442217 0.1875,-2.1875 0,-7.497684 -6.49802,-13.5625 -14.53125,-13.5625 -2.74127,0 -5.31129,0.707083 -7.5,1.9375 -3.1892,-2.496218 -7.73882,-4.0625 -12.8125,-4.0625 -2.21368,0 -4.3326,0.300884 -6.28125,0.84375 -2.59115,-5.070844 -7.0951,-8.4375 -12.21875,-8.4375 z" />
    <path
       sodipodi:type="inkscape:offset"
       inkscape:radius="0"
       inkscape:original="M 125.625 -87.28125 C 120.33863 -87.28125 115.73418 -83.686348 113.1875 -78.34375 C 111.65623 -79.106813 109.96151 -79.5 108.1875 -79.5 C 102.68106 -79.5 97.998349 -75.427951 96.28125 -69.75 C 96.045635 -69.79284 95.802487 -69.8125 95.5625 -69.8125 C 90.529185 -69.8125 86.417106 -60.237089 85.9375 -47.96875 C 79.189782 -45.758947 74.1875 -37.790727 74.1875 -28.25 C 74.1875 -27.04921 74.28561 -25.86249 74.4375 -24.71875 C 67.651195 -22.95866 62.59375 -16.47128 62.59375 -8.71875 C 62.59375 -7.51518 62.707007 -6.349 62.9375 -5.21875 C 53.898453 -2.84231 47.15625 6.41698 47.15625 17.46875 C 47.15625 19.24293 47.327202 20.96456 47.65625 22.625 C 41.73959 25.12754 37.5625 30.98425 37.5625 37.8125 C 37.5625 39.06332 37.736051 40.26643 38 41.4375 C 32.144102 43.91272 27.8125 52.63826 27.8125 63.03125 C 27.8125 66.24595 28.223573 69.30155 28.96875 72.0625 C 22.782506 73.41881 18.125 79.28342 18.125 86.3125 C 18.125 87.77286 18.313754 89.17015 18.6875 90.5 C 13.827732 93.00943 10.4375 98.87047 10.4375 105.6875 C 10.4375 108.41927 10.968916 111.01269 11.9375 113.28125 C 8.7486743 115.92067 6.65625 120.22004 6.65625 125.09375 C 6.65625 133.12698 7.28125 138 7.28125 138 L 251.6875 138 C 251.6875 138 252.1875 136.02778 252.1875 124.78125 C 252.1875 117.73399 249.27912 111.53078 244.875 107.875 C 245.9677 105.43385 246.59375 102.59534 246.59375 99.5625 C 246.59375 93.05834 243.71504 87.46334 239.53125 84.78125 C 240.40542 82.27387 240.90625 79.44457 240.90625 76.4375 C 240.90625 68.30672 237.3128 61.41368 232.3125 58.96875 C 232.89101 56.8961 233.21875 54.63758 233.21875 52.25 C 233.21875 46.24507 231.203 40.95317 228.125 37.8125 C 228.93614 35.76285 229.40625 33.46445 229.40625 31.03125 C 229.40625 23.28467 224.7794 16.87957 218.75 15.71875 C 220.54993 13.25093 221.625 10.15596 221.625 6.78125 C 221.625 -1.25198 215.56018 -7.75 208.0625 -7.75 C 207.66829 -7.75 207.29193 -7.7228 206.90625 -7.6875 C 207.63857 -9.77665 208.0625 -12.08269 208.0625 -14.53125 C 208.0625 -19.90438 206.07367 -24.67798 203.03125 -27.6875 C 203.76729 -29.311681 204.1875 -31.094329 204.1875 -32.96875 C 204.1875 -40.21264 198.0938 -46.107604 190.4375 -46.5 C 190.53957 -47.14905 190.59375 -47.824497 190.59375 -48.5 C 190.59375 -55.131684 185.51695 -60.625579 178.78125 -61.8125 C 178.90504 -62.525154 178.96875 -63.254717 178.96875 -64 C 178.96875 -71.497684 172.47073 -77.5625 164.4375 -77.5625 C 161.69623 -77.5625 159.12621 -76.855417 156.9375 -75.625 C 153.7483 -78.121218 149.19868 -79.6875 144.125 -79.6875 C 141.91132 -79.6875 139.7924 -79.386616 137.84375 -78.84375 C 135.2526 -83.914594 130.74865 -87.28125 125.625 -87.28125 z "
       xlink:href="#path3695"
       style="color:#000000;fill:#00a909;fill-opacity:1;fill-rule:nonzero;stroke:none;stroke-width:1;marker:none;visibility:visible;display:inline;overflow:visible;enable-background:accumulate;filter:url(#filter4075)"
       id="path3774"
       inkscape:href="#path3695"
       d="m 125.625,-87.28125 c -5.28637,0 -9.89082,3.594902 -12.4375,8.9375 -1.53127,-0.763063 -3.22599,-1.15625 -5,-1.15625 -5.50644,0 -10.189151,4.072049 -11.90625,9.75 -0.235615,-0.04284 -0.478763,-0.0625 -0.71875,-0.0625 -5.033315,0 -9.145394,9.575411 -9.625,21.84375 -6.747718,2.209803 -11.75,10.178023 -11.75,19.71875 0,1.20079 0.09811,2.38751 0.25,3.53125 -6.786305,1.76009 -11.84375,8.24747 -11.84375,16 0,1.20357 0.113257,2.36975 0.34375,3.5 -9.039047,2.37644 -15.78125,11.63573 -15.78125,22.6875 0,1.77418 0.170952,3.49581 0.5,5.15625 -5.91666,2.50254 -10.09375,8.35925 -10.09375,15.1875 0,1.25082 0.173551,2.45393 0.4375,3.625 -5.855898,2.47522 -10.1875,11.20076 -10.1875,21.59375 0,3.2147 0.411073,6.2703 1.15625,9.03125 -6.186244,1.35631 -10.84375,7.22092 -10.84375,14.25 0,1.46036 0.188754,2.85765 0.5625,4.1875 -4.859768,2.50943 -8.25,8.37047 -8.25,15.1875 0,2.73177 0.531416,5.32519 1.5,7.59375 -3.1888257,2.63942 -5.28125,6.93879 -5.28125,11.8125 0,8.03323 0.625,12.90625 0.625,12.90625 l 244.40625,0 c 0,0 0.5,-1.97222 0.5,-13.21875 0,-7.04726 -2.90838,-13.25047 -7.3125,-16.90625 1.0927,-2.44115 1.71875,-5.27966 1.71875,-8.3125 0,-6.50416 -2.87871,-12.09916 -7.0625,-14.78125 0.87417,-2.50738 1.375,-5.33668 1.375,-8.34375 0,-8.13078 -3.59345,-15.02382 -8.59375,-17.46875 0.57851,-2.07265 0.90625,-4.33117 0.90625,-6.71875 0,-6.00493 -2.01575,-11.29683 -5.09375,-14.4375 0.81114,-2.04965 1.28125,-4.34805 1.28125,-6.78125 0,-7.74658 -4.62685,-14.15168 -10.65625,-15.3125 1.79993,-2.46782 2.875,-5.56279 2.875,-8.9375 0,-8.03323 -6.06482,-14.53125 -13.5625,-14.53125 -0.39421,0 -0.77057,0.0272 -1.15625,0.0625 0.73232,-2.08915 1.15625,-4.39519 1.15625,-6.84375 0,-5.37313 -1.98883,-10.14673 -5.03125,-13.15625 0.73604,-1.624181 1.15625,-3.406829 1.15625,-5.28125 0,-7.24389 -6.0937,-13.138854 -13.75,-13.53125 0.10207,-0.64905 0.15625,-1.324497 0.15625,-2 0,-6.631684 -5.0768,-12.125579 -11.8125,-13.3125 0.12379,-0.712654 0.1875,-1.442217 0.1875,-2.1875 0,-7.497684 -6.49802,-13.5625 -14.53125,-13.5625 -2.74127,0 -5.31129,0.707083 -7.5,1.9375 -3.1892,-2.496218 -7.73882,-4.0625 -12.8125,-4.0625 -2.21368,0 -4.3326,0.300884 -6.28125,0.84375 -2.59115,-5.070844 -7.0951,-8.4375 -12.21875,-8.4375 z" />
    <path
       sodipodi:type="arc"
       style="fill:#000000;fill-opacity:1;stroke:#000000;stroke-width:1;stroke-miterlimit:4;stroke-opacity:1;stroke-dasharray:none;stroke-dashoffset:0;display:inline"
       id="path2788"
       sodipodi:cx="22"
       sodipodi:cy="46"
       sodipodi:rx="2"
       sodipodi:ry="6"
       d="m 24,46 a 2,6 0 1 1 -4,0 2,6 0 1 1 4,0 z"
       transform="translate(103.96698,-85.485434)" />
    <path
       sodipodi:type="arc"
       style="fill:#000000;fill-opacity:1;stroke:#000000;stroke-width:1;stroke-miterlimit:4;stroke-opacity:1;stroke-dasharray:none;stroke-dashoffset:0;display:inline"
       id="path2790"
       sodipodi:cx="22"
       sodipodi:cy="46"
       sodipodi:rx="2"
       sodipodi:ry="6"
       d="m 24,46 a 2,6 0 1 1 -4,0 2,6 0 1 1 4,0 z"
       transform="translate(121.96698,-85.485434)" />
  </g>
  <g
     inkscape:groupmode="layer"
     id="layer3"
     inkscape:label="hill_medium"
     style="display:inline"
     transform="translate(0,128)">
    <path
       style="color:#000000;fill:url(#linearGradient3772);fill-opacity:1;fill-rule:nonzero;stroke:none;stroke-width:1;marker:none;visibility:visible;display:inline;overflow:visible;filter:url(#filter3902);enable-background:accumulate"
       d="m 111.5,48.4375 c -4.31302,0 -8.13826,1.7184 -10.625,4.40625 -2.142021,-1.55161 -4.847273,-2.46875 -7.78125,-2.46875 -3.355647,0 -6.397419,1.21403 -8.65625,3.1875 -2.447323,-1.99486 -5.494563,-3.1875 -8.8125,-3.1875 -7.550815,0 -13.750485,6.11575 -14.46875,13.96875 -0.955423,-0.24938 -1.942132,-0.40625 -2.96875,-0.40625 -5.19825,0 -9.665789,3.38098 -11.59375,8.21875 -0.953204,-0.2878 -1.951672,-0.46875 -2.96875,-0.46875 -7.497684,0 -13.5625,8.26207 -13.5625,18.4375 0,1.69289 0.18498,3.31788 0.5,4.875 -6.741632,0.2887 -12.125,6.65061 -12.125,14.5 0,1.09394 0.114101,2.16258 0.3125,3.1875 -5.729267,1.18711 -10.03125,6.26259 -10.03125,12.34375 0,6.96214 0.9886364,10.96875 0.9886364,10.96875 l 174.6624536,0 c 0,0 0.84891,-0.99802 0.84891,-9.03125 0,-5.59816 -3.17654,-10.44331 -7.8125,-12.875 0.0145,-0.23065 0.0625,-0.45371 0.0625,-0.6875 0,-5.05042 -3.45777,-9.39443 -8.40625,-11.40625 0.40896,-1.30364 0.625,-2.69724 0.625,-4.125 0,-6.9864 -5.2442,-12.81639 -12.25,-14.21875 0.39885,-1.32209 0.625,-2.7222 0.625,-4.1875 0,-7.49768 -5.63161,-13.59375 -12.59375,-13.59375 -1.03042,0 -2.04136,0.15507 -3,0.40625 0.0495,-0.45388 0.0625,-0.90795 0.0625,-1.375 0,-6.96214 -5.63161,-12.59375 -12.59375,-12.59375 -2.46576,0 -4.74461,0.71379 -6.6875,1.9375 -2.34669,-3.48019 -6.72324,-5.8125 -11.75,-5.8125 z"
       id="path3667"
       sodipodi:nodetypes="ccscscscsscscsccscscscsscsscc" />
    <path
       sodipodi:type="inkscape:offset"
       inkscape:radius="0"
       inkscape:original="M 111.5 48.4375 C 107.18698 48.4375 103.36174 50.1559 100.875 52.84375 C 98.732979 51.29214 96.027727 50.375 93.09375 50.375 C 89.738103 50.375 86.696331 51.58903 84.4375 53.5625 C 81.990177 51.56764 78.942937 50.375 75.625 50.375 C 68.074185 50.375 61.874515 56.49075 61.15625 64.34375 C 60.200827 64.09437 59.214118 63.9375 58.1875 63.9375 C 52.98925 63.9375 48.521711 67.31848 46.59375 72.15625 C 45.640546 71.86845 44.642078 71.6875 43.625 71.6875 C 36.127316 71.6875 30.0625 79.94957 30.0625 90.125 C 30.0625 91.81789 30.24748 93.44288 30.5625 95 C 23.820868 95.2887 18.4375 101.65061 18.4375 109.5 C 18.4375 110.59394 18.551601 111.66258 18.75 112.6875 C 13.020733 113.87461 8.71875 118.95009 8.71875 125.03125 C 8.71875 131.99339 9.71875 136 9.71875 136 L 184.375 136 C 184.375 136 185.21875 135.00198 185.21875 126.96875 C 185.21875 121.37059 182.04221 116.52544 177.40625 114.09375 C 177.42075 113.8631 177.46875 113.64004 177.46875 113.40625 C 177.46875 108.35583 174.01098 104.01182 169.0625 102 C 169.47146 100.69636 169.6875 99.30276 169.6875 97.875 C 169.6875 90.8886 164.4433 85.05861 157.4375 83.65625 C 157.83635 82.33416 158.0625 80.93405 158.0625 79.46875 C 158.0625 71.97107 152.43089 65.875 145.46875 65.875 C 144.43833 65.875 143.42739 66.03007 142.46875 66.28125 C 142.51825 65.82737 142.53125 65.3733 142.53125 64.90625 C 142.53125 57.94411 136.89964 52.3125 129.9375 52.3125 C 127.47174 52.3125 125.19289 53.02629 123.25 54.25 C 120.90331 50.76981 116.52676 48.4375 111.5 48.4375 z "
       xlink:href="#path3667"
       style="color:#000000;fill:url(#linearGradient3760);fill-opacity:1;fill-rule:nonzero;stroke:none;stroke-width:1;marker:none;visibility:visible;display:inline;overflow:visible;filter:url(#filter4035);enable-background:accumulate"
       id="path3766"
       inkscape:href="#path3667"
       d="m 111.5,50.4375 c -4.31302,0 -8.13826,1.7184 -10.625,4.40625 -2.142021,-1.55161 -4.847273,-2.46875 -7.78125,-2.46875 -3.355647,0 -6.397419,1.21403 -8.65625,3.1875 -2.447323,-1.99486 -5.494563,-3.1875 -8.8125,-3.1875 -7.550815,0 -13.750485,6.11575 -14.46875,13.96875 -0.955423,-0.24938 -1.942132,-0.40625 -2.96875,-0.40625 -5.19825,0 -9.665789,3.38098 -11.59375,8.21875 -0.953204,-0.2878 -1.951672,-0.46875 -2.96875,-0.46875 -7.497684,0 -13.5625,8.26207 -13.5625,18.4375 0,1.69289 0.18498,3.31788 0.5,4.875 -6.741632,0.2887 -12.125,6.65061 -12.125,14.5 0,1.09394 0.114101,2.16258 0.3125,3.1875 -5.729267,1.18711 -10.03125,6.26259 -10.03125,12.34375 0,6.96214 1,10.96875 1,10.96875 l 174.65625,0 c 0,0 0.84375,-0.99802 0.84375,-9.03125 0,-5.59816 -3.17654,-10.44331 -7.8125,-12.875 0.0145,-0.23065 0.0625,-0.45371 0.0625,-0.6875 0,-5.05042 -3.45777,-9.39443 -8.40625,-11.40625 0.40896,-1.30364 0.625,-2.69724 0.625,-4.125 0,-6.9864 -5.2442,-12.81639 -12.25,-14.21875 0.39885,-1.32209 0.625,-2.7222 0.625,-4.1875 0,-7.49768 -5.63161,-13.59375 -12.59375,-13.59375 -1.03042,0 -2.04136,0.15507 -3,0.40625 0.0495,-0.45388 0.0625,-0.90795 0.0625,-1.375 0,-6.96214 -5.63161,-12.59375 -12.59375,-12.59375 -2.46576,0 -4.74461,0.71379 -6.6875,1.9375 -2.34669,-3.48019 -6.72324,-5.8125 -11.75,-5.8125 z" />
    <path
       sodipodi:type="inkscape:offset"
       inkscape:radius="0"
       inkscape:original="M 111.5 48.4375 C 107.18698 48.4375 103.36174 50.1559 100.875 52.84375 C 98.732979 51.29214 96.027727 50.375 93.09375 50.375 C 89.738103 50.375 86.696331 51.58903 84.4375 53.5625 C 81.990177 51.56764 78.942937 50.375 75.625 50.375 C 68.074185 50.375 61.874515 56.49075 61.15625 64.34375 C 60.200827 64.09437 59.214118 63.9375 58.1875 63.9375 C 52.98925 63.9375 48.521711 67.31848 46.59375 72.15625 C 45.640546 71.86845 44.642078 71.6875 43.625 71.6875 C 36.127316 71.6875 30.0625 79.94957 30.0625 90.125 C 30.0625 91.81789 30.24748 93.44288 30.5625 95 C 23.820868 95.2887 18.4375 101.65061 18.4375 109.5 C 18.4375 110.59394 18.551601 111.66258 18.75 112.6875 C 13.020733 113.87461 8.71875 118.95009 8.71875 125.03125 C 8.71875 131.99339 9.71875 136 9.71875 136 L 184.375 136 C 184.375 136 185.21875 135.00198 185.21875 126.96875 C 185.21875 121.37059 182.04221 116.52544 177.40625 114.09375 C 177.42075 113.8631 177.46875 113.64004 177.46875 113.40625 C 177.46875 108.35583 174.01098 104.01182 169.0625 102 C 169.47146 100.69636 169.6875 99.30276 169.6875 97.875 C 169.6875 90.8886 164.4433 85.05861 157.4375 83.65625 C 157.83635 82.33416 158.0625 80.93405 158.0625 79.46875 C 158.0625 71.97107 152.43089 65.875 145.46875 65.875 C 144.43833 65.875 143.42739 66.03007 142.46875 66.28125 C 142.51825 65.82737 142.53125 65.3733 142.53125 64.90625 C 142.53125 57.94411 136.89964 52.3125 129.9375 52.3125 C 127.47174 52.3125 125.19289 53.02629 123.25 54.25 C 120.90331 50.76981 116.52676 48.4375 111.5 48.4375 z "
       xlink:href="#path3667"
       style="color:#000000;fill:#00a909;fill-opacity:1;fill-rule:nonzero;stroke:none;stroke-width:1;marker:none;visibility:visible;display:inline;overflow:visible;enable-background:accumulate;filter:url(#filter4075)"
       id="path3770"
       inkscape:href="#path3667"
       d="m 111.5,48.4375 c -4.31302,0 -8.13826,1.7184 -10.625,4.40625 -2.142021,-1.55161 -4.847273,-2.46875 -7.78125,-2.46875 -3.355647,0 -6.397419,1.21403 -8.65625,3.1875 -2.447323,-1.99486 -5.494563,-3.1875 -8.8125,-3.1875 -7.550815,0 -13.750485,6.11575 -14.46875,13.96875 -0.955423,-0.24938 -1.942132,-0.40625 -2.96875,-0.40625 -5.19825,0 -9.665789,3.38098 -11.59375,8.21875 -0.953204,-0.2878 -1.951672,-0.46875 -2.96875,-0.46875 -7.497684,0 -13.5625,8.26207 -13.5625,18.4375 0,1.69289 0.18498,3.31788 0.5,4.875 -6.741632,0.2887 -12.125,6.65061 -12.125,14.5 0,1.09394 0.114101,2.16258 0.3125,3.1875 -5.729267,1.18711 -10.03125,6.26259 -10.03125,12.34375 0,6.96214 1,10.96875 1,10.96875 l 174.65625,0 c 0,0 0.84375,-0.99802 0.84375,-9.03125 0,-5.59816 -3.17654,-10.44331 -7.8125,-12.875 0.0145,-0.23065 0.0625,-0.45371 0.0625,-0.6875 0,-5.05042 -3.45777,-9.39443 -8.40625,-11.40625 0.40896,-1.30364 0.625,-2.69724 0.625,-4.125 0,-6.9864 -5.2442,-12.81639 -12.25,-14.21875 0.39885,-1.32209 0.625,-2.7222 0.625,-4.1875 0,-7.49768 -5.63161,-13.59375 -12.59375,-13.59375 -1.03042,0 -2.04136,0.15507 -3,0.40625 0.0495,-0.45388 0.0625,-0.90795 0.0625,-1.375 0,-6.96214 -5.63161,-12.59375 -12.59375,-12.59375 -2.46576,0 -4.74461,0.71379 -6.6875,1.9375 -2.34669,-3.48019 -6.72324,-5.8125 -11.75,-5.8125 z" />
    <path
       sodipodi:type="arc"
       style="fill:#000000;fill-opacity:1;stroke:#000000;stroke-width:1;stroke-miterlimit:4;stroke-opacity:1;stroke-dasharray:none;stroke-dashoffset:0"
       id="path2784"
       sodipodi:cx="22"
       sodipodi:cy="46"
       sodipodi:rx="2"
       sodipodi:ry="6"
       d="m 24,46 a 2,6 0 1 1 -4,0 2,6 0 1 1 4,0 z"
       transform="matrix(1.0075353,0,0,0.7676228,69.877198,48.355432)" />
    <path
       sodipodi:type="arc"
       style="fill:#000000;fill-opacity:1;stroke:#000000;stroke-width:1;stroke-miterlimit:4;stroke-opacity:1;stroke-dasharray:none;stroke-dashoffset:0"
       id="path2786"
       sodipodi:cx="34"
       sodipodi:cy="46"
       sodipodi:rx="2"
       sodipodi:ry="6"
       d="m 36,46 a 2,6 0 1 1 -4,0 2,6 0 1 1 4,0 z"
       transform="matrix(1.0075353,0,0,0.7676228,73.877198,48.355432)" />
  </g>
</svg>
