<?xml version="1.0" encoding="UTF-8" standalone="no"?>
<!-- Created with Inkscape (http://www.inkscape.org/) -->

<svg
   xmlns:dc="http://purl.org/dc/elements/1.1/"
   xmlns:cc="http://creativecommons.org/ns#"
   xmlns:rdf="http://www.w3.org/1999/02/22-rdf-syntax-ns#"
   xmlns:svg="http://www.w3.org/2000/svg"
   xmlns="http://www.w3.org/2000/svg"
   xmlns:xlink="http://www.w3.org/1999/xlink"
   xmlns:sodipodi="http://sodipodi.sourceforge.net/DTD/sodipodi-0.dtd"
   xmlns:inkscape="http://www.inkscape.org/namespaces/inkscape"
   width="256"
   height="256"
   id="svg2"
   sodipodi:version="0.32"
   inkscape:version="0.47pre2 r22153"
   version="1.0"
   sodipodi:docname="big_2.svg"
   inkscape:export-filename="C:\Dateien\Desktop\Secret Maryo Chronicles\SMC\data\pixmaps\ground\green_2\hedges\big_2.png"
   inkscape:export-xdpi="180"
   inkscape:export-ydpi="180"
   inkscape:output_extension="org.inkscape.output.svg.inkscape"
   style="display:inline">
  <defs
     id="defs4">
    <linearGradient
       id="linearGradient4003">
      <stop
         style="stop-color:#0cbc00;stop-opacity:1;"
         offset="0"
         id="stop4005" />
      <stop
         style="stop-color:#08500c;stop-opacity:1;"
         offset="1"
         id="stop4007" />
    </linearGradient>
    <linearGradient
       id="linearGradient3985">
      <stop
         style="stop-color:#02d300;stop-opacity:1"
         offset="0"
         id="stop3987" />
      <stop
         style="stop-color:#00b80b;stop-opacity:1;"
         offset="1"
         id="stop3989" />
    </linearGradient>
    <filter
       id="filter3629"
       inkscape:label="lighting big"
       inkscape:menu="ABCs"
       inkscape:menu-tooltip="Basic diffuse bevel to use for building textures"
       color-interpolation-filters="sRGB">
      <feGaussianBlur
         id="feGaussianBlur3631"
         stdDeviation="8"
         in="SourceGraphic"
         result="result0" />
      <feDiffuseLighting
         id="feDiffuseLighting3633"
         diffuseConstant="1"
         surfaceScale="9"
         result="result5">
        <feDistantLight
           id="feDistantLight3635"
           elevation="40"
           azimuth="237" />
      </feDiffuseLighting>
      <feComposite
         id="feComposite3637"
         in2="SourceGraphic"
         k1="0.69999999999999996"
         in="result5"
         result="result4"
         operator="arithmetic"
         k2="0"
         k3="0.5"
         k4="0" />
      <feMorphology
         id="feMorphology3639"
         operator="erode"
         radius="1.7" />
      <feGaussianBlur
         stdDeviation="3"
         id="feGaussianBlur3641" />
    </filter>
    <filter
       id="filter3902"
       inkscape:menu-tooltip="Draws a black outline around"
       inkscape:menu="ABCs"
       inkscape:label="black outline">
      <feGaussianBlur
         id="feGaussianBlur3904"
         stdDeviation="1.5"
         in="SourceAlpha"
         result="result0" />
      <feComposite
         id="feComposite3906"
         in2="result0"
         result="result3"
         operator="arithmetic"
         in="SourceGraphic"
         k2="1"
         k3="10" />
      <feComposite
         id="feComposite3908"
         in2="result3"
         k2="1"
         operator="in"
         in="result3"
         result="result4" />
    </filter>
    <linearGradient
       inkscape:collect="always"
       xlink:href="#linearGradient3985"
       id="linearGradient3991"
       x1="103.64962"
       y1="-93.03125"
       x2="166.73106"
       y2="138"
       gradientUnits="userSpaceOnUse" />
    <linearGradient
       inkscape:collect="always"
       xlink:href="#linearGradient3985"
       id="linearGradient4017"
       x1="50.708706"
       y1="1.5232483"
       x2="79.998131"
       y2="138.41798"
       gradientUnits="userSpaceOnUse" />
    <linearGradient
       inkscape:collect="always"
       xlink:href="#linearGradient3985"
       id="linearGradient4025"
       x1="118.30682"
       y1="75.34317"
       x2="133.82198"
       y2="142.28561"
       gradientUnits="userSpaceOnUse" />
    <filter
       color-interpolation-filters="sRGB"
       inkscape:menu-tooltip="Basic diffuse bevel to use for building textures"
       inkscape:menu="ABCs"
       inkscape:label="lighting medium"
       id="filter4035">
      <feGaussianBlur
         result="result0"
         in="SourceGraphic"
         stdDeviation="6"
         id="feGaussianBlur4037" />
      <feDiffuseLighting
         result="result5"
         surfaceScale="6"
         diffuseConstant="1"
         id="feDiffuseLighting4039">
        <feDistantLight
           azimuth="237"
           elevation="40"
           id="feDistantLight4041" />
      </feDiffuseLighting>
      <feComposite
         k4="0"
         k3="0.5"
         k2="0"
         operator="arithmetic"
         result="result4"
         in="result5"
         k1="0.69999999999999996"
         in2="SourceGraphic"
         id="feComposite4043" />
      <feMorphology
         radius="1.2"
         operator="erode"
         id="feMorphology4045" />
      <feGaussianBlur
         id="feGaussianBlur4047"
         stdDeviation="2" />
    </filter>
    <filter
       id="filter4049"
       inkscape:label="lighting small"
       inkscape:menu="ABCs"
       inkscape:menu-tooltip="Basic diffuse bevel to use for building textures"
       color-interpolation-filters="sRGB">
      <feGaussianBlur
         id="feGaussianBlur4051"
         stdDeviation="5"
         in="SourceGraphic"
         result="result0" />
      <feDiffuseLighting
         id="feDiffuseLighting4053"
         diffuseConstant="1"
         surfaceScale="4"
         result="result5">
        <feDistantLight
           id="feDistantLight4055"
           elevation="40"
           azimuth="237" />
      </feDiffuseLighting>
      <feComposite
         id="feComposite4057"
         in2="SourceGraphic"
         k1="0.69999999999999996"
         in="result5"
         result="result4"
         operator="arithmetic"
         k2="0"
         k3="0.5"
         k4="0" />
      <feMorphology
         id="feMorphology4059"
         operator="erode"
         radius="1" />
      <feGaussianBlur
         stdDeviation="1.5"
         id="feGaussianBlur4061" />
    </filter>
    <linearGradient
       inkscape:collect="always"
       xlink:href="#linearGradient4003"
       id="linearGradient4065"
       gradientUnits="userSpaceOnUse"
       x1="101.41525"
       y1="-82.242905"
       x2="188.34895"
       y2="140.7874" />
    <linearGradient
       inkscape:collect="always"
       xlink:href="#linearGradient4003"
       id="linearGradient4069"
       gradientUnits="userSpaceOnUse"
       gradientTransform="translate(0,-128)"
       x1="48.769314"
       y1="112.0687"
       x2="81.937523"
       y2="279.99374" />
    <linearGradient
       inkscape:collect="always"
       xlink:href="#linearGradient4003"
       id="linearGradient4073"
       gradientUnits="userSpaceOnUse"
       gradientTransform="translate(0,-130)"
       x1="126.06439"
       y1="203.34317"
       x2="141.57954"
       y2="266.40683" />
    <filter
       id="filter4075"
       inkscape:label="turbulence">
      <feTurbulence
         id="feTurbulence4077"
         in="SourceGraphic"
         baseFrequency="0.28999999999999998"
         seed="398" />
      <feColorMatrix
         id="feColorMatrix4079"
         result="result2"
         values="0 1.3 0 0 0 0.2 2.8 0.1 0.9 0 0 0 1 0 0 0.05 0.12 0.08 0.05 0 " />
      <feMorphology
         id="feMorphology4081"
         result="result1"
         in="SourceGraphic"
         operator="erode"
         radius="1" />
      <feComposite
         id="feComposite4083"
         in2="result1"
         in="result2"
         operator="in" />
    </filter>
  </defs>
  <sodipodi:namedview
     id="base"
     pagecolor="#000000"
     bordercolor="#666666"
     borderopacity="1.0"
     inkscape:pageopacity="0"
     inkscape:pageshadow="2"
     inkscape:zoom="1.03125"
     inkscape:cx="151.59761"
     inkscape:cy="169.5253"
     inkscape:document-units="px"
     inkscape:current-layer="svg2"
     width="128px"
     height="128px"
     showgrid="false"
     gridtolerance="10000"
     inkscape:grid-points="true"
     inkscape:window-width="1104"
     inkscape:window-height="848"
     inkscape:window-x="114"
     inkscape:window-y="55"
     inkscape:window-maximized="0"
     inkscape:snap-nodes="false"
     inkscape:snap-to-guides="false">
    <inkscape:grid
       id="GridFromPre046Settings"
       type="xygrid"
       originx="0px"
       originy="0px"
       spacingx="4px"
       spacingy="4px"
       color="#0000ff"
       empcolor="#0000ff"
       opacity="0.2"
       empopacity="0.4"
       empspacing="5"
       visible="true"
       enabled="true"
       snapvisiblegridlinesonly="true" />
  </sodipodi:namedview>
  <metadata
     id="metadata7">
    <rdf:RDF>
      <cc:Work
         rdf:about="">
        <dc:format>image/svg+xml</dc:format>
        <dc:type
           rdf:resource="http://purl.org/dc/dcmitype/StillImage" />
        <dc:title></dc:title>
      </cc:Work>
    </rdf:RDF>
  </metadata>
  <g
     inkscape:label="hill_big"
     inkscape:groupmode="layer"
     id="layer1"
     style="display:inline"
     transform="translate(0,128)">
    <path
       style="color:#000000;fill:url(#linearGradient4065);fill-opacity:1;fill-rule:nonzero;stroke:none;stroke-width:1;marker:none;visibility:visible;display:inline;overflow:visible;filter:url(#filter3902);enable-background:accumulate"
       d="m 143.875,-93.03125 c -7.12854,0 -13.51223,2.802059 -17.78125,7.21875 -2.83667,-3.259302 -6.46373,-5.21875 -10.40625,-5.21875 -7.87168,0 -14.42422,7.802116 -16.0625,18.21875 -1.71159,-0.533658 -3.51537,-0.8125 -5.375,-0.8125 -11.246526,0 -20.375,10.396827 -20.375,23.25 0,2.008308 0.237735,3.953485 0.65625,5.8125 -6.02938,3.360608 -10.21875,10.778206 -10.21875,19.40625 0,0.84445 0.04692,1.68117 0.125,2.5 -7.812131,2.31321 -13.65625,11.60611 -13.65625,22.71875 0,2.27459 0.262474,4.45335 0.71875,6.53125 C 44.491244,8.93874 39.34375,16.85018 39.34375,26.25 c 0,1.49584 0.127182,2.93969 0.375,4.34375 -4.917024,5.74624 -8.15625,15.49522 -8.15625,26.5625 0,4.72528 0.62897,9.18178 1.6875,13.21875 -5.62549,4.53961 -9.3125,12.18592 -9.3125,20.84375 0,1.90772 0.191504,3.74475 0.53125,5.53125 -6.080009,5.28577 -10.03125,13.86416 -10.03125,23.5625 0,16.06647 0.946023,17.6875 0.946023,17.6875 l 234.731057,0 c 0,0 -0.95833,-6.33865 -0.95833,-18.65627 0,-8.05766 -3.90324,-15.14319 -9.75,-19.0625 2.50081,-3.59228 4,-8.0634 4,-12.9375 0,-7.72371 -3.75568,-14.47468 -9.34375,-18.21875 2.13126,-3.6786 3.40625,-8.07022 3.40625,-12.8125 0,-8.27531 -3.80641,-15.52983 -9.5,-19.65625 2.15157,-3.53627 3.4375,-7.77552 3.4375,-12.34375 0,-8.00697 -3.87066,-15.03492 -9.65625,-18.96875 2.38814,-4.19057 3.8125,-9.35296 3.8125,-14.96875 0,-13.15269 -7.73915,-23.968439 -17.625,-25.125 0.0779,-0.668982 0.125,-1.341378 0.125,-2.03125 0,-9.328005 -7.32359,-16.923027 -16.53125,-17.40625 0.61485,-1.849191 0.96875,-3.832081 0.96875,-5.875 0,-10.710977 -9.12847,-19.40625 -20.375,-19.40625 -2.08509,0 -4.10583,0.289246 -6,0.84375 -2.91339,-8.337314 -11.7678,-14.40625 -22.25,-14.40625 l 0,2e-5 z"
       id="path3829"
       sodipodi:nodetypes="ccscsscscscscscscsccscscscscscscssccc" />
    <path
       sodipodi:type="inkscape:offset"
       inkscape:radius="0"
       inkscape:original="M 143.875 -93.03125 C 136.74646 -93.03125 130.36277 -90.229191 126.09375 -85.8125 C 123.25708 -89.071802 119.63002 -91.03125 115.6875 -91.03125 C 107.81582 -91.03125 101.26328 -83.229134 99.625 -72.8125 C 97.91341 -73.346158 96.10963 -73.625 94.25 -73.625 C 83.003474 -73.625 73.875 -63.228173 73.875 -50.375 C 73.875 -48.366692 74.112735 -46.421515 74.53125 -44.5625 C 68.50187 -41.201892 64.3125 -33.784294 64.3125 -25.15625 C 64.3125 -24.3118 64.35942 -23.47508 64.4375 -22.65625 C 56.625369 -20.34304 50.78125 -11.05014 50.78125 0.0625 C 50.78125 2.33709 51.043724 4.51585 51.5 6.59375 C 44.491244 8.93874 39.34375 16.85018 39.34375 26.25 C 39.34375 27.74584 39.470932 29.18969 39.71875 30.59375 C 34.801726 36.33999 31.5625 46.08897 31.5625 57.15625 C 31.5625 61.88153 32.19147 66.33803 33.25 70.375 C 27.62451 74.91461 23.9375 82.56092 23.9375 91.21875 C 23.9375 93.12647 24.129004 94.9635 24.46875 96.75 C 18.388741 102.03577 14.4375 110.61416 14.4375 120.3125 C 14.4375 136.37897 15.375 138 15.375 138 L 250.125 138 C 250.125 138 249.15625 131.66137 249.15625 119.34375 C 249.15625 111.28609 245.25301 104.20056 239.40625 100.28125 C 241.90706 96.68897 243.40625 92.21785 243.40625 87.34375 C 243.40625 79.62004 239.65057 72.86907 234.0625 69.125 C 236.19376 65.4464 237.46875 61.05478 237.46875 56.3125 C 237.46875 48.03719 233.66234 40.78267 227.96875 36.65625 C 230.12032 33.11998 231.40625 28.88073 231.40625 24.3125 C 231.40625 16.30553 227.53559 9.27758 221.75 5.34375 C 224.13814 1.15318 225.5625 -4.00921 225.5625 -9.625 C 225.5625 -22.77769 217.82335 -33.593439 207.9375 -34.75 C 208.0154 -35.418982 208.0625 -36.091378 208.0625 -36.78125 C 208.0625 -46.109255 200.73891 -53.704277 191.53125 -54.1875 C 192.1461 -56.036691 192.5 -58.019581 192.5 -60.0625 C 192.5 -70.773477 183.37153 -79.46875 172.125 -79.46875 C 170.03991 -79.46875 168.01917 -79.179504 166.125 -78.625 C 163.21161 -86.962314 154.3572 -93.03125 143.875 -93.03125 z "
       xlink:href="#path3829"
       style="color:#000000;fill:url(#linearGradient3991);fill-opacity:1;fill-rule:nonzero;stroke:none;stroke-width:1;marker:none;visibility:visible;display:inline;overflow:visible;enable-background:accumulate;filter:url(#filter3629)"
       id="path3983"
       inkscape:href="#path3829"
       d="m 143.875,-93.03125 c -7.12854,0 -13.51223,2.802059 -17.78125,7.21875 -2.83667,-3.259302 -6.46373,-5.21875 -10.40625,-5.21875 -7.87168,0 -14.42422,7.802116 -16.0625,18.21875 -1.71159,-0.533658 -3.51537,-0.8125 -5.375,-0.8125 -11.246526,0 -20.375,10.396827 -20.375,23.25 0,2.008308 0.237735,3.953485 0.65625,5.8125 -6.02938,3.360608 -10.21875,10.778206 -10.21875,19.40625 0,0.84445 0.04692,1.68117 0.125,2.5 -7.812131,2.31321 -13.65625,11.60611 -13.65625,22.71875 0,2.27459 0.262474,4.45335 0.71875,6.53125 C 44.491244,8.93874 39.34375,16.85018 39.34375,26.25 c 0,1.49584 0.127182,2.93969 0.375,4.34375 -4.917024,5.74624 -8.15625,15.49522 -8.15625,26.5625 0,4.72528 0.62897,9.18178 1.6875,13.21875 -5.62549,4.53961 -9.3125,12.18592 -9.3125,20.84375 0,1.90772 0.191504,3.74475 0.53125,5.53125 -6.080009,5.28577 -10.03125,13.86416 -10.03125,23.5625 0,16.06647 0.9375,17.6875 0.9375,17.6875 l 234.75,0 c 0,0 -0.96875,-6.33863 -0.96875,-18.65625 0,-8.05766 -3.90324,-15.14319 -9.75,-19.0625 2.50081,-3.59228 4,-8.0634 4,-12.9375 0,-7.72371 -3.75568,-14.47468 -9.34375,-18.21875 2.13126,-3.6786 3.40625,-8.07022 3.40625,-12.8125 0,-8.27531 -3.80641,-15.52983 -9.5,-19.65625 2.15157,-3.53627 3.4375,-7.77552 3.4375,-12.34375 0,-8.00697 -3.87066,-15.03492 -9.65625,-18.96875 2.38814,-4.19057 3.8125,-9.35296 3.8125,-14.96875 0,-13.15269 -7.73915,-23.968439 -17.625,-25.125 0.0779,-0.668982 0.125,-1.341378 0.125,-2.03125 0,-9.328005 -7.32359,-16.923027 -16.53125,-17.40625 0.61485,-1.849191 0.96875,-3.832081 0.96875,-5.875 0,-10.710977 -9.12847,-19.40625 -20.375,-19.40625 -2.08509,0 -4.10583,0.289246 -6,0.84375 -2.91339,-8.337314 -11.7678,-14.40625 -22.25,-14.40625 z" />
    <path
       sodipodi:type="inkscape:offset"
       inkscape:radius="0"
       inkscape:original="M 143.875 -93.03125 C 136.74646 -93.03125 130.36277 -90.229191 126.09375 -85.8125 C 123.25708 -89.071802 119.63002 -91.03125 115.6875 -91.03125 C 107.81582 -91.03125 101.26328 -83.229134 99.625 -72.8125 C 97.91341 -73.346158 96.10963 -73.625 94.25 -73.625 C 83.003474 -73.625 73.875 -63.228173 73.875 -50.375 C 73.875 -48.366692 74.112735 -46.421515 74.53125 -44.5625 C 68.50187 -41.201892 64.3125 -33.784294 64.3125 -25.15625 C 64.3125 -24.3118 64.35942 -23.47508 64.4375 -22.65625 C 56.625369 -20.34304 50.78125 -11.05014 50.78125 0.0625 C 50.78125 2.33709 51.043724 4.51585 51.5 6.59375 C 44.491244 8.93874 39.34375 16.85018 39.34375 26.25 C 39.34375 27.74584 39.470932 29.18969 39.71875 30.59375 C 34.801726 36.33999 31.5625 46.08897 31.5625 57.15625 C 31.5625 61.88153 32.19147 66.33803 33.25 70.375 C 27.62451 74.91461 23.9375 82.56092 23.9375 91.21875 C 23.9375 93.12647 24.129004 94.9635 24.46875 96.75 C 18.388741 102.03577 14.4375 110.61416 14.4375 120.3125 C 14.4375 136.37897 15.375 138 15.375 138 L 250.125 138 C 250.125 138 249.15625 131.66137 249.15625 119.34375 C 249.15625 111.28609 245.25301 104.20056 239.40625 100.28125 C 241.90706 96.68897 243.40625 92.21785 243.40625 87.34375 C 243.40625 79.62004 239.65057 72.86907 234.0625 69.125 C 236.19376 65.4464 237.46875 61.05478 237.46875 56.3125 C 237.46875 48.03719 233.66234 40.78267 227.96875 36.65625 C 230.12032 33.11998 231.40625 28.88073 231.40625 24.3125 C 231.40625 16.30553 227.53559 9.27758 221.75 5.34375 C 224.13814 1.15318 225.5625 -4.00921 225.5625 -9.625 C 225.5625 -22.77769 217.82335 -33.593439 207.9375 -34.75 C 208.0154 -35.418982 208.0625 -36.091378 208.0625 -36.78125 C 208.0625 -46.109255 200.73891 -53.704277 191.53125 -54.1875 C 192.1461 -56.036691 192.5 -58.019581 192.5 -60.0625 C 192.5 -70.773477 183.37153 -79.46875 172.125 -79.46875 C 170.03991 -79.46875 168.01917 -79.179504 166.125 -78.625 C 163.21161 -86.962314 154.3572 -93.03125 143.875 -93.03125 z "
       xlink:href="#path3829"
       style="color:#000000;fill:#00a909;fill-opacity:1;fill-rule:nonzero;stroke:none;stroke-width:1;marker:none;visibility:visible;display:inline;overflow:visible;enable-background:accumulate;filter:url(#filter4075)"
       id="path4063"
       inkscape:href="#path3829"
       d="m 143.875,-93.03125 c -7.12854,0 -13.51223,2.802059 -17.78125,7.21875 -2.83667,-3.259302 -6.46373,-5.21875 -10.40625,-5.21875 -7.87168,0 -14.42422,7.802116 -16.0625,18.21875 -1.71159,-0.533658 -3.51537,-0.8125 -5.375,-0.8125 -11.246526,0 -20.375,10.396827 -20.375,23.25 0,2.008308 0.237735,3.953485 0.65625,5.8125 -6.02938,3.360608 -10.21875,10.778206 -10.21875,19.40625 0,0.84445 0.04692,1.68117 0.125,2.5 -7.812131,2.31321 -13.65625,11.60611 -13.65625,22.71875 0,2.27459 0.262474,4.45335 0.71875,6.53125 C 44.491244,8.93874 39.34375,16.85018 39.34375,26.25 c 0,1.49584 0.127182,2.93969 0.375,4.34375 -4.917024,5.74624 -8.15625,15.49522 -8.15625,26.5625 0,4.72528 0.62897,9.18178 1.6875,13.21875 -5.62549,4.53961 -9.3125,12.18592 -9.3125,20.84375 0,1.90772 0.191504,3.74475 0.53125,5.53125 -6.080009,5.28577 -10.03125,13.86416 -10.03125,23.5625 0,16.06647 0.9375,17.6875 0.9375,17.6875 l 234.75,0 c 0,0 -0.96875,-6.33863 -0.96875,-18.65625 0,-8.05766 -3.90324,-15.14319 -9.75,-19.0625 2.50081,-3.59228 4,-8.0634 4,-12.9375 0,-7.72371 -3.75568,-14.47468 -9.34375,-18.21875 2.13126,-3.6786 3.40625,-8.07022 3.40625,-12.8125 0,-8.27531 -3.80641,-15.52983 -9.5,-19.65625 2.15157,-3.53627 3.4375,-7.77552 3.4375,-12.34375 0,-8.00697 -3.87066,-15.03492 -9.65625,-18.96875 2.38814,-4.19057 3.8125,-9.35296 3.8125,-14.96875 0,-13.15269 -7.73915,-23.968439 -17.625,-25.125 0.0779,-0.668982 0.125,-1.341378 0.125,-2.03125 0,-9.328005 -7.32359,-16.923027 -16.53125,-17.40625 0.61485,-1.849191 0.96875,-3.832081 0.96875,-5.875 0,-10.710977 -9.12847,-19.40625 -20.375,-19.40625 -2.08509,0 -4.10583,0.289246 -6,0.84375 -2.91339,-8.337314 -11.7678,-14.40625 -22.25,-14.40625 z" />
    <path
       sodipodi:type="arc"
       style="fill:#000000;fill-opacity:1;stroke:#000000;stroke-width:1;stroke-miterlimit:4;stroke-opacity:1;stroke-dasharray:none;stroke-dashoffset:0;display:inline"
       id="path2788"
       sodipodi:cx="22"
       sodipodi:cy="46"
       sodipodi:rx="2"
       sodipodi:ry="6"
       d="m 24,46 c 0,3.313708 -0.895431,6 -2,6 -1.104569,0 -2,-2.686292 -2,-6 0,-3.313708 0.895431,-6 2,-6 1.104569,0 2,2.686292 2,6 z"
       transform="translate(107.1791,-85.485434)" />
    <path
       sodipodi:type="arc"
       style="fill:#000000;fill-opacity:1;stroke:#000000;stroke-width:1;stroke-miterlimit:4;stroke-opacity:1;stroke-dasharray:none;stroke-dashoffset:0;display:inline"
       id="path2790"
       sodipodi:cx="22"
       sodipodi:cy="46"
       sodipodi:rx="2"
       sodipodi:ry="6"
       d="m 24,46 c 0,3.313708 -0.895431,6 -2,6 -1.104569,0 -2,-2.686292 -2,-6 0,-3.313708 0.895431,-6 2,-6 1.104569,0 2,2.686292 2,6 z"
       transform="translate(125.1791,-85.485434)" />
  </g>
  <g
     inkscape:groupmode="layer"
     id="layer3"
     inkscape:label="hill_medium"
     style="display:inline"
     transform="translate(0,128)">
    <path
       style="color:#000000;fill:url(#linearGradient4069);fill-opacity:1;fill-rule:nonzero;stroke:none;stroke-width:1;marker:none;visibility:visible;display:inline;overflow:visible;filter:url(#filter3902);enable-background:accumulate"
       d="m 68.84375,-1.9375 c -5.397627,0 -10.158125,2.5795 -12.9375,6.5 C 53.821427,2.91932 51.281452,1.9375 48.5,1.9375 c -5.717896,0 -10.550432,4.09994 -12.09375,9.71875 -7.826301,0.29941 -14.09375,8.42035 -14.09375,18.40625 0,2.46125 0.371117,4.79116 1.0625,6.9375 -4.82673,4.62426 -7.875,11.53808 -7.875,19.25 0,0.768 0.03451,1.53065 0.09375,2.28125 -2.959638,2.58504 -4.9375,7.10151 -4.9375,12.25 0,3.70765 1.01277,7.08732 2.6875,9.65625 -0.922321,2.72782 -1.484131,5.68219 -1.65625,8.78125 -2.913115,2.50924 -4.90625,7.1934 -4.90625,12.59375 0,3.14077 0.6840909,6.02877 1.8125,8.40625 0.00401,0.008 -0.00402,0.0228 0,0.0312 -1.7501381,3.48642 -2.78125,7.57309 -2.78125,11.9375 0,12.85317 0,15.8125 0,15.8125 L 158.06255,138 c 0,0 -3.6315,-10.07439 -9.28125,-13.62505 0.9786,-1.82562 1.53125,-3.88225 1.53125,-6.0625 0,-5.04353 -2.96948,-9.44042 -7.34375,-11.78125 1.6052,-3.1863 2.5,-6.75668 2.5,-10.53125 0,-6.32369 -2.52714,-12.09373 -6.65625,-16.40625 1.12721,-1.63359 1.78125,-3.68874 1.78125,-5.90625 0,-4.64849 -2.94581,-8.52413 -6.875,-9.46875 -0.49959,-5.15789 -3.21233,-9.73874 -7.28125,-12.9375 1.59532,-2.70246 2.53125,-6.01504 2.53125,-9.59375 0,-7.49147 -4.11473,-13.77561 -9.75,-15.78125 0.016,-0.25237 0.0625,-0.49413 0.0625,-0.75 0,-7.49768 -6.96247,-13.59375 -15.53125,-13.59375 -2.65211,0 -5.12908,0.59862 -7.3125,1.625 C 93.984966,9.09814 88.754276,6.16814 82.5938,5.8437 79.995122,1.22211 74.803847,-1.93755 68.8438,-1.93755 l -5e-5,5e-5 z"
       id="path3004"
       sodipodi:nodetypes="ccscscscsccsscscccscscsccscsscccc" />
    <path
       sodipodi:type="inkscape:offset"
       inkscape:radius="0"
       inkscape:original="M 68.84375 -1.9375 C 63.446123 -1.9375 58.685625 0.642 55.90625 4.5625 C 53.821427 2.91932 51.281452 1.9375 48.5 1.9375 C 42.782104 1.9375 37.949568 6.03744 36.40625 11.65625 C 28.579949 11.95566 22.3125 20.0766 22.3125 30.0625 C 22.3125 32.52375 22.683617 34.85366 23.375 37 C 18.54827 41.62426 15.5 48.53808 15.5 56.25 C 15.5 57.018 15.53451 57.78065 15.59375 58.53125 C 12.634112 61.11629 10.65625 65.63276 10.65625 70.78125 C 10.65625 74.4889 11.66902 77.86857 13.34375 80.4375 C 12.421429 83.16532 11.859619 86.11969 11.6875 89.21875 C 8.774385 91.72799 6.78125 96.41215 6.78125 101.8125 C 6.78125 104.95327 7.4653409 107.84127 8.59375 110.21875 C 8.59776 110.22675 8.58973 110.2416 8.59375 110.25 C 6.8436119 113.73642 5.8125 117.82309 5.8125 122.1875 L 5.8125 138 L 158.0625 138 C 158.0625 138 154.431 127.92566 148.78125 124.375 C 149.75985 122.54938 150.3125 120.49275 150.3125 118.3125 C 150.3125 113.26897 147.34302 108.87208 142.96875 106.53125 C 144.57395 103.34495 145.46875 99.77457 145.46875 96 C 145.46875 89.67631 142.94161 83.90627 138.8125 79.59375 C 139.93971 77.96016 140.59375 75.90501 140.59375 73.6875 C 140.59375 69.03901 137.64794 65.16337 133.71875 64.21875 C 133.21916 59.06086 130.50642 54.48001 126.4375 51.28125 C 128.03282 48.57879 128.96875 45.26621 128.96875 41.6875 C 128.96875 34.19603 124.85402 27.91189 119.21875 25.90625 C 119.23475 25.65388 119.28125 25.41212 119.28125 25.15625 C 119.28125 17.65857 112.31878 11.5625 103.75 11.5625 C 101.09789 11.5625 98.62092 12.16112 96.4375 13.1875 C 93.984916 9.09819 88.754226 6.16819 82.59375 5.84375 C 79.995072 1.22216 74.803797 -1.9375 68.84375 -1.9375 z "
       xlink:href="#path3004"
       style="color:#000000;fill:url(#linearGradient4017);fill-opacity:1;fill-rule:nonzero;stroke:none;stroke-width:1;marker:none;visibility:visible;display:inline;overflow:visible;enable-background:accumulate;filter:url(#filter4035)"
       id="path4027"
       inkscape:href="#path3004"
       d="m 68.84375,-1.9375 c -5.397627,0 -10.158125,2.5795 -12.9375,6.5 C 53.821427,2.91932 51.281452,1.9375 48.5,1.9375 c -5.717896,0 -10.550432,4.09994 -12.09375,9.71875 -7.826301,0.29941 -14.09375,8.42035 -14.09375,18.40625 0,2.46125 0.371117,4.79116 1.0625,6.9375 -4.82673,4.62426 -7.875,11.53808 -7.875,19.25 0,0.768 0.03451,1.53065 0.09375,2.28125 -2.959638,2.58504 -4.9375,7.10151 -4.9375,12.25 0,3.70765 1.01277,7.08732 2.6875,9.65625 -0.922321,2.72782 -1.484131,5.68219 -1.65625,8.78125 -2.913115,2.50924 -4.90625,7.1934 -4.90625,12.59375 0,3.14077 0.6840909,6.02877 1.8125,8.40625 0.00401,0.008 -0.00402,0.0229 0,0.0312 -1.7501381,3.48642 -2.78125,7.57309 -2.78125,11.9375 l 0,15.8125 152.25,0 c 0,0 -3.6315,-10.07434 -9.28125,-13.625 0.9786,-1.82562 1.53125,-3.88225 1.53125,-6.0625 0,-5.04353 -2.96948,-9.44042 -7.34375,-11.78125 1.6052,-3.1863 2.5,-6.75668 2.5,-10.53125 0,-6.32369 -2.52714,-12.09373 -6.65625,-16.40625 1.12721,-1.63359 1.78125,-3.68874 1.78125,-5.90625 0,-4.64849 -2.94581,-8.52413 -6.875,-9.46875 -0.49959,-5.15789 -3.21233,-9.73874 -7.28125,-12.9375 1.59532,-2.70246 2.53125,-6.01504 2.53125,-9.59375 0,-7.49147 -4.11473,-13.77561 -9.75,-15.78125 0.016,-0.25237 0.0625,-0.49413 0.0625,-0.75 0,-7.49768 -6.96247,-13.59375 -15.53125,-13.59375 -2.65211,0 -5.12908,0.59862 -7.3125,1.625 C 93.984916,9.09819 88.754226,6.16819 82.59375,5.84375 79.995072,1.22216 74.803797,-1.9375 68.84375,-1.9375 z" />
    <path
       sodipodi:type="inkscape:offset"
       inkscape:radius="0"
       inkscape:original="M 68.84375 -1.9375 C 63.446123 -1.9375 58.685625 0.642 55.90625 4.5625 C 53.821427 2.91932 51.281452 1.9375 48.5 1.9375 C 42.782104 1.9375 37.949568 6.03744 36.40625 11.65625 C 28.579949 11.95566 22.3125 20.0766 22.3125 30.0625 C 22.3125 32.52375 22.683617 34.85366 23.375 37 C 18.54827 41.62426 15.5 48.53808 15.5 56.25 C 15.5 57.018 15.53451 57.78065 15.59375 58.53125 C 12.634112 61.11629 10.65625 65.63276 10.65625 70.78125 C 10.65625 74.4889 11.66902 77.86857 13.34375 80.4375 C 12.421429 83.16532 11.859619 86.11969 11.6875 89.21875 C 8.774385 91.72799 6.78125 96.41215 6.78125 101.8125 C 6.78125 104.95327 7.4653409 107.84127 8.59375 110.21875 C 8.59776 110.22675 8.58973 110.2416 8.59375 110.25 C 6.8436119 113.73642 5.8125 117.82309 5.8125 122.1875 L 5.8125 138 L 158.0625 138 C 158.0625 138 154.431 127.92566 148.78125 124.375 C 149.75985 122.54938 150.3125 120.49275 150.3125 118.3125 C 150.3125 113.26897 147.34302 108.87208 142.96875 106.53125 C 144.57395 103.34495 145.46875 99.77457 145.46875 96 C 145.46875 89.67631 142.94161 83.90627 138.8125 79.59375 C 139.93971 77.96016 140.59375 75.90501 140.59375 73.6875 C 140.59375 69.03901 137.64794 65.16337 133.71875 64.21875 C 133.21916 59.06086 130.50642 54.48001 126.4375 51.28125 C 128.03282 48.57879 128.96875 45.26621 128.96875 41.6875 C 128.96875 34.19603 124.85402 27.91189 119.21875 25.90625 C 119.23475 25.65388 119.28125 25.41212 119.28125 25.15625 C 119.28125 17.65857 112.31878 11.5625 103.75 11.5625 C 101.09789 11.5625 98.62092 12.16112 96.4375 13.1875 C 93.984916 9.09819 88.754226 6.16819 82.59375 5.84375 C 79.995072 1.22216 74.803797 -1.9375 68.84375 -1.9375 z "
       xlink:href="#path3004"
       style="color:#000000;fill:#00a909;fill-opacity:1;fill-rule:nonzero;stroke:none;stroke-width:1;marker:none;visibility:visible;display:inline;overflow:visible;enable-background:accumulate;filter:url(#filter4075)"
       id="path4067"
       inkscape:href="#path3004"
       d="m 68.84375,-1.9375 c -5.397627,0 -10.158125,2.5795 -12.9375,6.5 C 53.821427,2.91932 51.281452,1.9375 48.5,1.9375 c -5.717896,0 -10.550432,4.09994 -12.09375,9.71875 -7.826301,0.29941 -14.09375,8.42035 -14.09375,18.40625 0,2.46125 0.371117,4.79116 1.0625,6.9375 -4.82673,4.62426 -7.875,11.53808 -7.875,19.25 0,0.768 0.03451,1.53065 0.09375,2.28125 -2.959638,2.58504 -4.9375,7.10151 -4.9375,12.25 0,3.70765 1.01277,7.08732 2.6875,9.65625 -0.922321,2.72782 -1.484131,5.68219 -1.65625,8.78125 -2.913115,2.50924 -4.90625,7.1934 -4.90625,12.59375 0,3.14077 0.6840909,6.02877 1.8125,8.40625 0.00401,0.008 -0.00402,0.0229 0,0.0312 -1.7501381,3.48642 -2.78125,7.57309 -2.78125,11.9375 l 0,15.8125 152.25,0 c 0,0 -3.6315,-10.07434 -9.28125,-13.625 0.9786,-1.82562 1.53125,-3.88225 1.53125,-6.0625 0,-5.04353 -2.96948,-9.44042 -7.34375,-11.78125 1.6052,-3.1863 2.5,-6.75668 2.5,-10.53125 0,-6.32369 -2.52714,-12.09373 -6.65625,-16.40625 1.12721,-1.63359 1.78125,-3.68874 1.78125,-5.90625 0,-4.64849 -2.94581,-8.52413 -6.875,-9.46875 -0.49959,-5.15789 -3.21233,-9.73874 -7.28125,-12.9375 1.59532,-2.70246 2.53125,-6.01504 2.53125,-9.59375 0,-7.49147 -4.11473,-13.77561 -9.75,-15.78125 0.016,-0.25237 0.0625,-0.49413 0.0625,-0.75 0,-7.49768 -6.96247,-13.59375 -15.53125,-13.59375 -2.65211,0 -5.12908,0.59862 -7.3125,1.625 C 93.984916,9.09819 88.754226,6.16819 82.59375,5.84375 79.995072,1.22216 74.803797,-1.9375 68.84375,-1.9375 z" />
    <path
       sodipodi:type="arc"
       style="fill:#000000;fill-opacity:1;stroke:#000000;stroke-width:1;stroke-miterlimit:4;stroke-opacity:1;stroke-dasharray:none;stroke-dashoffset:0"
       id="path2784"
       sodipodi:cx="22"
       sodipodi:cy="46"
       sodipodi:rx="2"
       sodipodi:ry="6"
       d="m 24,46 c 0,3.313708 -0.895431,6 -2,6 -1.104569,0 -2,-2.686292 -2,-6 0,-3.313708 0.895431,-6 2,-6 1.104569,0 2,2.686292 2,6 z"
       transform="matrix(1.0075353,0,0,0.7676228,39.998411,13.506947)" />
    <path
       sodipodi:type="arc"
       style="fill:#000000;fill-opacity:1;stroke:#000000;stroke-width:1;stroke-miterlimit:4;stroke-opacity:1;stroke-dasharray:none;stroke-dashoffset:0"
       id="path2786"
       sodipodi:cx="34"
       sodipodi:cy="46"
       sodipodi:rx="2"
       sodipodi:ry="6"
       d="m 36,46 c 0,3.313708 -0.895431,6 -2,6 -1.104569,0 -2,-2.686292 -2,-6 0,-3.313708 0.895431,-6 2,-6 1.104569,0 2,2.686292 2,6 z"
       transform="matrix(1.0075353,0,0,0.7676228,43.998411,13.506947)" />
  </g>
  <g
     inkscape:groupmode="layer"
     id="layer2"
     style="display:inline"
     transform="translate(0,128)"
     inkscape:label="hill_small">
    <path
       style="color:#000000;fill:url(#linearGradient4073);fill-opacity:1;fill-rule:nonzero;stroke:none;stroke-width:1;marker:none;visibility:visible;display:inline;overflow:visible;filter:url(#filter3902);enable-background:accumulate"
       d="m 128,73.75 c -2.7209,0 -5.17645,1.69889 -6.9375,4.40625 -1.17724,-0.48806 -2.44706,-0.75 -3.78125,-0.75 -4.73111,0 -8.72863,3.34794 -10.125,8 -5.74448,0.83037 -10.1875,6.51087 -10.1875,13.4375 0,0.83951 0.09372,1.67137 0.21875,2.46875 -2.496924,2.12979 -4.09375,5.46179 -4.09375,9.1875 0,0.33842 0.03655,0.66891 0.0625,1 -4.591805,2.028 -7.8125,6.88691 -7.8125,12.5625 0,7.49768 0.957386,11.9375 0.957386,11.9375 l 84.362694,0 c 0,0 -0.008,-4.21131 -0.008,-9.03125 0,-2.42671 -0.86018,-4.60565 -2.28125,-6.1875 0.22028,-0.8115 0.34375,-1.65001 0.34375,-2.53125 0,-2.49448 -0.95247,-4.78175 -2.5,-6.5 0.3525,-1.00491 0.5625,-2.09343 0.5625,-3.21875 0,-3.27577 -1.63787,-6.15071 -4.125,-7.90625 0.16765,-0.88769 0.25,-1.80259 0.25,-2.75 0,-6.96214 -4.76521,-12.59375 -10.65625,-12.59375 -0.38919,0 -0.77785,0.0145 -1.15625,0.0625 -0.90012,-5.53098 -5.68339,-9.78125 -11.46875,-9.78125 -2.0235,0 -3.90491,0.52916 -5.5625,1.4375 -1.66363,-2.01284 -3.75872,-3.25 -6.0625,-3.25 l 4.2e-4,0 z"
       id="path3804"
       sodipodi:nodetypes="ccscscscsccscscscsscsccc" />
    <path
       sodipodi:type="inkscape:offset"
       inkscape:radius="0"
       inkscape:original="M 128 73.75 C 125.2791 73.75 122.82355 75.44889 121.0625 78.15625 C 119.88526 77.66819 118.61544 77.40625 117.28125 77.40625 C 112.55014 77.40625 108.55262 80.75419 107.15625 85.40625 C 101.41177 86.23662 96.96875 91.91712 96.96875 98.84375 C 96.96875 99.68326 97.06247 100.51512 97.1875 101.3125 C 94.690576 103.44229 93.09375 106.77429 93.09375 110.5 C 93.09375 110.83842 93.1303 111.16891 93.15625 111.5 C 88.564445 113.528 85.34375 118.38691 85.34375 124.0625 C 85.34375 131.56018 86.3125 136 86.3125 136 L 170.65625 136 C 170.65625 136 170.65625 131.78869 170.65625 126.96875 C 170.65625 124.54204 169.79607 122.3631 168.375 120.78125 C 168.59528 119.96975 168.71875 119.13124 168.71875 118.25 C 168.71875 115.75552 167.76628 113.46825 166.21875 111.75 C 166.57125 110.74509 166.78125 109.65657 166.78125 108.53125 C 166.78125 105.25548 165.14338 102.38054 162.65625 100.625 C 162.8239 99.73731 162.90625 98.82241 162.90625 97.875 C 162.90625 90.91286 158.14104 85.28125 152.25 85.28125 C 151.86081 85.28125 151.47215 85.29575 151.09375 85.34375 C 150.19363 79.81277 145.41036 75.5625 139.625 75.5625 C 137.6015 75.5625 135.72009 76.09166 134.0625 77 C 132.39887 74.98716 130.30378 73.75 128 73.75 z "
       xlink:href="#path3804"
       style="color:#000000;fill:url(#linearGradient4025);fill-opacity:1;fill-rule:nonzero;stroke:none;stroke-width:1;marker:none;visibility:visible;display:inline;overflow:visible;filter:url(#filter4049);enable-background:accumulate"
       id="path4031"
       inkscape:href="#path3804"
       d="m 128,75.75 c -2.7209,0 -5.17645,1.69889 -6.9375,4.40625 -1.17724,-0.48806 -2.44706,-0.75 -3.78125,-0.75 -4.73111,0 -8.72863,3.34794 -10.125,8 -5.74448,0.83037 -10.1875,6.51087 -10.1875,13.4375 0,0.83951 0.09372,1.67137 0.21875,2.46875 -2.496924,2.12979 -4.09375,5.46179 -4.09375,9.1875 0,0.33842 0.03655,0.66891 0.0625,1 -4.591805,2.028 -7.8125,6.88691 -7.8125,12.5625 0,7.49768 0.96875,11.9375 0.96875,11.9375 l 84.34375,0 c 0,0 0,-4.21131 0,-9.03125 0,-2.42671 -0.86018,-4.60565 -2.28125,-6.1875 0.22028,-0.8115 0.34375,-1.65001 0.34375,-2.53125 0,-2.49448 -0.95247,-4.78175 -2.5,-6.5 0.3525,-1.00491 0.5625,-2.09343 0.5625,-3.21875 0,-3.27577 -1.63787,-6.15071 -4.125,-7.90625 0.16765,-0.88769 0.25,-1.80259 0.25,-2.75 0,-6.96214 -4.76521,-12.59375 -10.65625,-12.59375 -0.38919,0 -0.77785,0.0145 -1.15625,0.0625 -0.90012,-5.53098 -5.68339,-9.78125 -11.46875,-9.78125 -2.0235,0 -3.90491,0.52916 -5.5625,1.4375 -1.66363,-2.01284 -3.75872,-3.25 -6.0625,-3.25 z" />
    <path
       sodipodi:type="inkscape:offset"
       inkscape:radius="0"
       inkscape:original="M 128 73.75 C 125.2791 73.75 122.82355 75.44889 121.0625 78.15625 C 119.88526 77.66819 118.61544 77.40625 117.28125 77.40625 C 112.55014 77.40625 108.55262 80.75419 107.15625 85.40625 C 101.41177 86.23662 96.96875 91.91712 96.96875 98.84375 C 96.96875 99.68326 97.06247 100.51512 97.1875 101.3125 C 94.690576 103.44229 93.09375 106.77429 93.09375 110.5 C 93.09375 110.83842 93.1303 111.16891 93.15625 111.5 C 88.564445 113.528 85.34375 118.38691 85.34375 124.0625 C 85.34375 131.56018 86.3125 136 86.3125 136 L 170.65625 136 C 170.65625 136 170.65625 131.78869 170.65625 126.96875 C 170.65625 124.54204 169.79607 122.3631 168.375 120.78125 C 168.59528 119.96975 168.71875 119.13124 168.71875 118.25 C 168.71875 115.75552 167.76628 113.46825 166.21875 111.75 C 166.57125 110.74509 166.78125 109.65657 166.78125 108.53125 C 166.78125 105.25548 165.14338 102.38054 162.65625 100.625 C 162.8239 99.73731 162.90625 98.82241 162.90625 97.875 C 162.90625 90.91286 158.14104 85.28125 152.25 85.28125 C 151.86081 85.28125 151.47215 85.29575 151.09375 85.34375 C 150.19363 79.81277 145.41036 75.5625 139.625 75.5625 C 137.6015 75.5625 135.72009 76.09166 134.0625 77 C 132.39887 74.98716 130.30378 73.75 128 73.75 z "
       xlink:href="#path3804"
       style="color:#000000;fill:#00a909;fill-opacity:1;fill-rule:nonzero;stroke:none;stroke-width:1;marker:none;visibility:visible;display:inline;overflow:visible;filter:url(#filter4075);enable-background:accumulate"
       id="path4071"
       inkscape:href="#path3804"
       d="m 128,75.75 c -2.7209,0 -5.17645,1.69889 -6.9375,4.40625 -1.17724,-0.48806 -2.44706,-0.75 -3.78125,-0.75 -4.73111,0 -8.72863,3.34794 -10.125,8 -5.74448,0.83037 -10.1875,6.51087 -10.1875,13.4375 0,0.83951 0.09372,1.67137 0.21875,2.46875 -2.496924,2.12979 -4.09375,5.46179 -4.09375,9.1875 0,0.33842 0.03655,0.66891 0.0625,1 -4.591805,2.028 -7.8125,6.88691 -7.8125,12.5625 0,7.49768 0.96875,11.9375 0.96875,11.9375 l 84.34375,0 c 0,0 0,-4.21131 0,-9.03125 0,-2.42671 -0.86018,-4.60565 -2.28125,-6.1875 0.22028,-0.8115 0.34375,-1.65001 0.34375,-2.53125 0,-2.49448 -0.95247,-4.78175 -2.5,-6.5 0.3525,-1.00491 0.5625,-2.09343 0.5625,-3.21875 0,-3.27577 -1.63787,-6.15071 -4.125,-7.90625 0.16765,-0.88769 0.25,-1.80259 0.25,-2.75 0,-6.96214 -4.76521,-12.59375 -10.65625,-12.59375 -0.38919,0 -0.77785,0.0145 -1.15625,0.0625 -0.90012,-5.53098 -5.68339,-9.78125 -11.46875,-9.78125 -2.0235,0 -3.90491,0.52916 -5.5625,1.4375 -1.66363,-2.01284 -3.75872,-3.25 -6.0625,-3.25 z" />
    <path
       sodipodi:type="arc"
       style="fill:#000000;fill-opacity:1;stroke:#000000;stroke-width:1;stroke-miterlimit:4;stroke-opacity:1;stroke-dasharray:none;stroke-dashoffset:0;display:inline"
       id="path2792"
       sodipodi:cx="22"
       sodipodi:cy="46"
       sodipodi:rx="2"
       sodipodi:ry="6"
       d="m 24,46 c 0,3.313708 -0.895431,6 -2,6 -1.104569,0 -2,-2.686292 -2,-6 0,-3.313708 0.895431,-6 2,-6 1.104569,0 2,2.686292 2,6 z"
       transform="matrix(1.0075353,0,0,0.7676228,100.98326,66.552402)" />
    <path
       sodipodi:type="arc"
       style="fill:#000000;fill-opacity:1;stroke:#000000;stroke-width:1;stroke-miterlimit:4;stroke-opacity:1;stroke-dasharray:none;stroke-dashoffset:0;display:inline"
       id="path2794"
       sodipodi:cx="22"
       sodipodi:cy="46"
       sodipodi:rx="2"
       sodipodi:ry="6"
       d="m 24,46 c 0,3.313708 -0.895431,6 -2,6 -1.104569,0 -2,-2.686292 -2,-6 0,-3.313708 0.895431,-6 2,-6 1.104569,0 2,2.686292 2,6 z"
       transform="matrix(1.0075353,0,0,0.7676228,112.10399,66.552402)" />
  </g>
</svg>
