<?xml version="1.0" encoding="UTF-8" standalone="no"?>
<!-- Created with Inkscape (http://www.inkscape.org/) -->

<svg
   xmlns:dc="http://purl.org/dc/elements/1.1/"
   xmlns:cc="http://creativecommons.org/ns#"
   xmlns:rdf="http://www.w3.org/1999/02/22-rdf-syntax-ns#"
   xmlns:svg="http://www.w3.org/2000/svg"
   xmlns="http://www.w3.org/2000/svg"
   xmlns:xlink="http://www.w3.org/1999/xlink"
   xmlns:sodipodi="http://sodipodi.sourceforge.net/DTD/sodipodi-0.dtd"
   xmlns:inkscape="http://www.inkscape.org/namespaces/inkscape"
   width="512"
   height="256"
   id="svg2"
   version="1.1"
   inkscape:version="0.46+devel 22040"
   sodipodi:docname="medium_1.svg"
   inkscape:export-filename="C:\Dateien\Desktop\Secret Maryo Chronicles\SMC\data\pixmaps\ground\green_2\hedges\medium_1.png"
   inkscape:export-xdpi="90"
   inkscape:export-ydpi="90">
  <defs
     id="defs4">
    <linearGradient
       id="linearGradient3795">
      <stop
         style="stop-color:#04cb17;stop-opacity:0.74299067;"
         offset="0"
         id="stop3797" />
      <stop
         id="stop3799"
         offset="0.59097737"
         style="stop-color:#08ca16;stop-opacity:0.58653846" />
      <stop
         style="stop-color:#0cc915;stop-opacity:0.4906542;"
         offset="1"
         id="stop3801" />
    </linearGradient>
    <linearGradient
       id="linearGradient3689">
      <stop
         id="stop3691"
         offset="0"
         style="stop-color:#04cb17;stop-opacity:0.74299067;" />
      <stop
         style="stop-color:#08ca16;stop-opacity:0.58653846"
         offset="0.59097737"
         id="stop3693" />
      <stop
         id="stop3695"
         offset="1"
         style="stop-color:#0cc915;stop-opacity:0.4906542;" />
    </linearGradient>
    <linearGradient
       id="linearGradient3663">
      <stop
         style="stop-color:#00b813;stop-opacity:1;"
         offset="0"
         id="stop3665" />
      <stop
         style="stop-color:#00a92e;stop-opacity:1;"
         offset="1"
         id="stop3667" />
    </linearGradient>
    <linearGradient
       id="linearGradient3655">
      <stop
         style="stop-color:#04cb17;stop-opacity:0.74299067;"
         offset="0"
         id="stop3657" />
      <stop
         id="stop3612"
         offset="0.5"
         style="stop-color:#08ca16;stop-opacity:0.71495324;" />
      <stop
         style="stop-color:#0cc915;stop-opacity:0.4906542;"
         offset="1"
         id="stop3659" />
    </linearGradient>
    <inkscape:perspective
       sodipodi:type="inkscape:persp3d"
       inkscape:vp_x="0 : 526.18109 : 1"
       inkscape:vp_y="0 : 1000 : 0"
       inkscape:vp_z="744.09448 : 526.18109 : 1"
       inkscape:persp3d-origin="372.04724 : 350.78739 : 1"
       id="perspective10" />
    <filter
       id="filter3615"
       inkscape:menu-tooltip="Draws a black outline around"
       inkscape:menu="ABCs"
       inkscape:label="Black outline"
       color-interpolation-filters="sRGB">
      <feGaussianBlur
         id="feGaussianBlur3617"
         stdDeviation="2"
         in="SourceAlpha"
         result="result0" />
      <feComposite
         id="feComposite3619"
         in2="result0"
         result="result3"
         operator="arithmetic"
         in="SourceGraphic"
         k2="1"
         k3="10"
         k1="0"
         k4="0" />
      <feComposite
         id="feComposite3621"
         in2="result3"
         operator="in"
         in="result3"
         result="result4" />
    </filter>
    <filter
       id="filter3645"
       inkscape:label="lighting"
       inkscape:menu="ABCs"
       inkscape:menu-tooltip="Basic diffuse bevel to use for building textures"
       color-interpolation-filters="sRGB">
      <feGaussianBlur
         id="feGaussianBlur3647"
         stdDeviation="6.5"
         in="SourceGraphic"
         result="result0" />
      <feDiffuseLighting
         id="feDiffuseLighting3649"
         diffuseConstant="1.20000005"
         surfaceScale="10"
         result="result5">
        <feDistantLight
           id="feDistantLight3651"
           elevation="51"
           azimuth="228" />
      </feDiffuseLighting>
      <feComposite
         id="feComposite3653"
         in2="SourceGraphic"
         k1="1"
         in="result5"
         result="result4"
         operator="arithmetic"
         k2="0"
         k3="0.5"
         k4="0" />
      <feMorphology
         id="feMorphology3608"
         operator="erode"
         radius="3.3802816901408446" />
      <feGaussianBlur
         stdDeviation="3.2000000000000002"
         id="feGaussianBlur3610" />
    </filter>
    <filter
       id="filter3427"
       inkscape:label="filter3"
       color-interpolation-filters="sRGB">
      <feTurbulence
         id="feTurbulence3429"
         seed="755"
         baseFrequency="0.076353276353276364 0.14110787172011663"
         type="fractalNoise"
         numOctaves="1" />
      <feColorMatrix
         id="feColorMatrix3431"
         result="result1"
         values="0.3 0.4 0 0 0 0.2 1 0 0 0 0 0.2 0 0 0 0 0.4 0 0 0 "
         type="matrix" />
      <feComposite
         id="feComposite3433"
         in2="SourceGraphic"
         operator="in" />
    </filter>
    <linearGradient
       inkscape:collect="always"
       xlink:href="#linearGradient3663"
       id="linearGradient3634"
       x1="109.99554"
       y1="32.28125"
       x2="125.71875"
       y2="132.99776"
       gradientUnits="userSpaceOnUse" />
    <linearGradient
       inkscape:collect="always"
       xlink:href="#linearGradient3663"
       id="linearGradient3642"
       gradientUnits="userSpaceOnUse"
       x1="109.99554"
       y1="32.28125"
       x2="125.71875"
       y2="132.99776" />
    <linearGradient
       inkscape:collect="always"
       xlink:href="#linearGradient3663"
       id="linearGradient3653"
       gradientUnits="userSpaceOnUse"
       x1="109.99554"
       y1="32.28125"
       x2="125.71875"
       y2="132.99776" />
    <linearGradient
       inkscape:collect="always"
       xlink:href="#linearGradient3663"
       id="linearGradient3678"
       gradientUnits="userSpaceOnUse"
       x1="109.99554"
       y1="32.28125"
       x2="125.71875"
       y2="132.99776" />
    <linearGradient
       inkscape:collect="always"
       xlink:href="#linearGradient3689"
       id="linearGradient3681"
       gradientUnits="userSpaceOnUse"
       x1="109.6702"
       y1="1152.9056"
       x2="144.75072"
       y2="1244.1829" />
    <linearGradient
       inkscape:collect="always"
       xlink:href="#linearGradient3663"
       id="linearGradient3718"
       gradientUnits="userSpaceOnUse"
       x1="109.99554"
       y1="32.28125"
       x2="125.71875"
       y2="132.99776"
       gradientTransform="translate(0,1124.3624)" />
    <linearGradient
       inkscape:collect="always"
       xlink:href="#linearGradient3795"
       id="linearGradient3791"
       x1="240.39937"
       y1="869.76282"
       x2="267.68542"
       y2="1055.8339"
       gradientUnits="userSpaceOnUse" />
  </defs>
  <sodipodi:namedview
     id="base"
     pagecolor="#000000"
     bordercolor="#666666"
     borderopacity="1.0"
     inkscape:pageopacity="0"
     inkscape:pageshadow="2"
     inkscape:zoom="0.49497475"
     inkscape:cx="225.44458"
     inkscape:cy="197.89385"
     inkscape:document-units="px"
     inkscape:current-layer="layer1"
     showgrid="false"
     inkscape:window-width="1122"
     inkscape:window-height="778"
     inkscape:window-x="48"
     inkscape:window-y="60"
     inkscape:window-maximized="0"
     inkscape:snap-to-guides="false"
     inkscape:snap-nodes="false" />
  <metadata
     id="metadata7">
    <rdf:RDF>
      <cc:Work
         rdf:about="">
        <dc:format>image/svg+xml</dc:format>
        <dc:type
           rdf:resource="http://purl.org/dc/dcmitype/StillImage" />
        <dc:title></dc:title>
      </cc:Work>
    </rdf:RDF>
  </metadata>
  <g
     inkscape:label="Layer 1"
     inkscape:groupmode="layer"
     id="layer1"
     transform="translate(0,-796.36218)">
    <path
       style="color:#000000;fill:#00c10b;fill-opacity:1;fill-rule:nonzero;stroke:none;stroke-width:5;marker:none;visibility:visible;display:inline;overflow:visible;filter:url(#filter3615);enable-background:accumulate"
       d="m 237.15625,816.64343 c -15.57287,0 -29.21421,8.29523 -36.71875,20.71875 -7.90796,-4.05274 -17.3918,-6.4375 -27.59375,-6.4375 -27.61424,0 -50,17.29134 -50,38.59375 0,0.85618 0.085,1.68895 0.15625,2.53125 -3.19597,-0.72125 -6.61474,-1.125 -10.15625,-1.125 -17.892982,0 -32.44063,9.96382 -32.84375,22.34375 -0.481901,0.1727 -0.945041,0.34454 -1.4375,0.53125 -24.92512,2.93491 -41.802578,26.99137 -45.71875,51.40625 0,7.24969 1.779711,14.15073 4.9375,20.40625 -9.402625,6.20872 -15.5625,16.49863 -15.5625,28.15625 0,3.52195 0.551014,6.92607 1.59375,10.12497 -9.537587,9.5569 -15.71875,38.9905 -15.71875,56.4063 l 500.46875,0.3437 c 0,-21.8832 -8.54733,-44.5158 -20.53125,-51.6875 0.35556,-3.0617 0.53125,-6.2087 0.53125,-9.43747 0,-14.71206 -3.85908,-27.96467 -10.03125,-37.25 0.008,-0.44757 0.0312,-0.89362 0.0312,-1.34375 0,-25.70975 -13.90716,-47.07361 -32.3125,-51.8125 1.4945,-4.35988 2.3125,-9.03963 2.3125,-13.90625 5e-5,-23.66935 -19.17435,-42.84375 -42.8437,-42.84375 -6.22018,0 -12.13447,1.33539 -17.46875,3.71875 -3.66806,-4.21652 -9.06718,-6.875 -15.09375,-6.875 -4.777,0 -9.18546,1.70558 -12.625,4.5 -5.61474,-8.53988 -15.26222,-14.1875 -26.25,-14.1875 -8.34356,0 -15.90427,3.25778 -21.53125,8.5625 -7.48069,-8.94849 -16.84689,-14.28125 -27.03125,-14.28125 -4.3064,0 -8.47052,0.94287 -12.40625,2.71875 -7.60591,-11.94689 -20.94434,-19.875 -36.15625,-19.875 z"
       id="path3720" />
    <path
       sodipodi:type="inkscape:offset"
       inkscape:radius="0"
       inkscape:original="M 237.15625 816.65625 C 221.58338 816.65625 207.94204 824.95148 200.4375 837.375 C 192.52954 833.32226 183.0457 830.9375 172.84375 830.9375 C 145.22951 830.9375 122.84375 848.22884 122.84375 869.53125 C 122.84375 870.38743 122.92875 871.2202 123 872.0625 C 119.80403 871.34125 116.38526 870.9375 112.84375 870.9375 C 94.950768 870.9375 80.40312 880.90132 80 893.28125 C 79.518099 893.45395 79.054959 893.62579 78.5625 893.8125 C 53.63738 896.74741 36.759922 920.80387 32.84375 945.21875 C 32.84375 952.46844 34.623461 959.36948 37.78125 965.625 C 28.378625 971.83372 22.21875 982.12363 22.21875 993.78125 C 22.21875 997.3032 22.769764 1000.7074 23.8125 1003.9062 C 14.274913 1013.4632 8.09375 1042.8967 8.09375 1060.3125 L 508.5625 1060.6562 C 508.5625 1038.7731 500.01517 1016.1404 488.03125 1008.9688 C 488.38681 1005.9071 488.5625 1002.76 488.5625 999.53125 C 488.5625 984.81919 484.70342 971.56658 478.53125 962.28125 C 478.53925 961.83368 478.5625 961.38763 478.5625 960.9375 C 478.5625 935.22775 464.65534 913.86389 446.25 909.125 C 447.7445 904.76512 448.5625 900.08537 448.5625 895.21875 C 448.56255 871.5494 429.3881 852.375 405.71875 852.375 C 399.49857 852.375 393.58428 853.71039 388.25 856.09375 C 384.58194 851.87723 379.18282 849.21875 373.15625 849.21875 C 368.37925 849.21875 363.97079 850.92433 360.53125 853.71875 C 354.91651 845.17887 345.26903 839.53125 334.28125 839.53125 C 325.93769 839.53125 318.37698 842.78903 312.75 848.09375 C 305.26931 839.14526 295.90311 833.8125 285.71875 833.8125 C 281.41235 833.8125 277.24823 834.75537 273.3125 836.53125 C 265.70659 824.58436 252.36816 816.65625 237.15625 816.65625 z "
       xlink:href="#path3720"
       style="color:#000000;fill:url(#linearGradient3791);fill-opacity:1;fill-rule:nonzero;stroke:none;stroke-width:5;marker:none;visibility:visible;display:inline;overflow:visible;enable-background:accumulate;filter:url(#filter3645)"
       id="path3783"
       inkscape:href="#path3720"
       d="m 237.15625,816.65625 c -15.57287,0 -29.21421,8.29523 -36.71875,20.71875 -7.90796,-4.05274 -17.3918,-6.4375 -27.59375,-6.4375 -27.61424,0 -50,17.29134 -50,38.59375 0,0.85618 0.085,1.68895 0.15625,2.53125 -3.19597,-0.72125 -6.61474,-1.125 -10.15625,-1.125 -17.892982,0 -32.44063,9.96382 -32.84375,22.34375 -0.481901,0.1727 -0.945041,0.34454 -1.4375,0.53125 -24.92512,2.93491 -41.802578,26.99137 -45.71875,51.40625 0,7.24969 1.779711,14.15073 4.9375,20.40625 -9.402625,6.20872 -15.5625,16.49863 -15.5625,28.15625 0,3.52195 0.551014,6.92615 1.59375,10.12495 -9.537587,9.557 -15.71875,38.9905 -15.71875,56.4063 l 500.46875,0.3437 c 0,-21.8831 -8.54733,-44.5158 -20.53125,-51.6874 0.35556,-3.0617 0.53125,-6.2088 0.53125,-9.43755 0,-14.71206 -3.85908,-27.96467 -10.03125,-37.25 0.008,-0.44757 0.0312,-0.89362 0.0312,-1.34375 0,-25.70975 -13.90716,-47.07361 -32.3125,-51.8125 1.4945,-4.35988 2.3125,-9.03963 2.3125,-13.90625 5e-5,-23.66935 -19.1744,-42.84375 -42.84375,-42.84375 -6.22018,0 -12.13447,1.33539 -17.46875,3.71875 -3.66806,-4.21652 -9.06718,-6.875 -15.09375,-6.875 -4.777,0 -9.18546,1.70558 -12.625,4.5 -5.61474,-8.53988 -15.26222,-14.1875 -26.25,-14.1875 -8.34356,0 -15.90427,3.25778 -21.53125,8.5625 -7.48069,-8.94849 -16.84689,-14.28125 -27.03125,-14.28125 -4.3064,0 -8.47052,0.94287 -12.40625,2.71875 -7.60591,-11.94689 -20.94434,-19.875 -36.15625,-19.875 z" />
    <path
       sodipodi:type="inkscape:offset"
       inkscape:radius="0"
       inkscape:original="M 237.15625 816.65625 C 221.58338 816.65625 207.94204 824.95148 200.4375 837.375 C 192.52954 833.32226 183.0457 830.9375 172.84375 830.9375 C 145.22951 830.9375 122.84375 848.22884 122.84375 869.53125 C 122.84375 870.38743 122.92875 871.2202 123 872.0625 C 119.80403 871.34125 116.38526 870.9375 112.84375 870.9375 C 94.950768 870.9375 80.40312 880.90132 80 893.28125 C 79.518099 893.45395 79.054959 893.62579 78.5625 893.8125 C 53.63738 896.74741 36.759922 920.80387 32.84375 945.21875 C 32.84375 952.46844 34.623461 959.36948 37.78125 965.625 C 28.378625 971.83372 22.21875 982.12363 22.21875 993.78125 C 22.21875 997.3032 22.769764 1000.7074 23.8125 1003.9062 C 14.274913 1013.4632 8.09375 1042.8967 8.09375 1060.3125 L 508.5625 1060.6562 C 508.5625 1038.7731 500.01517 1016.1404 488.03125 1008.9688 C 488.38681 1005.9071 488.5625 1002.76 488.5625 999.53125 C 488.5625 984.81919 484.70342 971.56658 478.53125 962.28125 C 478.53925 961.83368 478.5625 961.38763 478.5625 960.9375 C 478.5625 935.22775 464.65534 913.86389 446.25 909.125 C 447.7445 904.76512 448.5625 900.08537 448.5625 895.21875 C 448.56255 871.5494 429.3881 852.375 405.71875 852.375 C 399.49857 852.375 393.58428 853.71039 388.25 856.09375 C 384.58194 851.87723 379.18282 849.21875 373.15625 849.21875 C 368.37925 849.21875 363.97079 850.92433 360.53125 853.71875 C 354.91651 845.17887 345.26903 839.53125 334.28125 839.53125 C 325.93769 839.53125 318.37698 842.78903 312.75 848.09375 C 305.26931 839.14526 295.90311 833.8125 285.71875 833.8125 C 281.41235 833.8125 277.24823 834.75537 273.3125 836.53125 C 265.70659 824.58436 252.36816 816.65625 237.15625 816.65625 z "
       xlink:href="#path3720"
       style="color:#000000;fill:#21ff2e;fill-opacity:1;fill-rule:nonzero;stroke:none;stroke-width:5;marker:none;visibility:visible;display:inline;overflow:visible;enable-background:accumulate;filter:url(#filter3427)"
       id="path3803"
       inkscape:href="#path3720"
       d="m 237.15625,816.65625 c -15.57287,0 -29.21421,8.29523 -36.71875,20.71875 -7.90796,-4.05274 -17.3918,-6.4375 -27.59375,-6.4375 -27.61424,0 -50,17.29134 -50,38.59375 0,0.85618 0.085,1.68895 0.15625,2.53125 -3.19597,-0.72125 -6.61474,-1.125 -10.15625,-1.125 -17.892982,0 -32.44063,9.96382 -32.84375,22.34375 -0.481901,0.1727 -0.945041,0.34454 -1.4375,0.53125 -24.92512,2.93491 -41.802578,26.99137 -45.71875,51.40625 0,7.24969 1.779711,14.15073 4.9375,20.40625 -9.402625,6.20872 -15.5625,16.49863 -15.5625,28.15625 0,3.52195 0.551014,6.92615 1.59375,10.12495 -9.537587,9.557 -15.71875,38.9905 -15.71875,56.4063 l 500.46875,0.3437 c 0,-21.8831 -8.54733,-44.5158 -20.53125,-51.6874 0.35556,-3.0617 0.53125,-6.2088 0.53125,-9.43755 0,-14.71206 -3.85908,-27.96467 -10.03125,-37.25 0.008,-0.44757 0.0312,-0.89362 0.0312,-1.34375 0,-25.70975 -13.90716,-47.07361 -32.3125,-51.8125 1.4945,-4.35988 2.3125,-9.03963 2.3125,-13.90625 5e-5,-23.66935 -19.1744,-42.84375 -42.84375,-42.84375 -6.22018,0 -12.13447,1.33539 -17.46875,3.71875 -3.66806,-4.21652 -9.06718,-6.875 -15.09375,-6.875 -4.777,0 -9.18546,1.70558 -12.625,4.5 -5.61474,-8.53988 -15.26222,-14.1875 -26.25,-14.1875 -8.34356,0 -15.90427,3.25778 -21.53125,8.5625 -7.48069,-8.94849 -16.84689,-14.28125 -27.03125,-14.28125 -4.3064,0 -8.47052,0.94287 -12.40625,2.71875 -7.60591,-11.94689 -20.94434,-19.875 -36.15625,-19.875 z" />
  </g>
</svg>
