<?xml version="1.0" encoding="UTF-8" standalone="no"?>
<!-- Created with Inkscape (http://www.inkscape.org/) -->

<svg
   xmlns:dc="http://purl.org/dc/elements/1.1/"
   xmlns:cc="http://creativecommons.org/ns#"
   xmlns:rdf="http://www.w3.org/1999/02/22-rdf-syntax-ns#"
   xmlns:svg="http://www.w3.org/2000/svg"
   xmlns="http://www.w3.org/2000/svg"
   xmlns:xlink="http://www.w3.org/1999/xlink"
   xmlns:sodipodi="http://sodipodi.sourceforge.net/DTD/sodipodi-0.dtd"
   xmlns:inkscape="http://www.inkscape.org/namespaces/inkscape"
   width="256"
   height="128"
   id="svg2"
   version="1.1"
   inkscape:version="0.46+devel 22040"
   sodipodi:docname="small_1.svg"
   inkscape:export-filename="C:\Dateien\Desktop\Secret Maryo Chronicles\SMC\data\pixmaps\ground\green_2\hedges\small_3.png"
   inkscape:export-xdpi="90"
   inkscape:export-ydpi="90">
  <defs
     id="defs4">
    <linearGradient
       id="linearGradient3654">
      <stop
         id="stop3656"
         offset="0"
         style="stop-color:#04e81b;stop-opacity:0.72897196;" />
      <stop
         style="stop-color:#09d71a;stop-opacity:0.62616825;"
         offset="0.5"
         id="stop3640" />
      <stop
         id="stop3660"
         offset="1"
         style="stop-color:#14b21c;stop-opacity:0.37383178;" />
    </linearGradient>
    <linearGradient
       id="linearGradient3663">
      <stop
         style="stop-color:#02cb00;stop-opacity:1;"
         offset="0"
         id="stop3665" />
      <stop
         style="stop-color:#158212;stop-opacity:1;"
         offset="1"
         id="stop3667" />
    </linearGradient>
    <linearGradient
       id="linearGradient3655">
      <stop
         style="stop-color:#04e51a;stop-opacity:0.75700933;"
         offset="0"
         id="stop3657" />
      <stop
         id="stop3612"
         offset="0.5"
         style="stop-color:#08d317;stop-opacity:0.73831773;" />
      <stop
         style="stop-color:#0fbf17;stop-opacity:0.69158876;"
         offset="1"
         id="stop3659" />
    </linearGradient>
    <filter
       id="filter3615"
       inkscape:menu-tooltip="Draws a black outline around"
       inkscape:menu="ABCs"
       inkscape:label="Black outline">
      <feGaussianBlur
         id="feGaussianBlur3617"
         stdDeviation="2"
         in="SourceAlpha"
         result="result0" />
      <feComposite
         id="feComposite3619"
         in2="result0"
         result="result3"
         operator="arithmetic"
         in="SourceGraphic"
         k2="1"
         k3="10" />
      <feComposite
         id="feComposite3621"
         in2="result3"
         k2="1"
         operator="in"
         in="result3"
         result="result4" />
    </filter>
    <filter
       id="filter3645"
       inkscape:label="lighting"
       inkscape:menu="ABCs"
       inkscape:menu-tooltip="Basic diffuse bevel to use for building textures">
      <feGaussianBlur
         id="feGaussianBlur3647"
         stdDeviation="6.5"
         in="SourceGraphic"
         result="result0" />
      <feDiffuseLighting
         id="feDiffuseLighting3649"
         diffuseConstant="1.2000000000000002"
         surfaceScale="10"
         result="result5">
        <feDistantLight
           id="feDistantLight3651"
           elevation="51"
           azimuth="228" />
      </feDiffuseLighting>
      <feComposite
         id="feComposite3653"
         in2="SourceGraphic"
         k1="1"
         in="result5"
         result="result4"
         operator="arithmetic"
         k2="0"
         k3="0.5" />
      <feMorphology
         id="feMorphology3608"
         operator="erode"
         radius="3.3802816901408446" />
      <feGaussianBlur
         stdDeviation="3.2000000000000002"
         id="feGaussianBlur3610" />
    </filter>
    <linearGradient
       inkscape:collect="always"
       xlink:href="#linearGradient3655"
       id="linearGradient3661"
       x1="100.3238"
       y1="970.98212"
       x2="114.57246"
       y2="1048.7639"
       gradientUnits="userSpaceOnUse" />
    <linearGradient
       inkscape:collect="always"
       xlink:href="#linearGradient3663"
       id="linearGradient3673"
       gradientUnits="userSpaceOnUse"
       x1="107.39486"
       y1="956.83618"
       x2="128.15625"
       y2="1046.74"
       gradientTransform="translate(0,8)" />
    <filter
       id="filter3427"
       inkscape:label="turbulence">
      <feTurbulence
         id="feTurbulence3429"
         in="SourceGraphic"
         seed="745"
         baseFrequency="0.076353276353276364 0.14110787172011663"
         type="fractalNoise"
         numOctaves="1" />
      <feColorMatrix
         id="feColorMatrix3431"
         result="result1"
         values="0.3 0.4 0 0 0 0.2 0.8 0 0 0 0 0.1 0 0 0 0.1 0.3 0 0 0 "
         type="matrix" />
      <feComposite
         id="feComposite3433"
         in2="SourceGraphic"
         operator="in" />
    </filter>
    <linearGradient
       inkscape:collect="always"
       xlink:href="#linearGradient3654"
       id="linearGradient3626"
       x1="95.35714"
       y1="80.243294"
       x2="102.5"
       y2="133.10063"
       gradientUnits="userSpaceOnUse" />
    <linearGradient
       inkscape:collect="always"
       xlink:href="#linearGradient3663"
       id="linearGradient3944"
       gradientUnits="userSpaceOnUse"
       x1="93.928574"
       y1="78.573212"
       x2="102.5"
       y2="134.59196" />
  </defs>
  <sodipodi:namedview
     id="base"
     pagecolor="#000000"
     bordercolor="#666666"
     borderopacity="1.0"
     inkscape:pageopacity="0"
     inkscape:pageshadow="2"
     inkscape:zoom="1.4"
     inkscape:cx="73.428571"
     inkscape:cy="87.962273"
     inkscape:document-units="px"
     inkscape:current-layer="layer1"
     showgrid="false"
     inkscape:window-width="1126"
     inkscape:window-height="778"
     inkscape:window-x="44"
     inkscape:window-y="60"
     inkscape:window-maximized="0"
     inkscape:snap-nodes="false" />
  <metadata
     id="metadata7">
    <rdf:RDF>
      <cc:Work
         rdf:about="">
        <dc:format>image/svg+xml</dc:format>
        <dc:type
           rdf:resource="http://purl.org/dc/dcmitype/StillImage" />
        <dc:title></dc:title>
      </cc:Work>
    </rdf:RDF>
  </metadata>
  <g
     inkscape:label="Layer 1"
     inkscape:groupmode="layer"
     id="layer1"
     transform="translate(0,-924.36218)">
    <path
       style="color:#000000;fill:url(#linearGradient3673);fill-opacity:1;fill-rule:evenodd;stroke:none;stroke-width:0;marker:none;visibility:visible;display:inline;overflow:visible;filter:url(#filter3615);enable-background:accumulate"
       d="m 116.71875,963.15245 c -16.19843,0 -29.983424,10.57156 -35.0625,25.3125 -5.791994,-2.91873 -12.617611,-4.59375 -19.9375,-4.59375 -20.907923,0 -37.875,13.72447 -37.875,30.6875 0,4.2881 1.106193,8.3865 3.0625,12.0938 -11.47422,5.5031 -18.75,13.7125 -18.75,22.9062 0,2.7263 0.643689,5.3645 1.84375,7.875 l 235.1875,0 c 1.92739,-3.5784 2.96875,-7.4248 2.96875,-11.4375 0,-13.0354 -11.08536,-24.3885 -27.375,-30.1875 0.15,-0.8739 0.21875,-1.7503 0.21875,-2.6562 0,-11.0457 -11.51714,-20.00005 -25.71875,-20.00005 -0.84543,0 -1.67549,0.0317 -2.5,0.0937 -6.62525,-13.57426 -20.92802,-22.96875 -37.5,-22.96875 -4.90096,0 -9.60503,0.8353 -13.96875,2.34375 -6.55128,-5.90586 -15.1599,-9.46875 -24.59375,-9.46875 z"
       id="path2816" />
    <path
       sodipodi:type="inkscape:offset"
       inkscape:radius="0"
       inkscape:original="M 116.71875 963.15625 C 100.52032 963.15625 86.735326 973.72781 81.65625 988.46875 C 75.864256 985.55002 69.038639 983.875 61.71875 983.875 C 40.810827 983.875 23.84375 997.59947 23.84375 1014.5625 C 23.84375 1018.8506 24.949943 1022.9489 26.90625 1026.6562 C 15.43203 1032.1593 8.15625 1040.3688 8.15625 1049.5625 C 8.15625 1052.2888 8.799939 1054.927 10 1057.4375 L 245.1875 1057.4375 C 247.11489 1053.8591 248.15625 1050.0127 248.15625 1046 C 248.15625 1032.9646 237.07089 1021.6115 220.78125 1015.8125 C 220.93125 1014.9386 221 1014.0621 221 1013.1562 C 221 1002.1105 209.48286 993.15625 195.28125 993.15625 C 194.43582 993.15625 193.60576 993.188 192.78125 993.25 C 186.156 979.67574 171.85323 970.28125 155.28125 970.28125 C 150.38029 970.28125 145.67622 971.11655 141.3125 972.625 C 134.76122 966.71914 126.1526 963.15625 116.71875 963.15625 z "
       xlink:href="#path2816"
       style="color:#000000;fill:url(#linearGradient3661);fill-opacity:1;fill-rule:evenodd;stroke:none;stroke-width:0;marker:none;visibility:visible;display:inline;overflow:visible;filter:url(#filter3645);enable-background:accumulate"
       id="path3633"
       inkscape:href="#path2816"
       d="m 116.71875,961.15625 c -16.19843,0 -29.983424,10.57156 -35.0625,25.3125 -5.791994,-2.91873 -12.617611,-4.59375 -19.9375,-4.59375 -20.907923,0 -37.875,13.72447 -37.875,30.6875 0,4.2881 1.106193,8.3864 3.0625,12.0937 -11.47422,5.5031 -18.75,13.7126 -18.75,22.9063 0,2.7263 0.643689,5.3645 1.84375,7.875 l 235.1875,0 c 1.92739,-3.5784 2.96875,-7.4248 2.96875,-11.4375 0,-13.0354 -11.08536,-24.3885 -27.375,-30.1875 0.15,-0.8739 0.21875,-1.7504 0.21875,-2.6563 0,-11.0457 -11.51714,-19.99995 -25.71875,-19.99995 -0.84543,0 -1.67549,0.0317 -2.5,0.0937 -6.62525,-13.57426 -20.92802,-22.96875 -37.5,-22.96875 -4.90096,0 -9.60503,0.8353 -13.96875,2.34375 -6.55128,-5.90586 -15.1599,-9.46875 -24.59375,-9.46875 z" />
    <path
       sodipodi:type="inkscape:offset"
       inkscape:radius="0"
       inkscape:original="M 116.71875 963.15625 C 100.52032 963.15625 86.735326 973.72781 81.65625 988.46875 C 75.864256 985.55002 69.038639 983.875 61.71875 983.875 C 40.810827 983.875 23.84375 997.59947 23.84375 1014.5625 C 23.84375 1018.8506 24.949943 1022.9489 26.90625 1026.6562 C 15.43203 1032.1593 8.15625 1040.3688 8.15625 1049.5625 C 8.15625 1052.2888 8.799939 1054.927 10 1057.4375 L 245.1875 1057.4375 C 247.11489 1053.8591 248.15625 1050.0127 248.15625 1046 C 248.15625 1032.9646 237.07089 1021.6115 220.78125 1015.8125 C 220.93125 1014.9386 221 1014.0621 221 1013.1562 C 221 1002.1105 209.48286 993.15625 195.28125 993.15625 C 194.43582 993.15625 193.60576 993.188 192.78125 993.25 C 186.156 979.67574 171.85323 970.28125 155.28125 970.28125 C 150.38029 970.28125 145.67622 971.11655 141.3125 972.625 C 134.76122 966.71914 126.1526 963.15625 116.71875 963.15625 z "
       xlink:href="#path2816"
       style="color:#000000;fill:#0e9717;fill-opacity:1;fill-rule:evenodd;stroke:none;stroke-width:0;marker:none;visibility:visible;display:inline;overflow:visible;filter:url(#filter3427);enable-background:accumulate"
       id="path3671"
       inkscape:href="#path2816"
       d="m 116.71875,961.15625 c -16.19843,0 -29.983424,10.57156 -35.0625,25.3125 -5.791994,-2.91873 -12.617611,-4.59375 -19.9375,-4.59375 -20.907923,0 -37.875,13.72447 -37.875,30.6875 0,4.2881 1.106193,8.3864 3.0625,12.0937 -11.47422,5.5031 -18.75,13.7126 -18.75,22.9063 0,2.7263 0.643689,5.3645 1.84375,7.875 l 235.1875,0 c 1.92739,-3.5784 2.96875,-7.4248 2.96875,-11.4375 0,-13.0354 -11.08536,-24.3885 -27.375,-30.1875 0.15,-0.8739 0.21875,-1.7504 0.21875,-2.6563 0,-11.0457 -11.51714,-19.99995 -25.71875,-19.99995 -0.84543,0 -1.67549,0.0317 -2.5,0.0937 -6.62525,-13.57426 -20.92802,-22.96875 -37.5,-22.96875 -4.90096,0 -9.60503,0.8353 -13.96875,2.34375 -6.55128,-5.90586 -15.1599,-9.46875 -24.59375,-9.46875 z" />
  </g>
</svg>
