<?xml version="1.0" encoding="UTF-8" standalone="no"?>
<!-- Created with Inkscape (http://www.inkscape.org/) -->
<svg
   xmlns:dc="http://purl.org/dc/elements/1.1/"
   xmlns:cc="http://creativecommons.org/ns#"
   xmlns:rdf="http://www.w3.org/1999/02/22-rdf-syntax-ns#"
   xmlns:svg="http://www.w3.org/2000/svg"
   xmlns="http://www.w3.org/2000/svg"
   xmlns:xlink="http://www.w3.org/1999/xlink"
   xmlns:sodipodi="http://sodipodi.sourceforge.net/DTD/sodipodi-0.dtd"
   xmlns:inkscape="http://www.inkscape.org/namespaces/inkscape"
   width="256"
   height="256"
   id="svg3634"
   sodipodi:version="0.32"
   inkscape:version="0.46"
   sodipodi:docname="candy_cane.svg"
   inkscape:output_extension="org.inkscape.output.svg.inkscape"
   version="1.0"
   inkscape:export-filename="D:\Dateien\Desktop\Secret Maryo Chronicles\SMC\data\pixmaps\ground\candy_1\candy_cane_2_top.png"
   inkscape:export-xdpi="180"
   inkscape:export-ydpi="180">
  <defs
     id="defs3636">
    <inkscape:perspective
       sodipodi:type="inkscape:persp3d"
       inkscape:vp_x="0 : 128 : 1"
       inkscape:vp_y="0 : 1000 : 0"
       inkscape:vp_z="256 : 128 : 1"
       inkscape:persp3d-origin="128 : 85.333333 : 1"
       id="perspective117" />
    <linearGradient
       inkscape:collect="always"
       id="linearGradient14800">
      <stop
         style="stop-color:#ffffff;stop-opacity:1;"
         offset="0"
         id="stop14802" />
      <stop
         style="stop-color:#ffffff;stop-opacity:0;"
         offset="1"
         id="stop14804" />
    </linearGradient>
    <linearGradient
       id="linearGradient2489">
      <stop
         style="stop-color:#ececec;stop-opacity:1;"
         offset="0"
         id="stop2491" />
      <stop
         style="stop-color:#d7d7d7;stop-opacity:1;"
         offset="1"
         id="stop2493" />
    </linearGradient>
    <inkscape:path-effect
       copytype="repeated_stretched"
       pattern="M 667.321,447.961 L 730.321,447.961 M 730.321,510.961 L 667.321,510.961 "
       prop_scale="1"
       id="path-effect2450"
       effect="skeletal" />
    <inkscape:path-effect
       effect="skeletal"
       id="path-effect2446"
       prop_scale="1"
       pattern="M 459.25416,734.30869 L 462.56666,734.30869 L 499.53541,670.30869 L 459.25416,670.30869 L 459.25416,734.30869 z M 469.81666,734.30869 L 472.75416,734.30869 L 509.72291,670.30869 L 506.75416,670.30869 L 469.81666,734.30869 z M 474.72291,734.30869 L 477.69166,734.30869 L 514.62916,670.30869 L 511.66041,670.30869 L 474.72291,734.30869 z M 484.56666,734.30869 L 523.25416,734.30869 L 523.25416,670.30869 L 521.53541,670.30869 L 484.56666,734.30869 z"
       copytype="repeated_stretched" />
    <linearGradient
       inkscape:collect="always"
       id="linearGradient4523">
      <stop
         style="stop-color:#ffffff;stop-opacity:1;"
         offset="0"
         id="stop4525" />
      <stop
         style="stop-color:#ffffff;stop-opacity:0;"
         offset="1"
         id="stop4527" />
    </linearGradient>
    <filter
       inkscape:collect="always"
       id="filter4547">
      <feGaussianBlur
         inkscape:collect="always"
         stdDeviation="1.3002939"
         id="feGaussianBlur4549" />
    </filter>
    <filter
       inkscape:collect="always"
       id="filter3307"
       x="-0.1788718"
       width="1.3577436"
       y="-0.19278292"
       height="1.3855659">
      <feGaussianBlur
         inkscape:collect="always"
         stdDeviation="15.562197"
         id="feGaussianBlur3309" />
    </filter>
    <clipPath
       clipPathUnits="userSpaceOnUse"
       id="clipPath3318">
      <path
         style="fill:#000000;fill-opacity:1;fill-rule:evenodd;stroke:none;stroke-width:1px;stroke-linecap:butt;stroke-linejoin:miter;stroke-opacity:1"
         d="M 257.16775,947.91323 C 256.99692,912.41068 255.77785,875.19734 264.67837,840.5289 C 268.52966,826.92954 275.49519,811.126 290.69675,807.61099 C 305.12434,804.888 322.5508,804.90492 333.82013,815.65561 C 347.01197,830.93475 347.96832,852.35097 349.80852,871.49867 C 351.14727,886.60785 349.80555,901.87501 351.37327,916.92387 C 355.50403,936.21595 379.81214,943.37986 396.45072,936.11413 C 408.73627,931.69317 415.23851,918.24189 413.66863,905.68788 C 413.39317,867.01746 412.93914,826.10474 393.64517,791.37735 C 378.81128,763.86173 349.18759,746.30279 318.32136,743.84032 C 286.76226,740.13912 252.24219,748.70514 230.5727,773.12748 C 205.75619,800.43989 198.61821,838.4727 195.63675,874.07204 C 194.0696,898.645 193.54989,923.29699 194.17575,947.91323"
         id="path3320"
         sodipodi:nodetypes="ccccccccccccc" />
    </clipPath>
    <clipPath
       clipPathUnits="userSpaceOnUse"
       id="clipPath3446">
      <path
         sodipodi:nodetypes="ccccc"
         id="path3448"
         d="M 524.26939,896.60305 L 461.26939,896.60305 L 461.26939,857.5271 L 524.26939,857.5271 L 524.26939,896.60305 z"
         style="fill:#0000ff;fill-opacity:1;fill-rule:evenodd;stroke:none;stroke-width:1px;stroke-linecap:square;stroke-linejoin:miter;stroke-opacity:1" />
    </clipPath>
    <filter
       inkscape:collect="always"
       id="filter3658"
       x="-0.60505849"
       width="2.2101171"
       y="-0.73217994"
       height="2.46436">
      <feGaussianBlur
         inkscape:collect="always"
         stdDeviation="11.921095"
         id="feGaussianBlur3660" />
    </filter>
    <linearGradient
       inkscape:collect="always"
       xlink:href="#linearGradient2489"
       id="linearGradient2510"
       gradientUnits="userSpaceOnUse"
       gradientTransform="translate(-451.26064,-546.52527)"
       x1="461.26938"
       y1="845.56506"
       x2="524.26941"
       y2="908.56506" />
    <linearGradient
       inkscape:collect="always"
       xlink:href="#linearGradient2489"
       id="linearGradient2512"
       gradientUnits="userSpaceOnUse"
       gradientTransform="translate(-451.26065,-439.59974)"
       x1="461.26938"
       y1="845.56506"
       x2="524.26941"
       y2="908.56506" />
    <linearGradient
       inkscape:collect="always"
       xlink:href="#linearGradient4523"
       id="linearGradient2564"
       gradientUnits="userSpaceOnUse"
       x1="192.82631"
       y1="-115.02057"
       x2="192.82631"
       y2="-87.079872" />
    <linearGradient
       inkscape:collect="always"
       xlink:href="#linearGradient2489"
       id="linearGradient2571"
       gradientUnits="userSpaceOnUse"
       gradientTransform="translate(-193.36018,-692.83729)"
       x1="262.13458"
       y1="752.85193"
       x2="380.82751"
       y2="941.24542" />
    <linearGradient
       inkscape:collect="always"
       xlink:href="#linearGradient2489"
       id="linearGradient2573"
       gradientUnits="userSpaceOnUse"
       gradientTransform="translate(-143.8627,-669.37099)"
       x1="212.6371"
       y1="729.38562"
       x2="331.33005"
       y2="917.77911" />
    <linearGradient
       inkscape:collect="always"
       xlink:href="#linearGradient4523"
       id="linearGradient2625"
       gradientUnits="userSpaceOnUse"
       x1="192.82631"
       y1="-115.02057"
       x2="192.82631"
       y2="-87.079872" />
    <linearGradient
       inkscape:collect="always"
       xlink:href="#linearGradient2489"
       id="linearGradient2632"
       gradientUnits="userSpaceOnUse"
       gradientTransform="translate(-193.36018,-692.83729)"
       x1="262.13458"
       y1="752.85193"
       x2="380.82751"
       y2="941.24542" />
    <linearGradient
       inkscape:collect="always"
       xlink:href="#linearGradient2489"
       id="linearGradient2634"
       gradientUnits="userSpaceOnUse"
       gradientTransform="translate(-143.8627,-669.37099)"
       x1="212.6371"
       y1="729.38562"
       x2="331.33005"
       y2="917.77911" />
    <pattern
       patternUnits="userSpaceOnUse"
       width="116.26073"
       height="133.67351"
       patternTransform="translate(137.63768,118.10804)"
       id="pattern10087">
      <g
         transform="translate(-34.637679,-110.60804)"
         id="g8404">
        <path
           style="fill:none;fill-rule:evenodd;stroke:#45941f;stroke-width:1px;stroke-linecap:butt;stroke-linejoin:miter;stroke-opacity:1"
           d="M 48,141.28155 C 48,141.28155 76,223.78155 61.5,242.78155"
           id="path6740"
           inkscape:tile-w="18.666717"
           inkscape:tile-h="102.5"
           inkscape:tile-cx="27.833358"
           inkscape:tile-cy="191.25" />
        <use
           x="0"
           y="0"
           inkscape:tiled-clone-of="#path6740"
           xlink:href="#path6740"
           transform="matrix(0.9986226,-5.2468808e-2,5.2372796e-2,0.9967952,-20.195973,5.0053556)"
           id="use8324"
           style="fill:#000000;stroke:#000000"
           width="256"
           height="256" />
        <use
           x="0"
           y="0"
           inkscape:tiled-clone-of="#path6740"
           xlink:href="#path6740"
           transform="matrix(0.9903274,-0.1387506,0.1105043,0.7887204,-20.67483,59.881737)"
           id="use8326"
           style="fill:#000000;stroke:#000000"
           width="256"
           height="256" />
        <use
           x="0"
           y="0"
           inkscape:tiled-clone-of="#path6740"
           xlink:href="#path6740"
           transform="matrix(0.9995476,-3.0074997e-2,2.7438729e-2,0.9119308,-8.3328004,23.253606)"
           id="use8328"
           style="fill:#000000;stroke:#000000"
           width="256"
           height="256" />
        <use
           x="0"
           y="0"
           inkscape:tiled-clone-of="#path6740"
           xlink:href="#path6740"
           transform="matrix(0.9926894,-0.1206971,0.1193381,0.9815127,-19.863042,11.91407)"
           id="use8330"
           style="fill:#000000;stroke:#000000"
           width="256"
           height="256" />
        <use
           x="0"
           y="0"
           inkscape:tiled-clone-of="#path6740"
           xlink:href="#path6740"
           transform="matrix(0.9968677,-7.9087437e-2,9.3842786e-2,1.1828534,-9.2950633,-39.574203)"
           id="use8332"
           style="fill:#000000;stroke:#000000"
           width="256"
           height="256" />
        <use
           x="0"
           y="0"
           inkscape:tiled-clone-of="#path6740"
           xlink:href="#path6740"
           transform="matrix(0.99472,0.1026262,-0.1291987,1.2522788,38.382089,-67.621158)"
           id="use8334"
           style="fill:#000000;stroke:#000000"
           width="256"
           height="256" />
        <use
           x="0"
           y="0"
           inkscape:tiled-clone-of="#path6740"
           xlink:href="#path6740"
           transform="matrix(0.9885463,-0.1509182,0.1672853,1.0957542,-14.596318,-13.992298)"
           id="use8336"
           style="fill:#000000;stroke:#000000"
           width="256"
           height="256" />
        <use
           x="0"
           y="0"
           inkscape:tiled-clone-of="#path6740"
           xlink:href="#path6740"
           transform="matrix(0.9991437,4.1375224e-2,-4.7247844e-2,1.1409578,30.172514,-36.800836)"
           id="use8338"
           style="fill:#000000;stroke:#000000"
           width="256"
           height="256" />
        <use
           x="0"
           y="0"
           inkscape:tiled-clone-of="#path6740"
           xlink:href="#path6740"
           transform="matrix(0.9921178,0.1253085,-0.1301964,1.0308172,48.564702,-15.197979)"
           id="use8340"
           style="fill:#000000;stroke:#000000"
           width="256"
           height="256" />
        <use
           x="0"
           y="0"
           inkscape:tiled-clone-of="#path6740"
           xlink:href="#path6740"
           transform="matrix(0.9994426,3.3384447e-2,-3.2964458e-2,0.9868692,34.043234,1.1379275)"
           id="use8342"
           style="fill:#000000;stroke:#000000"
           width="256"
           height="256" />
        <use
           x="0"
           y="0"
           inkscape:tiled-clone-of="#path6740"
           xlink:href="#path6740"
           transform="matrix(0.9891447,-0.1469447,0.1470032,0.9895382,2.3930447,11.576932)"
           id="use8344"
           style="fill:#000000;stroke:#000000"
           width="256"
           height="256" />
        <use
           x="0"
           y="0"
           inkscape:tiled-clone-of="#path6740"
           xlink:href="#path6740"
           transform="matrix(0.9989826,4.509654e-2,-4.328814e-2,0.9589228,42.194944,7.2094767)"
           id="use8346"
           style="fill:#000000;stroke:#000000"
           width="256"
           height="256" />
        <use
           x="0"
           y="0"
           inkscape:tiled-clone-of="#path6740"
           xlink:href="#path6740"
           transform="matrix(0.9922861,-0.1239692,0.1048251,0.839051,15.575832,46.739778)"
           id="use8348"
           style="fill:#000000;stroke:#000000"
           width="256"
           height="256" />
        <use
           x="0"
           y="0"
           inkscape:tiled-clone-of="#path6740"
           xlink:href="#path6740"
           transform="matrix(0.9961604,-8.7546702e-2,0.1115387,1.2691565,17.035552,-60.026479)"
           id="use8350"
           style="fill:#000000;stroke:#000000"
           width="256"
           height="256" />
        <use
           x="0"
           y="0"
           inkscape:tiled-clone-of="#path6740"
           xlink:href="#path6740"
           transform="matrix(0.9965649,-8.2815824e-2,7.1468369e-2,0.8600152,27.260413,39.114416)"
           id="use8352"
           style="fill:#000000;stroke:#000000"
           width="256"
           height="256" />
        <use
           x="0"
           y="0"
           inkscape:tiled-clone-of="#path6740"
           xlink:href="#path6740"
           transform="matrix(0.9931081,-0.117202,0.1364748,1.1564151,17.707355,-30.806323)"
           id="use8354"
           style="fill:#000000;stroke:#000000"
           width="256"
           height="256" />
        <use
           x="0"
           y="0"
           inkscape:tiled-clone-of="#path6740"
           xlink:href="#path6740"
           transform="matrix(0.9989472,-4.5874767e-2,4.9211581e-2,1.0716081,36.511419,-14.581692)"
           id="use8356"
           style="fill:#000000;stroke:#000000"
           width="256"
           height="256" />
        <use
           x="0"
           y="0"
           inkscape:tiled-clone-of="#path6740"
           xlink:href="#path6740"
           transform="matrix(0.9976658,6.8286301e-2,-8.5389273e-2,1.2475409,64.682054,-64.35709)"
           id="use8358"
           style="fill:#000000;stroke:#000000"
           width="256"
           height="256" />
        <use
           x="0"
           y="0"
           inkscape:tiled-clone-of="#path6740"
           xlink:href="#path6740"
           transform="matrix(0.9979087,6.4638518e-2,-7.3884333e-2,1.1406484,64.170752,-38.15667)"
           id="use8360"
           style="fill:#000000;stroke:#000000"
           width="256"
           height="256" />
        <use
           x="0"
           y="0"
           inkscape:tiled-clone-of="#path6740"
           xlink:href="#path6740"
           transform="matrix(0.9993984,-3.4681396e-2,3.7865144e-2,1.0911431,44.499317,-20.017404)"
           id="use8362"
           style="fill:#000000;stroke:#000000"
           width="256"
           height="256" />
        <use
           x="0"
           y="0"
           inkscape:tiled-clone-of="#path6740"
           xlink:href="#path6740"
           transform="matrix(0.9912877,-0.1317141,0.1475907,1.1107761,26.760504,-18.823253)"
           id="use8364"
           style="fill:#000000;stroke:#000000"
           width="256"
           height="256" />
        <use
           x="0"
           y="0"
           inkscape:tiled-clone-of="#path6740"
           xlink:href="#path6740"
           transform="matrix(0.999434,3.3639876e-2,-2.8831362e-2,0.856574,62.458154,32.789447)"
           id="use8366"
           style="fill:#000000;stroke:#000000"
           width="256"
           height="256" />
        <use
           x="0"
           y="0"
           inkscape:tiled-clone-of="#path6740"
           xlink:href="#path6740"
           transform="matrix(0.9903855,0.138335,-0.1397591,1.0005811,85.25044,-8.6512499)"
           id="use8368"
           style="fill:#000000;stroke:#000000"
           width="256"
           height="256" />
        <use
           x="0"
           y="0"
           inkscape:tiled-clone-of="#path6740"
           xlink:href="#path6740"
           transform="matrix(0.9916875,0.1286698,-0.1313907,1.0126586,87.114382,-10.991726)"
           id="use8370"
           style="fill:#000000;stroke:#000000"
           width="256"
           height="256" />
        <use
           x="0"
           y="0"
           inkscape:tiled-clone-of="#path6740"
           xlink:href="#path6740"
           transform="matrix(0.9998722,-1.5984256e-2,1.6911564e-2,1.0578787,58.733075,-13.083148)"
           id="use8372"
           style="fill:#000000;stroke:#000000"
           width="256"
           height="256" />
        <use
           x="0"
           y="0"
           inkscape:tiled-clone-of="#path6740"
           xlink:href="#path6740"
           transform="matrix(0.9998857,-1.5120733e-2,1.6591486e-2,1.0971419,61.801759,-22.678088)"
           id="use8374"
           style="fill:#000000;stroke:#000000"
           width="256"
           height="256" />
        <use
           x="0"
           y="0"
           inkscape:tiled-clone-of="#path6740"
           xlink:href="#path6740"
           transform="matrix(0.9982081,5.9837512e-2,-4.2293325e-2,0.7055364,75.090485,67.889964)"
           id="use8376"
           style="fill:#000000;stroke:#000000"
           width="256"
           height="256" />
        <use
           x="0"
           y="0"
           inkscape:tiled-clone-of="#path6740"
           xlink:href="#path6740"
           transform="matrix(0.996031,-8.9007138e-2,7.3689438e-2,0.8246189,54.771377,48.098287)"
           id="use8378"
           style="fill:#000000;stroke:#000000"
           width="256"
           height="256" />
        <use
           x="0"
           y="0"
           inkscape:tiled-clone-of="#path6740"
           xlink:href="#path6740"
           transform="matrix(0.9915584,0.1296608,-0.1541878,1.179124,99.773136,-51.507384)"
           id="use8380"
           style="fill:#000000;stroke:#000000"
           width="256"
           height="256" />
        <use
           x="0"
           y="0"
           inkscape:tiled-clone-of="#path6740"
           xlink:href="#path6740"
           transform="matrix(0.9997259,2.3412219e-2,-2.9373353e-2,1.2542725,76.431879,-63.23257)"
           id="use8382"
           style="fill:#000000;stroke:#000000"
           width="256"
           height="256" />
        <use
           x="0"
           y="0"
           inkscape:tiled-clone-of="#path6740"
           xlink:href="#path6740"
           transform="matrix(0.9966896,8.1301109e-2,-0.1033336,1.2667913,92.639222,-69.835715)"
           id="use8384"
           style="fill:#000000;stroke:#000000"
           width="256"
           height="256" />
        <use
           x="0"
           y="0"
           inkscape:tiled-clone-of="#path6740"
           xlink:href="#path6740"
           transform="matrix(0.9916494,-0.1289629,0.146684,1.1279141,46.634856,-23.157212)"
           id="use8386"
           style="fill:#000000;stroke:#000000"
           width="256"
           height="256" />
        <use
           x="0"
           y="0"
           inkscape:tiled-clone-of="#path6740"
           xlink:href="#path6740"
           transform="matrix(0.9999972,-2.3778109e-3,2.3171187e-3,0.9744728,75.275271,6.3501908)"
           id="use8388"
           style="fill:#000000;stroke:#000000"
           width="256"
           height="256" />
        <use
           x="0"
           y="0"
           inkscape:tiled-clone-of="#path6740"
           xlink:href="#path6740"
           transform="matrix(0.9888478,0.1489295,-0.1921965,1.2761276,116.15607,-76.265856)"
           id="use8390"
           style="fill:#000000;stroke:#000000"
           width="256"
           height="256" />
        <use
           x="0"
           y="0"
           inkscape:tiled-clone-of="#path6740"
           xlink:href="#path6740"
           transform="matrix(0.9926425,0.121082,-0.1500456,1.2300894,109.10922,-63.364602)"
           id="use8392"
           style="fill:#000000;stroke:#000000"
           width="256"
           height="256" />
        <use
           x="0"
           y="0"
           inkscape:tiled-clone-of="#path6740"
           xlink:href="#path6740"
           transform="matrix(0.9939529,0.1098071,-0.1171618,1.0605259,103.6091,-21.464181)"
           id="use8394"
           style="fill:#000000;stroke:#000000"
           width="256"
           height="256" />
        <use
           x="0"
           y="0"
           inkscape:tiled-clone-of="#path6740"
           xlink:href="#path6740"
           transform="matrix(0.9989744,-4.5277666e-2,3.6083798e-2,0.7961274,76.710422,52.334723)"
           id="use8396"
           style="fill:#000000;stroke:#000000"
           width="256"
           height="256" />
        <use
           x="0"
           y="0"
           inkscape:tiled-clone-of="#path6740"
           xlink:href="#path6740"
           transform="matrix(0.9908743,0.1347895,-0.1404827,1.0327262,111.70944,-16.245322)"
           id="use8398"
           style="fill:#000000;stroke:#000000"
           width="256"
           height="256" />
        <use
           x="0"
           y="0"
           inkscape:tiled-clone-of="#path6740"
           xlink:href="#path6740"
           transform="matrix(0.989723,0.1429975,-0.1800851,1.246416,121.41477,-68.68071)"
           id="use8400"
           style="fill:#000000;stroke:#000000"
           width="256"
           height="256" />
        <use
           x="0"
           y="0"
           inkscape:tiled-clone-of="#path6740"
           xlink:href="#path6740"
           transform="matrix(0.9931769,0.1166178,-0.1179614,1.0046199,110.19668,-8.2964933)"
           id="use8402"
           style="fill:#000000;stroke:#000000"
           width="256"
           height="256" />
      </g>
    </pattern>
    <linearGradient
       id="linearGradient11971">
      <stop
         style="stop-color:#ffffff;stop-opacity:1;"
         offset="0"
         id="stop11973" />
      <stop
         id="stop6364"
         offset="1"
         style="stop-color:#3ca9db;stop-opacity:1;" />
    </linearGradient>
    <linearGradient
       inkscape:collect="always"
       xlink:href="#linearGradient11971"
       id="linearGradient13992"
       x1="24.751289"
       y1="44.227367"
       x2="192.93913"
       y2="190.85185"
       gradientUnits="userSpaceOnUse" />
    <linearGradient
       inkscape:collect="always"
       xlink:href="#linearGradient14800"
       id="linearGradient14806"
       x1="100.0051"
       y1="69.951675"
       x2="231.5403"
       y2="207.88405"
       gradientUnits="userSpaceOnUse" />
    <filter
       inkscape:collect="always"
       id="filter14816">
      <feGaussianBlur
         inkscape:collect="always"
         stdDeviation="5.0820596"
         id="feGaussianBlur14818" />
    </filter>
    <clipPath
       clipPathUnits="userSpaceOnUse"
       id="clipPath14824">
      <path
         sodipodi:nodetypes="csssssc"
         id="path14826"
         d="M 1.5105101,164.80618 C 1.5105101,195.58975 23.847267,205.10995 43.326346,155.9059 C 66.967893,96.187472 81.413127,86.498141 97.999082,86.498141 C 138.21425,86.498141 185.16724,119.83536 212.49988,126.80975 C 228.56526,130.90909 217.54558,68.850612 140.65344,48.247424 C 110.02645,40.040949 70.843864,46.261715 43.22167,66.091144 C 14.256338,86.884786 4.4919701,129.20684 1.5105101,164.80618 z"
         style="fill:url(#linearGradient14828);fill-opacity:1;fill-rule:evenodd;stroke:#000000;stroke-width:1px;stroke-linecap:square;stroke-linejoin:miter;stroke-opacity:1;display:inline" />
    </clipPath>
    <linearGradient
       inkscape:collect="always"
       xlink:href="#linearGradient11971"
       id="linearGradient14828"
       gradientUnits="userSpaceOnUse"
       gradientTransform="translate(5.3101138e-3,0)"
       x1="24.751289"
       y1="44.227367"
       x2="192.93913"
       y2="190.85185" />
  </defs>
  <sodipodi:namedview
     id="base"
     pagecolor="#ffffff"
     bordercolor="#666666"
     borderopacity="1.0"
     gridtolerance="10000"
     guidetolerance="10"
     objecttolerance="10"
     inkscape:pageopacity="0.0"
     inkscape:pageshadow="2"
     inkscape:zoom="1.979899"
     inkscape:cx="57.68706"
     inkscape:cy="18.597692"
     inkscape:document-units="px"
     inkscape:current-layer="layer2"
     showgrid="false"
     inkscape:window-width="1152"
     inkscape:window-height="808"
     inkscape:window-x="44"
     inkscape:window-y="60"
     showguides="true"
     inkscape:guide-bbox="true" />
  <metadata
     id="metadata3639">
    <rdf:RDF>
      <cc:Work
         rdf:about="">
        <dc:format>image/svg+xml</dc:format>
        <dc:type
           rdf:resource="http://purl.org/dc/dcmitype/StillImage" />
      </cc:Work>
    </rdf:RDF>
  </metadata>
  <g
     inkscape:label="Base Paths"
     inkscape:groupmode="layer"
     id="layer1"
     transform="translate(-467.11151,-499.2413)"
     style="display:none">
    <path
       sodipodi:nodetypes="cccc"
       id="path4242"
       d="M 605.71428,505.93361 C 606.42856,510.21933 605.71428,221.6479 605.71428,221.6479 C 605.71428,149.50504 700.71428,149.50504 700.71428,221.6479 L 700.71428,266.6479"
       style="fill:none;fill-rule:evenodd;stroke:none;stroke-width:1px;stroke-linecap:butt;stroke-linejoin:miter;stroke-opacity:1" />
    <path
       sodipodi:nodetypes="cccc"
       id="path4246"
       d="M 905.71731,997.48366 L 968.71731,997.48366 M 968.71731,1060.4837 L 905.71731,1060.4837"
       style="fill:#ffffff;fill-opacity:1;fill-rule:evenodd;stroke:#000000;stroke-width:1px;stroke-linecap:square;stroke-linejoin:miter;stroke-opacity:1" />
    <path
       style="fill:#d40000;fill-rule:evenodd;stroke:none;stroke-width:1px;stroke-linecap:butt;stroke-linejoin:miter;stroke-opacity:1"
       d="M 795.63497,1063.6184 L 798.94747,1063.6184 L 835.91622,999.61843 L 795.63497,999.61843 L 795.63497,1063.6184 z M 806.19747,1063.6184 L 809.13497,1063.6184 L 846.10372,999.61843 L 843.13497,999.61843 L 806.19747,1063.6184 z M 811.10372,1063.6184 L 814.07247,1063.6184 L 851.00997,999.61843 L 848.04122,999.61843 L 811.10372,1063.6184 z M 820.94747,1063.6184 L 859.63497,1063.6184 L 859.63497,999.61843 L 857.91622,999.61843 L 820.94747,1063.6184 z"
       id="path4330" />
    <path
       style="fill:#d40000;fill-opacity:1;fill-rule:evenodd;stroke:none;stroke-width:1px;stroke-linecap:butt;stroke-linejoin:miter;stroke-opacity:1"
       d="M 837.71,720.432 C 837.694,719.311 837.678,718.191 837.663,717.074 C 816.16,704.908 794.717,692.61 773.694,678.885 C 773.365,693.323 773.485,707.515 773.718,721.436 M 837.575,709.76 C 837.565,708.775 837.556,707.792 837.548,706.811 C 816.107,694.635 794.816,682.091 774.035,667.885 C 773.992,668.958 773.953,670.03 773.916,671.1 C 794.773,685.148 816.112,697.604 837.575,709.76 z M 837.575,709.76 M 837.533,704.839 C 837.526,703.848 837.52,702.859 837.516,701.872 C 816.121,689.679 794.92,677.003 774.27,662.554 C 774.218,663.631 774.168,664.707 774.122,665.782 C 794.853,680.076 816.109,692.664 837.533,704.839 z M 837.533,704.839 M 837.506,695.034 C 837.531,682.329 837.815,669.865 838.65,657.665 C 838.656,657.59 838.662,657.516 838.667,657.442 L 774.808,653.134 C 774.803,653.218 774.798,653.303 774.793,653.387 C 774.758,653.93 774.723,654.473 774.689,655.015 C 795.134,669.859 816.193,682.768 837.506,695.034 z M 837.506,695.034 M 838.667,657.442 C 838.749,656.382 838.832,655.328 838.918,654.279 C 818.577,640.981 798.487,626.499 781.027,607.277 C 777.414,623.096 775.672,638.519 774.808,653.134 M 839.515,647.466 C 839.601,646.557 839.691,645.652 839.783,644.751 C 819.685,631.229 800.345,615.9 784.143,595.205 C 783.802,596.383 783.473,597.561 783.155,598.736 C 799.748,618.974 819.326,634.034 839.515,647.466 z M 839.515,647.466 M 839.972,642.947 C 840.07,642.043 840.171,641.144 840.275,640.25 C 820.902,626.945 802.478,611.643 787.192,591.071 C 786.77,590.496 786.352,589.916 785.938,589.332 C 785.806,589.735 785.677,590.137 785.55,590.539 C 785.303,591.325 785.061,592.11 784.825,592.895 C 800.769,613.874 819.944,629.374 839.972,642.947 z M 839.972,642.947 M 841.068,634.121 C 842.284,625.603 843.949,617.597 846.436,610.258 C 847.238,607.88 848.063,605.616 848.936,603.495 L 789.881,578.772 C 789.583,579.478 789.292,580.183 789.008,580.888 C 791.942,585.82 795.159,590.424 798.565,594.754 C 811.129,610.594 825.682,623.14 841.068,634.121 z M 841.068,634.121 M 848.936,603.495 C 849.236,602.765 849.542,602.052 849.855,601.357 C 845.484,596.778 841.444,591.806 837.939,586.323 C 830.608,574.946 825.544,561.087 825.491,545.178 C 825.491,545.178 825.491,545.178 825.491,545.178 C 825.507,540.97 825.856,536.664 826.54,532.309 C 824.056,533.97 821.637,535.762 819.293,537.683 C 810.614,544.988 803.64,553.314 798.35,562.122 C 798.35,562.122 798.35,562.122 798.35,562.122 C 795.02,567.658 792.221,573.235 789.881,578.772 M 852.017,597.065 C 852.322,596.528 852.635,596.007 852.955,595.503 C 852.957,595.499 852.96,595.496 852.962,595.492 C 844.81,585.567 838.488,573.182 836.731,558.769 C 835.436,548.011 836.729,536.252 840.642,524.577 C 839.22,525.2 837.812,525.861 836.419,526.559 C 833.706,536.21 832.728,545.826 833.467,554.823 C 834.737,569.689 840.712,582.514 848.644,592.867 C 848.644,592.867 848.644,592.867 848.644,592.867 C 849.729,594.305 850.855,595.703 852.017,597.065 z M 852.017,597.065 M 853.597,594.515 C 853.917,594.032 854.24,593.56 854.565,593.101 C 848.692,585.165 844.147,575.846 842.163,565.337 C 839.612,551.916 841.465,536.588 847.795,521.798 C 846.332,522.296 844.881,522.832 843.442,523.405 C 838.642,536.354 837.138,549.522 838.885,561.373 C 840.781,574.196 846.365,585.351 853.597,594.515 z M 853.597,594.515 M 856.854,590.145 C 857.907,588.918 858.982,587.854 860.081,587.002 C 860.081,587.002 860.081,587.002 860.081,587.002 C 862.436,584.987 865.535,583.36 868.864,582.237 C 868.864,582.237 868.864,582.237 868.864,582.237 C 870.139,581.771 871.536,581.402 873.037,581.112 L 860.35,518.444 C 859.526,518.614 858.699,518.794 857.87,518.984 C 855.682,523.142 853.778,527.359 852.212,531.605 C 846.692,546.424 845.902,561.635 849.764,574.527 C 849.764,574.527 849.764,574.527 849.764,574.527 C 851.413,580.138 853.855,585.356 856.854,590.145 z M 856.854,590.145 M 873.037,581.112 C 873.667,580.99 874.315,580.883 874.98,580.787 C 876.499,572.637 879.683,564.457 883.961,556.585 C 891.407,543.131 901.331,530.216 915.74,519.97 C 904.716,517.176 894.014,516.056 883.961,516.148 C 876.396,516.066 868.47,516.77 860.35,518.444 M 879.58,580.326 C 880.231,580.284 880.894,580.25 881.567,580.222 C 882.282,578.213 883.083,576.211 883.961,574.222 C 890.686,559.934 899.841,545.985 913.856,534.952 C 913.856,534.952 913.856,534.952 913.856,534.952 C 918.751,531.134 924.221,527.724 930.261,524.907 C 928.866,524.301 927.464,523.731 926.056,523.199 C 922.205,525.251 918.603,527.54 915.251,530.014 C 900.655,540.914 891.036,554.812 883.961,569.127 C 883.961,569.127 883.961,569.127 883.961,569.127 C 882.223,572.821 880.744,576.566 879.58,580.326 z M 879.58,580.326 M 882.934,580.174 C 883.274,580.164 883.616,580.155 883.961,580.148 C 884.345,580.154 884.727,580.162 885.106,580.171 C 891.135,566.798 899.276,553.743 911.542,543.145 C 918.674,537.013 927.202,531.799 937.116,528.221 C 935.747,527.491 934.37,526.798 932.984,526.143 C 925.449,529.341 918.766,533.473 912.94,538.195 C 899.301,549.334 890.452,563.339 883.961,577.628 C 883.961,577.628 883.961,577.628 883.961,577.628 C 883.604,578.474 883.262,579.323 882.934,580.174 z M 882.934,580.174 M 890.107,580.398 C 893.97,580.674 897.484,581.199 900.532,582.136 C 904.231,583.248 907.527,584.658 909.932,586.455 C 909.932,586.455 909.932,586.455 909.932,586.455 C 910.108,586.575 910.284,586.699 910.458,586.827 L 948.743,535.562 C 948.108,535.085 947.466,534.615 946.816,534.152 C 946.709,534.078 946.602,534.004 946.495,533.93 C 930.658,537.362 917.913,545.086 908.299,554.632 C 900.531,562.33 894.703,571.169 890.107,580.398 z M 890.107,580.398 M 910.458,586.827 C 910.85,587.113 911.238,587.42 911.622,587.745 C 918.639,582.82 927.2,579.61 936.486,578.284 C 936.486,578.284 936.486,578.284 936.486,578.284 C 949.196,576.485 963.164,578.226 976.783,582.147 C 976.783,582.147 976.783,582.147 976.783,582.147 C 978.812,582.72 980.839,583.338 982.864,584 C 982.438,582.771 981.995,581.539 981.534,580.306 C 978.37,571.958 973.985,563.528 968.18,555.371 C 968.18,555.371 968.18,555.371 968.18,555.371 C 962.863,547.967 956.346,541.271 948.743,535.562 M 914.072,590.124 C 914.392,590.476 914.708,590.839 915.018,591.212 C 917.32,590.196 919.718,589.329 922.193,588.616 C 933.874,585.324 947.124,585.745 960.337,588.518 C 960.337,588.518 960.337,588.518 960.337,588.518 C 969.151,590.349 977.974,593.167 986.717,596.665 C 986.396,595.446 986.061,594.222 985.709,592.996 C 978.873,590.402 971.995,588.245 965.116,586.667 C 951.776,583.564 938.309,582.765 926.323,585.631 C 926.323,585.631 926.323,585.631 926.323,585.631 C 921.996,586.685 917.879,588.19 914.072,590.124 z M 914.072,590.124 M 915.635,591.975 C 915.865,592.267 916.091,592.564 916.314,592.866 C 916.392,592.97 916.471,593.076 916.548,593.182 C 927.437,589.589 939.862,589.464 952.393,591.596 C 964.349,593.628 976.36,597.588 988.189,602.682 C 987.916,601.475 987.628,600.264 987.327,599.049 C 977.349,594.936 967.257,591.677 957.189,589.738 C 944.045,587.187 930.923,587.025 919.433,590.611 C 919.433,590.611 919.433,590.611 919.433,590.611 C 918.144,591.023 916.877,591.478 915.635,591.975 z M 915.635,591.975 M 918.603,596.437 C 919.752,598.508 920.821,600.865 921.856,603.426 C 924.273,609.262 925.832,616.01 926.992,623.429 L 990.24,613.093 C 990.125,612.41 990.006,611.724 989.883,611.037 C 973.899,603.534 957.486,597.789 941.269,595.906 C 933.469,595.022 925.791,595.095 918.603,596.437 z M 918.603,596.437 M 926.992,623.429 C 927.137,624.35 927.274,625.283 927.407,626.225 C 935.715,628.958 944.024,632.403 952.235,636.221 C 966.369,642.79 980.254,650.521 993.973,658.65 C 993.753,650.184 993.342,641.528 992.589,632.693 C 992.115,626.363 991.371,619.809 990.24,613.093 M 928.212,632.547 C 928.313,633.419 928.411,634.298 928.507,635.183 C 930.563,636.01 932.616,636.87 934.666,637.757 C 954.91,646.504 974.661,657.873 994.164,669.597 C 994.154,668.544 994.142,667.488 994.127,666.43 C 976.288,655.744 958.222,645.465 939.741,637.314 C 935.91,635.621 932.063,634.02 928.212,632.547 z M 928.212,632.547 M 928.698,636.972 C 928.743,637.402 928.788,637.834 928.833,638.267 C 928.875,638.74 928.917,639.214 928.957,639.689 C 951.167,649.216 972.805,661.923 994.201,674.79 C 994.196,673.748 994.19,672.702 994.182,671.654 C 973.566,659.26 952.693,647.164 931.272,638.054 C 930.415,637.688 929.557,637.328 928.698,636.972 z M 928.698,636.972 M 929.415,646.039 C 930.144,658.056 930.184,670.66 930.208,683.791 L 994.208,683.791 C 994.209,683.198 994.21,682.605 994.211,682.01 C 972.888,669.232 951.399,656.233 929.415,646.039 z"
       id="path2444"
       sodipodi:nodetypes="ccc"
       inkscape:path-effect="#path-effect2446"
       inkscape:original-d="M 805.71429,720.93361 C 804.28572,629.88762 808.47111,548.14836 883.9613,548.14836 C 960.25554,548.14836 962.20831,619.51532 962.20831,683.79075" />
    <path
       inkscape:original-d="M 800.99063,955.05833 C 799.56206,864.01234 803.74745,782.27308 879.23764,782.27308 C 955.53188,782.27308 957.48465,853.64004 957.48465,917.91547"
       inkscape:path-effect="#path-effect2450"
       sodipodi:nodetypes="ccc"
       id="path2448"
       d="M 769.495,955.553 C 769.125,933.518 769.04,910.815 770.569,887.545 C 770.574,887.461 770.579,887.377 770.584,887.292 M 833.445,891.533 C 833.439,891.607 833.434,891.682 833.428,891.756 C 832.041,912.011 832.171,932.981 832.487,954.564 M 770.584,887.292 C 771.75,867.581 774.511,846.418 781.302,824.818 C 782.525,820.946 783.955,817.027 785.619,813.09 M 843.751,837.427 C 842.872,839.562 842.042,841.839 841.237,844.229 C 836.567,858.02 834.782,874.126 833.445,891.533 M 785.619,813.09 C 787.95,807.573 790.738,802.019 794.053,796.508 C 799.32,787.741 806.258,779.457 814.888,772.193 C 814.888,772.193 814.888,772.193 814.888,772.193 C 823.782,764.904 833.757,759.48 844.301,756.04 C 844.301,756.04 844.301,756.04 844.301,756.04 C 848.14,754.824 851.953,753.836 855.726,753.058 M 868.214,814.747 C 866.695,815.041 865.28,815.414 863.985,815.886 C 860.598,817.028 857.445,818.685 855.039,820.741 C 855.039,820.741 855.039,820.741 855.039,820.741 C 852.501,822.714 850.097,825.769 847.805,829.367 C 846.31,831.723 844.982,834.436 843.751,837.427 M 855.726,753.058 C 863.808,751.393 871.7,750.692 879.238,750.773 C 889.918,750.676 901.327,751.949 913.065,755.151 C 913.065,755.151 913.065,755.151 913.065,755.151 C 922.946,757.875 932.688,762.357 941.804,768.686 C 942.45,769.146 943.089,769.613 943.72,770.087 M 906.034,820.551 C 905.856,820.42 905.677,820.294 905.497,820.171 C 903.039,818.338 899.692,816.904 895.944,815.78 C 895.944,815.78 895.944,815.78 895.944,815.78 C 891.291,814.353 885.589,813.87 879.238,813.773 C 879.238,813.773 879.238,813.773 879.238,813.773 C 875.198,813.854 871.469,814.118 868.214,814.747 M 943.72,770.087 C 951.28,775.763 957.762,782.424 963.051,789.789 C 968.827,797.903 973.192,806.296 976.344,814.611 C 976.344,814.611 976.344,814.611 976.344,814.611 C 980.502,825.742 983.242,836.718 985.022,847.299 M 922.763,857.473 C 921.598,850.029 920.03,843.248 917.599,837.371 C 915.895,833.153 914.094,829.476 911.995,826.698 C 911.995,826.698 911.995,826.698 911.995,826.698 C 910.194,824.256 908.168,822.114 906.034,820.551 M 985.022,847.299 C 986.15,853.999 986.893,860.54 987.368,866.862 C 988.88,884.624 989.014,901.677 988.985,917.915 M 925.985,917.915 C 925.956,901.921 925.902,886.697 924.607,872.349 C 924.076,867.165 923.5,862.186 922.763,857.473"
       style="fill:none;fill-rule:evenodd;stroke:#000000;stroke-width:1px;stroke-linecap:butt;stroke-linejoin:miter;stroke-opacity:1" />
  </g>
  <g
     inkscape:groupmode="layer"
     id="layer2"
     inkscape:label="CandyCane"
     style="display:inline">
    <path
       style="fill:url(#linearGradient2510);fill-opacity:1;fill-rule:evenodd;stroke:none;stroke-width:1px;stroke-linecap:square;stroke-linejoin:miter;stroke-opacity:1;display:inline"
       d="M 73.008749,362.03978 L 10.00875,362.03978 L 10.00875,299.0398 L 73.008749,299.0398 L 73.008749,362.03978 z"
       id="path3322"
       sodipodi:nodetypes="ccccc" />
    <path
       id="path2475"
       d="M 9.5087499,298.5398 L 9.5087499,301.8523 L 73.508749,338.82098 L 73.508749,298.5398 L 9.5087499,298.5398 z M 9.5087499,309.1023 L 9.5087499,312.03978 L 73.508749,349.00848 L 73.508749,346.03978 L 9.5087499,309.1023 z M 9.5087499,314.00858 L 9.5087499,316.97728 L 73.508749,353.91478 L 73.508749,350.94598 L 9.5087499,314.00858 z M 9.5087499,323.85228 L 9.5087499,362.53978 L 73.508749,362.53978 L 73.508749,360.82098 L 9.5087499,323.85228 z"
       style="fill:#d40000;fill-rule:evenodd;stroke:none;stroke-width:1px;stroke-linecap:butt;stroke-linejoin:miter;stroke-opacity:1;display:inline" />
    <path
       style="fill:none;fill-opacity:1;fill-rule:evenodd;stroke:#000000;stroke-width:1px;stroke-linecap:square;stroke-linejoin:miter;stroke-opacity:1;display:inline"
       d="M 73.008749,299.0398 L 73.008749,362.03978 M 10.00875,362.03978 L 10.00875,299.0398"
       id="path2473"
       sodipodi:nodetypes="cccc"
       inkscape:export-filename="D:\Dateien\Desktop\Secret Maryo Chronicles\SMC\data\pixmaps\ground\candy_1\candy_cane_2_middle.png"
       inkscape:export-xdpi="180.00006"
       inkscape:export-ydpi="180.00006" />
    <path
       style="opacity:0.6;fill:#e9e9e9;fill-opacity:1;fill-rule:evenodd;stroke:none;stroke-width:1px;stroke-linecap:square;stroke-linejoin:miter;stroke-opacity:1;display:inline;filter:url(#filter3658)"
       d="M 516.41225,908.56507 L 469.12653,908.56507 L 469.12653,845.56507 L 516.41225,845.56507 L 516.41225,908.56507 z"
       id="path3332"
       sodipodi:nodetypes="ccccc"
       transform="matrix(1.085451,0,0,1.6378361,-493.36826,-1105.9491)"
       clip-path="url(#clipPath3446)" />
    <path
       sodipodi:nodetypes="ccccc"
       id="path3662"
       d="M 73.008749,468.96541 L 10.00875,468.96541 L 10.00875,405.96541 L 73.008749,405.96541 L 73.008749,468.96541 z"
       style="fill:url(#linearGradient2512);fill-opacity:1;fill-rule:evenodd;stroke:none;stroke-width:1px;stroke-linecap:square;stroke-linejoin:miter;stroke-opacity:1;display:inline" />
    <path
       style="fill:#d40000;fill-rule:evenodd;stroke:none;stroke-width:1px;stroke-linecap:butt;stroke-linejoin:miter;stroke-opacity:1;display:inline"
       d="M 9.5087499,405.46541 L 9.5087499,408.77791 L 73.508749,445.74661 L 73.508749,405.46541 L 9.5087499,405.46541 z M 9.5087499,416.02791 L 9.5087499,418.96541 L 73.508749,455.93411 L 73.508749,452.96541 L 9.5087499,416.02791 z M 9.5087499,420.93411 L 9.5087499,423.90291 L 73.508749,460.84041 L 73.508749,457.87161 L 9.5087499,420.93411 z M 9.5087499,430.77791 L 9.5087499,469.46541 L 73.508749,469.46541 L 73.508749,467.74661 L 9.5087499,430.77791 z"
       id="path3664" />
    <path
       clip-path="url(#clipPath3446)"
       transform="matrix(1,0,0,1.6378361,-451.26065,-999.02347)"
       sodipodi:nodetypes="ccccc"
       id="path3668"
       d="M 516.41225,908.56507 L 469.12653,908.56507 L 469.12653,845.56507 L 516.41225,845.56507 L 516.41225,908.56507 z"
       style="opacity:0.6;fill:#ffffff;fill-opacity:1;fill-rule:evenodd;stroke:none;stroke-width:1px;stroke-linecap:square;stroke-linejoin:miter;stroke-opacity:1;display:inline;filter:url(#filter3658)" />
    <path
       sodipodi:nodetypes="cccc"
       id="path3666"
       d="M 10.00875,405.96541 L 10.00875,468.96541 L 73.008749,468.96541 L 73.008749,405.96541"
       style="fill:none;fill-opacity:1;fill-rule:evenodd;stroke:#000000;stroke-width:1px;stroke-linecap:square;stroke-linejoin:miter;stroke-opacity:1;display:inline" />
    <path
       sodipodi:nodetypes="ccccccccccccc"
       id="path3316"
       d="M 63.75048,255.07595 C 63.57965,219.5734 62.36059,182.36006 71.26111,147.69162 C 75.1124,134.09226 82.07793,118.28872 97.279481,114.77371 C 111.70707,112.05072 129.13354,112.06764 140.40286,122.81833 C 153.5947,138.09747 154.55105,159.51369 156.39126,178.66139 C 157.73,193.77057 156.38829,209.03773 157.956,224.08659 C 162.08676,243.37867 186.39487,250.54258 203.03345,243.27685 C 215.319,238.85589 221.82124,225.40461 220.25136,212.8506 C 219.9759,174.18018 219.52187,133.26746 200.2279,98.540071 C 185.39401,71.024451 155.77032,53.465511 124.9041,51.003041 C 93.345001,47.301841 58.82492,55.867861 37.15544,80.290201 C 12.33892,107.60261 5.2009411,145.63542 2.2194811,181.23476 C 0.6523311,205.80772 0.132621,230.45971 0.7584811,255.07595"
       style="fill:url(#linearGradient2571);fill-opacity:1;fill-rule:evenodd;stroke:url(#linearGradient2573);stroke-width:1px;stroke-linecap:butt;stroke-linejoin:miter;stroke-opacity:1;display:inline" />
    <path
       style="fill:#d40000;fill-opacity:1;fill-rule:evenodd;stroke:none;stroke-width:1px;stroke-linecap:butt;stroke-linejoin:miter;stroke-opacity:1;display:inline"
       d="M 64.34981,255.57595 C 64.33381,254.45495 64.31782,252.33095 64.30281,251.21395 C 42.79981,239.04795 21.35682,226.74995 0.333821,213.02495 C 0.333821,230.50668 0.357811,240.5382 0.357811,255.57595 M 64.21482,243.89995 C 64.20482,242.91495 64.19581,241.93195 64.18782,240.95095 C 42.74681,228.77495 21.45581,216.23095 0.6748111,202.02495 C 0.6318111,203.09795 0.5928111,204.16995 0.5558111,205.23995 C 21.41281,219.28795 42.75181,231.74395 64.21482,243.89995 z M 64.17281,238.97895 C 64.16581,237.98795 64.15981,236.99895 64.15581,236.01195 C 42.76081,223.81895 21.55982,211.14295 0.9098111,196.69395 C 0.8578111,197.77095 0.8078111,198.84695 0.7618211,199.92195 C 21.49281,214.21595 42.74881,226.80395 64.17281,238.97895 z M 64.14581,229.17395 C 64.17081,216.46895 64.45482,204.00495 65.28981,191.80495 C 65.29581,191.72995 65.30181,191.65595 65.30681,191.58195 L 1.4478111,187.27395 C 1.4428111,187.35795 1.4378111,187.44295 1.4328111,187.52695 C 1.3978111,188.06995 1.3628211,188.61295 1.3288111,189.15495 C 21.77382,203.99895 42.83282,216.90795 64.14581,229.17395 z M 65.30681,191.58195 C 65.38881,190.52195 65.47182,189.46795 65.55781,188.41895 C 45.21681,175.12095 25.12681,160.63895 7.6668211,141.41695 C 4.0538211,157.23595 2.3118111,172.65895 1.4478111,187.27395 M 66.15482,181.60595 C 66.24082,180.69695 66.33081,179.79195 66.42281,178.89095 C 46.32481,165.36895 26.98481,150.03995 10.78281,129.34495 C 10.441811,130.52295 10.112821,131.70095 9.7948111,132.87595 C 26.38781,153.11395 45.96581,168.17395 66.15482,181.60595 z M 66.61181,177.08695 C 66.70982,176.18295 66.81082,175.28395 66.91481,174.38995 C 47.54182,161.08495 29.11781,145.78295 13.83181,125.21095 C 13.40981,124.63595 12.99181,124.05595 12.57782,123.47195 C 12.44581,123.87495 12.31681,124.27695 12.18981,124.67895 C 11.94281,125.46495 11.70081,126.24995 11.46482,127.03495 C 27.40881,148.01395 46.58382,163.51395 66.61181,177.08695 z M 67.70782,168.26095 C 68.92382,159.74295 70.58881,151.73695 73.07581,144.39795 C 73.87782,142.01995 74.70282,139.75595 75.57581,137.63495 L 16.52081,112.91195 C 16.22281,113.61795 15.93181,114.32295 15.64781,115.02795 C 18.58181,119.95995 21.79881,124.56395 25.20481,128.89395 C 37.76881,144.73395 52.32182,157.27995 67.70782,168.26095 z M 75.57581,137.63495 C 75.87582,136.90495 76.18181,136.19195 76.49481,135.49695 C 72.12381,130.91795 68.08381,125.94595 64.57881,120.46295 C 57.24781,109.08595 52.18381,95.226951 52.13082,79.317951 C 52.13082,79.317951 52.13082,79.317951 52.13082,79.317951 C 52.14681,75.109951 52.49581,70.803951 53.17981,66.448951 C 50.69581,68.109951 48.27681,69.901951 45.93281,71.822951 C 37.25381,79.127951 30.27982,87.453951 24.98981,96.261951 C 24.98981,96.261951 24.98981,96.261951 24.98981,96.261951 C 21.65981,101.79795 18.86081,107.37495 16.52081,112.91195 M 78.65682,131.20495 C 78.96182,130.66795 79.27482,130.14695 79.59482,129.64295 C 79.59682,129.63895 79.59981,129.63595 79.60182,129.63195 C 71.44982,119.70695 65.12782,107.32195 63.37082,92.908951 C 62.07581,82.150951 63.36882,70.391951 67.28182,58.716951 C 65.85981,59.339951 64.45181,60.000951 63.05881,60.698951 C 60.34582,70.349951 59.36781,79.965951 60.10682,88.962951 C 61.37681,103.82895 67.35182,116.65395 75.28381,127.00695 C 75.28381,127.00695 75.28381,127.00695 75.28381,127.00695 C 76.36882,128.44495 77.49481,129.84295 78.65682,131.20495 z M 80.23681,128.65495 C 80.55681,128.17195 80.87981,127.69995 81.20482,127.24095 C 75.33181,119.30495 70.78682,109.98595 68.80281,99.476952 C 66.25181,86.055951 68.10481,70.727951 74.43481,55.937951 C 72.97182,56.435951 71.52081,56.971951 70.08181,57.544951 C 65.28182,70.493951 63.77781,83.661951 65.52482,95.512951 C 67.42081,108.33595 73.00481,119.49095 80.23681,128.65495 z M 83.49382,124.28495 C 84.54681,123.05795 85.62181,121.99395 86.72081,121.14195 C 86.72081,121.14195 86.72081,121.14195 86.72081,121.14195 C 89.07581,119.12695 92.174811,117.49995 95.503811,116.37695 C 95.503811,116.37695 95.503811,116.37695 95.503811,116.37695 C 96.778811,115.91095 98.175821,115.54195 99.676811,115.25195 L 86.98981,52.583951 C 86.16581,52.753951 85.33881,52.933951 84.50981,53.123951 C 82.32181,57.281951 80.41781,61.498951 78.85182,65.744951 C 73.33181,80.563951 72.54182,95.774951 76.40381,108.66695 C 76.40381,108.66695 76.40381,108.66695 76.40381,108.66695 C 78.05281,114.27795 80.49481,119.49595 83.49382,124.28495 z M 99.676811,115.25195 C 100.30681,115.12995 100.95482,115.02295 101.61981,114.92695 C 103.13881,106.77695 106.32282,98.596952 110.60081,90.724951 C 118.04681,77.270951 127.97081,64.355951 142.37981,54.109951 C 131.35581,51.315951 120.65381,50.195951 110.60081,50.287951 C 103.03581,50.205951 95.109811,50.909951 86.98981,52.583951 M 106.21982,114.46595 C 106.87082,114.42395 107.53381,114.38995 108.20681,114.36195 C 108.92181,112.35295 109.72281,110.35095 110.60081,108.36195 C 117.32581,94.073951 126.48081,80.124951 140.49582,69.091951 C 140.49582,69.091951 140.49582,69.091951 140.49582,69.091951 C 145.39081,65.273951 150.86081,61.863951 156.90081,59.046951 C 155.50582,58.440951 154.10382,57.870951 152.69581,57.338951 C 148.84482,59.390951 145.24281,61.679951 141.89081,64.153951 C 127.29481,75.053951 117.67582,88.951951 110.60081,103.26695 C 110.60081,103.26695 110.60081,103.26695 110.60081,103.26695 C 108.86281,106.96095 107.38381,110.70595 106.21982,114.46595 z M 109.57381,114.31395 C 109.91382,114.30395 110.25582,114.29495 110.60081,114.28795 C 110.98481,114.29395 111.36681,114.30195 111.74582,114.31095 C 117.77482,100.93795 125.91581,87.882951 138.18181,77.284951 C 145.31381,71.152951 153.84182,65.938951 163.75582,62.360951 C 162.38681,61.630951 161.00981,60.937951 159.62381,60.282951 C 152.08881,63.480951 145.40581,67.612951 139.57982,72.334951 C 125.94082,83.473951 117.09182,97.478951 110.60081,111.76795 C 110.60081,111.76795 110.60081,111.76795 110.60081,111.76795 C 110.24382,112.61395 109.90182,113.46295 109.57381,114.31395 z M 116.74681,114.53795 C 120.60981,114.81395 124.12381,115.33895 127.17181,116.27595 C 130.87082,117.38795 134.16682,118.79795 136.57181,120.59495 C 136.57181,120.59495 136.57181,120.59495 136.57181,120.59495 C 136.74781,120.71495 136.92382,120.83895 137.09781,120.96695 L 175.38282,69.701951 C 174.74781,69.224951 174.10581,68.754951 173.45581,68.291951 C 173.34882,68.217951 173.24181,68.143951 173.13481,68.069951 C 157.29781,71.501951 144.55281,79.225951 134.93881,88.771951 C 127.17081,96.469951 121.34281,105.30895 116.74681,114.53795 z M 137.09781,120.96695 C 137.48981,121.25295 137.87782,121.55995 138.26181,121.88495 C 145.27881,116.95995 153.83982,113.74995 163.12582,112.42395 C 163.12582,112.42395 163.12582,112.42395 163.12582,112.42395 C 175.83581,110.62495 189.80382,112.36595 203.42281,116.28695 C 203.42281,116.28695 203.42281,116.28695 203.42281,116.28695 C 205.45181,116.85995 207.47882,117.47795 209.50381,118.13995 C 209.07782,116.91095 208.63481,115.67895 208.17382,114.44595 C 205.00981,106.09795 200.62481,97.667951 194.81981,89.510951 C 194.81981,89.510951 194.81981,89.510951 194.81981,89.510951 C 189.50282,82.106951 182.98581,75.410951 175.38282,69.701951 M 140.71182,124.26395 C 141.03182,124.61595 141.34781,124.97895 141.65781,125.35195 C 143.95982,124.33595 146.35781,123.46895 148.83282,122.75595 C 160.51381,119.46395 173.76381,119.88495 186.97682,122.65795 C 186.97682,122.65795 186.97682,122.65795 186.97682,122.65795 C 195.79081,124.48895 204.61382,127.30695 213.35682,130.80495 C 213.03581,129.58595 212.70081,128.36195 212.34882,127.13595 C 205.51282,124.54195 198.63481,122.38495 191.75582,120.80695 C 178.41581,117.70395 164.94881,116.90495 152.96281,119.77095 C 152.96281,119.77095 152.96281,119.77095 152.96281,119.77095 C 148.63581,120.82495 144.51881,122.32995 140.71182,124.26395 z M 142.27482,126.11495 C 142.50481,126.40695 142.73081,126.70395 142.95381,127.00595 C 143.03182,127.10995 143.11081,127.21595 143.18782,127.32195 C 154.07681,123.72895 166.50181,123.60395 179.03281,125.73595 C 190.98882,127.76795 202.99981,131.72795 214.82881,136.82195 C 214.55582,135.61495 214.26782,134.40395 213.96682,133.18895 C 203.98882,129.07595 193.89681,125.81695 183.82881,123.87795 C 170.68481,121.32695 157.56282,121.16495 146.07282,124.75095 C 146.07282,124.75095 146.07282,124.75095 146.07282,124.75095 C 144.78381,125.16295 143.51681,125.61795 142.27482,126.11495 z M 145.24281,130.57695 C 146.39181,132.64795 147.46081,135.00495 148.49582,137.56595 C 150.91281,143.40195 152.47182,150.14995 153.63181,157.56895 L 216.87981,147.23295 C 216.76482,146.54995 216.64581,145.86395 216.52281,145.17695 C 200.53882,137.67395 184.12582,131.92895 167.90881,130.04595 C 160.10882,129.16195 152.43082,129.23495 145.24281,130.57695 z M 153.63181,157.56895 C 153.77682,158.48995 153.91382,159.42295 154.04681,160.36495 C 162.35481,163.09795 170.66382,166.54295 178.87481,170.36095 C 193.00881,176.92995 206.89381,184.66095 220.61281,192.78995 C 220.39282,184.32395 219.98182,175.66795 219.22882,166.83295 C 218.75481,160.50295 218.01081,153.94895 216.87981,147.23295 M 154.85182,166.68695 C 154.95282,167.55895 155.05082,168.43795 155.14681,169.32295 C 157.20282,170.14995 159.25582,171.00995 161.30582,171.89695 C 181.54981,180.64395 201.30082,192.01295 220.80382,203.73695 C 220.79382,202.68395 220.78182,201.62795 220.76681,200.56995 C 202.92781,189.88395 184.86181,179.60495 166.38082,171.45395 C 162.54981,169.76095 158.70282,168.15995 154.85182,166.68695 z M 155.33781,171.11195 C 155.38282,171.54195 155.42781,171.97395 155.47281,172.40695 C 155.51482,172.87995 155.55681,173.35395 155.59682,173.82895 C 177.80681,183.35595 199.44481,196.06295 220.84081,208.92995 C 220.83581,207.88795 220.82982,206.84195 220.82181,205.79395 C 200.20581,193.39995 179.33282,181.30395 157.91182,172.19395 C 157.05481,171.82795 156.19681,171.46795 155.33781,171.11195 z M 156.05481,180.17895 C 156.78381,192.19595 156.82381,204.79995 156.84781,217.93095 C 156.84781,255.28753 220.84781,255.68253 220.84781,217.93095 C 220.84882,217.33795 220.84981,216.74495 220.85081,216.14995 C 199.52781,203.37195 178.03882,190.37295 156.05481,180.17895 z"
       id="path2452"
       sodipodi:nodetypes="ccccccccccccccccccscccccccccccccccsccccccccccccccccccccscccccccccccccccccccccccccccccccccccccccccccccsccccccccccccccsccccccccccccccccccccccccccscccccccccccccccccccccccccccccscccccccccc" />
    <path
       style="opacity:0.6;fill:#ffffff;fill-rule:evenodd;stroke:none;stroke-width:1px;stroke-linecap:butt;stroke-linejoin:miter;stroke-opacity:1;display:inline;filter:url(#filter3307)"
       d="M 306.21875,748.5625 C 279.45703,748.07964 252.29319,756.935 234.65625,776.8125 C 234.63548,776.82305 234.61465,776.83346 234.59375,776.84375 C 211.14496,802.65086 204.07271,839.33495 201.125,874.53125 C 199.68406,897.12513 199.65625,961.31843 199.65625,985.71781 L 251.5625,984.93656 C 251.3184,951.22895 250.55586,873.02083 259.25,839.15625 C 259.25993,839.11446 259.27035,839.07279 259.28125,839.03125 C 261.29172,831.93207 264.13276,824.05829 268.78125,817.1875 C 273.42974,810.31671 280.17962,804.34497 289.375,802.21875 C 289.4477,802.20688 289.52063,802.19646 289.59375,802.1875 C 304.82159,799.31351 324.22837,798.93579 337.5625,811.65625 C 337.69341,811.7752 337.81855,811.90034 337.9375,812.03125 C 352.71614,829.14822 353.461,852.02859 355.28125,870.96875 C 355.28128,870.97917 355.28128,870.98958 355.28125,871 C 356.6648,886.61481 355.35295,901.74572 356.78125,915.96875 C 358.46214,923.46386 363.87411,928.56032 371.125,931.3125 C 378.44045,934.08918 387.38813,934.0004 394.1875,931.03125 C 394.30068,930.98581 394.41532,930.94412 394.53125,930.90625 C 404.02984,927.48817 409.40047,916.57469 408.125,906.375 C 408.10162,906.15706 408.09118,905.93793 408.09375,905.71875 C 407.81841,867.06462 407.16454,827.207 388.75,794.0625 C 388.73945,794.04173 388.72904,794.0209 388.71875,794 C 374.88137,768.33278 346.8776,751.69378 317.8125,749.375 C 317.73938,749.36604 317.66645,749.35562 317.59375,749.34375 C 313.82316,748.90154 310.03572,748.63137 306.21875,748.5625 z"
       id="path2487"
       sodipodi:nodetypes="cccccccsscccccccsccccccccc"
       clip-path="url(#clipPath3318)"
       transform="translate(-193.36018,-692.83729)" />
    <path
       inkscape:export-ydpi="90"
       inkscape:export-xdpi="90"
       inkscape:export-filename="C:\Documents and Settings\612645\Desktop\To Be Deleted\candycane_test.png"
       transform="matrix(1.0344304,-0.3575726,0.3675409,1.0632679,-80.895109,255.83472)"
       d="M 237.85714,-102.63782 A 45.357143,20 0 1 1 147.14286,-102.63782 A 45.357143,20 0 1 1 237.85714,-102.63782 z"
       sodipodi:ry="20"
       sodipodi:rx="45.357143"
       sodipodi:cy="-102.63782"
       sodipodi:cx="192.5"
       id="path3852"
       style="opacity:0.9;fill:url(#linearGradient2564);fill-opacity:1;stroke:none;stroke-width:0.5;stroke-linecap:square;stroke-linejoin:miter;stroke-miterlimit:4;stroke-dasharray:none;stroke-dashoffset:0;stroke-opacity:1;display:inline;filter:url(#filter4547)"
       sodipodi:type="arc" />
    <path
       style="fill:none;fill-rule:evenodd;stroke:#000000;stroke-width:1px;stroke-linecap:square;stroke-linejoin:miter;stroke-opacity:1;display:inline"
       d="M 63.75048,255.07595 C 63.57965,219.5734 62.99194,182.36006 71.89246,147.69162 C 75.74375,134.09226 82.07793,119.29887 97.279481,115.78386 C 111.70707,113.06087 129.00727,112.69899 140.27659,123.44968 C 153.46843,138.72882 154.55105,159.51369 156.39126,178.66139 C 157.73,193.77057 156.38829,209.03773 157.956,224.08659 C 162.08676,243.37867 186.39487,250.54258 203.03345,243.27685 C 215.319,238.85589 221.82124,225.40461 220.25136,212.8506 C 219.9759,174.18018 219.52187,133.26746 200.2279,98.540071 C 185.39401,71.024451 155.77032,53.465511 124.9041,51.003041 C 93.345001,47.301841 58.82492,55.867861 37.15544,80.290201 C 12.33892,107.60261 5.2009411,145.63542 2.2194811,181.23476 C 0.6523311,205.80772 0.7584811,222.95666 0.7584811,255.07595"
       id="path2466"
       sodipodi:nodetypes="ccccccccccccc" />
  </g>
  <g
     inkscape:groupmode="layer"
     id="layer3"
     inkscape:label="CandyCaneSnow"
     style="display:inline">
    <path
       style="fill:url(#linearGradient2632);fill-opacity:1;fill-rule:evenodd;stroke:url(#linearGradient2634);stroke-width:1px;stroke-linecap:butt;stroke-linejoin:miter;stroke-opacity:1;display:inline"
       d="M 63.75048,255.07595 C 63.57965,219.5734 62.36059,182.36006 71.26111,147.69162 C 75.1124,134.09226 82.07793,118.28872 97.279481,114.77371 C 111.70707,112.05072 129.13354,112.06764 140.40286,122.81833 C 153.5947,138.09747 154.55105,159.51369 156.39126,178.66139 C 157.73,193.77057 156.38829,209.03773 157.956,224.08659 C 162.08676,243.37867 186.39487,250.54258 203.03345,243.27685 C 215.319,238.85589 221.82124,225.40461 220.25136,212.8506 C 219.9759,174.18018 219.52187,133.26746 200.2279,98.540071 C 185.39401,71.024451 155.77032,53.465511 124.9041,51.003041 C 93.345001,47.301841 58.82492,55.867861 37.15544,80.290201 C 12.33892,107.60261 5.2009411,145.63542 2.2194811,181.23476 C 0.6523311,205.80772 0.132621,230.45971 0.7584811,255.07595"
       id="path2598"
       sodipodi:nodetypes="ccccccccccccc" />
    <path
       sodipodi:nodetypes="ccccccccccccccccccscccccccccccccccsccccccccccccccccccccscccccccccccccccccccccccccccccccccccccccccccccsccccccccccccccsccccccccccccccccccccccccccscccccccccccccccccccccccccccccscccccccccc"
       id="path2600"
       d="M 64.34981,256 C 64.33381,254.879 64.31782,252.755 64.30281,251.638 C 42.79981,239.472 21.35682,227.174 0.333821,213.449 C 0.333821,230.93073 0.357811,240.96225 0.357811,256 M 64.21482,244.324 C 64.20482,243.339 64.19581,242.356 64.18782,241.375 C 42.74681,229.199 21.45581,216.655 0.6748111,202.449 C 0.6318111,203.522 0.5928111,204.594 0.5558111,205.664 C 21.41281,219.712 42.75181,232.168 64.21482,244.324 z M 64.17281,239.403 C 64.16581,238.412 64.15981,237.423 64.15581,236.436 C 42.76081,224.243 21.55982,211.567 0.9098111,197.118 C 0.8578111,198.195 0.8078111,199.271 0.7618211,200.346 C 21.49281,214.64 42.74881,227.228 64.17281,239.403 z M 64.14581,229.598 C 64.17081,216.893 64.45482,204.429 65.28981,192.229 C 65.29581,192.154 65.30181,192.08 65.30681,192.006 L 1.4478111,187.698 C 1.4428111,187.782 1.4378111,187.867 1.4328111,187.951 C 1.3978111,188.494 1.3628211,189.037 1.3288111,189.579 C 21.77382,204.423 42.83282,217.332 64.14581,229.598 z M 65.30681,192.006 C 65.38881,190.946 65.47182,189.892 65.55781,188.843 C 45.21681,175.545 25.12681,161.063 7.6668211,141.841 C 4.0538211,157.66 2.3118111,173.083 1.4478111,187.698 M 66.15482,182.03 C 66.24082,181.121 66.33081,180.216 66.42281,179.315 C 46.32481,165.793 26.98481,150.464 10.78281,129.769 C 10.441811,130.947 10.112821,132.125 9.7948111,133.3 C 26.38781,153.538 45.96581,168.598 66.15482,182.03 z M 66.61181,177.511 C 66.70982,176.607 66.81082,175.708 66.91481,174.814 C 47.54182,161.509 29.11781,146.207 13.83181,125.635 C 13.40981,125.06 12.99181,124.48 12.57782,123.896 C 12.44581,124.299 12.31681,124.701 12.18981,125.103 C 11.94281,125.889 11.70081,126.674 11.46482,127.459 C 27.40881,148.438 46.58382,163.938 66.61181,177.511 z M 67.70782,168.685 C 68.92382,160.167 70.58881,152.161 73.07581,144.822 C 73.87782,142.444 74.70282,140.18 75.57581,138.059 L 16.52081,113.336 C 16.22281,114.042 15.93181,114.747 15.64781,115.452 C 18.58181,120.384 21.79881,124.988 25.20481,129.318 C 37.76881,145.158 52.32182,157.704 67.70782,168.685 z M 75.57581,138.059 C 75.87582,137.329 76.18181,136.616 76.49481,135.921 C 72.12381,131.342 68.08381,126.37 64.57881,120.887 C 57.24781,109.51 52.18381,95.651001 52.13082,79.742001 C 52.13082,79.742001 52.13082,79.742001 52.13082,79.742001 C 52.14681,75.534001 52.49581,71.228001 53.17981,66.873001 C 50.69581,68.534001 48.27681,70.326001 45.93281,72.247001 C 37.25381,79.552001 30.27982,87.878001 24.98981,96.686001 C 24.98981,96.686001 24.98981,96.686001 24.98981,96.686001 C 21.65981,102.222 18.86081,107.799 16.52081,113.336 M 78.65682,131.629 C 78.96182,131.092 79.27482,130.571 79.59482,130.067 C 79.59682,130.063 79.59981,130.06 79.60182,130.056 C 71.44982,120.131 65.12782,107.746 63.37082,93.333001 C 62.07581,82.575001 63.36882,70.816001 67.28182,59.141001 C 65.85981,59.764001 64.45181,60.425001 63.05881,61.123001 C 60.34582,70.774001 59.36781,80.390001 60.10682,89.387001 C 61.37681,104.253 67.35182,117.078 75.28381,127.431 C 75.28381,127.431 75.28381,127.431 75.28381,127.431 C 76.36882,128.869 77.49481,130.267 78.65682,131.629 z M 80.23681,129.079 C 80.55681,128.596 80.87981,128.124 81.20482,127.665 C 75.33181,119.729 70.78682,110.41 68.80281,99.901002 C 66.25181,86.480001 68.10481,71.152001 74.43481,56.362001 C 72.97182,56.860001 71.52081,57.396001 70.08181,57.969001 C 65.28182,70.918001 63.77781,84.086001 65.52482,95.937001 C 67.42081,108.76 73.00481,119.915 80.23681,129.079 z M 83.49382,124.709 C 84.54681,123.482 85.62181,122.418 86.72081,121.566 C 86.72081,121.566 86.72081,121.566 86.72081,121.566 C 89.07581,119.551 92.174811,117.924 95.503811,116.801 C 95.503811,116.801 95.503811,116.801 95.503811,116.801 C 96.778811,116.335 98.175821,115.966 99.676811,115.676 L 86.98981,53.008001 C 86.16581,53.178001 85.33881,53.358001 84.50981,53.548001 C 82.32181,57.706001 80.41781,61.923001 78.85182,66.169001 C 73.33181,80.988001 72.54182,96.199001 76.40381,109.091 C 76.40381,109.091 76.40381,109.091 76.40381,109.091 C 78.05281,114.702 80.49481,119.92 83.49382,124.709 z M 99.676811,115.676 C 100.30681,115.554 100.95482,115.447 101.61981,115.351 C 103.13881,107.201 106.32282,99.021002 110.60081,91.149001 C 118.04681,77.695001 127.97081,64.780001 142.37981,54.534001 C 131.35581,51.740001 120.65381,50.620001 110.60081,50.712001 C 103.03581,50.630001 95.109811,51.334001 86.98981,53.008001 M 106.21982,114.89 C 106.87082,114.848 107.53381,114.814 108.20681,114.786 C 108.92181,112.777 109.72281,110.775 110.60081,108.786 C 117.32581,94.498001 126.48081,80.549001 140.49582,69.516001 C 140.49582,69.516001 140.49582,69.516001 140.49582,69.516001 C 145.39081,65.698001 150.86081,62.288001 156.90081,59.471001 C 155.50582,58.865001 154.10382,58.295001 152.69581,57.763001 C 148.84482,59.815001 145.24281,62.104001 141.89081,64.578001 C 127.29481,75.478001 117.67582,89.376001 110.60081,103.691 C 110.60081,103.691 110.60081,103.691 110.60081,103.691 C 108.86281,107.385 107.38381,111.13 106.21982,114.89 z M 109.57381,114.738 C 109.91382,114.728 110.25582,114.719 110.60081,114.712 C 110.98481,114.718 111.36681,114.726 111.74582,114.735 C 117.77482,101.362 125.91581,88.307001 138.18181,77.709001 C 145.31381,71.577001 153.84182,66.363001 163.75582,62.785001 C 162.38681,62.055001 161.00981,61.362001 159.62381,60.707001 C 152.08881,63.905001 145.40581,68.037001 139.57982,72.759001 C 125.94082,83.898001 117.09182,97.903001 110.60081,112.192 C 110.60081,112.192 110.60081,112.192 110.60081,112.192 C 110.24382,113.038 109.90182,113.887 109.57381,114.738 z M 116.74681,114.962 C 120.60981,115.238 124.12381,115.763 127.17181,116.7 C 130.87082,117.812 134.16682,119.222 136.57181,121.019 C 136.57181,121.019 136.57181,121.019 136.57181,121.019 C 136.74781,121.139 136.92382,121.263 137.09781,121.391 L 175.38282,70.126001 C 174.74781,69.649001 174.10581,69.179001 173.45581,68.716001 C 173.34882,68.642001 173.24181,68.568001 173.13481,68.494001 C 157.29781,71.926001 144.55281,79.650001 134.93881,89.196001 C 127.17081,96.894001 121.34281,105.733 116.74681,114.962 z M 137.09781,121.391 C 137.48981,121.677 137.87782,121.984 138.26181,122.309 C 145.27881,117.384 153.83982,114.174 163.12582,112.848 C 163.12582,112.848 163.12582,112.848 163.12582,112.848 C 175.83581,111.049 189.80382,112.79 203.42281,116.711 C 203.42281,116.711 203.42281,116.711 203.42281,116.711 C 205.45181,117.284 207.47882,117.902 209.50381,118.564 C 209.07782,117.335 208.63481,116.103 208.17382,114.87 C 205.00981,106.522 200.62481,98.092001 194.81981,89.935001 C 194.81981,89.935001 194.81981,89.935001 194.81981,89.935001 C 189.50282,82.531001 182.98581,75.835001 175.38282,70.126001 M 140.71182,124.688 C 141.03182,125.04 141.34781,125.403 141.65781,125.776 C 143.95982,124.76 146.35781,123.893 148.83282,123.18 C 160.51381,119.888 173.76381,120.309 186.97682,123.082 C 186.97682,123.082 186.97682,123.082 186.97682,123.082 C 195.79081,124.913 204.61382,127.731 213.35682,131.229 C 213.03581,130.01 212.70081,128.786 212.34882,127.56 C 205.51282,124.966 198.63481,122.809 191.75582,121.231 C 178.41581,118.128 164.94881,117.329 152.96281,120.195 C 152.96281,120.195 152.96281,120.195 152.96281,120.195 C 148.63581,121.249 144.51881,122.754 140.71182,124.688 z M 142.27482,126.539 C 142.50481,126.831 142.73081,127.128 142.95381,127.43 C 143.03182,127.534 143.11081,127.64 143.18782,127.746 C 154.07681,124.153 166.50181,124.028 179.03281,126.16 C 190.98882,128.192 202.99981,132.152 214.82881,137.246 C 214.55582,136.039 214.26782,134.828 213.96682,133.613 C 203.98882,129.5 193.89681,126.241 183.82881,124.302 C 170.68481,121.751 157.56282,121.589 146.07282,125.175 C 146.07282,125.175 146.07282,125.175 146.07282,125.175 C 144.78381,125.587 143.51681,126.042 142.27482,126.539 z M 145.24281,131.001 C 146.39181,133.072 147.46081,135.429 148.49582,137.99 C 150.91281,143.826 152.47182,150.574 153.63181,157.993 L 216.87981,147.657 C 216.76482,146.974 216.64581,146.288 216.52281,145.601 C 200.53882,138.098 184.12582,132.353 167.90881,130.47 C 160.10882,129.586 152.43082,129.659 145.24281,131.001 z M 153.63181,157.993 C 153.77682,158.914 153.91382,159.847 154.04681,160.789 C 162.35481,163.522 170.66382,166.967 178.87481,170.785 C 193.00881,177.354 206.89381,185.085 220.61281,193.214 C 220.39282,184.748 219.98182,176.092 219.22882,167.257 C 218.75481,160.927 218.01081,154.373 216.87981,147.657 M 154.85182,167.111 C 154.95282,167.983 155.05082,168.862 155.14681,169.747 C 157.20282,170.574 159.25582,171.434 161.30582,172.321 C 181.54981,181.068 201.30082,192.437 220.80382,204.161 C 220.79382,203.108 220.78182,202.052 220.76681,200.994 C 202.92781,190.308 184.86181,180.029 166.38082,171.878 C 162.54981,170.185 158.70282,168.584 154.85182,167.111 z M 155.33781,171.536 C 155.38282,171.966 155.42781,172.398 155.47281,172.831 C 155.51482,173.304 155.55681,173.778 155.59682,174.253 C 177.80681,183.78 199.44481,196.487 220.84081,209.354 C 220.83581,208.312 220.82982,207.266 220.82181,206.218 C 200.20581,193.824 179.33282,181.728 157.91182,172.618 C 157.05481,172.252 156.19681,171.892 155.33781,171.536 z M 156.05481,180.603 C 156.78381,192.62 156.82381,205.224 156.84781,218.355 C 156.84781,255.71158 220.84781,256.10658 220.84781,218.355 C 220.84882,217.762 220.84981,217.169 220.85081,216.574 C 199.52781,203.796 178.03882,190.797 156.05481,180.603 z"
       style="fill:#d40000;fill-opacity:1;fill-rule:evenodd;stroke:none;stroke-width:1px;stroke-linecap:butt;stroke-linejoin:miter;stroke-opacity:1;display:inline" />
    <path
       transform="translate(-193.36018,-691.91323)"
       clip-path="url(#clipPath3318)"
       sodipodi:nodetypes="cccccccsscccccccsccccccccc"
       id="path2602"
       d="M 306.21875,748.5625 C 279.45703,748.07964 252.29319,756.935 234.65625,776.8125 C 234.63548,776.82305 234.61465,776.83346 234.59375,776.84375 C 211.14496,802.65086 206.07271,839.33495 203.125,874.53125 C 201.68406,897.12513 201.65625,935.31843 201.65625,959.71781 L 249.5625,958.93656 C 249.3184,925.22895 248.55586,873.02083 257.25,839.15625 C 257.25993,839.11446 257.27035,839.07279 257.28125,839.03125 C 259.29172,831.93207 264.13276,824.05829 268.78125,817.1875 C 273.42974,810.31671 280.17962,804.34497 289.375,802.21875 C 289.4477,802.20688 289.52063,802.19646 289.59375,802.1875 C 304.82159,799.31351 324.22837,798.93579 337.5625,811.65625 C 337.69341,811.7752 337.81855,811.90034 337.9375,812.03125 C 352.71614,829.14822 353.461,852.02859 355.28125,870.96875 C 355.28128,870.97917 355.28128,870.98958 355.28125,871 C 356.6648,886.61481 355.35295,901.74572 356.78125,915.96875 C 358.46214,923.46386 363.87411,928.56032 371.125,931.3125 C 378.44045,934.08918 387.38813,934.0004 394.1875,931.03125 C 394.30068,930.98581 394.41532,930.94412 394.53125,930.90625 C 404.02984,927.48817 409.40047,916.57469 408.125,906.375 C 408.10162,906.15706 408.09118,905.93793 408.09375,905.71875 C 407.81841,867.06462 407.16454,827.207 388.75,794.0625 C 388.73945,794.04173 388.72904,794.0209 388.71875,794 C 374.88137,768.33278 346.8776,751.69378 317.8125,749.375 C 317.73938,749.36604 317.66645,749.35562 317.59375,749.34375 C 313.82316,748.90154 310.03572,748.63137 306.21875,748.5625 z"
       style="opacity:0.6;fill:#ffffff;fill-rule:evenodd;stroke:none;stroke-width:1px;stroke-linecap:butt;stroke-linejoin:miter;stroke-opacity:1;display:inline;filter:url(#filter3307)" />
    <path
       sodipodi:type="arc"
       style="opacity:0.9;fill:url(#linearGradient2625);fill-opacity:1;stroke:none;stroke-width:0.5;stroke-linecap:square;stroke-linejoin:miter;stroke-miterlimit:4;stroke-dasharray:none;stroke-dashoffset:0;stroke-opacity:1;display:inline;filter:url(#filter4547)"
       id="path2604"
       sodipodi:cx="192.5"
       sodipodi:cy="-102.63782"
       sodipodi:rx="45.357143"
       sodipodi:ry="20"
       d="M 237.85714,-102.63782 A 45.357143,20 0 1 1 147.14286,-102.63782 A 45.357143,20 0 1 1 237.85714,-102.63782 z"
       transform="matrix(1.0344304,-0.3575726,0.3675409,1.0632679,-80.895109,255.83472)"
       inkscape:export-filename="C:\Documents and Settings\612645\Desktop\To Be Deleted\candycane_test.png"
       inkscape:export-xdpi="90"
       inkscape:export-ydpi="90" />
    <path
       sodipodi:nodetypes="ccccccccccccc"
       id="path2606"
       d="M 63.75048,255.5 C 63.57965,219.99745 62.99194,182.78411 71.89246,148.11567 C 75.74375,134.51631 82.07793,119.72292 97.279481,116.20791 C 111.70707,113.48492 129.00727,113.12304 140.27659,123.87373 C 153.46843,139.15287 154.55105,159.93774 156.39126,179.08544 C 157.73,194.19462 156.38829,209.46178 157.956,224.51064 C 162.08676,243.80272 186.39487,250.96663 203.03345,243.7009 C 215.319,239.27994 221.82124,225.82866 220.25136,213.27465 C 219.9759,174.60423 219.52187,133.69151 200.2279,98.964121 C 185.39401,71.448501 155.77032,53.889561 124.9041,51.427091 C 93.345001,47.725891 58.82492,56.291911 37.15544,80.714251 C 12.33892,108.02666 5.2009411,146.05947 2.2194811,181.65881 C 0.6523311,206.23177 0.7584811,223.38071 0.7584811,255.5"
       style="fill:none;fill-rule:evenodd;stroke:#000000;stroke-width:1px;stroke-linecap:square;stroke-linejoin:miter;stroke-opacity:1;display:inline" />
    <path
       style="fill:url(#linearGradient13992);fill-opacity:1;fill-rule:evenodd;stroke:#000000;stroke-width:1px;stroke-linecap:square;stroke-linejoin:miter;stroke-opacity:1;display:inline"
       d="M 1.5051954,164.80618 C 1.5051954,195.58975 23.841952,205.10995 43.321031,155.9059 C 66.962578,96.187472 81.407812,86.498141 97.993767,86.498141 C 138.20893,86.498141 185.16192,119.83536 212.49457,126.80975 C 228.55995,130.90909 217.54027,68.850612 140.64812,48.247424 C 110.02114,40.040949 70.838549,46.261715 43.216355,66.091144 C 14.251023,86.884786 1.5051954,128.65681 1.5051954,164.80618 z"
       id="path2636"
       sodipodi:nodetypes="csssssc" />
    <path
       sodipodi:type="inkscape:offset"
       inkscape:radius="-6.0389199"
       inkscape:original="M 116.375 44.78125 C 91.139349 43.998238 63.935395 51.221678 43.21875 66.09375 C 14.253419 86.887395 4.48146 129.21316 1.5 164.8125 C 1.5 195.59607 23.833421 205.1103 43.3125 155.90625 C 66.954048 96.187823 81.414045 86.5 98 86.5 C 138.21516 86.500003 185.16735 119.83811 212.5 126.8125 C 228.56538 130.91184 217.5484 68.853188 140.65625 48.25 C 132.99951 46.198381 124.78688 45.042254 116.375 44.78125 z "
       style="fill:url(#linearGradient14806);fill-opacity:1;fill-rule:evenodd;stroke:none;stroke-width:1px;stroke-linecap:square;stroke-linejoin:miter;stroke-opacity:1;display:inline;filter:url(#filter14816)"
       id="path14006"
       d="M 116.1875,50.8125 C 92.237038,50.069365 66.184651,57.048246 46.75,71 C 20.454801,89.876809 10.502159,130.28906 7.5625,165.15625 C 7.6084597,171.94956 8.9328459,177.32728 10.625,180.46875 C 12.34719,183.66598 13.662689,184.29834 15.15625,184.3125 C 16.649811,184.32666 19.837268,183.18341 24,178.40625 C 28.162732,173.62909 32.987621,165.55937 37.6875,153.6875 C 49.622239,123.54041 59.249165,105.71124 68.75,94.84375 C 78.250835,83.97626 88.531249,80.46875 98,80.46875 C 119.77632,80.468752 142.1709,89.214835 162.59375,98.53125 C 182.338,107.5381 200.38292,117.04934 212.625,120.5 C 212.74276,120.09027 212.80777,120.18218 212.8125,119.125 C 212.82993,115.23294 210.97463,107.9461 206.21875,99.875 C 196.70699,83.732805 176.14531,64.021684 139.09375,54.09375 C 131.93194,52.174746 124.16864,51.060139 116.1875,50.8125 z"
       clip-path="url(#clipPath14824)" />
    <path
       sodipodi:nodetypes="csssssc"
       id="path14830"
       d="M 1.5051954,164.95433 C 1.5051954,195.7379 23.841952,205.2581 43.321031,156.05405 C 66.962578,96.335624 81.407812,86.646293 97.993767,86.646293 C 138.20893,86.646293 185.16192,119.98351 212.49457,126.9579 C 228.55995,131.05724 217.54027,68.998764 140.64812,48.395576 C 110.02114,40.189101 70.838549,46.409867 43.216355,66.239296 C 14.251023,87.032938 1.5051954,128.80496 1.5051954,164.95433 z"
       style="fill:none;fill-opacity:1;fill-rule:evenodd;stroke:#000000;stroke-width:1px;stroke-linecap:square;stroke-linejoin:miter;stroke-opacity:1;display:inline" />
  </g>
</svg>
