<?xml version="1.0" encoding="UTF-8" standalone="no"?>
<!-- Created with Inkscape (http://www.inkscape.org/) -->
<svg
   xmlns:dc="http://purl.org/dc/elements/1.1/"
   xmlns:cc="http://creativecommons.org/ns#"
   xmlns:rdf="http://www.w3.org/1999/02/22-rdf-syntax-ns#"
   xmlns:svg="http://www.w3.org/2000/svg"
   xmlns="http://www.w3.org/2000/svg"
   xmlns:xlink="http://www.w3.org/1999/xlink"
   xmlns:sodipodi="http://sodipodi.sourceforge.net/DTD/sodipodi-0.dtd"
   xmlns:inkscape="http://www.inkscape.org/namespaces/inkscape"
   width="512"
   height="512"
   id="svg2"
   sodipodi:version="0.32"
   inkscape:version="0.46"
   version="1.0"
   sodipodi:docname="small_white.svg"
   inkscape:output_extension="org.inkscape.output.svg.inkscape"
   inkscape:export-filename="D:\Dateien\Desktop\Secret Maryo Chronicles\Drafts\Game\FluXy\core\arrow\right.png"
   inkscape:export-xdpi="22.5"
   inkscape:export-ydpi="22.5">
  <defs
     id="defs4">
    <inkscape:perspective
       sodipodi:type="inkscape:persp3d"
       inkscape:vp_x="0 : 256 : 1"
       inkscape:vp_y="0 : 1000 : 0"
       inkscape:vp_z="512 : 256 : 1"
       inkscape:persp3d-origin="256 : 170.66667 : 1"
       id="perspective23" />
    <linearGradient
       id="linearGradient3262">
      <stop
         id="stop3264"
         offset="0"
         style="stop-color:#b8b8b8;stop-opacity:1;" />
      <stop
         id="stop3266"
         offset="1"
         style="stop-color:#7e7e7e;stop-opacity:1;" />
    </linearGradient>
    <linearGradient
       id="linearGradient3178">
      <stop
         style="stop-color:#ffffff;stop-opacity:1;"
         offset="0"
         id="stop3180" />
      <stop
         style="stop-color:#c5c5c5;stop-opacity:1;"
         offset="1"
         id="stop3182" />
    </linearGradient>
    <radialGradient
       inkscape:collect="always"
       xlink:href="#linearGradient3178"
       id="radialGradient3184"
       cx="100.23086"
       cy="64.596474"
       fx="100.23086"
       fy="64.596474"
       r="243.68142"
       gradientTransform="matrix(0.4462148,0,0,0.4563502,31.867937,35.387272)"
       gradientUnits="userSpaceOnUse" />
    <radialGradient
       inkscape:collect="always"
       xlink:href="#linearGradient3262"
       id="radialGradient3190"
       gradientUnits="userSpaceOnUse"
       gradientTransform="matrix(0.2716131,0,0,0.2777825,-2.1674902,-2.7164236)"
       cx="255.49535"
       cy="256.76526"
       fx="255.49535"
       fy="256.76526"
       r="243.68143" />
    <filter
       inkscape:collect="always"
       id="filter3228">
      <feGaussianBlur
         inkscape:collect="always"
         stdDeviation="1.9755692"
         id="feGaussianBlur3230" />
    </filter>
  </defs>
  <sodipodi:namedview
     id="base"
     pagecolor="#ffffff"
     bordercolor="#666666"
     borderopacity="1.0"
     inkscape:pageopacity="0.0"
     inkscape:pageshadow="2"
     inkscape:zoom="0.49497475"
     inkscape:cx="-42.841014"
     inkscape:cy="249.43277"
     inkscape:document-units="px"
     inkscape:current-layer="g3"
     showgrid="false"
     width="512px"
     inkscape:window-width="1026"
     inkscape:window-height="740"
     inkscape:window-x="118"
     inkscape:window-y="142" />
  <metadata
     id="metadata7">
    <rdf:RDF>
      <cc:Work
         rdf:about="">
        <dc:format>image/svg+xml</dc:format>
        <dc:type
           rdf:resource="http://purl.org/dc/dcmitype/StillImage" />
      </cc:Work>
    </rdf:RDF>
  </metadata>
  <g
     inkscape:label="Ebene 1"
     inkscape:groupmode="layer"
     id="layer1">
    <g
       id="g3"
       transform="matrix(3.681708,0,0,3.681708,7.980066,4.1688779)">
      <radialGradient
         r="69.833298"
         id="XMLID_2_"
         gradientUnits="userSpaceOnUse"
         cy="42.188999"
         cx="42.785599"
         gradientTransform="translate(-137.74663,-8.9244293)">
        <stop
           style="stop-color:#D1F593"
           offset="0"
           id="stop6" />
        <stop
           style="stop-color:#81CE09"
           offset="1"
           id="stop8" />
      </radialGradient>
      <path
         style="opacity:1;fill:url(#radialGradient3190);fill-opacity:1;fill-rule:evenodd;stroke:#393939;stroke-width:2.17290449000000010;stroke-linecap:round;stroke-linejoin:round;stroke-miterlimit:4;stroke-dasharray:none;stroke-dashoffset:0;stroke-opacity:1"
         d="M 62.832846,134.79521 C 60.847102,134.05885 59.897651,133.15402 58.92202,131.06818 C 58.143039,129.40273 58.110119,128.81137 58.20941,118.26356 C 58.316249,106.9144 57.971798,101.73922 57.06756,101.10736 C 56.759798,100.8923 48.30226,100.81984 36.00853,100.92692 C 24.05452,101.03104 14.350955,100.95166 12.802392,100.73706 C 8.2707254,100.10906 5.2087377,98.378344 3.6510445,95.564462 C 3.0901868,94.551294 2.9739247,92.212501 2.7541585,77.521593 C 2.6152984,68.238245 2.3718244,57.672577 2.2131323,54.042327 C 1.5826097,39.618816 4.3257197,35.107317 14.453206,33.91145 C 15.626963,33.772854 25.746359,33.829369 36.940752,34.037044 C 51.395126,34.3052 57.439767,34.293825 57.79645,33.997802 C 58.197595,33.664888 58.253037,30.954097 58.071884,20.532593 C 57.815085,5.7602627 57.808621,5.7999027 60.821443,3.7125561 C 63.13616,2.1088746 66.376574,1.5710342 68.906344,2.3706437 C 70.788424,2.9655347 72.70287,4.7987833 100.47398,32.599396 C 127.70855,59.862906 130.13148,62.39358 131.22415,64.716974 C 133.87795,70.359856 132.00496,74.386075 122.82519,82.77157 C 120.52126,84.876158 107.98512,97.186473 94.967088,110.12783 C 78.853948,126.14608 70.802472,133.88568 69.745872,134.37209 C 67.728284,135.30089 64.696916,135.48643 62.832855,134.7952 L 62.832846,134.79521 z"
         id="path2388" />
      <path
         sodipodi:type="inkscape:offset"
         inkscape:radius="0"
         inkscape:original="M 64.78125 2.125 C 63.365586 2.3599691 61.969859 2.9169092 60.8125 3.71875 C 57.799678 5.8060966 57.805701 5.7589199 58.0625 20.53125 C 58.243653 30.952754 58.182393 33.667085 57.78125 34 C 57.424567 34.296023 51.391876 34.299405 36.9375 34.03125 C 25.743107 33.823575 15.642507 33.767655 14.46875 33.90625 C 4.3412637 35.102117 1.5882273 39.607738 2.21875 54.03125 C 2.3774421 57.6615 2.6111399 68.247904 2.75 77.53125 C 2.9697662 92.222158 3.0953922 94.549333 3.65625 95.5625 C 5.2139432 98.376382 8.2808334 100.122 12.8125 100.75 C 14.361063 100.9646 24.04599 101.04162 36 100.9375 C 48.29373 100.83042 56.75474 100.87869 57.0625 101.09375 C 57.966738 101.72561 58.325587 106.90084 58.21875 118.25 C 58.119459 128.79781 58.158519 129.39705 58.9375 131.0625 C 59.913131 133.14834 60.858004 134.04489 62.84375 134.78125 C 64.707811 135.47248 67.732412 135.3038 69.75 134.375 C 70.8066 133.88859 78.855611 126.14325 94.96875 110.125 C 107.98678 97.183643 120.50857 84.88584 122.8125 82.78125 C 131.99227 74.395755 133.87255 70.361634 131.21875 64.71875 C 130.12608 62.395356 127.70332 59.85726 100.46875 32.59375 C 72.69764 4.7931373 70.788332 2.9698911 68.90625 2.375 C 67.641365 1.9751952 66.196914 1.8900309 64.78125 2.125 z "
         xlink:href="#path2388"
         style="opacity:1;fill:url(#radialGradient3184);fill-opacity:1;fill-rule:evenodd;stroke:none;stroke-width:0;stroke-linecap:round;stroke-linejoin:round;stroke-miterlimit:4;stroke-dasharray:none;stroke-dashoffset:0;stroke-opacity:1;filter:url(#filter3228)"
         id="path3188"
         inkscape:href="#path2388"
         d="M 64.78125,2.125 C 63.365586,2.3599691 61.969859,2.9169092 60.8125,3.71875 C 57.799678,5.8060966 57.805701,5.7589199 58.0625,20.53125 C 58.243653,30.952754 58.182393,33.667085 57.78125,34 C 57.424567,34.296023 51.391876,34.299405 36.9375,34.03125 C 25.743107,33.823575 15.642507,33.767655 14.46875,33.90625 C 4.3412637,35.102117 1.5882273,39.607738 2.21875,54.03125 C 2.3774421,57.6615 2.6111399,68.247904 2.75,77.53125 C 2.9697662,92.222158 3.0953922,94.549333 3.65625,95.5625 C 5.2139432,98.376382 8.2808334,100.122 12.8125,100.75 C 14.361063,100.9646 24.04599,101.04162 36,100.9375 C 48.29373,100.83042 56.75474,100.87869 57.0625,101.09375 C 57.966738,101.72561 58.325587,106.90084 58.21875,118.25 C 58.119459,128.79781 58.158519,129.39705 58.9375,131.0625 C 59.913131,133.14834 60.858004,134.04489 62.84375,134.78125 C 64.707811,135.47248 67.732412,135.3038 69.75,134.375 C 70.8066,133.88859 78.855611,126.14325 94.96875,110.125 C 107.98678,97.183643 120.50857,84.88584 122.8125,82.78125 C 131.99227,74.395755 133.87255,70.361634 131.21875,64.71875 C 130.12608,62.395356 127.70332,59.85726 100.46875,32.59375 C 72.69764,4.7931373 70.788332,2.9698911 68.90625,2.375 C 67.641365,1.9751952 66.196914,1.8900309 64.78125,2.125 z"
         transform="matrix(0.9460479,0,0,0.8953677,4.7523438,7.1777803)" />
    </g>
  </g>
</svg>
