<?xml version="1.0" encoding="UTF-8" standalone="no"?>
<!-- Created with Inkscape (http://www.inkscape.org/) -->

<svg
   xmlns:dc="http://purl.org/dc/elements/1.1/"
   xmlns:cc="http://creativecommons.org/ns#"
   xmlns:rdf="http://www.w3.org/1999/02/22-rdf-syntax-ns#"
   xmlns:svg="http://www.w3.org/2000/svg"
   xmlns="http://www.w3.org/2000/svg"
   xmlns:xlink="http://www.w3.org/1999/xlink"
   xmlns:sodipodi="http://sodipodi.sourceforge.net/DTD/sodipodi-0.dtd"
   xmlns:inkscape="http://www.inkscape.org/namespaces/inkscape"
   width="1024"
   height="256"
   id="svg2"
   version="1.1"
   inkscape:version="0.47 r22583"
   sodipodi:docname="low_sand.svg"
   inkscape:export-filename="low_sand.png"
   inkscape:export-xdpi="180"
   inkscape:export-ydpi="180">
  <defs
     id="defs4">
    <filter
       id="filter3408"
       inkscape:label="Diffuse light front"
       inkscape:menu="ABCs"
       inkscape:menu-tooltip="Basic diffuse bevel to use for building textures">
      <feGaussianBlur
         id="feGaussianBlur3410"
         stdDeviation="16"
         in="SourceGraphic"
         result="result0" />
      <feDiffuseLighting
         id="feDiffuseLighting3412"
         diffuseConstant="1"
         surfaceScale="3"
         result="result5"
         lighting-color="rgb(255,255,255)"
         kernelUnitLength="0.01">
        <feDistantLight
           id="feDistantLight3414"
           elevation="30"
           azimuth="230" />
      </feDiffuseLighting>
      <feComposite
         id="feComposite3416"
         in2="SourceGraphic"
         k1="1"
         in="result5"
         result="result4"
         operator="arithmetic"
         k2="0"
         k3="0.59999999999999998"
         k4="0" />
    </filter>
    <filter
       inkscape:menu-tooltip="Basic diffuse bevel to use for building textures"
       inkscape:menu="ABCs"
       inkscape:label="Diffuse light back"
       id="filter4192">
      <feGaussianBlur
         result="result0"
         in="SourceGraphic"
         stdDeviation="16"
         id="feGaussianBlur4194" />
      <feDiffuseLighting
         lighting-color="rgb(255,251,130)"
         result="result5"
         surfaceScale="4"
         diffuseConstant="0.80000000000000004"
         id="feDiffuseLighting4196">
        <feDistantLight
           azimuth="230"
           elevation="42"
           id="feDistantLight4198" />
      </feDiffuseLighting>
      <feComposite
         k3="0.59999999999999998"
         k2="0"
         operator="arithmetic"
         result="result4"
         in="result5"
         k1="1"
         in2="SourceGraphic"
         id="feComposite4200" />
    </filter>
    <pattern
       patternUnits="userSpaceOnUse"
       width="256"
       height="256"
       patternTransform="translate(63.208202,368.05753)"
       id="pattern4129">
      <image
         sodipodi:absref="C:\Dateien\Desktop\Secret Maryo Chronicles\Drafts\Game\FluXy\level\backgrounds\hills\low_sand_texture_1.png"
         xlink:href="low_sand_texture_1.png"
         height="256"
         width="256"
         id="image4125"
         x="0"
         y="1.1368684e-13" />
    </pattern>
  </defs>
  <sodipodi:namedview
     id="base"
     pagecolor="#1d1802"
     bordercolor="#666666"
     borderopacity="1.0"
     inkscape:pageopacity="0"
     inkscape:pageshadow="2"
     inkscape:zoom="0.7"
     inkscape:cx="477.71234"
     inkscape:cy="308.77918"
     inkscape:document-units="px"
     inkscape:current-layer="g3355"
     showgrid="false"
     inkscape:window-width="1008"
     inkscape:window-height="800"
     inkscape:window-x="104"
     inkscape:window-y="102"
     inkscape:window-maximized="0" />
  <metadata
     id="metadata7">
    <rdf:RDF>
      <cc:Work
         rdf:about="">
        <dc:format>image/svg+xml</dc:format>
        <dc:type
           rdf:resource="http://purl.org/dc/dcmitype/StillImage" />
        <dc:title />
      </cc:Work>
    </rdf:RDF>
  </metadata>
  <g
     inkscape:label="Layer 1"
     inkscape:groupmode="layer"
     id="layer1"
     transform="translate(0,-796.36218)">
    <g
       id="g3355"
       style="display:inline">
      <path
         sodipodi:nodetypes="ccszasasazssszassccc"
         id="path4190"
         d="m -60,1026.3622 0,-170.00002 62,0 c 27.763112,0 63.418461,-33.67708 84.277394,-41.56806 20.858936,-7.89098 33.541276,29.12646 54.202786,30.26095 29.45323,1.61722 63.04446,-28.36105 81.52514,-34.41836 15.12264,-4.95666 27.22526,33.44827 46.76055,36.4817 32.18194,4.9972 58.72365,-22.77542 91.62971,-33.90925 35.06533,-11.86443 47.15563,43.44174 76.80471,45.15655 37.08565,2.14491 75.78983,-34.4893 101.94002,-45.03051 26.15019,-10.54121 31.77274,52.19813 58.45764,55.68638 26.9507,3.523 68.82395,-41.56466 84.2202,-51.20231 36.41824,-22.79687 45.04496,38.52873 72.46999,38.97549 18.54278,0.30206 34.50033,-37.65604 55.80894,-47.32618 21.30861,-9.67014 60.58732,34.20677 93.93425,34.42289 18.76515,0.12162 26.43619,-5.42912 53.10578,-18.68387 15.8023,-7.85373 46.07799,31.15457 66.86289,31.15458 l 64,2e-5 0,170 -1148,0 z"
         style="fill:#988552;stroke:#41361b;fill-opacity:1;filter:url(#filter4192);stroke-opacity:1;stroke-linejoin:round;stroke-linecap:round" />
      <path
         style="fill:#b29b4d;fill-opacity:1;stroke:#41361b;filter:url(#filter3408);stroke-opacity:1;stroke-linecap:round;stroke-linejoin:round"
         d="m -60,1092.3622 0,-170.00002 62,0 c 48.565903,0 120.82866,-19.82085 149.99168,-41.56808 39.30034,-25.64402 80.94606,21.76193 122.48848,23.75286 57.94315,2.77694 150.77497,-61.53818 173.23158,-16.64035 7.87161,35.78126 97.52036,46.2949 149.88621,47.11495 73.55308,1.15184 130.40681,-46.98933 212.49913,-59.553 33.34588,-0.34124 61.44527,26.90421 93.93425,34.42289 39.16981,9.06478 86.95159,12.47073 119.96867,12.47073 l 64,0 0,170.00002 -1148,0 z"
         id="path3361"
         sodipodi:nodetypes="ccscacacasccc" />
    </g>
  </g>
</svg>
