<?xml version="1.0" encoding="UTF-8" standalone="no"?>
<!-- Created with Inkscape (http://www.inkscape.org/) -->

<svg
   xmlns:dc="http://purl.org/dc/elements/1.1/"
   xmlns:cc="http://creativecommons.org/ns#"
   xmlns:rdf="http://www.w3.org/1999/02/22-rdf-syntax-ns#"
   xmlns:svg="http://www.w3.org/2000/svg"
   xmlns="http://www.w3.org/2000/svg"
   xmlns:xlink="http://www.w3.org/1999/xlink"
   xmlns:sodipodi="http://sodipodi.sourceforge.net/DTD/sodipodi-0.dtd"
   xmlns:inkscape="http://www.inkscape.org/namespaces/inkscape"
   width="1024"
   height="1024"
   id="svg2"
   version="1.1"
   inkscape:version="0.46+devel 22040"
   sodipodi:docname="small_green_ballhills_2.svg"
   inkscape:export-filename="C:\Dateien\Desktop\Secret Maryo Chronicles\SMC\data\pixmaps\game\background\small_green_ballhills_2.png"
   inkscape:export-xdpi="180"
   inkscape:export-ydpi="180">
  <defs
     id="defs4">
    <linearGradient
       id="linearGradient4754">
      <stop
         style="stop-color:#148201;stop-opacity:1;"
         offset="0"
         id="stop4756" />
      <stop
         id="stop4758"
         offset="0.77447397"
         style="stop-color:#29b201;stop-opacity:1;" />
      <stop
         style="stop-color:#52ea02;stop-opacity:1;"
         offset="1"
         id="stop4760" />
    </linearGradient>
    <linearGradient
       id="linearGradient4151">
      <stop
         id="stop4153"
         offset="0"
         style="stop-color:#148201;stop-opacity:1;" />
      <stop
         style="stop-color:#2ec501;stop-opacity:1;"
         offset="0.5"
         id="stop4752" />
      <stop
         id="stop4155"
         offset="1"
         style="stop-color:#5bfc1a;stop-opacity:1;" />
    </linearGradient>
    <linearGradient
       id="linearGradient4145">
      <stop
         id="stop4147"
         offset="0"
         style="stop-color:#24a70c;stop-opacity:1;" />
      <stop
         id="stop4149"
         offset="1"
         style="stop-color:#5bc910;stop-opacity:1;" />
    </linearGradient>
    <linearGradient
       id="linearGradient3685">
      <stop
         style="stop-color:#20c901;stop-opacity:1;"
         offset="0"
         id="stop3687" />
      <stop
         style="stop-color:#56f402;stop-opacity:1"
         offset="1"
         id="stop3689" />
    </linearGradient>
    <inkscape:perspective
       sodipodi:type="inkscape:persp3d"
       inkscape:vp_x="0 : 526.18109 : 1"
       inkscape:vp_y="0 : 1000 : 0"
       inkscape:vp_z="744.09448 : 526.18109 : 1"
       inkscape:persp3d-origin="372.04724 : 350.78739 : 1"
       id="perspective10" />
    <inkscape:perspective
       id="perspective2824"
       inkscape:persp3d-origin="0.5 : 0.33333333 : 1"
       inkscape:vp_z="1 : 0.5 : 1"
       inkscape:vp_y="0 : 1000 : 0"
       inkscape:vp_x="0 : 0.5 : 1"
       sodipodi:type="inkscape:persp3d" />
    <filter
       id="filter3663"
       inkscape:menu-tooltip="Bright metallic effect for any color"
       inkscape:menu="Bevels"
       inkscape:label="Bright metal"
       color-interpolation-filters="sRGB">
      <feGaussianBlur
         id="feGaussianBlur3665"
         result="result6"
         stdDeviation="10.01"
         in="SourceGraphic" />
      <feComposite
         id="feComposite3667"
         in2="SourceGraphic"
         in="result6"
         operator="xor"
         result="result10" />
      <feGaussianBlur
         id="feGaussianBlur3669"
         result="result2"
         stdDeviation="4.744902506963788" />
      <feComposite
         id="feComposite3671"
         in2="SourceGraphic"
         operator="atop"
         in="result10"
         result="result11" />
      <feComposite
         id="feComposite3673"
         in2="result11"
         result="result4"
         in="result2"
         operator="xor" />
      <feGaussianBlur
         id="feGaussianBlur3675"
         in="result4"
         result="result3"
         stdDeviation="7.2516155988857944" />
      <feSpecularLighting
         id="feSpecularLighting3677"
         result="result5"
         specularExponent="4"
         specularConstant="1"
         surfaceScale="13.62397861"
         lighting-color="#c6ff7e"
         kernelUnitLength="0.01">
        <feDistantLight
           id="feDistantLight3679"
           azimuth="260"
           elevation="57" />
      </feSpecularLighting>
      <feComposite
         id="feComposite3681"
         in2="result5"
         in="result3"
         k3="0.5"
         k2="0.5"
         operator="arithmetic"
         result="result7"
         k1="0.5"
         k4="0" />
      <feComposite
         id="feComposite3683"
         in2="SourceGraphic"
         in="result7"
         operator="atop"
         result="result8" />
    </filter>
    <filter
       id="filter4155"
       inkscape:label="Thick paint"
       x="-0.050000001"
       y="-0.050000001"
       width="1.1"
       height="1.1"
       inkscape:menu="Bumps"
       inkscape:menu-tooltip="Thick painting effect with turbulence"
       color-interpolation-filters="sRGB">
      <feGaussianBlur
         id="feGaussianBlur4157"
         result="result6"
         stdDeviation="2" />
      <feTurbulence
         id="feTurbulence4159"
         type="fractalNoise"
         baseFrequency="0.3008547008547009"
         numOctaves="2"
         result="result2" />
      <feDisplacementMap
         id="feDisplacementMap4161"
         in2="result2"
         yChannelSelector="A"
         xChannelSelector="R"
         scale="10"
         result="result5"
         in="result6" />
      <feBlend
         id="feBlend4163"
         in2="result5"
         blend="normal"
         in="result6"
         mode="lighten"
         result="fbSourceGraphic" />
      <feColorMatrix
         id="feColorMatrix4165"
         result="result2"
         type="luminanceToAlpha"
         in="fbSourceGraphic" />
      <feDiffuseLighting
         id="feDiffuseLighting4167"
         diffuseConstant="0.64999998"
         result="result1"
         surfaceScale="-4">
        <feDistantLight
           id="feDistantLight4169"
           azimuth="225"
           elevation="35" />
      </feDiffuseLighting>
      <feComposite
         id="feComposite4171"
         in2="fbSourceGraphic"
         result="result3"
         k3="0.5"
         k1="1.37"
         in="result1"
         operator="arithmetic"
         k2="0"
         k4="0" />
      <feComposite
         id="feComposite4173"
         in2="result3"
         result="result5"
         operator="in"
         in="result3" />
    </filter>
    <filter
       id="filter3742"
       x="-0.15000001"
       width="1.3"
       y="-0.15000001"
       height="1.3"
       inkscape:menu-tooltip="Felt like texture with color turbulence and slightly darker at the edges"
       inkscape:menu="Textures"
       inkscape:label="Felt"
       color-interpolation-filters="sRGB">
      <feGaussianBlur
         id="feGaussianBlur3744"
         result="result1"
         in="SourceGraphic"
         stdDeviation="2" />
      <feTurbulence
         id="feTurbulence3746"
         result="result0"
         numOctaves="1"
         baseFrequency="0.36353276353276354"
         type="fractalNoise" />
      <feDisplacementMap
         id="feDisplacementMap3748"
         in2="result0"
         result="result2"
         scale="0.1"
         yChannelSelector="G"
         xChannelSelector="R"
         in="result1" />
      <feColorMatrix
         id="feColorMatrix3758"
         result="result8"
         values="0.1 0.5 0.5 0 0 0.9 1 0.9 0 0 0 0.8 0.2 0 0 0.5 0.2 0.4 0 0 "
         type="matrix" />
      <feComposite
         id="feComposite3752"
         in2="result8"
         result="result6"
         in="result0"
         operator="in" />
      <feComposite
         id="feComposite3754"
         in2="result0"
         in="result6"
         operator="in"
         result="result7" />
    </filter>
    <radialGradient
       inkscape:collect="always"
       xlink:href="#linearGradient4145"
       id="radialGradient3842"
       gradientUnits="userSpaceOnUse"
       gradientTransform="matrix(4.8363343,0.01428026,-0.0033883,1.1475082,-2439.6736,711.11893)"
       cx="604.37274"
       cy="266.29364"
       fx="604.37274"
       fy="266.29364"
       r="282.95312" />
    <radialGradient
       inkscape:collect="always"
       xlink:href="#linearGradient4151"
       id="radialGradient4420"
       gradientUnits="userSpaceOnUse"
       gradientTransform="matrix(2.6855631,-0.03023431,0.00689235,0.61221318,-114.93618,871.32442)"
       cx="42.412384"
       cy="253.80739"
       fx="42.412384"
       fy="253.80739"
       r="378" />
    <radialGradient
       inkscape:collect="always"
       xlink:href="#linearGradient4145"
       id="radialGradient4740"
       gradientUnits="userSpaceOnUse"
       gradientTransform="matrix(2.6857208,0.0081862,-0.00822481,2.698381,-111.10602,368.57229)"
       cx="42.412384"
       cy="253.80739"
       fx="42.412384"
       fy="253.80739"
       r="378" />
    <radialGradient
       inkscape:collect="always"
       xlink:href="#linearGradient4754"
       id="radialGradient4750"
       gradientUnits="userSpaceOnUse"
       gradientTransform="matrix(4.836161,-0.04336082,0.01680687,1.8745342,-2444.9467,580.71541)"
       cx="604.37274"
       cy="266.29364"
       fx="604.37274"
       fy="266.29364"
       r="282.95312" />
  </defs>
  <sodipodi:namedview
     id="base"
     pagecolor="#033812"
     bordercolor="#666666"
     borderopacity="1.0"
     inkscape:pageopacity="0"
     inkscape:pageshadow="2"
     inkscape:zoom="0.35"
     inkscape:cx="460.45791"
     inkscape:cy="517.82639"
     inkscape:document-units="px"
     inkscape:current-layer="layer1"
     showgrid="false"
     inkscape:window-width="1244"
     inkscape:window-height="822"
     inkscape:window-x="22"
     inkscape:window-y="38"
     inkscape:window-maximized="0"
     inkscape:snap-nodes="false"
     inkscape:snap-page="true"
     inkscape:snap-grids="false"
     showguides="true"
     borderlayer="true" />
  <metadata
     id="metadata7">
    <rdf:RDF>
      <cc:Work
         rdf:about="">
        <dc:format>image/svg+xml</dc:format>
        <dc:type
           rdf:resource="http://purl.org/dc/dcmitype/StillImage" />
        <dc:title></dc:title>
      </cc:Work>
    </rdf:RDF>
  </metadata>
  <g
     inkscape:label="Layer 1"
     inkscape:groupmode="layer"
     id="layer1"
     transform="translate(0,-28.36218)">
    <path
       style="color:#000000;fill:url(#radialGradient4750);fill-opacity:1;fill-rule:nonzero;stroke:none;stroke-width:5;marker:none;visibility:visible;display:inline;overflow:visible;filter:url(#filter4155);enable-background:accumulate"
       d="m 550,586.61218 c -7.88345,0 -15.01316,3.18557 -20.1875,8.34375 -2.13114,-0.92818 -4.49587,-1.46875 -6.96875,-1.46875 -8.22533,0 -15.06901,5.71303 -16.90625,13.375 -2.64237,0.19219 -5.24673,0.50824 -7.8125,0.96875 -3.26391,-1.77306 -6.99316,-2.78125 -10.96875,-2.78125 -10.90487,0 -20.0505,7.57314 -22.4375,17.75 -2.03809,1.57356 -4.01828,3.23267 -5.90625,5 -0.55699,-0.0305 -1.09165,-0.0312 -1.65625,-0.0312 -16.73676,0 -30.3125,13.57574 -30.3125,30.3125 0,1.4521 0.11503,2.88365 0.3125,4.28125 -2.45998,2.04664 -4.03125,5.11233 -4.03125,8.5625 0,2.03894 0.54488,3.94899 1.5,5.59375 -2.08579,1.75863 -4.00526,3.72466 -5.6875,5.875 -0.59165,-0.0431 -1.17861,-0.0625 -1.78125,-0.0625 -4.81632,0 -9.31576,1.39783 -13.09375,3.8125 -1.7286,-0.58608 -3.57337,-0.9375 -5.5,-0.9375 -2.39179,0 -4.65061,0.52145 -6.71875,1.40625 -4.34002,-5.74636 -11.24391,-9.46875 -19,-9.46875 -6.29709,0 -11.9962,2.47248 -16.25,6.46875 -2.89406,-4.52314 -7.98182,-7.53125 -13.75,-7.53125 -3.42962,0 -6.59399,1.06478 -9.21875,2.875 -3.15747,-4.07447 -8.07133,-6.71875 -13.625,-6.71875 -2.18598,0 -4.26274,0.44623 -6.1875,1.1875 -3.29985,-6.66937 -10.14877,-11.25 -18.09375,-11.25 -9.021,0 -16.68581,5.90127 -19.28125,14.0625 -85.54689,9.87725 -152.41062,90.01029 -153.5625,187.84375 -13.74955,1.22344 -27.093195,3.7702 -39.9375,7.46875 -8.42133,-5.05329 -18.276506,-7.96875 -28.8125,-7.96875 -30.973063,0 -56.03125,25.15194 -56.03125,56.125 -27.072294,25.39827 -47.03947,57.83689 -56.65625,94.34372 -2.120126,-0.2416 -4.2527,-0.3437 -6.4375,-0.3437 -31.16605,0 -56.4375,25.2716 -56.4375,56.4375 0,31.166 25.27145,56.4688 56.4375,56.4688 l 1138,6.625 c 26.2015,0 47.4688,-21.236 47.4688,-47.4375 0,-25.4965 -20.1188,-46.2112 -45.3438,-47.3125 -4.3891,-39.75414 -22.3492,-76.66968 -50.4062,-108.21882 0.2266,-2.46356 0.3437,-4.97728 0.3437,-7.5 0,-20.77882 -7.8689,-39.67572 -20.7813,-53.96875 0.5155,-1.76593 0.8438,-3.63003 0.8438,-5.5625 0,-10.95063 -8.95545,-19.8125 -19.90625,-19.8125 -4.5102,0 -8.57485,1.52606 -11.90625,4.0625 -8.94426,-3.4231 -18.66451,-5.28125 -28.8125,-5.28125 -13.60668,0 -26.41437,3.35921 -37.65625,9.3125 -8.74544,-3.35733 -17.73461,-6.37746 -26.9375,-9.125 -5.03117,-18.49376 -21.9125,-32.15625 -42,-32.15625 -2.99685,0 -5.89556,0.32415 -8.71875,0.90625 -3.2077,-9.81322 -7.31785,-19.27603 -12.28125,-28.28125 2.9378,-3.1124 4.75,-7.31979 4.75,-11.9375 0,-9.59833 -7.77667,-17.375 -17.375,-17.375 -2.36475,0 -4.6013,0.48834 -6.65625,1.34375 -1.35789,-1.61008 -2.73876,-3.18503 -4.15625,-4.75 1.60226,-2.18145 2.5625,-4.8671 2.5625,-7.78125 0,-7.27402 -5.91348,-13.15625 -13.1875,-13.15625 -3.11112,0 -5.96512,1.07122 -8.21875,2.875 -3.25207,-2.69825 -6.61131,-5.28975 -10.0625,-7.78125 0.41862,-1.52604 0.65625,-3.12231 0.65625,-4.78125 0,-9.97987 -8.08263,-18.09375 -18.0625,-18.09375 -0.48842,0 -0.99011,0.0245 -1.46875,0.0625 0.004,-0.1871 0.0312,-0.37462 0.0312,-0.5625 0,-12.73422 -9.64195,-23.68705 -23.5,-28.625 1.01002,-2.14854 1.59375,-4.56247 1.59375,-7.09375 0,-6.06325 -3.25161,-11.33571 -8.09375,-14.25 0.60463,-1.80462 0.9375,-3.74184 0.9375,-5.75 0,-9.97987 -8.11388,-18.0625 -18.09375,-18.0625 -3.65281,0 -7.03253,1.10511 -9.875,2.96875 -7.6764,-7.35494 -17.40599,-11.81293 -28,-12 -3.50078,-6.24725 -10.17316,-10.5 -17.84375,-10.5 -5.09468,0 -9.73175,1.8873 -13.3125,4.96875 -5.45549,-4.71559 -11.63353,-8.59598 -18.34375,-11.5 -3.51221,-6.51761 -10.42103,-10.9375 -18.34375,-10.9375 -5.24119,0 -9.99844,1.95711 -13.65625,5.15625 -2.65309,0.13449 -5.27479,0.45873 -7.84375,0.875 -5.23868,-5.8646 -12.86124,-9.56255 -21.3437,-9.56255 z"
       id="path3614"
       sodipodi:nodetypes="ccsccsccsscsccscscscscscscccsccssccsccscsscsccsccssccssccsscscscssccsccsccc" />
    <path
       sodipodi:type="inkscape:offset"
       inkscape:radius="0"
       inkscape:original="M 550 586.625 C 542.11655 586.625 534.98684 589.81057 529.8125 594.96875 C 527.68136 594.04057 525.31663 593.5 522.84375 593.5 C 514.61842 593.5 507.77474 599.21303 505.9375 606.875 C 503.29513 607.06719 500.69077 607.38324 498.125 607.84375 C 494.86109 606.07069 491.13184 605.0625 487.15625 605.0625 C 476.25138 605.0625 467.10575 612.63564 464.71875 622.8125 C 462.68066 624.38606 460.70047 626.04517 458.8125 627.8125 C 458.25551 627.782 457.72085 627.78125 457.15625 627.78125 C 440.41949 627.78125 426.84375 641.35699 426.84375 658.09375 C 426.84375 659.54585 426.95878 660.9774 427.15625 662.375 C 424.69627 664.42164 423.125 667.48733 423.125 670.9375 C 423.125 672.97644 423.66988 674.88649 424.625 676.53125 C 422.53921 678.28988 420.61974 680.25591 418.9375 682.40625 C 418.34585 682.36315 417.75889 682.34375 417.15625 682.34375 C 412.33993 682.34375 407.84049 683.74158 404.0625 686.15625 C 402.3339 685.57017 400.48913 685.21875 398.5625 685.21875 C 396.17071 685.21875 393.91189 685.7402 391.84375 686.625 C 387.50373 680.87864 380.59984 677.15625 372.84375 677.15625 C 366.54666 677.15625 360.84755 679.62873 356.59375 683.625 C 353.69969 679.10186 348.61193 676.09375 342.84375 676.09375 C 339.41413 676.09375 336.24976 677.15853 333.625 678.96875 C 330.46753 674.89428 325.55367 672.25 320 672.25 C 317.81402 672.25 315.73726 672.69623 313.8125 673.4375 C 310.51265 666.76813 303.66373 662.1875 295.71875 662.1875 C 286.69775 662.1875 279.03294 668.08877 276.4375 676.25 C 190.89061 686.12725 124.02688 766.26029 122.875 864.09375 C 109.12545 865.31719 95.781805 867.86395 82.9375 871.5625 C 74.51617 866.50921 64.660994 863.59375 54.125 863.59375 C 23.151937 863.59375 -1.90625 888.74569 -1.90625 919.71875 C -28.978544 945.11702 -48.94572 977.55567 -58.5625 1014.0625 C -60.682626 1013.8209 -62.8152 1013.7188 -65 1013.7188 C -96.16605 1013.7188 -121.4375 1038.9904 -121.4375 1070.1562 C -121.4375 1101.3222 -96.16605 1126.625 -65 1126.625 L 1073 1133.25 C 1099.2015 1133.25 1120.4688 1112.014 1120.4688 1085.8125 C 1120.4688 1060.316 1100.35 1039.6013 1075.125 1038.5 C 1070.7359 998.74586 1052.7757 961.83039 1024.7188 930.28125 C 1024.9453 927.81769 1025.0625 925.30397 1025.0625 922.78125 C 1025.0625 902.00243 1017.1936 883.10553 1004.2812 868.8125 C 1004.7967 867.04657 1005.125 865.18247 1005.125 863.25 C 1005.125 852.29937 996.16955 843.4375 985.21875 843.4375 C 980.70855 843.4375 976.6439 844.96356 973.3125 847.5 C 964.36824 844.0769 954.64799 842.21875 944.5 842.21875 C 930.89332 842.21875 918.08563 845.57796 906.84375 851.53125 C 898.09831 848.17392 889.10914 845.15379 879.90625 842.40625 C 874.87508 823.91249 857.99375 810.25 837.90625 810.25 C 834.9094 810.25 832.01069 810.57415 829.1875 811.15625 C 825.9798 801.34303 821.86965 791.88022 816.90625 782.875 C 819.84405 779.7626 821.65625 775.55521 821.65625 770.9375 C 821.65625 761.33917 813.87958 753.5625 804.28125 753.5625 C 801.9165 753.5625 799.67995 754.05084 797.625 754.90625 C 796.26711 753.29617 794.88624 751.72122 793.46875 750.15625 C 795.07101 747.9748 796.03125 745.28915 796.03125 742.375 C 796.03125 735.10098 790.11777 729.21875 782.84375 729.21875 C 779.73263 729.21875 776.87863 730.28997 774.625 732.09375 C 771.37293 729.3955 768.01369 726.804 764.5625 724.3125 C 764.98112 722.78646 765.21875 721.19019 765.21875 719.53125 C 765.21875 709.55138 757.13612 701.4375 747.15625 701.4375 C 746.66783 701.4375 746.16614 701.462 745.6875 701.5 C 745.6915 701.3129 745.71875 701.12538 745.71875 700.9375 C 745.71875 688.20328 736.0768 677.25045 722.21875 672.3125 C 723.22877 670.16396 723.8125 667.75003 723.8125 665.21875 C 723.8125 659.1555 720.56089 653.88304 715.71875 650.96875 C 716.32338 649.16413 716.65625 647.22691 716.65625 645.21875 C 716.65625 635.23888 708.54237 627.15625 698.5625 627.15625 C 694.90969 627.15625 691.52997 628.26136 688.6875 630.125 C 681.0111 622.77006 671.28151 618.31207 660.6875 618.125 C 657.18672 611.87775 650.51434 607.625 642.84375 607.625 C 637.74907 607.625 633.112 609.5123 629.53125 612.59375 C 624.07576 607.87816 617.89772 603.99777 611.1875 601.09375 C 607.67529 594.57614 600.76647 590.15625 592.84375 590.15625 C 587.60256 590.15625 582.84531 592.11336 579.1875 595.3125 C 576.53441 595.44699 573.91271 595.77123 571.34375 596.1875 C 566.10507 590.3229 558.48246 586.625 550 586.625 z "
       xlink:href="#path3614"
       style="color:#000000;fill:#01ae0f;fill-opacity:1;fill-rule:nonzero;stroke:none;stroke-width:5;marker:none;visibility:visible;display:inline;overflow:visible;enable-background:accumulate;filter:url(#filter3742)"
       id="path4748"
       inkscape:href="#path3614"
       d="m 550,586.625 c -7.88345,0 -15.01316,3.18557 -20.1875,8.34375 -2.13114,-0.92818 -4.49587,-1.46875 -6.96875,-1.46875 -8.22533,0 -15.06901,5.71303 -16.90625,13.375 -2.64237,0.19219 -5.24673,0.50824 -7.8125,0.96875 -3.26391,-1.77306 -6.99316,-2.78125 -10.96875,-2.78125 -10.90487,0 -20.0505,7.57314 -22.4375,17.75 -2.03809,1.57356 -4.01828,3.23267 -5.90625,5 -0.55699,-0.0305 -1.09165,-0.0312 -1.65625,-0.0312 -16.73676,0 -30.3125,13.57574 -30.3125,30.3125 0,1.4521 0.11503,2.88365 0.3125,4.28125 -2.45998,2.04664 -4.03125,5.11233 -4.03125,8.5625 0,2.03894 0.54488,3.94899 1.5,5.59375 -2.08579,1.75863 -4.00526,3.72466 -5.6875,5.875 -0.59165,-0.0431 -1.17861,-0.0625 -1.78125,-0.0625 -4.81632,0 -9.31576,1.39783 -13.09375,3.8125 -1.7286,-0.58608 -3.57337,-0.9375 -5.5,-0.9375 -2.39179,0 -4.65061,0.52145 -6.71875,1.40625 -4.34002,-5.74636 -11.24391,-9.46875 -19,-9.46875 -6.29709,0 -11.9962,2.47248 -16.25,6.46875 -2.89406,-4.52314 -7.98182,-7.53125 -13.75,-7.53125 -3.42962,0 -6.59399,1.06478 -9.21875,2.875 C 330.46753,674.89428 325.55367,672.25 320,672.25 c -2.18598,0 -4.26274,0.44623 -6.1875,1.1875 -3.29985,-6.66937 -10.14877,-11.25 -18.09375,-11.25 -9.021,0 -16.68581,5.90127 -19.28125,14.0625 -85.54689,9.87725 -152.41062,90.01029 -153.5625,187.84375 -13.74955,1.22344 -27.093195,3.7702 -39.9375,7.46875 -8.42133,-5.05329 -18.276506,-7.96875 -28.8125,-7.96875 -30.973063,0 -56.03125,25.15194 -56.03125,56.125 -27.072294,25.39827 -47.03947,57.83692 -56.65625,94.34375 -2.120126,-0.2416 -4.2527,-0.3437 -6.4375,-0.3437 -31.16605,0 -56.4375,25.2716 -56.4375,56.4374 0,31.166 25.27145,56.4688 56.4375,56.4688 l 1138,6.625 c 26.2015,0 47.4688,-21.236 47.4688,-47.4375 0,-25.4965 -20.1188,-46.2112 -45.3438,-47.3125 -4.3891,-39.75414 -22.3493,-76.66961 -50.4062,-108.21875 0.2265,-2.46356 0.3437,-4.97728 0.3437,-7.5 0,-20.77882 -7.8689,-39.67572 -20.7813,-53.96875 0.5155,-1.76593 0.8438,-3.63003 0.8438,-5.5625 0,-10.95063 -8.95545,-19.8125 -19.90625,-19.8125 -4.5102,0 -8.57485,1.52606 -11.90625,4.0625 -8.94426,-3.4231 -18.66451,-5.28125 -28.8125,-5.28125 -13.60668,0 -26.41437,3.35921 -37.65625,9.3125 -8.74544,-3.35733 -17.73461,-6.37746 -26.9375,-9.125 -5.03117,-18.49376 -21.9125,-32.15625 -42,-32.15625 -2.99685,0 -5.89556,0.32415 -8.71875,0.90625 -3.2077,-9.81322 -7.31785,-19.27603 -12.28125,-28.28125 2.9378,-3.1124 4.75,-7.31979 4.75,-11.9375 0,-9.59833 -7.77667,-17.375 -17.375,-17.375 -2.36475,0 -4.6013,0.48834 -6.65625,1.34375 -1.35789,-1.61008 -2.73876,-3.18503 -4.15625,-4.75 1.60226,-2.18145 2.5625,-4.8671 2.5625,-7.78125 0,-7.27402 -5.91348,-13.15625 -13.1875,-13.15625 -3.11112,0 -5.96512,1.07122 -8.21875,2.875 -3.25207,-2.69825 -6.61131,-5.28975 -10.0625,-7.78125 0.41862,-1.52604 0.65625,-3.12231 0.65625,-4.78125 0,-9.97987 -8.08263,-18.09375 -18.0625,-18.09375 -0.48842,0 -0.99011,0.0245 -1.46875,0.0625 0.004,-0.1871 0.0312,-0.37462 0.0312,-0.5625 0,-12.73422 -9.64195,-23.68705 -23.5,-28.625 1.01002,-2.14854 1.59375,-4.56247 1.59375,-7.09375 0,-6.06325 -3.25161,-11.33571 -8.09375,-14.25 0.60463,-1.80462 0.9375,-3.74184 0.9375,-5.75 0,-9.97987 -8.11388,-18.0625 -18.09375,-18.0625 -3.65281,0 -7.03253,1.10511 -9.875,2.96875 -7.6764,-7.35494 -17.40599,-11.81293 -28,-12 -3.50078,-6.24725 -10.17316,-10.5 -17.84375,-10.5 -5.09468,0 -9.73175,1.8873 -13.3125,4.96875 -5.45549,-4.71559 -11.63353,-8.59598 -18.34375,-11.5 -3.51221,-6.51761 -10.42103,-10.9375 -18.34375,-10.9375 -5.24119,0 -9.99844,1.95711 -13.65625,5.15625 -2.65309,0.13449 -5.27479,0.45873 -7.84375,0.875 C 566.10507,590.3229 558.48246,586.625 550,586.625 z" />
    <use
       x="0"
       y="0"
       xlink:href="#g3760"
       id="use3764"
       transform="translate(1024,0)"
       width="1024"
       height="256" />
    <g
       id="g3760">
      <path
         style="color:#000000;fill:url(#radialGradient4740);fill-opacity:1;fill-rule:nonzero;stroke:none;stroke-width:5;marker:none;visibility:visible;display:inline;overflow:visible;filter:url(#filter4155);enable-background:accumulate"
         d="m -2.03125,170.36218 c -7.6947974,0 -14.026428,5.69449 -15.09375,13.09375 -1.83196,-1.80053 -4.353419,-2.90625 -7.125,-2.90625 -3.376983,0 -6.341913,1.65093 -8.1875,4.1875 -1.755593,-1.73975 -4.176867,-2.8125 -6.84375,-2.8125 -3.624824,0 -6.799098,1.99508 -8.46875,4.9375 -0.501677,-0.0965 -1.0014,-0.15625 -1.53125,-0.15625 -4.241619,0 -7.735808,3.23517 -8.125,7.375 -0.150834,-0.009 -0.284424,-0.0312 -0.4375,-0.0312 -4.193477,0 -7.59375,3.40027 -7.59375,7.59375 0,0.84418 0.151981,1.64768 0.40625,2.40625 -1.332631,-0.47782 -2.752979,-0.75 -4.25,-0.75 -5.704795,0 -10.522985,3.77662 -12.09375,8.96875 -0.815444,-0.20471 -1.683561,-0.34375 -2.5625,-0.34375 -5.760757,0 -10.40625,4.67674 -10.40625,10.4375 0,1.45512 0.305516,2.8355 0.84375,4.09375 -0.708757,-0.17131 -1.457363,-0.25 -2.21875,-0.25 -5.17743,0 -9.375,4.19757 -9.375,9.375 0,0.89246 0.14205,1.74477 0.375,2.5625 -0.78671,-0.16797 -1.60067,-0.28125 -2.4375,-0.28125 -6.42182,0 -11.625,5.23443 -11.625,11.65625 0,0.73759 0.0874,1.45678 0.21875,2.15625 -3.02848,1.82094 -5.0625,5.11511 -5.0625,8.90625 0,2.61169 0.97411,4.98467 2.5625,6.8125 -0.79647,1.06821 -1.3296,2.31896 -1.5625,3.6875 -5.43768,0.0666 -9.83703,4.38322 -10.0625,9.78125 -2.48287,0.98417 -4.61874,2.66044 -6.09375,4.84375 -0.10317,0.15119 -0.19346,0.33839 -0.28125,0.5 -1.23057,2.00321 -1.96875,4.35163 -1.96875,6.875 0,4.89583 2.69171,9.13622 6.65625,11.40625 -0.99103,2.9209 -1.93987,5.88212 -2.84375,8.875 -4.61617,0.40397 -8.25,4.27897 -8.25,9 0,1.45878 0.35478,2.84268 0.96875,4.0625 -4.46496,1.44563 -7.6875,5.64728 -7.6875,10.59375 0,3.17571 1.33434,6.00451 3.46875,8.03125 -2.38356,1.71256 -3.9375,4.49724 -3.9375,7.65625 0,3.72846 2.17328,6.96759 5.3125,8.5 -0.63199,4.89695 -1.15577,9.8378 -1.5625,14.84375 -3.29055,0.65824 -5.78125,3.54705 -5.78125,7.03125 0,3.17811 2.0778,5.86373 4.9375,6.8125 -0.12056,3.16262 -0.19023,6.33434 -0.21875,9.53125 -3.31396,0.92549 -5.75,3.98451 -5.75,7.59375 0,2.3941 1.06251,4.52616 2.75,5.96875 -1.62982,1.48921 -2.65625,3.61829 -2.65625,6 0,2.6425 1.26839,4.98083 3.21875,6.46875 -2.5797,1.12104 -4.375,3.69538 -4.375,6.6875 0,0.55734 0.069,1.07229 0.1875,1.59375 -3.48375,1.25397 -6,4.58429 -6,8.5 0,1.15183 0.23206,2.23698 0.625,3.25 -2.69513,0.50736 -5.3237,1.19986 -7.875,2.0625 -2.53888,-1.76908 -5.63969,-2.8125 -8.96875,-2.8125 -8.66081,0 -15.65625,7.02669 -15.65625,15.6875 0,1.00702 0.0999,1.98328 0.28125,2.9375 -2.34731,2.54781 -4.47318,5.3161 -6.34375,8.25 -1.4117,-0.53292 -2.93303,-0.8125 -4.53125,-0.8125 -7.1008,0 -12.84375,5.74295 -12.84375,12.84375 0,5.63085 3.61674,10.41628 8.65625,12.15625 -0.0936,0.7562 -0.15419,1.51641 -0.21875,2.28125 -2.15023,2.30989 -3.46875,5.40777 -3.46875,8.8125 0,4.13041 1.9237,7.78782 4.9375,10.15625 0.0478,0.19559 0.0752,0.39894 0.125,0.59375 -3.94646,1.82712 -6.6875,5.80271 -6.6875,10.4375 0,1.71447 0.39067,3.3504 1.0625,4.8125 -0.4071,0.12444 -0.8136,0.24616 -1.21875,0.375 -2.29411,-1.95992 -5.2774,-3.15625 -8.53125,-3.15625 -7.07328,0 -12.81291,5.58937 -13.09375,12.59375 -1.3114,0.74319 -2.59649,1.5197 -3.875,2.3125 -2.0584,-1.44871 -4.57288,-2.3125 -7.28125,-2.3125 -6.99036,0 -12.65625,5.66589 -12.65625,12.65625 0,1.57147 0.32032,3.0804 0.84375,4.46875 -0.24818,0.23861 -0.50398,0.47793 -0.75,0.71875 -1.68217,-0.86039 -3.57456,-1.34375 -5.59375,-1.34375 -6.80994,0 -12.34375,5.50256 -12.34375,12.3125 0,2.85098 0.96907,5.47396 2.59375,7.5625 -2.88126,4.33439 -5.47098,8.87137 -7.75,13.59375 -1.17081,-0.38996 -2.41691,-0.59375 -3.71875,-0.59375 -6.50608,0 -11.78125,5.27517 -11.78125,11.78125 0,2.02317 0.50777,3.89912 1.40625,5.5625 -2.41452,2.07131 -3.96875,5.13179 -3.96875,8.5625 0,3.97468 2.08383,7.45598 5.1875,9.46875 -5.0407,0.97054 -8.84375,5.42604 -8.84375,10.75 0,5.93762 4.72444,10.75261 10.625,10.90625 0.0182,0.31413 0.0417,0.62406 0.0625,0.9375 -3.50726,2.13424 -5.875,5.96925 -5.875,10.375 0,2.72915 0.91977,5.2518 2.4375,7.28125 -2.96467,1.38354 -5.03125,4.38751 -5.03125,7.875 0,1.44975 0.37215,2.79829 1,4 -0.78643,-0.097 -1.59358,-0.1875 -2.40625,-0.1875 -10.71675,0 -19.40625,8.6895 -19.40625,19.40625 0,2.77914 0.60388,5.4224 1.65625,7.8125 -3.73817,2.1199 -7.37159,4.3772 -10.9375,6.75 -3.51151,-3.51151 -8.36037,-5.6875 -13.71875,-5.6875 -10.71675,0 -19.40625,8.6895 -19.40625,19.40625 0,4.07593 1.25919,7.87743 3.40625,11 -1.6431,1.69385 -3.2675,3.43048 -4.84375,5.1875 -2.03713,-0.61761 -4.19867,-0.96875 -6.4375,-0.96875 -12.23552,0 -22.15625,9.92073 -22.15625,22.15625 0,1.03801 0.0806,2.06248 0.21875,3.0625 -7.70943,2.44252 -13.28125,9.63862 -13.28125,18.15625 0,5.93674 2.71342,11.25448 6.96875,14.75 -1.03508,2.76157 -1.97321,5.55112 -2.875,8.375 -5.21398,1.63971 -9,6.49467 -9,12.25 0,2.22845 0.53374,4.329 1.53125,6.15625 -7.3622,3.2029 -12.53125,10.55275 -12.53125,19.09375 0,4.33948 1.352,8.3535 3.625,11.6875 -8.23383,3.2317 -14.0625,11.24484 -14.0625,20.625 0,0.59508 0.0477,1.19801 0.0937,1.78125 -1.33605,-0.36248 -2.7367,-0.5625 -4.1875,-0.5625 -8.82104,0 -15.96875,7.14771 -15.96875,15.96875 0,3.29253 0.97997,6.33287 2.6875,8.875 -1.53748,1.32949 -3.02991,2.66197 -4.53125,4.03125 -2.00949,-0.74445 -4.1691,-1.1875 -6.4375,-1.1875 -10.25672,0 -18.5625,8.30578 -18.5625,18.5625 0,2.63867 0.53915,5.16439 1.53125,7.4375 -0.14974,0.18399 -0.28832,0.37803 -0.4375,0.5625 -0.5668,-0.0798 -1.12993,-0.125 -1.71875,-0.125 -6.80994,0 -12.34375,5.53381 -12.34375,12.34375 0,1.89815 0.45258,3.67508 1.21875,5.28125 -3.89885,5.87789 -7.55213,11.91475 -10.90625,18.15625 -1.34145,-0.40736 -2.77545,-0.625 -4.25,-0.625 -8.04603,0 -14.5625,6.51647 -14.5625,14.5625 0,5.19009 2.72631,9.73194 6.8125,12.3125 -0.87647,2.28369 -1.72645,4.58807 -2.53125,6.90627 -0.92842,-0.1364 -1.87746,-0.25 -2.84375,-0.25 -10.71675,0 -19.40625,8.6895 -19.40625,19.4062 0,2.4805 0.49551,4.8508 1.34375,7.0313 -11.12988,3.0486 -19.3125,13.215 -19.3125,25.3124 0,14.5052 11.74481,26.25 26.25,26.25 0.45329,0 0.92735,-0.01 1.375,-0.031 L 411.25,1101.831 c 17.2848,-5.8097 30.15662,-21.2107 32.3125,-39.875 0.29999,0.031 0.59791,0.062 0.90625,0.062 4.76663,0 8.625,-3.8896 8.625,-8.6562 0,-4.7666 -3.85837,-8.625 -8.625,-8.625 -0.67637,0 -1.33719,0.1029 -1.96875,0.25 -0.59051,-2.4157 -1.34,-4.7749 -2.28125,-7.0312 2.15096,-1.0509 3.65625,-3.2261 3.65625,-5.7813 0,-3.4232 -2.66579,-6.2097 -6.03125,-6.4375 0.10366,-0.5366 0.15625,-1.0894 0.15625,-1.6563 0,-0.8786 -0.13247,-1.7318 -0.375,-2.5312 0.31208,-0.7788 0.5,-1.641 0.5,-2.5313 0,-3.7424 -3.0388,-6.7812 -6.78125,-6.7812 -0.0211,0 -0.0415,-2e-4 -0.0625,0 1.16693,-1.0763 1.90625,-2.5999 1.90625,-4.3125 0,-2.4144 -1.4523,-4.4968 -3.53125,-5.4063 -0.26157,-1.8354 -1.06697,-3.50105 -2.21875,-4.84372 0.0343,-0.28661 0.0625,-0.57916 0.0625,-0.875 0,-3.55197 -2.54202,-6.48096 -5.90625,-7.125 0.14696,-0.63346 0.25,-1.29059 0.25,-1.96875 0,-4.43473 -3.33368,-8.06364 -7.625,-8.59375 -0.39727,-3.74735 -2.24453,-7.06336 -4.96875,-9.375 0.31953,-1.01712 0.5,-2.12742 0.5,-3.25 0,-4.76886 -3.10478,-8.78673 -7.40625,-10.1875 2.40944,-5.89367 3.75,-12.33307 3.75,-19.09375 0,-10.75319 -3.36672,-20.71494 -9.09375,-28.90625 3.61648,-2.54622 5.96875,-6.74097 5.96875,-11.5 0,-5.53839 -3.19177,-10.32952 -7.84375,-12.625 0.67386,-1.36991 1.0625,-2.93269 1.0625,-4.5625 0,-2.11816 -0.65386,-4.08163 -1.75,-5.71875 0.23052,-0.74114 0.34375,-1.52676 0.34375,-2.34375 0,-1.77341 -0.60604,-3.40118 -1.59375,-4.71875 3.53991,-2.13691 5.90625,-6.00107 5.90625,-10.4375 0,-3.8163 -1.75706,-7.1993 -4.5,-9.4375 0.69294,-1.06292 1.09375,-2.32403 1.09375,-3.6875 0,-0.71213 -0.10882,-1.41771 -0.3125,-2.0625 0.29633,-0.94277 0.4375,-1.95941 0.4375,-3 0,-1.87919 -0.53206,-3.62576 -1.4375,-5.125 1.58156,-2.27132 2.5,-5.02248 2.5,-8 0,-5.17405 -2.80126,-9.69162 -6.96875,-12.125 0.50327,-1.25274 0.78125,-2.59853 0.78125,-4.03125 0,-3.72416 -1.86526,-7.00755 -4.71875,-8.96875 0.86639,-1.53131 1.375,-3.30252 1.375,-5.1875 0,-5.82456 -4.73794,-10.53125 -10.5625,-10.53125 -0.33194,0 -0.64464,0.001 -0.96875,0.0312 0.015,-0.20172 0.0312,-0.38821 0.0312,-0.59375 0,-4.49787 -3.65838,-8.15625 -8.15625,-8.15625 -0.28112,0 -0.53872,0.003 -0.8125,0.0312 -0.37523,-0.8272 -0.74072,-1.64808 -1.125,-2.46875 1.7757,-1.64985 2.90625,-3.97871 2.90625,-6.59375 0,-4.98994 -4.04131,-9.03125 -9.03125,-9.03125 -0.62374,0 -1.25559,0.0671 -1.84375,0.1875 -0.17665,-0.31129 -0.35324,-0.62736 -0.53125,-0.9375 2.00754,-1.82897 3.28125,-4.44526 3.28125,-7.375 0,-3.69323 -2.02192,-6.9244 -5,-8.65625 -0.19066,-5.12952 -2.96877,-9.72579 -7.3125,-12.9375 0.39175,-1.15375 0.59375,-2.40132 0.59375,-3.6875 0,-5.6211 -4.05992,-10.26324 -9.40625,-11.21875 -1.82949,-6.65102 -7.92395,-11.5625 -15.15625,-11.5625 -3.58936,0 -6.8855,1.22464 -9.53125,3.25 -5.06898,-4.41352 -10.3288,-8.55647 -15.78125,-12.34375 0.0338,-0.47758 0.0625,-0.95132 0.0625,-1.4375 0,-4.24399 -1.32601,-8.18736 -3.5625,-11.4375 1.47376,-1.86224 2.375,-4.19074 2.375,-6.75 0,-5.75195 -4.45164,-10.47739 -10.09375,-10.90625 -1.89692,-8.86863 -6.58361,-16.69083 -13.09375,-22.53125 0.37878,-1.24952 0.59375,-2.56428 0.59375,-3.9375 0,-6.33831 -4.34901,-11.65321 -10.21875,-13.15625 0.49362,-2.61355 0.75,-5.30381 0.75,-8.0625 0,-11.89859 -4.76395,-22.67491 -12.5,-30.53125 0.5684,-1.15554 0.90625,-2.43774 0.90625,-3.8125 0,-4.77777 -3.85536,-8.65302 -8.625,-8.6875 -0.25497,-5.29425 -3.88259,-9.70266 -8.78125,-11.125 0.54075,-1.01795 0.84375,-2.20448 0.84375,-3.4375 0,-4.02302 -3.25823,-7.28125 -7.28125,-7.28125 -0.0104,0 -0.0209,-4e-5 -0.0312,0 -0.27643,-4.97013 -0.87378,-9.85165 -1.78125,-14.625 1.15799,-3.45533 1.8125,-7.30985 1.8125,-11.40625 0,-6.9813 -1.89285,-13.32714 -4.96875,-18.03125 0.60424,-2.62908 0.9375,-5.4042 0.9375,-8.25 0,-14.66123 -8.54452,-27.04188 -20.25,-31 0.0225,-0.43657 0.0312,-0.86881 0.0312,-1.3125 0,-11.15784 -7.22998,-20.21875 -16.15625,-20.21875 -0.39642,-4.16245 -1.39738,-8.14826 -2.9062,-11.8745 2.7964,-2.15389 4.59375,-5.50982 4.59375,-9.3125 0,-3.78703 -1.78577,-7.15742 -4.5625,-9.3125 0.63545,-3.20406 0.96875,-6.5171 0.96875,-9.90625 0,-12.20924 -4.3365,-23.38788 -11.53125,-32.125 0.70774,-1.59921 1.125,-3.38865 1.125,-5.25 0,-5.95988 -4.04739,-10.93711 -9.53125,-12.4375 -0.002,-6.6e-4 0.002,-0.0306 0,-0.0312 -0.2151,-3.93584 -1.34173,-7.61294 -3.1875,-10.84375 0.50743,-1.87341 0.78125,-3.873 0.78125,-5.96875 0,-4.77839 -1.43685,-9.09861 -3.78125,-12.34375 -0.001,-0.0102 0.001,-0.0211 0,-0.0312 -0.84987,-8.4227 -6.31684,-15.48661 -13.84375,-18.59375 -0.77016,-5.39049 -5.2014,-9.57681 -10.6875,-10.03125 -0.1059,-6.82778 -1.97887,-13.00713 -5.03125,-17.59375 1.28798,-2.39912 2,-5.14328 2,-8.0625 0,-8.2602 -5.81946,-15.15403 -13.59375,-16.78125 -0.31527,-6.70986 -5.83714,-12.0625 -12.625,-12.0625 -1.74759,0 -3.42322,0.35951 -4.9375,1 -0.95682,-1.32536 -1.92603,-2.61731 -2.90625,-3.90625 1.14579,-1.95295 1.8125,-4.22839 1.8125,-6.65625 0,-2.84817 -0.90069,-5.47045 -2.4375,-7.625 0.38333,-1.43715 0.59375,-2.94551 0.59375,-4.5 0,-9.59833 -7.776665,-17.375 -17.375,-17.375 -1.805434,0 -3.548249,0.29853 -5.1875,0.8125 -1.703564,-3.81753 -5.518289,-6.46875 -9.96875,-6.46875 -2.293892,0 -4.42975,0.69845 -6.1875,1.90625 0.04398,-0.36139 0.0625,-0.72249 0.0625,-1.09375 0,-4.98994 -4.041314,-9.03125 -9.03125,-9.03125 -0.190431,0 -0.375016,0.0197 -0.5625,0.0312 3.09e-4,-0.0316 0,-0.062 0,-0.0937 0,-5.26314 -4.268109,-9.53125 -9.53125,-9.53125 -0.692423,0 -1.380769,0.0785 -2.03125,0.21875 -2.655131,-3.8559 -7.09409,-6.40625 -12.125,-6.40625 -2.896699,0 -5.605501,0.83221 -7.875,2.28125 -0.70827,-0.18649 -1.451916,-0.28125 -2.21875,-0.28125 -2.77448,0 -5.252012,1.29299 -6.84375,3.3125 -2.6046237,-4.71039 -7.6115634,-7.90635 -13.375,-7.90635 z"
         id="path3604"
         sodipodi:nodetypes="ccscscscsscscsscsscsscscccscsccscscsccsccscscscsccssccssccsccsccsccssccssccsscscsccscscssccssccsscsccscscscssccssccssccssccsscsscccsssccscscsscsccscsccscscscscscscscscscscsscssccssccsccscsccscsccscscsccssccscscsccscscssscscscccscsccscsscscssssscscscc" />
      <path
         sodipodi:type="inkscape:offset"
         inkscape:radius="0"
         inkscape:original="M -2.03125 170.375 C -9.7260474 170.375 -16.057678 176.06949 -17.125 183.46875 C -18.95696 181.66822 -21.478419 180.5625 -24.25 180.5625 C -27.626983 180.5625 -30.591913 182.21343 -32.4375 184.75 C -34.193093 183.01025 -36.614367 181.9375 -39.28125 181.9375 C -42.906074 181.9375 -46.080348 183.93258 -47.75 186.875 C -48.251677 186.7785 -48.7514 186.71875 -49.28125 186.71875 C -53.522869 186.71875 -57.017058 189.95392 -57.40625 194.09375 C -57.557084 194.08475 -57.690674 194.0625 -57.84375 194.0625 C -62.037227 194.0625 -65.4375 197.46277 -65.4375 201.65625 C -65.4375 202.50043 -65.285519 203.30393 -65.03125 204.0625 C -66.363881 203.58468 -67.784229 203.3125 -69.28125 203.3125 C -74.986045 203.3125 -79.804235 207.08912 -81.375 212.28125 C -82.190444 212.07654 -83.058561 211.9375 -83.9375 211.9375 C -89.698257 211.9375 -94.34375 216.61424 -94.34375 222.375 C -94.34375 223.83012 -94.038234 225.2105 -93.5 226.46875 C -94.208757 226.29744 -94.957363 226.21875 -95.71875 226.21875 C -100.89618 226.21875 -105.09375 230.41632 -105.09375 235.59375 C -105.09375 236.48621 -104.9517 237.33852 -104.71875 238.15625 C -105.50546 237.98828 -106.31942 237.875 -107.15625 237.875 C -113.57807 237.875 -118.78125 243.10943 -118.78125 249.53125 C -118.78125 250.26884 -118.69385 250.98803 -118.5625 251.6875 C -121.59098 253.50844 -123.625 256.80261 -123.625 260.59375 C -123.625 263.20544 -122.65089 265.57842 -121.0625 267.40625 C -121.85897 268.47446 -122.3921 269.72521 -122.625 271.09375 C -128.06268 271.16035 -132.46203 275.47697 -132.6875 280.875 C -135.17037 281.85917 -137.30624 283.53544 -138.78125 285.71875 C -138.88442 285.86994 -138.97471 286.05714 -139.0625 286.21875 C -140.29307 288.22196 -141.03125 290.57038 -141.03125 293.09375 C -141.03125 297.98958 -138.33954 302.22997 -134.375 304.5 C -135.36603 307.4209 -136.31487 310.38212 -137.21875 313.375 C -141.83492 313.77897 -145.46875 317.65397 -145.46875 322.375 C -145.46875 323.83378 -145.11397 325.21768 -144.5 326.4375 C -148.96496 327.88313 -152.1875 332.08478 -152.1875 337.03125 C -152.1875 340.20696 -150.85316 343.03576 -148.71875 345.0625 C -151.10231 346.77506 -152.65625 349.55974 -152.65625 352.71875 C -152.65625 356.44721 -150.48297 359.68634 -147.34375 361.21875 C -147.97574 366.1157 -148.49952 371.05655 -148.90625 376.0625 C -152.1968 376.72074 -154.6875 379.60955 -154.6875 383.09375 C -154.6875 386.27186 -152.6097 388.95748 -149.75 389.90625 C -149.87056 393.06887 -149.94023 396.24059 -149.96875 399.4375 C -153.28271 400.36299 -155.71875 403.42201 -155.71875 407.03125 C -155.71875 409.42535 -154.65624 411.55741 -152.96875 413 C -154.59857 414.48921 -155.625 416.61829 -155.625 419 C -155.625 421.6425 -154.35661 423.98083 -152.40625 425.46875 C -154.98595 426.58979 -156.78125 429.16413 -156.78125 432.15625 C -156.78125 432.71359 -156.71225 433.22854 -156.59375 433.75 C -160.0775 435.00397 -162.59375 438.33429 -162.59375 442.25 C -162.59375 443.40183 -162.36169 444.48698 -161.96875 445.5 C -164.66388 446.00736 -167.29245 446.69986 -169.84375 447.5625 C -172.38263 445.79342 -175.48344 444.75 -178.8125 444.75 C -187.47331 444.75 -194.46875 451.77669 -194.46875 460.4375 C -194.46875 461.44452 -194.36885 462.42078 -194.1875 463.375 C -196.53481 465.92281 -198.66068 468.6911 -200.53125 471.625 C -201.94295 471.09208 -203.46428 470.8125 -205.0625 470.8125 C -212.1633 470.8125 -217.90625 476.55545 -217.90625 483.65625 C -217.90625 489.2871 -214.28951 494.07253 -209.25 495.8125 C -209.3436 496.5687 -209.40419 497.32891 -209.46875 498.09375 C -211.61898 500.40364 -212.9375 503.50152 -212.9375 506.90625 C -212.9375 511.03666 -211.0138 514.69407 -208 517.0625 C -207.9522 517.25809 -207.9248 517.46144 -207.875 517.65625 C -211.82146 519.48337 -214.5625 523.45896 -214.5625 528.09375 C -214.5625 529.80822 -214.17183 531.44415 -213.5 532.90625 C -213.9071 533.03069 -214.3136 533.15241 -214.71875 533.28125 C -217.01286 531.32133 -219.99615 530.125 -223.25 530.125 C -230.32328 530.125 -236.06291 535.71437 -236.34375 542.71875 C -237.65515 543.46194 -238.94024 544.23845 -240.21875 545.03125 C -242.27715 543.58254 -244.79163 542.71875 -247.5 542.71875 C -254.49036 542.71875 -260.15625 548.38464 -260.15625 555.375 C -260.15625 556.94647 -259.83593 558.4554 -259.3125 559.84375 C -259.56068 560.08236 -259.81648 560.32168 -260.0625 560.5625 C -261.74467 559.70211 -263.63706 559.21875 -265.65625 559.21875 C -272.46619 559.21875 -278 564.72131 -278 571.53125 C -278 574.38223 -277.03093 577.00521 -275.40625 579.09375 C -278.28751 583.42814 -280.87723 587.96512 -283.15625 592.6875 C -284.32706 592.29754 -285.57316 592.09375 -286.875 592.09375 C -293.38108 592.09375 -298.65625 597.36892 -298.65625 603.875 C -298.65625 605.89817 -298.14848 607.77412 -297.25 609.4375 C -299.66452 611.50881 -301.21875 614.56929 -301.21875 618 C -301.21875 621.97468 -299.13492 625.45598 -296.03125 627.46875 C -301.07195 628.43929 -304.875 632.89479 -304.875 638.21875 C -304.875 644.15637 -300.15056 648.97136 -294.25 649.125 C -294.2318 649.43913 -294.2083 649.74906 -294.1875 650.0625 C -297.69476 652.19674 -300.0625 656.03175 -300.0625 660.4375 C -300.0625 663.16665 -299.14273 665.6893 -297.625 667.71875 C -300.58967 669.10229 -302.65625 672.10626 -302.65625 675.59375 C -302.65625 677.0435 -302.2841 678.39204 -301.65625 679.59375 C -302.44268 679.49675 -303.24983 679.40625 -304.0625 679.40625 C -314.77925 679.40625 -323.46875 688.09575 -323.46875 698.8125 C -323.46875 701.59164 -322.86487 704.2349 -321.8125 706.625 C -325.55067 708.7449 -329.18409 711.0022 -332.75 713.375 C -336.26151 709.86349 -341.11037 707.6875 -346.46875 707.6875 C -357.1855 707.6875 -365.875 716.377 -365.875 727.09375 C -365.875 731.16968 -364.61581 734.97118 -362.46875 738.09375 C -364.11185 739.7876 -365.73625 741.52423 -367.3125 743.28125 C -369.34963 742.66364 -371.51117 742.3125 -373.75 742.3125 C -385.98552 742.3125 -395.90625 752.23323 -395.90625 764.46875 C -395.90625 765.50676 -395.82565 766.53123 -395.6875 767.53125 C -403.39693 769.97377 -408.96875 777.16987 -408.96875 785.6875 C -408.96875 791.62424 -406.25533 796.94198 -402 800.4375 C -403.03508 803.19907 -403.97321 805.98862 -404.875 808.8125 C -410.08898 810.45221 -413.875 815.30717 -413.875 821.0625 C -413.875 823.29095 -413.34126 825.3915 -412.34375 827.21875 C -419.70595 830.42165 -424.875 837.7715 -424.875 846.3125 C -424.875 850.65198 -423.523 854.666 -421.25 858 C -429.48383 861.2317 -435.3125 869.24484 -435.3125 878.625 C -435.3125 879.22008 -435.26475 879.82301 -435.21875 880.40625 C -436.5548 880.04377 -437.95545 879.84375 -439.40625 879.84375 C -448.22729 879.84375 -455.375 886.99146 -455.375 895.8125 C -455.375 899.10503 -454.39503 902.14537 -452.6875 904.6875 C -454.22498 906.01699 -455.71741 907.34947 -457.21875 908.71875 C -459.22824 907.9743 -461.38785 907.53125 -463.65625 907.53125 C -473.91297 907.53125 -482.21875 915.83703 -482.21875 926.09375 C -482.21875 928.73242 -481.6796 931.25814 -480.6875 933.53125 C -480.83724 933.71524 -480.97582 933.90928 -481.125 934.09375 C -481.6918 934.01395 -482.25493 933.96875 -482.84375 933.96875 C -489.65369 933.96875 -495.1875 939.50256 -495.1875 946.3125 C -495.1875 948.21065 -494.73492 949.98758 -493.96875 951.59375 C -497.8676 957.47164 -501.52088 963.5085 -504.875 969.75 C -506.21645 969.34264 -507.65045 969.125 -509.125 969.125 C -517.17103 969.125 -523.6875 975.64147 -523.6875 983.6875 C -523.6875 988.87759 -520.96119 993.41944 -516.875 996 C -517.75147 998.28369 -518.60145 1000.5881 -519.40625 1002.9062 C -520.33467 1002.7699 -521.28371 1002.6562 -522.25 1002.6562 C -532.96675 1002.6562 -541.65625 1011.3458 -541.65625 1022.0625 C -541.65625 1024.543 -541.16074 1026.9133 -540.3125 1029.0938 C -551.44238 1032.1424 -559.625 1042.3088 -559.625 1054.4062 C -559.625 1068.9115 -547.88019 1080.6562 -533.375 1080.6562 C -532.92171 1080.6562 -532.44765 1080.646 -532 1080.625 L 411.25 1101.8438 C 428.5348 1096.034 441.40662 1080.633 443.5625 1061.9688 C 443.86249 1061.9997 444.16041 1062.0312 444.46875 1062.0312 C 449.23538 1062.0312 453.09375 1058.1416 453.09375 1053.375 C 453.09375 1048.6084 449.23538 1044.75 444.46875 1044.75 C 443.79238 1044.75 443.13156 1044.8529 442.5 1045 C 441.90949 1042.5843 441.16 1040.2251 440.21875 1037.9688 C 442.36971 1036.9179 443.875 1034.7427 443.875 1032.1875 C 443.875 1028.7643 441.20921 1025.9778 437.84375 1025.75 C 437.94741 1025.2134 438 1024.6607 438 1024.0938 C 438 1023.2151 437.86753 1022.3619 437.625 1021.5625 C 437.93708 1020.7837 438.125 1019.9216 438.125 1019.0312 C 438.125 1015.2889 435.0862 1012.25 431.34375 1012.25 C 431.32265 1012.25 431.30225 1012.2498 431.28125 1012.25 C 432.44818 1011.1737 433.1875 1009.6501 433.1875 1007.9375 C 433.1875 1005.5231 431.7352 1003.4407 429.65625 1002.5312 C 429.39468 1000.6958 428.58928 999.03017 427.4375 997.6875 C 427.4718 997.40089 427.5 997.10834 427.5 996.8125 C 427.5 993.26053 424.95798 990.33154 421.59375 989.6875 C 421.74071 989.05404 421.84375 988.39691 421.84375 987.71875 C 421.84375 983.28402 418.51007 979.65511 414.21875 979.125 C 413.82148 975.37765 411.97422 972.06164 409.25 969.75 C 409.56953 968.73288 409.75 967.62258 409.75 966.5 C 409.75 961.73114 406.64522 957.71327 402.34375 956.3125 C 404.75319 950.41883 406.09375 943.97943 406.09375 937.21875 C 406.09375 926.46556 402.72703 916.50381 397 908.3125 C 400.61648 905.76628 402.96875 901.57153 402.96875 896.8125 C 402.96875 891.27411 399.77698 886.48298 395.125 884.1875 C 395.79886 882.81759 396.1875 881.25481 396.1875 879.625 C 396.1875 877.50684 395.53364 875.54337 394.4375 873.90625 C 394.66802 873.16511 394.78125 872.37949 394.78125 871.5625 C 394.78125 869.78909 394.17521 868.16132 393.1875 866.84375 C 396.72741 864.70684 399.09375 860.84268 399.09375 856.40625 C 399.09375 852.58995 397.33669 849.20695 394.59375 846.96875 C 395.28669 845.90583 395.6875 844.64472 395.6875 843.28125 C 395.6875 842.56912 395.57868 841.86354 395.375 841.21875 C 395.67133 840.27598 395.8125 839.25934 395.8125 838.21875 C 395.8125 836.33956 395.28044 834.59299 394.375 833.09375 C 395.95656 830.82243 396.875 828.07127 396.875 825.09375 C 396.875 819.9197 394.07374 815.40213 389.90625 812.96875 C 390.40952 811.71601 390.6875 810.37022 390.6875 808.9375 C 390.6875 805.21334 388.82224 801.92995 385.96875 799.96875 C 386.83514 798.43744 387.34375 796.66623 387.34375 794.78125 C 387.34375 788.95669 382.60581 784.25 376.78125 784.25 C 376.44931 784.25 376.13661 784.25105 375.8125 784.28125 C 375.8275 784.07953 375.84375 783.89304 375.84375 783.6875 C 375.84375 779.18963 372.18537 775.53125 367.6875 775.53125 C 367.40638 775.53125 367.14878 775.5343 366.875 775.5625 C 366.49977 774.7353 366.13428 773.91442 365.75 773.09375 C 367.5257 771.4439 368.65625 769.11504 368.65625 766.5 C 368.65625 761.51006 364.61494 757.46875 359.625 757.46875 C 359.00126 757.46875 358.36941 757.53585 357.78125 757.65625 C 357.6046 757.34496 357.42801 757.02889 357.25 756.71875 C 359.25754 754.88978 360.53125 752.27349 360.53125 749.34375 C 360.53125 745.65052 358.50933 742.41935 355.53125 740.6875 C 355.34059 735.55798 352.56248 730.96171 348.21875 727.75 C 348.6105 726.59625 348.8125 725.34868 348.8125 724.0625 C 348.8125 718.4414 344.75258 713.79926 339.40625 712.84375 C 337.57676 706.19273 331.4823 701.28125 324.25 701.28125 C 320.66064 701.28125 317.3645 702.50589 314.71875 704.53125 C 309.64977 700.11773 304.38995 695.97478 298.9375 692.1875 C 298.9713 691.70992 299 691.23618 299 690.75 C 299 686.50601 297.67399 682.56264 295.4375 679.3125 C 296.91126 677.45026 297.8125 675.12176 297.8125 672.5625 C 297.8125 666.81055 293.36086 662.08511 287.71875 661.65625 C 285.82183 652.78762 281.13514 644.96542 274.625 639.125 C 275.00378 637.87548 275.21875 636.56072 275.21875 635.1875 C 275.21875 628.84919 270.86974 623.53429 265 622.03125 C 265.49362 619.4177 265.75 616.72744 265.75 613.96875 C 265.75 602.07016 260.98605 591.29384 253.25 583.4375 C 253.8184 582.28196 254.15625 580.99976 254.15625 579.625 C 254.15625 574.84723 250.30089 570.97198 245.53125 570.9375 C 245.27628 565.64325 241.64866 561.23484 236.75 559.8125 C 237.29075 558.79455 237.59375 557.60802 237.59375 556.375 C 237.59375 552.35198 234.33552 549.09375 230.3125 549.09375 C 230.3021 549.09375 230.29155 549.09371 230.28125 549.09375 C 230.00482 544.12362 229.40747 539.2421 228.5 534.46875 C 229.65799 531.01342 230.3125 527.1589 230.3125 523.0625 C 230.3125 516.0812 228.41965 509.73536 225.34375 505.03125 C 225.94799 502.40217 226.28125 499.62705 226.28125 496.78125 C 226.28125 482.12002 217.73673 469.73937 206.03125 465.78125 C 206.05375 465.34468 206.0625 464.91244 206.0625 464.46875 C 206.0625 453.31091 198.83252 444.25 189.90625 444.25 C 189.50983 440.08755 188.50882 436.10124 187 432.375 C 189.7964 430.22111 191.59375 426.86518 191.59375 423.0625 C 191.59375 419.27547 189.80798 415.90508 187.03125 413.75 C 187.6667 410.54594 188 407.2329 188 403.84375 C 188 391.63451 183.6635 380.45587 176.46875 371.71875 C 177.17649 370.11954 177.59375 368.3301 177.59375 366.46875 C 177.59375 360.50887 173.54636 355.53164 168.0625 354.03125 C 168.0605 354.03059 168.0645 354.0006 168.0625 354 C 167.8474 350.06416 166.72077 346.38706 164.875 343.15625 C 165.38243 341.28284 165.65625 339.28325 165.65625 337.1875 C 165.65625 332.40911 164.2194 328.08889 161.875 324.84375 C 161.874 324.83355 161.876 324.8226 161.875 324.8125 C 161.02513 316.3898 155.55816 309.32589 148.03125 306.21875 C 147.26109 300.82826 142.82985 296.64194 137.34375 296.1875 C 137.23785 289.35972 135.36488 283.18037 132.3125 278.59375 C 133.60048 276.19463 134.3125 273.45047 134.3125 270.53125 C 134.3125 262.27105 128.49304 255.37722 120.71875 253.75 C 120.40348 247.04014 114.88161 241.6875 108.09375 241.6875 C 106.34616 241.6875 104.67053 242.04701 103.15625 242.6875 C 102.19943 241.36214 101.23022 240.07019 100.25 238.78125 C 101.39579 236.8283 102.0625 234.55286 102.0625 232.125 C 102.0625 229.27683 101.16181 226.65455 99.625 224.5 C 100.00833 223.06285 100.21875 221.55449 100.21875 220 C 100.21875 210.40167 92.442085 202.625 82.84375 202.625 C 81.038316 202.625 79.295501 202.92353 77.65625 203.4375 C 75.952686 199.61997 72.137961 196.96875 67.6875 196.96875 C 65.393608 196.96875 63.25775 197.6672 61.5 198.875 C 61.54398 198.51361 61.5625 198.15251 61.5625 197.78125 C 61.5625 192.79131 57.521186 188.75 52.53125 188.75 C 52.340819 188.75 52.156234 188.76975 51.96875 188.78125 C 51.969059 188.74965 51.96875 188.7192 51.96875 188.6875 C 51.96875 183.42436 47.700641 179.15625 42.4375 179.15625 C 41.745077 179.15625 41.056731 179.23475 40.40625 179.375 C 37.751119 175.5191 33.31216 172.96875 28.28125 172.96875 C 25.384551 172.96875 22.675749 173.80096 20.40625 175.25 C 19.69798 175.06351 18.954334 174.96875 18.1875 174.96875 C 15.41302 174.96875 12.935488 176.26174 11.34375 178.28125 C 8.7391263 173.57086 3.7321866 170.375 -2.03125 170.375 z "
         xlink:href="#path3604"
         style="color:#000000;fill:#01ae0f;fill-opacity:1;fill-rule:nonzero;stroke:none;stroke-width:5;marker:none;visibility:visible;display:inline;overflow:visible;enable-background:accumulate;filter:url(#filter3742)"
         id="path4736"
         inkscape:href="#path3604"
         d="m -2.03125,170.375 c -7.6947974,0 -14.026428,5.69449 -15.09375,13.09375 -1.83196,-1.80053 -4.353419,-2.90625 -7.125,-2.90625 -3.376983,0 -6.341913,1.65093 -8.1875,4.1875 -1.755593,-1.73975 -4.176867,-2.8125 -6.84375,-2.8125 -3.624824,0 -6.799098,1.99508 -8.46875,4.9375 -0.501677,-0.0965 -1.0014,-0.15625 -1.53125,-0.15625 -4.241619,0 -7.735808,3.23517 -8.125,7.375 -0.150834,-0.009 -0.284424,-0.0312 -0.4375,-0.0312 -4.193477,0 -7.59375,3.40027 -7.59375,7.59375 0,0.84418 0.151981,1.64768 0.40625,2.40625 -1.332631,-0.47782 -2.752979,-0.75 -4.25,-0.75 -5.704795,0 -10.522985,3.77662 -12.09375,8.96875 -0.815444,-0.20471 -1.683561,-0.34375 -2.5625,-0.34375 -5.760757,0 -10.40625,4.67674 -10.40625,10.4375 0,1.45512 0.305516,2.8355 0.84375,4.09375 -0.708757,-0.17131 -1.457363,-0.25 -2.21875,-0.25 -5.17743,0 -9.375,4.19757 -9.375,9.375 0,0.89246 0.14205,1.74477 0.375,2.5625 -0.78671,-0.16797 -1.60067,-0.28125 -2.4375,-0.28125 -6.42182,0 -11.625,5.23443 -11.625,11.65625 0,0.73759 0.0874,1.45678 0.21875,2.15625 -3.02848,1.82094 -5.0625,5.11511 -5.0625,8.90625 0,2.61169 0.97411,4.98467 2.5625,6.8125 -0.79647,1.06821 -1.3296,2.31896 -1.5625,3.6875 -5.43768,0.0666 -9.83703,4.38322 -10.0625,9.78125 -2.48287,0.98417 -4.61874,2.66044 -6.09375,4.84375 -0.10317,0.15119 -0.19346,0.33839 -0.28125,0.5 -1.23057,2.00321 -1.96875,4.35163 -1.96875,6.875 0,4.89583 2.69171,9.13622 6.65625,11.40625 -0.99103,2.9209 -1.93987,5.88212 -2.84375,8.875 -4.61617,0.40397 -8.25,4.27897 -8.25,9 0,1.45878 0.35478,2.84268 0.96875,4.0625 -4.46496,1.44563 -7.6875,5.64728 -7.6875,10.59375 0,3.17571 1.33434,6.00451 3.46875,8.03125 -2.38356,1.71256 -3.9375,4.49724 -3.9375,7.65625 0,3.72846 2.17328,6.96759 5.3125,8.5 -0.63199,4.89695 -1.15577,9.8378 -1.5625,14.84375 -3.29055,0.65824 -5.78125,3.54705 -5.78125,7.03125 0,3.17811 2.0778,5.86373 4.9375,6.8125 -0.12056,3.16262 -0.19023,6.33434 -0.21875,9.53125 -3.31396,0.92549 -5.75,3.98451 -5.75,7.59375 0,2.3941 1.06251,4.52616 2.75,5.96875 -1.62982,1.48921 -2.65625,3.61829 -2.65625,6 0,2.6425 1.26839,4.98083 3.21875,6.46875 -2.5797,1.12104 -4.375,3.69538 -4.375,6.6875 0,0.55734 0.069,1.07229 0.1875,1.59375 -3.48375,1.25397 -6,4.58429 -6,8.5 0,1.15183 0.23206,2.23698 0.625,3.25 -2.69513,0.50736 -5.3237,1.19986 -7.875,2.0625 -2.53888,-1.76908 -5.63969,-2.8125 -8.96875,-2.8125 -8.66081,0 -15.65625,7.02669 -15.65625,15.6875 0,1.00702 0.0999,1.98328 0.28125,2.9375 -2.34731,2.54781 -4.47318,5.3161 -6.34375,8.25 -1.4117,-0.53292 -2.93303,-0.8125 -4.53125,-0.8125 -7.1008,0 -12.84375,5.74295 -12.84375,12.84375 0,5.63085 3.61674,10.41628 8.65625,12.15625 -0.0936,0.7562 -0.15419,1.51641 -0.21875,2.28125 -2.15023,2.30989 -3.46875,5.40777 -3.46875,8.8125 0,4.13041 1.9237,7.78782 4.9375,10.15625 0.0478,0.19559 0.0752,0.39894 0.125,0.59375 -3.94646,1.82712 -6.6875,5.80271 -6.6875,10.4375 0,1.71447 0.39067,3.3504 1.0625,4.8125 -0.4071,0.12444 -0.8136,0.24616 -1.21875,0.375 -2.29411,-1.95992 -5.2774,-3.15625 -8.53125,-3.15625 -7.07328,0 -12.81291,5.58937 -13.09375,12.59375 -1.3114,0.74319 -2.59649,1.5197 -3.875,2.3125 -2.0584,-1.44871 -4.57288,-2.3125 -7.28125,-2.3125 -6.99036,0 -12.65625,5.66589 -12.65625,12.65625 0,1.57147 0.32032,3.0804 0.84375,4.46875 -0.24818,0.23861 -0.50398,0.47793 -0.75,0.71875 -1.68217,-0.86039 -3.57456,-1.34375 -5.59375,-1.34375 -6.80994,0 -12.34375,5.50256 -12.34375,12.3125 0,2.85098 0.96907,5.47396 2.59375,7.5625 -2.88126,4.33439 -5.47098,8.87137 -7.75,13.59375 -1.17081,-0.38996 -2.41691,-0.59375 -3.71875,-0.59375 -6.50608,0 -11.78125,5.27517 -11.78125,11.78125 0,2.02317 0.50777,3.89912 1.40625,5.5625 -2.41452,2.07131 -3.96875,5.13179 -3.96875,8.5625 0,3.97468 2.08383,7.45598 5.1875,9.46875 -5.0407,0.97054 -8.84375,5.42604 -8.84375,10.75 0,5.93762 4.72444,10.75261 10.625,10.90625 0.0182,0.31413 0.0417,0.62406 0.0625,0.9375 -3.50726,2.13424 -5.875,5.96925 -5.875,10.375 0,2.72915 0.91977,5.2518 2.4375,7.28125 -2.96467,1.38354 -5.03125,4.38751 -5.03125,7.875 0,1.44975 0.37215,2.79829 1,4 -0.78643,-0.097 -1.59358,-0.1875 -2.40625,-0.1875 -10.71675,0 -19.40625,8.6895 -19.40625,19.40625 0,2.77914 0.60388,5.4224 1.65625,7.8125 -3.73817,2.1199 -7.37159,4.3772 -10.9375,6.75 -3.51151,-3.51151 -8.36037,-5.6875 -13.71875,-5.6875 -10.71675,0 -19.40625,8.6895 -19.40625,19.40625 0,4.07593 1.25919,7.87743 3.40625,11 -1.6431,1.69385 -3.2675,3.43048 -4.84375,5.1875 -2.03713,-0.61761 -4.19867,-0.96875 -6.4375,-0.96875 -12.23552,0 -22.15625,9.92073 -22.15625,22.15625 0,1.03801 0.0806,2.06248 0.21875,3.0625 -7.70943,2.44252 -13.28125,9.63862 -13.28125,18.15625 0,5.93674 2.71342,11.25448 6.96875,14.75 -1.03508,2.76157 -1.97321,5.55112 -2.875,8.375 -5.21398,1.63971 -9,6.49467 -9,12.25 0,2.22845 0.53374,4.329 1.53125,6.15625 -7.3622,3.2029 -12.53125,10.55275 -12.53125,19.09375 0,4.33948 1.352,8.3535 3.625,11.6875 -8.23383,3.2317 -14.0625,11.24484 -14.0625,20.625 0,0.59508 0.0478,1.19801 0.0937,1.78125 -1.33605,-0.36248 -2.7367,-0.5625 -4.1875,-0.5625 -8.82104,0 -15.96875,7.14771 -15.96875,15.96875 0,3.29253 0.97997,6.33287 2.6875,8.875 -1.53748,1.32949 -3.02991,2.66197 -4.53125,4.03125 -2.00949,-0.74445 -4.1691,-1.1875 -6.4375,-1.1875 -10.25672,0 -18.5625,8.30578 -18.5625,18.5625 0,2.63867 0.53915,5.16439 1.53125,7.4375 -0.14974,0.18399 -0.28832,0.37803 -0.4375,0.5625 -0.5668,-0.0798 -1.12993,-0.125 -1.71875,-0.125 -6.80994,0 -12.34375,5.53381 -12.34375,12.34375 0,1.89815 0.45258,3.67508 1.21875,5.28125 -3.89885,5.87789 -7.55213,11.91475 -10.90625,18.15625 -1.34145,-0.40736 -2.77545,-0.625 -4.25,-0.625 -8.04603,0 -14.5625,6.51647 -14.5625,14.5625 0,5.19009 2.72631,9.73194 6.8125,12.3125 -0.87647,2.28369 -1.72645,4.5881 -2.53125,6.9062 -0.92842,-0.1363 -1.87746,-0.25 -2.84375,-0.25 -10.71675,0 -19.40625,8.6896 -19.40625,19.4063 0,2.4805 0.49551,4.8508 1.34375,7.0313 -11.12988,3.0486 -19.3125,13.215 -19.3125,25.3124 0,14.5053 11.74481,26.25 26.25,26.25 0.45329,0 0.92735,-0.01 1.375,-0.031 1.36151,125.4015 103.43246,226.6562 229.15625,226.6562 75.01488,0 141.59851,-36.0391 183.40625,-91.75 33.330355,23.1546 74.663461,36.8438 119.4375,36.8438 72.248751,0 135.53935,-35.6755 170.6875,-89.1562 23.26229,7.7057 49.17416,12 76.46875,12 72.0051,0 134.27718,-29.9013 164.09375,-73.375 17.2848,-5.8098 30.15662,-21.2108 32.3125,-39.875 0.29999,0.031 0.59791,0.062 0.90625,0.062 4.76663,0 8.625,-3.8896 8.625,-8.6562 0,-4.7666 -3.85837,-8.625 -8.625,-8.625 -0.67637,0 -1.33719,0.1029 -1.96875,0.25 -0.59051,-2.4157 -1.34,-4.7749 -2.28125,-7.0312 2.15096,-1.0509 3.65625,-3.2261 3.65625,-5.7813 0,-3.4232 -2.66579,-6.2097 -6.03125,-6.4375 0.10366,-0.5366 0.15625,-1.0893 0.15625,-1.6562 0,-0.8787 -0.13247,-1.7319 -0.375,-2.5313 0.31208,-0.7788 0.5,-1.6409 0.5,-2.5313 0,-3.7423 -3.0388,-6.7812 -6.78125,-6.7812 -0.0211,0 -0.0415,-2e-4 -0.0625,0 1.16693,-1.0763 1.90625,-2.5999 1.90625,-4.3125 0,-2.4144 -1.4523,-4.4968 -3.53125,-5.4063 -0.26157,-1.8354 -1.06697,-3.50103 -2.21875,-4.8437 0.0343,-0.28661 0.0625,-0.57916 0.0625,-0.875 0,-3.55197 -2.54202,-6.48096 -5.90625,-7.125 0.14696,-0.63346 0.25,-1.29059 0.25,-1.96875 0,-4.43473 -3.33368,-8.06364 -7.625,-8.59375 -0.39727,-3.74735 -2.24453,-7.06336 -4.96875,-9.375 0.31953,-1.01712 0.5,-2.12742 0.5,-3.25 0,-4.76886 -3.10478,-8.78673 -7.40625,-10.1875 2.40944,-5.89367 3.75,-12.33307 3.75,-19.09375 0,-10.75319 -3.36672,-20.71494 -9.09375,-28.90625 3.61648,-2.54622 5.96875,-6.74097 5.96875,-11.5 0,-5.53839 -3.19177,-10.32952 -7.84375,-12.625 0.67386,-1.36991 1.0625,-2.93269 1.0625,-4.5625 0,-2.11816 -0.65386,-4.08163 -1.75,-5.71875 0.23052,-0.74114 0.34375,-1.52676 0.34375,-2.34375 0,-1.77341 -0.60604,-3.40118 -1.59375,-4.71875 3.53991,-2.13691 5.90625,-6.00107 5.90625,-10.4375 0,-3.8163 -1.75706,-7.1993 -4.5,-9.4375 0.69294,-1.06292 1.09375,-2.32403 1.09375,-3.6875 0,-0.71213 -0.10882,-1.41771 -0.3125,-2.0625 0.29633,-0.94277 0.4375,-1.95941 0.4375,-3 0,-1.87919 -0.53206,-3.62576 -1.4375,-5.125 1.58156,-2.27132 2.5,-5.02248 2.5,-8 0,-5.17405 -2.80126,-9.69162 -6.96875,-12.125 0.50327,-1.25274 0.78125,-2.59853 0.78125,-4.03125 0,-3.72416 -1.86526,-7.00755 -4.71875,-8.96875 0.86639,-1.53131 1.375,-3.30252 1.375,-5.1875 0,-5.82456 -4.73794,-10.53125 -10.5625,-10.53125 -0.33194,0 -0.64464,0.001 -0.96875,0.0312 0.015,-0.20172 0.0312,-0.38821 0.0312,-0.59375 0,-4.49787 -3.65838,-8.15625 -8.15625,-8.15625 -0.28112,0 -0.53872,0.003 -0.8125,0.0312 -0.37523,-0.8272 -0.74072,-1.64808 -1.125,-2.46875 1.7757,-1.64985 2.90625,-3.97871 2.90625,-6.59375 0,-4.98994 -4.04131,-9.03125 -9.03125,-9.03125 -0.62374,0 -1.25559,0.0671 -1.84375,0.1875 -0.17665,-0.31129 -0.35324,-0.62736 -0.53125,-0.9375 2.00754,-1.82897 3.28125,-4.44526 3.28125,-7.375 0,-3.69323 -2.02192,-6.9244 -5,-8.65625 -0.19066,-5.12952 -2.96877,-9.72579 -7.3125,-12.9375 0.39175,-1.15375 0.59375,-2.40132 0.59375,-3.6875 0,-5.6211 -4.05992,-10.26324 -9.40625,-11.21875 -1.82949,-6.65102 -7.92395,-11.5625 -15.15625,-11.5625 -3.58936,0 -6.8855,1.22464 -9.53125,3.25 -5.06898,-4.41352 -10.3288,-8.55647 -15.78125,-12.34375 0.0338,-0.47758 0.0625,-0.95132 0.0625,-1.4375 0,-4.24399 -1.32601,-8.18736 -3.5625,-11.4375 1.47376,-1.86224 2.375,-4.19074 2.375,-6.75 0,-5.75195 -4.45164,-10.47739 -10.09375,-10.90625 -1.89692,-8.86863 -6.58361,-16.69083 -13.09375,-22.53125 0.37878,-1.24952 0.59375,-2.56428 0.59375,-3.9375 0,-6.33831 -4.34901,-11.65321 -10.21875,-13.15625 0.49362,-2.61355 0.75,-5.30381 0.75,-8.0625 0,-11.89859 -4.76395,-22.67491 -12.5,-30.53125 0.5684,-1.15554 0.90625,-2.43774 0.90625,-3.8125 0,-4.77777 -3.85536,-8.65302 -8.625,-8.6875 -0.25497,-5.29425 -3.88259,-9.70266 -8.78125,-11.125 0.54075,-1.01795 0.84375,-2.20448 0.84375,-3.4375 0,-4.02302 -3.25823,-7.28125 -7.28125,-7.28125 -0.0104,0 -0.0209,-4e-5 -0.0312,0 -0.27643,-4.97013 -0.87378,-9.85165 -1.78125,-14.625 1.15799,-3.45533 1.8125,-7.30985 1.8125,-11.40625 0,-6.9813 -1.89285,-13.32714 -4.96875,-18.03125 0.60424,-2.62908 0.9375,-5.4042 0.9375,-8.25 0,-14.66123 -8.54452,-27.04188 -20.25,-31 0.0225,-0.43657 0.0312,-0.86881 0.0312,-1.3125 0,-11.15784 -7.22998,-20.21875 -16.15625,-20.21875 -0.39642,-4.16245 -1.39743,-8.14876 -2.90625,-11.875 2.7964,-2.15389 4.59375,-5.50982 4.59375,-9.3125 0,-3.78703 -1.78577,-7.15742 -4.5625,-9.3125 0.63545,-3.20406 0.96875,-6.5171 0.96875,-9.90625 0,-12.20924 -4.3365,-23.38788 -11.53125,-32.125 0.70774,-1.59921 1.125,-3.38865 1.125,-5.25 0,-5.95988 -4.04739,-10.93711 -9.53125,-12.4375 -0.002,-6.6e-4 0.002,-0.0306 0,-0.0312 -0.2151,-3.93584 -1.34173,-7.61294 -3.1875,-10.84375 0.50743,-1.87341 0.78125,-3.873 0.78125,-5.96875 0,-4.77839 -1.43685,-9.09861 -3.78125,-12.34375 -0.001,-0.0102 0.001,-0.0211 0,-0.0312 -0.84987,-8.4227 -6.31684,-15.48661 -13.84375,-18.59375 -0.77016,-5.39049 -5.2014,-9.57681 -10.6875,-10.03125 -0.1059,-6.82778 -1.97887,-13.00713 -5.03125,-17.59375 1.28798,-2.39912 2,-5.14328 2,-8.0625 0,-8.2602 -5.81946,-15.15403 -13.59375,-16.78125 -0.31527,-6.70986 -5.83714,-12.0625 -12.625,-12.0625 -1.74759,0 -3.42322,0.35951 -4.9375,1 -0.95682,-1.32536 -1.92603,-2.61731 -2.90625,-3.90625 1.14579,-1.95295 1.8125,-4.22839 1.8125,-6.65625 0,-2.84817 -0.90069,-5.47045 -2.4375,-7.625 0.38333,-1.43715 0.59375,-2.94551 0.59375,-4.5 0,-9.59833 -7.776665,-17.375 -17.375,-17.375 -1.805434,0 -3.548249,0.29853 -5.1875,0.8125 -1.703564,-3.81753 -5.518289,-6.46875 -9.96875,-6.46875 -2.293892,0 -4.42975,0.69845 -6.1875,1.90625 0.04398,-0.36139 0.0625,-0.72249 0.0625,-1.09375 0,-4.98994 -4.041314,-9.03125 -9.03125,-9.03125 -0.190431,0 -0.375016,0.0197 -0.5625,0.0312 3.09e-4,-0.0316 0,-0.062 0,-0.0937 0,-5.26314 -4.268109,-9.53125 -9.53125,-9.53125 -0.692423,0 -1.380769,0.0785 -2.03125,0.21875 -2.655131,-3.8559 -7.09409,-6.40625 -12.125,-6.40625 -2.896699,0 -5.605501,0.83221 -7.875,2.28125 -0.70827,-0.18649 -1.451916,-0.28125 -2.21875,-0.28125 -2.77448,0 -5.252012,1.29299 -6.84375,3.3125 -2.6046237,-4.71039 -7.6115634,-7.90625 -13.375,-7.90625 z" />
    </g>
  </g>
</svg>
