<?xml version="1.0" encoding="UTF-8" standalone="no"?>
<!-- Created with Inkscape (http://www.inkscape.org/) -->

<svg
   xmlns:dc="http://purl.org/dc/elements/1.1/"
   xmlns:cc="http://creativecommons.org/ns#"
   xmlns:rdf="http://www.w3.org/1999/02/22-rdf-syntax-ns#"
   xmlns:svg="http://www.w3.org/2000/svg"
   xmlns="http://www.w3.org/2000/svg"
   xmlns:xlink="http://www.w3.org/1999/xlink"
   xmlns:sodipodi="http://sodipodi.sourceforge.net/DTD/sodipodi-0.dtd"
   xmlns:inkscape="http://www.inkscape.org/namespaces/inkscape"
   width="1024"
   height="256"
   id="svg2"
   version="1.1"
   inkscape:version="0.46+devel 22040"
   sodipodi:docname="small_green_ballhills_1.svg"
   inkscape:export-filename="C:\Dateien\Desktop\Secret Maryo Chronicles\SMC\data\pixmaps\game\background\small_green_ballhills_1.png"
   inkscape:export-xdpi="180"
   inkscape:export-ydpi="180">
  <defs
     id="defs4">
    <linearGradient
       id="linearGradient4151">
      <stop
         id="stop4153"
         offset="0"
         style="stop-color:#1bad01;stop-opacity:1;" />
      <stop
         id="stop4155"
         offset="1"
         style="stop-color:#3ed202;stop-opacity:1;" />
    </linearGradient>
    <linearGradient
       id="linearGradient4145">
      <stop
         id="stop4147"
         offset="0"
         style="stop-color:#24a70c;stop-opacity:1;" />
      <stop
         id="stop4149"
         offset="1"
         style="stop-color:#5bc910;stop-opacity:1;" />
    </linearGradient>
    <linearGradient
       id="linearGradient3685">
      <stop
         style="stop-color:#20c901;stop-opacity:1;"
         offset="0"
         id="stop3687" />
      <stop
         style="stop-color:#56f402;stop-opacity:1"
         offset="1"
         id="stop3689" />
    </linearGradient>
    <inkscape:perspective
       sodipodi:type="inkscape:persp3d"
       inkscape:vp_x="0 : 526.18109 : 1"
       inkscape:vp_y="0 : 1000 : 0"
       inkscape:vp_z="744.09448 : 526.18109 : 1"
       inkscape:persp3d-origin="372.04724 : 350.78739 : 1"
       id="perspective10" />
    <inkscape:perspective
       id="perspective2824"
       inkscape:persp3d-origin="0.5 : 0.33333333 : 1"
       inkscape:vp_z="1 : 0.5 : 1"
       inkscape:vp_y="0 : 1000 : 0"
       inkscape:vp_x="0 : 0.5 : 1"
       sodipodi:type="inkscape:persp3d" />
    <filter
       id="filter3663"
       inkscape:menu-tooltip="Bright metallic effect for any color"
       inkscape:menu="Bevels"
       inkscape:label="Bright metal">
      <feGaussianBlur
         id="feGaussianBlur3665"
         result="result6"
         stdDeviation="10.01"
         in="SourceGraphic" />
      <feComposite
         id="feComposite3667"
         in2="SourceGraphic"
         in="result6"
         operator="xor"
         result="result10" />
      <feGaussianBlur
         id="feGaussianBlur3669"
         result="result2"
         stdDeviation="4.744902506963788" />
      <feComposite
         id="feComposite3671"
         in2="SourceGraphic"
         operator="atop"
         in="result10"
         result="result11" />
      <feComposite
         id="feComposite3673"
         in2="result11"
         result="result4"
         in="result2"
         operator="xor" />
      <feGaussianBlur
         id="feGaussianBlur3675"
         in="result4"
         result="result3"
         stdDeviation="7.2516155988857944" />
      <feSpecularLighting
         id="feSpecularLighting3677"
         result="result5"
         specularExponent="4"
         specularConstant="1"
         surfaceScale="13.623978201634968"
         lighting-color="rgb(198,255,126)"
         kernelUnitLength="0.01">
        <feDistantLight
           id="feDistantLight3679"
           azimuth="260"
           elevation="57" />
      </feSpecularLighting>
      <feComposite
         id="feComposite3681"
         in2="result5"
         in="result3"
         k3="0.5"
         k2="0.5"
         operator="arithmetic"
         result="result7"
         k1="0.5" />
      <feComposite
         id="feComposite3683"
         in2="SourceGraphic"
         in="result7"
         operator="atop"
         result="result8" />
    </filter>
    <filter
       id="filter4155"
       inkscape:label="Thick paint"
       x="-0.05"
       y="-0.05"
       width="1.1"
       height="1.1"
       inkscape:menu="Bumps"
       inkscape:menu-tooltip="Thick painting effect with turbulence">
      <feGaussianBlur
         id="feGaussianBlur4157"
         result="result6"
         stdDeviation="2" />
      <feTurbulence
         id="feTurbulence4159"
         in="result6"
         type="fractalNoise"
         baseFrequency="0.3008547008547009"
         numOctaves="2"
         result="result2" />
      <feDisplacementMap
         id="feDisplacementMap4161"
         in2="result2"
         yChannelSelector="A"
         xChannelSelector="R"
         scale="10"
         result="result5"
         in="result6" />
      <feBlend
         id="feBlend4163"
         in2="result5"
         blend="normal"
         in="result6"
         mode="lighten"
         result="fbSourceGraphic" />
      <feColorMatrix
         id="feColorMatrix4165"
         result="result2"
         type="luminanceToAlpha"
         in="fbSourceGraphic" />
      <feDiffuseLighting
         id="feDiffuseLighting4167"
         diffuseConstant="0.65"
         result="result1"
         surfaceScale="-4">
        <feDistantLight
           id="feDistantLight4169"
           azimuth="225"
           elevation="35" />
      </feDiffuseLighting>
      <feComposite
         id="feComposite4171"
         in2="fbSourceGraphic"
         result="result3"
         k3="0.5"
         k1="1.37"
         in="result1"
         operator="arithmetic" />
      <feComposite
         id="feComposite4173"
         in2="result3"
         result="result5"
         operator="in"
         in="result3" />
    </filter>
    <filter
       id="filter3742"
       x="-0.15"
       width="1.3"
       y="-0.15"
       height="1.3"
       inkscape:menu-tooltip="Felt like texture with color turbulence and slightly darker at the edges"
       inkscape:menu="Textures"
       inkscape:label="Felt">
      <feGaussianBlur
         id="feGaussianBlur3744"
         result="result1"
         in="SourceGraphic"
         stdDeviation="2" />
      <feTurbulence
         id="feTurbulence3746"
         result="result0"
         numOctaves="1"
         baseFrequency="0.36353276353276354"
         type="fractalNoise" />
      <feDisplacementMap
         id="feDisplacementMap3748"
         in2="result0"
         result="result2"
         scale="0.10000000000000001"
         yChannelSelector="G"
         xChannelSelector="R"
         in="result1" />
      <feColorMatrix
         id="feColorMatrix3758"
         result="result8"
         values="0.1 0.5 0.5 0 0 0.9 1 0.9 0 0 0 0.8 0.2 0 0 0.5 0.2 0.4 0 0 "
         type="matrix" />
      <feComposite
         id="feComposite3752"
         in2="result8"
         result="result6"
         k1="1"
         k3="1"
         k2="0.5"
         in="result0"
         operator="in" />
      <feComposite
         id="feComposite3754"
         in2="result0"
         in="result6"
         operator="in"
         result="result7" />
    </filter>
    <radialGradient
       inkscape:collect="always"
       xlink:href="#linearGradient4145"
       id="radialGradient3842"
       gradientUnits="userSpaceOnUse"
       gradientTransform="matrix(4.8363343,0.01428026,-0.0033883,1.1475082,-2439.6736,739.48111)"
       cx="604.37274"
       cy="266.29364"
       fx="604.37274"
       fy="266.29364"
       r="282.95312" />
    <radialGradient
       inkscape:collect="always"
       xlink:href="#linearGradient3685"
       id="radialGradient4052"
       gradientUnits="userSpaceOnUse"
       gradientTransform="matrix(4.131883,3.128342e-8,0,0.35235434,-1617.5933,959.85328)"
       cx="516.49225"
       cy="267.00604"
       fx="516.49225"
       fy="267.00604"
       r="115.46875" />
    <radialGradient
       inkscape:collect="always"
       xlink:href="#linearGradient3685"
       id="radialGradient4121"
       gradientUnits="userSpaceOnUse"
       gradientTransform="matrix(2.0527503,0.00608609,-8.1026358e-4,0.27329023,-885.47524,969.20139)"
       cx="841.32587"
       cy="284.82361"
       fx="841.32587"
       fy="284.82361"
       r="169.62502" />
    <radialGradient
       inkscape:collect="always"
       xlink:href="#linearGradient3685"
       id="radialGradient4143"
       gradientUnits="userSpaceOnUse"
       gradientTransform="matrix(2.912059,0,0,0.49549936,-264.83864,923.71706)"
       cx="146.96255"
       cy="260.59213"
       fx="146.96255"
       fy="260.59213"
       r="145.8125" />
    <radialGradient
       inkscape:collect="always"
       xlink:href="#linearGradient4151"
       id="radialGradient4157"
       gradientUnits="userSpaceOnUse"
       gradientTransform="matrix(2.6855631,-0.03023431,0.00689235,0.61221318,-114.93618,103.32442)"
       cx="42.412384"
       cy="253.80739"
       fx="42.412384"
       fy="253.80739"
       r="378" />
  </defs>
  <sodipodi:namedview
     id="base"
     pagecolor="#033812"
     bordercolor="#666666"
     borderopacity="1.0"
     inkscape:pageopacity="0"
     inkscape:pageshadow="2"
     inkscape:zoom="0.7"
     inkscape:cx="552.08829"
     inkscape:cy="270.50827"
     inkscape:document-units="px"
     inkscape:current-layer="layer1"
     showgrid="false"
     inkscape:window-width="1244"
     inkscape:window-height="822"
     inkscape:window-x="22"
     inkscape:window-y="38"
     inkscape:window-maximized="0"
     inkscape:snap-nodes="false"
     inkscape:snap-page="true"
     inkscape:snap-grids="false"
     showguides="true"
     borderlayer="true" />
  <metadata
     id="metadata7">
    <rdf:RDF>
      <cc:Work
         rdf:about="">
        <dc:format>image/svg+xml</dc:format>
        <dc:type
           rdf:resource="http://purl.org/dc/dcmitype/StillImage" />
        <dc:title></dc:title>
      </cc:Work>
    </rdf:RDF>
  </metadata>
  <g
     inkscape:label="Layer 1"
     inkscape:groupmode="layer"
     id="layer1"
     transform="translate(0,-796.36218)">
    <path
       style="color:#000000;fill:url(#radialGradient3842);fill-opacity:1.0;fill-rule:nonzero;stroke:none;stroke-width:5;marker:none;visibility:visible;display:inline;overflow:visible;filter:url(#filter4155);enable-background:accumulate"
       d="m 668.5984,806.33168 c -24.04548,0 -43.5367,19.19123 -44.23378,43.06793 -37.84089,13.79199 -71.41557,33.0174 -98.75448,56.37236 -0.0115,-0.0115 -0.0572,0.0115 -0.0685,0 -5.8481,-5.93076 -12.1215,-11.45102 -18.79079,-16.52767 -1.1459,-18.70796 -16.66512,-33.53537 -35.66145,-33.53537 -6.86409,0 -13.20889,1.99531 -18.65362,5.3492 -17.53145,-5.57702 -36.21876,-8.64102 -55.68656,-8.64102 -40.02743,0 -76.98959,12.75972 -106.70971,34.28976 -9.58233,-7.1032 -21.44573,-11.31563 -34.28975,-11.31563 -9.61601,0 -18.63807,2.35061 -26.60885,6.51506 -26.50945,-11.96937 -56.06337,-18.65363 -87.23313,-18.65363 -20.49893,0 -40.28172,2.91437 -58.97837,8.29812 -8.42133,-5.05329 -18.267407,-7.95521 -28.803401,-7.95521 -30.973063,0 -56.029445,25.12496 -56.029445,56.09802 -27.072294,25.39827 -47.029902,57.85844 -56.646682,94.3653 -2.120126,-0.2416 -4.261672,-0.3428 -6.446472,-0.3428 -31.16605,0 -56.44093,25.2749 -56.44093,56.4409 0,31.166 25.27488,56.441 56.44093,56.441 3.422305,0 6.758259,-0.3766 10.012612,-0.96 26.863505,80.5875 104.8425,138.8733 196.891758,138.8733 71.56805,0 134.63734,-35.2549 171.79166,-88.8103 24.78037,12.6403 53.06814,19.8194 83.04978,19.8194 33.76361,0 65.28113,-9.0634 92.17086,-24.8258 53.63062,70.9298 156.12714,118.9168 273.76938,118.9168 138.2831,0 255.63374,-66.263 297.29214,-158.2129 4.1584,1.1913 8.489,1.8517 13.0302,1.8517 26.2015,0 47.4569,-21.2556 47.4569,-47.4571 0,-25.4965 -20.106,-46.2186 -45.331,-47.3199 -4.3891,-39.75407 -22.3488,-76.66921 -50.4059,-108.21835 0.2267,-2.46356 0.3429,-4.95245 0.3429,-7.47517 0,-20.77882 -7.8672,-39.67903 -20.7796,-53.97206 0.5155,-1.76593 0.8229,-3.62248 0.8229,-5.55495 0,-10.95063 -8.9373,-19.81947 -19.8881,-19.81947 -4.5102,0 -8.6014,1.50975 -11.9328,4.04619 -8.94426,-3.4231 -18.65538,-5.28062 -28.80337,-5.28062 -13.60668,0 -26.40827,3.37352 -37.65015,9.32681 -8.74544,-3.35733 -17.74886,-6.37353 -26.95175,-9.12107 -5.03117,-18.49376 -21.88316,-32.1638 -41.97066,-32.1638 -14.15048,0 -26.67711,6.82811 -34.63264,17.28204 -13.29574,-1.27277 -26.83496,-1.92022 -40.59907,-1.92022 -18.8442,0 -37.3462,1.27671 -55.27508,3.63471 -7.56321,-13.63097 -22.12263,-22.90556 -38.816,-22.90556 l 2e-5,0 z"
       id="path3614"
       sodipodi:nodetypes="cccscscscscscsccssscscscscssccscsscsccscsccc" />
    <path
       sodipodi:type="inkscape:offset"
       inkscape:radius="0"
       inkscape:original="M 668.59375 806.34375 C 644.54827 806.34375 625.07208 825.52955 624.375 849.40625 C 586.53411 863.19824 552.96391 882.42629 525.625 905.78125 C 525.6135 905.76975 525.54255 905.79275 525.53125 905.78125 C 519.68315 899.85049 513.41929 894.32665 506.75 889.25 C 505.6041 870.54204 490.09008 855.71875 471.09375 855.71875 C 464.22966 855.71875 457.88223 857.70861 452.4375 861.0625 C 434.90605 855.48548 416.2178 852.40625 396.75 852.40625 C 356.72257 852.40625 319.75137 865.18871 290.03125 886.71875 C 280.44892 879.61555 268.59402 875.40625 255.75 875.40625 C 246.13399 875.40625 237.12703 877.7418 229.15625 881.90625 C 202.6468 869.93688 173.07601 863.25 141.90625 863.25 C 121.40732 863.25 101.63415 866.17875 82.9375 871.5625 C 74.51617 866.50921 64.660994 863.59375 54.125 863.59375 C 23.151937 863.59375 -1.90625 888.71444 -1.90625 919.6875 C -28.978544 945.08577 -48.94572 977.55564 -58.5625 1014.0625 C -60.682626 1013.8209 -62.8152 1013.7188 -65 1013.7188 C -96.16605 1013.7188 -121.4375 1038.9903 -121.4375 1070.1562 C -121.4375 1101.3222 -96.16605 1126.5938 -65 1126.5938 C -61.577695 1126.5938 -58.223103 1126.2084 -54.96875 1125.625 C -28.105245 1206.2125 49.856992 1264.5 141.90625 1264.5 C 213.4743 1264.5 276.53318 1229.2429 313.6875 1175.6875 C 338.46787 1188.3278 366.76836 1195.5312 396.75 1195.5312 C 430.51361 1195.5312 462.01652 1186.4499 488.90625 1170.6875 C 542.53687 1241.6173 645.04526 1289.625 762.6875 1289.625 C 900.9706 1289.625 1018.3103 1223.3562 1059.9688 1131.4062 C 1064.1272 1132.5975 1068.4588 1133.25 1073 1133.25 C 1099.2015 1133.25 1120.4688 1111.9828 1120.4688 1085.7812 C 1120.4688 1060.2848 1100.35 1039.5701 1075.125 1038.4688 C 1070.7359 998.71468 1052.7758 961.79914 1024.7188 930.25 C 1024.9454 927.78644 1025.0625 925.30397 1025.0625 922.78125 C 1025.0625 902.00243 1017.1936 883.10553 1004.2812 868.8125 C 1004.7967 867.04657 1005.125 865.18247 1005.125 863.25 C 1005.125 852.29937 996.16955 843.4375 985.21875 843.4375 C 980.70855 843.4375 976.6439 844.93231 973.3125 847.46875 C 964.36824 844.04565 954.64799 842.1875 944.5 842.1875 C 930.89332 842.1875 918.08563 845.57796 906.84375 851.53125 C 898.09831 848.17392 889.10914 845.15379 879.90625 842.40625 C 874.87508 823.91249 857.99375 810.25 837.90625 810.25 C 823.75577 810.25 811.23678 817.07732 803.28125 827.53125 C 789.98551 826.25848 776.45161 825.59375 762.6875 825.59375 C 743.8433 825.59375 725.33513 826.892 707.40625 829.25 C 699.84304 815.61903 685.28712 806.34375 668.59375 806.34375 z "
       xlink:href="#path3614"
       style="color:#000000;fill:#02f615;fill-opacity:1;fill-rule:nonzero;stroke:none;stroke-width:5;marker:none;visibility:visible;display:inline;overflow:visible;filter:url(#filter3742);enable-background:accumulate"
       id="path3840"
       inkscape:href="#path3614"
       d="m 666.59375,806.34375 c -24.04548,0 -43.52167,19.1858 -44.21875,43.0625 -37.84089,13.79199 -71.41109,33.02004 -98.75,56.375 -0.0115,-0.0115 -0.0824,0.0115 -0.0937,0 -5.8481,-5.93076 -12.11196,-11.4546 -18.78125,-16.53125 -1.1459,-18.70796 -16.65992,-33.53125 -35.65625,-33.53125 -6.86409,0 -13.21152,1.98986 -18.65625,5.34375 -17.53145,-5.57702 -36.2197,-8.65625 -55.6875,-8.65625 -40.02743,0 -76.99863,12.78246 -106.71875,34.3125 -9.58233,-7.1032 -21.43723,-11.3125 -34.28125,-11.3125 -9.61601,0 -18.62297,2.33555 -26.59375,6.5 -26.50945,-11.96937 -56.08024,-18.65625 -87.25,-18.65625 -20.49893,0 -40.2721,2.92875 -58.96875,8.3125 -8.42133,-5.05329 -18.276506,-7.96875 -28.8125,-7.96875 -30.973063,0 -56.03125,25.12069 -56.03125,56.09375 -27.072294,25.39827 -47.03947,57.86814 -56.65625,94.375 -2.120126,-0.2416 -4.2527,-0.3437 -6.4375,-0.3437 -31.16605,0 -56.4375,25.2715 -56.4375,56.4374 0,31.166 25.27145,56.4376 56.4375,56.4376 3.422305,0 6.776897,-0.3854 10.03125,-0.9688 26.863505,80.5875 104.825742,138.875 196.875,138.875 71.56805,0 134.62693,-35.2571 171.78125,-88.8125 24.78037,12.6403 53.08086,19.8437 83.0625,19.8437 33.76361,0 65.26652,-9.0813 92.15625,-24.8437 53.63062,70.9298 156.13901,118.9375 273.78125,118.9375 138.2831,0 255.6228,-66.2688 297.2813,-158.2188 4.1584,1.1913 8.49,1.8438 13.0312,1.8438 26.2015,0 47.4688,-21.2672 47.4688,-47.4688 0,-25.4964 -20.1188,-46.2111 -45.3438,-47.3124 -4.3891,-39.75412 -22.3492,-76.66966 -50.4062,-108.2188 0.2267,-2.46356 0.3437,-4.94603 0.3437,-7.46875 0,-20.77882 -7.8689,-39.67572 -20.7813,-53.96875 0.5155,-1.76593 0.8438,-3.63003 0.8438,-5.5625 0,-10.95063 -8.95545,-19.8125 -19.90625,-19.8125 -4.5102,0 -8.57485,1.49481 -11.90625,4.03125 -8.94426,-3.4231 -18.66451,-5.28125 -28.8125,-5.28125 -13.60668,0 -26.41437,3.39046 -37.65625,9.34375 -8.74544,-3.35733 -17.73461,-6.37746 -26.9375,-9.125 -5.03117,-18.49376 -21.9125,-32.15625 -42,-32.15625 -14.15048,0 -26.66947,6.82732 -34.625,17.28125 -13.29574,-1.27277 -26.82964,-1.9375 -40.59375,-1.9375 -18.8442,0 -37.35237,1.29825 -55.28125,3.65625 -7.56321,-13.63097 -22.11913,-22.90625 -38.8125,-22.90625 z" />
    <use
       x="0"
       y="0"
       xlink:href="#g3760"
       id="use3764"
       transform="translate(1024,0)"
       width="1024"
       height="256" />
    <g
       id="g3760">
      <path
         style="color:#000000;fill:url(#radialGradient4157);fill-opacity:1;fill-rule:nonzero;stroke:none;stroke-width:5;marker:none;visibility:visible;display:inline;overflow:visible;filter:url(#filter4155);enable-background:accumulate"
         d="M 44.28125 70.28125 C 31.918607 70.28125 21.094546 75.72949 15.0625 83.90625 C 10.085784 83.56076 5.0715366 83.40625 0 83.40625 C -11.03191 83.40625 -21.859948 84.243763 -32.40625 85.84375 C -36.904035 83.834434 -41.911636 82.71875 -47.15625 82.71875 C -59.093174 82.71875 -69.669091 88.484512 -76.25 97.40625 C -80.46865 99.027826 -84.61982 100.81029 -88.6875 102.6875 C -92.193698 99.924432 -96.627001 98.25 -101.4375 98.25 C -112.81631 98.25 -122.03125 107.46494 -122.03125 118.84375 C -122.03125 119.88945 -121.93157 120.93368 -121.78125 121.9375 C -130.90273 128.46993 -139.40717 135.719 -147.1875 143.59375 C -148.56363 143.31632 -149.97961 143.15625 -151.4375 143.15625 C -163.27217 143.15625 -172.84375 152.72783 -172.84375 164.5625 C -172.84375 167.61834 -172.21522 170.5258 -171.0625 173.15625 C -189.41306 201.3087 -200 234.34289 -200 269.6875 C -200 372.5789 -110.45695 456 0 456 C 72.248751 456 135.53935 420.32505 170.6875 366.84375 C 193.94979 374.54995 219.86166 378.84375 247.15625 378.84375 C 348.14546 378.84375 430 320.0235 430 247.4375 C 430 217.1569 415.75194 189.25412 391.8125 167.03125 C 393.40014 163.69034 394.28125 159.94504 394.28125 156 C 394.28125 141.79839 382.76411 130.28125 368.5625 130.28125 C 361.08122 130.28125 354.35519 133.49394 349.65625 138.59375 C 336.4813 132.16997 322.07511 126.9536 306.75 123.15625 C 304.75267 112.57025 295.44778 104.5625 284.28125 104.5625 C 275.5877 104.5625 268.02089 109.4174 264.15625 116.5625 C 258.55528 116.19113 252.89208 116 247.15625 116 C 229.19302 116 211.83767 117.87415 195.4375 121.34375 C 188.22724 108.21566 169.34626 98.84375 147.15625 98.84375 C 130.68672 98.84375 116.03769 104.03397 106.625 112.0625 C 97.723793 106.82803 88.338414 102.20632 78.5625 98.3125 C 78.221047 82.7792 63.002792 70.28125 44.28125 70.28125 z "
         transform="translate(0,796.36218)"
         id="path3604" />
      <path
         d="m 44.28125,70.28125 c -12.362643,0 -23.186704,5.44824 -29.21875,13.625 -4.976716,-0.34549 -9.9909634,-0.5 -15.0625,-0.5 -11.03191,0 -21.859948,0.837513 -32.40625,2.4375 -4.497785,-2.009316 -9.505386,-3.125 -14.75,-3.125 -11.936924,0 -22.512841,5.765762 -29.09375,14.6875 -4.21865,1.621576 -8.36982,3.40404 -12.4375,5.28125 -3.506198,-2.763068 -7.939501,-4.4375 -12.75,-4.4375 -11.37881,0 -20.59375,9.21494 -20.59375,20.59375 0,1.0457 0.0997,2.08993 0.25,3.09375 -9.12148,6.53243 -17.62592,13.7815 -25.40625,21.65625 -1.37613,-0.27743 -2.79211,-0.4375 -4.25,-0.4375 -11.83467,0 -21.40625,9.57158 -21.40625,21.40625 0,3.05584 0.62853,5.9633 1.78125,8.59375 C -189.41306,201.3087 -200,234.34289 -200,269.6875 -200,372.5789 -110.45695,456 0,456 c 72.248751,0 135.53935,-35.67495 170.6875,-89.15625 23.26229,7.7062 49.17416,12 76.46875,12 C 348.14546,378.84375 430,320.0235 430,247.4375 c 0,-30.2806 -14.24806,-58.18338 -38.1875,-80.40625 1.58764,-3.34091 2.46875,-7.08621 2.46875,-11.03125 0,-14.20161 -11.51714,-25.71875 -25.71875,-25.71875 -7.48128,0 -14.20731,3.21269 -18.90625,8.3125 -13.17495,-6.42378 -27.58114,-11.64015 -42.90625,-15.4375 -1.99733,-10.586 -11.30222,-18.59375 -22.46875,-18.59375 -8.69355,0 -16.26036,4.8549 -20.125,12 -5.60097,-0.37137 -11.26417,-0.5625 -17,-0.5625 -17.96323,0 -35.31858,1.87415 -51.71875,5.34375 -7.21026,-13.12809 -26.09124,-22.5 -48.28125,-22.5 -16.46953,0 -31.11856,5.19022 -40.53125,13.21875 -8.901207,-5.23447 -18.286586,-9.85618 -28.0625,-13.75 C 78.221047,82.7792 63.002792,70.28125 44.28125,70.28125 z"
         inkscape:href="#path3604"
         id="path2847"
         style="color:#000000;fill:#02f615;fill-opacity:1;fill-rule:nonzero;stroke:none;stroke-width:5;marker:none;visibility:visible;display:inline;overflow:visible;filter:url(#filter3742);enable-background:accumulate"
         xlink:href="#path3604"
         inkscape:original="M 44.28125 70.28125 C 31.918607 70.28125 21.094546 75.72949 15.0625 83.90625 C 10.085784 83.56076 5.0715366 83.40625 0 83.40625 C -11.03191 83.40625 -21.859948 84.243763 -32.40625 85.84375 C -36.904035 83.834434 -41.911636 82.71875 -47.15625 82.71875 C -59.093174 82.71875 -69.669091 88.484512 -76.25 97.40625 C -80.46865 99.027826 -84.61982 100.81029 -88.6875 102.6875 C -92.193698 99.924432 -96.627001 98.25 -101.4375 98.25 C -112.81631 98.25 -122.03125 107.46494 -122.03125 118.84375 C -122.03125 119.88945 -121.93157 120.93368 -121.78125 121.9375 C -130.90273 128.46993 -139.40717 135.719 -147.1875 143.59375 C -148.56363 143.31632 -149.97961 143.15625 -151.4375 143.15625 C -163.27217 143.15625 -172.84375 152.72783 -172.84375 164.5625 C -172.84375 167.61834 -172.21522 170.5258 -171.0625 173.15625 C -189.41306 201.3087 -200 234.34289 -200 269.6875 C -200 372.5789 -110.45695 456 0 456 C 72.248751 456 135.53935 420.32505 170.6875 366.84375 C 193.94979 374.54995 219.86166 378.84375 247.15625 378.84375 C 348.14546 378.84375 430 320.0235 430 247.4375 C 430 217.1569 415.75194 189.25412 391.8125 167.03125 C 393.40014 163.69034 394.28125 159.94504 394.28125 156 C 394.28125 141.79839 382.76411 130.28125 368.5625 130.28125 C 361.08122 130.28125 354.35519 133.49394 349.65625 138.59375 C 336.4813 132.16997 322.07511 126.9536 306.75 123.15625 C 304.75267 112.57025 295.44778 104.5625 284.28125 104.5625 C 275.5877 104.5625 268.02089 109.4174 264.15625 116.5625 C 258.55528 116.19113 252.89208 116 247.15625 116 C 229.19302 116 211.83767 117.87415 195.4375 121.34375 C 188.22724 108.21566 169.34626 98.84375 147.15625 98.84375 C 130.68672 98.84375 116.03769 104.03397 106.625 112.0625 C 97.723793 106.82803 88.338414 102.20632 78.5625 98.3125 C 78.221047 82.7792 63.002792 70.28125 44.28125 70.28125 z "
         inkscape:radius="0"
         sodipodi:type="inkscape:offset"
         transform="translate(0,796.37537)" />
    </g>
    <path
       style="color:#000000;fill:url(#radialGradient4143);fill-opacity:1.0;fill-rule:nonzero;stroke:none;stroke-width:5;marker:none;visibility:visible;display:inline;overflow:visible;filter:url(#filter4155);enable-background:accumulate"
       d="m 123.0625,976.54968 c -2.88641,0 -5.49347,1.19289 -7.34375,3.125 -0.91484,-0.0305 -1.82706,-0.0312 -2.75,-0.0312 -9.57361,0 -18.711967,1.64257 -27.125,4.65625 -1.64728,-1.47297 -3.835061,-2.375 -6.21875,-2.375 -5.143509,0 -9.3125,4.16899 -9.3125,9.3125 0,0.21753 0.01658,0.44244 0.03125,0.65625 -5.003776,3.19883 -9.584089,6.95666 -13.59375,11.15622 -0.999419,-0.5781 -2.137408,-0.9062 -3.375,-0.9062 -3.752834,0 -6.8125,3.0284 -6.8125,6.7812 0,1.8214 0.739564,3.4674 1.90625,4.6875 -1.749741,2.7393 -3.29765,5.5969 -4.625,8.5625 -0.459294,-0.076 -0.954944,-0.125 -1.4375,-0.125 -4.295589,0 -7.773563,3.1586 -8.03125,7.125 -4.705002,0.4823 -8.772238,4.4164 -11.09375,10.125 -0.179874,-0.031 -0.375908,-0.062 -0.5625,-0.062 -2.231567,0 -4.03125,2.2418 -4.03125,5.0313 0,0.031 -4.58e-4,0.062 0,0.094 -3.984489,0.5612 -7.0625,4.3653 -7.0625,9 0,5.021 3.599365,9.0937 8.0625,9.0937 1.308103,0 2.563147,-0.348 3.65625,-0.9687 2.487988,6.0381 6.91806,10.0625 12,10.0625 2.320188,0 4.505524,-0.8584 6.4375,-2.3438 9.615672,27.726 37.826958,47.8125 71.1875,47.8125 18.34499,0 35.14881,-6.0793 48.15625,-16.1562 0.11426,4e-4 0.22937,0 0.34375,0 1.322,0 2.63237,-0.042 3.9375,-0.094 12.89495,12.3162 33.46887,20.2812 56.65625,20.2812 30.45731,0 56.42331,-13.7439 66.375,-33.0312 11.47424,-2.0884 20.92231,-8.6975 25.53125,-17.4688 6.23011,-0.5895 11.125,-6.6733 11.125,-14.0937 0,-7.3099 -4.74617,-13.3215 -10.84375,-14.0625 0.12616,-0.5264 0.1875,-1.0912 0.1875,-1.6563 0,-3.8753 -3.12476,-7 -7,-7 -1.42859,0 -2.76646,0.4231 -3.875,1.1563 -2.07949,-1.4075 -4.3585,-2.6234 -6.78125,-3.625 -0.43256,-2.9349 -2.97616,-5.1875 -6.03125,-5.1875 -1.94584,0 -3.66799,0.9218 -4.78125,2.3437 -1.73619,-0.2121 -3.50567,-0.3125 -5.3125,-0.3125 -2.51051,0 -4.97644,0.2213 -7.34375,0.625 -1.72976,-3.0823 -5.02655,-5.1562 -8.8125,-5.1562 -2.88436,0 -5.50313,1.1863 -7.34375,3.125 -7.03975,-2.8807 -14.83315,-4.9278 -23.125,-5.9375 -1.49708,-4.0887 -5.32496,-7.0507 -9.875,-7.2813 -5.39935,-6.2847 -12.39315,-11.71 -20.5625,-15.93747 -1.22547,-4.56073 -5.36487,-7.90625 -10.3125,-7.90625 -2.08838,0 -4.04051,0.59067 -5.6875,1.625 -8.13698,-2.29885 -16.92877,-3.5625 -26.125,-3.5625 -2.07895,0 -4.15147,0.0928 -6.1875,0.21875 -1.0166,-1.95648 -3.08029,-3.28125 -5.4375,-3.28125 -1.70084,0 -3.23702,0.69005 -4.34375,1.8125 -4.28897,-1.90836 -8.80193,-3.4293 -13.5,-4.5625 -1.71719,-3.18204 -5.06807,-5.34375 -8.9375,-5.34375 z"
       id="path3968" />
    <path
       sodipodi:type="inkscape:offset"
       inkscape:radius="0"
       inkscape:original="M 123.0625 976.5625 C 120.17609 976.5625 117.56903 977.75539 115.71875 979.6875 C 114.80391 979.657 113.89169 979.65625 112.96875 979.65625 C 103.39514 979.65625 94.256783 981.29882 85.84375 984.3125 C 84.19647 982.83953 82.008689 981.9375 79.625 981.9375 C 74.481491 981.9375 70.3125 986.10649 70.3125 991.25 C 70.3125 991.46753 70.32908 991.69244 70.34375 991.90625 C 65.339974 995.10508 60.759661 998.86294 56.75 1003.0625 C 55.750581 1002.4844 54.612592 1002.1562 53.375 1002.1562 C 49.622166 1002.1562 46.5625 1005.1847 46.5625 1008.9375 C 46.5625 1010.7589 47.302064 1012.4049 48.46875 1013.625 C 46.719009 1016.3643 45.1711 1019.2219 43.84375 1022.1875 C 43.384456 1022.1115 42.888806 1022.0625 42.40625 1022.0625 C 38.110661 1022.0625 34.632687 1025.2211 34.375 1029.1875 C 29.669998 1029.6698 25.602762 1033.6039 23.28125 1039.3125 C 23.101376 1039.2815 22.905342 1039.25 22.71875 1039.25 C 20.487183 1039.25 18.6875 1041.4917 18.6875 1044.2812 C 18.6875 1044.3122 18.687042 1044.343 18.6875 1044.375 C 14.703011 1044.9362 11.625 1048.7403 11.625 1053.375 C 11.625 1058.396 15.224365 1062.4688 19.6875 1062.4688 C 20.995603 1062.4688 22.250647 1062.1207 23.34375 1061.5 C 25.831738 1067.5381 30.26181 1071.5625 35.34375 1071.5625 C 37.663938 1071.5625 39.849274 1070.7042 41.78125 1069.2188 C 51.396922 1096.9448 79.608208 1117.0312 112.96875 1117.0312 C 131.31374 1117.0312 148.11756 1110.9519 161.125 1100.875 C 161.23926 1100.8754 161.35437 1100.875 161.46875 1100.875 C 162.79075 1100.875 164.10112 1100.8333 165.40625 1100.7812 C 178.3012 1113.0974 198.87512 1121.0625 222.0625 1121.0625 C 252.51981 1121.0625 278.48581 1107.3185 288.4375 1088.0312 C 299.91174 1085.9428 309.35981 1079.3338 313.96875 1070.5625 C 320.19886 1069.973 325.09375 1063.8891 325.09375 1056.4688 C 325.09375 1049.1589 320.34758 1043.1472 314.25 1042.4062 C 314.37616 1041.8799 314.4375 1041.3151 314.4375 1040.75 C 314.4375 1036.8747 311.31274 1033.75 307.4375 1033.75 C 306.00891 1033.75 304.67104 1034.173 303.5625 1034.9062 C 301.48301 1033.4987 299.204 1032.2829 296.78125 1031.2812 C 296.34869 1028.3464 293.80509 1026.0938 290.75 1026.0938 C 288.80416 1026.0938 287.08201 1027.0156 285.96875 1028.4375 C 284.23256 1028.2254 282.46308 1028.125 280.65625 1028.125 C 278.14574 1028.125 275.67981 1028.3463 273.3125 1028.75 C 271.58274 1025.6677 268.28595 1023.5938 264.5 1023.5938 C 261.61564 1023.5938 258.99687 1024.78 257.15625 1026.7188 C 250.1165 1023.838 242.3231 1021.7909 234.03125 1020.7812 C 232.53417 1016.6925 228.70629 1013.7306 224.15625 1013.5 C 218.7569 1007.2153 211.7631 1001.79 203.59375 997.5625 C 202.36828 993.00177 198.22888 989.65625 193.28125 989.65625 C 191.19287 989.65625 189.24074 990.24692 187.59375 991.28125 C 179.45677 988.9824 170.66498 987.71875 161.46875 987.71875 C 159.3898 987.71875 157.31728 987.81155 155.28125 987.9375 C 154.26465 985.98102 152.20096 984.65625 149.84375 984.65625 C 148.14291 984.65625 146.60673 985.3463 145.5 986.46875 C 141.21103 984.56039 136.69807 983.03945 132 981.90625 C 130.28281 978.72421 126.93193 976.5625 123.0625 976.5625 z "
       xlink:href="#path3968"
       style="color:#000000;fill:#02f615;fill-opacity:1;fill-rule:nonzero;stroke:none;stroke-width:5;marker:none;visibility:visible;display:inline;overflow:visible;enable-background:accumulate;filter:url(#filter3742)"
       id="path4141"
       inkscape:href="#path3968"
       d="m 123.0625,976.5625 c -2.88641,0 -5.49347,1.19289 -7.34375,3.125 -0.91484,-0.0305 -1.82706,-0.0312 -2.75,-0.0312 -9.57361,0 -18.711967,1.64257 -27.125,4.65625 -1.64728,-1.47297 -3.835061,-2.375 -6.21875,-2.375 -5.143509,0 -9.3125,4.16899 -9.3125,9.3125 0,0.21753 0.01658,0.44244 0.03125,0.65625 -5.003776,3.19883 -9.584089,6.95669 -13.59375,11.15625 -0.999419,-0.5781 -2.137408,-0.9063 -3.375,-0.9063 -3.752834,0 -6.8125,3.0285 -6.8125,6.7813 0,1.8214 0.739564,3.4674 1.90625,4.6875 -1.749741,2.7393 -3.29765,5.5969 -4.625,8.5625 -0.459294,-0.076 -0.954944,-0.125 -1.4375,-0.125 -4.295589,0 -7.773563,3.1586 -8.03125,7.125 -4.705002,0.4823 -8.772238,4.4164 -11.09375,10.125 -0.179874,-0.031 -0.375908,-0.062 -0.5625,-0.062 -2.231567,0 -4.03125,2.2417 -4.03125,5.0312 0,0.031 -4.58e-4,0.062 0,0.094 -3.984489,0.5612 -7.0625,4.3653 -7.0625,9 0,5.021 3.599365,9.0938 8.0625,9.0938 1.308103,0 2.563147,-0.3481 3.65625,-0.9688 2.487988,6.0381 6.91806,10.0625 12,10.0625 2.320188,0 4.505524,-0.8583 6.4375,-2.3437 9.615672,27.726 37.826958,47.8124 71.1875,47.8124 18.34499,0 35.14881,-6.0793 48.15625,-16.1562 0.11426,4e-4 0.22937,0 0.34375,0 1.322,0 2.63237,-0.042 3.9375,-0.094 12.89495,12.3162 33.46887,20.2813 56.65625,20.2813 30.45731,0 56.42331,-13.744 66.375,-33.0313 11.47424,-2.0884 20.92231,-8.6974 25.53125,-17.4687 6.23011,-0.5895 11.125,-6.6734 11.125,-14.0937 0,-7.3099 -4.74617,-13.3216 -10.84375,-14.0626 0.12616,-0.5263 0.1875,-1.0911 0.1875,-1.6562 0,-3.8753 -3.12476,-7 -7,-7 -1.42859,0 -2.76646,0.423 -3.875,1.1562 -2.07949,-1.4075 -4.3585,-2.6233 -6.78125,-3.625 -0.43256,-2.9348 -2.97616,-5.1874 -6.03125,-5.1874 -1.94584,0 -3.66799,0.9218 -4.78125,2.3437 -1.73619,-0.2121 -3.50567,-0.3125 -5.3125,-0.3125 -2.51051,0 -4.97644,0.2213 -7.34375,0.625 -1.72976,-3.0823 -5.02655,-5.1562 -8.8125,-5.1562 -2.88436,0 -5.50313,1.1862 -7.34375,3.125 -7.03975,-2.8808 -14.83315,-4.9279 -23.125,-5.9376 -1.49708,-4.0887 -5.32496,-7.0506 -9.875,-7.2812 -5.39935,-6.2847 -12.39315,-11.71 -20.5625,-15.9375 -1.22547,-4.56073 -5.36487,-7.90625 -10.3125,-7.90625 -2.08838,0 -4.04051,0.59067 -5.6875,1.625 -8.13698,-2.29885 -16.92877,-3.5625 -26.125,-3.5625 -2.07895,0 -4.15147,0.0928 -6.1875,0.21875 -1.0166,-1.95648 -3.08029,-3.28125 -5.4375,-3.28125 -1.70084,0 -3.23702,0.69005 -4.34375,1.8125 -4.28897,-1.90836 -8.80193,-3.4293 -13.5,-4.5625 -1.71719,-3.18204 -5.06807,-5.34375 -8.9375,-5.34375 z" />
    <path
       style="color:#000000;fill:url(#radialGradient4052);fill-opacity:1.0;fill-rule:nonzero;stroke:none;stroke-width:5;marker:none;visibility:visible;display:inline;overflow:visible;enable-background:accumulate;filter:url(#filter4155)"
       d="m 594.96875,1015.2684 c -3.01655,0 -5.55937,1.9943 -6.4375,4.7188 -5.27853,1.0427 -10.03098,3.5578 -13.78125,7.125 -1.30262,-0.2336 -2.63015,-0.375 -4,-0.375 -3.3737,0 -6.59386,0.7365 -9.46875,2.0625 -1.16601,-1.2479 -2.84493,-2.0313 -4.6875,-2.0313 -1.98474,0 -3.76571,0.9239 -4.9375,2.3438 -3.69396,-3.5445 -8.24945,-6.2006 -13.34375,-7.5625 -0.98192,-2.3215 -3.28956,-3.9375 -5.96875,-3.9375 -2.33667,0 -4.36331,1.2368 -5.5,3.0937 -7.21265,0.8133 -13.67263,4.1208 -18.5,9.0313 -1.53463,-0.9587 -3.33844,-1.5313 -5.28125,-1.5313 -3.73103,0 -7.00018,2.0651 -8.71875,5.0938 -2.62867,-1.0083 -5.48524,-1.5625 -8.46875,-1.5625 -3.17019,0 -6.17478,0.6496 -8.9375,1.7812 -1.54028,-2.36 -4.1903,-3.9375 -7.21875,-3.9375 -1.14186,0 -2.22118,0.2223 -3.21875,0.625 -5.02193,-3.7444 -11.25413,-5.9687 -18,-5.9687 -2.43581,0 -4.7941,0.3294 -7.0625,0.875 -0.88813,-0.537 -1.91771,-0.875 -3.03125,-0.875 -2.76718,0 -5.08702,1.9277 -5.71875,4.5 -4.23187,2.615 -7.75072,6.2533 -10.25,10.5625 -0.39116,-0.046 -0.81522,-0.062 -1.21875,-0.062 -5.57892,0 -10.09375,4.5148 -10.09375,10.0937 0,4.7231 3.24542,8.6756 7.625,9.7813 2.2646,14.4022 14.71166,25.4062 29.75,25.4062 9.13802,0 17.31715,-4.077 22.84375,-10.5 4.01312,3.1384 9.04177,5.0313 14.53125,5.0313 7.94606,0 14.99361,-3.9267 19.28125,-9.9375 5.58463,7.8967 14.77983,13.0937 25.1875,13.0937 11.26833,0 21.11945,-6.071 26.5,-15.0937 3.83413,3.0002 8.66042,4.8125 13.90625,4.8125 2.74313,0 5.34895,-0.5107 7.78125,-1.4063 4.41799,2.9435 9.73056,4.6563 15.4375,4.6563 6.54112,0 12.5583,-2.258 17.3125,-6.0313 2.7488,2.1509 6.20793,3.4688 9.96875,3.4688 7.05617,0 13.03085,-4.5468 15.25,-10.8438 3.21154,-0.9244 5.5625,-3.866 5.5625,-7.375 0,-4.2487 -3.43872,-7.7187 -7.6875,-7.7187 -0.0633,0 -0.12454,-0 -0.1875,0 -2.61826,-3.4704 -6.60686,-5.8448 -11.15625,-6.3438 0.18106,-0.6747 0.28125,-1.393 0.28125,-2.125 0,-4.2599 -3.2703,-7.7358 -7.4375,-8.0937 -3.59075,-4.566 -8.57285,-7.9705 -14.3125,-9.5938 -0.70317,-2.9924 -3.38677,-5.25 -6.59375,-5.25 z"
       id="path4011" />
    <path
       sodipodi:type="inkscape:offset"
       inkscape:radius="0"
       inkscape:original="M 594.96875 1015.2812 C 591.9522 1015.2812 589.40938 1017.2755 588.53125 1020 C 583.25272 1021.0427 578.50027 1023.5578 574.75 1027.125 C 573.44738 1026.8914 572.11985 1026.75 570.75 1026.75 C 567.3763 1026.75 564.15614 1027.4865 561.28125 1028.8125 C 560.11524 1027.5646 558.43632 1026.7812 556.59375 1026.7812 C 554.60901 1026.7812 552.82804 1027.7051 551.65625 1029.125 C 547.96229 1025.5805 543.4068 1022.9244 538.3125 1021.5625 C 537.33058 1019.241 535.02294 1017.625 532.34375 1017.625 C 530.00708 1017.625 527.98044 1018.8619 526.84375 1020.7188 C 519.6311 1021.5321 513.17112 1024.8395 508.34375 1029.75 C 506.80912 1028.7913 505.00531 1028.2188 503.0625 1028.2188 C 499.33147 1028.2188 496.06232 1030.2838 494.34375 1033.3125 C 491.71508 1032.3042 488.85851 1031.75 485.875 1031.75 C 482.70481 1031.75 479.70022 1032.3997 476.9375 1033.5312 C 475.39722 1031.1713 472.7472 1029.5938 469.71875 1029.5938 C 468.57689 1029.5938 467.49757 1029.816 466.5 1030.2188 C 461.47807 1026.4743 455.24587 1024.25 448.5 1024.25 C 446.06419 1024.25 443.7059 1024.5794 441.4375 1025.125 C 440.54937 1024.588 439.51979 1024.25 438.40625 1024.25 C 435.63907 1024.25 433.31923 1026.1777 432.6875 1028.75 C 428.45563 1031.365 424.93678 1035.0033 422.4375 1039.3125 C 422.04634 1039.2665 421.62228 1039.25 421.21875 1039.25 C 415.63983 1039.25 411.125 1043.7649 411.125 1049.3438 C 411.125 1054.0668 414.37042 1058.0193 418.75 1059.125 C 421.0146 1073.5272 433.46166 1084.5312 448.5 1084.5312 C 457.63802 1084.5312 465.81715 1080.4543 471.34375 1074.0312 C 475.35687 1077.1697 480.38552 1079.0625 485.875 1079.0625 C 493.82106 1079.0625 500.86861 1075.1358 505.15625 1069.125 C 510.74088 1077.0217 519.93608 1082.2188 530.34375 1082.2188 C 541.61208 1082.2188 551.4632 1076.1477 556.84375 1067.125 C 560.67788 1070.1252 565.50417 1071.9375 570.75 1071.9375 C 573.49313 1071.9375 576.09895 1071.4269 578.53125 1070.5312 C 582.94924 1073.4748 588.26181 1075.1875 593.96875 1075.1875 C 600.50987 1075.1875 606.52705 1072.9296 611.28125 1069.1562 C 614.03005 1071.3072 617.48918 1072.625 621.25 1072.625 C 628.30617 1072.625 634.28085 1068.0783 636.5 1061.7812 C 639.71154 1060.8568 642.0625 1057.9153 642.0625 1054.4062 C 642.0625 1050.1575 638.62378 1046.6875 634.375 1046.6875 L 634.1875 1046.6875 C 631.56924 1043.2171 627.58064 1040.8428 623.03125 1040.3438 C 623.21231 1039.669 623.3125 1038.9507 623.3125 1038.2188 C 623.3125 1033.9588 620.0422 1030.4829 615.875 1030.125 C 612.28425 1025.559 607.30215 1022.1545 601.5625 1020.5312 C 600.85933 1017.5389 598.17573 1015.2812 594.96875 1015.2812 z "
       xlink:href="#path4011"
       style="color:#000000;fill:#02f615;fill-opacity:1;fill-rule:nonzero;stroke:none;stroke-width:5;marker:none;visibility:visible;display:inline;overflow:visible;enable-background:accumulate;filter:url(#filter3742)"
       id="path4050"
       inkscape:href="#path4011"
       d="m 594.96875,1015.2812 c -3.01655,0 -5.55937,1.9943 -6.4375,4.7188 -5.27853,1.0427 -10.03098,3.5578 -13.78125,7.125 -1.30262,-0.2336 -2.63015,-0.375 -4,-0.375 -3.3737,0 -6.59386,0.7365 -9.46875,2.0625 -1.16601,-1.2479 -2.84493,-2.0313 -4.6875,-2.0313 -1.98474,0 -3.76571,0.9239 -4.9375,2.3438 -3.69396,-3.5445 -8.24945,-6.2006 -13.34375,-7.5625 -0.98192,-2.3215 -3.28956,-3.9375 -5.96875,-3.9375 -2.33667,0 -4.36331,1.2369 -5.5,3.0938 -7.21265,0.8133 -13.67263,4.1207 -18.5,9.0312 -1.53463,-0.9587 -3.33844,-1.5312 -5.28125,-1.5312 -3.73103,0 -7.00018,2.065 -8.71875,5.0937 -2.62867,-1.0083 -5.48524,-1.5625 -8.46875,-1.5625 -3.17019,0 -6.17478,0.6497 -8.9375,1.7812 -1.54028,-2.3599 -4.1903,-3.9374 -7.21875,-3.9374 -1.14186,0 -2.22118,0.2222 -3.21875,0.625 -5.02193,-3.7445 -11.25413,-5.9688 -18,-5.9688 -2.43581,0 -4.7941,0.3294 -7.0625,0.875 -0.88813,-0.537 -1.91771,-0.875 -3.03125,-0.875 -2.76718,0 -5.08702,1.9277 -5.71875,4.5 -4.23187,2.615 -7.75072,6.2533 -10.25,10.5625 -0.39116,-0.046 -0.81522,-0.062 -1.21875,-0.062 -5.57892,0 -10.09375,4.5149 -10.09375,10.0938 0,4.723 3.24542,8.6755 7.625,9.7812 2.2646,14.4022 14.71166,25.4062 29.75,25.4062 9.13802,0 17.31715,-4.0769 22.84375,-10.5 4.01312,3.1385 9.04177,5.0313 14.53125,5.0313 7.94606,0 14.99361,-3.9267 19.28125,-9.9375 5.58463,7.8967 14.77983,13.0938 25.1875,13.0938 11.26833,0 21.11945,-6.0711 26.5,-15.0938 3.83413,3.0002 8.66042,4.8125 13.90625,4.8125 2.74313,0 5.34895,-0.5106 7.78125,-1.4063 4.41799,2.9436 9.73056,4.6563 15.4375,4.6563 6.54112,0 12.5583,-2.2579 17.3125,-6.0313 2.7488,2.151 6.20793,3.4688 9.96875,3.4688 7.05617,0 13.03085,-4.5467 15.25,-10.8438 3.21154,-0.9244 5.5625,-3.8659 5.5625,-7.375 0,-4.2487 -3.43872,-7.7187 -7.6875,-7.7187 l -0.1875,0 c -2.61826,-3.4704 -6.60686,-5.8447 -11.15625,-6.3437 0.18106,-0.6748 0.28125,-1.3931 0.28125,-2.125 0,-4.26 -3.2703,-7.7359 -7.4375,-8.0938 -3.59075,-4.566 -8.57285,-7.9705 -14.3125,-9.5938 -0.70317,-2.9923 -3.38677,-5.25 -6.59375,-5.25 z" />
    <path
       style="color:#000000;fill:url(#radialGradient4121);fill-opacity:1.0;fill-rule:nonzero;stroke:none;stroke-width:5;marker:none;visibility:visible;display:inline;overflow:visible;enable-background:accumulate;filter:url(#filter4155)"
       d="m 877.15625,1011.5184 c -4.41052,0 -8,3.5895 -8,8 0,0.1165 -0.005,0.2285 0,0.3438 -2.57749,2.0614 -4.75703,4.5568 -6.5,7.375 -0.79239,-0.4108 -1.70211,-0.625 -2.65625,-0.625 -2.54927,0 -4.71086,1.6422 -5.46875,3.9375 -2.10253,-0.6894 -4.35448,-1.0313 -6.6875,-1.0313 -5.34654,0 -10.21486,1.9494 -13.96875,5.1875 -0.55694,-2.4126 -2.73065,-4.2187 -5.3125,-4.2187 -1.32994,0 -2.52367,0.4886 -3.46875,1.2812 -0.73118,-0.095 -1.49294,-0.1562 -2.25,-0.1562 -3.3028,0 -6.38162,0.9465 -9,2.5625 0.007,-0.1254 0.0312,-0.2479 0.0312,-0.375 0,-3.7216 -2.99715,-6.75 -6.71875,-6.75 -0.64367,0 -1.28545,0.1127 -1.875,0.2812 -3.41519,-2.0751 -7.43052,-3.2812 -11.71875,-3.2812 -0.70556,0 -1.40471,0.031 -2.09375,0.094 -0.70543,-0.8202 -1.73958,-1.3438 -2.90625,-1.3438 -1.83771,0 -3.36871,1.277 -3.75,3 -1.59664,0.672 -3.08391,1.559 -4.46875,2.5625 -0.78772,-0.2599 -1.6252,-0.4062 -2.5,-0.4062 -4.31524,0 -7.81886,3.4088 -7.96875,7.6875 -4.21383,0.028 -8.09055,1.4528 -11.21875,3.8125 -1.20373,-1.6837 -2.68708,-3.1456 -4.375,-4.3438 -0.72864,-4.0791 -4.27383,-7.1875 -8.5625,-7.1875 -3.32504,0 -6.21693,1.8563 -7.6875,4.5938 -0.34789,0.1088 -0.69251,0.2465 -1.03125,0.375 -3.28218,-3.2031 -7.77036,-5.1563 -12.71875,-5.1563 -0.20245,0 -0.3929,0.025 -0.59375,0.031 -1.32273,-1.2764 -3.14165,-2.0312 -5.125,-2.0312 -4.06151,0 -7.34375,3.2822 -7.34375,7.3437 0,0.053 -10e-4,0.1038 0,0.1563 -1.88636,1.941 -3.31198,4.3113 -4.1875,6.9375 -1.36652,-0.6733 -2.83646,-1.1999 -4.375,-1.5 -1.52615,-2.6467 -4.38164,-4.4375 -7.65625,-4.4375 -4.87956,0 -8.84375,3.9642 -8.84375,8.8437 0,0.3264 0.028,0.6516 0.0625,0.9688 -4.09217,0.1159 -7.375,3.4735 -7.375,7.5937 0,2.4544 1.16213,4.6433 2.96875,6.0313 0.8715,8.8885 8.35119,15.8125 17.46875,15.8125 7.55813,0 13.98929,-4.7728 16.46875,-11.4688 2.54515,1.3523 5.44822,2.125 8.53125,2.125 2.10682,0 4.11774,-0.3731 6,-1.0312 3.36807,3.4743 8.06021,5.625 13.28125,5.625 4.06454,0 7.82011,-1.3123 10.875,-3.5313 3.40372,4.9363 9.11312,8.1564 15.56255,8.1564 5.57646,0 10.57655,-2.4044 14.03125,-6.25 2.90089,1.3554 6.11792,2.125 9.53125,2.125 6.96954,0 13.20034,-3.1636 17.34375,-8.125 3.09169,2.9989 7.29011,4.8437 11.9375,4.8437 2.90396,0 5.63316,-0.7275 8.03125,-2 3.91729,5.0973 10.04319,8.4063 16.96875,8.4063 7.75115,0 14.54963,-4.1163 18.3125,-10.2813 5.2527,5.5948 12.72027,9.0625 21,9.0625 6.05965,0 11.67392,-1.8654 16.3125,-5.0625 3.98478,3.6359 9.27441,5.8438 15.09375,5.8438 4.71474,0 9.07744,-1.4826 12.6875,-3.9688 4.75399,6.3569 12.35773,10.4688 20.90625,10.4688 5.22721,0 10.07581,-1.5387 14.15625,-4.1875 3.88173,2.6961 8.60326,4.2812 13.6875,4.2812 10.2315,0 18.97964,-6.3916 22.4375,-15.4062 4.8865,-0.1201 9.0084,-3.3214 10.5313,-7.7188 0.1971,0.026 0.3893,0.062 0.5937,0.062 2.495,0 4.5313,-2.0362 4.5313,-4.5312 0,-2.495 -2.0363,-4.5 -4.5313,-4.5 -0.4031,0 -0.7843,0.057 -1.1563,0.1562 -1.8699,-3.7812 -5.746,-6.375 -10.25,-6.375 -0.031,0 -0.063,-2e-4 -0.094,0 0.057,-0.2245 0.094,-0.4453 0.094,-0.6875 0,-1.5779 -1.297,-2.875 -2.87495,-2.875 -0.87944,0 -1.66339,0.4063 -2.1875,1.0313 -3.22647,-3.2793 -7.36659,-5.6237 -12.03125,-6.625 -1.10717,-1.6148 -2.95674,-2.6875 -5.0625,-2.6875 -2.10576,0 -3.95533,1.0727 -5.0625,2.6875 -1.91932,0.412 -3.74985,1.0343 -5.46875,1.875 -4.60838,-4.1115 -10.65067,-6.625 -17.3125,-6.625 -1.27276,0 -2.52603,0.074 -3.75,0.25 -0.82832,-0.9558 -2.0422,-1.5625 -3.40625,-1.5625 -2.32823,0 -4.22293,1.7684 -4.46875,4.0312 -2.32577,1.1597 -4.44618,2.6672 -6.3125,4.4375 -4.03934,-3.9361 -9.57073,-6.375 -15.65625,-6.375 -0.0627,0 -0.12493,-5e-4 -0.1875,0 -0.48443,-3.4128 -3.39086,-6.0312 -6.9375,-6.0312 -1.38986,0 -2.69017,0.3981 -3.78125,1.0937 -2.09607,-2.128 -4.51646,-3.9159 -7.1875,-5.3125 -0.82763,-2.6184 -3.29539,-4.5 -6.1875,-4.5 -1.52267,0 -2.92625,0.5259 -4.03125,1.4063 -1.01939,-0.1093 -2.04535,-0.1563 -3.09375,-0.1563 -1.4696,0 -2.93338,0.1001 -4.34375,0.3125 -1.44754,-1.4634 -3.43525,-2.375 -5.65625,-2.375 z"
       id="path4054" />
    <path
       sodipodi:type="inkscape:offset"
       inkscape:radius="0"
       inkscape:original="M 877.15625 1011.5312 C 872.74573 1011.5312 869.15625 1015.1208 869.15625 1019.5312 C 869.15625 1019.6477 869.15125 1019.7597 869.15625 1019.875 C 866.57876 1021.9364 864.39922 1024.4318 862.65625 1027.25 C 861.86386 1026.8392 860.95414 1026.625 860 1026.625 C 857.45073 1026.625 855.28914 1028.2672 854.53125 1030.5625 C 852.42872 1029.8731 850.17677 1029.5312 847.84375 1029.5312 C 842.49721 1029.5312 837.62889 1031.4806 833.875 1034.7188 C 833.31806 1032.3061 831.14435 1030.5 828.5625 1030.5 C 827.23256 1030.5 826.03883 1030.9887 825.09375 1031.7812 C 824.36257 1031.6862 823.60081 1031.625 822.84375 1031.625 C 819.54095 1031.625 816.46213 1032.5715 813.84375 1034.1875 C 813.85075 1034.0621 813.875 1033.9396 813.875 1033.8125 C 813.875 1030.0909 810.87785 1027.0625 807.15625 1027.0625 C 806.51258 1027.0625 805.8708 1027.1753 805.28125 1027.3438 C 801.86606 1025.2686 797.85073 1024.0625 793.5625 1024.0625 C 792.85694 1024.0625 792.15779 1024.0932 791.46875 1024.1562 C 790.76332 1023.3361 789.72917 1022.8125 788.5625 1022.8125 C 786.72479 1022.8125 785.19379 1024.0895 784.8125 1025.8125 C 783.21586 1026.4845 781.72859 1027.3715 780.34375 1028.375 C 779.55603 1028.1151 778.71855 1027.9688 777.84375 1027.9688 C 773.52851 1027.9688 770.02489 1031.3775 769.875 1035.6562 C 765.66117 1035.6843 761.78445 1037.1091 758.65625 1039.4688 C 757.45252 1037.785 755.96917 1036.3232 754.28125 1035.125 C 753.55261 1031.0459 750.00742 1027.9375 745.71875 1027.9375 C 742.39371 1027.9375 739.50182 1029.7937 738.03125 1032.5312 C 737.68336 1032.64 737.33874 1032.7777 737 1032.9062 C 733.71782 1029.7032 729.22964 1027.75 724.28125 1027.75 C 724.0788 1027.75 723.88835 1027.7753 723.6875 1027.7812 C 722.36477 1026.5049 720.54585 1025.75 718.5625 1025.75 C 714.50099 1025.75 711.21875 1029.0323 711.21875 1033.0938 C 711.21875 1033.1468 711.21775 1033.1975 711.21875 1033.25 C 709.33239 1035.191 707.90677 1037.5613 707.03125 1040.1875 C 705.66473 1039.5142 704.19479 1038.9876 702.65625 1038.6875 C 701.1301 1036.0408 698.27461 1034.25 695 1034.25 C 690.12044 1034.25 686.15625 1038.2142 686.15625 1043.0938 C 686.15625 1043.4201 686.18425 1043.7453 686.21875 1044.0625 C 682.12658 1044.1784 678.84375 1047.5361 678.84375 1051.6562 C 678.84375 1054.1107 680.00588 1056.2995 681.8125 1057.6875 C 682.684 1066.576 690.16369 1073.5 699.28125 1073.5 C 706.83938 1073.5 713.27054 1068.7273 715.75 1062.0312 C 718.29515 1063.3836 721.19822 1064.1562 724.28125 1064.1562 C 726.38807 1064.1562 728.39899 1063.7831 730.28125 1063.125 C 733.64932 1066.5993 738.34146 1068.75 743.5625 1068.75 C 747.62704 1068.75 751.38261 1067.4378 754.4375 1065.2188 C 757.84122 1070.1551 763.55057 1073.375 770 1073.375 C 775.57646 1073.375 780.57655 1070.9706 784.03125 1067.125 C 786.93214 1068.4804 790.14917 1069.25 793.5625 1069.25 C 800.53204 1069.25 806.76284 1066.0864 810.90625 1061.125 C 813.99794 1064.1239 818.19636 1065.9688 822.84375 1065.9688 C 825.74771 1065.9688 828.47691 1065.2413 830.875 1063.9688 C 834.79229 1069.066 840.91819 1072.375 847.84375 1072.375 C 855.5949 1072.375 862.39338 1068.2588 866.15625 1062.0938 C 871.40895 1067.6886 878.87652 1071.1562 887.15625 1071.1562 C 893.2159 1071.1562 898.83017 1069.2909 903.46875 1066.0938 C 907.45353 1069.7296 912.74316 1071.9375 918.5625 1071.9375 C 923.27724 1071.9375 927.63994 1070.455 931.25 1067.9688 C 936.00399 1074.3256 943.60773 1078.4375 952.15625 1078.4375 C 957.38346 1078.4375 962.23206 1076.8988 966.3125 1074.25 C 970.19423 1076.9461 974.91576 1078.5312 980 1078.5312 C 990.2315 1078.5312 998.97964 1072.1396 1002.4375 1063.125 C 1007.324 1063.0049 1011.4459 1059.8037 1012.9688 1055.4062 C 1013.1658 1055.4323 1013.3581 1055.4688 1013.5625 1055.4688 C 1016.0575 1055.4688 1018.0938 1053.4325 1018.0938 1050.9375 C 1018.0938 1048.4425 1016.0575 1046.4375 1013.5625 1046.4375 C 1013.1594 1046.4375 1012.7782 1046.4946 1012.4062 1046.5938 C 1010.5363 1042.8126 1006.6603 1040.2188 1002.1562 1040.2188 C 1002.1253 1040.2188 1002.0935 1040.2186 1002.0625 1040.2188 C 1002.1195 1039.9942 1002.1562 1039.7734 1002.1562 1039.5312 C 1002.1562 1037.9534 1000.8592 1036.6562 999.28125 1036.6562 C 998.40181 1036.6562 997.61786 1037.0625 997.09375 1037.6875 C 993.86728 1034.4082 989.72716 1032.0638 985.0625 1031.0625 C 983.95533 1029.4477 982.10576 1028.375 980 1028.375 C 977.89424 1028.375 976.04467 1029.4477 974.9375 1031.0625 C 973.01818 1031.4745 971.18765 1032.0968 969.46875 1032.9375 C 964.86037 1028.826 958.81808 1026.3125 952.15625 1026.3125 C 950.88349 1026.3125 949.63022 1026.3865 948.40625 1026.5625 C 947.57793 1025.6067 946.36405 1025 945 1025 C 942.67177 1025 940.77707 1026.7685 940.53125 1029.0312 C 938.20548 1030.1909 936.08507 1031.6985 934.21875 1033.4688 C 930.17941 1029.5327 924.64802 1027.0938 918.5625 1027.0938 C 918.4998 1027.0938 918.43757 1027.0932 918.375 1027.0938 C 917.89057 1023.681 914.98414 1021.0625 911.4375 1021.0625 C 910.04764 1021.0625 908.74733 1021.4606 907.65625 1022.1562 C 905.56018 1020.0282 903.13979 1018.2404 900.46875 1016.8438 C 899.64112 1014.2254 897.17336 1012.3438 894.28125 1012.3438 C 892.75858 1012.3438 891.355 1012.8696 890.25 1013.75 C 889.23061 1013.6407 888.20465 1013.5938 887.15625 1013.5938 C 885.68665 1013.5938 884.22287 1013.6938 882.8125 1013.9062 C 881.36496 1012.4429 879.37725 1011.5312 877.15625 1011.5312 z "
       xlink:href="#path4054"
       style="color:#000000;fill:#02f615;fill-opacity:1;fill-rule:nonzero;stroke:none;stroke-width:5;marker:none;visibility:visible;display:inline;overflow:visible;enable-background:accumulate;filter:url(#filter3742)"
       id="path4119"
       inkscape:href="#path4054"
       d="m 877.15625,1011.5312 c -4.41052,0 -8,3.5896 -8,8 0,0.1165 -0.005,0.2285 0,0.3438 -2.57749,2.0614 -4.75703,4.5568 -6.5,7.375 -0.79239,-0.4108 -1.70211,-0.625 -2.65625,-0.625 -2.54927,0 -4.71086,1.6422 -5.46875,3.9375 -2.10253,-0.6894 -4.35448,-1.0313 -6.6875,-1.0313 -5.34654,0 -10.21486,1.9494 -13.96875,5.1876 -0.55694,-2.4127 -2.73065,-4.2188 -5.3125,-4.2188 -1.32994,0 -2.52367,0.4887 -3.46875,1.2812 -0.73118,-0.095 -1.49294,-0.1562 -2.25,-0.1562 -3.3028,0 -6.38162,0.9465 -9,2.5625 0.007,-0.1254 0.0312,-0.2479 0.0312,-0.375 0,-3.7216 -2.99715,-6.75 -6.71875,-6.75 -0.64367,0 -1.28545,0.1128 -1.875,0.2813 -3.41519,-2.0752 -7.43052,-3.2813 -11.71875,-3.2813 -0.70556,0 -1.40471,0.031 -2.09375,0.094 -0.70543,-0.8201 -1.73958,-1.3437 -2.90625,-1.3437 -1.83771,0 -3.36871,1.277 -3.75,3 -1.59664,0.672 -3.08391,1.559 -4.46875,2.5625 -0.78772,-0.2599 -1.6252,-0.4062 -2.5,-0.4062 -4.31524,0 -7.81886,3.4087 -7.96875,7.6874 -4.21383,0.028 -8.09055,1.4529 -11.21875,3.8126 -1.20373,-1.6838 -2.68708,-3.1456 -4.375,-4.3438 -0.72864,-4.0791 -4.27383,-7.1875 -8.5625,-7.1875 -3.32504,0 -6.21693,1.8562 -7.6875,4.5937 -0.34789,0.1088 -0.69251,0.2465 -1.03125,0.375 -3.28218,-3.203 -7.77036,-5.1562 -12.71875,-5.1562 -0.20245,0 -0.3929,0.025 -0.59375,0.031 -1.32273,-1.2763 -3.14165,-2.0312 -5.125,-2.0312 -4.06151,0 -7.34375,3.2823 -7.34375,7.3438 0,0.053 -10e-4,0.1037 0,0.1562 -1.88636,1.941 -3.31198,4.3113 -4.1875,6.9375 -1.36652,-0.6733 -2.83646,-1.1999 -4.375,-1.5 -1.52615,-2.6467 -4.38164,-4.4375 -7.65625,-4.4375 -4.87956,0 -8.84375,3.9642 -8.84375,8.8438 0,0.3263 0.028,0.6515 0.0625,0.9687 -4.09217,0.1159 -7.375,3.4736 -7.375,7.5937 0,2.4545 1.16213,4.6433 2.96875,6.0313 0.8715,8.8885 8.35119,15.8125 17.46875,15.8125 7.55813,0 13.98929,-4.7727 16.46875,-11.4688 2.54515,1.3524 5.44822,2.125 8.53125,2.125 2.10682,0 4.11774,-0.3731 6,-1.0312 3.36807,3.4743 8.06021,5.625 13.28125,5.625 4.06454,0 7.82011,-1.3122 10.875,-3.5312 3.40372,4.9363 9.11307,8.1562 15.5625,8.1562 5.57646,0 10.57655,-2.4044 14.03125,-6.25 2.90089,1.3554 6.11792,2.125 9.53125,2.125 6.96954,0 13.20034,-3.1636 17.34375,-8.125 3.09169,2.9989 7.29011,4.8438 11.9375,4.8438 2.90396,0 5.63316,-0.7275 8.03125,-2 3.91729,5.0972 10.04319,8.4062 16.96875,8.4062 7.75115,0 14.54963,-4.1162 18.3125,-10.2812 5.2527,5.5948 12.72027,9.0624 21,9.0624 6.05965,0 11.67392,-1.8653 16.3125,-5.0624 3.98478,3.6358 9.27441,5.8437 15.09375,5.8437 4.71474,0 9.07744,-1.4825 12.6875,-3.9687 4.75399,6.3568 12.35773,10.4687 20.90625,10.4687 5.22721,0 10.07581,-1.5387 14.15625,-4.1875 3.88173,2.6961 8.60326,4.2812 13.6875,4.2812 10.2315,0 18.97964,-6.3916 22.4375,-15.4062 4.8865,-0.1201 9.0084,-3.3213 10.5313,-7.7188 0.197,0.026 0.3893,0.063 0.5937,0.063 2.495,0 4.5313,-2.0363 4.5313,-4.5313 0,-2.495 -2.0363,-4.5 -4.5313,-4.5 -0.4031,0 -0.7843,0.057 -1.1563,0.1563 -1.8699,-3.7812 -5.7459,-6.375 -10.25,-6.375 -0.031,0 -0.063,-2e-4 -0.094,0 0.057,-0.2246 0.094,-0.4454 0.094,-0.6876 0,-1.5778 -1.297,-2.875 -2.87495,-2.875 -0.87944,0 -1.66339,0.4063 -2.1875,1.0313 -3.22647,-3.2793 -7.36659,-5.6237 -12.03125,-6.625 -1.10717,-1.6148 -2.95674,-2.6875 -5.0625,-2.6875 -2.10576,0 -3.95533,1.0727 -5.0625,2.6875 -1.91932,0.412 -3.74985,1.0343 -5.46875,1.875 -4.60838,-4.1115 -10.65067,-6.625 -17.3125,-6.625 -1.27276,0 -2.52603,0.074 -3.75,0.25 C 947.57793,1025.6067 946.36405,1025 945,1025 c -2.32823,0 -4.22293,1.7685 -4.46875,4.0312 -2.32577,1.1597 -4.44618,2.6673 -6.3125,4.4376 -4.03934,-3.9361 -9.57073,-6.375 -15.65625,-6.375 -0.0627,0 -0.12493,-6e-4 -0.1875,0 -0.48443,-3.4128 -3.39086,-6.0313 -6.9375,-6.0313 -1.38986,0 -2.69017,0.3981 -3.78125,1.0937 -2.09607,-2.128 -4.51646,-3.9158 -7.1875,-5.3124 -0.82763,-2.6184 -3.29539,-4.5 -6.1875,-4.5 -1.52267,0 -2.92625,0.5258 -4.03125,1.4062 -1.01939,-0.1093 -2.04535,-0.1562 -3.09375,-0.1562 -1.4696,0 -2.93338,0.1 -4.34375,0.3124 -1.44754,-1.4633 -3.43525,-2.375 -5.65625,-2.375 z" />
  </g>
</svg>
