<?xml version="1.0" encoding="UTF-8" standalone="no"?>
<!-- Created with Inkscape (http://www.inkscape.org/) -->

<svg
   xmlns:dc="http://purl.org/dc/elements/1.1/"
   xmlns:cc="http://creativecommons.org/ns#"
   xmlns:rdf="http://www.w3.org/1999/02/22-rdf-syntax-ns#"
   xmlns:svg="http://www.w3.org/2000/svg"
   xmlns="http://www.w3.org/2000/svg"
   xmlns:xlink="http://www.w3.org/1999/xlink"
   xmlns:sodipodi="http://sodipodi.sourceforge.net/DTD/sodipodi-0.dtd"
   xmlns:inkscape="http://www.inkscape.org/namespaces/inkscape"
   width="2048"
   height="1024"
   id="svg2"
   sodipodi:version="0.32"
   inkscape:version="0.46+devel 22040"
   version="1.0"
   sodipodi:docname="snow_hills_2.svg"
   inkscape:output_extension="org.inkscape.output.svg.inkscape"
   inkscape:export-filename="C:\Dateien\Desktop\Secret Maryo Chronicles\SMC\data\pixmaps\game\background\snow_hills_2.png"
   inkscape:export-xdpi="90"
   inkscape:export-ydpi="90">
  <defs
     id="defs4">
    <linearGradient
       id="linearGradient3764">
      <stop
         style="stop-color:#dffbfe;stop-opacity:0.1254902"
         offset="0"
         id="stop3766" />
      <stop
         style="stop-color:#dffbfe;stop-opacity:0.03137255;"
         offset="1"
         id="stop3768" />
    </linearGradient>
    <linearGradient
       id="linearGradient3681">
      <stop
         style="stop-color:#eef9ff;stop-opacity:1;"
         offset="0"
         id="stop3683" />
      <stop
         style="stop-color:#d3f2fe;stop-opacity:0.50196081;"
         offset="1"
         id="stop3687" />
    </linearGradient>
    <inkscape:perspective
       sodipodi:type="inkscape:persp3d"
       inkscape:vp_x="0 : 512 : 1"
       inkscape:vp_y="0 : 1000 : 0"
       inkscape:vp_z="2048 : 512 : 1"
       inkscape:persp3d-origin="1024 : 341.33333 : 1"
       id="perspective96" />
    <linearGradient
       id="linearGradient6975">
      <stop
         id="stop6977"
         offset="0"
         style="stop-color:#daf4fc;stop-opacity:1;" />
      <stop
         style="stop-color:#bfe8ff;stop-opacity:1;"
         offset="0.11560693"
         id="stop6995" />
      <stop
         id="stop6979"
         offset="1"
         style="stop-color:#cde0f5;stop-opacity:1;" />
    </linearGradient>
    <linearGradient
       id="linearGradient6969">
      <stop
         id="stop6971"
         offset="0"
         style="stop-color:#ffffff;stop-opacity:0.50196081;" />
      <stop
         id="stop6973"
         offset="1"
         style="stop-color:#ffffff;stop-opacity:0.50196081;" />
    </linearGradient>
    <linearGradient
       id="linearGradient6935">
      <stop
         id="stop6937"
         offset="0"
         style="stop-color:#5bd1ff;stop-opacity:0.50196081;" />
      <stop
         style="stop-color:#b5e8ff;stop-opacity:0.50196081;"
         offset="0.68504184"
         id="stop6939" />
      <stop
         style="stop-color:#d2f1ff;stop-opacity:0;"
         offset="1"
         id="stop6941" />
    </linearGradient>
    <linearGradient
       inkscape:collect="always"
       id="linearGradient15301">
      <stop
         style="stop-color:#ffffff;stop-opacity:1;"
         offset="0"
         id="stop15303" />
      <stop
         style="stop-color:#ffffff;stop-opacity:0;"
         offset="1"
         id="stop15305" />
    </linearGradient>
    <pattern
       patternUnits="userSpaceOnUse"
       width="116.26073"
       height="133.67351"
       patternTransform="translate(137.63768,118.10804)"
       id="pattern10087">
      <g
         transform="translate(-34.637679,-110.60804)"
         id="g8404">
        <path
           style="fill:none;fill-rule:evenodd;stroke:#45941f;stroke-width:1px;stroke-linecap:butt;stroke-linejoin:miter;stroke-opacity:1"
           d="M 48,141.28155 C 48,141.28155 76,223.78155 61.5,242.78155"
           id="path6740"
           inkscape:tile-w="18.666717"
           inkscape:tile-h="102.5"
           inkscape:tile-cx="27.833358"
           inkscape:tile-cy="191.25" />
        <use
           x="0"
           y="0"
           inkscape:tiled-clone-of="#path6740"
           xlink:href="#path6740"
           transform="matrix(0.9986226,-5.2468808e-2,5.2372796e-2,0.9967952,-20.195973,5.0053556)"
           id="use8324"
           style="fill:#000000;stroke:#000000"
           width="256"
           height="256" />
        <use
           x="0"
           y="0"
           inkscape:tiled-clone-of="#path6740"
           xlink:href="#path6740"
           transform="matrix(0.9903274,-0.1387506,0.1105043,0.7887204,-20.67483,59.881737)"
           id="use8326"
           style="fill:#000000;stroke:#000000"
           width="256"
           height="256" />
        <use
           x="0"
           y="0"
           inkscape:tiled-clone-of="#path6740"
           xlink:href="#path6740"
           transform="matrix(0.9995476,-3.0074997e-2,2.7438729e-2,0.9119308,-8.3328004,23.253606)"
           id="use8328"
           style="fill:#000000;stroke:#000000"
           width="256"
           height="256" />
        <use
           x="0"
           y="0"
           inkscape:tiled-clone-of="#path6740"
           xlink:href="#path6740"
           transform="matrix(0.9926894,-0.1206971,0.1193381,0.9815127,-19.863042,11.91407)"
           id="use8330"
           style="fill:#000000;stroke:#000000"
           width="256"
           height="256" />
        <use
           x="0"
           y="0"
           inkscape:tiled-clone-of="#path6740"
           xlink:href="#path6740"
           transform="matrix(0.9968677,-7.9087437e-2,9.3842786e-2,1.1828534,-9.2950633,-39.574203)"
           id="use8332"
           style="fill:#000000;stroke:#000000"
           width="256"
           height="256" />
        <use
           x="0"
           y="0"
           inkscape:tiled-clone-of="#path6740"
           xlink:href="#path6740"
           transform="matrix(0.99472,0.1026262,-0.1291987,1.2522788,38.382089,-67.621158)"
           id="use8334"
           style="fill:#000000;stroke:#000000"
           width="256"
           height="256" />
        <use
           x="0"
           y="0"
           inkscape:tiled-clone-of="#path6740"
           xlink:href="#path6740"
           transform="matrix(0.9885463,-0.1509182,0.1672853,1.0957542,-14.596318,-13.992298)"
           id="use8336"
           style="fill:#000000;stroke:#000000"
           width="256"
           height="256" />
        <use
           x="0"
           y="0"
           inkscape:tiled-clone-of="#path6740"
           xlink:href="#path6740"
           transform="matrix(0.9991437,4.1375224e-2,-4.7247844e-2,1.1409578,30.172514,-36.800836)"
           id="use8338"
           style="fill:#000000;stroke:#000000"
           width="256"
           height="256" />
        <use
           x="0"
           y="0"
           inkscape:tiled-clone-of="#path6740"
           xlink:href="#path6740"
           transform="matrix(0.9921178,0.1253085,-0.1301964,1.0308172,48.564702,-15.197979)"
           id="use8340"
           style="fill:#000000;stroke:#000000"
           width="256"
           height="256" />
        <use
           x="0"
           y="0"
           inkscape:tiled-clone-of="#path6740"
           xlink:href="#path6740"
           transform="matrix(0.9994426,3.3384447e-2,-3.2964458e-2,0.9868692,34.043234,1.1379275)"
           id="use8342"
           style="fill:#000000;stroke:#000000"
           width="256"
           height="256" />
        <use
           x="0"
           y="0"
           inkscape:tiled-clone-of="#path6740"
           xlink:href="#path6740"
           transform="matrix(0.9891447,-0.1469447,0.1470032,0.9895382,2.3930447,11.576932)"
           id="use8344"
           style="fill:#000000;stroke:#000000"
           width="256"
           height="256" />
        <use
           x="0"
           y="0"
           inkscape:tiled-clone-of="#path6740"
           xlink:href="#path6740"
           transform="matrix(0.9989826,4.509654e-2,-4.328814e-2,0.9589228,42.194944,7.2094767)"
           id="use8346"
           style="fill:#000000;stroke:#000000"
           width="256"
           height="256" />
        <use
           x="0"
           y="0"
           inkscape:tiled-clone-of="#path6740"
           xlink:href="#path6740"
           transform="matrix(0.9922861,-0.1239692,0.1048251,0.839051,15.575832,46.739778)"
           id="use8348"
           style="fill:#000000;stroke:#000000"
           width="256"
           height="256" />
        <use
           x="0"
           y="0"
           inkscape:tiled-clone-of="#path6740"
           xlink:href="#path6740"
           transform="matrix(0.9961604,-8.7546702e-2,0.1115387,1.2691565,17.035552,-60.026479)"
           id="use8350"
           style="fill:#000000;stroke:#000000"
           width="256"
           height="256" />
        <use
           x="0"
           y="0"
           inkscape:tiled-clone-of="#path6740"
           xlink:href="#path6740"
           transform="matrix(0.9965649,-8.2815824e-2,7.1468369e-2,0.8600152,27.260413,39.114416)"
           id="use8352"
           style="fill:#000000;stroke:#000000"
           width="256"
           height="256" />
        <use
           x="0"
           y="0"
           inkscape:tiled-clone-of="#path6740"
           xlink:href="#path6740"
           transform="matrix(0.9931081,-0.117202,0.1364748,1.1564151,17.707355,-30.806323)"
           id="use8354"
           style="fill:#000000;stroke:#000000"
           width="256"
           height="256" />
        <use
           x="0"
           y="0"
           inkscape:tiled-clone-of="#path6740"
           xlink:href="#path6740"
           transform="matrix(0.9989472,-4.5874767e-2,4.9211581e-2,1.0716081,36.511419,-14.581692)"
           id="use8356"
           style="fill:#000000;stroke:#000000"
           width="256"
           height="256" />
        <use
           x="0"
           y="0"
           inkscape:tiled-clone-of="#path6740"
           xlink:href="#path6740"
           transform="matrix(0.9976658,6.8286301e-2,-8.5389273e-2,1.2475409,64.682054,-64.35709)"
           id="use8358"
           style="fill:#000000;stroke:#000000"
           width="256"
           height="256" />
        <use
           x="0"
           y="0"
           inkscape:tiled-clone-of="#path6740"
           xlink:href="#path6740"
           transform="matrix(0.9979087,6.4638518e-2,-7.3884333e-2,1.1406484,64.170752,-38.15667)"
           id="use8360"
           style="fill:#000000;stroke:#000000"
           width="256"
           height="256" />
        <use
           x="0"
           y="0"
           inkscape:tiled-clone-of="#path6740"
           xlink:href="#path6740"
           transform="matrix(0.9993984,-3.4681396e-2,3.7865144e-2,1.0911431,44.499317,-20.017404)"
           id="use8362"
           style="fill:#000000;stroke:#000000"
           width="256"
           height="256" />
        <use
           x="0"
           y="0"
           inkscape:tiled-clone-of="#path6740"
           xlink:href="#path6740"
           transform="matrix(0.9912877,-0.1317141,0.1475907,1.1107761,26.760504,-18.823253)"
           id="use8364"
           style="fill:#000000;stroke:#000000"
           width="256"
           height="256" />
        <use
           x="0"
           y="0"
           inkscape:tiled-clone-of="#path6740"
           xlink:href="#path6740"
           transform="matrix(0.999434,3.3639876e-2,-2.8831362e-2,0.856574,62.458154,32.789447)"
           id="use8366"
           style="fill:#000000;stroke:#000000"
           width="256"
           height="256" />
        <use
           x="0"
           y="0"
           inkscape:tiled-clone-of="#path6740"
           xlink:href="#path6740"
           transform="matrix(0.9903855,0.138335,-0.1397591,1.0005811,85.25044,-8.6512499)"
           id="use8368"
           style="fill:#000000;stroke:#000000"
           width="256"
           height="256" />
        <use
           x="0"
           y="0"
           inkscape:tiled-clone-of="#path6740"
           xlink:href="#path6740"
           transform="matrix(0.9916875,0.1286698,-0.1313907,1.0126586,87.114382,-10.991726)"
           id="use8370"
           style="fill:#000000;stroke:#000000"
           width="256"
           height="256" />
        <use
           x="0"
           y="0"
           inkscape:tiled-clone-of="#path6740"
           xlink:href="#path6740"
           transform="matrix(0.9998722,-1.5984256e-2,1.6911564e-2,1.0578787,58.733075,-13.083148)"
           id="use8372"
           style="fill:#000000;stroke:#000000"
           width="256"
           height="256" />
        <use
           x="0"
           y="0"
           inkscape:tiled-clone-of="#path6740"
           xlink:href="#path6740"
           transform="matrix(0.9998857,-1.5120733e-2,1.6591486e-2,1.0971419,61.801759,-22.678088)"
           id="use8374"
           style="fill:#000000;stroke:#000000"
           width="256"
           height="256" />
        <use
           x="0"
           y="0"
           inkscape:tiled-clone-of="#path6740"
           xlink:href="#path6740"
           transform="matrix(0.9982081,5.9837512e-2,-4.2293325e-2,0.7055364,75.090485,67.889964)"
           id="use8376"
           style="fill:#000000;stroke:#000000"
           width="256"
           height="256" />
        <use
           x="0"
           y="0"
           inkscape:tiled-clone-of="#path6740"
           xlink:href="#path6740"
           transform="matrix(0.996031,-8.9007138e-2,7.3689438e-2,0.8246189,54.771377,48.098287)"
           id="use8378"
           style="fill:#000000;stroke:#000000"
           width="256"
           height="256" />
        <use
           x="0"
           y="0"
           inkscape:tiled-clone-of="#path6740"
           xlink:href="#path6740"
           transform="matrix(0.9915584,0.1296608,-0.1541878,1.179124,99.773136,-51.507384)"
           id="use8380"
           style="fill:#000000;stroke:#000000"
           width="256"
           height="256" />
        <use
           x="0"
           y="0"
           inkscape:tiled-clone-of="#path6740"
           xlink:href="#path6740"
           transform="matrix(0.9997259,2.3412219e-2,-2.9373353e-2,1.2542725,76.431879,-63.23257)"
           id="use8382"
           style="fill:#000000;stroke:#000000"
           width="256"
           height="256" />
        <use
           x="0"
           y="0"
           inkscape:tiled-clone-of="#path6740"
           xlink:href="#path6740"
           transform="matrix(0.9966896,8.1301109e-2,-0.1033336,1.2667913,92.639222,-69.835715)"
           id="use8384"
           style="fill:#000000;stroke:#000000"
           width="256"
           height="256" />
        <use
           x="0"
           y="0"
           inkscape:tiled-clone-of="#path6740"
           xlink:href="#path6740"
           transform="matrix(0.9916494,-0.1289629,0.146684,1.1279141,46.634856,-23.157212)"
           id="use8386"
           style="fill:#000000;stroke:#000000"
           width="256"
           height="256" />
        <use
           x="0"
           y="0"
           inkscape:tiled-clone-of="#path6740"
           xlink:href="#path6740"
           transform="matrix(0.9999972,-2.3778109e-3,2.3171187e-3,0.9744728,75.275271,6.3501908)"
           id="use8388"
           style="fill:#000000;stroke:#000000"
           width="256"
           height="256" />
        <use
           x="0"
           y="0"
           inkscape:tiled-clone-of="#path6740"
           xlink:href="#path6740"
           transform="matrix(0.9888478,0.1489295,-0.1921965,1.2761276,116.15607,-76.265856)"
           id="use8390"
           style="fill:#000000;stroke:#000000"
           width="256"
           height="256" />
        <use
           x="0"
           y="0"
           inkscape:tiled-clone-of="#path6740"
           xlink:href="#path6740"
           transform="matrix(0.9926425,0.121082,-0.1500456,1.2300894,109.10922,-63.364602)"
           id="use8392"
           style="fill:#000000;stroke:#000000"
           width="256"
           height="256" />
        <use
           x="0"
           y="0"
           inkscape:tiled-clone-of="#path6740"
           xlink:href="#path6740"
           transform="matrix(0.9939529,0.1098071,-0.1171618,1.0605259,103.6091,-21.464181)"
           id="use8394"
           style="fill:#000000;stroke:#000000"
           width="256"
           height="256" />
        <use
           x="0"
           y="0"
           inkscape:tiled-clone-of="#path6740"
           xlink:href="#path6740"
           transform="matrix(0.9989744,-4.5277666e-2,3.6083798e-2,0.7961274,76.710422,52.334723)"
           id="use8396"
           style="fill:#000000;stroke:#000000"
           width="256"
           height="256" />
        <use
           x="0"
           y="0"
           inkscape:tiled-clone-of="#path6740"
           xlink:href="#path6740"
           transform="matrix(0.9908743,0.1347895,-0.1404827,1.0327262,111.70944,-16.245322)"
           id="use8398"
           style="fill:#000000;stroke:#000000"
           width="256"
           height="256" />
        <use
           x="0"
           y="0"
           inkscape:tiled-clone-of="#path6740"
           xlink:href="#path6740"
           transform="matrix(0.989723,0.1429975,-0.1800851,1.246416,121.41477,-68.68071)"
           id="use8400"
           style="fill:#000000;stroke:#000000"
           width="256"
           height="256" />
        <use
           x="0"
           y="0"
           inkscape:tiled-clone-of="#path6740"
           xlink:href="#path6740"
           transform="matrix(0.9931769,0.1166178,-0.1179614,1.0046199,110.19668,-8.2964933)"
           id="use8402"
           style="fill:#000000;stroke:#000000"
           width="256"
           height="256" />
      </g>
    </pattern>
    <linearGradient
       id="linearGradient11971">
      <stop
         style="stop-color:#ffffff;stop-opacity:1;"
         offset="0"
         id="stop11973" />
      <stop
         id="stop6933"
         offset="0.5"
         style="stop-color:#8bdbff;stop-opacity:1;" />
      <stop
         id="stop6364"
         offset="1"
         style="stop-color:#76c8f7;stop-opacity:0.38785046;" />
    </linearGradient>
    <filter
       inkscape:collect="always"
       id="filter15317"
       x="-0.20000000000000001"
       width="1.3999999999999999"
       y="-0.20000000000000001"
       height="1.3999999999999999">
      <feGaussianBlur
         inkscape:collect="always"
         stdDeviation="48.399999999999999"
         id="feGaussianBlur15319" />
    </filter>
    <clipPath
       clipPathUnits="userSpaceOnUse"
       id="clipPath15347">
      <path
         sodipodi:nodetypes="cc"
         id="path15349"
         d="M 2.18751,1022.9983 C 162.89732,-565.41511 1011.1419,-93.655639 1024.1875,1022.9983"
         style="fill:url(#linearGradient15351);fill-opacity:1;fill-rule:evenodd;stroke:#000000;stroke-width:2;stroke-linecap:butt;stroke-linejoin:miter;stroke-opacity:1" />
    </clipPath>
    <linearGradient
       inkscape:collect="always"
       xlink:href="#linearGradient11971"
       id="linearGradient15351"
       gradientUnits="userSpaceOnUse"
       gradientTransform="matrix(0.9990225,0,0,0.9990225,1.68798,0.4988053)"
       x1="244.45691"
       y1="126.98454"
       x2="1024"
       y2="1024" />
    <linearGradient
       inkscape:collect="always"
       xlink:href="#linearGradient15301"
       id="linearGradient15386"
       gradientUnits="userSpaceOnUse"
       x1="664.6803"
       y1="629.18054"
       x2="851.50366"
       y2="1504.9165" />
    <filter
       height="1.3999999999999999"
       width="1.3999999999999999"
       y="-0.20000000000000001"
       x="-0.20000000000000001"
       inkscape:label="Snow_1"
       id="filter6185">
      <feTurbulence
         type="turbulence"
         baseFrequency="0.040000000000000001 0.073819742489270396"
         seed="537"
         numOctaves="1"
         id="feTurbulence6187"
         in="SourceGraphic" />
      <feColorMatrix
         id="feColorMatrix6967"
         values="0.5 0.6 0.9 0 0.2 0.5 0.6 0.9 0 0.2 0.6 0.6 0.9 0 0.3 0.5 0.5 0.5 0 0 "
         type="matrix"
         result="result1" />
      <feMorphology
         id="feMorphology2901"
         result="result2"
         in="SourceGraphic"
         radius="4"
         operator="erode" />
      <feComposite
         operator="in"
         in2="result2"
         id="feComposite6193"
         in="result1" />
      <feGaussianBlur
         stdDeviation="1.4000000000000004"
         id="feGaussianBlur3703" />
    </filter>
    <linearGradient
       inkscape:collect="always"
       xlink:href="#linearGradient11971"
       id="linearGradient7263"
       gradientUnits="userSpaceOnUse"
       gradientTransform="matrix(0.9970675,0,0,0.9970674,1.5014551,1.5014653)"
       x1="244.45691"
       y1="126.98454"
       x2="1024"
       y2="1024" />
    <linearGradient
       inkscape:collect="always"
       xlink:href="#linearGradient11971"
       id="linearGradient7267"
       gradientUnits="userSpaceOnUse"
       gradientTransform="matrix(0.9970675,0,0,0.9970674,1.5014551,1.5014653)"
       x1="396.80505"
       y1="309.11935"
       x2="482.77142"
       y2="1023.5001" />
    <filter
       inkscape:collect="always"
       id="filter3771"
       inkscape:label="lighting"
       inkscape:menu="ABCs"
       inkscape:menu-tooltip="Basic diffuse bevel to use for building textures">
      <feGaussianBlur
         inkscape:collect="always"
         stdDeviation="6.2756919060052212"
         id="feGaussianBlur3773"
         result="fbSourceGraphic" />
      <feColorMatrix
         result="fbSourceGraphicAlpha"
         in="fbSourceGraphic"
         values="0 0 0 -1 0 0 0 0 -1 0 0 0 0 -1 0 0 0 0 1 0"
         id="feColorMatrix3752" />
      <feGaussianBlur
         id="feGaussianBlur3754"
         stdDeviation="20.895639686684071"
         in="fbSourceGraphic"
         result="result0" />
      <feDiffuseLighting
         id="feDiffuseLighting3756"
         diffuseConstant="1"
         surfaceScale="10"
         result="result5">
        <feDistantLight
           id="feDistantLight3758"
           elevation="30"
           azimuth="235" />
      </feDiffuseLighting>
      <feComposite
         id="feComposite3760"
         in2="fbSourceGraphic"
         k1="1"
         in="result5"
         result="result4"
         operator="arithmetic"
         k2="0"
         k3="0.6" />
    </filter>
    <linearGradient
       inkscape:collect="always"
       xlink:href="#linearGradient3681"
       id="linearGradient3679"
       gradientUnits="userSpaceOnUse"
       gradientTransform="matrix(0.9971486,0,0,0.9560927,1.4598,45.265536)"
       x1="884.53668"
       y1="288.06711"
       x2="884.53668"
       y2="1027.1017" />
    <linearGradient
       inkscape:collect="always"
       xlink:href="#linearGradient6975"
       id="linearGradient3701"
       gradientUnits="userSpaceOnUse"
       gradientTransform="matrix(0.9971486,0,0,0.9560927,1.4598,45.265536)"
       x1="878.86365"
       y1="51.586761"
       x2="884.53668"
       y2="1027.1017" />
    <filter
       id="filter3705"
       y="-0.2"
       x="-0.2"
       width="1.4"
       height="1.4"
       inkscape:label="Plaster"
       inkscape:menu="Bumps"
       inkscape:menu-tooltip="Combine a HSL edges detection bump with a matte and crumpled surface effect">
      <feGaussianBlur
         id="feGaussianBlur3707"
         stdDeviation="1.3575741239892185"
         result="result14" />
      <feFlood
         id="feFlood3709"
         flood-opacity="0.78195488721804507"
         result="result15"
         flood-color="rgb(255,255,255)"
         in="result14" />
      <feTurbulence
         id="feTurbulence3711"
         result="result5"
         numOctaves="1"
         baseFrequency="0.22400000000000003 0.40000000000000002"
         seed="75"
         type="turbulence"
         in="result15" />
      <feDisplacementMap
         id="feDisplacementMap3713"
         in2="result14"
         yChannelSelector="G"
         result="result8"
         in="result5"
         xChannelSelector="R"
         scale="100" />
      <feDiffuseLighting
         id="feDiffuseLighting3715"
         in="result8"
         surfaceScale="150"
         lighting-color="rgb(255,255,255)"
         diffuseConstant="1.3999999999999999"
         result="result16">
        <feDistantLight
           id="feDistantLight3717"
           azimuth="245"
           elevation="207" />
      </feDiffuseLighting>
      <feBlend
         id="feBlend3719"
         in2="SourceGraphic"
         blend="normal"
         mode="screen"
         result="result9" />
      <feComposite
         id="feComposite3721"
         in2="SourceGraphic"
         operator="in"
         result="result11"
         in="result9"
         k1="1"
         k3="0"
         k2="0"
         k4="0" />
    </filter>
    <filter
       inkscape:collect="always"
       id="filter3710"
       x="-0.089631362"
       width="1.1792627"
       y="-0.25443741"
       height="1.5088748">
      <feGaussianBlur
         inkscape:collect="always"
         stdDeviation="78.875598"
         id="feGaussianBlur3712" />
    </filter>
    <linearGradient
       inkscape:collect="always"
       xlink:href="#linearGradient6975"
       id="linearGradient3724"
       gradientUnits="userSpaceOnUse"
       gradientTransform="matrix(0.9971486,0,0,0.9560927,-1775.683,49.480505)"
       x1="878.86365"
       y1="51.586761"
       x2="884.53668"
       y2="1027.1017" />
    <linearGradient
       inkscape:collect="always"
       xlink:href="#linearGradient3764"
       id="linearGradient3770"
       x1="-748.15625"
       y1="-14.926278"
       x2="-748.15625"
       y2="1102.9813"
       gradientUnits="userSpaceOnUse" />
  </defs>
  <sodipodi:namedview
     id="base"
     pagecolor="#c9f2ff"
     bordercolor="#666666"
     borderopacity="1.0"
     gridtolerance="10000"
     guidetolerance="10"
     objecttolerance="10"
     inkscape:pageopacity="0"
     inkscape:pageshadow="2"
     inkscape:zoom="0.25000001"
     inkscape:cx="1392.2394"
     inkscape:cy="759.52748"
     inkscape:document-units="px"
     inkscape:current-layer="g7269"
     showgrid="false"
     inkscape:window-width="1280"
     inkscape:window-height="967"
     inkscape:window-x="-4"
     inkscape:window-y="-4"
     inkscape:window-maximized="1" />
  <metadata
     id="metadata7">
    <rdf:RDF>
      <cc:Work
         rdf:about="">
        <dc:format>image/svg+xml</dc:format>
        <dc:type
           rdf:resource="http://purl.org/dc/dcmitype/StillImage" />
        <dc:title />
      </cc:Work>
    </rdf:RDF>
  </metadata>
  <g
     inkscape:label="Fully Snow"
     inkscape:groupmode="layer"
     id="layer1"
     style="display:none">
    <g
       id="g7278"
       inkscape:export-filename="E:\Documents\Pictures\SMC_youngheart_drafts\Snow\preview_hill1.png"
       inkscape:export-xdpi="36"
       inkscape:export-ydpi="36">
      <path
         sodipodi:nodetypes="cc"
         id="path3801"
         d="M 2.0000037,1022 C 162.39533,-563.30495 1008.98,-92.468718 1022,1022"
         style="fill:url(#linearGradient7263);fill-opacity:1;fill-rule:evenodd;stroke:#000000;stroke-width:3.99999976;stroke-linecap:butt;stroke-linejoin:miter;stroke-opacity:1" />
      <path
         sodipodi:nodetypes="csccsc"
         id="path15297"
         d="M 502.5625,50.9375 C 418.61475,53.070313 326.82939,112.04405 242.40625,267.90625 C 162.44901,415.5235 94.279491,695.14742 56.6875,1021.6123 L 971.875,1021.6123 C 962.01756,745.42303 899.19002,465.36085 812.09375,304.3125 C 719.68769,133.44589 603.87915,48.363405 502.5625,50.9375 z"
         clip-path="url(#clipPath15347)"
         style="fill:url(#linearGradient15386);fill-opacity:1;fill-rule:evenodd;stroke:none;stroke-width:1px;stroke-linecap:butt;stroke-linejoin:miter;stroke-opacity:1;filter:url(#filter15317)"
         transform="translate(-1.1875,1.6859455e-3)" />
      <path
         style="opacity:0.1;fill:url(#linearGradient7267);fill-opacity:1;fill-rule:evenodd;stroke:none;stroke-width:3.99999976;stroke-linecap:butt;stroke-linejoin:miter;stroke-opacity:1;filter:url(#filter6169)"
         d="M 2.0000037,1022 C 162.39533,-563.30495 1008.98,-92.468718 1022,1022"
         id="path7265"
         sodipodi:nodetypes="cc" />
    </g>
  </g>
  <g
     inkscape:groupmode="layer"
     id="layer2"
     style="display:inline">
    <g
       id="g7269"
       inkscape:export-filename="E:\Documents\Pictures\SMC_youngheart_drafts\Snow\preview_hill2.png"
       inkscape:export-xdpi="36"
       inkscape:export-ydpi="36"
       transform="translate(1777.1428,-4.2149688)"
       style="display:inline">
      <path
         style="fill:url(#linearGradient3724);fill-opacity:1;fill-rule:evenodd;stroke:none;stroke-width:1;stroke-linecap:round;stroke-linejoin:round;stroke-miterlimit:4;stroke-opacity:1;stroke-dasharray:none;filter:url(#filter3771)"
         d="m -281.1428,112.21497 c -15.7132,0 -29.1833,8.5489 -34.9688,20.71875 -7.9548,-5.39212 -18.9277,-8.71875 -31.0312,-8.71875 -13.669,0 -25.8673,4.23883 -33.9375,10.90625 -7.6203,-11.31601 -21.8129,-18.90625 -38.0625,-18.90625 -14.998,0 -28.2444,6.47925 -36.1875,16.375 -8.3052,-9.88921 -22.1389,-16.375 -37.8125,-16.375 -20.9977,0 -38.7052,11.61801 -44.2188,27.5 -8.7871,-7.00121 -22.44,-11.5 -37.7812,-11.5 -16.5685,0 -31.1866,5.2387 -39.8125,13.21875 -6.5801,-3.31508 -14.1406,-5.21875 -22.1875,-5.21875 -18.5104,0 -34.4523,9.98455 -41.75,24.375 -8.0864,-5.22066 -18.6698,-8.375 -30.25,-8.375 -14.888,0 -28.1241,5.23631 -36.5312,13.34375 -9.8564,-8.21016 -23.8874,-13.34375 -39.4688,-13.34375 -24.05235,0 -44.41974,12.22367 -51.40625,29.125 -6.0844,-3.26582 -13.11182,-5.125 -20.59375,-5.125 -9.56242,0 -18.37756,3.03088 -25.4375,8.15625 -7.25331,-12.19522 -19.12524,-20.15625 -32.5625,-20.15625 -16.60707,0 -30.82654,12.14559 -36.875,29.4375 -5.03005,-3.45807 -10.87868,-5.4375 -17.125,-5.4375 -12.02945,0 -22.58118,7.34679 -28.625,18.4375 -6.0945,-6.45824 -14.3137,-10.4375 -23.375,-10.4375 -15.7819,0 -29.0423,12.01853 -32.875,28.3125 -8.0655,-7.55017 -19.9063,-12.3125 -33.125,-12.3125 -14.3931,0 -27.1599,5.66437 -35.1875,14.40625 -3.3529,-1.55416 -7.0028,-2.40625 -10.8125,-2.40625 -8.8743,0 -16.8512,4.61914 -22.3438,11.96875 -8.8832,-7.44162 -20.6955,-11.96875 -33.6562,-11.96875 -11.0766,0 -21.3069,3.29766 -29.5938,8.90625 -7.954,-5.60558 -17.7758,-8.90625 -28.4062,-8.90625 -14.9857,0 -28.3538,6.59528 -37.1563,16.90625 -10.31,-14.97245 -28.3229,-24.90625 -48.8437,-24.90625 -25.9524,0 -47.938,15.86508 -55.3438,37.75 -7.6262,-3.61506 -16.7907,-5.75 -26.6562,-5.75 -16.2218,0 -30.5612,5.71092 -39.25,14.4375 -9.5248,-8.78298 -24.2236,-14.4375 -40.75,-14.4375 -21.1062,0 -39.2569,9.20407 -47.4063,22.40625 -8.4309,-11.27965 -20.8062,-18.40625 -34.5937,-18.40625 -21.1549,0 -38.9736,16.76481 -44.3438,39.59375 -6.4928,-9.41843 -17.3515,-15.59375 -29.6562,-15.59375 -13.3584,0 -25.0058,7.28881 -31.2188,18.09375 -6.9037,-8.53348 -18.1073,-14.09375 -30.7812,-14.09375 -14.445,0 -27.0093,7.19391 -33.4375,17.8125 -1.605,-22.51253 -17.5461,-15.48804 -30.5625,-15.8125 l -98,0 0,762.00003 2254,0 0,-762.00003 -108,0 c -33.9403,1.66448 -59.9647,-1.31978 -58.8125,-35.15625 -1.1587,-23.02857 -8.9908,-42.14355 -33.2813,-38.625 -4.9926,-13.66436 -18.4076,-23.59119 -34.375,-24.1875 -3.173,-13.57977 -22.3449,-24.03125 -45.5312,-24.03125 -10.9409,0 -20.9791,2.33616 -28.875,6.21875 -5.4898,-10.72092 -18.2537,-18.21875 -33.125,-18.21875 -7.663,0 -14.7563,2.00525 -20.5938,5.40625 -7.4574,-12.67245 -23.2029,-21.40625 -41.4062,-21.40625 -11.7786,0 -22.5189,3.67288 -30.6562,9.6875 -7.5716,-5.98863 -17.9222,-9.6875 -29.3438,-9.6875 -5.5276,0 -10.7913,0.89778 -15.625,2.46875 -5.3368,-15.25903 -23.184,-26.46875 -44.375,-26.46875 -11.3251,0 -21.6725,3.21974 -29.6875,8.53125 -9.372,-5.27617 -22.1834,-8.53125 -36.3125,-8.53125 -16.8209,0 -31.7453,4.63423 -41.25,11.78125 -6.9681,-7.21525 -17.256,-11.78125 -28.75,-11.78125 z"
         id="path15355"
         sodipodi:nodetypes="ccscscscscscscscscscscscscscscscscscscscscsccccccccccscscscscscscc" />
      <path
         sodipodi:nodetypes="ccscscscscscscscscscscscscscscscscscscscsccccccccscccscscscscscscc"
         id="use2903"
         transform="matrix(0.99949177,0,0,0.59291808,-1776.6223,110.16325)"
         d="m 1496,300 c -15.7132,0 -29.1833,8.5489 -34.9688,20.71875 C 1453.0764,315.32663 1442.1035,312 1430,312 c -13.669,0 -25.8673,4.23883 -33.9375,10.90625 C 1388.4422,311.59024 1374.2496,304 1358,304 c -14.998,0 -28.2444,6.47925 -36.1875,16.375 C 1313.5073,310.48579 1299.6736,304 1284,304 c -20.9977,0 -38.7052,11.61801 -44.2188,27.5 -8.7871,-7.00121 -22.44,-11.5 -37.7812,-11.5 -16.5685,0 -31.1866,5.2387 -39.8125,13.21875 C 1155.6074,329.90367 1148.0469,328 1140,328 c -18.5104,0 -34.4523,9.98455 -41.75,24.375 -8.0864,-5.22066 -18.6698,-8.375 -30.25,-8.375 -14.888,0 -28.1241,5.23631 -36.5312,13.34375 C 1021.6124,349.13359 1007.5814,344 992,344 967.94765,344 947.58026,356.22367 940.59375,373.125 934.50935,369.85918 927.48193,368 920,368 c -9.56242,0 -18.37756,3.03088 -25.4375,8.15625 C 887.30919,363.96103 875.43726,356 862,356 845.39293,356 831.17346,368.14559 825.125,385.4375 820.09495,381.97943 814.24632,380 808,380 c -12.02945,0 -22.58118,7.34679 -28.625,18.4375 C 773.2805,391.97926 765.06135,388 756,388 740.21813,388 726.95767,400.01853 723.125,416.3125 715.05946,408.76233 703.21875,404 690,404 c -14.39314,0 -27.15987,5.66437 -35.1875,14.40625 C 651.45964,416.85209 647.80974,416 644,416 c -8.87434,0 -16.85117,4.61914 -22.34375,11.96875 C 612.77301,420.52713 600.96071,416 588,416 c -11.07662,0 -21.30694,3.29766 -29.59375,8.90625 C 550.45216,419.30067 540.63041,416 530,416 c -14.98565,0 -28.35381,6.59528 -37.15625,16.90625 C 482.53371,417.9338 464.52083,408 444,408 418.04763,408 396.06203,423.86508 388.65625,445.75 381.02997,442.13494 371.86548,440 362,440 c -16.22176,0 -30.56116,5.71092 -39.25,14.4375 C 313.22523,445.65452 298.52641,440 282,440 c -21.10617,0 -39.25685,9.20407 -47.40625,22.40625 C 226.16282,451.1266 213.78754,444 200,444 178.84506,444 161.02643,460.76481 155.65625,483.59375 149.16343,474.17532 138.30475,468 126,468 112.64161,468 100.99424,475.28881 94.78125,486.09375 87.877465,477.56027 76.673936,472 64,472 40.729115,501.92209 58.561862,460.67982 36,474 l -68,0 0,570 2112,0 0,-570.00125 -58,0 C 2022,459.08706 2018.1208,431 2011,431 c -8.5175,0 -16.2094,3.00078 -21.8125,7.84375 -1.1587,-29.02857 -8.9908,-42.14355 -33.2813,-38.625 -4.9926,-13.66436 -18.4076,-23.59119 -34.375,-24.1875 C 1918.3582,362.45148 1899.1863,352 1876,352 c -10.9409,0 -20.9791,2.33616 -28.875,6.21875 C 1841.6352,347.49783 1828.8713,340 1814,340 c -7.663,0 -14.7563,2.00525 -20.5938,5.40625 C 1785.9488,332.7338 1770.2033,324 1752,324 c -11.7786,0 -22.5189,3.67288 -30.6562,9.6875 C 1713.7722,327.69887 1703.4216,324 1692,324 c -5.5276,0 -10.7913,0.89778 -15.625,2.46875 C 1671.0382,311.20972 1653.191,300 1632,300 c -11.3251,0 -21.6725,3.21974 -29.6875,8.53125 C 1592.9405,303.25508 1580.1291,300 1566,300 c -16.8209,0 -31.7453,4.63423 -41.25,11.78125 C 1517.7819,304.566 1507.494,300 1496,300 z"
         style="fill:url(#linearGradient3679);fill-opacity:1;fill-rule:evenodd;stroke:none;filter:url(#filter3710)" />
      <path
         sodipodi:type="inkscape:offset"
         inkscape:radius="0"
         inkscape:original="M -281.15625 112.21875 C -296.86945 112.21875 -310.3395 120.76765 -316.125 132.9375 C -324.0798 127.54538 -335.05275 124.21875 -347.15625 124.21875 C -360.82525 124.21875 -373.02355 128.45758 -381.09375 135.125 C -388.71405 123.80899 -402.90665 116.21875 -419.15625 116.21875 C -434.15425 116.21875 -447.40065 122.698 -455.34375 132.59375 C -463.64895 122.70454 -477.48265 116.21875 -493.15625 116.21875 C -514.15395 116.21875 -531.8614 127.83676 -537.375 143.71875 C -546.1621 136.71754 -559.81505 132.21875 -575.15625 132.21875 C -591.72475 132.21875 -606.34285 137.45745 -614.96875 145.4375 C -621.54885 142.12242 -629.10935 140.21875 -637.15625 140.21875 C -655.66665 140.21875 -671.60855 150.2033 -678.90625 164.59375 C -686.99265 159.37309 -697.57605 156.21875 -709.15625 156.21875 C -724.04425 156.21875 -737.2804 161.45506 -745.6875 169.5625 C -755.5439 161.35234 -769.57485 156.21875 -785.15625 156.21875 C -809.2086 156.21875 -829.57599 168.44242 -836.5625 185.34375 C -842.6469 182.07793 -849.67432 180.21875 -857.15625 180.21875 C -866.71867 180.21875 -875.53381 183.24963 -882.59375 188.375 C -889.84706 176.17978 -901.71899 168.21875 -915.15625 168.21875 C -931.76332 168.21875 -945.98279 180.36434 -952.03125 197.65625 C -957.0613 194.19818 -962.90993 192.21875 -969.15625 192.21875 C -981.1857 192.21875 -991.73743 199.56554 -997.78125 210.65625 C -1003.8758 204.19801 -1012.095 200.21875 -1021.1562 200.21875 C -1036.9381 200.21875 -1050.1986 212.23728 -1054.0312 228.53125 C -1062.0967 220.98108 -1073.9376 216.21875 -1087.1562 216.21875 C -1101.5494 216.21875 -1114.3162 221.88312 -1122.3438 230.625 C -1125.6967 229.07084 -1129.3465 228.21875 -1133.1562 228.21875 C -1142.0305 228.21875 -1150.0074 232.83789 -1155.5 240.1875 C -1164.3832 232.74588 -1176.1956 228.21875 -1189.1562 228.21875 C -1200.2329 228.21875 -1210.4631 231.51641 -1218.75 237.125 C -1226.704 231.51942 -1236.5258 228.21875 -1247.1562 228.21875 C -1262.1419 228.21875 -1275.51 234.81403 -1284.3125 245.125 C -1294.6225 230.15255 -1312.6354 220.21875 -1333.1562 220.21875 C -1359.1086 220.21875 -1381.0942 236.08383 -1388.5 257.96875 C -1396.1262 254.35369 -1405.2908 252.21875 -1415.1562 252.21875 C -1431.3781 252.21875 -1445.7175 257.92967 -1454.4062 266.65625 C -1463.931 257.87327 -1478.6299 252.21875 -1495.1562 252.21875 C -1516.2624 252.21875 -1534.4131 261.42282 -1542.5625 274.625 C -1550.9934 263.34535 -1563.3688 256.21875 -1577.1562 256.21875 C -1598.3111 256.21875 -1616.1298 272.98356 -1621.5 295.8125 C -1627.9928 286.39407 -1638.8516 280.21875 -1651.1562 280.21875 C -1664.5147 280.21875 -1676.162 287.50756 -1682.375 298.3125 C -1689.2787 289.77902 -1700.4823 284.21875 -1713.1562 284.21875 C -1727.6012 284.21875 -1740.1655 291.41266 -1746.5938 302.03125 C -1748.1988 279.51872 -1764.1399 286.54321 -1777.1562 286.21875 L -1875.1562 286.21875 L -1875.1562 1048.2188 L 378.84375 1048.2188 L 378.84375 286.21875 L 270.84375 286.21875 C 236.90345 287.88323 210.87905 284.89897 212.03125 251.0625 C 210.87255 228.03393 203.0405 208.91895 178.75 212.4375 C 173.7574 198.77314 160.3424 188.84631 144.375 188.25 C 141.202 174.67023 122.03005 164.21875 98.84375 164.21875 C 87.90285 164.21875 77.86465 166.55491 69.96875 170.4375 C 64.47895 159.71658 51.71505 152.21875 36.84375 152.21875 C 29.18075 152.21875 22.0875 154.224 16.25 157.625 C 8.7926 144.95255 -6.95295 136.21875 -25.15625 136.21875 C -36.93485 136.21875 -47.6752 139.89163 -55.8125 145.90625 C -63.3841 139.91762 -73.73465 136.21875 -85.15625 136.21875 C -90.68385 136.21875 -95.94755 137.11653 -100.78125 138.6875 C -106.11805 123.42847 -123.96525 112.21875 -145.15625 112.21875 C -156.48135 112.21875 -166.82875 115.43849 -174.84375 120.75 C -184.21575 115.47383 -197.02715 112.21875 -211.15625 112.21875 C -227.97715 112.21875 -242.90155 116.85298 -252.40625 124 C -259.37435 116.78475 -269.66225 112.21875 -281.15625 112.21875 z "
         xlink:href="#path15355"
         style="fill:url(#linearGradient3770);fill-opacity:1;fill-rule:evenodd;stroke:none;filter:url(#filter3705)"
         id="path2531"
         inkscape:href="#path15355"
         d="m -281.15625,112.21875 c -15.7132,0 -29.18325,8.5489 -34.96875,20.71875 -7.9548,-5.39212 -18.92775,-8.71875 -31.03125,-8.71875 -13.669,0 -25.8673,4.23883 -33.9375,10.90625 -7.6203,-11.31601 -21.8129,-18.90625 -38.0625,-18.90625 -14.998,0 -28.2444,6.47925 -36.1875,16.375 -8.3052,-9.88921 -22.1389,-16.375 -37.8125,-16.375 -20.9977,0 -38.70515,11.61801 -44.21875,27.5 -8.7871,-7.00121 -22.44005,-11.5 -37.78125,-11.5 -16.5685,0 -31.1866,5.2387 -39.8125,13.21875 -6.5801,-3.31508 -14.1406,-5.21875 -22.1875,-5.21875 -18.5104,0 -34.4523,9.98455 -41.75,24.375 -8.0864,-5.22066 -18.6698,-8.375 -30.25,-8.375 -14.888,0 -28.12415,5.23631 -36.53125,13.34375 -9.8564,-8.21016 -23.88735,-13.34375 -39.46875,-13.34375 -24.05235,0 -44.41974,12.22367 -51.40625,29.125 -6.0844,-3.26582 -13.11182,-5.125 -20.59375,-5.125 -9.56242,0 -18.37756,3.03088 -25.4375,8.15625 -7.25331,-12.19522 -19.12524,-20.15625 -32.5625,-20.15625 -16.60707,0 -30.82654,12.14559 -36.875,29.4375 -5.03005,-3.45807 -10.87868,-5.4375 -17.125,-5.4375 -12.02945,0 -22.58118,7.34679 -28.625,18.4375 -6.09455,-6.45824 -14.31375,-10.4375 -23.37495,-10.4375 -15.7819,0 -29.0424,12.01853 -32.875,28.3125 -8.0655,-7.55017 -19.9064,-12.3125 -33.125,-12.3125 -14.3932,0 -27.16,5.66437 -35.1876,14.40625 -3.3529,-1.55416 -7.0027,-2.40625 -10.8124,-2.40625 -8.8743,0 -16.8512,4.61914 -22.3438,11.96875 -8.8832,-7.44162 -20.6956,-11.96875 -33.6562,-11.96875 -11.0767,0 -21.3069,3.29766 -29.5938,8.90625 -7.954,-5.60558 -17.7758,-8.90625 -28.4062,-8.90625 -14.9857,0 -28.3538,6.59528 -37.1563,16.90625 -10.31,-14.97245 -28.3229,-24.90625 -48.8437,-24.90625 -25.9524,0 -47.938,15.86508 -55.3438,37.75 -7.6262,-3.61506 -16.7908,-5.75 -26.6562,-5.75 -16.2219,0 -30.5613,5.71092 -39.25,14.4375 -9.5248,-8.78298 -24.2237,-14.4375 -40.75,-14.4375 -21.1062,0 -39.2569,9.20407 -47.4063,22.40625 -8.4309,-11.27965 -20.8063,-18.40625 -34.5937,-18.40625 -21.1549,0 -38.9736,16.76481 -44.3438,39.59375 -6.4928,-9.41843 -17.3516,-15.59375 -29.6562,-15.59375 -13.3585,0 -25.0058,7.28881 -31.2188,18.09375 -6.9037,-8.53348 -18.1073,-14.09375 -30.7812,-14.09375 -14.445,0 -27.0093,7.19391 -33.4376,17.8125 -1.605,-22.51253 -17.5461,-15.48804 -30.5624,-15.8125 l -30,0 0,762.00005 2107.99995,0 0,-762.00005 -30,0 c -33.9403,1.66448 -59.9647,-1.31978 -58.8125,-35.15625 -1.1587,-23.02857 -8.99075,-42.14355 -33.28125,-38.625 -4.9926,-13.66436 -18.4076,-23.59119 -34.375,-24.1875 -3.173,-13.57977 -22.34495,-24.03125 -45.53125,-24.03125 -10.9409,0 -20.9791,2.33616 -28.875,6.21875 -5.4898,-10.72092 -18.2537,-18.21875 -33.125,-18.21875 -7.663,0 -14.75625,2.00525 -20.59375,5.40625 -7.4574,-12.67245 -23.20295,-21.40625 -41.40625,-21.40625 -11.7786,0 -22.51895,3.67288 -30.65625,9.6875 -7.5716,-5.98863 -17.92215,-9.6875 -29.34375,-9.6875 -5.5276,0 -10.7913,0.89778 -15.625,2.46875 -5.3368,-15.25903 -23.184,-26.46875 -44.375,-26.46875 -11.3251,0 -21.6725,3.21974 -29.6875,8.53125 -9.372,-5.27617 -22.1834,-8.53125 -36.3125,-8.53125 -16.8209,0 -31.7453,4.63423 -41.25,11.78125 -6.9681,-7.21525 -17.256,-11.78125 -28.75,-11.78125 z"
         transform="matrix(1.0000412,0,0,0.9947155,0.04448645,3.0623623)" />
    </g>
  </g>
</svg>
