<?xml version="1.0" encoding="UTF-8" standalone="no"?>
<!-- Created with Inkscape (http://www.inkscape.org/) -->
<svg
   xmlns:dc="http://purl.org/dc/elements/1.1/"
   xmlns:cc="http://web.resource.org/cc/"
   xmlns:rdf="http://www.w3.org/1999/02/22-rdf-syntax-ns#"
   xmlns:svg="http://www.w3.org/2000/svg"
   xmlns="http://www.w3.org/2000/svg"
   xmlns:xlink="http://www.w3.org/1999/xlink"
   xmlns:sodipodi="http://sodipodi.sourceforge.net/DTD/sodipodi-0.dtd"
   xmlns:inkscape="http://www.inkscape.org/namespaces/inkscape"
   width="64"
   height="64"
   id="svg2"
   sodipodi:version="0.32"
   inkscape:version="0.45.1"
   version="1.0"
   sodipodi:docbase="D:\Dateien\Desktop\Secret Maryo Chronicles\Drafts\Game\Frostbringer\overworld\desert"
   sodipodi:docname="desert_sun.svg"
   inkscape:output_extension="org.inkscape.output.svg.inkscape"
   inkscape:export-filename="N:\Dokumente und Einstellungen\FluXy\Desktop\1.png"
   inkscape:export-xdpi="360"
   inkscape:export-ydpi="360">
  <defs
     id="defs4">
    <linearGradient
       id="linearGradient4119">
      <stop
         style="stop-color:#ffe760;stop-opacity:1;"
         offset="0"
         id="stop4121" />
      <stop
         style="stop-color:#ffc360;stop-opacity:1;"
         offset="1"
         id="stop4123" />
    </linearGradient>
    <linearGradient
       id="linearGradient5481">
      <stop
         style="stop-color:#8e681a;stop-opacity:1;"
         offset="0"
         id="stop5483" />
      <stop
         style="stop-color:#ffb213;stop-opacity:1;"
         offset="1"
         id="stop5485" />
    </linearGradient>
    <linearGradient
       inkscape:collect="always"
       xlink:href="#linearGradient5481"
       id="linearGradient5487"
       x1="1.5"
       y1="38"
       x2="26.5"
       y2="38"
       gradientUnits="userSpaceOnUse" />
    <linearGradient
       inkscape:collect="always"
       xlink:href="#linearGradient5481"
       id="linearGradient5489"
       x1="1.6129525"
       y1="38"
       x2="26.387048"
       y2="38"
       gradientUnits="userSpaceOnUse"
       gradientTransform="matrix(1.25,0,0,1.335062,5.5,-24.23235)" />
    <linearGradient
       inkscape:collect="always"
       xlink:href="#linearGradient5481"
       id="linearGradient5491"
       x1="1.5735986"
       y1="38"
       x2="26.426401"
       y2="38"
       gradientUnits="userSpaceOnUse"
       gradientTransform="matrix(1.565299,0,0,1,21.36941,-22.89394)" />
    <linearGradient
       inkscape:collect="always"
       xlink:href="#linearGradient5481"
       id="linearGradient5493"
       x1="1.6197655"
       y1="38"
       x2="26.380235"
       y2="38"
       gradientUnits="userSpaceOnUse"
       gradientTransform="matrix(1.729167,0,0,1,16.54167,-0.606061)" />
    <linearGradient
       inkscape:collect="always"
       xlink:href="#linearGradient5481"
       id="linearGradient5495"
       x1="1.6292321"
       y1="38"
       x2="26.370768"
       y2="38"
       gradientUnits="userSpaceOnUse" />
    <radialGradient
       inkscape:collect="always"
       xlink:href="#linearGradient4119"
       id="radialGradient4125"
       cx="30"
       cy="28"
       fx="30"
       fy="28"
       r="28.784271"
       gradientUnits="userSpaceOnUse" />
  </defs>
  <sodipodi:namedview
     id="base"
     pagecolor="#000000"
     bordercolor="#666666"
     borderopacity="1.0"
     inkscape:pageopacity="0"
     inkscape:pageshadow="2"
     inkscape:zoom="2.8284271"
     inkscape:cx="32"
     inkscape:cy="32"
     inkscape:document-units="px"
     inkscape:current-layer="layer1"
     width="64px"
     height="64px"
     inkscape:grid-points="true"
     gridtolerance="10000"
     showgrid="true"
     gridspacingx="2px"
     gridspacingy="2px"
     inkscape:window-width="1152"
     inkscape:window-height="788"
     inkscape:window-x="111"
     inkscape:window-y="56" />
  <metadata
     id="metadata7">
    <rdf:RDF>
      <cc:Work
         rdf:about="">
        <dc:format>image/svg+xml</dc:format>
        <dc:type
           rdf:resource="http://purl.org/dc/dcmitype/StillImage" />
        <dc:creator>
          <cc:Agent>
            <dc:title>Frostbringer</dc:title>
          </cc:Agent>
        </dc:creator>
        <cc:license
           rdf:resource="http://creativecommons.org/licenses/by-sa/2.5/" />
      </cc:Work>
      <cc:License
         rdf:about="http://creativecommons.org/licenses/by-sa/2.5/">
        <cc:permits
           rdf:resource="http://web.resource.org/cc/Reproduction" />
        <cc:permits
           rdf:resource="http://web.resource.org/cc/Distribution" />
        <cc:requires
           rdf:resource="http://web.resource.org/cc/Notice" />
        <cc:requires
           rdf:resource="http://web.resource.org/cc/Attribution" />
        <cc:permits
           rdf:resource="http://web.resource.org/cc/DerivativeWorks" />
        <cc:requires
           rdf:resource="http://web.resource.org/cc/ShareAlike" />
      </cc:License>
    </rdf:RDF>
  </metadata>
  <g
     inkscape:label="Ebene 1"
     inkscape:groupmode="layer"
     id="layer1">
    <path
       transform="matrix(1.014951,-0.477664,0.459282,0.975892,-11.02511,18.48797)"
       style="fill:url(#radialGradient4125);fill-opacity:1.0;fill-rule:nonzero;stroke:black;stroke-width:1.00005577;stroke-linecap:round;stroke-linejoin:round;stroke-miterlimit:4;stroke-dashoffset:59.92000295;stroke-opacity:1;stroke-dasharray:none"
       d="M 52,46 C 52,46 43.828135,42.261508 39.035242,44.832576 C 34.242349,47.403644 32.828427,56.284271 32.828427,56.284271 C 32.828427,56.284271 29.693559,47.862377 24.486452,46.291309 C 19.279345,44.720241 12,50 12,50 C 12,50 15.738492,41.828135 13.167424,37.035242 C 10.596356,32.242349 1.7157289,30.828427 1.7157289,30.828427 C 1.7157289,30.828427 10.137623,27.693559 11.708691,22.486452 C 13.279759,17.279345 8.0000001,10 8.0000001,10 C 8.0000001,10 16.171865,13.738492 20.964758,11.167424 C 25.757651,8.5963562 27.171573,-0.28427109 27.171573,-0.28427109 C 27.171573,-0.28427109 30.306441,8.1376231 35.513548,9.7086909 C 40.720655,11.279759 48,6.0000001 48,6.0000001 C 48,6.0000001 44.261508,14.171865 46.832576,18.964758 C 49.403644,23.757651 58.284271,25.171573 58.284271,25.171573 C 58.284271,25.171573 49.862377,28.306441 48.291309,33.513548 C 46.720241,38.720655 52,46 52,46 z "
       id="path1879"
       sodipodi:nodetypes="cscscscscscscscsc" />
    <path
       style="fill:white;fill-opacity:1;fill-rule:nonzero;stroke:black;stroke-width:1;stroke-linecap:round;stroke-linejoin:miter;stroke-miterlimit:4;stroke-dashoffset:59.92000295;stroke-opacity:1"
       d="M 24,36 L 40,36 C 42.216,36 44,37.784 44,40 C 44,42.216 42.216,44 40,44 L 36,44 L 28,44 L 24,44 C 21.784,44 20,42.216 20,40 C 20,37.784 21.784,36 24,36 z "
       id="rect6319"
       sodipodi:nodetypes="ccsccccsc" />
    <path
       sodipodi:type="arc"
       style="opacity:1;fill:white;fill-opacity:1;fill-rule:nonzero;stroke:black;stroke-width:0.64245872;stroke-linecap:round;stroke-linejoin:miter;stroke-miterlimit:4;stroke-dasharray:none;stroke-dashoffset:59.92000295;stroke-opacity:1"
       id="path7207"
       sodipodi:cx="24"
       sodipodi:cy="23"
       sodipodi:rx="2.0864635"
       sodipodi:ry="3.7856739"
       d="M 26.086463 23 A 2.0864635 3.7856739 0 1 1  21.913537,23 A 2.0864635 3.7856739 0 1 1  26.086463 23 z"
       transform="matrix(1.002855,-1.207929,1.002855,1.207929,-21.13419,29.20793)" />
    <path
       style="fill:none;fill-opacity:0.75;fill-rule:evenodd;stroke:#000000;stroke-width:1.41476679;stroke-linecap:round;stroke-linejoin:round;stroke-opacity:1;stroke-miterlimit:4;stroke-dasharray:0.70738339,0.70738339;stroke-dashoffset:0"
       d="M 20.707383,20.691936 C 30.638778,13.258315 29.209265,18.365463 30,20.691936"
       id="path7213"
       sodipodi:nodetypes="cc" />
    <path
       sodipodi:type="arc"
       style="opacity:1;fill:white;fill-opacity:1;fill-rule:nonzero;stroke:black;stroke-width:0.64981175;stroke-linecap:round;stroke-linejoin:miter;stroke-miterlimit:4;stroke-dasharray:none;stroke-dashoffset:59.92000295;stroke-opacity:1"
       id="path7215"
       sodipodi:cx="24"
       sodipodi:cy="23"
       sodipodi:rx="2.0864635"
       sodipodi:ry="3.7856739"
       d="M 26.086463 23 A 2.0864635 3.7856739 0 1 1  21.913537,23 A 2.0864635 3.7856739 0 1 1  26.086463 23 z"
       transform="matrix(-0.978638,-1.209965,-0.978638,1.209965,84.99598,29.20996)" />
    <path
       style="fill:none;fill-opacity:0.75;fill-rule:evenodd;stroke:#000000;stroke-width:1.41476679;stroke-linecap:round;stroke-linejoin:round;stroke-opacity:1;stroke-miterlimit:4;stroke-dasharray:0.70738339,0.70738339;stroke-dashoffset:0"
       d="M 43.292617,20.691936 C 33.361222,13.258315 34.790735,18.365463 34,20.691936"
       id="path7217"
       sodipodi:nodetypes="cc" />
    <path
       style="fill:none;fill-opacity:0.75;fill-rule:evenodd;stroke:black;stroke-width:1px;stroke-linecap:butt;stroke-linejoin:miter;stroke-opacity:1"
       d="M 24,36 L 24,44"
       id="path8104" />
    <path
       style="fill:none;fill-opacity:0.75;fill-rule:evenodd;stroke:black;stroke-width:1px;stroke-linecap:butt;stroke-linejoin:miter;stroke-opacity:1"
       d="M 28,36 L 28,44"
       id="path8106"
       sodipodi:nodetypes="cc" />
    <path
       style="fill:none;fill-opacity:0.75;fill-rule:evenodd;stroke:black;stroke-width:1px;stroke-linecap:butt;stroke-linejoin:miter;stroke-opacity:1"
       d="M 32,36 L 32,44"
       id="path8108"
       sodipodi:nodetypes="cc" />
    <path
       style="fill:none;fill-opacity:0.75;fill-rule:evenodd;stroke:black;stroke-width:1px;stroke-linecap:butt;stroke-linejoin:miter;stroke-opacity:1"
       d="M 36,36 L 36,44"
       id="path8110"
       sodipodi:nodetypes="cc" />
    <path
       style="fill:none;fill-opacity:0.75;fill-rule:evenodd;stroke:black;stroke-width:1px;stroke-linecap:butt;stroke-linejoin:miter;stroke-opacity:1"
       d="M 40,36 L 40,44"
       id="path8112" />
    <path
       sodipodi:type="arc"
       style="opacity:1;fill:#ac5200;fill-opacity:1;fill-rule:nonzero;stroke:#361100;stroke-width:0.5;stroke-linecap:round;stroke-linejoin:miter;stroke-miterlimit:4;stroke-dasharray:0.5,1;stroke-dashoffset:0;stroke-opacity:1"
       id="path8999"
       sodipodi:cx="27"
       sodipodi:cy="29"
       sodipodi:rx="1"
       sodipodi:ry="1"
       d="M 28 29 A 1 1 0 1 1  26,29 A 1 1 0 1 1  28 29 z"
       transform="translate(0.555556,1)" />
    <path
       sodipodi:type="arc"
       style="opacity:1;fill:#ac5200;fill-opacity:1;fill-rule:nonzero;stroke:#361100;stroke-width:0.5;stroke-linecap:round;stroke-linejoin:miter;stroke-miterlimit:4;stroke-dasharray:0.5,1;stroke-dashoffset:0;stroke-opacity:1"
       id="path9001"
       sodipodi:cx="39"
       sodipodi:cy="29"
       sodipodi:rx="1"
       sodipodi:ry="1"
       d="M 40 29 A 1 1 0 1 1  38,29 A 1 1 0 1 1  40 29 z"
       transform="translate(-1,1)" />
  </g>
</svg>
