<?xml version="1.0" encoding="UTF-8" standalone="no"?>
<!-- Created with Inkscape (http://www.inkscape.org/) -->
<svg
   xmlns:dc="http://purl.org/dc/elements/1.1/"
   xmlns:cc="http://web.resource.org/cc/"
   xmlns:rdf="http://www.w3.org/1999/02/22-rdf-syntax-ns#"
   xmlns:svg="http://www.w3.org/2000/svg"
   xmlns="http://www.w3.org/2000/svg"
   xmlns:xlink="http://www.w3.org/1999/xlink"
   xmlns:sodipodi="http://sodipodi.sourceforge.net/DTD/sodipodi-0.dtd"
   xmlns:inkscape="http://www.inkscape.org/namespaces/inkscape"
   width="64"
   height="32"
   id="svg2"
   sodipodi:version="0.32"
   inkscape:version="0.45.1"
   version="1.0"
   sodipodi:docbase="D:\Dateien\Desktop\Secret Maryo Chronicles\Drafts\Game\Frostbringer\overworld\desert"
   sodipodi:docname="oase.svg"
   inkscape:export-filename="N:\Dokumente und Einstellungen\FluXy\Desktop\oasis.png"
   inkscape:export-xdpi="720"
   inkscape:export-ydpi="720"
   inkscape:output_extension="org.inkscape.output.svg.inkscape">
  <defs
     id="defs4">
    <linearGradient
       id="linearGradient3733">
      <stop
         id="stop3735"
         offset="0"
         style="stop-color:#6eb9ff;stop-opacity:1;" />
      <stop
         id="stop3737"
         offset="1"
         style="stop-color:#2f39ff;stop-opacity:1;" />
    </linearGradient>
    <linearGradient
       id="linearGradient5481">
      <stop
         style="stop-color:#8e681a;stop-opacity:1;"
         offset="0"
         id="stop5483" />
      <stop
         style="stop-color:#4d3400;stop-opacity:1;"
         offset="1"
         id="stop5485" />
    </linearGradient>
    <linearGradient
       inkscape:collect="always"
       xlink:href="#linearGradient5481"
       id="linearGradient5487"
       x1="1.5"
       y1="38"
       x2="26.5"
       y2="38"
       gradientUnits="userSpaceOnUse" />
    <linearGradient
       inkscape:collect="always"
       xlink:href="#linearGradient5481"
       id="linearGradient5489"
       x1="1.6129525"
       y1="38"
       x2="26.387049"
       y2="38"
       gradientUnits="userSpaceOnUse"
       gradientTransform="matrix(1.25,0,0,1.335062,5.5,-24.23235)" />
    <linearGradient
       inkscape:collect="always"
       xlink:href="#linearGradient5481"
       id="linearGradient5491"
       x1="1.5735986"
       y1="38"
       x2="26.426401"
       y2="38"
       gradientUnits="userSpaceOnUse"
       gradientTransform="matrix(1.565299,0,0,1,21.36941,-22.89394)" />
    <linearGradient
       inkscape:collect="always"
       xlink:href="#linearGradient5481"
       id="linearGradient5493"
       x1="1.6197655"
       y1="38"
       x2="26.380236"
       y2="38"
       gradientUnits="userSpaceOnUse"
       gradientTransform="matrix(1.729167,0,0,1,16.54167,-0.606061)" />
    <linearGradient
       inkscape:collect="always"
       xlink:href="#linearGradient5481"
       id="linearGradient5495"
       x1="1.629232"
       y1="38"
       x2="26.370768"
       y2="38"
       gradientUnits="userSpaceOnUse" />
    <radialGradient
       inkscape:collect="always"
       xlink:href="#linearGradient3733"
       id="radialGradient3731"
       cx="32.081028"
       cy="16.863794"
       fx="32.081028"
       fy="16.863794"
       r="28.53105"
       gradientTransform="matrix(1,0,0,0.486622,0,8.6575)"
       gradientUnits="userSpaceOnUse" />
    <radialGradient
       inkscape:collect="always"
       xlink:href="#linearGradient3733"
       id="radialGradient3741"
       gradientUnits="userSpaceOnUse"
       gradientTransform="matrix(2.9169614e-2,1.2143319,-2.4902918,7.4728499e-2,76.715083,-20.399584)"
       cx="30.849581"
       cy="18.237951"
       fx="30.849581"
       fy="18.237951"
       r="28.53105" />
    <radialGradient
       inkscape:collect="always"
       xlink:href="#linearGradient5481"
       id="radialGradient2851"
       gradientUnits="userSpaceOnUse"
       gradientTransform="matrix(1.0868604,0,0,0.5911336,-2.66617,6.3303367)"
       cx="29.69805"
       cy="-0.065768808"
       fx="29.69805"
       fy="-0.065768808"
       r="28.53105" />
    <filter
       inkscape:collect="always"
       id="filter6221">
      <feGaussianBlur
         inkscape:collect="always"
         stdDeviation="0.30192611"
         id="feGaussianBlur6223" />
    </filter>
  </defs>
  <sodipodi:namedview
     id="base"
     pagecolor="#deae6f"
     bordercolor="#666666"
     borderopacity="1.0"
     inkscape:pageopacity="0"
     inkscape:pageshadow="2"
     inkscape:zoom="4"
     inkscape:cx="24.125"
     inkscape:cy="16"
     inkscape:document-units="px"
     inkscape:current-layer="layer1"
     width="64px"
     height="32px"
     inkscape:grid-points="false"
     gridtolerance="50"
     showgrid="true"
     gridspacingx="2px"
     gridspacingy="2px"
     inkscape:window-width="1024"
     inkscape:window-height="719"
     inkscape:window-x="141"
     inkscape:window-y="183"
     inkscape:grid-bbox="false" />
  <metadata
     id="metadata7">
    <rdf:RDF>
      <cc:Work
         rdf:about="">
        <dc:format>image/svg+xml</dc:format>
        <dc:type
           rdf:resource="http://purl.org/dc/dcmitype/StillImage" />
        <dc:creator>
          <cc:Agent>
            <dc:title>Frostbringer</dc:title>
          </cc:Agent>
        </dc:creator>
        <cc:license
           rdf:resource="http://creativecommons.org/licenses/by-sa/2.5/" />
      </cc:Work>
      <cc:License
         rdf:about="http://creativecommons.org/licenses/by-sa/2.5/">
        <cc:permits
           rdf:resource="http://web.resource.org/cc/Reproduction" />
        <cc:permits
           rdf:resource="http://web.resource.org/cc/Distribution" />
        <cc:requires
           rdf:resource="http://web.resource.org/cc/Notice" />
        <cc:requires
           rdf:resource="http://web.resource.org/cc/Attribution" />
        <cc:permits
           rdf:resource="http://web.resource.org/cc/DerivativeWorks" />
        <cc:requires
           rdf:resource="http://web.resource.org/cc/ShareAlike" />
      </cc:License>
    </rdf:RDF>
  </metadata>
  <g
     inkscape:label="Ebene 1"
     inkscape:groupmode="layer"
     id="layer1">
    <path
       style="color:#000000;fill:#dead6f;fill-opacity:1;fill-rule:evenodd;stroke:none;stroke-width:1.26717591;stroke-linecap:butt;stroke-linejoin:miter;marker:none;marker-start:none;marker-mid:none;marker-end:none;stroke-miterlimit:4;stroke-dashoffset:0;stroke-opacity:1;visibility:visible;display:inline;overflow:visible;filter:url(#filter6221)"
       d="M 61.97669,15.469126 C 61.97669,17.636452 60.645097,19.637984 59.108576,21.516727 C 57.572055,23.395471 56.334827,25.119548 53.58806,26.540876 C 50.841293,27.962203 45.395874,26.801112 41.765132,27.596191 C 38.134392,28.39127 36.318328,31.649168 32.129887,31.649168 C 27.941445,31.649168 26.125382,28.39127 22.494641,27.596191 C 18.863899,26.801112 15.606162,24.964542 12.859394,23.543216 C 10.112626,22.121889 4.7606687,27.448446 3.2241481,25.569703 C 1.6876275,23.690961 3.2241481,17.604589 3.2241481,15.437263 C 3.2241481,13.269935 2.6286879,11.204679 4.1652085,9.3259352 C 5.7017292,7.4471921 10.112626,6.726149 12.859394,5.3048219 C 15.606162,3.883495 16.93685,2.0469252 20.56759,1.2518459 C 24.198333,0.4567664 27.941445,3.2783339 32.129887,3.2783339 C 36.318328,3.2783339 38.134392,4.5097427 41.765132,5.3048219 C 45.395874,6.0999014 50.841293,2.9122951 53.58806,4.3336221 C 56.334827,5.7549492 57.572055,7.4790552 59.108576,9.3577983 C 60.645097,11.236541 61.97669,13.3018 61.97669,15.469126 z "
       id="path1934"
       sodipodi:nodetypes="cssssssssssssssss" />
    <path
       style="color:#000000;fill:url(#radialGradient3741);fill-opacity:1;fill-rule:evenodd;stroke:none;stroke-width:1.26717591;stroke-linecap:butt;stroke-linejoin:miter;marker:none;marker-start:none;marker-mid:none;marker-end:none;stroke-miterlimit:4;stroke-dashoffset:0;stroke-opacity:1;visibility:visible;display:inline;overflow:visible"
       d="M 20.497543,1.9252791 C 15.224448,4.4363254 10.21996,8.1418495 4.7041022,9.9731267 C 2.6186388,13.1066 5.2887923,17.757705 3.5153487,21.361589 C 3.8861559,23.09051 8.1124458,20.127954 10.240297,21.019936 C 15.392064,22.031252 19.678953,26.087342 24.980842,27.093783 C 28.627222,28.312479 32.220511,33.117034 35.951339,29.067783 C 41.363551,23.37425 49.432863,27.56359 55.345005,24.512398 C 59.451432,21.161657 63.967876,13.511331 57.994227,9.4037029 C 56.284177,5.6282138 52.918593,4.4664154 49.537094,6.3667798 C 41.864314,8.6499911 34.771402,3.6953289 27.154562,3.7474332 C 24.804314,3.7509721 22.76334,1.9754894 20.497543,1.9252791 z "
       id="path2836" />
    <path
       style="color:#000000;fill:url(#radialGradient2851);fill-opacity:1;fill-rule:evenodd;stroke:none;stroke-width:1.26717591;stroke-linecap:butt;stroke-linejoin:miter;marker:none;marker-start:none;marker-mid:none;marker-end:none;stroke-miterlimit:4;stroke-dashoffset:0;stroke-opacity:1;visibility:visible;display:inline;overflow:visible"
       d="M 20.497543,1.9252791 C 15.224448,4.4363254 10.21996,8.1418495 4.7041022,9.9731267 C 2.6186388,13.1066 5.2887923,17.757705 3.5153487,21.361589 C 3.6118088,21.811342 3.9868621,21.965769 4.5003159,21.931012 C 4.5457651,19.008715 6.0287133,15.249781 6.0287133,12.820243 C 11.544571,10.988965 15.564092,8.042672 20.837186,5.5316258 C 23.102983,5.5818362 25.143958,7.3573187 27.494206,7.35378 C 35.111045,7.3016755 42.203958,12.256338 49.876738,9.9731267 C 53.258237,8.0727619 56.623821,9.23456 58.333871,13.01005 C 59.554647,13.849486 60.307735,14.826715 60.745342,15.895127 C 61.140799,13.490009 60.51436,11.136608 57.994227,9.4037029 C 56.284177,5.6282138 52.918593,4.4664154 49.537094,6.3667798 C 41.864314,8.6499911 34.771402,3.6953289 27.154562,3.7474332 C 24.804314,3.7509721 22.76334,1.9754894 20.497543,1.9252791 z "
       id="path1957"
       sodipodi:nodetypes="cccccccccccccc" />
  </g>
</svg>
