<?xml version="1.0" encoding="UTF-8" standalone="no"?>
<!-- Created with Inkscape (http://www.inkscape.org/) -->
<svg
   xmlns:dc="http://purl.org/dc/elements/1.1/"
   xmlns:cc="http://creativecommons.org/ns#"
   xmlns:rdf="http://www.w3.org/1999/02/22-rdf-syntax-ns#"
   xmlns:svg="http://www.w3.org/2000/svg"
   xmlns="http://www.w3.org/2000/svg"
   xmlns:xlink="http://www.w3.org/1999/xlink"
   xmlns:sodipodi="http://sodipodi.sourceforge.net/DTD/sodipodi-0.dtd"
   xmlns:inkscape="http://www.inkscape.org/namespaces/inkscape"
   width="64"
   height="64"
   id="svg2"
   sodipodi:version="0.32"
   inkscape:version="0.46"
   version="1.0"
   sodipodi:docname="palm.svg"
   inkscape:output_extension="org.inkscape.output.svg.inkscape"
   inkscape:export-filename="C:\Dokumente und Einstellungen\Frosty\Desktop\SMC\Drafts\Game\Frostbringer\overworld\desert\palm.png"
   inkscape:export-xdpi="90"
   inkscape:export-ydpi="90">
  <sodipodi:namedview
     id="base"
     pagecolor="#ffffff"
     bordercolor="#666666"
     borderopacity="1.0"
     inkscape:pageopacity="0.0"
     inkscape:pageshadow="2"
     inkscape:zoom="1"
     inkscape:cx="32"
     inkscape:cy="32"
     inkscape:document-units="px"
     inkscape:current-layer="layer1"
     showgrid="false"
     inkscape:window-width="1024"
     inkscape:window-height="696"
     inkscape:window-x="-4"
     inkscape:window-y="-4" />
  <defs
     id="defs4">
    <linearGradient
       id="linearGradient3347">
      <stop
         id="stop3349"
         offset="0"
         style="stop-color:#d47500;stop-opacity:1;" />
      <stop
         id="stop3351"
         offset="1"
         style="stop-color:#5c3300;stop-opacity:1;" />
    </linearGradient>
    <inkscape:perspective
       id="perspective10"
       inkscape:persp3d-origin="372.04724 : 350.78739 : 1"
       inkscape:vp_z="744.09448 : 526.18109 : 1"
       inkscape:vp_y="0 : 1000 : 0"
       inkscape:vp_x="0 : 526.18109 : 1"
       sodipodi:type="inkscape:persp3d" />
    <radialGradient
       gradientUnits="userSpaceOnUse"
       gradientTransform="matrix(0.5146953,3.7053405e-4,-3.654311e-4,0.5076163,-3.6806433,28.03089)"
       r="2.4889525"
       fy="59.578129"
       fx="21.511679"
       cy="59.578129"
       cx="21.511679"
       id="radialGradient3353"
       xlink:href="#linearGradient3347"
       inkscape:collect="always" />
    <radialGradient
       inkscape:collect="always"
       xlink:href="#linearGradient3347"
       id="radialGradient5246"
       gradientUnits="userSpaceOnUse"
       gradientTransform="matrix(0.9243558,6.783303e-4,-6.5628803e-4,0.9292844,-49.158202,-9.7511003)"
       cx="21.511679"
       cy="59.578129"
       fx="21.511679"
       fy="59.578129"
       r="2.4889525" />
    <radialGradient
       inkscape:collect="always"
       xlink:href="#linearGradient3347"
       id="radialGradient5248"
       gradientUnits="userSpaceOnUse"
       gradientTransform="matrix(0.9072214,6.67985e-4,-6.4412267e-4,0.9151118,-13.218256,-9.6945439)"
       cx="21.511679"
       cy="59.578129"
       fx="21.511679"
       fy="59.578129"
       r="2.4889525" />
    <radialGradient
       inkscape:collect="always"
       xlink:href="#linearGradient3347"
       id="radialGradient5252"
       gradientUnits="userSpaceOnUse"
       gradientTransform="matrix(0.9072214,-6.67985e-4,-6.4412267e-4,-0.9151118,-15.700108,118.45643)"
       cx="21.511679"
       cy="59.578129"
       fx="21.511679"
       fy="59.578129"
       r="2.4889525" />
  </defs>
  <metadata
     id="metadata7">
    <rdf:RDF>
      <cc:Work
         rdf:about="">
        <dc:format>image/svg+xml</dc:format>
        <dc:type
           rdf:resource="http://purl.org/dc/dcmitype/StillImage" />
      </cc:Work>
    </rdf:RDF>
  </metadata>
  <g
     id="layer1"
     inkscape:groupmode="layer"
     inkscape:label="Ebene 1">
    <path
       clip-path="none"
       id="path6431"
       d="M19.6290194067 18.5168558431C19.6290194067 18.5168558431 11.7366425933 18.4287541569 11.7366425933 18.4287541569C11.7366425933 18.4287541569 13.1573299194 23.7425502813 13.1573299194 23.7425502813C13.1573299194 23.7425502813 18.0900663027 23.7976138449 18.0900663027 23.7976138449C18.0900663027 23.7976138449 19.6290194067 18.5168558431 19.6290194067 18.5168558431C19.6290194067 18.5168558431 19.6290194067 18.5168558431 19.6290194067 18.5168558431M19.5698865177 23.8141329062C19.5698865177 23.8141329062 11.6775097044 23.72603122 11.6775097044 23.72603122C11.6775097044 23.72603122 13.2025867617 29.1236308217 13.2025867617 29.1236308217C13.2025867617 29.1236308217 18.1342273183 29.0105658232 18.1342273183 29.0105658232C18.1342273183 29.0105658232 19.5698865177 23.8141329062 19.5698865177 23.8141329062C19.5698865177 23.8141329062 19.5698865177 23.8141329062 19.5698865177 23.8141329062M19.6137187855 28.9766463397C19.6137187855 28.9766463397 11.7230952945 29.1575503052 11.7230952945 29.1575503052C11.7230952945 29.1575503052 13.5031830044 34.587225899 13.5031830044 34.587225899C13.5031830044 34.587225899 18.4139462959 34.1230359222 18.4139462959 34.1230359222C18.4139462959 34.1230359222 19.6137187855 28.9766463397 19.6137187855 28.9766463397C19.6137187855 28.9766463397 19.6137187855 28.9766463397 19.6137187855 28.9766463397M19.8871745865 33.9837789951C19.8871745865 33.9837789951 12.0299547138 34.7264828262 12.0299547138 34.7264828262C12.0299547138 34.7264828262 14.1738808852 39.9656367212 14.1738808852 39.9656367212C14.1738808852 39.9656367212 19.0547027549 39.2539433093 19.0547027549 39.2539433093C19.0547027549 39.2539433093 19.8871745865 33.9837789951 19.8871745865 33.9837789951C19.8871745865 33.9837789951 19.8871745865 33.9837789951 19.8871745865 33.9837789951M20.5189486232 39.0404353867C20.5189486232 39.0404353867 12.7096350169 40.1791446437 12.7096350169 40.1791446437C12.7096350169 40.1791446437 15.460369372 45.4908859077 15.460369372 45.4908859077C15.460369372 45.4908859077 20.1748047829 44.0396875613 20.1748047829 44.0396875613C20.1748047829 44.0396875613 20.5189486232 39.0404353867 20.5189486232 39.0404353867C20.5189486232 39.0404353867 20.5189486232 39.0404353867 20.5189486232 39.0404353867M21.5891347373 43.6043282633C21.5891347373 43.6043282633 14.0460394177 45.9262452058 14.0460394177 45.9262452058C14.0460394177 45.9262452058 17.4570047974 50.7520747174 17.4570047974 50.7520747174C17.4570047974 50.7520747174 21.9304666481 48.6740084676 21.9304666481 48.6740084676C21.9304666481 48.6740084676 21.5891347373 43.6043282633 21.5891347373 43.6043282633C21.5891347373 43.6043282633 21.5891347373 43.6043282633 21.5891347373 43.6043282633M23.2725045685 48.0505888875C23.2725045685 48.0505888875 16.114966877 51.3754942974 16.114966877 51.3754942974C16.114966877 51.3754942974 20.3103929169 55.6725305459 20.3103929169 55.6725305459C20.3103929169 55.6725305459 24.3904521015 52.9009504785 24.3904521015 52.9009504785C24.3904521015 52.9009504785 23.2725045685 48.0505888875 23.2725045685 48.0505888875C23.2725045685 48.0505888875 23.2725045685 48.0505888875 23.2725045685 48.0505888875M25.6144692779 52.0694768516C25.6144692779 52.0694768516 19.0863757404 56.5040041728 19.0863757404 56.5040041728C19.0863757404 56.5040041728 24.1671663948 60.1184528361 24.1671663948 60.1184528361C24.1671663948 60.1184528361 27.4614719859 56.4476317974 27.4614719859 56.4476317974C27.4614719859 56.4476317974 25.6144692779 52.0694768516 25.6144692779 52.0694768516C25.6144692779 52.0694768516 25.6144692779 52.0694768516 25.6144692779 52.0694768516M28.4497631958 55.3463860066C28.4497631958 55.3463860066 23.178875185 61.2196986269 23.178875185 61.2196986269C23.178875185 61.2196986269 28.6923692712 63.6594123407 28.6923692712 63.6594123407C28.6923692712 63.6594123407 31.2540469089 59.4444751323 31.2540469089 59.4444751323C31.2540469089 59.4444751323 28.4497631958 55.3463860066 28.4497631958 55.3463860066C28.4497631958 55.3463860066 28.4497631958 55.3463860066 28.4497631958 55.3463860066M32.0225498367 58.1799945679C32.0225498367 58.1799945679 27.9238663434 64.9238929052 27.9238663434 64.9238929052C27.9238663434 64.9238929052 33.4477822661 66.3045142982 33.4477822661 66.3045142982C33.4477822661 66.3045142982 35.7541112923 61.9445678439 35.7541112923 61.9445678439C35.7541112923 61.9445678439 32.0225498367 58.1799945679 32.0225498367 58.1799945679C32.0225498367 58.1799945679 32.0225498367 58.1799945679 32.0225498367 58.1799945679"
       style="fill:url(#radialGradient5252);fill-opacity:1;fill-rule:evenodd;stroke:#3b2600;stroke-width:0.49999997;stroke-linecap:round;stroke-linejoin:miter;marker:none;marker-start:none;marker-mid:none;marker-end:none;stroke-miterlimit:4;stroke-dasharray:none;stroke-dashoffset:0;stroke-opacity:1;visibility:visible;display:inline;overflow:visible;enable-background:accumulate" />
    <path
       clip-path="none"
       id="path1734"
       d="M35.0899978403 57.724583254C35.0899978403 57.724583254 40.6395499237 63.3364565987 40.6395499237 63.3364565987C40.6395499237 63.3364565987 35.4140285401 65.9256341803 35.4140285401 65.9256341803C35.4140285401 65.9256341803 32.3228734599 62.0813918197 32.3228734599 62.0813918197C32.3228734599 62.0813918197 35.0899978403 57.724583254 35.0899978403 57.724583254C35.0899978403 57.724583254 35.0899978403 57.724583254 35.0899978403 57.724583254M38.2713465012 54.1333363924C38.2713465012 54.1333363924 44.4786961585 59.0074186495 44.4786961585 59.0074186495C44.4786961585 59.0074186495 39.5990091629 62.2842306043 39.5990091629 62.2842306043C39.5990091629 62.2842306043 36.1305386011 58.7768092484 36.1305386011 58.7768092484C36.1305386011 58.7768092484 38.2713465012 54.1333363924 38.2713465012 54.1333363924C38.2713465012 54.1333363924 38.2713465012 54.1333363924 38.2713465012 54.1333363924M40.6591125855 50.2500312379C40.6591125855 50.2500312379 47.6594595703 53.8945034521 47.6594595703 53.8945034521C47.6594595703 53.8945034521 43.3148183828 58.0935284502 43.3148183828 58.0935284502C43.3148183828 58.0935284502 39.4352242768 55.0472265918 39.4352242768 55.0472265918C39.4352242768 55.0472265918 40.6591125855 50.2500312379 40.6591125855 50.2500312379C40.6591125855 50.2500312379 40.6591125855 50.2500312379 40.6591125855 50.2500312379M42.3612784436 45.972246566C42.3612784436 45.972246566 49.8877189962 48.3477218762 49.8877189962 48.3477218762C49.8877189962 48.3477218762 46.3468948322 53.2111650793 46.3468948322 53.2111650793C46.3468948322 53.2111650793 41.9716773236 50.9333696107 41.9716773236 50.9333696107C41.9716773236 50.9333696107 42.3612784436 45.972246566 42.3612784436 45.972246566C42.3612784436 45.972246566 42.3612784436 45.972246566 42.3612784436 45.972246566M43.4851279506 41.4020296412C43.4851279506 41.4020296412 51.2804251867 42.6336283207 51.2804251867 42.6336283207C51.2804251867 42.6336283207 48.4765117383 47.9023203647 48.4765117383 47.9023203647C48.4765117383 47.9023203647 43.7724857016 46.4176480776 43.7724857016 46.4176480776C43.7724857016 46.4176480776 43.4851279506 41.4020296412 43.4851279506 41.4020296412C43.4851279506 41.4020296412 43.4851279506 41.4020296412 43.4851279506 41.4020296412M44.1890117806 36.3432928385C44.1890117806 36.3432928385 52.0345103147 37.201845858 52.0345103147 37.201845858C52.0345103147 37.201845858 49.8188073129 42.4027036249 49.8188073129 42.4027036249C49.8188073129 42.4027036249 44.9467458243 41.6329543371 44.9467458243 41.6329543371C44.9467458243 41.6329543371 44.1890117806 36.3432928385 44.1890117806 36.3432928385C44.1890117806 36.3432928385 44.1890117806 36.3432928385 44.1890117806 36.3432928385M44.6108004749 31.2108313067C44.6108004749 31.2108313067 52.4830549697 31.7768712634 52.4830549697 31.7768712634C52.4830549697 31.7768712634 50.5634796998 37.0408672063 50.5634796998 37.0408672063C50.5634796998 37.0408672063 45.6600423954 36.5042714902 45.6600423954 36.5042714902C45.6600423954 36.5042714902 44.6108004749 31.2108313067 44.6108004749 31.2108313067C44.6108004749 31.2108313067 44.6108004749 31.2108313067 44.6108004749 31.2108313067M44.8116020734 26.107475346C44.8116020734 26.107475346 52.7022330424 26.2938797364 52.7022330424 26.2938797364C52.7022330424 26.2938797364 51.0070076134 31.6707387975 51.0070076134 31.6707387975C51.0070076134 31.6707387975 46.0868478311 31.3169637726 46.0868478311 31.3169637726C46.0868478311 31.3169637726 44.8116020734 26.107475346 44.8116020734 26.107475346C44.8116020734 26.107475346 44.8116020734 26.107475346 44.8116020734 26.107475346M44.9011163827 20.8813488872C44.9011163827 20.8813488872 52.7938138463 20.9267817412 52.7938138463 20.9267817412C52.7938138463 20.9267817412 51.2227400981 26.2589289218 51.2227400981 26.2589289218C51.2227400981 26.2589289218 46.2910950177 26.1424261607 46.2910950177 26.1424261607C46.2910950177 26.1424261607 44.9011163827 20.8813488872 44.9011163827 20.8813488872C44.9011163827 20.8813488872 44.9011163827 20.8813488872 44.9011163827 20.8813488872M44.9316104193 15.5838563387C44.9316104193 15.5838563387 52.8243078829 15.6292891927 52.8243078829 15.6292891927C52.8243078829 15.6292891927 51.3139334343 20.9182630832 51.3139334343 20.9182630832C51.3139334343 20.9182630832 46.3809967946 20.8898675452 46.3809967946 20.8898675452C46.3809967946 20.8898675452 44.9316104193 15.5838563387 44.9316104193 15.5838563387C44.9316104193 15.5838563387 44.9316104193 15.5838563387 44.9316104193 15.5838563387M44.9621044559 10.2863637902C44.9621044559 10.2863637902 52.8548019195 10.3317966441 52.8548019195 10.3317966441C52.8548019195 10.3317966441 51.344427471 15.6207705346 51.344427471 15.6207705346C51.344427471 15.6207705346 46.4114908312 15.5923749967 46.4114908312 15.5923749967C46.4114908312 15.5923749967 44.9621044559 10.2863637902 44.9621044559 10.2863637902C44.9621044559 10.2863637902 44.9621044559 10.2863637902 44.9621044559 10.2863637902"
       style="fill:url(#radialGradient5248);fill-opacity:1;fill-rule:evenodd;stroke:#3b2600;stroke-width:0.49999997;stroke-linecap:round;stroke-linejoin:miter;marker:none;marker-start:none;marker-mid:none;marker-end:none;stroke-miterlimit:4;stroke-dasharray:none;stroke-dashoffset:0;stroke-opacity:1;visibility:visible;display:inline;overflow:visible;enable-background:accumulate" />
    <path
       id="path2383"
       d="M 11.986744,8.1174912 C 11.782605,8.1885085 11.989687,9.9276919 12.310464,11.30078 C 11.910673,11.068628 11.07666,11.168695 10.987126,11.210798 C 10.754282,11.320294 12.122364,13.155872 12.81504,14.378279 C 12.176123,14.143236 10.712045,14.31531 10.605028,14.379694 C 10.379057,14.515649 12.531133,16.077764 13.560735,17.078437 C 13.553623,17.104584 13.534365,17.123704 13.527247,17.150537 C 12.780038,17.030009 11.945887,16.90734 11.314157,16.836302 C 11.009164,16.447855 10.75795,16.146661 10.684394,16.206959 C 10.633782,16.248452 10.608567,16.496111 10.599811,16.788708 C 10.506843,16.790916 10.449042,16.796943 10.425034,16.81695 C 10.383719,16.851373 10.46035,16.94332 10.594359,17.071158 C 10.598799,17.697813 10.6678,18.527518 10.777896,19.202683 C 9.6801191,18.302902 7.9608721,16.175846 7.7880721,16.371138 C 7.7088273,16.460699 7.3395003,17.735666 7.5812273,18.298986 C 6.2025437,17.643579 4.210348,15.987183 4.0732339,16.183462 C 4.0224498,16.256156 3.765347,17.374695 3.997886,17.712167 C 2.6167865,17.389664 0.45400489,17.190558 0.26353942,17.347339 C 0.090191817,17.490031 1.4868825,18.498361 2.7447544,19.211351 C 2.158854,19.256456 1.2984159,19.722563 1.2296596,19.792063 C 1.0508487,19.972802 3.7565486,20.480426 5.3160835,20.920016 C 4.4699885,21.077932 3.0072995,21.882233 2.9344508,21.974178 C 2.7760612,22.174089 6.3564204,22.119723 8.0822475,22.273639 C 6.5239033,22.768948 4.4207522,23.435146 4.3383417,23.592371 C 4.2298772,23.799299 7.773087,23.667961 9.6785261,23.426041 C 8.0134053,24.231979 6.5528771,25.279082 6.5077553,25.457364 C 6.4631304,25.633669 8.3843804,25.198768 10.227967,24.653733 C 10.394647,24.615627 10.546252,24.59187 10.720624,24.546959 C 9.194867,25.600289 8.0633515,26.919495 8.0718098,27.091666 C 8.0728143,27.112105 8.1003358,27.115509 8.1540262,27.108021 C 7.80289,27.412101 7.5574649,27.644626 7.5974735,27.674641 C 7.7220482,27.7681 9.9813831,26.824828 11.633042,25.972875 C 10.09007,27.454854 7.2342302,30.368012 7.4205583,30.427547 C 7.5631951,30.473122 9.6377531,29.187072 11.058401,28.189852 C 9.8513141,29.807132 7.1021479,32.870346 7.3227781,32.881156 C 7.4239593,32.88611 8.9234759,32.27587 9.6343581,31.655537 C 8.6968443,33.343275 6.4863044,36.293603 6.7117255,36.272288 C 6.7952119,36.264395 8.1404123,35.67414 8.5751105,35.225294 C 8.0430893,36.674304 7.5777956,38.740095 7.7497139,38.794317 C 7.9061804,38.843663 9.2798678,36.8873 10.275406,35.264244 C 10.271429,35.747334 10.743982,36.166045 10.821764,36.176285 C 11.024054,36.202914 11.933646,33.453199 12.626321,31.762417 C 12.733656,32.392917 13.541179,33.101785 13.645909,33.099386 C 13.873618,33.09417 14.169622,29.975536 14.530861,28.345061 C 14.977733,29.358399 15.595594,30.713813 15.778929,30.672599 C 16.005331,30.621708 16.180005,27.993774 16.117669,26.423947 C 16.158062,26.3579 16.204651,26.282184 16.245533,26.213103 C 16.711182,26.681479 17.221051,27.042491 17.628656,27.244342 C 17.76767,27.740462 17.931049,28.111877 18.020931,28.062721 C 18.218853,27.954474 18.739551,26.202625 18.986433,24.836608 C 19.033677,24.845446 19.077309,24.856332 19.123457,24.863868 C 19.766649,26.150399 20.991199,28.22066 21.193752,28.06381 C 21.356591,27.937714 21.390792,26.201416 21.270763,25.023248 C 22.296981,25.983065 23.884886,28.196778 24.065118,28.004933 C 24.147771,27.916951 24.551353,26.643287 24.345648,26.060238 C 25.660804,26.782584 27.521399,28.553379 27.666703,28.359101 C 27.72052,28.287146 28.024966,27.166358 27.815738,26.81355 C 29.151733,27.197156 31.287697,27.474515 31.48311,27.322573 C 31.660963,27.184287 30.344607,26.106836 29.151083,25.330723 C 29.727944,25.308294 30.584574,24.878942 30.655831,24.810959 C 30.84115,24.634166 28.229096,23.987545 26.724679,23.477615 C 27.562869,23.350794 29.051116,22.59712 29.127634,22.506454 C 29.294001,22.309329 25.763586,22.216528 24.080297,21.990698 C 25.635429,21.549018 27.741401,20.956044 27.830915,20.799318 C 27.948726,20.593049 24.472519,20.579489 22.591186,20.749352 C 23.252804,20.452062 23.85163,20.120528 24.379072,19.813354 C 25.907995,19.407731 27.374393,18.937702 27.369696,18.801577 C 27.363619,18.625498 25.686355,18.338887 24.075648,18.429828 C 26.061372,17.612945 29.106139,16.153338 29.042277,15.999662 C 28.983823,15.858993 26.769268,16.189681 25.087581,16.599128 C 26.956101,15.470354 30.491165,13.189032 30.368938,13.065924 C 30.275373,12.971681 28.072281,13.706449 26.511147,14.34625 C 28.171467,12.965121 31.681718,10.507127 31.511112,10.426277 C 31.432869,10.3892 29.976617,10.574162 29.142827,11.026289 C 30.619517,9.4841009 33.637477,6.9842312 33.449134,6.9368238 C 33.379381,6.919262 32.075758,7.1334755 31.535758,7.4855609 C 32.586762,6.0760601 33.837143,3.9696878 33.724061,3.8568712 C 33.62114,3.7541972 31.688844,5.4657164 30.194098,6.9193784 C 30.406729,6.3951582 30.209923,5.7809652 30.15256,5.7454691 C 30.003384,5.6531571 28.10352,8.3592224 26.820036,9.9813919 C 27.008147,9.2619759 26.658673,8.2457555 26.574422,8.2155684 C 26.391243,8.14993 24.796237,11.453912 23.802239,13.11428 C 23.886584,11.872111 23.990418,10.186149 23.826888,10.173564 C 23.611665,10.156998 22.142381,13.398859 21.572953,15.065108 C 21.497743,14.719728 21.39333,14.392717 21.275054,14.107984 C 21.431955,13.639274 21.533881,13.281779 21.455835,13.29334 C 21.40216,13.30129 21.256093,13.446626 21.05455,13.654566 C 20.812885,13.207186 20.567309,12.919908 20.454015,12.936528 C 20.299506,12.959193 20.063512,13.894479 19.887267,14.981806 C 19.643408,15.279107 19.419985,15.570671 19.18216,15.881169 C 19.077559,15.77994 18.960543,15.694742 18.852668,15.610849 C 19.18205,13.942306 19.527704,11.806297 19.323617,11.876805 C 19.137028,11.941264 18.053137,13.818044 17.408101,15.150206 C 17.31237,13.652118 17.632919,10.514287 17.394212,10.642381 C 17.284741,10.701125 16.205947,11.9217 15.984627,12.646007 C 15.549362,11.277198 15.38864,8.5260704 15.171806,8.6723339 C 15.091497,8.7265053 14.209045,9.8167119 14.131834,10.292682 C 13.474075,9.2822769 12.211043,8.0394598 11.986744,8.1174912 z M 12.403799,18.344725 C 12.675516,18.512693 12.909371,18.665286 13.174217,18.813024 C 13.14848,18.969601 13.130027,19.123003 13.110326,19.272873 C 13.060156,19.278382 13.008337,19.283966 12.958688,19.289965 C 12.791047,19.004244 12.618697,18.677247 12.403799,18.344725 z"
       style="fill:#225500;fill-opacity:1;fill-rule:evenodd;stroke:none;stroke-width:0.15447618;stroke-linecap:round;stroke-linejoin:miter;marker:none;marker-start:none;marker-mid:none;marker-end:none;stroke-miterlimit:4;stroke-dasharray:none;stroke-dashoffset:0;stroke-opacity:1;visibility:visible;display:inline;overflow:visible;enable-background:accumulate" />
    <path
       sodipodi:nodetypes="csscscscscscscscscscscsscsc"
       id="path3187"
       d="M 19.935058,19.559877 C 20.00046,19.906874 20.517016,20.396972 21.127581,20.637511 C 22.076584,21.011384 23.743593,21.367323 23.866915,21.233067 C 23.979214,21.110811 23.550407,20.37084 22.897131,19.9024 C 24.160962,19.998583 26.224971,20.003127 26.301383,19.877134 C 26.37133,19.761812 25.350982,19.253419 24.464336,18.979125 C 25.88782,18.823698 28.677874,18.425424 28.712873,18.301088 C 28.739665,18.205905 27.435894,17.98787 26.443868,17.910605 C 27.954713,17.51425 30.853647,16.994303 30.843311,16.882891 C 30.838571,16.831797 30.17323,16.475969 29.571572,16.51011 C 31.119453,15.943278 33.877827,15.224551 33.839195,15.130136 C 33.824889,15.095166 33.195662,14.816407 32.767449,14.878994 C 34.071999,14.262562 35.898619,13.240363 35.930297,13.126069 C 35.959127,13.022045 34.142663,13.548971 32.645706,14.0494 C 33.065143,13.761422 33.385487,13.283919 33.387419,13.240783 C 33.392444,13.128601 30.926011,14.348021 29.397365,15.033119 C 29.934735,14.603754 30.474503,13.788422 30.463065,13.740052 C 30.438193,13.634888 27.701033,15.370331 26.254319,16.176867 C 27.093464,15.356313 28.228507,14.244296 28.176377,14.181836 C 28.107764,14.09963 25.464839,15.818795 24.170903,16.769197 C 24.863759,15.852158 25.234848,14.997971 25.138401,14.950357 C 25.03295,14.8983 23.593797,16.107925 22.516573,17.156863 C 22.9468,16.24779 22.857494,15.488742 22.721576,15.46735 C 22.572602,15.443899 21.459521,16.811931 20.742436,17.863786 C 20.430529,18.321308 20.199192,18.840294 20.094331,19.239591 C 20.071266,19.250616 20.052139,19.257379 20.033523,19.271846 C 19.944647,19.340919 19.913257,19.444211 19.935058,19.559877 z"
       style="fill:#89a02c;fill-opacity:1;fill-rule:evenodd;stroke:none;stroke-width:0.15447617;stroke-linecap:round;stroke-linejoin:miter;marker:none;marker-start:none;marker-mid:none;marker-end:none;stroke-miterlimit:4;stroke-dasharray:none;stroke-dashoffset:0;stroke-opacity:1;visibility:visible;display:inline;overflow:visible;enable-background:accumulate" />
    <path
       sodipodi:nodetypes="csscscscscscscscscscscsscsc"
       id="path3196"
       d="M 18.607075,20.820077 C 18.133667,21.031125 17.281096,21.722124 16.707835,22.391989 C 15.81681,23.433166 14.637442,25.131647 14.756158,25.187663 C 14.864262,25.238671 15.999264,24.5206 16.883343,23.712351 C 16.211955,24.924733 15.311128,26.838583 15.439583,26.854729 C 15.557163,26.869514 16.651655,25.703921 17.387927,24.763686 C 16.970017,26.014853 16.270992,28.42656 16.415285,28.405065 C 16.525743,28.388608 17.370735,27.086389 17.899996,26.133979 C 17.753211,27.361596 17.16303,29.821397 17.310404,29.763512 C 17.377991,29.736965 18.122871,28.966369 18.339977,28.42386 C 18.395779,29.61186 18.121491,31.855266 18.259341,31.77854 C 18.310393,31.750126 18.940767,31.0464 19.046179,30.676889 C 19.271106,31.617985 19.790079,32.866723 19.92293,32.846504 C 20.043845,32.828102 20.155692,31.374011 20.162975,30.20439 C 20.350447,30.468037 20.823967,30.557712 20.878453,30.540796 C 21.020154,30.496809 20.525676,28.740936 20.30985,27.622037 C 20.627522,27.933617 21.439182,28.080051 21.506177,28.048483 C 21.651841,27.979843 20.612923,26.196961 20.205816,25.206612 C 20.89436,25.628094 21.82841,26.19728 21.931124,26.121909 C 22.066309,26.022706 21.007405,24.320052 20.349537,23.533607 C 21.225261,23.777744 22.159894,23.751087 22.262783,23.641101 C 22.375273,23.52085 21.447906,22.712292 20.569684,22.169314 C 21.549071,22.173634 22.561324,21.76177 22.6477,21.626593 C 22.742374,21.47843 21.470448,21.040601 20.432321,20.832481 C 19.980771,20.741956 19.415451,20.752714 18.948798,20.828725 C 18.944658,20.812142 18.944276,20.797357 18.933794,20.786389 C 18.883746,20.734011 18.764876,20.749727 18.607075,20.820077 z"
       style="fill:#89a02c;fill-opacity:1;fill-rule:evenodd;stroke:none;stroke-width:0.15447617;stroke-linecap:round;stroke-linejoin:miter;marker:none;marker-start:none;marker-mid:none;marker-end:none;stroke-miterlimit:4;stroke-dasharray:none;stroke-dashoffset:0;stroke-opacity:1;visibility:visible;display:inline;overflow:visible;enable-background:accumulate" />
    <path
       sodipodi:nodetypes="csscscscscscscscscscscsscsc"
       id="path3198"
       d="M 18.571537,19.342013 C 19.044946,19.130963 19.897516,18.439966 20.470777,17.770101 C 21.361803,16.728924 22.541169,15.030444 22.422455,14.974428 C 22.31435,14.923419 21.179348,15.641489 20.29527,16.449738 C 20.966656,15.237355 21.867486,13.323506 21.739031,13.30736 C 21.621451,13.292577 20.526957,14.458169 19.790686,15.398404 C 20.208596,14.147236 20.90762,11.73553 20.763329,11.757025 C 20.652868,11.77348 19.807877,13.075702 19.278615,14.028111 C 19.425403,12.800495 20.015583,10.340692 19.868206,10.398579 C 19.800622,10.425125 19.055743,11.195722 18.838634,11.738228 C 18.782833,10.550229 19.05712,8.306822 18.919272,8.3835497 C 18.868218,8.4119627 18.237844,9.1156889 18.132433,9.4852019 C 17.907504,8.5441033 17.388534,7.2953673 17.25568,7.3155856 C 17.134765,7.3339879 17.022919,8.7880779 17.015638,9.9576989 C 16.828163,9.6940539 16.354645,9.6043779 16.300158,9.6212929 C 16.158457,9.6652829 16.652936,11.421153 16.868761,12.540054 C 16.551089,12.228475 15.739431,12.082039 15.672434,12.113607 C 15.526769,12.182248 16.565688,13.965131 16.972795,14.955478 C 16.284252,14.533996 15.350202,13.964808 15.247486,14.040183 C 15.112303,14.139383 16.171208,15.842036 16.829077,16.628484 C 15.953354,16.384348 15.018717,16.411004 14.91583,16.520988 C 14.803338,16.641239 15.730709,17.449794 16.608926,17.992775 C 15.629541,17.988455 14.617288,18.400318 14.530913,18.535498 C 14.436236,18.683657 15.708165,19.121488 16.746293,19.329608 C 17.197842,19.420134 17.763161,19.409376 18.229815,19.333364 C 18.233955,19.349946 18.234334,19.364731 18.244816,19.375702 C 18.294866,19.428079 18.413734,19.412362 18.571537,19.342013 z"
       style="fill:#89a02c;fill-opacity:1;fill-rule:evenodd;stroke:none;stroke-width:0.15447617;stroke-linecap:round;stroke-linejoin:miter;marker:none;marker-start:none;marker-mid:none;marker-end:none;stroke-miterlimit:4;stroke-dasharray:none;stroke-dashoffset:0;stroke-opacity:1;visibility:visible;display:inline;overflow:visible;enable-background:accumulate" />
    <path
       sodipodi:nodetypes="csscscscscscscscscscscsscsc"
       id="path3200"
       d="M 17.002368,20.714791 C 16.936961,20.367792 16.420409,19.877695 15.809843,19.637156 C 14.860839,19.263282 13.193831,18.907344 13.070511,19.0416 C 12.958212,19.163855 13.38702,19.903825 14.040294,20.372266 C 12.776465,20.276083 10.712454,20.271541 10.636043,20.39753 C 10.566097,20.512854 11.586444,21.021247 12.47309,21.295543 C 11.049605,21.450971 8.2595512,21.849241 8.2245531,21.973579 C 8.1977602,22.068759 9.5015341,22.286797 10.493558,22.364061 C 8.9827122,22.760417 6.0837786,23.280364 6.0941144,23.391777 C 6.0988545,23.442868 6.7641953,23.798699 7.3658529,23.764557 C 5.8179711,24.331391 3.0596002,25.050114 3.0982329,25.144531 C 3.1125382,25.179499 3.7417634,25.458261 4.1699778,25.395673 C 2.8654259,26.012103 1.0388063,27.034303 1.0071292,27.148598 C 0.97829965,27.25262 2.7947637,26.725695 4.2917174,26.225267 C 3.8722829,26.513245 3.5519381,26.990748 3.5500079,27.033883 C 3.5449827,27.146065 6.0114143,25.926648 7.5400609,25.241548 C 7.0026903,25.670914 6.462923,26.486246 6.474361,26.534616 C 6.4992323,26.639779 9.2363931,24.904335 10.683108,24.097798 C 9.8439621,24.918354 8.708918,26.030371 8.7610494,26.092833 C 8.8296617,26.175037 11.472586,24.455871 12.766522,23.505469 C 12.073669,24.422509 11.702578,25.276696 11.799025,25.324309 C 11.904475,25.376365 13.343629,24.166742 14.420851,23.117803 C 13.990627,24.026876 14.079932,24.785924 14.215852,24.807316 C 14.364824,24.830766 15.477904,23.462738 16.194988,22.41088 C 16.506896,21.953359 16.738232,21.434373 16.843095,21.035077 C 16.866158,21.02405 16.885286,21.017287 16.903903,21.002821 C 16.992779,20.933749 17.024168,20.830456 17.002368,20.714791 z"
       style="fill:#89a02c;fill-opacity:1;fill-rule:evenodd;stroke:none;stroke-width:0.15447617;stroke-linecap:round;stroke-linejoin:miter;marker:none;marker-start:none;marker-mid:none;marker-end:none;stroke-miterlimit:4;stroke-dasharray:none;stroke-dashoffset:0;stroke-opacity:1;visibility:visible;display:inline;overflow:visible;enable-background:accumulate" />
    <path
       id="path3359"
       d="M 32.497636,7.0244258 C 32.388909,7.1124342 34.071823,8.3691119 35.53177,9.3341168 C 34.996506,9.2306009 34.387264,9.448905 34.34909,9.4956459 C 34.249813,9.6171987 36.985479,10.745136 38.625008,11.53398 C 37.887642,11.469586 36.815022,11.850144 36.781603,11.916458 C 36.711033,12.056489 39.863641,12.8459 41.591871,13.411821 C 41.608638,13.432478 41.609165,13.450011 41.626521,13.471178 C 40.898196,13.510573 40.095444,13.563383 39.506476,13.619623 C 38.914631,13.383598 38.443433,13.203131 38.434396,13.260636 C 38.428177,13.300205 38.622164,13.488597 38.868906,13.707543 C 38.793226,13.725229 38.750215,13.739683 38.747545,13.758694 C 38.742951,13.791406 38.886745,13.846507 39.1096,13.918378 C 39.657403,14.38329 40.435401,14.987951 41.113519,15.470677 C 39.415985,14.9915 36.134131,13.707566 36.159463,13.882516 C 36.171084,13.962747 36.969825,14.973942 37.660698,15.350835 C 35.940882,15.101738 32.839863,14.214672 32.895839,14.384195 C 32.916569,14.446979 33.673159,15.322561 34.160269,15.533207 C 32.727483,15.531914 30.749394,15.75723 30.726546,15.906609 C 30.705753,16.042564 32.747026,16.550817 34.416,16.863559 C 33.96613,16.998198 33.65265,17.493073 33.655603,17.556587 C 33.663283,17.721756 36.36241,17.632006 38.04579,17.689513 C 37.476692,17.952893 36.954172,18.803029 36.973199,18.883928 C 37.014571,19.059823 39.955795,18.401489 41.529935,18.218006 C 40.659286,18.855033 39.48228,19.713079 39.550007,19.844142 C 39.639142,20.016633 42.482526,19.30751 43.862896,18.798877 C 43.172829,19.685167 42.86293,20.715362 42.980064,20.855634 C 43.095896,20.994351 44.321901,20.339579 45.387458,19.616369 C 45.493494,19.559284 45.599409,19.515464 45.70596,19.451997 C 45.347017,20.498076 45.547993,21.67369 45.704544,21.800174 C 45.723128,21.81519 45.749056,21.81297 45.787366,21.798138 C 45.758305,22.084709 45.75535,22.299861 45.814804,22.315259 C 45.999929,22.363211 47.066724,21.272308 47.705598,20.354147 C 47.704471,21.721735 47.850172,24.379447 48.057386,24.391531 C 48.216014,24.400781 48.830959,23.087045 49.150885,22.100802 C 49.547589,23.510966 49.912615,26.261776 50.106154,26.23173 C 50.194908,26.217949 50.916665,25.505667 50.971404,24.921994 C 51.65429,26.337989 52.370878,28.91195 52.540523,28.857207 C 52.603354,28.836931 53.213657,28.166133 53.186772,27.757563 C 54.00083,28.92617 55.406117,30.541605 55.596689,30.552226 C 55.770135,30.561892 55.218074,28.870998 54.639781,27.493055 C 55.055912,27.852734 55.813889,28.082328 55.887705,28.076512 C 56.07967,28.061389 54.451402,25.861037 53.561514,24.485037 C 54.198544,24.935046 55.488045,25.322451 55.57338,25.302593 C 55.758912,25.259415 53.298179,22.890811 52.184014,21.616828 C 53.436851,22.292734 55.12942,23.193331 55.246659,23.131064 C 55.391444,23.05417 53.255499,21.071155 51.840445,19.915345 C 51.816811,19.859293 51.789957,19.794987 51.7641,19.736594 C 52.55944,20.004288 53.298466,20.184564 53.813943,20.264215 C 54.360739,20.6089 54.819593,20.856708 54.851934,20.804665 C 54.923147,20.690067 53.83669,19.298365 52.856694,18.240645 C 52.9038,18.239058 52.949671,18.239617 52.994732,18.237253 C 54.648635,19.08229 57.468268,20.409396 57.501146,20.257879 C 57.527579,20.136069 56.048561,18.839892 54.925412,17.985087 C 56.615346,18.521232 59.862812,19.892228 59.846675,19.718558 C 59.83927,19.638909 59.070253,18.622773 58.392317,18.225001 C 60.11723,18.534809 63.207735,19.5296 63.160331,19.360149 C 63.142775,19.297391 62.423748,18.411967 61.94278,18.185899 C 63.39097,18.240386 65.414623,18.077851 65.445801,17.931214 C 65.47418,17.797755 63.439943,17.22427 61.769869,16.853516 C 62.231885,16.737287 62.5741,16.270383 62.574551,16.207565 C 62.575726,16.044201 59.834079,16.0145 58.13563,15.895209 C 58.72513,15.656301 59.312941,14.839376 59.298086,14.758795 C 59.265789,14.583593 56.238474,15.123946 54.637401,15.246645 C 55.551931,14.650025 56.79487,13.845903 56.733505,13.713989 C 56.652743,13.540374 53.739473,14.130256 52.316664,14.581183 C 52.610772,14.246071 52.822738,13.896352 52.99627,13.577053 C 53.920232,13.011752 54.736084,12.409378 54.613971,12.309033 C 54.456017,12.179234 52.807197,12.255726 51.541742,12.601297 C 52.489901,11.65154 53.763962,10.041383 53.577226,9.9382052 C 53.406299,9.8437604 51.844995,10.47171 50.796846,11.06622 C 51.376374,9.9049191 52.346204,7.5995097 52.137297,7.5291203 C 51.977371,7.4752345 50.776482,8.4014856 50.028964,9.1463696 C 50.215601,7.8334717 51.011323,5.4010558 50.798725,5.3704205 C 50.701225,5.356372 49.646328,5.7451542 49.342951,6.2250424 C 49.236477,4.8241516 49.584941,2.4455825 49.386572,2.4428582 C 49.313103,2.4418471 48.410997,2.826025 48.265979,3.1808657 C 47.919405,1.9520468 47.134173,0.17095737 46.941833,0.10663847 C 46.766782,0.048102369 46.639998,1.6534599 46.654536,2.9916812 C 46.376852,2.5654253 45.6793,2.1429736 45.6006,2.1264956 C 45.395935,2.0836425 46.159752,4.4224682 46.496937,5.8494502 C 46.029303,5.2823728 44.85526,4.5875148 44.758727,4.5796225 C 44.548841,4.5624616 46.086263,7.2929949 46.698239,8.6983993 C 45.690108,7.7607644 44.312915,6.4899723 44.165494,6.5088433 C 43.971469,6.5336786 45.559888,9.1963498 46.531346,10.53285 C 46.168691,10.289172 45.797608,10.064184 45.451662,9.8730068 C 45.175658,9.4976193 44.950335,9.2143681 44.895229,9.236427 C 44.857332,9.2515995 44.861604,9.3848134 44.87393,9.5741211 C 44.283773,9.2833713 43.829362,9.1122755 43.749229,9.1441795 C 43.639947,9.1876877 44.255043,9.9234477 45.052025,10.761879 C 45.106617,11.024896 45.173284,11.280125 45.244375,11.551907 C 45.069172,11.494733 44.897529,11.451618 44.734647,11.407893 C 43.560836,10.111119 41.994725,8.4641544 41.885598,8.5517726 C 41.785826,8.6318779 42.510674,10.213617 43.12895,11.314899 C 41.748308,10.218164 39.291396,7.8310581 39.203372,7.9674455 C 39.163006,8.0299939 39.322347,9.1232144 39.766507,9.6996581 C 38.214715,8.7575907 35.691861,6.7409172 35.637871,6.8870317 C 35.617874,6.9411472 35.827901,7.9036023 36.176724,8.2706308 C 34.750413,7.6333037 32.6171,6.9277277 32.497636,7.0244258 z M 41.72568,14.552499 C 42.098314,14.630424 42.425998,14.703457 42.775335,14.767534 C 42.8898,14.888331 43.007595,15.005513 43.121274,15.120284 C 43.084185,15.133037 43.045781,15.14613 43.009547,15.159156 C 42.621541,14.975764 42.193767,14.762514 41.72568,14.552499 z"
       style="fill:#225500;fill-opacity:1;fill-rule:evenodd;stroke:none;stroke-width:0.15447618;stroke-linecap:round;stroke-linejoin:miter;marker:none;marker-start:none;marker-mid:none;marker-end:none;stroke-miterlimit:4;stroke-dasharray:none;stroke-dashoffset:0;stroke-opacity:1;visibility:visible;display:inline;overflow:visible;enable-background:accumulate" />
    <path
       sodipodi:nodetypes="csscscscscscscscscscscsscsc"
       id="path3361"
       d="M 49.066887,14.155682 C 49.422765,14.402254 50.279453,14.677303 50.997925,14.750675 C 52.114653,14.864718 53.815109,14.841515 53.801473,14.720464 C 53.789056,14.61023 52.788651,14.134352 51.836649,13.898994 C 52.975046,13.752345 54.701764,13.399494 54.656149,13.292679 C 54.6144,13.194907 53.321325,12.993215 52.343106,12.942405 C 53.396298,12.581227 55.379274,11.803729 55.300528,11.705291 C 55.240248,11.629935 53.962711,11.692926 53.06761,11.806722 C 53.984529,11.251427 55.952739,10.364717 55.847376,10.283709 C 55.799057,10.246558 54.934761,10.096966 54.462217,10.226177 C 55.262031,9.5378039 56.940328,8.527639 56.826103,8.4641443 C 56.783801,8.4406266 56.016566,8.3420739 55.713489,8.4624888 C 56.267137,7.7792539 56.904228,6.7043824 56.83143,6.6139806 C 56.765173,6.5317026 55.706531,7.2367746 54.891568,7.8670125 C 54.991619,7.580619 54.844404,7.1704907 54.808562,7.1381017 C 54.715353,7.0538699 53.715468,8.3857243 53.034394,9.1586639 C 53.110121,8.7468501 52.852726,8.0478028 52.801182,8.0138311 C 52.689111,7.9399745 51.911304,9.7020235 51.404055,10.551062 C 51.392009,9.7964649 51.373875,8.7742073 51.276128,8.736789 C 51.147486,8.6875427 50.434199,10.421228 50.179384,11.350811 C 49.961458,10.54976 49.529539,9.8509538 49.407696,9.8322169 C 49.274481,9.8117313 49.123533,10.95901 49.135158,11.924415 C 48.704941,11.174612 47.971348,10.625963 47.839324,10.633523 C 47.694617,10.641808 47.953373,11.850523 48.268129,12.755941 C 48.40504,13.149763 48.662566,13.575359 48.921736,13.890182 C 48.912058,13.902357 48.901965,13.910683 48.898987,13.924646 C 48.884776,13.991316 48.948261,14.073492 49.066887,14.155682 z"
       style="fill:#89a02c;fill-opacity:1;fill-rule:evenodd;stroke:none;stroke-width:0.15447617;stroke-linecap:round;stroke-linejoin:miter;marker:none;marker-start:none;marker-mid:none;marker-end:none;stroke-miterlimit:4;stroke-dasharray:none;stroke-dashoffset:0;stroke-opacity:1;visibility:visible;display:inline;overflow:visible;enable-background:accumulate" />
    <path
       sodipodi:nodetypes="csscscscscscscscscscscsscsc"
       id="path3363"
       d="M 49.052644,15.321357 C 48.840749,15.559896 48.729099,16.220535 48.832234,16.817265 C 48.992537,17.744765 49.482882,19.210484 49.630607,19.231621 C 49.765127,19.25087 50.089006,18.521367 50.125149,17.76816 C 50.617429,18.784979 51.52726,20.362669 51.648498,20.352499 C 51.759474,20.343193 51.660975,19.288118 51.459148,18.46234 C 52.196675,19.464233 53.707216,21.377063 53.808989,21.336186 C 53.886898,21.304894 53.461518,20.191351 53.076335,19.392253 C 54.019713,20.329852 55.662863,22.259636 55.735612,22.191186 C 55.768975,22.159793 55.721625,21.458589 55.431796,21.017972 C 56.50987,21.891165 58.228799,23.605623 58.277241,23.524814 C 58.295182,23.494888 58.210318,22.863141 57.977469,22.570355 C 58.982329,23.230883 60.499734,24.069274 60.593068,24.031321 C 60.678016,23.996777 59.508834,22.896912 58.499375,22.026485 C 58.884767,22.190051 59.357863,22.174967 59.388653,22.152991 C 59.468735,22.095846 57.531446,20.876368 56.379802,20.082141 C 56.915486,20.258853 57.720101,20.227589 57.748611,20.192568 C 57.810595,20.116419 55.395425,18.970831 54.195741,18.305148 C 55.136407,18.499523 56.410236,18.761289 56.430525,18.687552 C 56.457229,18.590501 54.095037,17.507984 52.863089,17.037101 C 53.806006,17.067383 54.562974,16.886264 54.553358,16.786774 C 54.542842,16.677999 53.06675,16.237201 51.862275,15.985275 C 52.683493,15.819453 53.170785,15.338685 53.125511,15.223324 C 53.075889,15.096882 51.634096,14.991045 50.586896,15.015556 C 50.1314,15.026217 49.668884,15.131779 49.34538,15.268806 C 49.327525,15.257197 49.31437,15.246275 49.296096,15.239934 C 49.208847,15.209649 49.123274,15.241843 49.052644,15.321357 z"
       style="fill:#89a02c;fill-opacity:1;fill-rule:evenodd;stroke:none;stroke-width:0.15447617;stroke-linecap:round;stroke-linejoin:miter;marker:none;marker-start:none;marker-mid:none;marker-end:none;stroke-miterlimit:4;stroke-dasharray:none;stroke-dashoffset:0;stroke-opacity:1;visibility:visible;display:inline;overflow:visible;enable-background:accumulate" />
    <path
       sodipodi:nodetypes="csscscscscscscscscscscsscsc"
       id="path3365"
       d="M 47.739631,14.229114 C 47.951526,13.990572 48.063175,13.329934 47.96004,12.733205 C 47.799738,11.805706 47.309393,10.339984 47.161669,10.318848 C 47.027147,10.299599 46.703268,11.029102 46.667127,11.782311 C 46.174845,10.76549 45.265015,9.187799 45.143778,9.1979703 C 45.032802,9.2072767 45.131299,10.26235 45.333126,11.08813 C 44.595602,10.086237 43.085059,8.1734067 42.983286,8.2142838 C 42.905376,8.2455748 43.330756,9.3591192 43.715939,10.158217 C 42.772564,9.2206175 41.129414,7.2908334 41.056663,7.359284 C 41.023301,7.3906775 41.070652,8.0918798 41.360478,8.5324987 C 40.282404,7.6593035 38.563475,5.9448472 38.515035,6.025656 C 38.497095,6.0555819 38.581957,6.6873286 38.814807,6.9801139 C 37.809943,6.3195866 36.292541,5.4811965 36.199207,5.5191491 C 36.114261,5.5536947 37.283439,6.6535584 38.292902,7.5239832 C 37.907508,7.3604196 37.434414,7.3755039 37.403622,7.3974774 C 37.323543,7.4546251 39.260829,8.6741025 40.412475,9.4683288 C 39.87679,9.291615 39.072174,9.3228812 39.043665,9.357903 C 38.981679,9.4340519 41.396851,10.579639 42.596534,11.245322 C 41.65587,11.050948 40.382037,10.78918 40.361748,10.862919 C 40.335047,10.959968 42.697237,12.042486 43.929189,12.51337 C 42.986269,12.483088 42.2293,12.664206 42.23892,12.763695 C 42.249435,12.872469 43.725524,13.313267 44.93,13.565196 C 44.108781,13.731018 43.62149,14.211785 43.666763,14.327146 C 43.716385,14.453588 45.15818,14.559425 46.205381,14.534914 C 46.660875,14.524252 47.12339,14.41869 47.446896,14.281665 C 47.464751,14.293271 47.477906,14.304195 47.496178,14.310536 C 47.583431,14.340821 47.669001,14.308626 47.739631,14.229114 z"
       style="fill:#89a02c;fill-opacity:1;fill-rule:evenodd;stroke:none;stroke-width:0.15447617;stroke-linecap:round;stroke-linejoin:miter;marker:none;marker-start:none;marker-mid:none;marker-end:none;stroke-miterlimit:4;stroke-dasharray:none;stroke-dashoffset:0;stroke-opacity:1;visibility:visible;display:inline;overflow:visible;enable-background:accumulate" />
    <path
       sodipodi:nodetypes="csscscscscscscscscscscsscsc"
       id="path3367"
       d="M 47.621822,15.520073 C 47.265944,15.2735 46.409257,14.998451 45.690784,14.925079 C 44.574056,14.811035 42.873602,14.83424 42.887238,14.955293 C 42.899654,15.065524 43.900057,15.541401 44.852059,15.77676 C 43.713663,15.923408 41.986946,16.276263 42.03256,16.383076 C 42.074311,16.480846 43.367386,16.682541 44.345606,16.733349 C 43.292414,17.094529 41.309436,17.872028 41.388181,17.970463 C 41.448461,18.045818 42.725998,17.982828 43.621099,17.869033 C 42.70418,18.424328 40.735969,19.311037 40.841332,19.392046 C 40.88965,19.429195 41.753947,19.57879 42.226491,19.449578 C 41.426678,20.137952 39.748382,21.148114 39.862608,21.21161 C 39.90491,21.235127 40.672144,21.33368 40.975221,21.213267 C 40.421573,21.896501 39.784481,22.971372 39.857279,23.061773 C 39.923536,23.14405 40.982178,22.438978 41.79714,21.808743 C 41.69709,22.095134 41.844305,22.505265 41.880148,22.537652 C 41.973359,22.621883 42.973243,21.290029 43.654316,20.517091 C 43.578589,20.928906 43.835986,21.627953 43.887529,21.661923 C 43.999599,21.735779 44.777408,19.973733 45.284652,19.12469 C 45.296701,19.87929 45.314835,20.901548 45.41258,20.938965 C 45.541224,20.988212 46.254511,19.254524 46.509324,18.324943 C 46.727251,19.125992 47.159172,19.824802 47.281016,19.843538 C 47.41423,19.864022 47.565178,18.716744 47.553551,17.751341 C 47.983769,18.501143 48.717364,19.049793 48.849386,19.042231 C 48.994091,19.033947 48.735338,17.825231 48.420581,16.919816 C 48.283672,16.525991 48.026144,16.100395 47.766975,15.785573 C 47.776652,15.773398 47.786744,15.76507 47.789722,15.751106 C 47.803933,15.68444 47.740446,15.602263 47.621822,15.520073 z"
       style="fill:#89a02c;fill-opacity:1;fill-rule:evenodd;stroke:none;stroke-width:0.15447617;stroke-linecap:round;stroke-linejoin:miter;marker:none;marker-start:none;marker-mid:none;marker-end:none;stroke-miterlimit:4;stroke-dasharray:none;stroke-dashoffset:0;stroke-opacity:1;visibility:visible;display:inline;overflow:visible;enable-background:accumulate" />
  </g>
</svg>
