<?xml version="1.0" encoding="UTF-8" standalone="no"?>
<!-- Created with Inkscape (http://www.inkscape.org/) -->
<svg
   xmlns:dc="http://purl.org/dc/elements/1.1/"
   xmlns:cc="http://web.resource.org/cc/"
   xmlns:rdf="http://www.w3.org/1999/02/22-rdf-syntax-ns#"
   xmlns:svg="http://www.w3.org/2000/svg"
   xmlns="http://www.w3.org/2000/svg"
   xmlns:sodipodi="http://sodipodi.sourceforge.net/DTD/sodipodi-0.dtd"
   xmlns:inkscape="http://www.inkscape.org/namespaces/inkscape"
   width="64"
   height="64"
   id="svg2"
   sodipodi:version="0.32"
   inkscape:version="0.45.1"
   version="1.0"
   sodipodi:docbase="D:\Dateien\Desktop\Secret Maryo Chronicles\Drafts\Game\Frostbringer\blocks"
   sodipodi:docname="block_blue_x.svg"
   inkscape:export-filename="N:\Dokumente und Einstellungen\FluXy\Desktop\blue_x.png"
   inkscape:export-xdpi="360"
   inkscape:export-ydpi="360"
   inkscape:output_extension="org.inkscape.output.svg.inkscape">
  <defs
     id="defs4" />
  <sodipodi:namedview
     id="base"
     pagecolor="#000000"
     bordercolor="#666666"
     borderopacity="1.0"
     inkscape:pageopacity="0"
     inkscape:pageshadow="2"
     inkscape:zoom="1"
     inkscape:cx="32"
     inkscape:cy="32"
     inkscape:document-units="px"
     inkscape:current-layer="layer1"
     width="64px"
     height="64px"
     showgrid="true"
     inkscape:grid-points="true"
     gridtolerance="10000"
     inkscape:window-width="1024"
     inkscape:window-height="719"
     inkscape:window-x="132"
     inkscape:window-y="166" />
  <metadata
     id="metadata7">
    <rdf:RDF>
      <cc:Work
         rdf:about="">
        <dc:format>image/svg+xml</dc:format>
        <dc:type
           rdf:resource="http://purl.org/dc/dcmitype/StillImage" />
      </cc:Work>
    </rdf:RDF>
  </metadata>
  <g
     inkscape:label="Ebene 1"
     inkscape:groupmode="layer"
     id="layer1">
    <rect
       style="opacity:1;color:black;fill:#001185;fill-opacity:1;fill-rule:evenodd;stroke:black;stroke-width:1.01638734px;stroke-linecap:butt;stroke-linejoin:miter;marker:none;marker-start:none;marker-mid:none;marker-end:none;stroke-miterlimit:4;stroke-dasharray:none;stroke-dashoffset:0;stroke-opacity:1;visibility:visible;display:inline;overflow:visible"
       id="rect1872"
       width="62"
       height="62"
       x="1"
       y="1"
       ry="0" />
    <rect
       style="opacity:1;color:black;fill:#4c63ff;fill-opacity:1;fill-rule:evenodd;stroke:black;stroke-width:1.07150733px;stroke-linecap:butt;stroke-linejoin:miter;marker:none;marker-start:none;marker-mid:none;marker-end:none;stroke-miterlimit:4;stroke-dasharray:none;stroke-dashoffset:0;stroke-opacity:1;visibility:visible;display:inline;overflow:visible"
       id="rect1874"
       width="56.928493"
       height="56.928493"
       x="3.5357537"
       y="3.5357537"
       ry="10.606206" />
    <path
       style="opacity:1;color:black;fill:#001185;fill-opacity:1;fill-rule:evenodd;stroke:black;stroke-width:1.01638734px;stroke-linecap:butt;stroke-linejoin:miter;marker:none;marker-start:none;marker-mid:none;marker-end:none;stroke-miterlimit:4;stroke-dasharray:none;stroke-dashoffset:0;stroke-opacity:1;visibility:visible;display:inline;overflow:visible"
       d="M 14.625,8.25 C 12.956951,8.25 11.278145,8.8781042 10,10.15625 C 7.4437087,12.712541 7.4437084,16.81871 10,19.375 C 10,19.375 22.6875,25.710938 22.6875,32.0625 C 22.6875,38.414063 10,44.78125 10,44.78125 C 7.443708,47.337542 7.4437076,51.443708 10,54 C 12.556292,56.556292 16.662459,56.556292 19.21875,54 C 19.21875,54 25.585938,41.3125 31.9375,41.3125 C 38.289063,41.3125 39.512512,50.354324 44.625,54 C 47.545365,56.08249 51.287458,56.556293 53.84375,54 C 56.400041,51.443709 56.400041,47.337539 53.84375,44.78125 C 53.84375,44.78125 41.125,38.414063 41.125,32.0625 C 41.125,25.710938 53.84375,19.375 53.84375,19.375 C 56.400042,16.818708 56.400041,12.712542 53.84375,10.15625 C 51.287458,7.599958 47.181292,7.5999579 44.625,10.15625 C 44.625,10.15625 38.289063,22.875 31.9375,22.875 C 25.585938,22.875 19.21875,10.15625 19.21875,10.15625 C 17.940604,8.8781044 16.293049,8.25 14.625,8.25 z "
       id="rect1876"
       sodipodi:nodetypes="cscscscssscscscscc" />
  </g>
</svg>
