<?xml version="1.0" encoding="UTF-8" standalone="no"?>
<!-- Created with Inkscape (http://www.inkscape.org/) -->

<svg
   xmlns:dc="http://purl.org/dc/elements/1.1/"
   xmlns:cc="http://creativecommons.org/ns#"
   xmlns:rdf="http://www.w3.org/1999/02/22-rdf-syntax-ns#"
   xmlns:svg="http://www.w3.org/2000/svg"
   xmlns="http://www.w3.org/2000/svg"
   xmlns:xlink="http://www.w3.org/1999/xlink"
   xmlns:sodipodi="http://sodipodi.sourceforge.net/DTD/sodipodi-0.dtd"
   xmlns:inkscape="http://www.inkscape.org/namespaces/inkscape"
   width="256"
   height="256"
   id="svg2"
   sodipodi:version="0.32"
   inkscape:version="0.47 r22583"
   version="1.0"
   sodipodi:docname="cloud_block.svg"
   inkscape:output_extension="org.inkscape.output.svg.inkscape"
   inkscape:export-filename="1.png"
   inkscape:export-xdpi="90"
   inkscape:export-ydpi="90">
  <defs
     id="defs4">
    <linearGradient
       id="linearGradient3663">
      <stop
         style="stop-color:#0187dd;stop-opacity:1;"
         offset="0"
         id="stop3665" />
      <stop
         style="stop-color:#070b2e;stop-opacity:1;"
         offset="1"
         id="stop3667" />
    </linearGradient>
    <filter
       inkscape:collect="always"
       x="-0.14928532"
       width="1.2985706"
       y="-0.21178161"
       height="1.4235632"
       id="filter9254">
      <feGaussianBlur
         inkscape:collect="always"
         stdDeviation="3.1147362"
         id="feGaussianBlur9256" />
    </filter>
    <filter
       inkscape:collect="always"
       x="-0.25291201"
       width="1.505824"
       y="-0.1948604"
       height="1.3897208"
       id="filter9258">
      <feGaussianBlur
         inkscape:collect="always"
         stdDeviation="3.1147363"
         id="feGaussianBlur9260" />
    </filter>
    <filter
       inkscape:collect="always"
       id="filter4167">
      <feGaussianBlur
         inkscape:collect="always"
         stdDeviation="2.8158805"
         id="feGaussianBlur4169" />
    </filter>
    <clipPath
       clipPathUnits="userSpaceOnUse"
       id="clipPath4171">
      <path
         id="path4173"
         d="M 33.625,80.968744 C 30.016631,80.931842 26.596582,81.756356 23.59375,83.218744 C 20.736,81.980184 17.531987,81.336821 14.156251,81.437494 C -4.791636,82.002569 -8.422493,77.271814 -7.75,101.81249 C -7.644505,105.66221 -6.494634,109.25165 -4.5625,112.34374 C -6.729195,115.56208 -8,119.40296 -8,123.49999 C -8,134.95578 1.840336,144.25 13.937501,144.25 C 17.449286,144.25 20.744294,143.42364 23.6875,142.03125 C 26.612672,143.4023 29.892031,144.1875 33.375,144.1875 C 45.472164,144.1875 55.312499,134.89328 55.3125,123.43749 C 55.3125,119.53894 54.164479,115.86725 52.1875,112.74999 C 54.300846,109.559 55.53125,105.79195 55.53125,101.74999 C 55.272664,79.17502 58.780749,81.22733 33.625,80.968744 z"
         style="fill:#000055;fill-opacity:1;fill-rule:evenodd;stroke:#002255;stroke-width:1.5;stroke-linecap:butt;stroke-linejoin:miter;marker:none;marker-start:none;marker-mid:none;marker-end:none;stroke-miterlimit:4;stroke-dasharray:none;stroke-dashoffset:3.2;stroke-opacity:1;visibility:visible;display:inline;overflow:visible;enable-background:accumulate" />
    </clipPath>
    <filter
       inkscape:collect="always"
       id="filter3659">
      <feGaussianBlur
         inkscape:collect="always"
         stdDeviation="1.2182955"
         id="feGaussianBlur3661" />
    </filter>
    <radialGradient
       inkscape:collect="always"
       xlink:href="#linearGradient3663"
       id="radialGradient3669"
       cx="127.96088"
       cy="127.94534"
       fx="127.96088"
       fy="127.94534"
       r="131.00238"
       gradientTransform="matrix(2.0076153,6.2087216e-8,-4.1182641e-8,1.3316573,-128.93533,-42.434021)"
       gradientUnits="userSpaceOnUse" />
  </defs>
  <sodipodi:namedview
     id="base"
     pagecolor="#002a56"
     bordercolor="#666666"
     borderopacity="1.0"
     inkscape:pageopacity="0"
     inkscape:pageshadow="2"
     inkscape:zoom="0.70710678"
     inkscape:cx="-26"
     inkscape:cy="143.28769"
     inkscape:document-units="px"
     inkscape:current-layer="layer1"
     width="64px"
     height="64px"
     inkscape:window-width="1024"
     inkscape:window-height="694"
     inkscape:window-x="154"
     inkscape:window-y="212"
     showguides="true"
     inkscape:guide-bbox="true"
     showgrid="false"
     inkscape:window-maximized="0" />
  <metadata
     id="metadata7">
    <rdf:RDF>
      <cc:Work
         rdf:about="">
        <dc:format>image/svg+xml</dc:format>
        <dc:type
           rdf:resource="http://purl.org/dc/dcmitype/StillImage" />
        <dc:title></dc:title>
      </cc:Work>
    </rdf:RDF>
  </metadata>
  <g
     inkscape:label="Layer 1"
     inkscape:groupmode="layer"
     id="layer1">
    <path
       style="fill:#ffffff;fill-opacity:1;fill-rule:evenodd;stroke:#578dc9;stroke-width:7.98117684999999980;stroke-linecap:butt;stroke-linejoin:miter;marker:none;marker-start:none;marker-mid:none;marker-end:none;stroke-miterlimit:4;stroke-dasharray:none;stroke-dashoffset:3.20000000000000020;stroke-opacity:1;visibility:visible;display:inline;overflow:visible;filter:url(#filter4167);enable-background:accumulate"
       d="M 32.375,79.968744 C 28.766631,79.931842 25.346582,80.756356 22.34375,82.218744 C 19.486,80.980184 16.281987,80.336821 12.906251,80.437494 C -6.041636,81.002569 -9.672493,76.271814 -9,100.81249 C -8.894505,104.66221 -7.744634,108.25165 -5.8125,111.34374 C -7.979195,114.56208 -9.25,118.40296 -9.25,122.49999 C -9.25,133.95578 0.590336,143.25 12.687501,143.25 C 16.199286,143.25 19.494294,142.42364 22.4375,141.03125 C 25.362672,142.4023 28.642031,143.1875 32.125,143.1875 C 44.222164,143.1875 54.062499,133.89328 54.0625,122.43749 C 54.0625,118.53894 52.914479,114.86725 50.9375,111.74999 C 53.050846,108.559 54.28125,104.79195 54.28125,100.74999 C 54.022664,78.17502 57.530749,80.22733 32.375,79.968744 z"
       id="path5345"
       clip-path="url(#clipPath4171)"
       transform="matrix(3.8416501,0,0,3.8416187,35.281111,-304.23921)"
       inkscape:export-xdpi="180"
       inkscape:export-ydpi="180" />
    <path
       style="fill:none;fill-opacity:1;fill-rule:evenodd;stroke:url(#radialGradient3669);stroke-width:11.94575309999999900;stroke-linecap:butt;stroke-linejoin:miter;marker:none;marker-start:none;marker-mid:none;marker-end:none;stroke-miterlimit:4;stroke-dasharray:none;stroke-dashoffset:3.20000000000000020;stroke-opacity:1;visibility:visible;display:inline;overflow:visible;enable-background:accumulate;filter:url(#filter3659)"
       d="M 165.76398,6.3964092 C 151.90189,6.254645 138.76325,9.4221127 127.22742,15.040051 C 116.24894,10.281975 103.94024,7.81042 90.971848,8.1971677 C 18.180696,10.36797 4.2322157,-7.8057894 6.8156988,86.470149 C 7.2209724,101.2593 11.638376,115.04856 19.060959,126.92719 C 10.737274,139.29081 5.8552865,154.04601 5.8552865,169.78525 C 5.8552865,213.794 43.658412,249.49884 90.131488,249.49884 C 103.62254,249.49884 116.28081,246.32429 127.58757,240.97524 C 138.82506,246.24229 151.42322,249.25873 164.80356,249.25873 C 211.27663,249.25873 249.07977,213.5539 249.07977,169.54515 C 249.07977,154.56839 244.66947,140.46316 237.07461,128.48785 C 245.19335,116.22925 249.92013,101.75771 249.92013,86.230047 C 248.92673,-0.49439781 262.40356,7.3897973 165.76398,6.3964092 z"
       id="path2393" />
    <path
       sodipodi:type="spiral"
       style="fill:none;fill-rule:evenodd;stroke:#2b63b4;stroke-width:2.67265201000000020;stroke-linecap:round;stroke-linejoin:miter;stroke-miterlimit:4;stroke-dasharray:none;stroke-opacity:1;filter:url(#filter9254)"
       id="path2410"
       sodipodi:cx="88.640884"
       sodipodi:cy="67.535538"
       sodipodi:expansion="0.44"
       sodipodi:revolution="1.02"
       sodipodi:radius="20.743753"
       sodipodi:argument="-8.5175371"
       sodipodi:t0="0"
       d="M 88.640884,67.535538 C 82.972331,60.285059 92.148858,56.759363 97.443604,60.653415 C 103.59189,65.175208 102.92049,74.359908 97.977202,79.477346 C 91.515547,86.166647 80.553035,85.247858 74.366735,78.695322 C 67.020899,70.914603 68.189141,58.351906 75.975195,51.335229 C 76.619427,50.754657 77.300718,50.21527 78.013305,49.720997"
       transform="matrix(0.1064846,1.7029013,2.9947484,0.9895631,-123.95896,-52.671645)"
       clip-path="none" />
    <path
       sodipodi:type="spiral"
       style="fill:none;fill-rule:evenodd;stroke:#203aa7;stroke-width:2.67265201000000020;stroke-linecap:round;stroke-linejoin:miter;stroke-miterlimit:4;stroke-dasharray:none;stroke-opacity:1;filter:url(#filter9258)"
       id="path3405"
       sodipodi:cx="88.640884"
       sodipodi:cy="67.535538"
       sodipodi:expansion="0.44"
       sodipodi:revolution="0.92491364"
       sodipodi:radius="19.869539"
       sodipodi:argument="-8.5175371"
       sodipodi:t0="0.69916451"
       d="M 84.310172,83.948526 C 74.274916,82.430731 67.915113,72.282655 69.689284,62.53499 C 69.898979,61.382882 70.213247,60.250018 70.625643,59.154031"
       transform="matrix(-1.6505574,-0.4323355,-1.8779117,2.5339916,415.80967,52.619955)"
       clip-path="none" />
    <path
       sodipodi:type="spiral"
       style="fill:none;fill-rule:evenodd;stroke:#1b3871;stroke-width:2.67265201000000020;stroke-linecap:round;stroke-linejoin:miter;stroke-miterlimit:4;stroke-dasharray:none;stroke-opacity:1;filter:url(#filter9254)"
       id="path4175"
       sodipodi:cx="88.640884"
       sodipodi:cy="67.535538"
       sodipodi:expansion="0.44"
       sodipodi:revolution="1.02"
       sodipodi:radius="20.743753"
       sodipodi:argument="-8.5175371"
       sodipodi:t0="0"
       d="M 88.640884,67.535538 C 82.972331,60.285059 92.148858,56.759363 97.443604,60.653415 C 103.59189,65.175208 102.92049,74.359908 97.977202,79.477346 C 91.515547,86.166647 80.553035,85.247858 74.366735,78.695322 C 67.020899,70.914603 68.189141,58.351906 75.975195,51.335229 C 76.619427,50.754657 77.300718,50.21527 78.013305,49.720997"
       transform="matrix(-0.1064846,-1.7029013,-2.9947484,-0.9895631,381.4355,306.19808)"
       clip-path="none" />
    <path
       sodipodi:type="spiral"
       style="fill:none;fill-rule:evenodd;stroke:#0f489a;stroke-width:2.67265201000000020;stroke-linecap:round;stroke-linejoin:miter;stroke-miterlimit:4;stroke-dasharray:none;stroke-opacity:1;filter:url(#filter9258)"
       id="path4177"
       sodipodi:cx="88.640884"
       sodipodi:cy="67.535538"
       sodipodi:expansion="0.44"
       sodipodi:revolution="0.95131826"
       sodipodi:radius="20.117159"
       sodipodi:argument="-8.5175371"
       sodipodi:t0="0.67975855"
       d="M 84.31018,83.948527 C 74.274923,82.430737 67.915115,72.282664 69.689282,62.534999 C 70.097699,60.291067 70.90434,58.123863 72.052991,56.153891"
       transform="matrix(1.6505574,0.4323355,1.8779117,-2.5339916,-158.33316,200.90648)"
       clip-path="none" />
  </g>
</svg>
