<?xml version="1.0" encoding="UTF-8" standalone="no"?>
<!-- Created with Inkscape (http://www.inkscape.org/) -->

<svg
   xmlns:dc="http://purl.org/dc/elements/1.1/"
   xmlns:cc="http://creativecommons.org/ns#"
   xmlns:rdf="http://www.w3.org/1999/02/22-rdf-syntax-ns#"
   xmlns:svg="http://www.w3.org/2000/svg"
   xmlns="http://www.w3.org/2000/svg"
   xmlns:xlink="http://www.w3.org/1999/xlink"
   xmlns:sodipodi="http://sodipodi.sourceforge.net/DTD/sodipodi-0.dtd"
   xmlns:inkscape="http://www.inkscape.org/namespaces/inkscape"
   width="512"
   height="512"
   id="svg2"
   sodipodi:version="0.32"
   inkscape:version="0.47 r22583"
   sodipodi:docname="fire_thing.svg"
   inkscape:output_extension="org.inkscape.output.svg.inkscape"
   version="1.0"
   inkscape:export-filename="C:/users/a/documents/1.png"
   inkscape:export-xdpi="45"
   inkscape:export-ydpi="45">
  <defs
     id="defs4">
    <linearGradient
       id="linearGradient3337">
      <stop
         id="stop3339"
         offset="0"
         style="stop-color:#be380a;stop-opacity:1;" />
      <stop
         id="stop3341"
         offset="1"
         style="stop-color:#ef5d00;stop-opacity:1;" />
    </linearGradient>
    <filter
       inkscape:collect="always"
       id="filter17728">
      <feGaussianBlur
         inkscape:collect="always"
         stdDeviation="0.71532756"
         id="feGaussianBlur17730" />
    </filter>
    <filter
       inkscape:collect="always"
       id="filter3352">
      <feGaussianBlur
         inkscape:collect="always"
         stdDeviation="0.39870587"
         id="feGaussianBlur3354" />
    </filter>
    <filter
       inkscape:collect="always"
       id="filter3344">
      <feGaussianBlur
         inkscape:collect="always"
         stdDeviation="0.78875974"
         id="feGaussianBlur3346" />
    </filter>
    <filter
       inkscape:collect="always"
       id="filter17752">
      <feGaussianBlur
         inkscape:collect="always"
         stdDeviation="0.71532756"
         id="feGaussianBlur17754" />
    </filter>
    <filter
       inkscape:collect="always"
       id="filter3348">
      <feGaussianBlur
         inkscape:collect="always"
         stdDeviation="0.39870587"
         id="feGaussianBlur3350" />
    </filter>
    <filter
       inkscape:collect="always"
       id="filter3340">
      <feGaussianBlur
         inkscape:collect="always"
         stdDeviation="0.78875974"
         id="feGaussianBlur3342" />
    </filter>
    <clipPath
       id="clipPath3754"
       clipPathUnits="userSpaceOnUse">
      <path
         style="fill:#fff6d5;fill-rule:evenodd;stroke:#000000;stroke-width:1px;stroke-linecap:butt;stroke-linejoin:miter;stroke-opacity:1"
         d="M 391.43411,693.75804 C 404.03538,674.4187 417.94824,662.89057 437.51107,651.27283 C 446.07552,644.04546 488.91055,638.25271 480.9551,629.9216 C 458.84984,616.97432 417.4296,611.31287 403.05484,621.74336 C 389.15718,631.82766 381.93338,667.13266 391.43411,693.75804 z"
         id="path3756"
         sodipodi:nodetypes="cccsc" />
    </clipPath>
    <linearGradient
       id="linearGradient3762">
      <stop
         id="stop3764"
         offset="0"
         style="stop-color:#7982a6;stop-opacity:1;" />
      <stop
         style="stop-color:#ffffff;stop-opacity:1;"
         offset="0.30612245"
         id="stop3776" />
      <stop
         id="stop3766"
         offset="1"
         style="stop-color:#ffffff;stop-opacity:1;" />
    </linearGradient>
    <radialGradient
       inkscape:collect="always"
       xlink:href="#linearGradient3762"
       id="radialGradient2246"
       gradientUnits="userSpaceOnUse"
       gradientTransform="matrix(0.7638762,0.6453629,-0.9785236,1.158218,760.87876,-366.16097)"
       cx="390.07419"
       cy="678.53479"
       fx="390.07419"
       fy="678.53479"
       r="48.907497" />
    <radialGradient
       inkscape:collect="always"
       xlink:href="#linearGradient3762"
       id="radialGradient2248"
       gradientUnits="userSpaceOnUse"
       gradientTransform="matrix(0.7638762,0.6453629,-0.9785236,1.158218,760.87876,-366.16097)"
       cx="390.07419"
       cy="678.53479"
       fx="390.07419"
       fy="678.53479"
       r="48.907497" />
    <filter
       inkscape:collect="always"
       id="filter3356">
      <feGaussianBlur
         inkscape:collect="always"
         stdDeviation="0.57745126"
         id="feGaussianBlur3358" />
    </filter>
    <filter
       inkscape:collect="always"
       id="filter3364">
      <feGaussianBlur
         inkscape:collect="always"
         stdDeviation="0.53281971"
         id="feGaussianBlur3366" />
    </filter>
    <filter
       inkscape:collect="always"
       id="filter3368">
      <feGaussianBlur
         inkscape:collect="always"
         stdDeviation="0.62468594"
         id="feGaussianBlur3370" />
    </filter>
    <filter
       inkscape:collect="always"
       id="filter4539">
      <feGaussianBlur
         inkscape:collect="always"
         stdDeviation="0.8136459"
         id="feGaussianBlur4541" />
    </filter>
    <linearGradient
       inkscape:collect="always"
       xlink:href="#linearGradient3337"
       id="linearGradient3335"
       x1="292.9227"
       y1="461.40518"
       x2="368.50137"
       y2="774.06653"
       gradientUnits="userSpaceOnUse"
       gradientTransform="translate(-28.756492,-20.688383)" />
  </defs>
  <sodipodi:namedview
     id="base"
     pagecolor="#000000"
     bordercolor="#666666"
     borderopacity="1.0"
     gridtolerance="10000"
     guidetolerance="10"
     objecttolerance="10"
     inkscape:pageopacity="0"
     inkscape:pageshadow="2"
     inkscape:zoom="0.5"
     inkscape:cx="220.92767"
     inkscape:cy="318.18162"
     inkscape:document-units="px"
     inkscape:current-layer="svg2"
     inkscape:window-width="1280"
     inkscape:window-height="718"
     inkscape:window-x="0"
     inkscape:window-y="210"
     showguides="true"
     inkscape:guide-bbox="true"
     showgrid="false"
     inkscape:window-maximized="0" />
  <metadata
     id="metadata7">
    <rdf:RDF>
      <cc:Work
         rdf:about="">
        <dc:format>image/svg+xml</dc:format>
        <dc:type
           rdf:resource="http://purl.org/dc/dcmitype/StillImage" />
      </cc:Work>
      <cc:Work
         rdf:about="">
        <dc:format>image/svg+xml</dc:format>
        <dc:type
           rdf:resource="http://purl.org/dc/dcmitype/StillImage" />
      </cc:Work>
    </rdf:RDF>
  </metadata>
  <g
     inkscape:groupmode="layer"
     id="layer5"
     inkscape:label="foot below"
     style="display:inline"
     transform="translate(-86.015417,-344.74042)" />
  <g
     inkscape:groupmode="layer"
     id="layer3"
     inkscape:label="body"
     style="display:inline"
     transform="translate(-86.015417,-344.74042)">
    <g
       id="g2464"
       inkscape:label="black outline"
       sodipodi:insensitive="true"
       transform="translate(150.81235,404.25975)" />
    <g
       id="g3169"
       transform="translate(187.68008,397.1698)"
       inkscape:export-filename="/home/sheryl/Piers/furball frames/furball.v2.41.f0.png"
       inkscape:export-xdpi="10.56"
       inkscape:export-ydpi="10.56" />
    <g
       id="g2661"
       inkscape:label="foot below"
       transform="matrix(-4.1093027,0,0,4.1093027,2223.8735,-2231.2965)" />
    <g
       inkscape:label="inside colour shading"
       id="g2663"
       style="display:inline"
       transform="matrix(-4.1093027,0,0,4.1093027,2223.8735,-2231.2965)" />
    <g
       id="g2665"
       inkscape:label="outline"
       transform="matrix(-4.1093027,0,0,4.1093027,2223.8735,-2231.2965)" />
    <g
       id="g2667"
       inkscape:label="shadowing"
       transform="matrix(-4.1093027,0,0,4.1093027,2223.8735,-2231.2965)" />
    <g
       style="stroke:#000000;stroke-width:66.02096558;stroke-miterlimit:4;stroke-dasharray:none;stroke-opacity:1"
       id="g3480"
       inkscape:label="Layer 1"
       transform="matrix(-0.1160341,1.2817742e-2,1.1241058e-2,0.1323092,237.30848,384.23533)"
       inkscape:transform-center-x="-27.57098"
       inkscape:transform-center-y="-11.950164" />
    <g
       id="g2796"
       inkscape:label="foot below"
       transform="matrix(-2.1173273,0,0,2.1173273,1560.3272,-752.9691)" />
    <g
       inkscape:label="inside colour shading"
       id="g2798"
       style="display:inline"
       transform="matrix(-2.1173273,0,0,2.1173273,1560.3272,-752.9691)" />
    <g
       id="g2800"
       inkscape:label="outline"
       transform="matrix(-2.1173273,0,0,2.1173273,1560.3272,-752.9691)" />
    <g
       id="g2802"
       inkscape:label="shadowing"
       transform="matrix(-2.1173273,0,0,2.1173273,1560.3272,-752.9691)" />
    <g
       inkscape:transform-center-y="-11.950164"
       inkscape:transform-center-x="-27.57098"
       transform="matrix(-0.1160341,1.2817742e-2,1.1241058e-2,0.1323092,237.30848,384.23533)"
       inkscape:label="Layer 1"
       id="g16330"
       style="stroke:#000000;stroke-width:66.02096558;stroke-miterlimit:4;stroke-dasharray:none;stroke-opacity:1" />
    <g
       style="filter:url(#filter3368)"
       id="g17517"
       transform="matrix(0.8944076,0,0,0.8944076,19.539416,140.44523)" />
    <g
       style="filter:url(#filter3364)"
       transform="matrix(0.8944076,0,0,0.8944076,19.539416,149.34844)"
       id="g17485" />
    <g
       style="filter:url(#filter3356)"
       transform="matrix(0.8944076,0,0,0.8944076,19.539416,140.75258)"
       id="g17481" />
  </g>
  <g
     inkscape:groupmode="layer"
     id="layer7"
     inkscape:label="foot above"
     style="display:inline"
     transform="translate(-86.015417,-344.74042)">
    <g
       id="g3886"
       transform="translate(12.000178,32.588855)">
      <path
         sodipodi:nodetypes="ccccccccccccccccccccccccccccccccc"
         id="path5246"
         d="M 474.52121,602.05726 C 474.52121,612.92641 473.36281,623.53956 471.15711,633.79093 C 468.95131,644.04228 465.69821,653.93185 461.50921,663.35375 C 457.32011,672.77561 452.19501,681.72984 446.24491,690.11062 C 440.29481,698.49138 433.52001,706.29866 426.03126,713.42661 C 418.54264,720.55456 410.34031,727.00321 401.53548,732.66666 C 392.73065,738.33014 383.32332,743.20846 373.42467,747.19576 C 363.52602,751.18311 353.13607,754.27944 342.366,756.37892 C 331.59593,758.47843 320.4457,759.58111 309.02659,759.58111 C 297.60746,759.58111 286.45727,758.47843 275.68719,756.37892 C 264.91709,754.27944 254.52716,751.18311 244.62852,747.19576 C 234.72985,743.20846 225.32253,738.33014 216.5177,732.66666 C 207.71287,727.00321 199.51054,720.55456 192.0219,713.42661 C 184.5333,706.29866 177.75834,698.49138 171.80831,690.11062 C 165.85824,681.72984 160.73309,672.77561 156.54399,663.35375 C 152.35492,653.93185 149.10194,644.04228 146.89616,633.79093 C 144.69047,623.53956 143.532,612.92641 143.532,602.05726 C 143.532,591.18813 144.69047,580.57497 146.89616,570.32359 C 149.10194,560.07224 152.35492,550.18269 156.54399,540.76079 C 160.73309,531.3389 165.85824,522.38467 171.80831,514.00391 C 177.75834,505.62311 184.5333,497.81586 192.0219,490.68789 C 199.51054,483.55993 207.71287,477.11132 216.5177,471.44784 C 225.32253,465.78435 234.72985,460.90604 244.62852,456.91874 C 254.52716,452.93142 264.91709,449.83508 275.68719,447.73557 C 286.45727,445.63609 297.60746,444.53341 309.02659,444.53341 C 320.4457,444.53341 331.59593,445.63609 342.366,447.73557 C 353.13607,449.83508 380.49658,414.74765 390.39523,418.73497 C 400.29388,422.72227 392.73065,465.78435 401.53548,471.44784 C 410.34031,477.11132 462.38331,451.03302 469.87191,458.16098 C 477.36061,465.28895 440.29481,505.62311 446.24491,514.00391 C 452.19501,522.38467 513.88861,515.78255 518.07771,525.20444 C 522.26671,534.62634 468.95131,560.07224 471.15711,570.32359 C 473.36281,580.57497 474.52121,591.18813 474.52121,602.05726 z"
         style="fill:url(#linearGradient3335);fill-opacity:1;fill-rule:nonzero;stroke:none;stroke-width:7.63320684;stroke-linecap:butt;stroke-linejoin:miter;marker:none;marker-start:none;marker-mid:none;marker-end:none;stroke-miterlimit:4;stroke-dasharray:none;stroke-dashoffset:0;stroke-opacity:1;visibility:visible;display:inline;overflow:visible;enable-background:accumulate" />
      <g
         transform="matrix(0.5314538,0,0,0.5789415,129.24123,275.92796)"
         style="display:inline;filter:url(#filter4539)"
         id="g4530">
        <path
           style="fill:#ffffff;fill-opacity:1;fill-rule:nonzero;stroke:none;stroke-width:7;stroke-linejoin:miter;stroke-miterlimit:4;stroke-dasharray:none;stroke-opacity:1;display:inline"
           d="M 231.6464,710.49476 C 238.901,713.11774 381.12608,724.59534 414.24585,684.28321 C 416.11985,665.6154 431.29725,704.59208 408.08001,729.64601 C 401.31304,737.2688 390.10281,745.75594 381.71898,751.53706 C 371.27928,757.48174 367.63297,759.33119 356.43656,762.65573 C 356.43656,762.65573 346.02087,765.64343 341.41552,765.79199 C 336.81017,765.94055 330.99984,766.13863 326.39449,766.28719 C 321.78914,766.43575 296.8612,764.31806 292.39082,762.65573 C 287.92044,760.99339 277.81663,758.19035 270.39473,754.89705 C 262.97283,751.60375 256.40349,748.13864 250.87299,744.12678 C 245.3425,740.11491 240.85085,735.55629 237.58432,730.07594 C 234.3178,724.59559 224.3918,707.87178 231.6464,710.49476 z"
           id="path4197"
           sodipodi:nodetypes="cccccccccccc" />
        <path
           style="fill:#000000;fill-opacity:1;fill-rule:nonzero;stroke:none;stroke-width:7;stroke-linejoin:miter;stroke-miterlimit:4;stroke-dasharray:none;stroke-opacity:1;display:inline"
           d="M 409.5159,662.58215 C 410.35601,669.84987 410.92483,681.76774 408.93281,685.70413 C 401.33919,694.44771 387.22599,701.0046 369.90156,705.36038 C 352.1551,709.82227 331.24106,712.07129 311.08906,712.98538 C 290.93706,713.89947 271.51546,713.48234 256.74531,712.67288 C 249.36024,712.26815 243.13127,711.77622 238.55781,711.29788 C 236.27108,711.05871 234.39586,710.81678 233.02656,710.61038 C 231.65727,710.40398 230.62463,710.1266 230.83906,710.20413 C 229.49304,709.71746 227.87391,709.32056 226.05781,710.26663 C 224.24172,711.2127 223.5968,713.28087 223.55781,714.57913 C 223.47984,717.17565 224.39715,719.19998 225.46406,721.64163 C 227.59788,726.52494 230.92117,732.11451 232.55781,734.86038 C 236.10976,740.81953 240.98635,745.73119 246.80781,749.95408 C 252.62929,754.17708 259.41008,757.75848 266.96406,761.11038 C 274.7894,764.58268 285.09136,767.44428 289.15156,768.95408 C 291.0376,769.65548 293.31703,769.98188 296.43281,770.42288 C 299.5486,770.86388 303.27648,771.27888 306.99531,771.64168 C 314.43297,772.36718 321.45351,772.89608 324.49531,772.79788 C 329.10609,772.64918 334.92657,772.44628 339.52656,772.29788 C 342.49998,772.20198 346.20353,771.36408 349.46406,770.57908 C 352.72458,769.79418 355.40156,769.01668 355.40156,769.01668 L 355.43281,769.01668 C 366.76998,765.65028 370.95983,763.54278 381.43281,757.57908 L 381.55781,757.51668 L 381.68281,757.42288 C 390.18421,751.56068 401.49807,743.07878 408.68281,734.98538 C 421.16493,721.51583 423.2395,704.55608 422.02656,693.20413 C 421.72332,690.36614 439.42589,698.12643 438.76606,696.03795 C 419.6322,683.97644 415.29271,675.90511 409.5159,662.58215 z M 414.33906,690.14163 C 414.61261,691.34816 414.92554,692.42371 415.08906,693.95413 C 416.12901,703.68705 414.23043,718.68228 403.49531,730.26663 L 403.46406,730.29788 L 403.46406,730.32913 C 397.14411,737.44837 386.09319,745.87994 377.83906,751.57908 C 377.80084,751.60548 377.75216,751.64658 377.71406,751.67288 C 367.57467,757.44288 364.36908,759.05048 353.43281,762.29788 C 353.43281,762.29788 350.90647,763.02058 347.80781,763.76668 C 344.70916,764.51268 340.90849,765.24528 339.27656,765.29788 C 334.66584,765.44668 328.87648,765.64958 324.27656,765.79788 C 322.71301,765.84838 314.97806,765.38458 307.68281,764.67288 C 304.03519,764.31708 300.39223,763.90428 297.43281,763.48538 C 294.4734,763.06648 291.93822,762.52148 291.58906,762.39168 C 286.7085,760.57668 276.82627,757.81838 269.80781,754.70408 C 262.51799,751.46948 256.14109,748.09868 250.90156,744.29788 C 245.66204,740.49708 241.57017,736.29933 238.58906,731.29788 C 236.95918,728.56336 233.70247,723.05332 231.87031,718.86038 C 231.54661,718.11959 231.60276,718.0534 231.40156,717.42288 C 231.62529,717.45671 231.74077,717.50951 231.99531,717.54788 C 233.52258,717.77809 235.47785,718.01967 237.83906,718.26663 C 242.56149,718.76055 248.88411,719.26261 256.37031,719.67288 C 271.34272,720.49343 290.9505,720.91304 311.40156,719.98538 C 331.85263,719.05772 353.12668,716.78352 371.58906,712.14163 C 389.68566,707.5917 405.15123,700.85069 414.33906,690.14163 z"
           id="path4215"
           sodipodi:nodetypes="cccccccccccccccccccccccccccccccccccccccccccccccccccccc" />
        <rect
           style="opacity:1;fill:#000000;fill-opacity:1;fill-rule:nonzero;stroke:none;stroke-width:2;stroke-linejoin:miter;stroke-miterlimit:4;stroke-dasharray:none;stroke-opacity:1"
           id="rect4221"
           width="5.1356592"
           height="40.15152"
           x="255.0253"
           y="712.94196" />
        <rect
           style="opacity:1;fill:#000000;fill-opacity:1;fill-rule:nonzero;stroke:none;stroke-width:2;stroke-linejoin:miter;stroke-miterlimit:4;stroke-dasharray:none;stroke-opacity:1;display:inline"
           id="rect4223"
           width="5.1356592"
           height="43.886543"
           x="283.73831"
           y="719.01135" />
        <rect
           style="opacity:1;fill:#000000;fill-opacity:1;fill-rule:nonzero;stroke:none;stroke-width:2;stroke-linejoin:miter;stroke-miterlimit:4;stroke-dasharray:none;stroke-opacity:1;display:inline"
           id="rect4225"
           width="5.1356592"
           height="49.955959"
           x="317.8204"
           y="716.677" />
        <rect
           style="opacity:1;fill:#000000;fill-opacity:1;fill-rule:nonzero;stroke:none;stroke-width:2;stroke-linejoin:miter;stroke-miterlimit:4;stroke-dasharray:none;stroke-opacity:1;display:inline"
           id="rect4227"
           width="5.1356592"
           height="53.224106"
           x="354.23691"
           y="712.24164" />
        <rect
           style="opacity:1;fill:#000000;fill-opacity:1;fill-rule:nonzero;stroke:none;stroke-width:2;stroke-linejoin:miter;stroke-miterlimit:4;stroke-dasharray:none;stroke-opacity:1;display:inline"
           id="rect4229"
           width="5.1356592"
           height="46.687813"
           x="386.91837"
           y="701.03656" />
      </g>
      <g
         transform="matrix(0.5731048,0,0,0.4699325,107.33071,265.21143)"
         id="g3623">
        <g
           style="display:inline;filter:url(#filter3344)"
           id="g17499"
           transform="matrix(0.6931665,0,0,0.7473975,122.94649,253.55478)">
          <path
             inkscape:export-ydpi="10.56"
             inkscape:export-xdpi="10.56"
             inkscape:export-filename="/home/sheryl/Piers/furball frames/furball.v2.41.f0.png"
             sodipodi:type="arc"
             style="fill:#ffffff;fill-opacity:1;fill-rule:nonzero;stroke:#000000;stroke-width:12.573349;stroke-linecap:round;stroke-miterlimit:4;stroke-dasharray:none;stroke-opacity:1"
             id="path3157"
             sodipodi:cx="222.59273"
             sodipodi:cy="263.27377"
             sodipodi:rx="60.160194"
             sodipodi:ry="96.256317"
             d="m 282.75292,263.27377 c 0,53.1609 -26.93463,96.25632 -60.16019,96.25632 -33.22556,0 -60.1602,-43.09542 -60.1602,-96.25632 0,-53.16089 26.93464,-96.25631 60.1602,-96.25631 33.22556,0 60.16019,43.09542 60.16019,96.25631 z"
             transform="matrix(1.1113653,0,0,0.8196033,-46.29676,324.01606)" />
          <path
             inkscape:export-ydpi="10.56"
             inkscape:export-xdpi="10.56"
             inkscape:export-filename="/home/sheryl/Piers/furball frames/furball.v2.41.f0.png"
             sodipodi:type="arc"
             style="fill:#000000;fill-opacity:1;fill-rule:nonzero;stroke:none;stroke-width:8;stroke-linecap:round;stroke-miterlimit:4;stroke-dasharray:none;stroke-opacity:1;filter:url(#filter3352)"
             id="path17257"
             sodipodi:cx="210.56068"
             sodipodi:cy="254.75108"
             sodipodi:rx="30.080097"
             sodipodi:ry="51.637501"
             d="m 240.64078,254.75108 c 0,28.51861 -13.46732,51.6375 -30.0801,51.6375 -16.61277,0 -30.08009,-23.11889 -30.08009,-51.6375 0,-28.5186 13.46732,-51.6375 30.08009,-51.6375 16.61278,0 30.0801,23.1189 30.0801,51.6375 z"
             transform="matrix(1.1303155,0,0,0.8932462,-59.484588,311.732)" />
          <path
             inkscape:export-ydpi="10.56"
             inkscape:export-xdpi="10.56"
             inkscape:export-filename="/home/sheryl/Piers/furball frames/furball.v2.41.f0.png"
             sodipodi:type="arc"
             style="fill:#ffffff;fill-opacity:1;fill-rule:nonzero;stroke:none;stroke-width:7.99980927;stroke-linecap:round;stroke-miterlimit:4;stroke-dasharray:none;stroke-opacity:1;filter:url(#filter17728)"
             id="path3259"
             sodipodi:cx="210.56068"
             sodipodi:cy="229.183"
             sodipodi:rx="10.026699"
             sodipodi:ry="14.037379"
             d="m 220.58738,229.183 c 0,7.75263 -4.4891,14.03738 -10.0267,14.03738 -5.53759,0 -10.02669,-6.28475 -10.02669,-14.03738 0,-7.75263 4.4891,-14.03738 10.02669,-14.03738 5.5376,0 10.0267,6.28475 10.0267,14.03738 z"
             transform="matrix(1.2981244,0,0,1.1306248,-93.30264,260.92145)" />
        </g>
        <g
           style="display:inline;filter:url(#filter3340)"
           id="g17494"
           transform="matrix(0.6931665,0,0,0.7473975,122.94649,253.55478)">
          <path
             inkscape:export-ydpi="10.56"
             inkscape:export-xdpi="10.56"
             inkscape:export-filename="/home/sheryl/Piers/furball frames/furball.v2.41.f0.png"
             transform="matrix(1.1113653,0,0,0.8196033,36.924839,326.0214)"
             d="m 282.75292,263.27377 c 0,53.1609 -26.93463,96.25632 -60.16019,96.25632 -33.22556,0 -60.1602,-43.09542 -60.1602,-96.25632 0,-53.16089 26.93464,-96.25631 60.1602,-96.25631 33.22556,0 60.16019,43.09542 60.16019,96.25631 z"
             sodipodi:ry="96.256317"
             sodipodi:rx="60.160194"
             sodipodi:cy="263.27377"
             sodipodi:cx="222.59273"
             id="path2170"
             style="fill:#ffffff;fill-opacity:1;fill-rule:nonzero;stroke:#000000;stroke-width:12.573349;stroke-linecap:round;stroke-miterlimit:4;stroke-dasharray:none;stroke-opacity:1"
             sodipodi:type="arc" />
          <path
             transform="matrix(1.1303155,0,0,0.8932462,24.015412,313.732)"
             d="m 240.64078,254.75108 c 0,28.51861 -13.46732,51.6375 -30.0801,51.6375 -16.61277,0 -30.08009,-23.11889 -30.08009,-51.6375 0,-28.5186 13.46732,-51.6375 30.08009,-51.6375 16.61278,0 30.0801,23.1189 30.0801,51.6375 z"
             sodipodi:ry="51.637501"
             sodipodi:rx="30.080097"
             sodipodi:cy="254.75108"
             sodipodi:cx="210.56068"
             id="path17255"
             style="fill:#000000;fill-opacity:1;fill-rule:nonzero;stroke:none;stroke-width:8;stroke-linecap:round;stroke-miterlimit:4;stroke-dasharray:none;stroke-opacity:1;filter:url(#filter3348)"
             sodipodi:type="arc"
             inkscape:export-filename="/home/sheryl/Piers/furball frames/furball.v2.41.f0.png"
             inkscape:export-xdpi="10.56"
             inkscape:export-ydpi="10.56" />
          <path
             inkscape:export-ydpi="10.56"
             inkscape:export-xdpi="10.56"
             inkscape:export-filename="/home/sheryl/Piers/furball frames/furball.v2.41.f0.png"
             transform="matrix(1.4621455,0,0,1.2734819,-49.194447,226.17569)"
             d="m 220.58738,229.183 c 0,7.75263 -4.4891,14.03738 -10.0267,14.03738 -5.53759,0 -10.02669,-6.28475 -10.02669,-14.03738 0,-7.75263 4.4891,-14.03738 10.02669,-14.03738 5.5376,0 10.0267,6.28475 10.0267,14.03738 z"
             sodipodi:ry="14.037379"
             sodipodi:rx="10.026699"
             sodipodi:cy="229.183"
             sodipodi:cx="210.56068"
             id="path3145"
             style="fill:#ffffff;fill-opacity:1;fill-rule:nonzero;stroke:none;stroke-width:7.99980927;stroke-linecap:round;stroke-miterlimit:4;stroke-dasharray:none;stroke-opacity:1;filter:url(#filter17752)"
             sodipodi:type="arc" />
        </g>
      </g>
    </g>
  </g>
  <g
     inkscape:groupmode="layer"
     id="layer6"
     inkscape:label="hat"
     style="display:none"
     transform="translate(-86.015417,-344.74042)">
    <g
       inkscape:export-ydpi="79.918785"
       inkscape:export-xdpi="79.918785"
       inkscape:export-filename="/home/piers/documents/maryo/pngs/furball.v2.4-f0.128px.png"
       style="fill:url(#radialGradient2246);fill-opacity:1;fill-rule:evenodd;stroke:#000000;stroke-width:3;stroke-miterlimit:4;stroke-dasharray:none;stroke-opacity:1;display:inline"
       id="g3758"
       transform="matrix(-4.1093027,0,0,4.1093027,2223.8735,-2134.6385)">
      <path
         style="fill:url(#radialGradient2248);fill-opacity:1;fill-rule:evenodd;stroke:#000000;stroke-width:3;stroke-linecap:butt;stroke-linejoin:miter;stroke-miterlimit:4;stroke-dasharray:none;stroke-opacity:1"
         d="M 391.43411,693.75804 C 404.03538,674.4187 417.94824,662.89057 437.51107,651.27283 C 446.07552,644.04546 488.91055,638.25271 480.9551,629.9216 C 458.84984,616.97432 417.4296,611.31287 403.05484,621.74336 C 389.15718,631.82766 381.93338,667.13266 391.43411,693.75804 z"
         id="path3565"
         sodipodi:nodetypes="cccsc" />
      <path
         sodipodi:nodetypes="cccsssccsssc"
         style="fill:#ff0000;fill-opacity:1;fill-rule:evenodd;stroke:none;stroke-width:3;stroke-linecap:butt;stroke-linejoin:miter;stroke-miterlimit:4;stroke-dasharray:none;stroke-opacity:1"
         d="M 378.57143,660.57647 C 379.25794,659.15701 385.36293,654.67927 387.5,653.07646 C 397.07387,636.40778 418.05097,623.01836 442.32143,617.00503 C 444.45813,616.15036 459.1947,607.69657 462.14286,608.43361 C 465.988,609.3949 467.90003,611.53077 471.07143,613.43361 C 473.62151,614.96366 474.00179,614.11128 471.78572,615.21932 C 469.87996,616.1722 465.47186,621.92957 463.03571,621.6479 C 427.44775,635.12569 410.73016,646.3913 386.78571,673.43361 C 384.68403,675.53529 383.4597,677.35669 381.07143,679.1479 C 378.89091,680.78328 378.59424,683.16769 377.85714,680.21932 C 377.00114,676.79529 376.07071,673.42999 375.35714,669.86218 C 374.59028,666.02785 376.07143,661.90139 376.07143,658.07647"
         id="path3725"
         clip-path="url(#clipPath3754)" />
    </g>
    <path
       inkscape:export-ydpi="79.918785"
       inkscape:export-xdpi="79.918785"
       inkscape:export-filename="/home/piers/documents/maryo/pngs/furball.v2.4-f0.128px.png"
       sodipodi:nodetypes="cssszss"
       id="path3723"
       d="M 599.53411,640.14152 C 537.78682,577.72701 447.23937,506.3065 316.32426,450.12362 C 278.03328,433.69085 261.33932,428.95615 237.60917,458.85984 C 233.75246,463.71991 246.13589,475.48562 280.47811,486.83741 C 367.02192,515.44436 513.05412,632.42228 557.23792,666.41094 C 615.49805,711.2279 615.34917,732.38978 625.72981,707.92118 C 640.25837,673.67524 629.1674,670.09501 599.53411,640.14152 z"
       style="fill:#decd87;fill-opacity:1;fill-rule:evenodd;stroke:#000000;stroke-width:12.32790852;stroke-linecap:butt;stroke-linejoin:miter;stroke-miterlimit:4;stroke-dasharray:none;stroke-opacity:1" />
    <path
       id="path3780"
       d="M 312.57069,426.31564 C 392.04448,399.53686 437.17581,397.50884 514.67747,402.76208"
       style="fill:none;fill-rule:evenodd;stroke:#000000;stroke-width:9;stroke-linecap:butt;stroke-linejoin:miter;stroke-miterlimit:4;stroke-dasharray:none;stroke-opacity:1"
       inkscape:transform-center-x="95.188401"
       inkscape:transform-center-y="9.0354206"
       sodipodi:nodetypes="cc"
       inkscape:export-filename="/home/sheryl/Piers/furball frames/furball.v2.41.f0.png"
       inkscape:export-xdpi="10.56"
       inkscape:export-ydpi="10.56" />
    <path
       style="fill:none;fill-rule:evenodd;stroke:#000000;stroke-width:9;stroke-linecap:butt;stroke-linejoin:miter;stroke-miterlimit:4;stroke-dasharray:none;stroke-opacity:1;display:inline"
       d="M 598.8607,457.72233 C 629.89317,535.63364 635.1753,571.28798 629.89317,656.46221"
       id="path2809"
       inkscape:export-filename="/home/sheryl/Piers/furball frames/furball.v2.41.f0.png"
       inkscape:export-xdpi="10.56"
       inkscape:export-ydpi="10.56" />
    <path
       inkscape:export-ydpi="10.56"
       inkscape:export-xdpi="10.56"
       inkscape:export-filename="/home/sheryl/Piers/furball frames/furball.v2.41.f0.png"
       sodipodi:nodetypes="ccccccccc"
       id="path4008"
       d="M 524.30718,412.70722 C 493.06046,425.04358 510.48428,460.53938 541.95395,437.55475 C 512.77392,467.61144 560.28319,496.50982 573.26485,457.9107 C 580.76252,485.70047 622.53913,471.79043 602.75934,444.97576 C 631.64635,469.30453 652.0369,421.56766 616.36714,413.3984 C 646.53586,407.48878 631.89995,373.76332 605.36,382.0658 C 622.01648,353.02679 580.55878,334.89716 568.15851,365.97582 C 561.67062,333.70627 523.597,353.72521 538.5762,378.63324 C 507.83369,360.72128 494.71631,407.10867 524.30718,412.70722 z"
       style="fill:#decd87;fill-opacity:1;fill-rule:evenodd;stroke:#000000;stroke-width:8.98012829;stroke-miterlimit:4;stroke-dasharray:none;stroke-opacity:1" />
  </g>
</svg>
