<?xml version="1.0" encoding="UTF-8" standalone="no"?>
<!-- Created with Inkscape (http://www.inkscape.org/) -->
<svg
   xmlns:dc="http://purl.org/dc/elements/1.1/"
   xmlns:cc="http://creativecommons.org/ns#"
   xmlns:rdf="http://www.w3.org/1999/02/22-rdf-syntax-ns#"
   xmlns:svg="http://www.w3.org/2000/svg"
   xmlns="http://www.w3.org/2000/svg"
   xmlns:xlink="http://www.w3.org/1999/xlink"
   xmlns:sodipodi="http://sodipodi.sourceforge.net/DTD/sodipodi-0.dtd"
   xmlns:inkscape="http://www.inkscape.org/namespaces/inkscape"
   width="744.09448819"
   height="1052.3622047"
   id="svg2"
   sodipodi:version="0.32"
   inkscape:version="0.46"
   sodipodi:docname="13.svg"
   inkscape:output_extension="org.inkscape.output.svg.inkscape"
   inkscape:export-filename="E:\Documents\Pictures\SMC_youngheart_drafts\big_furball\big_furball_fr13.png"
   inkscape:export-xdpi="51.450001"
   inkscape:export-ydpi="51.450001">
  <defs
     id="defs4">
    <linearGradient
       inkscape:collect="always"
       id="linearGradient4175">
      <stop
         style="stop-color:#ebb35a;stop-opacity:1;"
         offset="0"
         id="stop4177" />
      <stop
         style="stop-color:#ebb35a;stop-opacity:0;"
         offset="1"
         id="stop4179" />
    </linearGradient>
    <linearGradient
       id="linearGradient3717">
      <stop
         style="stop-color:#957028;stop-opacity:1;"
         offset="0"
         id="stop3719" />
      <stop
         style="stop-color:#ca9d58;stop-opacity:1;"
         offset="1"
         id="stop3721" />
    </linearGradient>
    <linearGradient
       id="linearGradient3651">
      <stop
         id="stop3653"
         offset="0"
         style="stop-color:#cb9e9e;stop-opacity:1;" />
      <stop
         id="stop3655"
         offset="1"
         style="stop-color:#997171;stop-opacity:1;" />
    </linearGradient>
    <linearGradient
       id="linearGradient3639">
      <stop
         style="stop-color:#bc8383;stop-opacity:1;"
         offset="0"
         id="stop3641" />
      <stop
         style="stop-color:#715151;stop-opacity:1;"
         offset="1"
         id="stop3643" />
    </linearGradient>
    <linearGradient
       id="linearGradient3620">
      <stop
         id="stop3622"
         offset="0"
         style="stop-color:#7b5134;stop-opacity:1;" />
      <stop
         style="stop-color:#7e5336;stop-opacity:1;"
         offset="0.25638169"
         id="stop3624" />
      <stop
         id="stop3626"
         offset="1"
         style="stop-color:#4f3422;stop-opacity:1;" />
    </linearGradient>
    <filter
       inkscape:collect="always"
       id="filter3347">
      <feGaussianBlur
         inkscape:collect="always"
         stdDeviation="1.7079448"
         id="feGaussianBlur3349" />
    </filter>
    <filter
       inkscape:collect="always"
       id="filter3300">
      <feGaussianBlur
         inkscape:collect="always"
         stdDeviation="0.73920251"
         id="feGaussianBlur3302" />
    </filter>
    <filter
       inkscape:collect="always"
       id="filter3427">
      <feGaussianBlur
         inkscape:collect="always"
         stdDeviation="0.82282159"
         id="feGaussianBlur3429" />
    </filter>
    <clipPath
       clipPathUnits="userSpaceOnUse"
       id="clipPath3688">
      <path
         style="fill:#000000;fill-rule:evenodd;stroke:#000000;stroke-width:0.99999994px;stroke-linecap:butt;stroke-linejoin:miter;stroke-opacity:1"
         d="M 119.9692,722.25857 C 109.78025,657.48307 43.328936,563.47177 0.40067704,570.25452 C -58.057224,579.49101 -22.477975,689.77573 8.0882923,750.08423"
         id="path3690" />
    </clipPath>
    <clipPath
       clipPathUnits="userSpaceOnUse"
       id="clipPath3692">
      <path
         style="fill:#000000;fill-rule:evenodd;stroke:#000000;stroke-width:1px;stroke-linecap:butt;stroke-linejoin:miter;stroke-opacity:1"
         d="M 179.58732,747.36085 C 192.3769,673.45447 146.72328,555.38881 90.700026,553.92873 C 14.409901,551.94047 15.296163,681.58323 29.590021,754.80054"
         id="path3694" />
    </clipPath>
    <filter
       inkscape:collect="always"
       id="filter3667">
      <feGaussianBlur
         inkscape:collect="always"
         stdDeviation="13.606499"
         id="feGaussianBlur3669" />
    </filter>
    <linearGradient
       inkscape:collect="always"
       xlink:href="#linearGradient3620"
       id="linearGradient3827"
       gradientUnits="userSpaceOnUse"
       x1="233.54213"
       y1="695.64374"
       x2="252.10791"
       y2="712.31744" />
    <linearGradient
       inkscape:collect="always"
       xlink:href="#linearGradient3620"
       id="linearGradient2621"
       gradientUnits="userSpaceOnUse"
       x1="233.54213"
       y1="695.64374"
       x2="252.10791"
       y2="712.31744" />
    <linearGradient
       inkscape:collect="always"
       xlink:href="#linearGradient3639"
       id="linearGradient9835"
       gradientUnits="userSpaceOnUse"
       x1="262.85715"
       y1="760.2193"
       x2="312.14285"
       y2="700.22101" />
    <linearGradient
       inkscape:collect="always"
       xlink:href="#linearGradient3651"
       id="linearGradient9837"
       gradientUnits="userSpaceOnUse"
       gradientTransform="matrix(0.3040894,0.4650032,-0.9526435,0.1484318,912.58641,513.41852)"
       x1="282.33636"
       y1="747.31744"
       x2="247.77011"
       y2="702.17926" />
    <linearGradient
       inkscape:collect="always"
       xlink:href="#linearGradient3717"
       id="linearGradient4142"
       gradientUnits="userSpaceOnUse"
       gradientTransform="translate(0,2)"
       x1="361.26245"
       y1="609.95538"
       x2="285.84045"
       y2="341.38577" />
    <clipPath
       clipPathUnits="userSpaceOnUse"
       id="clipPath4167">
      <path
         inkscape:export-ydpi="69.898193"
         inkscape:export-xdpi="69.898193"
         inkscape:export-filename="E:\Documents\Pictures\SMC_youngheart_drafts\big_furball3.png"
         sodipodi:nodetypes="cccccccccccccccccccccccccccccccscccccccccccccsccccccccccc"
         id="path4169"
         d="M -130.71429,206.50504 C -174.61348,207.45436 -218.27174,221.75019 -255.39738,244.97978 C -286.84451,266.14021 -311.15209,297.02542 -324.31774,332.58887 C -332.52306,349.42798 -341.18917,364.66834 -343.57143,385.79074 C -340.3732,376.76253 -337.24864,367.5501 -331.42857,365.07648 C -336.12967,373.29334 -339.42109,384.32954 -341.42857,397.93362 C -335.73743,385.67682 -327.31479,378.73126 -332.17511,392.25091 C -337.04221,400.81802 -339.1793,414.84514 -341.42857,428.64789 C -336.73924,418.73299 -329.16835,406.46338 -332.97411,423.57071 C -335.29888,440.67938 -337.31108,457.80131 -335.71429,475.07648 C -334.04763,466.8118 -332.38096,453.94298 -330.71429,452.93362 C -325.06382,465.31458 -333.55231,481.73614 -333.95395,494.11709 C -328.9155,484.16804 -324.65822,480.14011 -326.66615,491.41981 C -331.81419,502.81998 -329.82298,516.00497 -330,528.64789 C -327.85714,520.55265 -325.71428,512.45742 -323.57143,504.36218 C -320.0431,518.17171 -328.71722,531.98124 -329.9641,545.79077 C -328.54051,540.3073 -321.38959,524.70518 -324.14237,538.50242 C -321.67009,546.78995 -326.88628,556.99961 -329.28571,566.50507 C -325.23809,559.8384 -321.19047,553.17173 -317.14285,546.50507 C -321.29112,558.00236 -323.33767,575.90765 -322.14286,590.07648 C -319.78661,582.47744 -316.21472,558.66678 -313.22515,568.62617 C -311.18802,584.44252 -311.70924,598.44044 -304.28571,600.79078 C -302.42109,574.15106 -298.36943,597.48655 -292.86354,605.02681 C -290.62356,588.30372 -283.14484,596.00253 -279.77351,583.24945 C -264.48062,630.60966 -268.03759,604.61253 -265.15786,585.90007 C -261.04295,593.4894 -250.14919,581.26679 -247.00544,597.79791 C -236.53723,575.09488 -238.65634,586.29909 -224.87219,609.40242 C -214.85772,581.57262 -210.4433,593.4172 -199.89476,611.07381 C -201.693,593.37748 -183.55133,595.89524 -176.47933,600.09922 C -169.06705,585.91886 -168.22841,588.41228 -157.10982,604.08888 C -151.59648,593.30537 -124.25761,584.69022 -132.47725,608.57348 C -124.15618,604.31422 -108.74352,580.31265 -104.40357,607.8503 C -103.20333,615.46599 -102.97347,578.55554 -98.31963,585.32198 C -96.5876,593.38612 -93.87673,600.89092 -82.85715,603.64789 C -92.57947,582.25915 -76.04831,587.89195 -68.03046,585.40821 C -67.09407,591.8368 -68.9602,602.63776 -57.87201,609.06635 C -53.20552,588.91567 -52.35209,588.26485 -39.66824,611.38249 C -39.83633,603.40195 -34.76923,589.16331 -29.86465,607.92738 C -23.76065,607.03941 -15.48672,577.65814 -9.11834,599.12431 C -1.35432,587.74606 0.25484,599.14959 11.3314,605.36558 C -0.4794,574.29311 44.09192,568.26953 46.08104,599.0094 C 46.09735,584.03164 57.9654,575.11588 67.89778,589.22717 C 68.51384,576.86107 59.3078,556.71172 65.71429,555.07648 C 80.59111,580.90597 68.51097,541.06341 68.012,532.24444 C 64.26382,516.11897 66.19179,521.52696 74.28571,529.36218 C 68.63417,519.19976 60.99281,481.06823 79.10449,518.17568 C 82.03581,524.1814 65.83034,470.72402 82.87127,499.63863 C 84.45048,490.94481 72.9841,459.18772 86.56599,472.53007 C 81.27032,460.09155 76.66276,445.31068 77.85712,439.36218 C 86.85502,449.02617 87.13069,446.93693 88.71562,442.84169 C 81.63841,418.8082 78.25007,413.35739 77.76786,412.62111 C 69.59466,400.45019 77.78371,399.25854 88.09745,414.22611 C 87.00131,398.08078 76.82505,391.25149 74.91536,383.42078 C 66.59237,371.77388 74.65092,376.19865 86.11889,384.53362 C 77.09356,336.183 46.51496,299.60553 15.73386,263.36783 C -12.09152,234.47863 -52.77312,223.64215 -90.09166,212.77461 C -103.41184,209.55069 -116.97651,206.88226 -130.71429,206.50504 z"
         style="fill:url(#linearGradient4171);fill-opacity:1;fill-rule:evenodd;stroke:#000000;stroke-width:1px;stroke-linecap:butt;stroke-linejoin:miter;stroke-opacity:1" />
    </clipPath>
    <linearGradient
       inkscape:collect="always"
       xlink:href="#linearGradient3717"
       id="linearGradient4171"
       gradientUnits="userSpaceOnUse"
       gradientTransform="translate(-500,2)"
       x1="361.26245"
       y1="609.95538"
       x2="285.84045"
       y2="341.38577" />
    <linearGradient
       inkscape:collect="always"
       xlink:href="#linearGradient4175"
       id="linearGradient4181"
       x1="213.64726"
       y1="424.55237"
       x2="213.64726"
       y2="417.11456"
       gradientUnits="userSpaceOnUse" />
  </defs>
  <sodipodi:namedview
     id="base"
     pagecolor="#000000"
     bordercolor="#666666"
     borderopacity="1.0"
     gridtolerance="10000"
     guidetolerance="10"
     objecttolerance="10"
     inkscape:pageopacity="0"
     inkscape:pageshadow="2"
     inkscape:zoom="0.7"
     inkscape:cx="332.70638"
     inkscape:cy="543.19841"
     inkscape:document-units="px"
     inkscape:current-layer="layer1"
     showgrid="false"
     showguides="true"
     inkscape:guide-bbox="true"
     inkscape:window-width="1152"
     inkscape:window-height="808"
     inkscape:window-x="120"
     inkscape:window-y="181" />
  <metadata
     id="metadata7">
    <rdf:RDF>
      <cc:Work
         rdf:about="">
        <dc:format>image/svg+xml</dc:format>
        <dc:type
           rdf:resource="http://purl.org/dc/dcmitype/StillImage" />
      </cc:Work>
    </rdf:RDF>
  </metadata>
  <g
     inkscape:label="Layer 1"
     inkscape:groupmode="layer"
     id="layer1">
    <rect
       style="opacity:0;fill:#000000;fill-opacity:1;stroke:none;stroke-width:0.25000000000000000;stroke-linecap:butt;stroke-miterlimit:4;stroke-dasharray:none;stroke-dashoffset:0;stroke-opacity:1"
       id="rect3952"
       width="447.797"
       height="447.797"
       x="149.44276"
       y="193.10875"
       rx="4.5077524"
       ry="1.3089085"
       inkscape:export-filename="E:\Documents\Pictures\SMC_youngheart_drafts\big_furball\big_furball_fr13.png"
       inkscape:export-xdpi="102.9"
       inkscape:export-ydpi="102.9" />
    <g
       transform="matrix(1.2136907,0.2000023,-0.186901,1.1341874,46.373708,-150.02467)"
       id="g3789"
       inkscape:export-filename="E:\Documents\Pictures\SMC_youngheart_drafts\big_furball\big_furball_fr13.png"
       inkscape:export-xdpi="102.9"
       inkscape:export-ydpi="102.9"
       style="opacity:1">
      <g
         id="g3791"
         transform="translate(-6.2193619,-174.5113)">
        <path
           style="fill:#442612;fill-opacity:1;fill-rule:evenodd;stroke:#000000;stroke-width:0.84097970000000000px;stroke-linecap:butt;stroke-linejoin:miter;stroke-opacity:1"
           d="M 287.57016,764.8518 C 280.76921,764.85732 275.49035,770.47173 270.76436,774.70564 C 267.97234,777.38498 266.93003,782.12725 271.0706,784.13615 C 277.93494,788.46411 286.82906,790.26247 294.50579,786.87556 C 298.71049,785.64749 303.15136,784.6446 307.5101,785.19345 C 306.52723,779.46407 306.77385,772.42341 304.95522,767.44367 C 298.9703,768.51629 293.40727,765.24571 287.57016,764.8518 z"
           id="path3793" />
        <path
           id="path3795"
           style="fill:#000000;fill-rule:evenodd;stroke:#000000;stroke-width:0.84097970000000000px;stroke-linecap:butt;stroke-linejoin:miter;stroke-opacity:1"
           d="M 309.20208,761.25568 C 302.42966,768.15849 292.57,758.16908 283.31202,761.5533 C 276.71018,763.96657 265.03862,772.72354 264.45019,779.72796 C 263.8392,787.00065 275.82789,791.03544 282.91663,792.77183 C 290.99904,794.75161 301.38533,785.49758 312.71715,790.83841 M 288.07235,764.90578 C 281.27139,764.91131 275.99254,770.52572 271.26655,774.75963 C 268.47453,777.43896 267.43222,782.18124 271.57278,784.19014 C 278.43713,788.5181 287.33125,790.31646 295.00798,786.92955 C 299.21268,785.70148 303.65355,784.69859 308.01228,785.24743 C 307.02942,779.51806 307.27603,772.4774 305.4574,767.49766 C 299.47248,768.57028 293.90945,765.29969 288.07235,764.90578 z" />
      </g>
      <path
         id="path3797"
         d="M 308.89474,548.13661 C 310.10207,563.20269 312.43792,580.52173 303.3043,593.70637 C 295.47871,601.53627 283.40771,596.87257 274.11372,595.09417 C 264.79185,592.78445 256.78357,599.83122 251.53011,606.65269 C 247.72372,613.2873 256.48429,618.55389 261.76777,620.76534 C 274.30929,625.11434 286.75707,612.94687 299.36585,618.64703 C 314.87518,626.76601 333.71255,628.03943 350.51269,625.27705 C 354.2615,615.51176 353.3164,603.71658 346.05358,595.69549 C 340.55501,588.39075 338.54153,579.1815 340.20092,570.1718 C 340.78469,563.60127 342.08629,557.12377 343.53817,550.69804 C 331.99035,549.84423 320.44255,548.99041 308.89474,548.13661 z"
         style="fill:#744c32;fill-opacity:1;fill-rule:evenodd;stroke:#000000;stroke-width:0.84097970000000000px;stroke-linecap:butt;stroke-linejoin:miter;stroke-opacity:1" />
      <path
         d="M 304.34449,543.76864 C 306.02226,557.13644 307.36532,571.02834 303.845,584.20985 C 302.56366,589.27852 298.64265,594.39748 292.8865,594.07861 C 283.64253,594.34043 274.80628,589.42733 265.54508,591.12257 C 258.07072,593.90989 251.22408,599.24494 247.28673,606.24518 C 244.27332,611.57074 248.60322,617.26575 252.91234,620.23785 C 258.3115,624.20411 265.1532,627.30803 271.95408,625.40203 C 279.47033,624.12781 286.74755,620.42932 294.50669,621.24215 C 307.43962,627.17965 321.51045,631.21148 335.85955,630.54417 C 341.45686,630.43395 347.03991,629.97026 352.60884,629.41826 C 356.2266,625.34043 356.02539,619.31754 356.4951,614.16962 C 357.00623,608.262 355.67216,602.23748 352.07786,597.44028 C 347.86585,591.49619 343.2854,584.98131 343.82152,577.31611 C 343.96632,567.07941 346.10408,556.98868 348.52918,547.08191 C 333.80095,545.97749 319.07271,544.87306 304.34449,543.76864 z M 308.89474,548.13661 C 309.99853,562.23972 312.11478,577.48701 305.24098,590.54356 C 302.35886,597.37955 293.92766,598.95228 287.31863,597.79728 C 279.89846,597.21098 272.4418,592.83629 265.02474,595.63987 C 259.19364,597.98597 254.13465,602.51313 250.95976,607.88024 C 249.27834,613.11676 254.52508,617.03098 258.53485,619.21029 C 265.66257,623.77167 274.29648,621.08373 281.71465,618.8677 C 288.14561,616.85889 295.57492,615.95444 301.56823,619.74392 C 316.73637,626.8539 334.14267,627.92464 350.51269,625.27705 C 354.47003,615.28921 353.05631,602.98623 345.54831,595.00515 C 339.94543,587.39518 338.61315,577.44599 340.38356,568.32625 C 341.03031,562.38581 342.22235,556.52163 343.53817,550.69804 C 331.99035,549.84423 320.44255,548.99041 308.89474,548.13661 z"
         style="fill:#000000;fill-rule:evenodd;stroke:#000000;stroke-width:0.84097970000000000px;stroke-linecap:butt;stroke-linejoin:miter;stroke-opacity:1"
         id="path3799" />
      <g
         id="g3801"
         transform="matrix(0.1670242,0.4587334,-0.3425506,0.1247222,446.60412,516.29937)"
         inkscape:export-filename="E:\Documents\Pictures\SMC_youngheart_drafts\big_furball.png"
         inkscape:export-xdpi="90"
         inkscape:export-ydpi="90">
        <path
           id="path3803"
           d="M 65.154838,592.2377 C 57.966757,592.74277 44.778877,590.12589 37.375643,591.22755 C 32.49779,597.88505 52.357029,637.43381 58.588846,634.66411 C 66.8654,620.52197 64.261699,606.37984 65.154838,592.2377 z"
           style="fill:none;fill-rule:evenodd;stroke:#000000;stroke-width:1.99347544000000010px;stroke-linecap:butt;stroke-linejoin:miter;stroke-opacity:1" />
        <path
           sodipodi:nodetypes="ccccccc"
           id="path3805"
           d="M 37.490328,584.05 C 33.419703,587.62002 32.785033,593.68983 32.649284,597.42669 C 34.345629,609.05102 40.797399,619.39497 46.243034,629.55169 C 49.043675,634.00634 54.575817,640.1585 60.243034,637.77044 C 66.161333,633.34133 66.192492,624.99562 67.930534,618.45794 C 69.314193,608.57828 68.350504,598.43023 69.118034,588.45794 C 57.63983,576.77332 45.926566,577.132 37.490328,584.05 z"
           style="fill:#000000;fill-rule:evenodd;stroke:#000000;stroke-width:1.99347544000000010px;stroke-linecap:butt;stroke-linejoin:miter;stroke-opacity:1" />
        <path
           sodipodi:nodetypes="cccc"
           style="fill:#b1a471;fill-opacity:1;fill-rule:evenodd;stroke:none;stroke-width:1px;stroke-linecap:butt;stroke-linejoin:miter;stroke-opacity:1"
           d="M 65.154836,592.2377 C 55.218222,581.96607 43.128669,583.65561 37.375645,591.22755 C 32.497792,597.88505 52.357031,637.43381 58.588848,634.66411 C 66.865406,620.52197 64.261696,606.37984 65.154836,592.2377 z"
           id="path3807" />
      </g>
      <g
         id="g3809"
         transform="matrix(0.9942709,0.1068891,-0.1068891,0.9942709,124.78977,-111.54025)">
        <path
           style="fill:url(#linearGradient3827);fill-opacity:1;fill-rule:evenodd;stroke:none;stroke-width:1px;stroke-linecap:butt;stroke-linejoin:miter;stroke-opacity:1;filter:url(#filter3427)"
           d="M 248.75,686.84375 C 242.07853,690.8686 232.31403,687.83416 227.23178,695.10893 C 222.45739,698.84483 215.79684,705.07018 218.75,711.65625 C 227.14824,719.77641 240.68102,719.2473 250.1875,713.40625 C 253.70757,711.82597 257.50088,711.00427 261.375,711.09375 C 257.87491,702.52902 254.43177,693.95095 250.75,685.46875 C 250.08333,685.92708 249.41667,686.38542 248.75,686.84375 z"
           id="path3811" />
        <path
           id="path3813"
           style="fill:#000000;fill-opacity:1;fill-rule:evenodd;stroke:#000000;stroke-width:0.84097975000000003px;stroke-linecap:butt;stroke-linejoin:miter;stroke-opacity:1"
           d="M 258.21621,709.46367 C 264.58925,709.32737 276.33398,718.583 264.4962,714.48401 C 252.65842,710.38502 243.32079,720.69622 235.07307,719.5917 C 227.83934,718.62297 215.48806,715.89275 215.31817,708.59642 C 215.15454,701.56923 225.82321,691.61487 232.12927,688.50976 C 240.97248,684.15535 247.91484,690.1765 250.3392,678.66077 C 252.76356,667.14504 255.81076,683.56051 249.62246,687.99492 C 243.43416,692.42933 234.27642,688.83116 229.15371,695.36992 C 225.0438,698.85026 218.64419,703.64695 219.87246,709.68242 C 225.0382,714.8426 233.48659,716.26996 240.37246,714.74492 C 246.21917,712.88613 251.84317,709.59997 258.21621,709.46367 z"
           sodipodi:nodetypes="ccssscccccc" />
        <g
           id="g3815"
           transform="matrix(0.2574389,0.4147995,-0.3097438,0.1922377,397.16442,576.18459)"
           inkscape:export-filename="E:\Documents\Pictures\SMC_youngheart_drafts\big_furball.png"
           inkscape:export-xdpi="90"
           inkscape:export-ydpi="90">
          <path
             id="path3817"
             d="M 65.154838,592.2377 C 57.966757,592.74277 44.778877,590.12589 37.375643,591.22755 C 32.49779,597.88505 52.357029,637.43381 58.588846,634.66411 C 66.8654,620.52197 64.261699,606.37984 65.154838,592.2377 z"
             style="fill:none;fill-rule:evenodd;stroke:#000000;stroke-width:1.99347544000000010px;stroke-linecap:butt;stroke-linejoin:miter;stroke-opacity:1" />
          <path
             sodipodi:nodetypes="ccccccc"
             id="path3819"
             d="M 37.490328,584.05 C 33.419703,587.62002 32.785033,593.68983 32.649284,597.42669 C 34.345629,609.05102 40.797399,619.39497 46.243034,629.55169 C 49.043675,634.00634 54.575817,640.1585 60.243034,637.77044 C 66.161333,633.34133 66.192492,624.99562 67.930534,618.45794 C 69.314193,608.57828 68.350504,598.43023 69.118034,588.45794 C 57.63983,576.77332 45.926566,577.132 37.490328,584.05 z"
             style="fill:#000000;fill-rule:evenodd;stroke:#000000;stroke-width:1.99347544000000010px;stroke-linecap:butt;stroke-linejoin:miter;stroke-opacity:1" />
          <path
             sodipodi:nodetypes="cccc"
             style="fill:#b1a471;fill-opacity:1;fill-rule:evenodd;stroke:none;stroke-width:1px;stroke-linecap:butt;stroke-linejoin:miter;stroke-opacity:1"
             d="M 65.154836,592.2377 C 55.218222,581.96607 43.128669,583.65561 37.375645,591.22755 C 32.497792,597.88505 52.357031,637.43381 58.588848,634.66411 C 66.865406,620.52197 64.261696,606.37984 65.154836,592.2377 z"
             id="path3821" />
        </g>
      </g>
      <path
         sodipodi:nodetypes="ccccccccccccsscccc"
         style="fill:#785825;fill-opacity:1;fill-rule:evenodd;stroke:#000000;stroke-width:0.84097975000000003px;stroke-linecap:butt;stroke-linejoin:miter;stroke-opacity:1"
         d="M 303.28924,583.65594 C 289.07414,585.3731 280.58606,601.86669 281.57816,606.91977 C 284.68544,597.68735 289.29455,600.5059 295.09872,597.79993 C 288.894,604.65404 292.29177,609.47688 295.76712,617.45153 C 296.95967,609.73539 298.84013,601.06594 303.39368,599.03709 C 301.21125,605.74749 304.90336,612.72836 308.28952,616.1479 C 310.54076,613.09909 318.31229,608.09999 318.01799,601.24316 C 321.77747,605.64087 320.75956,610.26712 319.0682,620.93898 C 321.29306,616.14065 324.72191,608.48592 327.35206,609.45936 C 330.89968,610.90058 328.34931,617.59436 328.08,621.58708 C 335.28889,620.2699 336.37624,613.63448 337.2924,606.85031 C 340.21968,611.26658 345.71735,614.27022 341.59771,622.55924 C 345.34447,623.10084 352.70115,616.31648 352.72375,605.51596 C 352.73052,602.28169 357.42583,611.5995 359.71645,610.04071 C 360.86461,609.25937 360.46318,598.37087 360.46234,596.60334 C 348.42219,565.33506 364.03315,553.90112 356.52391,547.71331 C 342.94468,544.78481 316.22445,543.77041 303.09241,543.73348 C 297.84063,547.85151 304.72388,579.52857 303.28924,583.65594 z"
         id="path3823" />
      <path
         id="path3825"
         style="fill:#000000;fill-rule:evenodd;stroke:#000000;stroke-width:0.84097975000000003px;stroke-linecap:butt;stroke-linejoin:miter;stroke-opacity:1"
         d="M 303.28924,583.65594 C 289.07414,585.3731 280.58606,601.86669 281.57816,606.91977 C 284.68544,597.68735 289.29455,600.5059 295.09872,597.79993 C 288.894,604.65404 292.29177,609.47688 295.76712,617.45153 C 296.95967,609.73539 298.84013,601.06594 303.39368,599.03709 C 301.21125,605.74749 304.90336,612.72836 308.28952,616.1479 C 310.54076,613.09909 318.31229,608.09999 318.01799,601.24316 C 321.77747,605.64087 320.75956,610.26712 319.0682,620.93898 C 321.29306,616.14065 324.72191,608.48592 327.35206,609.45936 C 330.89968,610.90058 328.34931,617.59436 328.08,621.58708 C 335.28889,620.2699 336.37624,613.63448 337.2924,606.85031 C 340.21968,611.26658 345.71735,614.27022 341.59771,622.55924 C 345.34447,623.10084 352.70115,616.31648 352.72375,605.51596 C 352.73052,602.28169 357.42583,611.5995 359.71645,610.04071 C 360.86461,609.25937 360.46318,598.37087 360.46234,596.60334 C 348.42219,565.33506 364.03315,553.90112 356.52391,547.71331 C 342.94468,544.78481 316.22445,543.77041 303.09241,543.73348 C 297.84063,547.85151 304.72388,579.52857 303.28924,583.65594 z M 305.46814,548.58245 C 303.43908,560.82118 309.13675,573.46578 306.71814,585.58245 C 302.99795,589.13156 296.92133,588.12704 293.59314,592.45745 C 289.05352,595.85645 293.49233,594.39999 296.31189,593.2387 C 299.57879,592.3459 300.85472,592.82403 299.18125,596.70933 C 298.22258,597.14106 297.06432,599.10485 296.11198,601.02903 C 295.29171,602.68638 294.87675,605.70332 294.62116,606.29761 C 293.41657,608.50141 296.63201,602.29012 299.88319,598.71751 C 303.34145,594.91735 306.67059,592.29882 307.88149,593.03138 C 312.72076,590.8088 307.35089,596.81334 307.28064,599.3637 C 306.4213,602.82217 306.76594,607.32356 308.78064,610.01995 C 312.75916,606.46907 315.77914,600.98079 313.81189,595.6137 C 317.72146,591.29051 320.97041,598.71095 322.93689,601.39495 C 323.86215,602.42848 322.65327,606.40238 323.21183,607.34915 C 323.54265,607.90989 325.23124,606.09715 326.34314,605.5512 C 329.15772,605.35257 332.10291,607.19987 332.81189,609.9887 C 333.35578,605.25487 333.90898,600.46101 334.90564,595.7387 C 337.83284,602.50747 344.16188,607.1095 346.62439,614.01995 C 349.5132,610.06565 346.88776,601.9684 352.62439,600.7387 C 354.83561,600.08921 357.67515,604.69495 356.56189,600.4262 C 354.24747,588.77623 349.53447,576.82926 352.51055,564.75281 C 352.94367,560.37484 354.84966,555.53774 354.21814,551.3637 C 338.35524,548.73764 321.83274,547.95719 305.59314,547.83245 L 305.46814,548.58245 z" />
    </g>
    <g
       id="g3829"
       transform="matrix(1.2300594,0,0,1.1494838,41.621077,-86.184081)"
       inkscape:export-filename="E:\Documents\Pictures\SMC_youngheart_drafts\big_furball\big_furball_fr13.png"
       inkscape:export-xdpi="102.9"
       inkscape:export-ydpi="102.9"
       style="opacity:1">
      <g
         transform="translate(-6.2193619,-174.5113)"
         id="g3831">
        <path
           id="path3833"
           d="M 287.57016,764.8518 C 280.76921,764.85732 275.49035,770.47173 270.76436,774.70564 C 267.97234,777.38498 266.93003,782.12725 271.0706,784.13615 C 277.93494,788.46411 286.82906,790.26247 294.50579,786.87556 C 298.71049,785.64749 303.15136,784.6446 307.5101,785.19345 C 306.52723,779.46407 306.77385,772.42341 304.95522,767.44367 C 298.9703,768.51629 293.40727,765.24571 287.57016,764.8518 z"
           style="fill:#442612;fill-opacity:1;fill-rule:evenodd;stroke:#000000;stroke-width:0.84097970000000000px;stroke-linecap:butt;stroke-linejoin:miter;stroke-opacity:1" />
        <path
           d="M 309.20208,761.25568 C 302.42966,768.15849 292.57,758.16908 283.31202,761.5533 C 276.71018,763.96657 265.03862,772.72354 264.45019,779.72796 C 263.8392,787.00065 275.82789,791.03544 282.91663,792.77183 C 290.99904,794.75161 301.38533,785.49758 312.71715,790.83841 M 288.07235,764.90578 C 281.27139,764.91131 275.99254,770.52572 271.26655,774.75963 C 268.47453,777.43896 267.43222,782.18124 271.57278,784.19014 C 278.43713,788.5181 287.33125,790.31646 295.00798,786.92955 C 299.21268,785.70148 303.65355,784.69859 308.01228,785.24743 C 307.02942,779.51806 307.27603,772.4774 305.4574,767.49766 C 299.47248,768.57028 293.90945,765.29969 288.07235,764.90578 z"
           style="fill:#000000;fill-rule:evenodd;stroke:#000000;stroke-width:0.84097970000000000px;stroke-linecap:butt;stroke-linejoin:miter;stroke-opacity:1"
           id="path3835" />
      </g>
      <path
         style="fill:#744c32;fill-opacity:1;fill-rule:evenodd;stroke:#000000;stroke-width:0.84097970000000000px;stroke-linecap:butt;stroke-linejoin:miter;stroke-opacity:1"
         d="M 308.89474,548.13661 C 310.10207,563.20269 312.43792,580.52173 303.3043,593.70637 C 295.47871,601.53627 283.40771,596.87257 274.11372,595.09417 C 264.79185,592.78445 256.78357,599.83122 251.53011,606.65269 C 247.72372,613.2873 256.48429,618.55389 261.76777,620.76534 C 274.30929,625.11434 286.75707,612.94687 299.36585,618.64703 C 314.87518,626.76601 333.71255,628.03943 350.51269,625.27705 C 354.2615,615.51176 353.3164,603.71658 346.05358,595.69549 C 340.55501,588.39075 338.54153,579.1815 340.20092,570.1718 C 340.78469,563.60127 342.08629,557.12377 343.53817,550.69804 C 331.99035,549.84423 320.44255,548.99041 308.89474,548.13661 z"
         id="path3837" />
      <path
         id="path3839"
         style="fill:#000000;fill-rule:evenodd;stroke:#000000;stroke-width:0.84097970000000000px;stroke-linecap:butt;stroke-linejoin:miter;stroke-opacity:1"
         d="M 304.34449,543.76864 C 306.02226,557.13644 307.36532,571.02834 303.845,584.20985 C 302.56366,589.27852 298.64265,594.39748 292.8865,594.07861 C 283.64253,594.34043 274.80628,589.42733 265.54508,591.12257 C 258.07072,593.90989 251.22408,599.24494 247.28673,606.24518 C 244.27332,611.57074 248.60322,617.26575 252.91234,620.23785 C 258.3115,624.20411 265.1532,627.30803 271.95408,625.40203 C 279.47033,624.12781 286.74755,620.42932 294.50669,621.24215 C 307.43962,627.17965 321.51045,631.21148 335.85955,630.54417 C 341.45686,630.43395 347.03991,629.97026 352.60884,629.41826 C 356.2266,625.34043 356.02539,619.31754 356.4951,614.16962 C 357.00623,608.262 355.67216,602.23748 352.07786,597.44028 C 347.86585,591.49619 343.2854,584.98131 343.82152,577.31611 C 343.96632,567.07941 346.10408,556.98868 348.52918,547.08191 C 333.80095,545.97749 319.07271,544.87306 304.34449,543.76864 z M 308.89474,548.13661 C 309.99853,562.23972 312.11478,577.48701 305.24098,590.54356 C 302.35886,597.37955 293.92766,598.95228 287.31863,597.79728 C 279.89846,597.21098 272.4418,592.83629 265.02474,595.63987 C 259.19364,597.98597 254.13465,602.51313 250.95976,607.88024 C 249.27834,613.11676 254.52508,617.03098 258.53485,619.21029 C 265.66257,623.77167 274.29648,621.08373 281.71465,618.8677 C 288.14561,616.85889 295.57492,615.95444 301.56823,619.74392 C 316.73637,626.8539 334.14267,627.92464 350.51269,625.27705 C 354.47003,615.28921 353.05631,602.98623 345.54831,595.00515 C 339.94543,587.39518 338.61315,577.44599 340.38356,568.32625 C 341.03031,562.38581 342.22235,556.52163 343.53817,550.69804 C 331.99035,549.84423 320.44255,548.99041 308.89474,548.13661 z" />
      <g
         inkscape:export-ydpi="90"
         inkscape:export-xdpi="90"
         inkscape:export-filename="E:\Documents\Pictures\SMC_youngheart_drafts\big_furball.png"
         transform="matrix(0.1670242,0.4587334,-0.3425506,0.1247222,446.60412,516.29937)"
         id="g3841">
        <path
           style="fill:none;fill-rule:evenodd;stroke:#000000;stroke-width:1.99347544000000010px;stroke-linecap:butt;stroke-linejoin:miter;stroke-opacity:1"
           d="M 65.154838,592.2377 C 57.966757,592.74277 44.778877,590.12589 37.375643,591.22755 C 32.49779,597.88505 52.357029,637.43381 58.588846,634.66411 C 66.8654,620.52197 64.261699,606.37984 65.154838,592.2377 z"
           id="path3843" />
        <path
           style="fill:#000000;fill-rule:evenodd;stroke:#000000;stroke-width:1.99347544000000010px;stroke-linecap:butt;stroke-linejoin:miter;stroke-opacity:1"
           d="M 37.490328,584.05 C 33.419703,587.62002 32.785033,593.68983 32.649284,597.42669 C 34.345629,609.05102 40.797399,619.39497 46.243034,629.55169 C 49.043675,634.00634 54.575817,640.1585 60.243034,637.77044 C 66.161333,633.34133 66.192492,624.99562 67.930534,618.45794 C 69.314193,608.57828 68.350504,598.43023 69.118034,588.45794 C 57.63983,576.77332 45.926566,577.132 37.490328,584.05 z"
           id="path3845"
           sodipodi:nodetypes="ccccccc" />
        <path
           id="path3847"
           d="M 65.154836,592.2377 C 55.218222,581.96607 43.128669,583.65561 37.375645,591.22755 C 32.497792,597.88505 52.357031,637.43381 58.588848,634.66411 C 66.865406,620.52197 64.261696,606.37984 65.154836,592.2377 z"
           style="fill:#b1a471;fill-opacity:1;fill-rule:evenodd;stroke:none;stroke-width:1px;stroke-linecap:butt;stroke-linejoin:miter;stroke-opacity:1"
           sodipodi:nodetypes="cccc" />
      </g>
      <g
         transform="matrix(0.9942709,0.1068891,-0.1068891,0.9942709,124.78977,-111.54025)"
         id="g3849">
        <path
           id="path3851"
           d="M 248.75,686.84375 C 242.07853,690.8686 232.31403,687.83416 227.23178,695.10893 C 222.45739,698.84483 215.79684,705.07018 218.75,711.65625 C 227.14824,719.77641 240.68102,719.2473 250.1875,713.40625 C 253.70757,711.82597 257.50088,711.00427 261.375,711.09375 C 257.87491,702.52902 254.43177,693.95095 250.75,685.46875 C 250.08333,685.92708 249.41667,686.38542 248.75,686.84375 z"
           style="fill:url(#linearGradient2621);fill-opacity:1;fill-rule:evenodd;stroke:none;stroke-width:1px;stroke-linecap:butt;stroke-linejoin:miter;stroke-opacity:1;filter:url(#filter3427)" />
        <path
           sodipodi:nodetypes="ccssscccccc"
           d="M 258.21621,709.46367 C 264.58925,709.32737 276.33398,718.583 264.4962,714.48401 C 252.65842,710.38502 243.32079,720.69622 235.07307,719.5917 C 227.83934,718.62297 215.48806,715.89275 215.31817,708.59642 C 215.15454,701.56923 225.82321,691.61487 232.12927,688.50976 C 240.97248,684.15535 247.91484,690.1765 250.3392,678.66077 C 252.76356,667.14504 255.81076,683.56051 249.62246,687.99492 C 243.43416,692.42933 234.27642,688.83116 229.15371,695.36992 C 225.0438,698.85026 218.64419,703.64695 219.87246,709.68242 C 225.0382,714.8426 233.48659,716.26996 240.37246,714.74492 C 246.21917,712.88613 251.84317,709.59997 258.21621,709.46367 z"
           style="fill:#000000;fill-opacity:1;fill-rule:evenodd;stroke:#000000;stroke-width:0.84097975000000003px;stroke-linecap:butt;stroke-linejoin:miter;stroke-opacity:1"
           id="path3853" />
        <g
           inkscape:export-ydpi="90"
           inkscape:export-xdpi="90"
           inkscape:export-filename="E:\Documents\Pictures\SMC_youngheart_drafts\big_furball.png"
           transform="matrix(0.2574389,0.4147995,-0.3097438,0.1922377,397.16442,576.18459)"
           id="g3855">
          <path
             style="fill:none;fill-rule:evenodd;stroke:#000000;stroke-width:1.99347544000000010px;stroke-linecap:butt;stroke-linejoin:miter;stroke-opacity:1"
             d="M 65.154838,592.2377 C 57.966757,592.74277 44.778877,590.12589 37.375643,591.22755 C 32.49779,597.88505 52.357029,637.43381 58.588846,634.66411 C 66.8654,620.52197 64.261699,606.37984 65.154838,592.2377 z"
             id="path3857" />
          <path
             style="fill:#000000;fill-rule:evenodd;stroke:#000000;stroke-width:1.99347544000000010px;stroke-linecap:butt;stroke-linejoin:miter;stroke-opacity:1"
             d="M 37.490328,584.05 C 33.419703,587.62002 32.785033,593.68983 32.649284,597.42669 C 34.345629,609.05102 40.797399,619.39497 46.243034,629.55169 C 49.043675,634.00634 54.575817,640.1585 60.243034,637.77044 C 66.161333,633.34133 66.192492,624.99562 67.930534,618.45794 C 69.314193,608.57828 68.350504,598.43023 69.118034,588.45794 C 57.63983,576.77332 45.926566,577.132 37.490328,584.05 z"
             id="path3859"
             sodipodi:nodetypes="ccccccc" />
          <path
             id="path3861"
             d="M 65.154836,592.2377 C 55.218222,581.96607 43.128669,583.65561 37.375645,591.22755 C 32.497792,597.88505 52.357031,637.43381 58.588848,634.66411 C 66.865406,620.52197 64.261696,606.37984 65.154836,592.2377 z"
             style="fill:#b1a471;fill-opacity:1;fill-rule:evenodd;stroke:none;stroke-width:1px;stroke-linecap:butt;stroke-linejoin:miter;stroke-opacity:1"
             sodipodi:nodetypes="cccc" />
        </g>
      </g>
      <path
         id="path3863"
         d="M 303.28924,583.65594 C 289.07414,585.3731 280.58606,601.86669 281.57816,606.91977 C 284.68544,597.68735 289.29455,600.5059 295.09872,597.79993 C 288.894,604.65404 292.29177,609.47688 295.76712,617.45153 C 296.95967,609.73539 298.84013,601.06594 303.39368,599.03709 C 301.21125,605.74749 304.90336,612.72836 308.28952,616.1479 C 310.54076,613.09909 318.31229,608.09999 318.01799,601.24316 C 321.77747,605.64087 320.75956,610.26712 319.0682,620.93898 C 321.29306,616.14065 324.72191,608.48592 327.35206,609.45936 C 330.89968,610.90058 328.34931,617.59436 328.08,621.58708 C 335.28889,620.2699 336.37624,613.63448 337.2924,606.85031 C 340.21968,611.26658 345.71735,614.27022 341.59771,622.55924 C 345.34447,623.10084 352.70115,616.31648 352.72375,605.51596 C 352.73052,602.28169 357.42583,611.5995 359.71645,610.04071 C 360.86461,609.25937 360.46318,598.37087 360.46234,596.60334 C 348.42219,565.33506 364.03315,553.90112 356.52391,547.71331 C 342.94468,544.78481 316.22445,543.77041 303.09241,543.73348 C 297.84063,547.85151 304.72388,579.52857 303.28924,583.65594 z"
         style="fill:#785825;fill-opacity:1;fill-rule:evenodd;stroke:#000000;stroke-width:0.84097975000000003px;stroke-linecap:butt;stroke-linejoin:miter;stroke-opacity:1"
         sodipodi:nodetypes="ccccccccccccsscccc" />
      <path
         d="M 303.28924,583.65594 C 289.07414,585.3731 280.58606,601.86669 281.57816,606.91977 C 284.68544,597.68735 289.29455,600.5059 295.09872,597.79993 C 288.894,604.65404 292.29177,609.47688 295.76712,617.45153 C 296.95967,609.73539 298.84013,601.06594 303.39368,599.03709 C 301.21125,605.74749 304.90336,612.72836 308.28952,616.1479 C 310.54076,613.09909 318.31229,608.09999 318.01799,601.24316 C 321.77747,605.64087 320.75956,610.26712 319.0682,620.93898 C 321.29306,616.14065 324.72191,608.48592 327.35206,609.45936 C 330.89968,610.90058 328.34931,617.59436 328.08,621.58708 C 335.28889,620.2699 336.37624,613.63448 337.2924,606.85031 C 340.21968,611.26658 345.71735,614.27022 341.59771,622.55924 C 345.34447,623.10084 352.70115,616.31648 352.72375,605.51596 C 352.73052,602.28169 357.42583,611.5995 359.71645,610.04071 C 360.86461,609.25937 360.46318,598.37087 360.46234,596.60334 C 348.42219,565.33506 364.03315,553.90112 356.52391,547.71331 C 342.94468,544.78481 316.22445,543.77041 303.09241,543.73348 C 297.84063,547.85151 304.72388,579.52857 303.28924,583.65594 z M 305.46814,548.58245 C 303.43908,560.82118 309.13675,573.46578 306.71814,585.58245 C 302.99795,589.13156 296.92133,588.12704 293.59314,592.45745 C 289.05352,595.85645 293.49233,594.39999 296.31189,593.2387 C 299.57879,592.3459 300.85472,592.82403 299.18125,596.70933 C 298.22258,597.14106 297.06432,599.10485 296.11198,601.02903 C 295.29171,602.68638 294.87675,605.70332 294.62116,606.29761 C 293.41657,608.50141 296.63201,602.29012 299.88319,598.71751 C 303.34145,594.91735 306.67059,592.29882 307.88149,593.03138 C 312.72076,590.8088 307.35089,596.81334 307.28064,599.3637 C 306.4213,602.82217 306.76594,607.32356 308.78064,610.01995 C 312.75916,606.46907 315.77914,600.98079 313.81189,595.6137 C 317.72146,591.29051 320.97041,598.71095 322.93689,601.39495 C 323.86215,602.42848 322.65327,606.40238 323.21183,607.34915 C 323.54265,607.90989 325.23124,606.09715 326.34314,605.5512 C 329.15772,605.35257 332.10291,607.19987 332.81189,609.9887 C 333.35578,605.25487 333.90898,600.46101 334.90564,595.7387 C 337.83284,602.50747 344.16188,607.1095 346.62439,614.01995 C 349.5132,610.06565 346.88776,601.9684 352.62439,600.7387 C 354.83561,600.08921 357.67515,604.69495 356.56189,600.4262 C 354.24747,588.77623 349.53447,576.82926 352.51055,564.75281 C 352.94367,560.37484 354.84966,555.53774 354.21814,551.3637 C 338.35524,548.73764 321.83274,547.95719 305.59314,547.83245 L 305.46814,548.58245 z"
         style="fill:#000000;fill-rule:evenodd;stroke:#000000;stroke-width:0.84097975000000003px;stroke-linecap:butt;stroke-linejoin:miter;stroke-opacity:1"
         id="path3865" />
    </g>
    <path
       id="path4144"
       style="fill:#000000;fill-opacity:1;fill-rule:evenodd;stroke:#000000;stroke-width:1px;stroke-linecap:butt;stroke-linejoin:miter;stroke-opacity:1"
       d="M 369.28571,206.50504 C 325.38652,207.45436 281.72826,221.75019 244.60262,244.97978 C 213.15549,266.14021 188.84791,297.02542 175.68226,332.58887 C 167.47694,349.42798 158.81083,364.66834 156.42857,385.79074 C 159.6268,376.76253 162.75136,367.5501 168.57143,365.07648 C 163.87033,373.29334 160.57891,384.32954 158.57143,397.93362 C 164.26257,385.67682 172.68521,378.73126 167.82489,392.25091 C 162.95779,400.81802 160.8207,414.84514 158.57143,428.64789 C 163.26076,418.73299 170.83165,406.46338 167.02589,423.57071 C 164.70112,440.67938 162.68892,457.80131 164.28571,475.07648 C 165.95237,466.8118 167.61904,453.94298 169.28571,452.93362 C 174.93618,465.31458 166.44769,481.73614 166.04605,494.11709 C 171.0845,484.16804 175.34178,480.14011 173.33385,491.41981 C 168.18581,502.81998 170.17702,516.00497 170,528.64789 C 172.14286,520.55265 174.28572,512.45742 176.42857,504.36218 C 179.9569,518.17171 171.28278,531.98124 170.0359,545.79077 C 171.45949,540.3073 178.61041,524.70518 175.85763,538.50242 C 178.32991,546.78995 173.11372,556.99961 170.71429,566.50507 C 174.76191,559.8384 178.80953,553.17173 182.85715,546.50507 C 178.70888,558.00236 176.66233,575.90765 177.85714,590.07648 C 180.21339,582.47744 183.78528,558.66678 186.77485,568.62617 C 188.81198,584.44252 188.29076,598.44044 195.71429,600.79078 C 197.57891,574.15106 201.63057,597.48655 207.13646,605.02681 C 209.37644,588.30372 216.85516,596.00253 220.22649,583.24945 C 235.51938,630.60966 231.96241,604.61253 234.84214,585.90007 C 238.95705,593.4894 249.85081,581.26679 252.99456,597.79791 C 263.46277,575.09488 261.34366,586.29909 275.12781,609.40242 C 285.14228,581.57262 289.5567,593.4172 300.10524,611.07381 C 298.307,593.37748 316.44867,595.89524 323.52067,600.09922 C 330.93295,585.91886 331.77159,588.41228 342.89018,604.08888 C 348.40352,593.30537 375.74239,584.69022 367.52275,608.57348 C 375.84382,604.31422 391.25648,580.31265 395.59643,607.8503 C 396.79667,615.46599 397.02653,578.55554 401.68037,585.32198 C 403.4124,593.38612 406.12327,600.89092 417.14285,603.64789 C 407.42053,582.25915 423.95169,587.89195 431.96954,585.40821 C 432.90593,591.8368 431.0398,602.63776 442.12799,609.06635 C 446.79448,588.91567 447.64791,588.26485 460.33176,611.38249 C 460.16367,603.40195 465.23077,589.16331 470.13535,607.92738 C 476.23935,607.03941 484.51328,577.65814 490.88166,599.12431 C 498.64568,587.74606 500.2548,599.14959 511.3314,605.36558 C 499.5206,574.29311 544.0919,568.26953 546.081,599.0094 C 546.0974,584.03164 557.9654,575.11588 567.8978,589.22717 C 568.5138,576.86107 559.3078,556.71172 565.7143,555.07648 C 580.5911,580.90597 568.511,541.06341 568.012,532.24444 C 564.2638,516.11897 566.1918,521.52696 574.2857,529.36218 C 568.6342,519.19976 560.9928,481.06823 579.1045,518.17568 C 582.0358,524.1814 565.8303,470.72402 582.8713,499.63863 C 584.4505,490.94481 572.9841,459.18772 586.566,472.53007 C 581.2703,460.09155 576.6628,445.31068 577.8571,439.36218 C 586.855,449.02617 587.1307,446.93693 588.7156,442.84169 C 581.6384,418.8082 578.2501,413.35739 577.7679,412.62111 C 569.5947,400.45019 577.7837,399.25854 588.0974,414.22611 C 587.0013,398.08078 576.825,391.25149 574.9154,383.42078 C 566.5924,371.77388 574.6509,376.19865 586.1189,384.53362 C 577.0936,336.183 546.515,299.60553 515.7339,263.36783 C 487.90848,234.47863 447.22688,223.64215 409.90834,212.77461 C 396.58816,209.55069 383.02349,206.88226 369.28571,206.50504 z M 367.125,202.5625 C 317.92702,204.48007 269.36503,221.12026 230.09058,250.65149 C 202.37019,272.49512 182.20805,302.81751 169.7112,335.63147 C 161.58228,352.68308 151.63736,370.82232 153.09375,390.375 C 154.33684,392.15889 156.07991,392.55846 154.96875,395.125 C 154.27763,399.43169 154.71531,403.79444 155.21875,408.09375 C 158.99937,403.32432 160.13698,402.7328 157.96027,409.00509 C 156.26097,418.69388 153.28196,428.66538 155.375,438.59375 C 157.90102,435.90297 160.49912,433.25172 162.25,430 C 160.10564,446.3539 157.9504,463.51518 161.59375,479.75 C 163.63574,481.6871 164.35337,482.5808 163.14398,485.6809 C 161.58633,492.46563 161.73661,499.49142 162.78125,506.375 C 165.59726,501.98028 167.39986,499.14684 165.96875,505.78125 C 165.80413,515.19483 165.04264,524.94916 167.21875,534.15625 C 167.93913,539.52344 164.60089,545.56025 167.125,551.125 C 166.96544,558.45089 173.5538,546.54884 170.18377,554.57368 C 167.78922,561.12228 165.7924,568.00223 166.59375,575.0625 C 169.97779,573.80005 172.49006,571.24323 174.25,568.21875 C 172.81389,579.69758 173.31857,591.37643 176.1875,602.59375 C 180.08244,596.0338 182.80174,588.93057 184.125,581.34375 C 184.80549,589.70668 185.73012,601.48974 194.9375,604.78125 C 198.14222,606.13569 200.90026,602.69552 199.875,599.71875 C 202.27146,605.38097 205.64704,610.68133 209.6875,615.40625 C 210.84058,607.86199 210.25424,597.32988 218.65625,593.71875 C 220.47559,592.41583 220.63136,598.30641 221.63033,599.65817 C 223.56989,604.85556 225.29963,612.63797 231.34375,613.9375 C 238.26449,613.13352 236.78429,604.12671 237.65625,599.1875 C 238.17629,596.647 236.3443,591.21802 240.625,592.59375 C 244.15945,591.96592 248.48556,592.4852 248.71875,596.84375 C 249.41094,599.7522 249.22524,607.17672 254.125,604.8125 C 256.69378,600.36313 258.07741,595.20459 260.875,591 C 265.9277,600.08133 269.8672,609.73436 275.875,618.25 C 279.79386,611.58013 280.12314,602.15836 286.125,597.21875 C 291.09999,601.76937 293.55902,608.69598 297.3125,614.34375 C 298.01481,617.75612 303.90684,621.17291 304.21875,615.875 C 303.60262,610.66217 302.7979,601.3413 310.28125,601.15625 C 315.58408,600.58529 320.56252,602.65644 325,605.46875 C 327.74635,602.69028 328.2151,597.43486 331.25,595.46875 C 336.20942,600.16014 338.92091,606.59639 343.53125,611.59375 C 346.23045,603.32835 355.12941,595.41557 364.09375,598.09375 C 367.27461,603.63318 361.52437,609.72594 361.5625,615.53125 C 372.49072,613.5546 377.6978,602.50474 387.59375,598.90625 C 393.08509,601.58455 388.94256,612.9239 396.625,612.8125 C 402.49692,610.5937 399.92734,602.3357 401.3125,597.5625 C 401.7745,596.5042 403.75649,600.77933 405.1875,601.625 C 409.40362,605.30923 415.23136,608.91879 421,608 C 424.22828,604.00502 418.61667,599.78744 418.34375,595.59375 C 417.13909,592.56185 419.52902,589.69737 422.78125,590.65625 C 424.63319,590.74103 429.25915,588.26101 428.28125,591.96875 C 428.69757,602.02887 434.96894,611.69219 444.71875,614.96875 C 446.5677,610.28514 446.76448,603.59488 448.875,600 C 454.83875,608.10812 458.48783,617.62581 464.15625,625.9375 C 464.86705,619.07155 463.52957,611.94041 465.09375,605.21875 C 465.66202,608.4242 467.74191,613.88928 471.96875,611.4375 C 478.83998,608.93321 480.14533,599.17579 485.46875,596.15625 C 487.32584,599.5385 487.43395,603.54926 489.28125,606.96875 C 492.95989,605.3184 493.64767,599.94984 497,598.5 C 503.3666,605.25594 511.0406,610.77277 519.75,614.40625 C 515.4127,606.33491 509.5388,594.40056 516.8438,586.46875 C 525.3132,577.87439 541.8256,585.38246 541.8125,597.28125 C 542.1457,600.21383 544.1408,606.96836 548.1562,603.6875 C 551.2934,598.23756 549.2545,588.88148 556.4688,586.21875 C 563.9847,586.39626 566.3548,595.67308 571.0938,600.03125 C 573.7743,588.66171 570.3959,576.80411 568.4062,565.96875 C 571.7015,569.44871 577.6425,566.61311 577,561.8125 C 577.1103,551.88261 573.0002,542.48482 572.0625,532.625 C 573.79,535.65517 580.3429,536.77484 579.125,531.75 C 577.4963,526.86501 575.4097,522.13828 574,517.1875 C 575.1158,521.22105 580.414,525.42093 583.125,520.46875 C 584.1949,514.66168 580.6777,508.88277 580.3125,503.125 C 582.8129,507.57286 585.6664,513.18724 586.25,504.75 C 588.6452,494.98825 584.682,485.25487 584.0625,475.53125 C 587.2078,478.39721 590.6991,480.85894 594.25,483.375 C 591.1053,471.91329 585.2943,460.43798 582.9375,449.28125 C 587.7707,452.363 593.1614,447.33314 592.3125,442.1875 C 591.4931,434.933 587.779,428.33708 586.0312,421.28125 C 585.6333,419.45531 581.6624,412.32095 583.8125,415.09375 C 586.7672,419.19676 589.68,423.35357 592.6875,427.4375 C 593.794,412.97289 589.9547,398.24398 580.875,386.90625 C 578.7307,382.82796 587.1383,390.72733 589.5042,391.81626 C 593.9785,395.65237 589.8249,385.54566 589.9375,382.5 C 581.6787,340.27419 555.5545,304.24256 528.3438,271.875 C 508.9941,246.09542 479.59019,230.50071 449.42272,220.71552 C 422.85666,211.87711 395.37212,202.94571 367.125,202.5625 z"
       inkscape:export-filename="E:\Documents\Pictures\SMC_youngheart_drafts\big_furball\big_furball_fr13.png"
       inkscape:export-xdpi="102.9"
       inkscape:export-ydpi="102.9" />
    <g
       id="g4187"
       inkscape:export-filename="E:\Documents\Pictures\SMC_youngheart_drafts\big_furball\big_furball_fr13.png"
       inkscape:export-xdpi="102.9"
       inkscape:export-ydpi="102.9">
      <path
         inkscape:export-ydpi="69.898193"
         inkscape:export-xdpi="69.898193"
         inkscape:export-filename="E:\Documents\Pictures\SMC_youngheart_drafts\big_furball3.png"
         sodipodi:nodetypes="cccccccccccccccccccccccccccccccscccccccccccccsccccccccccc"
         id="path2386"
         d="M 369.28571,206.50504 C 325.38652,207.45436 281.72826,221.75019 244.60262,244.97978 C 213.15549,266.14021 188.84791,297.02542 175.68226,332.58887 C 167.47694,349.42798 158.81083,364.66834 156.42857,385.79074 C 159.6268,376.76253 162.75136,367.5501 168.57143,365.07648 C 163.87033,373.29334 160.57891,384.32954 158.57143,397.93362 C 164.26257,385.67682 172.68521,378.73126 167.82489,392.25091 C 162.95779,400.81802 160.8207,414.84514 158.57143,428.64789 C 163.26076,418.73299 170.83165,406.46338 167.02589,423.57071 C 164.70112,440.67938 162.68892,457.80131 164.28571,475.07648 C 165.95237,466.8118 167.61904,453.94298 169.28571,452.93362 C 174.93618,465.31458 166.44769,481.73614 166.04605,494.11709 C 171.0845,484.16804 175.34178,480.14011 173.33385,491.41981 C 168.18581,502.81998 170.17702,516.00497 170,528.64789 C 172.14286,520.55265 174.28572,512.45742 176.42857,504.36218 C 179.9569,518.17171 171.28278,531.98124 170.0359,545.79077 C 171.45949,540.3073 178.61041,524.70518 175.85763,538.50242 C 178.32991,546.78995 173.11372,556.99961 170.71429,566.50507 C 174.76191,559.8384 178.80953,553.17173 182.85715,546.50507 C 178.70888,558.00236 176.66233,575.90765 177.85714,590.07648 C 180.21339,582.47744 183.78528,558.66678 186.77485,568.62617 C 188.81198,584.44252 188.29076,598.44044 195.71429,600.79078 C 197.57891,574.15106 201.63057,597.48655 207.13646,605.02681 C 209.37644,588.30372 216.85516,596.00253 220.22649,583.24945 C 235.51938,630.60966 231.96241,604.61253 234.84214,585.90007 C 238.95705,593.4894 249.85081,581.26679 252.99456,597.79791 C 263.46277,575.09488 261.34366,586.29909 275.12781,609.40242 C 285.14228,581.57262 289.5567,593.4172 300.10524,611.07381 C 298.307,593.37748 316.44867,595.89524 323.52067,600.09922 C 330.93295,585.91886 331.77159,588.41228 342.89018,604.08888 C 348.40352,593.30537 375.74239,584.69022 367.52275,608.57348 C 375.84382,604.31422 391.25648,580.31265 395.59643,607.8503 C 396.79667,615.46599 397.02653,578.55554 401.68037,585.32198 C 403.4124,593.38612 406.12327,600.89092 417.14285,603.64789 C 407.42053,582.25915 423.95169,587.89195 431.96954,585.40821 C 432.90593,591.8368 431.0398,602.63776 442.12799,609.06635 C 446.79448,588.91567 447.64791,588.26485 460.33176,611.38249 C 460.16367,603.40195 465.23077,589.16331 470.13535,607.92738 C 476.23935,607.03941 484.51328,577.65814 490.88166,599.12431 C 498.64568,587.74606 500.25484,599.14959 511.3314,605.36558 C 499.5206,574.29311 544.09192,568.26953 546.08104,599.0094 C 546.09735,584.03164 557.9654,575.11588 567.89778,589.22717 C 568.51384,576.86107 559.3078,556.71172 565.71429,555.07648 C 580.59111,580.90597 568.51097,541.06341 568.012,532.24444 C 564.26382,516.11897 566.19179,521.52696 574.28571,529.36218 C 568.63417,519.19976 560.99281,481.06823 579.10449,518.17568 C 582.03581,524.1814 565.83034,470.72402 582.87127,499.63863 C 584.45048,490.94481 572.9841,459.18772 586.56599,472.53007 C 581.27032,460.09155 576.66276,445.31068 577.85712,439.36218 C 586.85502,449.02617 587.13069,446.93693 588.71562,442.84169 C 581.63841,418.8082 578.25007,413.35739 577.76786,412.62111 C 569.59466,400.45019 577.78371,399.25854 588.09745,414.22611 C 587.00131,398.08078 576.82505,391.25149 574.91536,383.42078 C 566.59237,371.77388 574.65092,376.19865 586.11889,384.53362 C 577.09356,336.183 546.51496,299.60553 515.73386,263.36783 C 487.90848,234.47863 447.22688,223.64215 409.90834,212.77461 C 396.58816,209.55069 383.02349,206.88226 369.28571,206.50504 z"
         style="fill:url(#linearGradient4142);fill-opacity:1;fill-rule:evenodd;stroke:#000000;stroke-width:1px;stroke-linecap:butt;stroke-linejoin:miter;stroke-opacity:1" />
      <path
         transform="translate(500,0)"
         clip-path="url(#clipPath4167)"
         style="fill:#ebb35a;fill-opacity:1;fill-rule:evenodd;stroke:none;stroke-width:1px;stroke-linecap:butt;stroke-linejoin:miter;stroke-opacity:1;filter:url(#filter3667)"
         d="M -133.1875,218.625 C -187.12775,221.22962 -241.70904,241.56907 -279.125,281.125 C -296.26614,299.45533 -307.54152,322.48327 -317.65625,345.28125 C -314.08705,342.37259 -306.3826,343.77116 -308.09375,349.53125 C -309.68926,355.0233 -314.76136,358.4895 -316.84364,363.78479 C -318.9893,367.72669 -322.71699,371.98478 -323,376.375 C -315.31838,383.86158 -319.79427,395.43154 -323.9375,403.53125 C -326.92746,406.48537 -321.9815,407.49102 -321.46875,410.3125 C -316.71097,421.20893 -324.56897,432.7918 -322.71875,443.875 C -314.66581,452.45838 -316.56102,465.72668 -318.28125,476.34375 C -314.73423,479.85256 -313.34141,484.67144 -314.34375,489.59375 C -315.72056,495.14852 -310.66424,499.22899 -311.03125,504.78125 C -309.26582,514.43643 -314.62127,524.25128 -311.46875,533.5 C -302.70887,537.37629 -304.19091,548.86131 -307.5,556.0625 C -307.56203,557.68327 -304.03122,558.58529 -303.625,560.84375 C -300.99132,564.94582 -301.21962,570.84214 -299.59375,574.71875 C -296.32911,573.74958 -292.51976,576.40296 -290.21875,576.65625 C -288.73027,570.2463 -281.39628,565.17498 -275.25,569.09375 C -273.35964,569.09767 -274.41417,563.63137 -273.34375,561.46875 C -273.15192,556.85437 -267.93841,553.12675 -264.40625,557.21875 C -258.96084,563.17938 -260.73356,572.93339 -255.0625,578.40625 C -252.67305,579.09471 -249.51698,579.91999 -247.59375,580.65625 C -242.51865,572.00738 -228.8102,569.48316 -221.84375,577.15625 C -213.85726,567.58519 -196.89763,571.73055 -192.6875,582.9375 C -185.24232,581.34014 -178.77847,586.80314 -173.09375,590.03125 C -167.21584,582.7011 -155.41227,580.36008 -147.75,585.96875 C -140.62924,579.49195 -129.28699,578.01205 -121.0625,582.75 C -118.11215,581.20328 -113.69895,585.01969 -112.6875,580.59375 C -108.13787,573.09513 -95.65115,569.3209 -89.65625,576.9375 C -87.61532,577.54416 -84.15593,574.60595 -81.3125,574.84375 C -75.21359,574.28905 -69.06517,573.4282 -63.40625,571.28125 C -59.42939,571.25365 -57.92231,575.95833 -56.65625,578.34375 C -49.57901,577.08793 -42.55807,581.09077 -38,585.90625 C -33.06638,583.81524 -27.44482,586.08535 -23.09375,587.34375 C -18.27805,584.03503 -11.9561,585.75394 -6.9375,586.6875 C -4.10479,585.05094 1.30685,586.15493 0.84375,581.53125 C 3.62228,569.1656 18.29141,559.92663 30.4375,565.625 C 33.44982,566.26953 36.18357,570.33034 38.75,569.9375 C 41.79939,566.29267 46.95345,564.28544 50.46875,562.125 C 50.36402,555.69601 53.08987,549.05952 58.25,545.125 C 56.47542,535.64925 52.02468,524.83679 56.40625,515.5625 C 57.69046,511.94027 54.21944,507.93192 55.75,504.0625 C 55.87207,498.6232 60.27851,494.42176 63.15625,490.53125 C 63.84806,487.08372 65.71394,483.84134 68.5,481.6875 C 67.14639,475.51719 67.77768,468.9788 70.25,463.40625 C 65.13211,450.7544 63.97394,435.89403 69.5625,423.25 C 64.64016,415.40049 58.68803,403.66189 66.28125,395.53125 C 68.6406,393.86126 63.98961,391.55552 63.75,389.40625 C 58.92733,382.64581 57.57698,371.06974 65.59375,366.25 C 69.32899,365.9225 68.28987,363.4742 66.8125,360.75 C 52.02389,323.68417 26.15155,291.85398 -1.81876,263.69619 C -34.00686,238.13879 -75.15782,228.9867 -114.375,220.03125 C -120.55987,219.04445 -126.87725,218.50988 -133.1875,218.625 z"
         id="path4163"
         inkscape:export-filename="E:\Documents\Pictures\SMC_youngheart_drafts\big_furball3.png"
         inkscape:export-xdpi="69.898193"
         inkscape:export-ydpi="69.898193" />
      <g
         transform="translate(0,2)"
         inkscape:export-ydpi="69.898193"
         inkscape:export-xdpi="69.898193"
         inkscape:export-filename="E:\Documents\Pictures\SMC_youngheart_drafts\big_furball3.png"
         id="g3588">
        <path
           sodipodi:type="arc"
           style="opacity:1;fill:#ffffff;fill-opacity:1;stroke:#000000;stroke-width:3.84057212;stroke-linecap:square;stroke-miterlimit:4;stroke-dasharray:none;stroke-opacity:1"
           id="path3293"
           sodipodi:cx="50"
           sodipodi:cy="263.79074"
           sodipodi:rx="30"
           sodipodi:ry="30"
           d="M 80,263.79074 A 30,30 0 1 1 20,263.79074 A 30,30 0 1 1 80,263.79074 z"
           transform="matrix(0.7811336,0,0,0.7811336,171.52019,130.0152)"
           inkscape:export-filename="E:\Documents\Pictures\SMC_youngheart_drafts\big_furball2.png"
           inkscape:export-xdpi="69.930099"
           inkscape:export-ydpi="69.930099" />
        <path
           transform="matrix(0.4184644,0,0,0.4184644,184.35309,233.21634)"
           d="M 80,263.79074 A 30,30 0 1 1 20,263.79074 A 30,30 0 1 1 80,263.79074 z"
           sodipodi:ry="30"
           sodipodi:rx="30"
           sodipodi:cy="263.79074"
           sodipodi:cx="50"
           id="path3295"
           style="opacity:1;fill:#000000;fill-opacity:1;stroke:#000000;stroke-width:7.16906786;stroke-linecap:square;stroke-miterlimit:4;stroke-dasharray:none;stroke-opacity:1"
           sodipodi:type="arc"
           inkscape:export-filename="E:\Documents\Pictures\SMC_youngheart_drafts\big_furball2.png"
           inkscape:export-xdpi="69.930099"
           inkscape:export-ydpi="69.930099" />
        <path
           sodipodi:type="arc"
           style="opacity:0.74519228;fill:#ffffff;fill-opacity:1;stroke:none;stroke-width:12.49117565;stroke-linecap:square;stroke-miterlimit:4;stroke-dasharray:none;stroke-opacity:1;filter:url(#filter3347)"
           id="path3301"
           sodipodi:cx="50"
           sodipodi:cy="263.79074"
           sodipodi:rx="30"
           sodipodi:ry="30"
           d="M 80,263.79074 A 30,30 0 1 1 20,263.79074 A 30,30 0 1 1 80,263.79074 z"
           transform="matrix(0.1441377,0,0,0.1162401,196.25608,303.87358)"
           inkscape:export-filename="E:\Documents\Pictures\SMC_youngheart_drafts\big_furball2.png"
           inkscape:export-xdpi="69.930099"
           inkscape:export-ydpi="69.930099" />
      </g>
      <g
         inkscape:export-ydpi="69.898193"
         inkscape:export-xdpi="69.898193"
         inkscape:export-filename="E:\Documents\Pictures\SMC_youngheart_drafts\big_furball3.png"
         transform="matrix(0.9977226,-6.7451148e-2,6.7451148e-2,0.9977226,-20.559014,16.638547)"
         id="g3600">
        <path
           sodipodi:nodetypes="cssssssssccsssssssssccssss"
           id="path3363"
           d="M 188.77422,315.25994 C 192.59622,317.10175 191.02521,318.5974 195.1566,319.56257 C 198.34859,320.30828 198.21116,318.71119 201.40315,319.4569 C 206.41985,320.6289 202.78362,323.34766 207.62461,325.10993 C 210.9577,326.32328 209.68808,328.32386 213.14443,329.12086 C 216.79705,329.96312 217.73046,329.14595 220.87723,333.58442 C 222.83682,336.3484 222.30284,332.25944 225.64261,332.82997 C 228.10591,333.25077 230.40806,332.94409 232.79948,332.21884 C 236.04181,331.23553 231.83587,330.38559 234.69807,328.57248 C 236.87033,327.19642 238.26849,328.63422 240.30839,327.06865 C 242.17911,323.27831 234.73021,318.47272 231.20253,317.48262 C 228.61656,317.35291 229.46829,312.94994 226.9501,312.34759 C 224.23281,311.69762 224.48192,311.7509 221.84019,310.84133 C 220.09725,310.24122 220.06959,307.58188 218.40254,306.79517 C 215.93599,305.63116 213.76873,307.41938 211.40659,306.0559 C 209.04446,304.69241 211.14477,301.95521 208.86165,300.46319 C 206.56448,298.96198 203.97927,297.614 201.6821,296.11279 C 199.39899,294.62076 199.2947,290.66703 196.79345,289.5796 C 193.08557,287.96757 189.84647,291.43311 186.13859,289.82109 C 183.91526,288.85448 179.27929,289.68136 178.33293,291.91339 C 177.84519,293.06375 178.31969,294.17544 177.65398,295.23282 C 170.18303,298.05594 174.53932,295.54628 174.44022,300.80043 C 173.75081,303.75143 172.63892,301.41789 172.54164,304.44679 C 172.43641,307.72304 178.5149,305.21287 179.59042,308.30934 C 180.92813,312.1607 179.30413,310.05918 181.9392,313.17027 C 185.90029,317.84691 183.25312,312.59934 188.77422,315.25994 z"
           style="fill:#553e28;fill-opacity:1;fill-rule:evenodd;stroke:#000000;stroke-width:0.99999994px;stroke-linecap:butt;stroke-linejoin:miter;stroke-opacity:1" />
        <path
           id="path3353"
           style="fill:#000000;fill-rule:evenodd;stroke:#000000;stroke-width:0.99999994px;stroke-linecap:butt;stroke-linejoin:miter;stroke-opacity:1"
           d="M 188.77422,315.25994 C 192.59622,317.10175 191.02521,318.5974 195.1566,319.56257 C 198.34859,320.30828 198.21116,318.71119 201.40315,319.4569 C 206.41985,320.6289 202.78362,323.34766 207.62461,325.10993 C 210.9577,326.32328 209.68808,328.32386 213.14443,329.12086 C 216.79705,329.96312 217.73046,329.14595 220.87723,333.58442 C 222.83682,336.3484 222.30284,332.25944 225.64261,332.82997 C 228.10591,333.25077 230.40806,332.94409 232.79948,332.21884 C 236.04181,331.23553 231.83587,330.38559 234.69807,328.57248 C 236.87033,327.19642 238.26849,328.63422 240.30839,327.06865 C 242.17911,323.27831 234.73021,318.47272 231.20253,317.48262 C 228.61656,317.35291 229.46829,312.94994 226.9501,312.34759 C 224.23281,311.69762 224.48192,311.7509 221.84019,310.84133 C 220.09725,310.24122 220.06959,307.58188 218.40254,306.79517 C 215.93599,305.63116 213.76873,307.41938 211.40659,306.0559 C 209.04446,304.69241 211.14477,301.95521 208.86165,300.46319 C 206.56448,298.96198 203.97927,297.614 201.6821,296.11279 C 199.39899,294.62076 199.2947,290.66703 196.79345,289.5796 C 193.08557,287.96757 189.84647,291.43311 186.13859,289.82109 C 183.91526,288.85448 179.27929,289.68136 178.33293,291.91339 C 177.84519,293.06375 178.31969,294.17544 177.65398,295.23282 C 170.18303,298.05594 174.53932,295.54628 174.44022,300.80043 C 173.75081,303.75143 172.63892,301.41789 172.54164,304.44679 C 172.43641,307.72304 178.5149,305.21287 179.59042,308.30934 C 180.92813,312.1607 179.30413,310.05918 181.9392,313.17027 C 185.90029,317.84691 183.25312,312.59934 188.77422,315.25994 z M 180.04926,285.88638 C 175.63605,286.44923 175.07761,292.17801 171.0859,293.57227 C 168.60619,296.51055 170.40364,300.88109 168.40205,304.07561 C 168.07507,308.66106 172.6934,310.25014 176.11327,310.9489 C 177.63727,314.13367 178.92105,318.3277 183.11309,318.77163 C 187.95808,318.10203 190.46243,322.98222 194.9348,323.66537 C 197.94435,324.12515 201.49289,322.16138 202.6607,326.26053 C 204.9287,329.00324 208.30769,330.61139 211.34187,332.5905 C 214.78749,333.40569 217.20103,334.97145 219.49423,337.60443 C 222.50505,339.95881 225.35597,336.40679 228.58808,336.91442 C 231.71995,336.76897 235.83907,336.55159 237.30938,333.25634 C 239.5977,330.6168 245.44743,330.98107 244.50896,326.05968 C 244.46586,321.14194 240.33219,317.49065 236.30884,315.33659 C 232.52391,314.80239 232.27972,309.6244 228.46978,308.91366 C 224.07642,308.3422 222.62996,303.33527 218.38628,302.8746 C 214.49364,303.33001 213.66094,299.8727 211.64379,297.67448 C 208.53134,295.08337 203.48197,294.05659 202.42844,289.5936 C 199.7463,284.97869 193.33709,284.12393 188.76386,286.17104 C 185.87242,286.00278 182.88328,284.66693 180.04926,285.88638 z" />
        <path
           d="M 81.5625,598.1875 C 80.441241,598.15225 79.763883,598.61984 79.90625,598.4375 C 79.911611,598.43063 79.842333,598.55752 79.65625,599.15625 C 79.470167,599.75498 79.080818,600.86719 78.09375,601.78125 C 77.673967,602.17935 77.136958,602.43142 76.5625,602.5 C 75.57953,602.59803 75.319173,602.60502 74.6875,602.65625 C 74.673168,603.39426 74.573702,604.21921 74.3125,605.125 C 74.258769,605.30939 74.185434,605.48749 74.09375,605.65625 C 73.652614,606.48051 73.16013,607.13404 72.46875,607.65625 C 73.205831,607.93434 74.137649,608.23318 75.125,608.90625 C 76.159342,609.61135 77.313263,611.03716 77.4375,612.75 C 77.518036,613.86035 77.507702,614.60566 77.46875,615.15625 C 77.447346,615.4588 77.450995,615.39267 77.4375,615.5 C 77.555271,615.76481 77.779931,616.22993 78.1875,617.09375 C 78.5103,617.7779 78.438901,617.65679 78.59375,617.90625 C 78.975298,617.86712 79.360066,617.79613 79.78125,617.875 C 81.067332,618.11583 82.202965,618.82918 83.5625,620 C 85.493944,621.66335 86.277138,623.40904 86.59375,624.09375 C 86.910362,624.77846 86.623324,624.64835 88.15625,625.46875 C 89.237231,626.04727 89.113145,625.91012 89.90625,625.90625 C 90.699355,625.90238 92.409652,626.0318 94.21875,627 C 95.620656,627.75028 96.672872,628.64934 97.3125,629.78125 C 97.952128,630.91316 97.980009,632.04398 98,632.625 C 98.019991,633.20602 98.06111,633.2693 98.09375,633.34375 C 98.12639,633.4182 98.215746,633.70069 99,634.25 C 100.93073,635.60233 101.76808,637.49326 102.0625,638.28125 C 102.35692,639.06924 101.96345,638.80747 103.03125,639.375 C 104.47382,640.14172 105.66815,640.40028 107.125,641.53125 C 108.31381,642.45414 109.1883,643.93107 110.03125,645.875 C 110.15073,645.83336 110.15018,645.78534 110.28125,645.75 C 111.34295,645.46373 112.75735,645.55346 114,646.125 C 115.50581,646.81757 117.0817,647.02817 118.84375,647.0625 C 118.89264,646.88427 118.85271,646.75152 118.9375,646.5625 C 119.50959,645.28713 120.7219,644.58872 121.90625,644.21875 C 123.78674,643.63131 125.51033,644.04331 126.3125,644.25 C 126.41776,644.27712 126.39318,644.22832 126.46875,644.25 C 126.33222,643.68977 125.9727,642.85605 125.375,641.96875 C 124.10023,640.07633 121.86793,638.07645 120.84375,637.46875 L 120.875,637.40625 C 119.79794,636.85565 118.90548,635.91152 118.5625,635.03125 C 118.16079,634.00024 118.14672,633.15067 118.09375,632.5 C 118.04337,631.88115 117.94854,631.47348 117.90625,631.3125 C 115.81951,630.18044 115.59192,630.037 113.40625,628.5625 C 111.62967,627.36401 111.30501,625.52322 111.09375,624.5625 C 110.88249,623.60178 110.68861,623.43586 110.875,623.59375 C 110.47002,623.25069 110.05027,623.17677 108.875,623 C 107.69973,622.82323 105.73046,622.48046 104.15625,620.90625 C 103.27582,620.02584 102.74256,618.77641 102.65625,617.75 C 102.56994,616.72359 102.79511,615.95673 102.90625,615.4375 C 103.00904,614.95729 103.02803,614.74454 103.03125,614.6875 C 101.33075,612.7921 99.195236,610.8296 97.25,608.65625 C 95.629963,606.84626 95.471947,604.83668 95.21875,603.46875 C 94.965553,602.10082 94.679798,601.52442 94.53125,601.40625 C 93.722485,600.76287 92.826167,600.75355 91.03125,600.75 C 89.236333,600.74645 86.542813,600.74868 84.1875,598.875 C 84.012871,598.73608 82.6842,598.22277 81.5625,598.1875 z"
           id="path3290"
           style="fill:#84613f;fill-opacity:1;fill-rule:evenodd;stroke:none;stroke-width:1px;stroke-linecap:butt;stroke-linejoin:miter;stroke-opacity:1;filter:url(#filter3300)"
           inkscape:original="M 81.65625 595.5 C 80.059601 595.4498 78.527242 595.8258 77.78125 596.78125 C 77.012299 597.76609 77.198028 598.96353 76.28125 599.8125 C 68.334108 600.60505 73.174823 599.32566 71.71875 604.375 C 70.288803 607.04685 69.815679 604.47457 68.9375 607.375 C 67.987606 610.51227 74.512865 609.66815 74.75 612.9375 C 75.044945 617.00391 74.010274 614.56275 75.75 618.25 C 78.365188 623.79272 77.168521 618.03191 81.8125 622.03125 C 85.02732 624.79984 83.13437 625.84183 86.875 627.84375 C 89.765081 629.39047 90.047422 627.82828 92.9375 629.375 C 97.479689 631.80593 93.249097 633.48194 97.46875 636.4375 C 100.37404 638.47243 98.649104 640.08529 101.78125 641.75 C 105.09125 643.50924 106.20345 642.96065 108.09375 648.0625 C 109.2709 651.23956 109.79682 647.14673 112.875 648.5625 C 115.14535 649.60671 117.4711 649.89386 119.96875 649.8125 C 123.35511 649.70217 119.48471 647.79149 122.71875 646.78125 C 125.17321 646.01451 126.15556 647.76529 128.53125 646.78125 C 131.31952 643.6045 125.36979 637.02594 122.21875 635.15625 C 119.75454 634.36143 121.71387 630.32754 119.4375 629.09375 C 116.98115 627.76239 117.22241 627.90628 114.90625 626.34375 C 113.37812 625.31287 114.03152 622.72275 112.625 621.53125 C 110.54393 619.76834 107.99107 620.92857 106.0625 619 C 104.13393 617.07146 106.88147 614.96977 105.0625 612.9375 C 103.23234 610.89274 101.08016 608.91978 99.25 606.875 C 97.431029 604.84275 98.353165 601.01045 96.21875 599.3125 C 93.054673 596.79543 89.039074 599.29831 85.875 596.78125 C 84.92637 596.0266 83.252899 595.5502 81.65625 595.5 z "
           inkscape:radius="-2.688102"
           sodipodi:type="inkscape:offset"
           transform="matrix(0.9659015,-0.2589096,0.2589096,0.9659015,-51.569601,-263.9388)" />
      </g>
      <g
         style="opacity:0"
         inkscape:export-ydpi="69.898193"
         inkscape:export-xdpi="69.898193"
         inkscape:export-filename="E:\Documents\Pictures\SMC_youngheart_drafts\big_furball3.png"
         transform="translate(-10,-272.28572)"
         id="g3696">
        <path
           style="fill:url(#linearGradient9835);fill-opacity:1;fill-rule:evenodd;stroke:#000000;stroke-width:1px;stroke-linecap:butt;stroke-linejoin:miter;stroke-opacity:1"
           d="M 242.60614,703.31478 C 240.04205,726.64328 251.17861,750.56986 269.54364,764.68978 C 281.92213,773.06026 301.24582,771.21815 309.04364,757.50228 C 319.02023,740.55763 316.77923,719.31606 313.19989,700.72103 C 289.66864,701.58561 266.13739,702.4502 242.60614,703.31478 z"
           id="path3630" />
        <path
           id="path3647"
           d="M 316.35213,730.6254 C 293.34867,732.89578 273.94168,741.62578 266.07504,752.26142 C 261.86512,759.25991 269.49613,767.97205 284.9337,769.5622 C 305.88835,772.68696 313.81009,762.86097 316.35213,730.6254 z"
           style="fill:url(#linearGradient9837);fill-opacity:1;fill-rule:evenodd;stroke:#000000;stroke-width:1px;stroke-linecap:butt;stroke-linejoin:miter;stroke-opacity:1"
           sodipodi:nodetypes="cccc" />
        <path
           style="fill:none;fill-rule:evenodd;stroke:#000000;stroke-width:1px;stroke-linecap:butt;stroke-linejoin:miter;stroke-opacity:1"
           d="M 275.71429,758.43361 C 279.21847,752.32949 273.64911,747.78084 308.57143,736.29075"
           id="path3657"
           sodipodi:nodetypes="cc" />
        <g
           inkscape:export-ydpi="90"
           inkscape:export-xdpi="90"
           inkscape:export-filename="E:\Documents\Pictures\SMC_youngheart_drafts\big_furball.png"
           transform="matrix(-0.514295,0,0,-0.3840402,331.64657,986.52165)"
           id="g3659"
           clip-path="url(#clipPath3692)">
          <path
             style="fill:none;fill-rule:evenodd;stroke:#000000;stroke-width:2.25011897px;stroke-linecap:butt;stroke-linejoin:miter;stroke-opacity:1"
             d="M 65.154838,592.2377 C 57.966757,592.74277 44.778877,590.12589 37.375643,591.22755 C 32.49779,597.88505 52.357029,637.43381 58.588846,634.66411 C 66.8654,620.52197 64.261699,606.37984 65.154838,592.2377 z"
             id="path3661" />
          <path
             style="fill:#000000;fill-rule:evenodd;stroke:#000000;stroke-width:2.25011897px;stroke-linecap:butt;stroke-linejoin:miter;stroke-opacity:1"
             d="M 37.836784,587.55169 C 32.595785,586.53281 32.785033,593.68983 32.649284,597.42669 C 34.345629,609.05102 40.797399,619.39497 46.243034,629.55169 C 49.043675,634.00634 54.575817,640.1585 60.243034,637.77044 C 66.161333,633.34133 66.192492,624.99562 67.930534,618.45794 C 69.314193,608.57828 68.003288,581.69091 66.340306,571.71862 C 55.907502,571.63436 48.273345,587.40509 37.836784,587.55169 z"
             id="path3663"
             sodipodi:nodetypes="ccccccc" />
          <path
             id="path3665"
             d="M 63.418756,573.17348 C 56.230679,573.67855 44.778879,590.12589 37.375645,591.22755 C 32.497792,597.88505 52.357031,637.43381 58.588848,634.66411 C 66.865406,620.52197 67.38664,604.51992 63.418756,573.17348 z"
             style="fill:#e9ddaf;fill-rule:evenodd;stroke:none;stroke-width:1px;stroke-linecap:butt;stroke-linejoin:miter;stroke-opacity:1"
             sodipodi:nodetypes="cccc" />
        </g>
        <g
           inkscape:export-ydpi="90"
           inkscape:export-xdpi="90"
           inkscape:export-filename="E:\Documents\Pictures\SMC_youngheart_drafts\big_furball.png"
           id="g3667"
           transform="matrix(-0.6392459,-8.0298918e-2,0.2020959,-0.4255445,170.01003,1016.4916)"
           clip-path="url(#clipPath3688)">
          <path
             id="path3669"
             d="M 65.154838,592.2377 C 57.966757,592.74277 44.778877,590.12589 37.375643,591.22755 C 32.49779,597.88505 52.357029,637.43381 58.588846,634.66411 C 66.8654,620.52197 64.261699,606.37984 65.154838,592.2377 z"
             style="fill:none;fill-rule:evenodd;stroke:#000000;stroke-width:1.86256325px;stroke-linecap:butt;stroke-linejoin:miter;stroke-opacity:1" />
          <path
             id="path3671"
             d="M 37.836784,587.55169 C 32.595785,586.53281 32.785033,593.68983 32.649284,597.42669 C 34.345629,609.05102 40.797399,619.39497 46.243034,629.55169 C 49.043675,634.00634 54.575817,640.1585 60.243034,637.77044 C 66.161333,633.34133 66.192492,624.99562 67.930534,618.45794 C 69.314193,608.57828 68.350504,598.43023 69.118034,588.45794 C 58.68523,588.37368 48.273345,587.40509 37.836784,587.55169 z"
             style="fill:#000000;fill-rule:evenodd;stroke:#000000;stroke-width:1.86256325px;stroke-linecap:butt;stroke-linejoin:miter;stroke-opacity:1" />
          <path
             style="fill:#e9ddaf;fill-rule:evenodd;stroke:none;stroke-width:1px;stroke-linecap:butt;stroke-linejoin:miter;stroke-opacity:1"
             d="M 65.154836,592.2377 C 57.966759,592.74277 44.778879,590.12589 37.375645,591.22755 C 32.497792,597.88505 52.357031,637.43381 58.588848,634.66411 C 66.865406,620.52197 64.261696,606.37984 65.154836,592.2377 z"
             id="path3673" />
        </g>
        <path
           id="path3677"
           style="fill:#000000;fill-rule:evenodd;stroke:#000000;stroke-width:1px;stroke-linecap:butt;stroke-linejoin:miter;stroke-opacity:1"
           d="M 239.28571,699.50504 C 232.70809,727.88806 256.18752,773.23002 285,773.79075 C 324.23563,774.55432 323.77983,724.76629 316.42857,696.6479 M 242.73214,703.36607 C 240.16805,726.69457 251.30461,750.62115 269.66964,764.74107 C 282.04813,773.11155 301.37182,771.26944 309.16964,757.55357 C 319.14623,740.60892 316.90523,719.36735 313.32589,700.77232 C 289.79464,701.6369 266.26339,702.50149 242.73214,703.36607 z" />
      </g>
      <g
         inkscape:export-ydpi="69.898193"
         inkscape:export-xdpi="69.898193"
         inkscape:export-filename="E:\Documents\Pictures\SMC_youngheart_drafts\big_furball3.png"
         transform="matrix(1,0,0,0.7467315,168.69549,-12.53974)"
         id="g3458">
        <path
           style="fill:none;fill-rule:evenodd;stroke:#000000;stroke-width:1.15722489px;stroke-linecap:butt;stroke-linejoin:miter;stroke-opacity:1"
           d="M 65.154838,592.2377 C 57.966757,592.74277 44.778877,590.12589 37.375643,591.22755 C 32.49779,597.88505 52.357029,637.43381 58.588846,634.66411 C 66.8654,620.52197 64.261699,606.37984 65.154838,592.2377 z"
           id="path3454" />
        <path
           style="fill:#000000;fill-rule:evenodd;stroke:#000000;stroke-width:1.15722489px;stroke-linecap:butt;stroke-linejoin:miter;stroke-opacity:1"
           d="M 37.836784,587.55169 C 32.595785,586.53281 32.785033,593.68983 32.649284,597.42669 C 34.345629,609.05102 40.797399,619.39497 46.243034,629.55169 C 49.043675,634.00634 54.575817,640.1585 60.243034,637.77044 C 66.161333,633.34133 66.192492,624.99562 67.930534,618.45794 C 69.314193,608.57828 68.350504,598.43023 69.118034,588.45794 C 58.68523,588.37368 48.273345,587.40509 37.836784,587.55169 z"
           id="path3388" />
        <path
           id="path3456"
           d="M 65.154836,592.2377 C 57.966759,592.74277 44.778879,590.12589 37.375645,591.22755 C 32.497792,597.88505 52.357031,637.43381 58.588848,634.66411 C 66.865406,620.52197 64.261696,606.37984 65.154836,592.2377 z"
           style="fill:#e9ddaf;fill-rule:evenodd;stroke:none;stroke-width:1px;stroke-linecap:butt;stroke-linejoin:miter;stroke-opacity:1" />
      </g>
      <g
         inkscape:export-ydpi="69.898193"
         inkscape:export-xdpi="69.898193"
         inkscape:export-filename="E:\Documents\Pictures\SMC_youngheart_drafts\big_furball3.png"
         id="g3463"
         transform="matrix(-0.9530248,0.1136298,0.3012962,0.6021817,154.76039,68.332265)">
        <path
           id="path3465"
           d="M 65.154838,592.2377 C 57.966757,592.74277 44.778877,590.12589 37.375643,591.22755 C 32.49779,597.88505 52.357029,637.43381 58.588846,634.66411 C 66.8654,620.52197 64.261699,606.37984 65.154838,592.2377 z"
           style="fill:none;fill-rule:evenodd;stroke:#000000;stroke-width:1.2823354px;stroke-linecap:butt;stroke-linejoin:miter;stroke-opacity:1" />
        <path
           id="path3467"
           d="M 37.836784,587.55169 C 32.595785,586.53281 32.785033,593.68983 32.649284,597.42669 C 34.345629,609.05102 40.797399,619.39497 46.243034,629.55169 C 49.043675,634.00634 54.575817,640.1585 60.243034,637.77044 C 66.161333,633.34133 66.192492,624.99562 67.930534,618.45794 C 69.314193,608.57828 68.350504,598.43023 69.118034,588.45794 C 58.68523,588.37368 48.273345,587.40509 37.836784,587.55169 z"
           style="fill:#000000;fill-rule:evenodd;stroke:#000000;stroke-width:1.2823354px;stroke-linecap:butt;stroke-linejoin:miter;stroke-opacity:1" />
        <path
           style="fill:#e9ddaf;fill-rule:evenodd;stroke:none;stroke-width:1px;stroke-linecap:butt;stroke-linejoin:miter;stroke-opacity:1"
           d="M 65.154836,592.2377 C 57.966759,592.74277 44.778879,590.12589 37.375645,591.22755 C 32.497792,597.88505 52.357031,637.43381 58.588848,634.66411 C 66.865406,620.52197 64.261696,606.37984 65.154836,592.2377 z"
           id="path3469" />
      </g>
      <g
         id="g4183">
        <path
           style="fill:url(#linearGradient4181);fill-opacity:1;fill-rule:evenodd;stroke:none;stroke-width:0.99999994000000003px;stroke-linecap:butt;stroke-linejoin:miter;stroke-opacity:1"
           d="M 314.96199,416.6722 C 306.6255,406.44969 192.85648,405.0805 184.2118,416.6722 C 179.60773,422.20298 183.79206,441.20487 189.92609,449.15781 C 191.48972,447.17379 187.95145,442.64821 189.49105,440.64457 C 190.11522,439.83226 198.55013,446.69 200.60546,446.61647 C 198.88991,442.66489 192.24184,434.72458 203.62007,434.95562 C 198.68653,438.14231 210.37059,439.89028 212.1915,442.28895 C 214.28339,437.74935 210.475,429.92655 214.45691,428.91501 C 218.3763,430.8296 223.10157,429.48772 225.17119,436.58167 C 229.03142,433.629 226.56793,427.04702 235.96471,425.84411 C 236.35643,427.6611 238.07178,431.1754 247.10484,433.88454 C 242.48272,426.44239 251.15955,424.27633 257.81913,432.21788 C 259.60485,427.77343 265.43818,426.10678 270.67627,432.55121 C 272.81887,426.9581 277.12365,425.7374 282.10484,425.88455 C 281.38994,429.03279 282.47723,430.0118 289.96199,431.88455 C 288.1631,429.35764 287.19736,426.88627 291.97628,424.79788 C 294.94297,426.15945 297.29893,431.94164 297.43047,435.06731 L 300.67627,429.25849 C 306.25864,429.47733 307.26464,433.43354 309.2477,436.59182 C 315.01569,431.92516 314.71218,421.33887 314.96199,416.6722 z"
           id="path3376"
           sodipodi:nodetypes="cccscccccccccccccccc"
           inkscape:export-filename="E:\Documents\Pictures\SMC_youngheart_drafts\big_furball3.png"
           inkscape:export-xdpi="69.898193"
           inkscape:export-ydpi="69.898193" />
        <path
           id="path3392"
           style="fill:#000000;fill-opacity:1;fill-rule:evenodd;stroke:#000000;stroke-width:0.99999994px;stroke-linecap:butt;stroke-linejoin:miter;stroke-opacity:1"
           d="M 318.82571,413.16203 C 319.06329,405.91557 314.95926,412.51061 314.70945,417.17728 C 314.45964,421.84395 314.76315,432.43024 308.99516,437.0969 C 307.0121,433.93862 306.0061,429.98241 300.42373,429.76357 L 297.17793,435.57239 C 297.04639,432.44672 294.69043,426.66453 291.72374,425.30296 C 286.94482,427.39135 287.91056,429.86272 289.70945,432.38963 C 282.22469,430.51688 281.1374,429.53787 281.8523,426.38963 C 276.87111,426.24248 272.56633,427.46318 270.42373,433.05629 C 265.18564,426.61186 259.35231,428.27851 257.56659,432.72296 C 250.90701,424.78141 242.23018,426.94747 246.8523,434.38962 C 237.81924,431.68048 236.10389,428.16618 235.71217,426.34919 C 226.31539,427.5521 228.77888,434.13408 224.91865,437.08675 C 222.84903,429.9928 218.12376,431.33468 214.20437,429.42009 C 210.22246,430.43163 214.03085,438.25443 211.93896,442.79403 C 210.11805,440.39536 198.43399,438.64739 203.36753,435.4607 C 191.9893,435.22966 198.63737,443.16997 200.35292,447.12155 C 198.29759,447.19508 189.86268,440.33734 189.23851,441.14965 C 187.69891,443.15329 191.23718,447.67887 189.67355,449.66289 C 183.53952,441.70995 179.35519,422.70806 183.95926,417.17728 C 187.27576,414.43624 186.31226,408.7561 181.82571,413.16203 C 174.69023,423.30731 178.94855,435.5797 182.97725,445.92771 C 184.74861,449.05131 187.18507,455.52188 190.38072,455.38054 C 194.18784,453.89937 192.53881,446.02536 196.85976,450.10338 C 200.35707,451.91553 209.67807,453.57663 205.01579,447.27349 C 203.47936,444.90219 201.7428,441.32862 205.90443,443.98157 C 209.30955,444.19645 211.9977,449.92443 213.5476,449.29156 C 217.13778,445.21523 215.97832,437.78044 217.08669,434.28351 C 222.08784,434.78859 221.04929,445.83801 227.1115,440.85569 C 230.92578,438.7608 231.39234,426.99059 236.22935,433.70559 C 241.37685,437.78348 248.09591,438.58966 254.10696,440.75578 C 254.79582,437.76351 249.72159,433.12928 251.08384,432.39651 C 254.67197,433.98332 257.72619,440.25042 259.81786,440.88131 C 258.37007,436.47401 263.27864,429.35648 266.77912,435.32053 C 269.35624,439.57625 274.64555,438.24605 274.78281,433.22389 C 278.20399,427.17208 281.69316,436.61919 286.63829,435.6635 C 291.53383,435.78314 294.94612,438.45632 293.43729,443.57998 C 293.79172,450.72228 299.7447,440.84538 300.11595,438.0497 C 300.92381,434.46656 303.75728,433.99513 304.66122,437.86436 C 307.27078,444.90362 314.18463,439.50432 315.70106,434.73884 C 318.90837,428.03149 318.58813,420.40849 318.82571,413.16203 z"
           sodipodi:nodetypes="cccccccccccccccccsccccccccccccccccccccccc"
           inkscape:export-filename="E:\Documents\Pictures\SMC_youngheart_drafts\big_furball3.png"
           inkscape:export-xdpi="69.898193"
           inkscape:export-ydpi="69.898193" />
      </g>
      <g
         transform="translate(0,2)"
         inkscape:export-ydpi="69.898193"
         inkscape:export-xdpi="69.898193"
         inkscape:export-filename="E:\Documents\Pictures\SMC_youngheart_drafts\big_furball3.png"
         id="g3593">
        <path
           inkscape:export-ydpi="69.930099"
           inkscape:export-xdpi="69.930099"
           inkscape:export-filename="E:\Documents\Pictures\SMC_youngheart_drafts\big_furball2.png"
           transform="matrix(0.7811336,0,0,0.7811336,235.1598,130.0152)"
           d="M 80,263.79074 A 30,30 0 1 1 20,263.79074 A 30,30 0 1 1 80,263.79074 z"
           sodipodi:ry="30"
           sodipodi:rx="30"
           sodipodi:cy="263.79074"
           sodipodi:cx="50"
           id="path3324"
           style="opacity:1;fill:#ffffff;fill-opacity:1;stroke:#000000;stroke-width:3.84057212;stroke-linecap:square;stroke-miterlimit:4;stroke-dasharray:none;stroke-opacity:1"
           sodipodi:type="arc" />
        <path
           inkscape:export-ydpi="69.930099"
           inkscape:export-xdpi="69.930099"
           inkscape:export-filename="E:\Documents\Pictures\SMC_youngheart_drafts\big_furball2.png"
           sodipodi:type="arc"
           style="opacity:1;fill:#000000;fill-opacity:1;stroke:#000000;stroke-width:7.16906786;stroke-linecap:square;stroke-miterlimit:4;stroke-dasharray:none;stroke-opacity:1"
           id="path3326"
           sodipodi:cx="50"
           sodipodi:cy="263.79074"
           sodipodi:rx="30"
           sodipodi:ry="30"
           d="M 80,263.79074 A 30,30 0 1 1 20,263.79074 A 30,30 0 1 1 80,263.79074 z"
           transform="matrix(0.4184644,0,0,0.4184644,247.9927,233.21634)" />
        <path
           inkscape:export-ydpi="69.930099"
           inkscape:export-xdpi="69.930099"
           inkscape:export-filename="E:\Documents\Pictures\SMC_youngheart_drafts\big_furball2.png"
           transform="matrix(0.1441377,0,0,0.1162401,259.89569,303.87358)"
           d="M 80,263.79074 A 30,30 0 1 1 20,263.79074 A 30,30 0 1 1 80,263.79074 z"
           sodipodi:ry="30"
           sodipodi:rx="30"
           sodipodi:cy="263.79074"
           sodipodi:cx="50"
           id="path3328"
           style="opacity:0.74519228;fill:#ffffff;fill-opacity:1;stroke:none;stroke-width:12.49117565;stroke-linecap:square;stroke-miterlimit:4;stroke-dasharray:none;stroke-opacity:1;filter:url(#filter3347)"
           sodipodi:type="arc" />
      </g>
      <g
         inkscape:export-ydpi="69.898193"
         inkscape:export-xdpi="69.898193"
         inkscape:export-filename="E:\Documents\Pictures\SMC_youngheart_drafts\big_furball3.png"
         transform="matrix(-1,0,0,1,473.70989,2)"
         id="g3605">
        <path
           style="fill:#553e28;fill-opacity:1;fill-rule:evenodd;stroke:#000000;stroke-width:0.99999994px;stroke-linecap:butt;stroke-linejoin:miter;stroke-opacity:1"
           d="M 188.77422,315.25994 C 192.59622,317.10175 191.02521,318.5974 195.1566,319.56257 C 198.34859,320.30828 198.21116,318.71119 201.40315,319.4569 C 206.41985,320.6289 202.78362,323.34766 207.62461,325.10993 C 210.9577,326.32328 209.68808,328.32386 213.14443,329.12086 C 216.79705,329.96312 217.73046,329.14595 220.87723,333.58442 C 222.83682,336.3484 222.30284,332.25944 225.64261,332.82997 C 228.10591,333.25077 230.40806,332.94409 232.79948,332.21884 C 236.04181,331.23553 231.83587,330.38559 234.69807,328.57248 C 236.87033,327.19642 238.26849,328.63422 240.30839,327.06865 C 242.17911,323.27831 234.73021,318.47272 231.20253,317.48262 C 228.61656,317.35291 229.46829,312.94994 226.9501,312.34759 C 224.23281,311.69762 224.48192,311.7509 221.84019,310.84133 C 220.09725,310.24122 220.06959,307.58188 218.40254,306.79517 C 215.93599,305.63116 213.76873,307.41938 211.40659,306.0559 C 209.04446,304.69241 211.14477,301.95521 208.86165,300.46319 C 206.56448,298.96198 203.97927,297.614 201.6821,296.11279 C 199.39899,294.62076 199.2947,290.66703 196.79345,289.5796 C 193.08557,287.96757 189.84647,291.43311 186.13859,289.82109 C 183.91526,288.85448 179.27929,289.68136 178.33293,291.91339 C 177.84519,293.06375 178.31969,294.17544 177.65398,295.23282 C 170.18303,298.05594 174.53932,295.54628 174.44022,300.80043 C 173.75081,303.75143 172.63892,301.41789 172.54164,304.44679 C 172.43641,307.72304 178.5149,305.21287 179.59042,308.30934 C 180.92813,312.1607 179.30413,310.05918 181.9392,313.17027 C 185.90029,317.84691 183.25312,312.59934 188.77422,315.25994 z"
           id="path3607"
           sodipodi:nodetypes="cssssssssccsssssssssccssss" />
        <path
           d="M 188.77422,315.25994 C 192.59622,317.10175 191.02521,318.5974 195.1566,319.56257 C 198.34859,320.30828 198.21116,318.71119 201.40315,319.4569 C 206.41985,320.6289 202.78362,323.34766 207.62461,325.10993 C 210.9577,326.32328 209.68808,328.32386 213.14443,329.12086 C 216.79705,329.96312 217.73046,329.14595 220.87723,333.58442 C 222.83682,336.3484 222.30284,332.25944 225.64261,332.82997 C 228.10591,333.25077 230.40806,332.94409 232.79948,332.21884 C 236.04181,331.23553 231.83587,330.38559 234.69807,328.57248 C 236.87033,327.19642 238.26849,328.63422 240.30839,327.06865 C 242.17911,323.27831 234.73021,318.47272 231.20253,317.48262 C 228.61656,317.35291 229.46829,312.94994 226.9501,312.34759 C 224.23281,311.69762 224.48192,311.7509 221.84019,310.84133 C 220.09725,310.24122 220.06959,307.58188 218.40254,306.79517 C 215.93599,305.63116 213.76873,307.41938 211.40659,306.0559 C 209.04446,304.69241 211.14477,301.95521 208.86165,300.46319 C 206.56448,298.96198 203.97927,297.614 201.6821,296.11279 C 199.39899,294.62076 199.2947,290.66703 196.79345,289.5796 C 193.08557,287.96757 189.84647,291.43311 186.13859,289.82109 C 183.91526,288.85448 179.27929,289.68136 178.33293,291.91339 C 177.84519,293.06375 178.31969,294.17544 177.65398,295.23282 C 170.18303,298.05594 174.53932,295.54628 174.44022,300.80043 C 173.75081,303.75143 172.63892,301.41789 172.54164,304.44679 C 172.43641,307.72304 178.5149,305.21287 179.59042,308.30934 C 180.92813,312.1607 179.30413,310.05918 181.9392,313.17027 C 185.90029,317.84691 183.25312,312.59934 188.77422,315.25994 z M 180.04926,285.88638 C 175.63605,286.44923 175.07761,292.17801 171.0859,293.57227 C 168.60619,296.51055 170.40364,300.88109 168.40205,304.07561 C 168.07507,308.66106 172.6934,310.25014 176.11327,310.9489 C 177.63727,314.13367 178.92105,318.3277 183.11309,318.77163 C 187.95808,318.10203 190.46243,322.98222 194.9348,323.66537 C 197.94435,324.12515 201.49289,322.16138 202.6607,326.26053 C 204.9287,329.00324 208.30769,330.61139 211.34187,332.5905 C 214.78749,333.40569 217.20103,334.97145 219.49423,337.60443 C 222.50505,339.95881 225.35597,336.40679 228.58808,336.91442 C 231.71995,336.76897 235.83907,336.55159 237.30938,333.25634 C 239.5977,330.6168 245.44743,330.98107 244.50896,326.05968 C 244.46586,321.14194 240.33219,317.49065 236.30884,315.33659 C 232.52391,314.80239 232.27972,309.6244 228.46978,308.91366 C 224.07642,308.3422 222.62996,303.33527 218.38628,302.8746 C 214.49364,303.33001 213.66094,299.8727 211.64379,297.67448 C 208.53134,295.08337 203.48197,294.05659 202.42844,289.5936 C 199.7463,284.97869 193.33709,284.12393 188.76386,286.17104 C 185.87242,286.00278 182.88328,284.66693 180.04926,285.88638 z"
           style="fill:#000000;fill-rule:evenodd;stroke:#000000;stroke-width:0.99999994px;stroke-linecap:butt;stroke-linejoin:miter;stroke-opacity:1"
           id="path3609" />
        <path
           transform="matrix(0.9659015,-0.2589096,0.2589096,0.9659015,-51.569601,-263.9388)"
           sodipodi:type="inkscape:offset"
           inkscape:radius="-2.688102"
           inkscape:original="M 81.65625 595.5 C 80.059601 595.4498 78.527242 595.8258 77.78125 596.78125 C 77.012299 597.76609 77.198028 598.96353 76.28125 599.8125 C 68.334108 600.60505 73.174823 599.32566 71.71875 604.375 C 70.288803 607.04685 69.815679 604.47457 68.9375 607.375 C 67.987606 610.51227 74.512865 609.66815 74.75 612.9375 C 75.044945 617.00391 74.010274 614.56275 75.75 618.25 C 78.365188 623.79272 77.168521 618.03191 81.8125 622.03125 C 85.02732 624.79984 83.13437 625.84183 86.875 627.84375 C 89.765081 629.39047 90.047422 627.82828 92.9375 629.375 C 97.479689 631.80593 93.249097 633.48194 97.46875 636.4375 C 100.37404 638.47243 98.649104 640.08529 101.78125 641.75 C 105.09125 643.50924 106.20345 642.96065 108.09375 648.0625 C 109.2709 651.23956 109.79682 647.14673 112.875 648.5625 C 115.14535 649.60671 117.4711 649.89386 119.96875 649.8125 C 123.35511 649.70217 119.48471 647.79149 122.71875 646.78125 C 125.17321 646.01451 126.15556 647.76529 128.53125 646.78125 C 131.31952 643.6045 125.36979 637.02594 122.21875 635.15625 C 119.75454 634.36143 121.71387 630.32754 119.4375 629.09375 C 116.98115 627.76239 117.22241 627.90628 114.90625 626.34375 C 113.37812 625.31287 114.03152 622.72275 112.625 621.53125 C 110.54393 619.76834 107.99107 620.92857 106.0625 619 C 104.13393 617.07146 106.88147 614.96977 105.0625 612.9375 C 103.23234 610.89274 101.08016 608.91978 99.25 606.875 C 97.431029 604.84275 98.353165 601.01045 96.21875 599.3125 C 93.054673 596.79543 89.039074 599.29831 85.875 596.78125 C 84.92637 596.0266 83.252899 595.5502 81.65625 595.5 z "
           style="fill:#84613f;fill-opacity:1;fill-rule:evenodd;stroke:none;stroke-width:1px;stroke-linecap:butt;stroke-linejoin:miter;stroke-opacity:1;filter:url(#filter3300)"
           id="path3611"
           d="M 81.5625,598.1875 C 80.441241,598.15225 79.763883,598.61984 79.90625,598.4375 C 79.911611,598.43063 79.842333,598.55752 79.65625,599.15625 C 79.470167,599.75498 79.080818,600.86719 78.09375,601.78125 C 77.673967,602.17935 77.136958,602.43142 76.5625,602.5 C 75.57953,602.59803 75.319173,602.60502 74.6875,602.65625 C 74.673168,603.39426 74.573702,604.21921 74.3125,605.125 C 74.258769,605.30939 74.185434,605.48749 74.09375,605.65625 C 73.652614,606.48051 73.16013,607.13404 72.46875,607.65625 C 73.205831,607.93434 74.137649,608.23318 75.125,608.90625 C 76.159342,609.61135 77.313263,611.03716 77.4375,612.75 C 77.518036,613.86035 77.507702,614.60566 77.46875,615.15625 C 77.447346,615.4588 77.450995,615.39267 77.4375,615.5 C 77.555271,615.76481 77.779931,616.22993 78.1875,617.09375 C 78.5103,617.7779 78.438901,617.65679 78.59375,617.90625 C 78.975298,617.86712 79.360066,617.79613 79.78125,617.875 C 81.067332,618.11583 82.202965,618.82918 83.5625,620 C 85.493944,621.66335 86.277138,623.40904 86.59375,624.09375 C 86.910362,624.77846 86.623324,624.64835 88.15625,625.46875 C 89.237231,626.04727 89.113145,625.91012 89.90625,625.90625 C 90.699355,625.90238 92.409652,626.0318 94.21875,627 C 95.620656,627.75028 96.672872,628.64934 97.3125,629.78125 C 97.952128,630.91316 97.980009,632.04398 98,632.625 C 98.019991,633.20602 98.06111,633.2693 98.09375,633.34375 C 98.12639,633.4182 98.215746,633.70069 99,634.25 C 100.93073,635.60233 101.76808,637.49326 102.0625,638.28125 C 102.35692,639.06924 101.96345,638.80747 103.03125,639.375 C 104.47382,640.14172 105.66815,640.40028 107.125,641.53125 C 108.31381,642.45414 109.1883,643.93107 110.03125,645.875 C 110.15073,645.83336 110.15018,645.78534 110.28125,645.75 C 111.34295,645.46373 112.75735,645.55346 114,646.125 C 115.50581,646.81757 117.0817,647.02817 118.84375,647.0625 C 118.89264,646.88427 118.85271,646.75152 118.9375,646.5625 C 119.50959,645.28713 120.7219,644.58872 121.90625,644.21875 C 123.78674,643.63131 125.51033,644.04331 126.3125,644.25 C 126.41776,644.27712 126.39318,644.22832 126.46875,644.25 C 126.33222,643.68977 125.9727,642.85605 125.375,641.96875 C 124.10023,640.07633 121.86793,638.07645 120.84375,637.46875 L 120.875,637.40625 C 119.79794,636.85565 118.90548,635.91152 118.5625,635.03125 C 118.16079,634.00024 118.14672,633.15067 118.09375,632.5 C 118.04337,631.88115 117.94854,631.47348 117.90625,631.3125 C 115.81951,630.18044 115.59192,630.037 113.40625,628.5625 C 111.62967,627.36401 111.30501,625.52322 111.09375,624.5625 C 110.88249,623.60178 110.68861,623.43586 110.875,623.59375 C 110.47002,623.25069 110.05027,623.17677 108.875,623 C 107.69973,622.82323 105.73046,622.48046 104.15625,620.90625 C 103.27582,620.02584 102.74256,618.77641 102.65625,617.75 C 102.56994,616.72359 102.79511,615.95673 102.90625,615.4375 C 103.00904,614.95729 103.02803,614.74454 103.03125,614.6875 C 101.33075,612.7921 99.195236,610.8296 97.25,608.65625 C 95.629963,606.84626 95.471947,604.83668 95.21875,603.46875 C 94.965553,602.10082 94.679798,601.52442 94.53125,601.40625 C 93.722485,600.76287 92.826167,600.75355 91.03125,600.75 C 89.236333,600.74645 86.542813,600.74868 84.1875,598.875 C 84.012871,598.73608 82.6842,598.22277 81.5625,598.1875 z" />
      </g>
    </g>
  </g>
</svg>
