<?xml version="1.0" encoding="UTF-8" standalone="no"?>
<!-- Created with Inkscape (http://www.inkscape.org/) -->
<svg
   xmlns:dc="http://purl.org/dc/elements/1.1/"
   xmlns:cc="http://creativecommons.org/ns#"
   xmlns:rdf="http://www.w3.org/1999/02/22-rdf-syntax-ns#"
   xmlns:svg="http://www.w3.org/2000/svg"
   xmlns="http://www.w3.org/2000/svg"
   xmlns:xlink="http://www.w3.org/1999/xlink"
   xmlns:sodipodi="http://sodipodi.sourceforge.net/DTD/sodipodi-0.dtd"
   xmlns:inkscape="http://www.inkscape.org/namespaces/inkscape"
   width="744.09448819"
   height="1052.3622047"
   id="svg2"
   sodipodi:version="0.32"
   inkscape:version="0.46"
   sodipodi:docname="9.svg"
   inkscape:output_extension="org.inkscape.output.svg.inkscape"
   inkscape:export-filename="E:\Documents\Pictures\SMC_youngheart_drafts\big_furball\big_furball_fr09.png"
   inkscape:export-xdpi="51.450001"
   inkscape:export-ydpi="51.450001">
  <defs
     id="defs4">
    <linearGradient
       inkscape:collect="always"
       id="linearGradient3579">
      <stop
         style="stop-color:#ebb35a;stop-opacity:1;"
         offset="0"
         id="stop3581" />
      <stop
         style="stop-color:#ebb35a;stop-opacity:0;"
         offset="1"
         id="stop3583" />
    </linearGradient>
    <linearGradient
       id="linearGradient3717">
      <stop
         style="stop-color:#957028;stop-opacity:1;"
         offset="0"
         id="stop3719" />
      <stop
         style="stop-color:#ca9d58;stop-opacity:1;"
         offset="1"
         id="stop3721" />
    </linearGradient>
    <linearGradient
       id="linearGradient3651">
      <stop
         id="stop3653"
         offset="0"
         style="stop-color:#cb9e9e;stop-opacity:1;" />
      <stop
         id="stop3655"
         offset="1"
         style="stop-color:#997171;stop-opacity:1;" />
    </linearGradient>
    <linearGradient
       id="linearGradient3639">
      <stop
         style="stop-color:#bc8383;stop-opacity:1;"
         offset="0"
         id="stop3641" />
      <stop
         style="stop-color:#715151;stop-opacity:1;"
         offset="1"
         id="stop3643" />
    </linearGradient>
    <linearGradient
       id="linearGradient3620">
      <stop
         id="stop3622"
         offset="0"
         style="stop-color:#7b5134;stop-opacity:1;" />
      <stop
         style="stop-color:#7e5336;stop-opacity:1;"
         offset="0.25638169"
         id="stop3624" />
      <stop
         id="stop3626"
         offset="1"
         style="stop-color:#4f3422;stop-opacity:1;" />
    </linearGradient>
    <filter
       inkscape:collect="always"
       id="filter3347">
      <feGaussianBlur
         inkscape:collect="always"
         stdDeviation="1.7079448"
         id="feGaussianBlur3349" />
    </filter>
    <filter
       inkscape:collect="always"
       id="filter3300">
      <feGaussianBlur
         inkscape:collect="always"
         stdDeviation="0.73920251"
         id="feGaussianBlur3302" />
    </filter>
    <filter
       inkscape:collect="always"
       id="filter3427">
      <feGaussianBlur
         inkscape:collect="always"
         stdDeviation="0.82282159"
         id="feGaussianBlur3429" />
    </filter>
    <clipPath
       clipPathUnits="userSpaceOnUse"
       id="clipPath3688">
      <path
         style="fill:#000000;fill-rule:evenodd;stroke:#000000;stroke-width:0.99999994px;stroke-linecap:butt;stroke-linejoin:miter;stroke-opacity:1"
         d="M 119.9692,722.25857 C 109.78025,657.48307 43.328936,563.47177 0.40067704,570.25452 C -58.057224,579.49101 -22.477975,689.77573 8.0882923,750.08423"
         id="path3690" />
    </clipPath>
    <clipPath
       clipPathUnits="userSpaceOnUse"
       id="clipPath3692">
      <path
         style="fill:#000000;fill-rule:evenodd;stroke:#000000;stroke-width:1px;stroke-linecap:butt;stroke-linejoin:miter;stroke-opacity:1"
         d="M 179.58732,747.36085 C 192.3769,673.45447 146.72328,555.38881 90.700026,553.92873 C 14.409901,551.94047 15.296163,681.58323 29.590021,754.80054"
         id="path3694" />
    </clipPath>
    <filter
       inkscape:collect="always"
       id="filter3667">
      <feGaussianBlur
         inkscape:collect="always"
         stdDeviation="13.606499"
         id="feGaussianBlur3669" />
    </filter>
    <linearGradient
       inkscape:collect="always"
       xlink:href="#linearGradient3620"
       id="linearGradient3827"
       gradientUnits="userSpaceOnUse"
       x1="233.54213"
       y1="695.64374"
       x2="252.10791"
       y2="712.31744" />
    <linearGradient
       inkscape:collect="always"
       xlink:href="#linearGradient3620"
       id="linearGradient3867"
       gradientUnits="userSpaceOnUse"
       x1="233.54213"
       y1="695.64374"
       x2="252.10791"
       y2="712.31744" />
    <linearGradient
       inkscape:collect="always"
       xlink:href="#linearGradient3639"
       id="linearGradient8692"
       gradientUnits="userSpaceOnUse"
       x1="262.85715"
       y1="760.2193"
       x2="312.14285"
       y2="700.22101" />
    <linearGradient
       inkscape:collect="always"
       xlink:href="#linearGradient3651"
       id="linearGradient8694"
       gradientUnits="userSpaceOnUse"
       gradientTransform="matrix(0.3040894,0.4650032,-0.9526435,0.1484318,912.58641,513.41852)"
       x1="282.33636"
       y1="747.31744"
       x2="247.77011"
       y2="702.17926" />
    <linearGradient
       inkscape:collect="always"
       xlink:href="#linearGradient3717"
       id="linearGradient3547"
       gradientUnits="userSpaceOnUse"
       gradientTransform="translate(0,5)"
       x1="361.26245"
       y1="609.95538"
       x2="285.84045"
       y2="341.38577" />
    <clipPath
       clipPathUnits="userSpaceOnUse"
       id="clipPath3573">
      <path
         inkscape:export-ydpi="69.898193"
         inkscape:export-xdpi="69.898193"
         inkscape:export-filename="E:\Documents\Pictures\SMC_youngheart_drafts\big_furball3.png"
         sodipodi:nodetypes="cccccccccccccccccccccccccccccccscccccccccccccsccccccccccc"
         id="path3575"
         d="M -130.71429,209.50504 C -174.61348,210.45436 -218.27174,224.75019 -255.39738,247.97978 C -286.84451,269.14021 -311.15209,300.02542 -324.31774,335.58887 C -332.52306,352.42798 -341.18917,367.66834 -343.57143,388.79074 C -340.3732,379.76253 -337.24864,370.5501 -331.42857,368.07648 C -336.12967,376.29334 -339.42109,387.32954 -341.42857,400.93362 C -335.73743,388.67682 -327.31479,381.73126 -332.17511,395.25091 C -337.04221,403.81802 -339.1793,417.84514 -341.42857,431.64789 C -336.73924,421.73299 -329.16835,409.46338 -332.97411,426.57071 C -335.29888,443.67938 -337.31108,460.80131 -335.71429,478.07648 C -334.04763,469.8118 -332.38096,456.94298 -330.71429,455.93362 C -325.06382,468.31458 -333.55231,484.73614 -333.95395,497.11709 C -328.9155,487.16804 -324.65822,483.14011 -326.66615,494.41981 C -331.81419,505.81998 -329.82298,519.00497 -330,531.64789 C -327.85714,523.55265 -325.71428,515.45742 -323.57143,507.36218 C -320.0431,521.17171 -328.71722,534.98124 -329.9641,548.79077 C -328.54051,543.3073 -321.38959,527.70518 -324.14237,541.50242 C -321.67009,549.78995 -326.88628,559.99961 -329.28571,569.50507 C -325.23809,562.8384 -321.19047,556.17173 -317.14285,549.50507 C -321.29112,561.00236 -321.19481,574.62194 -320,588.79077 C -317.64375,581.19173 -316.21472,561.66678 -313.22515,571.62617 C -311.18802,587.44252 -306.70924,597.15473 -299.28571,599.50507 C -297.42109,572.86535 -295.51229,606.91512 -290.0064,614.45538 C -287.76642,597.73229 -283.14484,599.00253 -279.77351,586.24945 C -264.48062,633.60966 -268.03759,607.61253 -265.15786,588.90007 C -261.04295,596.4894 -248.00633,589.26679 -244.86258,605.79791 C -234.39437,583.09488 -234.37063,580.01338 -220.58648,603.11671 C -210.57201,575.28691 -205.4433,587.13149 -194.89476,604.7881 C -196.693,587.09177 -176.40847,606.75238 -169.33647,610.95636 C -161.92419,596.776 -158.9427,591.41228 -147.82411,607.08888 C -142.31077,596.30537 -120.68618,584.83308 -128.90582,608.71634 C -120.58475,604.45708 -116.60066,584.02694 -112.26071,611.56459 C -111.06047,619.18028 -102.97347,581.55554 -98.31963,588.32198 C -96.5876,596.38612 -93.87673,603.89092 -82.85715,606.64789 C -92.57947,585.25915 -76.04831,590.89195 -68.03046,588.40821 C -67.09407,594.8368 -74.67449,602.78062 -63.5863,609.20921 C -58.91981,589.05853 -51.6378,586.26485 -38.95395,609.38249 C -39.12204,601.40195 -29.76923,592.16331 -24.86465,610.92738 C -18.76065,610.03941 -16.20101,587.801 -9.83263,609.26717 C -2.06861,597.88892 3.82627,596.4353 14.90283,602.65129 C 3.09203,571.57882 36.94906,571.26953 38.93818,602.0094 C 38.95449,587.03164 54.39397,567.40159 64.32635,581.51288 C 64.94241,569.14678 59.3078,559.71172 65.71429,558.07648 C 80.59111,583.90597 68.51097,544.06341 68.012,535.24444 C 64.26382,519.11897 66.19179,524.52696 74.28571,532.36218 C 68.63417,522.19976 60.99281,484.06823 79.10449,521.17568 C 82.03581,527.1814 65.83034,473.72402 82.87127,502.63863 C 84.45048,493.94481 72.9841,462.18772 86.56599,475.53007 C 81.27032,463.09155 76.66276,448.31068 77.85712,442.36218 C 86.85502,452.02617 87.13069,449.93693 88.71562,445.84169 C 81.63841,421.8082 78.25007,416.35739 77.76786,415.62111 C 69.59466,403.45019 77.78371,402.25854 88.09745,417.22611 C 87.00131,401.08078 76.82505,394.25149 74.91536,386.42078 C 66.59237,374.77388 74.65092,379.19865 86.11889,387.53362 C 77.09356,339.183 46.51496,302.60553 15.73386,266.36783 C -12.09152,237.47863 -52.77312,226.64215 -90.09166,215.77461 C -103.41184,212.55069 -116.97651,209.88226 -130.71429,209.50504 z"
         style="opacity:1;fill:url(#linearGradient3577);fill-opacity:1;fill-rule:evenodd;stroke:#000000;stroke-width:1px;stroke-linecap:butt;stroke-linejoin:miter;stroke-opacity:1" />
    </clipPath>
    <linearGradient
       inkscape:collect="always"
       xlink:href="#linearGradient3717"
       id="linearGradient3577"
       gradientUnits="userSpaceOnUse"
       gradientTransform="translate(-500,5)"
       x1="361.26245"
       y1="609.95538"
       x2="285.84045"
       y2="341.38577" />
    <linearGradient
       inkscape:collect="always"
       xlink:href="#linearGradient3579"
       id="linearGradient3585"
       x1="227.11073"
       y1="429.0752"
       x2="227.11073"
       y2="421.61737"
       gradientUnits="userSpaceOnUse" />
  </defs>
  <sodipodi:namedview
     id="base"
     pagecolor="#000000"
     bordercolor="#666666"
     borderopacity="1.0"
     gridtolerance="10000"
     guidetolerance="10"
     objecttolerance="10"
     inkscape:pageopacity="0"
     inkscape:pageshadow="2"
     inkscape:zoom="0.49497475"
     inkscape:cx="474.40323"
     inkscape:cy="615.97335"
     inkscape:document-units="px"
     inkscape:current-layer="layer1"
     showgrid="false"
     showguides="true"
     inkscape:guide-bbox="true"
     inkscape:window-width="1152"
     inkscape:window-height="808"
     inkscape:window-x="66"
     inkscape:window-y="90" />
  <metadata
     id="metadata7">
    <rdf:RDF>
      <cc:Work
         rdf:about="">
        <dc:format>image/svg+xml</dc:format>
        <dc:type
           rdf:resource="http://purl.org/dc/dcmitype/StillImage" />
      </cc:Work>
    </rdf:RDF>
  </metadata>
  <g
     inkscape:label="Layer 1"
     inkscape:groupmode="layer"
     id="layer1">
    <g
       transform="matrix(1.2300594,0,0,1.1494838,76.94668,-86.184081)"
       id="g3789"
       inkscape:export-filename="E:\Documents\Pictures\SMC_youngheart_drafts\big_furball\big_furball_fr09.png"
       inkscape:export-xdpi="102.9"
       inkscape:export-ydpi="102.9"
       style="opacity:1">
      <g
         id="g3791"
         transform="translate(-6.2193619,-174.5113)">
        <path
           style="fill:#442612;fill-opacity:1;fill-rule:evenodd;stroke:#000000;stroke-width:0.84097970000000000px;stroke-linecap:butt;stroke-linejoin:miter;stroke-opacity:1"
           d="M 287.57016,764.8518 C 280.76921,764.85732 275.49035,770.47173 270.76436,774.70564 C 267.97234,777.38498 266.93003,782.12725 271.0706,784.13615 C 277.93494,788.46411 286.82906,790.26247 294.50579,786.87556 C 298.71049,785.64749 303.15136,784.6446 307.5101,785.19345 C 306.52723,779.46407 306.77385,772.42341 304.95522,767.44367 C 298.9703,768.51629 293.40727,765.24571 287.57016,764.8518 z"
           id="path3793" />
        <path
           id="path3795"
           style="fill:#000000;fill-rule:evenodd;stroke:#000000;stroke-width:0.84097970000000000px;stroke-linecap:butt;stroke-linejoin:miter;stroke-opacity:1"
           d="M 309.20208,761.25568 C 302.42966,768.15849 292.57,758.16908 283.31202,761.5533 C 276.71018,763.96657 265.03862,772.72354 264.45019,779.72796 C 263.8392,787.00065 275.82789,791.03544 282.91663,792.77183 C 290.99904,794.75161 301.38533,785.49758 312.71715,790.83841 M 288.07235,764.90578 C 281.27139,764.91131 275.99254,770.52572 271.26655,774.75963 C 268.47453,777.43896 267.43222,782.18124 271.57278,784.19014 C 278.43713,788.5181 287.33125,790.31646 295.00798,786.92955 C 299.21268,785.70148 303.65355,784.69859 308.01228,785.24743 C 307.02942,779.51806 307.27603,772.4774 305.4574,767.49766 C 299.47248,768.57028 293.90945,765.29969 288.07235,764.90578 z" />
      </g>
      <path
         id="path3797"
         d="M 308.89474,548.13661 C 310.10207,563.20269 312.43792,580.52173 303.3043,593.70637 C 295.47871,601.53627 283.40771,596.87257 274.11372,595.09417 C 264.79185,592.78445 256.78357,599.83122 251.53011,606.65269 C 247.72372,613.2873 256.48429,618.55389 261.76777,620.76534 C 274.30929,625.11434 286.75707,612.94687 299.36585,618.64703 C 314.87518,626.76601 333.71255,628.03943 350.51269,625.27705 C 354.2615,615.51176 353.3164,603.71658 346.05358,595.69549 C 340.55501,588.39075 338.54153,579.1815 340.20092,570.1718 C 340.78469,563.60127 342.08629,557.12377 343.53817,550.69804 C 331.99035,549.84423 320.44255,548.99041 308.89474,548.13661 z"
         style="fill:#744c32;fill-opacity:1;fill-rule:evenodd;stroke:#000000;stroke-width:0.84097970000000000px;stroke-linecap:butt;stroke-linejoin:miter;stroke-opacity:1" />
      <path
         d="M 304.34449,543.76864 C 306.02226,557.13644 307.36532,571.02834 303.845,584.20985 C 302.56366,589.27852 298.64265,594.39748 292.8865,594.07861 C 283.64253,594.34043 274.80628,589.42733 265.54508,591.12257 C 258.07072,593.90989 251.22408,599.24494 247.28673,606.24518 C 244.27332,611.57074 248.60322,617.26575 252.91234,620.23785 C 258.3115,624.20411 265.1532,627.30803 271.95408,625.40203 C 279.47033,624.12781 286.74755,620.42932 294.50669,621.24215 C 307.43962,627.17965 321.51045,631.21148 335.85955,630.54417 C 341.45686,630.43395 347.03991,629.97026 352.60884,629.41826 C 356.2266,625.34043 356.02539,619.31754 356.4951,614.16962 C 357.00623,608.262 355.67216,602.23748 352.07786,597.44028 C 347.86585,591.49619 343.2854,584.98131 343.82152,577.31611 C 343.96632,567.07941 346.10408,556.98868 348.52918,547.08191 C 333.80095,545.97749 319.07271,544.87306 304.34449,543.76864 z M 308.89474,548.13661 C 309.99853,562.23972 312.11478,577.48701 305.24098,590.54356 C 302.35886,597.37955 293.92766,598.95228 287.31863,597.79728 C 279.89846,597.21098 272.4418,592.83629 265.02474,595.63987 C 259.19364,597.98597 254.13465,602.51313 250.95976,607.88024 C 249.27834,613.11676 254.52508,617.03098 258.53485,619.21029 C 265.66257,623.77167 274.29648,621.08373 281.71465,618.8677 C 288.14561,616.85889 295.57492,615.95444 301.56823,619.74392 C 316.73637,626.8539 334.14267,627.92464 350.51269,625.27705 C 354.47003,615.28921 353.05631,602.98623 345.54831,595.00515 C 339.94543,587.39518 338.61315,577.44599 340.38356,568.32625 C 341.03031,562.38581 342.22235,556.52163 343.53817,550.69804 C 331.99035,549.84423 320.44255,548.99041 308.89474,548.13661 z"
         style="fill:#000000;fill-rule:evenodd;stroke:#000000;stroke-width:0.84097970000000000px;stroke-linecap:butt;stroke-linejoin:miter;stroke-opacity:1"
         id="path3799" />
      <g
         id="g3801"
         transform="matrix(0.1670242,0.4587334,-0.3425506,0.1247222,446.60412,516.29937)"
         inkscape:export-filename="E:\Documents\Pictures\SMC_youngheart_drafts\big_furball.png"
         inkscape:export-xdpi="90"
         inkscape:export-ydpi="90">
        <path
           id="path3803"
           d="M 65.154838,592.2377 C 57.966757,592.74277 44.778877,590.12589 37.375643,591.22755 C 32.49779,597.88505 52.357029,637.43381 58.588846,634.66411 C 66.8654,620.52197 64.261699,606.37984 65.154838,592.2377 z"
           style="fill:none;fill-rule:evenodd;stroke:#000000;stroke-width:1.99347544000000010px;stroke-linecap:butt;stroke-linejoin:miter;stroke-opacity:1" />
        <path
           sodipodi:nodetypes="ccccccc"
           id="path3805"
           d="M 37.490328,584.05 C 33.419703,587.62002 32.785033,593.68983 32.649284,597.42669 C 34.345629,609.05102 40.797399,619.39497 46.243034,629.55169 C 49.043675,634.00634 54.575817,640.1585 60.243034,637.77044 C 66.161333,633.34133 66.192492,624.99562 67.930534,618.45794 C 69.314193,608.57828 68.350504,598.43023 69.118034,588.45794 C 57.63983,576.77332 45.926566,577.132 37.490328,584.05 z"
           style="fill:#000000;fill-rule:evenodd;stroke:#000000;stroke-width:1.99347544000000010px;stroke-linecap:butt;stroke-linejoin:miter;stroke-opacity:1" />
        <path
           sodipodi:nodetypes="cccc"
           style="fill:#b1a471;fill-opacity:1;fill-rule:evenodd;stroke:none;stroke-width:1px;stroke-linecap:butt;stroke-linejoin:miter;stroke-opacity:1"
           d="M 65.154836,592.2377 C 55.218222,581.96607 43.128669,583.65561 37.375645,591.22755 C 32.497792,597.88505 52.357031,637.43381 58.588848,634.66411 C 66.865406,620.52197 64.261696,606.37984 65.154836,592.2377 z"
           id="path3807" />
      </g>
      <g
         id="g3809"
         transform="matrix(0.9942709,0.1068891,-0.1068891,0.9942709,124.78977,-111.54025)">
        <path
           style="fill:url(#linearGradient3827);fill-opacity:1;fill-rule:evenodd;stroke:none;stroke-width:1px;stroke-linecap:butt;stroke-linejoin:miter;stroke-opacity:1;filter:url(#filter3427)"
           d="M 248.75,686.84375 C 242.07853,690.8686 232.31403,687.83416 227.23178,695.10893 C 222.45739,698.84483 215.79684,705.07018 218.75,711.65625 C 227.14824,719.77641 240.68102,719.2473 250.1875,713.40625 C 253.70757,711.82597 257.50088,711.00427 261.375,711.09375 C 257.87491,702.52902 254.43177,693.95095 250.75,685.46875 C 250.08333,685.92708 249.41667,686.38542 248.75,686.84375 z"
           id="path3811" />
        <path
           id="path3813"
           style="fill:#000000;fill-opacity:1;fill-rule:evenodd;stroke:#000000;stroke-width:0.84097975000000003px;stroke-linecap:butt;stroke-linejoin:miter;stroke-opacity:1"
           d="M 258.21621,709.46367 C 264.58925,709.32737 276.33398,718.583 264.4962,714.48401 C 252.65842,710.38502 243.32079,720.69622 235.07307,719.5917 C 227.83934,718.62297 215.48806,715.89275 215.31817,708.59642 C 215.15454,701.56923 225.82321,691.61487 232.12927,688.50976 C 240.97248,684.15535 247.91484,690.1765 250.3392,678.66077 C 252.76356,667.14504 255.81076,683.56051 249.62246,687.99492 C 243.43416,692.42933 234.27642,688.83116 229.15371,695.36992 C 225.0438,698.85026 218.64419,703.64695 219.87246,709.68242 C 225.0382,714.8426 233.48659,716.26996 240.37246,714.74492 C 246.21917,712.88613 251.84317,709.59997 258.21621,709.46367 z"
           sodipodi:nodetypes="ccssscccccc" />
        <g
           id="g3815"
           transform="matrix(0.2574389,0.4147995,-0.3097438,0.1922377,397.16442,576.18459)"
           inkscape:export-filename="E:\Documents\Pictures\SMC_youngheart_drafts\big_furball.png"
           inkscape:export-xdpi="90"
           inkscape:export-ydpi="90">
          <path
             id="path3817"
             d="M 65.154838,592.2377 C 57.966757,592.74277 44.778877,590.12589 37.375643,591.22755 C 32.49779,597.88505 52.357029,637.43381 58.588846,634.66411 C 66.8654,620.52197 64.261699,606.37984 65.154838,592.2377 z"
             style="fill:none;fill-rule:evenodd;stroke:#000000;stroke-width:1.99347544000000010px;stroke-linecap:butt;stroke-linejoin:miter;stroke-opacity:1" />
          <path
             sodipodi:nodetypes="ccccccc"
             id="path3819"
             d="M 37.490328,584.05 C 33.419703,587.62002 32.785033,593.68983 32.649284,597.42669 C 34.345629,609.05102 40.797399,619.39497 46.243034,629.55169 C 49.043675,634.00634 54.575817,640.1585 60.243034,637.77044 C 66.161333,633.34133 66.192492,624.99562 67.930534,618.45794 C 69.314193,608.57828 68.350504,598.43023 69.118034,588.45794 C 57.63983,576.77332 45.926566,577.132 37.490328,584.05 z"
             style="fill:#000000;fill-rule:evenodd;stroke:#000000;stroke-width:1.99347544000000010px;stroke-linecap:butt;stroke-linejoin:miter;stroke-opacity:1" />
          <path
             sodipodi:nodetypes="cccc"
             style="fill:#b1a471;fill-opacity:1;fill-rule:evenodd;stroke:none;stroke-width:1px;stroke-linecap:butt;stroke-linejoin:miter;stroke-opacity:1"
             d="M 65.154836,592.2377 C 55.218222,581.96607 43.128669,583.65561 37.375645,591.22755 C 32.497792,597.88505 52.357031,637.43381 58.588848,634.66411 C 66.865406,620.52197 64.261696,606.37984 65.154836,592.2377 z"
             id="path3821" />
        </g>
      </g>
      <path
         sodipodi:nodetypes="ccccccccccccsscccc"
         style="fill:#785825;fill-opacity:1;fill-rule:evenodd;stroke:#000000;stroke-width:0.84097975000000003px;stroke-linecap:butt;stroke-linejoin:miter;stroke-opacity:1"
         d="M 303.28924,583.65594 C 289.07414,585.3731 280.58606,601.86669 281.57816,606.91977 C 284.68544,597.68735 289.29455,600.5059 295.09872,597.79993 C 288.894,604.65404 292.29177,609.47688 295.76712,617.45153 C 296.95967,609.73539 298.84013,601.06594 303.39368,599.03709 C 301.21125,605.74749 304.90336,612.72836 308.28952,616.1479 C 310.54076,613.09909 318.31229,608.09999 318.01799,601.24316 C 321.77747,605.64087 320.75956,610.26712 319.0682,620.93898 C 321.29306,616.14065 324.72191,608.48592 327.35206,609.45936 C 330.89968,610.90058 328.34931,617.59436 328.08,621.58708 C 335.28889,620.2699 336.37624,613.63448 337.2924,606.85031 C 340.21968,611.26658 345.71735,614.27022 341.59771,622.55924 C 345.34447,623.10084 352.70115,616.31648 352.72375,605.51596 C 352.73052,602.28169 357.42583,611.5995 359.71645,610.04071 C 360.86461,609.25937 360.46318,598.37087 360.46234,596.60334 C 348.42219,565.33506 364.03315,553.90112 356.52391,547.71331 C 342.94468,544.78481 316.22445,543.77041 303.09241,543.73348 C 297.84063,547.85151 304.72388,579.52857 303.28924,583.65594 z"
         id="path3823" />
      <path
         id="path3825"
         style="fill:#000000;fill-rule:evenodd;stroke:#000000;stroke-width:0.84097975000000003px;stroke-linecap:butt;stroke-linejoin:miter;stroke-opacity:1"
         d="M 303.28924,583.65594 C 289.07414,585.3731 280.58606,601.86669 281.57816,606.91977 C 284.68544,597.68735 289.29455,600.5059 295.09872,597.79993 C 288.894,604.65404 292.29177,609.47688 295.76712,617.45153 C 296.95967,609.73539 298.84013,601.06594 303.39368,599.03709 C 301.21125,605.74749 304.90336,612.72836 308.28952,616.1479 C 310.54076,613.09909 318.31229,608.09999 318.01799,601.24316 C 321.77747,605.64087 320.75956,610.26712 319.0682,620.93898 C 321.29306,616.14065 324.72191,608.48592 327.35206,609.45936 C 330.89968,610.90058 328.34931,617.59436 328.08,621.58708 C 335.28889,620.2699 336.37624,613.63448 337.2924,606.85031 C 340.21968,611.26658 345.71735,614.27022 341.59771,622.55924 C 345.34447,623.10084 352.70115,616.31648 352.72375,605.51596 C 352.73052,602.28169 357.42583,611.5995 359.71645,610.04071 C 360.86461,609.25937 360.46318,598.37087 360.46234,596.60334 C 348.42219,565.33506 364.03315,553.90112 356.52391,547.71331 C 342.94468,544.78481 316.22445,543.77041 303.09241,543.73348 C 297.84063,547.85151 304.72388,579.52857 303.28924,583.65594 z M 305.46814,548.58245 C 303.43908,560.82118 309.13675,573.46578 306.71814,585.58245 C 302.99795,589.13156 296.92133,588.12704 293.59314,592.45745 C 289.05352,595.85645 293.49233,594.39999 296.31189,593.2387 C 299.57879,592.3459 300.85472,592.82403 299.18125,596.70933 C 298.22258,597.14106 297.06432,599.10485 296.11198,601.02903 C 295.29171,602.68638 294.87675,605.70332 294.62116,606.29761 C 293.41657,608.50141 296.63201,602.29012 299.88319,598.71751 C 303.34145,594.91735 306.67059,592.29882 307.88149,593.03138 C 312.72076,590.8088 307.35089,596.81334 307.28064,599.3637 C 306.4213,602.82217 306.76594,607.32356 308.78064,610.01995 C 312.75916,606.46907 315.77914,600.98079 313.81189,595.6137 C 317.72146,591.29051 320.97041,598.71095 322.93689,601.39495 C 323.86215,602.42848 322.65327,606.40238 323.21183,607.34915 C 323.54265,607.90989 325.23124,606.09715 326.34314,605.5512 C 329.15772,605.35257 332.10291,607.19987 332.81189,609.9887 C 333.35578,605.25487 333.90898,600.46101 334.90564,595.7387 C 337.83284,602.50747 344.16188,607.1095 346.62439,614.01995 C 349.5132,610.06565 346.88776,601.9684 352.62439,600.7387 C 354.83561,600.08921 357.67515,604.69495 356.56189,600.4262 C 354.24747,588.77623 349.53447,576.82926 352.51055,564.75281 C 352.94367,560.37484 354.84966,555.53774 354.21814,551.3637 C 338.35524,548.73764 321.83274,547.95719 305.59314,547.83245 L 305.46814,548.58245 z" />
    </g>
    <g
       id="g3829"
       transform="matrix(1.2300594,0,0,1.1494838,-55.910463,-86.184081)"
       inkscape:export-filename="E:\Documents\Pictures\SMC_youngheart_drafts\big_furball\big_furball_fr09.png"
       inkscape:export-xdpi="102.9"
       inkscape:export-ydpi="102.9"
       style="opacity:1">
      <g
         transform="translate(-6.2193619,-174.5113)"
         id="g3831">
        <path
           id="path3833"
           d="M 287.57016,764.8518 C 280.76921,764.85732 275.49035,770.47173 270.76436,774.70564 C 267.97234,777.38498 266.93003,782.12725 271.0706,784.13615 C 277.93494,788.46411 286.82906,790.26247 294.50579,786.87556 C 298.71049,785.64749 303.15136,784.6446 307.5101,785.19345 C 306.52723,779.46407 306.77385,772.42341 304.95522,767.44367 C 298.9703,768.51629 293.40727,765.24571 287.57016,764.8518 z"
           style="fill:#442612;fill-opacity:1;fill-rule:evenodd;stroke:#000000;stroke-width:0.84097970000000000px;stroke-linecap:butt;stroke-linejoin:miter;stroke-opacity:1" />
        <path
           d="M 309.20208,761.25568 C 302.42966,768.15849 292.57,758.16908 283.31202,761.5533 C 276.71018,763.96657 265.03862,772.72354 264.45019,779.72796 C 263.8392,787.00065 275.82789,791.03544 282.91663,792.77183 C 290.99904,794.75161 301.38533,785.49758 312.71715,790.83841 M 288.07235,764.90578 C 281.27139,764.91131 275.99254,770.52572 271.26655,774.75963 C 268.47453,777.43896 267.43222,782.18124 271.57278,784.19014 C 278.43713,788.5181 287.33125,790.31646 295.00798,786.92955 C 299.21268,785.70148 303.65355,784.69859 308.01228,785.24743 C 307.02942,779.51806 307.27603,772.4774 305.4574,767.49766 C 299.47248,768.57028 293.90945,765.29969 288.07235,764.90578 z"
           style="fill:#000000;fill-rule:evenodd;stroke:#000000;stroke-width:0.84097970000000000px;stroke-linecap:butt;stroke-linejoin:miter;stroke-opacity:1"
           id="path3835" />
      </g>
      <path
         style="fill:#744c32;fill-opacity:1;fill-rule:evenodd;stroke:#000000;stroke-width:0.84097970000000000px;stroke-linecap:butt;stroke-linejoin:miter;stroke-opacity:1"
         d="M 308.89474,548.13661 C 310.10207,563.20269 312.43792,580.52173 303.3043,593.70637 C 295.47871,601.53627 283.40771,596.87257 274.11372,595.09417 C 264.79185,592.78445 256.78357,599.83122 251.53011,606.65269 C 247.72372,613.2873 256.48429,618.55389 261.76777,620.76534 C 274.30929,625.11434 286.75707,612.94687 299.36585,618.64703 C 314.87518,626.76601 333.71255,628.03943 350.51269,625.27705 C 354.2615,615.51176 353.3164,603.71658 346.05358,595.69549 C 340.55501,588.39075 338.54153,579.1815 340.20092,570.1718 C 340.78469,563.60127 342.08629,557.12377 343.53817,550.69804 C 331.99035,549.84423 320.44255,548.99041 308.89474,548.13661 z"
         id="path3837" />
      <path
         id="path3839"
         style="fill:#000000;fill-rule:evenodd;stroke:#000000;stroke-width:0.84097970000000000px;stroke-linecap:butt;stroke-linejoin:miter;stroke-opacity:1"
         d="M 304.34449,543.76864 C 306.02226,557.13644 307.36532,571.02834 303.845,584.20985 C 302.56366,589.27852 298.64265,594.39748 292.8865,594.07861 C 283.64253,594.34043 274.80628,589.42733 265.54508,591.12257 C 258.07072,593.90989 251.22408,599.24494 247.28673,606.24518 C 244.27332,611.57074 248.60322,617.26575 252.91234,620.23785 C 258.3115,624.20411 265.1532,627.30803 271.95408,625.40203 C 279.47033,624.12781 286.74755,620.42932 294.50669,621.24215 C 307.43962,627.17965 321.51045,631.21148 335.85955,630.54417 C 341.45686,630.43395 347.03991,629.97026 352.60884,629.41826 C 356.2266,625.34043 356.02539,619.31754 356.4951,614.16962 C 357.00623,608.262 355.67216,602.23748 352.07786,597.44028 C 347.86585,591.49619 343.2854,584.98131 343.82152,577.31611 C 343.96632,567.07941 346.10408,556.98868 348.52918,547.08191 C 333.80095,545.97749 319.07271,544.87306 304.34449,543.76864 z M 308.89474,548.13661 C 309.99853,562.23972 312.11478,577.48701 305.24098,590.54356 C 302.35886,597.37955 293.92766,598.95228 287.31863,597.79728 C 279.89846,597.21098 272.4418,592.83629 265.02474,595.63987 C 259.19364,597.98597 254.13465,602.51313 250.95976,607.88024 C 249.27834,613.11676 254.52508,617.03098 258.53485,619.21029 C 265.66257,623.77167 274.29648,621.08373 281.71465,618.8677 C 288.14561,616.85889 295.57492,615.95444 301.56823,619.74392 C 316.73637,626.8539 334.14267,627.92464 350.51269,625.27705 C 354.47003,615.28921 353.05631,602.98623 345.54831,595.00515 C 339.94543,587.39518 338.61315,577.44599 340.38356,568.32625 C 341.03031,562.38581 342.22235,556.52163 343.53817,550.69804 C 331.99035,549.84423 320.44255,548.99041 308.89474,548.13661 z" />
      <g
         inkscape:export-ydpi="90"
         inkscape:export-xdpi="90"
         inkscape:export-filename="E:\Documents\Pictures\SMC_youngheart_drafts\big_furball.png"
         transform="matrix(0.1670242,0.4587334,-0.3425506,0.1247222,446.60412,516.29937)"
         id="g3841">
        <path
           style="fill:none;fill-rule:evenodd;stroke:#000000;stroke-width:1.99347544000000010px;stroke-linecap:butt;stroke-linejoin:miter;stroke-opacity:1"
           d="M 65.154838,592.2377 C 57.966757,592.74277 44.778877,590.12589 37.375643,591.22755 C 32.49779,597.88505 52.357029,637.43381 58.588846,634.66411 C 66.8654,620.52197 64.261699,606.37984 65.154838,592.2377 z"
           id="path3843" />
        <path
           style="fill:#000000;fill-rule:evenodd;stroke:#000000;stroke-width:1.99347544000000010px;stroke-linecap:butt;stroke-linejoin:miter;stroke-opacity:1"
           d="M 37.490328,584.05 C 33.419703,587.62002 32.785033,593.68983 32.649284,597.42669 C 34.345629,609.05102 40.797399,619.39497 46.243034,629.55169 C 49.043675,634.00634 54.575817,640.1585 60.243034,637.77044 C 66.161333,633.34133 66.192492,624.99562 67.930534,618.45794 C 69.314193,608.57828 68.350504,598.43023 69.118034,588.45794 C 57.63983,576.77332 45.926566,577.132 37.490328,584.05 z"
           id="path3845"
           sodipodi:nodetypes="ccccccc" />
        <path
           id="path3847"
           d="M 65.154836,592.2377 C 55.218222,581.96607 43.128669,583.65561 37.375645,591.22755 C 32.497792,597.88505 52.357031,637.43381 58.588848,634.66411 C 66.865406,620.52197 64.261696,606.37984 65.154836,592.2377 z"
           style="fill:#b1a471;fill-opacity:1;fill-rule:evenodd;stroke:none;stroke-width:1px;stroke-linecap:butt;stroke-linejoin:miter;stroke-opacity:1"
           sodipodi:nodetypes="cccc" />
      </g>
      <g
         transform="matrix(0.9942709,0.1068891,-0.1068891,0.9942709,124.78977,-111.54025)"
         id="g3849">
        <path
           id="path3851"
           d="M 248.75,686.84375 C 242.07853,690.8686 232.31403,687.83416 227.23178,695.10893 C 222.45739,698.84483 215.79684,705.07018 218.75,711.65625 C 227.14824,719.77641 240.68102,719.2473 250.1875,713.40625 C 253.70757,711.82597 257.50088,711.00427 261.375,711.09375 C 257.87491,702.52902 254.43177,693.95095 250.75,685.46875 C 250.08333,685.92708 249.41667,686.38542 248.75,686.84375 z"
           style="fill:url(#linearGradient3867);fill-opacity:1;fill-rule:evenodd;stroke:none;stroke-width:1px;stroke-linecap:butt;stroke-linejoin:miter;stroke-opacity:1;filter:url(#filter3427)" />
        <path
           sodipodi:nodetypes="ccssscccccc"
           d="M 258.21621,709.46367 C 264.58925,709.32737 276.33398,718.583 264.4962,714.48401 C 252.65842,710.38502 243.32079,720.69622 235.07307,719.5917 C 227.83934,718.62297 215.48806,715.89275 215.31817,708.59642 C 215.15454,701.56923 225.82321,691.61487 232.12927,688.50976 C 240.97248,684.15535 247.91484,690.1765 250.3392,678.66077 C 252.76356,667.14504 255.81076,683.56051 249.62246,687.99492 C 243.43416,692.42933 234.27642,688.83116 229.15371,695.36992 C 225.0438,698.85026 218.64419,703.64695 219.87246,709.68242 C 225.0382,714.8426 233.48659,716.26996 240.37246,714.74492 C 246.21917,712.88613 251.84317,709.59997 258.21621,709.46367 z"
           style="fill:#000000;fill-opacity:1;fill-rule:evenodd;stroke:#000000;stroke-width:0.84097975000000003px;stroke-linecap:butt;stroke-linejoin:miter;stroke-opacity:1"
           id="path3853" />
        <g
           inkscape:export-ydpi="90"
           inkscape:export-xdpi="90"
           inkscape:export-filename="E:\Documents\Pictures\SMC_youngheart_drafts\big_furball.png"
           transform="matrix(0.2574389,0.4147995,-0.3097438,0.1922377,397.16442,576.18459)"
           id="g3855">
          <path
             style="fill:none;fill-rule:evenodd;stroke:#000000;stroke-width:1.99347544000000010px;stroke-linecap:butt;stroke-linejoin:miter;stroke-opacity:1"
             d="M 65.154838,592.2377 C 57.966757,592.74277 44.778877,590.12589 37.375643,591.22755 C 32.49779,597.88505 52.357029,637.43381 58.588846,634.66411 C 66.8654,620.52197 64.261699,606.37984 65.154838,592.2377 z"
             id="path3857" />
          <path
             style="fill:#000000;fill-rule:evenodd;stroke:#000000;stroke-width:1.99347544000000010px;stroke-linecap:butt;stroke-linejoin:miter;stroke-opacity:1"
             d="M 37.490328,584.05 C 33.419703,587.62002 32.785033,593.68983 32.649284,597.42669 C 34.345629,609.05102 40.797399,619.39497 46.243034,629.55169 C 49.043675,634.00634 54.575817,640.1585 60.243034,637.77044 C 66.161333,633.34133 66.192492,624.99562 67.930534,618.45794 C 69.314193,608.57828 68.350504,598.43023 69.118034,588.45794 C 57.63983,576.77332 45.926566,577.132 37.490328,584.05 z"
             id="path3859"
             sodipodi:nodetypes="ccccccc" />
          <path
             id="path3861"
             d="M 65.154836,592.2377 C 55.218222,581.96607 43.128669,583.65561 37.375645,591.22755 C 32.497792,597.88505 52.357031,637.43381 58.588848,634.66411 C 66.865406,620.52197 64.261696,606.37984 65.154836,592.2377 z"
             style="fill:#b1a471;fill-opacity:1;fill-rule:evenodd;stroke:none;stroke-width:1px;stroke-linecap:butt;stroke-linejoin:miter;stroke-opacity:1"
             sodipodi:nodetypes="cccc" />
        </g>
      </g>
      <path
         id="path3863"
         d="M 303.28924,583.65594 C 289.07414,585.3731 280.58606,601.86669 281.57816,606.91977 C 284.68544,597.68735 289.29455,600.5059 295.09872,597.79993 C 288.894,604.65404 292.29177,609.47688 295.76712,617.45153 C 296.95967,609.73539 298.84013,601.06594 303.39368,599.03709 C 301.21125,605.74749 304.90336,612.72836 308.28952,616.1479 C 310.54076,613.09909 318.31229,608.09999 318.01799,601.24316 C 321.77747,605.64087 320.75956,610.26712 319.0682,620.93898 C 321.29306,616.14065 324.72191,608.48592 327.35206,609.45936 C 330.89968,610.90058 328.34931,617.59436 328.08,621.58708 C 335.28889,620.2699 336.37624,613.63448 337.2924,606.85031 C 340.21968,611.26658 345.71735,614.27022 341.59771,622.55924 C 345.34447,623.10084 352.70115,616.31648 352.72375,605.51596 C 352.73052,602.28169 357.42583,611.5995 359.71645,610.04071 C 360.86461,609.25937 360.46318,598.37087 360.46234,596.60334 C 348.42219,565.33506 364.03315,553.90112 356.52391,547.71331 C 342.94468,544.78481 316.22445,543.77041 303.09241,543.73348 C 297.84063,547.85151 304.72388,579.52857 303.28924,583.65594 z"
         style="fill:#785825;fill-opacity:1;fill-rule:evenodd;stroke:#000000;stroke-width:0.84097975000000003px;stroke-linecap:butt;stroke-linejoin:miter;stroke-opacity:1"
         sodipodi:nodetypes="ccccccccccccsscccc" />
      <path
         d="M 303.28924,583.65594 C 289.07414,585.3731 280.58606,601.86669 281.57816,606.91977 C 284.68544,597.68735 289.29455,600.5059 295.09872,597.79993 C 288.894,604.65404 292.29177,609.47688 295.76712,617.45153 C 296.95967,609.73539 298.84013,601.06594 303.39368,599.03709 C 301.21125,605.74749 304.90336,612.72836 308.28952,616.1479 C 310.54076,613.09909 318.31229,608.09999 318.01799,601.24316 C 321.77747,605.64087 320.75956,610.26712 319.0682,620.93898 C 321.29306,616.14065 324.72191,608.48592 327.35206,609.45936 C 330.89968,610.90058 328.34931,617.59436 328.08,621.58708 C 335.28889,620.2699 336.37624,613.63448 337.2924,606.85031 C 340.21968,611.26658 345.71735,614.27022 341.59771,622.55924 C 345.34447,623.10084 352.70115,616.31648 352.72375,605.51596 C 352.73052,602.28169 357.42583,611.5995 359.71645,610.04071 C 360.86461,609.25937 360.46318,598.37087 360.46234,596.60334 C 348.42219,565.33506 364.03315,553.90112 356.52391,547.71331 C 342.94468,544.78481 316.22445,543.77041 303.09241,543.73348 C 297.84063,547.85151 304.72388,579.52857 303.28924,583.65594 z M 305.46814,548.58245 C 303.43908,560.82118 309.13675,573.46578 306.71814,585.58245 C 302.99795,589.13156 296.92133,588.12704 293.59314,592.45745 C 289.05352,595.85645 293.49233,594.39999 296.31189,593.2387 C 299.57879,592.3459 300.85472,592.82403 299.18125,596.70933 C 298.22258,597.14106 297.06432,599.10485 296.11198,601.02903 C 295.29171,602.68638 294.87675,605.70332 294.62116,606.29761 C 293.41657,608.50141 296.63201,602.29012 299.88319,598.71751 C 303.34145,594.91735 306.67059,592.29882 307.88149,593.03138 C 312.72076,590.8088 307.35089,596.81334 307.28064,599.3637 C 306.4213,602.82217 306.76594,607.32356 308.78064,610.01995 C 312.75916,606.46907 315.77914,600.98079 313.81189,595.6137 C 317.72146,591.29051 320.97041,598.71095 322.93689,601.39495 C 323.86215,602.42848 322.65327,606.40238 323.21183,607.34915 C 323.54265,607.90989 325.23124,606.09715 326.34314,605.5512 C 329.15772,605.35257 332.10291,607.19987 332.81189,609.9887 C 333.35578,605.25487 333.90898,600.46101 334.90564,595.7387 C 337.83284,602.50747 344.16188,607.1095 346.62439,614.01995 C 349.5132,610.06565 346.88776,601.9684 352.62439,600.7387 C 354.83561,600.08921 357.67515,604.69495 356.56189,600.4262 C 354.24747,588.77623 349.53447,576.82926 352.51055,564.75281 C 352.94367,560.37484 354.84966,555.53774 354.21814,551.3637 C 338.35524,548.73764 321.83274,547.95719 305.59314,547.83245 L 305.46814,548.58245 z"
         style="fill:#000000;fill-rule:evenodd;stroke:#000000;stroke-width:0.84097975000000003px;stroke-linecap:butt;stroke-linejoin:miter;stroke-opacity:1"
         id="path3865" />
    </g>
    <g
       id="g3591"
       inkscape:export-filename="E:\Documents\Pictures\SMC_youngheart_drafts\big_furball\big_furball_fr09.png"
       inkscape:export-xdpi="102.9"
       inkscape:export-ydpi="102.9">
      <path
         inkscape:export-ydpi="69.898193"
         inkscape:export-xdpi="69.898193"
         inkscape:export-filename="E:\Documents\Pictures\SMC_youngheart_drafts\big_furball3.png"
         sodipodi:nodetypes="cccccccccccccccccccccccccccccccscccccccccccccsccccccccccc"
         id="path2386"
         d="M 369.28571,209.50504 C 325.38652,210.45436 281.72826,224.75019 244.60262,247.97978 C 213.15549,269.14021 188.84791,300.02542 175.68226,335.58887 C 167.47694,352.42798 158.81083,367.66834 156.42857,388.79074 C 159.6268,379.76253 162.75136,370.5501 168.57143,368.07648 C 163.87033,376.29334 160.57891,387.32954 158.57143,400.93362 C 164.26257,388.67682 172.68521,381.73126 167.82489,395.25091 C 162.95779,403.81802 160.8207,417.84514 158.57143,431.64789 C 163.26076,421.73299 170.83165,409.46338 167.02589,426.57071 C 164.70112,443.67938 162.68892,460.80131 164.28571,478.07648 C 165.95237,469.8118 167.61904,456.94298 169.28571,455.93362 C 174.93618,468.31458 166.44769,484.73614 166.04605,497.11709 C 171.0845,487.16804 175.34178,483.14011 173.33385,494.41981 C 168.18581,505.81998 170.17702,519.00497 170,531.64789 C 172.14286,523.55265 174.28572,515.45742 176.42857,507.36218 C 179.9569,521.17171 171.28278,534.98124 170.0359,548.79077 C 171.45949,543.3073 178.61041,527.70518 175.85763,541.50242 C 178.32991,549.78995 173.11372,559.99961 170.71429,569.50507 C 174.76191,562.8384 178.80953,556.17173 182.85715,549.50507 C 178.70888,561.00236 178.80519,574.62194 180,588.79077 C 182.35625,581.19173 183.78528,561.66678 186.77485,571.62617 C 188.81198,587.44252 193.29076,597.15473 200.71429,599.50507 C 202.57891,572.86535 204.48771,606.91512 209.9936,614.45538 C 212.23358,597.73229 216.85516,599.00253 220.22649,586.24945 C 235.51938,633.60966 231.96241,607.61253 234.84214,588.90007 C 238.95705,596.4894 251.99367,589.26679 255.13742,605.79791 C 265.60563,583.09488 265.62937,580.01338 279.41352,603.11671 C 289.42799,575.28691 294.5567,587.13149 305.10524,604.7881 C 303.307,587.09177 323.59153,606.75238 330.66353,610.95636 C 338.07581,596.776 341.0573,591.41228 352.17589,607.08888 C 357.68923,596.30537 379.31382,584.83308 371.09418,608.71634 C 379.41525,604.45708 383.39934,584.02694 387.73929,611.56459 C 388.93953,619.18028 397.02653,581.55554 401.68037,588.32198 C 403.4124,596.38612 406.12327,603.89092 417.14285,606.64789 C 407.42053,585.25915 423.95169,590.89195 431.96954,588.40821 C 432.90593,594.8368 425.32551,602.78062 436.4137,609.20921 C 441.08019,589.05853 448.3622,586.26485 461.04605,609.38249 C 460.87796,601.40195 470.23077,592.16331 475.13535,610.92738 C 481.23935,610.03941 483.79899,587.801 490.16737,609.26717 C 497.93139,597.88892 503.82627,596.4353 514.90283,602.65129 C 503.09203,571.57882 536.94906,571.26953 538.93818,602.0094 C 538.95449,587.03164 554.39397,567.40159 564.32635,581.51288 C 564.94241,569.14678 559.3078,559.71172 565.71429,558.07648 C 580.59111,583.90597 568.51097,544.06341 568.012,535.24444 C 564.26382,519.11897 566.19179,524.52696 574.28571,532.36218 C 568.63417,522.19976 560.99281,484.06823 579.10449,521.17568 C 582.03581,527.1814 565.83034,473.72402 582.87127,502.63863 C 584.45048,493.94481 572.9841,462.18772 586.56599,475.53007 C 581.27032,463.09155 576.66276,448.31068 577.85712,442.36218 C 586.85502,452.02617 587.13069,449.93693 588.71562,445.84169 C 581.63841,421.8082 578.25007,416.35739 577.76786,415.62111 C 569.59466,403.45019 577.78371,402.25854 588.09745,417.22611 C 587.00131,401.08078 576.82505,394.25149 574.91536,386.42078 C 566.59237,374.77388 574.65092,379.19865 586.11889,387.53362 C 577.09356,339.183 546.51496,302.60553 515.73386,266.36783 C 487.90848,237.47863 447.22688,226.64215 409.90834,215.77461 C 396.58816,212.55069 383.02349,209.88226 369.28571,209.50504 z"
         style="opacity:1;fill:url(#linearGradient3547);fill-opacity:1;fill-rule:evenodd;stroke:#000000;stroke-width:1px;stroke-linecap:butt;stroke-linejoin:miter;stroke-opacity:1" />
      <path
         transform="translate(500,0)"
         clip-path="url(#clipPath3573)"
         style="opacity:1;fill:#ebb35a;fill-opacity:1;fill-rule:evenodd;stroke:none;stroke-width:1px;stroke-linecap:butt;stroke-linejoin:miter;stroke-opacity:1;filter:url(#filter3667)"
         d="M -133.1875,221.625 C -187.12775,224.22962 -241.70904,244.56907 -279.125,284.125 C -296.26614,302.45533 -307.54152,325.48327 -317.65625,348.28125 C -314.08705,345.37259 -306.3826,346.77116 -308.09375,352.53125 C -309.68926,358.0233 -314.76136,361.4895 -316.84364,366.78479 C -318.9893,370.72669 -322.71699,374.98478 -323,379.375 C -315.31838,386.86158 -319.79427,398.43154 -323.9375,406.53125 C -326.92746,409.48537 -321.9815,410.49102 -321.46875,413.3125 C -316.71097,424.20893 -324.56897,435.7918 -322.71875,446.875 C -314.66581,455.45838 -316.56102,468.72668 -318.28125,479.34375 C -314.73423,482.85256 -313.34141,487.67144 -314.34375,492.59375 C -315.72056,498.14852 -310.66424,502.22899 -311.03125,507.78125 C -309.26582,517.43643 -314.62127,527.25128 -311.46875,536.5 C -302.70887,540.37629 -304.19091,551.86131 -307.5,559.0625 C -307.56203,560.68327 -304.03122,561.58529 -303.625,563.84375 C -300.99132,567.94582 -301.21962,573.84214 -299.59375,577.71875 C -296.32911,576.74958 -292.51976,579.40296 -290.21875,579.65625 C -288.73027,573.2463 -281.39628,568.17498 -275.25,572.09375 C -273.35964,572.09767 -274.41417,566.63137 -273.34375,564.46875 C -273.15192,559.85437 -267.93841,556.12675 -264.40625,560.21875 C -258.96084,566.17938 -260.73356,575.93339 -255.0625,581.40625 C -252.67305,582.09471 -249.51698,582.91999 -247.59375,583.65625 C -242.51865,575.00738 -228.8102,572.48316 -221.84375,580.15625 C -213.85726,570.58519 -196.89763,574.73055 -192.6875,585.9375 C -185.24232,584.34014 -178.77847,589.80314 -173.09375,593.03125 C -167.21584,585.7011 -155.41227,583.36008 -147.75,588.96875 C -140.62924,582.49195 -129.28699,581.01205 -121.0625,585.75 C -118.11215,584.20328 -113.69895,588.01969 -112.6875,583.59375 C -108.13787,576.09513 -95.65115,572.3209 -89.65625,579.9375 C -87.61532,580.54416 -84.15593,577.60595 -81.3125,577.84375 C -75.21359,577.28905 -69.06517,576.4282 -63.40625,574.28125 C -59.42939,574.25365 -57.92231,578.95833 -56.65625,581.34375 C -49.57901,580.08793 -42.55807,584.09077 -38,588.90625 C -33.06638,586.81524 -27.44482,589.08535 -23.09375,590.34375 C -18.27805,587.03503 -11.9561,588.75394 -6.9375,589.6875 C -4.10479,588.05094 1.30685,589.15493 0.84375,584.53125 C 3.62228,572.1656 18.29141,562.92663 30.4375,568.625 C 33.44982,569.26953 36.18357,573.33034 38.75,572.9375 C 41.79939,569.29267 46.95345,567.28544 50.46875,565.125 C 50.36402,558.69601 53.08987,552.05952 58.25,548.125 C 56.47542,538.64925 52.02468,527.83679 56.40625,518.5625 C 57.69046,514.94027 54.21944,510.93192 55.75,507.0625 C 55.87207,501.6232 60.27851,497.42176 63.15625,493.53125 C 63.84806,490.08372 65.71394,486.84134 68.5,484.6875 C 67.14639,478.51719 67.77768,471.9788 70.25,466.40625 C 65.13211,453.7544 63.97394,438.89403 69.5625,426.25 C 64.64016,418.40049 58.68803,406.66189 66.28125,398.53125 C 68.6406,396.86126 63.98961,394.55552 63.75,392.40625 C 58.92733,385.64581 57.57698,374.06974 65.59375,369.25 C 69.32899,368.9225 68.28987,366.4742 66.8125,363.75 C 52.02389,326.68417 26.15155,294.85398 -1.81876,266.69619 C -34.00686,241.13879 -75.15782,231.9867 -114.375,223.03125 C -120.55987,222.04445 -126.87725,221.50988 -133.1875,221.625 z"
         id="path3569"
         inkscape:export-filename="E:\Documents\Pictures\SMC_youngheart_drafts\big_furball3.png"
         inkscape:export-xdpi="69.898193"
         inkscape:export-ydpi="69.898193" />
      <g
         transform="translate(0,5)"
         inkscape:export-ydpi="69.898193"
         inkscape:export-xdpi="69.898193"
         inkscape:export-filename="E:\Documents\Pictures\SMC_youngheart_drafts\big_furball3.png"
         id="g3588"
         style="opacity:1">
        <path
           sodipodi:type="arc"
           style="opacity:1;fill:#ffffff;fill-opacity:1;stroke:#000000;stroke-width:3.84057212;stroke-linecap:square;stroke-miterlimit:4;stroke-dasharray:none;stroke-opacity:1"
           id="path3293"
           sodipodi:cx="50"
           sodipodi:cy="263.79074"
           sodipodi:rx="30"
           sodipodi:ry="30"
           d="M 80,263.79074 A 30,30 0 1 1 20,263.79074 A 30,30 0 1 1 80,263.79074 z"
           transform="matrix(0.7811336,0,0,0.7811336,171.52019,130.0152)"
           inkscape:export-filename="E:\Documents\Pictures\SMC_youngheart_drafts\big_furball2.png"
           inkscape:export-xdpi="69.930099"
           inkscape:export-ydpi="69.930099" />
        <path
           transform="matrix(0.4184644,0,0,0.4184644,184.35309,233.21634)"
           d="M 80,263.79074 A 30,30 0 1 1 20,263.79074 A 30,30 0 1 1 80,263.79074 z"
           sodipodi:ry="30"
           sodipodi:rx="30"
           sodipodi:cy="263.79074"
           sodipodi:cx="50"
           id="path3295"
           style="opacity:1;fill:#000000;fill-opacity:1;stroke:#000000;stroke-width:7.16906786;stroke-linecap:square;stroke-miterlimit:4;stroke-dasharray:none;stroke-opacity:1"
           sodipodi:type="arc"
           inkscape:export-filename="E:\Documents\Pictures\SMC_youngheart_drafts\big_furball2.png"
           inkscape:export-xdpi="69.930099"
           inkscape:export-ydpi="69.930099" />
        <path
           sodipodi:type="arc"
           style="opacity:0.74519228;fill:#ffffff;fill-opacity:1;stroke:none;stroke-width:12.49117565;stroke-linecap:square;stroke-miterlimit:4;stroke-dasharray:none;stroke-opacity:1;filter:url(#filter3347)"
           id="path3301"
           sodipodi:cx="50"
           sodipodi:cy="263.79074"
           sodipodi:rx="30"
           sodipodi:ry="30"
           d="M 80,263.79074 A 30,30 0 1 1 20,263.79074 A 30,30 0 1 1 80,263.79074 z"
           transform="matrix(0.1441377,0,0,0.1162401,196.25608,303.87358)"
           inkscape:export-filename="E:\Documents\Pictures\SMC_youngheart_drafts\big_furball2.png"
           inkscape:export-xdpi="69.930099"
           inkscape:export-ydpi="69.930099" />
      </g>
      <path
         d="M 369.28571,209.50504 C 325.38652,210.45436 281.72826,224.75019 244.60262,247.97978 C 213.15549,269.14021 188.84791,300.02542 175.68226,335.58887 C 167.47694,352.42798 158.81083,367.66834 156.42857,388.79074 C 159.6268,379.76253 162.75136,370.5501 168.57143,368.07648 C 163.87033,376.29334 160.57891,387.32954 158.57143,400.93362 C 164.26257,388.67682 172.68521,381.73126 167.82489,395.25091 C 162.95779,403.81802 160.8207,417.84514 158.57143,431.64789 C 163.26076,421.73299 170.83165,409.46338 167.02589,426.57071 C 164.70112,443.67938 162.68892,460.80131 164.28571,478.07648 C 165.95237,469.8118 167.61904,456.94298 169.28571,455.93362 C 174.93618,468.31458 166.44769,484.73614 166.04605,497.11709 C 171.0845,487.16804 175.34178,483.14011 173.33385,494.41981 C 168.18581,505.81998 170.17702,519.00497 170,531.64789 C 172.14286,523.55265 174.28572,515.45742 176.42857,507.36218 C 179.9569,521.17171 171.28278,534.98124 170.0359,548.79077 C 171.45949,543.3073 178.61041,527.70518 175.85763,541.50242 C 178.32991,549.78995 173.11372,559.99961 170.71429,569.50507 C 174.76191,562.8384 178.80953,556.17173 182.85715,549.50507 C 178.70888,561.00236 178.80519,574.62194 180,588.79077 C 182.35625,581.19173 183.78528,561.66678 186.77485,571.62617 C 188.81198,587.44252 193.29076,597.15473 200.71429,599.50507 C 202.57891,572.86535 204.48771,606.91512 209.9936,614.45538 C 212.23358,597.73229 216.85516,599.00253 220.22649,586.24945 C 235.51938,633.60966 231.96241,607.61253 234.84214,588.90007 C 238.95705,596.4894 251.99367,589.26679 255.13742,605.79791 C 265.60563,583.09488 265.62937,580.01338 279.41352,603.11671 C 289.42799,575.28691 294.5567,587.13149 305.10524,604.7881 C 303.307,587.09177 323.59153,606.75238 330.66353,610.95636 C 338.07581,596.776 341.0573,591.41228 352.17589,607.08888 C 357.68923,596.30537 379.31382,584.83308 371.09418,608.71634 C 379.41525,604.45708 383.39934,584.02694 387.73929,611.56459 C 388.93953,619.18028 397.02653,581.55554 401.68037,588.32198 C 403.4124,596.38612 406.12327,603.89092 417.14285,606.64789 C 407.42053,585.25915 423.95169,590.89195 431.96954,588.40821 C 432.90593,594.8368 425.32551,602.78062 436.4137,609.20921 C 441.08019,589.05853 448.3622,586.26485 461.04605,609.38249 C 460.87796,601.40195 470.23077,592.16331 475.13535,610.92738 C 481.23935,610.03941 483.79899,587.801 490.16737,609.26717 C 497.93139,597.88892 503.8263,596.4353 514.9028,602.65129 C 503.092,571.57882 536.9491,571.26953 538.9382,602.0094 C 538.9545,587.03164 554.394,567.40159 564.3263,581.51288 C 564.9424,569.14678 559.3078,559.71172 565.7143,558.07648 C 580.5911,583.90597 568.511,544.06341 568.012,535.24444 C 564.2638,519.11897 566.1918,524.52696 574.2857,532.36218 C 568.6342,522.19976 560.9928,484.06823 579.1045,521.17568 C 582.0358,527.1814 565.8303,473.72402 582.8713,502.63863 C 584.4505,493.94481 572.9841,462.18772 586.566,475.53007 C 581.2703,463.09155 576.6628,448.31068 577.8571,442.36218 C 586.855,452.02617 587.1307,449.93693 588.7156,445.84169 C 581.6384,421.8082 578.2501,416.35739 577.7679,415.62111 C 569.5947,403.45019 577.7837,402.25854 588.0974,417.22611 C 587.0013,401.08078 576.825,394.25149 574.9154,386.42078 C 566.5924,374.77388 574.6509,379.19865 586.1189,387.53362 C 577.0936,339.183 546.515,302.60553 515.7339,266.36783 C 487.90848,237.47863 447.22688,226.64215 409.90834,215.77461 C 396.58816,212.55069 383.02349,209.88226 369.28571,209.50504 z M 367.125,205.5625 C 317.92702,207.48007 269.36503,224.12026 230.09058,253.65149 C 202.37019,275.49512 182.20805,305.81751 169.7112,338.63147 C 161.58228,355.68308 151.63736,373.82232 153.09375,393.375 C 154.33684,395.15889 156.07991,395.55846 154.96875,398.125 C 154.27763,402.43169 154.71531,406.79444 155.21875,411.09375 C 158.99937,406.32432 160.13698,405.7328 157.96027,412.00509 C 156.26097,421.69388 153.28196,431.66538 155.375,441.59375 C 157.90102,438.90297 160.49912,436.25172 162.25,433 C 160.10564,449.3539 157.9504,466.51518 161.59375,482.75 C 163.63574,484.6871 164.35337,485.5808 163.14398,488.6809 C 161.58633,495.46563 161.73661,502.49142 162.78125,509.375 C 165.59726,504.98028 167.39986,502.14684 165.96875,508.78125 C 165.80413,518.19483 165.04264,527.94916 167.21875,537.15625 C 167.93913,542.52344 164.60089,548.56025 167.125,554.125 C 166.96544,561.45089 173.5538,549.54884 170.18377,557.57368 C 167.77081,564.15076 165.78889,571.06479 166.59375,578.15625 C 170.68083,576.51168 173.34616,573.06458 175.40625,569.375 C 174.74936,579.87869 175.88192,590.42283 178.53125,600.53125 C 181.75829,595.58983 184.15098,590.1839 185.1875,584.375 C 187.09063,593.31293 193.07713,602.13097 202.125,604.4375 C 203.61482,612.26606 207.49114,619.32137 212.875,625.1875 C 213.14468,615.53717 214.99924,605.83931 219.8125,597.46875 C 221.95927,603.22089 223.38158,609.40396 227,614.46875 C 230.00258,619.11422 236.39839,616.25505 236.75,611.34375 C 237.10168,606.23481 237.98004,601.20091 237.84375,596.0625 C 243.55286,597.09461 251.1723,599.30865 251.15625,606.5625 C 251.07609,609.34323 252.96771,615.7158 256.625,612.40625 C 260.31641,605.71495 261.98752,597.83391 266.78125,591.8125 C 272.8086,597.33199 274.9335,605.60834 280.28125,611.6875 C 284.15869,605.01338 284.46528,595.73027 290.65625,590.84375 C 295.32526,593.99103 297.08765,600.25036 300.47552,604.72346 C 302.4779,607.32522 303.91607,614.00779 308.34375,612.09375 C 310.35596,608.99919 308.70305,605.08358 308.96875,601.6875 C 317.8208,604.65338 323.8044,612.28979 331.96875,616.5 C 335.95983,612.15613 336.45843,604.73834 341.71875,601.78125 C 346.9561,604.44738 348.80994,610.77463 353,614.65625 C 355.66645,607.80939 361.00851,599.6262 368.78125,599 C 370.15842,604.07676 365.13106,608.46738 365.9375,613.375 C 369.24179,616.43623 373.41365,611.74297 376.25,609.96875 C 378.45689,608.30177 380.36732,604.10982 382.0625,603.28125 C 383.41173,607.663 382.42107,615.93313 388.4375,616.375 C 395.09676,614.99684 394.28557,606.26898 397.21875,601.53125 C 398.19582,599.75204 399.19968,593.08295 400.40625,597.96875 C 404.11916,605.49887 412.43901,611.78567 421.0625,611 C 424.41593,607.09665 418.55655,602.87983 418.375,598.75 C 417.08832,595.70073 419.4501,592.6963 422.75,593.59375 C 425.39645,593.06377 428.28464,592.23634 426.75,595.5625 C 424.76651,602.93368 429.03009,611.87239 436.65625,613.53125 C 442.08059,612.72722 440.61486,605.30654 442.84375,601.6875 C 443.41707,598.77848 446.45902,595.26074 448.90625,598.96875 C 456.00505,605.53516 458.5491,615.23012 464.28125,622.875 C 465.89209,616.94688 462.95742,609.42772 466.96875,604.34375 C 470.00634,604.57946 470.35374,610.0342 471.28125,612.40625 C 471.82176,617.8065 478.79303,614.56385 481.03125,611.5 C 482.93345,609.75844 484.74092,603.06032 485.75,608.375 C 486.66267,611.76392 487.65829,615.13805 488.875,618.5 C 492.99667,611.59966 500.0544,598.69659 509.75,604.53125 C 513.9515,606.49434 518.0366,609.11055 522.3125,611.15625 C 520.061,602.8797 512.992,593.15138 518.375,584.78125 C 523.3696,580.28912 530.3095,586.58795 532.3438,591.4375 C 535.4017,597.51015 533.9396,605.5898 539.75,610.40625 C 544.1437,600.68531 543.3458,587.07669 553.9375,581.34375 C 559.2488,578.39727 560.8136,585.57177 564.5312,587.5625 C 569.3084,588.67694 568.5206,582.16741 568.4375,579.25 C 568.8143,575.6998 566.9895,570.08359 567.3125,567.90625 C 569.8516,571.78753 576.6815,571.2303 576.875,565.96875 C 577.7597,557.54603 573.9551,549.79867 573.092,541.45558 C 572.5638,538.40474 570.8474,533.71068 574.5,537.5625 C 577.3016,540.16105 580.7412,536.49336 578.7812,533.59375 C 577.0738,529.14365 575.3552,524.73861 574,520.1875 C 575.1158,524.22105 580.414,528.42093 583.125,523.46875 C 584.1949,517.66168 580.6777,511.88277 580.3125,506.125 C 582.8129,510.57286 585.6664,516.18724 586.25,507.75 C 588.6452,497.98825 584.682,488.25487 584.0625,478.53125 C 587.2078,481.39721 590.6991,483.85894 594.25,486.375 C 591.1053,474.91329 585.2943,463.43798 582.9375,452.28125 C 587.7707,455.363 593.1614,450.33314 592.3125,445.1875 C 591.4931,437.933 587.779,431.33708 586.0312,424.28125 C 585.6333,422.45531 581.6624,415.32095 583.8125,418.09375 C 586.7672,422.19676 589.68,426.35357 592.6875,430.4375 C 593.794,415.97289 589.9547,401.24398 580.875,389.90625 C 578.7307,385.82796 587.1383,393.72733 589.5042,394.81626 C 593.9785,398.65237 589.8249,388.54566 589.9375,385.5 C 581.6787,343.27419 555.5545,307.24256 528.3438,274.875 C 508.9941,249.09542 479.59019,233.50071 449.42272,223.71552 C 422.85666,214.87711 395.37212,205.94571 367.125,205.5625 z"
         style="opacity:1;fill:#000000;fill-opacity:1;fill-rule:evenodd;stroke:#000000;stroke-width:1px;stroke-linecap:butt;stroke-linejoin:miter;stroke-opacity:1"
         id="path3550" />
      <g
         inkscape:export-ydpi="69.898193"
         inkscape:export-xdpi="69.898193"
         inkscape:export-filename="E:\Documents\Pictures\SMC_youngheart_drafts\big_furball3.png"
         transform="matrix(0.9977226,-6.7451148e-2,6.7451148e-2,0.9977226,-20.559014,19.638547)"
         id="g3600"
         style="opacity:1">
        <path
           sodipodi:nodetypes="cssssssssccsssssssssccssss"
           id="path3363"
           d="M 188.77422,315.25994 C 192.59622,317.10175 191.02521,318.5974 195.1566,319.56257 C 198.34859,320.30828 198.21116,318.71119 201.40315,319.4569 C 206.41985,320.6289 202.78362,323.34766 207.62461,325.10993 C 210.9577,326.32328 209.68808,328.32386 213.14443,329.12086 C 216.79705,329.96312 217.73046,329.14595 220.87723,333.58442 C 222.83682,336.3484 222.30284,332.25944 225.64261,332.82997 C 228.10591,333.25077 230.40806,332.94409 232.79948,332.21884 C 236.04181,331.23553 231.83587,330.38559 234.69807,328.57248 C 236.87033,327.19642 238.26849,328.63422 240.30839,327.06865 C 242.17911,323.27831 234.73021,318.47272 231.20253,317.48262 C 228.61656,317.35291 229.46829,312.94994 226.9501,312.34759 C 224.23281,311.69762 224.48192,311.7509 221.84019,310.84133 C 220.09725,310.24122 220.06959,307.58188 218.40254,306.79517 C 215.93599,305.63116 213.76873,307.41938 211.40659,306.0559 C 209.04446,304.69241 211.14477,301.95521 208.86165,300.46319 C 206.56448,298.96198 203.97927,297.614 201.6821,296.11279 C 199.39899,294.62076 199.2947,290.66703 196.79345,289.5796 C 193.08557,287.96757 189.84647,291.43311 186.13859,289.82109 C 183.91526,288.85448 179.27929,289.68136 178.33293,291.91339 C 177.84519,293.06375 178.31969,294.17544 177.65398,295.23282 C 170.18303,298.05594 174.53932,295.54628 174.44022,300.80043 C 173.75081,303.75143 172.63892,301.41789 172.54164,304.44679 C 172.43641,307.72304 178.5149,305.21287 179.59042,308.30934 C 180.92813,312.1607 179.30413,310.05918 181.9392,313.17027 C 185.90029,317.84691 183.25312,312.59934 188.77422,315.25994 z"
           style="fill:#553e28;fill-opacity:1;fill-rule:evenodd;stroke:#000000;stroke-width:0.99999994px;stroke-linecap:butt;stroke-linejoin:miter;stroke-opacity:1" />
        <path
           id="path3353"
           style="fill:#000000;fill-rule:evenodd;stroke:#000000;stroke-width:0.99999994px;stroke-linecap:butt;stroke-linejoin:miter;stroke-opacity:1"
           d="M 188.77422,315.25994 C 192.59622,317.10175 191.02521,318.5974 195.1566,319.56257 C 198.34859,320.30828 198.21116,318.71119 201.40315,319.4569 C 206.41985,320.6289 202.78362,323.34766 207.62461,325.10993 C 210.9577,326.32328 209.68808,328.32386 213.14443,329.12086 C 216.79705,329.96312 217.73046,329.14595 220.87723,333.58442 C 222.83682,336.3484 222.30284,332.25944 225.64261,332.82997 C 228.10591,333.25077 230.40806,332.94409 232.79948,332.21884 C 236.04181,331.23553 231.83587,330.38559 234.69807,328.57248 C 236.87033,327.19642 238.26849,328.63422 240.30839,327.06865 C 242.17911,323.27831 234.73021,318.47272 231.20253,317.48262 C 228.61656,317.35291 229.46829,312.94994 226.9501,312.34759 C 224.23281,311.69762 224.48192,311.7509 221.84019,310.84133 C 220.09725,310.24122 220.06959,307.58188 218.40254,306.79517 C 215.93599,305.63116 213.76873,307.41938 211.40659,306.0559 C 209.04446,304.69241 211.14477,301.95521 208.86165,300.46319 C 206.56448,298.96198 203.97927,297.614 201.6821,296.11279 C 199.39899,294.62076 199.2947,290.66703 196.79345,289.5796 C 193.08557,287.96757 189.84647,291.43311 186.13859,289.82109 C 183.91526,288.85448 179.27929,289.68136 178.33293,291.91339 C 177.84519,293.06375 178.31969,294.17544 177.65398,295.23282 C 170.18303,298.05594 174.53932,295.54628 174.44022,300.80043 C 173.75081,303.75143 172.63892,301.41789 172.54164,304.44679 C 172.43641,307.72304 178.5149,305.21287 179.59042,308.30934 C 180.92813,312.1607 179.30413,310.05918 181.9392,313.17027 C 185.90029,317.84691 183.25312,312.59934 188.77422,315.25994 z M 180.04926,285.88638 C 175.63605,286.44923 175.07761,292.17801 171.0859,293.57227 C 168.60619,296.51055 170.40364,300.88109 168.40205,304.07561 C 168.07507,308.66106 172.6934,310.25014 176.11327,310.9489 C 177.63727,314.13367 178.92105,318.3277 183.11309,318.77163 C 187.95808,318.10203 190.46243,322.98222 194.9348,323.66537 C 197.94435,324.12515 201.49289,322.16138 202.6607,326.26053 C 204.9287,329.00324 208.30769,330.61139 211.34187,332.5905 C 214.78749,333.40569 217.20103,334.97145 219.49423,337.60443 C 222.50505,339.95881 225.35597,336.40679 228.58808,336.91442 C 231.71995,336.76897 235.83907,336.55159 237.30938,333.25634 C 239.5977,330.6168 245.44743,330.98107 244.50896,326.05968 C 244.46586,321.14194 240.33219,317.49065 236.30884,315.33659 C 232.52391,314.80239 232.27972,309.6244 228.46978,308.91366 C 224.07642,308.3422 222.62996,303.33527 218.38628,302.8746 C 214.49364,303.33001 213.66094,299.8727 211.64379,297.67448 C 208.53134,295.08337 203.48197,294.05659 202.42844,289.5936 C 199.7463,284.97869 193.33709,284.12393 188.76386,286.17104 C 185.87242,286.00278 182.88328,284.66693 180.04926,285.88638 z" />
        <path
           d="M 81.5625,598.1875 C 80.441241,598.15225 79.763883,598.61984 79.90625,598.4375 C 79.911611,598.43063 79.842333,598.55752 79.65625,599.15625 C 79.470167,599.75498 79.080818,600.86719 78.09375,601.78125 C 77.673967,602.17935 77.136958,602.43142 76.5625,602.5 C 75.57953,602.59803 75.319173,602.60502 74.6875,602.65625 C 74.673168,603.39426 74.573702,604.21921 74.3125,605.125 C 74.258769,605.30939 74.185434,605.48749 74.09375,605.65625 C 73.652614,606.48051 73.16013,607.13404 72.46875,607.65625 C 73.205831,607.93434 74.137649,608.23318 75.125,608.90625 C 76.159342,609.61135 77.313263,611.03716 77.4375,612.75 C 77.518036,613.86035 77.507702,614.60566 77.46875,615.15625 C 77.447346,615.4588 77.450995,615.39267 77.4375,615.5 C 77.555271,615.76481 77.779931,616.22993 78.1875,617.09375 C 78.5103,617.7779 78.438901,617.65679 78.59375,617.90625 C 78.975298,617.86712 79.360066,617.79613 79.78125,617.875 C 81.067332,618.11583 82.202965,618.82918 83.5625,620 C 85.493944,621.66335 86.277138,623.40904 86.59375,624.09375 C 86.910362,624.77846 86.623324,624.64835 88.15625,625.46875 C 89.237231,626.04727 89.113145,625.91012 89.90625,625.90625 C 90.699355,625.90238 92.409652,626.0318 94.21875,627 C 95.620656,627.75028 96.672872,628.64934 97.3125,629.78125 C 97.952128,630.91316 97.980009,632.04398 98,632.625 C 98.019991,633.20602 98.06111,633.2693 98.09375,633.34375 C 98.12639,633.4182 98.215746,633.70069 99,634.25 C 100.93073,635.60233 101.76808,637.49326 102.0625,638.28125 C 102.35692,639.06924 101.96345,638.80747 103.03125,639.375 C 104.47382,640.14172 105.66815,640.40028 107.125,641.53125 C 108.31381,642.45414 109.1883,643.93107 110.03125,645.875 C 110.15073,645.83336 110.15018,645.78534 110.28125,645.75 C 111.34295,645.46373 112.75735,645.55346 114,646.125 C 115.50581,646.81757 117.0817,647.02817 118.84375,647.0625 C 118.89264,646.88427 118.85271,646.75152 118.9375,646.5625 C 119.50959,645.28713 120.7219,644.58872 121.90625,644.21875 C 123.78674,643.63131 125.51033,644.04331 126.3125,644.25 C 126.41776,644.27712 126.39318,644.22832 126.46875,644.25 C 126.33222,643.68977 125.9727,642.85605 125.375,641.96875 C 124.10023,640.07633 121.86793,638.07645 120.84375,637.46875 L 120.875,637.40625 C 119.79794,636.85565 118.90548,635.91152 118.5625,635.03125 C 118.16079,634.00024 118.14672,633.15067 118.09375,632.5 C 118.04337,631.88115 117.94854,631.47348 117.90625,631.3125 C 115.81951,630.18044 115.59192,630.037 113.40625,628.5625 C 111.62967,627.36401 111.30501,625.52322 111.09375,624.5625 C 110.88249,623.60178 110.68861,623.43586 110.875,623.59375 C 110.47002,623.25069 110.05027,623.17677 108.875,623 C 107.69973,622.82323 105.73046,622.48046 104.15625,620.90625 C 103.27582,620.02584 102.74256,618.77641 102.65625,617.75 C 102.56994,616.72359 102.79511,615.95673 102.90625,615.4375 C 103.00904,614.95729 103.02803,614.74454 103.03125,614.6875 C 101.33075,612.7921 99.195236,610.8296 97.25,608.65625 C 95.629963,606.84626 95.471947,604.83668 95.21875,603.46875 C 94.965553,602.10082 94.679798,601.52442 94.53125,601.40625 C 93.722485,600.76287 92.826167,600.75355 91.03125,600.75 C 89.236333,600.74645 86.542813,600.74868 84.1875,598.875 C 84.012871,598.73608 82.6842,598.22277 81.5625,598.1875 z"
           id="path3290"
           style="fill:#84613f;fill-opacity:1;fill-rule:evenodd;stroke:none;stroke-width:1px;stroke-linecap:butt;stroke-linejoin:miter;stroke-opacity:1;filter:url(#filter3300)"
           inkscape:original="M 81.65625 595.5 C 80.059601 595.4498 78.527242 595.8258 77.78125 596.78125 C 77.012299 597.76609 77.198028 598.96353 76.28125 599.8125 C 68.334108 600.60505 73.174823 599.32566 71.71875 604.375 C 70.288803 607.04685 69.815679 604.47457 68.9375 607.375 C 67.987606 610.51227 74.512865 609.66815 74.75 612.9375 C 75.044945 617.00391 74.010274 614.56275 75.75 618.25 C 78.365188 623.79272 77.168521 618.03191 81.8125 622.03125 C 85.02732 624.79984 83.13437 625.84183 86.875 627.84375 C 89.765081 629.39047 90.047422 627.82828 92.9375 629.375 C 97.479689 631.80593 93.249097 633.48194 97.46875 636.4375 C 100.37404 638.47243 98.649104 640.08529 101.78125 641.75 C 105.09125 643.50924 106.20345 642.96065 108.09375 648.0625 C 109.2709 651.23956 109.79682 647.14673 112.875 648.5625 C 115.14535 649.60671 117.4711 649.89386 119.96875 649.8125 C 123.35511 649.70217 119.48471 647.79149 122.71875 646.78125 C 125.17321 646.01451 126.15556 647.76529 128.53125 646.78125 C 131.31952 643.6045 125.36979 637.02594 122.21875 635.15625 C 119.75454 634.36143 121.71387 630.32754 119.4375 629.09375 C 116.98115 627.76239 117.22241 627.90628 114.90625 626.34375 C 113.37812 625.31287 114.03152 622.72275 112.625 621.53125 C 110.54393 619.76834 107.99107 620.92857 106.0625 619 C 104.13393 617.07146 106.88147 614.96977 105.0625 612.9375 C 103.23234 610.89274 101.08016 608.91978 99.25 606.875 C 97.431029 604.84275 98.353165 601.01045 96.21875 599.3125 C 93.054673 596.79543 89.039074 599.29831 85.875 596.78125 C 84.92637 596.0266 83.252899 595.5502 81.65625 595.5 z "
           inkscape:radius="-2.688102"
           sodipodi:type="inkscape:offset"
           transform="matrix(0.9659015,-0.2589096,0.2589096,0.9659015,-51.569601,-263.9388)" />
      </g>
      <g
         style="opacity:0"
         inkscape:export-ydpi="69.898193"
         inkscape:export-xdpi="69.898193"
         inkscape:export-filename="E:\Documents\Pictures\SMC_youngheart_drafts\big_furball3.png"
         transform="translate(-10,-269.28572)"
         id="g3696">
        <path
           style="fill:url(#linearGradient8692);fill-opacity:1;fill-rule:evenodd;stroke:#000000;stroke-width:1px;stroke-linecap:butt;stroke-linejoin:miter;stroke-opacity:1"
           d="M 242.60614,703.31478 C 240.04205,726.64328 251.17861,750.56986 269.54364,764.68978 C 281.92213,773.06026 301.24582,771.21815 309.04364,757.50228 C 319.02023,740.55763 316.77923,719.31606 313.19989,700.72103 C 289.66864,701.58561 266.13739,702.4502 242.60614,703.31478 z"
           id="path3630" />
        <path
           id="path3647"
           d="M 316.35213,730.6254 C 293.34867,732.89578 273.94168,741.62578 266.07504,752.26142 C 261.86512,759.25991 269.49613,767.97205 284.9337,769.5622 C 305.88835,772.68696 313.81009,762.86097 316.35213,730.6254 z"
           style="fill:url(#linearGradient8694);fill-opacity:1;fill-rule:evenodd;stroke:#000000;stroke-width:1px;stroke-linecap:butt;stroke-linejoin:miter;stroke-opacity:1"
           sodipodi:nodetypes="cccc" />
        <path
           style="fill:none;fill-rule:evenodd;stroke:#000000;stroke-width:1px;stroke-linecap:butt;stroke-linejoin:miter;stroke-opacity:1"
           d="M 275.71429,758.43361 C 279.21847,752.32949 273.64911,747.78084 308.57143,736.29075"
           id="path3657"
           sodipodi:nodetypes="cc" />
        <g
           inkscape:export-ydpi="90"
           inkscape:export-xdpi="90"
           inkscape:export-filename="E:\Documents\Pictures\SMC_youngheart_drafts\big_furball.png"
           transform="matrix(-0.514295,0,0,-0.3840402,331.64657,986.52165)"
           id="g3659"
           clip-path="url(#clipPath3692)">
          <path
             style="fill:none;fill-rule:evenodd;stroke:#000000;stroke-width:2.25011897px;stroke-linecap:butt;stroke-linejoin:miter;stroke-opacity:1"
             d="M 65.154838,592.2377 C 57.966757,592.74277 44.778877,590.12589 37.375643,591.22755 C 32.49779,597.88505 52.357029,637.43381 58.588846,634.66411 C 66.8654,620.52197 64.261699,606.37984 65.154838,592.2377 z"
             id="path3661" />
          <path
             style="fill:#000000;fill-rule:evenodd;stroke:#000000;stroke-width:2.25011897px;stroke-linecap:butt;stroke-linejoin:miter;stroke-opacity:1"
             d="M 37.836784,587.55169 C 32.595785,586.53281 32.785033,593.68983 32.649284,597.42669 C 34.345629,609.05102 40.797399,619.39497 46.243034,629.55169 C 49.043675,634.00634 54.575817,640.1585 60.243034,637.77044 C 66.161333,633.34133 66.192492,624.99562 67.930534,618.45794 C 69.314193,608.57828 68.003288,581.69091 66.340306,571.71862 C 55.907502,571.63436 48.273345,587.40509 37.836784,587.55169 z"
             id="path3663"
             sodipodi:nodetypes="ccccccc" />
          <path
             id="path3665"
             d="M 63.418756,573.17348 C 56.230679,573.67855 44.778879,590.12589 37.375645,591.22755 C 32.497792,597.88505 52.357031,637.43381 58.588848,634.66411 C 66.865406,620.52197 67.38664,604.51992 63.418756,573.17348 z"
             style="fill:#e9ddaf;fill-rule:evenodd;stroke:none;stroke-width:1px;stroke-linecap:butt;stroke-linejoin:miter;stroke-opacity:1"
             sodipodi:nodetypes="cccc" />
        </g>
        <g
           inkscape:export-ydpi="90"
           inkscape:export-xdpi="90"
           inkscape:export-filename="E:\Documents\Pictures\SMC_youngheart_drafts\big_furball.png"
           id="g3667"
           transform="matrix(-0.6392459,-8.0298918e-2,0.2020959,-0.4255445,170.01003,1016.4916)"
           clip-path="url(#clipPath3688)">
          <path
             id="path3669"
             d="M 65.154838,592.2377 C 57.966757,592.74277 44.778877,590.12589 37.375643,591.22755 C 32.49779,597.88505 52.357029,637.43381 58.588846,634.66411 C 66.8654,620.52197 64.261699,606.37984 65.154838,592.2377 z"
             style="fill:none;fill-rule:evenodd;stroke:#000000;stroke-width:1.86256325px;stroke-linecap:butt;stroke-linejoin:miter;stroke-opacity:1" />
          <path
             id="path3671"
             d="M 37.836784,587.55169 C 32.595785,586.53281 32.785033,593.68983 32.649284,597.42669 C 34.345629,609.05102 40.797399,619.39497 46.243034,629.55169 C 49.043675,634.00634 54.575817,640.1585 60.243034,637.77044 C 66.161333,633.34133 66.192492,624.99562 67.930534,618.45794 C 69.314193,608.57828 68.350504,598.43023 69.118034,588.45794 C 58.68523,588.37368 48.273345,587.40509 37.836784,587.55169 z"
             style="fill:#000000;fill-rule:evenodd;stroke:#000000;stroke-width:1.86256325px;stroke-linecap:butt;stroke-linejoin:miter;stroke-opacity:1" />
          <path
             style="fill:#e9ddaf;fill-rule:evenodd;stroke:none;stroke-width:1px;stroke-linecap:butt;stroke-linejoin:miter;stroke-opacity:1"
             d="M 65.154836,592.2377 C 57.966759,592.74277 44.778879,590.12589 37.375645,591.22755 C 32.497792,597.88505 52.357031,637.43381 58.588848,634.66411 C 66.865406,620.52197 64.261696,606.37984 65.154836,592.2377 z"
             id="path3673" />
        </g>
        <path
           id="path3677"
           style="fill:#000000;fill-rule:evenodd;stroke:#000000;stroke-width:1px;stroke-linecap:butt;stroke-linejoin:miter;stroke-opacity:1"
           d="M 239.28571,699.50504 C 232.70809,727.88806 256.18752,773.23002 285,773.79075 C 324.23563,774.55432 323.77983,724.76629 316.42857,696.6479 M 242.73214,703.36607 C 240.16805,726.69457 251.30461,750.62115 269.66964,764.74107 C 282.04813,773.11155 301.37182,771.26944 309.16964,757.55357 C 319.14623,740.60892 316.90523,719.36735 313.32589,700.77232 C 289.79464,701.6369 266.26339,702.50149 242.73214,703.36607 z" />
      </g>
      <g
         inkscape:export-ydpi="69.898193"
         inkscape:export-xdpi="69.898193"
         inkscape:export-filename="E:\Documents\Pictures\SMC_youngheart_drafts\big_furball3.png"
         transform="matrix(1,0,0,0.7467315,168.69549,-9.53974)"
         id="g3458"
         style="opacity:1">
        <path
           style="fill:none;fill-rule:evenodd;stroke:#000000;stroke-width:1.15722489px;stroke-linecap:butt;stroke-linejoin:miter;stroke-opacity:1"
           d="M 65.154838,592.2377 C 57.966757,592.74277 44.778877,590.12589 37.375643,591.22755 C 32.49779,597.88505 52.357029,637.43381 58.588846,634.66411 C 66.8654,620.52197 64.261699,606.37984 65.154838,592.2377 z"
           id="path3454" />
        <path
           style="fill:#000000;fill-rule:evenodd;stroke:#000000;stroke-width:1.15722489px;stroke-linecap:butt;stroke-linejoin:miter;stroke-opacity:1"
           d="M 37.836784,587.55169 C 32.595785,586.53281 32.785033,593.68983 32.649284,597.42669 C 34.345629,609.05102 40.797399,619.39497 46.243034,629.55169 C 49.043675,634.00634 54.575817,640.1585 60.243034,637.77044 C 66.161333,633.34133 66.192492,624.99562 67.930534,618.45794 C 69.314193,608.57828 68.350504,598.43023 69.118034,588.45794 C 58.68523,588.37368 48.273345,587.40509 37.836784,587.55169 z"
           id="path3388" />
        <path
           id="path3456"
           d="M 65.154836,592.2377 C 57.966759,592.74277 44.778879,590.12589 37.375645,591.22755 C 32.497792,597.88505 52.357031,637.43381 58.588848,634.66411 C 66.865406,620.52197 64.261696,606.37984 65.154836,592.2377 z"
           style="fill:#e9ddaf;fill-rule:evenodd;stroke:none;stroke-width:1px;stroke-linecap:butt;stroke-linejoin:miter;stroke-opacity:1" />
      </g>
      <g
         inkscape:export-ydpi="69.898193"
         inkscape:export-xdpi="69.898193"
         inkscape:export-filename="E:\Documents\Pictures\SMC_youngheart_drafts\big_furball3.png"
         id="g3463"
         transform="matrix(-0.9530248,0.1136298,0.3012962,0.6021817,154.76039,71.332265)"
         style="opacity:1">
        <path
           id="path3465"
           d="M 65.154838,592.2377 C 57.966757,592.74277 44.778877,590.12589 37.375643,591.22755 C 32.49779,597.88505 52.357029,637.43381 58.588846,634.66411 C 66.8654,620.52197 64.261699,606.37984 65.154838,592.2377 z"
           style="fill:none;fill-rule:evenodd;stroke:#000000;stroke-width:1.2823354px;stroke-linecap:butt;stroke-linejoin:miter;stroke-opacity:1" />
        <path
           id="path3467"
           d="M 37.836784,587.55169 C 32.595785,586.53281 32.785033,593.68983 32.649284,597.42669 C 34.345629,609.05102 40.797399,619.39497 46.243034,629.55169 C 49.043675,634.00634 54.575817,640.1585 60.243034,637.77044 C 66.161333,633.34133 66.192492,624.99562 67.930534,618.45794 C 69.314193,608.57828 68.350504,598.43023 69.118034,588.45794 C 58.68523,588.37368 48.273345,587.40509 37.836784,587.55169 z"
           style="fill:#000000;fill-rule:evenodd;stroke:#000000;stroke-width:1.2823354px;stroke-linecap:butt;stroke-linejoin:miter;stroke-opacity:1" />
        <path
           style="fill:#e9ddaf;fill-rule:evenodd;stroke:none;stroke-width:1px;stroke-linecap:butt;stroke-linejoin:miter;stroke-opacity:1"
           d="M 65.154836,592.2377 C 57.966759,592.74277 44.778879,590.12589 37.375645,591.22755 C 32.497792,597.88505 52.357031,637.43381 58.588848,634.66411 C 66.865406,620.52197 64.261696,606.37984 65.154836,592.2377 z"
           id="path3469" />
      </g>
      <g
         id="g3587">
        <path
           style="opacity:1;fill:url(#linearGradient3585);fill-opacity:1;fill-rule:evenodd;stroke:none;stroke-width:0.99999994000000003px;stroke-linecap:butt;stroke-linejoin:miter;stroke-opacity:1"
           d="M 314.96199,421.81506 C 306.6255,411.59255 192.85648,410.22336 184.2118,421.81506 C 179.60773,427.34584 183.79206,446.34773 189.92609,454.30067 C 191.48972,452.31665 187.95145,447.79107 189.49105,445.78743 C 190.11522,444.97512 198.55013,451.83286 200.60546,451.75933 C 198.88991,447.80775 192.24184,439.86744 203.62007,440.09848 C 198.68653,443.28517 210.37059,445.03314 212.1915,447.43181 C 214.28339,442.89221 210.475,435.06941 214.45691,434.05787 C 218.3763,435.97246 223.10157,434.63058 225.17119,441.72453 C 229.03142,438.77186 226.56793,432.18988 235.96471,430.98697 C 236.35643,432.80396 238.07178,436.31826 247.10484,439.0274 C 242.48272,431.58525 251.15955,429.41919 257.81913,437.36074 C 259.60485,432.91629 265.43818,431.24964 270.67627,437.69407 C 272.81887,432.10096 277.12365,430.88026 282.10484,431.02741 C 281.38994,434.17565 282.47723,435.15466 289.96199,437.02741 C 288.1631,434.5005 287.19736,432.02913 291.97628,429.94074 C 294.94297,431.30231 297.29893,437.0845 297.43047,440.21017 L 300.67627,434.40135 C 306.25864,434.62019 307.26464,438.5764 309.2477,441.73468 C 315.01569,437.06802 314.71218,426.48173 314.96199,421.81506 z"
           id="path3376"
           sodipodi:nodetypes="cccscccccccccccccccc"
           inkscape:export-filename="E:\Documents\Pictures\SMC_youngheart_drafts\big_furball3.png"
           inkscape:export-xdpi="69.898193"
           inkscape:export-ydpi="69.898193" />
        <path
           id="path3392"
           style="opacity:1;fill:#000000;fill-opacity:1;fill-rule:evenodd;stroke:#000000;stroke-width:0.99999994px;stroke-linecap:butt;stroke-linejoin:miter;stroke-opacity:1"
           d="M 318.82571,418.30489 C 319.06329,411.05843 314.95926,417.65347 314.70945,422.32014 C 314.45964,426.98681 314.76315,437.5731 308.99516,442.23976 C 307.0121,439.08148 306.0061,435.12527 300.42373,434.90643 L 297.17793,440.71525 C 297.04639,437.58958 294.69043,431.80739 291.72374,430.44582 C 286.94482,432.53421 287.91056,435.00558 289.70945,437.53249 C 282.22469,435.65974 281.1374,434.68073 281.8523,431.53249 C 276.87111,431.38534 272.56633,432.60604 270.42373,438.19915 C 265.18564,431.75472 259.35231,433.42137 257.56659,437.86582 C 250.90701,429.92427 242.23018,432.09033 246.8523,439.53248 C 237.81924,436.82334 236.10389,433.30904 235.71217,431.49205 C 226.31539,432.69496 228.77888,439.27694 224.91865,442.22961 C 222.84903,435.13566 218.12376,436.47754 214.20437,434.56295 C 210.22246,435.57449 214.03085,443.39729 211.93896,447.93689 C 210.11805,445.53822 198.43399,443.79025 203.36753,440.60356 C 191.9893,440.37252 198.63737,448.31283 200.35292,452.26441 C 198.29759,452.33794 189.86268,445.4802 189.23851,446.29251 C 187.69891,448.29615 191.23718,452.82173 189.67355,454.80575 C 183.53952,446.85281 179.35519,427.85092 183.95926,422.32014 C 187.27576,419.5791 186.31226,413.89896 181.82571,418.30489 C 174.69023,428.45017 178.94855,440.72256 182.97725,451.07057 C 184.74861,454.19417 187.18507,460.66474 190.38072,460.5234 C 194.18784,459.04223 192.53881,451.16822 196.85976,455.24624 C 200.35707,457.05839 209.67807,458.71949 205.01579,452.41635 C 203.47936,450.04505 201.7428,446.47148 205.90443,449.12443 C 209.30955,449.33931 211.9977,455.06729 213.5476,454.43442 C 217.13778,450.35809 215.97832,442.9233 217.08669,439.42637 C 222.08784,439.93145 221.04929,450.98087 227.1115,445.99855 C 230.92578,443.90366 231.39234,432.13345 236.22935,438.84845 C 241.37685,442.92634 248.09591,443.73252 254.10696,445.89864 C 254.79582,442.90637 249.72159,438.27214 251.08384,437.53937 C 254.67197,439.12618 257.72619,445.39328 259.81786,446.02417 C 258.37007,441.61687 263.27864,434.49934 266.77912,440.46339 C 269.35624,444.71911 274.64555,443.38891 274.78281,438.36675 C 278.20399,432.31494 281.69316,441.76205 286.63829,440.80636 C 291.53383,440.926 294.94612,443.59918 293.43729,448.72284 C 293.79172,455.86514 299.7447,445.98824 300.11595,443.19256 C 300.92381,439.60942 303.75728,439.13799 304.66122,443.00722 C 307.27078,450.04648 314.18463,444.64718 315.70106,439.8817 C 318.90837,433.17435 318.58813,425.55135 318.82571,418.30489 z"
           sodipodi:nodetypes="cccccccccccccccccsccccccccccccccccccccccc"
           inkscape:export-filename="E:\Documents\Pictures\SMC_youngheart_drafts\big_furball3.png"
           inkscape:export-xdpi="69.898193"
           inkscape:export-ydpi="69.898193" />
      </g>
      <g
         transform="translate(0,5)"
         inkscape:export-ydpi="69.898193"
         inkscape:export-xdpi="69.898193"
         inkscape:export-filename="E:\Documents\Pictures\SMC_youngheart_drafts\big_furball3.png"
         id="g3593"
         style="opacity:1">
        <path
           inkscape:export-ydpi="69.930099"
           inkscape:export-xdpi="69.930099"
           inkscape:export-filename="E:\Documents\Pictures\SMC_youngheart_drafts\big_furball2.png"
           transform="matrix(0.7811336,0,0,0.7811336,235.1598,130.0152)"
           d="M 80,263.79074 A 30,30 0 1 1 20,263.79074 A 30,30 0 1 1 80,263.79074 z"
           sodipodi:ry="30"
           sodipodi:rx="30"
           sodipodi:cy="263.79074"
           sodipodi:cx="50"
           id="path3324"
           style="opacity:1;fill:#ffffff;fill-opacity:1;stroke:#000000;stroke-width:3.84057212;stroke-linecap:square;stroke-miterlimit:4;stroke-dasharray:none;stroke-opacity:1"
           sodipodi:type="arc" />
        <path
           inkscape:export-ydpi="69.930099"
           inkscape:export-xdpi="69.930099"
           inkscape:export-filename="E:\Documents\Pictures\SMC_youngheart_drafts\big_furball2.png"
           sodipodi:type="arc"
           style="opacity:1;fill:#000000;fill-opacity:1;stroke:#000000;stroke-width:7.16906786;stroke-linecap:square;stroke-miterlimit:4;stroke-dasharray:none;stroke-opacity:1"
           id="path3326"
           sodipodi:cx="50"
           sodipodi:cy="263.79074"
           sodipodi:rx="30"
           sodipodi:ry="30"
           d="M 80,263.79074 A 30,30 0 1 1 20,263.79074 A 30,30 0 1 1 80,263.79074 z"
           transform="matrix(0.4184644,0,0,0.4184644,247.9927,233.21634)" />
        <path
           inkscape:export-ydpi="69.930099"
           inkscape:export-xdpi="69.930099"
           inkscape:export-filename="E:\Documents\Pictures\SMC_youngheart_drafts\big_furball2.png"
           transform="matrix(0.1441377,0,0,0.1162401,259.89569,303.87358)"
           d="M 80,263.79074 A 30,30 0 1 1 20,263.79074 A 30,30 0 1 1 80,263.79074 z"
           sodipodi:ry="30"
           sodipodi:rx="30"
           sodipodi:cy="263.79074"
           sodipodi:cx="50"
           id="path3328"
           style="opacity:0.74519228;fill:#ffffff;fill-opacity:1;stroke:none;stroke-width:12.49117565;stroke-linecap:square;stroke-miterlimit:4;stroke-dasharray:none;stroke-opacity:1;filter:url(#filter3347)"
           sodipodi:type="arc" />
      </g>
      <g
         inkscape:export-ydpi="69.898193"
         inkscape:export-xdpi="69.898193"
         inkscape:export-filename="E:\Documents\Pictures\SMC_youngheart_drafts\big_furball3.png"
         transform="matrix(-1,0,0,1,473.70989,5)"
         id="g3605"
         style="opacity:1">
        <path
           style="fill:#553e28;fill-opacity:1;fill-rule:evenodd;stroke:#000000;stroke-width:0.99999994px;stroke-linecap:butt;stroke-linejoin:miter;stroke-opacity:1"
           d="M 188.77422,315.25994 C 192.59622,317.10175 191.02521,318.5974 195.1566,319.56257 C 198.34859,320.30828 198.21116,318.71119 201.40315,319.4569 C 206.41985,320.6289 202.78362,323.34766 207.62461,325.10993 C 210.9577,326.32328 209.68808,328.32386 213.14443,329.12086 C 216.79705,329.96312 217.73046,329.14595 220.87723,333.58442 C 222.83682,336.3484 222.30284,332.25944 225.64261,332.82997 C 228.10591,333.25077 230.40806,332.94409 232.79948,332.21884 C 236.04181,331.23553 231.83587,330.38559 234.69807,328.57248 C 236.87033,327.19642 238.26849,328.63422 240.30839,327.06865 C 242.17911,323.27831 234.73021,318.47272 231.20253,317.48262 C 228.61656,317.35291 229.46829,312.94994 226.9501,312.34759 C 224.23281,311.69762 224.48192,311.7509 221.84019,310.84133 C 220.09725,310.24122 220.06959,307.58188 218.40254,306.79517 C 215.93599,305.63116 213.76873,307.41938 211.40659,306.0559 C 209.04446,304.69241 211.14477,301.95521 208.86165,300.46319 C 206.56448,298.96198 203.97927,297.614 201.6821,296.11279 C 199.39899,294.62076 199.2947,290.66703 196.79345,289.5796 C 193.08557,287.96757 189.84647,291.43311 186.13859,289.82109 C 183.91526,288.85448 179.27929,289.68136 178.33293,291.91339 C 177.84519,293.06375 178.31969,294.17544 177.65398,295.23282 C 170.18303,298.05594 174.53932,295.54628 174.44022,300.80043 C 173.75081,303.75143 172.63892,301.41789 172.54164,304.44679 C 172.43641,307.72304 178.5149,305.21287 179.59042,308.30934 C 180.92813,312.1607 179.30413,310.05918 181.9392,313.17027 C 185.90029,317.84691 183.25312,312.59934 188.77422,315.25994 z"
           id="path3607"
           sodipodi:nodetypes="cssssssssccsssssssssccssss" />
        <path
           d="M 188.77422,315.25994 C 192.59622,317.10175 191.02521,318.5974 195.1566,319.56257 C 198.34859,320.30828 198.21116,318.71119 201.40315,319.4569 C 206.41985,320.6289 202.78362,323.34766 207.62461,325.10993 C 210.9577,326.32328 209.68808,328.32386 213.14443,329.12086 C 216.79705,329.96312 217.73046,329.14595 220.87723,333.58442 C 222.83682,336.3484 222.30284,332.25944 225.64261,332.82997 C 228.10591,333.25077 230.40806,332.94409 232.79948,332.21884 C 236.04181,331.23553 231.83587,330.38559 234.69807,328.57248 C 236.87033,327.19642 238.26849,328.63422 240.30839,327.06865 C 242.17911,323.27831 234.73021,318.47272 231.20253,317.48262 C 228.61656,317.35291 229.46829,312.94994 226.9501,312.34759 C 224.23281,311.69762 224.48192,311.7509 221.84019,310.84133 C 220.09725,310.24122 220.06959,307.58188 218.40254,306.79517 C 215.93599,305.63116 213.76873,307.41938 211.40659,306.0559 C 209.04446,304.69241 211.14477,301.95521 208.86165,300.46319 C 206.56448,298.96198 203.97927,297.614 201.6821,296.11279 C 199.39899,294.62076 199.2947,290.66703 196.79345,289.5796 C 193.08557,287.96757 189.84647,291.43311 186.13859,289.82109 C 183.91526,288.85448 179.27929,289.68136 178.33293,291.91339 C 177.84519,293.06375 178.31969,294.17544 177.65398,295.23282 C 170.18303,298.05594 174.53932,295.54628 174.44022,300.80043 C 173.75081,303.75143 172.63892,301.41789 172.54164,304.44679 C 172.43641,307.72304 178.5149,305.21287 179.59042,308.30934 C 180.92813,312.1607 179.30413,310.05918 181.9392,313.17027 C 185.90029,317.84691 183.25312,312.59934 188.77422,315.25994 z M 180.04926,285.88638 C 175.63605,286.44923 175.07761,292.17801 171.0859,293.57227 C 168.60619,296.51055 170.40364,300.88109 168.40205,304.07561 C 168.07507,308.66106 172.6934,310.25014 176.11327,310.9489 C 177.63727,314.13367 178.92105,318.3277 183.11309,318.77163 C 187.95808,318.10203 190.46243,322.98222 194.9348,323.66537 C 197.94435,324.12515 201.49289,322.16138 202.6607,326.26053 C 204.9287,329.00324 208.30769,330.61139 211.34187,332.5905 C 214.78749,333.40569 217.20103,334.97145 219.49423,337.60443 C 222.50505,339.95881 225.35597,336.40679 228.58808,336.91442 C 231.71995,336.76897 235.83907,336.55159 237.30938,333.25634 C 239.5977,330.6168 245.44743,330.98107 244.50896,326.05968 C 244.46586,321.14194 240.33219,317.49065 236.30884,315.33659 C 232.52391,314.80239 232.27972,309.6244 228.46978,308.91366 C 224.07642,308.3422 222.62996,303.33527 218.38628,302.8746 C 214.49364,303.33001 213.66094,299.8727 211.64379,297.67448 C 208.53134,295.08337 203.48197,294.05659 202.42844,289.5936 C 199.7463,284.97869 193.33709,284.12393 188.76386,286.17104 C 185.87242,286.00278 182.88328,284.66693 180.04926,285.88638 z"
           style="fill:#000000;fill-rule:evenodd;stroke:#000000;stroke-width:0.99999994px;stroke-linecap:butt;stroke-linejoin:miter;stroke-opacity:1"
           id="path3609" />
        <path
           transform="matrix(0.9659015,-0.2589096,0.2589096,0.9659015,-51.569601,-263.9388)"
           sodipodi:type="inkscape:offset"
           inkscape:radius="-2.688102"
           inkscape:original="M 81.65625 595.5 C 80.059601 595.4498 78.527242 595.8258 77.78125 596.78125 C 77.012299 597.76609 77.198028 598.96353 76.28125 599.8125 C 68.334108 600.60505 73.174823 599.32566 71.71875 604.375 C 70.288803 607.04685 69.815679 604.47457 68.9375 607.375 C 67.987606 610.51227 74.512865 609.66815 74.75 612.9375 C 75.044945 617.00391 74.010274 614.56275 75.75 618.25 C 78.365188 623.79272 77.168521 618.03191 81.8125 622.03125 C 85.02732 624.79984 83.13437 625.84183 86.875 627.84375 C 89.765081 629.39047 90.047422 627.82828 92.9375 629.375 C 97.479689 631.80593 93.249097 633.48194 97.46875 636.4375 C 100.37404 638.47243 98.649104 640.08529 101.78125 641.75 C 105.09125 643.50924 106.20345 642.96065 108.09375 648.0625 C 109.2709 651.23956 109.79682 647.14673 112.875 648.5625 C 115.14535 649.60671 117.4711 649.89386 119.96875 649.8125 C 123.35511 649.70217 119.48471 647.79149 122.71875 646.78125 C 125.17321 646.01451 126.15556 647.76529 128.53125 646.78125 C 131.31952 643.6045 125.36979 637.02594 122.21875 635.15625 C 119.75454 634.36143 121.71387 630.32754 119.4375 629.09375 C 116.98115 627.76239 117.22241 627.90628 114.90625 626.34375 C 113.37812 625.31287 114.03152 622.72275 112.625 621.53125 C 110.54393 619.76834 107.99107 620.92857 106.0625 619 C 104.13393 617.07146 106.88147 614.96977 105.0625 612.9375 C 103.23234 610.89274 101.08016 608.91978 99.25 606.875 C 97.431029 604.84275 98.353165 601.01045 96.21875 599.3125 C 93.054673 596.79543 89.039074 599.29831 85.875 596.78125 C 84.92637 596.0266 83.252899 595.5502 81.65625 595.5 z "
           style="fill:#84613f;fill-opacity:1;fill-rule:evenodd;stroke:none;stroke-width:1px;stroke-linecap:butt;stroke-linejoin:miter;stroke-opacity:1;filter:url(#filter3300)"
           id="path3611"
           d="M 81.5625,598.1875 C 80.441241,598.15225 79.763883,598.61984 79.90625,598.4375 C 79.911611,598.43063 79.842333,598.55752 79.65625,599.15625 C 79.470167,599.75498 79.080818,600.86719 78.09375,601.78125 C 77.673967,602.17935 77.136958,602.43142 76.5625,602.5 C 75.57953,602.59803 75.319173,602.60502 74.6875,602.65625 C 74.673168,603.39426 74.573702,604.21921 74.3125,605.125 C 74.258769,605.30939 74.185434,605.48749 74.09375,605.65625 C 73.652614,606.48051 73.16013,607.13404 72.46875,607.65625 C 73.205831,607.93434 74.137649,608.23318 75.125,608.90625 C 76.159342,609.61135 77.313263,611.03716 77.4375,612.75 C 77.518036,613.86035 77.507702,614.60566 77.46875,615.15625 C 77.447346,615.4588 77.450995,615.39267 77.4375,615.5 C 77.555271,615.76481 77.779931,616.22993 78.1875,617.09375 C 78.5103,617.7779 78.438901,617.65679 78.59375,617.90625 C 78.975298,617.86712 79.360066,617.79613 79.78125,617.875 C 81.067332,618.11583 82.202965,618.82918 83.5625,620 C 85.493944,621.66335 86.277138,623.40904 86.59375,624.09375 C 86.910362,624.77846 86.623324,624.64835 88.15625,625.46875 C 89.237231,626.04727 89.113145,625.91012 89.90625,625.90625 C 90.699355,625.90238 92.409652,626.0318 94.21875,627 C 95.620656,627.75028 96.672872,628.64934 97.3125,629.78125 C 97.952128,630.91316 97.980009,632.04398 98,632.625 C 98.019991,633.20602 98.06111,633.2693 98.09375,633.34375 C 98.12639,633.4182 98.215746,633.70069 99,634.25 C 100.93073,635.60233 101.76808,637.49326 102.0625,638.28125 C 102.35692,639.06924 101.96345,638.80747 103.03125,639.375 C 104.47382,640.14172 105.66815,640.40028 107.125,641.53125 C 108.31381,642.45414 109.1883,643.93107 110.03125,645.875 C 110.15073,645.83336 110.15018,645.78534 110.28125,645.75 C 111.34295,645.46373 112.75735,645.55346 114,646.125 C 115.50581,646.81757 117.0817,647.02817 118.84375,647.0625 C 118.89264,646.88427 118.85271,646.75152 118.9375,646.5625 C 119.50959,645.28713 120.7219,644.58872 121.90625,644.21875 C 123.78674,643.63131 125.51033,644.04331 126.3125,644.25 C 126.41776,644.27712 126.39318,644.22832 126.46875,644.25 C 126.33222,643.68977 125.9727,642.85605 125.375,641.96875 C 124.10023,640.07633 121.86793,638.07645 120.84375,637.46875 L 120.875,637.40625 C 119.79794,636.85565 118.90548,635.91152 118.5625,635.03125 C 118.16079,634.00024 118.14672,633.15067 118.09375,632.5 C 118.04337,631.88115 117.94854,631.47348 117.90625,631.3125 C 115.81951,630.18044 115.59192,630.037 113.40625,628.5625 C 111.62967,627.36401 111.30501,625.52322 111.09375,624.5625 C 110.88249,623.60178 110.68861,623.43586 110.875,623.59375 C 110.47002,623.25069 110.05027,623.17677 108.875,623 C 107.69973,622.82323 105.73046,622.48046 104.15625,620.90625 C 103.27582,620.02584 102.74256,618.77641 102.65625,617.75 C 102.56994,616.72359 102.79511,615.95673 102.90625,615.4375 C 103.00904,614.95729 103.02803,614.74454 103.03125,614.6875 C 101.33075,612.7921 99.195236,610.8296 97.25,608.65625 C 95.629963,606.84626 95.471947,604.83668 95.21875,603.46875 C 94.965553,602.10082 94.679798,601.52442 94.53125,601.40625 C 93.722485,600.76287 92.826167,600.75355 91.03125,600.75 C 89.236333,600.74645 86.542813,600.74868 84.1875,598.875 C 84.012871,598.73608 82.6842,598.22277 81.5625,598.1875 z" />
      </g>
    </g>
    <rect
       style="opacity:0;fill:#000000;fill-opacity:1;stroke:none;stroke-width:0.25000000000000000;stroke-linecap:butt;stroke-miterlimit:4;stroke-dasharray:none;stroke-dashoffset:0;stroke-opacity:1"
       id="rect3952"
       width="447.797"
       height="447.797"
       x="149.44276"
       y="193.10875"
       rx="4.5077524"
       ry="1.3089085"
       inkscape:export-filename="E:\Documents\Pictures\SMC_youngheart_drafts\big_furball\big_furball_fr09.png"
       inkscape:export-xdpi="102.9"
       inkscape:export-ydpi="102.9" />
  </g>
</svg>
