<?xml version="1.0" encoding="UTF-8" standalone="no"?>
<!-- Created with Inkscape (http://www.inkscape.org/) -->

<svg
   xmlns:dc="http://purl.org/dc/elements/1.1/"
   xmlns:cc="http://creativecommons.org/ns#"
   xmlns:rdf="http://www.w3.org/1999/02/22-rdf-syntax-ns#"
   xmlns:svg="http://www.w3.org/2000/svg"
   xmlns="http://www.w3.org/2000/svg"
   xmlns:xlink="http://www.w3.org/1999/xlink"
   xmlns:sodipodi="http://sodipodi.sourceforge.net/DTD/sodipodi-0.dtd"
   xmlns:inkscape="http://www.inkscape.org/namespaces/inkscape"
   width="512"
   height="512"
   id="svg2"
   version="1.1"
   inkscape:version="0.48.0 r9654"
   sodipodi:docname="snow_window_2.svg"
   inkscape:export-filename="medium_2.png"
   inkscape:export-xdpi="90"
   inkscape:export-ydpi="90">
  <defs
     id="defs4">
    <filter
       inkscape:collect="always"
       id="filter3802"
       x="-0.31513749"
       width="1.630275"
       y="-0.31825767"
       height="1.6365153"
       inkscape:label="blur_snow_hard">
      <feGaussianBlur
         inkscape:collect="always"
         stdDeviation="20.203785"
         id="feGaussianBlur3804" />
    </filter>
    <filter
       color-interpolation-filters="sRGB"
       inkscape:collect="always"
       id="filter3738-2"
       x="-0.67149574"
       width="2.3429916"
       y="-1.0122629"
       height="3.0245259"
       inkscape:label="blur_snow_light">
      <feGaussianBlur
         inkscape:collect="always"
         stdDeviation="8.7087842"
         id="feGaussianBlur3740-6" />
    </filter>
    <clipPath
       clipPathUnits="userSpaceOnUse"
       id="clipPath4280">
      <rect
         style="fill:#53ff57;fill-opacity:0.50196078;stroke:none"
         id="rect4282"
         width="460.63333"
         height="513.96667"
         x="28.35"
         y="540.97852"
         ry="0" />
    </clipPath>
  </defs>
  <sodipodi:namedview
     id="base"
     pagecolor="#000651"
     bordercolor="#666666"
     borderopacity="1.0"
     inkscape:pageopacity="0"
     inkscape:pageshadow="2"
     inkscape:zoom="0.66291261"
     inkscape:cx="222.86967"
     inkscape:cy="328.05509"
     inkscape:document-units="px"
     inkscape:current-layer="g4176"
     showgrid="false"
     inkscape:window-width="905"
     inkscape:window-height="712"
     inkscape:window-x="94"
     inkscape:window-y="64"
     inkscape:window-maximized="0" />
  <metadata
     id="metadata7">
    <rdf:RDF>
      <cc:Work
         rdf:about="">
        <dc:format>image/svg+xml</dc:format>
        <dc:type
           rdf:resource="http://purl.org/dc/dcmitype/StillImage" />
        <dc:title></dc:title>
      </cc:Work>
    </rdf:RDF>
  </metadata>
  <g
     inkscape:label="1"
     inkscape:groupmode="layer"
     id="layer1"
     transform="translate(0,-540.36218)">
    <path
       style="fill:#ffffff;fill-opacity:1;stroke:none"
       d=""
       id="path3652"
       transform="translate(0,540.36218)" />
    <g
       id="g3219">
      <g
         id="g4176"
         clip-path="url(#clipPath4280)">
        <g
           id="g3810"
           transform="matrix(-1,0,0,1,292.64793,0)">
          <path
             transform="matrix(1.0317434,0,0,1.0815627,-7.7575807,526.79097)"
             d="m 226.27418,138.64761 c 0,42.07249 -34.44418,76.17897 -76.93322,76.17897 -42.48905,0 -76.933222,-34.10648 -76.933222,-76.17897 0,-42.07248 34.444172,-76.178967 76.933222,-76.178967 42.48904,0 76.93322,34.106487 76.93322,76.178967 z"
             sodipodi:ry="76.17897"
             sodipodi:rx="76.93322"
             sodipodi:cy="138.64761"
             sodipodi:cx="149.34096"
             id="path3624"
             style="fill:none;stroke:#ffffff;stroke-width:20.39999962;stroke-linecap:butt;stroke-linejoin:round;stroke-miterlimit:4;stroke-opacity:1;stroke-dasharray:none;filter:url(#filter3802)"
             sodipodi:type="arc" />
          <path
             style="fill:#ffffff;fill-opacity:1;stroke:none;filter:url(#filter3738-2)"
             d="m 184.97118,781.59398 c 4.34924,-5.54694 9.48722,-10.39598 14.2376,-15.58612 2.30084,-0.31356 5.34146,2.23637 4.58712,-1.89899 2.03637,-2.83552 6.90952,1.74913 9.04296,-2.58788 4.48273,-3.2391 9.34598,-6.03898 13.21968,-10.04342 5.15553,-1.65653 10.81682,-0.71947 15.88023,-2.78808 3.61623,-1.11425 -3.81697,-4.99551 1.39183,-4.07541 3.72808,0.26519 9.04086,-0.10904 8.03766,5.51432 -0.73209,5.15412 0.29857,10.26944 -0.2752,15.44006 -0.25456,4.12763 -0.77147,8.24397 -1.65392,12.28607 -3.91577,4.62225 -10.78766,-2.28845 -14.83455,2.65771 -10.71161,2.99874 -21.95032,1.52617 -32.91201,2.21525 -5.58912,0.0358 -11.21099,-0.11836 -16.7214,-1.13351 z m 62.04607,-5.46656 c 1.27917,-3.89697 -5.04503,-1.63012 -1.09166,0.54867 0.92528,1.16387 2.98675,1.09344 1.09166,-0.54867 z m -15.85106,-21.14293 c 2.02728,-5.50635 -9.36649,-1.08175 -4.14073,0.60544 1.28629,-0.46688 2.80485,-1.60683 4.14073,-0.60544 z"
             id="path3632"
             inkscape:connector-curvature="0" />
          <path
             style="fill:#ffffff;fill-opacity:1;stroke:none;filter:url(#filter3738-2)"
             d="m 43.1727,771.95074 c 0,-3.57553 0,-7.15105 0,-10.72658 1.023524,7.55958 9.021166,1.03489 10.004909,1.32797 3.930475,3.03342 10.402893,-5.0351 13.737533,2.02533 7.504741,2.15316 18.161893,-1.68618 23.429678,3.05813 1.488849,-7.35396 4.648255,2.59255 9.91542,-1.33507 10.67058,-3.73501 21.54641,-1.50363 32.488,-1.20217 21.34548,1.11165 44.53174,-0.33236 62.12481,-13.91709 10.28355,-7.17931 18.82785,-16.5179 29.05627,-23.7683 8.57597,-0.46159 21.91315,-15.24932 26.84983,-3.17711 2.97394,7.89318 1.26905,20.84159 -9.38113,19.99698 -1.98153,10.27536 -14.75058,1.40194 -20.26703,9.98329 -9.28985,9.86251 -25.94301,6.80585 -31.66799,20.78834 -6.27815,10.42995 -19.74231,5.21151 -29.69028,7.47556 -38.86322,0.31072 -77.733698,0.15641 -116.60002,0.1973 0,-3.57553 0,-7.15105 0,-10.72658 z M 62.60451,764.465 c -11.365691,-4.64826 1.507106,6.84346 0,0 z"
             id="path3634"
             inkscape:connector-curvature="0" />
          <path
             style="fill:#ffffff;fill-opacity:1;stroke:none;filter:url(#filter3738-2)"
             d="m 225.70053,718.16683 c 8.47365,-14.68292 10.62647,-31.83638 12.48968,-48.3943 2.82386,-4.09712 6.72758,-9.26099 4.30453,-14.4374 -3.47379,-3.04809 0.77554,-7.56148 4.49251,-7.10738 5.84084,-0.39129 5.41072,6.53327 1.31923,8.68989 -2.86387,5.07674 4.54361,7.73484 3.11758,12.81963 0.0348,5.69173 -0.51328,11.40181 -0.25085,17.07673 -0.88256,6.62004 2.18489,14.10898 -2.08722,20.00663 -3.17372,1.36784 -9.11377,-2.78768 -9.39151,3.06808 -5.63719,0.99906 -8.18735,7.73219 -13.99395,8.27812 z"
             id="path3636"
             inkscape:connector-curvature="0" />
          <path
             style="fill:#ffffff;fill-opacity:1;stroke:none;filter:url(#filter3738-2)"
             d="m 235.88829,660.12399 c -1.30179,-15.90342 -8.30632,-30.55104 -15.61575,-44.46791 -1.85281,-4.21972 1.09776,-9.26878 4.95808,-8.56479 4.09208,-4.48096 8.02618,-8.86513 9.82545,-14.8092 0.76034,-4.44154 6.28925,-8.94895 8.30624,-9.53149 -2.09023,-5.20339 9.59172,-10.70647 7.66251,-2.25983 0.19884,21.17875 0.86597,42.37825 -0.2685,63.54287 -3.81183,3.69868 -13.90132,6.73232 -9.58316,13.52777 2.40668,3.31491 -1.45414,12.59188 -5.00554,7.95642 -0.39263,-1.78202 0.45238,-3.65901 -0.27933,-5.39384 z m -10.18776,-48.4994 c -2.07845,-4.33882 -4.60739,3.5864 0,0 z"
             id="path3638"
             inkscape:connector-curvature="0" />
          <path
             style="fill:#ffffff;fill-opacity:1;stroke:none;filter:url(#filter3738-2)"
             d="m 210.52457,605.12801 c -10.48228,-8.83834 -21.77615,-17.08539 -34.69103,-21.97979 -2.24298,-8.17653 6.14237,-13.62455 12.1368,-17.16209 5.89361,-5.40477 12.57745,-10.96061 21.12248,-10.19459 11.54435,-0.83353 23.14742,-0.50006 34.66213,-1.42881 8.71446,-0.31121 10.78723,10.93108 5.86925,16.56594 -4.0484,5.88852 -10.92323,9.99379 -12.71554,17.32842 -3.72798,6.21191 -12.35317,6.86418 -15.76885,13.27953 -2.56348,2.77731 -6.7832,5.58822 -10.61524,3.59139 z m 13.66747,-10.96515 c -6.13152,-4.95549 -1.71682,6.60365 0,0 z m 12.06795,-9.18734 c -6.70747,-2.96199 0.0724,8.98759 0,0 z m -46.76333,-15.75017 c -0.28869,-4.62169 -1.42927,3.87843 0,0 z"
             id="path3640"
             inkscape:connector-curvature="0" />
          <path
             style="fill:#ffffff;fill-opacity:1;stroke:none;filter:url(#filter3738-2)"
             d="m 44.964694,650.99749 c -0.526345,-13.20088 -5.903973,-31.69667 1.617918,-41.75813 11.766162,-6.03808 21.735539,-15.06867 34.305228,-19.21256 13.889385,-7.34949 24.05122,-20.04693 38.74542,-26.06897 11.2124,-8.13134 25.89389,-8.02242 39.19664,-9.26233 12.22648,1.77475 28.73462,-2.26864 38.28148,3.13784 -3.05559,6.76381 -7.25476,2.84502 -8.10662,2.38236 -7.26099,8.02446 -13.1323,23.56343 -26.52009,19.9902 -19.43771,-2.49211 -40.00863,-1.49545 -57.3312,8.65645 -22.089243,11.75576 -39.141285,32.75641 -45.77701,56.91679 -6.146224,-3.90617 -8.871325,7.48933 -14.411766,5.21835 z"
             id="path3642"
             inkscape:connector-curvature="0" />
          <path
             style="fill:#ffffff;fill-opacity:1;stroke:none;filter:url(#filter3738-2)"
             d="m 43.1727,598.06269 c -2.438866,-10.73525 6.707415,-16.84622 13.828473,-21.58465 7.180785,-7.11598 16.737459,-10.86364 24.513997,-17.18301 11.411111,-6.58692 25.08537,-3.45601 37.6011,-4.40463 4.61559,-0.49238 24.49563,0.87219 10.42083,3.1679 -13.62849,5.8611 -26.69686,14.28954 -38.26422,23.82605 -10.248675,9.29229 -25.217282,10.94455 -35.179035,20.79319 -6.626296,5.85775 -15.745697,8.1787 -12.921145,-4.61485 z"
             id="path3644"
             inkscape:connector-curvature="0" />
          <path
             style="fill:#ffffff;fill-opacity:1;stroke:none;filter:url(#filter3738-2)"
             d="m 43.291792,575.15017 c -0.0397,-4.05904 -0.07939,-8.11809 -0.119092,-12.17713 5.895521,-4.03082 12.188066,-8.69587 19.75282,-7.95935 7.136467,-0.26673 14.278287,-0.0447 21.417079,-0.11903 -5.126985,5.52162 -11.330492,9.78535 -17.885632,13.3967 -6.320275,4.10899 -12.437186,8.58115 -17.913615,13.77748 -1.465515,4.59264 -6.954139,2.57257 -5.081639,-1.77822 -0.05498,-1.71347 -0.204679,-3.42484 -0.169921,-5.14045 z"
             id="path3646"
             inkscape:connector-curvature="0" />
          <path
             style="fill:#ffffff;fill-opacity:1;stroke:none;filter:url(#filter3738-2)"
             d="m 43.1727,693.72922 c 1.053749,-5.85984 -2.430891,-14.62857 3.171058,-18.29283 2.980235,-0.72816 6.612961,-2.87832 8.813408,-2.86876 0.251207,10.90772 2.93942,21.56543 5.698969,32.06279 0.292859,3.0964 -4.768934,1.42274 -5.777435,3.10119 -5.321628,2.10178 -14.075945,5.30568 -11.858532,-4.08761 -0.0785,-3.30443 -0.01519,-6.60994 -0.04747,-9.91478 z"
             id="path3648"
             inkscape:connector-curvature="0" />
          <path
             style="fill:#ffffff;fill-opacity:1;stroke:none;filter:url(#filter3738-2)"
             d="m 81.730315,759.78942 c -6.266049,-4.62235 -14.870043,-4.20808 -21.701699,-7.44885 -6.794022,3.7793 -19.999003,3.54988 -17.017219,-7.75189 1.841895,-6.30312 -3.214154,-18.10579 5.017114,-20.31351 7.532865,3.56694 16.055137,-2.54929 22.966144,2.087 10.286913,10.24035 19.785563,21.8213 32.821185,28.81119 -4.587774,8.50559 -15.775957,-2.39797 -21.346086,5.15011 l -0.433318,-0.0583 -0.306121,-0.47576 0,0 z"
             id="path3650"
             inkscape:connector-curvature="0" />
          <path
             style="fill:#ffffff;fill-opacity:1;stroke:none;filter:url(#filter3738-2)"
             d="m 87.33167,765.82989 c -10.838568,-1.49133 -22.328223,-4.25549 -32.531523,-4.32647 -7.608768,5.29074 -16.629237,-5.37292 -4.858356,-6.43623 11.231796,-3.39813 21.460398,3.17903 32.239662,4.33445 10.071397,1.80595 22.907537,-5.56335 30.626617,2.09091 -6.39573,7.03451 -17.758652,0.74279 -25.4764,4.33734 z"
             id="path3654"
             inkscape:connector-curvature="0" />
          <path
             style="fill:#ffffff;fill-opacity:1;stroke:none;filter:url(#filter3738-2)"
             d="m 50.715172,723.85874 c -9.01243,0.72833 -10.678701,-12.00956 -1.769801,-13.75052 6.050878,-3.26259 15.021648,-3.08298 17.016169,4.83489 3.865793,5.61048 3.057285,10.16627 -4.616825,9.40611 -3.166313,-0.15532 -8.280996,1.12243 -10.629543,-0.49048 z"
             id="path3656"
             inkscape:connector-curvature="0" />
          <path
             style="fill:#ffffff;fill-opacity:1;stroke:none;filter:url(#filter3738-2)"
             d="m 43.195799,662.37489 c -5.1405,-9.36036 17.620398,-21.68274 13.643913,-7.25735 -0.48944,7.45812 -1.142185,19.99382 -11.526402,19.20386 -4.330028,-2.0649 -1.170301,-8.27088 -2.117511,-11.94651 z"
             id="path3658"
             inkscape:connector-curvature="0" />
          <path
             style="fill:#ffffff;fill-opacity:1;stroke:none;filter:url(#filter3738-2)"
             d="m 215.40346,612.13398 c -1.56955,-1.53482 -3.72161,-5.47629 0.25315,-4.45139 1.84469,0.61063 3.36463,-4.17536 3.77888,-0.70059 0.32945,3.16999 0.28752,6.39986 -0.0708,9.56338 -1.41347,-0.8667 -2.714,-3.02293 -3.96125,-4.4114 z"
             id="path3660"
             inkscape:connector-curvature="0" />
          <path
             style="fill:#ffffff;fill-opacity:1;stroke:none;filter:url(#filter3738-2)"
             d="m 222.98344,601.61869 c -0.32177,-2.83803 1.28879,-5.86191 4.51957,-4.9993 2.39196,-1.05777 5.56691,0.18223 2.94144,2.67781 -1.60837,2.35152 -3.41064,4.83459 -6.02352,6.10978 -2.02935,0.38017 -1.42575,-2.66208 -1.43749,-3.78829 z"
             id="path3662"
             inkscape:connector-curvature="0" />
          <path
             style="fill:#ffffff;fill-opacity:1;stroke:none;filter:url(#filter3738-2)"
             d="m 222.16925,723.84604 c 4.14552,-7.02986 13.37951,-8.12561 18.35924,-14.34438 6.66133,-6.60637 16.6924,5.51027 6.97134,9.157 -6.67378,0.57903 -13.17487,1.6314 -18.542,6.15587 -2.70416,1.03847 -12.65263,7.3954 -6.78858,-0.96849 z"
             id="path3664"
             inkscape:connector-curvature="0" />
        </g>
        <use
           x="0"
           y="0"
           xlink:href="#g3810"
           id="use4086"
           transform="matrix(-1,0,0,-1,292.64747,1588.8001)"
           width="512"
           height="512" />
        <use
           x="0"
           y="0"
           xlink:href="#g3810"
           id="use4088"
           transform="matrix(-1,0,0,1,513.37963,249.39309)"
           width="512"
           height="512" />
        <use
           x="0"
           y="0"
           xlink:href="#g3810"
           id="use4084"
           transform="matrix(-1,0,0,1,518.31946,0)"
           width="512"
           height="512" />
        <rect
           style="fill:none;fill-opacity:1;stroke:#000000;stroke-width:13.51916218000000000;stroke-linecap:butt;stroke-linejoin:miter;stroke-miterlimit:4;stroke-opacity:1;stroke-dasharray:none"
           id="rect2816"
           width="447.11417"
           height="500.44754"
           x="35.109581"
           y="547.7384"
           ry="0" />
        <g
           id="g3806">
          <path
             id="path3598"
             d="m 258.13333,543.56218 0,507.73332"
             style="fill:none;stroke:#000000;stroke-width:12.5;stroke-linecap:butt;stroke-linejoin:miter;stroke-opacity:1;stroke-miterlimit:4;stroke-dasharray:none" />
          <path
             id="path3598-1"
             d="m 483.92177,789.96217 -449.443551,0"
             style="fill:none;stroke:#000000;stroke-width:11.76060772;stroke-linecap:butt;stroke-linejoin:miter;stroke-miterlimit:4;stroke-opacity:1;stroke-dasharray:none" />
        </g>
      </g>
    </g>
  </g>
</svg>
