<?xml version="1.0" encoding="UTF-8" standalone="no"?>
<!-- Created with Inkscape (http://www.inkscape.org/) -->
<svg
   xmlns:dc="http://purl.org/dc/elements/1.1/"
   xmlns:cc="http://web.resource.org/cc/"
   xmlns:rdf="http://www.w3.org/1999/02/22-rdf-syntax-ns#"
   xmlns:svg="http://www.w3.org/2000/svg"
   xmlns="http://www.w3.org/2000/svg"
   xmlns:xlink="http://www.w3.org/1999/xlink"
   xmlns:sodipodi="http://sodipodi.sourceforge.net/DTD/sodipodi-0.dtd"
   xmlns:inkscape="http://www.inkscape.org/namespaces/inkscape"
   width="64"
   height="64"
   id="svg2"
   sodipodi:version="0.32"
   inkscape:version="0.44"
   version="1.0"
   sodipodi:docbase="/home/frosty/_Bilder/Inkscape/smc"
   sodipodi:docname="pepperoni.svg"
   inkscape:export-filename="/home/frosty/_Bilder/Inkscape/smc/pepperoni.png"
   inkscape:export-xdpi="90"
   inkscape:export-ydpi="90">
  <defs
     id="defs4">
    <linearGradient
       id="linearGradient5481">
      <stop
         style="stop-color:#8e681a;stop-opacity:1;"
         offset="0"
         id="stop5483" />
      <stop
         style="stop-color:#ffb213;stop-opacity:1;"
         offset="1"
         id="stop5485" />
    </linearGradient>
    <linearGradient
       inkscape:collect="always"
       xlink:href="#linearGradient5481"
       id="linearGradient5487"
       x1="1.5"
       y1="38"
       x2="26.5"
       y2="38"
       gradientUnits="userSpaceOnUse" />
    <linearGradient
       inkscape:collect="always"
       xlink:href="#linearGradient5481"
       id="linearGradient5489"
       x1="1.6129525"
       y1="38"
       x2="26.387048"
       y2="38"
       gradientUnits="userSpaceOnUse"
       gradientTransform="matrix(1.25,0,0,1.335062,5.5,-24.23235)" />
    <linearGradient
       inkscape:collect="always"
       xlink:href="#linearGradient5481"
       id="linearGradient5491"
       x1="1.5735986"
       y1="38"
       x2="26.426401"
       y2="38"
       gradientUnits="userSpaceOnUse"
       gradientTransform="matrix(1.565299,0,0,1,21.36941,-22.89394)" />
    <linearGradient
       inkscape:collect="always"
       xlink:href="#linearGradient5481"
       id="linearGradient5493"
       x1="1.6197655"
       y1="38"
       x2="26.380235"
       y2="38"
       gradientUnits="userSpaceOnUse"
       gradientTransform="matrix(1.729167,0,0,1,16.54167,-0.606061)" />
    <linearGradient
       inkscape:collect="always"
       xlink:href="#linearGradient5481"
       id="linearGradient5495"
       x1="1.6292321"
       y1="38"
       x2="26.370768"
       y2="38"
       gradientUnits="userSpaceOnUse" />
  </defs>
  <sodipodi:namedview
     id="base"
     pagecolor="#ffffff"
     bordercolor="#666666"
     borderopacity="1.0"
     inkscape:pageopacity="0.0"
     inkscape:pageshadow="2"
     inkscape:zoom="9"
     inkscape:cx="32"
     inkscape:cy="32"
     inkscape:document-units="px"
     inkscape:current-layer="layer1"
     width="64px"
     height="64px"
     inkscape:grid-points="false"
     gridtolerance="50"
     showgrid="true"
     gridspacingx="2px"
     gridspacingy="2px"
     inkscape:window-width="1152"
     inkscape:window-height="788"
     inkscape:window-x="0"
     inkscape:window-y="0"
     inkscape:object-paths="false"
     inkscape:grid-bbox="false" />
  <metadata
     id="metadata7">
    <rdf:RDF>
      <cc:Work
         rdf:about="">
        <dc:format>image/svg+xml</dc:format>
        <dc:type
           rdf:resource="http://purl.org/dc/dcmitype/StillImage" />
        <dc:creator>
          <cc:Agent>
            <dc:title>Frostbringer</dc:title>
          </cc:Agent>
        </dc:creator>
        <cc:license
           rdf:resource="http://creativecommons.org/licenses/by-sa/2.5/" />
      </cc:Work>
      <cc:License
         rdf:about="http://creativecommons.org/licenses/by-sa/2.5/">
        <cc:permits
           rdf:resource="http://web.resource.org/cc/Reproduction" />
        <cc:permits
           rdf:resource="http://web.resource.org/cc/Distribution" />
        <cc:requires
           rdf:resource="http://web.resource.org/cc/Notice" />
        <cc:requires
           rdf:resource="http://web.resource.org/cc/Attribution" />
        <cc:permits
           rdf:resource="http://web.resource.org/cc/DerivativeWorks" />
        <cc:requires
           rdf:resource="http://web.resource.org/cc/ShareAlike" />
      </cc:License>
    </rdf:RDF>
  </metadata>
  <g
     inkscape:label="Ebene 1"
     inkscape:groupmode="layer"
     id="layer1">
    <path
       style="fill:#ba0000;fill-opacity:1;fill-rule:nonzero;stroke:none;stroke-width:1;stroke-linecap:round;stroke-linejoin:round;stroke-miterlimit:4;stroke-dashoffset:59.92000295;stroke-opacity:1"
       d="M 61.111111,34.56 C 61.111111,38.56 58.907486,45.85975 53.111111,50.56 C 50.212924,52.910125 46.359375,57.901039 38,60 C 29.640625,62.098961 16.775422,61.305969 14.775422,61.305969 C 10.775422,61.305969 11.049688,58.61111 14,58 C 15.331388,57.724224 27.640099,57.368086 35.23531,54.42675 C 42.83052,51.485415 45.71223,45.958881 47.111111,44.56 C 51.111111,40.56 51.111111,37.537998 51.111111,34.56 C 51.111111,30.56 51.111111,26.56 49.111111,24.56 C 48.232884,23.681773 46.596986,21.74325 43.111111,18.56 C 39.625236,15.37675 30.617331,16.56 29.111111,16.56 C 25.111111,16.56 17.383078,14.016067 19.111111,10.56 C 21.111111,6.56 20.980994,6.690117 23.111111,4.56 C 25.111111,2.56 39.111111,6.56 43.111111,6.56 C 47.111111,6.56 59.763907,17.865591 61.111111,20.56 C 63.111111,24.56 61.111111,30.56 61.111111,34.56 z "
       id="path1934"
       sodipodi:nodetypes="csssssssssssssss" />
    <path
       style="fill:#d70000;fill-opacity:1;fill-rule:nonzero;stroke:none;stroke-width:1;stroke-linecap:round;stroke-linejoin:round;stroke-miterlimit:4;stroke-dashoffset:59.92000295;stroke-opacity:1"
       d="M 28.392312,8.58249 C 26.942353,9.630335 24.848576,12.165144 28.111062,12.33249 C 34.882054,13.866852 43.598884,11.193561 48.579812,17.61374 C 55.570811,22.689204 58.767242,32.474856 54.704812,40.36374 C 53.364535,44.79881 50.651088,48.691591 47.329812,51.86374 C 55.002257,48.576664 60.652233,41.362621 60.267312,32.80124 C 61.648398,27.81517 61.905996,21.5448 56.517312,18.73874 C 51.673427,13.497668 45.464228,9.866561 38.22215,9.928332 C 34.98772,9.34083 31.678782,8.4028276 28.392312,8.58249 z "
       id="path3717" />
    <path
       style="fill:#ff1b1b;fill-opacity:1;fill-rule:nonzero;stroke:none;stroke-width:1;stroke-linecap:round;stroke-linejoin:round;stroke-miterlimit:4;stroke-dashoffset:59.92000295;stroke-opacity:1"
       d="M 31.111111,10.56 C 35.751907,11.191001 33.04232,10.526109 31.111111,10.56 z M 50.423611,15.02875 C 50.461048,14.956712 50.234012,14.934835 50.423611,15.02875 z M 50.423611,15.02875 C 55.449832,19.182079 59.719977,24.988365 59.892361,31.77875 C 61.630686,27.054828 60.295226,21.454474 55.579861,19.15375 C 54.07469,17.545157 52.286292,16.176402 50.423611,15.02875 z "
       id="path2824" />
    <path
       style="fill:#0b8700;fill-opacity:1;fill-rule:nonzero;stroke:none;stroke-width:1;stroke-linecap:round;stroke-linejoin:round;stroke-miterlimit:4;stroke-dashoffset:59.92000295;stroke-opacity:1"
       d="M 18.555556,12.666667 C 18.278524,13.862668 17.004668,10.560224 15,8.5555556 C 13,6.5555556 8.9735553,6.8092113 6.5555556,4.6666667 C 5.6181069,3.8360108 5.4444445,4 6.5555556,2.6666667 C 8.3662705,0.49380876 15.600328,4.3276098 18.035183,4.5586706 C 20.470039,4.7897311 22.966659,2.8512293 22.555556,4.6666667 C 21.662498,8.6104239 19.011789,10.697011 18.555556,12.666667 z "
       id="path4608"
       sodipodi:nodetypes="cssssss" />
    <path
       sodipodi:type="inkscape:offset"
       inkscape:radius="-1.074908"
       inkscape:original="M 2.75 12.125 C 2.0965472 12.173411 1.558259 12.373839 1.21875 12.78125 C 0.10763892 14.114583 0.28130131 13.950594 1.21875 14.78125 C 3.6367497 16.923794 7.6562502 16.656249 9.65625 18.65625 C 10.006424 19.006424 10.320842 19.414021 10.625 19.8125 C 11.550661 18.850531 12.125 17.654375 12.125 16.375 C 12.125 15.699416 11.936293 15.072391 11.65625 14.46875 C 9.2774399 13.810614 5.1702584 11.945696 2.75 12.125 z "
       style="fill:#0fc200;fill-opacity:1;fill-rule:nonzero;stroke:none;stroke-width:1;stroke-linecap:round;stroke-linejoin:round;stroke-miterlimit:4;stroke-dashoffset:59.92000295;stroke-opacity:1"
       id="path5512"
       d="M 2.84375,13.1875 C 2.3649227,13.222974 2.1240363,13.357406 2.03125,13.46875 C 1.8902666,13.63793 1.841298,13.697958 1.75,13.8125 C 1.8242063,13.875588 1.8453537,13.887101 1.9375,13.96875 C 2.9086036,14.829227 4.3502207,15.299385 5.90625,15.75 C 7.4622793,16.200615 9.1347106,16.63471 10.40625,17.90625 C 10.457161,17.957161 10.48259,18.010901 10.53125,18.0625 C 10.833899,17.518266 11.0625,16.96244 11.0625,16.375 C 11.0625,16.030306 10.909811,15.668648 10.78125,15.3125 C 9.5947141,14.946452 8.2531159,14.445696 6.875,14 C 5.2886795,13.486969 3.7353702,13.121445 2.84375,13.1875 z "
       transform="translate(5.619685,-10.72561)" />
    <path
       transform="translate(5.46255,-11.19701)"
       d="M 3.21875,13.9375 C 4.005776,14.378075 4.9478019,14.761892 6.09375,15.09375 C 7.393833,15.470244 8.8320629,15.95459 10.125,16.90625 C 10.164273,16.72344 10.375,16.557503 10.375,16.375 C 10.375,16.213086 10.261437,16.019376 10.21875,15.84375 C 9.0852908,15.478045 7.9136083,15.052785 6.6875,14.65625 C 5.2665221,14.196692 3.9827908,13.95074 3.21875,13.9375 z "
       id="path6399"
       style="fill:#11e600;fill-opacity:1;fill-rule:nonzero;stroke:none;stroke-width:1;stroke-linecap:round;stroke-linejoin:round;stroke-miterlimit:4;stroke-dashoffset:59.92000295;stroke-opacity:1"
       inkscape:original="M 2.75 12.125 C 2.0965472 12.173411 1.558259 12.373839 1.21875 12.78125 C 0.10763892 14.114583 0.28130131 13.950594 1.21875 14.78125 C 3.6367497 16.923794 7.6562502 16.656249 9.65625 18.65625 C 10.006424 19.006424 10.320842 19.414021 10.625 19.8125 C 11.550661 18.850531 12.125 17.654375 12.125 16.375 C 12.125 15.699416 11.936293 15.072391 11.65625 14.46875 C 9.2774399 13.810614 5.1702584 11.945696 2.75 12.125 z "
       inkscape:radius="-1.7468234"
       sodipodi:type="inkscape:offset" />
    <path
       style="fill:#098900;fill-opacity:1;fill-rule:nonzero;stroke:#040;stroke-width:0.5;stroke-linecap:round;stroke-linejoin:round;stroke-miterlimit:4;stroke-dasharray:none;stroke-dashoffset:59.92000295;stroke-opacity:1"
       d="M 26.988208,5.7176506 C 26.91546,7.3490242 22.146263,9.2470393 21.47465,7.7525808 C 20.923546,6.5262777 21.042733,6.3613779 21.987538,4.6124529 C 22.857783,3.0015433 26.290314,4.6757175 26.988208,5.7176506 z "
       id="path7286"
       sodipodi:nodetypes="cssc" />
    <path
       sodipodi:nodetypes="cssc"
       id="path7289"
       d="M 25.416433,9.4309893 C 24.904545,10.981681 19.799535,11.517009 19.557801,9.8965045 C 19.359442,8.566772 19.518837,8.4403178 20.902025,7.0126666 C 22.176057,5.6976773 25.026833,8.2389771 25.416433,9.4309893 z "
       style="fill:#098900;fill-opacity:1;fill-rule:nonzero;stroke:#040;stroke-width:0.5;stroke-linecap:round;stroke-linejoin:round;stroke-miterlimit:4;stroke-dasharray:none;stroke-dashoffset:59.92000295;stroke-opacity:1" />
    <path
       style="fill:#098900;fill-opacity:1;fill-rule:nonzero;stroke:#040;stroke-width:0.5;stroke-linecap:round;stroke-linejoin:round;stroke-miterlimit:4;stroke-dasharray:none;stroke-dashoffset:59.92000295;stroke-opacity:1"
       d="M 24.237922,12.652254 C 23.726034,14.202945 18.621024,14.738273 18.37929,13.117769 C 18.180931,11.788037 18.340326,11.661582 19.723514,10.233931 C 20.997546,8.9189415 23.848322,11.460242 24.237922,12.652254 z "
       id="path7291"
       sodipodi:nodetypes="cssc" />
    <path
       sodipodi:type="inkscape:offset"
       inkscape:radius="-1.0995864"
       inkscape:original="M 16.59375 14.125 C 16.141241 14.053048 15.693508 14.140003 15.375 14.46875 C 13.991812 15.896401 13.832891 16.014018 14.03125 17.34375 C 14.272984 18.964254 19.394361 18.425692 19.90625 16.875 C 19.61405 15.980991 17.951276 14.340855 16.59375 14.125 z "
       style="fill:#0cb800;fill-opacity:1;fill-rule:nonzero;stroke:none;stroke-width:0.5;stroke-linecap:round;stroke-linejoin:round;stroke-miterlimit:4;stroke-dasharray:none;stroke-dashoffset:59.92000295;stroke-opacity:1"
       id="path8180"
       d="M 16.15625,15.21875 C 15.460512,15.936852 15.147062,16.331327 15.09375,16.4375 C 15.051525,16.521592 15.084365,16.715141 15.125,17.03125 C 15.164622,17.052998 15.177272,17.094498 15.28125,17.125 C 15.601184,17.218852 16.197547,17.27222 16.78125,17.21875 C 17.364953,17.16528 17.963461,16.992573 18.375,16.8125 C 18.475137,16.768684 18.432254,16.793641 18.5,16.75 C 18.330665,16.511993 18.248637,16.337044 17.9375,16.0625 C 17.416105,15.602426 16.72722,15.269786 16.40625,15.21875 C 16.20052,15.186037 16.183844,15.190268 16.15625,15.21875 z "
       transform="translate(4.333334,-4.777777)" />
    <path
       transform="translate(5.444445,-7.999999)"
       d="M 16.15625,15.21875 C 15.460512,15.936852 15.147062,16.331327 15.09375,16.4375 C 15.051525,16.521592 15.084365,16.715141 15.125,17.03125 C 15.164622,17.052998 15.177272,17.094498 15.28125,17.125 C 15.601184,17.218852 16.197547,17.27222 16.78125,17.21875 C 17.364953,17.16528 17.963461,16.992573 18.375,16.8125 C 18.475137,16.768684 18.432254,16.793641 18.5,16.75 C 18.330665,16.511993 18.248637,16.337044 17.9375,16.0625 C 17.416105,15.602426 16.72722,15.269786 16.40625,15.21875 C 16.20052,15.186037 16.183844,15.190268 16.15625,15.21875 z "
       id="path9067"
       style="fill:#0cb800;fill-opacity:1;fill-rule:nonzero;stroke:none;stroke-width:0.5;stroke-linecap:round;stroke-linejoin:round;stroke-miterlimit:4;stroke-dasharray:none;stroke-dashoffset:59.92000295;stroke-opacity:1"
       inkscape:original="M 16.59375 14.125 C 16.141241 14.053048 15.693508 14.140003 15.375 14.46875 C 13.991812 15.896401 13.832891 16.014018 14.03125 17.34375 C 14.272984 18.964254 19.394361 18.425692 19.90625 16.875 C 19.61405 15.980991 17.951276 14.340855 16.59375 14.125 z "
       inkscape:radius="-1.0995864"
       sodipodi:type="inkscape:offset" />
    <path
       sodipodi:type="inkscape:offset"
       inkscape:radius="-1.0995864"
       inkscape:original="M 16.59375 14.125 C 16.141241 14.053048 15.693508 14.140003 15.375 14.46875 C 13.991812 15.896401 13.832891 16.014018 14.03125 17.34375 C 14.272984 18.964254 19.394361 18.425692 19.90625 16.875 C 19.61405 15.980991 17.951276 14.340855 16.59375 14.125 z "
       style="fill:#0cb800;fill-opacity:1;fill-rule:nonzero;stroke:none;stroke-width:0.5;stroke-linecap:round;stroke-linejoin:round;stroke-miterlimit:4;stroke-dasharray:none;stroke-dashoffset:59.92000295;stroke-opacity:1"
       id="path9069"
       d="M 16.15625,15.21875 C 15.460512,15.936852 15.147062,16.331327 15.09375,16.4375 C 15.051525,16.521592 15.084365,16.715141 15.125,17.03125 C 15.164622,17.052998 15.177272,17.094498 15.28125,17.125 C 15.601184,17.218852 16.197547,17.27222 16.78125,17.21875 C 17.364953,17.16528 17.963461,16.992573 18.375,16.8125 C 18.475137,16.768684 18.432254,16.793641 18.5,16.75 C 18.330665,16.511993 18.248637,16.337044 17.9375,16.0625 C 17.416105,15.602426 16.72722,15.269786 16.40625,15.21875 C 16.20052,15.186037 16.183844,15.190268 16.15625,15.21875 z "
       transform="translate(7.111112,-10.88888)" />
  </g>
</svg>
