<?xml version="1.0" encoding="UTF-8" standalone="no"?>
<!-- Created with Inkscape (http://www.inkscape.org/) -->
<svg
   xmlns:dc="http://purl.org/dc/elements/1.1/"
   xmlns:cc="http://creativecommons.org/ns#"
   xmlns:rdf="http://www.w3.org/1999/02/22-rdf-syntax-ns#"
   xmlns:svg="http://www.w3.org/2000/svg"
   xmlns="http://www.w3.org/2000/svg"
   xmlns:xlink="http://www.w3.org/1999/xlink"
   xmlns:sodipodi="http://sodipodi.sourceforge.net/DTD/sodipodi-0.dtd"
   xmlns:inkscape="http://www.inkscape.org/namespaces/inkscape"
   width="512"
   height="512"
   id="svg2"
   sodipodi:version="0.32"
   inkscape:version="0.46"
   sodipodi:docbase="D:\Dateien\Desktop\Secret Maryo Chronicles\Drafts\Game\Helios\level\enemies\furball\v2.5"
   sodipodi:docname="2.svg"
   inkscape:output_extension="org.inkscape.output.svg.inkscape"
   version="1.0"
   inkscape:export-filename="D:\Dateien\Desktop\Secret Maryo Chronicles\SMC\data\pixmaps\enemy\spikeball\grey\2.png"
   inkscape:export-xdpi="45"
   inkscape:export-ydpi="45">
  <defs
     id="defs4">
    <linearGradient
       inkscape:collect="always"
       xlink:href="#linearGradient5419"
       id="linearGradient5844"
       gradientUnits="userSpaceOnUse"
       gradientTransform="matrix(-6.8065974e-2,-9.1235131e-2,0.193561,-3.5977709e-2,133.81882,636.85155)"
       x1="-443.43286"
       y1="72.836197"
       x2="-78.949097"
       y2="314.75095" />
    <linearGradient
       inkscape:collect="always"
       xlink:href="#linearGradient5419"
       id="linearGradient5847"
       gradientUnits="userSpaceOnUse"
       gradientTransform="matrix(-0.1136971,-5.4585603e-3,7.8335888e-2,0.1806205,228.84376,495.2592)"
       x1="-443.43286"
       y1="72.836197"
       x2="-78.949097"
       y2="314.75095" />
    <linearGradient
       inkscape:collect="always"
       xlink:href="#linearGradient5419"
       id="linearGradient5850"
       gradientUnits="userSpaceOnUse"
       gradientTransform="matrix(4.143075e-2,0.1007725,-0.1408283,1.5151497e-2,536.32339,665.50561)"
       x1="-443.43286"
       y1="72.836197"
       x2="-59.968033"
       y2="284.83081" />
    <linearGradient
       inkscape:collect="always"
       xlink:href="#linearGradient5419"
       id="linearGradient5853"
       gradientUnits="userSpaceOnUse"
       gradientTransform="matrix(0.1136971,-5.4585603e-3,-7.8335888e-2,0.1806205,470.86295,497.14947)"
       x1="-443.43286"
       y1="72.836197"
       x2="-78.949097"
       y2="314.75095" />
    <linearGradient
       inkscape:collect="always"
       xlink:href="#linearGradient5419"
       id="linearGradient5865"
       gradientUnits="userSpaceOnUse"
       gradientTransform="matrix(5.7491268e-3,0.2341478,-0.2974044,-8.2799969e-2,569.18874,804.2432)"
       x1="-503.6281"
       y1="100.65696"
       x2="-67.229309"
       y2="239.78502" />
    <linearGradient
       inkscape:collect="always"
       xlink:href="#linearGradient5419"
       id="linearGradient5868"
       gradientUnits="userSpaceOnUse"
       gradientTransform="matrix(7.9772224e-3,0.23408,0.2920252,-0.1006941,140.74013,811.61726)"
       x1="-503.6281"
       y1="100.65696"
       x2="-67.229309"
       y2="239.78502" />
    <linearGradient
       inkscape:collect="always"
       xlink:href="#linearGradient5419"
       id="linearGradient5871"
       gradientUnits="userSpaceOnUse"
       gradientTransform="matrix(-6.7599449e-3,-0.2137193,-0.2474629,9.1935546e-2,537.6212,494.26884)"
       x1="-104.16974"
       y1="185.09149"
       x2="-419.2959"
       y2="110.75548" />
    <linearGradient
       inkscape:collect="always"
       xlink:href="#linearGradient5419"
       id="linearGradient5874"
       gradientUnits="userSpaceOnUse"
       gradientTransform="matrix(7.9772549e-3,-0.23408,0.2920252,0.1006941,145.80566,484.5892)"
       x1="-89.85376"
       y1="175.16577"
       x2="-513.50488"
       y2="18.376907" />
    <linearGradient
       inkscape:collect="always"
       xlink:href="#linearGradient5419"
       id="linearGradient5877"
       gradientUnits="userSpaceOnUse"
       gradientTransform="matrix(0.1919986,-0.1095909,6.5136515e-2,0.3230345,385.56421,393.07138)"
       x1="-443.43286"
       y1="72.836197"
       x2="-78.949097"
       y2="314.75095" />
    <filter
       inkscape:collect="always"
       id="filter3345"
       x="-0.13249147"
       width="1.2649829"
       y="-0.13920738"
       height="1.2784148">
      <feGaussianBlur
         inkscape:collect="always"
         stdDeviation="18.272782"
         id="feGaussianBlur3347" />
    </filter>
    <linearGradient
       inkscape:collect="always"
       xlink:href="#linearGradient5248"
       id="linearGradient2505"
       gradientUnits="userSpaceOnUse"
       gradientTransform="translate(12.000178,32.588855)"
       x1="390.47189"
       y1="756.08612"
       x2="298.78311"
       y2="557.74567" />
    <radialGradient
       inkscape:collect="always"
       xlink:href="#linearGradient3926"
       id="radialGradient3986"
       gradientUnits="userSpaceOnUse"
       gradientTransform="matrix(0.6384528,-1.0285415e-2,4.107606e-3,0.2549739,248.9018,311.2674)"
       cx="709.91077"
       cy="359.57904"
       fx="709.91077"
       fy="359.57904"
       r="86.074114" />
    <linearGradient
       inkscape:collect="always"
       xlink:href="#linearGradient5419"
       id="linearGradient3984"
       gradientUnits="userSpaceOnUse"
       gradientTransform="matrix(-4.2642794e-2,5.4084087e-2,0.1449482,8.1317312e-3,707.82589,783.66607)"
       x1="-443.43286"
       y1="72.836197"
       x2="-59.968033"
       y2="284.83081" />
    <linearGradient
       inkscape:collect="always"
       xlink:href="#linearGradient5419"
       id="linearGradient3982"
       gradientUnits="userSpaceOnUse"
       gradientTransform="matrix(-4.2642794e-2,5.4084087e-2,0.1449482,8.1317312e-3,708.82589,774.16607)"
       x1="-443.43286"
       y1="72.836197"
       x2="-59.968033"
       y2="284.83081" />
    <linearGradient
       inkscape:collect="always"
       xlink:href="#linearGradient5419"
       id="linearGradient3980"
       gradientUnits="userSpaceOnUse"
       gradientTransform="matrix(-4.2642794e-2,5.4084087e-2,0.1449482,8.1317312e-3,710.82589,764.16607)"
       x1="-443.43286"
       y1="72.836197"
       x2="-59.968033"
       y2="284.83081" />
    <linearGradient
       id="linearGradient3926">
      <stop
         style="stop-color:#787878;stop-opacity:1;"
         offset="0"
         id="stop3928" />
      <stop
         style="stop-color:#464646;stop-opacity:1;"
         offset="1"
         id="stop3930" />
    </linearGradient>
    <radialGradient
       inkscape:collect="always"
       xlink:href="#linearGradient3926"
       id="radialGradient3964"
       gradientUnits="userSpaceOnUse"
       gradientTransform="matrix(0.6384528,-1.0285415e-2,4.107606e-3,0.2549739,248.9018,311.2674)"
       cx="709.91077"
       cy="359.57904"
       fx="709.91077"
       fy="359.57904"
       r="86.074114" />
    <linearGradient
       inkscape:collect="always"
       xlink:href="#linearGradient5419"
       id="linearGradient3962"
       gradientUnits="userSpaceOnUse"
       gradientTransform="matrix(-4.2642794e-2,5.4084087e-2,0.1449482,8.1317312e-3,707.82589,783.66607)"
       x1="-443.43286"
       y1="72.836197"
       x2="-59.968033"
       y2="284.83081" />
    <linearGradient
       inkscape:collect="always"
       xlink:href="#linearGradient5419"
       id="linearGradient3960"
       gradientUnits="userSpaceOnUse"
       gradientTransform="matrix(-4.2642794e-2,5.4084087e-2,0.1449482,8.1317312e-3,708.82589,774.16607)"
       x1="-443.43286"
       y1="72.836197"
       x2="-59.968033"
       y2="284.83081" />
    <linearGradient
       inkscape:collect="always"
       xlink:href="#linearGradient5419"
       id="linearGradient3958"
       gradientUnits="userSpaceOnUse"
       gradientTransform="matrix(-4.2642794e-2,5.4084087e-2,0.1449482,8.1317312e-3,710.82589,764.16607)"
       x1="-443.43286"
       y1="72.836197"
       x2="-59.968033"
       y2="284.83081" />
    <filter
       inkscape:collect="always"
       id="filter17752">
      <feGaussianBlur
         inkscape:collect="always"
         stdDeviation="0.71532756"
         id="feGaussianBlur17754" />
    </filter>
    <filter
       inkscape:collect="always"
       id="filter3348">
      <feGaussianBlur
         inkscape:collect="always"
         stdDeviation="0.39870587"
         id="feGaussianBlur3350" />
    </filter>
    <filter
       inkscape:collect="always"
       id="filter17728">
      <feGaussianBlur
         inkscape:collect="always"
         stdDeviation="0.71532756"
         id="feGaussianBlur17730" />
    </filter>
    <filter
       inkscape:collect="always"
       id="filter3352">
      <feGaussianBlur
         inkscape:collect="always"
         stdDeviation="0.39870587"
         id="feGaussianBlur3354" />
    </filter>
    <linearGradient
       id="linearGradient5419">
      <stop
         id="stop5421"
         offset="0"
         style="stop-color:#ffffff;stop-opacity:1;" />
      <stop
         style="stop-color:#c0c0c0;stop-opacity:1;"
         offset="0.40610132"
         id="stop5423" />
      <stop
         id="stop5425"
         offset="1"
         style="stop-color:#646464;stop-opacity:1;" />
    </linearGradient>
    <filter
       inkscape:collect="always"
       id="filter4539">
      <feGaussianBlur
         inkscape:collect="always"
         stdDeviation="0.8136459"
         id="feGaussianBlur4541" />
    </filter>
    <linearGradient
       id="linearGradient5248">
      <stop
         style="stop-color:#141414;stop-opacity:1;"
         offset="0"
         id="stop5250" />
      <stop
         style="stop-color:#505050;stop-opacity:1;"
         offset="1"
         id="stop5252" />
    </linearGradient>
    <clipPath
       id="clipPath3754"
       clipPathUnits="userSpaceOnUse">
      <path
         style="fill:#fff6d5;fill-rule:evenodd;stroke:#000000;stroke-width:1px;stroke-linecap:butt;stroke-linejoin:miter;stroke-opacity:1"
         d="M 391.43411,693.75804 C 404.03538,674.4187 417.94824,662.89057 437.51107,651.27283 C 446.07552,644.04546 488.91055,638.25271 480.9551,629.9216 C 458.84984,616.97432 417.4296,611.31287 403.05484,621.74336 C 389.15718,631.82766 381.93338,667.13266 391.43411,693.75804 z"
         id="path3756"
         sodipodi:nodetypes="cccsc" />
    </clipPath>
    <linearGradient
       id="linearGradient3762">
      <stop
         id="stop3764"
         offset="0"
         style="stop-color:#7982a6;stop-opacity:1;" />
      <stop
         style="stop-color:#ffffff;stop-opacity:1;"
         offset="0.30612245"
         id="stop3776" />
      <stop
         id="stop3766"
         offset="1"
         style="stop-color:#ffffff;stop-opacity:1;" />
    </linearGradient>
    <radialGradient
       inkscape:collect="always"
       xlink:href="#linearGradient3762"
       id="radialGradient2246"
       gradientUnits="userSpaceOnUse"
       gradientTransform="matrix(0.7638762,0.6453629,-0.9785236,1.158218,760.87876,-366.16097)"
       cx="390.07419"
       cy="678.53479"
       fx="390.07419"
       fy="678.53479"
       r="48.907497" />
    <radialGradient
       inkscape:collect="always"
       xlink:href="#linearGradient3762"
       id="radialGradient2248"
       gradientUnits="userSpaceOnUse"
       gradientTransform="matrix(0.7638762,0.6453629,-0.9785236,1.158218,760.87876,-366.16097)"
       cx="390.07419"
       cy="678.53479"
       fx="390.07419"
       fy="678.53479"
       r="48.907497" />
    <filter
       inkscape:collect="always"
       id="filter3340">
      <feGaussianBlur
         inkscape:collect="always"
         stdDeviation="0.78875974"
         id="feGaussianBlur3342" />
    </filter>
    <filter
       inkscape:collect="always"
       id="filter3344">
      <feGaussianBlur
         inkscape:collect="always"
         stdDeviation="0.78875974"
         id="feGaussianBlur3346" />
    </filter>
  </defs>
  <sodipodi:namedview
     id="base"
     pagecolor="#000000"
     bordercolor="#666666"
     borderopacity="1.0"
     gridtolerance="10000"
     guidetolerance="10"
     objecttolerance="10"
     inkscape:pageopacity="0"
     inkscape:pageshadow="2"
     inkscape:zoom="0.75727128"
     inkscape:cx="349.41731"
     inkscape:cy="191.49294"
     inkscape:document-units="px"
     inkscape:current-layer="layer3"
     inkscape:window-width="1264"
     inkscape:window-height="718"
     inkscape:window-x="8"
     inkscape:window-y="30"
     showguides="true"
     inkscape:guide-bbox="true"
     showgrid="false" />
  <metadata
     id="metadata7">
    <rdf:RDF>
      <cc:Work
         rdf:about="">
        <dc:format>image/svg+xml</dc:format>
        <dc:type
           rdf:resource="http://purl.org/dc/dcmitype/StillImage" />
      </cc:Work>
      <cc:Work
         rdf:about="">
        <dc:format>image/svg+xml</dc:format>
        <dc:type
           rdf:resource="http://purl.org/dc/dcmitype/StillImage" />
      </cc:Work>
    </rdf:RDF>
  </metadata>
  <g
     inkscape:groupmode="layer"
     id="layer5"
     inkscape:label="foot below"
     style="display:inline"
     transform="translate(-86.015417,-344.74042)" />
  <g
     inkscape:groupmode="layer"
     id="layer3"
     inkscape:label="body"
     style="display:inline"
     transform="translate(-86.015417,-344.74042)">
    <g
       id="g2464"
       inkscape:label="black outline"
       sodipodi:insensitive="true"
       transform="translate(150.81235,404.25975)" />
    <g
       id="g3169"
       transform="translate(187.68008,397.1698)"
       inkscape:export-filename="/home/sheryl/Piers/furball frames/furball.v2.41.f0.png"
       inkscape:export-xdpi="10.56"
       inkscape:export-ydpi="10.56" />
    <g
       id="g2661"
       inkscape:label="foot below"
       transform="matrix(-4.1093027,0,0,4.1093027,2223.8735,-2231.2965)" />
    <g
       inkscape:label="inside colour shading"
       id="g2663"
       style="display:inline"
       transform="matrix(-4.1093027,0,0,4.1093027,2223.8735,-2231.2965)" />
    <g
       id="g2665"
       inkscape:label="outline"
       transform="matrix(-4.1093027,0,0,4.1093027,2223.8735,-2231.2965)" />
    <g
       id="g2667"
       inkscape:label="shadowing"
       transform="matrix(-4.1093027,0,0,4.1093027,2223.8735,-2231.2965)" />
    <g
       style="stroke:#000000;stroke-width:66.02096558;stroke-miterlimit:4;stroke-dasharray:none;stroke-opacity:1"
       id="g3480"
       inkscape:label="Layer 1"
       transform="matrix(-0.1160341,1.2817742e-2,1.1241058e-2,0.1323092,237.30848,384.23533)"
       inkscape:transform-center-x="-27.57098"
       inkscape:transform-center-y="-11.950164" />
    <g
       id="g2796"
       inkscape:label="foot below"
       transform="matrix(-2.1173273,0,0,2.1173273,1560.3272,-752.9691)" />
    <g
       inkscape:label="inside colour shading"
       id="g2798"
       style="display:inline"
       transform="matrix(-2.1173273,0,0,2.1173273,1560.3272,-752.9691)" />
    <g
       id="g2800"
       inkscape:label="outline"
       transform="matrix(-2.1173273,0,0,2.1173273,1560.3272,-752.9691)" />
    <g
       id="g2802"
       inkscape:label="shadowing"
       transform="matrix(-2.1173273,0,0,2.1173273,1560.3272,-752.9691)" />
    <g
       inkscape:transform-center-y="-11.950164"
       inkscape:transform-center-x="-27.57098"
       transform="matrix(-0.1160341,1.2817742e-2,1.1241058e-2,0.1323092,237.30848,384.23533)"
       inkscape:label="Layer 1"
       id="g16330"
       style="stroke:#000000;stroke-width:66.02096558;stroke-miterlimit:4;stroke-dasharray:none;stroke-opacity:1" />
    <g
       style="display:inline"
       transform="matrix(0.7586197,0,0,0.9602789,-340.63811,97.158245)"
       id="g3948">
      <path
         style="fill:url(#linearGradient3958);fill-opacity:1;fill-rule:nonzero;stroke:#000000;stroke-width:5.10435486;stroke-linejoin:miter;stroke-miterlimit:4;stroke-dasharray:none;stroke-opacity:1;display:inline"
         d="M 759.53903,760.8823 C 767.91424,754.17378 770.18126,747.40861 760.79922,738.47354 L 702.99475,753.55003 L 759.53903,760.8823 z"
         id="path3950"
         sodipodi:nodetypes="cccc" />
      <path
         style="fill:url(#linearGradient3960);fill-opacity:1;fill-rule:nonzero;stroke:#000000;stroke-width:5.10435486;stroke-linejoin:miter;stroke-miterlimit:4;stroke-dasharray:none;stroke-opacity:1;display:inline"
         d="M 757.53903,770.8823 C 765.91424,764.17378 764.43126,757.53361 755.04922,748.59854 L 700.99475,763.55003 L 757.53903,770.8823 z"
         id="path3952"
         sodipodi:nodetypes="cccc" />
      <path
         style="fill:url(#linearGradient3962);fill-opacity:1;fill-rule:nonzero;stroke:#000000;stroke-width:5.10435486;stroke-linejoin:miter;stroke-miterlimit:4;stroke-dasharray:none;stroke-opacity:1;display:inline"
         d="M 756.53903,780.3823 C 764.91424,773.67378 763.43126,767.03361 754.04922,758.09854 L 699.99475,773.05003 L 743.14189,780.71617 L 756.53903,780.3823 z"
         id="path3954"
         sodipodi:nodetypes="ccccc" />
      <path
         transform="translate(86.015417,344.74042)"
         style="fill:url(#radialGradient3964);fill-opacity:1;fill-rule:nonzero;stroke:#000000;stroke-width:8;stroke-linecap:butt;stroke-linejoin:miter;marker:none;marker-start:none;marker-mid:none;marker-end:none;stroke-miterlimit:4;stroke-dasharray:none;stroke-dashoffset:0;stroke-opacity:1;visibility:visible;display:inline;overflow:visible;enable-background:accumulate"
         d="M 814.58698,434.21826 C 792.52821,448.08532 712.66204,442.66494 659.02349,434.21826 C 632.44669,407.41556 704.40509,365.10038 773.6753,373.47815 C 800.44975,377.84569 826.39463,414.50695 814.58698,434.21826 z"
         id="path3956"
         sodipodi:nodetypes="cccc" />
    </g>
    <g
       style="display:inline"
       id="g2506"
       transform="translate(2.1185608e-6,4.7657784e-4)">
      <path
         sodipodi:nodetypes="ccccccccccccccccccccccccccccccccc"
         id="path3483"
         d="M 515.27789,655.33449 C 515.27789,666.20364 514.11945,676.81679 511.91373,687.06817 C 509.70798,697.31951 506.45492,707.20908 502.26585,716.63099 C 498.07678,726.05284 492.95165,735.00707 487.00155,743.38785 C 481.05152,751.76861 474.27663,759.57589 466.78793,766.70385 C 459.29931,773.83179 451.09698,780.28044 442.29215,785.94389 C 433.48732,791.60737 424.07999,796.48569 414.18134,800.47299 C 404.28269,804.46034 393.89274,807.55667 383.12267,809.65616 C 372.3526,811.75567 361.20237,812.85834 349.78326,812.85834 C 338.36413,812.85834 327.21394,811.75567 316.44386,809.65616 C 305.67376,807.55667 295.28383,804.46034 285.38519,800.47299 C 275.48652,796.48569 266.0792,791.60737 257.27437,785.94389 C 248.46954,780.28044 240.26721,773.83179 232.77857,766.70385 C 225.28997,759.57589 218.51501,751.76861 212.56498,743.38785 C 206.61491,735.00707 201.48976,726.05284 197.30066,716.63099 C 193.11159,707.20908 189.85861,697.31951 187.65283,687.06817 C 185.44714,676.81679 184.28867,666.20364 184.28867,655.33449 C 184.28867,644.46537 185.44714,633.8522 187.65283,623.60082 C 189.85861,613.34947 193.11159,603.45992 197.30066,594.03802 C 201.48976,584.61613 206.61491,575.6619 212.56498,567.28114 C 218.51501,558.90035 225.28997,551.09309 232.77857,543.96512 C 240.26721,536.83717 248.46954,530.38855 257.27437,524.72507 C 266.0792,519.06159 275.48652,514.18327 285.38519,510.19598 C 295.28383,506.20866 305.67376,503.11232 316.44386,501.01281 C 327.21394,498.91333 338.36413,497.81065 349.78326,497.81065 C 361.20237,497.81065 372.3526,498.91333 383.12267,501.01281 C 393.89274,503.11232 404.28269,506.20866 414.18134,510.19598 C 424.07999,514.18327 433.48732,519.06159 442.29215,524.72507 C 451.09698,530.38855 459.29931,536.83717 466.78793,543.96512 C 474.27663,551.09309 481.05152,558.90035 487.00155,567.28114 C 492.95165,575.6619 498.07678,584.61613 502.26585,594.03802 C 506.45492,603.45992 509.70798,613.34947 511.91373,623.60082 C 514.11945,633.8522 515.27789,644.46537 515.27789,655.33449 z"
         style="fill:url(#linearGradient2505);fill-opacity:1;fill-rule:nonzero;stroke:#000000;stroke-width:7.63320684;stroke-linecap:butt;stroke-linejoin:miter;marker:none;marker-start:none;marker-mid:none;marker-end:none;stroke-miterlimit:4;stroke-dasharray:none;stroke-dashoffset:0;stroke-opacity:1;visibility:visible;display:inline;overflow:visible;enable-background:accumulate" />
      <path
         transform="matrix(0.776858,0,0,0.776858,78.050896,146.23124)"
         d="M 349.78125,497.8125 C 338.36212,497.8125 327.20759,498.90052 316.4375,501 C 305.6674,503.09951 295.27364,506.20019 285.375,510.1875 C 275.47633,514.1748 266.08607,519.05529 257.28125,524.71875 C 248.47642,530.38223 240.2699,536.84081 232.78125,543.96875 C 225.29265,551.09672 218.51252,558.90045 212.5625,567.28125 C 206.61243,575.66201 201.5016,584.60935 197.3125,594.03125 C 193.12343,603.45315 189.86203,613.34238 187.65625,623.59375 C 185.45056,633.84513 184.28125,644.47463 184.28125,655.34375 C 184.28125,666.2129 185.45056,676.81111 187.65625,687.0625 C 189.86203,697.31385 193.12343,707.20309 197.3125,716.625 C 201.5016,726.04686 206.61242,734.99424 212.5625,743.375 C 218.51253,751.75576 225.29266,759.59077 232.78125,766.71875 C 240.26989,773.8467 248.47641,780.27402 257.28125,785.9375 C 266.08608,791.60098 275.47633,796.48147 285.375,800.46875 C 295.27364,804.4561 305.66741,807.55678 316.4375,809.65625 C 327.20758,811.75576 338.36212,812.84374 349.78125,812.84375 C 361.20036,812.84375 372.35492,811.75577 383.125,809.65625 C 393.89507,807.55677 404.28885,804.45612 414.1875,800.46875 C 424.08615,796.48145 433.47643,791.60095 442.28125,785.9375 C 451.08608,780.27405 459.29263,773.84667 466.78125,766.71875 C 474.26995,759.5908 481.04996,751.75578 487,743.375 C 492.9501,734.99422 498.09219,726.04685 502.28125,716.625 C 506.47032,707.2031 509.7005,697.31383 511.90625,687.0625 C 514.11197,676.81113 515.28125,666.21291 515.28125,655.34375 C 515.28125,644.47462 514.11197,633.84511 511.90625,623.59375 C 509.7005,613.3424 506.47033,603.45314 502.28125,594.03125 C 498.09218,584.60936 492.95009,575.66201 487,567.28125 C 481.04997,558.90045 474.26995,551.09674 466.78125,543.96875 C 459.29263,536.84079 451.08609,530.38226 442.28125,524.71875 C 433.47642,519.05526 424.08615,514.17481 414.1875,510.1875 C 404.28885,506.20018 393.89506,503.09951 383.125,501 C 372.35493,498.90052 361.20036,497.81249 349.78125,497.8125 z"
         id="path2503"
         style="fill:#444444;fill-opacity:1;fill-rule:nonzero;stroke:none;stroke-width:7.63320684;stroke-linecap:butt;stroke-linejoin:miter;marker:none;marker-start:none;marker-mid:none;marker-end:none;stroke-miterlimit:4;stroke-dasharray:none;stroke-dashoffset:0;stroke-opacity:1;visibility:visible;display:inline;overflow:visible;filter:url(#filter3345);enable-background:accumulate"
         xlink:href="#path5246"
         inkscape:original="M 349.78125 497.8125 C 338.36212 497.8125 327.20759 498.90052 316.4375 501 C 305.6674 503.09951 295.27364 506.20019 285.375 510.1875 C 275.47633 514.1748 266.08607 519.05529 257.28125 524.71875 C 248.47642 530.38223 240.2699 536.84081 232.78125 543.96875 C 225.29265 551.09672 218.51252 558.90045 212.5625 567.28125 C 206.61243 575.66201 201.5016 584.60935 197.3125 594.03125 C 193.12343 603.45315 189.86203 613.34238 187.65625 623.59375 C 185.45056 633.84513 184.28125 644.47463 184.28125 655.34375 C 184.28125 666.2129 185.45056 676.81111 187.65625 687.0625 C 189.86203 697.31385 193.12343 707.20309 197.3125 716.625 C 201.5016 726.04686 206.61242 734.99424 212.5625 743.375 C 218.51253 751.75576 225.29266 759.59077 232.78125 766.71875 C 240.26989 773.8467 248.47641 780.27402 257.28125 785.9375 C 266.08608 791.60098 275.47633 796.48147 285.375 800.46875 C 295.27364 804.4561 305.66741 807.55678 316.4375 809.65625 C 327.20758 811.75576 338.36212 812.84374 349.78125 812.84375 C 361.20036 812.84375 372.35492 811.75577 383.125 809.65625 C 393.89507 807.55677 404.28885 804.45612 414.1875 800.46875 C 424.08615 796.48145 433.47643 791.60095 442.28125 785.9375 C 451.08608 780.27405 459.29263 773.84667 466.78125 766.71875 C 474.26995 759.5908 481.04996 751.75578 487 743.375 C 492.9501 734.99422 498.09219 726.04685 502.28125 716.625 C 506.47032 707.2031 509.7005 697.31383 511.90625 687.0625 C 514.11197 676.81113 515.28125 666.21291 515.28125 655.34375 C 515.28125 644.47462 514.11197 633.84511 511.90625 623.59375 C 509.7005 613.3424 506.47033 603.45314 502.28125 594.03125 C 498.09218 584.60936 492.95009 575.66201 487 567.28125 C 481.04997 558.90045 474.26995 551.09674 466.78125 543.96875 C 459.29263 536.84079 451.08609 530.38226 442.28125 524.71875 C 433.47642 519.05526 424.08615 514.17481 414.1875 510.1875 C 404.28885 506.20018 393.89506 503.09951 383.125 501 C 372.35493 498.90052 361.20036 497.81249 349.78125 497.8125 z "
         inkscape:radius="0"
         sodipodi:type="inkscape:offset" />
      <g
         id="g5890">
        <g
           id="g3487"
           style="display:inline;filter:url(#filter4539)"
           transform="matrix(0.8141157,0,0,0.8868604,66.017448,98.838386)">
          <path
             sodipodi:nodetypes="cccccccccccc"
             id="path3489"
             d="M 231.6464,710.49476 C 238.901,713.11774 381.12608,724.59534 414.24585,684.28321 C 416.11985,665.6154 431.29725,704.59208 408.08001,729.64601 C 401.31304,737.2688 390.10281,745.75594 381.71898,751.53706 C 371.27928,757.48174 367.63297,759.33119 356.43656,762.65573 C 356.43656,762.65573 346.02087,765.64343 341.41552,765.79199 C 336.81017,765.94055 330.99984,766.13863 326.39449,766.28719 C 321.78914,766.43575 296.8612,764.31806 292.39082,762.65573 C 287.92044,760.99339 277.81663,758.19035 270.39473,754.89705 C 262.97283,751.60375 256.40349,748.13864 250.87299,744.12678 C 245.3425,740.11491 240.85085,735.55629 237.58432,730.07594 C 234.3178,724.59559 224.3918,707.87178 231.6464,710.49476 z"
             style="fill:#ffffff;fill-opacity:1;fill-rule:nonzero;stroke:none;stroke-width:7;stroke-linejoin:miter;stroke-miterlimit:4;stroke-dasharray:none;stroke-opacity:1;display:inline" />
          <path
             sodipodi:nodetypes="cccccccccccccccccccccccccccccccccccccccccccccccccccccc"
             id="path3491"
             d="M 409.5159,662.58215 C 410.35601,669.84987 410.92483,681.76774 408.93281,685.70413 C 401.33919,694.44771 387.22599,701.0046 369.90156,705.36038 C 352.1551,709.82227 331.24106,712.07129 311.08906,712.98538 C 290.93706,713.89947 271.51546,713.48234 256.74531,712.67288 C 249.36024,712.26815 243.13127,711.77622 238.55781,711.29788 C 236.27108,711.05871 234.39586,710.81678 233.02656,710.61038 C 231.65727,710.40398 230.62463,710.1266 230.83906,710.20413 C 229.49304,709.71746 227.87391,709.32056 226.05781,710.26663 C 224.24172,711.2127 223.5968,713.28087 223.55781,714.57913 C 223.47984,717.17565 224.39715,719.19998 225.46406,721.64163 C 227.59788,726.52494 230.92117,732.11451 232.55781,734.86038 C 236.10976,740.81953 240.98635,745.73119 246.80781,749.95408 C 252.62929,754.17708 259.41008,757.75848 266.96406,761.11038 C 274.7894,764.58268 285.09136,767.44428 289.15156,768.95408 C 291.0376,769.65548 293.31703,769.98188 296.43281,770.42288 C 299.5486,770.86388 303.27648,771.27888 306.99531,771.64168 C 314.43297,772.36718 321.45351,772.89608 324.49531,772.79788 C 329.10609,772.64918 334.92657,772.44628 339.52656,772.29788 C 342.49998,772.20198 346.20353,771.36408 349.46406,770.57908 C 352.72458,769.79418 355.40156,769.01668 355.40156,769.01668 L 355.43281,769.01668 C 366.76998,765.65028 370.95983,763.54278 381.43281,757.57908 L 381.55781,757.51668 L 381.68281,757.42288 C 390.18421,751.56068 401.49807,743.07878 408.68281,734.98538 C 421.16493,721.51583 423.2395,704.55608 422.02656,693.20413 C 421.72332,690.36614 439.42589,698.12643 438.76606,696.03795 C 419.6322,683.97644 415.29271,675.90511 409.5159,662.58215 z M 414.33906,690.14163 C 414.61261,691.34816 414.92554,692.42371 415.08906,693.95413 C 416.12901,703.68705 414.23043,718.68228 403.49531,730.26663 L 403.46406,730.29788 L 403.46406,730.32913 C 397.14411,737.44837 386.09319,745.87994 377.83906,751.57908 C 377.80084,751.60548 377.75216,751.64658 377.71406,751.67288 C 367.57467,757.44288 364.36908,759.05048 353.43281,762.29788 C 353.43281,762.29788 350.90647,763.02058 347.80781,763.76668 C 344.70916,764.51268 340.90849,765.24528 339.27656,765.29788 C 334.66584,765.44668 328.87648,765.64958 324.27656,765.79788 C 322.71301,765.84838 314.97806,765.38458 307.68281,764.67288 C 304.03519,764.31708 300.39223,763.90428 297.43281,763.48538 C 294.4734,763.06648 291.93822,762.52148 291.58906,762.39168 C 286.7085,760.57668 276.82627,757.81838 269.80781,754.70408 C 262.51799,751.46948 256.14109,748.09868 250.90156,744.29788 C 245.66204,740.49708 241.57017,736.29933 238.58906,731.29788 C 236.95918,728.56336 233.70247,723.05332 231.87031,718.86038 C 231.54661,718.11959 231.60276,718.0534 231.40156,717.42288 C 231.62529,717.45671 231.74077,717.50951 231.99531,717.54788 C 233.52258,717.77809 235.47785,718.01967 237.83906,718.26663 C 242.56149,718.76055 248.88411,719.26261 256.37031,719.67288 C 271.34272,720.49343 290.9505,720.91304 311.40156,719.98538 C 331.85263,719.05772 353.12668,716.78352 371.58906,712.14163 C 389.68566,707.5917 405.15123,700.85069 414.33906,690.14163 z"
             style="fill:#000000;fill-opacity:1;fill-rule:nonzero;stroke:none;stroke-width:7;stroke-linejoin:miter;stroke-miterlimit:4;stroke-dasharray:none;stroke-opacity:1;display:inline" />
          <rect
             y="712.94196"
             x="255.0253"
             height="40.15152"
             width="5.1356592"
             id="rect3493"
             style="opacity:1;fill:#000000;fill-opacity:1;fill-rule:nonzero;stroke:none;stroke-width:2;stroke-linejoin:miter;stroke-miterlimit:4;stroke-dasharray:none;stroke-opacity:1" />
          <rect
             y="719.01135"
             x="283.73831"
             height="43.886543"
             width="5.1356592"
             id="rect3495"
             style="opacity:1;fill:#000000;fill-opacity:1;fill-rule:nonzero;stroke:none;stroke-width:2;stroke-linejoin:miter;stroke-miterlimit:4;stroke-dasharray:none;stroke-opacity:1;display:inline" />
          <rect
             y="716.677"
             x="317.8204"
             height="49.955959"
             width="5.1356592"
             id="rect3497"
             style="opacity:1;fill:#000000;fill-opacity:1;fill-rule:nonzero;stroke:none;stroke-width:2;stroke-linejoin:miter;stroke-miterlimit:4;stroke-dasharray:none;stroke-opacity:1;display:inline" />
          <rect
             y="712.24164"
             x="354.23691"
             height="53.224106"
             width="5.1356592"
             id="rect3499"
             style="opacity:1;fill:#000000;fill-opacity:1;fill-rule:nonzero;stroke:none;stroke-width:2;stroke-linejoin:miter;stroke-miterlimit:4;stroke-dasharray:none;stroke-opacity:1;display:inline" />
          <rect
             y="701.03656"
             x="386.91837"
             height="46.687813"
             width="5.1356592"
             id="rect3501"
             style="opacity:1;fill:#000000;fill-opacity:1;fill-rule:nonzero;stroke:none;stroke-width:2;stroke-linejoin:miter;stroke-miterlimit:4;stroke-dasharray:none;stroke-opacity:1;display:inline" />
        </g>
        <path
           style="fill:url(#linearGradient5877);fill-opacity:1;fill-rule:nonzero;stroke:#000000;stroke-width:8.05799961;stroke-linejoin:miter;stroke-miterlimit:4;stroke-dasharray:none;stroke-opacity:1;display:inline"
           d="M 386.91386,503.37405 C 360.35089,527.71555 331.71527,527.55576 301.04495,503.34389 L 343.99494,378.24171 L 386.91386,503.37405 z"
           id="path3503"
           sodipodi:nodetypes="cccc" />
        <path
           style="fill:url(#linearGradient5874);fill-opacity:1;fill-rule:nonzero;stroke:#000000;stroke-width:8.05811024;stroke-linejoin:miter;stroke-miterlimit:4;stroke-dasharray:none;stroke-opacity:1;display:inline"
           d="M 235.07411,538.48027 C 241.3434,575.45498 226.89725,602.11449 192.11542,618.64787 L 120.18107,525.89043 L 235.07411,538.48027 z"
           id="path3505"
           sodipodi:nodetypes="cccc" />
        <path
           style="fill:url(#linearGradient5871);fill-opacity:1;fill-rule:nonzero;stroke:#000000;stroke-width:7.08790302;stroke-linejoin:miter;stroke-miterlimit:4;stroke-dasharray:none;stroke-opacity:1;display:inline"
           d="M 461.97486,543.47235 C 456.66225,577.23095 473.14662,586.01519 502.6208,601.11048 L 565.32756,522.9392 L 461.97486,543.47235 z"
           id="path3507"
           sodipodi:nodetypes="cccc" />
        <path
           style="fill:url(#linearGradient5868);fill-opacity:1;fill-rule:nonzero;stroke:#000000;stroke-width:8.05811024;stroke-linejoin:miter;stroke-miterlimit:4;stroke-dasharray:none;stroke-opacity:1;display:inline"
           d="M 230.00859,757.72624 C 222.37914,729.09076 223.83315,711.84159 192.70676,693.11497 L 108.04447,780.21557 L 230.00859,757.72624 z"
           id="path3509"
           sodipodi:nodetypes="cccc" />
        <path
           style="fill:url(#linearGradient5865);fill-opacity:1;fill-rule:nonzero;stroke:#000000;stroke-width:8.05811024;stroke-linejoin:miter;stroke-miterlimit:4;stroke-dasharray:none;stroke-opacity:1;display:inline"
           d="M 476.92209,755.86325 C 468.49804,719.33457 481.35681,691.84615 515.10826,673.23217 L 575.94508,758.42863 L 476.92209,755.86325 z"
           id="path3511"
           sodipodi:nodetypes="cccc" />
        <g
           id="g3513"
           transform="translate(12.000178,-22.565474)">
          <g
             transform="matrix(0.6931665,0,0,0.7473975,122.94649,253.55478)"
             id="g3515"
             style="display:inline;filter:url(#filter3344)">
            <path
               transform="matrix(1.1113653,0,0,0.8196033,-46.29676,324.01606)"
               d="M 282.75292,263.27377 A 60.160194,96.256317 0 1 1 162.43253,263.27377 A 60.160194,96.256317 0 1 1 282.75292,263.27377 z"
               sodipodi:ry="96.256317"
               sodipodi:rx="60.160194"
               sodipodi:cy="263.27377"
               sodipodi:cx="222.59273"
               id="path3517"
               style="fill:#ffffff;fill-opacity:1;fill-rule:nonzero;stroke:#000000;stroke-width:12.573349;stroke-linecap:round;stroke-miterlimit:4;stroke-dasharray:none;stroke-opacity:1"
               sodipodi:type="arc"
               inkscape:export-filename="/home/sheryl/Piers/furball frames/furball.v2.41.f0.png"
               inkscape:export-xdpi="10.56"
               inkscape:export-ydpi="10.56" />
            <path
               transform="matrix(1.1303155,0,0,0.8932462,-59.484588,311.732)"
               d="M 240.64078,254.75108 A 30.080097,51.637501 0 1 1 180.48059,254.75108 A 30.080097,51.637501 0 1 1 240.64078,254.75108 z"
               sodipodi:ry="51.637501"
               sodipodi:rx="30.080097"
               sodipodi:cy="254.75108"
               sodipodi:cx="210.56068"
               id="path3519"
               style="fill:#000000;fill-opacity:1;fill-rule:nonzero;stroke:none;stroke-width:8;stroke-linecap:round;stroke-miterlimit:4;stroke-dasharray:none;stroke-opacity:1;filter:url(#filter3352)"
               sodipodi:type="arc"
               inkscape:export-filename="/home/sheryl/Piers/furball frames/furball.v2.41.f0.png"
               inkscape:export-xdpi="10.56"
               inkscape:export-ydpi="10.56" />
            <path
               transform="matrix(1.2981244,0,0,1.1306248,-93.30264,260.92145)"
               d="M 220.58738,229.183 A 10.026699,14.037379 0 1 1 200.53399,229.183 A 10.026699,14.037379 0 1 1 220.58738,229.183 z"
               sodipodi:ry="14.037379"
               sodipodi:rx="10.026699"
               sodipodi:cy="229.183"
               sodipodi:cx="210.56068"
               id="path3521"
               style="fill:#ffffff;fill-opacity:1;fill-rule:nonzero;stroke:none;stroke-width:7.99980927;stroke-linecap:round;stroke-miterlimit:4;stroke-dasharray:none;stroke-opacity:1;filter:url(#filter17728)"
               sodipodi:type="arc"
               inkscape:export-filename="/home/sheryl/Piers/furball frames/furball.v2.41.f0.png"
               inkscape:export-xdpi="10.56"
               inkscape:export-ydpi="10.56" />
          </g>
          <g
             transform="matrix(0.6931665,0,0,0.7473975,122.94649,253.55478)"
             id="g3523"
             style="display:inline;filter:url(#filter3340)">
            <path
               sodipodi:type="arc"
               style="fill:#ffffff;fill-opacity:1;fill-rule:nonzero;stroke:#000000;stroke-width:12.573349;stroke-linecap:round;stroke-miterlimit:4;stroke-dasharray:none;stroke-opacity:1"
               id="path3525"
               sodipodi:cx="222.59273"
               sodipodi:cy="263.27377"
               sodipodi:rx="60.160194"
               sodipodi:ry="96.256317"
               d="M 282.75292,263.27377 A 60.160194,96.256317 0 1 1 162.43253,263.27377 A 60.160194,96.256317 0 1 1 282.75292,263.27377 z"
               transform="matrix(1.1113653,0,0,0.8196033,36.924839,326.0214)"
               inkscape:export-filename="/home/sheryl/Piers/furball frames/furball.v2.41.f0.png"
               inkscape:export-xdpi="10.56"
               inkscape:export-ydpi="10.56" />
            <path
               inkscape:export-ydpi="10.56"
               inkscape:export-xdpi="10.56"
               inkscape:export-filename="/home/sheryl/Piers/furball frames/furball.v2.41.f0.png"
               sodipodi:type="arc"
               style="fill:#000000;fill-opacity:1;fill-rule:nonzero;stroke:none;stroke-width:8;stroke-linecap:round;stroke-miterlimit:4;stroke-dasharray:none;stroke-opacity:1;filter:url(#filter3348)"
               id="path3527"
               sodipodi:cx="210.56068"
               sodipodi:cy="254.75108"
               sodipodi:rx="30.080097"
               sodipodi:ry="51.637501"
               d="M 240.64078,254.75108 A 30.080097,51.637501 0 1 1 180.48059,254.75108 A 30.080097,51.637501 0 1 1 240.64078,254.75108 z"
               transform="matrix(1.1303155,0,0,0.8932462,24.015412,313.732)" />
            <path
               sodipodi:type="arc"
               style="fill:#ffffff;fill-opacity:1;fill-rule:nonzero;stroke:none;stroke-width:7.99980927;stroke-linecap:round;stroke-miterlimit:4;stroke-dasharray:none;stroke-opacity:1;filter:url(#filter17752)"
               id="path3529"
               sodipodi:cx="210.56068"
               sodipodi:cy="229.183"
               sodipodi:rx="10.026699"
               sodipodi:ry="14.037379"
               d="M 220.58738,229.183 A 10.026699,14.037379 0 1 1 200.53399,229.183 A 10.026699,14.037379 0 1 1 220.58738,229.183 z"
               transform="matrix(1.4621455,0,0,1.2734819,-49.194447,226.17569)"
               inkscape:export-filename="/home/sheryl/Piers/furball frames/furball.v2.41.f0.png"
               inkscape:export-xdpi="10.56"
               inkscape:export-ydpi="10.56" />
          </g>
        </g>
        <path
           style="fill:url(#linearGradient5853);fill-opacity:1;fill-rule:nonzero;stroke:#000000;stroke-width:8;stroke-linejoin:miter;stroke-miterlimit:4;stroke-dasharray:none;stroke-opacity:1;display:inline"
           d="M 435.61319,553.37696 C 416.90396,558.78225 405.30325,551.23562 400.68074,530.97455 L 458.76036,478.79959 L 435.61319,553.37696 z"
           id="path3531"
           sodipodi:nodetypes="cccc" />
        <path
           style="fill:url(#linearGradient5850);fill-opacity:1;fill-rule:nonzero;stroke:#000000;stroke-width:6.86776924;stroke-linejoin:miter;stroke-miterlimit:4;stroke-dasharray:none;stroke-opacity:1;display:inline"
           d="M 488.99485,659.38711 C 480.85769,646.88741 482.29852,634.51507 491.41389,617.86676 L 543.93196,645.7252 L 488.99485,659.38711 z"
           id="path3533"
           sodipodi:nodetypes="cccc" />
        <path
           style="fill:url(#linearGradient5847);fill-opacity:1;fill-rule:nonzero;stroke:#000000;stroke-width:8;stroke-linejoin:miter;stroke-miterlimit:4;stroke-dasharray:none;stroke-opacity:1;display:inline"
           d="M 264.09352,551.48668 C 282.80275,556.89198 294.40346,549.34534 299.02597,529.08426 L 240.94635,476.90931 L 264.09352,551.48668 z"
           id="path3535"
           sodipodi:nodetypes="cccc" />
        <path
           style="fill:url(#linearGradient5844);fill-opacity:1;fill-rule:nonzero;stroke:#000000;stroke-width:8;stroke-linejoin:miter;stroke-miterlimit:4;stroke-dasharray:none;stroke-opacity:1;display:inline"
           d="M 200.14585,634.66055 C 215.08392,647.15485 215.30875,660.99237 201.09011,676.14855 L 120.95301,662.14585 L 200.14585,634.66055 z"
           id="path3537"
           sodipodi:nodetypes="cccc" />
        <path
           style="fill:#595a59;fill-opacity:1;fill-rule:nonzero;stroke:#000000;stroke-width:5.76225519;stroke-linejoin:miter;stroke-miterlimit:4;stroke-opacity:1"
           d="M 238.08785,552.21899 C 274.2002,562.03317 321.78703,587.60619 297.80552,620.15308 L 219.82704,592.81369 C 215.05885,569.24913 211.3458,545.02416 238.08785,552.21899 z"
           id="path3539"
           sodipodi:nodetypes="cccc" />
        <path
           style="fill:#595a59;fill-opacity:1;fill-rule:nonzero;stroke:#000000;stroke-width:5.76225519;stroke-linejoin:miter;stroke-miterlimit:4;stroke-opacity:1;display:inline"
           d="M 349.40592,551.59705 C 313.29357,561.41123 265.70674,586.98425 289.68825,619.53114 L 367.66673,592.19175 C 372.43492,568.62719 376.14797,544.40223 349.40592,551.59705 z"
           id="path3541"
           sodipodi:nodetypes="cccc" />
      </g>
    </g>
    <g
       style="display:inline"
       id="g3934"
       transform="matrix(0.8506118,6.9496213e-2,-8.7970269e-2,1.0767283,-208.90401,-61.496988)">
      <g
         id="g3966">
        <path
           style="fill:url(#linearGradient3980);fill-opacity:1;fill-rule:nonzero;stroke:#000000;stroke-width:5.10435486;stroke-linejoin:miter;stroke-miterlimit:4;stroke-dasharray:none;stroke-opacity:1;display:inline"
           d="M 759.53903,760.8823 C 767.91424,754.17378 770.18126,747.40861 760.79922,738.47354 L 702.99475,753.55003 L 759.53903,760.8823 z"
           id="path3922"
           sodipodi:nodetypes="cccc" />
        <path
           style="fill:url(#linearGradient3982);fill-opacity:1;fill-rule:nonzero;stroke:#000000;stroke-width:5.10435486;stroke-linejoin:miter;stroke-miterlimit:4;stroke-dasharray:none;stroke-opacity:1;display:inline"
           d="M 757.53903,770.8823 C 765.91424,764.17378 764.43126,757.53361 755.04922,748.59854 L 700.99475,763.55003 L 757.53903,770.8823 z"
           id="path3918"
           sodipodi:nodetypes="cccc" />
        <path
           style="fill:url(#linearGradient3984);fill-opacity:1;fill-rule:nonzero;stroke:#000000;stroke-width:5.10435486;stroke-linejoin:miter;stroke-miterlimit:4;stroke-dasharray:none;stroke-opacity:1;display:inline"
           d="M 756.53903,780.3823 C 764.91424,773.67378 763.43126,767.03361 754.04922,758.09854 L 699.99475,773.05003 L 743.14189,780.71617 L 756.53903,780.3823 z"
           id="path3882"
           sodipodi:nodetypes="ccccc" />
        <path
           transform="translate(86.015417,344.74042)"
           style="fill:url(#radialGradient3986);fill-opacity:1;fill-rule:nonzero;stroke:#000000;stroke-width:8;stroke-linecap:butt;stroke-linejoin:miter;marker:none;marker-start:none;marker-mid:none;marker-end:none;stroke-miterlimit:4;stroke-dasharray:none;stroke-dashoffset:0;stroke-opacity:1;visibility:visible;display:inline;overflow:visible;enable-background:accumulate"
           d="M 814.58698,434.21826 C 792.88842,443.56859 712.88807,448.36094 659.02349,434.21826 C 632.44669,407.41556 704.40509,365.10038 773.6753,373.47815 C 800.44975,377.84569 826.39463,414.50695 814.58698,434.21826 z"
           id="path3821"
           sodipodi:nodetypes="cccc" />
      </g>
    </g>
  </g>
  <g
     inkscape:groupmode="layer"
     id="layer7"
     inkscape:label="foot above"
     style="display:inline"
     transform="translate(-86.015417,-344.74042)" />
  <g
     inkscape:groupmode="layer"
     id="layer6"
     inkscape:label="hat"
     style="display:none"
     transform="translate(-86.015417,-344.74042)">
    <g
       inkscape:export-ydpi="79.918785"
       inkscape:export-xdpi="79.918785"
       inkscape:export-filename="/home/piers/documents/maryo/pngs/furball.v2.4-f0.128px.png"
       style="fill:url(#radialGradient2246);fill-opacity:1;fill-rule:evenodd;stroke:#000000;stroke-width:3;stroke-miterlimit:4;stroke-dasharray:none;stroke-opacity:1;display:inline"
       id="g3758"
       transform="matrix(-4.1093027,0,0,4.1093027,2223.8735,-2134.6385)">
      <path
         style="fill:url(#radialGradient2248);fill-opacity:1;fill-rule:evenodd;stroke:#000000;stroke-width:3;stroke-linecap:butt;stroke-linejoin:miter;stroke-miterlimit:4;stroke-dasharray:none;stroke-opacity:1"
         d="M 391.43411,693.75804 C 404.03538,674.4187 417.94824,662.89057 437.51107,651.27283 C 446.07552,644.04546 488.91055,638.25271 480.9551,629.9216 C 458.84984,616.97432 417.4296,611.31287 403.05484,621.74336 C 389.15718,631.82766 381.93338,667.13266 391.43411,693.75804 z"
         id="path3565"
         sodipodi:nodetypes="cccsc" />
      <path
         sodipodi:nodetypes="cccsssccsssc"
         style="fill:#ff0000;fill-opacity:1;fill-rule:evenodd;stroke:none;stroke-width:3;stroke-linecap:butt;stroke-linejoin:miter;stroke-miterlimit:4;stroke-dasharray:none;stroke-opacity:1"
         d="M 378.57143,660.57647 C 379.25794,659.15701 385.36293,654.67927 387.5,653.07646 C 397.07387,636.40778 418.05097,623.01836 442.32143,617.00503 C 444.45813,616.15036 459.1947,607.69657 462.14286,608.43361 C 465.988,609.3949 467.90003,611.53077 471.07143,613.43361 C 473.62151,614.96366 474.00179,614.11128 471.78572,615.21932 C 469.87996,616.1722 465.47186,621.92957 463.03571,621.6479 C 427.44775,635.12569 410.73016,646.3913 386.78571,673.43361 C 384.68403,675.53529 383.4597,677.35669 381.07143,679.1479 C 378.89091,680.78328 378.59424,683.16769 377.85714,680.21932 C 377.00114,676.79529 376.07071,673.42999 375.35714,669.86218 C 374.59028,666.02785 376.07143,661.90139 376.07143,658.07647"
         id="path3725"
         clip-path="url(#clipPath3754)" />
    </g>
    <path
       inkscape:export-ydpi="79.918785"
       inkscape:export-xdpi="79.918785"
       inkscape:export-filename="/home/piers/documents/maryo/pngs/furball.v2.4-f0.128px.png"
       sodipodi:nodetypes="cssszss"
       id="path3723"
       d="M 599.53411,640.14152 C 537.78682,577.72701 447.23937,506.3065 316.32426,450.12362 C 278.03328,433.69085 261.33932,428.95615 237.60917,458.85984 C 233.75246,463.71991 246.13589,475.48562 280.47811,486.83741 C 367.02192,515.44436 513.05412,632.42228 557.23792,666.41094 C 615.49805,711.2279 615.34917,732.38978 625.72981,707.92118 C 640.25837,673.67524 629.1674,670.09501 599.53411,640.14152 z"
       style="fill:#decd87;fill-opacity:1;fill-rule:evenodd;stroke:#000000;stroke-width:12.32790852;stroke-linecap:butt;stroke-linejoin:miter;stroke-miterlimit:4;stroke-dasharray:none;stroke-opacity:1" />
    <path
       id="path3780"
       d="M 312.57069,426.31564 C 392.04448,399.53686 437.17581,397.50884 514.67747,402.76208"
       style="fill:none;fill-rule:evenodd;stroke:#000000;stroke-width:9;stroke-linecap:butt;stroke-linejoin:miter;stroke-miterlimit:4;stroke-dasharray:none;stroke-opacity:1"
       inkscape:transform-center-x="95.188401"
       inkscape:transform-center-y="9.0354206"
       sodipodi:nodetypes="cc"
       inkscape:export-filename="/home/sheryl/Piers/furball frames/furball.v2.41.f0.png"
       inkscape:export-xdpi="10.56"
       inkscape:export-ydpi="10.56" />
    <path
       style="fill:none;fill-rule:evenodd;stroke:#000000;stroke-width:9;stroke-linecap:butt;stroke-linejoin:miter;stroke-miterlimit:4;stroke-dasharray:none;stroke-opacity:1;display:inline"
       d="M 598.8607,457.72233 C 629.89317,535.63364 635.1753,571.28798 629.89317,656.46221"
       id="path2809"
       inkscape:export-filename="/home/sheryl/Piers/furball frames/furball.v2.41.f0.png"
       inkscape:export-xdpi="10.56"
       inkscape:export-ydpi="10.56" />
    <path
       inkscape:export-ydpi="10.56"
       inkscape:export-xdpi="10.56"
       inkscape:export-filename="/home/sheryl/Piers/furball frames/furball.v2.41.f0.png"
       sodipodi:nodetypes="ccccccccc"
       id="path4008"
       d="M 524.30718,412.70722 C 493.06046,425.04358 510.48428,460.53938 541.95395,437.55475 C 512.77392,467.61144 560.28319,496.50982 573.26485,457.9107 C 580.76252,485.70047 622.53913,471.79043 602.75934,444.97576 C 631.64635,469.30453 652.0369,421.56766 616.36714,413.3984 C 646.53586,407.48878 631.89995,373.76332 605.36,382.0658 C 622.01648,353.02679 580.55878,334.89716 568.15851,365.97582 C 561.67062,333.70627 523.597,353.72521 538.5762,378.63324 C 507.83369,360.72128 494.71631,407.10867 524.30718,412.70722 z"
       style="fill:#decd87;fill-opacity:1;fill-rule:evenodd;stroke:#000000;stroke-width:8.98012829;stroke-miterlimit:4;stroke-dasharray:none;stroke-opacity:1" />
  </g>
</svg>
