<?xml version="1.0" encoding="UTF-8" standalone="no"?>
<!-- Created with Inkscape (http://www.inkscape.org/) -->
<svg
   xmlns:dc="http://purl.org/dc/elements/1.1/"
   xmlns:cc="http://creativecommons.org/ns#"
   xmlns:rdf="http://www.w3.org/1999/02/22-rdf-syntax-ns#"
   xmlns:svg="http://www.w3.org/2000/svg"
   xmlns="http://www.w3.org/2000/svg"
   xmlns:xlink="http://www.w3.org/1999/xlink"
   xmlns:sodipodi="http://sodipodi.sourceforge.net/DTD/sodipodi-0.dtd"
   xmlns:inkscape="http://www.inkscape.org/namespaces/inkscape"
   width="512"
   height="512"
   id="svg2"
   sodipodi:version="0.32"
   inkscape:version="0.46"
   sodipodi:docbase="D:\Dateien\Desktop\Secret Maryo Chronicles\Drafts\Game\Helios\level\enemies\furball\v2.5"
   sodipodi:docname="turn.svg"
   inkscape:output_extension="org.inkscape.output.svg.inkscape"
   version="1.0"
   inkscape:export-filename="D:\Dateien\Desktop\Secret Maryo Chronicles\SMC\data\pixmaps\enemy\spikeball\grey\turn.png"
   inkscape:export-xdpi="45"
   inkscape:export-ydpi="45">
  <defs
     id="defs4">
    <filter
       inkscape:collect="always"
       id="filter3345"
       x="-0.13249147"
       width="1.2649829"
       y="-0.13920738"
       height="1.2784148">
      <feGaussianBlur
         inkscape:collect="always"
         stdDeviation="18.272782"
         id="feGaussianBlur3347" />
    </filter>
    <linearGradient
       id="linearGradient3926">
      <stop
         style="stop-color:#787878;stop-opacity:1;"
         offset="0"
         id="stop3928" />
      <stop
         style="stop-color:#464646;stop-opacity:1;"
         offset="1"
         id="stop3930" />
    </linearGradient>
    <linearGradient
       id="linearGradient5419">
      <stop
         id="stop5421"
         offset="0"
         style="stop-color:#ffffff;stop-opacity:1;" />
      <stop
         style="stop-color:#c0c0c0;stop-opacity:1;"
         offset="0.40610132"
         id="stop5423" />
      <stop
         id="stop5425"
         offset="1"
         style="stop-color:#646464;stop-opacity:1;" />
    </linearGradient>
    <filter
       inkscape:collect="always"
       id="filter4539">
      <feGaussianBlur
         inkscape:collect="always"
         stdDeviation="0.8136459"
         id="feGaussianBlur4541" />
    </filter>
    <linearGradient
       id="linearGradient5248">
      <stop
         style="stop-color:#141414;stop-opacity:1;"
         offset="0"
         id="stop5250" />
      <stop
         style="stop-color:#505050;stop-opacity:1;"
         offset="1"
         id="stop5252" />
    </linearGradient>
    <clipPath
       id="clipPath3754"
       clipPathUnits="userSpaceOnUse">
      <path
         style="fill:#fff6d5;fill-rule:evenodd;stroke:#000000;stroke-width:1px;stroke-linecap:butt;stroke-linejoin:miter;stroke-opacity:1"
         d="M 391.43411,693.75804 C 404.03538,674.4187 417.94824,662.89057 437.51107,651.27283 C 446.07552,644.04546 488.91055,638.25271 480.9551,629.9216 C 458.84984,616.97432 417.4296,611.31287 403.05484,621.74336 C 389.15718,631.82766 381.93338,667.13266 391.43411,693.75804 z"
         id="path3756"
         sodipodi:nodetypes="cccsc" />
    </clipPath>
    <linearGradient
       id="linearGradient3762">
      <stop
         id="stop3764"
         offset="0"
         style="stop-color:#7982a6;stop-opacity:1;" />
      <stop
         style="stop-color:#ffffff;stop-opacity:1;"
         offset="0.30612245"
         id="stop3776" />
      <stop
         id="stop3766"
         offset="1"
         style="stop-color:#ffffff;stop-opacity:1;" />
    </linearGradient>
    <radialGradient
       inkscape:collect="always"
       xlink:href="#linearGradient3762"
       id="radialGradient2246"
       gradientUnits="userSpaceOnUse"
       gradientTransform="matrix(0.7638762,0.6453629,-0.9785236,1.158218,760.87876,-366.16097)"
       cx="390.07419"
       cy="678.53479"
       fx="390.07419"
       fy="678.53479"
       r="48.907497" />
    <radialGradient
       inkscape:collect="always"
       xlink:href="#linearGradient3762"
       id="radialGradient2248"
       gradientUnits="userSpaceOnUse"
       gradientTransform="matrix(0.7638762,0.6453629,-0.9785236,1.158218,760.87876,-366.16097)"
       cx="390.07419"
       cy="678.53479"
       fx="390.07419"
       fy="678.53479"
       r="48.907497" />
    <filter
       inkscape:collect="always"
       id="filter17728">
      <feGaussianBlur
         inkscape:collect="always"
         stdDeviation="0.71532756"
         id="feGaussianBlur17730" />
    </filter>
    <filter
       inkscape:collect="always"
       id="filter17752">
      <feGaussianBlur
         inkscape:collect="always"
         stdDeviation="0.71532756"
         id="feGaussianBlur17754" />
    </filter>
    <filter
       inkscape:collect="always"
       id="filter3348">
      <feGaussianBlur
         inkscape:collect="always"
         stdDeviation="0.39870587"
         id="feGaussianBlur3350" />
    </filter>
    <filter
       inkscape:collect="always"
       id="filter3352">
      <feGaussianBlur
         inkscape:collect="always"
         stdDeviation="0.39870587"
         id="feGaussianBlur3354" />
    </filter>
    <linearGradient
       inkscape:collect="always"
       xlink:href="#linearGradient5419"
       id="linearGradient8409"
       gradientUnits="userSpaceOnUse"
       gradientTransform="matrix(5.4321716e-2,1.8384229e-2,8.1674594e-3,-6.2490311e-2,331.95287,833.02201)"
       x1="-443.43286"
       y1="72.836197"
       x2="-59.968033"
       y2="284.83081" />
    <linearGradient
       inkscape:collect="always"
       xlink:href="#linearGradient5419"
       id="linearGradient8412"
       gradientUnits="userSpaceOnUse"
       gradientTransform="matrix(5.3660766e-2,2.19276e-2,8.0680836e-3,-7.4534677e-2,304.04283,838.3405)"
       x1="-443.43286"
       y1="72.836197"
       x2="-59.968033"
       y2="284.83081" />
    <linearGradient
       inkscape:collect="always"
       xlink:href="#linearGradient5419"
       id="linearGradient8415"
       gradientUnits="userSpaceOnUse"
       gradientTransform="matrix(5.3708541e-2,2.1623216e-2,8.075267e-3,-7.3500035e-2,276.6568,838.26336)"
       x1="-443.43286"
       y1="72.836197"
       x2="-59.968033"
       y2="284.83081" />
    <radialGradient
       inkscape:collect="always"
       xlink:href="#linearGradient3926"
       id="radialGradient8418"
       gradientUnits="userSpaceOnUse"
       gradientTransform="matrix(0.4843429,-9.876867e-3,3.1161108e-3,0.2448461,-86.563298,709.95768)"
       cx="709.91077"
       cy="359.57904"
       fx="709.91077"
       fy="359.57904"
       r="86.074114" />
    <linearGradient
       inkscape:collect="always"
       xlink:href="#linearGradient5419"
       id="linearGradient8422"
       gradientUnits="userSpaceOnUse"
       gradientTransform="matrix(5.2957163e-2,2.5699366e-2,7.9622941e-3,-8.7355386e-2,428.69956,845.4038)"
       x1="-443.43286"
       y1="72.836197"
       x2="-59.968033"
       y2="284.83081" />
    <linearGradient
       inkscape:collect="always"
       xlink:href="#linearGradient5419"
       id="linearGradient8426"
       gradientUnits="userSpaceOnUse"
       gradientTransform="matrix(5.2957163e-2,2.5699366e-2,7.9622941e-3,-8.7355386e-2,461.38103,844.47004)"
       x1="-443.43286"
       y1="72.836197"
       x2="-59.968033"
       y2="284.83081" />
    <linearGradient
       inkscape:collect="always"
       xlink:href="#linearGradient5419"
       id="linearGradient8430"
       gradientUnits="userSpaceOnUse"
       gradientTransform="matrix(5.2957163e-2,2.5699366e-2,7.9622941e-3,-8.7355386e-2,492.19499,842.60253)"
       x1="-443.43286"
       y1="72.836197"
       x2="-59.968033"
       y2="284.83081" />
    <radialGradient
       inkscape:collect="always"
       xlink:href="#linearGradient3926"
       id="radialGradient8442"
       gradientUnits="userSpaceOnUse"
       gradientTransform="matrix(0.5449284,-8.7339029e-3,2.3037056e-3,0.2754651,16.823632,706.95188)"
       cx="709.91077"
       cy="359.57904"
       fx="709.91077"
       fy="359.57904"
       r="86.074114" />
    <linearGradient
       inkscape:collect="always"
       xlink:href="#linearGradient5248"
       id="linearGradient6907"
       gradientUnits="userSpaceOnUse"
       gradientTransform="translate(600.13649,60.446381)"
       x1="390.47189"
       y1="756.08612"
       x2="298.78311"
       y2="557.74567" />
    <linearGradient
       inkscape:collect="always"
       xlink:href="#linearGradient5419"
       id="linearGradient6909"
       gradientUnits="userSpaceOnUse"
       gradientTransform="matrix(0.1919986,-0.1095909,6.5136515e-2,0.3230345,973.70052,420.92891)"
       x1="-443.43286"
       y1="72.836197"
       x2="-78.949097"
       y2="314.75095" />
    <linearGradient
       inkscape:collect="always"
       xlink:href="#linearGradient5419"
       id="linearGradient6911"
       gradientUnits="userSpaceOnUse"
       gradientTransform="matrix(7.9772549e-3,-0.23408,0.2920252,0.1006941,733.94197,512.44673)"
       x1="-89.85376"
       y1="175.16577"
       x2="-513.50488"
       y2="18.376907" />
    <linearGradient
       inkscape:collect="always"
       xlink:href="#linearGradient5419"
       id="linearGradient6913"
       gradientUnits="userSpaceOnUse"
       gradientTransform="matrix(-6.7599449e-3,-0.2137193,-0.2474629,9.1935546e-2,1125.7575,522.12637)"
       x1="-104.16974"
       y1="185.09149"
       x2="-419.2959"
       y2="110.75548" />
    <linearGradient
       inkscape:collect="always"
       xlink:href="#linearGradient5419"
       id="linearGradient6915"
       gradientUnits="userSpaceOnUse"
       gradientTransform="matrix(7.9772224e-3,0.23408,0.2920252,-0.1006941,728.87644,839.47479)"
       x1="-503.6281"
       y1="100.65696"
       x2="-67.229309"
       y2="239.78502" />
    <linearGradient
       inkscape:collect="always"
       xlink:href="#linearGradient5419"
       id="linearGradient6917"
       gradientUnits="userSpaceOnUse"
       gradientTransform="matrix(5.7491268e-3,0.2341478,-0.2974044,-8.2799969e-2,1157.3251,832.10073)"
       x1="-503.6281"
       y1="100.65696"
       x2="-67.229309"
       y2="239.78502" />
    <linearGradient
       inkscape:collect="always"
       xlink:href="#linearGradient5419"
       id="linearGradient6919"
       gradientUnits="userSpaceOnUse"
       gradientTransform="matrix(0.1136971,-5.4585603e-3,-7.8335888e-2,0.1806205,1058.9993,525.007)"
       x1="-443.43286"
       y1="72.836197"
       x2="-78.949097"
       y2="314.75095" />
    <linearGradient
       inkscape:collect="always"
       xlink:href="#linearGradient5419"
       id="linearGradient6921"
       gradientUnits="userSpaceOnUse"
       gradientTransform="matrix(4.143075e-2,0.1007725,-0.1408283,1.5151497e-2,1124.4597,693.36314)"
       x1="-443.43286"
       y1="72.836197"
       x2="-59.968033"
       y2="284.83081" />
    <linearGradient
       inkscape:collect="always"
       xlink:href="#linearGradient5419"
       id="linearGradient6923"
       gradientUnits="userSpaceOnUse"
       gradientTransform="matrix(-0.1136971,-5.4585603e-3,7.8335888e-2,0.1806205,816.98007,523.11673)"
       x1="-443.43286"
       y1="72.836197"
       x2="-78.949097"
       y2="314.75095" />
    <linearGradient
       inkscape:collect="always"
       xlink:href="#linearGradient5419"
       id="linearGradient6925"
       gradientUnits="userSpaceOnUse"
       gradientTransform="matrix(-6.8065974e-2,-9.1235131e-2,0.193561,-3.5977709e-2,721.95513,664.70908)"
       x1="-443.43286"
       y1="72.836197"
       x2="-78.949097"
       y2="314.75095" />
  </defs>
  <sodipodi:namedview
     id="base"
     pagecolor="#000000"
     bordercolor="#666666"
     borderopacity="1.0"
     gridtolerance="10000"
     guidetolerance="10"
     objecttolerance="10"
     inkscape:pageopacity="0"
     inkscape:pageshadow="2"
     inkscape:zoom="0.75727126"
     inkscape:cx="483.66495"
     inkscape:cy="146.15115"
     inkscape:document-units="px"
     inkscape:current-layer="layer5"
     inkscape:window-width="1105"
     inkscape:window-height="732"
     inkscape:window-x="22"
     inkscape:window-y="30"
     showguides="true"
     inkscape:guide-bbox="true"
     showgrid="false" />
  <metadata
     id="metadata7">
    <rdf:RDF>
      <cc:Work
         rdf:about="">
        <dc:format>image/svg+xml</dc:format>
        <dc:type
           rdf:resource="http://purl.org/dc/dcmitype/StillImage" />
      </cc:Work>
      <cc:Work
         rdf:about="">
        <dc:format>image/svg+xml</dc:format>
        <dc:type
           rdf:resource="http://purl.org/dc/dcmitype/StillImage" />
      </cc:Work>
    </rdf:RDF>
  </metadata>
  <g
     inkscape:groupmode="layer"
     id="layer5"
     inkscape:label="foot below"
     style="display:inline"
     transform="translate(-86.015417,-344.74042)">
    <path
       sodipodi:nodetypes="cccc"
       id="path3956"
       d="M 342.57662,828.02479 C 325.8424,841.34104 287.6645,842.67225 246.97324,834.56109 C 226.81156,808.82302 258.99047,761.65235 311.54021,769.69735 C 331.85184,773.8914 351.53414,809.09644 342.57662,828.02479 z"
       style="fill:url(#radialGradient8418);fill-opacity:1;fill-rule:nonzero;stroke:#000000;stroke-width:6.82811356;stroke-linecap:butt;stroke-linejoin:miter;marker:none;marker-start:none;marker-mid:none;marker-end:none;stroke-miterlimit:4;stroke-dasharray:none;stroke-dashoffset:0;stroke-opacity:1;visibility:visible;display:inline;overflow:visible;enable-background:accumulate" />
    <path
       sodipodi:nodetypes="cccc"
       id="path3950"
       d="M 273.39582,813.562 C 266.73389,809.31511 260.0157,808.16555 251.14267,812.92298 L 261.49261,834.97143 L 273.39582,813.562 z"
       style="fill:url(#linearGradient8415);fill-opacity:1;fill-rule:nonzero;stroke:#000000;stroke-width:3.62213874;stroke-linejoin:miter;stroke-miterlimit:4;stroke-dasharray:none;stroke-opacity:1;display:inline" />
    <path
       sodipodi:nodetypes="cccc"
       id="path3952"
       d="M 300.78474,813.29142 C 294.12873,808.98475 287.54053,809.74732 278.6754,814.57171 L 290.20853,837.08526 L 300.78474,813.29142 z"
       style="fill:url(#linearGradient8412);fill-opacity:1;fill-rule:nonzero;stroke:#000000;stroke-width:3.64592123;stroke-linejoin:miter;stroke-miterlimit:4;stroke-dasharray:none;stroke-opacity:1;display:inline" />
    <path
       sodipodi:nodetypes="cccc"
       id="path3954"
       d="M 328.65468,812.02078 C 321.91667,808.41004 315.24734,809.0494 306.27301,813.09419 L 319.96966,836.39824 L 328.65468,812.02078 z"
       style="fill:url(#linearGradient8409);fill-opacity:1;fill-rule:nonzero;stroke:#000000;stroke-width:3.35886645;stroke-linejoin:miter;stroke-miterlimit:4;stroke-dasharray:none;stroke-opacity:1;display:inline" />
    <g
       id="g6877"
       transform="translate(-588.13631,-27.857053)">
      <path
         sodipodi:nodetypes="ccccccccccccccccccccccccccccccccc"
         id="path6671"
         d="M 1103.4142,683.19202 C 1103.4142,694.06117 1102.2558,704.67432 1100.05,714.9257 C 1097.8443,725.17704 1094.5912,735.06661 1090.4022,744.48852 C 1086.2131,753.91037 1081.088,762.8646 1075.1379,771.24538 C 1069.1878,779.62614 1062.4129,787.43342 1054.9242,794.56138 C 1047.4356,801.68932 1039.2333,808.13797 1030.4285,813.80142 C 1021.6236,819.4649 1012.2163,824.34322 1002.3176,828.33052 C 992.419,832.31787 982.02905,835.4142 971.25898,837.51369 C 960.48891,839.6132 949.33868,840.71587 937.91957,840.71587 C 926.50044,840.71587 915.35025,839.6132 904.58017,837.51369 C 893.81007,835.4142 883.42014,832.31787 873.5215,828.33052 C 863.62283,824.34322 854.21551,819.4649 845.41068,813.80142 C 836.60585,808.13797 828.40352,801.68932 820.91488,794.56138 C 813.42628,787.43342 806.65132,779.62614 800.70129,771.24538 C 794.75122,762.8646 789.62607,753.91037 785.43697,744.48852 C 781.2479,735.06661 777.99492,725.17704 775.78914,714.9257 C 773.58345,704.67432 772.42498,694.06117 772.42498,683.19202 C 772.42498,672.3229 773.58345,661.70973 775.78914,651.45835 C 777.99492,641.207 781.2479,631.31745 785.43697,621.89555 C 789.62607,612.47366 794.75122,603.51943 800.70129,595.13867 C 806.65132,586.75788 813.42628,578.95062 820.91488,571.82265 C 828.40352,564.6947 836.60585,558.24608 845.41068,552.5826 C 854.21551,546.91912 863.62283,542.0408 873.5215,538.05351 C 883.42014,534.06619 893.81007,530.96985 904.58017,528.87034 C 915.35025,526.77086 926.50044,525.66818 937.91957,525.66818 C 949.33868,525.66818 960.48891,526.77086 971.25898,528.87034 C 982.02905,530.96985 992.419,534.06619 1002.3176,538.05351 C 1012.2163,542.0408 1021.6236,546.91912 1030.4285,552.5826 C 1039.2333,558.24608 1047.4356,564.6947 1054.9242,571.82265 C 1062.4129,578.95062 1069.1878,586.75788 1075.1379,595.13867 C 1081.088,603.51943 1086.2131,612.47366 1090.4022,621.89555 C 1094.5912,631.31745 1097.8443,641.207 1100.05,651.45835 C 1102.2558,661.70973 1103.4142,672.3229 1103.4142,683.19202 z"
         style="fill:url(#linearGradient6907);fill-opacity:1;fill-rule:nonzero;stroke:#000000;stroke-width:7.63320684;stroke-linecap:butt;stroke-linejoin:miter;marker:none;marker-start:none;marker-mid:none;marker-end:none;stroke-miterlimit:4;stroke-dasharray:none;stroke-dashoffset:0;stroke-opacity:1;visibility:visible;display:inline;overflow:visible;enable-background:accumulate" />
      <path
         transform="matrix(0.776858,0,0,0.776858,666.18721,174.08877)"
         d="M 349.78125,497.8125 C 338.36212,497.8125 327.20759,498.90053 316.4375,501 C 305.6674,503.09951 295.27364,506.20017 285.375,510.1875 C 275.47633,514.17479 266.08607,519.0553 257.28125,524.71875 C 248.47642,530.38223 240.2699,536.84082 232.78125,543.96875 C 225.29265,551.09672 218.51252,558.90046 212.5625,567.28125 C 206.61243,575.66201 201.5016,584.60935 197.3125,594.03125 C 193.12343,603.45315 189.86203,613.34238 187.65625,623.59375 C 185.45056,633.84513 184.28125,644.47464 184.28125,655.34375 C 184.28125,666.2129 185.45056,676.81111 187.65625,687.0625 C 189.86203,697.31384 193.12343,707.20309 197.3125,716.625 C 201.5016,726.04685 206.61242,734.99424 212.5625,743.375 C 218.51253,751.75576 225.29266,759.59077 232.78125,766.71875 C 240.26989,773.84669 248.47641,780.27402 257.28125,785.9375 C 266.08608,791.60098 275.47633,796.48147 285.375,800.46875 C 295.27364,804.4561 305.66741,807.55678 316.4375,809.65625 C 327.20758,811.75576 338.36212,812.84374 349.78125,812.84375 C 361.20036,812.84375 372.35492,811.75578 383.125,809.65625 C 393.89507,807.55676 404.28885,804.45612 414.1875,800.46875 C 424.08615,796.48145 433.47643,791.60095 442.28125,785.9375 C 451.08608,780.27405 459.29263,773.84667 466.78125,766.71875 C 474.26995,759.59079 481.04996,751.75578 487,743.375 C 492.9501,734.99422 498.09219,726.04685 502.28125,716.625 C 506.47032,707.20309 509.7005,697.31383 511.90625,687.0625 C 514.11197,676.81112 515.28125,666.21291 515.28125,655.34375 C 515.28125,644.47463 514.11197,633.84511 511.90625,623.59375 C 509.7005,613.3424 506.47033,603.45314 502.28125,594.03125 C 498.09218,584.60936 492.95009,575.66201 487,567.28125 C 481.04997,558.90046 474.26995,551.09674 466.78125,543.96875 C 459.29263,536.8408 451.08609,530.38226 442.28125,524.71875 C 433.47642,519.05527 424.08615,514.17478 414.1875,510.1875 C 404.28885,506.20018 393.89506,503.09952 383.125,501 C 372.35493,498.90052 361.20036,497.8125 349.78125,497.8125 z"
         id="path2503"
         style="fill:#444444;fill-opacity:1;fill-rule:nonzero;stroke:none;stroke-width:7.63320684;stroke-linecap:butt;stroke-linejoin:miter;marker:none;marker-start:none;marker-mid:none;marker-end:none;stroke-miterlimit:4;stroke-dasharray:none;stroke-dashoffset:0;stroke-opacity:1;visibility:visible;display:inline;overflow:visible;filter:url(#filter3345);enable-background:accumulate"
         xlink:href="#path5246"
         inkscape:original="M 349.78125 497.8125 C 338.36212 497.8125 327.20759 498.90053 316.4375 501 C 305.6674 503.09951 295.27364 506.20017 285.375 510.1875 C 275.47633 514.17479 266.08607 519.0553 257.28125 524.71875 C 248.47642 530.38223 240.2699 536.84082 232.78125 543.96875 C 225.29265 551.09672 218.51252 558.90046 212.5625 567.28125 C 206.61243 575.66201 201.5016 584.60935 197.3125 594.03125 C 193.12343 603.45315 189.86203 613.34238 187.65625 623.59375 C 185.45056 633.84513 184.28125 644.47464 184.28125 655.34375 C 184.28125 666.2129 185.45056 676.81111 187.65625 687.0625 C 189.86203 697.31384 193.12343 707.20309 197.3125 716.625 C 201.5016 726.04685 206.61242 734.99424 212.5625 743.375 C 218.51253 751.75576 225.29266 759.59077 232.78125 766.71875 C 240.26989 773.84669 248.47641 780.27402 257.28125 785.9375 C 266.08608 791.60098 275.47633 796.48147 285.375 800.46875 C 295.27364 804.4561 305.66741 807.55678 316.4375 809.65625 C 327.20758 811.75576 338.36212 812.84374 349.78125 812.84375 C 361.20036 812.84375 372.35492 811.75578 383.125 809.65625 C 393.89507 807.55676 404.28885 804.45612 414.1875 800.46875 C 424.08615 796.48145 433.47643 791.60095 442.28125 785.9375 C 451.08608 780.27405 459.29263 773.84667 466.78125 766.71875 C 474.26995 759.59079 481.04996 751.75578 487 743.375 C 492.9501 734.99422 498.09219 726.04685 502.28125 716.625 C 506.47032 707.20309 509.7005 697.31383 511.90625 687.0625 C 514.11197 676.81112 515.28125 666.21291 515.28125 655.34375 C 515.28125 644.47463 514.11197 633.84511 511.90625 623.59375 C 509.7005 613.3424 506.47033 603.45314 502.28125 594.03125 C 498.09218 584.60936 492.95009 575.66201 487 567.28125 C 481.04997 558.90046 474.26995 551.09674 466.78125 543.96875 C 459.29263 536.8408 451.08609 530.38226 442.28125 524.71875 C 433.47642 519.05527 424.08615 514.17478 414.1875 510.1875 C 404.28885 506.20018 393.89506 503.09952 383.125 501 C 372.35493 498.90052 361.20036 497.8125 349.78125 497.8125 z "
         inkscape:radius="0"
         sodipodi:type="inkscape:offset" />
      <g
         transform="matrix(0.8141157,0,0,0.8868604,679.24384,117.45219)"
         style="display:inline;filter:url(#filter4539)"
         id="g6675">
        <path
           style="fill:#ffffff;fill-opacity:1;fill-rule:nonzero;stroke:none;stroke-width:7;stroke-linejoin:miter;stroke-miterlimit:4;stroke-dasharray:none;stroke-opacity:1;display:inline"
           d="M 231.6464,710.49476 C 238.901,713.11774 381.12608,724.59534 414.24585,684.28321 C 416.11985,665.6154 431.29725,704.59208 408.08001,729.64601 C 401.31304,737.2688 390.10281,745.75594 381.71898,751.53706 C 371.27928,757.48174 367.63297,759.33119 356.43656,762.65573 C 356.43656,762.65573 346.02087,765.64343 341.41552,765.79199 C 336.81017,765.94055 330.99984,766.13863 326.39449,766.28719 C 321.78914,766.43575 296.8612,764.31806 292.39082,762.65573 C 287.92044,760.99339 277.81663,758.19035 270.39473,754.89705 C 262.97283,751.60375 256.40349,748.13864 250.87299,744.12678 C 245.3425,740.11491 240.85085,735.55629 237.58432,730.07594 C 234.3178,724.59559 224.3918,707.87178 231.6464,710.49476 z"
           id="path6677"
           sodipodi:nodetypes="cccccccccccc" />
        <path
           style="fill:#000000;fill-opacity:1;fill-rule:nonzero;stroke:none;stroke-width:7;stroke-linejoin:miter;stroke-miterlimit:4;stroke-dasharray:none;stroke-opacity:1;display:inline"
           d="M 409.5159,662.58215 C 410.35601,669.84987 410.92483,681.76774 408.93281,685.70413 C 401.33919,694.44771 387.22599,701.0046 369.90156,705.36038 C 352.1551,709.82227 331.24106,712.07129 311.08906,712.98538 C 290.93706,713.89947 271.51546,713.48234 256.74531,712.67288 C 249.36024,712.26815 243.13127,711.77622 238.55781,711.29788 C 236.27108,711.05871 234.39586,710.81678 233.02656,710.61038 C 231.65727,710.40398 230.62463,710.1266 230.83906,710.20413 C 229.49304,709.71746 227.87391,709.32056 226.05781,710.26663 C 224.24172,711.2127 223.5968,713.28087 223.55781,714.57913 C 223.47984,717.17565 224.39715,719.19998 225.46406,721.64163 C 227.59788,726.52494 230.92117,732.11451 232.55781,734.86038 C 236.10976,740.81953 240.98635,745.73119 246.80781,749.95408 C 252.62929,754.17708 259.41008,757.75848 266.96406,761.11038 C 274.7894,764.58268 285.09136,767.44428 289.15156,768.95408 C 291.0376,769.65548 293.31703,769.98188 296.43281,770.42288 C 299.5486,770.86388 303.27648,771.27888 306.99531,771.64168 C 314.43297,772.36718 321.45351,772.89608 324.49531,772.79788 C 329.10609,772.64918 334.92657,772.44628 339.52656,772.29788 C 342.49998,772.20198 346.20353,771.36408 349.46406,770.57908 C 352.72458,769.79418 355.40156,769.01668 355.40156,769.01668 L 355.43281,769.01668 C 366.76998,765.65028 370.95983,763.54278 381.43281,757.57908 L 381.55781,757.51668 L 381.68281,757.42288 C 390.18421,751.56068 401.49807,743.07878 408.68281,734.98538 C 421.16493,721.51583 423.2395,704.55608 422.02656,693.20413 C 421.72332,690.36614 439.42589,698.12643 438.76606,696.03795 C 419.6322,683.97644 415.29271,675.90511 409.5159,662.58215 z M 414.33906,690.14163 C 414.61261,691.34816 414.92554,692.42371 415.08906,693.95413 C 416.12901,703.68705 414.23043,718.68228 403.49531,730.26663 L 403.46406,730.29788 L 403.46406,730.32913 C 397.14411,737.44837 386.09319,745.87994 377.83906,751.57908 C 377.80084,751.60548 377.75216,751.64658 377.71406,751.67288 C 367.57467,757.44288 364.36908,759.05048 353.43281,762.29788 C 353.43281,762.29788 350.90647,763.02058 347.80781,763.76668 C 344.70916,764.51268 340.90849,765.24528 339.27656,765.29788 C 334.66584,765.44668 328.87648,765.64958 324.27656,765.79788 C 322.71301,765.84838 314.97806,765.38458 307.68281,764.67288 C 304.03519,764.31708 300.39223,763.90428 297.43281,763.48538 C 294.4734,763.06648 291.93822,762.52148 291.58906,762.39168 C 286.7085,760.57668 276.82627,757.81838 269.80781,754.70408 C 262.51799,751.46948 256.14109,748.09868 250.90156,744.29788 C 245.66204,740.49708 241.57017,736.29933 238.58906,731.29788 C 236.95918,728.56336 233.70247,723.05332 231.87031,718.86038 C 231.54661,718.11959 231.60276,718.0534 231.40156,717.42288 C 231.62529,717.45671 231.74077,717.50951 231.99531,717.54788 C 233.52258,717.77809 235.47785,718.01967 237.83906,718.26663 C 242.56149,718.76055 248.88411,719.26261 256.37031,719.67288 C 271.34272,720.49343 290.9505,720.91304 311.40156,719.98538 C 331.85263,719.05772 353.12668,716.78352 371.58906,712.14163 C 389.68566,707.5917 405.15123,700.85069 414.33906,690.14163 z"
           id="path6679"
           sodipodi:nodetypes="cccccccccccccccccccccccccccccccccccccccccccccccccccccc" />
        <rect
           style="opacity:1;fill:#000000;fill-opacity:1;fill-rule:nonzero;stroke:none;stroke-width:2;stroke-linejoin:miter;stroke-miterlimit:4;stroke-dasharray:none;stroke-opacity:1"
           id="rect6681"
           width="5.1356592"
           height="40.15152"
           x="255.0253"
           y="712.94196" />
        <rect
           style="opacity:1;fill:#000000;fill-opacity:1;fill-rule:nonzero;stroke:none;stroke-width:2;stroke-linejoin:miter;stroke-miterlimit:4;stroke-dasharray:none;stroke-opacity:1;display:inline"
           id="rect6683"
           width="5.1356592"
           height="43.886543"
           x="283.73831"
           y="719.01135" />
        <rect
           style="opacity:1;fill:#000000;fill-opacity:1;fill-rule:nonzero;stroke:none;stroke-width:2;stroke-linejoin:miter;stroke-miterlimit:4;stroke-dasharray:none;stroke-opacity:1;display:inline"
           id="rect6685"
           width="5.1356592"
           height="49.955959"
           x="317.8204"
           y="716.677" />
        <rect
           style="opacity:1;fill:#000000;fill-opacity:1;fill-rule:nonzero;stroke:none;stroke-width:2;stroke-linejoin:miter;stroke-miterlimit:4;stroke-dasharray:none;stroke-opacity:1;display:inline"
           id="rect6687"
           width="5.1356592"
           height="53.224106"
           x="354.23691"
           y="712.24164" />
        <rect
           style="opacity:1;fill:#000000;fill-opacity:1;fill-rule:nonzero;stroke:none;stroke-width:2;stroke-linejoin:miter;stroke-miterlimit:4;stroke-dasharray:none;stroke-opacity:1;display:inline"
           id="rect6689"
           width="5.1356592"
           height="46.687813"
           x="386.91837"
           y="701.03656" />
      </g>
      <path
         sodipodi:nodetypes="cccc"
         id="path6691"
         d="M 975.05017,531.23158 C 948.4872,555.57308 919.85158,555.41329 889.18126,531.20142 L 932.13125,406.09924 L 975.05017,531.23158 z"
         style="fill:url(#linearGradient6909);fill-opacity:1;fill-rule:nonzero;stroke:#000000;stroke-width:8.05799961;stroke-linejoin:miter;stroke-miterlimit:4;stroke-dasharray:none;stroke-opacity:1;display:inline" />
      <path
         sodipodi:nodetypes="cccc"
         id="path6693"
         d="M 823.21042,566.3378 C 829.47971,603.31251 815.03356,629.97202 780.25173,646.5054 L 708.31738,553.74796 L 823.21042,566.3378 z"
         style="fill:url(#linearGradient6911);fill-opacity:1;fill-rule:nonzero;stroke:#000000;stroke-width:8.05811024;stroke-linejoin:miter;stroke-miterlimit:4;stroke-dasharray:none;stroke-opacity:1;display:inline" />
      <path
         sodipodi:nodetypes="cccc"
         id="path6695"
         d="M 1050.1112,571.32988 C 1044.7986,605.08848 1061.2829,613.87272 1090.7571,628.96801 L 1153.4639,550.79673 L 1050.1112,571.32988 z"
         style="fill:url(#linearGradient6913);fill-opacity:1;fill-rule:nonzero;stroke:#000000;stroke-width:7.08790302;stroke-linejoin:miter;stroke-miterlimit:4;stroke-dasharray:none;stroke-opacity:1;display:inline" />
      <path
         sodipodi:nodetypes="cccc"
         id="path6697"
         d="M 818.1449,785.58377 C 810.51545,756.94829 811.96946,739.69912 780.84307,720.9725 L 696.18078,808.0731 L 818.1449,785.58377 z"
         style="fill:url(#linearGradient6915);fill-opacity:1;fill-rule:nonzero;stroke:#000000;stroke-width:8.05811024;stroke-linejoin:miter;stroke-miterlimit:4;stroke-dasharray:none;stroke-opacity:1;display:inline" />
      <path
         sodipodi:nodetypes="cccc"
         id="path6699"
         d="M 1065.0584,783.72078 C 1056.6344,747.1921 1069.4931,719.70368 1103.2446,701.0897 L 1164.0814,786.28616 L 1065.0584,783.72078 z"
         style="fill:url(#linearGradient6917);fill-opacity:1;fill-rule:nonzero;stroke:#000000;stroke-width:8.05811024;stroke-linejoin:miter;stroke-miterlimit:4;stroke-dasharray:none;stroke-opacity:1;display:inline" />
      <path
         sodipodi:nodetypes="cccc"
         id="path6716"
         d="M 1023.7495,581.23449 C 1005.0403,586.63978 993.43956,579.09315 988.81705,558.83208 L 1046.8967,506.65712 L 1023.7495,581.23449 z"
         style="fill:url(#linearGradient6919);fill-opacity:1;fill-rule:nonzero;stroke:#000000;stroke-width:8;stroke-linejoin:miter;stroke-miterlimit:4;stroke-dasharray:none;stroke-opacity:1;display:inline" />
      <path
         sodipodi:nodetypes="cccc"
         id="path6718"
         d="M 1077.1312,687.24464 C 1068.994,674.74494 1070.4348,662.3726 1079.5502,645.72429 L 1132.0683,673.58273 L 1077.1312,687.24464 z"
         style="fill:url(#linearGradient6921);fill-opacity:1;fill-rule:nonzero;stroke:#000000;stroke-width:6.86776924;stroke-linejoin:miter;stroke-miterlimit:4;stroke-dasharray:none;stroke-opacity:1;display:inline" />
      <path
         sodipodi:nodetypes="cccc"
         id="path6720"
         d="M 852.22983,579.34421 C 870.93906,584.74951 882.53977,577.20287 887.16228,556.94179 L 829.08266,504.76684 L 852.22983,579.34421 z"
         style="fill:url(#linearGradient6923);fill-opacity:1;fill-rule:nonzero;stroke:#000000;stroke-width:8;stroke-linejoin:miter;stroke-miterlimit:4;stroke-dasharray:none;stroke-opacity:1;display:inline" />
      <path
         sodipodi:nodetypes="cccc"
         id="path6722"
         d="M 788.28216,662.51808 C 803.22023,675.01238 803.44506,688.8499 789.22642,704.00608 L 709.08932,690.00338 L 788.28216,662.51808 z"
         style="fill:url(#linearGradient6925);fill-opacity:1;fill-rule:nonzero;stroke:#000000;stroke-width:8;stroke-linejoin:miter;stroke-miterlimit:4;stroke-dasharray:none;stroke-opacity:1;display:inline" />
      <g
         transform="translate(36.974862,0)"
         id="g6867">
        <path
           transform="matrix(0.7703612,0,0,0.6125695,690.99162,501.01562)"
           d="M 282.75292,263.27377 A 60.160194,96.256317 0 1 1 162.43253,263.27377 A 60.160194,96.256317 0 1 1 282.75292,263.27377 z"
           sodipodi:ry="96.256317"
           sodipodi:rx="60.160194"
           sodipodi:cy="263.27377"
           sodipodi:cx="222.59273"
           id="path6703"
           style="fill:#ffffff;fill-opacity:1;fill-rule:nonzero;stroke:#000000;stroke-width:12.573349;stroke-linecap:round;stroke-miterlimit:4;stroke-dasharray:none;stroke-opacity:1"
           sodipodi:type="arc"
           inkscape:export-filename="/home/sheryl/Piers/furball frames/furball.v2.41.f0.png"
           inkscape:export-xdpi="10.56"
           inkscape:export-ydpi="10.56" />
        <path
           transform="matrix(0.7834968,0,0,0.66761,693.73504,491.83455)"
           d="M 240.64078,254.75108 A 30.080097,51.637501 0 1 1 180.48059,254.75108 A 30.080097,51.637501 0 1 1 240.64078,254.75108 z"
           sodipodi:ry="51.637501"
           sodipodi:rx="30.080097"
           sodipodi:cy="254.75108"
           sodipodi:cx="210.56068"
           id="path6705"
           style="fill:#000000;fill-opacity:1;fill-rule:nonzero;stroke:none;stroke-width:8;stroke-linecap:round;stroke-miterlimit:4;stroke-dasharray:none;stroke-opacity:1;filter:url(#filter3352)"
           sodipodi:type="arc"
           inkscape:export-filename="/home/sheryl/Piers/furball frames/furball.v2.41.f0.png"
           inkscape:export-xdpi="10.56"
           inkscape:export-ydpi="10.56" />
        <path
           sodipodi:type="arc"
           style="fill:#ffffff;fill-opacity:1;fill-rule:nonzero;stroke:#000000;stroke-width:12.573349;stroke-linecap:round;stroke-miterlimit:4;stroke-dasharray:none;stroke-opacity:1"
           id="path6710"
           sodipodi:cx="222.59273"
           sodipodi:cy="263.27377"
           sodipodi:rx="60.160194"
           sodipodi:ry="96.256317"
           d="M 282.75292,263.27377 A 60.160194,96.256317 0 1 1 162.43253,263.27377 A 60.160194,96.256317 0 1 1 282.75292,263.27377 z"
           transform="matrix(0.7703612,0,0,0.6125695,748.67804,502.51441)"
           inkscape:export-filename="/home/sheryl/Piers/furball frames/furball.v2.41.f0.png"
           inkscape:export-xdpi="10.56"
           inkscape:export-ydpi="10.56" />
        <path
           transform="matrix(0.8998163,0,0,0.8450261,670.2935,453.85887)"
           d="M 220.58738,229.183 A 10.026699,14.037379 0 1 1 200.53399,229.183 A 10.026699,14.037379 0 1 1 220.58738,229.183 z"
           sodipodi:ry="14.037379"
           sodipodi:rx="10.026699"
           sodipodi:cy="229.183"
           sodipodi:cx="210.56068"
           id="path6707"
           style="fill:#ffffff;fill-opacity:1;fill-rule:nonzero;stroke:none;stroke-width:7.99980927;stroke-linecap:round;stroke-miterlimit:4;stroke-dasharray:none;stroke-opacity:1;filter:url(#filter17728)"
           sodipodi:type="arc"
           inkscape:export-filename="/home/sheryl/Piers/furball frames/furball.v2.41.f0.png"
           inkscape:export-xdpi="10.56"
           inkscape:export-ydpi="10.56" />
        <path
           inkscape:export-ydpi="10.56"
           inkscape:export-xdpi="10.56"
           inkscape:export-filename="/home/sheryl/Piers/furball frames/furball.v2.41.f0.png"
           sodipodi:type="arc"
           style="fill:#000000;fill-opacity:1;fill-rule:nonzero;stroke:none;stroke-width:8;stroke-linecap:round;stroke-miterlimit:4;stroke-dasharray:none;stroke-opacity:1;filter:url(#filter3348)"
           id="path6712"
           sodipodi:cx="210.56068"
           sodipodi:cy="254.75108"
           sodipodi:rx="30.080097"
           sodipodi:ry="51.637501"
           d="M 240.64078,254.75108 A 30.080097,51.637501 0 1 1 180.48059,254.75108 A 30.080097,51.637501 0 1 1 240.64078,254.75108 z"
           transform="matrix(0.7834968,0,0,0.66761,751.61444,493.32934)" />
        <path
           sodipodi:type="arc"
           style="fill:#ffffff;fill-opacity:1;fill-rule:nonzero;stroke:none;stroke-width:7.99980927;stroke-linecap:round;stroke-miterlimit:4;stroke-dasharray:none;stroke-opacity:1;filter:url(#filter17752)"
           id="path6714"
           sodipodi:cx="210.56068"
           sodipodi:cy="229.183"
           sodipodi:rx="10.026699"
           sodipodi:ry="14.037379"
           d="M 220.58738,229.183 A 10.026699,14.037379 0 1 1 200.53399,229.183 A 10.026699,14.037379 0 1 1 220.58738,229.183 z"
           transform="matrix(1.0135103,0,0,0.9517972,700.86782,427.88998)"
           inkscape:export-filename="/home/sheryl/Piers/furball frames/furball.v2.41.f0.png"
           inkscape:export-xdpi="10.56"
           inkscape:export-ydpi="10.56" />
        <path
           style="fill:#595a59;fill-opacity:1;fill-rule:nonzero;stroke:#000000;stroke-width:5.76225519;stroke-linejoin:miter;stroke-miterlimit:4;stroke-opacity:1"
           d="M 826.22416,580.07652 C 862.33651,589.8907 909.92334,615.46372 885.94183,648.01061 L 807.96335,620.67122 C 803.19516,597.10666 799.48211,572.88169 826.22416,580.07652 z"
           id="path6724"
           sodipodi:nodetypes="cccc" />
        <path
           style="fill:#595a59;fill-opacity:1;fill-rule:nonzero;stroke:#000000;stroke-width:5.76225519;stroke-linejoin:miter;stroke-miterlimit:4;stroke-opacity:1;display:inline"
           d="M 937.54223,579.45458 C 901.42988,589.26876 853.84305,614.84178 877.82456,647.38867 L 955.80304,620.04928 C 960.57123,596.48472 964.28428,572.25976 937.54223,579.45458 z"
           id="path6726"
           sodipodi:nodetypes="cccc" />
      </g>
    </g>
    <path
       style="fill:url(#radialGradient8442);fill-opacity:1;fill-rule:nonzero;stroke:#000000;stroke-width:7.68163109;stroke-linecap:butt;stroke-linejoin:miter;marker:none;marker-start:none;marker-mid:none;marker-end:none;stroke-miterlimit:4;stroke-dasharray:none;stroke-dashoffset:0;stroke-opacity:1;visibility:visible;display:inline;overflow:visible;enable-background:accumulate"
       d="M 499.0213,841.88291 C 480.45885,851.90332 440.17361,859.58388 394.27019,844.10488 C 371.71488,815.0508 405.31369,766.80417 464.39203,776.11267 C 487.22178,780.93065 509.19131,820.63264 499.0213,841.88291 z"
       id="path3821"
       sodipodi:nodetypes="cccc" />
    <path
       style="fill:url(#linearGradient8422);fill-opacity:1;fill-rule:nonzero;stroke:#000000;stroke-width:3.9210906;stroke-linejoin:miter;stroke-miterlimit:4;stroke-dasharray:none;stroke-opacity:1;display:inline"
       d="M 425.48422,816.04614 C 418.91547,810.99868 412.41367,811.89244 403.66478,817.54666 L 416.08361,846.38843 L 425.48422,816.04614 z"
       id="path8420"
       sodipodi:nodetypes="cccc" />
    <path
       sodipodi:nodetypes="cccc"
       id="path8424"
       d="M 458.16569,815.11238 C 451.59694,810.06492 445.09514,810.95868 436.34625,816.6129 L 449.69884,849.1897 L 458.16569,815.11238 z"
       style="fill:url(#linearGradient8426);fill-opacity:1;fill-rule:nonzero;stroke:#000000;stroke-width:3.9210906;stroke-linejoin:miter;stroke-miterlimit:4;stroke-dasharray:none;stroke-opacity:1;display:inline" />
    <path
       style="fill:url(#linearGradient8430);fill-opacity:1;fill-rule:nonzero;stroke:#000000;stroke-width:3.9210906;stroke-linejoin:miter;stroke-miterlimit:4;stroke-dasharray:none;stroke-opacity:1;display:inline"
       d="M 488.97965,813.24487 C 482.4109,808.19741 475.9091,809.09117 467.1602,814.74539 L 480.5128,847.32219 L 488.97965,813.24487 z"
       id="path8428"
       sodipodi:nodetypes="cccc" />
  </g>
  <g
     inkscape:groupmode="layer"
     id="layer3"
     inkscape:label="body"
     style="display:inline"
     transform="translate(-86.015417,-344.74042)">
    <g
       id="g2464"
       inkscape:label="black outline"
       sodipodi:insensitive="true"
       transform="translate(150.81235,404.25975)" />
    <g
       id="g3169"
       transform="translate(187.68008,397.1698)"
       inkscape:export-filename="/home/sheryl/Piers/furball frames/furball.v2.41.f0.png"
       inkscape:export-xdpi="10.56"
       inkscape:export-ydpi="10.56" />
    <g
       id="g2661"
       inkscape:label="foot below"
       transform="matrix(-4.1093027,0,0,4.1093027,2223.8735,-2231.2965)" />
    <g
       inkscape:label="inside colour shading"
       id="g2663"
       style="display:inline"
       transform="matrix(-4.1093027,0,0,4.1093027,2223.8735,-2231.2965)" />
    <g
       id="g2665"
       inkscape:label="outline"
       transform="matrix(-4.1093027,0,0,4.1093027,2223.8735,-2231.2965)" />
    <g
       id="g2667"
       inkscape:label="shadowing"
       transform="matrix(-4.1093027,0,0,4.1093027,2223.8735,-2231.2965)" />
    <g
       style="stroke:#000000;stroke-width:66.02096558;stroke-miterlimit:4;stroke-dasharray:none;stroke-opacity:1"
       id="g3480"
       inkscape:label="Layer 1"
       transform="matrix(-0.1160341,1.2817742e-2,1.1241058e-2,0.1323092,237.30848,384.23533)"
       inkscape:transform-center-x="-27.57098"
       inkscape:transform-center-y="-11.950164" />
    <g
       id="g2796"
       inkscape:label="foot below"
       transform="matrix(-2.1173273,0,0,2.1173273,1560.3272,-752.9691)" />
    <g
       inkscape:label="inside colour shading"
       id="g2798"
       style="display:inline"
       transform="matrix(-2.1173273,0,0,2.1173273,1560.3272,-752.9691)" />
    <g
       id="g2800"
       inkscape:label="outline"
       transform="matrix(-2.1173273,0,0,2.1173273,1560.3272,-752.9691)" />
    <g
       id="g2802"
       inkscape:label="shadowing"
       transform="matrix(-2.1173273,0,0,2.1173273,1560.3272,-752.9691)" />
    <g
       inkscape:transform-center-y="-11.950164"
       inkscape:transform-center-x="-27.57098"
       transform="matrix(-0.1160341,1.2817742e-2,1.1241058e-2,0.1323092,237.30848,384.23533)"
       inkscape:label="Layer 1"
       id="g16330"
       style="stroke:#000000;stroke-width:66.02096558;stroke-miterlimit:4;stroke-dasharray:none;stroke-opacity:1" />
    <g
       id="g17756"
       transform="matrix(0.8944076,0,0,0.8944076,19.539416,140.44523)" />
  </g>
  <g
     inkscape:groupmode="layer"
     id="layer7"
     inkscape:label="foot above"
     style="display:inline"
     transform="translate(-86.015417,-344.74042)" />
  <g
     inkscape:groupmode="layer"
     id="layer6"
     inkscape:label="hat"
     style="display:none"
     transform="translate(-86.015417,-344.74042)">
    <g
       inkscape:export-ydpi="79.918785"
       inkscape:export-xdpi="79.918785"
       inkscape:export-filename="/home/piers/documents/maryo/pngs/furball.v2.4-f0.128px.png"
       style="fill:url(#radialGradient2246);fill-opacity:1;fill-rule:evenodd;stroke:#000000;stroke-width:3;stroke-miterlimit:4;stroke-dasharray:none;stroke-opacity:1;display:inline"
       id="g3758"
       transform="matrix(-4.1093027,0,0,4.1093027,2223.8735,-2134.6385)">
      <path
         style="fill:url(#radialGradient2248);fill-opacity:1;fill-rule:evenodd;stroke:#000000;stroke-width:3;stroke-linecap:butt;stroke-linejoin:miter;stroke-miterlimit:4;stroke-dasharray:none;stroke-opacity:1"
         d="M 391.43411,693.75804 C 404.03538,674.4187 417.94824,662.89057 437.51107,651.27283 C 446.07552,644.04546 488.91055,638.25271 480.9551,629.9216 C 458.84984,616.97432 417.4296,611.31287 403.05484,621.74336 C 389.15718,631.82766 381.93338,667.13266 391.43411,693.75804 z"
         id="path3565"
         sodipodi:nodetypes="cccsc" />
      <path
         sodipodi:nodetypes="cccsssccsssc"
         style="fill:#ff0000;fill-opacity:1;fill-rule:evenodd;stroke:none;stroke-width:3;stroke-linecap:butt;stroke-linejoin:miter;stroke-miterlimit:4;stroke-dasharray:none;stroke-opacity:1"
         d="M 378.57143,660.57647 C 379.25794,659.15701 385.36293,654.67927 387.5,653.07646 C 397.07387,636.40778 418.05097,623.01836 442.32143,617.00503 C 444.45813,616.15036 459.1947,607.69657 462.14286,608.43361 C 465.988,609.3949 467.90003,611.53077 471.07143,613.43361 C 473.62151,614.96366 474.00179,614.11128 471.78572,615.21932 C 469.87996,616.1722 465.47186,621.92957 463.03571,621.6479 C 427.44775,635.12569 410.73016,646.3913 386.78571,673.43361 C 384.68403,675.53529 383.4597,677.35669 381.07143,679.1479 C 378.89091,680.78328 378.59424,683.16769 377.85714,680.21932 C 377.00114,676.79529 376.07071,673.42999 375.35714,669.86218 C 374.59028,666.02785 376.07143,661.90139 376.07143,658.07647"
         id="path3725"
         clip-path="url(#clipPath3754)" />
    </g>
    <path
       inkscape:export-ydpi="79.918785"
       inkscape:export-xdpi="79.918785"
       inkscape:export-filename="/home/piers/documents/maryo/pngs/furball.v2.4-f0.128px.png"
       sodipodi:nodetypes="cssszss"
       id="path3723"
       d="M 599.53411,640.14152 C 537.78682,577.72701 447.23937,506.3065 316.32426,450.12362 C 278.03328,433.69085 261.33932,428.95615 237.60917,458.85984 C 233.75246,463.71991 246.13589,475.48562 280.47811,486.83741 C 367.02192,515.44436 513.05412,632.42228 557.23792,666.41094 C 615.49805,711.2279 615.34917,732.38978 625.72981,707.92118 C 640.25837,673.67524 629.1674,670.09501 599.53411,640.14152 z"
       style="fill:#decd87;fill-opacity:1;fill-rule:evenodd;stroke:#000000;stroke-width:12.32790852;stroke-linecap:butt;stroke-linejoin:miter;stroke-miterlimit:4;stroke-dasharray:none;stroke-opacity:1" />
    <path
       id="path3780"
       d="M 312.57069,426.31564 C 392.04448,399.53686 437.17581,397.50884 514.67747,402.76208"
       style="fill:none;fill-rule:evenodd;stroke:#000000;stroke-width:9;stroke-linecap:butt;stroke-linejoin:miter;stroke-miterlimit:4;stroke-dasharray:none;stroke-opacity:1"
       inkscape:transform-center-x="95.188401"
       inkscape:transform-center-y="9.0354206"
       sodipodi:nodetypes="cc"
       inkscape:export-filename="/home/sheryl/Piers/furball frames/furball.v2.41.f0.png"
       inkscape:export-xdpi="10.56"
       inkscape:export-ydpi="10.56" />
    <path
       style="fill:none;fill-rule:evenodd;stroke:#000000;stroke-width:9;stroke-linecap:butt;stroke-linejoin:miter;stroke-miterlimit:4;stroke-dasharray:none;stroke-opacity:1;display:inline"
       d="M 598.8607,457.72233 C 629.89317,535.63364 635.1753,571.28798 629.89317,656.46221"
       id="path2809"
       inkscape:export-filename="/home/sheryl/Piers/furball frames/furball.v2.41.f0.png"
       inkscape:export-xdpi="10.56"
       inkscape:export-ydpi="10.56" />
    <path
       inkscape:export-ydpi="10.56"
       inkscape:export-xdpi="10.56"
       inkscape:export-filename="/home/sheryl/Piers/furball frames/furball.v2.41.f0.png"
       sodipodi:nodetypes="ccccccccc"
       id="path4008"
       d="M 524.30718,412.70722 C 493.06046,425.04358 510.48428,460.53938 541.95395,437.55475 C 512.77392,467.61144 560.28319,496.50982 573.26485,457.9107 C 580.76252,485.70047 622.53913,471.79043 602.75934,444.97576 C 631.64635,469.30453 652.0369,421.56766 616.36714,413.3984 C 646.53586,407.48878 631.89995,373.76332 605.36,382.0658 C 622.01648,353.02679 580.55878,334.89716 568.15851,365.97582 C 561.67062,333.70627 523.597,353.72521 538.5762,378.63324 C 507.83369,360.72128 494.71631,407.10867 524.30718,412.70722 z"
       style="fill:#decd87;fill-opacity:1;fill-rule:evenodd;stroke:#000000;stroke-width:8.98012829;stroke-miterlimit:4;stroke-dasharray:none;stroke-opacity:1" />
  </g>
</svg>
