<?xml version="1.0" encoding="UTF-8" standalone="no"?>
<!-- Created with Inkscape (http://www.inkscape.org/) -->
<svg
   xmlns:dc="http://purl.org/dc/elements/1.1/"
   xmlns:cc="http://creativecommons.org/ns#"
   xmlns:rdf="http://www.w3.org/1999/02/22-rdf-syntax-ns#"
   xmlns:svg="http://www.w3.org/2000/svg"
   xmlns="http://www.w3.org/2000/svg"
   xmlns:xlink="http://www.w3.org/1999/xlink"
   xmlns:sodipodi="http://sodipodi.sourceforge.net/DTD/sodipodi-0.dtd"
   xmlns:inkscape="http://www.inkscape.org/namespaces/inkscape"
   width="512"
   height="1024"
   id="svg2"
   sodipodi:version="0.32"
   inkscape:version="0.46"
   sodipodi:docname="dunes.svg"
   inkscape:output_extension="org.inkscape.output.svg.inkscape"
   sodipodi:docbase="E:\SVN_Repository\Drafts\Game\youngheart80\World Tiles\Desert"
   sodipodi:modified="TRUE"
   version="1.0">
  <defs
     id="defs4">
    <inkscape:perspective
       sodipodi:type="inkscape:persp3d"
       inkscape:vp_x="0 : 526.18109 : 1"
       inkscape:vp_y="0 : 1000 : 0"
       inkscape:vp_z="744.09448 : 526.18109 : 1"
       inkscape:persp3d-origin="372.04724 : 350.78739 : 1"
       id="perspective148" />
    <linearGradient
       inkscape:collect="always"
       xlink:href="#linearGradient3135"
       id="linearGradient3248"
       gradientUnits="userSpaceOnUse"
       gradientTransform="matrix(1,0,0,0.5509283,-73.741136,125.43442)"
       x1="353.64944"
       y1="137.16397"
       x2="353.64944"
       y2="204.84419" />
    <linearGradient
       inkscape:collect="always"
       xlink:href="#linearGradient3135"
       id="linearGradient3251"
       gradientUnits="userSpaceOnUse"
       gradientTransform="matrix(1,0,0,0.5509283,-73.741136,125.43442)"
       x1="456.58896"
       y1="168.48463"
       x2="456.58896"
       y2="267.46725" />
    <linearGradient
       id="linearGradient3135">
      <stop
         style="stop-color:#ede3bd;stop-opacity:1;"
         offset="0"
         id="stop3137" />
      <stop
         style="stop-color:#beb17e;stop-opacity:1;"
         offset="1"
         id="stop3139" />
    </linearGradient>
    <linearGradient
       inkscape:collect="always"
       xlink:href="#linearGradient3135"
       id="linearGradient3199"
       gradientUnits="userSpaceOnUse"
       gradientTransform="matrix(1,0,0,0.5509283,0,120.11029)"
       x1="456.58896"
       y1="168.48463"
       x2="456.58896"
       y2="267.46725" />
    <linearGradient
       inkscape:collect="always"
       xlink:href="#linearGradient3135"
       id="linearGradient3201"
       gradientUnits="userSpaceOnUse"
       gradientTransform="matrix(1,0,0,0.5509283,0,120.11029)"
       x1="353.64944"
       y1="137.16397"
       x2="353.64944"
       y2="204.84419" />
    <linearGradient
       inkscape:collect="always"
       xlink:href="#linearGradient3135"
       id="linearGradient3213"
       gradientUnits="userSpaceOnUse"
       gradientTransform="matrix(1,0,0,0.5509283,0,120.11029)"
       x1="456.58896"
       y1="168.48463"
       x2="456.58896"
       y2="267.46725" />
    <linearGradient
       inkscape:collect="always"
       xlink:href="#linearGradient3135"
       id="linearGradient3215"
       gradientUnits="userSpaceOnUse"
       gradientTransform="matrix(1,0,0,0.5509283,0,120.11029)"
       x1="353.64944"
       y1="137.16397"
       x2="353.64944"
       y2="204.84419" />
    <linearGradient
       inkscape:collect="always"
       xlink:href="#linearGradient3135"
       id="linearGradient3223"
       gradientUnits="userSpaceOnUse"
       gradientTransform="matrix(1,0,0,0.5509283,0,120.11029)"
       x1="456.58896"
       y1="168.48463"
       x2="456.58896"
       y2="267.46725" />
    <linearGradient
       inkscape:collect="always"
       xlink:href="#linearGradient3135"
       id="linearGradient3225"
       gradientUnits="userSpaceOnUse"
       gradientTransform="matrix(1,0,0,0.5509283,0,120.11029)"
       x1="353.64944"
       y1="137.16397"
       x2="353.64944"
       y2="204.84419" />
    <linearGradient
       inkscape:collect="always"
       xlink:href="#linearGradient3135"
       id="linearGradient3297"
       gradientUnits="userSpaceOnUse"
       gradientTransform="matrix(1,0,0,0.5509283,-73.741136,125.43442)"
       x1="456.58896"
       y1="168.48463"
       x2="456.58896"
       y2="267.46725" />
    <linearGradient
       inkscape:collect="always"
       xlink:href="#linearGradient3135"
       id="linearGradient3299"
       gradientUnits="userSpaceOnUse"
       gradientTransform="matrix(1,0,0,0.5509283,-73.741136,125.43442)"
       x1="353.64944"
       y1="137.16397"
       x2="353.64944"
       y2="204.84419" />
    <linearGradient
       inkscape:collect="always"
       xlink:href="#linearGradient3135"
       id="linearGradient3307"
       gradientUnits="userSpaceOnUse"
       gradientTransform="matrix(1,0,0,0.5509283,-73.741136,125.43442)"
       x1="456.58896"
       y1="168.48463"
       x2="456.58896"
       y2="267.46725" />
    <linearGradient
       inkscape:collect="always"
       xlink:href="#linearGradient3135"
       id="linearGradient3309"
       gradientUnits="userSpaceOnUse"
       gradientTransform="matrix(1,0,0,0.5509283,-73.741136,125.43442)"
       x1="353.64944"
       y1="137.16397"
       x2="353.64944"
       y2="204.84419" />
    <linearGradient
       inkscape:collect="always"
       xlink:href="#linearGradient3135"
       id="linearGradient3360"
       gradientUnits="userSpaceOnUse"
       gradientTransform="matrix(1,0,0,0.5509283,-73.741136,125.43442)"
       x1="456.58896"
       y1="168.48463"
       x2="456.58896"
       y2="267.46725" />
    <linearGradient
       inkscape:collect="always"
       xlink:href="#linearGradient3135"
       id="linearGradient3362"
       gradientUnits="userSpaceOnUse"
       gradientTransform="matrix(1,0,0,0.5509283,-73.741136,125.43442)"
       x1="353.64944"
       y1="137.16397"
       x2="353.64944"
       y2="204.84419" />
    <linearGradient
       inkscape:collect="always"
       xlink:href="#linearGradient3135"
       id="linearGradient3364"
       gradientUnits="userSpaceOnUse"
       gradientTransform="matrix(1,0,0,0.5509283,0,120.11029)"
       x1="456.58896"
       y1="168.48463"
       x2="456.58896"
       y2="267.46725" />
    <linearGradient
       inkscape:collect="always"
       xlink:href="#linearGradient3135"
       id="linearGradient3366"
       gradientUnits="userSpaceOnUse"
       gradientTransform="matrix(1,0,0,0.5509283,0,120.11029)"
       x1="353.64944"
       y1="137.16397"
       x2="353.64944"
       y2="204.84419" />
    <linearGradient
       inkscape:collect="always"
       xlink:href="#linearGradient3135"
       id="linearGradient3368"
       gradientUnits="userSpaceOnUse"
       gradientTransform="matrix(1,0,0,0.5509283,0,120.11029)"
       x1="456.58896"
       y1="168.48463"
       x2="456.58896"
       y2="267.46725" />
    <linearGradient
       inkscape:collect="always"
       xlink:href="#linearGradient3135"
       id="linearGradient3370"
       gradientUnits="userSpaceOnUse"
       gradientTransform="matrix(1,0,0,0.5509283,0,120.11029)"
       x1="353.64944"
       y1="137.16397"
       x2="353.64944"
       y2="204.84419" />
    <linearGradient
       inkscape:collect="always"
       xlink:href="#linearGradient3135"
       id="linearGradient3372"
       gradientUnits="userSpaceOnUse"
       gradientTransform="matrix(1,0,0,0.5509283,0,120.11029)"
       x1="456.58896"
       y1="168.48463"
       x2="456.58896"
       y2="267.46725" />
    <linearGradient
       inkscape:collect="always"
       xlink:href="#linearGradient3135"
       id="linearGradient3374"
       gradientUnits="userSpaceOnUse"
       gradientTransform="matrix(1,0,0,0.5509283,0,120.11029)"
       x1="353.64944"
       y1="137.16397"
       x2="353.64944"
       y2="204.84419" />
    <linearGradient
       inkscape:collect="always"
       xlink:href="#linearGradient3135"
       id="linearGradient3376"
       gradientUnits="userSpaceOnUse"
       gradientTransform="matrix(1,0,0,0.5509283,-73.741136,125.43442)"
       x1="456.58896"
       y1="168.48463"
       x2="456.58896"
       y2="267.46725" />
    <linearGradient
       inkscape:collect="always"
       xlink:href="#linearGradient3135"
       id="linearGradient3378"
       gradientUnits="userSpaceOnUse"
       gradientTransform="matrix(1,0,0,0.5509283,-73.741136,125.43442)"
       x1="353.64944"
       y1="137.16397"
       x2="353.64944"
       y2="204.84419" />
    <linearGradient
       inkscape:collect="always"
       xlink:href="#linearGradient3135"
       id="linearGradient3754"
       gradientUnits="userSpaceOnUse"
       gradientTransform="matrix(1,0,0,0.5509283,0,120.11029)"
       x1="456.58896"
       y1="168.48463"
       x2="456.58896"
       y2="267.46725" />
    <linearGradient
       inkscape:collect="always"
       xlink:href="#linearGradient3135"
       id="linearGradient3756"
       gradientUnits="userSpaceOnUse"
       gradientTransform="matrix(1,0,0,0.5509283,0,120.11029)"
       x1="353.64944"
       y1="137.16397"
       x2="353.64944"
       y2="204.84419" />
    <linearGradient
       inkscape:collect="always"
       xlink:href="#linearGradient3135"
       id="linearGradient3842"
       gradientUnits="userSpaceOnUse"
       gradientTransform="matrix(1,0,0,0.5509283,-73.741136,125.43442)"
       x1="456.58896"
       y1="168.48463"
       x2="456.58896"
       y2="267.46725" />
    <linearGradient
       inkscape:collect="always"
       xlink:href="#linearGradient3135"
       id="linearGradient3844"
       gradientUnits="userSpaceOnUse"
       gradientTransform="matrix(1,0,0,0.5509283,-73.741136,125.43442)"
       x1="353.64944"
       y1="137.16397"
       x2="353.64944"
       y2="204.84419" />
    <linearGradient
       inkscape:collect="always"
       xlink:href="#linearGradient3135"
       id="linearGradient3846"
       gradientUnits="userSpaceOnUse"
       gradientTransform="matrix(1,0,0,0.5509283,0,120.11029)"
       x1="456.58896"
       y1="168.48463"
       x2="456.58896"
       y2="267.46725" />
    <linearGradient
       inkscape:collect="always"
       xlink:href="#linearGradient3135"
       id="linearGradient3848"
       gradientUnits="userSpaceOnUse"
       gradientTransform="matrix(1,0,0,0.5509283,0,120.11029)"
       x1="353.64944"
       y1="137.16397"
       x2="353.64944"
       y2="204.84419" />
    <linearGradient
       inkscape:collect="always"
       xlink:href="#linearGradient3135"
       id="linearGradient3864"
       gradientUnits="userSpaceOnUse"
       gradientTransform="matrix(1,0,0,0.5509283,0,120.11029)"
       x1="456.58896"
       y1="168.48463"
       x2="456.58896"
       y2="267.46725" />
    <linearGradient
       inkscape:collect="always"
       xlink:href="#linearGradient3135"
       id="linearGradient3866"
       gradientUnits="userSpaceOnUse"
       gradientTransform="matrix(1,0,0,0.5509283,0,120.11029)"
       x1="353.64944"
       y1="137.16397"
       x2="353.64944"
       y2="204.84419" />
    <linearGradient
       inkscape:collect="always"
       xlink:href="#linearGradient3135"
       id="linearGradient3868"
       gradientUnits="userSpaceOnUse"
       gradientTransform="matrix(1,0,0,0.5509283,-73.741136,125.43442)"
       x1="456.58896"
       y1="168.48463"
       x2="456.58896"
       y2="267.46725" />
    <linearGradient
       inkscape:collect="always"
       xlink:href="#linearGradient3135"
       id="linearGradient3870"
       gradientUnits="userSpaceOnUse"
       gradientTransform="matrix(1,0,0,0.5509283,-73.741136,125.43442)"
       x1="353.64944"
       y1="137.16397"
       x2="353.64944"
       y2="204.84419" />
    <linearGradient
       inkscape:collect="always"
       xlink:href="#linearGradient3135"
       id="linearGradient3872"
       gradientUnits="userSpaceOnUse"
       gradientTransform="matrix(1,0,0,0.5509283,0,120.11029)"
       x1="456.58896"
       y1="168.48463"
       x2="456.58896"
       y2="267.46725" />
    <linearGradient
       inkscape:collect="always"
       xlink:href="#linearGradient3135"
       id="linearGradient3874"
       gradientUnits="userSpaceOnUse"
       gradientTransform="matrix(1,0,0,0.5509283,0,120.11029)"
       x1="353.64944"
       y1="137.16397"
       x2="353.64944"
       y2="204.84419" />
    <linearGradient
       inkscape:collect="always"
       xlink:href="#linearGradient3135"
       id="linearGradient3876"
       gradientUnits="userSpaceOnUse"
       gradientTransform="matrix(1,0,0,0.5509283,-73.741136,125.43442)"
       x1="456.58896"
       y1="168.48463"
       x2="456.58896"
       y2="267.46725" />
    <linearGradient
       inkscape:collect="always"
       xlink:href="#linearGradient3135"
       id="linearGradient3878"
       gradientUnits="userSpaceOnUse"
       gradientTransform="matrix(1,0,0,0.5509283,-73.741136,125.43442)"
       x1="353.64944"
       y1="137.16397"
       x2="353.64944"
       y2="204.84419" />
    <linearGradient
       inkscape:collect="always"
       xlink:href="#linearGradient3135"
       id="linearGradient3907"
       gradientUnits="userSpaceOnUse"
       gradientTransform="matrix(1,0,0,0.5509283,-73.741136,125.43442)"
       x1="456.58896"
       y1="168.48463"
       x2="456.58896"
       y2="267.46725" />
    <linearGradient
       inkscape:collect="always"
       xlink:href="#linearGradient3135"
       id="linearGradient3909"
       gradientUnits="userSpaceOnUse"
       gradientTransform="matrix(1,0,0,0.5509283,-73.741136,125.43442)"
       x1="353.64944"
       y1="137.16397"
       x2="353.64944"
       y2="204.84419" />
    <linearGradient
       inkscape:collect="always"
       xlink:href="#linearGradient3135"
       id="linearGradient3911"
       gradientUnits="userSpaceOnUse"
       gradientTransform="matrix(1,0,0,0.5509283,0,120.11029)"
       x1="456.58896"
       y1="168.48463"
       x2="456.58896"
       y2="267.46725" />
    <linearGradient
       inkscape:collect="always"
       xlink:href="#linearGradient3135"
       id="linearGradient3913"
       gradientUnits="userSpaceOnUse"
       gradientTransform="matrix(1,0,0,0.5509283,0,120.11029)"
       x1="353.64944"
       y1="137.16397"
       x2="353.64944"
       y2="204.84419" />
    <linearGradient
       inkscape:collect="always"
       xlink:href="#linearGradient3135"
       id="linearGradient3940"
       gradientUnits="userSpaceOnUse"
       gradientTransform="matrix(1,0,0,0.5509283,-73.741136,125.43442)"
       x1="456.58896"
       y1="168.48463"
       x2="456.58896"
       y2="267.46725" />
    <linearGradient
       inkscape:collect="always"
       xlink:href="#linearGradient3135"
       id="linearGradient3942"
       gradientUnits="userSpaceOnUse"
       gradientTransform="matrix(1,0,0,0.5509283,-73.741136,125.43442)"
       x1="353.64944"
       y1="137.16397"
       x2="353.64944"
       y2="204.84419" />
    <linearGradient
       inkscape:collect="always"
       xlink:href="#linearGradient3135"
       id="linearGradient3944"
       gradientUnits="userSpaceOnUse"
       gradientTransform="matrix(1,0,0,0.5509283,0,120.11029)"
       x1="456.58896"
       y1="168.48463"
       x2="456.58896"
       y2="267.46725" />
    <linearGradient
       inkscape:collect="always"
       xlink:href="#linearGradient3135"
       id="linearGradient3946"
       gradientUnits="userSpaceOnUse"
       gradientTransform="matrix(1,0,0,0.5509283,0,120.11029)"
       x1="353.64944"
       y1="137.16397"
       x2="353.64944"
       y2="204.84419" />
    <linearGradient
       inkscape:collect="always"
       xlink:href="#linearGradient3135"
       id="linearGradient12205"
       gradientUnits="userSpaceOnUse"
       gradientTransform="matrix(1,0,0,0.5509283,0,120.11029)"
       x1="456.58896"
       y1="168.48463"
       x2="456.58896"
       y2="267.46725" />
    <linearGradient
       inkscape:collect="always"
       xlink:href="#linearGradient3135"
       id="linearGradient12207"
       gradientUnits="userSpaceOnUse"
       gradientTransform="matrix(1,0,0,0.5509283,0,120.11029)"
       x1="353.64944"
       y1="137.16397"
       x2="353.64944"
       y2="204.84419" />
    <linearGradient
       inkscape:collect="always"
       xlink:href="#linearGradient3135"
       id="linearGradient12209"
       gradientUnits="userSpaceOnUse"
       gradientTransform="matrix(1,0,0,0.5509283,-73.741136,125.43442)"
       x1="456.58896"
       y1="168.48463"
       x2="456.58896"
       y2="267.46725" />
    <linearGradient
       inkscape:collect="always"
       xlink:href="#linearGradient3135"
       id="linearGradient12211"
       gradientUnits="userSpaceOnUse"
       gradientTransform="matrix(1,0,0,0.5509283,-73.741136,125.43442)"
       x1="353.64944"
       y1="137.16397"
       x2="353.64944"
       y2="204.84419" />
    <linearGradient
       inkscape:collect="always"
       xlink:href="#linearGradient3135"
       id="linearGradient12213"
       gradientUnits="userSpaceOnUse"
       gradientTransform="matrix(1,0,0,0.5509283,0,120.11029)"
       x1="456.58896"
       y1="168.48463"
       x2="456.58896"
       y2="267.46725" />
    <linearGradient
       inkscape:collect="always"
       xlink:href="#linearGradient3135"
       id="linearGradient12215"
       gradientUnits="userSpaceOnUse"
       gradientTransform="matrix(1,0,0,0.5509283,0,120.11029)"
       x1="353.64944"
       y1="137.16397"
       x2="353.64944"
       y2="204.84419" />
    <linearGradient
       inkscape:collect="always"
       xlink:href="#linearGradient3135"
       id="linearGradient12217"
       gradientUnits="userSpaceOnUse"
       gradientTransform="matrix(1,0,0,0.5509283,-73.741136,125.43442)"
       x1="456.58896"
       y1="168.48463"
       x2="456.58896"
       y2="267.46725" />
    <linearGradient
       inkscape:collect="always"
       xlink:href="#linearGradient3135"
       id="linearGradient12219"
       gradientUnits="userSpaceOnUse"
       gradientTransform="matrix(1,0,0,0.5509283,-73.741136,125.43442)"
       x1="353.64944"
       y1="137.16397"
       x2="353.64944"
       y2="204.84419" />
    <linearGradient
       inkscape:collect="always"
       xlink:href="#linearGradient3135"
       id="linearGradient12221"
       gradientUnits="userSpaceOnUse"
       gradientTransform="matrix(1,0,0,0.5509283,-73.741136,125.43442)"
       x1="456.58896"
       y1="168.48463"
       x2="456.58896"
       y2="267.46725" />
    <linearGradient
       inkscape:collect="always"
       xlink:href="#linearGradient3135"
       id="linearGradient12223"
       gradientUnits="userSpaceOnUse"
       gradientTransform="matrix(1,0,0,0.5509283,-73.741136,125.43442)"
       x1="353.64944"
       y1="137.16397"
       x2="353.64944"
       y2="204.84419" />
    <linearGradient
       inkscape:collect="always"
       xlink:href="#linearGradient3135"
       id="linearGradient12225"
       gradientUnits="userSpaceOnUse"
       gradientTransform="matrix(1,0,0,0.5509283,0,120.11029)"
       x1="456.58896"
       y1="168.48463"
       x2="456.58896"
       y2="267.46725" />
    <linearGradient
       inkscape:collect="always"
       xlink:href="#linearGradient3135"
       id="linearGradient12227"
       gradientUnits="userSpaceOnUse"
       gradientTransform="matrix(1,0,0,0.5509283,0,120.11029)"
       x1="353.64944"
       y1="137.16397"
       x2="353.64944"
       y2="204.84419" />
    <linearGradient
       inkscape:collect="always"
       xlink:href="#linearGradient3135"
       id="linearGradient12229"
       gradientUnits="userSpaceOnUse"
       gradientTransform="matrix(1,0,0,0.5509283,-127.2065,120.11029)"
       x1="456.58896"
       y1="168.48463"
       x2="456.58896"
       y2="267.46725" />
    <linearGradient
       inkscape:collect="always"
       xlink:href="#linearGradient3135"
       id="linearGradient12231"
       gradientUnits="userSpaceOnUse"
       gradientTransform="matrix(1,0,0,0.5509283,-127.2065,120.11029)"
       x1="353.64944"
       y1="137.16397"
       x2="353.64944"
       y2="204.84419" />
    <linearGradient
       inkscape:collect="always"
       xlink:href="#linearGradient3135"
       id="linearGradient12233"
       gradientUnits="userSpaceOnUse"
       gradientTransform="matrix(1,0,0,0.5509283,0,120.11029)"
       x1="456.58896"
       y1="168.48463"
       x2="456.58896"
       y2="267.46725" />
    <linearGradient
       inkscape:collect="always"
       xlink:href="#linearGradient3135"
       id="linearGradient12235"
       gradientUnits="userSpaceOnUse"
       gradientTransform="matrix(1,0,0,0.5509283,0,120.11029)"
       x1="353.64944"
       y1="137.16397"
       x2="353.64944"
       y2="204.84419" />
    <linearGradient
       inkscape:collect="always"
       xlink:href="#linearGradient3135"
       id="linearGradient12237"
       gradientUnits="userSpaceOnUse"
       gradientTransform="matrix(1,0,0,0.5509283,-73.741136,125.43442)"
       x1="456.58896"
       y1="168.48463"
       x2="456.58896"
       y2="267.46725" />
    <linearGradient
       inkscape:collect="always"
       xlink:href="#linearGradient3135"
       id="linearGradient12239"
       gradientUnits="userSpaceOnUse"
       gradientTransform="matrix(1,0,0,0.5509283,-73.741136,125.43442)"
       x1="353.64944"
       y1="137.16397"
       x2="353.64944"
       y2="204.84419" />
    <linearGradient
       inkscape:collect="always"
       xlink:href="#linearGradient3135"
       id="linearGradient12241"
       gradientUnits="userSpaceOnUse"
       gradientTransform="matrix(1,0,0,0.5509283,-73.741136,125.43442)"
       x1="456.58896"
       y1="168.48463"
       x2="456.58896"
       y2="267.46725" />
    <linearGradient
       inkscape:collect="always"
       xlink:href="#linearGradient3135"
       id="linearGradient12243"
       gradientUnits="userSpaceOnUse"
       gradientTransform="matrix(1,0,0,0.5509283,-73.741136,125.43442)"
       x1="353.64944"
       y1="137.16397"
       x2="353.64944"
       y2="204.84419" />
    <linearGradient
       inkscape:collect="always"
       xlink:href="#linearGradient3135"
       id="linearGradient12245"
       gradientUnits="userSpaceOnUse"
       gradientTransform="matrix(1,0,0,0.5509283,0,120.11029)"
       x1="456.58896"
       y1="168.48463"
       x2="456.58896"
       y2="267.46725" />
    <linearGradient
       inkscape:collect="always"
       xlink:href="#linearGradient3135"
       id="linearGradient12247"
       gradientUnits="userSpaceOnUse"
       gradientTransform="matrix(1,0,0,0.5509283,0,120.11029)"
       x1="353.64944"
       y1="137.16397"
       x2="353.64944"
       y2="204.84419" />
  </defs>
  <sodipodi:namedview
     id="base"
     pagecolor="#896107"
     bordercolor="#666666"
     borderopacity="1.0"
     gridtolerance="10000"
     guidetolerance="10"
     objecttolerance="10"
     inkscape:pageopacity="0"
     inkscape:pageshadow="2"
     inkscape:zoom="0.67277218"
     inkscape:cx="288.99642"
     inkscape:cy="678.9341"
     inkscape:document-units="px"
     inkscape:current-layer="layer1"
     inkscape:window-width="1280"
     inkscape:window-height="904"
     inkscape:window-x="8"
     inkscape:window-y="13"
     showgrid="false" />
  <metadata
     id="metadata7">
    <rdf:RDF>
      <cc:Work
         rdf:about="">
        <dc:format>image/svg+xml</dc:format>
        <dc:type
           rdf:resource="http://purl.org/dc/dcmitype/StillImage" />
      </cc:Work>
    </rdf:RDF>
  </metadata>
  <g
     inkscape:label="Layer 1"
     inkscape:groupmode="layer"
     id="layer1">
    <g
       id="g3850"
       transform="matrix(1.5445774,0,0,1.1604765,-472.05508,33.711239)">
      <g
         id="g3336"
         transform="translate(-7.0710606,174.93087)">
        <path
           sodipodi:nodetypes="cccc"
           id="path3338"
           d="M 551.5433,266.91257 C 468.76935,266.91257 411.4737,266.91257 359.80636,266.91257 C 359.80636,237.76827 359.80636,242.70071 359.80636,213.4865 C 442.49979,213.4865 480.67285,237.4453 551.5433,266.91257 z"
           style="fill:url(#linearGradient3864);fill-opacity:1;fill-rule:evenodd;stroke:#705f1c;stroke-width:1.49384999;stroke-linecap:butt;stroke-linejoin:miter;stroke-miterlimit:4;stroke-dasharray:none;stroke-opacity:1" />
        <path
           style="fill:url(#linearGradient3866);fill-opacity:1;fill-rule:evenodd;stroke:#705f1c;stroke-width:1.49385011;stroke-linecap:butt;stroke-linejoin:miter;stroke-miterlimit:4;stroke-dasharray:none;stroke-opacity:1"
           d="M 418.20318,266.91257 C 366.03607,266.91257 355.29773,266.91257 313.33935,266.91257 C 335.06925,266.91257 340.57854,213.4865 359.80637,213.4865 C 393.58216,213.4865 384.49652,237.4453 418.20318,266.91257 z"
           id="path3340"
           sodipodi:nodetypes="cccc" />
      </g>
      <g
         id="g3830"
         transform="translate(126.17304,169.60674)">
        <path
           sodipodi:nodetypes="cccc"
           id="path3832"
           d="M 477.80216,272.2367 C 395.02821,272.2367 337.73256,272.2367 286.06522,272.2367 C 286.06522,243.0924 286.06522,248.02484 286.06522,218.81063 C 368.75865,218.81063 406.93171,242.76943 477.80216,272.2367 z"
           style="fill:url(#linearGradient3868);fill-opacity:1;fill-rule:evenodd;stroke:#705f1c;stroke-width:1.49384999;stroke-linecap:butt;stroke-linejoin:miter;stroke-miterlimit:4;stroke-dasharray:none;stroke-opacity:1" />
        <path
           style="fill:url(#linearGradient3870);fill-opacity:1;fill-rule:evenodd;stroke:#705f1c;stroke-width:1.49385011;stroke-linecap:butt;stroke-linejoin:miter;stroke-miterlimit:4;stroke-dasharray:none;stroke-opacity:1"
           d="M 372.74631,272.2367 C 320.5792,272.2367 281.55659,272.2367 239.59821,272.2367 C 261.32811,272.2367 266.8374,218.81063 286.06523,218.81063 C 315.81756,218.81063 372.74631,237.71276 372.74631,272.2367 z"
           id="path3834"
           sodipodi:nodetypes="cccc" />
      </g>
      <g
         transform="matrix(1,0,0,0.4714685,22.223361,316.00257)"
         id="g3836">
        <path
           style="fill:url(#linearGradient3872);fill-opacity:1;fill-rule:evenodd;stroke:#705f1c;stroke-width:2.17560792;stroke-linecap:butt;stroke-linejoin:miter;stroke-miterlimit:4;stroke-dasharray:none;stroke-opacity:1"
           d="M 551.5433,266.91257 C 468.76935,266.91257 411.4737,266.91257 359.80636,266.91257 C 359.80636,237.76827 359.80636,242.70071 359.80636,213.4865 C 442.49979,213.4865 480.67285,237.4453 551.5433,266.91257 z"
           id="path3838"
           sodipodi:nodetypes="cccc" />
        <path
           sodipodi:nodetypes="cccc"
           id="path3840"
           d="M 418.20318,266.91257 C 366.03607,266.91257 355.29773,266.91257 313.33935,266.91257 C 335.06925,266.91257 340.57854,213.4865 359.80637,213.4865 C 393.58216,213.4865 384.49652,237.4453 418.20318,266.91257 z"
           style="fill:url(#linearGradient3874);fill-opacity:1;fill-rule:evenodd;stroke:#705f1c;stroke-width:2.1756084;stroke-linecap:butt;stroke-linejoin:miter;stroke-miterlimit:4;stroke-dasharray:none;stroke-opacity:1" />
      </g>
      <g
         transform="matrix(0.8444004,0,0,0.3803424,232.99935,338.30028)"
         id="g3260">
        <path
           style="fill:url(#linearGradient3876);fill-opacity:1;fill-rule:evenodd;stroke:#705f1c;stroke-width:2.63600039;stroke-linecap:butt;stroke-linejoin:miter;stroke-miterlimit:4;stroke-dasharray:none;stroke-opacity:1"
           d="M 477.80216,272.2367 C 395.02821,272.2367 337.73256,272.2367 286.06522,272.2367 C 286.06522,243.0924 286.06522,248.02484 286.06522,218.81063 C 368.75865,218.81063 406.93171,242.76943 477.80216,272.2367 z"
           id="path3287"
           sodipodi:nodetypes="cccc" />
        <path
           sodipodi:nodetypes="cccc"
           id="path3289"
           d="M 372.74631,272.2367 C 320.5792,272.2367 281.55659,272.2367 239.59821,272.2367 C 261.32811,272.2367 266.8374,218.81063 286.06523,218.81063 C 315.81756,218.81063 372.74631,237.71276 372.74631,272.2367 z"
           style="fill:url(#linearGradient3878);fill-opacity:1;fill-rule:evenodd;stroke:#705f1c;stroke-width:2.63600039;stroke-linecap:butt;stroke-linejoin:miter;stroke-miterlimit:4;stroke-dasharray:none;stroke-opacity:1" />
      </g>
    </g>
    <g
       id="g3915"
       transform="matrix(1.3835773,0,0,1.1604818,-136.10002,40.950895)">
      <g
         id="g3301"
         transform="translate(-140.50724,74.123872)">
        <path
           sodipodi:nodetypes="cccc"
           id="path3303"
           d="M 477.80216,272.2367 C 395.02821,272.2367 337.73256,272.2367 286.06522,272.2367 C 286.06522,243.0924 286.06522,248.02484 286.06522,218.81063 C 368.75865,218.81063 406.93171,242.76943 477.80216,272.2367 z"
           style="fill:url(#linearGradient3307);fill-opacity:1;fill-rule:evenodd;stroke:#705f1c;stroke-width:1.57837105;stroke-linecap:butt;stroke-linejoin:miter;stroke-miterlimit:4;stroke-dasharray:none;stroke-opacity:1" />
        <path
           style="fill:url(#linearGradient3309);fill-opacity:1;fill-rule:evenodd;stroke:#705f1c;stroke-width:1.57837141;stroke-linecap:butt;stroke-linejoin:miter;stroke-miterlimit:4;stroke-dasharray:none;stroke-opacity:1"
           d="M 372.74631,272.2367 C 320.5792,272.2367 281.55659,272.2367 239.59821,272.2367 C 261.32811,272.2367 266.8374,218.81063 286.06523,218.81063 C 315.81756,218.81063 372.74631,237.71276 372.74631,272.2367 z"
           id="path3305"
           sodipodi:nodetypes="cccc" />
      </g>
      <g
         transform="translate(-123.23861,79.448002)"
         id="g3189">
        <path
           style="fill:url(#linearGradient3213);fill-opacity:1;fill-rule:evenodd;stroke:#705f1c;stroke-width:1.57837105;stroke-linecap:butt;stroke-linejoin:miter;stroke-miterlimit:4;stroke-dasharray:none;stroke-opacity:1"
           d="M 551.5433,266.91257 C 468.76935,266.91257 411.4737,266.91257 359.80636,266.91257 C 359.80636,237.76827 359.80636,242.70071 359.80636,213.4865 C 442.49979,213.4865 480.67285,237.4453 551.5433,266.91257 z"
           id="path2160"
           sodipodi:nodetypes="cccc" />
        <path
           sodipodi:nodetypes="cccc"
           id="path3133"
           d="M 418.20318,266.91257 C 366.03607,266.91257 355.29773,266.91257 313.33935,266.91257 C 335.06925,266.91257 340.57854,213.4865 359.80637,213.4865 C 393.58216,213.4865 384.49652,237.4453 418.20318,266.91257 z"
           style="fill:url(#linearGradient3215);fill-opacity:1;fill-rule:evenodd;stroke:#705f1c;stroke-width:1.57837141;stroke-linecap:butt;stroke-linejoin:miter;stroke-miterlimit:4;stroke-dasharray:none;stroke-opacity:1" />
      </g>
      <g
         transform="matrix(1,0,0,0.5625946,-83.842662,196.19701)"
         id="g3193">
        <path
           sodipodi:nodetypes="cccc"
           id="path3195"
           d="M 551.5433,266.91257 C 468.76935,266.91257 411.4737,266.91257 359.80636,266.91257 C 359.80636,237.76827 359.80636,242.70071 359.80636,213.4865 C 442.49979,213.4865 480.67285,237.4453 551.5433,266.91257 z"
           style="fill:url(#linearGradient3199);fill-opacity:1;fill-rule:evenodd;stroke:#705f1c;stroke-width:2.10431767;stroke-linecap:butt;stroke-linejoin:miter;stroke-miterlimit:4;stroke-dasharray:none;stroke-opacity:1" />
        <path
           style="fill:url(#linearGradient3201);fill-opacity:1;fill-rule:evenodd;stroke:#705f1c;stroke-width:2.1043179;stroke-linecap:butt;stroke-linejoin:miter;stroke-miterlimit:4;stroke-dasharray:none;stroke-opacity:1"
           d="M 418.20318,266.91257 C 366.03607,266.91257 355.29773,266.91257 313.33935,266.91257 C 335.06925,266.91257 340.57854,213.4865 359.80637,213.4865 C 393.58216,213.4865 384.49652,237.4453 418.20318,266.91257 z"
           id="path3197"
           sodipodi:nodetypes="cccc" />
      </g>
      <g
         id="g3217"
         transform="matrix(0.3902177,0,0,0.2785934,15.702618,272.0005)">
        <path
           sodipodi:nodetypes="cccc"
           id="path3219"
           d="M 551.5433,266.91257 C 468.76935,266.91257 411.4737,266.91257 359.80636,266.91257 C 359.80636,237.76827 359.80636,242.70071 359.80636,213.4865 C 442.49979,213.4865 480.67285,237.4453 551.5433,266.91257 z"
           style="fill:url(#linearGradient3223);fill-opacity:1;fill-rule:evenodd;stroke:#705f1c;stroke-width:4.78707552;stroke-linecap:butt;stroke-linejoin:miter;stroke-miterlimit:4;stroke-dasharray:none;stroke-opacity:1" />
        <path
           style="fill:url(#linearGradient3225);fill-opacity:1;fill-rule:evenodd;stroke:#705f1c;stroke-width:4.787076;stroke-linecap:butt;stroke-linejoin:miter;stroke-miterlimit:4;stroke-dasharray:none;stroke-opacity:1"
           d="M 418.20318,266.91257 C 366.03607,266.91257 355.29773,266.91257 313.33935,266.91257 C 335.06925,266.91257 340.57854,213.4865 359.80637,213.4865 C 393.58216,213.4865 384.49652,237.4453 418.20318,266.91257 z"
           id="path3221"
           sodipodi:nodetypes="cccc" />
      </g>
      <g
         id="g3291"
         transform="matrix(0.3818069,0,0,0.3438919,81.743815,252.74058)">
        <path
           sodipodi:nodetypes="cccc"
           id="path3293"
           d="M 477.80216,272.2367 C 395.02821,272.2367 337.73256,272.2367 286.06522,272.2367 C 286.06522,243.0924 286.06522,248.02484 286.06522,218.81063 C 368.75865,218.81063 406.93171,242.76943 477.80216,272.2367 z"
           style="fill:url(#linearGradient3297);fill-opacity:1;fill-rule:evenodd;stroke:#705f1c;stroke-width:4.35588264;stroke-linecap:butt;stroke-linejoin:miter;stroke-miterlimit:4;stroke-dasharray:none;stroke-opacity:1" />
        <path
           style="fill:url(#linearGradient3299);fill-opacity:1;fill-rule:evenodd;stroke:#705f1c;stroke-width:4.3558836;stroke-linecap:butt;stroke-linejoin:miter;stroke-miterlimit:4;stroke-dasharray:none;stroke-opacity:1"
           d="M 372.74631,272.2367 C 320.5792,272.2367 281.55659,272.2367 239.59821,272.2367 C 261.32811,272.2367 266.8374,218.81063 286.06523,218.81063 C 315.81756,218.81063 372.74631,237.71276 372.74631,272.2367 z"
           id="path3295"
           sodipodi:nodetypes="cccc" />
      </g>
    </g>
    <g
       id="g3932"
       transform="matrix(1.3797961,0,0,1.1604814,-364.30928,-85.213175)">
      <g
         transform="translate(25.157777,368.07826)"
         id="g3895">
        <path
           style="fill:url(#linearGradient3940);fill-opacity:1;fill-rule:evenodd;stroke:#705f1c;stroke-width:1.58053243;stroke-linecap:butt;stroke-linejoin:miter;stroke-miterlimit:4;stroke-dasharray:none;stroke-opacity:1"
           d="M 477.80216,272.2367 C 395.02821,272.2367 337.73256,272.2367 286.06522,272.2367 C 286.06522,243.0924 286.06522,248.02484 286.06522,218.81063 C 368.75865,218.81063 406.93171,242.76943 477.80216,272.2367 z"
           id="path3897"
           sodipodi:nodetypes="cccc" />
        <path
           sodipodi:nodetypes="cccc"
           id="path3899"
           d="M 372.74631,272.2367 C 320.5792,272.2367 281.55659,272.2367 239.59821,272.2367 C 261.32811,272.2367 266.8374,218.81063 286.06523,218.81063 C 315.81756,218.81063 372.74631,237.71276 372.74631,272.2367 z"
           style="fill:url(#linearGradient3942);fill-opacity:1;fill-rule:evenodd;stroke:#705f1c;stroke-width:1.58053267;stroke-linecap:butt;stroke-linejoin:miter;stroke-miterlimit:4;stroke-dasharray:none;stroke-opacity:1" />
      </g>
      <g
         id="g3901"
         transform="translate(82.832509,373.40239)">
        <path
           sodipodi:nodetypes="cccc"
           id="path3903"
           d="M 551.5433,266.91257 C 468.76935,266.91257 411.4737,266.91257 359.80636,266.91257 C 359.80636,237.76827 359.80636,242.70071 359.80636,213.4865 C 442.49979,213.4865 480.67285,237.4453 551.5433,266.91257 z"
           style="fill:url(#linearGradient3944);fill-opacity:1;fill-rule:evenodd;stroke:#705f1c;stroke-width:1.58053243;stroke-linecap:butt;stroke-linejoin:miter;stroke-miterlimit:4;stroke-dasharray:none;stroke-opacity:1" />
        <path
           style="fill:url(#linearGradient3946);fill-opacity:1;fill-rule:evenodd;stroke:#705f1c;stroke-width:1.58053267;stroke-linecap:butt;stroke-linejoin:miter;stroke-miterlimit:4;stroke-dasharray:none;stroke-opacity:1"
           d="M 418.20318,266.91257 C 366.03607,266.91257 355.29773,266.91257 313.33935,266.91257 C 335.06925,266.91257 340.57854,213.4865 359.80637,213.4865 C 393.58216,213.4865 384.49652,237.4453 418.20318,266.91257 z"
           id="path3905"
           sodipodi:nodetypes="cccc" />
      </g>
    </g>
    <g
       transform="matrix(0.7722887,0,0,0.580241,-236.02754,-70.971369)"
       id="g12133"
       inkscape:export-filename="E:\SVN_Repository\Drafts\Game\youngheart80\World Tiles\Desert\dunes_2.png"
       inkscape:export-xdpi="90"
       inkscape:export-ydpi="90">
      <g
         transform="translate(-7.0710606,174.93087)"
         id="g12135">
        <path
           style="fill:url(#linearGradient12205);fill-opacity:1;fill-rule:evenodd;stroke:#705f1c;stroke-width:1.49384999;stroke-linecap:butt;stroke-linejoin:miter;stroke-miterlimit:4;stroke-dasharray:none;stroke-opacity:1"
           d="M 551.5433,266.91257 C 468.76935,266.91257 411.4737,266.91257 359.80636,266.91257 C 359.80636,237.76827 359.80636,242.70071 359.80636,213.4865 C 442.49979,213.4865 480.67285,237.4453 551.5433,266.91257 z"
           id="path12137"
           sodipodi:nodetypes="cccc" />
        <path
           sodipodi:nodetypes="cccc"
           id="path12139"
           d="M 418.20318,266.91257 C 366.03607,266.91257 355.29773,266.91257 313.33935,266.91257 C 335.06925,266.91257 340.57854,213.4865 359.80637,213.4865 C 393.58216,213.4865 384.49652,237.4453 418.20318,266.91257 z"
           style="fill:url(#linearGradient12207);fill-opacity:1;fill-rule:evenodd;stroke:#705f1c;stroke-width:1.49385011;stroke-linecap:butt;stroke-linejoin:miter;stroke-miterlimit:4;stroke-dasharray:none;stroke-opacity:1" />
      </g>
      <g
         transform="translate(126.17304,169.60674)"
         id="g12141">
        <path
           style="fill:url(#linearGradient12209);fill-opacity:1;fill-rule:evenodd;stroke:#705f1c;stroke-width:1.49384999;stroke-linecap:butt;stroke-linejoin:miter;stroke-miterlimit:4;stroke-dasharray:none;stroke-opacity:1"
           d="M 477.80216,272.2367 C 395.02821,272.2367 337.73256,272.2367 286.06522,272.2367 C 286.06522,243.0924 286.06522,248.02484 286.06522,218.81063 C 368.75865,218.81063 406.93171,242.76943 477.80216,272.2367 z"
           id="path12143"
           sodipodi:nodetypes="cccc" />
        <path
           sodipodi:nodetypes="cccc"
           id="path12145"
           d="M 372.74631,272.2367 C 320.5792,272.2367 281.55659,272.2367 239.59821,272.2367 C 261.32811,272.2367 266.8374,218.81063 286.06523,218.81063 C 315.81756,218.81063 372.74631,237.71276 372.74631,272.2367 z"
           style="fill:url(#linearGradient12211);fill-opacity:1;fill-rule:evenodd;stroke:#705f1c;stroke-width:1.49385011;stroke-linecap:butt;stroke-linejoin:miter;stroke-miterlimit:4;stroke-dasharray:none;stroke-opacity:1" />
      </g>
      <g
         id="g12147"
         transform="matrix(1,0,0,0.4714685,22.223361,316.00257)">
        <path
           sodipodi:nodetypes="cccc"
           id="path12149"
           d="M 551.5433,266.91257 C 468.76935,266.91257 411.4737,266.91257 359.80636,266.91257 C 359.80636,237.76827 359.80636,242.70071 359.80636,213.4865 C 442.49979,213.4865 480.67285,237.4453 551.5433,266.91257 z"
           style="fill:url(#linearGradient12213);fill-opacity:1;fill-rule:evenodd;stroke:#705f1c;stroke-width:2.17560792;stroke-linecap:butt;stroke-linejoin:miter;stroke-miterlimit:4;stroke-dasharray:none;stroke-opacity:1" />
        <path
           style="fill:url(#linearGradient12215);fill-opacity:1;fill-rule:evenodd;stroke:#705f1c;stroke-width:2.1756084;stroke-linecap:butt;stroke-linejoin:miter;stroke-miterlimit:4;stroke-dasharray:none;stroke-opacity:1"
           d="M 418.20318,266.91257 C 366.03607,266.91257 355.29773,266.91257 313.33935,266.91257 C 335.06925,266.91257 340.57854,213.4865 359.80637,213.4865 C 393.58216,213.4865 384.49652,237.4453 418.20318,266.91257 z"
           id="path12151"
           sodipodi:nodetypes="cccc" />
      </g>
      <g
         id="g12153"
         transform="matrix(0.8444004,0,0,0.3803424,232.99935,338.30028)">
        <path
           sodipodi:nodetypes="cccc"
           id="path12155"
           d="M 477.80216,272.2367 C 395.02821,272.2367 337.73256,272.2367 286.06522,272.2367 C 286.06522,243.0924 286.06522,248.02484 286.06522,218.81063 C 368.75865,218.81063 406.93171,242.76943 477.80216,272.2367 z"
           style="fill:url(#linearGradient12217);fill-opacity:1;fill-rule:evenodd;stroke:#705f1c;stroke-width:2.63600039;stroke-linecap:butt;stroke-linejoin:miter;stroke-miterlimit:4;stroke-dasharray:none;stroke-opacity:1" />
        <path
           style="fill:url(#linearGradient12219);fill-opacity:1;fill-rule:evenodd;stroke:#705f1c;stroke-width:2.63600039;stroke-linecap:butt;stroke-linejoin:miter;stroke-miterlimit:4;stroke-dasharray:none;stroke-opacity:1"
           d="M 372.74631,272.2367 C 320.5792,272.2367 281.55659,272.2367 239.59821,272.2367 C 261.32811,272.2367 266.8374,218.81063 286.06523,218.81063 C 315.81756,218.81063 372.74631,237.71276 372.74631,272.2367 z"
           id="path12157"
           sodipodi:nodetypes="cccc" />
      </g>
    </g>
    <g
       transform="matrix(0.6917887,0,0,0.5802409,19.950103,-119.13242)"
       id="g12159"
       inkscape:export-filename="E:\SVN_Repository\Drafts\Game\youngheart80\World Tiles\Desert\dunes_3.png"
       inkscape:export-xdpi="90"
       inkscape:export-ydpi="90">
      <g
         transform="translate(-267.71388,74.123872)"
         id="g12161">
        <path
           style="fill:url(#linearGradient12221);fill-opacity:1;fill-rule:evenodd;stroke:#705f1c;stroke-width:1.57837105;stroke-linecap:butt;stroke-linejoin:miter;stroke-miterlimit:4;stroke-dasharray:none;stroke-opacity:1"
           d="M 477.80216,272.2367 C 395.02821,272.2367 337.73256,272.2367 286.06522,272.2367 C 286.06522,243.0924 286.06522,248.02484 286.06522,218.81063 C 368.75865,218.81063 406.93171,242.76943 477.80216,272.2367 z"
           id="path12163"
           sodipodi:nodetypes="cccc" />
        <path
           sodipodi:nodetypes="cccc"
           id="path12165"
           d="M 372.74631,272.2367 C 320.5792,272.2367 281.55659,272.2367 239.59821,272.2367 C 261.32811,272.2367 266.8374,218.81063 286.06523,218.81063 C 315.81756,218.81063 372.74631,237.71276 372.74631,272.2367 z"
           style="fill:url(#linearGradient12223);fill-opacity:1;fill-rule:evenodd;stroke:#705f1c;stroke-width:1.57837141;stroke-linecap:butt;stroke-linejoin:miter;stroke-miterlimit:4;stroke-dasharray:none;stroke-opacity:1" />
      </g>
      <g
         id="g12167"
         transform="translate(-250.44525,79.448002)">
        <path
           sodipodi:nodetypes="cccc"
           id="path12169"
           d="M 551.5433,266.91257 C 468.76935,266.91257 411.4737,266.91257 359.80636,266.91257 C 359.80636,237.76827 359.80636,242.70071 359.80636,213.4865 C 442.49979,213.4865 480.67285,237.4453 551.5433,266.91257 z"
           style="fill:url(#linearGradient12225);fill-opacity:1;fill-rule:evenodd;stroke:#705f1c;stroke-width:1.57837105;stroke-linecap:butt;stroke-linejoin:miter;stroke-miterlimit:4;stroke-dasharray:none;stroke-opacity:1" />
        <path
           style="fill:url(#linearGradient12227);fill-opacity:1;fill-rule:evenodd;stroke:#705f1c;stroke-width:1.57837141;stroke-linecap:butt;stroke-linejoin:miter;stroke-miterlimit:4;stroke-dasharray:none;stroke-opacity:1"
           d="M 418.20318,266.91257 C 366.03607,266.91257 355.29773,266.91257 313.33935,266.91257 C 335.06925,266.91257 340.57854,213.4865 359.80637,213.4865 C 393.58216,213.4865 384.49652,237.4453 418.20318,266.91257 z"
           id="path12171"
           sodipodi:nodetypes="cccc" />
      </g>
      <g
         id="g12173"
         transform="matrix(1,0,0,0.5625946,-83.842662,196.19701)">
        <path
           style="fill:url(#linearGradient12229);fill-opacity:1;fill-rule:evenodd;stroke:#705f1c;stroke-width:2.10431767;stroke-linecap:butt;stroke-linejoin:miter;stroke-miterlimit:4;stroke-dasharray:none;stroke-opacity:1"
           d="M 424.33666,266.91257 C 341.56271,266.91257 284.26706,266.91257 232.59972,266.91257 C 232.59972,237.76827 232.59972,242.70071 232.59972,213.4865 C 315.29315,213.4865 353.46621,237.4453 424.33666,266.91257 z"
           id="path12175"
           sodipodi:nodetypes="cccc" />
        <path
           sodipodi:nodetypes="cccc"
           id="path12177"
           d="M 290.99654,266.91257 C 238.82943,266.91257 228.09109,266.91257 186.13271,266.91257 C 207.86261,266.91257 213.3719,213.4865 232.59973,213.4865 C 266.37552,213.4865 257.28988,237.4453 290.99654,266.91257 z"
           style="fill:url(#linearGradient12231);fill-opacity:1;fill-rule:evenodd;stroke:#705f1c;stroke-width:2.1043179;stroke-linecap:butt;stroke-linejoin:miter;stroke-miterlimit:4;stroke-dasharray:none;stroke-opacity:1" />
      </g>
      <g
         transform="matrix(0.3902177,0,0,0.2785934,-111.50386,272.0005)"
         id="g12179">
        <path
           style="fill:url(#linearGradient12233);fill-opacity:1;fill-rule:evenodd;stroke:#705f1c;stroke-width:4.78707552;stroke-linecap:butt;stroke-linejoin:miter;stroke-miterlimit:4;stroke-dasharray:none;stroke-opacity:1"
           d="M 551.5433,266.91257 C 468.76935,266.91257 411.4737,266.91257 359.80636,266.91257 C 359.80636,237.76827 359.80636,242.70071 359.80636,213.4865 C 442.49979,213.4865 480.67285,237.4453 551.5433,266.91257 z"
           id="path12181"
           sodipodi:nodetypes="cccc" />
        <path
           sodipodi:nodetypes="cccc"
           id="path12183"
           d="M 418.20318,266.91257 C 366.03607,266.91257 355.29773,266.91257 313.33935,266.91257 C 335.06925,266.91257 340.57854,213.4865 359.80637,213.4865 C 393.58216,213.4865 384.49652,237.4453 418.20318,266.91257 z"
           style="fill:url(#linearGradient12235);fill-opacity:1;fill-rule:evenodd;stroke:#705f1c;stroke-width:4.787076;stroke-linecap:butt;stroke-linejoin:miter;stroke-miterlimit:4;stroke-dasharray:none;stroke-opacity:1" />
      </g>
      <g
         transform="matrix(0.3818069,0,0,0.3438919,-45.462651,252.74058)"
         id="g12185">
        <path
           style="fill:url(#linearGradient12237);fill-opacity:1;fill-rule:evenodd;stroke:#705f1c;stroke-width:4.35588264;stroke-linecap:butt;stroke-linejoin:miter;stroke-miterlimit:4;stroke-dasharray:none;stroke-opacity:1"
           d="M 477.80216,272.2367 C 395.02821,272.2367 337.73256,272.2367 286.06522,272.2367 C 286.06522,243.0924 286.06522,248.02484 286.06522,218.81063 C 368.75865,218.81063 406.93171,242.76943 477.80216,272.2367 z"
           id="path12187"
           sodipodi:nodetypes="cccc" />
        <path
           sodipodi:nodetypes="cccc"
           id="path12189"
           d="M 372.74631,272.2367 C 320.5792,272.2367 281.55659,272.2367 239.59821,272.2367 C 261.32811,272.2367 266.8374,218.81063 286.06523,218.81063 C 315.81756,218.81063 372.74631,237.71276 372.74631,272.2367 z"
           style="fill:url(#linearGradient12239);fill-opacity:1;fill-rule:evenodd;stroke:#705f1c;stroke-width:4.3558836;stroke-linecap:butt;stroke-linejoin:miter;stroke-miterlimit:4;stroke-dasharray:none;stroke-opacity:1" />
      </g>
    </g>
    <g
       transform="matrix(0.6898981,0,0,0.5802407,-182.15465,-74.732259)"
       id="g12191"
       inkscape:export-filename="E:\SVN_Repository\Drafts\Game\youngheart80\World Tiles\Desert\dunes_1.png"
       inkscape:export-xdpi="90"
       inkscape:export-ydpi="90">
      <g
         id="g12193"
         transform="translate(25.157777,368.07826)">
        <path
           sodipodi:nodetypes="cccc"
           id="path12195"
           d="M 477.80216,272.2367 C 395.02821,272.2367 337.73256,272.2367 286.06522,272.2367 C 286.06522,243.0924 286.06522,248.02484 286.06522,218.81063 C 368.75865,218.81063 406.93171,242.76943 477.80216,272.2367 z"
           style="fill:url(#linearGradient12241);fill-opacity:1;fill-rule:evenodd;stroke:#705f1c;stroke-width:1.58053243;stroke-linecap:butt;stroke-linejoin:miter;stroke-miterlimit:4;stroke-dasharray:none;stroke-opacity:1" />
        <path
           style="fill:url(#linearGradient12243);fill-opacity:1;fill-rule:evenodd;stroke:#705f1c;stroke-width:1.58053267;stroke-linecap:butt;stroke-linejoin:miter;stroke-miterlimit:4;stroke-dasharray:none;stroke-opacity:1"
           d="M 372.74631,272.2367 C 320.5792,272.2367 281.55659,272.2367 239.59821,272.2367 C 261.32811,272.2367 266.8374,218.81063 286.06523,218.81063 C 315.81756,218.81063 372.74631,237.71276 372.74631,272.2367 z"
           id="path12197"
           sodipodi:nodetypes="cccc" />
      </g>
      <g
         transform="translate(82.832509,373.40239)"
         id="g12199">
        <path
           style="fill:url(#linearGradient12245);fill-opacity:1;fill-rule:evenodd;stroke:#705f1c;stroke-width:1.58053243;stroke-linecap:butt;stroke-linejoin:miter;stroke-miterlimit:4;stroke-dasharray:none;stroke-opacity:1"
           d="M 551.5433,266.91257 C 468.76935,266.91257 411.4737,266.91257 359.80636,266.91257 C 359.80636,237.76827 359.80636,242.70071 359.80636,213.4865 C 442.49979,213.4865 480.67285,237.4453 551.5433,266.91257 z"
           id="path12201"
           sodipodi:nodetypes="cccc" />
        <path
           sodipodi:nodetypes="cccc"
           id="path12203"
           d="M 418.20318,266.91257 C 366.03607,266.91257 355.29773,266.91257 313.33935,266.91257 C 335.06925,266.91257 340.57854,213.4865 359.80637,213.4865 C 393.58216,213.4865 384.49652,237.4453 418.20318,266.91257 z"
           style="fill:url(#linearGradient12247);fill-opacity:1;fill-rule:evenodd;stroke:#705f1c;stroke-width:1.58053267;stroke-linecap:butt;stroke-linejoin:miter;stroke-miterlimit:4;stroke-dasharray:none;stroke-opacity:1" />
      </g>
    </g>
  </g>
</svg>
