<?xml version="1.0" encoding="UTF-8" standalone="no"?>
<!-- Created with Inkscape (http://www.inkscape.org/) -->
<svg
   xmlns:dc="http://purl.org/dc/elements/1.1/"
   xmlns:cc="http://creativecommons.org/ns#"
   xmlns:rdf="http://www.w3.org/1999/02/22-rdf-syntax-ns#"
   xmlns:svg="http://www.w3.org/2000/svg"
   xmlns="http://www.w3.org/2000/svg"
   xmlns:xlink="http://www.w3.org/1999/xlink"
   xmlns:sodipodi="http://sodipodi.sourceforge.net/DTD/sodipodi-0.dtd"
   xmlns:inkscape="http://www.inkscape.org/namespaces/inkscape"
   width="1024"
   height="512"
   id="svg2"
   sodipodi:version="0.32"
   inkscape:version="0.46"
   version="1.0"
   sodipodi:docname="hills_sand.svg"
   inkscape:output_extension="org.inkscape.output.svg.inkscape">
  <defs
     id="defs4">
    <inkscape:perspective
       sodipodi:type="inkscape:persp3d"
       inkscape:vp_x="0 : 256 : 1"
       inkscape:vp_y="0 : 1000 : 0"
       inkscape:vp_z="1024 : 256 : 1"
       inkscape:persp3d-origin="512 : 170.66667 : 1"
       id="perspective91" />
    <linearGradient
       inkscape:collect="always"
       id="linearGradient15301">
      <stop
         style="stop-color:#ffffff;stop-opacity:1;"
         offset="0"
         id="stop15303" />
      <stop
         style="stop-color:#ffffff;stop-opacity:0;"
         offset="1"
         id="stop15305" />
    </linearGradient>
    <pattern
       patternUnits="userSpaceOnUse"
       width="116.26073"
       height="133.67351"
       patternTransform="translate(137.63768,118.10804)"
       id="pattern10087">
      <g
         transform="translate(-34.637679,-110.60804)"
         id="g8404">
        <path
           style="fill:none;fill-rule:evenodd;stroke:#45941f;stroke-width:1px;stroke-linecap:butt;stroke-linejoin:miter;stroke-opacity:1"
           d="M 48,141.28155 C 48,141.28155 76,223.78155 61.5,242.78155"
           id="path6740"
           inkscape:tile-w="18.666717"
           inkscape:tile-h="102.5"
           inkscape:tile-cx="27.833358"
           inkscape:tile-cy="191.25" />
        <use
           x="0"
           y="0"
           inkscape:tiled-clone-of="#path6740"
           xlink:href="#path6740"
           transform="matrix(0.9986226,-5.2468808e-2,5.2372796e-2,0.9967952,-20.195973,5.0053556)"
           id="use8324"
           style="fill:#000000;stroke:#000000"
           width="256"
           height="256" />
        <use
           x="0"
           y="0"
           inkscape:tiled-clone-of="#path6740"
           xlink:href="#path6740"
           transform="matrix(0.9903274,-0.1387506,0.1105043,0.7887204,-20.67483,59.881737)"
           id="use8326"
           style="fill:#000000;stroke:#000000"
           width="256"
           height="256" />
        <use
           x="0"
           y="0"
           inkscape:tiled-clone-of="#path6740"
           xlink:href="#path6740"
           transform="matrix(0.9995476,-3.0074997e-2,2.7438729e-2,0.9119308,-8.3328004,23.253606)"
           id="use8328"
           style="fill:#000000;stroke:#000000"
           width="256"
           height="256" />
        <use
           x="0"
           y="0"
           inkscape:tiled-clone-of="#path6740"
           xlink:href="#path6740"
           transform="matrix(0.9926894,-0.1206971,0.1193381,0.9815127,-19.863042,11.91407)"
           id="use8330"
           style="fill:#000000;stroke:#000000"
           width="256"
           height="256" />
        <use
           x="0"
           y="0"
           inkscape:tiled-clone-of="#path6740"
           xlink:href="#path6740"
           transform="matrix(0.9968677,-7.9087437e-2,9.3842786e-2,1.1828534,-9.2950633,-39.574203)"
           id="use8332"
           style="fill:#000000;stroke:#000000"
           width="256"
           height="256" />
        <use
           x="0"
           y="0"
           inkscape:tiled-clone-of="#path6740"
           xlink:href="#path6740"
           transform="matrix(0.99472,0.1026262,-0.1291987,1.2522788,38.382089,-67.621158)"
           id="use8334"
           style="fill:#000000;stroke:#000000"
           width="256"
           height="256" />
        <use
           x="0"
           y="0"
           inkscape:tiled-clone-of="#path6740"
           xlink:href="#path6740"
           transform="matrix(0.9885463,-0.1509182,0.1672853,1.0957542,-14.596318,-13.992298)"
           id="use8336"
           style="fill:#000000;stroke:#000000"
           width="256"
           height="256" />
        <use
           x="0"
           y="0"
           inkscape:tiled-clone-of="#path6740"
           xlink:href="#path6740"
           transform="matrix(0.9991437,4.1375224e-2,-4.7247844e-2,1.1409578,30.172514,-36.800836)"
           id="use8338"
           style="fill:#000000;stroke:#000000"
           width="256"
           height="256" />
        <use
           x="0"
           y="0"
           inkscape:tiled-clone-of="#path6740"
           xlink:href="#path6740"
           transform="matrix(0.9921178,0.1253085,-0.1301964,1.0308172,48.564702,-15.197979)"
           id="use8340"
           style="fill:#000000;stroke:#000000"
           width="256"
           height="256" />
        <use
           x="0"
           y="0"
           inkscape:tiled-clone-of="#path6740"
           xlink:href="#path6740"
           transform="matrix(0.9994426,3.3384447e-2,-3.2964458e-2,0.9868692,34.043234,1.1379275)"
           id="use8342"
           style="fill:#000000;stroke:#000000"
           width="256"
           height="256" />
        <use
           x="0"
           y="0"
           inkscape:tiled-clone-of="#path6740"
           xlink:href="#path6740"
           transform="matrix(0.9891447,-0.1469447,0.1470032,0.9895382,2.3930447,11.576932)"
           id="use8344"
           style="fill:#000000;stroke:#000000"
           width="256"
           height="256" />
        <use
           x="0"
           y="0"
           inkscape:tiled-clone-of="#path6740"
           xlink:href="#path6740"
           transform="matrix(0.9989826,4.509654e-2,-4.328814e-2,0.9589228,42.194944,7.2094767)"
           id="use8346"
           style="fill:#000000;stroke:#000000"
           width="256"
           height="256" />
        <use
           x="0"
           y="0"
           inkscape:tiled-clone-of="#path6740"
           xlink:href="#path6740"
           transform="matrix(0.9922861,-0.1239692,0.1048251,0.839051,15.575832,46.739778)"
           id="use8348"
           style="fill:#000000;stroke:#000000"
           width="256"
           height="256" />
        <use
           x="0"
           y="0"
           inkscape:tiled-clone-of="#path6740"
           xlink:href="#path6740"
           transform="matrix(0.9961604,-8.7546702e-2,0.1115387,1.2691565,17.035552,-60.026479)"
           id="use8350"
           style="fill:#000000;stroke:#000000"
           width="256"
           height="256" />
        <use
           x="0"
           y="0"
           inkscape:tiled-clone-of="#path6740"
           xlink:href="#path6740"
           transform="matrix(0.9965649,-8.2815824e-2,7.1468369e-2,0.8600152,27.260413,39.114416)"
           id="use8352"
           style="fill:#000000;stroke:#000000"
           width="256"
           height="256" />
        <use
           x="0"
           y="0"
           inkscape:tiled-clone-of="#path6740"
           xlink:href="#path6740"
           transform="matrix(0.9931081,-0.117202,0.1364748,1.1564151,17.707355,-30.806323)"
           id="use8354"
           style="fill:#000000;stroke:#000000"
           width="256"
           height="256" />
        <use
           x="0"
           y="0"
           inkscape:tiled-clone-of="#path6740"
           xlink:href="#path6740"
           transform="matrix(0.9989472,-4.5874767e-2,4.9211581e-2,1.0716081,36.511419,-14.581692)"
           id="use8356"
           style="fill:#000000;stroke:#000000"
           width="256"
           height="256" />
        <use
           x="0"
           y="0"
           inkscape:tiled-clone-of="#path6740"
           xlink:href="#path6740"
           transform="matrix(0.9976658,6.8286301e-2,-8.5389273e-2,1.2475409,64.682054,-64.35709)"
           id="use8358"
           style="fill:#000000;stroke:#000000"
           width="256"
           height="256" />
        <use
           x="0"
           y="0"
           inkscape:tiled-clone-of="#path6740"
           xlink:href="#path6740"
           transform="matrix(0.9979087,6.4638518e-2,-7.3884333e-2,1.1406484,64.170752,-38.15667)"
           id="use8360"
           style="fill:#000000;stroke:#000000"
           width="256"
           height="256" />
        <use
           x="0"
           y="0"
           inkscape:tiled-clone-of="#path6740"
           xlink:href="#path6740"
           transform="matrix(0.9993984,-3.4681396e-2,3.7865144e-2,1.0911431,44.499317,-20.017404)"
           id="use8362"
           style="fill:#000000;stroke:#000000"
           width="256"
           height="256" />
        <use
           x="0"
           y="0"
           inkscape:tiled-clone-of="#path6740"
           xlink:href="#path6740"
           transform="matrix(0.9912877,-0.1317141,0.1475907,1.1107761,26.760504,-18.823253)"
           id="use8364"
           style="fill:#000000;stroke:#000000"
           width="256"
           height="256" />
        <use
           x="0"
           y="0"
           inkscape:tiled-clone-of="#path6740"
           xlink:href="#path6740"
           transform="matrix(0.999434,3.3639876e-2,-2.8831362e-2,0.856574,62.458154,32.789447)"
           id="use8366"
           style="fill:#000000;stroke:#000000"
           width="256"
           height="256" />
        <use
           x="0"
           y="0"
           inkscape:tiled-clone-of="#path6740"
           xlink:href="#path6740"
           transform="matrix(0.9903855,0.138335,-0.1397591,1.0005811,85.25044,-8.6512499)"
           id="use8368"
           style="fill:#000000;stroke:#000000"
           width="256"
           height="256" />
        <use
           x="0"
           y="0"
           inkscape:tiled-clone-of="#path6740"
           xlink:href="#path6740"
           transform="matrix(0.9916875,0.1286698,-0.1313907,1.0126586,87.114382,-10.991726)"
           id="use8370"
           style="fill:#000000;stroke:#000000"
           width="256"
           height="256" />
        <use
           x="0"
           y="0"
           inkscape:tiled-clone-of="#path6740"
           xlink:href="#path6740"
           transform="matrix(0.9998722,-1.5984256e-2,1.6911564e-2,1.0578787,58.733075,-13.083148)"
           id="use8372"
           style="fill:#000000;stroke:#000000"
           width="256"
           height="256" />
        <use
           x="0"
           y="0"
           inkscape:tiled-clone-of="#path6740"
           xlink:href="#path6740"
           transform="matrix(0.9998857,-1.5120733e-2,1.6591486e-2,1.0971419,61.801759,-22.678088)"
           id="use8374"
           style="fill:#000000;stroke:#000000"
           width="256"
           height="256" />
        <use
           x="0"
           y="0"
           inkscape:tiled-clone-of="#path6740"
           xlink:href="#path6740"
           transform="matrix(0.9982081,5.9837512e-2,-4.2293325e-2,0.7055364,75.090485,67.889964)"
           id="use8376"
           style="fill:#000000;stroke:#000000"
           width="256"
           height="256" />
        <use
           x="0"
           y="0"
           inkscape:tiled-clone-of="#path6740"
           xlink:href="#path6740"
           transform="matrix(0.996031,-8.9007138e-2,7.3689438e-2,0.8246189,54.771377,48.098287)"
           id="use8378"
           style="fill:#000000;stroke:#000000"
           width="256"
           height="256" />
        <use
           x="0"
           y="0"
           inkscape:tiled-clone-of="#path6740"
           xlink:href="#path6740"
           transform="matrix(0.9915584,0.1296608,-0.1541878,1.179124,99.773136,-51.507384)"
           id="use8380"
           style="fill:#000000;stroke:#000000"
           width="256"
           height="256" />
        <use
           x="0"
           y="0"
           inkscape:tiled-clone-of="#path6740"
           xlink:href="#path6740"
           transform="matrix(0.9997259,2.3412219e-2,-2.9373353e-2,1.2542725,76.431879,-63.23257)"
           id="use8382"
           style="fill:#000000;stroke:#000000"
           width="256"
           height="256" />
        <use
           x="0"
           y="0"
           inkscape:tiled-clone-of="#path6740"
           xlink:href="#path6740"
           transform="matrix(0.9966896,8.1301109e-2,-0.1033336,1.2667913,92.639222,-69.835715)"
           id="use8384"
           style="fill:#000000;stroke:#000000"
           width="256"
           height="256" />
        <use
           x="0"
           y="0"
           inkscape:tiled-clone-of="#path6740"
           xlink:href="#path6740"
           transform="matrix(0.9916494,-0.1289629,0.146684,1.1279141,46.634856,-23.157212)"
           id="use8386"
           style="fill:#000000;stroke:#000000"
           width="256"
           height="256" />
        <use
           x="0"
           y="0"
           inkscape:tiled-clone-of="#path6740"
           xlink:href="#path6740"
           transform="matrix(0.9999972,-2.3778109e-3,2.3171187e-3,0.9744728,75.275271,6.3501908)"
           id="use8388"
           style="fill:#000000;stroke:#000000"
           width="256"
           height="256" />
        <use
           x="0"
           y="0"
           inkscape:tiled-clone-of="#path6740"
           xlink:href="#path6740"
           transform="matrix(0.9888478,0.1489295,-0.1921965,1.2761276,116.15607,-76.265856)"
           id="use8390"
           style="fill:#000000;stroke:#000000"
           width="256"
           height="256" />
        <use
           x="0"
           y="0"
           inkscape:tiled-clone-of="#path6740"
           xlink:href="#path6740"
           transform="matrix(0.9926425,0.121082,-0.1500456,1.2300894,109.10922,-63.364602)"
           id="use8392"
           style="fill:#000000;stroke:#000000"
           width="256"
           height="256" />
        <use
           x="0"
           y="0"
           inkscape:tiled-clone-of="#path6740"
           xlink:href="#path6740"
           transform="matrix(0.9939529,0.1098071,-0.1171618,1.0605259,103.6091,-21.464181)"
           id="use8394"
           style="fill:#000000;stroke:#000000"
           width="256"
           height="256" />
        <use
           x="0"
           y="0"
           inkscape:tiled-clone-of="#path6740"
           xlink:href="#path6740"
           transform="matrix(0.9989744,-4.5277666e-2,3.6083798e-2,0.7961274,76.710422,52.334723)"
           id="use8396"
           style="fill:#000000;stroke:#000000"
           width="256"
           height="256" />
        <use
           x="0"
           y="0"
           inkscape:tiled-clone-of="#path6740"
           xlink:href="#path6740"
           transform="matrix(0.9908743,0.1347895,-0.1404827,1.0327262,111.70944,-16.245322)"
           id="use8398"
           style="fill:#000000;stroke:#000000"
           width="256"
           height="256" />
        <use
           x="0"
           y="0"
           inkscape:tiled-clone-of="#path6740"
           xlink:href="#path6740"
           transform="matrix(0.989723,0.1429975,-0.1800851,1.246416,121.41477,-68.68071)"
           id="use8400"
           style="fill:#000000;stroke:#000000"
           width="256"
           height="256" />
        <use
           x="0"
           y="0"
           inkscape:tiled-clone-of="#path6740"
           xlink:href="#path6740"
           transform="matrix(0.9931769,0.1166178,-0.1179614,1.0046199,110.19668,-8.2964933)"
           id="use8402"
           style="fill:#000000;stroke:#000000"
           width="256"
           height="256" />
      </g>
    </pattern>
    <linearGradient
       id="linearGradient11971">
      <stop
         style="stop-color:#e6e3c7;stop-opacity:1;"
         offset="0"
         id="stop11973" />
      <stop
         id="stop6364"
         offset="1"
         style="stop-color:#d0c095;stop-opacity:1;" />
    </linearGradient>
    <filter
       inkscape:collect="always"
       id="filter15317"
       x="-0.12022902"
       width="1.240458"
       y="-0.11977185"
       height="1.2395437">
      <feGaussianBlur
         inkscape:collect="always"
         stdDeviation="48.439147"
         id="feGaussianBlur15319" />
    </filter>
    <clipPath
       clipPathUnits="userSpaceOnUse"
       id="clipPath15347">
      <path
         sodipodi:nodetypes="cc"
         id="path15349"
         d="M 2.18751,1022.9983 C 162.89732,-565.41511 1011.1419,-93.655639 1024.1875,1022.9983"
         style="fill:url(#linearGradient15351);fill-opacity:1;fill-rule:evenodd;stroke:#000000;stroke-width:2;stroke-linecap:butt;stroke-linejoin:miter;stroke-opacity:1" />
    </clipPath>
    <linearGradient
       inkscape:collect="always"
       xlink:href="#linearGradient11971"
       id="linearGradient15351"
       gradientUnits="userSpaceOnUse"
       gradientTransform="matrix(0.9990225,0,0,0.9990225,1.68798,0.4988053)"
       x1="244.45691"
       y1="126.98454"
       x2="1024"
       y2="1024" />
    <linearGradient
       inkscape:collect="always"
       xlink:href="#linearGradient15301"
       id="linearGradient15386"
       gradientUnits="userSpaceOnUse"
       x1="664.6803"
       y1="629.18054"
       x2="851.50366"
       y2="1504.9165" />
    <filter
       id="filter6169"
       inkscape:label="Rocky2"
       x="0"
       y="0"
       width="1"
       height="1">
      <feTurbulence
         id="feTurbulence6171"
         numOctaves="1"
         seed="370"
         baseFrequency="0.29999999999999999"
         type="fractalNoise"
         in="SourceAlpha" />
      <feGaussianBlur
         stdDeviation="2"
         id="feGaussianBlur7257" />
      <feColorMatrix
         id="feColorMatrix6212"
         result="result2"
         type="matrix"
         values="0 0 0 0 1 0 0 0 0 1 0 0 0 0 1 0 0 0 5.5 -2.5 " />
      <feComposite
         id="feComposite7251"
         in2="result2"
         operator="in"
         in="SourceGraphic" />
    </filter>
    <linearGradient
       inkscape:collect="always"
       xlink:href="#linearGradient11971"
       id="linearGradient6294"
       gradientUnits="userSpaceOnUse"
       gradientTransform="matrix(0.9970675,0,0,0.4965787,1.5014551,1.7516242)"
       x1="244.45691"
       y1="126.98454"
       x2="1024"
       y2="1024" />
    <linearGradient
       inkscape:collect="always"
       xlink:href="#linearGradient11971"
       id="linearGradient6331"
       x1="354"
       y1="222.5"
       x2="1022.5"
       y2="513.5"
       gradientUnits="userSpaceOnUse"
       gradientTransform="matrix(1,0,0,0.7801858,0,112.43501)" />
    <linearGradient
       inkscape:collect="always"
       xlink:href="#linearGradient11971"
       id="linearGradient6345"
       x1="279.72287"
       y1="347.92386"
       x2="462.15643"
       y2="613.82336"
       gradientUnits="userSpaceOnUse" />
    <filter
       inkscape:collect="always"
       id="filter7161"
       x="-0.037152465"
       width="1.0743049"
       y="-0.15583075"
       height="1.3116615">
      <feGaussianBlur
         inkscape:collect="always"
         stdDeviation="15.033203"
         id="feGaussianBlur7163" />
    </filter>
    <clipPath
       clipPathUnits="userSpaceOnUse"
       id="clipPath7167">
      <path
         sodipodi:nodetypes="ccc"
         id="path7169"
         d="M 0.49999944,511.50003 L 175.94259,259.50003 C 677.6744,296.71661 833.55098,367.97187 1020.5,511.50003"
         style="fill:url(#linearGradient7171);fill-opacity:1;fill-rule:evenodd;stroke:#000000;stroke-width:4;stroke-linecap:butt;stroke-linejoin:miter;stroke-opacity:1" />
    </clipPath>
    <linearGradient
       inkscape:collect="always"
       xlink:href="#linearGradient11971"
       id="linearGradient7171"
       gradientUnits="userSpaceOnUse"
       gradientTransform="matrix(1,0,0,0.7801858,0,112.43501)"
       x1="354"
       y1="222.5"
       x2="1022.5"
       y2="513.5" />
    <linearGradient
       inkscape:collect="always"
       xlink:href="#linearGradient11971"
       id="linearGradient7189"
       gradientUnits="userSpaceOnUse"
       gradientTransform="matrix(1,0,0,0.7801858,1.5000006,110.93498)"
       x1="354"
       y1="222.5"
       x2="971"
       y2="487.22421" />
    <linearGradient
       inkscape:collect="always"
       xlink:href="#linearGradient11971"
       id="linearGradient7206"
       gradientUnits="userSpaceOnUse"
       gradientTransform="matrix(1,0,0,0.7801858,1.5000006,110.93498)"
       x1="354"
       y1="222.5"
       x2="971"
       y2="487.22421" />
    <linearGradient
       inkscape:collect="always"
       xlink:href="#linearGradient11971"
       id="linearGradient7208"
       gradientUnits="userSpaceOnUse"
       x1="279.72287"
       y1="347.92386"
       x2="462.15643"
       y2="613.82336" />
    <linearGradient
       inkscape:collect="always"
       xlink:href="#linearGradient11971"
       id="linearGradient7212"
       gradientUnits="userSpaceOnUse"
       x1="279.72287"
       y1="347.92386"
       x2="462.15643"
       y2="613.82336" />
    <linearGradient
       inkscape:collect="always"
       xlink:href="#linearGradient11971"
       id="linearGradient7215"
       gradientUnits="userSpaceOnUse"
       gradientTransform="matrix(1,0,0,0.7801858,1.5000006,110.93498)"
       x1="354"
       y1="222.5"
       x2="971"
       y2="487.22421" />
  </defs>
  <sodipodi:namedview
     id="base"
     pagecolor="#000000"
     bordercolor="#666666"
     borderopacity="1.0"
     gridtolerance="10000"
     guidetolerance="10"
     objecttolerance="10"
     inkscape:pageopacity="0"
     inkscape:pageshadow="2"
     inkscape:zoom="0.50000001"
     inkscape:cx="522.51375"
     inkscape:cy="64.790898"
     inkscape:document-units="px"
     inkscape:current-layer="layer2"
     showgrid="false"
     inkscape:window-width="1152"
     inkscape:window-height="808"
     inkscape:window-x="-4"
     inkscape:window-y="-4"
     showguides="true"
     inkscape:guide-bbox="true" />
  <metadata
     id="metadata7">
    <rdf:RDF>
      <cc:Work
         rdf:about="">
        <dc:format>image/svg+xml</dc:format>
        <dc:type
           rdf:resource="http://purl.org/dc/dcmitype/StillImage" />
      </cc:Work>
    </rdf:RDF>
  </metadata>
  <g
     inkscape:label="Sand_Large"
     inkscape:groupmode="layer"
     id="layer1"
     style="display:inline">
    <g
       id="g7226"
       inkscape:export-filename="D:\Dateien\Desktop\Secret Maryo Chronicles\SMC\data\pixmaps\world\sand_1\hills\1.png"
       inkscape:export-xdpi="22.499998"
       inkscape:export-ydpi="22.499998">
      <path
         sodipodi:nodetypes="cc"
         id="path3801"
         d="M 2.0000037,510 C 162.39533,-279.54417 1008.98,-45.049221 1022,510"
         style="fill:url(#linearGradient6294);fill-opacity:1;fill-rule:evenodd;stroke:#000000;stroke-width:3.99999952;stroke-linecap:butt;stroke-linejoin:miter;stroke-opacity:1" />
      <path
         transform="matrix(1,0,0,0.4980393,0,3.0038354)"
         style="opacity:0.3;fill:#fff6d5;fill-opacity:1;fill-rule:evenodd;stroke:none;stroke-width:3.99999976;stroke-linecap:butt;stroke-linejoin:miter;stroke-opacity:1;filter:url(#filter6169)"
         d="M 2.0000037,1022 C 162.39533,-563.30495 1008.98,-92.468718 1022,1022"
         id="path7265"
         sodipodi:nodetypes="cc" />
      <path
         sodipodi:nodetypes="csccsc"
         id="path15297"
         d="M 502.5625,50.9375 C 418.61475,53.070313 326.82939,112.04405 242.40625,267.90625 C 162.44901,415.5235 94.279491,695.14742 56.6875,1021.6123 L 971.875,1021.6123 C 962.01756,745.42303 899.19002,465.36085 812.09375,304.3125 C 719.68769,133.44589 603.87915,48.363405 502.5625,50.9375 z"
         clip-path="url(#clipPath15347)"
         style="opacity:0.5;fill:#fff6d5;fill-opacity:1;fill-rule:evenodd;stroke:none;stroke-width:1px;stroke-linecap:butt;stroke-linejoin:miter;stroke-opacity:1;filter:url(#filter15317)"
         transform="matrix(1,0,0,0.4980393,-1.1875,3.1969252)" />
    </g>
  </g>
  <g
     inkscape:groupmode="layer"
     id="layer2"
     inkscape:label="Dune"
     style="display:none">
    <g
       id="g7219"
       inkscape:export-filename="D:\Dateien\Desktop\Secret Maryo Chronicles\SMC\data\pixmaps\world\sand_1\hills\dune_1.png"
       inkscape:export-xdpi="22.499998"
       inkscape:export-ydpi="22.499998">
      <path
         sodipodi:nodetypes="ccc"
         id="path6323"
         d="M 2,512 L 177.44259,260 C 679.1744,297.21658 835.05098,368.47184 1022,512"
         style="fill:url(#linearGradient7215);fill-opacity:1;fill-rule:evenodd;stroke:#000000;stroke-width:4;stroke-linecap:butt;stroke-linejoin:miter;stroke-opacity:1" />
      <path
         transform="translate(0,0.49997)"
         clip-path="url(#clipPath7167)"
         sodipodi:nodetypes="cccccccc"
         id="path6347"
         d="M 19.71875,510 C 19.71875,538.28808 19.71875,544.26997 19.71875,579.29646 C 211.23986,579.29646 890.46341,579.29646 990.84375,579.29646 C 990.84375,541.78327 990.84375,531.24254 990.84375,510 C 905.39631,445.63983 810.21612,392.86676 707.39882,361.93028 C 568.38082,318.10357 422.76642,300.9209 278.16977,286.61726 C 245.78842,283.56348 213.37617,280.83904 180.9375,278.46875 C 127.19792,355.64583 73.458333,432.82292 19.71875,510 z"
         style="opacity:0.7;fill:#fff6d5;fill-opacity:1;fill-rule:evenodd;stroke:none;stroke-width:4;stroke-linecap:butt;stroke-linejoin:miter;stroke-opacity:1;filter:url(#filter7161)" />
      <path
         style="opacity:0.3;fill:#fff6d5;fill-opacity:1;fill-rule:evenodd;stroke:none;stroke-width:4;stroke-linecap:butt;stroke-linejoin:miter;stroke-opacity:1;filter:url(#filter6169)"
         d="M 0,512 L 175.44259,260 C 677.1744,297.21658 833.05098,368.47184 1020,512"
         id="path7177"
         sodipodi:nodetypes="ccc" />
      <path
         sodipodi:nodetypes="csc"
         id="path6337"
         d="M 2,512 C 31.372591,429.8795 95.441158,260 168.2941,260 C 443.2287,260 597.90389,414.8602 622.99998,512"
         style="fill:url(#linearGradient7212);fill-opacity:1;fill-rule:evenodd;stroke:#000000;stroke-width:4;stroke-linecap:butt;stroke-linejoin:miter;stroke-opacity:1" />
      <path
         style="opacity:0.3;fill:#fff6d5;fill-opacity:1;fill-rule:evenodd;stroke:none;stroke-width:4;stroke-linecap:butt;stroke-linejoin:miter;stroke-opacity:1;filter:url(#filter6169)"
         d="M 2,512 C 31.372591,429.8795 95.441158,257.99999 168.2941,257.99999 C 443.2287,257.99999 597.90389,414.8602 622.99998,512"
         id="path7183"
         sodipodi:nodetypes="csc" />
    </g>
  </g>
</svg>
