<?xml version="1.0" encoding="UTF-8" standalone="no"?>
<!-- Created with Inkscape (http://www.inkscape.org/) -->
<svg
   xmlns:dc="http://purl.org/dc/elements/1.1/"
   xmlns:cc="http://creativecommons.org/ns#"
   xmlns:rdf="http://www.w3.org/1999/02/22-rdf-syntax-ns#"
   xmlns:svg="http://www.w3.org/2000/svg"
   xmlns="http://www.w3.org/2000/svg"
   xmlns:xlink="http://www.w3.org/1999/xlink"
   xmlns:sodipodi="http://sodipodi.sourceforge.net/DTD/sodipodi-0.dtd"
   xmlns:inkscape="http://www.inkscape.org/namespaces/inkscape"
   width="1024"
   height="1024"
   id="svg2"
   sodipodi:version="0.32"
   inkscape:version="0.46"
   version="1.0"
   sodipodi:docname="sand_base.svg"
   inkscape:output_extension="org.inkscape.output.svg.inkscape"
   sodipodi:docbase="E:\SVN_Repository\Drafts\Game\youngheart80\World Tiles\Desert"
   inkscape:export-filename="E:\SVN_Repository\Drafts\Game\youngheart80\World Tiles\Desert\sand_base.png"
   inkscape:export-xdpi="90"
   inkscape:export-ydpi="90"
   sodipodi:modified="TRUE">
  <defs
     id="defs4">
    <inkscape:perspective
       sodipodi:type="inkscape:persp3d"
       inkscape:vp_x="0 : 388.00009 : 1"
       inkscape:vp_y="0 : 1000 : 0"
       inkscape:vp_z="776 : 388.00009 : 1"
       inkscape:persp3d-origin="388 : 258.66673 : 1"
       id="perspective32" />
    <clipPath
       clipPathUnits="userSpaceOnUse"
       id="clipPath4939">
      <path
         style="fill:#000000;fill-opacity:1;fill-rule:evenodd;stroke:none;stroke-width:0;stroke-linecap:square;stroke-linejoin:round;stroke-miterlimit:4;stroke-dashoffset:0;stroke-opacity:1"
         d="M -444.59534,-182.20101 C -419.81937,-182.20101 -400.29168,-175.58507 -393.45248,-174.34387 C -372.46202,-170.53444 -351.33758,-175.57835 -316.59534,-175.77244 C -304.85885,-175.83801 -303.45272,-182.68079 -276.88106,-177.20101 C -249.71226,-171.59809 -216.26372,-182.20101 -188.59534,-182.20101 L -188.59534,73.798987 L -444.59534,73.798987 L -444.59534,-182.20101 z"
         id="path4941"
         sodipodi:nodetypes="cssscccc" />
    </clipPath>
    <clipPath
       clipPathUnits="userSpaceOnUse"
       id="clipPath4943">
      <path
         sodipodi:nodetypes="cssscccc"
         id="path4945"
         d="M -136.02391,-205.05816 C -111.24794,-205.05816 -46.005971,-200.58508 -39.166771,-199.34388 C -18.176311,-195.53445 -42.766157,-198.4355 -8.0239071,-198.62959 C 3.7125729,-198.69516 35.832989,-201.25223 62.404659,-195.77245 C 89.573459,-190.16953 92.307713,-205.05816 119.97609,-205.05816 L 119.97609,50.941846 L -136.02391,50.941846 L -136.02391,-205.05816 z"
         style="fill:#000000;fill-opacity:1;fill-rule:evenodd;stroke:none;stroke-width:0;stroke-linecap:square;stroke-linejoin:round;stroke-miterlimit:4;stroke-dashoffset:0;stroke-opacity:1" />
    </clipPath>
    <clipPath
       clipPathUnits="userSpaceOnUse"
       id="clipPath4947">
      <path
         sodipodi:nodetypes="cssscccc"
         id="path4949"
         d="M -456.02392,156.37041 C -431.24795,156.37041 -411.72026,162.98635 -404.88107,164.22755 C -383.89061,168.03698 -399.19474,160.85021 -364.45249,160.65612 C -352.71601,160.59055 -284.8813,159.46206 -258.30964,164.94184 C -231.14084,170.54476 -227.6923,156.37041 -200.02392,156.37041 L -200.02392,412.37041 L -456.02392,412.37041 L -456.02392,156.37041 z"
         style="fill:#000000;fill-opacity:1;fill-rule:evenodd;stroke:none;stroke-width:0;stroke-linecap:square;stroke-linejoin:round;stroke-miterlimit:4;stroke-dashoffset:0;stroke-opacity:1" />
    </clipPath>
    <clipPath
       clipPathUnits="userSpaceOnUse"
       id="clipPath4951">
      <path
         style="fill:#000000;fill-opacity:1;fill-rule:evenodd;stroke:none;stroke-width:0;stroke-linecap:square;stroke-linejoin:round;stroke-miterlimit:4;stroke-dashoffset:0;stroke-opacity:1"
         d="M -107.45249,134.94184 C -82.676517,134.94184 -42.434541,135.84349 -35.595351,137.08469 C -14.604891,140.89412 -9.9090227,142.99308 24.833227,142.79898 C 36.569707,142.73341 49.047669,148.07068 66.690364,146.37041 C 92.136782,143.91808 120.87913,134.94184 148.54751,134.94184 L 148.54751,390.94184 L -107.45249,390.94184 L -107.45249,134.94184 z"
         id="path4953"
         sodipodi:nodetypes="cssscccc" />
    </clipPath>
    <clipPath
       clipPathUnits="userSpaceOnUse"
       id="clipPath4959">
      <path
         style="fill:#000000;fill-opacity:1;fill-rule:evenodd;stroke:none;stroke-width:0;stroke-linecap:square;stroke-linejoin:round;stroke-miterlimit:4;stroke-dashoffset:0;stroke-opacity:1"
         d="M -726.83958,364.08927 L -726.83958,620.08927 C -716.54623,609.79592 -661.80956,553.12442 -652.51397,534.50841 C -645.09526,519.65115 -643.08397,506.20239 -606.08397,481.34525 C -568.51916,456.10866 -581.34853,437.76495 -537.69672,422.37498 C -494.16798,407.0284 -483.73005,376.97974 -470.83958,364.08927 L -726.83958,364.08927 z"
         id="path4961"
         sodipodi:nodetypes="ccssscc" />
    </clipPath>
    <clipPath
       clipPathUnits="userSpaceOnUse"
       id="clipPath4984">
      <path
         sodipodi:nodetypes="ccssscc"
         id="path4986"
         d="M -734.41101,364.08927 L -734.41101,620.08927 C -744.70436,609.79592 -781.25828,568.27671 -790.55387,549.6607 C -797.97258,534.80344 -828.26815,523.37498 -865.26815,498.51784 C -902.83296,473.28125 -887.98328,480.19136 -923.55387,422.37498 C -947.7392,383.06418 -977.52054,376.97974 -990.41101,364.08927 L -734.41101,364.08927 z"
         style="fill:#000000;fill-opacity:1;fill-rule:evenodd;stroke:none;stroke-width:0;stroke-linecap:square;stroke-linejoin:round;stroke-miterlimit:4;stroke-dashoffset:0;stroke-opacity:1" />
    </clipPath>
    <clipPath
       clipPathUnits="userSpaceOnUse"
       id="clipPath4988">
      <path
         style="fill:#000000;fill-opacity:1;fill-rule:evenodd;stroke:none;stroke-width:0;stroke-linecap:square;stroke-linejoin:round;stroke-miterlimit:4;stroke-dashoffset:0;stroke-opacity:1"
         d="M -356.51784,-734.41101 L -100.51784,-734.41101 C -110.81119,-744.70436 -140.20857,-793.38011 -158.82458,-802.6757 C -173.68184,-810.09441 -197.23213,-828.26815 -222.08927,-865.26815 C -247.32586,-902.83296 -229.30407,-901.11526 -287.12045,-936.68585 C -326.43125,-960.87118 -343.62737,-977.52054 -356.51784,-990.41101 L -356.51784,-734.41101 z"
         id="path4990"
         sodipodi:nodetypes="ccssscc" />
    </clipPath>
    <clipPath
       clipPathUnits="userSpaceOnUse"
       id="clipPath4992">
      <path
         sodipodi:nodetypes="ccssscc"
         id="path4994"
         d="M -726.83958,356.51784 L -726.83958,100.51784 C -716.54623,110.81119 -663.82987,126.06643 -654.53428,144.68244 C -647.11557,159.5397 -610.08728,170.74425 -588.91137,209.96744 C -572.55977,240.25479 -560.13533,223.24316 -524.56474,281.05954 C -500.37941,320.37034 -483.73005,343.62737 -470.83958,356.51784 L -726.83958,356.51784 z"
         style="fill:#000000;fill-opacity:1;fill-rule:evenodd;stroke:none;stroke-width:0;stroke-linecap:square;stroke-linejoin:round;stroke-miterlimit:4;stroke-dashoffset:0;stroke-opacity:1" />
    </clipPath>
    <inkscape:perspective
       id="perspective2412"
       inkscape:persp3d-origin="372.04724 : 350.78739 : 1"
       inkscape:vp_z="744.09448 : 526.18109 : 1"
       inkscape:vp_y="0 : 1000 : 0"
       inkscape:vp_x="0 : 526.18109 : 1"
       sodipodi:type="inkscape:persp3d" />
  </defs>
  <sodipodi:namedview
     id="base"
     pagecolor="#c9cb32"
     bordercolor="#666666"
     borderopacity="1.0"
     gridtolerance="10000"
     guidetolerance="10"
     objecttolerance="10"
     inkscape:pageopacity="0"
     inkscape:pageshadow="2"
     inkscape:zoom="0.35"
     inkscape:cx="205.51892"
     inkscape:cy="796.0604"
     inkscape:document-units="px"
     inkscape:current-layer="layer1"
     inkscape:window-width="1280"
     inkscape:window-height="904"
     inkscape:window-x="0"
     inkscape:window-y="30"
     showgrid="false" />
  <metadata
     id="metadata7">
    <rdf:RDF>
      <cc:Work
         rdf:about="">
        <dc:format>image/svg+xml</dc:format>
        <dc:type
           rdf:resource="http://purl.org/dc/dcmitype/StillImage" />
      </cc:Work>
    </rdf:RDF>
  </metadata>
  <g
     inkscape:label="Layer 1"
     inkscape:groupmode="layer"
     id="layer1"
     transform="translate(-2.547536,130.05824)">
    <image
       xlink:href="sand.png"
       sodipodi:absref="E:\SVN_Repository\Drafts\Game\youngheart80\World Tiles\Desert\sand.png"
       width="256"
       height="256"
       id="image4933"
       x="-136.02391"
       y="-205.05815"
       clip-path="url(#clipPath4943)"
       transform="matrix(0,1,-1,0,-252.22492,380.25148)"
       inkscape:export-filename="D:\Dateien\Desktop\Secret Maryo Chronicles\SMC\data\pixmaps\world\sand_1\ground\right.png"
       inkscape:export-xdpi="45"
       inkscape:export-ydpi="45" />
    <image
       y="-182.20102"
       x="-444.59534"
       id="image4935"
       height="256"
       width="256"
       sodipodi:absref="E:\SVN_Repository\Drafts\Game\youngheart80\World Tiles\Desert\sand.png"
       xlink:href="sand.png"
       clip-path="url(#clipPath4939)"
       transform="translate(-118.57142,166.42849)"
       inkscape:export-filename="D:\Dateien\Desktop\Secret Maryo Chronicles\SMC\data\pixmaps\world\sand_1\ground\up.png"
       inkscape:export-xdpi="45"
       inkscape:export-ydpi="45" />
    <image
       xlink:href="sand.png"
       sodipodi:absref="E:\SVN_Repository\Drafts\Game\youngheart80\World Tiles\Desert\sand.png"
       width="256"
       height="256"
       id="image4937"
       x="-456.0239"
       y="156.37041"
       clip-path="url(#clipPath4947)"
       transform="matrix(0,-1,1,0,-979.53715,44.203646)"
       inkscape:export-filename="D:\Dateien\Desktop\Secret Maryo Chronicles\SMC\data\pixmaps\world\sand_1\ground\left.png"
       inkscape:export-xdpi="45"
       inkscape:export-ydpi="45" />
    <image
       y="-990.41101"
       x="-356.51782"
       id="image4900"
       height="256"
       width="256"
       sodipodi:absref="E:\SVN_Repository\Drafts\Game\youngheart80\World Tiles\Desert\sand.png"
       xlink:href="sand.png"
       clip-path="url(#clipPath4988)"
       transform="matrix(-1,0,0,-1,-923.68457,-230.18336)"
       inkscape:export-filename="D:\Dateien\Desktop\Secret Maryo Chronicles\SMC\data\pixmaps\world\sand_1\ground\left_down.png"
       inkscape:export-xdpi="45"
       inkscape:export-ydpi="45" />
    <image
       xlink:href="sand.png"
       sodipodi:absref="E:\SVN_Repository\Drafts\Game\youngheart80\World Tiles\Desert\sand.png"
       width="256"
       height="256"
       id="image4902"
       x="-726.8396"
       y="364.08926"
       clip-path="url(#clipPath4959)"
       transform="matrix(0,-1,1,0,-667.25602,-486.61211)"
       inkscape:export-filename="D:\Dateien\Desktop\Secret Maryo Chronicles\SMC\data\pixmaps\world\sand_1\ground\right_up.png"
       inkscape:export-xdpi="45"
       inkscape:export-ydpi="45" />
    <image
       y="100.51784"
       x="-726.83954"
       id="image4904"
       height="256"
       width="256"
       sodipodi:absref="E:\SVN_Repository\Drafts\Game\youngheart80\World Tiles\Desert\sand.png"
       xlink:href="sand.png"
       clip-path="url(#clipPath4992)"
       transform="matrix(0,-1,1,0,-923.68459,-486.61207)"
       inkscape:export-filename="D:\Dateien\Desktop\Secret Maryo Chronicles\SMC\data\pixmaps\world\sand_1\ground\left_up.png"
       inkscape:export-xdpi="45"
       inkscape:export-ydpi="45" />
    <image
       y="134.94185"
       x="-107.45249"
       id="image2900"
       height="256"
       width="256"
       sodipodi:absref="E:\SVN_Repository\Drafts\Game\youngheart80\World Tiles\Desert\sand.png"
       xlink:href="sand.png"
       clip-path="url(#clipPath4951)"
       transform="matrix(-1,0,0,-1,-414.61922,895.16951)"
       inkscape:export-filename="D:\Dateien\Desktop\Secret Maryo Chronicles\SMC\data\pixmaps\world\sand_1\ground\down.png"
       inkscape:export-xdpi="45"
       inkscape:export-ydpi="45" />
    <image
       xlink:href="sand.png"
       sodipodi:absref="E:\SVN_Repository\Drafts\Game\youngheart80\World Tiles\Desert\sand.png"
       width="256"
       height="256"
       id="image2931"
       x="-990.41101"
       y="364.08929"
       clip-path="url(#clipPath4984)"
       transform="matrix(0,-1,1,0,-667.25602,-230.18334)"
       inkscape:export-filename="D:\Dateien\Desktop\Secret Maryo Chronicles\SMC\data\pixmaps\world\sand_1\ground\right_down.png"
       inkscape:export-xdpi="45"
       inkscape:export-ydpi="45" />
    <image
       xlink:href="sand.png"
       sodipodi:absref="E:\SVN_Repository\Drafts\Game\youngheart80\World Tiles\Desert\sand.png"
       width="256"
       height="256"
       id="image4924"
       x="-563.16675"
       y="244.22755"
       inkscape:export-filename="D:\Dateien\Desktop\Secret Maryo Chronicles\SMC\data\pixmaps\world\sand_1\ground\middle.png"
       inkscape:export-xdpi="45"
       inkscape:export-ydpi="45" />
    <path
       style="fill:#ece8af;fill-opacity:1"
       d="M 255.26673,891.24396 C 250.87806,886.50816 233.10037,871.40886 222.76673,863.64026 C 217.26673,859.50556 203.54173,850.13456 192.26673,842.81576 C 152.85114,817.23056 147.42473,812.55376 139.74328,797.54826 C 125.59188,769.90381 111.48054,749.98946 92.774121,731.26393 C 82.269966,720.74904 75.067186,715.07599 63.157796,707.93756 C 51.266686,700.81008 41.388006,690.21476 20.122666,661.78052 L 2.547536,638.28052 L 130.06998,638.0267 C 200.20733,637.8871 257.74587,637.92632 257.9334,638.11385 C 258.12093,638.30138 258.16015,695.93938 258.02055,766.19828 L 257.76673,893.94176 L 255.26673,891.24396 z"
       id="path2456" />
    <path
       style="fill:#ece8af;fill-opacity:1"
       d="M 402.54754,765.79116 L 402.54754,637.64135 L 530.54754,637.64135 L 658.54754,637.64135 L 658.54754,765.79157 L 658.54754,893.94176 L 625.29754,893.35666 C 595.3806,892.83026 590.59403,892.50986 577.54754,890.16046 C 566.86581,888.23696 557.12263,887.30506 540.54754,886.62156 C 528.17254,886.11116 513.99754,885.00856 509.04754,884.17126 C 492.39259,881.35406 485.33352,881.89386 444.54754,889.10296 C 433.27254,891.09586 419.21004,892.99966 413.29754,893.33366 L 402.54754,893.94096 L 402.54754,765.79116 z"
       id="path2454" />
    <path
       style="fill:#ece8af;fill-opacity:1"
       d="M 768.57444,765.69175 L 768.54754,637.44175 L 896.60655,637.44175 C 977.07291,637.44175 1024.4477,637.79419 1024.0794,638.39008 C 1022.7835,640.48686 992.22689,666.67453 980.02701,676.14387 C 972.86572,681.70234 963.19071,688.55715 958.527,691.37677 C 945.78231,699.08205 942.15247,703.63325 924.5789,733.94175 C 910.61929,758.01739 893.03886,784.10759 886.12538,791.00869 C 881.5977,795.52819 876.60432,798.94479 866.54753,804.40439 C 812.49015,833.75059 800.9133,843.41179 781.42434,875.44179 C 777.57583,881.76679 773.11627,888.51676 771.5142,890.44176 L 768.60134,893.94176 L 768.57444,765.69175 z"
       id="path2452" />
    <path
       style="fill:#ece8af;fill-opacity:1"
       d="M 2.840236,487.19176 C 2.844836,479.41667 4.874936,466.00854 8.328836,450.94176 C 11.383036,437.61849 11.571336,432.78726 9.303536,425.94176 C 5.600136,414.76316 6.355336,324.95787 10.358836,300.44176 C 12.872636,285.04844 12.402936,278.53595 7.776536,264.6376 C 5.286936,257.15865 3.490736,249.63773 3.132136,245.19176 L 2.547536,237.94176 L 130.69184,237.94176 L 258.83621,237.94176 L 258.83621,365.94176 L 258.83621,493.94176 L 130.83624,493.94176 L 2.836236,493.94176 L 2.840236,487.19176 z"
       id="path2450" />
    <path
       style="fill:#ece8af;fill-opacity:1"
       d="M 402.54754,365.94176 L 402.54754,237.94176 L 530.54754,237.94176 L 658.54754,237.94176 L 658.54754,365.94176 L 658.54754,493.94176 L 530.54754,493.94176 L 402.54754,493.94176 L 402.54754,365.94176 z"
       id="path2448" />
    <path
       style="fill:#ece8af;fill-opacity:1"
       d="M 768.54754,365.94176 L 768.54754,237.94176 L 896.54754,237.94176 L 1024.5475,237.94176 L 1024.5426,248.69176 C 1024.534,267.28953 1020.5101,327.84978 1018.6125,337.94176 C 1018.1471,340.41676 1018.101,354.59176 1018.5101,369.44176 C 1019.3282,399.13711 1018.603,417.9977 1016.0062,434.55779 C 1013.883,448.09735 1014.4789,455.23521 1018.6309,466.00189 C 1022.8746,477.00597 1024.5214,483.47349 1024.5356,489.19176 L 1024.5475,493.94176 L 896.54754,493.94176 L 768.54754,493.94176 L 768.54754,365.94176 z"
       id="path2446" />
    <path
       style="fill:#ece8af;fill-opacity:1"
       d="M 4.715166,122.69176 C 6.790476,119.58019 23.743936,85.25523 23.743936,84.165014 C 23.743936,83.050764 33.227596,67.222904 36.460376,62.941764 C 38.329306,60.466764 42.870166,56.187384 46.551176,53.432024 C 51.605076,49.649024 55.937506,44.829394 64.243936,33.749624 C 70.293936,25.679664 77.436306,16.538024 80.115866,13.434884 C 87.232506,5.193254 98.622686,-4.175056 110.10647,-11.232096 C 122.89674,-19.091996 127.0672,-22.973816 135.67666,-35.032596 C 148.62775,-53.172426 154.26422,-57.614876 212.72704,-95.76077 C 226.54199,-104.77476 249.01778,-121.07427 250.14301,-122.89494 C 250.48879,-123.45441 252.56545,-125.33284 254.75782,-127.06923 L 258.74394,-130.2263 L 258.74394,-2.142266 L 258.74394,125.94176 L 130.64574,125.94176 L 2.547536,125.94176 L 4.715166,122.69176 z"
       id="path2444" />
    <path
       style="fill:#ece8af;fill-opacity:1"
       d="M 402.54754,-2.208057 L 402.54754,-130.35786 L 413.29754,-129.73966 C 419.21004,-129.39965 429.44754,-127.96237 436.04754,-126.54571 C 464.09949,-120.52447 461.64821,-120.68173 499.04754,-122.50399 C 519.19528,-123.48568 535.57579,-124.7509 539.25306,-125.60943 C 547.19863,-127.46449 557.62794,-127.4492 570.13467,-125.56414 C 584.67878,-123.37199 596.44194,-123.70415 623.04754,-127.05824 C 636.13581,-128.70824 649.4776,-130.05824 652.69597,-130.05824 L 658.54754,-130.05824 L 658.54754,-2.058246 L 658.54754,125.94176 L 530.54754,125.94176 L 402.54754,125.94176 L 402.54754,-2.208057 z"
       id="path2442" />
    <path
       style="fill:#ece8af;fill-opacity:1"
       d="M 768.54754,-2.1149443 C 768.54754,-124.1531 768.63021,-130.11023 770.30658,-128.86494 C 808.26894,-100.66465 815.09163,-92.821984 827.11976,-63.558244 C 836.13994,-41.612674 839.99628,-36.625704 858.54754,-22.916234 C 871.84706,-13.087824 877.31537,-7.3860743 888.9295,8.762796 C 904.64413,30.613176 914.04076,39.147816 932.08652,47.960796 C 944.08247,53.819236 953.98616,60.890626 971.03193,75.768416 C 984.11782,87.189976 1015.965,116.58841 1021.4938,122.35031 L 1024.9399,125.94176 L 896.74371,125.94176 L 768.54754,125.94176 L 768.54754,-2.1149443 z"
       id="path2438" />
  </g>
</svg>
