<?xml version="1.0" encoding="UTF-8" standalone="no"?>
<!-- Created with Inkscape (http://www.inkscape.org/) -->
<svg
   xmlns:dc="http://purl.org/dc/elements/1.1/"
   xmlns:cc="http://creativecommons.org/ns#"
   xmlns:rdf="http://www.w3.org/1999/02/22-rdf-syntax-ns#"
   xmlns:svg="http://www.w3.org/2000/svg"
   xmlns="http://www.w3.org/2000/svg"
   xmlns:xlink="http://www.w3.org/1999/xlink"
   xmlns:sodipodi="http://sodipodi.sourceforge.net/DTD/sodipodi-0.dtd"
   xmlns:inkscape="http://www.inkscape.org/namespaces/inkscape"
   width="128"
   height="128"
   id="svg2"
   sodipodi:version="0.32"
   inkscape:version="0.46"
   version="1.0"
   sodipodi:docbase="C:\Dokumente und Einstellungen\Frosty\Eigene Dateien\inkscape\smc"
   sodipodi:docname="hill.svg"
   inkscape:output_extension="org.inkscape.output.svg.inkscape"
   inkscape:export-filename="C:\Dokumente und Einstellungen\Frosty\Desktop\SMC\Drafts\Game\Frostbringer\overworld\gras\hill.png"
   inkscape:export-xdpi="90"
   inkscape:export-ydpi="90">
  <defs
     id="defs4">
    <inkscape:perspective
       sodipodi:type="inkscape:persp3d"
       inkscape:vp_x="0 : 32 : 1"
       inkscape:vp_y="0 : 1000 : 0"
       inkscape:vp_z="64 : 32 : 1"
       inkscape:persp3d-origin="32 : 21.333333 : 1"
       id="perspective107" />
    <linearGradient
       id="linearGradient7062">
      <stop
         style="stop-color:#000000;stop-opacity:1;"
         offset="0"
         id="stop7064" />
      <stop
         style="stop-color:#00940b;stop-opacity:0;"
         offset="1"
         id="stop7066" />
    </linearGradient>
    <linearGradient
       id="linearGradient7056">
      <stop
         style="stop-color:#000000;stop-opacity:1;"
         offset="0"
         id="stop7058" />
      <stop
         style="stop-color:#489400;stop-opacity:0;"
         offset="1"
         id="stop7060" />
    </linearGradient>
    <linearGradient
       id="linearGradient16009">
      <stop
         id="stop16011"
         offset="0"
         style="stop-color:#ffad00;stop-opacity:1;" />
      <stop
         id="stop16013"
         offset="1"
         style="stop-color:#946500;stop-opacity:1;" />
    </linearGradient>
    <linearGradient
       id="linearGradient14047">
      <stop
         id="stop14049"
         offset="0"
         style="stop-color:#adff41;stop-opacity:1;" />
      <stop
         id="stop14051"
         offset="1"
         style="stop-color:#71c800;stop-opacity:1;" />
    </linearGradient>
    <linearGradient
       id="linearGradient11056">
      <stop
         id="stop11058"
         offset="0"
         style="stop-color:#000000;stop-opacity:1;" />
      <stop
         id="stop11060"
         offset="1"
         style="stop-color:#947b00;stop-opacity:0;" />
    </linearGradient>
    <linearGradient
       id="linearGradient9102">
      <stop
         style="stop-color:#00ff00;stop-opacity:1;"
         offset="0"
         id="stop9104" />
      <stop
         style="stop-color:#009400;stop-opacity:1;"
         offset="1"
         id="stop9106" />
    </linearGradient>
    <clipPath
       clipPathUnits="userSpaceOnUse"
       id="clipPath4163">
      <path
         style="opacity:1;fill:#2d5016;fill-opacity:1;fill-rule:evenodd;stroke:#112b00;stroke-width:0.49878725;stroke-linecap:butt;stroke-linejoin:miter;marker:none;marker-start:none;marker-mid:none;marker-end:none;stroke-miterlimit:4;stroke-dasharray:none;stroke-dashoffset:0;stroke-opacity:1;visibility:visible;display:inline;overflow:visible;enable-background:accumulate"
         d="M 11.436894,15.000606 C 5.3930986,15.000606 0.49281763,18.068257 0.28064363,21.875606 C 0.27591263,21.960498 0.24939363,22.039986 0.24939363,22.125606 C 0.24939363,22.253577 0.27011963,22.374292 0.28064363,22.500606 L 0.28064363,56.656856 L 0.28064363,57.438106 L 0.34314363,57.438106 C 0.96421063,60.991148 5.7112906,63.750604 11.468144,63.750606 C 17.228473,63.750605 21.976688,60.994247 22.593144,57.438106 L 22.655644,57.438106 L 22.655644,56.656856 L 22.655644,22.125606 L 22.655644,21.875606 L 22.624394,21.875606 C 22.41222,18.068257 17.480689,15.000606 11.436894,15.000606 z"
         id="path4165" />
    </clipPath>
    <filter
       inkscape:collect="always"
       x="-0.12481224"
       width="1.2496245"
       y="-0.06363973"
       height="1.1272795"
       id="filter8122">
      <feGaussianBlur
         inkscape:collect="always"
         stdDeviation="1.4252647"
         id="feGaussianBlur8124" />
    </filter>
    <clipPath
       clipPathUnits="userSpaceOnUse"
       id="clipPath8126">
      <path
         style="opacity:1;fill:#00ff00;fill-opacity:1;fill-rule:evenodd;stroke:#112b00;stroke-width:0.49878725;stroke-linecap:butt;stroke-linejoin:miter;marker:none;marker-start:none;marker-mid:none;marker-end:none;stroke-miterlimit:4;stroke-dasharray:none;stroke-dashoffset:0;stroke-opacity:1;visibility:visible;display:inline;overflow:visible;enable-background:accumulate"
         d="M 11.436894,15.000606 C 5.3930986,15.000606 0.49281863,18.068257 0.28064363,21.875606 C 0.27591263,21.960498 0.24939363,22.039985 0.24939363,22.125606 C 0.24939363,22.242989 0.27177963,22.353361 0.28064363,22.469356 L 0.28064363,56.656856 L 0.28064363,57.438106 L 0.34314363,57.438106 C 0.96420963,60.991148 5.7112906,63.750604 11.468144,63.750606 C 17.228473,63.750605 21.976688,60.994247 22.593144,57.438106 L 22.655644,57.438106 L 22.655644,56.656856 L 22.655644,22.125606 L 22.655644,21.875606 L 22.624394,21.875606 C 22.412219,18.068257 17.480688,15.000606 11.436894,15.000606 z"
         id="path8128" />
    </clipPath>
    <linearGradient
       inkscape:collect="always"
       xlink:href="#linearGradient9102"
       id="linearGradient9108"
       x1="16.561026"
       y1="38.078125"
       x2="39.436893"
       y2="38.078125"
       gradientUnits="userSpaceOnUse" />
    <linearGradient
       inkscape:collect="always"
       xlink:href="#linearGradient7062"
       id="linearGradient10085"
       x1="27.797979"
       y1="13.705051"
       x2="27.797979"
       y2="27.927273"
       gradientUnits="userSpaceOnUse" />
    <clipPath
       clipPathUnits="userSpaceOnUse"
       id="clipPath13034">
      <path
         style="opacity:1;fill:url(#linearGradient13038);fill-opacity:1;fill-rule:evenodd;stroke:#112b00;stroke-width:0.49452111;stroke-linecap:butt;stroke-linejoin:miter;marker:none;marker-start:none;marker-mid:none;marker-end:none;stroke-miterlimit:4;stroke-dasharray:none;stroke-dashoffset:0;stroke-opacity:1;visibility:visible;display:inline;overflow:visible;enable-background:accumulate"
         d="M 28.038305,13.924491 C 21.829142,13.924491 16.794662,17.123551 16.794661,21.048884 C 16.794661,21.53955 16.890503,22.023484 17.040424,22.486261 L 17.040424,50.952586 L 17.040424,51.733769 L 17.101865,51.733769 C 17.712403,55.286512 22.379026,58.04573 28.038305,58.045732 C 33.701,58.045734 38.368738,55.289607 38.974746,51.733769 L 39.036186,51.733769 L 39.036186,51.577533 L 39.066907,51.577533 L 39.066907,50.796349 L 39.066907,22.486261 C 39.216828,22.023484 39.281949,21.539551 39.281949,21.048884 C 39.281949,17.12355 34.24747,13.924492 28.038305,13.924491 z"
         id="path13036"
         sodipodi:nodetypes="csccccsccccccsc" />
    </clipPath>
    <clipPath
       clipPathUnits="userSpaceOnUse"
       id="clipPath13040">
      <path
         style="opacity:1;fill:url(#linearGradient13044);fill-opacity:1;fill-rule:evenodd;stroke:#112b00;stroke-width:0.49878725;stroke-linecap:butt;stroke-linejoin:miter;marker:none;marker-start:none;marker-mid:none;marker-end:none;stroke-miterlimit:4;stroke-dasharray:none;stroke-dashoffset:0;stroke-opacity:1;visibility:visible;display:inline;overflow:visible;enable-background:accumulate"
         d="M 11.707084,14.851136 C 5.390866,14.851136 0.269585,18.050469 0.269584,21.976136 C 0.269584,22.466844 0.367078,22.950819 0.519584,23.413636 L 0.519584,51.882386 L 0.519584,52.663636 L 0.582084,52.663636 C 1.203149,56.216681 5.950231,58.976134 11.707084,58.976136 C 17.467412,58.976138 22.215628,56.219777 22.832084,52.663636 L 22.894584,52.663636 L 22.894584,52.507386 L 22.925834,52.507386 L 22.925834,51.726136 L 22.925834,23.413636 C 23.07834,22.950819 23.144584,22.466845 23.144584,21.976136 C 23.144584,18.050468 18.023303,14.851137 11.707084,14.851136 z"
         id="path13042"
         sodipodi:nodetypes="csccccsccccccsc" />
    </clipPath>
    <clipPath
       clipPathUnits="userSpaceOnUse"
       id="clipPath13046">
      <path
         style="opacity:1;fill:url(#linearGradient13050);fill-opacity:1;fill-rule:evenodd;stroke:#112b00;stroke-width:0.49878725;stroke-linecap:butt;stroke-linejoin:miter;marker:none;marker-start:none;marker-mid:none;marker-end:none;stroke-miterlimit:4;stroke-dasharray:none;stroke-dashoffset:0;stroke-opacity:1;visibility:visible;display:inline;overflow:visible;enable-background:accumulate"
         d="M 28.236389,13.6875 C 21.920171,13.6875 16.79889,16.886833 16.798889,20.8125 C 16.798889,21.303208 16.896383,21.787183 17.048889,22.25 L 17.048889,50.71875 L 17.048889,51.5 L 17.111389,51.5 C 17.732454,55.053045 22.479536,57.812498 28.236389,57.8125 C 33.996717,57.812502 38.744933,55.056141 39.361389,51.5 L 39.423889,51.5 L 39.423889,51.34375 L 39.455139,51.34375 L 39.455139,50.5625 L 39.455139,22.25 C 39.607645,21.787183 39.673889,21.303209 39.673889,20.8125 C 39.673889,16.886832 34.552608,13.687501 28.236389,13.6875 z"
         id="path13048"
         sodipodi:nodetypes="csccccsccccccsc" />
    </clipPath>
    <linearGradient
       inkscape:collect="always"
       xlink:href="#linearGradient14047"
       id="linearGradient13074"
       gradientUnits="userSpaceOnUse"
       x1="16.561026"
       y1="38.078125"
       x2="39.436893"
       y2="38.078125" />
    <linearGradient
       inkscape:collect="always"
       xlink:href="#linearGradient7056"
       id="linearGradient13076"
       gradientUnits="userSpaceOnUse"
       x1="27.797979"
       y1="13.705051"
       x2="27.797979"
       y2="27.927273" />
    <linearGradient
       inkscape:collect="always"
       xlink:href="#linearGradient16009"
       id="linearGradient15036"
       gradientUnits="userSpaceOnUse"
       x1="16.561026"
       y1="38.078125"
       x2="39.436893"
       y2="38.078125" />
    <linearGradient
       inkscape:collect="always"
       xlink:href="#linearGradient11056"
       id="linearGradient15038"
       gradientUnits="userSpaceOnUse"
       x1="27.797979"
       y1="13.705051"
       x2="27.797979"
       y2="27.927273" />
    <filter
       inkscape:collect="always"
       x="-0.044053949"
       width="1.0881079"
       y="-0.23252793"
       height="1.4650559"
       id="filter8083">
      <feGaussianBlur
         inkscape:collect="always"
         stdDeviation="0.43605249"
         id="feGaussianBlur8085" />
    </filter>
    <filter
       inkscape:collect="always"
       x="-0.055767484"
       width="1.111535"
       y="-0.29549137"
       height="1.5909827"
       id="filter9084">
      <feGaussianBlur
         inkscape:collect="always"
         stdDeviation="0.55312501"
         id="feGaussianBlur9086" />
    </filter>
    <filter
       inkscape:collect="always"
       x="-0.042421773"
       width="1.0848435"
       y="-0.29178342"
       height="1.5835668"
       id="filter10125">
      <feGaussianBlur
         inkscape:collect="always"
         stdDeviation="0.36911409"
         id="feGaussianBlur10127" />
    </filter>
    <linearGradient
       inkscape:collect="always"
       xlink:href="#linearGradient9102"
       id="linearGradient4335"
       gradientUnits="userSpaceOnUse"
       gradientTransform="matrix(1.1805159,0,0,1.178788,-17.125158,49.698123)"
       x1="16.561026"
       y1="38.078125"
       x2="39.436893"
       y2="38.078125" />
    <linearGradient
       inkscape:collect="always"
       xlink:href="#linearGradient14047"
       id="linearGradient4409"
       gradientUnits="userSpaceOnUse"
       x1="16.561026"
       y1="38.078125"
       x2="39.436893"
       y2="38.078125" />
    <linearGradient
       inkscape:collect="always"
       xlink:href="#linearGradient7056"
       id="linearGradient4411"
       gradientUnits="userSpaceOnUse"
       x1="27.797979"
       y1="13.705051"
       x2="27.797979"
       y2="27.927273" />
    <linearGradient
       inkscape:collect="always"
       xlink:href="#linearGradient16009"
       id="linearGradient4413"
       gradientUnits="userSpaceOnUse"
       x1="16.561026"
       y1="38.078125"
       x2="39.436893"
       y2="38.078125" />
    <linearGradient
       inkscape:collect="always"
       xlink:href="#linearGradient11056"
       id="linearGradient4415"
       gradientUnits="userSpaceOnUse"
       x1="27.797979"
       y1="13.705051"
       x2="27.797979"
       y2="27.927273" />
    <linearGradient
       inkscape:collect="always"
       xlink:href="#linearGradient9102"
       id="linearGradient4431"
       gradientUnits="userSpaceOnUse"
       x1="16.561026"
       y1="38.078125"
       x2="39.436893"
       y2="38.078125"
       gradientTransform="matrix(1.1805159,0,0,1.178788,19.645751,49.539271)" />
    <linearGradient
       inkscape:collect="always"
       xlink:href="#linearGradient9102"
       id="linearGradient4433"
       gradientUnits="userSpaceOnUse"
       gradientTransform="matrix(1.1805159,0,0,1.178788,19.944763,49.801901)"
       x1="16.561026"
       y1="38.078125"
       x2="39.436893"
       y2="38.078125" />
    <clipPath
       clipPathUnits="userSpaceOnUse"
       id="clipPath4489">
      <path
         sodipodi:nodetypes="csccccsccccccsc"
         id="path4491"
         d="M 26.021369,11.8776 C 19.705151,11.8776 14.583869,15.076932 14.583869,19.0026 C 14.583869,19.493308 14.681362,19.977283 14.833869,20.4401 L 14.833869,34.6622 L 14.833869,35.443452 L 14.896369,35.443452 C 15.517433,38.996496 20.264515,41.755949 26.021369,41.755949 C 31.781697,41.755949 36.529914,38.999583 37.14637,35.443452 L 37.208869,35.443452 L 37.208869,35.287198 L 37.24012,35.287198 L 37.24012,34.505947 L 37.24012,20.4401 C 37.392626,19.977283 37.458869,19.493309 37.458869,19.0026 C 37.458869,15.076932 32.337589,11.877601 26.021369,11.8776 z"
         style="opacity:1;fill:#ffff00;fill-opacity:1;fill-rule:evenodd;stroke:#112b00;stroke-width:0.49452111;stroke-linecap:butt;stroke-linejoin:miter;marker:none;marker-start:none;marker-mid:none;marker-end:none;stroke-miterlimit:4;stroke-dasharray:none;stroke-dashoffset:0;stroke-opacity:1;visibility:visible;display:inline;overflow:visible;enable-background:accumulate" />
    </clipPath>
    <clipPath
       clipPathUnits="userSpaceOnUse"
       id="clipPath4493">
      <path
         sodipodi:nodetypes="csccccsccccccsc"
         id="path4495"
         d="M 27.817495,14.149419 C 21.608332,14.149419 16.573852,17.348479 16.573851,21.273812 C 16.573851,21.764478 16.669693,22.248412 16.819614,22.711189 L 16.819614,36.932077 L 16.819614,37.713262 L 16.881055,37.713262 C 17.491593,41.266003 22.158216,44.025221 27.817495,44.025221 C 33.48019,44.025221 38.147928,41.26909 38.753936,37.713262 L 38.815376,37.713262 L 38.815376,37.557022 L 38.846097,37.557022 L 38.846097,36.775837 L 38.846097,22.711189 C 38.996018,22.248412 39.061139,21.764479 39.061139,21.273812 C 39.061139,17.348478 34.02666,14.14942 27.817495,14.149419 z"
         style="opacity:1;fill:#ffff00;fill-opacity:1;fill-rule:evenodd;stroke:#112b00;stroke-width:0.49452111;stroke-linecap:butt;stroke-linejoin:miter;marker:none;marker-start:none;marker-mid:none;marker-end:none;stroke-miterlimit:4;stroke-dasharray:none;stroke-dashoffset:0;stroke-opacity:1;visibility:visible;display:inline;overflow:visible;enable-background:accumulate" />
    </clipPath>
    <clipPath
       clipPathUnits="userSpaceOnUse"
       id="clipPath4497">
      <path
         sodipodi:nodetypes="csccccsccccccsc"
         id="path4499"
         d="M 11.482468,15.076084 C 5.1662495,15.076084 0.044968221,18.275417 0.044967374,22.201085 C 0.044967374,22.691793 0.14246119,23.175768 0.2949674,23.638585 L 0.2949674,37.860685 L 0.2949674,38.641936 L 0.35746804,38.641936 C 0.9785321,42.19498 5.7256143,44.954434 11.482468,44.954434 C 17.242796,44.954434 21.991013,42.198068 22.607469,38.641936 L 22.669968,38.641936 L 22.669968,38.485683 L 22.701219,38.485683 L 22.701219,37.704431 L 22.701219,23.638585 C 22.853724,23.175768 22.919968,22.691794 22.919968,22.201085 C 22.919968,18.275416 17.798688,15.076085 11.482468,15.076084 z"
         style="opacity:1;fill:#ffff00;fill-opacity:1;fill-rule:evenodd;stroke:#112b00;stroke-width:0.49452111;stroke-linecap:butt;stroke-linejoin:miter;marker:none;marker-start:none;marker-mid:none;marker-end:none;stroke-miterlimit:4;stroke-dasharray:none;stroke-dashoffset:0;stroke-opacity:1;visibility:visible;display:inline;overflow:visible;enable-background:accumulate" />
    </clipPath>
    <clipPath
       clipPathUnits="userSpaceOnUse"
       id="clipPath4501">
      <path
         sodipodi:nodetypes="csccccsccccccsc"
         id="path4503"
         d="M 15.644174,65.83532 C 8.1877777,65.83532 2.1420237,69.606655 2.1420227,74.234185 C 2.1420227,74.812626 2.2571157,75.38313 2.4371517,75.928693 L 2.4371517,92.693534 L 2.4371517,93.614464 L 2.5109347,93.614464 C 3.2441107,97.802749 8.8481167,101.05556 15.644174,101.05556 C 22.444333,101.05556 28.049678,97.806389 28.777415,93.614464 L 28.851196,93.614464 L 28.851196,93.430274 L 28.888088,93.430274 L 28.888088,92.509344 L 28.888088,75.928693 C 29.068123,75.38313 29.146325,74.812627 29.146325,74.234185 C 29.146325,69.606654 23.100572,65.835321 15.644174,65.83532 z"
         style="opacity:1;fill:#ffff00;fill-opacity:1;fill-rule:evenodd;stroke:#112b00;stroke-width:0.49452111;stroke-linecap:butt;stroke-linejoin:miter;marker:none;marker-start:none;marker-mid:none;marker-end:none;stroke-miterlimit:4;stroke-dasharray:none;stroke-dashoffset:0;stroke-opacity:1;visibility:visible;display:inline;overflow:visible;enable-background:accumulate" />
    </clipPath>
    <clipPath
       clipPathUnits="userSpaceOnUse"
       id="clipPath4505">
      <path
         sodipodi:nodetypes="csccccsccccccsc"
         id="path4507"
         d="M 15.644174,65.83532 C 8.1877777,65.83532 2.1420237,69.606655 2.1420227,74.234185 C 2.1420227,74.812626 2.2571157,75.38313 2.4371517,75.928693 L 2.4371517,92.693534 L 2.4371517,93.614464 L 2.5109347,93.614464 C 3.2441107,97.802749 8.8481167,101.05556 15.644174,101.05556 C 22.444333,101.05556 28.049678,97.806389 28.777415,93.614464 L 28.851196,93.614464 L 28.851196,93.430274 L 28.888088,93.430274 L 28.888088,92.509344 L 28.888088,75.928693 C 29.068123,75.38313 29.146325,74.812627 29.146325,74.234185 C 29.146325,69.606654 23.100572,65.835321 15.644174,65.83532 z"
         style="opacity:1;fill:#ffff00;fill-opacity:1;fill-rule:evenodd;stroke:#112b00;stroke-width:0.49452111;stroke-linecap:butt;stroke-linejoin:miter;marker:none;marker-start:none;marker-mid:none;marker-end:none;stroke-miterlimit:4;stroke-dasharray:none;stroke-dashoffset:0;stroke-opacity:1;visibility:visible;display:inline;overflow:visible;enable-background:accumulate" />
    </clipPath>
    <clipPath
       clipPathUnits="userSpaceOnUse"
       id="clipPath4509">
      <path
         sodipodi:nodetypes="csccccsccccccsc"
         id="path4511"
         d="M 28.011773,13.912448 C 21.695555,13.912448 16.574274,17.111781 16.574273,21.037449 C 16.574273,21.528157 16.671767,22.012132 16.824273,22.474949 L 16.824273,36.697049 L 16.824273,37.478301 L 16.886774,37.478301 C 17.507838,41.031344 22.25492,43.790798 28.011773,43.790798 C 33.772102,43.790798 38.520318,41.034432 39.136775,37.478301 L 39.199274,37.478301 L 39.199274,37.322047 L 39.230525,37.322047 L 39.230525,36.540795 L 39.230525,22.474949 C 39.38303,22.012132 39.449274,21.528158 39.449274,21.037449 C 39.449274,17.11178 34.327993,13.912449 28.011773,13.912448 z"
         style="opacity:1;fill:#ffff00;fill-opacity:1;fill-rule:evenodd;stroke:#112b00;stroke-width:0.49452111;stroke-linecap:butt;stroke-linejoin:miter;marker:none;marker-start:none;marker-mid:none;marker-end:none;stroke-miterlimit:4;stroke-dasharray:none;stroke-dashoffset:0;stroke-opacity:1;visibility:visible;display:inline;overflow:visible;enable-background:accumulate" />
    </clipPath>
    <clipPath
       clipPathUnits="userSpaceOnUse"
       id="clipPath4513">
      <path
         sodipodi:nodetypes="csccccsccccccsc"
         id="path4515"
         d="M 26.021369,11.8776 C 19.705151,11.8776 14.58387,15.076932 14.583869,19.0026 C 14.583869,19.493308 14.681363,19.977283 14.833869,20.4401 L 14.833869,24.914491 L 14.833869,25.695743 L 14.896369,25.695743 C 15.517434,29.24879 20.264516,32.008243 26.021369,32.008243 C 31.781697,32.008243 36.529914,29.251878 37.14637,25.695743 L 37.208869,25.695743 L 37.208869,25.539489 L 37.24012,25.539489 L 37.24012,24.758237 L 37.24012,20.4401 C 37.392626,19.977283 37.458869,19.493309 37.458869,19.0026 C 37.458869,15.076932 32.337589,11.877601 26.021369,11.8776 z"
         style="opacity:1;fill:#ffff00;fill-opacity:1;fill-rule:evenodd;stroke:#112b00;stroke-width:0.49452111;stroke-linecap:butt;stroke-linejoin:miter;marker:none;marker-start:none;marker-mid:none;marker-end:none;stroke-miterlimit:4;stroke-dasharray:none;stroke-dashoffset:0;stroke-opacity:1;visibility:visible;display:inline;overflow:visible;enable-background:accumulate" />
    </clipPath>
    <clipPath
       clipPathUnits="userSpaceOnUse"
       id="clipPath4517">
      <path
         sodipodi:nodetypes="csccccsccccccsc"
         id="path4519"
         d="M 27.817495,14.149419 C 21.608332,14.149419 16.573852,17.348479 16.573851,21.273812 C 16.573851,21.764478 16.669693,22.248412 16.819614,22.711189 L 16.819614,27.185199 L 16.819614,27.966384 L 16.881055,27.966384 C 17.491593,31.519128 22.158216,34.278346 27.817495,34.278346 C 33.48019,34.278346 38.147928,31.522216 38.753936,27.966384 L 38.815376,27.966384 L 38.815376,27.810143 L 38.846097,27.810143 L 38.846097,27.028958 L 38.846097,22.711189 C 38.996018,22.248412 39.061139,21.764479 39.061139,21.273812 C 39.061139,17.348478 34.02666,14.14942 27.817495,14.149419 z"
         style="opacity:1;fill:#ffff00;fill-opacity:1;fill-rule:evenodd;stroke:#112b00;stroke-width:0.49452111;stroke-linecap:butt;stroke-linejoin:miter;marker:none;marker-start:none;marker-mid:none;marker-end:none;stroke-miterlimit:4;stroke-dasharray:none;stroke-dashoffset:0;stroke-opacity:1;visibility:visible;display:inline;overflow:visible;enable-background:accumulate" />
    </clipPath>
    <clipPath
       clipPathUnits="userSpaceOnUse"
       id="clipPath4521">
      <path
         sodipodi:nodetypes="csccccsccccccsc"
         id="path4523"
         d="M 11.482468,15.076084 C 5.1662498,15.076084 0.044968475,18.275417 0.044967628,22.201085 C 0.044967628,22.691793 0.14246144,23.175768 0.29496765,23.638585 L 0.29496765,28.112975 L 0.29496765,28.894227 L 0.35746829,28.894227 C 0.97853235,32.447275 5.7256145,35.206728 11.482468,35.206728 C 17.242796,35.206728 21.991013,32.450363 22.607469,28.894227 L 22.669968,28.894227 L 22.669968,28.737973 L 22.701219,28.737973 L 22.701219,27.956722 L 22.701219,23.638585 C 22.853724,23.175768 22.919968,22.691794 22.919968,22.201085 C 22.919968,18.275416 17.798688,15.076085 11.482468,15.076084 z"
         style="opacity:1;fill:#ffff00;fill-opacity:1;fill-rule:evenodd;stroke:#112b00;stroke-width:0.49452111;stroke-linecap:butt;stroke-linejoin:miter;marker:none;marker-start:none;marker-mid:none;marker-end:none;stroke-miterlimit:4;stroke-dasharray:none;stroke-dashoffset:0;stroke-opacity:1;visibility:visible;display:inline;overflow:visible;enable-background:accumulate" />
    </clipPath>
    <clipPath
       clipPathUnits="userSpaceOnUse"
       id="clipPath4525">
      <path
         sodipodi:nodetypes="csccccsccccccsc"
         id="path4527"
         d="M 52.714095,65.939098 C 45.257699,65.939098 39.211945,69.710433 39.211944,74.337963 C 39.211944,74.916404 39.327037,75.486908 39.507073,76.032471 L 39.507073,81.306829 L 39.507073,82.227759 L 39.580856,82.227759 C 40.314032,86.416049 45.918038,89.668859 52.714095,89.668859 C 59.514254,89.668859 65.119599,86.419689 65.847336,82.227759 L 65.921117,82.227759 L 65.921117,82.043569 L 65.958009,82.043569 L 65.958009,81.122639 L 65.958009,76.032471 C 66.138044,75.486908 66.216246,74.916405 66.216246,74.337963 C 66.216246,69.710432 60.170493,65.939099 52.714095,65.939098 z"
         style="opacity:1;fill:#ffff00;fill-opacity:1;fill-rule:evenodd;stroke:#112b00;stroke-width:0.49452111;stroke-linecap:butt;stroke-linejoin:miter;marker:none;marker-start:none;marker-mid:none;marker-end:none;stroke-miterlimit:4;stroke-dasharray:none;stroke-dashoffset:0;stroke-opacity:1;visibility:visible;display:inline;overflow:visible;enable-background:accumulate" />
    </clipPath>
    <clipPath
       clipPathUnits="userSpaceOnUse"
       id="clipPath4529">
      <path
         sodipodi:nodetypes="csccccsccccccsc"
         id="path4531"
         d="M 52.714095,65.939098 C 45.257699,65.939098 39.211945,69.710433 39.211944,74.337963 C 39.211944,74.916404 39.327037,75.486908 39.507073,76.032471 L 39.507073,81.306829 L 39.507073,82.227759 L 39.580856,82.227759 C 40.314032,86.416049 45.918038,89.668859 52.714095,89.668859 C 59.514254,89.668859 65.119599,86.419689 65.847336,82.227759 L 65.921117,82.227759 L 65.921117,82.043569 L 65.958009,82.043569 L 65.958009,81.122639 L 65.958009,76.032471 C 66.138044,75.486908 66.216246,74.916405 66.216246,74.337963 C 66.216246,69.710432 60.170493,65.939099 52.714095,65.939098 z"
         style="opacity:1;fill:#ffff00;fill-opacity:1;fill-rule:evenodd;stroke:#112b00;stroke-width:0.49452111;stroke-linecap:butt;stroke-linejoin:miter;marker:none;marker-start:none;marker-mid:none;marker-end:none;stroke-miterlimit:4;stroke-dasharray:none;stroke-dashoffset:0;stroke-opacity:1;visibility:visible;display:inline;overflow:visible;enable-background:accumulate" />
    </clipPath>
    <clipPath
       clipPathUnits="userSpaceOnUse"
       id="clipPath4533">
      <path
         sodipodi:nodetypes="csccccsccccccsc"
         id="path4535"
         d="M 52.714095,65.939098 C 45.257699,65.939098 39.211945,69.710433 39.211944,74.337963 C 39.211944,74.916404 39.327037,75.486908 39.507073,76.032471 L 39.507073,81.306829 L 39.507073,82.227759 L 39.580856,82.227759 C 40.314032,86.416049 45.918038,89.668859 52.714095,89.668859 C 59.514254,89.668859 65.119599,86.419689 65.847336,82.227759 L 65.921117,82.227759 L 65.921117,82.043569 L 65.958009,82.043569 L 65.958009,81.122639 L 65.958009,76.032471 C 66.138044,75.486908 66.216246,74.916405 66.216246,74.337963 C 66.216246,69.710432 60.170493,65.939099 52.714095,65.939098 z"
         style="opacity:1;fill:#ffff00;fill-opacity:1;fill-rule:evenodd;stroke:#112b00;stroke-width:0.49452111;stroke-linecap:butt;stroke-linejoin:miter;marker:none;marker-start:none;marker-mid:none;marker-end:none;stroke-miterlimit:4;stroke-dasharray:none;stroke-dashoffset:0;stroke-opacity:1;visibility:visible;display:inline;overflow:visible;enable-background:accumulate" />
    </clipPath>
    <linearGradient
       inkscape:collect="always"
       xlink:href="#linearGradient9102"
       id="linearGradient4539"
       gradientUnits="userSpaceOnUse"
       x1="16.561026"
       y1="38.078125"
       x2="39.436893"
       y2="38.078125" />
    <linearGradient
       inkscape:collect="always"
       xlink:href="#linearGradient14047"
       id="linearGradient4543"
       gradientUnits="userSpaceOnUse"
       x1="4.186657"
       y1="88.636261"
       x2="26.708971"
       y2="88.636261" />
    <linearGradient
       inkscape:collect="always"
       xlink:href="#linearGradient16009"
       id="linearGradient4547"
       gradientUnits="userSpaceOnUse"
       x1="40.602657"
       y1="81.211639"
       x2="64.715958"
       y2="81.918747" />
    <filter
       inkscape:collect="always"
       x="-0.11589457"
       width="1.2317891"
       y="-0.089169264"
       height="1.1783385"
       id="filter8493">
      <feGaussianBlur
         inkscape:collect="always"
         stdDeviation="1.1284828"
         id="feGaussianBlur8495" />
    </filter>
    <filter
       inkscape:collect="always"
       x="-0.094887197"
       width="1.1897744"
       y="-0.10750921"
       height="1.2150184"
       id="filter9468">
      <feGaussianBlur
         inkscape:collect="always"
         stdDeviation="0.92393087"
         id="feGaussianBlur9470" />
    </filter>
  </defs>
  <sodipodi:namedview
     id="base"
     pagecolor="#ffffff"
     bordercolor="#666666"
     borderopacity="1.0"
     inkscape:pageopacity="0.0"
     inkscape:pageshadow="2"
     inkscape:zoom="1"
     inkscape:cx="34.414984"
     inkscape:cy="7.9624941"
     inkscape:document-units="px"
     inkscape:current-layer="layer1"
     width="128px"
     height="64px"
     showguides="true"
     inkscape:guide-bbox="true"
     inkscape:window-width="1024"
     inkscape:window-height="696"
     inkscape:window-x="-4"
     inkscape:window-y="-4"
     showgrid="false" />
  <metadata
     id="metadata7">
    <rdf:RDF>
      <cc:Work
         rdf:about="">
        <dc:format>image/svg+xml</dc:format>
        <dc:type
           rdf:resource="http://purl.org/dc/dcmitype/StillImage" />
      </cc:Work>
    </rdf:RDF>
  </metadata>
  <g
     inkscape:label="Ebene 1"
     inkscape:groupmode="layer"
     id="layer1">
    <path
       style="opacity:1;fill:url(#linearGradient9108);fill-opacity:1;fill-rule:evenodd;stroke:#112b00;stroke-width:0.42282587;stroke-linecap:butt;stroke-linejoin:miter;marker:none;marker-start:none;marker-mid:none;marker-end:none;stroke-miterlimit:4;stroke-dasharray:none;stroke-dashoffset:0;stroke-opacity:1;visibility:visible;display:inline;overflow:visible;enable-background:accumulate"
       d="M 28,13.71875 C 21.955511,13.71875 17.023614,16.754539 16.8125,20.5625 C 16.807818,20.646958 16.8125,20.72732 16.8125,20.8125 L 16.8125,55.34375 L 16.8125,56.125 L 16.875,56.125 C 17.496067,59.678043 22.243147,62.437498 28,62.4375 C 33.760329,62.4375 38.508544,59.681141 39.125,56.125 L 39.1875,56.125 L 39.1875,55.34375 L 39.1875,20.8125 L 39.1875,20.5625 L 39.15625,20.5625 C 38.944076,16.755151 34.043794,13.71875 28,13.71875 z"
       id="path3156"
       clip-path="url(#clipPath13046)"
       transform="matrix(2.3607252,0,0,2.3572699,-0.2695069,-30.421775)" />
    <path
       style="opacity:1;fill:none;fill-opacity:1;fill-rule:evenodd;stroke:#004000;stroke-width:4.23853922;stroke-linecap:butt;stroke-linejoin:miter;marker:none;marker-start:none;marker-mid:none;marker-end:none;stroke-miterlimit:4;stroke-dasharray:none;stroke-dashoffset:0;stroke-opacity:1;visibility:visible;display:inline;overflow:visible;filter:url(#filter8122);enable-background:accumulate"
       d="M 11.4375,15 C 5.393705,15 0.493425,18.067651 0.28125,21.875 C 0.276519,21.959892 0.25,22.039379 0.25,22.125 C 0.25,22.242383 0.272386,22.352755 0.28125,22.46875 L 0.28125,56.65625 L 0.28125,57.4375 L 0.34375,57.4375 C 0.964816,60.990542 5.711897,63.749998 11.46875,63.75 C 17.229079,63.749999 21.977294,60.993641 22.59375,57.4375 L 22.65625,57.4375 L 22.65625,56.65625 L 22.65625,22.125 L 22.65625,21.875 L 22.625,21.875 C 22.412826,18.067651 17.481295,15 11.4375,15 z"
       id="path4167"
       clip-path="url(#clipPath13040)"
       transform="matrix(2.3607252,0,0,2.3572699,38.75164,-33.164778)" />
    <path
       sodipodi:type="arc"
       style="opacity:1;fill:url(#linearGradient10085);fill-opacity:1;fill-rule:evenodd;stroke:none;stroke-width:0.5;stroke-linecap:butt;stroke-linejoin:miter;marker:none;marker-start:none;marker-mid:none;marker-end:none;stroke-miterlimit:4;stroke-dasharray:none;stroke-dashoffset:0;stroke-opacity:1;visibility:visible;display:inline;overflow:visible;enable-background:accumulate"
       id="path8130"
       sodipodi:cx="27.797979"
       sodipodi:cy="20.816162"
       sodipodi:rx="11.248485"
       sodipodi:ry="7.1111107"
       d="M 39.046464,20.816162 A 11.248485,7.1111107 0 1 1 16.549495,20.816162 A 11.248485,7.1111107 0 1 1 39.046464,20.816162 z"
       transform="matrix(2.4014275,0,0,2.3574708,-0.9431066,-30.983222)"
       clip-path="url(#clipPath13034)" />
    <path
       sodipodi:type="arc"
       style="opacity:1;fill:#ffffff;fill-opacity:1;fill-rule:evenodd;stroke:none;stroke-width:5;stroke-linecap:butt;stroke-linejoin:miter;marker:none;marker-start:none;marker-mid:none;marker-end:none;stroke-miterlimit:4;stroke-dasharray:none;stroke-dashoffset:0;stroke-opacity:1;visibility:visible;display:inline;overflow:visible;enable-background:accumulate"
       id="path13052"
       sodipodi:cx="8.3125"
       sodipodi:cy="28.625"
       sodipodi:rx="3.6875"
       sodipodi:ry="5.875"
       d="M 12,28.625 A 3.6875,5.875 0 1 1 4.625,28.625 A 3.6875,5.875 0 1 1 12,28.625 z"
       transform="matrix(1.0003073,0,0,1.3541763,47.393534,2.417834)" />
    <path
       sodipodi:type="arc"
       style="opacity:1;fill:#ffffff;fill-opacity:1;fill-rule:evenodd;stroke:none;stroke-width:5;stroke-linecap:butt;stroke-linejoin:miter;marker:none;marker-start:none;marker-mid:none;marker-end:none;stroke-miterlimit:4;stroke-dasharray:none;stroke-dashoffset:0;stroke-opacity:1;visibility:visible;display:inline;overflow:visible;enable-background:accumulate"
       id="path13054"
       sodipodi:cx="8.3125"
       sodipodi:cy="28.625"
       sodipodi:rx="3.6875"
       sodipodi:ry="5.875"
       d="M 12,28.625 A 3.6875,5.875 0 1 1 4.625,28.625 A 3.6875,5.875 0 1 1 12,28.625 z"
       transform="matrix(1.0003073,0,0,1.3541763,64.361246,2.7124928)" />
    <path
       sodipodi:type="arc"
       style="opacity:1;fill:#000000;fill-opacity:1;fill-rule:evenodd;stroke:none;stroke-width:5;stroke-linecap:butt;stroke-linejoin:miter;marker:none;marker-start:none;marker-mid:none;marker-end:none;stroke-miterlimit:4;stroke-dasharray:none;stroke-dashoffset:0;stroke-opacity:1;visibility:visible;display:inline;overflow:visible;enable-background:accumulate"
       id="path13056"
       sodipodi:cx="8.3125"
       sodipodi:cy="28.625"
       sodipodi:rx="3.6875"
       sodipodi:ry="5.875"
       d="M 12,28.625 A 3.6875,5.875 0 1 1 4.625,28.625 A 3.6875,5.875 0 1 1 12,28.625 z"
       transform="matrix(0.5201598,0,0,0.7041718,53.007759,21.036003)" />
    <path
       sodipodi:type="arc"
       style="opacity:1;fill:#000000;fill-opacity:1;fill-rule:evenodd;stroke:none;stroke-width:5;stroke-linecap:butt;stroke-linejoin:miter;marker:none;marker-start:none;marker-mid:none;marker-end:none;stroke-miterlimit:4;stroke-dasharray:none;stroke-dashoffset:0;stroke-opacity:1;visibility:visible;display:inline;overflow:visible;enable-background:accumulate"
       id="path13058"
       sodipodi:cx="8.3125"
       sodipodi:cy="28.625"
       sodipodi:rx="3.6875"
       sodipodi:ry="5.875"
       d="M 12,28.625 A 3.6875,5.875 0 1 1 4.625,28.625 A 3.6875,5.875 0 1 1 12,28.625 z"
       transform="matrix(0.5201598,0,0,0.7041718,66.87702,21.318876)" />
    <path
       style="fill:none;fill-rule:evenodd;stroke:#005300;stroke-width:0.84770787px;stroke-linecap:butt;stroke-linejoin:miter;stroke-opacity:1;filter:url(#filter8083)"
       d="M 14.868687,19.781819 L 14.868687,19.781819 C 20.670565,23.973753 30.180053,24.616086 37.624242,19.652526"
       id="path7070"
       sodipodi:nodetypes="ccc"
       transform="matrix(2.3607252,0,0,2.3572699,4.4292901,-25.625087)" />
    <path
       style="opacity:1;fill:url(#linearGradient4539);fill-opacity:1;fill-rule:evenodd;stroke:#112b00;stroke-width:0.42282587;stroke-linecap:butt;stroke-linejoin:miter;marker:none;marker-start:none;marker-mid:none;marker-end:none;stroke-miterlimit:4;stroke-dasharray:none;stroke-dashoffset:0;stroke-opacity:1;visibility:visible;display:inline;overflow:visible;enable-background:accumulate"
       d="M 28,13.71875 C 21.955511,13.71875 17.023614,16.754539 16.8125,20.5625 C 16.807818,20.646958 16.8125,20.72732 16.8125,20.8125 L 16.8125,55.34375 L 16.8125,56.125 L 16.875,56.125 C 17.496067,59.678043 22.243147,62.437498 28,62.4375 C 33.760329,62.4375 38.508544,59.681141 39.125,56.125 L 39.1875,56.125 L 39.1875,55.34375 L 39.1875,20.8125 L 39.1875,20.5625 L 39.15625,20.5625 C 38.944076,16.755151 34.043794,13.71875 28,13.71875 z"
       id="path2218"
       clip-path="url(#clipPath4509)"
       transform="matrix(2.3607252,0,0,2.3572699,-25.505203,16.062055)" />
    <path
       sodipodi:nodetypes="csccccsccccccsc"
       id="path4333"
       d="M 15.909336,65.570154 C 8.4529404,65.570154 2.4071867,69.341489 2.4071856,73.969018 C 2.4071856,74.547459 2.5222788,75.117963 2.7023145,75.663526 L 2.7023145,109.22215 L 2.7023145,110.14308 L 2.7760968,110.14308 C 3.5092739,114.33136 9.1132797,117.58417 15.909336,117.58417 C 22.709495,117.58418 28.314839,114.33501 29.042576,110.14308 L 29.116358,110.14308 L 29.116358,109.95889 L 29.153249,109.95889 L 29.153249,109.03796 L 29.153249,75.663526 C 29.333285,75.117963 29.411487,74.54746 29.411487,73.969018 C 29.411487,69.341488 23.365733,65.570155 15.909336,65.570154 z"
       style="opacity:1;fill:url(#linearGradient4335);fill-opacity:1;fill-rule:evenodd;stroke:#112b00;stroke-width:0.49878725;stroke-linecap:butt;stroke-linejoin:miter;marker:none;marker-start:none;marker-mid:none;marker-end:none;stroke-miterlimit:4;stroke-dasharray:none;stroke-dashoffset:0;stroke-opacity:1;visibility:visible;display:inline;overflow:visible;enable-background:accumulate"
       clip-path="url(#clipPath4505)"
       transform="matrix(1.9997403,0,0,1.9997403,9.3386111,-82.796093)" />
    <path
       sodipodi:nodetypes="csccccsccccccsc"
       id="path4329"
       d="M 15.909337,65.570154 C 8.452941,65.570154 2.4071874,69.341489 2.4071862,73.969018 C 2.4071862,74.547459 2.5222794,75.117963 2.7023152,75.663526 L 2.7023152,109.22215 L 2.7023152,110.14308 L 2.7760974,110.14308 C 3.5092745,114.33136 9.1132803,117.58417 15.909337,117.58417 C 22.709496,117.58418 28.31484,114.33501 29.042576,110.14308 L 29.116358,110.14308 L 29.116358,109.95889 L 29.15325,109.95889 L 29.15325,109.03796 L 29.15325,75.663526 C 29.333285,75.117963 29.411487,74.54746 29.411487,73.969018 C 29.411487,69.341488 23.365734,65.570155 15.909337,65.570154 z"
       style="opacity:1;fill:url(#linearGradient4543);fill-opacity:1;fill-rule:evenodd;stroke:#112b00;stroke-width:0.38979876;stroke-linecap:butt;stroke-linejoin:miter;marker:none;marker-start:none;marker-mid:none;marker-end:none;stroke-miterlimit:4;stroke-dasharray:none;stroke-dashoffset:0;stroke-opacity:1;visibility:visible;display:inline;overflow:visible;enable-background:accumulate"
       clip-path="url(#clipPath4501)"
       transform="matrix(1.9997403,0,0,1.9997403,9.3386111,-82.796093)" />
    <path
       style="opacity:1;fill:none;fill-opacity:1;fill-rule:evenodd;stroke:#2d4700;stroke-width:4.2385397;stroke-linecap:butt;stroke-linejoin:miter;marker:none;marker-start:none;marker-mid:none;marker-end:none;stroke-miterlimit:4;stroke-dasharray:none;stroke-dashoffset:0;stroke-opacity:1;visibility:visible;display:inline;overflow:visible;filter:url(#filter8493);enable-background:accumulate"
       d="M 11.4375,15 C 5.393705,15 0.493425,18.067651 0.28125,21.875 C 0.276519,21.959892 0.25,22.039379 0.25,22.125 C 0.25,22.242383 0.272386,22.352755 0.28125,22.46875 L 0.28125,56.65625 L 0.28125,57.4375 L 0.34375,57.4375 C 0.964816,60.990542 5.711897,63.749998 11.46875,63.75 C 17.229079,63.749999 21.977294,60.993641 22.59375,57.4375 L 22.65625,57.4375 L 22.65625,56.65625 L 22.65625,22.125 L 22.65625,21.875 L 22.625,21.875 C 22.412826,18.067651 17.481295,15 11.4375,15 z"
       id="path2220"
       clip-path="url(#clipPath4497)"
       transform="matrix(2.3607252,0,0,2.3572699,13.515945,13.319052)" />
    <path
       sodipodi:type="arc"
       style="opacity:1;fill:url(#linearGradient13076);fill-opacity:1;fill-rule:evenodd;stroke:none;stroke-width:0.3907465;stroke-linecap:butt;stroke-linejoin:miter;marker:none;marker-start:none;marker-mid:none;marker-end:none;stroke-miterlimit:4;stroke-dasharray:none;stroke-dashoffset:0;stroke-opacity:1;visibility:visible;display:inline;overflow:visible;enable-background:accumulate"
       id="path2222"
       sodipodi:cx="27.797979"
       sodipodi:cy="20.816162"
       sodipodi:rx="11.248485"
       sodipodi:ry="7.1111107"
       d="M 39.046464,20.816162 A 11.248485,7.1111107 0 1 1 16.549495,20.816162 A 11.248485,7.1111107 0 1 1 39.046464,20.816162 z"
       transform="matrix(2.4014275,0,0,2.3574708,-26.178801,15.500608)"
       clip-path="url(#clipPath4493)" />
    <path
       style="opacity:1;fill:none;fill-opacity:1;fill-rule:evenodd;stroke:#2d4700;stroke-width:0.84770787px;stroke-linecap:butt;stroke-linejoin:miter;marker:none;marker-start:none;marker-mid:none;marker-end:none;stroke-miterlimit:4;stroke-dasharray:none;stroke-dashoffset:0;stroke-opacity:1;visibility:visible;display:inline;overflow:visible;filter:url(#filter9084);enable-background:accumulate"
       d="M 14.868687,19.781819 L 14.868687,19.781819 C 20.670565,23.973753 30.180053,24.616086 37.624242,19.652526"
       id="path2232"
       sodipodi:nodetypes="ccc"
       transform="matrix(2.3607252,0,0,2.3572699,-20.806405,20.858742)"
       clip-path="url(#clipPath4489)" />
    <path
       style="opacity:1;fill:url(#linearGradient4431);fill-opacity:1;fill-rule:evenodd;stroke:#112b00;stroke-width:0.49878722;stroke-linecap:butt;stroke-linejoin:miter;marker:none;marker-start:none;marker-mid:none;marker-end:none;stroke-miterlimit:4;stroke-dasharray:none;stroke-dashoffset:0;stroke-opacity:1;visibility:visible;display:inline;overflow:visible;enable-background:accumulate"
       d="M 52.700196,65.710769 C 45.564581,65.710769 39.742398,69.289321 39.493175,73.778099 C 39.487647,73.877657 39.493175,73.972387 39.493175,74.072796 L 39.493175,114.77782 L 39.493175,115.69875 L 39.566957,115.69875 C 40.300136,119.88703 45.90414,123.13985 52.700196,123.13985 C 59.500356,123.13985 65.105699,119.89068 65.833436,115.69875 L 65.907218,115.69875 L 65.907218,114.77782 L 65.907218,74.072796 L 65.907218,73.778099 L 65.870327,73.778099 C 65.619852,69.290042 59.834991,65.710769 52.700196,65.710769 z"
       id="path4417"
       clip-path="url(#clipPath4533)"
       transform="matrix(1.9997403,0,0,1.9997403,-18.234973,-53.454969)" />
    <path
       sodipodi:nodetypes="csccccsccccccsc"
       id="path4419"
       d="M 52.979257,65.673932 C 45.522862,65.673932 39.477108,69.445267 39.477107,74.072796 C 39.477107,74.651237 39.5922,75.221741 39.772236,75.767304 L 39.772236,109.32593 L 39.772236,110.24686 L 39.846018,110.24686 C 40.579195,114.43514 46.183201,117.68795 52.979257,117.68795 C 59.779416,117.68796 65.38476,114.43879 66.112497,110.24686 L 66.186279,110.24686 L 66.186279,110.06267 L 66.22317,110.06267 L 66.22317,109.14174 L 66.22317,75.767304 C 66.403206,75.221741 66.481408,74.651238 66.481408,74.072796 C 66.481408,69.445266 60.435654,65.673933 52.979257,65.673932 z"
       style="opacity:1;fill:url(#linearGradient4433);fill-opacity:1;fill-rule:evenodd;stroke:#112b00;stroke-width:0.49878725;stroke-linecap:butt;stroke-linejoin:miter;marker:none;marker-start:none;marker-mid:none;marker-end:none;stroke-miterlimit:4;stroke-dasharray:none;stroke-dashoffset:0;stroke-opacity:1;visibility:visible;display:inline;overflow:visible;enable-background:accumulate"
       clip-path="url(#clipPath4529)"
       transform="matrix(1.9997403,0,0,1.9997403,-18.234973,-53.454969)" />
    <path
       sodipodi:nodetypes="csccccsccccccsc"
       id="path4421"
       d="M 52.979258,65.673932 C 45.522862,65.673932 39.477109,69.445267 39.477107,74.072796 C 39.477107,74.651237 39.592201,75.221741 39.772236,75.767304 L 39.772236,109.32593 L 39.772236,110.24686 L 39.846019,110.24686 C 40.579196,114.43514 46.183202,117.68795 52.979258,117.68795 C 59.779417,117.68796 65.384761,114.43879 66.112497,110.24686 L 66.186279,110.24686 L 66.186279,110.06267 L 66.223171,110.06267 L 66.223171,109.14174 L 66.223171,75.767304 C 66.403206,75.221741 66.481408,74.651238 66.481408,74.072796 C 66.481408,69.445266 60.435655,65.673933 52.979258,65.673932 z"
       style="opacity:1;fill:url(#linearGradient4547);fill-opacity:1;fill-rule:evenodd;stroke:#112b00;stroke-width:0.29416764;stroke-linecap:butt;stroke-linejoin:miter;marker:none;marker-start:none;marker-mid:none;marker-end:none;stroke-miterlimit:4;stroke-dasharray:none;stroke-dashoffset:0;stroke-opacity:1;visibility:visible;display:inline;overflow:visible;enable-background:accumulate"
       clip-path="url(#clipPath4525)"
       transform="matrix(1.9997403,0,0,1.9997403,-18.234973,-53.454969)" />
    <path
       style="opacity:1;fill:none;fill-opacity:1;fill-rule:evenodd;stroke:#552200;stroke-width:4.2385397;stroke-linecap:butt;stroke-linejoin:miter;marker:none;marker-start:none;marker-mid:none;marker-end:none;stroke-miterlimit:4;stroke-dasharray:none;stroke-dashoffset:0;stroke-opacity:1;visibility:visible;display:inline;overflow:visible;filter:url(#filter9468);enable-background:accumulate"
       d="M 11.4375,15 C 5.393705,15 0.493425,18.067651 0.28125,21.875 C 0.276519,21.959892 0.25,22.039379 0.25,22.125 C 0.25,22.242383 0.272386,22.352755 0.28125,22.46875 L 0.28125,56.65625 L 0.28125,57.4375 L 0.34375,57.4375 C 0.964816,60.990542 5.711897,63.749998 11.46875,63.75 C 17.229079,63.749999 21.977294,60.993641 22.59375,57.4375 L 22.65625,57.4375 L 22.65625,56.65625 L 22.65625,22.125 L 22.65625,21.875 L 22.625,21.875 C 22.412826,18.067651 17.481295,15 11.4375,15 z"
       id="path4423"
       clip-path="url(#clipPath4521)"
       transform="matrix(2.3607252,0,0,2.3572699,60.072575,42.867703)" />
    <path
       sodipodi:type="arc"
       style="opacity:1;fill:url(#linearGradient4415);fill-opacity:1;fill-rule:evenodd;stroke:none;stroke-width:0.29488286;stroke-linecap:butt;stroke-linejoin:miter;marker:none;marker-start:none;marker-mid:none;marker-end:none;stroke-miterlimit:4;stroke-dasharray:none;stroke-dashoffset:0;stroke-opacity:1;visibility:visible;display:inline;overflow:visible;enable-background:accumulate"
       id="path4425"
       sodipodi:cx="27.797979"
       sodipodi:cy="20.816162"
       sodipodi:rx="11.248485"
       sodipodi:ry="7.1111107"
       d="M 39.046464,20.816162 A 11.248485,7.1111107 0 1 1 16.549495,20.816162 A 11.248485,7.1111107 0 1 1 39.046464,20.816162 z"
       transform="matrix(2.4014275,0,0,2.3574708,20.377828,45.04926)"
       clip-path="url(#clipPath4517)" />
    <path
       style="opacity:1;fill:none;fill-opacity:1;fill-rule:evenodd;stroke:#552200;stroke-width:0.64306235px;stroke-linecap:butt;stroke-linejoin:miter;marker:none;marker-start:none;marker-mid:none;marker-end:none;stroke-miterlimit:4;stroke-dasharray:none;stroke-dashoffset:0;stroke-opacity:1;visibility:visible;display:inline;overflow:visible;filter:url(#filter10125);enable-background:accumulate"
       d="M 14.868687,19.781819 L 14.868687,19.781819 C 20.670565,23.973753 30.180053,24.616086 37.624242,19.652526"
       id="path4427"
       sodipodi:nodetypes="ccc"
       transform="matrix(2.3607252,0,0,2.3572699,25.750225,50.407394)"
       clip-path="url(#clipPath4513)" />
  </g>
</svg>
