<?xml version="1.0" encoding="UTF-8" standalone="no"?>
<!-- Created with Inkscape (http://www.inkscape.org/) -->
<svg
   xmlns:dc="http://purl.org/dc/elements/1.1/"
   xmlns:cc="http://creativecommons.org/ns#"
   xmlns:rdf="http://www.w3.org/1999/02/22-rdf-syntax-ns#"
   xmlns:svg="http://www.w3.org/2000/svg"
   xmlns="http://www.w3.org/2000/svg"
   xmlns:xlink="http://www.w3.org/1999/xlink"
   xmlns:sodipodi="http://sodipodi.sourceforge.net/DTD/sodipodi-0.dtd"
   xmlns:inkscape="http://www.inkscape.org/namespaces/inkscape"
   width="256"
   height="256"
   id="svg2"
   sodipodi:version="0.32"
   inkscape:version="0.46"
   version="1.0"
   sodipodi:docbase="C:\Dokumente und Einstellungen\Frosty\Eigene Dateien\inkscape\smc"
   sodipodi:docname="mountain.svg"
   inkscape:output_extension="org.inkscape.output.svg.inkscape"
   inkscape:export-filename="C:\Dokumente und Einstellungen\Frosty\Desktop\SMC\Drafts\Game\Frostbringer\overworld\gras\mountain.png"
   inkscape:export-xdpi="90"
   inkscape:export-ydpi="90">
  <defs
     id="defs4">
    <inkscape:perspective
       sodipodi:type="inkscape:persp3d"
       inkscape:vp_x="0 : 32 : 1"
       inkscape:vp_y="0 : 1000 : 0"
       inkscape:vp_z="64 : 32 : 1"
       inkscape:persp3d-origin="32 : 21.333333 : 1"
       id="perspective112" />
    <linearGradient
       id="linearGradient16913">
      <stop
         style="stop-color:#c1c1c1;stop-opacity:1;"
         offset="0"
         id="stop16915" />
      <stop
         style="stop-color:#707070;stop-opacity:1;"
         offset="1"
         id="stop16917" />
    </linearGradient>
    <linearGradient
       id="linearGradient16905">
      <stop
         style="stop-color:#9f9f9f;stop-opacity:1;"
         offset="0"
         id="stop16907" />
      <stop
         style="stop-color:#525252;stop-opacity:1;"
         offset="1"
         id="stop16909" />
    </linearGradient>
    <linearGradient
       id="linearGradient16897">
      <stop
         style="stop-color:#8c8c8c;stop-opacity:1;"
         offset="0"
         id="stop16899" />
      <stop
         style="stop-color:#4d4d4d;stop-opacity:1;"
         offset="1"
         id="stop16901" />
    </linearGradient>
    <linearGradient
       id="linearGradient7101">
      <stop
         id="stop7103"
         offset="0"
         style="stop-color:#3d9900;stop-opacity:1;" />
      <stop
         id="stop7105"
         offset="1"
         style="stop-color:#2f7700;stop-opacity:1;" />
    </linearGradient>
    <linearGradient
       id="linearGradient14556">
      <stop
         style="stop-color:#909090;stop-opacity:1;"
         offset="0"
         id="stop14558" />
      <stop
         style="stop-color:#252525;stop-opacity:1;"
         offset="1"
         id="stop14560" />
    </linearGradient>
    <linearGradient
       id="linearGradient14548">
      <stop
         style="stop-color:#a2a2a2;stop-opacity:1;"
         offset="0"
         id="stop14550" />
      <stop
         style="stop-color:#424242;stop-opacity:1;"
         offset="1"
         id="stop14552" />
    </linearGradient>
    <linearGradient
       id="linearGradient13563">
      <stop
         style="stop-color:#585858;stop-opacity:1;"
         offset="0"
         id="stop13565" />
      <stop
         style="stop-color:#181818;stop-opacity:1;"
         offset="1"
         id="stop13567" />
    </linearGradient>
    <filter
       inkscape:collect="always"
       x="-0.17026785"
       width="1.3405356"
       y="-0.21092883"
       height="1.4218577"
       id="filter10504">
      <feGaussianBlur
         inkscape:collect="always"
         stdDeviation="0.55204028"
         id="feGaussianBlur10506" />
    </filter>
    <clipPath
       clipPathUnits="userSpaceOnUse"
       id="clipPath10508">
      <path
         style="opacity:1;fill:#008000;fill-opacity:1;fill-rule:evenodd;stroke:#000000;stroke-width:0.25;stroke-linecap:butt;stroke-linejoin:miter;marker:none;marker-start:none;marker-mid:none;marker-end:none;stroke-miterlimit:4;stroke-dasharray:none;stroke-dashoffset:3.2;stroke-opacity:1;visibility:visible;display:inline;overflow:visible;enable-background:accumulate"
         d="M 4.8466856,7.5649309 C 3.936722,7.5649309 3.1904352,7.9984079 3.1904356,8.5336809 C 3.1904356,8.8260649 3.4359022,9.0745939 3.7841856,9.2524309 C 3.6109375,9.4487089 3.4617991,9.6689529 3.4404356,9.9399309 C 3.2027098,10.188481 3.0654357,10.486543 3.0654356,10.814931 C 3.0654356,11.653525 3.9726131,12.346181 5.0966856,12.346181 C 6.2207583,12.346181 7.1279358,11.653525 7.1279356,10.814931 C 7.2639538,10.842223 7.4191792,10.846181 7.5654356,10.846181 C 8.5467689,10.846181 9.3466857,10.21159 9.3466856,9.4086809 C 9.3466856,8.6057719 8.5467689,7.9399309 7.5654356,7.9399309 C 7.1361023,7.9399309 6.7477793,8.0761269 6.4404356,8.2836809 C 6.2484177,7.8733549 5.6049888,7.5649309 4.8466856,7.5649309 z"
         id="path10510" />
    </clipPath>
    <filter
       inkscape:collect="always"
       x="-0.13103028"
       width="1.2620605"
       y="-0.14764643"
       height="1.2952929"
       id="filter11557">
      <feGaussianBlur
         inkscape:collect="always"
         stdDeviation="0.53060433"
         id="feGaussianBlur11559" />
    </filter>
    <clipPath
       clipPathUnits="userSpaceOnUse"
       id="clipPath11561">
      <path
         style="opacity:1;fill:#008000;fill-opacity:1;fill-rule:evenodd;stroke:#000000;stroke-width:0.25;stroke-linecap:butt;stroke-linejoin:miter;marker:none;marker-start:none;marker-mid:none;marker-end:none;stroke-miterlimit:4;stroke-dasharray:none;stroke-dashoffset:3.2;stroke-opacity:1;visibility:visible;display:inline;overflow:visible;enable-background:accumulate"
         d="M 0.5478219,19.645581 C -0.2357579,19.645581 -0.9039989,19.931065 -1.2334281,20.333081 C -1.9624161,20.392418 -2.5459283,20.829108 -2.5459281,21.395581 C -2.5459281,21.590475 -2.4451006,21.768066 -2.3271781,21.926831 C -2.7903059,22.117834 -3.1396779,22.430287 -3.1396779,22.801831 C -3.1396779,23.157201 -2.8192589,23.451704 -2.3896781,23.645581 C -2.5698505,23.838443 -2.6709279,24.061483 -2.6709279,24.301831 C -2.6709279,25.015528 -1.763751,25.614332 -0.6396781,25.614331 C -0.5206586,25.614331 -0.4093674,25.595541 -0.2959281,25.583081 C 0.1012923,25.910235 0.6832572,26.114331 1.3603219,26.114331 C 1.6697929,26.114331 1.9689637,26.099241 2.2353219,26.020581 C 2.4047495,26.458262 2.972481,26.770581 3.6415719,26.770581 C 4.444481,26.770581 5.0790719,26.310289 5.0790719,25.739331 C 5.0790719,25.168373 4.444481,24.708081 3.6415719,24.708081 C 3.6085254,24.708081 3.5803211,24.706536 3.5478219,24.708081 C 3.5481601,24.697508 3.5478219,24.687458 3.5478219,24.676831 C 3.5478219,24.175013 3.1551704,23.719558 2.5790719,23.458081 C 2.8944607,23.184811 3.0790719,22.819049 3.0790719,22.426831 C 3.0790719,21.978147 2.8228831,21.585195 2.4228219,21.301831 C 2.4992334,21.171871 2.5478219,21.041614 2.5478219,20.895581 C 2.5478219,20.217569 1.6540523,19.645581 0.5478219,19.645581 z"
         id="path11563" />
    </clipPath>
    <filter
       inkscape:collect="always"
       x="-0.13414226"
       width="1.2682846"
       y="-0.16695404"
       height="1.3339081"
       id="filter12570">
      <feGaussianBlur
         inkscape:collect="always"
         stdDeviation="0.60433884"
         id="feGaussianBlur12572" />
    </filter>
    <clipPath
       clipPathUnits="userSpaceOnUse"
       id="clipPath12574">
      <path
         style="opacity:1;fill:#008000;fill-opacity:1;fill-rule:evenodd;stroke:#000000;stroke-width:0.25;stroke-linecap:butt;stroke-linejoin:miter;marker:none;marker-start:none;marker-mid:none;marker-end:none;stroke-miterlimit:4;stroke-dasharray:none;stroke-dashoffset:3.2;stroke-opacity:1;visibility:visible;display:inline;overflow:visible;enable-background:accumulate"
         d="M 36.626894,27.501199 C 35.867596,27.501199 35.206293,27.796825 34.876894,28.219949 C 34.692733,28.118411 34.481996,28.032449 34.251894,28.032449 C 33.743385,28.032449 33.313439,28.313949 33.126894,28.719949 C 32.994249,28.690058 32.863179,28.657449 32.720644,28.657449 C 31.757153,28.657449 30.970643,29.390328 30.970644,30.282449 C 30.970644,30.72851 31.154717,31.146174 31.470644,31.438699 C 30.234445,31.544466 29.283144,31.986226 29.283144,32.532449 C 29.283144,32.934535 29.80516,33.269296 30.564394,33.469949 C 30.388455,33.593779 30.251894,33.719649 30.251894,33.876199 C 30.251894,34.32226 31.078625,34.688699 32.095644,34.688699 C 32.73128,34.688699 33.26444,34.528661 33.595644,34.313699 C 33.933331,34.463518 34.337797,34.563699 34.783144,34.563699 C 35.925059,34.563699 36.845645,33.964896 36.845644,33.251199 C 36.845644,32.883645 36.615048,32.549175 36.220644,32.313699 C 37.150784,32.097752 37.814395,31.513194 37.814394,30.782449 C 37.814394,30.505085 37.704207,30.230647 37.533144,30.001199 C 38.155134,29.778201 38.595643,29.351553 38.595644,28.844949 C 38.595644,28.11341 37.715281,27.501199 36.626894,27.501199 z"
         id="path12576" />
    </clipPath>
    <clipPath
       clipPathUnits="userSpaceOnUse"
       id="clipPath4290">
      <path
         style="opacity:1;fill:#008000;fill-opacity:1;fill-rule:evenodd;stroke:#000000;stroke-width:0.25;stroke-linecap:butt;stroke-linejoin:miter;marker:none;marker-start:none;marker-mid:none;marker-end:none;stroke-miterlimit:4;stroke-dasharray:none;stroke-dashoffset:3.2;stroke-opacity:1;visibility:visible;display:inline;overflow:visible;enable-background:accumulate"
         d="M 1.2696654,11.535322 C 0.056380335,11.535322 -0.94908468,12.174347 -0.94908468,12.941572 C -0.94908468,13.047065 -0.92185268,13.155287 -0.88658468,13.254072 C -1.7139647,13.488177 -2.2928347,13.987717 -2.2928347,14.566572 C -2.2928347,15.369481 -1.1801087,16.004071 0.17591534,16.004072 C 1.102932,16.004072 1.882687,15.703291 2.3009154,15.254072 C 2.6408914,15.314484 3.0046617,15.347822 3.3946654,15.347822 C 5.0004836,15.347822 6.3009153,14.793676 6.3009154,14.097822 C 6.3009154,13.411098 5.0339072,12.862374 3.4571654,12.847822 C 3.3806725,12.124361 2.4330132,11.535322 1.2696654,11.535322 z"
         id="path4292" />
    </clipPath>
    <filter
       inkscape:collect="always"
       id="filter9094">
      <feGaussianBlur
         inkscape:collect="always"
         stdDeviation="0.78085938"
         id="feGaussianBlur9096" />
    </filter>
    <clipPath
       clipPathUnits="userSpaceOnUse"
       id="clipPath9098">
      <path
         style="opacity:1;fill:#999999;fill-opacity:1;fill-rule:evenodd;stroke:#2f2f2f;stroke-width:0.5;stroke-linecap:butt;stroke-linejoin:miter;marker:none;marker-start:none;marker-mid:none;marker-end:none;stroke-miterlimit:4;stroke-dasharray:none;stroke-dashoffset:3.2;stroke-opacity:1;visibility:visible;display:inline;overflow:visible;enable-background:accumulate"
         d="M 9.7808085,75.239899 C 8.8193995,77.929909 8.7727885,81.39364 7.7495585,81.208649 C 7.5554195,83.648654 7.6352695,84.956141 7.4683085,86.896145 C 9.5730575,94.724295 20.482109,94.666385 27.312058,95.083645 C 38.237476,95.083645 47.093308,91.739805 47.093308,87.614895 C 46.875268,84.724045 46.657327,83.869595 46.718308,82.427399 C 45.066969,82.398992 45.749106,77.670766 45.343308,75.458649 C 41.045021,86.505365 14.6927,87.499705 9.4058085,77.802399 C 9.4065075,76.661256 9.6157105,75.885341 9.9058085,75.239899 L 9.7808085,75.239899 z"
         id="path9100" />
    </clipPath>
    <filter
       inkscape:collect="always"
       id="filter12024">
      <feGaussianBlur
         inkscape:collect="always"
         stdDeviation="0.59966146"
         id="feGaussianBlur12026" />
    </filter>
    <clipPath
       clipPathUnits="userSpaceOnUse"
       id="clipPath12028">
      <path
         style="opacity:1;fill:#4d4d4d;fill-opacity:1;fill-rule:evenodd;stroke:#000000;stroke-width:0.5;stroke-linecap:butt;stroke-linejoin:miter;marker:none;marker-start:none;marker-mid:none;marker-end:none;stroke-miterlimit:4;stroke-dasharray:none;stroke-dashoffset:3.2;stroke-opacity:1;visibility:visible;display:inline;overflow:visible;enable-background:accumulate"
         d="M 10.597917,77.843749 C 9.9805433,81.280789 10.497334,87.006598 8.6291669,86.78125 C 7.4227429,90.741912 9.2039129,94.77026 7.3479169,94.9375 C 7.0703809,97.162891 7.4744019,99.037556 7.4416669,100.59375 C 7.4416659,102.69448 12.00668,103.75 17.097917,103.75 C 22.189154,103.75 26.316665,102.66323 26.316667,100.5625 C 26.316666,100.32616 25.745594,96.079853 25.597917,95.09375 C 24.268038,95.344663 25.396524,90.381794 24.472917,86.46875 C 23.049971,86.537761 23.767352,81.097054 23.410417,78.406249 L 23.254167,78.406249 C 22.46871,79.371293 19.994284,80.062499 17.066667,80.062499 C 13.601259,80.0625 10.744086,79.081244 10.597917,77.843749 z"
         id="path12030" />
    </clipPath>
    <filter
       inkscape:collect="always"
       id="filter13977">
      <feGaussianBlur
         inkscape:collect="always"
         stdDeviation="0.75748627"
         id="feGaussianBlur13979" />
    </filter>
    <clipPath
       clipPathUnits="userSpaceOnUse"
       id="clipPath15924">
      <path
         style="opacity:1;fill:none;fill-opacity:1;fill-rule:evenodd;stroke:#3c3c3c;stroke-width:0.5;stroke-linecap:butt;stroke-linejoin:miter;marker:none;marker-start:none;marker-mid:none;marker-end:none;stroke-miterlimit:4;stroke-dasharray:none;stroke-dashoffset:3.2;stroke-opacity:1;visibility:visible;display:inline;overflow:visible;enable-background:accumulate"
         d="M 15.437614,82.214098 C 14.78721,82.938609 14.184579,85.900522 12.656325,85.995348 C 12.550315,87.835627 10.417238,90.2273 9.4062802,90.339098 C 9.3454704,93.374824 7.2522013,93.498233 7.2500003,97.089098 C 12.582744,106.87038 39.366284,105.78198 43.313002,94.464098 C 42.388071,93.271054 40.245514,91.699514 40.031706,90.089098 C 38.815024,90.085629 36.774338,87.479972 36.656659,86.120348 C 35.62007,86.188469 35.330267,83.940542 34.375377,82.495348 C 33.977285,84.385241 30.044772,85.339097 25.219,85.339098 C 20.127692,85.339096 15.531366,84.314831 15.531365,82.214098 L 15.437614,82.214098 z"
         id="path15926" />
    </clipPath>
    <radialGradient
       inkscape:collect="always"
       xlink:href="#linearGradient16897"
       id="radialGradient16903"
       cx="26.919701"
       cy="21.692106"
       fx="26.919701"
       fy="21.692106"
       r="9.7810822"
       gradientTransform="matrix(3.0116042,-5.4116336e-2,0.100368,5.5855332,27.387926,-35.683848)"
       gradientUnits="userSpaceOnUse" />
    <radialGradient
       inkscape:collect="always"
       xlink:href="#linearGradient16905"
       id="radialGradient16911"
       cx="23.070892"
       cy="43.190578"
       fx="23.070892"
       fy="43.190578"
       r="18.281845"
       gradientTransform="matrix(2.6752284,-2.8953114e-2,2.6704758e-2,2.4674835,32.006547,61.925589)"
       gradientUnits="userSpaceOnUse" />
    <radialGradient
       inkscape:collect="always"
       xlink:href="#linearGradient16913"
       id="radialGradient16919"
       cx="21.755178"
       cy="57.580196"
       fx="21.755178"
       fy="57.580196"
       r="20.068653"
       gradientTransform="matrix(4.0939311,0,0,2.1411178,0.4292066,96.589284)"
       gradientUnits="userSpaceOnUse" />
    <filter
       inkscape:collect="always"
       x="-0.60485727"
       width="2.2097147"
       y="-0.47184339"
       height="1.9436868"
       id="filter18895">
      <feGaussianBlur
         inkscape:collect="always"
         stdDeviation="1.5855444"
         id="feGaussianBlur18897" />
    </filter>
    <filter
       inkscape:collect="always"
       x="-0.74918556"
       width="2.4983711"
       y="-0.43142915"
       height="1.8628583"
       id="filter18899">
      <feGaussianBlur
         inkscape:collect="always"
         stdDeviation="1.5855444"
         id="feGaussianBlur18901" />
    </filter>
    <filter
       inkscape:collect="always"
       x="-0.33198917"
       width="1.6639783"
       y="-0.23409013"
       height="1.4681803"
       id="filter18903">
      <feGaussianBlur
         inkscape:collect="always"
         stdDeviation="1.2767134"
         id="feGaussianBlur18905" />
    </filter>
    <filter
       inkscape:collect="always"
       x="-0.076372147"
       width="1.1527443"
       y="-0.12920639"
       height="1.2584128"
       id="filter18907">
      <feGaussianBlur
         inkscape:collect="always"
         stdDeviation="0.59707206"
         id="feGaussianBlur18909" />
    </filter>
    <clipPath
       clipPathUnits="userSpaceOnUse"
       id="clipPath21818">
      <path
         style="opacity:1;fill:none;fill-opacity:1;fill-rule:evenodd;stroke:#0000ff;stroke-width:0.25;stroke-linecap:butt;stroke-linejoin:miter;marker:none;marker-start:none;marker-mid:none;marker-end:none;stroke-miterlimit:4;stroke-dasharray:none;stroke-dashoffset:3.2;stroke-opacity:1;visibility:visible;display:inline;overflow:visible;enable-background:accumulate"
         d="M 11.29438,-0.27029059 C 5.6818574,2.8715944 2.7511552,8.7119086 4.8167743,12.597813 C 5.1007973,13.132126 5.5181417,13.609741 5.9472448,14.018745 C 2.7501647,17.347018 1.4173051,21.376158 2.9757701,24.307989 C 5.1374685,28.374641 11.99334,28.707288 18.266155,25.195771 C 22.554427,22.7952 25.351686,19.252546 26.076917,15.894265 C 27.812266,15.319871 29.58477,14.546699 31.38889,13.536754 C 38.817222,9.378381 43.340941,3.2041495 41.467471,-0.3202791 C 39.618585,-3.7984588 32.280203,-3.2966766 24.94719,0.71269712 C 22.645548,-2.7534684 16.675896,-3.2828589 11.29438,-0.27029059 z"
         id="path21820" />
    </clipPath>
    <clipPath
       clipPathUnits="userSpaceOnUse"
       id="clipPath21822">
      <path
         style="opacity:1;fill:none;fill-opacity:1;fill-rule:evenodd;stroke:#0000ff;stroke-width:0.25;stroke-linecap:butt;stroke-linejoin:miter;marker:none;marker-start:none;marker-mid:none;marker-end:none;stroke-miterlimit:4;stroke-dasharray:none;stroke-dashoffset:3.2;stroke-opacity:1;visibility:visible;display:inline;overflow:visible;enable-background:accumulate"
         d="M 9.5535068,-0.51081244 C 14.45323,-4.7248391 20.822934,-5.3924558 23.595444,-2.0011962 C 23.976664,-1.5348973 24.257772,-0.9619511 24.472324,-0.40281577 C 28.659594,-2.2417183 32.802482,-2.0442164 34.89428,0.51441566 C 37.795749,4.0634149 35.595334,10.73317 30.119175,15.442962 C 26.375521,18.662707 22.139631,20.041477 18.827317,19.508455 C 17.672683,20.956319 16.324098,22.367119 14.749104,23.721699 C 8.2641819,29.299082 1.0100232,31.366385 -1.5045812,28.290588 C -3.9861879,25.255153 -0.8524256,18.429086 5.4624907,12.888363 C 3.1570357,9.4248658 4.8554509,3.5297693 9.5535068,-0.51081244 z"
         id="path21824" />
    </clipPath>
    <clipPath
       clipPathUnits="userSpaceOnUse"
       id="clipPath21826">
      <path
         style="opacity:1;fill:none;fill-opacity:1;fill-rule:evenodd;stroke:#0000ff;stroke-width:0.24999999;stroke-linecap:butt;stroke-linejoin:miter;marker:none;marker-start:none;marker-mid:none;marker-end:none;stroke-miterlimit:4;stroke-dasharray:none;stroke-dashoffset:3.2;stroke-opacity:1;visibility:visible;display:inline;overflow:visible;enable-background:accumulate"
         d="M 22.883514,8.7554973 C 25.478418,13.26798 25.116695,18.528555 22.100566,20.354718 C 21.685847,20.605816 21.202157,20.762126 20.738386,20.866087 C 21.587619,24.500523 20.861866,27.842488 18.586261,29.220289 C 15.42984,31.131393 10.555292,28.503378 7.655106,23.460017 C 5.6724585,20.012236 5.1872025,16.396222 6.0587039,13.771492 C 5.0940765,12.650847 4.1850232,11.377249 3.3509029,9.9267315 C -0.083526022,3.9543336 -0.68635438,-2.201252 2.0492079,-3.8575415 C 4.748873,-5.4920965 9.6158304,-2.0858893 13.045285,3.7437328 C 16.05297,2.3062296 20.395413,4.4287439 22.883514,8.7554973 z"
         id="path21828" />
    </clipPath>
    <clipPath
       clipPathUnits="userSpaceOnUse"
       id="clipPath21830">
      <path
         style="opacity:1;fill:none;fill-opacity:1;fill-rule:evenodd;stroke:#0000ff;stroke-width:0.25;stroke-linecap:butt;stroke-linejoin:miter;marker:none;marker-start:none;marker-mid:none;marker-end:none;stroke-miterlimit:4;stroke-dasharray:none;stroke-dashoffset:3.2;stroke-opacity:1;visibility:visible;display:inline;overflow:visible;enable-background:accumulate"
         d="M 14.906311,93.659427 C 12.469077,93.659427 10.44931,95.030867 10.44931,96.677439 C 10.44931,96.903843 10.504014,97.136104 10.574859,97.348109 C 8.912827,97.850532 7.75,98.922617 7.75,100.16492 C 7.75,101.88808 9.985232,103.25 12.709198,103.25 C 14.571377,103.25 16.137741,102.60448 16.977874,101.64039 C 17.660814,101.77005 18.39155,101.84159 19.174988,101.84159 C 22.400736,101.84159 25.01303,100.65232 25.01303,99.158916 C 25.01303,97.685109 22.467878,96.507471 19.300536,96.476239 C 19.146878,94.923589 17.243231,93.659427 14.906311,93.659427 z"
         id="path21832" />
    </clipPath>
    <radialGradient
       inkscape:collect="always"
       xlink:href="#linearGradient7101"
       id="radialGradient2268"
       gradientUnits="userSpaceOnUse"
       gradientTransform="matrix(1,0,0,1.1538301,36.977778,-5.9787298)"
       cx="-16.926315"
       cy="39.454529"
       fx="-16.926315"
       fy="39.454529"
       r="8.3468533" />
    <radialGradient
       inkscape:collect="always"
       xlink:href="#linearGradient7101"
       id="radialGradient3250"
       gradientUnits="userSpaceOnUse"
       gradientTransform="matrix(1,0,0,1.1538301,36.977778,-5.9787298)"
       cx="-1.023285"
       cy="40.238918"
       fx="-1.023285"
       fy="40.238918"
       r="8.3468533" />
    <radialGradient
       inkscape:collect="always"
       xlink:href="#linearGradient7101"
       id="radialGradient3252"
       gradientUnits="userSpaceOnUse"
       gradientTransform="matrix(1,0,0,1.1538301,36.977778,-5.9787298)"
       cx="-10.07379"
       cy="37.885754"
       fx="-10.07379"
       fy="37.885754"
       r="8.3468533" />
    <radialGradient
       inkscape:collect="always"
       xlink:href="#linearGradient7101"
       id="radialGradient3240"
       gradientUnits="userSpaceOnUse"
       gradientTransform="matrix(1,0,0,1.2474083,81.280078,-20.312036)"
       cx="-10.07379"
       cy="37.885754"
       fx="-10.07379"
       fy="37.885754"
       r="8.3468533" />
    <radialGradient
       inkscape:collect="always"
       xlink:href="#linearGradient7101"
       id="radialGradient3244"
       gradientUnits="userSpaceOnUse"
       gradientTransform="matrix(1,0,0,1.2474083,81.280078,-20.312036)"
       cx="-16.926315"
       cy="39.454529"
       fx="-16.926315"
       fy="39.454529"
       r="8.3468533" />
    <radialGradient
       inkscape:collect="always"
       xlink:href="#linearGradient7101"
       id="radialGradient3248"
       gradientUnits="userSpaceOnUse"
       gradientTransform="matrix(1,0,0,1.2474083,81.280078,-20.312036)"
       cx="-1.023285"
       cy="40.238918"
       fx="-1.023285"
       fy="40.238918"
       r="8.3468533" />
    <radialGradient
       inkscape:collect="always"
       xlink:href="#linearGradient7101"
       id="radialGradient6165"
       gradientUnits="userSpaceOnUse"
       gradientTransform="matrix(1,0,0,1.2474083,81.280078,-20.312036)"
       cx="-1.023285"
       cy="40.238918"
       fx="-1.023285"
       fy="40.238918"
       r="8.3468533" />
    <radialGradient
       inkscape:collect="always"
       xlink:href="#linearGradient7101"
       id="radialGradient6167"
       gradientUnits="userSpaceOnUse"
       gradientTransform="matrix(1,0,0,1.2474083,81.280078,-20.312036)"
       cx="-16.926315"
       cy="39.454529"
       fx="-16.926315"
       fy="39.454529"
       r="8.3468533" />
    <radialGradient
       inkscape:collect="always"
       xlink:href="#linearGradient7101"
       id="radialGradient6169"
       gradientUnits="userSpaceOnUse"
       gradientTransform="matrix(1,0,0,1.2474083,81.280078,-20.312036)"
       cx="-10.07379"
       cy="37.885754"
       fx="-10.07379"
       fy="37.885754"
       r="8.3468533" />
  </defs>
  <sodipodi:namedview
     id="base"
     pagecolor="#ffffff"
     bordercolor="#666666"
     borderopacity="1.0"
     inkscape:pageopacity="0.0"
     inkscape:pageshadow="2"
     inkscape:zoom="4"
     inkscape:cx="95.106446"
     inkscape:cy="17.027721"
     inkscape:document-units="px"
     inkscape:current-layer="layer1"
     width="64px"
     height="64px"
     inkscape:window-width="1024"
     inkscape:window-height="696"
     inkscape:window-x="-4"
     inkscape:window-y="-4"
     showguides="true"
     inkscape:guide-bbox="true"
     guidetolerance="4"
     showgrid="false" />
  <metadata
     id="metadata7">
    <rdf:RDF>
      <cc:Work
         rdf:about="">
        <dc:format>image/svg+xml</dc:format>
        <dc:type
           rdf:resource="http://purl.org/dc/dcmitype/StillImage" />
      </cc:Work>
    </rdf:RDF>
  </metadata>
  <g
     inkscape:label="Ebene 1"
     inkscape:groupmode="layer"
     id="layer1">
    <path
       style="opacity:1;fill:url(#radialGradient16919);fill-opacity:1;fill-rule:evenodd;stroke:#000000;stroke-width:2.0469656;stroke-linecap:butt;stroke-linejoin:miter;marker:none;marker-start:none;marker-mid:none;marker-end:none;stroke-miterlimit:4;stroke-dasharray:none;stroke-dashoffset:3.2;stroke-opacity:1;visibility:visible;display:inline;overflow:visible;enable-background:accumulate"
       d="M 130.63422,167.34307 C 118.90588,167.34307 107.6605,168.31269 97.593532,170.00764 L 58.153562,170.00764 C 54.21762,181.02035 53.97625,195.10351 49.787217,194.34617 C 48.992421,204.33539 49.268778,209.71895 48.585251,217.66121 C 57.201948,249.70911 101.89334,249.52656 129.85468,251.23481 C 174.58259,251.23481 210.85766,237.4793 210.85766,220.59224 C 209.96503,208.75727 209.02029,205.29812 209.26994,199.39387 C 202.3061,199.27409 205.59569,178.66606 203.58829,170.00764 L 163.40845,170.00764 C 153.34824,168.31542 142.35254,167.34307 130.63422,167.34307 z"
       id="path2160"
       sodipodi:nodetypes="ccccccccccc" />
    <path
       style="opacity:1;fill:url(#radialGradient16911);fill-opacity:1;fill-rule:evenodd;stroke:#000000;stroke-width:2.0469656;stroke-linecap:butt;stroke-linejoin:miter;marker:none;marker-start:none;marker-mid:none;marker-end:none;stroke-miterlimit:4;stroke-dasharray:none;stroke-dashoffset:3.2;stroke-opacity:1;visibility:visible;display:inline;overflow:visible;enable-background:accumulate"
       d="M 90.013725,119.50581 C 87.351057,122.4719 84.904155,134.60286 78.647679,134.99107 C 78.213685,142.52505 69.470927,152.34317 65.332192,152.80087 C 65.08324,165.22892 56.531927,165.73148 56.522916,180.43223 C 78.354504,220.47612 188.00781,215.98097 204.16517,169.64633 C 200.37863,164.76208 191.56359,158.31657 190.68828,151.72364 C 185.70733,151.70943 177.28583,141.0504 176.80407,135.48419 C 172.41819,135.77243 171.39651,125.9095 167.15438,120.03872 L 90.013725,119.50581 z"
       id="path3134"
       sodipodi:nodetypes="ccccccccc" />
    <path
       style="opacity:1;fill:url(#radialGradient16903);fill-opacity:1;fill-rule:evenodd;stroke:#000000;stroke-width:2.0469656;stroke-linecap:butt;stroke-linejoin:miter;marker:none;marker-start:none;marker-mid:none;marker-end:none;stroke-miterlimit:4;stroke-dasharray:none;stroke-dashoffset:3.2;stroke-opacity:1;visibility:visible;display:inline;overflow:visible;enable-background:accumulate"
       d="M 155.73245,28.540437 L 103.57765,25.110284 C 100.72541,39.011292 103.06369,63.901791 95.212846,62.954783 C 90.273833,79.16946 97.612045,95.593096 90.013725,96.277765 C 88.877512,105.38836 90.537024,113.10003 90.403009,119.47098 C 90.403009,128.07123 109.14943,132.34607 129.99261,132.34608 C 150.83579,132.34608 167.65295,127.93342 167.65295,119.33317 C 167.65295,118.36564 165.36106,100.89946 164.75648,96.862419 C 159.31205,97.88964 163.89744,77.608072 160.11626,61.588339 C 154.29083,61.870865 157.19372,39.556407 155.73245,28.540437 z"
       id="path3140"
       sodipodi:nodetypes="cccccssccc" />
    <path
       sodipodi:type="arc"
       style="opacity:1;fill:#333333;fill-opacity:1;fill-rule:evenodd;stroke:#2d2d9f;stroke-width:0.78507596;stroke-linecap:butt;stroke-linejoin:miter;marker:none;marker-start:none;marker-mid:none;marker-end:none;stroke-miterlimit:4;stroke-dasharray:none;stroke-dashoffset:3.2;stroke-opacity:1;visibility:visible;display:inline;overflow:visible;enable-background:accumulate"
       id="path3138"
       sodipodi:cx="16.549496"
       sodipodi:cy="27.248486"
       sodipodi:rx="9.5030308"
       sodipodi:ry="3.5878787"
       d="M 26.052526,27.248486 A 9.5030308,3.5878787 0 1 1 7.0464649,27.248486 A 9.5030308,3.5878787 0 1 1 26.052526,27.248486 z"
       transform="matrix(2.7774506,0,0,2.6543923,83.793472,-46.457735)" />
    <path
       style="fill:none;fill-rule:evenodd;stroke:#333333;stroke-width:2.13165736;stroke-linecap:round;stroke-linejoin:miter;stroke-miterlimit:4;stroke-dasharray:none;stroke-opacity:1"
       d="M 99.802904,212.01356 C 100.92455,216.96413 104.60556,221.96534 99.41326,226.3289 C 103.17318,230.79935 96.345456,235.50155 95.393167,240.1256"
       id="path3156"
       sodipodi:nodetypes="ccc" />
    <path
       style="fill:none;fill-rule:evenodd;stroke:#1a1a1a;stroke-width:2.13165736;stroke-linecap:round;stroke-linejoin:miter;stroke-miterlimit:4;stroke-dasharray:none;stroke-opacity:1"
       d="M 141.87055,214.24033 C 142.00065,218.50647 146.09778,223.70072 143.11289,227.03876 C 147.3664,230.96809 144.68307,235.57104 145.72907,239.83718"
       id="path3158"
       sodipodi:nodetypes="ccc" />
    <path
       style="fill:none;fill-rule:evenodd;stroke:#000000;stroke-width:2.13165736;stroke-linecap:round;stroke-linejoin:miter;stroke-miterlimit:4;stroke-dasharray:none;stroke-opacity:1"
       d="M 182.05664,204.24863 C 183.44888,208.63538 182.38471,213.63653 187.27204,217.14907 C 183.19842,223.17442 188.90457,226.29684 192.48744,230.04951"
       id="path3160"
       sodipodi:nodetypes="ccc" />
    <path
       style="fill:none;fill-rule:evenodd;stroke:#1a1a1a;stroke-width:2.13165736;stroke-linecap:round;stroke-linejoin:miter;stroke-miterlimit:4;stroke-dasharray:none;stroke-opacity:1"
       d="M 119.27068,46.39493 C 121.20589,62.426485 131.39176,70.672502 119.65049,85.808261 C 126.49311,94.50741 116.37197,106.43305 114.86095,116.95063"
       id="path4131"
       sodipodi:nodetypes="ccc" />
    <path
       style="fill:none;fill-rule:evenodd;stroke:#000000;stroke-width:2.13165736;stroke-linecap:round;stroke-linejoin:miter;stroke-miterlimit:4;stroke-dasharray:none;stroke-opacity:1"
       d="M 131.94866,47.221756 C 130.43945,59.205458 130.75675,73.238934 137.21828,88.008462 C 124.02377,97.694891 134.23691,106.15683 136.35839,117.77745"
       id="path4133"
       sodipodi:nodetypes="ccc" />
    <path
       style="fill:none;fill-rule:evenodd;stroke:#4d4d4d;stroke-width:2.13165712;stroke-linecap:round;stroke-linejoin:miter;stroke-miterlimit:4;stroke-dasharray:none;stroke-opacity:1"
       d="M 68.459796,198.80933 C 67.728477,203.07492 63.913146,207.96602 65.587568,212.23921 C 60.739043,215.27662 62.275659,221.20747 62.785272,226.61866"
       id="path3154"
       sodipodi:nodetypes="ccc" />
    <path
       sodipodi:type="arc"
       style="fill:#ffffff;fill-opacity:1;fill-rule:evenodd;stroke:none;stroke-width:0.47979176;stroke-linecap:butt;stroke-linejoin:miter;marker:none;marker-start:none;marker-mid:none;marker-end:none;stroke-miterlimit:4;stroke-dasharray:none;stroke-dashoffset:3.2;stroke-opacity:1;visibility:visible;display:inline;overflow:visible;enable-background:accumulate"
       id="path3268"
       sodipodi:cx="5.3010101"
       sodipodi:cy="7.0464644"
       sodipodi:rx="1.6161616"
       sodipodi:ry="2.909091"
       d="M 6.9171717,7.0464644 A 1.6161616,2.909091 0 1 1 3.6848485,7.0464644 A 1.6161616,2.909091 0 1 1 6.9171717,7.0464644 z"
       transform="matrix(-3.8930677,0,0,5.070341,166.36626,32.110182)" />
    <path
       sodipodi:type="arc"
       style="fill:#000000;fill-opacity:1;fill-rule:evenodd;stroke:#000000;stroke-width:0.98283428;stroke-linecap:butt;stroke-linejoin:miter;marker:none;marker-start:none;marker-mid:none;marker-end:none;stroke-miterlimit:4;stroke-dasharray:none;stroke-dashoffset:3.2;stroke-opacity:1;visibility:visible;display:inline;overflow:visible;enable-background:accumulate"
       id="path3270"
       sodipodi:cx="5.3010101"
       sodipodi:cy="7.0464644"
       sodipodi:rx="1.6161616"
       sodipodi:ry="2.909091"
       d="M 6.9171717,7.0464644 A 1.6161616,2.909091 0 1 1 3.6848485,7.0464644 A 1.6161616,2.909091 0 1 1 6.9171717,7.0464644 z"
       transform="matrix(-1.8369522,0,0,2.5608034,153.65264,50.119396)" />
    <path
       sodipodi:type="arc"
       style="fill:#ffffff;fill-opacity:1;fill-rule:evenodd;stroke:none;stroke-width:0.47979176;stroke-linecap:butt;stroke-linejoin:miter;marker:none;marker-start:none;marker-mid:none;marker-end:none;stroke-miterlimit:4;stroke-dasharray:none;stroke-dashoffset:3.2;stroke-opacity:1;visibility:visible;display:inline;overflow:visible;enable-background:accumulate"
       id="path3272"
       sodipodi:cx="5.3010101"
       sodipodi:cy="7.0464644"
       sodipodi:rx="1.6161616"
       sodipodi:ry="2.909091"
       d="M 6.9171717,7.0464644 A 1.6161616,2.909091 0 1 1 3.6848485,7.0464644 A 1.6161616,2.909091 0 1 1 6.9171717,7.0464644 z"
       transform="matrix(3.8930677,0,0,5.070341,90.916457,34.093649)" />
    <path
       sodipodi:type="arc"
       style="fill:#000000;fill-opacity:1;fill-rule:evenodd;stroke:#000000;stroke-width:0.98283428;stroke-linecap:butt;stroke-linejoin:miter;marker:none;marker-start:none;marker-mid:none;marker-end:none;stroke-miterlimit:4;stroke-dasharray:none;stroke-dashoffset:3.2;stroke-opacity:1;visibility:visible;display:inline;overflow:visible;enable-background:accumulate"
       id="path3274"
       sodipodi:cx="5.3010101"
       sodipodi:cy="7.0464644"
       sodipodi:rx="1.6161616"
       sodipodi:ry="2.909091"
       d="M 6.9171717,7.0464644 A 1.6161616,2.909091 0 1 1 3.6848485,7.0464644 A 1.6161616,2.909091 0 1 1 6.9171717,7.0464644 z"
       transform="matrix(1.8369522,0,0,2.5608034,103.63008,52.102864)" />
    <path
       style="opacity:1;fill:none;fill-opacity:1;fill-rule:evenodd;stroke:#000000;stroke-width:1.5;stroke-linecap:butt;stroke-linejoin:miter;marker:none;marker-start:none;marker-mid:none;marker-end:none;stroke-miterlimit:4;stroke-dasharray:none;stroke-dashoffset:3.2;stroke-opacity:1;visibility:visible;display:inline;overflow:visible;filter:url(#filter9094);enable-background:accumulate"
       d="M 9.802904,75.102841 C 8.841495,77.792851 8.794884,81.256582 7.771654,81.071591 C 7.577515,83.511596 7.657365,84.819083 7.490404,86.759091 C 9.595153,94.587238 20.504205,94.529327 27.334154,94.946591 C 38.259572,94.946591 47.115404,91.602743 47.115404,87.477841 C 46.897364,84.586987 46.679423,83.732537 46.740404,82.290341 C 45.089065,82.261934 45.771202,77.533708 45.365404,75.321591 C 41.067117,86.368306 14.714796,87.362649 9.427904,77.665341 C 9.428603,76.524198 9.637806,75.748283 9.927904,75.102841 L 9.802904,75.102841 z"
       id="path8082"
       clip-path="url(#clipPath9098)"
       transform="matrix(4.0939311,0,0,4.0939311,18.3948,-137.5722)" />
    <path
       style="opacity:1;fill:none;fill-opacity:1;fill-rule:evenodd;stroke:#000000;stroke-width:1.5;stroke-linecap:butt;stroke-linejoin:miter;marker:none;marker-start:none;marker-mid:none;marker-end:none;stroke-miterlimit:4;stroke-dasharray:none;stroke-dashoffset:3.2;stroke-opacity:1;visibility:visible;display:inline;overflow:visible;filter:url(#filter12024);enable-background:accumulate"
       d="M 10.597917,77.84375 C 9.9805429,81.28079 10.497334,87.006599 8.6291669,86.781251 C 7.4227429,90.741913 9.2039129,94.770261 7.3479169,94.937501 C 7.0703809,97.162892 7.4744019,99.03756 7.4416669,100.59375 C 7.4416659,102.69448 12.00668,103.75 17.097917,103.75 C 22.189154,103.75 26.316665,102.66323 26.316667,100.5625 C 26.316666,100.32616 25.745594,96.079854 25.597917,95.093751 C 24.268038,95.344664 25.396524,90.381795 24.472917,86.468751 C 23.049971,86.537762 23.767352,81.097055 23.410417,78.40625 L 23.254167,78.40625 C 22.46871,79.371294 19.994284,80.0625 17.066667,80.0625 C 13.601259,80.062501 10.744086,79.081245 10.597917,77.84375 z"
       id="path11053"
       clip-path="url(#clipPath12028)"
       transform="matrix(4.0939311,0,0,4.0939311,59.940231,-292.15115)" />
    <path
       style="opacity:1;fill:none;fill-opacity:1;fill-rule:evenodd;stroke:#000000;stroke-width:1.5;stroke-linecap:butt;stroke-linejoin:miter;marker:none;marker-start:none;marker-mid:none;marker-end:none;stroke-miterlimit:4;stroke-dasharray:none;stroke-dashoffset:3.2;stroke-opacity:1;visibility:visible;display:inline;overflow:visible;filter:url(#filter13977);enable-background:accumulate"
       d="M 15.437614,82.214101 C 14.78721,82.938612 14.184579,85.900525 12.656325,85.995351 C 12.550315,87.83563 10.417238,90.227303 9.40628,90.339101 C 9.345471,93.374827 7.252201,93.498236 7.25,97.089099 C 12.582744,106.87038 39.366284,105.78198 43.313002,94.464101 C 42.388071,93.271057 40.245514,91.699517 40.031706,90.089101 C 38.815024,90.085632 36.774338,87.479975 36.656659,86.120351 C 35.62007,86.188472 35.330267,83.940545 34.375377,82.495351 C 33.977285,84.385244 30.044772,85.3391 25.219,85.339101 C 20.127692,85.339099 15.531366,84.314834 15.531365,82.214101 L 15.437614,82.214101 z"
       id="path13006"
       clip-path="url(#clipPath15924)"
       transform="matrix(4.0939311,0,0,4.0939311,27.003312,-216.17167)" />
    <g
       id="g6157"
       transform="matrix(4.0939311,0,0,4.0939311,-177.24199,35.414618)">
      <path
         id="path4147"
         d="M 87.511631,21.045447 C 85.682274,21.459384 84.241913,22.570625 83.667144,23.824701 C 83.170933,23.667247 82.618749,23.563835 82.06437,23.689275 C 80.839232,23.966493 79.948968,24.915736 79.709517,26.048449 C 79.374479,26.044855 79.041829,26.033499 78.698423,26.111203 C 76.377108,26.636455 74.861241,28.926337 75.322657,31.191836 C 75.553364,32.324586 76.212866,33.284877 77.125318,33.855501 C 74.201678,34.798011 72.138214,36.438446 72.420726,37.825553 C 72.628689,38.846631 74.05951,39.412161 75.992494,39.507811 C 75.632654,39.918185 75.368742,40.312274 75.449711,40.709824 C 75.680418,41.842576 77.861766,42.322434 80.312045,41.768 C 81.843467,41.42148 83.045223,40.724416 83.732004,39.997972 C 84.623073,40.194339 85.649357,40.228248 86.722321,39.985465 C 89.473508,39.362944 91.381747,37.340449 91.012614,35.528049 C 90.822511,34.594663 90.093951,33.871004 89.021933,33.488035 C 91.151207,32.432576 92.447689,30.586349 92.069739,28.730657 C 91.926283,28.026303 91.518871,27.389451 90.98806,26.900034 C 92.371269,25.99466 93.21191,24.671061 92.949892,23.384563 C 92.571533,21.526856 90.133855,20.452109 87.511631,21.045447 z"
         style="fill:url(#radialGradient6165);fill-opacity:1;fill-rule:evenodd;stroke:#000000;stroke-width:0.30000001;stroke-linecap:butt;stroke-linejoin:miter;marker:none;marker-start:none;marker-mid:none;marker-end:none;stroke-miterlimit:4;stroke-dasharray:none;stroke-dashoffset:3.2;stroke-opacity:1;visibility:visible;display:inline;overflow:visible;enable-background:accumulate" />
      <path
         transform="matrix(2.4092752,-0.5451551,0.5172093,2.5394529,-14.941576,-28.737025)"
         clip-path="url(#clipPath12574)"
         id="path11567"
         d="M 36.045076,27.242614 C 35.285778,27.242614 34.624475,27.53824 34.295076,27.961364 C 34.110915,27.859826 33.900178,27.773864 33.670076,27.773864 C 33.161567,27.773864 32.731621,28.055364 32.545076,28.461364 C 32.412431,28.431473 32.281361,28.398864 32.138826,28.398864 C 31.175335,28.398864 30.388825,29.131743 30.388826,30.023864 C 30.388826,30.469925 30.572899,30.887589 30.888826,31.180114 C 29.652627,31.285881 28.701326,31.727641 28.701326,32.273864 C 28.701326,32.67595 29.223342,33.010711 29.982576,33.211364 C 29.806637,33.335194 29.670076,33.461064 29.670076,33.617614 C 29.670076,34.063675 30.496807,34.430114 31.513826,34.430114 C 32.149462,34.430114 32.682622,34.270076 33.013826,34.055114 C 33.351513,34.204933 33.755979,34.305114 34.201326,34.305114 C 35.343241,34.305114 36.263827,33.706311 36.263826,32.992614 C 36.263826,32.62506 36.03323,32.29059 35.638826,32.055114 C 36.568966,31.839167 37.232577,31.254609 37.232576,30.523864 C 37.232576,30.2465 37.122389,29.972062 36.951326,29.742614 C 37.573316,29.519616 38.013825,29.092968 38.013826,28.586364 C 38.013826,27.854825 37.133463,27.242614 36.045076,27.242614 z"
         style="fill:none;fill-opacity:1;fill-rule:evenodd;stroke:#000000;stroke-width:0.79055709;stroke-linecap:butt;stroke-linejoin:miter;marker:none;marker-start:none;marker-mid:none;marker-end:none;stroke-miterlimit:4;stroke-dasharray:none;stroke-dashoffset:3.2;stroke-opacity:1;visibility:visible;display:inline;overflow:visible;filter:url(#filter12570);enable-background:accumulate" />
      <path
         id="path4135"
         d="M 69.26452,22.380886 C 67.48445,21.718638 65.743218,21.855006 64.68057,22.563921 C 62.978129,22.093539 61.31117,22.672874 60.868327,24.064104 C 60.715968,24.542755 60.806186,25.064129 60.949957,25.553712 C 59.748545,25.631389 58.710609,26.103487 58.420152,27.015985 C 58.14234,27.888756 58.640012,28.882848 59.464333,29.722064 C 58.904262,30.04345 58.50028,30.505801 58.312387,31.096085 C 57.754451,32.848894 59.34718,35.08624 61.900756,36.036254 C 62.171135,36.136844 62.438645,36.184755 62.706089,36.250029 C 63.352707,37.38922 64.515211,38.382322 66.05331,38.954549 C 66.756341,39.216101 67.447766,39.431886 68.114351,39.463814 C 68.157081,40.681933 69.202651,41.928797 70.722636,42.494285 C 72.546616,43.172868 74.348063,42.57874 74.794412,41.176494 C 75.240762,39.774244 74.158986,38.107457 72.335006,37.428873 C 72.259932,37.400943 72.197069,37.373312 72.122031,37.349639 C 72.131065,37.32396 72.138153,37.298989 72.146461,37.27289 C 72.538759,36.040448 72.002822,34.590017 70.898501,33.460947 C 71.828604,33.056361 72.533926,32.31409 72.840544,31.350821 C 73.191305,30.248872 72.916509,29.067278 72.229206,28.033235 C 72.504386,27.778639 72.716596,27.499797 72.830758,27.141147 C 73.360797,25.475979 71.77756,23.315825 69.26452,22.380886 z"
         style="fill:url(#radialGradient6167);fill-opacity:1;fill-rule:evenodd;stroke:#000000;stroke-width:0.30000001;stroke-linecap:butt;stroke-linejoin:miter;marker:none;marker-start:none;marker-mid:none;marker-end:none;stroke-miterlimit:4;stroke-dasharray:none;stroke-dashoffset:3.2;stroke-opacity:1;visibility:visible;display:inline;overflow:visible;enable-background:accumulate" />
      <path
         transform="matrix(2.2717158,0.8451573,-0.7817552,2.4559569,83.322014,-26.3364)"
         clip-path="url(#clipPath11561)"
         id="path10512"
         d="M 0.15994308,19.451641 C -0.62363672,19.451641 -1.2918777,19.737125 -1.6213069,20.139141 C -2.3502949,20.198478 -2.9338071,20.635168 -2.9338069,21.201641 C -2.9338069,21.396535 -2.8329794,21.574126 -2.7150569,21.732891 C -3.1781847,21.923894 -3.5275567,22.236347 -3.5275567,22.607891 C -3.5275567,22.963261 -3.2071377,23.257764 -2.7775569,23.451641 C -2.9577293,23.644503 -3.0588067,23.867543 -3.0588067,24.107891 C -3.0588067,24.821588 -2.1516298,25.420392 -1.0275569,25.420391 C -0.90853742,25.420391 -0.79724622,25.401601 -0.68380692,25.389141 C -0.28658652,25.716295 0.29537838,25.920391 0.97244308,25.920391 C 1.2819141,25.920391 1.5810849,25.905301 1.8474431,25.826641 C 2.0168707,26.264322 2.5846022,26.576641 3.2536931,26.576641 C 4.0566022,26.576641 4.6911931,26.116349 4.6911931,25.545391 C 4.6911931,24.974433 4.0566022,24.514141 3.2536931,24.514141 C 3.2206466,24.514141 3.1924423,24.512596 3.1599431,24.514141 C 3.1602813,24.503568 3.1599431,24.493518 3.1599431,24.482891 C 3.1599431,23.981073 2.7672916,23.525618 2.1911931,23.264141 C 2.5065819,22.990871 2.6911931,22.625109 2.6911931,22.232891 C 2.6911931,21.784207 2.4350043,21.391255 2.0349431,21.107891 C 2.1113546,20.977931 2.1599431,20.847674 2.1599431,20.701641 C 2.1599431,20.023629 1.2661735,19.451641 0.15994308,19.451641 z"
         style="fill:none;fill-opacity:1;fill-rule:evenodd;stroke:#000000;stroke-width:0.80064446;stroke-linecap:butt;stroke-linejoin:miter;marker:none;marker-start:none;marker-mid:none;marker-end:none;stroke-miterlimit:4;stroke-dasharray:none;stroke-dashoffset:3.2;stroke-opacity:1;visibility:visible;display:inline;overflow:visible;filter:url(#filter11557);enable-background:accumulate" />
      <path
         id="path4163"
         d="M 71.892969,23.196801 C 69.706814,23.196801 67.913886,24.322675 67.913887,25.712944 C 67.913887,26.472356 68.503612,27.117862 69.34035,27.57976 C 68.924128,28.089555 68.565828,28.661597 68.514503,29.365411 C 67.943376,30.010972 67.61358,30.785131 67.613579,31.638057 C 67.613579,33.816144 69.793041,35.615186 72.493585,35.615186 C 75.194128,35.615186 77.373589,33.816144 77.373589,31.638057 C 77.700368,31.708942 78.073291,31.719222 78.424667,31.719222 C 80.782285,31.719222 82.704056,30.070993 82.704056,27.985589 C 82.704056,25.900187 80.782285,24.170792 78.424667,24.170792 C 77.393209,24.170792 76.460277,24.524535 75.721895,25.063617 C 75.260579,23.997874 73.714765,23.196801 71.892969,23.196801 z"
         style="fill:url(#radialGradient6169);fill-opacity:1;fill-rule:evenodd;stroke:#000000;stroke-width:0.30000001;stroke-linecap:butt;stroke-linejoin:miter;marker:none;marker-start:none;marker-mid:none;marker-end:none;stroke-miterlimit:4;stroke-dasharray:none;stroke-dashoffset:3.2;stroke-opacity:1;visibility:visible;display:inline;overflow:visible;enable-background:accumulate" />
      <path
         transform="matrix(2.4024641,0,0,2.5973092,60.228614,3.5029101)"
         clip-path="url(#clipPath10508)"
         id="path10456"
         d="M 4.4588068,7.3709912 C 3.5488432,7.3709912 2.8025564,7.8044682 2.8025568,8.3397412 C 2.8025568,8.6321252 3.0480234,8.8806542 3.3963068,9.0584912 C 3.2230587,9.2547692 3.0739203,9.4750132 3.0525568,9.7459912 C 2.814831,9.9945412 2.6775569,10.292603 2.6775568,10.620991 C 2.6775568,11.459585 3.5847343,12.152241 4.7088068,12.152241 C 5.8328795,12.152241 6.740057,11.459585 6.7400568,10.620991 C 6.876075,10.648283 7.0313004,10.652241 7.1775568,10.652241 C 8.1588901,10.652241 8.9588069,10.01765 8.9588068,9.2147412 C 8.9588068,8.4118322 8.1588901,7.7459912 7.1775568,7.7459912 C 6.7482235,7.7459912 6.3599005,7.8821872 6.0525568,8.0897412 C 5.8605389,7.6794152 5.21711,7.3709912 4.4588068,7.3709912 z"
         style="fill:none;fill-opacity:1;fill-rule:evenodd;stroke:#000000;stroke-width:0.80064452;stroke-linecap:butt;stroke-linejoin:miter;marker:none;marker-start:none;marker-mid:none;marker-end:none;stroke-miterlimit:4;stroke-dasharray:none;stroke-dashoffset:3.2;stroke-opacity:1;visibility:visible;display:inline;overflow:visible;filter:url(#filter10504);enable-background:accumulate" />
    </g>
    <path
       style="opacity:1;fill:#ffffff;fill-opacity:1;fill-rule:evenodd;stroke:#333333;stroke-width:1.38414383;stroke-linecap:butt;stroke-linejoin:miter;marker:none;marker-start:none;marker-mid:none;marker-end:none;stroke-miterlimit:4;stroke-dasharray:none;stroke-dashoffset:3.2;stroke-opacity:1;visibility:visible;display:inline;overflow:visible;filter:url(#filter18907);enable-background:accumulate"
       d="M 14.906311,93.659427 C 12.469077,93.659427 10.44931,95.030867 10.44931,96.677439 C 10.44931,96.903843 10.504014,97.136104 10.574859,97.348109 C 8.912827,97.850532 7.75,98.922617 7.75,100.16492 C 7.75,101.88808 9.985232,103.25 12.709198,103.25 C 14.571377,103.25 16.137741,102.60448 16.977874,101.64039 C 17.660814,101.77005 18.39155,101.84159 19.174988,101.84159 C 22.400736,101.84159 25.01303,100.65232 25.01303,99.158916 C 25.01303,97.685109 22.467878,96.507471 19.300536,96.476239 C 19.146878,94.923589 17.243231,93.659427 14.906311,93.659427 z"
       id="path3284"
       clip-path="url(#clipPath21830)"
       transform="matrix(4.7655172,0,0,4.13039,55.474972,-380.69856)" />
    <path
       sodipodi:type="spiral"
       style="fill:none;fill-rule:evenodd;stroke:#333333;stroke-width:1.47985065;stroke-linecap:round;stroke-linejoin:miter;stroke-miterlimit:4;stroke-dasharray:none;stroke-opacity:1;filter:url(#filter18903)"
       id="path9102"
       sodipodi:cx="14.353554"
       sodipodi:cy="10.88271"
       sodipodi:expansion="1.84"
       sodipodi:revolution="1.5"
       sodipodi:radius="7.7457147"
       sodipodi:argument="-0.39386258"
       sodipodi:t0="0.31462139"
       d="M 13.576963,11.38072 C 12.744291,10.983408 12.804951,9.8355843 13.264793,9.1849086 C 14.205829,7.8533438 16.160036,8.0356853 17.287849,9.0010147 C 19.216192,10.651542 18.862233,13.645298 17.220806,15.353872 C 14.700892,17.976871 10.445289,17.401888 8.0560672,14.921143 C 7.7396234,14.592577 7.4534161,14.235063 7.2009001,13.855191"
       transform="matrix(-1.1559415,-1.6725383,-1.9091761,0.9617934,169.67904,36.004013)"
       clip-path="url(#clipPath21826)" />
    <path
       sodipodi:type="spiral"
       style="fill:none;fill-rule:evenodd;stroke:#333333;stroke-width:1.83781993;stroke-linecap:round;stroke-linejoin:miter;stroke-miterlimit:4;stroke-dasharray:none;stroke-opacity:1;filter:url(#filter18899)"
       id="path11042"
       sodipodi:cx="14.353554"
       sodipodi:cy="10.88271"
       sodipodi:expansion="1.84"
       sodipodi:revolution="1.5"
       sodipodi:radius="7.7457147"
       sodipodi:argument="-0.39386258"
       sodipodi:t0="0.88430202"
       d="M 13.819837,17.037024 C 11.20435,17.381045 8.6380947,16.017232 7.2009001,13.855191"
       transform="matrix(-1.3918326,1.0127166,1.1378869,1.177503,140.38938,-2.9220746)"
       clip-path="url(#clipPath21822)" />
    <path
       sodipodi:type="spiral"
       style="fill:none;fill-rule:evenodd;stroke:#333333;stroke-width:1.83781993;stroke-linecap:round;stroke-linejoin:miter;stroke-miterlimit:4;stroke-dasharray:none;stroke-opacity:1;filter:url(#filter18895)"
       id="path11044"
       sodipodi:cx="14.353554"
       sodipodi:cy="10.88271"
       sodipodi:expansion="1.84"
       sodipodi:revolution="1.5"
       sodipodi:radius="7.7457147"
       sodipodi:argument="-0.39386258"
       sodipodi:t0="0.88430202"
       d="M 13.819837,17.037024 C 11.20435,17.381045 8.6380947,16.017232 7.2009001,13.855191"
       transform="matrix(1.5948441,0.7550593,-0.8477667,1.3488037,108.26934,-2.011918)"
       clip-path="url(#clipPath21818)" />
  </g>
</svg>
