<?xml version="1.0" encoding="UTF-8" standalone="no"?>
<!-- Created with Inkscape (http://www.inkscape.org/) -->
<svg
   xmlns:dc="http://purl.org/dc/elements/1.1/"
   xmlns:cc="http://creativecommons.org/ns#"
   xmlns:rdf="http://www.w3.org/1999/02/22-rdf-syntax-ns#"
   xmlns:svg="http://www.w3.org/2000/svg"
   xmlns="http://www.w3.org/2000/svg"
   xmlns:xlink="http://www.w3.org/1999/xlink"
   xmlns:sodipodi="http://sodipodi.sourceforge.net/DTD/sodipodi-0.dtd"
   xmlns:inkscape="http://www.inkscape.org/namespaces/inkscape"
   width="16"
   height="16"
   id="svg2"
   sodipodi:version="0.32"
   inkscape:version="0.46"
   sodipodi:docname="tree3.svg"
   version="1.0"
   inkscape:output_extension="org.inkscape.output.svg.inkscape"
   inkscape:export-filename="C:\Dokumente und Einstellungen\Frosty\Desktop\SMC\Drafts\Game\Frostbringer\overworld\gras\tree3.png"
   inkscape:export-xdpi="360"
   inkscape:export-ydpi="360">
  <sodipodi:namedview
     id="base"
     pagecolor="#ffffff"
     bordercolor="#666666"
     borderopacity="1.0"
     inkscape:pageopacity="0.0"
     inkscape:pageshadow="2"
     inkscape:zoom="7.65625"
     inkscape:cx="32"
     inkscape:cy="32"
     inkscape:document-units="px"
     inkscape:current-layer="layer1"
     showgrid="false"
     inkscape:window-width="1024"
     inkscape:window-height="696"
     inkscape:window-x="-4"
     inkscape:window-y="-4" />
  <defs
     id="defs4">
    <linearGradient
       id="linearGradient3685">
      <stop
         style="stop-color:#00f100;stop-opacity:1;"
         offset="0"
         id="stop3687" />
      <stop
         style="stop-color:#009e00;stop-opacity:1;"
         offset="1"
         id="stop3689" />
    </linearGradient>
    <inkscape:perspective
       id="perspective10"
       inkscape:persp3d-origin="372.04724 : 350.78739 : 1"
       inkscape:vp_z="744.09448 : 526.18109 : 1"
       inkscape:vp_y="0 : 1000 : 0"
       inkscape:vp_x="0 : 526.18109 : 1"
       sodipodi:type="inkscape:persp3d" />
    <clipPath
       clipPathUnits="userSpaceOnUse"
       id="clipPath3541">
      <path
         style="fill:#008000;fill-opacity:1;fill-rule:evenodd;stroke:none;stroke-width:0.30000001;stroke-linecap:round;stroke-linejoin:miter;marker:none;marker-start:none;marker-mid:none;marker-end:none;stroke-miterlimit:4.00549984;stroke-dashoffset:0;stroke-opacity:1;visibility:visible;display:inline;overflow:visible;enable-background:accumulate"
         d="M 7.59375,115.96875 C 3.351484,116.52181 -9.9999978e-07,125.55826 2.2026825e-13,136.59375 C 0.017826,136.594 0.013503,136.5935 0.03125,136.59375 C -0.136162,142.20862 0.552113,146.52136 1.09375,146.53125 C 1.526246,146.53915 1.889616,143.72662 2.09375,139.59375 C 2.247559,146.9046 2.526242,152 2.8125,152 C 3.094322,152 3.314303,147.0572 3.46875,139.9375 C 3.672455,141.9464 3.964556,143.1875 4.25,143.1875 C 4.541401,143.1875 4.794533,141.89724 5,139.8125 C 5.117255,148.78744 5.42275,155.125 5.75,155.125 C 6.112363,155.125 6.410467,147.20846 6.5,136.6875 C 6.505221,136.68755 6.526072,136.68745 6.53125,136.6875 C 6.54389,151.84437 6.750959,164 7.03125,164 C 7.311542,164 7.549858,151.84437 7.5625,136.6875 C 7.602039,136.6865 7.697973,136.65774 7.71875,136.65625 C 7.763792,149.41151 8.255711,159.5625 8.875,159.5625 C 9.49482,159.5625 9.986966,149.39583 10.03125,136.625 C 10.100161,136.62422 10.330683,136.62573 10.40625,136.625 C 10.481083,149.82635 10.804744,160.03125 11.21875,160.03125 C 11.632757,160.03125 11.956418,149.82635 12.03125,136.625 C 12.193276,136.62426 12.412847,136.59434 12.59375,136.59375 C 12.618313,151.11758 12.853012,162.625 13.125,162.625 C 13.396985,162.625 13.600436,151.11758 13.625,136.59375 C 13.63712,136.59373 13.644064,136.59377 13.65625,136.59375 C 13.74895,143.19357 14.229808,148.3125 14.8125,148.3125 C 15.39519,148.3125 15.876049,143.19357 15.96875,136.59375 C 16.021421,136.59384 16.009114,136.59365 16.0625,136.59375 C 16.0625,135.88178 16.02744,135.16222 16,134.46875 C 15.998736,134.43681 16.00132,134.40689 16,134.375 C 15.571257,124.01893 12.175386,115.96875 8.03125,115.96875 C 7.892687,115.96875 7.730597,115.95091 7.59375,115.96875 z"
         id="path3543" />
    </clipPath>
    <filter
       inkscape:collect="always"
       id="filter3681">
      <feGaussianBlur
         inkscape:collect="always"
         stdDeviation="0.46960937"
         id="feGaussianBlur3683" />
    </filter>
    <radialGradient
       inkscape:collect="always"
       xlink:href="#linearGradient3685"
       id="radialGradient3691"
       cx="13.665392"
       cy="133.91364"
       fx="13.665392"
       fy="133.91364"
       r="8.28125"
       gradientTransform="matrix(0.6056071,-2.2257331e-3,4.2790388e-3,1.1642979,1.6527784,-29.085151)"
       gradientUnits="userSpaceOnUse" />
    <radialGradient
       inkscape:collect="always"
       xlink:href="#linearGradient3685"
       id="radialGradient3695"
       gradientUnits="userSpaceOnUse"
       gradientTransform="matrix(0.6056071,-2.2257331e-3,4.2790388e-3,1.1642979,1.6527784,-29.085151)"
       cx="7.1897831"
       cy="134.68652"
       fx="7.1897831"
       fy="134.68652"
       r="8.28125" />
    <radialGradient
       inkscape:collect="always"
       xlink:href="#linearGradient3685"
       id="radialGradient3701"
       gradientUnits="userSpaceOnUse"
       gradientTransform="matrix(0.6056071,-2.2257331e-3,4.2790388e-3,1.1642979,1.6527784,-29.085151)"
       cx="7.1897831"
       cy="134.68652"
       fx="7.1897831"
       fy="134.68652"
       r="8.28125" />
    <radialGradient
       inkscape:collect="always"
       xlink:href="#linearGradient3685"
       id="radialGradient3703"
       gradientUnits="userSpaceOnUse"
       gradientTransform="matrix(0.6056071,-2.2257331e-3,4.2790388e-3,1.1642979,1.6527784,-29.085151)"
       cx="13.665392"
       cy="133.91364"
       fx="13.665392"
       fy="133.91364"
       r="8.28125" />
    <radialGradient
       inkscape:collect="always"
       xlink:href="#linearGradient3685"
       id="radialGradient3709"
       gradientUnits="userSpaceOnUse"
       gradientTransform="matrix(0.6056071,-2.2257331e-3,4.2790388e-3,1.1642979,1.6527784,-29.085151)"
       cx="7.1897831"
       cy="134.68652"
       fx="7.1897831"
       fy="134.68652"
       r="8.28125" />
    <radialGradient
       inkscape:collect="always"
       xlink:href="#linearGradient3685"
       id="radialGradient3711"
       gradientUnits="userSpaceOnUse"
       gradientTransform="matrix(0.6056071,-2.2257331e-3,4.2790388e-3,1.1642979,1.6527784,-29.085151)"
       cx="13.665392"
       cy="133.91364"
       fx="13.665392"
       fy="133.91364"
       r="8.28125" />
    <radialGradient
       inkscape:collect="always"
       xlink:href="#linearGradient3685"
       id="radialGradient3717"
       gradientUnits="userSpaceOnUse"
       gradientTransform="matrix(0.6056071,-2.2257331e-3,4.2790388e-3,1.1642979,1.6527784,-29.085151)"
       cx="7.1897831"
       cy="134.68652"
       fx="7.1897831"
       fy="134.68652"
       r="8.28125" />
    <radialGradient
       inkscape:collect="always"
       xlink:href="#linearGradient3685"
       id="radialGradient3719"
       gradientUnits="userSpaceOnUse"
       gradientTransform="matrix(0.6056071,-2.2257331e-3,4.2790388e-3,1.1642979,1.6527784,-29.085151)"
       cx="13.665392"
       cy="133.91364"
       fx="13.665392"
       fy="133.91364"
       r="8.28125" />
    <radialGradient
       inkscape:collect="always"
       xlink:href="#linearGradient3685"
       id="radialGradient3725"
       gradientUnits="userSpaceOnUse"
       gradientTransform="matrix(0.6056071,-2.2257331e-3,4.2790388e-3,1.1642979,1.6527784,-29.085151)"
       cx="7.1897831"
       cy="134.68652"
       fx="7.1897831"
       fy="134.68652"
       r="8.28125" />
    <radialGradient
       inkscape:collect="always"
       xlink:href="#linearGradient3685"
       id="radialGradient3727"
       gradientUnits="userSpaceOnUse"
       gradientTransform="matrix(0.6056071,-2.2257331e-3,4.2790388e-3,1.1642979,1.6527784,-29.085151)"
       cx="13.665392"
       cy="133.91364"
       fx="13.665392"
       fy="133.91364"
       r="8.28125" />
    <filter
       inkscape:collect="always"
       id="filter3773">
      <feGaussianBlur
         inkscape:collect="always"
         stdDeviation="0.69839453"
         id="feGaussianBlur3775" />
    </filter>
    <clipPath
       clipPathUnits="userSpaceOnUse"
       id="clipPath3777">
      <path
         style="fill:#803300;fill-opacity:1;fill-rule:evenodd;stroke:none;stroke-width:6.54058504;stroke-linecap:round;stroke-linejoin:miter;stroke-miterlimit:4;stroke-dasharray:none;stroke-opacity:1"
         d="M 49.686366,68.1436 C 49.167559,68.208025 48.720981,68.530057 48.467616,68.98735 C 48.214249,69.444644 48.18464,69.982073 48.405116,70.4561 L 50.436366,75.23735 C 50.449717,75.268937 50.452563,75.300797 50.467616,75.3311 C 50.457412,75.341711 50.446437,75.35159 50.436366,75.36235 L 34.342616,91.79985 C 34.022172,92.117984 33.787184,92.488325 33.623866,92.8936 C 33.509352,92.888769 33.395486,92.858374 33.280116,92.86235 C 33.151199,92.866752 33.032195,92.909563 32.905116,92.92485 C 32.794801,92.711572 32.660249,92.522369 32.498866,92.3311 L 26.873866,85.5811 C 26.658822,85.316418 26.401459,85.106921 26.123866,84.92485 L 27.936366,81.6436 C 28.241147,81.110347 28.20999,80.438922 27.873866,79.92485 C 27.537741,79.410776 26.953338,79.140755 26.342616,79.2061 C 25.795548,79.263706 25.314098,79.592502 25.061366,80.0811 L 23.123866,83.67485 C 22.894417,83.990665 22.786238,84.362326 22.811366,84.73735 C 22.299316,84.99907 21.875491,85.404519 21.561366,85.8936 C 21.466371,85.883038 21.378711,85.887049 21.280116,85.8936 C 21.238055,85.902371 21.196356,85.912795 21.155116,85.92485 L 16.530116,86.61235 C 15.911908,86.651975 15.364831,87.041659 15.123867,87.61235 C 14.882903,88.183043 15.002383,88.829151 15.405117,89.29985 C 15.807851,89.770548 16.429019,89.980881 17.030116,89.8311 L 21.405116,89.17485 C 21.522019,89.395805 21.673775,89.606781 21.842616,89.79985 L 27.498866,96.54985 C 27.89513,97.019496 28.394388,97.333258 28.936366,97.5186 C 28.936737,97.529245 28.935919,97.5392 28.936366,97.54985 L 29.186366,107.5811 C 29.187894,107.64565 29.213412,107.70477 29.217616,107.7686 C 29.010124,107.79702 28.8113,107.84738 28.623866,107.9561 C 26.695764,109.12072 21.137271,113.15974 21.561366,113.92485 C 21.879871,114.49946 28.164952,111.34746 30.186366,110.79985 C 30.298679,110.7415 30.404939,110.69281 30.498866,110.61235 C 31.341667,111.47293 32.512108,112.01893 33.811366,111.98735 C 34.88758,111.96119 35.833617,111.54258 36.592616,110.8936 C 36.642384,110.92794 36.694812,110.95833 36.748866,110.98735 C 38.752207,112.01718 45.13274,114.62492 45.561366,113.86235 C 45.883275,113.28964 39.901,109.57672 38.373866,108.1436 C 38.294082,108.09587 38.208944,108.08288 38.123866,108.04985 C 38.153272,107.82267 38.192254,107.59848 38.186366,107.36235 L 37.936366,97.3311 C 37.935877,97.257455 37.909187,97.185533 37.905116,97.11235 C 38.307652,96.943577 38.685424,96.717969 38.998866,96.3936 L 55.092616,79.92485 C 55.406761,79.613398 55.648688,79.253781 55.811366,78.86235 L 58.280116,79.7061 C 59.134431,79.999501 60.080465,79.560415 60.373866,78.7061 C 60.667267,77.851785 60.196931,76.905751 59.342616,76.61235 L 55.217616,75.2061 C 55.112588,75.168238 55.015064,75.128057 54.905116,75.11235 C 54.52386,74.788547 54.078168,74.578691 53.592616,74.4561 C 53.5792,74.28392 53.538553,74.123926 53.467616,73.9561 L 51.405116,69.1436 C 51.123944,68.460219 50.419417,68.050313 49.686366,68.1436 z"
         id="path3779" />
    </clipPath>
  </defs>
  <metadata
     id="metadata7">
    <rdf:RDF>
      <cc:Work
         rdf:about="">
        <dc:format>image/svg+xml</dc:format>
        <dc:type
           rdf:resource="http://purl.org/dc/dcmitype/StillImage" />
      </cc:Work>
    </rdf:RDF>
  </metadata>
  <g
     id="layer1"
     inkscape:groupmode="layer"
     inkscape:label="Ebene 1">
    <path
       style="fill:url(#radialGradient3701);fill-opacity:1;fill-rule:evenodd;stroke:#0e5e00;stroke-width:1;stroke-linecap:round;stroke-linejoin:miter;marker:none;marker-start:none;marker-mid:none;marker-end:none;stroke-miterlimit:4.01000023;stroke-dasharray:none;stroke-dashoffset:0;stroke-opacity:1;visibility:visible;display:inline;overflow:visible;filter:url(#filter3681);enable-background:accumulate"
       d="M 7.59375,115.96875 C 3.351484,116.52181 -9.9999978e-07,125.55826 2.2382096e-13,136.59375 C 0.017826,136.594 0.013503,136.5935 0.03125,136.59375 C -0.136162,142.20862 0.552113,146.52136 1.09375,146.53125 C 1.526246,146.53915 1.889616,143.72662 2.09375,139.59375 C 2.247559,146.9046 2.526242,152 2.8125,152 C 3.094322,152 3.314303,147.0572 3.46875,139.9375 C 3.672455,141.9464 3.964556,143.1875 4.25,143.1875 C 4.541401,143.1875 4.794533,141.89724 5,139.8125 C 5.117255,148.78744 5.42275,155.125 5.75,155.125 C 6.112363,155.125 6.410467,147.20846 6.5,136.6875 C 6.505221,136.68755 6.526072,136.68745 6.53125,136.6875 C 6.54389,151.84437 6.750959,164 7.03125,164 C 7.311542,164 7.549858,151.84437 7.5625,136.6875 C 7.602039,136.6865 7.697973,136.65774 7.71875,136.65625 C 7.763792,149.41151 8.255711,159.5625 8.875,159.5625 C 9.49482,159.5625 9.986966,149.39583 10.03125,136.625 C 10.100161,136.62422 10.330683,136.62573 10.40625,136.625 C 10.481083,149.82635 10.804744,160.03125 11.21875,160.03125 C 11.632757,160.03125 11.956418,149.82635 12.03125,136.625 C 12.193276,136.62426 12.412847,136.59434 12.59375,136.59375 C 12.618313,151.11758 12.853012,162.625 13.125,162.625 C 13.396985,162.625 13.600436,151.11758 13.625,136.59375 C 13.63712,136.59373 13.644064,136.59377 13.65625,136.59375 C 13.74895,143.19357 14.229808,148.3125 14.8125,148.3125 C 15.39519,148.3125 15.876049,143.19357 15.96875,136.59375 C 16.021421,136.59384 16.009114,136.59365 16.0625,136.59375 C 16.0625,135.88178 16.02744,135.16222 16,134.46875 C 15.998736,134.43681 16.00132,134.40689 16,134.375 C 15.571257,124.01893 12.175386,115.96875 8.03125,115.96875 C 7.892687,115.96875 7.730597,115.95091 7.59375,115.96875 z"
       id="path3697"
       clip-path="url(#clipPath3541)"
       transform="matrix(0.2520754,0,0,0.2520754,0.4609032,-25.979109)" />
    <path
       style="fill:url(#radialGradient3717);fill-opacity:1;fill-rule:evenodd;stroke:#0e5e00;stroke-width:1;stroke-linecap:round;stroke-linejoin:miter;marker:none;marker-start:none;marker-mid:none;marker-end:none;stroke-miterlimit:4.01000023;stroke-dasharray:none;stroke-dashoffset:0;stroke-opacity:1;visibility:visible;display:inline;overflow:visible;filter:url(#filter3681);enable-background:accumulate"
       d="M 7.59375,115.96875 C 3.351484,116.52181 -9.9999978e-07,125.55826 2.2382096e-13,136.59375 C 0.017826,136.594 0.013503,136.5935 0.03125,136.59375 C -0.136162,142.20862 0.552113,146.52136 1.09375,146.53125 C 1.526246,146.53915 1.889616,143.72662 2.09375,139.59375 C 2.247559,146.9046 2.526242,152 2.8125,152 C 3.094322,152 3.314303,147.0572 3.46875,139.9375 C 3.672455,141.9464 3.964556,143.1875 4.25,143.1875 C 4.541401,143.1875 4.794533,141.89724 5,139.8125 C 5.117255,148.78744 5.42275,155.125 5.75,155.125 C 6.112363,155.125 6.410467,147.20846 6.5,136.6875 C 6.505221,136.68755 6.526072,136.68745 6.53125,136.6875 C 6.54389,151.84437 6.750959,164 7.03125,164 C 7.311542,164 7.549858,151.84437 7.5625,136.6875 C 7.602039,136.6865 7.697973,136.65774 7.71875,136.65625 C 7.763792,149.41151 8.255711,159.5625 8.875,159.5625 C 9.49482,159.5625 9.986966,149.39583 10.03125,136.625 C 10.100161,136.62422 10.330683,136.62573 10.40625,136.625 C 10.481083,149.82635 10.804744,160.03125 11.21875,160.03125 C 11.632757,160.03125 11.956418,149.82635 12.03125,136.625 C 12.193276,136.62426 12.412847,136.59434 12.59375,136.59375 C 12.618313,151.11758 12.853012,162.625 13.125,162.625 C 13.396985,162.625 13.600436,151.11758 13.625,136.59375 C 13.63712,136.59373 13.644064,136.59377 13.65625,136.59375 C 13.74895,143.19357 14.229808,148.3125 14.8125,148.3125 C 15.39519,148.3125 15.876049,143.19357 15.96875,136.59375 C 16.021421,136.59384 16.009114,136.59365 16.0625,136.59375 C 16.0625,135.88178 16.02744,135.16222 16,134.46875 C 15.998736,134.43681 16.00132,134.40689 16,134.375 C 15.571257,124.01893 12.175386,115.96875 8.03125,115.96875 C 7.892687,115.96875 7.730597,115.95091 7.59375,115.96875 z"
       id="path3713"
       clip-path="url(#clipPath3541)"
       transform="matrix(0.2520754,0,0,0.2520754,8.6260905,-28.678888)" />
    <path
       style="fill:url(#radialGradient3709);fill-opacity:1;fill-rule:evenodd;stroke:#0e5e00;stroke-width:1;stroke-linecap:round;stroke-linejoin:miter;marker:none;marker-start:none;marker-mid:none;marker-end:none;stroke-miterlimit:4.01000023;stroke-dasharray:none;stroke-dashoffset:0;stroke-opacity:1;visibility:visible;display:inline;overflow:visible;filter:url(#filter3681);enable-background:accumulate"
       d="M 7.59375,115.96875 C 3.351484,116.52181 -9.9999978e-07,125.55826 2.2382096e-13,136.59375 C 0.017826,136.594 0.013503,136.5935 0.03125,136.59375 C -0.136162,142.20862 0.552113,146.52136 1.09375,146.53125 C 1.526246,146.53915 1.889616,143.72662 2.09375,139.59375 C 2.247559,146.9046 2.526242,152 2.8125,152 C 3.094322,152 3.314303,147.0572 3.46875,139.9375 C 3.672455,141.9464 3.964556,143.1875 4.25,143.1875 C 4.541401,143.1875 4.794533,141.89724 5,139.8125 C 5.117255,148.78744 5.42275,155.125 5.75,155.125 C 6.112363,155.125 6.410467,147.20846 6.5,136.6875 C 6.505221,136.68755 6.526072,136.68745 6.53125,136.6875 C 6.54389,151.84437 6.750959,164 7.03125,164 C 7.311542,164 7.549858,151.84437 7.5625,136.6875 C 7.602039,136.6865 7.697973,136.65774 7.71875,136.65625 C 7.763792,149.41151 8.255711,159.5625 8.875,159.5625 C 9.49482,159.5625 9.986966,149.39583 10.03125,136.625 C 10.100161,136.62422 10.330683,136.62573 10.40625,136.625 C 10.481083,149.82635 10.804744,160.03125 11.21875,160.03125 C 11.632757,160.03125 11.956418,149.82635 12.03125,136.625 C 12.193276,136.62426 12.412847,136.59434 12.59375,136.59375 C 12.618313,151.11758 12.853012,162.625 13.125,162.625 C 13.396985,162.625 13.600436,151.11758 13.625,136.59375 C 13.63712,136.59373 13.644064,136.59377 13.65625,136.59375 C 13.74895,143.19357 14.229808,148.3125 14.8125,148.3125 C 15.39519,148.3125 15.876049,143.19357 15.96875,136.59375 C 16.021421,136.59384 16.009114,136.59365 16.0625,136.59375 C 16.0625,135.88178 16.02744,135.16222 16,134.46875 C 15.998736,134.43681 16.00132,134.40689 16,134.375 C 15.571257,124.01893 12.175386,115.96875 8.03125,115.96875 C 7.892687,115.96875 7.730597,115.95091 7.59375,115.96875 z"
       id="path3705"
       clip-path="url(#clipPath3541)"
       transform="matrix(0.2520754,0,0,0.2520754,3.7533176,-27.691166)" />
    <path
       style="fill:url(#radialGradient3725);fill-opacity:1;fill-rule:evenodd;stroke:#0e5e00;stroke-width:1;stroke-linecap:round;stroke-linejoin:miter;marker:none;marker-start:none;marker-mid:none;marker-end:none;stroke-miterlimit:4.01000023;stroke-dasharray:none;stroke-dashoffset:0;stroke-opacity:1;visibility:visible;display:inline;overflow:visible;filter:url(#filter3681);enable-background:accumulate"
       d="M 7.59375,115.96875 C 3.351484,116.52181 -9.9999978e-07,125.55826 2.2382096e-13,136.59375 C 0.017826,136.594 0.013503,136.5935 0.03125,136.59375 C -0.136162,142.20862 0.552113,146.52136 1.09375,146.53125 C 1.526246,146.53915 1.889616,143.72662 2.09375,139.59375 C 2.247559,146.9046 2.526242,152 2.8125,152 C 3.094322,152 3.314303,147.0572 3.46875,139.9375 C 3.672455,141.9464 3.964556,143.1875 4.25,143.1875 C 4.541401,143.1875 4.794533,141.89724 5,139.8125 C 5.117255,148.78744 5.42275,155.125 5.75,155.125 C 6.112363,155.125 6.410467,147.20846 6.5,136.6875 C 6.505221,136.68755 6.526072,136.68745 6.53125,136.6875 C 6.54389,151.84437 6.750959,164 7.03125,164 C 7.311542,164 7.549858,151.84437 7.5625,136.6875 C 7.602039,136.6865 7.697973,136.65774 7.71875,136.65625 C 7.763792,149.41151 8.255711,159.5625 8.875,159.5625 C 9.49482,159.5625 9.986966,149.39583 10.03125,136.625 C 10.100161,136.62422 10.330683,136.62573 10.40625,136.625 C 10.481083,149.82635 10.804744,160.03125 11.21875,160.03125 C 11.632757,160.03125 11.956418,149.82635 12.03125,136.625 C 12.193276,136.62426 12.412847,136.59434 12.59375,136.59375 C 12.618313,151.11758 12.853012,162.625 13.125,162.625 C 13.396985,162.625 13.600436,151.11758 13.625,136.59375 C 13.63712,136.59373 13.644064,136.59377 13.65625,136.59375 C 13.74895,143.19357 14.229808,148.3125 14.8125,148.3125 C 15.39519,148.3125 15.876049,143.19357 15.96875,136.59375 C 16.021421,136.59384 16.009114,136.59365 16.0625,136.59375 C 16.0625,135.88178 16.02744,135.16222 16,134.46875 C 15.998736,134.43681 16.00132,134.40689 16,134.375 C 15.571257,124.01893 12.175386,115.96875 8.03125,115.96875 C 7.892687,115.96875 7.730597,115.95091 7.59375,115.96875 z"
       id="path3721"
       clip-path="url(#clipPath3541)"
       transform="matrix(0.2520754,0,0,0.2520754,6.3872488,-27.954556)" />
    <path
       style="fill:url(#radialGradient3727);fill-opacity:1;fill-rule:evenodd;stroke:#0e5e00;stroke-width:1;stroke-linecap:round;stroke-linejoin:miter;marker:none;marker-start:none;marker-mid:none;marker-end:none;stroke-miterlimit:4.01000023;stroke-dasharray:none;stroke-dashoffset:0;stroke-opacity:1;visibility:visible;display:inline;overflow:visible;filter:url(#filter3681);enable-background:accumulate"
       d="M 7.59375,115.96875 C 3.351484,116.52181 -9.9999978e-07,125.55826 2.2382096e-13,136.59375 C 0.017826,136.594 0.013503,136.5935 0.03125,136.59375 C -0.136162,142.20862 0.552113,146.52136 1.09375,146.53125 C 1.526246,146.53915 1.889616,143.72662 2.09375,139.59375 C 2.247559,146.9046 2.526242,152 2.8125,152 C 3.094322,152 3.314303,147.0572 3.46875,139.9375 C 3.672455,141.9464 3.964556,143.1875 4.25,143.1875 C 4.541401,143.1875 4.794533,141.89724 5,139.8125 C 5.117255,148.78744 5.42275,155.125 5.75,155.125 C 6.112363,155.125 6.410467,147.20846 6.5,136.6875 C 6.505221,136.68755 6.526072,136.68745 6.53125,136.6875 C 6.54389,151.84437 6.750959,164 7.03125,164 C 7.311542,164 7.549858,151.84437 7.5625,136.6875 C 7.602039,136.6865 7.697973,136.65774 7.71875,136.65625 C 7.763792,149.41151 8.255711,159.5625 8.875,159.5625 C 9.49482,159.5625 9.986966,149.39583 10.03125,136.625 C 10.100161,136.62422 10.330683,136.62573 10.40625,136.625 C 10.481083,149.82635 10.804744,160.03125 11.21875,160.03125 C 11.632757,160.03125 11.956418,149.82635 12.03125,136.625 C 12.193276,136.62426 12.412847,136.59434 12.59375,136.59375 C 12.618313,151.11758 12.853012,162.625 13.125,162.625 C 13.396985,162.625 13.600436,151.11758 13.625,136.59375 C 13.63712,136.59373 13.644064,136.59377 13.65625,136.59375 C 13.74895,143.19357 14.229808,148.3125 14.8125,148.3125 C 15.39519,148.3125 15.876049,143.19357 15.96875,136.59375 C 16.021421,136.59384 16.009114,136.59365 16.0625,136.59375 C 16.0625,135.88178 16.02744,135.16222 16,134.46875 C 15.998736,134.43681 16.00132,134.40689 16,134.375 C 15.571257,124.01893 12.175386,115.96875 8.03125,115.96875 C 7.892687,115.96875 7.730597,115.95091 7.59375,115.96875 z"
       id="path3723"
       clip-path="url(#clipPath3541)"
       transform="matrix(-0.2520754,0,0,0.2520754,10.339009,-28.070604)" />
    <path
       style="fill:url(#radialGradient3695);fill-opacity:1;fill-rule:evenodd;stroke:#0e5e00;stroke-width:1;stroke-linecap:round;stroke-linejoin:miter;marker:none;marker-start:none;marker-mid:none;marker-end:none;stroke-miterlimit:4.01000023;stroke-dasharray:none;stroke-dashoffset:0;stroke-opacity:1;visibility:visible;display:inline;overflow:visible;filter:url(#filter3681);enable-background:accumulate"
       d="M 7.59375,115.96875 C 3.351484,116.52181 -9.9999978e-07,125.55826 2.2382096e-13,136.59375 C 0.017826,136.594 0.013503,136.5935 0.03125,136.59375 C -0.136162,142.20862 0.552113,146.52136 1.09375,146.53125 C 1.526246,146.53915 1.889616,143.72662 2.09375,139.59375 C 2.247559,146.9046 2.526242,152 2.8125,152 C 3.094322,152 3.314303,147.0572 3.46875,139.9375 C 3.672455,141.9464 3.964556,143.1875 4.25,143.1875 C 4.541401,143.1875 4.794533,141.89724 5,139.8125 C 5.117255,148.78744 5.42275,155.125 5.75,155.125 C 6.112363,155.125 6.410467,147.20846 6.5,136.6875 C 6.505221,136.68755 6.526072,136.68745 6.53125,136.6875 C 6.54389,151.84437 6.750959,164 7.03125,164 C 7.311542,164 7.549858,151.84437 7.5625,136.6875 C 7.602039,136.6865 7.697973,136.65774 7.71875,136.65625 C 7.763792,149.41151 8.255711,159.5625 8.875,159.5625 C 9.49482,159.5625 9.986966,149.39583 10.03125,136.625 C 10.100161,136.62422 10.330683,136.62573 10.40625,136.625 C 10.481083,149.82635 10.804744,160.03125 11.21875,160.03125 C 11.632757,160.03125 11.956418,149.82635 12.03125,136.625 C 12.193276,136.62426 12.412847,136.59434 12.59375,136.59375 C 12.618313,151.11758 12.853012,162.625 13.125,162.625 C 13.396985,162.625 13.600436,151.11758 13.625,136.59375 C 13.63712,136.59373 13.644064,136.59377 13.65625,136.59375 C 13.74895,143.19357 14.229808,148.3125 14.8125,148.3125 C 15.39519,148.3125 15.876049,143.19357 15.96875,136.59375 C 16.021421,136.59384 16.009114,136.59365 16.0625,136.59375 C 16.0625,135.88178 16.02744,135.16222 16,134.46875 C 15.998736,134.43681 16.00132,134.40689 16,134.375 C 15.571257,124.01893 12.175386,115.96875 8.03125,115.96875 C 7.892687,115.96875 7.730597,115.95091 7.59375,115.96875 z"
       id="path3693"
       clip-path="url(#clipPath3541)"
       transform="matrix(0.2520754,0,0,0.2520754,11.869904,-28.308899)" />
    <path
       style="fill:#803300;fill-opacity:1;fill-rule:evenodd;stroke:none;stroke-width:6.54058504;stroke-linecap:round;stroke-linejoin:miter;stroke-miterlimit:4;stroke-dasharray:none;stroke-opacity:1"
       d="M 10.925488,4.1586922 C 10.794711,4.1749322 10.682139,4.2561086 10.618272,4.3713809 C 10.554404,4.4866536 10.54694,4.6221262 10.602517,4.7416168 L 11.114546,5.9468526 C 11.117911,5.9548149 11.118628,5.962846 11.122422,5.9704847 C 11.11985,5.9731594 11.117084,5.9756497 11.114546,5.978362 L 7.0577058,10.121852 C 6.9769296,10.202046 6.917695,10.295399 6.8765265,10.397559 C 6.8476604,10.396342 6.8189575,10.38868 6.7898756,10.389682 C 6.7573788,10.390792 6.7273808,10.401584 6.6953473,10.405437 C 6.6675396,10.351675 6.6336223,10.303982 6.5929416,10.255768 L 5.1750172,8.5542582 C 5.1208099,8.4875384 5.055935,8.4347292 4.9859606,8.3888336 L 5.4428473,7.561711 C 5.5196751,7.427291 5.5118213,7.2580413 5.4270926,7.1284563 C 5.3423638,6.9988709 5.1950501,6.9308052 5.0411021,6.9472771 C 4.9031996,6.9617981 4.781838,7.0446796 4.7181304,7.1678432 L 4.2297341,8.0737393 C 4.1718957,8.1533485 4.1446264,8.2470352 4.1509606,8.3415695 C 4.0218854,8.4075426 3.9150495,8.5097464 3.8358663,8.6330318 C 3.8119203,8.6303693 3.7898234,8.6313803 3.7649701,8.6330318 C 3.7543675,8.6352427 3.7438562,8.6378703 3.7334606,8.6409091 L 2.5676116,8.814211 C 2.4117763,8.8241997 2.2738717,8.9224296 2.2131305,9.0662867 C 2.1523895,9.2101439 2.1825075,9.3730118 2.2840268,9.4916639 C 2.3855461,9.6103149 2.5421276,9.6633352 2.6936494,9.6255786 L 3.7964795,9.4601542 C 3.8259478,9.515852 3.8642018,9.5690332 3.9067625,9.6177017 L 5.3325643,11.319211 C 5.4324528,11.437597 5.5583034,11.516689 5.6949227,11.563409 C 5.6950163,11.566092 5.6948101,11.568602 5.6949227,11.571286 L 5.7579417,14.099918 C 5.7583268,14.11619 5.7647593,14.131093 5.765819,14.147182 C 5.7135154,14.154346 5.6633967,14.167041 5.6161493,14.194446 C 5.1301221,14.48802 3.7289623,15.506158 3.8358663,15.699021 C 3.9161535,15.843867 5.5004682,15.049325 6.0100171,14.911285 C 6.0383285,14.896579 6.065114,14.884304 6.0887907,14.864022 C 6.3012402,15.080953 6.5962796,15.218586 6.9237907,15.210626 C 7.1950778,15.204032 7.4335505,15.09851 7.6248755,14.934918 C 7.6374209,14.943576 7.6506366,14.951237 7.6642624,14.95855 C 8.1692555,15.218147 9.7776315,15.875493 9.8856777,15.683267 C 9.9668224,15.538901 8.458838,14.602967 8.073885,14.24171 C 8.0537734,14.22968 8.0323122,14.226405 8.0108661,14.218079 C 8.0182786,14.160812 8.028105,14.104299 8.0266208,14.044776 L 7.963602,11.516144 C 7.9634787,11.49758 7.9567507,11.479451 7.9557246,11.461003 C 8.057194,11.418459 8.1524211,11.36159 8.2314321,11.279823 L 12.288272,7.1284563 C 12.367459,7.0499469 12.428444,6.9592963 12.469451,6.8606261 L 13.091763,7.0733148 C 13.307114,7.147274 13.545586,7.0365912 13.619545,6.8212394 C 13.693505,6.6058875 13.574944,6.3674156 13.359592,6.2934564 L 12.319781,5.9389752 C 12.293306,5.9294311 12.268723,5.9193025 12.241007,5.9153431 C 12.144902,5.8337204 12.032554,5.7808208 11.910158,5.7499186 C 11.906776,5.7065163 11.896531,5.6661857 11.878649,5.6238809 L 11.358743,4.4107678 C 11.287867,4.2385041 11.110273,4.1351769 10.925488,4.1586922 z"
       id="path2574" />
    <path
       style="fill:#552200;fill-opacity:1;fill-rule:evenodd;stroke:none;stroke-width:0.30000001;stroke-linecap:round;stroke-linejoin:miter;stroke-miterlimit:4.00549984;stroke-dasharray:none;stroke-opacity:1"
       d="M 10.997799,4.4608614 C 10.947675,4.4670856 10.907204,4.5056381 10.879639,4.5553898 C 10.853424,4.6027043 10.850838,4.6521976 10.871762,4.6971822 L 10.871762,4.7050595 L 10.879639,4.7050595 C 10.881963,4.7072965 10.88528,4.710612 10.887516,4.7129369 L 11.391667,5.9102954 C 11.393123,5.9137402 11.39038,5.9151329 11.391667,5.9181727 C 11.435702,6.0126601 11.417294,6.1272335 11.344403,6.2017576 C 11.345801,6.2010518 11.349461,6.202536 11.352281,6.2017576 C 11.35369,6.2013686 11.36028,6.2017427 11.360158,6.2017576 C 11.360054,6.2017497 11.375998,6.2017883 11.375913,6.2017576 C 11.375827,6.2017271 11.383857,6.2096882 11.383791,6.209635 C 11.383723,6.2095821 11.391715,6.2175875 11.391667,6.2175123 C 11.39162,6.2174374 11.399572,6.2254865 11.399544,6.2253897 C 11.466211,6.1448422 11.472375,6.041884 11.446809,5.9418048 C 11.454817,5.9472415 11.470441,5.9575595 11.470441,5.9575595 C 11.470441,5.9575598 11.478319,5.9575595 11.478319,5.9575595 C 11.47832,5.9575494 11.47832,5.9339446 11.478319,5.9339275 C 11.478303,5.9338665 11.478492,5.9265989 11.478319,5.92605 C 11.477743,5.924625 11.471234,5.9200736 11.470441,5.9181727 C 11.469912,5.9169056 11.471082,5.9118211 11.470441,5.9102954 C 11.467417,5.9042642 11.46109,5.8995551 11.454686,5.8866633 C 11.453574,5.8840369 11.455917,5.8816977 11.454686,5.878786 L 10.942658,4.6735501 L 10.942658,4.6656728 L 10.934781,4.6656728 C 10.923051,4.6404556 10.924611,4.6194716 10.942658,4.5868992 C 10.959355,4.5567643 10.994895,4.5419521 11.013554,4.539635 C 11.053923,4.534498 11.083476,4.5541178 11.100205,4.5947765 L 11.62011,5.8078897 C 11.629327,5.829695 11.628049,5.8323073 11.627988,5.8315218 C 11.640404,5.9675218 11.740216,6.0878581 11.872186,6.122984 C 11.953813,6.1435929 12.014096,6.1786572 12.06912,6.2253897 C 12.11087,6.2594557 12.158276,6.2781847 12.210913,6.2884085 C 12.213369,6.288886 12.216321,6.2879876 12.21879,6.2884085 C 12.221259,6.2888297 12.224185,6.2880442 12.226667,6.2884085 C 12.230213,6.2889291 12.230976,6.295882 12.234545,6.2962859 L 12.2503,6.3120406 L 13.29011,6.6665217 C 13.337443,6.6827776 13.360589,6.7242712 13.345252,6.7689274 C 13.329455,6.8149264 13.2968,6.8347209 13.242847,6.8161916 L 12.620535,6.6035029 C 12.45619,6.5461882 12.275264,6.6308394 12.210913,6.7925595 C 12.186707,6.850801 12.150351,6.9086883 12.10063,6.957984 L 8.0437901,11.109352 L 8.0280355,11.117229 L 8.0280355,11.125106 C 7.9896434,11.160611 7.9385951,11.191079 7.8704883,11.219635 C 7.7439094,11.27421 7.6643768,11.397192 7.6735543,11.534729 C 7.6748785,11.558538 7.6734716,11.563721 7.6735543,11.574116 C 7.6735135,11.577087 7.6735138,11.579023 7.6735543,11.581993 C 7.6735581,11.58479 7.6735377,11.597959 7.6735543,11.597747 C 7.6736501,11.599696 7.6734328,11.604004 7.6735543,11.605625 C 7.6736746,11.60654 7.6732491,11.611994 7.6735543,11.613502 L 7.7365732,14.110625 C 7.7371301,14.132964 7.7369359,14.165126 7.7286959,14.228786 C 7.708435,14.377902 7.793208,14.520962 7.9335071,14.575389 C 7.9335669,14.575457 7.9256078,14.559583 7.9256298,14.559635 C 7.9256404,14.55966 7.9256293,14.551736 7.9256298,14.551757 C 7.9348159,14.549381 7.9571392,14.54388 7.9571392,14.54388 L 7.9335071,14.575389 C 7.9335795,14.575455 7.9412799,14.575346 7.9413846,14.575389 C 7.9446749,14.57662 7.945446,14.582305 7.9492619,14.583266 C 7.9504635,14.58434 7.955928,14.582188 7.9571392,14.583266 C 8.0944695,14.705446 8.3126977,14.864648 8.524309,15.016521 C 8.2723864,14.914604 7.9960216,14.804353 7.8704883,14.740814 C 7.8692037,14.740164 7.8638731,14.741457 7.862611,14.740814 C 7.854157,14.743692 7.8311015,14.756568 7.8311015,14.756568 C 7.7093692,14.669768 7.56654,14.643556 7.4529883,14.740814 C 7.3104517,14.862689 7.1488217,14.933078 6.9567147,14.937747 C 6.7249831,14.94338 6.5133483,14.852139 6.3580355,14.693549 C 6.2457972,14.579393 6.0770576,14.572204 5.948413,14.66204 C 5.9441636,14.665007 5.9367957,14.658845 5.9326582,14.66204 C 5.9224547,14.666523 5.9219465,14.665597 5.9169034,14.669918 C 5.9161894,14.670844 5.9168473,14.677895 5.9169034,14.677795 L 5.9641676,14.732936 C 5.9666152,14.730966 5.9697317,14.727331 5.9720449,14.725059 C 6.0719127,14.645672 6.2204916,14.648991 6.3107714,14.740814 C 6.4790774,14.91267 6.7030019,15.022688 6.9567147,15.016521 C 7.1661895,15.01143 7.3468083,14.935034 7.5002525,14.803832 C 7.5877062,14.728928 7.7137151,14.721227 7.8074694,14.788078 C 7.811567,14.791988 7.8183486,14.793338 7.8232241,14.795955 C 8.0039149,14.888842 8.3946485,15.046048 8.7606297,15.189823 C 8.7643436,15.191283 8.7647986,15.196244 8.7685072,15.197701 C 8.7711159,15.198725 8.7737785,15.196678 8.7763845,15.197701 L 8.7921393,15.166191 L 8.8157712,15.134681 C 8.8138633,15.133338 8.8098021,15.136026 8.8078939,15.134681 C 8.4960181,14.914941 8.175914,14.680879 7.9886486,14.51237 C 7.9874513,14.511041 7.9807615,14.512362 7.9807713,14.51237 L 7.972894,14.51237 C 7.9708668,14.511795 7.9729606,14.504504 7.972894,14.504493 L 7.9650166,14.504493 C 7.9636518,14.503917 7.9584891,14.505092 7.9571392,14.504493 C 7.8557601,14.459532 7.7924059,14.355407 7.8074694,14.24454 C 7.8161794,14.177248 7.815953,14.134935 7.8153468,14.110625 L 7.7523279,11.621379 C 7.7523479,11.621336 7.7523085,11.613577 7.7523279,11.613502 C 7.7524053,11.613205 7.7521949,11.60732 7.7523279,11.605625 L 7.7523279,11.597747 C 7.7522198,11.597215 7.7526269,11.59095 7.7523279,11.589871 C 7.752366,11.587998 7.7523297,11.584109 7.7523279,11.581993 C 7.7522964,11.579713 7.7522967,11.576397 7.7523279,11.574116 C 7.752118,11.562126 7.7535513,11.556722 7.7523279,11.534729 C 7.7452648,11.428884 7.8045854,11.324652 7.9019977,11.282653 C 7.980034,11.249935 8.040339,11.216976 8.0910543,11.164493 L 8.1068091,11.156615 L 8.1068091,11.140861 C 8.1067775,11.138581 8.1067778,11.135265 8.1068091,11.132984 L 12.147894,7.0052481 C 12.204135,6.9494886 12.2458,6.891758 12.273931,6.8240689 C 12.323599,6.6992502 12.46218,6.6380395 12.589026,6.6822765 L 13.211337,6.8949651 C 13.297661,6.9246118 13.395728,6.8828347 13.424026,6.8004368 C 13.452785,6.7166966 13.406764,6.6169896 13.32162,6.5877481 L 12.305441,6.2411444 L 12.281808,6.2253897 C 12.271206,6.2215677 12.264492,6.2271701 12.258177,6.2253897 C 12.256072,6.2247966 12.252063,6.2258223 12.2503,6.2253897 L 12.2503,6.2175123 C 12.2479,6.2172411 12.244807,6.2178524 12.242422,6.2175123 C 12.197382,6.2110937 12.151705,6.1911906 12.116384,6.1623708 C 12.054401,6.1097289 11.980968,6.0676978 11.887941,6.0442105 C 11.786387,6.0171804 11.716317,5.9361767 11.706762,5.8315218 C 11.704788,5.806194 11.689291,5.7909573 11.68313,5.7763803 L 11.163224,4.5632671 C 11.136155,4.4974782 11.071616,4.4514676 10.997799,4.4608614 z M 11.336526,6.209635 C 11.335585,6.2108089 11.337406,6.2162595 11.336526,6.2175123 C 11.335645,6.2187654 11.329486,6.2161332 11.328648,6.2175123 C 11.326973,6.220271 11.322303,6.2207555 11.320771,6.2253897 C 11.320006,6.227707 11.321171,6.2295186 11.320771,6.233267 C 11.320571,6.2351415 11.320765,6.2410264 11.320771,6.2411444 L 7.2796865,10.361003 C 7.2243904,10.4159 7.1834188,10.476184 7.1536487,10.550059 C 7.1138712,10.650175 7.0091348,10.713588 6.9015732,10.707607 C 6.8751081,10.706491 6.8652827,10.708618 6.8543091,10.707607 C 6.854328,10.706275 6.8543091,10.699729 6.8543091,10.699729 C 6.8541475,10.699729 6.8493187,10.699693 6.8464317,10.699729 C 6.8450501,10.699835 6.8415561,10.699479 6.8385544,10.699729 C 6.8345509,10.699867 6.8262234,10.699379 6.8227996,10.699729 C 6.8091843,10.700954 6.7898904,10.703984 6.7597808,10.707607 C 6.6587891,10.718241 6.5637896,10.670947 6.5155827,10.581569 C 6.499412,10.550306 6.4778329,10.524623 6.4525639,10.494917 L 6.4525639,10.487041 L 6.4525639,10.479163 L 6.4446864,10.479163 L 6.4446864,10.471286 L 5.026762,8.7697764 C 4.9919675,8.7269509 4.9470232,8.6950271 4.8928469,8.6594933 C 4.7800499,8.5873453 4.7395021,8.4368722 4.806196,8.3207669 L 5.2630828,7.4936443 C 5.2930537,7.4412066 5.2898829,7.3733791 5.2552053,7.3203425 C 5.2241923,7.2729109 5.1682661,7.2427342 5.1055356,7.2494462 C 5.0489976,7.2553998 5.0052334,7.2942209 4.9794978,7.3439746 L 4.4911017,8.2498707 C 4.487902,8.2573868 4.4792644,8.2663381 4.4753469,8.2735028 C 4.4743674,8.2752943 4.4763701,8.2796129 4.4753469,8.2813802 C 4.4540108,8.3123744 4.4333688,8.3451101 4.4359602,8.3837858 C 4.4437407,8.4823902 4.3968494,8.5807926 4.3099224,8.6279839 C 4.2246924,8.6715473 4.1474315,8.7344976 4.0893564,8.8249179 C 4.039128,8.8993174 3.9504341,8.9418432 3.860913,8.9352009 C 3.8563519,8.9353261 3.8497194,8.9353261 3.8451582,8.9352009 L 3.8372809,8.9352009 C 3.8282929,8.9379952 3.8150168,8.9413142 3.8057715,8.9430778 L 2.6477998,9.1163803 L 2.6399225,9.1163803 C 2.6353602,9.1164434 2.6287278,9.1165675 2.6241678,9.1163803 C 2.5615008,9.1203976 2.5131344,9.1645935 2.4902527,9.2187853 C 2.4681024,9.2712483 2.4712848,9.3344213 2.5138848,9.3842098 C 2.5533807,9.4303712 2.6118358,9.4620787 2.6714319,9.4472293 C 2.6804202,9.444435 2.693696,9.441116 2.7029413,9.4393513 L 3.8057715,9.2739268 C 3.9091254,9.2603289 4.0086784,9.3080447 4.0578469,9.3999647 C 4.0756228,9.433562 4.1019198,9.4638791 4.1287432,9.4944928 C 4.1301986,9.4961545 4.1272918,9.5007165 4.1287432,9.5023708 L 4.1287432,9.5102477 C 4.1297746,9.5114256 4.1355941,9.5090741 4.1366205,9.5102477 L 4.1366205,9.5181257 L 5.5624223,11.219635 C 5.6316526,11.301686 5.7173543,11.351839 5.8144979,11.385059 C 5.9151812,11.418581 5.9858211,11.507403 5.9877997,11.613502 C 5.9878307,11.615783 5.9878309,11.619099 5.9877997,11.621379 L 6.0508185,14.102748 C 6.0507956,14.10279 6.05084,14.110549 6.0508185,14.110625 C 6.0506494,14.111912 6.0508867,14.117593 6.0508185,14.118503 C 6.0506973,14.120119 6.0508919,14.124599 6.0508185,14.12638 C 6.0510372,14.12738 6.0508697,14.134372 6.0508185,14.134257 C 6.0510901,14.138995 6.0506079,14.141112 6.0508185,14.150011 C 6.0511599,14.162606 6.0493141,14.166558 6.0508185,14.189399 C 6.0573846,14.318011 5.9654406,14.429955 5.8381298,14.449352 C 5.8194886,14.451905 5.8093217,14.460654 5.7987431,14.465106 C 5.7881643,14.469559 5.7806015,14.474367 5.7829883,14.472983 C 5.6087707,14.578216 5.2618774,14.829166 4.9479884,15.063785 C 4.9460086,15.065265 4.9420881,15.062306 4.9401111,15.063785 L 4.9637432,15.095295 L 4.9794978,15.126804 C 4.9820232,15.125718 4.9848489,15.127891 4.9873752,15.126804 C 4.9908906,15.125292 4.9917356,15.12044 4.9952526,15.118927 C 5.3389963,14.971045 5.6869333,14.826717 5.9247809,14.756568 L 5.9326582,14.748691 C 5.9397365,14.745014 5.9374758,14.736749 5.9405355,14.732936 C 5.9405625,14.732945 5.9247641,14.725041 5.9247809,14.725059 C 5.9247869,14.725065 5.9186279,14.720452 5.9169034,14.717181 L 5.9169034,14.709304 C 5.915178,14.706035 5.9090239,14.701417 5.9090261,14.701426 C 5.9090314,14.701453 5.9090317,14.693515 5.9090261,14.693549 C 5.9090216,14.693577 5.9082155,14.688013 5.9090261,14.685672 C 5.9061384,14.687421 5.9048447,14.683752 5.9011488,14.685672 C 5.7274168,14.737587 5.4752673,14.845827 5.2394507,14.945625 C 5.4587664,14.785913 5.6979908,14.606375 5.8144979,14.536002 C 5.8210686,14.532191 5.826121,14.537741 5.8302525,14.536002 C 5.8343838,14.534263 5.8410224,14.529886 5.8538846,14.528125 C 6.0189477,14.502976 6.1381055,14.35615 6.1295921,14.189399 C 6.1281611,14.167677 6.1298472,14.16158 6.1295921,14.150011 L 6.1295921,14.110625 L 6.0665733,11.621379 C 6.0666137,11.618409 6.0666139,11.616473 6.0665733,11.613502 C 6.0640021,11.475636 5.9768364,11.349844 5.8460073,11.306285 C 5.7557325,11.275414 5.683777,11.241509 5.6254412,11.17237 L 4.2075167,9.4866159 L 4.2075167,9.478739 L 4.2075167,9.4708611 L 4.1996394,9.4708611 L 4.1996394,9.4629842 C 4.1691833,9.4281586 4.1339329,9.3931531 4.1208658,9.368456 C 4.0569667,9.2489963 3.9243344,9.1774815 3.7900167,9.1951536 L 2.6871866,9.3605781 C 2.6751462,9.3628759 2.6673823,9.3648162 2.6556772,9.368456 C 2.625261,9.3760353 2.6053866,9.3702365 2.5769036,9.3369463 C 2.5491158,9.304469 2.5410517,9.2792367 2.5532715,9.2502951 C 2.5669229,9.217964 2.5940188,9.1970865 2.6241678,9.1951536 C 2.6330761,9.1955195 2.6388917,9.1955195 2.6477998,9.1951536 L 2.6556772,9.1951536 L 3.8215262,9.0218522 C 3.8307337,9.0200948 3.836139,9.0165182 3.8451582,9.0139742 C 3.8481282,9.0140562 3.8500646,9.0139742 3.8530357,9.0139742 C 3.8560066,9.0139742 3.857943,9.0140552 3.860913,9.0139742 C 3.9773572,9.0226146 4.0870408,8.968957 4.1523752,8.8721825 C 4.2035929,8.7924386 4.2684499,8.7283054 4.3414318,8.6910027 C 4.4544426,8.6296511 4.5248492,8.5119778 4.5147338,8.3837858 C 4.5138986,8.3713239 4.521932,8.343387 4.5383658,8.3207669 L 4.5383658,8.3128896 C 4.5450286,8.3013824 4.5489124,8.2936151 4.5541205,8.2813802 L 5.0425167,7.375484 C 5.0555223,7.3503407 5.0939691,7.3310967 5.1212902,7.3282198 C 5.1609611,7.3239753 5.1704995,7.3344383 5.1921865,7.3676067 C 5.2102081,7.3951698 5.2120263,7.4412054 5.2000638,7.4621349 L 4.7431771,8.2892575 C 4.6567609,8.4396964 4.6994309,8.6290291 4.8455828,8.7225118 C 4.8984506,8.7571881 4.9381376,8.785525 4.9637432,8.817041 L 6.3737903,10.502794 L 6.3737903,10.510672 L 6.3737903,10.518549 L 6.3816676,10.518549 L 6.3816676,10.526427 C 6.4131556,10.563746 6.4396858,10.58818 6.4525639,10.613077 C 6.5152247,10.729256 6.6442626,10.800203 6.7755355,10.78638 C 6.7920538,10.784393 6.7957946,10.779663 6.807045,10.778502 C 6.8072055,10.778582 6.8134875,10.778043 6.8149223,10.778502 C 6.8206613,10.780338 6.8272004,10.778005 6.830677,10.778502 C 6.8322031,10.778721 6.8368176,10.778295 6.8385544,10.778502 C 6.840291,10.77871 6.8444696,10.778303 6.8464317,10.778502 C 6.8483937,10.778702 6.852107,10.778312 6.8543091,10.778502 C 6.8677667,10.779669 6.8771807,10.785351 6.9015732,10.78638 C 7.0413216,10.794153 7.1649874,10.711643 7.2166675,10.581569 C 7.2431166,10.515935 7.2793693,10.455506 7.3269505,10.408266 L 11.375913,6.2726538 L 11.383791,6.2647765 C 11.386817,6.261864 11.388754,6.2599267 11.391667,6.2568991 L 11.391667,6.2490218 L 11.344403,6.209635 C 11.343773,6.2101794 11.33639,6.2097797 11.336526,6.209635 z M 11.62011,6.2175123 L 11.604357,6.2568991 C 11.582142,6.3052255 11.545893,6.3517213 11.509827,6.3908142 L 11.50195,6.3908142 C 11.501234,6.3911762 11.502328,6.3984677 11.50195,6.3986915 C 11.499234,6.4018458 11.496374,6.4031387 11.494074,6.4065689 C 11.492156,6.4094275 11.488641,6.4062841 11.486196,6.4144463 C 11.485585,6.4164868 11.486207,6.4221908 11.486196,6.4223236 L 7.445111,10.542182 L 7.4293562,10.550059 L 7.4293562,10.565814 C 7.4293739,10.568257 7.4293739,10.571248 7.4293562,10.573691 C 7.4089391,10.597477 7.3884247,10.617202 7.3742147,10.652465 C 7.295453,10.845965 7.101513,10.970103 6.8936959,10.967559 C 6.8853093,10.964429 6.8804433,10.96746 6.8779412,10.967559 C 6.8762732,10.967625 6.8720905,10.95976 6.8700638,10.959681 C 6.8599301,10.959289 6.8501486,10.959017 6.830677,10.959681 C 6.8109131,10.960363 6.7923416,10.959107 6.7834129,10.959681 C 6.7789484,10.959968 6.7854844,10.96503 6.7755355,10.967559 C 6.7742921,10.967875 6.7677328,10.967529 6.7676581,10.967559 C 6.7676209,10.967574 6.7598066,10.967543 6.7597808,10.967559 C 6.7597551,10.967574 6.7519176,10.975421 6.7519035,10.975436 C 6.5522115,10.98778 6.3638842,10.886794 6.2713846,10.707607 C 6.2633724,10.692117 6.252614,10.682007 6.2398752,10.668219 L 6.2398752,10.660342 L 6.2398752,10.652465 L 6.2319978,10.652465 L 6.2319978,10.644587 L 4.8140733,8.9430778 L 4.806196,8.9430778 L 4.7983186,8.927324 L 4.7904413,8.927324 C 4.7895161,8.9262902 4.7835994,8.9284398 4.7825639,8.927324 C 4.7708272,8.9146705 4.76497,8.8995203 4.7352998,8.8800594 C 4.6861584,8.843935 4.6425214,8.7972678 4.609262,8.7461447 L 4.5856299,8.7067575 L 4.5462432,8.7461447 C 4.5051067,8.7940308 4.4601995,8.8346836 4.4044507,8.8643046 C 4.3658043,8.8840578 4.3225617,8.9102367 4.2862903,8.9667107 L 4.2862903,8.9745876 C 4.257414,9.0245065 4.2199007,9.0632212 4.1760073,9.1006254 L 4.1444979,9.1321352 L 4.1760073,9.1557669 C 4.2146747,9.194327 4.246088,9.2408522 4.2705356,9.2896817 C 4.2781543,9.304082 4.2880914,9.3277369 4.3099224,9.3527012 L 4.3177997,9.3527012 C 4.319034,9.3539106 4.3165779,9.359356 4.3177997,9.3605781 L 5.7436016,11.062087 C 5.7783122,11.103225 5.817535,11.136103 5.8775167,11.156615 C 6.0773379,11.223968 6.2164846,11.402774 6.2241204,11.613502 C 6.2241381,11.615945 6.2241381,11.618936 6.2241204,11.621379 L 6.2871393,14.055483 C 6.2861578,14.060888 6.2872212,14.061152 6.2871393,14.063361 C 6.2870849,14.064833 6.2871625,14.069533 6.2871393,14.071238 C 6.2872102,14.071628 6.2872134,14.079336 6.2871393,14.079116 C 6.2871403,14.081144 6.2871212,14.084552 6.2871393,14.086993 L 6.2871393,14.150011 L 6.2950167,14.150011 C 6.2956149,14.158857 6.2943348,14.163292 6.2950167,14.173644 C 6.3003937,14.251201 6.2929955,14.330154 6.2635072,14.402087 L 6.2477525,14.441474 L 6.2792619,14.457229 C 6.3514243,14.483769 6.4229429,14.519927 6.4761959,14.575389 C 6.59928,14.70107 6.7554073,14.776642 6.9330827,14.772323 C 7.0801846,14.768748 7.2050885,14.712238 7.3190732,14.614776 C 7.3808668,14.564308 7.4538095,14.529366 7.5317619,14.51237 L 7.5711487,14.504493 L 7.555394,14.457229 C 7.5260882,14.380179 7.5217132,14.302728 7.5317619,14.220908 C 7.5364039,14.185046 7.5372156,14.162144 7.5396392,14.150011 C 7.5396733,14.149972 7.5317307,14.157911 7.5317619,14.157889 C 7.5317931,14.157866 7.5159787,14.157895 7.5160072,14.157889 C 7.5160356,14.157884 7.4923492,14.157878 7.4923751,14.157889 C 7.4924011,14.1579 7.4765973,14.149984 7.4766204,14.150011 C 7.4766436,14.15004 7.4766,14.14209 7.4766204,14.142134 C 7.4766612,14.142223 7.4690704,14.135946 7.4687431,14.134257 C 7.4657007,14.149485 7.4577684,14.168224 7.4529883,14.205153 C 7.4430573,14.286014 7.4608786,14.371688 7.4844977,14.449352 C 7.4079739,14.471017 7.3336018,14.50129 7.271809,14.551757 C 7.1670407,14.641339 7.0619313,14.690418 6.9330827,14.693549 C 6.7764163,14.697357 6.6337493,14.64074 6.52346,14.528125 C 6.4689422,14.471346 6.4066135,14.424889 6.3344034,14.39421 C 6.3580983,14.322519 6.3790304,14.249226 6.3737903,14.173644 C 6.3715097,14.13902 6.3673212,14.113172 6.3659129,14.09487 L 6.3659129,14.071238 C 6.3656432,14.068518 6.3662088,14.065556 6.3659129,14.063361 L 6.302894,11.621379 C 6.3029144,11.618571 6.3029144,11.61631 6.302894,11.613502 C 6.2941281,11.37159 6.1384178,11.155161 5.9090261,11.077842 C 5.8580602,11.060413 5.8351324,11.048616 5.8066204,11.014823 L 4.3808187,9.3133145 L 4.3729412,9.3133145 C 4.3715516,9.3118958 4.3743453,9.3068405 4.3729412,9.3054366 C 4.355577,9.2855802 4.3366958,9.2641107 4.3335545,9.258173 C 4.3114106,9.2139435 4.2792849,9.1769715 4.2469036,9.1400121 C 4.2842545,9.1043767 4.3147171,9.0582237 4.3414318,9.0139742 L 4.3493092,9.0139742 C 4.3503387,9.0122369 4.3482974,9.0078462 4.3493092,9.0060973 C 4.3771661,8.9647335 4.406832,8.9422113 4.4359602,8.927324 C 4.4852754,8.901121 4.530108,8.8638786 4.5698753,8.8249179 C 4.6039415,8.8701781 4.6422786,8.9094417 4.6880356,8.9430778 C 4.7235823,8.9663931 4.7344264,8.9795714 4.7431771,8.9903424 L 4.7510545,8.9903424 L 4.7668092,9.0060973 L 6.1611016,10.676097 L 6.1611016,10.683974 L 6.1611016,10.691852 L 6.1689789,10.691852 L 6.1689789,10.699729 C 6.1927018,10.727845 6.208792,10.73994 6.2083657,10.739115 C 6.3188814,10.953203 6.551812,11.08062 6.7912902,11.05421 C 6.8194037,11.050828 6.8380838,11.04873 6.8543091,11.046332 C 6.8640931,11.046708 6.8653528,11.045801 6.8779412,11.046332 C 6.8839804,11.046593 6.8876819,11.038382 6.8936959,11.038456 C 7.1322903,11.041357 7.3468199,10.906101 7.4372336,10.683974 C 7.4517741,10.647891 7.4697271,10.619808 7.4923751,10.597324 L 7.5081298,10.589446 L 7.5081298,10.573691 C 7.5081502,10.570883 7.5081502,10.568622 7.5081298,10.565814 L 11.525582,6.4695878 L 11.549215,6.453833 C 11.551723,6.451799 11.554451,6.4484396 11.557092,6.4459557 C 11.558357,6.4446906 11.555703,6.4394968 11.557092,6.4380784 L 11.564969,6.4380784 L 11.572847,6.4380784 C 11.606087,6.4020477 11.628458,6.363013 11.65162,6.319918 C 11.696053,6.3441672 11.744116,6.3709325 11.793413,6.3829369 C 11.84442,6.3958152 11.865199,6.4108857 11.887941,6.430201 C 11.947451,6.478171 12.019769,6.5032038 12.092752,6.5247293 C 12.039941,6.5763846 11.98884,6.6301425 11.958837,6.6980311 C 11.947564,6.7251595 11.929142,6.7594538 11.903696,6.7846821 L 11.887941,6.7925595 L 11.887941,6.8083142 C 11.887921,6.8111223 11.887921,6.8133834 11.887941,6.8161916 L 7.862611,10.928173 L 7.8468562,10.928173 L 7.8389789,10.943927 C 7.829643,10.953588 7.8039015,10.969568 7.7523279,10.991191 C 7.5248821,11.08764 7.3822589,11.311802 7.3978468,11.558361 C 7.3987646,11.574858 7.4049891,11.585301 7.4057241,11.597747 C 7.4064448,11.609951 7.4051517,11.62858 7.4057241,11.637134 C 7.4057133,11.638959 7.4057405,11.64343 7.4057241,11.645012 L 7.4057241,11.652889 C 7.4059596,11.655489 7.4054459,11.658599 7.4057241,11.660767 C 7.4058633,11.66185 7.4054827,11.667286 7.4057241,11.668644 C 7.4059657,11.670002 7.4056521,11.676307 7.4057241,11.676521 L 7.4687431,14.110625 L 7.4687431,14.12638 L 7.5475166,14.12638 L 7.5475166,14.118503 L 7.4844977,11.668644 C 7.4858345,11.662659 7.4843697,11.662927 7.4844977,11.660767 L 7.4844977,11.652889 C 7.4844571,11.652661 7.4847873,11.646093 7.4844977,11.645012 C 7.4846047,11.634757 7.4845847,11.615872 7.4844977,11.597747 C 7.4844271,11.59286 7.4844271,11.58688 7.4844977,11.581993 L 7.4766204,11.581993 C 7.4760971,11.572902 7.4772241,11.569214 7.4766204,11.558361 C 7.4630409,11.343567 7.5856942,11.138234 7.7838374,11.05421 C 7.8268319,11.036184 7.8428115,11.022555 7.862611,11.006946 C 7.8640571,11.005806 7.8691263,11.008088 7.8704883,11.006946 L 7.886243,11.006946 L 7.8941204,10.991191 L 11.950959,6.8398236 L 11.966714,6.8319462 L 11.966714,6.8161916 C 11.968278,6.8143756 11.965208,6.8101471 11.966714,6.8083142 C 11.989079,6.7811037 12.010571,6.7566929 12.021856,6.7295406 C 12.054726,6.6551668 12.108072,6.5913309 12.171525,6.540484 L 12.234545,6.4853425 L 12.155772,6.4695878 C 12.075237,6.4536972 11.999115,6.4186993 11.935206,6.3671821 C 11.907951,6.3440347 11.870317,6.3196021 11.809168,6.3041633 C 11.754551,6.2908632 11.706795,6.271522 11.659498,6.2411444 L 11.62011,6.2175123 z M 12.266055,6.2411444 C 12.266054,6.2411447 12.273931,6.2490218 12.273931,6.2490218 C 12.273931,6.249022 12.267367,6.2565924 12.266055,6.2647765 L 12.242422,6.2647765 L 12.242422,6.2490218 C 12.252599,6.2445474 12.266055,6.2411444 12.266055,6.2411444 z M 11.525582,6.3908142 C 11.525476,6.3908018 11.549282,6.3987445 11.549215,6.3986915 C 11.549147,6.3986386 11.557121,6.4224167 11.557092,6.4223236 L 11.525582,6.3908142 z M 11.706762,6.5562387 L 11.698885,6.5719935 C 11.693948,6.5770677 11.688204,6.5828123 11.68313,6.5877481 L 7.6262902,10.731238 C 7.6238047,10.733758 7.6209329,10.73663 7.6184128,10.739115 L 7.6105355,10.739115 L 7.6026581,10.746993 C 7.5979829,10.759635 7.6001144,10.774001 7.5947807,10.78638 L 7.5475166,10.888786 L 7.6420449,10.833643 C 7.6519444,10.828421 7.6634358,10.822675 7.6735543,10.81789 C 7.6788474,10.81567 7.6776357,10.811877 7.6814317,10.810012 L 7.6893091,10.810012 C 7.691794,10.807492 7.6946664,10.80462 7.6971864,10.802135 L 7.7050638,10.794257 C 7.7072341,10.795327 7.7129411,10.794257 7.7129411,10.794257 L 7.7129411,10.78638 L 11.754026,6.6507671 C 11.747837,6.6529467 11.73889,6.6544181 11.730393,6.6507671 C 11.726146,6.6489415 11.725404,6.6457129 11.722516,6.6428896 L 11.730393,6.6350123 C 11.732596,6.6361071 11.73606,6.6339367 11.738271,6.6350123 C 11.738328,6.6350271 11.746122,6.6350116 11.746148,6.6350123 C 11.746149,6.6350123 11.745875,6.6287069 11.746148,6.6192575 C 11.746432,6.6203289 11.753742,6.6181862 11.754026,6.6192575 C 11.756295,6.6278284 11.754026,6.6350123 11.754026,6.6350123 C 11.754026,6.6350123 11.761903,6.6350123 11.761903,6.6350123 C 11.761903,6.6350123 11.765333,6.6302466 11.769781,6.627135 L 11.777658,6.627135 C 11.778465,6.6238514 11.78553,6.6193188 11.785535,6.6192575 L 11.785535,6.6113802 L 11.809168,6.5877481 L 11.777658,6.5798708 L 11.769781,6.5719935 C 11.766762,6.5705248 11.764903,6.5656242 11.761903,6.564116 C 11.759904,6.5631105 11.756017,6.565139 11.754026,6.564116 C 11.750098,6.5627594 11.745151,6.5579757 11.738271,6.5562387 L 11.730393,6.5562387 C 11.727891,6.5562511 11.725019,6.5562511 11.722516,6.5562387 L 11.706762,6.5562387 z M 11.730393,6.564116 C 11.730394,6.564116 11.738271,6.564116 11.738271,6.564116 C 11.738271,6.564116 11.736514,6.5732153 11.738271,6.5798708 C 11.735831,6.580253 11.732467,6.5791405 11.730393,6.5798708 C 11.726247,6.5813315 11.725412,6.5857749 11.722516,6.5877481 L 11.722516,6.5956256 C 11.721964,6.5967238 11.715186,6.5945247 11.71464,6.5956256 C 11.717189,6.5872899 11.71464,6.5798708 11.71464,6.5798708 C 11.71464,6.5798708 11.730393,6.564116 11.730393,6.564116 z M 11.71464,6.6035029 L 11.722516,6.6113802 L 11.722516,6.6192575 L 11.71464,6.6192575 C 11.71464,6.6192575 11.707067,6.620183 11.706762,6.6192575 C 11.706153,6.6174066 11.707676,6.6141566 11.706762,6.6113802 C 11.707543,6.6082068 11.714659,6.6034547 11.71464,6.6035029 z M 4.5304884,9.0297291 L 4.5304884,9.0848706 C 4.5235889,9.0869907 4.5256582,9.0903676 4.5226111,9.0927485 C 4.5205794,9.0943355 4.5166391,9.0909702 4.5147338,9.0927485 C 4.5135424,9.0938591 4.5158731,9.0994066 4.5147338,9.1006254 L 4.5147338,9.1085023 C 4.5147334,9.1085023 4.5111676,9.1067282 4.5068563,9.1085023 C 4.5057984,9.1099662 4.5000067,9.1069028 4.498979,9.1085023 L 4.498979,9.1163803 C 4.4958401,9.1201053 4.4832242,9.1242572 4.4832242,9.1242572 C 4.483224,9.1242572 4.4832242,9.1321352 4.4832242,9.1321352 C 4.483224,9.1321352 4.4889842,9.1313475 4.4911017,9.1321352 C 4.4932189,9.1329229 4.4957524,9.1309352 4.498979,9.1321352 L 4.5147338,9.1400121 C 4.5054795,9.1421112 4.4832205,9.1478732 4.4832242,9.14789 C 4.4832334,9.147931 4.4828389,9.1547637 4.4832242,9.1557669 C 4.4863066,9.1637911 4.4894899,9.1605982 4.4911017,9.1636438 C 4.4919365,9.164747 4.4932301,9.1728248 4.498979,9.1793987 L 4.5068563,9.1872767 L 4.5226111,9.2266633 L 4.5304884,9.2109084 L 5.9247809,10.873031 C 5.9247935,10.87307 5.9326307,10.880863 5.9326582,10.880908 L 5.9562903,10.865153 L 5.9641676,10.865153 L 5.9720449,10.880908 C 5.9753595,10.88603 5.9764974,10.891615 5.9799224,10.896663 C 5.9799637,10.896645 5.9641041,10.896672 5.9641676,10.896663 C 5.9643418,10.896664 5.9572338,10.896812 5.9562903,10.896663 C 5.9552823,10.896428 5.9527145,10.903318 5.9562903,10.90454 C 5.9687106,10.909325 5.9839225,10.90714 5.995677,10.912418 C 6.0007599,10.9147 6.0062294,10.917833 6.0114318,10.920295 L 6.1453469,10.983314 L 6.058696,10.865153 C 6.0481592,10.850495 6.0366645,10.833253 6.0271865,10.81789 L 6.0193091,10.802135 L 6.0035545,10.802135 L 4.6171393,9.1400121 L 4.609262,9.1321352 L 4.609262,9.1242572 C 4.6091972,9.1241384 4.6099926,9.1172868 4.609262,9.1163803 C 4.6083843,9.1153833 4.6024829,9.1176602 4.6013847,9.1163803 C 4.6002861,9.1151004 4.6027628,9.1101987 4.6013847,9.1085023 L 4.5304884,9.0297291 z M 4.5226111,9.1085023 L 4.5304884,9.1242572 L 4.5304884,9.1321352 C 4.5304748,9.1348842 4.5304751,9.137263 4.5304884,9.1400121 C 4.5282195,9.1391707 4.5226111,9.1400121 4.5226111,9.1400121 C 4.5226109,9.1400121 4.5226111,9.1085023 4.5226111,9.1085023 z M 6.8543091,10.715483 C 6.8542763,10.715446 6.8621953,10.731275 6.8621865,10.731238 C 6.8621774,10.731202 6.8621716,10.754906 6.8621865,10.75487 C 6.8622011,10.754834 6.8542703,10.770661 6.8543091,10.770625 C 6.8544437,10.761304 6.8540694,10.732053 6.8543091,10.715483 z M 7.3269505,11.109352 L 7.2324223,11.156615 C 7.1371453,11.202426 7.0303934,11.215668 6.9252053,11.219635 C 6.9200146,11.219831 6.9146484,11.219543 6.9094506,11.219635 C 6.9068515,11.219679 6.9041736,11.219616 6.9015732,11.219635 C 6.8861311,11.219873 6.8672315,11.218655 6.8385544,11.219635 C 6.8060644,11.220754 6.7832561,11.219172 6.7676581,11.219635 C 6.766878,11.219658 6.7683947,11.22749 6.7676581,11.227512 C 6.7542937,11.228408 6.7416271,11.227317 6.7282714,11.227512 C 6.6250629,11.229017 6.5250126,11.227436 6.4289318,11.188125 L 6.3265261,11.140861 L 6.3816676,11.235389 C 6.4433409,11.345662 6.4737906,11.471422 6.4761959,11.597747 C 6.4763749,11.602874 6.4760399,11.601176 6.4761959,11.605625 C 6.4763517,11.610074 6.4760661,11.609813 6.4761959,11.613502 C 6.476598,11.623132 6.4759818,11.631988 6.4761959,11.637134 C 6.4763384,11.640566 6.4761298,11.64348 6.4761959,11.645012 C 6.476202,11.645139 6.476181,11.652638 6.4761959,11.652889 L 6.5392148,13.992465 C 6.5392082,13.992478 6.5392208,14.000322 6.5392148,14.000342 C 6.5391908,14.000423 6.5393514,14.007009 6.5392148,14.00822 C 6.5391367,14.010625 6.5391999,14.012968 6.5392148,14.016097 C 6.5393202,14.016671 6.5392471,14.02408 6.5392148,14.023973 C 6.5391984,14.023921 6.5392299,14.031881 6.5392148,14.031851 C 6.5396158,14.037113 6.5386559,14.039535 6.5392148,14.047606 L 6.5392148,14.142134 C 6.5392269,14.144637 6.5392271,14.147509 6.5392148,14.150011 L 6.5470921,14.150011 C 6.5473137,14.153384 6.5468617,14.154389 6.5470921,14.157889 C 6.5502272,14.197869 6.5502274,14.243946 6.5470921,14.283927 L 6.5470921,14.299682 L 6.5628469,14.315436 C 6.594747,14.338131 6.6293005,14.359047 6.6573751,14.386332 C 6.7335383,14.464103 6.8232282,14.514849 6.9252053,14.51237 C 7.0072196,14.510377 7.0725467,14.480452 7.1457714,14.417842 C 7.1765137,14.392835 7.2060716,14.366919 7.2402996,14.346946 L 7.2639317,14.339069 L 7.2639317,14.315436 C 7.2628833,14.272757 7.2657645,14.231661 7.271809,14.189399 C 7.275935,14.157521 7.2787451,14.145404 7.2796865,14.134257 C 7.2799509,14.131121 7.2795682,14.120035 7.2796865,14.118503 C 7.2797535,14.11763 7.2796877,14.110611 7.2796865,14.110625 L 7.2796865,14.102748 L 7.2166675,11.723785 C 7.2167085,11.723593 7.2165968,11.717139 7.2166675,11.715908 L 7.2166675,11.70803 C 7.2165385,11.707293 7.2166416,11.700076 7.2166675,11.700154 C 7.2162781,11.694239 7.2173195,11.688279 7.2166675,11.676521 C 7.2165589,11.659294 7.2168798,11.635206 7.2166675,11.605625 C 7.2166184,11.60062 7.2166186,11.594875 7.2166675,11.589871 L 7.2087902,11.589871 C 7.2084306,11.583344 7.2091825,11.581169 7.2087902,11.574116 C 7.2030036,11.447164 7.2246175,11.318412 7.2796865,11.20388 L 7.3269505,11.109352 z M 7.2009129,11.235389 C 7.1585867,11.344528 7.1246649,11.456699 7.1300166,11.574116 C 7.1325763,11.620132 7.1365804,11.660704 7.137894,11.684399 L 7.137894,11.70803 C 7.1378701,11.710261 7.1378768,11.716204 7.137894,11.715908 C 7.1379746,11.716551 7.1377077,11.722718 7.137894,11.723785 C 7.13808,11.724853 7.137868,11.731584 7.137894,11.731662 L 7.2009129,14.102748 C 7.200901,14.102834 7.2009492,14.110213 7.2009129,14.110625 L 7.2009129,14.134257 C 7.199868,14.145586 7.1962527,14.148788 7.1930355,14.173644 C 7.1871311,14.214924 7.1848925,14.258085 7.1851581,14.299682 C 7.1563114,14.317836 7.1249612,14.333304 7.0985072,14.354823 C 7.0317032,14.411943 6.9910744,14.431996 6.9252053,14.433597 C 6.8468727,14.4355 6.7698534,14.405658 6.7046393,14.339069 C 6.679154,14.3143 6.6542552,14.289525 6.6258657,14.268172 C 6.6281256,14.229707 6.6288792,14.196316 6.6258657,14.157889 C 6.6226236,14.108666 6.6196866,14.072128 6.6179884,14.047606 L 6.6179884,14.016097 L 6.5549694,11.652889 L 6.5549694,11.645012 L 6.5549694,11.637134 C 6.5548354,11.633117 6.5553397,11.623777 6.5549694,11.613502 C 6.5548348,11.610287 6.5551257,11.609349 6.5549694,11.605625 C 6.5548185,11.601384 6.5551482,11.602864 6.5549694,11.597747 C 6.5526978,11.478445 6.5111731,11.366415 6.4604412,11.259022 C 6.5460798,11.286754 6.6383591,11.298947 6.7282714,11.298408 C 6.7575096,11.298233 6.7857103,11.317395 6.8149223,11.314163 C 6.8353339,11.311707 6.8468794,11.308183 6.8621865,11.306285 C 6.8700648,11.305308 6.8792714,11.29925 6.8858185,11.298408 C 6.896259,11.298571 6.9069087,11.298631 6.917328,11.298408 C 6.9198442,11.298033 6.9230856,11.298755 6.9252053,11.298408 C 6.9315641,11.297366 6.9283129,11.29594 6.94096,11.29053 C 6.9435585,11.290398 6.946241,11.290688 6.9488374,11.29053 C 6.9488848,11.290499 6.9566842,11.282684 6.9567147,11.282653 C 7.0404663,11.276636 7.1225078,11.265805 7.2009129,11.235389 z M 6.7912902,11.47171 C 6.763563,11.475394 6.7404537,11.478211 6.7125166,11.479588 L 6.6652525,11.479588 L 6.6731299,11.526851 C 6.6764341,11.549541 6.6792502,11.567009 6.6810072,11.589871 C 6.6810927,11.597464 6.6810927,11.605908 6.6810072,11.613502 L 6.744026,14.000342 C 6.7441002,14.003158 6.7439432,14.0051 6.744026,14.00822 C 6.7448562,14.03941 6.7425764,14.080925 6.744026,14.142134 L 6.7519035,14.142134 C 6.7519889,14.149727 6.7519889,14.158172 6.7519035,14.165766 L 6.7519035,14.181521 L 6.7597808,14.189399 C 6.7675639,14.19938 6.7760094,14.210641 6.7834129,14.220908 L 6.7912902,14.220908 C 6.8233013,14.253594 6.8541042,14.268752 6.8779412,14.268172 C 6.8792625,14.26814 6.8801794,14.268211 6.8858185,14.268172 C 6.8914577,14.268132 6.9031752,14.263988 6.9094506,14.260294 C 6.9220017,14.252909 6.9246255,14.25063 6.94096,14.236663 C 6.948485,14.231498 6.9569303,14.225867 6.9645921,14.220908 L 6.9803468,14.213031 L 6.9803468,14.189399 C 6.9803372,14.186868 6.9803372,14.184052 6.9803468,14.181521 C 6.9822193,14.173762 6.986169,14.165601 6.9882242,14.157889 C 6.9894302,14.148573 6.9873575,14.141686 6.9882242,14.134257 L 6.9961015,14.134257 C 6.9969536,14.126918 6.9955326,14.116095 6.9961015,14.110625 L 6.9961015,14.09487 L 6.9961015,14.086993 C 6.9961122,14.085916 6.996155,14.080991 6.9961015,14.079116 L 6.9330827,11.763172 C 6.9330701,11.762801 6.9331114,11.75628 6.9330827,11.755295 C 6.9330252,11.753324 6.9332011,11.751372 6.9330827,11.747417 C 6.9328457,11.739508 6.9336553,11.731303 6.9330827,11.715908 C 6.9319373,11.685119 6.9284811,11.640878 6.9252053,11.581993 C 6.9244365,11.559218 6.9244365,11.533872 6.9252053,11.511096 L 6.9252053,11.47171 L 6.8858185,11.47171 C 6.8706327,11.472051 6.8537402,11.472051 6.8385544,11.47171 L 6.830677,11.47171 C 6.8248675,11.470862 6.806231,11.469912 6.7912902,11.47171 z M 6.807045,11.550484 C 6.8175817,11.549216 6.8120116,11.550058 6.8149223,11.550484 C 6.8171053,11.550802 6.8300156,11.550615 6.8385544,11.550484 C 6.8414006,11.55044 6.8433577,11.550821 6.8464317,11.550484 C 6.8464726,11.561366 6.8460645,11.571115 6.8464317,11.581993 C 6.84968,11.640385 6.8531793,11.685541 6.8543091,11.715908 C 6.854874,11.731091 6.8540762,11.747516 6.8543091,11.755295 C 6.8544256,11.759184 6.8542494,11.761128 6.8543091,11.763172 L 6.8543091,11.77105 L 6.917328,14.079116 C 6.9163496,14.085316 6.9176019,14.083981 6.917328,14.086993 C 6.917054,14.090004 6.9178752,14.089413 6.917328,14.09487 L 6.917328,14.102748 C 6.9162254,14.11329 6.9117745,14.124182 6.9094506,14.142134 C 6.9072419,14.150422 6.9035853,14.157429 6.9015732,14.165766 C 6.9003205,14.166607 6.9028228,14.172798 6.9015732,14.173644 C 6.899699,14.174912 6.895562,14.172363 6.8936959,14.173644 C 6.8824382,14.18327 6.8805509,14.187128 6.8779412,14.189399 C 6.8676021,14.189649 6.8598036,14.186362 6.8464317,14.173644 C 6.8407033,14.1657 6.8366176,14.157798 6.830677,14.150011 C 6.830667,14.147292 6.8307075,14.144854 6.830677,14.142134 C 6.8265349,14.079247 6.8247717,14.031334 6.8227996,14.000342 L 6.8149223,13.97671 C 6.8148651,13.974276 6.8149618,13.970765 6.8149223,13.968832 C 6.8149178,13.968847 6.8149266,13.960933 6.8149223,13.960955 C 6.8146453,13.957042 6.8151437,13.955485 6.8149223,13.953078 L 6.8149223,13.9452 L 6.7597808,11.613502 C 6.7598726,11.605341 6.7598726,11.59803 6.7597808,11.589871 C 6.7590332,11.580141 6.7607899,11.568066 6.7597808,11.558361 C 6.7748491,11.556995 6.7920434,11.552477 6.807045,11.550484 z"
       id="path3400" />
    <path
       style="fill:none;fill-opacity:1;fill-rule:evenodd;stroke:#462200;stroke-width:3;stroke-linecap:round;stroke-linejoin:miter;stroke-miterlimit:4;stroke-dasharray:none;stroke-opacity:1;filter:url(#filter3773)"
       d="M 49.686366,68.14361 C 49.167559,68.208035 48.720981,68.530067 48.467616,68.98736 C 48.214249,69.444654 48.18464,69.982083 48.405116,70.45611 L 50.436366,75.23736 C 50.449717,75.268947 50.452563,75.300807 50.467616,75.33111 C 50.457412,75.341721 50.446437,75.3516 50.436366,75.36236 L 34.342615,91.79986 C 34.022171,92.117994 33.787183,92.488335 33.623865,92.89361 C 33.509351,92.888779 33.395485,92.858384 33.280115,92.86236 C 33.151198,92.866762 33.032194,92.909573 32.905115,92.92486 C 32.7948,92.711582 32.660248,92.522379 32.498865,92.33111 L 26.873865,85.58111 C 26.658821,85.316428 26.401458,85.106931 26.123865,84.92486 L 27.936365,81.64361 C 28.241146,81.110357 28.209989,80.438932 27.873865,79.92486 C 27.53774,79.410786 26.953337,79.140765 26.342615,79.20611 C 25.795547,79.263716 25.314097,79.592512 25.061365,80.08111 L 23.123865,83.67486 C 22.894416,83.990675 22.786237,84.362336 22.811365,84.73736 C 22.299315,84.99908 21.87549,85.404529 21.561365,85.89361 C 21.46637,85.883048 21.37871,85.887059 21.280115,85.89361 C 21.238054,85.902381 21.196355,85.912805 21.155115,85.92486 L 16.530116,86.61236 C 15.911908,86.651985 15.364831,87.041669 15.123867,87.61236 C 14.882903,88.183053 15.002383,88.829161 15.405117,89.29986 C 15.807851,89.770558 16.429019,89.980891 17.030116,89.83111 L 21.405115,89.17486 C 21.522018,89.395815 21.673774,89.606791 21.842615,89.79986 L 27.498865,96.54986 C 27.895129,97.019506 28.394387,97.333268 28.936365,97.51861 C 28.936736,97.529255 28.935918,97.53921 28.936365,97.54986 L 29.186365,107.5811 C 29.187893,107.64565 29.213411,107.70477 29.217615,107.7686 C 29.010123,107.79702 28.811299,107.84738 28.623865,107.9561 C 26.695763,109.12072 21.13727,113.15974 21.561365,113.92485 C 21.87987,114.49946 28.164951,111.34746 30.186365,110.79985 C 30.298678,110.7415 30.404938,110.69281 30.498865,110.61235 C 31.341666,111.47293 32.512107,112.01893 33.811365,111.98735 C 34.887579,111.96119 35.833616,111.54258 36.592615,110.8936 C 36.642383,110.92794 36.694811,110.95833 36.748865,110.98735 C 38.752206,112.01718 45.13274,114.62492 45.561366,113.86235 C 45.883275,113.28964 39.900999,109.57672 38.373865,108.1436 C 38.294081,108.09587 38.208943,108.08288 38.123865,108.04985 C 38.153271,107.82267 38.192253,107.59848 38.186365,107.36235 L 37.936365,97.33111 C 37.935876,97.257465 37.909186,97.185543 37.905115,97.11236 C 38.307651,96.943587 38.685423,96.717979 38.998865,96.39361 L 55.092616,79.92486 C 55.406761,79.613408 55.648688,79.253791 55.811366,78.86236 L 58.280116,79.70611 C 59.134431,79.999511 60.080465,79.560425 60.373866,78.70611 C 60.667267,77.851795 60.196931,76.905761 59.342616,76.61236 L 55.217616,75.20611 C 55.112588,75.168248 55.015064,75.128067 54.905116,75.11236 C 54.52386,74.788557 54.078168,74.578701 53.592616,74.45611 C 53.5792,74.28393 53.538553,74.123936 53.467616,73.95611 L 51.405116,69.14361 C 51.123944,68.460229 50.419417,68.050323 49.686366,68.14361 z"
       id="path3731"
       clip-path="url(#clipPath3777)"
       transform="matrix(0.2520754,0,0,0.2520754,-1.5827034,-13.010869)" />
    <path
       style="fill:url(#radialGradient3691);fill-opacity:1;fill-rule:evenodd;stroke:#0e5e00;stroke-width:1;stroke-linecap:round;stroke-linejoin:miter;marker:none;marker-start:none;marker-mid:none;marker-end:none;stroke-miterlimit:4.01000023;stroke-dasharray:none;stroke-dashoffset:0;stroke-opacity:1;visibility:visible;display:inline;overflow:visible;filter:url(#filter3681);enable-background:accumulate"
       d="M 7.59375,115.96875 C 3.351484,116.52181 -9.9999978e-07,125.55826 2.2382096e-13,136.59375 C 0.017826,136.594 0.013503,136.5935 0.03125,136.59375 C -0.136162,142.20862 0.552113,146.52136 1.09375,146.53125 C 1.526246,146.53915 1.889616,143.72662 2.09375,139.59375 C 2.247559,146.9046 2.526242,152 2.8125,152 C 3.094322,152 3.314303,147.0572 3.46875,139.9375 C 3.672455,141.9464 3.964556,143.1875 4.25,143.1875 C 4.541401,143.1875 4.794533,141.89724 5,139.8125 C 5.117255,148.78744 5.42275,155.125 5.75,155.125 C 6.112363,155.125 6.410467,147.20846 6.5,136.6875 C 6.505221,136.68755 6.526072,136.68745 6.53125,136.6875 C 6.54389,151.84437 6.750959,164 7.03125,164 C 7.311542,164 7.549858,151.84437 7.5625,136.6875 C 7.602039,136.6865 7.697973,136.65774 7.71875,136.65625 C 7.763792,149.41151 8.255711,159.5625 8.875,159.5625 C 9.49482,159.5625 9.986966,149.39583 10.03125,136.625 C 10.100161,136.62422 10.330683,136.62573 10.40625,136.625 C 10.481083,149.82635 10.804744,160.03125 11.21875,160.03125 C 11.632757,160.03125 11.956418,149.82635 12.03125,136.625 C 12.193276,136.62426 12.412847,136.59434 12.59375,136.59375 C 12.618313,151.11758 12.853012,162.625 13.125,162.625 C 13.396985,162.625 13.600436,151.11758 13.625,136.59375 C 13.63712,136.59373 13.644064,136.59377 13.65625,136.59375 C 13.74895,143.19357 14.229808,148.3125 14.8125,148.3125 C 15.39519,148.3125 15.876049,143.19357 15.96875,136.59375 C 16.021421,136.59384 16.009114,136.59365 16.0625,136.59375 C 16.0625,135.88178 16.02744,135.16222 16,134.46875 C 15.998736,134.43681 16.00132,134.40689 16,134.375 C 15.571257,124.01893 12.175386,115.96875 8.03125,115.96875 C 7.892687,115.96875 7.730597,115.95091 7.59375,115.96875 z"
       id="path3467"
       clip-path="url(#clipPath3541)"
       transform="matrix(-0.2520754,0,0,0.2520754,15.821664,-28.424946)" />
    <path
       style="fill:url(#radialGradient3711);fill-opacity:1;fill-rule:evenodd;stroke:#0e5e00;stroke-width:1;stroke-linecap:round;stroke-linejoin:miter;marker:none;marker-start:none;marker-mid:none;marker-end:none;stroke-miterlimit:4.01000023;stroke-dasharray:none;stroke-dashoffset:0;stroke-opacity:1;visibility:visible;display:inline;overflow:visible;filter:url(#filter3681);enable-background:accumulate"
       d="M 7.59375,115.96875 C 3.351484,116.52181 -9.9999978e-07,125.55826 2.2382096e-13,136.59375 C 0.017826,136.594 0.013503,136.5935 0.03125,136.59375 C -0.136162,142.20862 0.552113,146.52136 1.09375,146.53125 C 1.526246,146.53915 1.889616,143.72662 2.09375,139.59375 C 2.247559,146.9046 2.526242,152 2.8125,152 C 3.094322,152 3.314303,147.0572 3.46875,139.9375 C 3.672455,141.9464 3.964556,143.1875 4.25,143.1875 C 4.541401,143.1875 4.794533,141.89724 5,139.8125 C 5.117255,148.78744 5.42275,155.125 5.75,155.125 C 6.112363,155.125 6.410467,147.20846 6.5,136.6875 C 6.505221,136.68755 6.526072,136.68745 6.53125,136.6875 C 6.54389,151.84437 6.750959,164 7.03125,164 C 7.311542,164 7.549858,151.84437 7.5625,136.6875 C 7.602039,136.6865 7.697973,136.65774 7.71875,136.65625 C 7.763792,149.41151 8.255711,159.5625 8.875,159.5625 C 9.49482,159.5625 9.986966,149.39583 10.03125,136.625 C 10.100161,136.62422 10.330683,136.62573 10.40625,136.625 C 10.481083,149.82635 10.804744,160.03125 11.21875,160.03125 C 11.632757,160.03125 11.956418,149.82635 12.03125,136.625 C 12.193276,136.62426 12.412847,136.59434 12.59375,136.59375 C 12.618313,151.11758 12.853012,162.625 13.125,162.625 C 13.396985,162.625 13.600436,151.11758 13.625,136.59375 C 13.63712,136.59373 13.644064,136.59377 13.65625,136.59375 C 13.74895,143.19357 14.229808,148.3125 14.8125,148.3125 C 15.39519,148.3125 15.876049,143.19357 15.96875,136.59375 C 16.021421,136.59384 16.009114,136.59365 16.0625,136.59375 C 16.0625,135.88178 16.02744,135.16222 16,134.46875 C 15.998736,134.43681 16.00132,134.40689 16,134.375 C 15.571257,124.01893 12.175386,115.96875 8.03125,115.96875 C 7.892687,115.96875 7.730597,115.95091 7.59375,115.96875 z"
       id="path3707"
       clip-path="url(#clipPath3541)"
       transform="matrix(-0.2520754,0,0,0.2520754,7.7050774,-27.807213)" />
    <path
       style="fill:url(#radialGradient3719);fill-opacity:1;fill-rule:evenodd;stroke:#0e5e00;stroke-width:1;stroke-linecap:round;stroke-linejoin:miter;marker:none;marker-start:none;marker-mid:none;marker-end:none;stroke-miterlimit:4.01000023;stroke-dasharray:none;stroke-dashoffset:0;stroke-opacity:1;visibility:visible;display:inline;overflow:visible;filter:url(#filter3681);enable-background:accumulate"
       d="M 7.59375,115.96875 C 3.351484,116.52181 -9.9999978e-07,125.55826 2.2382096e-13,136.59375 C 0.017826,136.594 0.013503,136.5935 0.03125,136.59375 C -0.136162,142.20862 0.552113,146.52136 1.09375,146.53125 C 1.526246,146.53915 1.889616,143.72662 2.09375,139.59375 C 2.247559,146.9046 2.526242,152 2.8125,152 C 3.094322,152 3.314303,147.0572 3.46875,139.9375 C 3.672455,141.9464 3.964556,143.1875 4.25,143.1875 C 4.541401,143.1875 4.794533,141.89724 5,139.8125 C 5.117255,148.78744 5.42275,155.125 5.75,155.125 C 6.112363,155.125 6.410467,147.20846 6.5,136.6875 C 6.505221,136.68755 6.526072,136.68745 6.53125,136.6875 C 6.54389,151.84437 6.750959,164 7.03125,164 C 7.311542,164 7.549858,151.84437 7.5625,136.6875 C 7.602039,136.6865 7.697973,136.65774 7.71875,136.65625 C 7.763792,149.41151 8.255711,159.5625 8.875,159.5625 C 9.49482,159.5625 9.986966,149.39583 10.03125,136.625 C 10.100161,136.62422 10.330683,136.62573 10.40625,136.625 C 10.481083,149.82635 10.804744,160.03125 11.21875,160.03125 C 11.632757,160.03125 11.956418,149.82635 12.03125,136.625 C 12.193276,136.62426 12.412847,136.59434 12.59375,136.59375 C 12.618313,151.11758 12.853012,162.625 13.125,162.625 C 13.396985,162.625 13.600436,151.11758 13.625,136.59375 C 13.63712,136.59373 13.644064,136.59377 13.65625,136.59375 C 13.74895,143.19357 14.229808,148.3125 14.8125,148.3125 C 15.39519,148.3125 15.876049,143.19357 15.96875,136.59375 C 16.021421,136.59384 16.009114,136.59365 16.0625,136.59375 C 16.0625,135.88178 16.02744,135.16222 16,134.46875 C 15.998736,134.43681 16.00132,134.40689 16,134.375 C 15.571257,124.01893 12.175386,115.96875 8.03125,115.96875 C 7.892687,115.96875 7.730597,115.95091 7.59375,115.96875 z"
       id="path3715"
       clip-path="url(#clipPath3541)"
       transform="matrix(-0.2520754,0,0,0.2520754,12.577851,-28.794936)" />
    <path
       style="fill:url(#radialGradient3703);fill-opacity:1;fill-rule:evenodd;stroke:#0e5e00;stroke-width:1;stroke-linecap:round;stroke-linejoin:miter;marker:none;marker-start:none;marker-mid:none;marker-end:none;stroke-miterlimit:4.01000023;stroke-dasharray:none;stroke-dashoffset:0;stroke-opacity:1;visibility:visible;display:inline;overflow:visible;filter:url(#filter3681);enable-background:accumulate"
       d="M 7.59375,115.96875 C 3.351484,116.52181 -9.9999978e-07,125.55826 2.2382096e-13,136.59375 C 0.017826,136.594 0.013503,136.5935 0.03125,136.59375 C -0.136162,142.20862 0.552113,146.52136 1.09375,146.53125 C 1.526246,146.53915 1.889616,143.72662 2.09375,139.59375 C 2.247559,146.9046 2.526242,152 2.8125,152 C 3.094322,152 3.314303,147.0572 3.46875,139.9375 C 3.672455,141.9464 3.964556,143.1875 4.25,143.1875 C 4.541401,143.1875 4.794533,141.89724 5,139.8125 C 5.117255,148.78744 5.42275,155.125 5.75,155.125 C 6.112363,155.125 6.410467,147.20846 6.5,136.6875 C 6.505221,136.68755 6.526072,136.68745 6.53125,136.6875 C 6.54389,151.84437 6.750959,164 7.03125,164 C 7.311542,164 7.549858,151.84437 7.5625,136.6875 C 7.602039,136.6865 7.697973,136.65774 7.71875,136.65625 C 7.763792,149.41151 8.255711,159.5625 8.875,159.5625 C 9.49482,159.5625 9.986966,149.39583 10.03125,136.625 C 10.100161,136.62422 10.330683,136.62573 10.40625,136.625 C 10.481083,149.82635 10.804744,160.03125 11.21875,160.03125 C 11.632757,160.03125 11.956418,149.82635 12.03125,136.625 C 12.193276,136.62426 12.412847,136.59434 12.59375,136.59375 C 12.618313,151.11758 12.853012,162.625 13.125,162.625 C 13.396985,162.625 13.600436,151.11758 13.625,136.59375 C 13.63712,136.59373 13.644064,136.59377 13.65625,136.59375 C 13.74895,143.19357 14.229808,148.3125 14.8125,148.3125 C 15.39519,148.3125 15.876049,143.19357 15.96875,136.59375 C 16.021421,136.59384 16.009114,136.59365 16.0625,136.59375 C 16.0625,135.88178 16.02744,135.16222 16,134.46875 C 15.998736,134.43681 16.00132,134.40689 16,134.375 C 15.571257,124.01893 12.175386,115.96875 8.03125,115.96875 C 7.892687,115.96875 7.730597,115.95091 7.59375,115.96875 z"
       id="path3699"
       clip-path="url(#clipPath3541)"
       transform="matrix(-0.2520754,0,0,0.2520754,4.412663,-26.095157)" />
  </g>
</svg>
