<?xml version="1.0" encoding="UTF-8" standalone="no"?>
<!-- Created with Inkscape (http://www.inkscape.org/) -->
<svg
   xmlns:dc="http://purl.org/dc/elements/1.1/"
   xmlns:cc="http://creativecommons.org/ns#"
   xmlns:rdf="http://www.w3.org/1999/02/22-rdf-syntax-ns#"
   xmlns:svg="http://www.w3.org/2000/svg"
   xmlns="http://www.w3.org/2000/svg"
   xmlns:xlink="http://www.w3.org/1999/xlink"
   xmlns:sodipodi="http://sodipodi.sourceforge.net/DTD/sodipodi-0.dtd"
   xmlns:inkscape="http://www.inkscape.org/namespaces/inkscape"
   width="64"
   height="64"
   id="svg2"
   sodipodi:version="0.32"
   inkscape:version="0.46"
   sodipodi:docbase="C:\Dokumente und Einstellungen\Frosty\Eigene Dateien\inkscape\smc"
   sodipodi:docname="tree2.svg"
   inkscape:output_extension="org.inkscape.output.svg.inkscape"
   version="1.0"
   inkscape:export-filename="C:\Dokumente und Einstellungen\Frosty\Desktop\SMC\Drafts\Game\Frostbringer\overworld\gras\tree2.png"
   inkscape:export-xdpi="90"
   inkscape:export-ydpi="90">
  <defs
     id="defs4">
    <inkscape:perspective
       sodipodi:type="inkscape:persp3d"
       inkscape:vp_x="0 : 30 : 1"
       inkscape:vp_y="0 : 1000 : 0"
       inkscape:vp_z="60 : 30 : 1"
       inkscape:persp3d-origin="30 : 20 : 1"
       id="perspective41" />
    <linearGradient
       id="linearGradient9765">
      <stop
         style="stop-color:#52ca00;stop-opacity:1;"
         offset="0"
         id="stop9767" />
      <stop
         style="stop-color:#447821;stop-opacity:1;"
         offset="1"
         id="stop9769" />
    </linearGradient>
    <radialGradient
       r="10.68198"
       fy="25.746284"
       fx="28.924181"
       cy="25.746284"
       cx="28.924181"
       gradientTransform="matrix(1.5769005,1.6109885e-2,-1.3797303e-2,1.3432166,-18.509002,-12.289504)"
       gradientUnits="userSpaceOnUse"
       id="radialGradient4437"
       xlink:href="#linearGradient4427"
       inkscape:collect="always" />
    <radialGradient
       r="10.68198"
       fy="35.032475"
       fx="28.8822"
       cy="35.032475"
       cx="28.8822"
       gradientTransform="matrix(1.7222839,0,0,1.3432871,-23.169578,-11.825353)"
       gradientUnits="userSpaceOnUse"
       id="radialGradient4435"
       xlink:href="#linearGradient4427"
       inkscape:collect="always" />
    <radialGradient
       gradientUnits="userSpaceOnUse"
       gradientTransform="matrix(1.3345948,0,0,1.3432871,-11.855736,-11.825353)"
       r="10.68198"
       fy="18.956573"
       fx="29.829231"
       cy="18.956573"
       cx="29.829231"
       id="radialGradient4433"
       xlink:href="#linearGradient4427"
       inkscape:collect="always" />
    <linearGradient
       gradientTransform="matrix(1.3345948,0,0,1.3309736,23.630398,-10.005687)"
       gradientUnits="userSpaceOnUse"
       y2="48.305096"
       x2="10.494151"
       y1="48.305096"
       x1="2.2946415"
       id="linearGradient3147"
       xlink:href="#linearGradient3141"
       inkscape:collect="always" />
    <linearGradient
       id="linearGradient3141">
      <stop
         id="stop3143"
         offset="0"
         style="stop-color:#291000;stop-opacity:1;" />
      <stop
         style="stop-color:#b74900;stop-opacity:1;"
         offset="0.5"
         id="stop3149" />
      <stop
         id="stop3145"
         offset="1"
         style="stop-color:#5d2500;stop-opacity:1;" />
    </linearGradient>
    <linearGradient
       id="linearGradient4427">
      <stop
         id="stop4429"
         offset="0"
         style="stop-color:#008000;stop-opacity:1;" />
      <stop
         id="stop4431"
         offset="1"
         style="stop-color:#2d4300;stop-opacity:1;" />
    </linearGradient>
    <filter
       inkscape:collect="always"
       x="-0.093195446"
       width="1.1863909"
       y="-0.18507566"
       height="1.3701513"
       id="filter7819">
      <feGaussianBlur
         inkscape:collect="always"
         stdDeviation="2.3905607"
         id="feGaussianBlur7821" />
    </filter>
    <clipPath
       clipPathUnits="userSpaceOnUse"
       id="clipPath7823">
      <path
         style="opacity:1;fill:#447821;fill-opacity:1;fill-rule:evenodd;stroke:#000000;stroke-width:0.5;stroke-linecap:butt;stroke-linejoin:miter;marker:none;marker-start:none;marker-mid:none;marker-end:none;stroke-miterlimit:4;stroke-dasharray:none;stroke-dashoffset:0;stroke-opacity:1;visibility:visible;display:inline;overflow:visible;enable-background:accumulate"
         d="M 97.124993,4.2499996 C 93.703973,4.2499996 90.92458,6.034895 90.71875,8.281249 C 89.69776,6.808592 87.46699,5.78125 84.875,5.78125 C 81.49508,5.78125 78.73344,7.510615 78.46875,9.718749 C 77.51202,8.146989 75.19967,7.031249 72.5,7.031249 C 68.94526,7.031249 66.0625,8.942681 66.0625,11.312499 C 66.06249,12.039243 66.33375,12.743577 66.8125,13.343749 C 66.77058,13.343212 66.7296,13.343749 66.6875,13.343749 C 63.13276,13.343749 60.25,15.255181 60.25,17.625 C 60.24999,19.799729 62.69662,21.593586 65.84375,21.875 C 65.18729,22.54766 64.8125,23.356998 64.8125,24.21875 C 64.81249,26.588568 67.69527,28.5 71.25,28.5 C 73.63327,28.5 75.69895,27.627776 76.8125,26.34375 C 77.4133,28.29948 79.98336,29.75 83.09375,29.75 C 86.64848,29.75 89.5625,27.838568 89.5625,25.46875 C 89.5625,24.979567 89.41388,24.500643 89.1875,24.0625 C 89.19798,24.0615 89.20828,24.063509 89.21875,24.0625 C 90.04731,24.321446 90.96244,24.46875 91.9375,24.46875 C 94.691183,24.46875 97.048653,23.309318 97.968743,21.6875 C 98.110123,21.61336 98.240133,21.514216 98.374993,21.4375 C 99.253753,21.737416 100.22681,21.9375 101.28124,21.9375 C 104.70853,21.9375 107.4908,20.127164 107.6875,17.875 C 108.37577,18.04248 109.10014,18.15625 109.875,18.15625 C 113.42973,18.15625 116.3125,16.213567 116.3125,13.843749 C 116.3125,11.473931 113.42973,9.562499 109.875,9.562499 C 109.39561,9.5625 108.94959,9.621163 108.5,9.687499 C 107.32452,8.849544 105.66789,8.281249 103.81249,8.281249 C 103.71468,8.281249 103.62799,8.309617 103.53124,8.312499 C 103.34702,6.052461 100.56077,4.2499996 97.124993,4.2499996 z"
         id="path7825" />
    </clipPath>
    <radialGradient
       inkscape:collect="always"
       xlink:href="#linearGradient9765"
       id="radialGradient9771"
       cx="17.460562"
       cy="20.728434"
       fx="17.460562"
       fy="20.728434"
       r="28.281252"
       gradientTransform="matrix(0.7178428,0,0,0.3666467,6.0367658,16.400443)"
       gradientUnits="userSpaceOnUse" />
    <filter
       inkscape:collect="always"
       x="-0.084087707"
       width="1.1681755"
       y="-0.13672401"
       height="1.273448"
       id="filter11819">
      <feGaussianBlur
         inkscape:collect="always"
         stdDeviation="0.91861441"
         id="feGaussianBlur11821" />
    </filter>
    <clipPath
       clipPathUnits="userSpaceOnUse"
       id="clipPath11823">
      <path
         style="opacity:1;fill:none;fill-opacity:1;fill-rule:evenodd;stroke:#000000;stroke-width:0.5;stroke-linecap:butt;stroke-linejoin:miter;marker:none;marker-start:none;marker-mid:none;marker-end:none;stroke-miterlimit:4;stroke-dasharray:none;stroke-dashoffset:0;stroke-opacity:1;visibility:visible;display:inline;overflow:visible;enable-background:accumulate"
         d="M 86.6875,26.125 C 83.13277,26.125 80.25,28.036432 80.25,30.40625 C 80.25,32.606652 82.73632,34.407923 85.9375,34.65625 C 85.86274,34.917802 85.8125,35.192753 85.8125,35.46875 C 85.8125,37.838568 88.69528,39.749999 92.250002,39.75 C 95.173719,39.75 97.621233,38.467993 98.406252,36.6875 C 101.54856,36.4032 103.96875,34.609945 103.96875,32.4375 C 103.96875,30.067682 101.08597,28.156249 97.531252,28.15625 C 95.734893,28.15625 94.137168,28.645756 92.968752,29.4375 C 92.303172,27.539382 89.73657,26.125 86.6875,26.125 z"
         id="path11825" />
    </clipPath>
    <radialGradient
       inkscape:collect="always"
       xlink:href="#linearGradient9765"
       id="radialGradient12802"
       cx="41.739578"
       cy="27.923384"
       fx="41.739578"
       fy="27.923384"
       r="12.109376"
       gradientTransform="matrix(0.6781048,2.2975704e-8,-1.678703e-8,0.4954523,16.968141,18.078513)"
       gradientUnits="userSpaceOnUse" />
    <clipPath
       clipPathUnits="userSpaceOnUse"
       id="clipPath13821">
      <path
         style="opacity:1;fill:none;fill-opacity:1;fill-rule:evenodd;stroke:#000000;stroke-width:0.5;stroke-linecap:butt;stroke-linejoin:miter;marker:none;marker-start:none;marker-mid:none;marker-end:none;stroke-miterlimit:4;stroke-dasharray:none;stroke-dashoffset:0;stroke-opacity:1;visibility:visible;display:inline;overflow:visible;enable-background:accumulate"
         d="M 1.817464,39.226972 C 1.451004,39.244004 1.136314,39.307136 0.879964,39.476972 C -0.487236,40.382762 0.442894,43.228735 2.973714,45.820722 C 4.157604,47.033223 5.480294,47.969993 6.692464,48.539472 C 6.411524,49.023629 6.168414,49.542272 5.942464,50.101972 C 5.649294,50.828225 5.456274,51.534259 5.317464,52.226972 C 3.719574,52.49671 4.265214,51.745648 1.955857,52.843043 C 0.574991,53.499224 0.101464,54.207742 0.442464,54.847508 C 0.783464,55.487274 2.150884,55.485831 3.174607,55.186793 C 5.082655,54.629436 3.848804,54.893646 5.129964,54.258222 C 5.174094,55.756442 5.644554,56.916915 6.567464,57.289472 C 6.949604,57.443735 7.378634,57.437067 7.817464,57.320722 C 7.941304,57.544928 8.060534,57.748828 8.192464,57.976972 C 10.146374,61.355944 15.589285,58.992645 15.527285,58.298401 C 15.41639,57.056631 12.333874,60.105945 10.379964,56.726972 C 10.218054,56.446971 10.073894,56.180767 9.911214,55.914472 C 10.717834,55.065703 11.480624,53.915782 12.036214,52.539472 C 12.678824,50.947606 12.934644,49.413237 12.848714,48.133222 C 13.244674,48.018077 13.682474,47.816617 14.161214,47.539472 C 15.894624,46.535987 17.381564,44.842249 17.473714,43.758222 C 17.508274,43.35171 17.317024,43.094336 17.004964,42.976972 C 16.484864,42.781362 15.557094,43.006043 14.473714,43.633222 C 13.488734,44.203437 12.618614,44.980641 12.004964,45.758222 C 11.827774,45.57613 11.610094,45.444874 11.379964,45.351972 C 10.959854,45.182381 10.491174,45.165425 10.004964,45.320722 C 9.538904,44.424889 8.854094,43.473138 7.942464,42.539472 C 5.886174,40.433483 3.405464,39.153167 1.817464,39.226972 z"
         id="path13823"
         sodipodi:nodetypes="csscscssscscssscscsssscscsc" />
    </clipPath>
    <filter
       inkscape:collect="always"
       x="-0.11923934"
       width="1.2384787"
       y="-0.10053444"
       height="1.2010689"
       id="filter14810">
      <feGaussianBlur
         inkscape:collect="always"
         stdDeviation="0.88076784"
         id="feGaussianBlur14812" />
    </filter>
  </defs>
  <sodipodi:namedview
     id="base"
     pagecolor="#ffffff"
     bordercolor="#666666"
     borderopacity="1.0"
     inkscape:pageopacity="0.0"
     inkscape:pageshadow="2"
     inkscape:zoom="4"
     inkscape:cx="78.95184"
     inkscape:cy="45.831115"
     inkscape:document-units="px"
     inkscape:current-layer="layer1"
     inkscape:window-width="1024"
     inkscape:window-height="696"
     inkscape:window-x="-4"
     inkscape:window-y="-4"
     width="60px"
     height="60px"
     showgrid="false" />
  <metadata
     id="metadata7">
    <rdf:RDF>
      <cc:Work
         rdf:about="">
        <dc:format>image/svg+xml</dc:format>
        <dc:type
           rdf:resource="http://purl.org/dc/dcmitype/StillImage" />
      </cc:Work>
    </rdf:RDF>
  </metadata>
  <g
     inkscape:label="Ebene 1"
     inkscape:groupmode="layer"
     id="layer1">
    <path
       style="opacity:1;fill:url(#radialGradient12802);fill-opacity:1;fill-rule:evenodd;stroke:none;stroke-width:0.5;stroke-linecap:butt;stroke-linejoin:miter;marker:none;marker-start:none;marker-mid:none;marker-end:none;stroke-miterlimit:4;stroke-dasharray:none;stroke-dashoffset:0;stroke-opacity:1;visibility:visible;display:inline;overflow:visible;enable-background:accumulate"
       d="M 45.200759,24.421063 C 41.291386,24.421063 38.121013,26.523191 38.121013,29.129437 C 38.121013,31.549366 40.855384,33.530343 44.375934,33.803444 C 44.293715,34.09109 44.238463,34.393472 44.238463,34.697005 C 44.238463,37.303251 47.408848,39.405378 51.318211,39.405379 C 54.533617,39.405379 57.22531,37.995471 58.088648,36.037345 C 61.544458,35.724681 64.206097,33.75252 64.206098,31.363338 C 64.206098,28.757092 61.035717,26.654962 57.126352,26.654963 C 55.150777,26.654963 53.393653,27.193305 52.108668,28.064039 C 51.376686,25.976553 48.554023,24.421063 45.200759,24.421063 z"
       id="path4700" />
    <path
       style="opacity:1;fill:none;fill-opacity:1;fill-rule:evenodd;stroke:#082a00;stroke-width:2.5;stroke-linecap:butt;stroke-linejoin:miter;marker:none;marker-start:none;marker-mid:none;marker-end:none;stroke-miterlimit:4;stroke-dasharray:none;stroke-dashoffset:0;stroke-opacity:1;visibility:visible;display:inline;overflow:visible;filter:url(#filter11819);enable-background:accumulate"
       d="M 86.6875,26.125 C 83.13277,26.125 80.25,28.036432 80.25,30.40625 C 80.25,32.606652 82.73632,34.407923 85.9375,34.65625 C 85.86274,34.917802 85.8125,35.192753 85.8125,35.46875 C 85.8125,37.838568 88.69528,39.749999 92.250002,39.75 C 95.173719,39.75 97.621233,38.467993 98.40625,36.6875 C 101.54856,36.4032 103.96875,34.609945 103.96875,32.4375 C 103.96875,30.067682 101.08597,28.156249 97.531252,28.15625 C 95.734893,28.15625 94.137168,28.645756 92.968752,29.4375 C 92.303172,27.539382 89.73657,26.125 86.6875,26.125 z"
       id="path9775"
       clip-path="url(#clipPath11823)"
       transform="matrix(1.0997663,0,0,1.0997663,-50.317707,-4.2948107)" />
    <path
       style="opacity:1;fill:#784421;fill-opacity:1;fill-rule:evenodd;stroke:none;stroke-width:0.5;stroke-linecap:butt;stroke-linejoin:miter;marker:none;marker-start:none;marker-mid:none;marker-end:none;stroke-miterlimit:4;stroke-dasharray:none;stroke-dashoffset:0;stroke-opacity:1;visibility:visible;display:inline;overflow:visible;enable-background:accumulate"
       d="M 30.857394,28.362182 C 30.454374,28.380913 30.108288,28.450344 29.826363,28.637124 C 28.322762,29.633281 29.345688,32.763186 32.128999,35.613766 C 33.431001,36.947234 34.885651,37.977462 36.218755,38.603756 C 35.909786,39.136216 35.642422,39.706602 35.39393,40.322141 C 35.071512,41.12085 34.859235,41.897322 34.706576,42.659145 C 32.94927,42.955793 33.549347,42.129801 31.009594,43.336679 C 29.490964,44.058325 28.970195,44.837529 29.345215,45.541122 C 29.720236,46.244715 31.224078,46.243128 32.349934,45.914256 C 34.448341,45.301294 33.091393,45.591863 34.50037,44.893045 C 34.548903,46.540737 35.066299,47.816986 36.081284,48.226712 C 36.501549,48.396365 36.973381,48.389032 37.455992,48.261079 C 37.592187,48.507654 37.723312,48.731896 37.868404,48.982801 C 40.017249,52.698881 46.003179,50.099804 45.934994,49.336298 C 45.813035,47.970641 42.422988,51.324174 40.274143,47.608093 C 40.09608,47.300157 39.937538,47.007395 39.758628,46.714533 C 40.645721,45.781085 41.484612,44.516441 42.095631,43.002822 C 42.802352,41.252141 43.083694,39.564694 42.989191,38.156976 C 43.424655,38.030344 43.906133,37.808785 44.432635,37.50399 C 46.338981,36.400391 47.974267,34.537675 48.075611,33.345498 C 48.113619,32.89843 47.903288,32.615379 47.560095,32.486306 C 46.988107,32.271181 45.967777,32.518277 44.776312,33.208028 C 43.693064,33.835131 42.736135,34.689874 42.061263,35.545031 C 41.866396,35.344772 41.626999,35.200421 41.37391,35.098251 C 40.911887,34.911741 40.396448,34.893093 39.861731,35.063883 C 39.349174,34.078676 38.596043,33.031973 37.593463,32.005158 C 35.332024,29.689062 32.603823,28.281014 30.857394,28.362182 z"
       id="path4707"
       sodipodi:nodetypes="csscscssscscssscscsssscscsc" />
    <path
       style="opacity:1;fill:none;fill-opacity:1;fill-rule:evenodd;stroke:#000000;stroke-width:1.5;stroke-linecap:butt;stroke-linejoin:miter;marker:none;marker-start:none;marker-mid:none;marker-end:none;stroke-miterlimit:4;stroke-dasharray:none;stroke-dashoffset:0;stroke-opacity:1;visibility:visible;display:inline;overflow:visible;filter:url(#filter14810);enable-background:accumulate"
       d="M 1.817464,39.226972 C 1.451004,39.244004 1.136314,39.307136 0.879964,39.476972 C -0.487236,40.382762 0.442894,43.228735 2.973714,45.820722 C 4.157604,47.033223 5.4802942,47.969993 6.6924642,48.539472 C 6.4115242,49.023629 6.1684142,49.542272 5.9424642,50.101972 C 5.6492942,50.828225 5.4562742,51.534259 5.317464,52.226972 C 3.719574,52.49671 4.265214,51.745648 1.955857,52.843043 C 0.574991,53.499224 0.101464,54.207742 0.442464,54.847508 C 0.783464,55.487274 2.150884,55.485831 3.174607,55.186793 C 5.082655,54.629436 3.848804,54.893646 5.129964,54.258222 C 5.174094,55.756442 5.6445542,56.916915 6.5674642,57.289472 C 6.9496042,57.443735 7.3786342,57.437067 7.8174642,57.320722 C 7.9413042,57.544928 8.0605342,57.748828 8.1924642,57.976972 C 10.146374,61.355944 15.589285,58.992645 15.527285,58.298401 C 15.41639,57.056631 12.333874,60.105945 10.379964,56.726972 C 10.218054,56.446971 10.073894,56.180767 9.9112142,55.914472 C 10.717834,55.065703 11.480624,53.915782 12.036214,52.539472 C 12.678824,50.947606 12.934644,49.413237 12.848714,48.133222 C 13.244674,48.018077 13.682474,47.816617 14.161214,47.539472 C 15.894624,46.535987 17.381564,44.842249 17.473714,43.758222 C 17.508274,43.35171 17.317024,43.094336 17.004964,42.976972 C 16.484864,42.781362 15.557094,43.006043 14.473714,43.633222 C 13.488734,44.203437 12.618614,44.980641 12.004964,45.758222 C 11.827774,45.57613 11.610094,45.444874 11.379964,45.351972 C 10.959854,45.182381 10.491174,45.165425 10.004964,45.320722 C 9.5389042,44.424889 8.8540942,43.473138 7.9424642,42.539472 C 5.8861742,40.433483 3.405464,39.153167 1.817464,39.226972 z"
       id="path12804"
       sodipodi:nodetypes="csscscssscscssscscsssscscsc"
       clip-path="url(#clipPath13821)"
       transform="matrix(1.0997663,0,0,1.0997663,28.961878,-14.659275)" />
    <path
       style="opacity:1;fill:url(#radialGradient9771);fill-opacity:1;fill-rule:evenodd;stroke:none;stroke-width:0.5;stroke-linecap:butt;stroke-linejoin:miter;marker:none;marker-start:none;marker-mid:none;marker-end:none;stroke-miterlimit:4;stroke-dasharray:none;stroke-dashoffset:0;stroke-opacity:1;visibility:visible;display:inline;overflow:visible;enable-background:accumulate"
       d="M 41.454677,9.9784323 C 37.692344,9.9784323 34.635664,11.9414 34.409299,14.411865 C 33.286449,12.792286 30.833123,11.66245 27.98254,11.66245 C 24.265418,11.66245 21.228259,13.564348 20.937162,15.992779 C 19.884982,14.26421 17.341938,13.037157 14.372931,13.037157 C 10.463548,13.037157 7.2931854,15.139286 7.2931854,17.745532 C 7.2931744,18.54478 7.591497,19.319383 8.1180101,19.979432 C 8.0719079,19.978842 8.0268395,19.979432 7.9805393,19.979432 C 4.0711559,19.979432 0.9007935,22.081561 0.9007935,24.687808 C 0.9007825,27.079502 3.5915038,29.052325 7.0526115,29.361815 C 6.3306589,30.101584 5.9184774,30.991666 5.9184774,31.939392 C 5.9184664,34.545638 9.0888508,36.647767 12.998223,36.647767 C 15.619264,36.647767 17.891029,35.688524 19.115674,34.276396 C 19.776413,36.427242 22.602879,38.022475 26.023581,38.022475 C 29.932953,38.022475 33.137695,35.920346 33.137695,33.3141 C 33.137695,32.776113 32.974247,32.249409 32.725282,31.767554 C 32.736808,31.766454 32.748135,31.768663 32.75965,31.767554 C 33.670872,32.052334 34.677301,32.214334 35.74964,32.214334 C 38.778055,32.214334 41.370721,30.939229 42.382605,29.155609 C 42.53809,29.074072 42.681071,28.965037 42.829385,28.880667 C 43.795816,29.210505 44.865955,29.43055 46.025581,29.43055 C 49.794799,29.43055 52.854643,27.439604 53.070964,24.962749 C 53.827903,25.146938 54.624536,25.272059 55.476703,25.272059 C 59.386072,25.272059 62.556446,23.135561 62.556448,20.529315 C 62.556448,17.923069 59.386075,15.820941 55.476703,15.820941 C 54.949492,15.820942 54.458968,15.885457 53.964524,15.958411 C 52.671775,15.036857 50.849871,14.411865 48.809365,14.411865 C 48.701797,14.411865 48.606458,14.443063 48.500056,14.446233 C 48.297457,11.960718 45.233233,9.9784323 41.454677,9.9784323 z"
       id="path2736" />
    <path
       style="opacity:1;fill:none;fill-opacity:1;fill-rule:evenodd;stroke:#000000;stroke-width:3;stroke-linecap:butt;stroke-linejoin:miter;marker:none;marker-start:none;marker-mid:none;marker-end:none;stroke-miterlimit:4;stroke-dasharray:none;stroke-dashoffset:0;stroke-opacity:1;visibility:visible;display:inline;overflow:visible;filter:url(#filter7819);enable-background:accumulate"
       d="M 97.125,4.249999 C 93.70397,4.249999 90.92458,6.034894 90.71875,8.281249 C 89.69776,6.808592 87.46699,5.781249 84.875,5.781249 C 81.49508,5.781249 78.73344,7.510615 78.46875,9.718749 C 77.51202,8.146989 75.19967,7.031249 72.5,7.031249 C 68.94526,7.031249 66.0625,8.942681 66.0625,11.312499 C 66.06249,12.039243 66.33375,12.743577 66.8125,13.343749 C 66.77058,13.343212 66.7296,13.343749 66.6875,13.343749 C 63.13276,13.343749 60.25,15.255181 60.25,17.625 C 60.24999,19.799729 62.69662,21.593586 65.84375,21.875 C 65.18729,22.54766 64.8125,23.356998 64.8125,24.21875 C 64.81249,26.588568 67.69527,28.5 71.25,28.5 C 73.63327,28.5 75.69895,27.627776 76.8125,26.34375 C 77.4133,28.29948 79.98336,29.75 83.09375,29.75 C 86.64848,29.75 89.5625,27.838568 89.5625,25.46875 C 89.5625,24.979567 89.41388,24.500643 89.1875,24.0625 C 89.19798,24.0615 89.20828,24.063509 89.21875,24.0625 C 90.04731,24.321446 90.96244,24.46875 91.9375,24.46875 C 94.69119,24.46875 97.04866,23.309318 97.96875,21.6875 C 98.11013,21.61336 98.24014,21.514216 98.375,21.4375 C 99.25376,21.737416 100.22683,21.9375 101.28126,21.9375 C 104.70855,21.9375 107.49081,20.127164 107.68751,17.875 C 108.37578,18.04248 109.10015,18.15625 109.87501,18.15625 C 113.42974,18.15625 116.31251,16.213567 116.31251,13.843749 C 116.31251,11.473931 113.42974,9.562499 109.87501,9.562499 C 109.39563,9.5625 108.9496,9.621163 108.50001,9.687499 C 107.32453,8.849544 105.66791,8.281249 103.81251,8.281249 C 103.7147,8.281249 103.62801,8.309617 103.53126,8.312499 C 103.34704,6.05246 100.56079,4.249999 97.125,4.249999 z"
       id="path6813"
       clip-path="url(#clipPath7823)"
       transform="matrix(1.0997663,0,0,1.0997663,-65.439494,5.3281448)" />
  </g>
</svg>
