<?xml version="1.0" encoding="UTF-8" standalone="no"?>
<!-- Created with Inkscape (http://www.inkscape.org/) -->

<svg
   xmlns:dc="http://purl.org/dc/elements/1.1/"
   xmlns:cc="http://creativecommons.org/ns#"
   xmlns:rdf="http://www.w3.org/1999/02/22-rdf-syntax-ns#"
   xmlns:svg="http://www.w3.org/2000/svg"
   xmlns="http://www.w3.org/2000/svg"
   xmlns:xlink="http://www.w3.org/1999/xlink"
   xmlns:sodipodi="http://sodipodi.sourceforge.net/DTD/sodipodi-0.dtd"
   xmlns:inkscape="http://www.inkscape.org/namespaces/inkscape"
   width="512"
   height="512"
   id="svg2"
   sodipodi:version="0.32"
   inkscape:version="0.47pre4 "
   sodipodi:docname="torch_1.svg"
   inkscape:output_extension="org.inkscape.output.svg.inkscape"
   version="1.1"
   inkscape:export-filename="lamp_1.png"
   inkscape:export-xdpi="22.5"
   inkscape:export-ydpi="22.5">
  <defs
     id="defs4">
    <inkscape:perspective
       sodipodi:type="inkscape:persp3d"
       inkscape:vp_x="0 : 256 : 1"
       inkscape:vp_y="0 : 1000 : 0"
       inkscape:vp_z="512 : 256 : 1"
       inkscape:persp3d-origin="256 : 170.66667 : 1"
       id="perspective50" />
    <linearGradient
       id="linearGradient3676">
      <stop
         id="stop3678"
         offset="0"
         style="stop-color:#502d16;stop-opacity:0.70588237;" />
      <stop
         style="stop-color:#784421;stop-opacity:0.78431374;"
         offset="0.125"
         id="stop3680" />
      <stop
         style="stop-color:#28170b;stop-opacity:0.86274511;"
         offset="0.39160427"
         id="stop3682" />
      <stop
         style="stop-color:#28170b;stop-opacity:0.86274511;"
         offset="0.59435028"
         id="stop3684" />
      <stop
         id="stop3686"
         offset="0.8056277"
         style="stop-color:#784421;stop-opacity:0.78431374;" />
      <stop
         id="stop3688"
         offset="1"
         style="stop-color:#502d16;stop-opacity:0.70588237;" />
    </linearGradient>
    <linearGradient
       id="linearGradient3690">
      <stop
         style="stop-color:#28170b;stop-opacity:1"
         offset="0"
         id="stop3692" />
      <stop
         id="stop3698"
         offset="0.5"
         style="stop-color:#502d16;stop-opacity:1;" />
      <stop
         style="stop-color:#784421;stop-opacity:1;"
         offset="0.71127743"
         id="stop3700" />
      <stop
         style="stop-color:#502d16;stop-opacity:0.65605098;"
         offset="1"
         id="stop3694" />
    </linearGradient>
    <linearGradient
       id="linearGradient3136">
      <stop
         style="stop-color:#ffff00;stop-opacity:1;"
         offset="0"
         id="stop3138" />
      <stop
         style="stop-color:#ff0000;stop-opacity:1;"
         offset="1"
         id="stop3140" />
    </linearGradient>
    <filter
       inkscape:collect="always"
       id="filter3676"
       color-interpolation-filters="sRGB">
      <feMorphology
         id="feMorphology3664"
         radius="12.136752136752136" />
      <feGaussianBlur
         inkscape:collect="always"
         stdDeviation="5.1028692699490668"
         id="feGaussianBlur3678" />
    </filter>
    <filter
       inkscape:collect="always"
       id="filter3684"
       x="-0.12040814"
       width="1.2408164"
       y="-0.05258365"
       height="1.1051673"
       color-interpolation-filters="sRGB">
      <feGaussianBlur
         inkscape:collect="always"
         stdDeviation="1.0329425"
         id="feGaussianBlur3686" />
    </filter>
    <linearGradient
       inkscape:collect="always"
       xlink:href="#linearGradient3690"
       id="linearGradient3696"
       x1="422.29453"
       y1="810.93579"
       x2="419.29721"
       y2="581.10785"
       gradientUnits="userSpaceOnUse"
       gradientTransform="matrix(0.99991497,0.01304051,-0.01304051,0.99991497,42.007571,34.145772)" />
    <filter
       color-interpolation-filters="sRGB"
       inkscape:collect="always"
       id="filter3684-9"
       x="-0.12040814"
       width="1.2408164"
       y="-0.05258365"
       height="1.1051673">
      <feGaussianBlur
         inkscape:collect="always"
         stdDeviation="1.0329425"
         id="feGaussianBlur3686-1" />
    </filter>
    <filter
       color-interpolation-filters="sRGB"
       inkscape:collect="always"
       id="filter3684-4"
       x="-0.12040814"
       width="1.2408164"
       y="-0.05258365"
       height="1.1051673">
      <feGaussianBlur
         inkscape:collect="always"
         stdDeviation="1.0329425"
         id="feGaussianBlur3686-2" />
    </filter>
    <linearGradient
       y2="613.59772"
       x2="244.51801"
       y1="609.66125"
       x1="571.18561"
       gradientTransform="matrix(0.91968961,0.01085564,-0.01033176,0.96632243,72.845593,58.71241)"
       gradientUnits="userSpaceOnUse"
       id="linearGradient2875"
       xlink:href="#linearGradient3676"
       inkscape:collect="always" />
    <radialGradient
       inkscape:collect="always"
       xlink:href="#linearGradient3136"
       id="radialGradient2874"
       gradientUnits="userSpaceOnUse"
       gradientTransform="matrix(1.3351547,-0.04570292,0.08554388,2.4990585,308.34463,-32.382258)"
       cx="413.49677"
       cy="419.10059"
       fx="413.49677"
       fy="419.10059"
       r="93.773315" />
    <filter
       inkscape:collect="always"
       id="filter3656">
      <feGaussianBlur
         inkscape:collect="always"
         stdDeviation="4.7575638"
         id="feGaussianBlur3658" />
    </filter>
    <radialGradient
       inkscape:collect="always"
       xlink:href="#linearGradient3136"
       id="radialGradient3662"
       gradientUnits="userSpaceOnUse"
       gradientTransform="matrix(1.3351547,-0.04570292,0.08554388,2.4990585,-147.59359,-420.19128)"
       cx="413.49677"
       cy="419.10059"
       fx="413.49677"
       fy="419.10059"
       r="93.773315" />
  </defs>
  <sodipodi:namedview
     id="base"
     pagecolor="#000000"
     bordercolor="#666666"
     borderopacity="1.0"
     gridtolerance="10000"
     guidetolerance="10"
     objecttolerance="10"
     inkscape:pageopacity="0"
     inkscape:pageshadow="2"
     inkscape:zoom="0.69999999"
     inkscape:cx="197.7821"
     inkscape:cy="428.60702"
     inkscape:document-units="px"
     inkscape:current-layer="layer1"
     inkscape:window-width="1280"
     inkscape:window-height="967"
     inkscape:window-x="-4"
     inkscape:window-y="-4"
     showgrid="false"
     inkscape:window-maximized="1"
     inkscape:snap-nodes="false" />
  <metadata
     id="metadata7">
    <rdf:RDF>
      <cc:Work
         rdf:about="">
        <dc:format>image/svg+xml</dc:format>
        <dc:type
           rdf:resource="http://purl.org/dc/dcmitype/StillImage" />
        <dc:title></dc:title>
      </cc:Work>
    </rdf:RDF>
  </metadata>
  <g
     inkscape:label="Layer 1"
     inkscape:groupmode="layer"
     id="layer1"
     transform="translate(-185.91883,-424.14388)">
    <path
       style="fill:url(#radialGradient3662);fill-opacity:1;fill-rule:evenodd;stroke:#000000;stroke-width:10;stroke-linecap:butt;stroke-linejoin:miter;stroke-miterlimit:4;stroke-opacity:1;stroke-dasharray:none"
       d="m 410.12732,474.52966 c -18.0592,46.5737 -5.22767,81.26635 -23.28686,110.25611 -16.5923,26.63499 -4.27719,86.96928 44.19748,86.01879 48.47467,-0.95049 77.93967,-36.11838 72.23677,-78.89016 -5.7029,-42.77178 -74.96537,-114.36482 -59.88049,-159.68127 3.37693,-10.14453 -17.11051,34.04337 -16.15822,59.88048 0.69821,18.94353 -1.42572,18.41562 7.6039,43.72226 -5.22767,-3.68314 -18.04666,-13.74762 -22.33639,-23.28686 -4.80913,-10.69421 -1.90095,-38.96984 -1.90095,-38.96984"
       id="path2160"
       sodipodi:nodetypes="csssssczc"
       inkscape:export-filename="C:\Documents and Settings\Owner.gatewaylaptop\Desktop\torch.png"
       inkscape:export-xdpi="5.1144614"
       inkscape:export-ydpi="5.1144614" />
    <path
       sodipodi:type="inkscape:offset"
       inkscape:radius="0"
       inkscape:original="M 443.625 430.84375 C 441.97887 432.85879 426.41675 469.51753 427.25 492.125 C 427.94821 511.06853 425.81413 510.53711 434.84375 535.84375 C 429.61608 532.16061 416.78973 522.10174 412.5 512.5625 C 407.69087 501.86829 410.59375 473.59375 410.59375 473.59375 L 410.125 474.53125 C 392.0658 521.10495 404.90294 555.79149 386.84375 584.78125 C 370.25145 611.41624 382.55658 671.76299 431.03125 670.8125 C 479.50592 669.86201 508.98415 634.67803 503.28125 591.90625 C 497.57835 549.13447 428.32137 477.5352 443.40625 432.21875 C 443.82837 430.95068 443.86016 430.55589 443.625 430.84375 z "
       xlink:href="#path2160"
       style="fill:#ffff00;fill-opacity:1;fill-rule:evenodd;stroke:none;stroke-width:10;stroke-linecap:butt;stroke-linejoin:miter;stroke-miterlimit:4;stroke-opacity:1;stroke-dasharray:none;filter:url(#filter3676)"
       id="path3660"
       inkscape:href="#path2160"
       d="m 443.625,430.84375 c -1.64613,2.01504 -17.20825,38.67378 -16.375,61.28125 0.69821,18.94353 -1.43587,18.41211 7.59375,43.71875 -5.22767,-3.68314 -18.05402,-13.74201 -22.34375,-23.28125 -4.80913,-10.69421 -1.90625,-38.96875 -1.90625,-38.96875 l -0.46875,0.9375 c -18.0592,46.5737 -5.22206,81.26024 -23.28125,110.25 -16.5923,26.63499 -4.28717,86.98174 44.1875,86.03125 48.47467,-0.95049 77.9529,-36.13447 72.25,-78.90625 -5.7029,-42.77178 -74.95988,-114.37105 -59.875,-159.6875 0.42212,-1.26807 0.45391,-1.66286 0.21875,-1.375 z" />
    <g
       id="g3235"
       transform="matrix(0.26502944,0.00335747,-0.00490322,0.3870481,712.5418,294.59974)">
      <path
         sodipodi:nodetypes="csssssczc"
         id="path3237"
         d="m 848.49581,823.61358 c -27.14286,70 -7.85715,122.14285 -35.00001,165.71429 -24.93811,40.03223 -6.42857,130.71433 66.42858,129.28573 72.85714,-1.4286 117.14285,-54.2857 108.57143,-118.5714 -8.57143,-64.28576 -112.6725,-171.8897 -90.00001,-240.00005 5.07546,-15.24717 -25.71701,51.16698 -24.28572,90 1.04942,28.47201 -2.14285,27.67856 11.42859,65.71428 -7.85715,-5.53571 -27.124,-20.66258 -33.57143,-34.99999 -7.22808,-16.07335 -2.85715,-58.57143 -2.85715,-58.57143"
         style="fill:url(#radialGradient2874);fill-opacity:1;fill-rule:evenodd;stroke:#000000;stroke-width:10;stroke-linecap:butt;stroke-linejoin:miter;stroke-miterlimit:4;stroke-opacity:1;stroke-dasharray:none" />
      <path
         sodipodi:nodetypes="ccccccccccc"
         id="path3239"
         d="m 894.37527,852.82729 c 1.60341,41.8234 4.90365,37.80868 15.36161,77.69643 2.53204,8.5996 -7.36281,15.13712 -18.40625,16.77678 -10.00947,-0.30639 -18.42559,0.76922 -39.89286,-32.62946 -1.83258,30.90621 -6.61965,62.79557 -22.90625,89.53126 -12.32421,29.5398 -4.2328,68.0636 22.40625,86.8437 21.6416,12.9609 49.33857,8.0896 71.4375,-1.5 26.73804,-12.0426 46.80262,-39.1993 47.1875,-68.9375 1.24228,-29.92556 -13.5754,-56.98273 -28.15457,-82.0857 -16.05302,-28.41129 -33.57522,-56.23904 -47.03293,-86.07051 l 0,0.375 z"
         style="fill:#ffff00;fill-opacity:1;fill-rule:evenodd;stroke:#000000;stroke-width:1px;stroke-linecap:butt;stroke-linejoin:miter;stroke-opacity:1" />
    </g>
    <path
       style="fill:#ff6b00;fill-opacity:1;fill-rule:evenodd;stroke:#000000;stroke-width:1.5;stroke-linecap:butt;stroke-linejoin:miter;stroke-miterlimit:4;stroke-opacity:1;stroke-dasharray:none"
       d="m 882.28144,463.77922 c -2.84375,17.81172 24.20155,23.23729 5.42162,49.12773 6.00282,-14.53624 -23.94306,-22.41603 -5.42162,-49.12773 z"
       id="path3293"
       sodipodi:nodetypes="ccc"
       inkscape:export-filename="C:\Documents and Settings\Owner.gatewaylaptop\Desktop\torch.png"
       inkscape:export-xdpi="5.1144614"
       inkscape:export-ydpi="5.1144614" />
    <path
       style="fill:#ffff00;fill-opacity:1;fill-rule:evenodd;stroke:none;filter:url(#filter3684)"
       d="m 398.90625,157.78125 c -7.40541,13.67729 -21.54245,26.6138 -18.34375,43.59375 0.17639,5.29288 1.96969,-0.54478 3.28125,-2.03125 8.41383,-12.65572 20.5103,-26.63172 15.78125,-42.9375 l -0.46325,0.88623 -0.2555,0.48877 z"
       id="path3295"
       transform="matrix(-0.5,0,0,0.5,1080.4197,398.21981)"
       inkscape:export-filename="C:\Documents and Settings\Owner.gatewaylaptop\Desktop\torch.png"
       inkscape:export-xdpi="5.1144614"
       inkscape:export-ydpi="5.1144614" />
    <path
       style="fill:url(#linearGradient3696);fill-opacity:1;stroke:#000000;stroke-width:10;stroke-linecap:butt;stroke-linejoin:miter;stroke-miterlimit:4;stroke-opacity:1;stroke-dasharray:none"
       d="m 294.32379,677.51051 c 295.18071,1.69486 295.19008,0.97673 295.19008,0.97673 C 498.3758,763.86256 461.85495,831.68782 454.02452,933.85555 442.28346,831.37023 389.60454,757.24432 294.32379,677.51051 z"
       id="path3688"
       sodipodi:nodetypes="cccc"
       inkscape:export-xdpi="5.1144614"
       inkscape:export-ydpi="5.1144614"
       inkscape:export-filename="C:\Documents and Settings\Owner.gatewaylaptop\Desktop\torch.png" />
    <path
       style="fill:#ff6b00;fill-opacity:1;fill-rule:evenodd;stroke:#000000;stroke-width:1.5;stroke-linecap:butt;stroke-linejoin:miter;stroke-miterlimit:4;stroke-opacity:1;stroke-dasharray:none"
       d="m 983.92911,421.70678 c -2.84375,17.81172 24.20159,23.23729 5.42162,49.12773 6.00282,-14.53624 -23.94306,-22.41603 -5.42162,-49.12773 z"
       id="path3293-0"
       sodipodi:nodetypes="ccc"
       inkscape:export-filename="C:\Documents and Settings\Owner.gatewaylaptop\Desktop\torch.png"
       inkscape:export-xdpi="5.1144614"
       inkscape:export-ydpi="5.1144614" />
    <path
       style="fill:#ffff00;fill-opacity:1;fill-rule:evenodd;stroke:none;filter:url(#filter3684-9)"
       d="m 374.28485,191.47025 c -7.40541,13.67729 -21.54245,26.6138 -18.34375,43.59375 0.17639,5.29288 1.96969,-0.54478 3.28125,-2.03125 8.41383,-12.65572 20.5103,-26.63172 15.78125,-42.9375 l -0.46325,0.88623 -0.2555,0.48877 z"
       id="path3295-7"
       transform="matrix(-0.5,0,0,0.5,1169.7566,339.30287)"
       inkscape:export-filename="C:\Documents and Settings\Owner.gatewaylaptop\Desktop\torch.png"
       inkscape:export-xdpi="5.1144614"
       inkscape:export-ydpi="5.1144614" />
    <path
       style="fill:#ff6b00;fill-opacity:1;fill-rule:evenodd;stroke:#000000;stroke-width:3;stroke-linecap:butt;stroke-linejoin:miter;stroke-miterlimit:4;stroke-opacity:1;stroke-dasharray:none"
       d="m 936.33038,341.58453 c 5.6875,35.62344 -48.4031,46.47457 -10.84324,98.25545 -12.00564,-29.07248 47.88611,-44.83205 10.84324,-98.25545 z"
       id="path3293-9"
       sodipodi:nodetypes="ccc"
       inkscape:export-filename="C:\Documents and Settings\Owner.gatewaylaptop\Desktop\torch.png"
       inkscape:export-xdpi="5.1144614"
       inkscape:export-ydpi="5.1144614" />
    <path
       style="fill:#ffff00;fill-opacity:1;fill-rule:evenodd;stroke:none;filter:url(#filter3684-4)"
       d="m 938.96013,368.24695 c -7.40541,13.67729 -21.54245,26.6138 -18.34375,43.59375 0.17639,5.29288 1.96969,-0.54478 3.28125,-2.03125 8.41383,-12.65572 20.5103,-26.63172 15.78125,-42.9375 l -0.46325,0.88623 -0.2555,0.48877 z"
       id="path3295-6"
       inkscape:export-filename="C:\Documents and Settings\Owner.gatewaylaptop\Desktop\torch.png"
       inkscape:export-xdpi="5.1144614"
       inkscape:export-ydpi="5.1144614" />
    <path
       style="opacity:0.42307691;fill:url(#linearGradient2875);fill-opacity:1;stroke:none;filter:url(#filter3656)"
       d="m 310.71056,684.44415 c 261.86463,1.08253 261.87178,0.41313 261.87178,0.41313 C 474.42625,731.13478 459.57344,824.8271 452.79597,923.11577 442.21585,827.6084 412.71744,740.30483 310.71056,684.44415 z"
       id="path3688-8"
       sodipodi:nodetypes="cccc"
       inkscape:export-xdpi="5.1144614"
       inkscape:export-ydpi="5.1144614"
       inkscape:export-filename="C:\Documents and Settings\Owner.gatewaylaptop\Desktop\torch.png" />
  </g>
</svg>
