<?xml version="1.0" encoding="UTF-8" standalone="no"?>
<!-- Created with Inkscape (http://www.inkscape.org/) -->

<svg
   xmlns:dc="http://purl.org/dc/elements/1.1/"
   xmlns:cc="http://creativecommons.org/ns#"
   xmlns:rdf="http://www.w3.org/1999/02/22-rdf-syntax-ns#"
   xmlns:svg="http://www.w3.org/2000/svg"
   xmlns="http://www.w3.org/2000/svg"
   xmlns:xlink="http://www.w3.org/1999/xlink"
   xmlns:sodipodi="http://sodipodi.sourceforge.net/DTD/sodipodi-0.dtd"
   xmlns:inkscape="http://www.inkscape.org/namespaces/inkscape"
   width="512"
   height="1024"
   id="svg2"
   version="1.1"
   inkscape:version="0.48.0 r9654"
   sodipodi:docname="Vase_1_1_8.svg"
   inkscape:export-filename="vase.png"
   inkscape:export-xdpi="90"
   inkscape:export-ydpi="90">
  <sodipodi:namedview
     id="base"
     pagecolor="#000000"
     bordercolor="#666666"
     borderopacity="1.0"
     inkscape:pageopacity="0"
     inkscape:pageshadow="2"
     inkscape:zoom="0.49497475"
     inkscape:cx="568.78453"
     inkscape:cy="608.21422"
     inkscape:document-units="px"
     inkscape:current-layer="layer1"
     showgrid="false"
     inkscape:window-width="1280"
     inkscape:window-height="967"
     inkscape:window-x="-4"
     inkscape:window-y="-4"
     inkscape:window-maximized="1"
     inkscape:snap-grids="false"
     inkscape:snap-to-guides="false" />
  <defs
     id="defs4">
    <linearGradient
       id="linearGradient3826">
      <stop
         id="stop3828"
         offset="0"
         style="stop-color:#a05a2c;stop-opacity:0.59477127;" />
      <stop
         style="stop-color:#552200;stop-opacity:0.77777779;"
         offset="0.06556698"
         id="stop3830" />
      <stop
         style="stop-color:#d38d5f;stop-opacity:0.26143792;"
         offset="0.11185522"
         id="stop3832" />
      <stop
         style="stop-color:#d38d5f;stop-opacity:0.26274511;"
         offset="0.37833187"
         id="stop3834" />
      <stop
         style="stop-color:#d38d5f;stop-opacity:0.26274511;"
         offset="0.46998847"
         id="stop3836" />
      <stop
         style="stop-color:#d38d5f;stop-opacity:0.26274511;"
         offset="0.58777589"
         id="stop3838" />
      <stop
         style="stop-color:#502d16;stop-opacity:0.41176471;"
         offset="0.85546708"
         id="stop3840" />
      <stop
         style="stop-color:#502d16;stop-opacity:0.49803922;"
         offset="0.9230203"
         id="stop3842" />
      <stop
         id="stop3844"
         offset="1"
         style="stop-color:#28170b;stop-opacity:0.60784316;" />
    </linearGradient>
    <linearGradient
       id="linearGradient3798">
      <stop
         style="stop-color:#28170b;stop-opacity:0.50980395;"
         offset="0"
         id="stop3800" />
      <stop
         id="stop3818"
         offset="0.12529819"
         style="stop-color:#28170b;stop-opacity:0.1882353;" />
      <stop
         id="stop3816"
         offset="0.20145203"
         style="stop-color:#28170b;stop-opacity:0.1254902;" />
      <stop
         id="stop3814"
         offset="0.37833187"
         style="stop-color:#deaa87;stop-opacity:0.00392157;" />
      <stop
         id="stop3812"
         offset="0.46998847"
         style="stop-color:#deaa87;stop-opacity:0.01960784;" />
      <stop
         id="stop3810"
         offset="0.58777589"
         style="stop-color:#deaa87;stop-opacity:0.00392157;" />
      <stop
         id="stop3808"
         offset="0.71277583"
         style="stop-color:#28170b;stop-opacity:0.09803922;" />
      <stop
         id="stop3806"
         offset="0.89315468"
         style="stop-color:#28170b;stop-opacity:0.49803922;" />
      <stop
         style="stop-color:#28170b;stop-opacity:0.70588237;"
         offset="1"
         id="stop3802" />
    </linearGradient>
    <linearGradient
       inkscape:collect="always"
       id="linearGradient3788">
      <stop
         style="stop-color:#000000;stop-opacity:1;"
         offset="0"
         id="stop3790" />
      <stop
         style="stop-color:#000000;stop-opacity:0;"
         offset="1"
         id="stop3792" />
    </linearGradient>
    <inkscape:perspective
       id="perspective10"
       inkscape:persp3d-origin="372.04724 : 350.78739 : 1"
       inkscape:vp_z="744.09448 : 526.18109 : 1"
       inkscape:vp_y="0 : 1000 : 0"
       inkscape:vp_x="0 : 526.18109 : 1"
       sodipodi:type="inkscape:persp3d" />
    <inkscape:perspective
       id="perspective3713"
       inkscape:persp3d-origin="0.5 : 0.33333333 : 1"
       inkscape:vp_z="1 : 0.5 : 1"
       inkscape:vp_y="0 : 1000 : 0"
       inkscape:vp_x="0 : 0.5 : 1"
       sodipodi:type="inkscape:persp3d" />
    <clipPath
       clipPathUnits="userSpaceOnUse"
       id="clipPath3701">
      <path
         id="path3703"
         d="m 297.15625,332.375 c -7.84758,0.51945 -6.52164,5.24163 17.21875,20.03125 98.68096,61.47555 -57.27282,141.39346 -88.1875,325.5 -17.69717,105.39219 92.15565,280.1129 107.5625,412.43755 4.04978,34.7823 6.04665,53.0839 -9.75,60.1874 -21.64773,9.7346 -38.74937,26.923 -24,41.8438 l 63.71875,0 213.4375,0 63.6875,0 c 14.74937,-14.9208 -2.35227,-32.1092 -24,-41.8438 -15.79665,-7.1035 -13.79978,-25.4051 -9.75,-60.1874 15.40685,-132.32465 125.25967,-307.04536 107.5625,-412.43755 -30.91468,-184.10654 -186.86846,-264.02445 -88.1875,-325.5 23.74039,-14.78962 25.09758,-19.5118 17.25,-20.03125 l -65.15625,0 -216.28125,0 -65.125,0 z"
         style="fill:#803300;stroke:#000000;stroke-width:1px;stroke-linecap:butt;stroke-linejoin:miter;stroke-opacity:1" />
    </clipPath>
    <linearGradient
       inkscape:collect="always"
       xlink:href="#linearGradient3788"
       id="linearGradient3794"
       x1="223.76414"
       y1="762.375"
       x2="717.07959"
       y2="762.375"
       gradientUnits="userSpaceOnUse" />
    <filter
       id="filter3848"
       inkscape:label="Diffuse light"
       inkscape:menu="ABCs"
       inkscape:menu-tooltip="Basic diffuse bevel to use for building textures"
       color-interpolation-filters="sRGB">
      <feGaussianBlur
         id="feGaussianBlur3850"
         stdDeviation="79.571935483870959"
         in="SourceGraphic"
         result="result0" />
      <feDiffuseLighting
         id="feDiffuseLighting3852"
         diffuseConstant="1"
         surfaceScale="81.33971405"
         result="result5">
        <feDistantLight
           id="feDistantLight3854"
           elevation="34"
           azimuth="235" />
      </feDiffuseLighting>
      <feComposite
         id="feComposite3856"
         in2="SourceGraphic"
         k1="1"
         in="result5"
         result="result4"
         operator="arithmetic"
         k2="0"
         k3="0.6"
         k4="0" />
      <feGaussianBlur
         stdDeviation="2.7293933054393307"
         id="feGaussianBlur2891"
         in="result4" />
    </filter>
    <linearGradient
       inkscape:collect="always"
       xlink:href="#linearGradient3798"
       id="linearGradient2865"
       gradientUnits="userSpaceOnUse"
       gradientTransform="translate(-213.42857,-141.14286)"
       x1="223.76414"
       y1="762.375"
       x2="717.07959"
       y2="762.375" />
    <linearGradient
       inkscape:collect="always"
       xlink:href="#linearGradient3826"
       id="linearGradient2868"
       gradientUnits="userSpaceOnUse"
       gradientTransform="translate(-213.42858,-141.14286)"
       x1="470.42188"
       y1="1192.875"
       x2="470.42188"
       y2="331.875" />
    <filter
       id="filter3709"
       inkscape:label="Roughen"
       inkscape:menu="ABCs"
       inkscape:menu-tooltip="Small-scale roughening to edges and content">
      <feTurbulence
         id="feTurbulence3711"
         numOctaves="3"
         seed="0"
         type="turbulence"
         in="SourceAlpha"
         baseFrequency="0.04"
         result="result1" />
      <feDisplacementMap
         id="feDisplacementMap3713"
         in2="result1"
         numOctaves="2"
         scale="6.6"
         yChannelSelector="G"
         xChannelSelector="R"
         in="SourceGraphic" />
    </filter>
    <inkscape:perspective
       id="perspective3789"
       inkscape:persp3d-origin="0.5 : 0.33333333 : 1"
       inkscape:vp_z="1 : 0.5 : 1"
       inkscape:vp_y="0 : 1000 : 0"
       inkscape:vp_x="0 : 0.5 : 1"
       sodipodi:type="inkscape:persp3d" />
    <clipPath
       clipPathUnits="userSpaceOnUse"
       id="clipPath3775">
      <path
         style="fill:url(#linearGradient3779);fill-opacity:1;stroke:#000000;stroke-width:3;stroke-linecap:butt;stroke-linejoin:miter;stroke-miterlimit:4;stroke-opacity:1;stroke-dasharray:none"
         d="m 666.58482,188.375 c -7.84758,0.51945 -6.52164,5.24163 17.21875,20.03125 98.68096,61.47555 -57.27282,141.39346 -88.1875,325.5 -17.69717,105.39219 92.15565,280.1129 107.5625,412.43755 4.04978,34.7823 6.04665,53.08386 -9.75,60.1874 -21.64773,9.7346 -38.74937,26.923 -24,41.8438 l 63.71875,0 213.4375,0 63.68748,0 c 14.7493,-14.9208 -2.3523,-32.1092 -23.99996,-41.8438 -15.7967,-7.10354 -13.7998,-25.4051 -9.75,-60.1874 15.4068,-132.32465 125.25956,-307.04536 107.56246,-412.43755 -30.9147,-184.10654 -186.86844,-264.02445 -88.18746,-325.5 23.74036,-14.78962 25.09756,-19.5118 17.24996,-20.03125 l -65.15623,0 -216.28125,0 -65.125,0 z"
         id="path3777" />
    </clipPath>
    <filter
       color-interpolation-filters="sRGB"
       id="filter3709-1"
       inkscape:label="Roughen"
       inkscape:menu="ABCs"
       inkscape:menu-tooltip="Small-scale roughening to edges and content">
      <feTurbulence
         id="feTurbulence3711-7"
         numOctaves="3"
         seed="0"
         type="turbulence"
         baseFrequency="0.04"
         result="result1" />
      <feDisplacementMap
         id="feDisplacementMap3713-4"
         in2="result1"
         numOctaves="2"
         scale="6.6"
         yChannelSelector="G"
         xChannelSelector="R"
         in="SourceGraphic" />
    </filter>
    <filter
       inkscape:collect="always"
       id="filter3661">
      <feGaussianBlur
         inkscape:collect="always"
         stdDeviation="2.0465713"
         id="feGaussianBlur3663" />
    </filter>
    <filter
       id="filter3829"
       height="1"
       width="1"
       y="0"
       x="0"
       inkscape:label="Film grain"
       inkscape:menu="Image effects"
       inkscape:menu-tooltip="Adds a small scale graininess"
       color-interpolation-filters="sRGB">
      <feTurbulence
         id="feTurbulence3831"
         type="fractalNoise"
         numOctaves="3"
         baseFrequency="1"
         seed="0"
         result="result0" />
      <feColorMatrix
         id="feColorMatrix3833"
         result="result4"
         values="0"
         type="saturate" />
      <feComposite
         id="feComposite3835"
         in2="result4"
         in="SourceGraphic"
         operator="arithmetic"
         k1="1.25"
         k2="0.5"
         k3="0.5"
         result="result2" />
      <feBlend
         id="feBlend3837"
         in2="SourceGraphic"
         result="result5"
         mode="normal"
         in="result2" />
      <feComposite
         id="feComposite3839"
         in2="SourceGraphic"
         in="result5"
         operator="in"
         result="result3" />
    </filter>
    <filter
       id="filter3849"
       height="1"
       width="1"
       y="0"
       x="0"
       inkscape:label="Film grain"
       inkscape:menu="Image effects"
       inkscape:menu-tooltip="Adds a small scale graininess"
       color-interpolation-filters="sRGB">
      <feTurbulence
         id="feTurbulence3851"
         type="fractalNoise"
         numOctaves="3"
         baseFrequency="1"
         seed="0"
         result="result0" />
      <feColorMatrix
         id="feColorMatrix3853"
         result="result4"
         values="0"
         type="saturate" />
      <feComposite
         id="feComposite3855"
         in2="result4"
         in="SourceGraphic"
         operator="arithmetic"
         k1="1.25"
         k2="0.5"
         k3="0.5"
         result="result2" />
      <feBlend
         id="feBlend3857"
         in2="SourceGraphic"
         result="result5"
         mode="normal"
         in="result2" />
      <feComposite
         id="feComposite3859"
         in2="SourceGraphic"
         in="result5"
         operator="in"
         result="result3" />
    </filter>
  </defs>
  <metadata
     id="metadata7">
    <rdf:RDF>
      <cc:Work
         rdf:about="">
        <dc:format>image/svg+xml</dc:format>
        <dc:type
           rdf:resource="http://purl.org/dc/dcmitype/StillImage" />
        <dc:title></dc:title>
      </cc:Work>
    </rdf:RDF>
  </metadata>
  <g
     id="layer1"
     inkscape:groupmode="layer"
     inkscape:label="Layer 1"
     transform="translate(0,-28.362183)">
    <path
       id="path2816"
       d="m 83.72768,191.23214 c -7.84758,0.51945 -6.52164,5.24163 17.21875,20.03125 98.68096,61.47555 -57.27282,141.39346 -88.1875,325.5 -17.697171,105.39219 92.15565,280.1129 107.5625,412.43755 4.04978,34.7823 6.04665,53.08386 -9.75,60.18736 -21.64773,9.7346 -38.74937,26.923 -24,41.8438 l 63.71875,0 213.4375,0 63.6875,0 c 14.74937,-14.9208 -2.35227,-32.1092 -24,-41.8438 -15.79665,-7.1035 -13.79978,-25.40506 -9.75,-60.18736 15.40685,-132.32465 125.25967,-307.04536 107.5625,-412.43755 -30.91468,-184.10654 -186.86846,-264.02445 -88.1875,-325.5 23.74039,-14.78962 25.09758,-19.5118 17.25,-20.03125 l -65.15625,0 -216.28125,0 -65.125,0 z"
       style="fill:#803300;stroke:#000000;stroke-width:1px;stroke-linecap:butt;stroke-linejoin:miter;stroke-opacity:1;filter:url(#filter3848)" />
    <g
       id="g3680">
      <g
         id="g3673">
        <g
           id="use2881"
           style="stroke:#28170b;stroke-opacity:1;filter:url(#filter3661)">
          <path
             style="fill:none;stroke:#28170b;stroke-width:1px;stroke-linecap:butt;stroke-linejoin:miter;stroke-opacity:1"
             d="m 134.28571,755.42857 -51.428567,31.42857 51.428567,11.42857"
             id="path2885"
             transform="translate(0,28.362183)" />
          <path
             style="fill:none;stroke:#28170b;stroke-width:1px;stroke-linecap:butt;stroke-linejoin:miter;stroke-opacity:1"
             d="m 86.571429,813.21932 2.857142,-42.85714"
             id="path2887" />
        </g>
        <use
           x="0"
           y="0"
           xlink:href="#use2881"
           id="use3667"
           transform="translate(-46,-130)"
           width="512"
           height="1024" />
        <use
           x="0"
           y="0"
           xlink:href="#use2881"
           id="use3671"
           transform="matrix(0.34695164,0.93788302,-0.93788302,0.34695164,865.80671,-76.364893)"
           width="512"
           height="1024" />
      </g>
      <g
         id="g2877">
        <path
           style="fill:none;stroke:#000000;stroke-width:1px;stroke-linecap:butt;stroke-linejoin:miter;stroke-opacity:1"
           d="m 134.28571,755.42857 -51.428567,31.42857 51.428567,11.42857"
           id="path2873"
           transform="translate(0,28.362183)" />
        <path
           style="fill:none;stroke:#000000;stroke-width:1px;stroke-linecap:butt;stroke-linejoin:miter;stroke-opacity:1"
           d="m 86.571429,813.21932 2.857142,-42.85714"
           id="path2875" />
      </g>
      <use
         height="1024"
         width="512"
         transform="translate(-46,-130)"
         id="use3665"
         xlink:href="#g2877"
         y="0"
         x="0" />
      <use
         height="1024"
         width="512"
         transform="matrix(0.34695164,0.93788302,-0.93788302,0.34695164,865.80671,-76.364893)"
         id="use3669"
         xlink:href="#g2877"
         y="0"
         x="0" />
    </g>
    <g
       id="g3694"
       style="filter:url(#filter3709-1)"
       transform="translate(-584.13614,10.285728)"
       clip-path="url(#clipPath3775)">
      <rect
         style="fill:#504416;fill-opacity:1;stroke:none"
         id="rect3601"
         width="587.90875"
         height="214.15234"
         x="510.7319"
         y="360.71457" />
      <path
         inkscape:label="Triangle"
         style="fill:#502d16;stroke:#000000;stroke-width:2"
         d="m 511.84675,572.37214 100,0 -50,-86.60254 -50,86.60254 z"
         id="path3616" />
      <path
         id="use3626"
         d="m 613.84675,572.37214 100,0 -50,-86.60254 -50,86.60254 z"
         style="fill:#784421;stroke:#000000;stroke-width:2"
         inkscape:label="Triangle" />
      <path
         inkscape:label="Triangle"
         style="fill:#a05a2c;stroke:#000000;stroke-width:2"
         d="m 715.84675,572.37214 100,0 -50,-86.60254 -50,86.60254 z"
         id="use3630" />
      <path
         id="use3634"
         d="m 815.84675,572.37214 100,0 -50,-86.60254 -50,86.60254 z"
         style="fill:#c87137;stroke:#000000;stroke-width:2"
         inkscape:label="Triangle" />
      <path
         id="use3638"
         d="m 915.84675,572.37214 99.99995,0 -49.99995,-86.60254 -50,86.60254 z"
         style="fill:#d38d5f;stroke:#000000;stroke-width:2"
         inkscape:label="Triangle" />
      <use
         height="1052.3622"
         width="744.09448"
         transform="translate(506,0)"
         id="use3642"
         xlink:href="#path3616"
         y="0"
         x="0" />
      <use
         height="1052.3622"
         width="744.09448"
         transform="matrix(-1,0,0,-1,1629.6935,936.1417)"
         id="use3644"
         xlink:href="#path3616"
         y="0"
         x="0" />
      <use
         height="1052.3622"
         width="744.09448"
         transform="matrix(-1,0,0,-1,1629.6935,936.1417)"
         id="use3646"
         xlink:href="#use3626"
         y="0"
         x="0" />
      <use
         height="1052.3622"
         width="744.09448"
         transform="matrix(-1,0,0,-1,1629.6935,936.1417)"
         id="use3648"
         xlink:href="#use3630"
         y="0"
         x="0" />
      <use
         height="1052.3622"
         width="744.09448"
         transform="matrix(-1,0,0,-1,1629.6935,936.1417)"
         id="use3650"
         xlink:href="#use3634"
         y="0"
         x="0" />
      <use
         height="1052.3622"
         width="744.09448"
         transform="matrix(-1,0,0,-1,1629.6935,936.1417)"
         id="use3652"
         xlink:href="#use3638"
         y="0"
         x="0" />
      <use
         height="1052.3622"
         width="744.09448"
         transform="matrix(-1,0,0,-1,1629.6935,936.1417)"
         id="use3654"
         xlink:href="#use3642"
         y="0"
         x="0" />
    </g>
    <path
       style="fill:url(#linearGradient2865);fill-opacity:1;stroke:#000000;stroke-width:3;stroke-linecap:butt;stroke-linejoin:miter;stroke-miterlimit:4;stroke-opacity:1;stroke-dasharray:none"
       d="m 83.72768,191.23214 c -7.84758,0.51945 -6.52164,5.24163 17.21875,20.03125 98.68096,61.47555 -57.27282,141.39346 -88.1875,325.5 -17.69717,105.39219 92.15565,280.1129 107.5625,412.43755 4.04978,34.7823 6.04665,53.08386 -9.75,60.18736 -21.64773,9.7346 -38.74937,26.923 -24,41.8438 l 63.71875,0 213.4375,0 63.68752,0 c 14.7493,-14.9208 -2.3523,-32.1092 -24,-41.8438 -15.7967,-7.1035 -13.7998,-25.40506 -9.75,-60.18736 15.4068,-132.32465 125.2596,-307.04536 107.5625,-412.43755 -30.9147,-184.10654 -186.86848,-264.02445 -88.1875,-325.5 23.7404,-14.78962 25.0976,-19.5118 17.25,-20.03125 l -65.15627,0 -216.28125,0 -65.125,0 z"
       id="use3786" />
    <path
       id="use3820"
       d="m 83.72772,191.23214 c -7.8476,0.51945 -6.5217,5.24163 17.2187,20.03125 98.6809,61.47555 -57.2728,141.39346 -88.1875,325.5 -17.69715,105.39219 92.1557,280.1129 107.5625,412.43755 4.0498,34.7823 6.0467,53.08386 -9.75,60.18736 -21.6477,9.7346 -38.7494,26.923 -24,41.8438 l 63.7188,0 213.4374,0 63.68748,0 c 14.7494,-14.9208 -2.3522,-32.1092 -24,-41.8438 -15.7966,-7.1035 -13.7998,-25.40506 -9.75,-60.18736 15.4069,-132.32465 125.2597,-307.04536 107.5625,-412.43755 -30.9147,-184.10654 -186.86838,-264.02445 -88.1875,-325.5 23.7404,-14.78962 25.0976,-19.5118 17.25,-20.03125 l -65.15618,0 -216.2812,0 -65.125,0 z"
       style="fill:url(#linearGradient2868);fill-opacity:1;stroke:#000000;stroke-width:5;stroke-linecap:butt;stroke-linejoin:miter;stroke-miterlimit:4;stroke-opacity:1;stroke-dasharray:none" />
    <path
       id="use3693"
       d="m 83.72768,191.23214 c -7.84758,0.51945 -6.52164,5.24163 17.21875,20.03125 98.68096,61.47555 -57.27282,141.39346 -88.1875,325.5 -17.69717,105.39219 92.15565,280.1129 107.5625,412.43755 4.04978,34.7823 6.04665,53.08386 -9.75,60.18736 -21.64773,9.7346 -38.74937,26.923 -24,41.8438 l 63.71875,0 213.4375,0 63.68752,0 c 14.7493,-14.9208 -2.3523,-32.1092 -24,-41.8438 -15.7967,-7.1035 -13.7998,-25.40506 -9.75,-60.18736 15.4068,-132.32465 125.2596,-307.04536 107.5625,-412.43755 -30.9147,-184.10654 -186.86848,-264.02445 -88.1875,-325.5 23.7404,-14.78962 25.0976,-19.5118 17.25,-20.03125 l -65.15627,0 -216.28125,0 -65.125,0 z"
       style="fill:#000000;fill-opacity:1;stroke:#000000;stroke-width:3;stroke-linecap:butt;stroke-linejoin:miter;stroke-miterlimit:4;stroke-opacity:1;stroke-dasharray:none;opacity:0" />
    <path
       style="opacity:1;fill:none;stroke:#191919;stroke-width:5;stroke-linecap:butt;stroke-linejoin:miter;stroke-miterlimit:4;stroke-opacity:1;stroke-dasharray:none;filter:url(#filter3709-1)"
       d="m 81.72772,191.23214 c -7.8476,0.51945 -6.5217,5.24163 17.2187,20.03125 98.6809,61.47555 -57.2728,141.39346 -88.1875,325.5 -17.69715,105.39219 92.1557,280.1129 107.5625,412.43755 4.0498,34.7823 6.0467,53.08386 -9.75,60.18736 -21.6477,9.7346 -38.7494,26.923 -24,41.8438 l 63.7188,0 213.4374,0 63.68748,0 c 14.7494,-14.9208 -2.3522,-32.1092 -24,-41.8438 -15.7966,-7.1035 -13.7998,-25.40506 -9.75,-60.18736 15.4069,-132.32465 125.2597,-307.04536 107.5625,-412.43755 -30.9147,-184.10654 -186.86838,-264.02445 -88.1875,-325.5 23.7404,-14.78962 25.0976,-19.5118 17.25,-20.03125 l -65.15618,0 -216.2812,0 -65.125,0 z"
       id="use3822" />
  </g>
</svg>
