<?xml version="1.0" encoding="UTF-8" standalone="no"?>
<!-- Created with Inkscape (http://www.inkscape.org/) -->

<svg
   xmlns:dc="http://purl.org/dc/elements/1.1/"
   xmlns:cc="http://creativecommons.org/ns#"
   xmlns:rdf="http://www.w3.org/1999/02/22-rdf-syntax-ns#"
   xmlns:svg="http://www.w3.org/2000/svg"
   xmlns="http://www.w3.org/2000/svg"
   xmlns:xlink="http://www.w3.org/1999/xlink"
   xmlns:sodipodi="http://sodipodi.sourceforge.net/DTD/sodipodi-0.dtd"
   xmlns:inkscape="http://www.inkscape.org/namespaces/inkscape"
   width="512"
   height="512"
   id="svg2"
   version="1.1"
   inkscape:version="0.48.0 r9654"
   sodipodi:docname="vase_broken.SVG.2010_12_20_18_31_29.0.svg">
  <sodipodi:namedview
     id="base"
     pagecolor="#000000"
     bordercolor="#666666"
     borderopacity="1.0"
     inkscape:pageopacity="0"
     inkscape:pageshadow="2"
     inkscape:zoom="0.22216797"
     inkscape:cx="80.409649"
     inkscape:cy="608.22969"
     inkscape:document-units="px"
     inkscape:current-layer="layer5"
     showgrid="false"
     inkscape:window-width="1280"
     inkscape:window-height="967"
     inkscape:window-x="-4"
     inkscape:window-y="-4"
     inkscape:window-maximized="1"
     inkscape:snap-grids="false"
     inkscape:snap-to-guides="false"
     fit-margin-top="0"
     fit-margin-left="0"
     fit-margin-right="0"
     fit-margin-bottom="0" />
  <defs
     id="defs4">
    <linearGradient
       id="linearGradient3826">
      <stop
         style="stop-color:#ca763e;stop-opacity:0.59477127;"
         offset="0"
         id="stop3828" />
      <stop
         id="stop3830"
         offset="0.06556698"
         style="stop-color:#813300;stop-opacity:0.77777779;" />
      <stop
         id="stop3832"
         offset="0.11185522"
         style="stop-color:#ff8433;stop-opacity:0.26143792;" />
      <stop
         id="stop3834"
         offset="0.37833187"
         style="stop-color:#ff8433;stop-opacity:0.26274511;" />
      <stop
         id="stop3836"
         offset="0.46998847"
         style="stop-color:#ff8333;stop-opacity:0.26274511;" />
      <stop
         id="stop3838"
         offset="0.58777589"
         style="stop-color:#ff8533;stop-opacity:0.26274511;" />
      <stop
         id="stop3840"
         offset="1"
         style="stop-color:#89461c;stop-opacity:0.34112149;" />
    </linearGradient>
    <linearGradient
       id="linearGradient3798">
      <stop
         id="stop3800"
         offset="0"
         style="stop-color:#28170b;stop-opacity:0.50980395;" />
      <stop
         style="stop-color:#28170b;stop-opacity:0.1882353;"
         offset="0.12529819"
         id="stop3818" />
      <stop
         style="stop-color:#28170b;stop-opacity:0.1254902;"
         offset="0.20145203"
         id="stop3816" />
      <stop
         style="stop-color:#deaa87;stop-opacity:0.00392157;"
         offset="0.37833187"
         id="stop3814" />
      <stop
         style="stop-color:#deaa87;stop-opacity:0.01960784;"
         offset="0.46998847"
         id="stop3812" />
      <stop
         style="stop-color:#deaa87;stop-opacity:0.00392157;"
         offset="0.58777589"
         id="stop3810" />
      <stop
         style="stop-color:#28170b;stop-opacity:0.09803922;"
         offset="0.71277583"
         id="stop3808" />
      <stop
         style="stop-color:#28170b;stop-opacity:0.49803922;"
         offset="0.89315468"
         id="stop3806" />
      <stop
         id="stop3802"
         offset="1"
         style="stop-color:#28170b;stop-opacity:0.70588237;" />
    </linearGradient>
    <filter
       color-interpolation-filters="sRGB"
       inkscape:menu-tooltip="Basic diffuse bevel to use for building textures"
       inkscape:menu="ABCs"
       inkscape:label="Diffuse light"
       id="filter3848">
      <feGaussianBlur
         result="result0"
         in="SourceGraphic"
         stdDeviation="74.613937823834192"
         id="feGaussianBlur3850" />
      <feDiffuseLighting
         result="result5"
         surfaceScale="30"
         diffuseConstant="0.5"
         id="feDiffuseLighting3852">
        <feDistantLight
           azimuth="235"
           elevation="34"
           id="feDistantLight3854" />
      </feDiffuseLighting>
      <feComposite
         k4="0"
         k3="0.59999999999999998"
         k2="0"
         operator="arithmetic"
         result="result4"
         in="result5"
         k1="1"
         in2="SourceGraphic"
         id="feComposite3856" />
      <feGaussianBlur
         in="result4"
         id="feGaussianBlur2891"
         stdDeviation="2.7293933054393307" />
    </filter>
    <filter
       color-interpolation-filters="sRGB"
       inkscape:menu-tooltip="Small-scale roughening to edges and content"
       inkscape:menu="ABCs"
       inkscape:label="Roughen"
       id="filter3709">
      <feTurbulence
         result="result1"
         baseFrequency="0.04"
         type="turbulence"
         seed="0"
         numOctaves="3"
         id="feTurbulence3711" />
      <feDisplacementMap
         in="SourceGraphic"
         xChannelSelector="R"
         yChannelSelector="G"
         scale="6.6"
         numOctaves="2"
         in2="result1"
         id="feDisplacementMap3713" />
    </filter>
    <filter
       inkscape:menu-tooltip="Small-scale roughening to edges and content"
       inkscape:menu="ABCs"
       inkscape:label="Roughen"
       id="filter3709-1"
       color-interpolation-filters="sRGB">
      <feTurbulence
         result="result1"
         baseFrequency="0.04"
         type="turbulence"
         seed="0"
         numOctaves="3"
         id="feTurbulence3711-7" />
      <feDisplacementMap
         in="SourceGraphic"
         xChannelSelector="R"
         yChannelSelector="G"
         scale="6.6"
         numOctaves="2"
         in2="result1"
         id="feDisplacementMap3713-4" />
    </filter>
    <filter
       color-interpolation-filters="sRGB"
       inkscape:menu-tooltip="Basic diffuse bevel to use for building textures"
       inkscape:menu="ABCs"
       inkscape:label="Diffuse light"
       id="filter3978">
      <feGaussianBlur
         result="result0"
         in="SourceGraphic"
         stdDeviation="6"
         id="feGaussianBlur3980" />
      <feDiffuseLighting
         result="result5"
         surfaceScale="10"
         diffuseConstant="1.1000000000000001"
         id="feDiffuseLighting3982">
        <feDistantLight
           azimuth="235"
           elevation="25"
           id="feDistantLight3984" />
      </feDiffuseLighting>
      <feComposite
         k4="0"
         k3="0.6"
         k2="0"
         operator="arithmetic"
         result="result4"
         in="result5"
         k1="1"
         in2="SourceGraphic"
         id="feComposite3986" />
    </filter>
    <clipPath
       id="clipPath4071"
       clipPathUnits="userSpaceOnUse">
      <use
         height="1024"
         width="512"
         transform="translate(-82.751696,947.15147)"
         id="use4073"
         xlink:href="#use3988"
         y="0"
         x="0"
         style="display:inline" />
    </clipPath>
    <filter
       color-interpolation-filters="sRGB"
       inkscape:menu-tooltip="Adds a small scale graininess"
       inkscape:menu="Image effects"
       inkscape:label="Film grain"
       x="0"
       y="0"
       width="1"
       height="1"
       id="filter4174">
      <feTurbulence
         result="result0"
         seed="0"
         baseFrequency="1"
         numOctaves="3"
         type="fractalNoise"
         id="feTurbulence4176" />
      <feColorMatrix
         type="saturate"
         values="0"
         result="result4"
         id="feColorMatrix4178" />
      <feComposite
         k4="0"
         result="result2"
         k3="0.5"
         k2="0.5"
         k1="1.25"
         operator="arithmetic"
         in="SourceGraphic"
         in2="result4"
         id="feComposite4180" />
      <feBlend
         in="result2"
         mode="normal"
         result="result5"
         in2="SourceGraphic"
         id="feBlend4182" />
      <feComposite
         result="result3"
         operator="in"
         in="result5"
         in2="SourceGraphic"
         id="feComposite4184" />
    </filter>
    <linearGradient
       y2="990.80408"
       x2="233.53088"
       y1="564.31458"
       x1="234.1218"
       gradientTransform="translate(-4.8758275,36.985291)"
       gradientUnits="userSpaceOnUse"
       id="linearGradient3150"
       xlink:href="#linearGradient3826"
       inkscape:collect="always" />
    <linearGradient
       y2="767.99969"
       x2="521.6012"
       y1="769.11456"
       x1="2.315202"
       gradientTransform="translate(-4.8758371,36.98545)"
       gradientUnits="userSpaceOnUse"
       id="linearGradient3154"
       xlink:href="#linearGradient3798"
       inkscape:collect="always" />
  </defs>
  <metadata
     id="metadata7">
    <rdf:RDF>
      <cc:Work
         rdf:about="">
        <dc:format>image/svg+xml</dc:format>
        <dc:type
           rdf:resource="http://purl.org/dc/dcmitype/StillImage" />
        <dc:title></dc:title>
      </cc:Work>
    </rdf:RDF>
  </metadata>
  <g
     transform="translate(7.15625,-497.875)"
     style="display:inline"
     inkscape:label="Layer 3"
     id="layer4"
     inkscape:groupmode="layer">
    <g
       transform="translate(-2.9e-4,18)"
       id="g4196"
       style="display:inline">
      <path
         style="fill:#ff7e25;fill-opacity:1"
         d="m 124.14423,987.00615 -43.354391,-0.45006 -2.49599,-5.94211 c -7.0941,-16.88872 -42.75939,-114.04115 -49.20993,-134.04811 -36.5410596,-113.33562 -36.5402396,-185.1872 0.003,-236.31975 3.75313,-5.25155 9.75572,-12.37906 13.33909,-15.83891 3.58337,-3.45985 6.51522,-6.79739 6.51522,-7.41677 0,-0.61937 -6.33764,-5.12505 -14.08364,-10.01261 -7.74601,-4.88757 -17.77169,-12.78605 -22.27931,-17.55219 -14.0047596,-14.80797 -10.1288196,-22.18307 14.97478,-28.49389 21.69794,-5.45467 43.29285,-6.91711 138.354511,-9.36956 87.71788,-2.263 78.27496,-2.26572 167.89046,0.0483 112.61183,2.90777 143.94494,6.40049 156.35296,17.42875 9.07965,8.06999 -2.55133,23.02155 -31.82757,40.91421 -5.47037,3.3433 -9.94612,6.42695 -9.94612,6.85256 0,0.42561 4.58995,5.63942 10.19988,11.58624 43.2221,45.81771 48.83058,116.20487 17.761,222.90271 -9.65851,33.16882 -13.50193,44.26157 -37.75293,108.96116 l -20.93063,55.84109 -65.40113,1.0486 c -61.10828,0.97978 -123.98483,0.94131 -228.10894,-0.13956 l 0,-6e-5 z"
         id="path3184"
         inkscape:connector-curvature="0" />
      <g
         style="display:inline"
         id="g4054"
         clip-path="url(#clipPath4071)"
         transform="translate(81.568939,-991.64451)">
        <g
           transform="translate(7.9568939,-65.24653)"
           id="g4039">
          <rect
             y="1619.911"
             x="-155.25117"
             height="214.15234"
             width="587.90875"
             id="rect3601"
             style="fill:#504416;fill-opacity:1;stroke:none;filter:url(#filter3709-1)" />
          <path
             inkscape:connector-curvature="0"
             id="path3616"
             d="m -154.13632,1831.5685 99.999992,0 -49.999992,-86.6025 -50,86.6025 z"
             style="fill:#502d16;stroke:#000000;stroke-width:2;filter:url(#filter3709-1)"
             inkscape:label="Triangle" />
          <path
             inkscape:connector-curvature="0"
             inkscape:label="Triangle"
             style="fill:#784421;stroke:#000000;stroke-width:2;filter:url(#filter3709-1)"
             d="m -52.136328,1831.5685 100,0 -49.9999999,-86.6025 -50.0000001,86.6025 z"
             id="use3626" />
          <path
             inkscape:connector-curvature="0"
             id="use3630"
             d="m 49.863672,1831.5685 99.999998,0 -49.999998,-86.6025 -50,86.6025 z"
             style="fill:#a05a2c;stroke:#000000;stroke-width:2;filter:url(#filter3709-1)"
             inkscape:label="Triangle" />
          <path
             inkscape:connector-curvature="0"
             inkscape:label="Triangle"
             style="fill:#c87137;stroke:#000000;stroke-width:2;filter:url(#filter3709-1)"
             d="m 149.86367,1831.5685 100,0 -50,-86.6025 -50,86.6025 z"
             id="use3634" />
          <path
             inkscape:connector-curvature="0"
             inkscape:label="Triangle"
             style="fill:#d38d5f;stroke:#000000;stroke-width:2;filter:url(#filter3709-1)"
             d="m 249.86367,1831.5685 99.99995,0 -49.99995,-86.6025 -50,86.6025 z"
             id="use3638" />
          <use
             style="filter:url(#filter3709-1)"
             x="0"
             y="0"
             xlink:href="#path3616"
             id="use3642"
             transform="translate(506,2.5509901e-5)"
             width="744.09448"
             height="1052.3622" />
          <use
             style="filter:url(#filter3709-1)"
             x="0"
             y="0"
             xlink:href="#path3616"
             id="use3644"
             transform="matrix(-1,0,0,-1,297.72734,3454.5345)"
             width="744.09448"
             height="1052.3622" />
          <use
             style="filter:url(#filter3709-1)"
             x="0"
             y="0"
             xlink:href="#use3626"
             id="use3646"
             transform="matrix(-1,0,0,-1,297.72734,3454.5345)"
             width="744.09448"
             height="1052.3622" />
          <use
             style="filter:url(#filter3709-1)"
             x="0"
             y="0"
             xlink:href="#use3630"
             id="use3648"
             transform="matrix(-1,0,0,-1,297.72734,3454.5345)"
             width="744.09448"
             height="1052.3622" />
          <use
             style="filter:url(#filter3709-1)"
             x="0"
             y="0"
             xlink:href="#use3634"
             id="use3650"
             transform="matrix(-1,0,0,-1,297.72734,3454.5345)"
             width="744.09448"
             height="1052.3622" />
          <use
             style="filter:url(#filter3709-1)"
             x="0"
             y="0"
             xlink:href="#use3638"
             id="use3652"
             transform="matrix(-1,0,0,-1,297.72734,3454.5345)"
             width="744.09448"
             height="1052.3622" />
          <use
             style="filter:url(#filter3709-1)"
             x="0"
             y="0"
             xlink:href="#use3642"
             id="use3654"
             transform="matrix(-1,0,0,-1,297.72734,3454.5345)"
             width="744.09448"
             height="1052.3622" />
        </g>
      </g>
    </g>
  </g>
  <g
     transform="translate(7.15625,-497.875)"
     style="display:inline"
     inkscape:label="Layer 2"
     id="layer3"
     inkscape:groupmode="layer" />
  <g
     style="display:inline"
     transform="translate(7.15625,-526.23718)"
     inkscape:label="Layer 1"
     inkscape:groupmode="layer"
     id="layer1">
    <path
       inkscape:connector-curvature="0"
       style="opacity:0;fill:#000000;fill-opacity:1;stroke:#000000;stroke-width:3;stroke-linecap:butt;stroke-linejoin:miter;stroke-miterlimit:4;stroke-opacity:1;stroke-dasharray:none"
       d="m 83.72768,191.23214 c -7.84758,0.51945 -6.52164,5.24163 17.21875,20.03125 98.68096,61.47555 -57.27282,141.39346 -88.1875,325.5 -17.69717,105.39219 92.15565,280.1129 107.5625,412.43755 4.04978,34.7823 6.04665,53.08386 -9.75,60.18736 -21.64773,9.7346 -38.74937,26.923 -24,41.8438 l 63.71875,0 213.4375,0 63.68752,0 c 14.7493,-14.9208 -2.3523,-32.1092 -24,-41.8438 -15.7967,-7.1035 -13.7998,-25.40506 -9.75,-60.18736 15.4068,-132.32465 125.2596,-307.04536 107.5625,-412.43755 -30.9147,-184.10654 -186.86848,-264.02445 -88.1875,-325.5 23.7404,-14.78962 25.0976,-19.5118 17.25,-20.03125 l -65.15627,0 -216.28125,0 -65.125,0 z"
       id="use3693" />
    <path
       inkscape:connector-curvature="0"
       id="use3988"
       d="m 124.14424,1033.3686 -43.354417,-0.4501 -2.49599,-5.9421 C 71.199733,1010.0877 35.534443,912.93525 29.083903,892.92825 -7.4571471,779.5926 -7.4563271,707.741 29.086903,656.6084 c 3.75313,-5.2515 9.75572,-12.379 13.33909,-15.8389 3.58337,-3.4598 6.51522,-6.7974 6.51522,-7.4167 0,-0.6194 -6.33764,-5.1251 -14.08364,-10.0126 -7.74601,-4.8876 -17.77168,-12.7861 -22.2793,-17.5522 -14.0047601,-14.808 -10.1288201,-22.1831 14.97477,-28.4939 21.69794,-5.4547 43.29285,-6.9171 138.354537,-9.3696 87.71788,-2.263 78.27496,-2.2657 167.89046,0.048 112.61183,2.9078 143.94494,6.4005 156.35296,17.4288 9.07965,8.07 -2.55133,23.0215 -31.82757,40.9142 -5.47037,3.3433 -9.94612,6.4269 -9.94612,6.8525 0,0.4256 4.58995,5.6395 10.19988,11.5863 43.2221,45.8177 48.83058,116.2048 17.761,222.90275 -9.65851,33.1688 -13.50193,44.2616 -37.75293,108.9611 l -20.93063,55.84115 -65.40113,1.0486 c -61.10828,0.9798 -123.98483,0.9413 -228.10894,-0.1395 l 0,-10e-5 z"
       style="fill:url(#linearGradient3154);fill-opacity:1;stroke:none;display:inline;filter:url(#filter3709)" />
    <use
       transform="translate(0,-6.7e-6)"
       height="1"
       width="1"
       id="use4171"
       xlink:href="#use3956"
       y="0"
       x="0"
       style="display:inline;filter:url(#filter4174)" />
    <path
       style="fill:url(#linearGradient3150);fill-opacity:1;display:inline;filter:url(#filter3978)"
       d="m 124.14423,1033.3684 -43.354398,-0.4501 -2.49599,-5.9421 c -7.0941,-16.8888 -42.75939,-114.04119 -49.20993,-134.04815 -36.5410492,-113.33562 -36.5402292,-185.1872 0.003,-236.31975 3.75313,-5.25155 9.75572,-12.37906 13.33909,-15.83891 3.58337,-3.45985 6.51522,-6.79739 6.51522,-7.41677 0,-0.61937 -6.33764,-5.12505 -14.08364,-10.01261 -7.74601,-4.88757 -17.77168,-12.78605 -22.2793,-17.55219 -14.0047592,-14.80797 -10.1288192,-22.18307 14.97477,-28.49389 21.69794,-5.45467 43.29285,-6.91711 138.354518,-9.36956 87.71788,-2.263 78.27496,-2.26572 167.89046,0.0483 112.61183,2.90777 143.94494,6.40049 156.35296,17.42875 9.07965,8.06999 -2.55133,23.02155 -31.82757,40.91421 -5.47037,3.3433 -9.94612,6.42695 -9.94612,6.85256 0,0.42561 4.58995,5.63942 10.19988,11.58624 43.2221,45.81771 48.83058,116.20487 17.761,222.90271 -9.65851,33.16882 -13.50193,44.26157 -37.75293,108.96116 l -20.93063,55.8411 -65.40113,1.0486 c -61.10828,0.9798 -123.98483,0.9413 -228.10894,-0.1395 l 0,-10e-5 z"
       id="use3956"
       inkscape:connector-curvature="0" />
    <path
       style="fill:#803300;fill-opacity:0;stroke:#000000;stroke-width:5;stroke-miterlimit:4;stroke-opacity:1;stroke-dasharray:none;display:inline;filter:url(#filter3709-1)"
       d="m 124.14424,1033.3686 -43.354417,-0.4501 -2.49599,-5.9421 c -7.0941,-16.8887 -42.75939,-114.04111 -49.20993,-134.04811 -36.5410496,-113.3357 -36.5402296,-185.1873 0.003,-236.3199 3.75313,-5.2515 9.75572,-12.379 13.33909,-15.8389 3.58337,-3.4598 6.51522,-6.7974 6.51522,-7.4167 0,-0.6194 -6.33764,-5.1251 -14.08364,-10.0126 -7.74601,-4.8876 -17.77168,-12.7861 -22.2793,-17.5522 -14.0047596,-14.808 -10.1288196,-22.1831 14.97477,-28.4939 21.69794,-5.4547 43.29285,-6.9171 138.354537,-9.3696 87.71788,-2.263 78.27496,-2.2657 167.89046,0.048 112.61183,2.9078 143.94494,6.4005 156.35296,17.4288 9.07965,8.07 -2.55133,23.0215 -31.82757,40.9142 -5.47037,3.3433 -9.94612,6.4269 -9.94612,6.8525 0,0.4256 4.58995,5.6395 10.19988,11.5863 43.2221,45.8177 48.83058,116.2048 17.761,222.9028 -9.65851,33.1688 -13.50193,44.2616 -37.75293,108.9611 l -20.93063,55.84111 -65.40113,1.0486 c -61.10828,0.9798 -123.98483,0.9413 -228.10894,-0.1395 l 0,-10e-5 z"
       id="use3998"
       inkscape:connector-curvature="0" />
    <g
       transform="translate(548.93684,233.77937)"
       id="g4122"
       style="display:inline">
      <path
         style="fill:none;stroke:#312410;stroke-width:2.5;stroke-linecap:butt;stroke-linejoin:miter;stroke-miterlimit:4;stroke-opacity:1;stroke-dasharray:none"
         d="m -184.25915,762.59846 49.31535,29.23808 -10.32403,-49.05636"
         id="path2873"
         inkscape:connector-curvature="0"
         sodipodi:nodetypes="ccc" />
      <path
         sodipodi:nodetypes="cc"
         style="fill:none;stroke:#312410;stroke-width:2;stroke-linecap:butt;stroke-linejoin:miter;stroke-miterlimit:4;stroke-opacity:1;stroke-dasharray:none"
         d="m -134.88548,791.75465 -57.54488,1.4371"
         id="path2875"
         inkscape:connector-curvature="0" />
      <path
         sodipodi:nodetypes="ccc"
         inkscape:connector-curvature="0"
         id="path3850"
         d="m -139.71859,609.38805 74.69457,-0.48812 -73.07988,51.8633"
         style="fill:none;stroke:#312410;stroke-width:2.20000005;stroke-linecap:butt;stroke-linejoin:miter;stroke-miterlimit:4;stroke-opacity:1;stroke-dasharray:none" />
      <path
         inkscape:connector-curvature="0"
         id="path3852"
         d="m -68.90409,610.18243 -97.64437,42.2132"
         style="fill:none;stroke:#312410;stroke-width:2.5999999;stroke-linecap:butt;stroke-linejoin:miter;stroke-miterlimit:4;stroke-opacity:1;stroke-dasharray:none"
         sodipodi:nodetypes="cc" />
      <path
         sodipodi:nodetypes="ccc"
         inkscape:connector-curvature="0"
         id="path3868"
         d="m -262.0923,792.6667 24.16192,5.1646 -23.17035,-34.87521"
         style="fill:none;stroke:#312410;stroke-width:3;stroke-linecap:butt;stroke-linejoin:miter;stroke-miterlimit:4;stroke-opacity:1;stroke-dasharray:none" />
      <path
         inkscape:connector-curvature="0"
         id="path3870"
         d="m -239.59779,797.94342 15.71607,-32.22069"
         style="fill:none;stroke:#312410;stroke-width:3;stroke-linecap:butt;stroke-linejoin:miter;stroke-miterlimit:4;stroke-opacity:1;stroke-dasharray:none"
         sodipodi:nodetypes="cc" />
      <path
         style="fill:none;stroke:#312410;stroke-width:3.5;stroke-linecap:butt;stroke-linejoin:miter;stroke-miterlimit:4;stroke-opacity:1;stroke-dasharray:none"
         d="m -442.95772,778.98268 -34.35237,-6.08815 46.59669,-34.87521"
         id="path4068"
         inkscape:connector-curvature="0"
         sodipodi:nodetypes="ccc" />
      <path
         sodipodi:nodetypes="cc"
         style="fill:none;stroke:#312410;stroke-width:2;stroke-linecap:butt;stroke-linejoin:miter;stroke-miterlimit:4;stroke-opacity:1;stroke-dasharray:none"
         d="m -477.85223,774.13193 24.04538,20.53472"
         id="path4070"
         inkscape:connector-curvature="0" />
      <path
         sodipodi:nodetypes="cc"
         style="fill:none;stroke:#312410;stroke-width:1.5;stroke-linecap:butt;stroke-linejoin:miter;stroke-miterlimit:4;stroke-opacity:1;stroke-dasharray:none"
         d="m -68.90409,610.18243 -50.38283,8.45496"
         id="path4072"
         inkscape:connector-curvature="0" />
      <path
         inkscape:connector-curvature="0"
         id="path4074"
         d="m -134.88548,791.75465 -21.53609,-7.5651"
         style="fill:none;stroke:#312410;stroke-width:2;stroke-linecap:butt;stroke-linejoin:miter;stroke-miterlimit:4;stroke-opacity:1;stroke-dasharray:none"
         sodipodi:nodetypes="cc" />
      <path
         style="fill:none;stroke:#312410;stroke-width:2;stroke-linecap:butt;stroke-linejoin:miter;stroke-miterlimit:4;stroke-opacity:1;stroke-dasharray:none"
         d="m -329.88377,780.97083 20.68138,17.51628 -7.81395,-26.90593"
         id="path4076"
         inkscape:connector-curvature="0"
         sodipodi:nodetypes="ccc" />
      <path
         sodipodi:nodetypes="cc"
         style="fill:none;stroke:#312410;stroke-width:4;stroke-linecap:butt;stroke-linejoin:miter;stroke-miterlimit:4;stroke-opacity:1;stroke-dasharray:none"
         d="m -313.08246,799.76961 14.8831,-16.30109"
         id="path4078"
         inkscape:connector-curvature="0" />
      <path
         inkscape:connector-curvature="0"
         id="path4080"
         d="m -311.49108,798.17823 -36.22037,-19.21081"
         style="fill:none;stroke:#312410;stroke-width:2.4000001;stroke-linecap:butt;stroke-linejoin:miter;stroke-miterlimit:4;stroke-opacity:1;stroke-dasharray:none"
         sodipodi:nodetypes="cc" />
    </g>
  </g>
  <g
     transform="translate(7.15625,-497.875)"
     style="display:inline"
     inkscape:label="Layer"
     id="layer2"
     inkscape:groupmode="layer" />
  <g
     transform="translate(7.15625,-497.875)"
     style="opacity:0;display:inline"
     inkscape:label="EXPORT"
     id="layer5"
     inkscape:groupmode="layer">
    <rect
       inkscape:export-ydpi="90"
       inkscape:export-xdpi="90"
       inkscape:export-filename="vase_broken.png"
       y="498.37402"
       x="-6.6572247"
       height="511.00195"
       width="511.00195"
       id="rect3167"
       style="opacity:0.5;fill:#0000ff;fill-rule:evenodd;stroke:#000000;stroke-width:0.99805069px;stroke-linecap:butt;stroke-linejoin:miter;stroke-opacity:1;display:inline" />
  </g>
</svg>
