<?xml version="1.0" encoding="UTF-8" standalone="no"?>
<!-- Created with Inkscape (http://www.inkscape.org/) -->
<svg
   xmlns:dc="http://purl.org/dc/elements/1.1/"
   xmlns:cc="http://creativecommons.org/ns#"
   xmlns:rdf="http://www.w3.org/1999/02/22-rdf-syntax-ns#"
   xmlns:svg="http://www.w3.org/2000/svg"
   xmlns="http://www.w3.org/2000/svg"
   xmlns:xlink="http://www.w3.org/1999/xlink"
   xmlns:sodipodi="http://sodipodi.sourceforge.net/DTD/sodipodi-0.dtd"
   xmlns:inkscape="http://www.inkscape.org/namespaces/inkscape"
   width="512"
   height="512"
   id="svg2"
   sodipodi:version="0.32"
   inkscape:version="0.46"
   sodipodi:docbase="D:\Dateien\Desktop\Secret Maryo Chronicles\Drafts\Game\Helios\level\enemies\furball\v2.5"
   sodipodi:docname="6.svg"
   inkscape:output_extension="org.inkscape.output.svg.inkscape"
   version="1.0"
   inkscape:export-filename="D:\Dateien\Desktop\Secret Maryo Chronicles\SMC\data\pixmaps\enemy\furball\brown\walk_6.png"
   inkscape:export-xdpi="45"
   inkscape:export-ydpi="45">
  <defs
     id="defs4">
    <inkscape:perspective
       sodipodi:type="inkscape:persp3d"
       inkscape:vp_x="0 : 276.91501 : 1"
       inkscape:vp_y="0 : 1000 : 0"
       inkscape:vp_z="553.83002 : 276.91501 : 1"
       inkscape:persp3d-origin="276.91501 : 184.61001 : 1"
       id="perspective122" />
    <linearGradient
       id="linearGradient3378">
      <stop
         style="stop-color:#b94700;stop-opacity:1;"
         offset="0"
         id="stop3380" />
      <stop
         id="stop3382"
         offset="0.66071427"
         style="stop-color:#a44000;stop-opacity:1;" />
      <stop
         style="stop-color:#893700;stop-opacity:1;"
         offset="1"
         id="stop3384" />
    </linearGradient>
    <linearGradient
       id="linearGradient3280">
      <stop
         id="stop3282"
         offset="0"
         style="stop-color:#e67128;stop-opacity:1;" />
      <stop
         id="stop3284"
         offset="1"
         style="stop-color:#cc670d;stop-opacity:1;" />
    </linearGradient>
    <linearGradient
       id="linearGradient17792">
      <stop
         id="stop17794"
         offset="0"
         style="stop-color:#963b00;stop-opacity:1;" />
      <stop
         style="stop-color:#752e00;stop-opacity:1;"
         offset="0.5854966"
         id="stop17796" />
      <stop
         id="stop17798"
         offset="1"
         style="stop-color:#552200;stop-opacity:1;" />
    </linearGradient>
    <linearGradient
       id="linearGradient17584">
      <stop
         style="stop-color:#963b00;stop-opacity:1;"
         offset="0"
         id="stop17586" />
      <stop
         id="stop17592"
         offset="0.34573093"
         style="stop-color:#752e00;stop-opacity:1;" />
      <stop
         style="stop-color:#552200;stop-opacity:1;"
         offset="1"
         id="stop17588" />
    </linearGradient>
    <linearGradient
       id="linearGradient17334">
      <stop
         style="stop-color:#df6d21;stop-opacity:1;"
         offset="0"
         id="stop17336" />
      <stop
         style="stop-color:#bb4c00;stop-opacity:1;"
         offset="1"
         id="stop17338" />
    </linearGradient>
    <linearGradient
       id="linearGradient17211">
      <stop
         style="stop-color:#f07c2e;stop-opacity:0.75294119;"
         offset="0"
         id="stop17213" />
      <stop
         style="stop-color:#d16218;stop-opacity:0.1882353;"
         offset="1"
         id="stop17215" />
    </linearGradient>
    <clipPath
       id="clipPath3754"
       clipPathUnits="userSpaceOnUse">
      <path
         style="fill:#fff6d5;fill-rule:evenodd;stroke:#000000;stroke-width:1px;stroke-linecap:butt;stroke-linejoin:miter;stroke-opacity:1"
         d="M 391.43411,693.75804 C 404.03538,674.4187 417.94824,662.89057 437.51107,651.27283 C 446.07552,644.04546 488.91055,638.25271 480.9551,629.9216 C 458.84984,616.97432 417.4296,611.31287 403.05484,621.74336 C 389.15718,631.82766 381.93338,667.13266 391.43411,693.75804 z"
         id="path3756"
         sodipodi:nodetypes="cccsc" />
    </clipPath>
    <linearGradient
       id="linearGradient3762">
      <stop
         id="stop3764"
         offset="0"
         style="stop-color:#7982a6;stop-opacity:1;" />
      <stop
         style="stop-color:#ffffff;stop-opacity:1;"
         offset="0.30612245"
         id="stop3776" />
      <stop
         id="stop3766"
         offset="1"
         style="stop-color:#ffffff;stop-opacity:1;" />
    </linearGradient>
    <radialGradient
       inkscape:collect="always"
       xlink:href="#linearGradient3762"
       id="radialGradient2246"
       gradientUnits="userSpaceOnUse"
       gradientTransform="matrix(0.7638762,0.6453629,-0.9785236,1.158218,760.87876,-366.16097)"
       cx="390.07419"
       cy="678.53479"
       fx="390.07419"
       fy="678.53479"
       r="48.907497" />
    <radialGradient
       inkscape:collect="always"
       xlink:href="#linearGradient3762"
       id="radialGradient2248"
       gradientUnits="userSpaceOnUse"
       gradientTransform="matrix(0.7638762,0.6453629,-0.9785236,1.158218,760.87876,-366.16097)"
       cx="390.07419"
       cy="678.53479"
       fx="390.07419"
       fy="678.53479"
       r="48.907497" />
    <filter
       inkscape:collect="always"
       id="filter17728">
      <feGaussianBlur
         inkscape:collect="always"
         stdDeviation="0.71532756"
         id="feGaussianBlur17730" />
    </filter>
    <filter
       inkscape:collect="always"
       id="filter17752">
      <feGaussianBlur
         inkscape:collect="always"
         stdDeviation="0.71532756"
         id="feGaussianBlur17754" />
    </filter>
    <linearGradient
       inkscape:collect="always"
       xlink:href="#linearGradient17211"
       id="linearGradient17786"
       gradientUnits="userSpaceOnUse"
       x1="193.62508"
       y1="456.67758"
       x2="201.22447"
       y2="531.79303" />
    <linearGradient
       inkscape:collect="always"
       xlink:href="#linearGradient17211"
       id="linearGradient17788"
       gradientUnits="userSpaceOnUse"
       x1="283.08835"
       y1="468.76453"
       x2="296.72403"
       y2="535.37354" />
    <radialGradient
       inkscape:collect="always"
       xlink:href="#linearGradient3280"
       id="radialGradient3266"
       cx="366.43097"
       cy="566.68799"
       fx="366.43097"
       fy="566.68799"
       r="267.16849"
       gradientTransform="matrix(1,0,0,0.7900311,0,118.98683)"
       gradientUnits="userSpaceOnUse" />
    <radialGradient
       inkscape:collect="always"
       xlink:href="#linearGradient17334"
       id="radialGradient3270"
       gradientUnits="userSpaceOnUse"
       gradientTransform="matrix(1,0,0,0.7900311,0,118.98683)"
       cx="366.43097"
       cy="566.68799"
       fx="366.43097"
       fy="566.68799"
       r="267.16849" />
    <filter
       inkscape:collect="always"
       id="filter3276">
      <feGaussianBlur
         inkscape:collect="always"
         stdDeviation="11.930859"
         id="feGaussianBlur3278" />
    </filter>
    <filter
       inkscape:collect="always"
       id="filter3318">
      <feGaussianBlur
         inkscape:collect="always"
         stdDeviation="0.49589886"
         id="feGaussianBlur3320" />
    </filter>
    <filter
       inkscape:collect="always"
       id="filter3328">
      <feGaussianBlur
         inkscape:collect="always"
         stdDeviation="4.9590504"
         id="feGaussianBlur3330" />
    </filter>
    <filter
       inkscape:collect="always"
       id="filter3340">
      <feGaussianBlur
         inkscape:collect="always"
         stdDeviation="0.78875974"
         id="feGaussianBlur3342" />
    </filter>
    <filter
       inkscape:collect="always"
       id="filter3344">
      <feGaussianBlur
         inkscape:collect="always"
         stdDeviation="0.78875974"
         id="feGaussianBlur3346" />
    </filter>
    <filter
       inkscape:collect="always"
       id="filter3348">
      <feGaussianBlur
         inkscape:collect="always"
         stdDeviation="0.39870587"
         id="feGaussianBlur3350" />
    </filter>
    <filter
       inkscape:collect="always"
       id="filter3352">
      <feGaussianBlur
         inkscape:collect="always"
         stdDeviation="0.39870587"
         id="feGaussianBlur3354" />
    </filter>
    <filter
       inkscape:collect="always"
       id="filter3356">
      <feGaussianBlur
         inkscape:collect="always"
         stdDeviation="0.57745126"
         id="feGaussianBlur3358" />
    </filter>
    <filter
       inkscape:collect="always"
       id="filter3364">
      <feGaussianBlur
         inkscape:collect="always"
         stdDeviation="0.53281971"
         id="feGaussianBlur3366" />
    </filter>
    <filter
       inkscape:collect="always"
       id="filter3368">
      <feGaussianBlur
         inkscape:collect="always"
         stdDeviation="0.62468594"
         id="feGaussianBlur3370" />
    </filter>
    <filter
       inkscape:collect="always"
       id="filter3386"
       x="-0.073317222"
       width="1.1466345"
       y="-0.13900524"
       height="1.2780105">
      <feGaussianBlur
         inkscape:collect="always"
         stdDeviation="5.7929338"
         id="feGaussianBlur3388" />
    </filter>
    <filter
       inkscape:collect="always"
       id="filter3408"
       x="-0.081325382"
       width="1.1626508"
       y="-0.22881293"
       height="1.4576259">
      <feGaussianBlur
         inkscape:collect="always"
         stdDeviation="4.3604276"
         id="feGaussianBlur3410" />
    </filter>
    <filter
       inkscape:collect="always"
       id="filter3412"
       x="-0.090302728"
       width="1.1806055"
       y="-0.17880118"
       height="1.3576024">
      <feGaussianBlur
         inkscape:collect="always"
         stdDeviation="3.9720005"
         id="feGaussianBlur3414" />
    </filter>
    <radialGradient
       inkscape:collect="always"
       xlink:href="#linearGradient17792"
       id="radialGradient2535"
       gradientUnits="userSpaceOnUse"
       gradientTransform="matrix(0.7890531,-0.1513923,5.7629121e-2,0.3003617,49.148398,585.90395)"
       cx="454.94931"
       cy="749.78192"
       fx="454.94931"
       fy="749.78192"
       r="99.870819" />
    <radialGradient
       inkscape:collect="always"
       xlink:href="#linearGradient3378"
       id="radialGradient2537"
       gradientUnits="userSpaceOnUse"
       gradientTransform="matrix(0.7890531,-0.1513923,5.7629121e-2,0.3003617,49.148398,585.90395)"
       cx="454.94931"
       cy="749.78192"
       fx="454.94931"
       fy="749.78192"
       r="99.870819" />
  </defs>
  <sodipodi:namedview
     id="base"
     pagecolor="#000000"
     bordercolor="#666666"
     borderopacity="1.0"
     gridtolerance="10000"
     guidetolerance="10"
     objecttolerance="10"
     inkscape:pageopacity="0"
     inkscape:pageshadow="2"
     inkscape:zoom="0.53547165"
     inkscape:cx="257.1958"
     inkscape:cy="290.06113"
     inkscape:document-units="px"
     inkscape:current-layer="layer7"
     inkscape:window-width="1024"
     inkscape:window-height="712"
     inkscape:window-x="122"
     inkscape:window-y="71"
     showguides="true"
     inkscape:guide-bbox="true"
     showgrid="false" />
  <metadata
     id="metadata7">
    <rdf:RDF>
      <cc:Work
         rdf:about="">
        <dc:format>image/svg+xml</dc:format>
        <dc:type
           rdf:resource="http://purl.org/dc/dcmitype/StillImage" />
      </cc:Work>
      <cc:Work
         rdf:about="">
        <dc:format>image/svg+xml</dc:format>
        <dc:type
           rdf:resource="http://purl.org/dc/dcmitype/StillImage" />
      </cc:Work>
    </rdf:RDF>
  </metadata>
  <g
     inkscape:groupmode="layer"
     id="layer5"
     inkscape:label="foot below"
     style="display:inline"
     transform="translate(-86.015417,-344.74042)">
    <use
       style="display:inline"
       x="0"
       y="0"
       xlink:href="#g17596"
       inkscape:transform-center-x="-62.841872"
       inkscape:transform-center-y="-66.982104"
       id="use3390"
       transform="matrix(0.8470301,-0.1800383,0.1800383,0.8470301,-1.0598936,164.53398)"
       width="553.83002"
       height="553.83002" />
  </g>
  <g
     inkscape:groupmode="layer"
     id="layer3"
     inkscape:label="body"
     style="display:inline"
     transform="translate(-86.015417,-344.74042)">
    <g
       id="g2464"
       inkscape:label="black outline"
       sodipodi:insensitive="true"
       transform="translate(150.81235,404.25975)" />
    <g
       id="g3169"
       transform="translate(187.68008,397.1698)"
       inkscape:export-filename="/home/sheryl/Piers/furball frames/furball.v2.41.f0.png"
       inkscape:export-xdpi="10.56"
       inkscape:export-ydpi="10.56" />
    <g
       id="g2661"
       inkscape:label="foot below"
       transform="matrix(-4.1093027,0,0,4.1093027,2223.8735,-2231.2965)" />
    <g
       inkscape:label="inside colour shading"
       id="g2663"
       style="display:inline"
       transform="matrix(-4.1093027,0,0,4.1093027,2223.8735,-2231.2965)" />
    <g
       id="g2665"
       inkscape:label="outline"
       transform="matrix(-4.1093027,0,0,4.1093027,2223.8735,-2231.2965)" />
    <g
       id="g2667"
       inkscape:label="shadowing"
       transform="matrix(-4.1093027,0,0,4.1093027,2223.8735,-2231.2965)" />
    <g
       style="stroke:#000000;stroke-width:66.02096558;stroke-miterlimit:4;stroke-dasharray:none;stroke-opacity:1"
       id="g3480"
       inkscape:label="Layer 1"
       transform="matrix(-0.1160341,1.2817742e-2,1.1241058e-2,0.1323092,237.30848,384.23533)"
       inkscape:transform-center-x="-27.57098"
       inkscape:transform-center-y="-11.950164" />
    <g
       id="g2796"
       inkscape:label="foot below"
       transform="matrix(-2.1173273,0,0,2.1173273,1560.3272,-752.9691)" />
    <g
       inkscape:label="inside colour shading"
       id="g2798"
       style="display:inline"
       transform="matrix(-2.1173273,0,0,2.1173273,1560.3272,-752.9691)" />
    <g
       id="g2800"
       inkscape:label="outline"
       transform="matrix(-2.1173273,0,0,2.1173273,1560.3272,-752.9691)" />
    <g
       id="g2802"
       inkscape:label="shadowing"
       transform="matrix(-2.1173273,0,0,2.1173273,1560.3272,-752.9691)" />
    <g
       inkscape:transform-center-y="-11.950164"
       inkscape:transform-center-x="-27.57098"
       transform="matrix(-0.1160341,1.2817742e-2,1.1241058e-2,0.1323092,237.30848,384.23533)"
       inkscape:label="Layer 1"
       id="g16330"
       style="stroke:#000000;stroke-width:66.02096558;stroke-miterlimit:4;stroke-dasharray:none;stroke-opacity:1" />
    <g
       id="g17756"
       transform="matrix(0.8941084,0,0,0.8941084,18.712642,131.74401)">
      <g
         id="g17504"
         style="display:inline;filter:url(#filter3318)">
        <path
           inkscape:export-ydpi="10.56"
           inkscape:export-xdpi="10.56"
           inkscape:export-filename="/media/home/piers/Desktop/fluffball.png"
           sodipodi:nodetypes="ccccccccccccccccsccccccccccccccccccccccccccccccc"
           id="path3187"
           d="M 124.5773,449.70383 L 206.11169,414.2541 L 196.18576,385.89431 L 255.03232,386.6033 L 255.74132,360.3705 L 274.88418,356.11653 L 320.25984,379.51336 L 337.27571,358.24352 L 384.77836,369.58743 L 407.46619,370.29643 L 487.58259,359.66151 L 497.50851,384.47632 L 533.66724,387.3123 L 545.72015,411.41812 L 579.04291,421.34405 L 562.73603,448.28584 C 562.73603,448.28584 596.05878,458.21177 597.47677,461.04775 C 598.89476,463.88373 613.78365,481.6086 613.78365,481.6086 L 601.02174,500.04246 L 616.61963,524.14828 L 616.61963,546.83611 L 595.34978,553.92606 L 624.41857,575.90489 L 633.09948,589.37579 L 627.25455,602.84669 L 601.81306,607.75558 L 627.96354,637.58743 L 623.00058,653.18532 L 591.09582,651.76733 L 605.98471,682.96309 L 579.04291,691.47103 L 556.13338,719.51166 L 517.13867,736.91736 L 465.81319,757.41851 L 397.83989,771.79575 L 335.14873,777.25939 L 207.52968,743.22764 L 153.56494,691.8515 L 135.92121,666.65621 L 144.42915,636.16944 L 115.36036,636.87844 L 113.94238,602.84669 L 120.32333,568.81494 L 99.762482,557.47103 L 126.70428,519.89431 L 118.19634,500.04246 L 131.66724,478.06362 L 124.5773,449.70383 z"
           style="fill:url(#radialGradient3270);fill-opacity:1;fill-rule:evenodd;stroke:#000000;stroke-width:1px;stroke-linecap:butt;stroke-linejoin:miter;stroke-opacity:1" />
        <path
           sodipodi:type="inkscape:offset"
           inkscape:radius="0"
           inkscape:original="M 274.875 356.125 L 255.75 360.375 L 255.03125 386.59375 L 196.1875 385.90625 L 206.125 414.25 L 124.5625 449.71875 L 131.65625 478.0625 L 118.1875 500.03125 L 126.71875 519.90625 L 99.75 557.46875 L 120.3125 568.8125 L 113.9375 602.84375 L 115.375 636.875 L 144.4375 636.15625 L 135.90625 666.65625 L 153.5625 691.84375 L 207.53125 743.21875 L 335.15625 777.25 L 397.84375 771.78125 L 465.8125 757.40625 L 517.125 736.90625 L 556.125 719.5 L 579.03125 691.46875 L 606 682.96875 L 591.09375 651.78125 L 623 653.1875 L 627.96875 637.59375 L 601.8125 607.75 L 627.25 602.84375 L 633.09375 589.375 L 624.40625 575.90625 L 595.34375 553.9375 L 616.625 546.84375 L 616.625 524.15625 L 601.03125 500.03125 L 613.78125 481.59375 C 613.78125 481.59375 598.88676 463.89847 597.46875 461.0625 C 596.05076 458.22652 562.75001 448.28126 562.75 448.28125 L 579.03125 421.34375 L 545.71875 411.40625 L 533.65625 387.3125 L 497.5 384.46875 L 487.59375 359.65625 L 407.46875 370.28125 L 384.78125 369.59375 L 337.28125 358.25 L 320.25 379.5 L 274.875 356.125 z "
           xlink:href="#path3187"
           style="fill:url(#radialGradient3266);fill-opacity:1;fill-rule:evenodd;stroke:none;stroke-width:1px;stroke-linecap:butt;stroke-linejoin:miter;stroke-opacity:1;filter:url(#filter3276)"
           id="path3268"
           inkscape:href="#path3187"
           d="M 274.875,356.125 L 255.75,360.375 L 255.03125,386.59375 L 196.1875,385.90625 L 206.125,414.25 L 124.5625,449.71875 L 131.65625,478.0625 L 118.1875,500.03125 L 126.71875,519.90625 L 99.75,557.46875 L 120.3125,568.8125 L 113.9375,602.84375 L 115.375,636.875 L 144.4375,636.15625 L 135.90625,666.65625 L 153.5625,691.84375 L 207.53125,743.21875 L 335.15625,777.25 L 397.84375,771.78125 L 465.8125,757.40625 L 517.125,736.90625 L 556.125,719.5 L 579.03125,691.46875 L 606,682.96875 L 591.09375,651.78125 L 623,653.1875 L 627.96875,637.59375 L 601.8125,607.75 L 627.25,602.84375 L 633.09375,589.375 L 624.40625,575.90625 L 595.34375,553.9375 L 616.625,546.84375 L 616.625,524.15625 L 601.03125,500.03125 L 613.78125,481.59375 C 613.78125,481.59375 598.88676,463.89847 597.46875,461.0625 C 596.05076,458.22652 562.75001,448.28126 562.75,448.28125 L 579.03125,421.34375 L 545.71875,411.40625 L 533.65625,387.3125 L 497.5,384.46875 L 487.59375,359.65625 L 407.46875,370.28125 L 384.78125,369.59375 L 337.28125,358.25 L 320.25,379.5 L 274.875,356.125 z"
           transform="matrix(0.8616065,0,0,0.8616065,50.71042,78.425888)" />
        <path
           sodipodi:type="inkscape:offset"
           inkscape:radius="0"
           inkscape:original="M 257.78125 344.78125 C 251.21452 344.42503 245.53152 345.88102 241.78125 350 C 236.11184 356.22681 231.23915 366.88552 248.8125 379.53125 C 242.63451 373.92036 214.88195 365.25009 201.78125 366.125 C 177.66196 362.57083 159.76578 401.02849 190.21875 416.34375 C 173.33 417.6639 147.26779 426.09133 131.46875 431.5625 C 110.51053 438.82029 98.913401 471.53136 126.28125 481.28125 C 108.65873 485.4276 92.736912 508.45787 119.65625 524 C 93.853249 537.02116 81.953497 546.98332 87.25 563.25 C 89.90566 571.40608 107.32019 575.78395 113.84375 573.59375 C 109.71395 578.2969 92.446638 595.00086 93.125 600.46875 C 93.60305 604.32199 95.240168 609.37232 111.84375 609.03125 C 107.01526 612.32485 99.900318 630.60448 105.15625 636.28125 C 109.37589 640.83875 118.04012 649.61768 134.96875 642.625 C 125.32662 655.81108 120.68912 677.21231 136.8125 679.78125 C 158.99612 683.31576 137.34393 710.66024 161.875 715.1875 C 165.41403 722.37488 175.23075 730.97148 189.75 729.90625 C 189.2292 741.87571 207.25117 752.77772 223.25 751.71875 C 239.83753 772.06031 253.14185 767.10187 264.625 766.125 C 282.67194 781.25326 306.40462 768.43455 325.625 781.09375 C 330.46055 783.4359 335.96454 782.59272 341.125 782.4375 C 365.22707 777.52853 390.27874 780.70966 414.125 774.21875 C 432.73935 761.56633 456.89343 774.6767 473.21875 762.5 C 496.8526 754.69698 525.96278 749.3946 528.84375 739.4375 C 541.59255 740.42594 550.05823 739.49463 559.6875 723.3125 C 579.83529 726.20563 594.40487 693.86243 585.0625 691.25 C 592.73603 695.19576 609.6773 693.91624 613.65625 686.75 C 617.44611 679.92433 615.04958 676.5487 599.53125 660.90625 C 652.35329 668.85761 629.77666 617.09116 605.15625 608.125 C 647.71741 621.70107 653.40104 569.97922 609.375 555.3125 C 636.37348 546.50976 618.35175 503.43084 607.5 500.28125 C 611.53713 491.10521 625.54343 489.58951 623 472.375 C 620.61389 456.22544 589.04272 445.53395 573.59375 446.4375 C 611.74554 405.86158 574.49052 400.2227 549.75 398.84375 C 544.39118 373.66044 515.7251 376.1809 501.375 379.0625 C 512.52886 342.77673 464.45843 348.25787 448.25 350.40625 C 427.63438 353.1388 400.37556 357.27693 392.4375 368.125 C 384.23246 348.95707 356.66649 349.54424 352.0625 359.34375 C 349.96518 355.2312 342.5637 344.90174 325.375 347 C 318.618 347.8309 306.91257 355.31333 314.34375 372.625 C 305.33818 363.08119 277.48143 345.84992 257.78125 344.78125 z M 270.65625 362.6875 C 274.19965 362.54757 278.29607 363.31454 281.53125 365.09375 C 294.87253 372.43085 305.51188 375.86492 326.53125 391.625 C 318.34189 367.47112 347.09088 372.89991 354.6875 382.875 C 356.96827 380.1918 356.32547 372.856 368.5625 370 C 378.9595 367.57344 386.28143 380.81826 390.78125 390.0625 C 411.4359 365.33671 438.84741 367.23496 455.5 366.53125 C 492.08715 367.79943 481.99068 388.91443 472.90625 392.40625 C 523.6402 385.29764 533.65883 390.54334 531.8125 401.6875 C 530.59212 409.05342 512.25415 415.05417 483.0625 432.25 C 502.09622 428.73432 533.92444 412.38744 554.90625 419.125 C 582.73331 423.81498 542.34377 455.85811 525.59375 463.4375 C 548.26921 454.09897 591.81201 451.96882 603.5625 477.84375 C 609.8202 491.54533 557.46764 502.70977 549.4375 506.65625 C 583.49958 503.88706 607.46603 501.0306 612.34375 529.15625 C 617.26011 557.50463 567.86135 543.9031 555.0625 541.46875 C 618.23338 563.24991 666.53404 609.4521 582.1875 596.15625 C 641.6196 632.47611 617.00421 678.56306 575.40625 635.375 C 571.73452 647.98568 590.69098 659.96828 594.6875 667.8125 C 605.63349 690.88187 575.02363 683.51017 562.875 669.46875 C 568.6923 683.28738 575.5058 691.76949 566.3125 706.84375 C 556.58826 690.83198 534.32827 698.65872 542.625 714.0625 C 550.47592 732.99011 527.6224 709.53676 519.375 716.53125 C 521.67255 735.90953 513.74872 729.97777 499.03125 731.125 C 500.96127 749.89865 485.46265 731.0132 478.53125 742.5625 C 467.72426 749.47159 454.81034 757.89587 443.5 753.21875 C 425.69225 757.24503 413.49902 763.82643 395.40625 769.25 C 375.24007 763.46834 357.84681 770.90705 339.1875 769.03125 C 334.69368 773.92354 331.09737 774.39597 325.1875 771.625 C 316.75127 750.78068 302.37749 769.23145 288.84375 760.9375 C 272.29199 770.68319 264.77376 732.04682 247.78125 754.34375 C 245.74049 730.6227 227.7413 739.38674 215.8125 732.3125 C 220.67993 706.17167 190.45371 724.28389 184.125 706.0625 C 186.95349 680.24706 160.68551 704.49504 155.25 687.53125 C 152.58805 677.58346 164.96903 656.37305 141.875 662.71875 C 144.787 649.8627 164.61816 615.03602 132.75 628.0625 C 102.97225 638.72661 123.35032 603.0593 136.96875 598.09375 C 137.61609 600.03894 154.26522 590.92743 135.34375 594.90625 C 103.10444 605.73817 125.59506 571.77498 138.96875 568.0625 C 115.81202 566.82819 110.03322 565.35108 104.71875 558.25 C 96.580069 547.37528 143.58116 524.38739 161.6875 519.8125 C 140.32175 513.92944 122.52196 515.53298 126.375 501.59375 C 131.53362 482.9313 164.34458 484.61003 183.4375 477.9375 C 159.11327 463.93602 126.67565 471.90223 134.15625 458.21875 C 142.89983 442.22502 172.26395 437.00413 194.375 435.21875 C 206.20585 426.48415 210.20246 421.74918 237.71875 421.0625 C 235.61816 406.37453 189.40719 403.58366 206.59375 392.375 C 229.18826 388.81762 255.39216 393.9131 275.09375 400.65625 C 269.06797 390.6464 255.84465 378.15569 263.03125 365.75 C 264.12328 363.86491 267.11285 362.82743 270.65625 362.6875 z "
           xlink:href="#path2161"
           style="fill:#9d4300;fill-opacity:0.56410259;filter:url(#filter3328)"
           id="path3326"
           inkscape:href="#path2161"
           d="M 257.78125,344.78125 C 251.21452,344.42503 245.53152,345.88102 241.78125,350 C 236.11184,356.22681 231.23915,366.88552 248.8125,379.53125 C 242.63451,373.92036 214.88195,365.25009 201.78125,366.125 C 177.66196,362.57083 159.76578,401.02849 190.21875,416.34375 C 173.33,417.6639 147.26779,426.09133 131.46875,431.5625 C 110.51053,438.82029 98.913401,471.53136 126.28125,481.28125 C 108.65873,485.4276 92.736912,508.45787 119.65625,524 C 93.853249,537.02116 81.953497,546.98332 87.25,563.25 C 89.90566,571.40608 107.32019,575.78395 113.84375,573.59375 C 109.71395,578.2969 92.446638,595.00086 93.125,600.46875 C 93.60305,604.32199 95.240168,609.37232 111.84375,609.03125 C 107.01526,612.32485 99.900318,630.60448 105.15625,636.28125 C 109.37589,640.83875 118.04012,649.61768 134.96875,642.625 C 125.32662,655.81108 120.68912,677.21231 136.8125,679.78125 C 158.99612,683.31576 137.34393,710.66024 161.875,715.1875 C 165.41403,722.37488 175.23075,730.97148 189.75,729.90625 C 189.2292,741.87571 207.25117,752.77772 223.25,751.71875 C 239.83753,772.06031 253.14185,767.10187 264.625,766.125 C 282.67194,781.25326 306.40462,768.43455 325.625,781.09375 C 330.46055,783.4359 335.96454,782.59272 341.125,782.4375 C 365.22707,777.52853 390.27874,780.70966 414.125,774.21875 C 432.73935,761.56633 456.89343,774.6767 473.21875,762.5 C 496.8526,754.69698 525.96278,749.3946 528.84375,739.4375 C 541.59255,740.42594 550.05823,739.49463 559.6875,723.3125 C 579.83529,726.20563 594.40487,693.86243 585.0625,691.25 C 592.73603,695.19576 609.6773,693.91624 613.65625,686.75 C 617.44611,679.92433 615.04958,676.5487 599.53125,660.90625 C 652.35329,668.85761 629.77666,617.09116 605.15625,608.125 C 647.71741,621.70107 653.40104,569.97922 609.375,555.3125 C 636.37348,546.50976 618.35175,503.43084 607.5,500.28125 C 611.53713,491.10521 625.54343,489.58951 623,472.375 C 620.61389,456.22544 589.04272,445.53395 573.59375,446.4375 C 611.74554,405.86158 574.49052,400.2227 549.75,398.84375 C 544.39118,373.66044 515.7251,376.1809 501.375,379.0625 C 512.52886,342.77673 464.45843,348.25787 448.25,350.40625 C 427.63438,353.1388 400.37556,357.27693 392.4375,368.125 C 384.23246,348.95707 356.66649,349.54424 352.0625,359.34375 C 349.96518,355.2312 342.5637,344.90174 325.375,347 C 318.618,347.8309 306.91257,355.31333 314.34375,372.625 C 305.33818,363.08119 277.48143,345.84992 257.78125,344.78125 z M 270.65625,362.6875 C 274.19965,362.54757 278.29607,363.31454 281.53125,365.09375 C 294.87253,372.43085 305.51188,375.86492 326.53125,391.625 C 318.34189,367.47112 347.09088,372.89991 354.6875,382.875 C 356.96827,380.1918 356.32547,372.856 368.5625,370 C 378.9595,367.57344 386.28143,380.81826 390.78125,390.0625 C 411.4359,365.33671 438.84741,367.23496 455.5,366.53125 C 492.08715,367.79943 481.99068,388.91443 472.90625,392.40625 C 523.6402,385.29764 533.65883,390.54334 531.8125,401.6875 C 530.59212,409.05342 512.25415,415.05417 483.0625,432.25 C 502.09622,428.73432 533.92444,412.38744 554.90625,419.125 C 582.73331,423.81498 542.34377,455.85811 525.59375,463.4375 C 548.26921,454.09897 591.81201,451.96882 603.5625,477.84375 C 609.8202,491.54533 557.46764,502.70977 549.4375,506.65625 C 583.49958,503.88706 607.46603,501.0306 612.34375,529.15625 C 617.26011,557.50463 567.86135,543.9031 555.0625,541.46875 C 618.23338,563.24991 666.53404,609.4521 582.1875,596.15625 C 641.6196,632.47611 617.00421,678.56306 575.40625,635.375 C 571.73452,647.98568 590.69098,659.96828 594.6875,667.8125 C 605.63349,690.88187 575.02363,683.51017 562.875,669.46875 C 568.6923,683.28738 575.5058,691.76949 566.3125,706.84375 C 556.58826,690.83198 534.32827,698.65872 542.625,714.0625 C 550.47592,732.99011 527.6224,709.53676 519.375,716.53125 C 521.67255,735.90953 513.74872,729.97777 499.03125,731.125 C 500.96127,749.89865 485.46265,731.0132 478.53125,742.5625 C 467.72426,749.47159 454.81034,757.89587 443.5,753.21875 C 425.69225,757.24503 413.49902,763.82643 395.40625,769.25 C 375.24007,763.46834 357.84681,770.90705 339.1875,769.03125 C 334.69368,773.92354 331.09737,774.39597 325.1875,771.625 C 316.75127,750.78068 302.37749,769.23145 288.84375,760.9375 C 272.29199,770.68319 264.77376,732.04682 247.78125,754.34375 C 245.74049,730.6227 227.7413,739.38674 215.8125,732.3125 C 220.67993,706.17167 190.45371,724.28389 184.125,706.0625 C 186.95349,680.24706 160.68551,704.49504 155.25,687.53125 C 152.58805,677.58346 164.96903,656.37305 141.875,662.71875 C 144.787,649.8627 164.61816,615.03602 132.75,628.0625 C 102.97225,638.72661 123.35032,603.0593 136.96875,598.09375 C 137.61609,600.03894 154.26522,590.92743 135.34375,594.90625 C 103.10444,605.73817 125.59506,571.77498 138.96875,568.0625 C 115.81202,566.82819 110.03322,565.35108 104.71875,558.25 C 96.580069,547.37528 143.58116,524.38739 161.6875,519.8125 C 140.32175,513.92944 122.52196,515.53298 126.375,501.59375 C 131.53362,482.9313 164.34458,484.61003 183.4375,477.9375 C 159.11327,463.93602 126.67565,471.90223 134.15625,458.21875 C 142.89983,442.22502 172.26395,437.00413 194.375,435.21875 C 206.20585,426.48415 210.20246,421.74918 237.71875,421.0625 C 235.61816,406.37453 189.40719,403.58366 206.59375,392.375 C 229.18826,388.81762 255.39216,393.9131 275.09375,400.65625 C 269.06797,390.6464 255.84465,378.15569 263.03125,365.75 C 264.12328,363.86491 267.11285,362.82743 270.65625,362.6875 z"
           transform="matrix(1.0286125,0,0,1.0286125,-10.384262,-16.129441)" />
        <path
           style="fill:#000000"
           d="M 325.63022,781.1026 C 306.40984,768.4434 282.66215,781.26096 264.61521,766.1327 C 253.13205,767.10956 239.84679,772.06465 223.25926,751.72309 C 207.26043,752.78205 189.22604,741.87191 189.74684,729.90245 C 175.22759,730.9677 165.42788,722.38491 161.88885,715.19753 C 137.35778,710.67025 158.9917,683.32985 136.80808,679.79534 C 120.68469,677.22641 125.32138,655.80598 134.96351,642.6199 C 118.03489,649.61255 109.37122,640.82904 105.15158,636.27154 C 99.895649,630.59478 107.01194,612.33657 111.84043,609.04297 C 95.236849,609.38404 93.591039,604.31245 93.112989,600.45921 C 92.434629,594.99134 109.71209,578.29311 113.84189,573.58996 C 107.31833,575.78017 89.906359,571.42052 87.250699,563.26444 C 81.954199,546.99779 93.861919,537.02632 119.66492,524.00516 C 92.745579,508.46306 108.66527,485.4407 126.28779,481.29435 C 98.919939,471.54445 110.52075,438.82396 131.47897,431.56617 C 147.27801,426.09499 173.32479,417.65972 190.21354,416.33957 C 159.76058,401.02431 177.6473,362.57186 201.76659,366.12603 C 214.86729,365.25113 242.62254,373.92178 248.80053,379.53267 C 231.22719,366.88695 236.12135,356.22185 241.79076,349.99504 C 256.79184,333.51909 302.33408,359.91186 314.3415,372.63694 C 306.91031,355.32526 318.62706,347.83915 325.38406,347.00825 C 342.57276,344.90998 349.97997,355.2315 352.07729,359.34405 C 356.68129,349.54455 384.22038,348.95238 392.42542,368.12031 C 400.36348,357.27223 427.64485,353.14537 448.26047,350.41282 C 464.4689,348.26443 512.51946,342.78337 501.3656,379.06914 C 515.7157,376.18755 544.37827,373.67507 549.73709,398.85838 C 574.47758,400.23732 611.73861,405.86393 573.58682,446.43985 C 589.03576,445.5363 620.59952,456.21927 622.98563,472.36883 C 625.52909,489.58335 611.55025,491.09203 607.51312,500.26807 C 618.36487,503.41766 636.36675,546.51057 609.36827,555.31331 C 653.39433,569.98001 647.72718,621.69764 605.16602,608.12157 C 629.78643,617.08774 652.35575,668.86527 599.53371,660.91391 C 615.05202,676.55639 617.46071,679.92237 613.67085,686.74804 C 609.69189,693.91429 592.74613,695.18208 585.0726,691.23632 C 594.41494,693.84876 579.83918,726.19852 559.69139,723.30539 C 550.06214,739.48755 541.59598,740.41203 528.84718,739.42359 C 525.9662,749.38068 496.84063,754.70923 473.20678,762.51225 C 456.88147,774.68897 432.74456,761.56895 414.13021,774.22137 C 390.28396,780.71228 365.23228,777.52025 341.13021,782.42922 C 335.96976,782.58442 330.46577,783.44475 325.63022,781.1026 z M 339.19659,769.0278 C 357.8559,770.90357 375.24989,763.46028 395.41607,769.24194 C 413.50885,763.81837 425.67881,757.25273 443.48656,753.22645 C 454.79691,757.90356 467.70936,749.46352 478.51635,742.55443 C 485.44776,731.00514 500.95157,749.90636 499.02155,731.13271 C 513.73902,729.98546 521.67439,735.91025 519.37684,716.53197 C 527.62423,709.53749 550.48983,732.99105 542.63891,714.06344 C 534.34219,698.65964 556.58864,690.83668 566.31288,706.84845 C 575.50617,691.77419 568.69777,683.29081 562.88047,669.47218 C 575.02912,683.51359 605.62828,690.87615 594.68229,667.80678 C 590.68579,659.96254 571.72425,647.99506 575.39598,635.38438 C 616.99396,678.57246 641.60561,632.46998 582.17351,596.15012 C 666.52006,609.446 618.24306,563.25435 555.07218,541.47319 C 567.87105,543.90756 617.26958,557.49604 612.35322,529.14766 C 607.47549,501.02199 583.50891,503.8866 549.44683,506.65579 C 557.47698,502.70931 609.83099,491.54396 603.57329,477.84238 C 591.82281,451.96745 548.2758,454.10438 525.60034,463.44291 C 542.35036,455.86351 582.73481,423.82605 554.90775,419.13607 C 533.92597,412.39852 502.09581,428.74335 483.06209,432.25903 C 512.25375,415.0632 530.59899,409.0545 531.81937,401.68858 C 533.66573,390.54441 523.65512,385.29611 472.92117,392.40472 C 482.0056,388.9129 492.07584,367.79582 455.48869,366.52764 C 438.83609,367.23136 411.44304,365.32725 390.78839,390.05304 C 386.28857,380.8088 378.95379,367.58432 368.55679,370.01088 C 356.31976,372.86689 356.96417,380.17989 354.6834,382.86309 C 347.08679,372.88801 318.35217,367.46735 326.54153,391.62123 C 305.52216,375.86114 294.86232,372.4371 281.52104,365.1 C 275.05067,361.54159 265.20429,361.99544 263.02024,365.76561 C 255.83363,378.17132 269.05254,390.65042 275.07832,400.66027 C 255.37672,393.91713 229.18283,388.8084 206.58832,392.36578 C 189.40176,403.57444 235.62894,406.36507 237.72953,421.05304 C 210.21323,421.73972 206.1925,426.47101 194.36165,435.20561 C 172.2506,436.99098 142.89212,442.23032 134.14854,458.22405 C 126.66794,471.90754 159.11284,463.92502 183.43707,477.9265 C 164.34415,484.59904 131.53256,482.941 126.37394,501.60345 C 122.5209,515.54268 140.32054,513.93926 161.68629,519.82232 C 143.57995,524.39722 96.590639,547.35966 104.72932,558.23438 C 110.04379,565.33545 115.80764,566.81873 138.96437,568.05304 C 125.59068,571.76552 103.10516,605.7369 135.34447,594.90498 C 154.26594,590.92615 137.60837,600.05125 136.96103,598.10606 C 123.3426,603.07163 102.98103,638.71715 132.75878,628.05304 C 164.62693,615.02656 144.79101,649.85076 141.87901,662.70681 C 164.97304,656.36109 152.57991,677.56872 155.24186,687.51651 C 160.67738,704.48027 186.94617,680.2376 184.11768,706.05304 C 190.44639,724.27443 220.67627,706.16972 215.80884,732.31055 C 227.73764,739.38479 245.73619,730.63032 247.77695,754.35137 C 264.76946,732.05445 272.28497,770.67421 288.83673,760.92852 C 302.37047,769.22248 316.75162,750.79592 325.18785,771.64024 C 331.09771,774.41123 334.70277,773.92009 339.19659,769.0278 z"
           id="path2161"
           sodipodi:nodetypes="cccccscscsczccscccscsccscccsccccsccccccccccccccccccccscccccscccsccssccccscscscccccccccccc"
           inkscape:export-filename="/home/sheryl/Piers/furball frames/furball.v2.41.f0.png"
           inkscape:export-xdpi="10.56"
           inkscape:export-ydpi="10.56" />
      </g>
      <g
         id="g17499"
         style="filter:url(#filter3344)">
        <path
           transform="matrix(1.1113653,0,0,0.8196033,-46.29676,324.01606)"
           d="M 282.75292,263.27377 A 60.160194,96.256317 0 1 1 162.43253,263.27377 A 60.160194,96.256317 0 1 1 282.75292,263.27377 z"
           sodipodi:ry="96.256317"
           sodipodi:rx="60.160194"
           sodipodi:cy="263.27377"
           sodipodi:cx="222.59273"
           id="path3157"
           style="fill:#ffffff;fill-opacity:1;fill-rule:nonzero;stroke:#000000;stroke-width:12.573349;stroke-linecap:round;stroke-miterlimit:4;stroke-dasharray:none;stroke-opacity:1"
           sodipodi:type="arc"
           inkscape:export-filename="/home/sheryl/Piers/furball frames/furball.v2.41.f0.png"
           inkscape:export-xdpi="10.56"
           inkscape:export-ydpi="10.56" />
        <path
           transform="matrix(1.1303155,0,0,0.8932462,-59.484588,311.732)"
           d="M 240.64078,254.75108 A 30.080097,51.637501 0 1 1 180.48059,254.75108 A 30.080097,51.637501 0 1 1 240.64078,254.75108 z"
           sodipodi:ry="51.637501"
           sodipodi:rx="30.080097"
           sodipodi:cy="254.75108"
           sodipodi:cx="210.56068"
           id="path17257"
           style="fill:#000000;fill-opacity:1;fill-rule:nonzero;stroke:none;stroke-width:8;stroke-linecap:round;stroke-miterlimit:4;stroke-dasharray:none;stroke-opacity:1;filter:url(#filter3352)"
           sodipodi:type="arc"
           inkscape:export-filename="/home/sheryl/Piers/furball frames/furball.v2.41.f0.png"
           inkscape:export-xdpi="10.56"
           inkscape:export-ydpi="10.56" />
        <path
           transform="matrix(1.2981244,0,0,1.1306248,-93.30264,260.92145)"
           d="M 220.58738,229.183 A 10.026699,14.037379 0 1 1 200.53399,229.183 A 10.026699,14.037379 0 1 1 220.58738,229.183 z"
           sodipodi:ry="14.037379"
           sodipodi:rx="10.026699"
           sodipodi:cy="229.183"
           sodipodi:cx="210.56068"
           id="path3259"
           style="fill:#ffffff;fill-opacity:1;fill-rule:nonzero;stroke:none;stroke-width:7.99980927;stroke-linecap:round;stroke-miterlimit:4;stroke-dasharray:none;stroke-opacity:1;filter:url(#filter17728)"
           sodipodi:type="arc"
           inkscape:export-filename="/home/sheryl/Piers/furball frames/furball.v2.41.f0.png"
           inkscape:export-xdpi="10.56"
           inkscape:export-ydpi="10.56" />
      </g>
      <g
         id="g17494"
         style="filter:url(#filter3340)">
        <path
           sodipodi:type="arc"
           style="fill:#ffffff;fill-opacity:1;fill-rule:nonzero;stroke:#000000;stroke-width:12.573349;stroke-linecap:round;stroke-miterlimit:4;stroke-dasharray:none;stroke-opacity:1"
           id="path2170"
           sodipodi:cx="222.59273"
           sodipodi:cy="263.27377"
           sodipodi:rx="60.160194"
           sodipodi:ry="96.256317"
           d="M 282.75292,263.27377 A 60.160194,96.256317 0 1 1 162.43253,263.27377 A 60.160194,96.256317 0 1 1 282.75292,263.27377 z"
           transform="matrix(1.1113653,0,0,0.8196033,36.924839,326.0214)"
           inkscape:export-filename="/home/sheryl/Piers/furball frames/furball.v2.41.f0.png"
           inkscape:export-xdpi="10.56"
           inkscape:export-ydpi="10.56" />
        <path
           inkscape:export-ydpi="10.56"
           inkscape:export-xdpi="10.56"
           inkscape:export-filename="/home/sheryl/Piers/furball frames/furball.v2.41.f0.png"
           sodipodi:type="arc"
           style="fill:#000000;fill-opacity:1;fill-rule:nonzero;stroke:none;stroke-width:8;stroke-linecap:round;stroke-miterlimit:4;stroke-dasharray:none;stroke-opacity:1;filter:url(#filter3348)"
           id="path17255"
           sodipodi:cx="210.56068"
           sodipodi:cy="254.75108"
           sodipodi:rx="30.080097"
           sodipodi:ry="51.637501"
           d="M 240.64078,254.75108 A 30.080097,51.637501 0 1 1 180.48059,254.75108 A 30.080097,51.637501 0 1 1 240.64078,254.75108 z"
           transform="matrix(1.1303155,0,0,0.8932462,24.015412,313.732)" />
        <path
           sodipodi:type="arc"
           style="fill:#ffffff;fill-opacity:1;fill-rule:nonzero;stroke:none;stroke-width:7.99980927;stroke-linecap:round;stroke-miterlimit:4;stroke-dasharray:none;stroke-opacity:1;filter:url(#filter17752)"
           id="path3145"
           sodipodi:cx="210.56068"
           sodipodi:cy="229.183"
           sodipodi:rx="10.026699"
           sodipodi:ry="14.037379"
           d="M 220.58738,229.183 A 10.026699,14.037379 0 1 1 200.53399,229.183 A 10.026699,14.037379 0 1 1 220.58738,229.183 z"
           transform="matrix(1.4621455,0,0,1.2734819,-49.194447,226.17569)"
           inkscape:export-filename="/home/sheryl/Piers/furball frames/furball.v2.41.f0.png"
           inkscape:export-xdpi="10.56"
           inkscape:export-ydpi="10.56" />
      </g>
      <g
         id="g17517"
         style="filter:url(#filter3368)">
        <path
           id="path2210"
           d="M 379.875,647.84375 C 378.40702,648.08676 377.28358,649.3073 376.78125,650.65625 C 376.19382,652.47535 376.27858,654.40952 375.92641,656.27159 C 375.61719,657.72828 374.42235,658.76275 373.3125,659.65625 C 370.6172,661.34099 367.45084,661.97158 364.37536,662.5739 C 358.74745,663.70225 353.0119,664.11969 347.29662,664.53759 C 340.24881,665.01801 333.19601,665.42468 326.14467,665.84881 C 318.92938,666.19682 311.71967,666.64994 304.50507,667.01175 C 296.8024,667.51489 289.09671,667.98546 281.40259,668.60775 C 276.07594,669.06666 270.74976,669.54791 265.43693,670.1459 C 262.88369,670.46057 260.33018,670.77154 257.79456,671.20968 C 252.76273,671.91593 247.75774,672.81493 242.7035,673.35571 C 240.1594,673.65569 237.59779,673.84551 235.036,673.87054 C 232.15255,673.87122 229.30188,673.39878 226.45556,672.99651 C 225.43904,672.64541 224.49544,673.77351 224.7488,674.74282 C 225.34862,675.83774 226.11597,676.8437 226.73522,677.93301 C 228.01782,680.13256 229.43233,682.26423 231.11752,684.17871 C 231.81097,684.82732 232.15673,685.89435 233.1561,686.1562 C 234.09233,686.32532 234.50481,685.21004 235.125,684.71875 C 235.73029,684.08935 236.59747,683.93045 237.42364,683.81798 C 239.52948,683.53491 241.66776,683.55661 243.78125,683.75 C 245.24862,683.93746 246.76635,684.18654 247.99493,685.0741 C 249.82696,686.31366 250.6629,688.44687 251.66351,690.32702 C 252.86794,692.67189 254.20332,694.97273 255.86154,697.02878 C 259.76441,701.79157 264.51663,705.8463 269.7857,709.026 C 271.68195,710.21223 273.82893,710.89166 275.984,711.43249 C 277.83501,711.954 279.6196,712.71703 281.49419,713.14519 C 283.52239,713.4219 285.71136,713.16323 287.43721,711.9961 C 288.61805,711.23607 289.05869,709.818 289.64286,708.614 C 290.45882,706.5709 291.27194,704.48388 291.43343,702.2672 C 291.60441,700.02686 291.72105,697.78179 291.89528,695.5412 C 292.24244,691.15256 291.51679,686.73197 292.12604,682.3587 C 292.45717,680.63188 293.70587,679.17445 295.29066,678.45166 C 296.6248,677.75806 298.11097,677.43993 299.5891,677.22473 C 302.11027,676.83345 304.66304,676.70439 307.20387,676.50165 C 312.07832,676.20617 316.96274,676.15345 321.84161,675.96298 C 324.65483,675.88157 327.46804,675.80016 330.28125,675.71875 C 331.25698,679.44018 332.343,683.17528 332.52277,687.04173 C 332.70751,690.67578 332.22601,694.29939 331.79254,697.89972 C 331.33391,701.47039 330.80617,705.03353 330.39119,708.60896 C 330.18104,711.25137 329.85514,713.91333 330.125,716.5625 C 330.27645,717.97683 331.08566,719.35928 332.41241,719.9605 C 334.44621,720.9905 336.78449,721.145 339.02638,721.08581 C 341.49594,720.97166 343.94505,720.43946 346.26348,719.58836 C 348.20051,718.88888 350.02778,717.89742 351.64147,716.61586 C 353.9844,714.8339 355.8998,712.57877 357.89355,710.43204 C 361.26536,706.61627 364.41539,702.60217 367.26006,698.37739 C 370.0722,694.22161 372.77853,689.98241 375.12526,685.54458 C 376.36213,682.94004 377.53093,680.27715 379.23332,677.93325 C 379.81941,676.91414 381.40551,676.69281 382.19176,677.59801 C 383.45203,678.77372 384.42117,680.22102 385.4139,681.62085 C 386.98164,683.94859 388.3542,686.41027 389.55367,688.94644 C 390.82302,691.55185 391.86395,694.26972 392.58874,697.07775 C 393.05965,698.78162 393.61045,700.48321 394.41733,702.05601 C 395.01131,702.9843 396.28767,703.53828 397.33716,703.09032 C 398.42665,702.79598 399.39511,702.18345 400.33025,701.5733 C 401.00307,701.14434 401.55265,700.31826 401.19219,699.51407 C 400.70429,698.58938 399.61946,698.2112 399.01848,697.37328 C 398.30467,696.47041 398.24154,695.26555 397.93661,694.19504 C 397.4927,691.82542 397.58668,689.40369 397.5371,687.00479 C 397.71109,681.52521 397.91363,676.04531 397.9375,670.5625 C 397.82648,669.20911 397.71851,667.69176 396.6875,666.6875 C 395.43113,665.55597 393.70035,665.2641 392.17103,664.6593 C 391.15995,664.29025 390.06116,663.70901 389.71563,662.61063 C 389.22098,661.34379 389.6461,659.98594 389.75,658.6875 C 389.99499,657.14777 390.32104,655.59807 390.21875,654.03125 C 389.98229,652.53823 388.88831,651.32395 387.65871,650.52497 C 386.09873,649.49891 384.38259,648.70616 382.60436,648.14136 C 381.72218,647.8908 380.79083,647.76805 379.875,647.84375 z"
           style="fill:#000000;fill-opacity:1" />
        <path
           id="path2208"
           d="M 347.07132,712.96639 C 352.81586,710.78231 366.81894,691.30012 368.90425,682.59067 C 370.27899,676.84896 370.15536,676.76761 360.01154,676.73911 C 354.35376,676.72321 347.5809,676.13568 344.96071,675.43349 C 340.50242,674.23872 340.19348,674.81802 340.1462,684.46105 C 340.11842,690.12839 339.22411,698.52389 338.15884,703.11773 C 335.42172,714.92117 337.0877,716.76215 347.07132,712.96639 z"
           style="fill:#fbfbf7;fill-opacity:1" />
        <path
           id="path2206"
           d="M 285.11379,689.72428 L 285.14621,678.33128 L 277.20623,679.64366 C 272.83925,680.36548 266.64606,680.96655 263.44361,680.97936 C 259.82988,680.99382 257.62096,682.14592 257.62096,684.0162 C 257.62096,688.72069 268.37071,700.33162 275.50259,703.33035 C 283.69165,706.77359 285.07083,704.82116 285.11379,689.72428 z"
           style="fill:#fbfbf7;fill-opacity:1" />
      </g>
      <g
         id="g17485"
         transform="translate(0,9.954305)"
         style="filter:url(#filter3364)">
        <path
           style="fill:#aa4400;fill-rule:nonzero;stroke:#000000;stroke-width:8;stroke-linecap:butt;stroke-linejoin:miter;stroke-miterlimit:4;stroke-dasharray:none;stroke-opacity:1"
           d="M 243.13485,480.21753 C 240.5202,473.30829 223.70015,445.17444 213.62041,451.04299 C 208.76832,453.86794 209.05518,456.28875 217.48234,472.13451 C 207.30178,453.39374 197.5845,436.14292 187.93079,441.45404 C 178.80014,446.4774 188.58256,461.69166 188.87059,462.85713 C 181.69132,449.12711 169.0825,432.44181 159.84104,437.53226 C 150.40299,442.73099 157.14814,454.36654 158.89214,458.10277 C 152.29424,448.18362 137.04141,432.23749 126.77409,442.9714 C 115.62358,454.62863 136.59945,510.2247 215.35941,508.8977 C 223.02519,509.68493 234.98469,502.56548 242.30856,500.07912 C 252.44907,493.8783 249.02848,488.99168 242.98698,479.95118"
           id="path3563"
           sodipodi:nodetypes="cscscscsccs" />
        <path
           sodipodi:type="inkscape:offset"
           inkscape:radius="-9.2511473"
           inkscape:original="M 163.4375 436.59375 C 162.19427 436.59787 160.99893 436.89494 159.84375 437.53125 C 150.40571 442.72998 157.16225 454.35752 158.90625 458.09375 C 152.30835 448.17459 137.04857 432.23484 126.78125 442.96875 C 115.63074 454.62597 136.61504 510.23325 215.375 508.90625 C 223.04078 509.69347 234.98863 502.58011 242.3125 500.09375 C 252.45301 493.89292 249.0415 488.978 243 479.9375 C 240.17673 472.74284 223.62193 445.21091 213.625 451.03125 C 208.77291 453.85619 209.04159 456.27924 217.46875 472.125 C 207.28818 453.38422 197.59121 436.15763 187.9375 441.46875 C 178.80685 446.49211 188.58697 461.67828 188.875 462.84375 C 182.59314 450.82999 172.14012 436.56493 163.4375 436.59375 z "
           style="fill:url(#linearGradient17786);fill-opacity:1;fill-rule:nonzero;stroke:none;stroke-width:8;stroke-linecap:butt;stroke-linejoin:miter;stroke-miterlimit:4;stroke-dasharray:none;stroke-opacity:1;filter:url(#filter3412)"
           id="path17284"
           d="M 164.25,446.40625 C 164.26234,446.58069 164.23635,446.47037 164.28125,446.71875 C 164.63085,448.6527 166.02829,451.50324 167.28125,454.1875 C 169.23645,458.55319 167.5414,463.68948 163.37177,466.03388 C 159.20214,468.37828 153.9329,467.15771 151.21875,463.21875 C 148.47571,459.09491 143.32389,453.26349 139.15625,450.53125 C 137.07243,449.16513 135.38129,448.68444 134.78125,448.65625 C 134.18121,448.62806 134.45381,448.34517 133.46875,449.375 C 134.22245,448.58705 132.63604,451.15651 133.84375,456.21875 C 135.05146,461.28099 138.32241,468.08474 144.21875,474.625 C 156.01142,487.70552 178.02889,500.28285 215.21875,499.65625 C 215.58425,499.65546 215.94947,499.67633 216.3125,499.71875 C 216.84271,499.7732 221.03714,498.97126 225.46875,497.15625 C 229.41059,495.54183 233.56737,493.54483 237.78125,491.96875 C 238.54641,491.45943 238.65875,491.34877 238.9375,491.09375 C 238.67049,490.79937 237.9191,488.96301 235.3125,485.0625 C 234.93814,484.51448 234.62383,483.92777 234.375,483.3125 C 233.85606,481.99006 230.41762,475.64952 226.4375,470 C 227.4186,474.47287 224.98011,478.99055 220.70251,480.62495 C 216.42491,482.25936 211.59522,480.51873 209.34375,476.53125 C 204.27402,467.1987 199.31056,458.46698 195.34375,453.625 C 194.99614,453.2007 194.73352,453.01137 194.40625,452.65625 C 194.80234,453.68805 195.17924,454.74468 195.625,455.65625 C 195.9705,456.3628 196.29959,456.99299 196.59375,457.5625 C 196.74083,457.84725 196.8966,458.09397 197.0625,458.4375 C 197.2284,458.78103 197.37503,458.72839 197.84375,460.625 C 198.90897,465.14483 196.45879,469.75405 192.11635,471.39928 C 187.77391,473.0445 182.88466,471.21597 180.6875,467.125 C 177.82621,461.65292 173.87105,455.57248 170.125,451.34375 C 167.27153,448.1226 165.10238,446.93891 164.25,446.40625 z" />
      </g>
      <g
         id="g17481"
         transform="translate(0,0.3436298)"
         style="filter:url(#filter3356)">
        <path
           sodipodi:nodetypes="cscscscsccs"
           id="path3488"
           d="M 232.22806,477.89573 C 236.36086,471.63565 260.27139,447.33192 270.87223,455.01381 C 275.97516,458.71164 275.249,461.02598 262.98231,474.91566 C 277.73536,458.52943 291.71252,443.51249 301.91607,450.56687 C 311.56675,457.23903 297.84889,470.25007 297.32729,471.33545 C 307.81538,459.27675 325.01696,445.36923 334.78376,452.12836 C 344.75832,459.03127 335.11181,469.12338 332.49826,472.44511 C 341.69433,464.0047 364.07294,450.25192 371.82586,463.80911 C 377.26371,473.31802 331.75053,524.24708 256.6662,512.93994 C 247.74293,512.23678 236.80535,511.59391 228.81126,507.75229 C 218.19521,499.73349 224.02774,485.35081 232.44138,477.66346"
           style="fill:#aa4400;fill-rule:nonzero;stroke:#000000;stroke-width:8;stroke-linecap:butt;stroke-linejoin:miter;stroke-miterlimit:4;stroke-dasharray:none;stroke-opacity:1" />
        <path
           sodipodi:type="inkscape:offset"
           inkscape:radius="0.66026539"
           inkscape:original="M 293.3125 460.125 C 291.92528 460.8422 290.19362 461.8843 288.0625 463.65625 C 283.01301 467.85472 276.86169 474.48966 270.4375 481.625 C 267.01746 485.38666 261.32987 486.00995 257.1875 483.0625 C 253.04514 480.11505 251.75462 474.52656 254.1875 470.0625 C 247.68187 475.22061 241.02546 482.78357 240.59375 483.4375 C 240.15674 484.10005 239.64274 484.70846 239.0625 485.25 C 236.32298 487.80925 233.88931 491.97458 233.3125 494.78125 C 232.82889 497.13442 232.98258 497.88778 234.28125 499.0625 C 239.66741 501.23803 248.89485 502.26433 257.4375 502.9375 C 257.67775 502.94972 257.91749 502.97057 258.15625 503 C 293.20777 508.2785 320.85038 499.03603 339.125 487.65625 C 348.26231 481.96636 355.00523 475.66834 358.78125 470.875 C 359.69797 469.7113 359.85454 469.1904 360.40625 468.28125 C 359.25916 468.413 357.86094 468.68296 356.125 469.3125 C 350.35218 471.40601 342.89181 476.52988 339.28125 479.84375 C 335.43066 483.43362 329.45324 483.4553 325.59375 479.875 C 321.73426 476.2947 321.30257 470.32756 324.59375 466.21875 C 326.39511 463.92929 328.0412 461.77837 328.71875 460.40625 C 328.69756 460.38301 328.89603 460.31439 328 460.46875 C 326.67529 460.69696 324.24509 461.63665 321.53125 463.28125 C 316.10357 466.57045 309.58929 472.51723 304.875 477.9375 C 301.57185 481.71634 295.97421 482.47728 291.78125 479.71875 C 287.58829 476.96021 286.08735 471.52917 288.25 467 C 289.29515 464.82518 289.48509 465.01473 289.75 464.6875 C 290.01491 464.36027 290.22031 464.12786 290.4375 463.875 C 290.87189 463.36928 291.34493 462.82846 291.84375 462.21875 C 292.37218 461.57285 292.80713 460.84839 293.3125 460.125 z "
           style="fill:url(#linearGradient17788);fill-opacity:1;fill-rule:nonzero;stroke:none;stroke-width:8.21860409;stroke-linecap:butt;stroke-linejoin:miter;stroke-miterlimit:4;stroke-dasharray:none;stroke-opacity:1;filter:url(#filter3408)"
           id="path17161"
           d="M 293.15625,459.46875 C 293.10171,459.48283 293.0492,459.50384 293,459.53125 C 291.58012,460.26533 289.79347,461.35325 287.625,463.15625 C 282.51526,467.40482 276.36574,474.04766 269.9375,481.1875 C 266.73815,484.70643 261.43643,485.28769 257.5625,482.53125 C 253.68859,479.77481 252.50612,474.5496 254.78125,470.375 C 254.95779,470.09619 254.9014,469.72986 254.64919,469.51705 C 254.39697,469.30424 254.02637,469.31031 253.78125,469.53125 C 250.49124,472.1398 247.16924,475.33809 244.625,477.96875 C 243.35288,479.28408 242.2927,480.4551 241.5,481.34375 C 241.10365,481.78807 240.77262,482.18298 240.53125,482.46875 C 240.28988,482.75452 240.13892,482.89941 240.03125,483.0625 C 239.62297,483.6815 239.16709,484.27531 238.625,484.78125 C 235.76687,487.4513 233.28085,491.61704 232.65625,494.65625 C 232.40887,495.85995 232.29138,496.70443 232.46875,497.5 C 232.64612,498.29557 233.15195,498.93673 233.84375,499.5625 C 233.89863,499.6146 233.96205,499.65688 234.03125,499.6875 C 239.59336,501.9341 248.81708,502.91938 257.375,503.59375 C 257.38542,503.594 257.39583,503.594 257.40625,503.59375 C 257.6307,503.60517 257.83942,503.62875 258.0625,503.65625 C 293.27679,508.95926 321.07669,499.67166 339.46875,488.21875 C 348.66792,482.49034 355.47401,476.15389 359.3125,471.28125 C 360.26587,470.07102 360.44633,469.48589 360.96875,468.625 C 361.09804,468.41183 361.09625,468.14401 360.96411,467.93259 C 360.83197,467.72117 360.59202,467.6022 360.34375,467.625 C 359.15551,467.76148 357.69214,468.03985 355.90625,468.6875 C 349.98023,470.83657 342.53833,475.95277 338.84375,479.34375 C 338.8435,479.35417 338.8435,479.36458 338.84375,479.375 C 335.24147,482.73337 329.64057,482.75448 326.03125,479.40625 C 322.42193,476.05802 322.01519,470.46837 325.09375,466.625 C 325.10417,466.62525 325.11458,466.62525 325.125,466.625 C 326.92976,464.33122 328.56826,462.19467 329.3125,460.6875 C 329.31275,460.67708 329.31275,460.66667 329.3125,460.65625 C 329.31682,460.64629 329.33787,460.64155 329.34375,460.625 C 329.344,460.61458 329.344,460.60417 329.34375,460.59375 C 329.34578,460.58668 329.34158,460.57409 329.34375,460.5625 C 329.35299,460.53557 329.36254,460.5871 329.375,460.53125 C 329.37673,460.52349 329.37358,460.51173 329.375,460.5 C 329.38118,460.4481 329.38118,460.39565 329.375,460.34375 C 329.37499,460.34365 329.37658,460.31868 329.375,460.3125 C 329.36868,460.26991 329.35822,460.22805 329.34375,460.1875 C 329.33569,460.15551 329.32524,460.12418 329.3125,460.09375 C 329.31244,460.09362 329.28816,460.0717 329.28125,460.0625 C 329.27118,460.05174 329.26076,460.04132 329.25,460.03125 C 329.24352,460.02264 329.25719,460.00956 329.25,460 C 329.23993,459.98924 329.22951,459.97882 329.21875,459.96875 C 329.18686,459.92644 329.15658,459.8753 329.15625,459.875 C 329.15545,459.87429 329.04674,459.80339 329,459.78125 C 328.81305,459.6927 328.74349,459.71941 328.6875,459.71875 C 328.46354,459.71612 328.33111,459.73393 327.875,459.8125 C 326.38459,460.06926 323.95542,461.04138 321.1875,462.71875 C 315.65841,466.0694 309.13001,472.03291 304.375,477.5 C 301.2862,481.03362 296.07722,481.73584 292.15625,479.15625 C 288.23528,476.57665 286.82072,471.51802 288.84375,467.28125 C 289.35632,466.21466 289.65584,465.7593 289.8125,465.5625 C 289.96916,465.3657 290.02976,465.3658 290.25,465.09375 C 290.50609,464.77742 290.71654,464.56975 290.9375,464.3125 C 291.36912,463.81001 291.83656,463.24495 292.34375,462.625 C 292.91296,461.92925 293.35505,461.19953 293.84375,460.5 C 294.00683,460.27641 294.01319,459.97485 293.85968,459.74459 C 293.70617,459.51432 293.42536,459.40421 293.15625,459.46875 z" />
      </g>
    </g>
  </g>
  <g
     inkscape:groupmode="layer"
     id="layer7"
     inkscape:label="foot above"
     style="display:inline"
     transform="translate(-86.015417,-344.74042)">
    <g
       id="g17596"
       transform="matrix(0.8939512,1.6770728e-2,-1.6770728e-2,0.8939512,-109.28932,133.60265)"
       inkscape:transform-center-x="-89.669583"
       inkscape:transform-center-y="-42.917521">
      <path
         style="fill:url(#radialGradient2535);fill-opacity:1;fill-rule:evenodd;stroke:#000000;stroke-width:7.76301384;stroke-linecap:butt;stroke-linejoin:miter;stroke-miterlimit:4;stroke-dasharray:none;stroke-opacity:1"
         d="M 382.80405,782.54922 C 382.45707,762.80217 400.3864,705.32307 480.84914,705.32307 C 561.31189,705.32307 574.93543,734.99437 574.77641,775.75866 C 574.66876,803.35537 383.15104,803.00744 382.80405,782.54922 z"
         id="path2512"
         sodipodi:nodetypes="cssz" />
      <path
         sodipodi:type="inkscape:offset"
         inkscape:radius="0"
         inkscape:original="M 480.84375 705.3125 C 400.38101 705.3125 382.46552 762.81548 382.8125 782.5625 C 383.15949 803.02072 574.67358 803.3467 574.78125 775.75 C 574.94027 734.98571 561.30649 705.31251 480.84375 705.3125 z "
         xlink:href="#path2512"
         style="fill:url(#radialGradient2537);fill-opacity:1;fill-rule:evenodd;stroke:none;stroke-width:7.76301384;stroke-linecap:butt;stroke-linejoin:miter;stroke-miterlimit:4;stroke-dasharray:none;stroke-opacity:1;filter:url(#filter3386)"
         id="path3374"
         inkscape:href="#path2512"
         d="M 480.84375,705.3125 C 400.38101,705.3125 382.46552,762.81548 382.8125,782.5625 C 383.15949,803.02072 574.67358,803.3467 574.78125,775.75 C 574.94027,734.98571 561.30649,705.31251 480.84375,705.3125 z"
         transform="matrix(0.8039685,0,0,0.8039685,94.537041,147.69216)" />
    </g>
  </g>
  <g
     inkscape:groupmode="layer"
     id="layer6"
     inkscape:label="hat"
     style="display:none"
     transform="translate(-86.015417,-344.74042)">
    <g
       inkscape:export-ydpi="79.918785"
       inkscape:export-xdpi="79.918785"
       inkscape:export-filename="/home/piers/documents/maryo/pngs/furball.v2.4-f0.128px.png"
       style="fill:url(#radialGradient2246);fill-opacity:1;fill-rule:evenodd;stroke:#000000;stroke-width:3;stroke-miterlimit:4;stroke-dasharray:none;stroke-opacity:1;display:inline"
       id="g3758"
       transform="matrix(-4.1093027,0,0,4.1093027,2223.8735,-2134.6385)">
      <path
         style="fill:url(#radialGradient2248);fill-opacity:1;fill-rule:evenodd;stroke:#000000;stroke-width:3;stroke-linecap:butt;stroke-linejoin:miter;stroke-miterlimit:4;stroke-dasharray:none;stroke-opacity:1"
         d="M 391.43411,693.75804 C 404.03538,674.4187 417.94824,662.89057 437.51107,651.27283 C 446.07552,644.04546 488.91055,638.25271 480.9551,629.9216 C 458.84984,616.97432 417.4296,611.31287 403.05484,621.74336 C 389.15718,631.82766 381.93338,667.13266 391.43411,693.75804 z"
         id="path3565"
         sodipodi:nodetypes="cccsc" />
      <path
         sodipodi:nodetypes="cccsssccsssc"
         style="fill:#ff0000;fill-opacity:1;fill-rule:evenodd;stroke:none;stroke-width:3;stroke-linecap:butt;stroke-linejoin:miter;stroke-miterlimit:4;stroke-dasharray:none;stroke-opacity:1"
         d="M 378.57143,660.57647 C 379.25794,659.15701 385.36293,654.67927 387.5,653.07646 C 397.07387,636.40778 418.05097,623.01836 442.32143,617.00503 C 444.45813,616.15036 459.1947,607.69657 462.14286,608.43361 C 465.988,609.3949 467.90003,611.53077 471.07143,613.43361 C 473.62151,614.96366 474.00179,614.11128 471.78572,615.21932 C 469.87996,616.1722 465.47186,621.92957 463.03571,621.6479 C 427.44775,635.12569 410.73016,646.3913 386.78571,673.43361 C 384.68403,675.53529 383.4597,677.35669 381.07143,679.1479 C 378.89091,680.78328 378.59424,683.16769 377.85714,680.21932 C 377.00114,676.79529 376.07071,673.42999 375.35714,669.86218 C 374.59028,666.02785 376.07143,661.90139 376.07143,658.07647"
         id="path3725"
         clip-path="url(#clipPath3754)" />
    </g>
    <path
       inkscape:export-ydpi="79.918785"
       inkscape:export-xdpi="79.918785"
       inkscape:export-filename="/home/piers/documents/maryo/pngs/furball.v2.4-f0.128px.png"
       sodipodi:nodetypes="cssszss"
       id="path3723"
       d="M 599.53411,640.14152 C 537.78682,577.72701 447.23937,506.3065 316.32426,450.12362 C 278.03328,433.69085 261.33932,428.95615 237.60917,458.85984 C 233.75246,463.71991 246.13589,475.48562 280.47811,486.83741 C 367.02192,515.44436 513.05412,632.42228 557.23792,666.41094 C 615.49805,711.2279 615.34917,732.38978 625.72981,707.92118 C 640.25837,673.67524 629.1674,670.09501 599.53411,640.14152 z"
       style="fill:#decd87;fill-opacity:1;fill-rule:evenodd;stroke:#000000;stroke-width:12.32790852;stroke-linecap:butt;stroke-linejoin:miter;stroke-miterlimit:4;stroke-dasharray:none;stroke-opacity:1" />
    <path
       id="path3780"
       d="M 312.57069,426.31564 C 392.04448,399.53686 437.17581,397.50884 514.67747,402.76208"
       style="fill:none;fill-rule:evenodd;stroke:#000000;stroke-width:9;stroke-linecap:butt;stroke-linejoin:miter;stroke-miterlimit:4;stroke-dasharray:none;stroke-opacity:1"
       inkscape:transform-center-x="95.188401"
       inkscape:transform-center-y="9.0354206"
       sodipodi:nodetypes="cc"
       inkscape:export-filename="/home/sheryl/Piers/furball frames/furball.v2.41.f0.png"
       inkscape:export-xdpi="10.56"
       inkscape:export-ydpi="10.56" />
    <path
       style="fill:none;fill-rule:evenodd;stroke:#000000;stroke-width:9;stroke-linecap:butt;stroke-linejoin:miter;stroke-miterlimit:4;stroke-dasharray:none;stroke-opacity:1;display:inline"
       d="M 598.8607,457.72233 C 629.89317,535.63364 635.1753,571.28798 629.89317,656.46221"
       id="path2809"
       inkscape:export-filename="/home/sheryl/Piers/furball frames/furball.v2.41.f0.png"
       inkscape:export-xdpi="10.56"
       inkscape:export-ydpi="10.56" />
    <path
       inkscape:export-ydpi="10.56"
       inkscape:export-xdpi="10.56"
       inkscape:export-filename="/home/sheryl/Piers/furball frames/furball.v2.41.f0.png"
       sodipodi:nodetypes="ccccccccc"
       id="path4008"
       d="M 524.30718,412.70722 C 493.06046,425.04358 510.48428,460.53938 541.95395,437.55475 C 512.77392,467.61144 560.28319,496.50982 573.26485,457.9107 C 580.76252,485.70047 622.53913,471.79043 602.75934,444.97576 C 631.64635,469.30453 652.0369,421.56766 616.36714,413.3984 C 646.53586,407.48878 631.89995,373.76332 605.36,382.0658 C 622.01648,353.02679 580.55878,334.89716 568.15851,365.97582 C 561.67062,333.70627 523.597,353.72521 538.5762,378.63324 C 507.83369,360.72128 494.71631,407.10867 524.30718,412.70722 z"
       style="fill:#decd87;fill-opacity:1;fill-rule:evenodd;stroke:#000000;stroke-width:8.98012829;stroke-miterlimit:4;stroke-dasharray:none;stroke-opacity:1" />
  </g>
</svg>
