<?xml version="1.0" encoding="UTF-8" standalone="no"?>
<!-- Created with Inkscape (http://www.inkscape.org/) -->
<svg
   xmlns:dc="http://purl.org/dc/elements/1.1/"
   xmlns:cc="http://creativecommons.org/ns#"
   xmlns:rdf="http://www.w3.org/1999/02/22-rdf-syntax-ns#"
   xmlns:svg="http://www.w3.org/2000/svg"
   xmlns="http://www.w3.org/2000/svg"
   xmlns:xlink="http://www.w3.org/1999/xlink"
   xmlns:sodipodi="http://sodipodi.sourceforge.net/DTD/sodipodi-0.dtd"
   xmlns:inkscape="http://www.inkscape.org/namespaces/inkscape"
   width="512"
   height="512"
   id="svg2"
   sodipodi:version="0.32"
   inkscape:version="0.46"
   version="1.0"
   sodipodi:docname="1.svg"
   inkscape:output_extension="org.inkscape.output.svg.inkscape"
   inkscape:export-filename="D:\Dateien\Desktop\Secret Maryo Chronicles\SMC\data\pixmaps\enemy\eato\brown\1.png"
   inkscape:export-xdpi="45"
   inkscape:export-ydpi="45">
  <defs
     id="defs4">
    <inkscape:perspective
       sodipodi:type="inkscape:persp3d"
       inkscape:vp_x="-50 : 600 : 1"
       inkscape:vp_y="0 : 1000 : 0"
       inkscape:vp_z="700 : 600 : 1"
       inkscape:persp3d-origin="300 : 400 : 1"
       id="perspective103" />
    <linearGradient
       id="linearGradient3986">
      <stop
         style="stop-color:#6f6f6f;stop-opacity:1;"
         offset="0"
         id="stop3988" />
      <stop
         style="stop-color:#fbf0f0;stop-opacity:1;"
         offset="1"
         id="stop3990" />
    </linearGradient>
    <linearGradient
       id="linearGradient3781">
      <stop
         style="stop-color:#625c1f;stop-opacity:1;"
         offset="0"
         id="stop3783" />
      <stop
         style="stop-color:#d6f222;stop-opacity:1;"
         offset="1"
         id="stop3785" />
    </linearGradient>
    <linearGradient
       id="linearGradient3773">
      <stop
         style="stop-color:#87ef45;stop-opacity:0.05309734;"
         offset="0"
         id="stop3775" />
      <stop
         style="stop-color:#87ef45;stop-opacity:0;"
         offset="1"
         id="stop3777" />
    </linearGradient>
    <linearGradient
       id="linearGradient3383">
      <stop
         style="stop-color:#c29613;stop-opacity:1;"
         offset="0"
         id="stop3385" />
      <stop
         style="stop-color:#6b4628;stop-opacity:1;"
         offset="1"
         id="stop3387" />
    </linearGradient>
    <inkscape:perspective
       sodipodi:type="inkscape:persp3d"
       inkscape:vp_x="-50 : 600 : 1"
       inkscape:vp_y="0 : 1000 : 0"
       inkscape:vp_z="700 : 600 : 1"
       inkscape:persp3d-origin="300 : 400 : 1"
       id="perspective10" />
    <radialGradient
       inkscape:collect="always"
       xlink:href="#linearGradient3383"
       id="radialGradient3389"
       cx="407.58194"
       cy="432.11823"
       fx="407.58194"
       fy="432.11823"
       r="61.775566"
       gradientTransform="matrix(1.2136722,0.1461162,-0.3969205,3.2969077,97.820846,-1062.5233)"
       gradientUnits="userSpaceOnUse" />
    <radialGradient
       inkscape:collect="always"
       xlink:href="#linearGradient3383"
       id="radialGradient3397"
       cx="321.60919"
       cy="404.51236"
       fx="321.60919"
       fy="404.51236"
       r="75.227905"
       gradientTransform="matrix(1,0,0,1.9328993,0,-377.36927)"
       gradientUnits="userSpaceOnUse" />
    <filter
       inkscape:collect="always"
       id="filter3455"
       x="-0.50270671"
       width="2.0054133"
       y="-0.080144674"
       height="1.1602894">
      <feGaussianBlur
         inkscape:collect="always"
         stdDeviation="7.3378745"
         id="feGaussianBlur3457" />
    </filter>
    <filter
       inkscape:collect="always"
       id="filter3587"
       x="-0.31584668"
       width="1.6316932"
       y="-0.051445428"
       height="1.1028908">
      <feGaussianBlur
         inkscape:collect="always"
         stdDeviation="4.9804994"
         id="feGaussianBlur3589" />
    </filter>
    <filter
       inkscape:collect="always"
       id="filter3751">
      <feGaussianBlur
         inkscape:collect="always"
         stdDeviation="3.4115496"
         id="feGaussianBlur3753" />
    </filter>
    <linearGradient
       inkscape:collect="always"
       xlink:href="#linearGradient3781"
       id="linearGradient3787"
       x1="520.10028"
       y1="542.8028"
       x2="507.00122"
       y2="490.27484"
       gradientUnits="userSpaceOnUse" />
    <linearGradient
       inkscape:collect="always"
       xlink:href="#linearGradient3781"
       id="linearGradient3826"
       gradientUnits="userSpaceOnUse"
       x1="520.10028"
       y1="542.8028"
       x2="507.00122"
       y2="490.27484" />
    <radialGradient
       inkscape:collect="always"
       xlink:href="#linearGradient3781"
       id="radialGradient3856"
       cx="451.96536"
       cy="594.42499"
       fx="451.96536"
       fy="594.42499"
       r="113.16997"
       gradientTransform="matrix(1.9281898,-0.4512372,5.5606322e-2,0.2376125,-413.08391,579.23957)"
       gradientUnits="userSpaceOnUse"
       spreadMethod="pad" />
    <linearGradient
       inkscape:collect="always"
       xlink:href="#linearGradient3781"
       id="linearGradient3874"
       gradientUnits="userSpaceOnUse"
       x1="520.10028"
       y1="542.8028"
       x2="507.00122"
       y2="490.27484" />
    <radialGradient
       inkscape:collect="always"
       xlink:href="#linearGradient3383"
       id="radialGradient3924"
       gradientUnits="userSpaceOnUse"
       gradientTransform="matrix(1.2136722,0.1461162,-0.3969205,3.2969077,97.820846,-1062.5233)"
       cx="407.58194"
       cy="432.11823"
       fx="407.58194"
       fy="432.11823"
       r="61.775566" />
    <radialGradient
       inkscape:collect="always"
       xlink:href="#linearGradient3383"
       id="radialGradient3954"
       gradientUnits="userSpaceOnUse"
       gradientTransform="matrix(1,0,0,1.9328993,0,-377.36927)"
       cx="321.60919"
       cy="404.51236"
       fx="321.60919"
       fy="404.51236"
       r="75.227905" />
    <linearGradient
       inkscape:collect="always"
       xlink:href="#linearGradient3986"
       id="linearGradient3992"
       x1="330.5"
       y1="318.29318"
       x2="328.18765"
       y2="293.99188"
       gradientUnits="userSpaceOnUse" />
    <linearGradient
       inkscape:collect="always"
       xlink:href="#linearGradient3986"
       id="linearGradient3996"
       gradientUnits="userSpaceOnUse"
       x1="330.5"
       y1="318.29318"
       x2="328.18765"
       y2="293.99188"
       gradientTransform="matrix(0.7320427,0,0,0.7682803,116.15578,139.01075)" />
    <linearGradient
       inkscape:collect="always"
       xlink:href="#linearGradient3986"
       id="linearGradient4000"
       gradientUnits="userSpaceOnUse"
       gradientTransform="matrix(0.4647031,0,0,0.5095897,216.10138,291.72853)"
       x1="330.5"
       y1="318.29318"
       x2="328.18765"
       y2="293.99188" />
    <linearGradient
       inkscape:collect="always"
       xlink:href="#linearGradient3986"
       id="linearGradient4015"
       gradientUnits="userSpaceOnUse"
       x1="330.5"
       y1="318.29318"
       x2="328.18765"
       y2="293.99188" />
    <linearGradient
       inkscape:collect="always"
       xlink:href="#linearGradient3986"
       id="linearGradient4017"
       gradientUnits="userSpaceOnUse"
       gradientTransform="matrix(0.7320427,0,0,0.7682803,116.15578,139.01075)"
       x1="330.5"
       y1="318.29318"
       x2="328.18765"
       y2="293.99188" />
    <linearGradient
       inkscape:collect="always"
       xlink:href="#linearGradient3986"
       id="linearGradient4019"
       gradientUnits="userSpaceOnUse"
       gradientTransform="matrix(0.4647031,0,0,0.5095897,216.10138,291.72853)"
       x1="330.5"
       y1="318.29318"
       x2="328.18765"
       y2="293.99188" />
    <filter
       inkscape:collect="always"
       id="filter4062"
       x="-0.28751922"
       width="1.5750384"
       y="-0.060188156"
       height="1.1203763">
      <feGaussianBlur
         inkscape:collect="always"
         stdDeviation="4.4819801"
         id="feGaussianBlur4064" />
    </filter>
  </defs>
  <sodipodi:namedview
     id="base"
     pagecolor="#000000"
     bordercolor="#666666"
     borderopacity="1.0"
     gridtolerance="10000"
     guidetolerance="10"
     objecttolerance="10"
     inkscape:pageopacity="0"
     inkscape:pageshadow="2"
     inkscape:zoom="0.70710678"
     inkscape:cx="306"
     inkscape:cy="226.77448"
     inkscape:document-units="px"
     inkscape:current-layer="g3912"
     showgrid="false"
     inkscape:window-width="1022"
     inkscape:window-height="690"
     inkscape:window-x="110"
     inkscape:window-y="150" />
  <metadata
     id="metadata7">
    <rdf:RDF>
      <cc:Work
         rdf:about="">
        <dc:format>image/svg+xml</dc:format>
        <dc:type
           rdf:resource="http://purl.org/dc/dcmitype/StillImage" />
      </cc:Work>
    </rdf:RDF>
  </metadata>
  <g
     inkscape:label="Layer 1"
     inkscape:groupmode="layer"
     id="layer1">
    <path
       style="fill:#890f34;fill-opacity:1;fill-rule:evenodd;stroke:#000000;stroke-width:4.5669055;stroke-linecap:butt;stroke-linejoin:miter;stroke-miterlimit:4;stroke-dasharray:none;stroke-opacity:1"
       d="M 236.12864,491.46755 C 222.8911,445.8051 230.92751,329.98727 246.36547,307.5012 C 252.10949,296.10196 252.10606,282.25033 250.89538,270.39378 C 250.27959,263.75829 245.90044,257.30171 250.38256,251.97325 C 256.23572,247.42692 265.37045,251.38057 267.79043,257.91021 C 282.56949,279.611 287.94376,307.9413 280.1204,333.2241 C 276.57618,347.67841 274.42536,363.38348 280.02529,377.62853 C 283.35139,387.68393 294.92199,471.40426 298.92359,481.19201"
       id="path4023"
       sodipodi:nodetypes="cccccccc" />
    <path
       style="fill:#217844;fill-rule:evenodd;stroke:#000000;stroke-width:2.28345275;stroke-linecap:butt;stroke-linejoin:miter;stroke-miterlimit:4;stroke-dasharray:none;stroke-opacity:1"
       d="M 258.33973,492.99364 C 259.49068,487.75067 256.23372,474.36401 252.5079,465.60039 C 248.75725,456.77835 238.57358,440.0764 231.22961,430.73627 C 229.62901,438.30483 227.26445,440.32879 225.72673,448.81965 C 222.62729,431.61954 189.51989,399.07126 174.6775,388.61166 C 172.27513,397.68347 172.7479,401.6046 172.25006,407.81826 C 161.16759,389.84632 136.68663,375.69666 114.22227,366.61151 C 116.50918,372.52703 116.36731,377.1971 120.38539,383.14402 C 97.295647,365.96586 62.747269,356.47257 33.954779,349.85476 C 32.10621,367.21112 56.205405,386.20987 69.81902,397.60032 C 60.837229,397.32717 55.352867,398.98159 46.316513,400.89862 C 57.993977,418.25989 117.29618,433.30202 116.54229,434.80673 C 104.69667,435.6977 97.969643,436.21706 88.030538,442.80356 C 116.69795,456.06329 152.6229,466.02879 183.68858,469.70624 C 186.53151,470.40741 162.51986,473.93056 165.0774,475.25955 C 194.10699,486.55597 226.29521,494.04303 258.33973,492.99364 z"
       id="path3323"
       inkscape:transform-center-x="95.676233"
       inkscape:transform-center-y="-63.724829"
       sodipodi:nodetypes="cscccccccccccccc" />
    <g
       id="g3759"
       transform="matrix(-1.1408469,4.4806567e-2,4.4806567e-2,1.1408469,623.62821,-161.49178)"
       inkscape:transform-center-x="63.073983"
       inkscape:transform-center-y="-58.476586">
      <path
         style="fill:#3e6b20;fill-opacity:1;fill-rule:evenodd;stroke:#000000;stroke-width:1px;stroke-linecap:butt;stroke-linejoin:miter;stroke-opacity:1"
         d="M 421.4062,519.90206 C 433.47742,487.04675 468.17512,466.00575 502.54734,465.99414 C 522.61447,463.71751 543.60177,445.88368 540.13231,424.19526 C 538.44895,415.16762 522.99661,402.95773 537.50964,397.35545 C 552.0962,396.95922 558.26853,416.11071 559.1162,428.21583 C 559.61354,446.33818 551.25585,464.4906 535.83304,474.46421 C 511.15609,492.65594 475.8568,494.35151 456.45006,519.92837 C 453.76802,523.84837 451.93686,528.4847 451.95353,533.28511"
         id="path3761"
         inkscape:transform-center-x="-46.228062"
         inkscape:transform-center-y="-48.609246" />
      <path
         sodipodi:type="inkscape:offset"
         inkscape:radius="-5.6517529"
         inkscape:original="M 537.5 397.34375 C 522.98697 402.94603 538.44163 415.15987 540.125 424.1875 C 543.59446 445.87592 522.62964 463.72337 502.5625 466 C 468.19028 466.01161 433.47748 487.05096 421.40625 519.90625 L 451.96875 533.28125 C 451.95208 528.48084 453.75545 523.85753 456.4375 519.9375 C 475.84424 494.36064 511.16677 492.66049 535.84375 474.46875 C 551.26656 464.49514 559.62233 446.34111 559.125 428.21875 C 558.27733 416.11363 552.08656 396.94753 537.5 397.34375 z "
         style="fill:#87ef45;fill-opacity:1;fill-rule:evenodd;stroke:none;stroke-width:1px;stroke-linecap:butt;stroke-linejoin:miter;stroke-opacity:1;filter:url(#filter3751)"
         id="path3763"
         d="M 538.53125,403.125 C 537.31315,403.73291 537.00373,404.11132 537,404.125 C 536.9952,404.14259 536.98883,405.17934 537.875,407.09375 C 539.64735,410.92257 544.35868,416.03001 545.6875,423.15625 C 545.69839,423.1978 545.70881,423.23947 545.71875,423.28125 C 547.77215,436.11757 542.49431,447.90804 534.21875,456.34375 C 525.94319,464.77946 514.64572,470.32506 503.1875,471.625 C 502.9799,471.64695 502.77125,471.65738 502.5625,471.65625 C 472.27449,471.66648 441.48629,489.43981 428.78125,516.9375 L 447.65625,525.1875 C 448.63186,522.13166 450.05076,519.27925 451.78125,516.75 C 451.83159,516.67585 451.88369,516.60292 451.9375,516.53125 C 462.60247,502.47549 477.41072,495.2169 492,489.21875 C 506.58928,483.2206 521.13054,478.28775 532.5,469.90625 C 532.59186,469.84096 532.68565,469.77843 532.78125,469.71875 C 546.35967,460.93787 553.91562,444.6586 553.46875,428.375 C 553.09737,423.07152 551.43006,416.05877 548.53125,410.84375 C 545.82414,405.9736 542.81758,403.35861 538.53125,403.125 z" />
    </g>
    <path
       sodipodi:nodetypes="cscccccccccccccc"
       inkscape:transform-center-y="-62.00894"
       inkscape:transform-center-x="-96.761411"
       id="path3321"
       d="M 257.27893,497.27744 C 256.21801,492.01552 259.70395,478.68665 263.57944,469.98818 C 267.48077,461.23173 277.94923,444.7068 285.45223,435.49391 C 286.92285,443.0888 289.25238,445.15299 290.64433,453.66897 C 294.03814,436.52452 327.69859,404.54852 342.71809,394.34487 C 344.96462,403.45653 344.4247,407.36898 344.81595,413.59025 C 356.20486,395.81093 380.92476,382.08299 403.54155,373.38423 C 401.15358,379.25968 401.21537,383.93149 397.09595,389.80866 C 420.47675,373.02881 455.18278,364.12911 484.08449,358.00583 C 485.63527,375.39132 461.21396,393.97418 447.4071,405.1296 C 456.39224,405.01047 461.84743,406.75865 470.84962,408.83028 C 458.87626,425.98885 399.32493,440.01225 400.05292,441.52967 C 411.88153,442.62355 418.59867,443.25814 428.42341,450.01404 C 399.53292,462.78043 363.44244,472.12867 332.31828,475.27308 C 329.46375,475.92541 353.41148,479.85964 350.83153,481.14459 C 321.61258,491.94174 289.30075,498.87597 257.27893,497.27744 z"
       style="fill:#217844;fill-rule:evenodd;stroke:#000000;stroke-width:2.28345275;stroke-linecap:butt;stroke-linejoin:miter;stroke-miterlimit:4;stroke-dasharray:none;stroke-opacity:1" />
    <path
       sodipodi:type="inkscape:offset"
       inkscape:radius="-10.482598"
       inkscape:original="M 577.71875 227.65625 C 576.21463 227.80221 574.78164 228.34825 573.5 229.34375 C 569.57426 234.01077 573.39812 239.65695 573.9375 245.46875 C 574.9979 255.85351 574.99971 267.98453 569.96875 277.96875 C 556.44715 297.66355 549.40568 399.09954 561 439.09375 L 616 430.09375 C 612.49513 421.52099 602.3507 348.18219 599.4375 339.375 C 594.53271 326.89823 596.42702 313.16006 599.53125 300.5 C 606.38347 278.35564 601.66323 253.53826 588.71875 234.53125 C 587.12907 230.24193 582.23111 227.21837 577.71875 227.65625 z "
       xlink:href="#path4046"
       style="fill:#e563a8;fill-opacity:1;fill-rule:evenodd;stroke:none;stroke-width:4;stroke-linecap:butt;stroke-linejoin:miter;stroke-miterlimit:4;stroke-dasharray:none;stroke-opacity:1;filter:url(#filter4062)"
       id="path4048"
       d="M 584.65625,248.4375 C 585.45466,258.90031 585.1822,271.10077 579.34375,282.6875 C 579.13189,283.10947 578.89176,283.51665 578.625,283.90625 C 577.38079,285.7185 573.80484,295.3939 571.53125,307.71875 C 569.25766,320.0436 567.51062,335.50121 566.53125,351.5625 C 564.86734,378.84986 565.74934,408.33659 569.09375,427.15625 L 603.125,421.59375 C 602.77682,419.62233 602.47857,417.87456 602.03125,415.40625 C 600.51698,407.05051 598.82753,396.7665 597.15625,386.5 C 595.48497,376.2335 593.83763,366.00231 592.4375,357.84375 C 591.03737,349.68519 589.43574,342.46199 589.5,342.65625 C 583.57877,327.06721 586.09571,311.24655 589.34375,298 C 589.40036,297.80027 589.46289,297.60227 589.53125,297.40625 C 594.43356,281.56343 592.21888,263.58419 584.65625,248.4375 z"
       transform="matrix(1.1417264,0,0,1.1800568,-404.37987,-36.50681)"
       inkscape:href="#path4046" />
    <g
       id="g4007"
       transform="matrix(-1.1417264,0,0,1.1417264,703.5232,-108.04668)">
      <path
         style="fill:url(#linearGradient4015);fill-opacity:1;fill-rule:evenodd;stroke:#000000;stroke-width:3;stroke-linecap:butt;stroke-linejoin:miter;stroke-miterlimit:4;stroke-dasharray:none;stroke-opacity:1"
         d="M 308,287.09448 C 370,283.09448 376,300.09448 371,306.09448 C 366,312.09448 335,311.09448 320,322.09448"
         id="path4009"
         sodipodi:nodetypes="csc" />
      <path
         sodipodi:nodetypes="csc"
         id="path4011"
         d="M 341.62491,359.57976 C 387.01156,356.50664 391.40382,369.5674 387.7436,374.17708 C 384.08339,378.78676 361.39007,378.01848 350.40942,386.46957"
         style="fill:url(#linearGradient4017);fill-opacity:1;fill-rule:evenodd;stroke:#000000;stroke-width:2.24982786;stroke-linecap:butt;stroke-linejoin:miter;stroke-miterlimit:4;stroke-dasharray:none;stroke-opacity:1" />
      <path
         style="fill:url(#linearGradient4019);fill-opacity:1;fill-rule:evenodd;stroke:#000000;stroke-width:1.45988739;stroke-linecap:butt;stroke-linejoin:miter;stroke-miterlimit:4;stroke-dasharray:none;stroke-opacity:1"
         d="M 359.22994,438.0289 C 388.04154,435.99054 390.82976,444.65356 388.50624,447.7111 C 386.18272,450.76864 371.77693,450.25905 364.80638,455.86454"
         id="path4013"
         sodipodi:nodetypes="csc" />
    </g>
    <g
       id="g3912"
       inkscape:transform-center-x="-79.471185"
       inkscape:transform-center-y="-137.90388"
       transform="matrix(1.0767337,0.3797152,-0.3797152,1.0767337,32.815462,-251.13718)">
      <path
         style="fill:url(#radialGradient3924);fill-opacity:1;fill-rule:evenodd;stroke:#000000;stroke-width:5;stroke-linecap:butt;stroke-linejoin:miter;stroke-miterlimit:4;stroke-dasharray:none;stroke-opacity:1"
         d="M 434.25557,263.58113 C 437.35115,310.03691 472.94647,331.18222 492.69679,364.52653 C 517.91408,405.38733 523.77891,482.75617 491.83286,516.62595 C 460.31263,545.19995 432.58015,553.73609 395.19077,542.98586"
         id="path2421"
         sodipodi:nodetypes="cccc" />
      <path
         style="fill:#cac724;fill-opacity:1;fill-rule:evenodd;stroke:#000000;stroke-width:2;stroke-linecap:butt;stroke-linejoin:miter;stroke-miterlimit:4;stroke-dasharray:none;stroke-opacity:1"
         d="M 396.42859,546.2373 C 396.60985,482.57199 385.87844,420.36014 390.83893,356.7166 C 391.70142,326.64901 388.48821,295.21466 391.20539,265.19439 C 391.50002,251.76996 399.52487,234.16693 415.6485,237.273 C 429.67489,238.52614 434.03561,252.8979 437.9969,264.05133 C 448.61348,295.62937 438.2593,328.83497 431.63491,360.39554 C 418.84975,421.30783 408.9964,475.17471 397.97558,534.9566 C 396.88805,538.6033 396.1666,542.41669 396.42859,546.2373 z"
         id="path3399"
         sodipodi:nodetypes="cccccscc" />
      <path
         d="M 410.875,244.53125 C 407.54091,244.92892 404.91661,247.01121 402.59375,251.03125 C 400.27089,255.05129 398.88278,260.7176 398.78125,265.34375 C 398.77708,265.52115 398.76665,265.69834 398.75,265.875 C 396.12356,294.89279 399.28844,326.18306 398.40625,356.9375 C 398.39895,357.06274 398.38853,357.18778 398.375,357.3125 C 395.27881,397.03696 398.40926,436.66462 401.09375,476.8125 C 408.29979,438.20119 415.59412,399.934 424.21875,358.84375 C 430.94979,326.77508 440.47742,295.12319 430.84375,266.46875 C 428.81284,260.75051 426.84609,255.01602 424.28125,251.0625 C 421.71641,247.10898 419.50152,245.21747 414.96875,244.8125 C 414.71681,244.78345 414.46649,244.74173 414.21875,244.6875 C 412.90277,244.43399 411.8001,244.42091 410.875,244.53125 z"
         inkscape:href="#path3399"
         id="path3401"
         style="fill:#ffffc7;fill-opacity:1;fill-rule:evenodd;stroke:none;stroke-width:1px;stroke-linecap:butt;stroke-linejoin:miter;stroke-opacity:1;filter:url(#filter3455)"
         xlink:href="#path3399"
         inkscape:original="M 409.96875 237.03125 C 397.62714 238.50329 391.47656 253.44112 391.21875 265.1875 C 388.50157 295.20777 391.70624 326.65115 390.84375 356.71875 C 385.88326 420.36229 396.61876 482.58469 396.4375 546.25 C 396.17551 542.42939 396.88121 538.61545 397.96875 534.96875 C 408.98957 475.18686 418.83983 421.31854 431.625 360.40625 C 438.24939 328.84568 448.61659 295.64054 438 264.0625 C 434.03871 252.90907 429.68264 238.5344 415.65625 237.28125 C 413.6408 236.89299 411.73184 236.82096 409.96875 237.03125 z "
         inkscape:radius="-7.5525618"
         sodipodi:type="inkscape:offset" />
      <path
         transform="translate(25.722995,26.090652)"
         d="M 473.76156,418.82535 A 7.0710678,15.152288 0 1 1 459.61942,418.82535 A 7.0710678,15.152288 0 1 1 473.76156,418.82535 z"
         sodipodi:ry="15.152288"
         sodipodi:rx="7.0710678"
         sodipodi:cy="418.82535"
         sodipodi:cx="466.69049"
         id="path2503"
         style="opacity:1;fill:#e5ff80;fill-opacity:1;fill-rule:evenodd;stroke:none;stroke-width:1;stroke-miterlimit:4;stroke-dasharray:none;stroke-opacity:1"
         sodipodi:type="arc" />
      <path
         transform="matrix(0.4849608,-0.2687468,0.1435854,0.5622779,207.54522,277.78432)"
         d="M 473.76156,418.82535 A 7.0710678,15.152288 0 1 1 459.61942,418.82535 A 7.0710678,15.152288 0 1 1 473.76156,418.82535 z"
         sodipodi:ry="15.152288"
         sodipodi:rx="7.0710678"
         sodipodi:cy="418.82535"
         sodipodi:cx="466.69049"
         id="path3277"
         style="opacity:1;fill:#e5ff80;fill-opacity:1;fill-rule:evenodd;stroke:none;stroke-width:1;stroke-miterlimit:4;stroke-dasharray:none;stroke-opacity:1"
         sodipodi:type="arc" />
      <path
         sodipodi:type="arc"
         style="opacity:1;fill:#e5ff80;fill-opacity:1;fill-rule:evenodd;stroke:none;stroke-width:1;stroke-miterlimit:4;stroke-dasharray:none;stroke-opacity:1"
         id="path3279"
         sodipodi:cx="466.69049"
         sodipodi:cy="418.82535"
         sodipodi:rx="7.0710678"
         sodipodi:ry="15.152288"
         d="M 473.76156,418.82535 A 7.0710678,15.152288 0 1 1 459.61942,418.82535 A 7.0710678,15.152288 0 1 1 473.76156,418.82535 z"
         transform="matrix(0.5254661,-0.1769098,3.985989e-2,0.5789512,212.0846,248.65598)" />
      <g
         id="g3831">
        <path
           style="fill:none;fill-rule:evenodd;stroke:#988330;stroke-width:3;stroke-linecap:butt;stroke-linejoin:miter;stroke-miterlimit:4;stroke-dasharray:none;stroke-opacity:1"
           d="M 390.92904,296.5969 C 391.93919,281.44462 402.04071,274.37355 408.10163,273.3634"
           id="path3364" />
        <path
           style="fill:none;fill-rule:evenodd;stroke:#988330;stroke-width:3;stroke-linecap:butt;stroke-linejoin:miter;stroke-miterlimit:4;stroke-dasharray:none;stroke-opacity:1"
           d="M 390.92904,327.91163 C 391.93919,315.7898 402.04071,314.77965 402.04071,314.77965"
           id="path3366" />
        <path
           style="fill:none;fill-rule:evenodd;stroke:#988330;stroke-width:3;stroke-linecap:butt;stroke-linejoin:miter;stroke-miterlimit:4;stroke-dasharray:none;stroke-opacity:1"
           d="M 390.92904,369.32789 C 391.93919,357.20606 399.01026,359.22636 399.01026,359.22636"
           id="path3368" />
      </g>
    </g>
    <g
       id="g4002"
       transform="matrix(1.1417264,0,0,1.1417264,-194.30221,-134.30638)">
      <path
         sodipodi:nodetypes="csc"
         id="path3984"
         d="M 308,287.09448 C 370,283.09448 376,300.09448 371,306.09448 C 366,312.09448 335,311.09448 320,322.09448"
         style="fill:url(#linearGradient3992);fill-opacity:1;fill-rule:evenodd;stroke:#000000;stroke-width:3;stroke-linecap:butt;stroke-linejoin:miter;stroke-miterlimit:4;stroke-dasharray:none;stroke-opacity:1" />
      <path
         style="fill:url(#linearGradient3996);fill-opacity:1;fill-rule:evenodd;stroke:#000000;stroke-width:2.24982786;stroke-linecap:butt;stroke-linejoin:miter;stroke-miterlimit:4;stroke-dasharray:none;stroke-opacity:1"
         d="M 341.62491,359.57976 C 387.01156,356.50664 391.40382,369.5674 387.7436,374.17708 C 384.08339,378.78676 361.39007,378.01848 350.40942,386.46957"
         id="path3994"
         sodipodi:nodetypes="csc" />
      <path
         sodipodi:nodetypes="csc"
         id="path3998"
         d="M 359.22994,438.0289 C 388.04154,435.99054 390.82976,444.65356 388.50624,447.7111 C 386.18272,450.76864 371.77693,450.25905 364.80638,455.86454"
         style="fill:url(#linearGradient4000);fill-opacity:1;fill-rule:evenodd;stroke:#000000;stroke-width:1.45988739;stroke-linecap:butt;stroke-linejoin:miter;stroke-miterlimit:4;stroke-dasharray:none;stroke-opacity:1" />
    </g>
    <g
       id="g3940"
       inkscape:transform-center-x="103.93175"
       inkscape:transform-center-y="-147.43844"
       transform="matrix(1.0931374,-0.3295299,0.3295299,1.0931374,-353.29103,23.730195)">
      <g
         id="g3926">
        <path
           style="fill:url(#radialGradient3954);fill-opacity:1;fill-rule:evenodd;stroke:#000000;stroke-width:5;stroke-linecap:butt;stroke-linejoin:miter;stroke-miterlimit:4;stroke-dasharray:none;stroke-opacity:1"
           d="M 342.00074,261.60438 C 338.20264,308.04595 298.93507,331.20479 274.70249,364.53891 C 243.76225,405.38722 236.56642,482.7324 275.76249,516.59183 C 314.4361,545.1571 348.46236,553.69063 394.3371,542.94368"
           id="path2400"
           sodipodi:nodetypes="cccc" />
        <path
           style="fill:#cac724;fill-opacity:1;fill-rule:evenodd;stroke:#000000;stroke-width:2;stroke-linecap:butt;stroke-linejoin:miter;stroke-miterlimit:4;stroke-dasharray:none;stroke-opacity:1"
           d="M 395.71429,544.80878 C 381.90789,485.40299 365.0286,426.71984 353.1081,366.87819 C 344.49318,330.21342 332.74627,292.24602 340.2957,254.34961 C 343.63274,241.36831 359.7421,230.34894 372.08028,238.96802 C 386.01734,250.55348 387.45948,270.30822 388.85637,287.16965 C 389.9063,314.39959 395.20711,341.26374 395.37706,368.55488 C 395.89532,401.89125 396.81915,435.21566 397.67014,468.54264 C 397.685,489.43622 398.03944,510.33233 398.7506,531.19979 C 398.54044,535.86177 397.71181,540.55996 395.71429,544.80878 z"
           id="path2388" />
        <path
           d="M 411.09375,246.40625 C 408.46597,246.71968 406.34497,248.28901 404.21875,251.96875 C 402.09253,255.64849 400.75097,261.0906 400.65625,265.40625 C 400.65275,265.61487 400.64233,265.82332 400.625,266.03125 C 398.02115,294.79943 401.16835,326.07455 400.28125,357 C 400.27423,357.14606 400.26381,357.29193 400.25,357.4375 C 397.55184,392.05517 399.63261,426.6887 402,461.71875 C 408.33503,428.07242 414.86516,394.39669 422.40625,358.46875 C 429.16384,326.27357 438.45144,294.989 429.0625,267.0625 C 427.01908,261.30903 425.05996,255.75073 422.6875,252.09375 C 420.31504,248.43677 418.72768,247.03729 414.8125,246.6875 C 414.49757,246.6512 414.18468,246.59905 413.875,246.53125 C 412.73318,246.31129 411.8102,246.3208 411.09375,246.40625 z"
           inkscape:href="#path3399"
           id="path3565"
           style="fill:#ffffc8;fill-opacity:1;fill-rule:evenodd;stroke:none;stroke-width:1px;stroke-linecap:butt;stroke-linejoin:miter;stroke-opacity:1;filter:url(#filter3587)"
           xlink:href="#path3399"
           inkscape:original="M 409.96875 237.03125 C 397.62714 238.50329 391.47656 253.44112 391.21875 265.1875 C 388.50157 295.20777 391.70624 326.65115 390.84375 356.71875 C 385.88326 420.36229 396.61876 482.58469 396.4375 546.25 C 396.17551 542.42939 396.88121 538.61545 397.96875 534.96875 C 408.98957 475.18686 418.83983 421.31854 431.625 360.40625 C 438.24939 328.84568 448.61659 295.64054 438 264.0625 C 434.03871 252.90907 429.68264 238.5344 415.65625 237.28125 C 413.6408 236.89299 411.73184 236.82096 409.96875 237.03125 z "
           inkscape:radius="-9.4330635"
           sodipodi:type="inkscape:offset"
           transform="matrix(-1,0,0,1,784.02332,0)" />
        <path
           sodipodi:type="arc"
           style="opacity:1;fill:#e5ff80;fill-opacity:1;fill-rule:evenodd;stroke:none;stroke-width:1;stroke-miterlimit:4;stroke-dasharray:none;stroke-opacity:1"
           id="path3281"
           sodipodi:cx="466.69049"
           sodipodi:cy="418.82535"
           sodipodi:rx="7.0710678"
           sodipodi:ry="15.152288"
           d="M 473.76156,418.82535 A 7.0710678,15.152288 0 1 1 459.61942,418.82535 A 7.0710678,15.152288 0 1 1 473.76156,418.82535 z"
           transform="matrix(-1.5084835,0.3798933,0.2442127,0.9697217,900.91166,-99.949193)" />
        <path
           transform="matrix(-0.957135,-1.777965e-2,-0.1049517,0.9921813,756.27005,14.091502)"
           d="M 473.76156,418.82535 A 7.0710678,15.152288 0 1 1 459.61942,418.82535 A 7.0710678,15.152288 0 1 1 473.76156,418.82535 z"
           sodipodi:ry="15.152288"
           sodipodi:rx="7.0710678"
           sodipodi:cy="418.82535"
           sodipodi:cx="466.69049"
           id="path3283"
           style="opacity:1;fill:#e5ff80;fill-opacity:1;fill-rule:evenodd;stroke:none;stroke-width:1;stroke-miterlimit:4;stroke-dasharray:none;stroke-opacity:1"
           sodipodi:type="arc" />
        <path
           transform="matrix(0.5347301,0.1465455,-0.2901112,0.5026019,176.67577,67.536573)"
           d="M 473.76156,418.82535 A 7.0710678,15.152288 0 1 1 459.61942,418.82535 A 7.0710678,15.152288 0 1 1 473.76156,418.82535 z"
           sodipodi:ry="15.152288"
           sodipodi:rx="7.0710678"
           sodipodi:cy="418.82535"
           sodipodi:cx="466.69049"
           id="path3285"
           style="opacity:1;fill:#e5ff80;fill-opacity:1;fill-rule:evenodd;stroke:none;stroke-width:1;stroke-miterlimit:4;stroke-dasharray:none;stroke-opacity:1"
           sodipodi:type="arc" />
        <path
           sodipodi:type="arc"
           style="opacity:1;fill:#e5ff80;fill-opacity:1;fill-rule:evenodd;stroke:none;stroke-width:1;stroke-miterlimit:4;stroke-dasharray:none;stroke-opacity:1"
           id="path3287"
           sodipodi:cx="466.69049"
           sodipodi:cy="418.82535"
           sodipodi:rx="7.0710678"
           sodipodi:ry="15.152288"
           d="M 473.76156,418.82535 A 7.0710678,15.152288 0 1 1 459.61942,418.82535 A 7.0710678,15.152288 0 1 1 473.76156,418.82535 z"
           transform="matrix(0.5543033,1.2637672e-2,-0.1597101,0.557912,116.4973,151.15051)" />
        <path
           sodipodi:type="arc"
           style="opacity:1;fill:#e5ff80;fill-opacity:1;fill-rule:evenodd;stroke:none;stroke-width:1;stroke-miterlimit:4;stroke-dasharray:none;stroke-opacity:1"
           id="path3289"
           sodipodi:cx="466.69049"
           sodipodi:cy="418.82535"
           sodipodi:rx="7.0710678"
           sodipodi:ry="15.152288"
           d="M 473.76156,418.82535 A 7.0710678,15.152288 0 1 1 459.61942,418.82535 A 7.0710678,15.152288 0 1 1 473.76156,418.82535 z"
           transform="matrix(-0.9568697,2.3948805e-2,-5.6665509e-2,0.8311298,797.35134,80.99823)" />
        <path
           id="path3838"
           d="M 390.10163,295.84467 C 389.09148,276.25225 378.98996,267.10911 372.92904,265.80295"
           style="fill:none;fill-rule:evenodd;stroke:#988330;stroke-width:2;stroke-linecap:butt;stroke-linejoin:miter;stroke-miterlimit:4;stroke-dasharray:none;stroke-opacity:1" />
        <path
           id="path3840"
           d="M 392.10163,336.33569 C 391.09148,320.66175 380.98996,319.35559 380.98996,319.35559"
           style="fill:none;fill-rule:evenodd;stroke:#988330;stroke-width:2;stroke-linecap:butt;stroke-linejoin:miter;stroke-miterlimit:4;stroke-dasharray:none;stroke-opacity:1" />
      </g>
      <path
         style="fill:none;fill-rule:evenodd;stroke:#988330;stroke-width:2;stroke-linecap:butt;stroke-linejoin:miter;stroke-miterlimit:4;stroke-dasharray:none;stroke-opacity:1"
         d="M 396.10163,389.88834 C 395.09148,374.2144 388.02041,376.82671 388.02041,376.82671"
         id="path3842" />
    </g>
    <g
       id="g3810"
       transform="matrix(-1.1381042,9.0874027e-2,9.0874027e-2,1.1381042,663.5488,-164.93462)"
       inkscape:transform-center-x="114.23494"
       inkscape:transform-center-y="-23.344027">
      <path
         style="fill:url(#linearGradient3826);fill-opacity:1;fill-rule:evenodd;stroke:#000000;stroke-width:3;stroke-linecap:butt;stroke-linejoin:miter;stroke-miterlimit:4;stroke-dasharray:none;stroke-opacity:1"
         d="M 395.33125,548.21721 C 395.61848,543.5245 401.57121,533.02799 406.8107,526.53844 C 412.08513,520.00563 424.66782,508.37669 433.09353,502.26879 C 432.62761,509.02842 434.1344,511.30028 433.39442,518.8218 C 440.1286,505.075 475.82141,485.59189 490.83232,480.33842 C 490.68149,488.55662 489.34326,491.74655 488.27313,497.10042 C 501.91744,484.61706 525.93268,478.56552 547.03506,476.29702 C 543.69047,480.73219 542.6905,484.70037 537.88,488.74701 C 561.44923,479.81067 592.82931,480.09508 618.6712,481.42209 C 616.06789,496.48664 591.21185,506.7147 577.01294,513.04689 C 584.64489,514.96986 588.86846,517.67827 596.02137,521.45937 C 582.02222,533.28567 528.45877,531.74186 528.73317,533.19019 C 538.49862,536.78033 544.04114,538.83043 550.83519,546.76162 C 523.5065,551.05991 490.85357,550.84332 463.80154,546.49438 C 461.2385,546.40356 480.62195,555.12752 478.14884,555.63401 C 450.98568,558.19154 422.07477,556.78281 395.33125,548.21721 z"
         id="path3812"
         inkscape:transform-center-x="-95.944227"
         inkscape:transform-center-y="-29.054215"
         sodipodi:nodetypes="cscccccccccccccc" />
      <path
         style="fill:none;fill-rule:evenodd;stroke:#1c6c1d;stroke-width:3;stroke-linecap:butt;stroke-linejoin:miter;stroke-miterlimit:4;stroke-dasharray:none;stroke-opacity:1"
         d="M 398.0001,545.09443 C 498.97223,503.03829 599.60662,495.94027 618.24382,481.44467"
         id="path3814"
         sodipodi:nodetypes="cc" />
      <path
         style="fill:none;fill-opacity:1;fill-rule:evenodd;stroke:#287228;stroke-width:2;stroke-linecap:butt;stroke-linejoin:miter;stroke-miterlimit:4;stroke-dasharray:none;stroke-opacity:1"
         d="M 454.56865,523.88123 C 460.62956,506.70864 476.792,497.61726 476.792,497.61726"
         id="path3816"
         sodipodi:nodetypes="cc" />
      <path
         style="fill:none;fill-rule:evenodd;stroke:#287228;stroke-width:2;stroke-linecap:butt;stroke-linejoin:miter;stroke-miterlimit:4;stroke-dasharray:none;stroke-opacity:1"
         d="M 509.09658,508.70863 C 515.15749,498.10203 529.29963,489.51574 529.29963,489.51574"
         id="path3818"
         sodipodi:nodetypes="cc" />
      <path
         style="fill:none;fill-rule:evenodd;stroke:#287228;stroke-width:2;stroke-linecap:butt;stroke-linejoin:miter;stroke-miterlimit:4;stroke-dasharray:none;stroke-opacity:1"
         d="M 452.54834,523.88123 C 473.76154,537.01321 505.07627,534.99291 505.07627,534.99291"
         id="path3820" />
      <path
         style="fill:none;fill-rule:evenodd;stroke:#287228;stroke-width:2;stroke-linecap:butt;stroke-linejoin:miter;stroke-miterlimit:4;stroke-dasharray:none;stroke-opacity:1"
         d="M 507.09658,508.72894 C 531.34024,515.80001 551.54329,512.76955 551.54329,512.76955"
         id="path3822" />
      <path
         style="fill:none;fill-rule:evenodd;stroke:#287228;stroke-width:2;stroke-linecap:butt;stroke-linejoin:miter;stroke-miterlimit:4;stroke-dasharray:none;stroke-opacity:1"
         d="M 427.29453,521.35585 C 427.29453,521.35585 417.69808,527.41676 416.18285,537.01321 C 438.91128,548.62997 452.54835,545.09443 452.54835,545.09443"
         id="path3824"
         sodipodi:nodetypes="ccc" />
    </g>
    <g
       id="g3755"
       transform="matrix(1.1417264,0,0,1.1417264,-176.03459,-138.87329)">
      <path
         inkscape:transform-center-y="-48.609246"
         inkscape:transform-center-x="-46.228062"
         id="path2489"
         d="M 421.4062,519.90206 C 433.47742,487.04675 468.17512,466.00575 502.54734,465.99414 C 522.61447,463.71751 543.60177,445.88368 540.13231,424.19526 C 538.44895,415.16762 522.99661,402.95773 537.50964,397.35545 C 552.0962,396.95922 558.26853,416.11071 559.1162,428.21583 C 559.61354,446.33818 551.25585,464.4906 535.83304,474.46421 C 511.15609,492.65594 475.8568,494.35151 456.45006,519.92837 C 453.76802,523.84837 451.93686,528.4847 451.95353,533.28511"
         style="fill:#3e6b20;fill-opacity:1;fill-rule:evenodd;stroke:#000000;stroke-width:1px;stroke-linecap:butt;stroke-linejoin:miter;stroke-opacity:1" />
      <path
         d="M 538.53125,403.125 C 537.31315,403.73291 537.00373,404.11132 537,404.125 C 536.9952,404.14259 536.98883,405.17934 537.875,407.09375 C 539.64735,410.92257 544.35868,416.03001 545.6875,423.15625 C 545.69839,423.1978 545.70881,423.23947 545.71875,423.28125 C 547.77215,436.11757 542.49431,447.90804 534.21875,456.34375 C 525.94319,464.77946 514.64572,470.32506 503.1875,471.625 C 502.9799,471.64695 502.77125,471.65738 502.5625,471.65625 C 472.27449,471.66648 441.48629,489.43981 428.78125,516.9375 L 447.65625,525.1875 C 448.63186,522.13166 450.05076,519.27925 451.78125,516.75 C 451.83159,516.67585 451.88369,516.60292 451.9375,516.53125 C 462.60247,502.47549 477.41072,495.2169 492,489.21875 C 506.58928,483.2206 521.13054,478.28775 532.5,469.90625 C 532.59186,469.84096 532.68565,469.77843 532.78125,469.71875 C 546.35967,460.93787 553.91562,444.6586 553.46875,428.375 C 553.09737,423.07152 551.43006,416.05877 548.53125,410.84375 C 545.82414,405.9736 542.81758,403.35861 538.53125,403.125 z"
         id="path3593"
         style="fill:#87ef45;fill-opacity:1;fill-rule:evenodd;stroke:none;stroke-width:1px;stroke-linecap:butt;stroke-linejoin:miter;stroke-opacity:1;filter:url(#filter3751)"
         inkscape:original="M 537.5 397.34375 C 522.98697 402.94603 538.44163 415.15987 540.125 424.1875 C 543.59446 445.87592 522.62964 463.72337 502.5625 466 C 468.19028 466.01161 433.47748 487.05096 421.40625 519.90625 L 451.96875 533.28125 C 451.95208 528.48084 453.75545 523.85753 456.4375 519.9375 C 475.84424 494.36064 511.16677 492.66049 535.84375 474.46875 C 551.26656 464.49514 559.62233 446.34111 559.125 428.21875 C 558.27733 416.11363 552.08656 396.94753 537.5 397.34375 z "
         inkscape:radius="-5.6517529"
         sodipodi:type="inkscape:offset" />
    </g>
    <g
       transform="matrix(1.1383975,8.7123512e-2,-8.7123512e-2,1.1383975,-150.97579,-163.90797)"
       id="g3858"
       inkscape:transform-center-x="-124.65918"
       inkscape:transform-center-y="-26.257983">
      <path
         sodipodi:nodetypes="cscccccccccccccc"
         inkscape:transform-center-y="-29.054215"
         inkscape:transform-center-x="-95.944227"
         id="path3860"
         d="M 395.33125,548.21721 C 395.61848,543.5245 401.57121,533.02799 406.8107,526.53844 C 412.08513,520.00563 424.66782,508.37669 433.09353,502.26879 C 432.62761,509.02842 434.1344,511.30028 433.39442,518.8218 C 440.1286,505.075 475.82141,485.59189 490.83232,480.33842 C 490.68149,488.55662 489.34326,491.74655 488.27313,497.10042 C 501.91744,484.61706 525.93268,478.56552 547.03506,476.29702 C 543.69047,480.73219 542.6905,484.70037 537.88,488.74701 C 561.44923,479.81067 592.82931,480.09508 618.6712,481.42209 C 616.06789,496.48664 591.21185,506.7147 577.01294,513.04689 C 584.64489,514.96986 588.86846,517.67827 596.02137,521.45937 C 582.02222,533.28567 528.45877,531.74186 528.73317,533.19019 C 538.49862,536.78033 544.04114,538.83043 550.83519,546.76162 C 523.5065,551.05991 490.85357,550.84332 463.80154,546.49438 C 461.2385,546.40356 480.62195,555.12752 478.14884,555.63401 C 450.98568,558.19154 422.07477,556.78281 395.33125,548.21721 z"
         style="fill:url(#linearGradient3874);fill-opacity:1;fill-rule:evenodd;stroke:#000000;stroke-width:3;stroke-linecap:butt;stroke-linejoin:miter;stroke-miterlimit:4;stroke-dasharray:none;stroke-opacity:1" />
      <path
         sodipodi:nodetypes="cc"
         id="path3862"
         d="M 398.0001,545.09443 C 498.97223,503.03829 599.60662,495.94027 618.24382,481.44467"
         style="fill:none;fill-rule:evenodd;stroke:#1c6c1d;stroke-width:3;stroke-linecap:butt;stroke-linejoin:miter;stroke-miterlimit:4;stroke-dasharray:none;stroke-opacity:1" />
      <path
         sodipodi:nodetypes="cc"
         id="path3864"
         d="M 454.56865,523.88123 C 460.62956,506.70864 476.792,497.61726 476.792,497.61726"
         style="fill:none;fill-opacity:1;fill-rule:evenodd;stroke:#287228;stroke-width:2;stroke-linecap:butt;stroke-linejoin:miter;stroke-miterlimit:4;stroke-dasharray:none;stroke-opacity:1" />
      <path
         sodipodi:nodetypes="cc"
         id="path3866"
         d="M 509.09658,508.70863 C 515.15749,498.10203 529.29963,489.51574 529.29963,489.51574"
         style="fill:none;fill-rule:evenodd;stroke:#287228;stroke-width:2;stroke-linecap:butt;stroke-linejoin:miter;stroke-miterlimit:4;stroke-dasharray:none;stroke-opacity:1" />
      <path
         id="path3868"
         d="M 452.54834,523.88123 C 473.76154,537.01321 505.07627,534.99291 505.07627,534.99291"
         style="fill:none;fill-rule:evenodd;stroke:#287228;stroke-width:2;stroke-linecap:butt;stroke-linejoin:miter;stroke-miterlimit:4;stroke-dasharray:none;stroke-opacity:1" />
      <path
         id="path3870"
         d="M 507.09658,508.72894 C 531.34024,515.80001 551.54329,512.76955 551.54329,512.76955"
         style="fill:none;fill-rule:evenodd;stroke:#287228;stroke-width:2;stroke-linecap:butt;stroke-linejoin:miter;stroke-miterlimit:4;stroke-dasharray:none;stroke-opacity:1" />
      <path
         sodipodi:nodetypes="ccc"
         id="path3872"
         d="M 427.29453,521.35585 C 427.29453,521.35585 417.69808,527.41676 416.18285,537.01321 C 438.91128,548.62997 452.54835,545.09443 452.54835,545.09443"
         style="fill:none;fill-rule:evenodd;stroke:#287228;stroke-width:2;stroke-linecap:butt;stroke-linejoin:miter;stroke-miterlimit:4;stroke-dasharray:none;stroke-opacity:1" />
    </g>
  </g>
</svg>
