<?xml version="1.0" encoding="UTF-8" standalone="no"?>
<!-- Created with Inkscape (http://www.inkscape.org/) -->

<svg
   xmlns:dc="http://purl.org/dc/elements/1.1/"
   xmlns:cc="http://creativecommons.org/ns#"
   xmlns:rdf="http://www.w3.org/1999/02/22-rdf-syntax-ns#"
   xmlns:svg="http://www.w3.org/2000/svg"
   xmlns="http://www.w3.org/2000/svg"
   xmlns:xlink="http://www.w3.org/1999/xlink"
   xmlns:sodipodi="http://sodipodi.sourceforge.net/DTD/sodipodi-0.dtd"
   xmlns:inkscape="http://www.inkscape.org/namespaces/inkscape"
   width="512"
   height="256"
   id="svg2"
   sodipodi:version="0.32"
   inkscape:version="0.46+devel 22040"
   version="1.0"
   sodipodi:docname="big_1.svg"
   inkscape:output_extension="org.inkscape.output.svg.inkscape"
   inkscape:export-filename="C:\Dateien\Desktop\Secret Maryo Chronicles\SMC\data\pixmaps\ground\green_1\hedges\big_1.png"
   inkscape:export-xdpi="180"
   inkscape:export-ydpi="180">
  <sodipodi:namedview
     id="base"
     pagecolor="#000000"
     bordercolor="#666666"
     borderopacity="1.0"
     inkscape:pageopacity="0"
     inkscape:pageshadow="2"
     inkscape:zoom="0.99999998"
     inkscape:cx="265.95319"
     inkscape:cy="241.51359"
     inkscape:document-units="px"
     inkscape:current-layer="g3210"
     showgrid="false"
     inkscape:showpageshadow="false"
     inkscape:window-width="1254"
     inkscape:window-height="945"
     inkscape:window-x="20"
     inkscape:window-y="15"
     showguides="true"
     inkscape:guide-bbox="true"
     inkscape:window-maximized="0" />
  <defs
     id="defs4">
    <inkscape:perspective
       sodipodi:type="inkscape:persp3d"
       inkscape:vp_x="0 : 128 : 1"
       inkscape:vp_y="0 : 1000 : 0"
       inkscape:vp_z="512 : 128 : 1"
       inkscape:persp3d-origin="256 : 85.333333 : 1"
       id="perspective32" />
    <linearGradient
       inkscape:collect="always"
       id="linearGradient3187">
      <stop
         style="stop-color:#21bc16;stop-opacity:1;"
         offset="0"
         id="stop3189" />
      <stop
         style="stop-color:#1b9a12;stop-opacity:1"
         offset="1"
         id="stop3191" />
    </linearGradient>
    <linearGradient
       id="linearGradient3173">
      <stop
         style="stop-color:#25ff07;stop-opacity:1;"
         offset="0"
         id="stop3175" />
      <stop
         id="stop3183"
         offset="0.5"
         style="stop-color:#07f307;stop-opacity:0.82710278;" />
      <stop
         style="stop-color:#06d206;stop-opacity:0.63084114;"
         offset="1"
         id="stop3177" />
    </linearGradient>
    <filter
       id="filter3192"
       inkscape:label="filter2"
       width="1"
       height="1"
       x="0"
       y="0">
      <feTurbulence
         id="feTurbulence3194"
         type="turbulence"
         baseFrequency="0.21039755351681957"
         numOctaves="1"
         seed="398"
         result="result0"
         in="SourceGraphic" />
      <feColorMatrix
         id="feColorMatrix3198"
         type="matrix"
         values="0 1.3 0 0 0 0.2 2.8 0.1 0.9 0 0 0 0 0 0 0.5 0.2 1 0.1 0 "
         result="result1" />
      <feComposite
         id="feComposite3216"
         in2="SourceGraphic"
         operator="in" />
    </filter>
    <filter
       id="filter3209"
       inkscape:label="filter4">
      <feGaussianBlur
         stdDeviation="18"
         id="feGaussianBlur3174"
         in="SourceGraphic" />
      <feDiffuseLighting
         id="feDiffuseLighting3225"
         surfaceScale="10"
         diffuseConstant="1.1000000000000001"
         kernelUnitLength="0.01"
         lighting-color="rgb(255,255,255)">
        <feDistantLight
           id="feDistantLight3982"
           azimuth="237"
           elevation="60" />
      </feDiffuseLighting>
      <feComposite
         id="feComposite3217"
         in="result0"
         in2="SourceGraphic"
         operator="arithmetic"
         k1="1"
         k2="0"
         k3="0"
         k4="2.7755575615628914e-017" />
      <feMorphology
         id="feMorphology3614"
         operator="erode"
         radius="6.5" />
      <feGaussianBlur
         stdDeviation="6"
         id="feGaussianBlur3185" />
    </filter>
    <linearGradient
       inkscape:collect="always"
       xlink:href="#linearGradient3173"
       id="linearGradient3181"
       x1="65.097069"
       y1="265.52466"
       x2="116.92813"
       y2="449.17441"
       gradientUnits="userSpaceOnUse"
       gradientTransform="translate(0,505.26486)" />
    <linearGradient
       inkscape:collect="always"
       xlink:href="#linearGradient3173"
       id="linearGradient3193"
       x1="60.237999"
       y1="485.51303"
       x2="93.15625"
       y2="706.0415"
       gradientUnits="userSpaceOnUse" />
    <filter
       inkscape:collect="always"
       id="filter3215">
      <feGaussianBlur
         inkscape:collect="always"
         stdDeviation="0.96305695"
         id="feGaussianBlur3217" />
    </filter>
    <linearGradient
       inkscape:collect="always"
       xlink:href="#linearGradient3187"
       id="linearGradient3612"
       gradientUnits="userSpaceOnUse"
       x1="45.946941"
       y1="454.07269"
       x2="130.35196"
       y2="711.75793" />
  </defs>
  <metadata
     id="metadata7">
    <rdf:RDF>
      <cc:Work
         rdf:about="">
        <dc:format>image/svg+xml</dc:format>
        <dc:type
           rdf:resource="http://purl.org/dc/dcmitype/StillImage" />
        <dc:title></dc:title>
      </cc:Work>
      <cc:Work
         rdf:about="">
        <dc:format>image/svg+xml</dc:format>
        <dc:type
           rdf:resource="http://purl.org/dc/dcmitype/StillImage" />
      </cc:Work>
    </rdf:RDF>
  </metadata>
  <g
     transform="translate(-56.847417,-735.33378)"
     inkscape:label="plants"
     id="layer2"
     inkscape:groupmode="layer">
    <g
       id="g3210"
       transform="matrix(0.9895793,0,0,0.9895793,219.85447,288.99479)">
      <path
         style="fill:url(#linearGradient3612);fill-opacity:1;stroke:#000000;stroke-width:2.52632618;stroke-linejoin:round;stroke-miterlimit:4;stroke-opacity:1;stroke-dasharray:none;filter:url(#filter3215)"
         d="m -109.86261,647.09654 c 1.25406,1.51603 1.66314,1.39999 4.81234,-1.36504 4.8317,-4.2423 10.89271,-6.86805 17.85221,-7.73395 l 5.96489,-0.74215 0.66558,-12.99873 c 1.69259,-33.05605 20.226286,-50.40471 41.424516,-53.05325 -16.459723,-43.1854 25.233012,-82.97252 42.4099002,-76.85007 7.9121198,-14.89723 22.8790098,-31.24082 42.5661598,-36.67869 6.54635,-1.8082 18.03948,-0.30829 24.68707,3.22179 3.66712,1.94736 3.81623,1.9506 6.5,0.14083 8.63828,-5.82513 33.724714,-8.0089 42.604924,-3.70876 2.2181,1.0741 3.33778,1.12594 5,0.2315 14.27543,-7.68161 42.25353,5.99579 52.8067,25.81515 l 3.66486,6.88277 5.55197,0.70989 c 7.28927,0.93204 13.58478,3.88704 18.7507,8.80126 5.00193,4.75822 4.14943,4.66025 8.70387,1.0002 9.9647,-8.00785 29.41708,0.62786 37.14155,16.48865 0.80358,1.65 2.71231,4.88108 4.24163,7.18018 l 17.84985,39.33452 c 35.3474,8.18497 38.5892,36.16372 35.28761,68.2353 -0.36605,1.30291 0.10038,1.75277 1.82572,1.76082 13.9438,0.0651 29.47966,13.46541 34.76851,29.98918 l 2.7872,47 -509.70766,0 c 3.22075,-28.74568 13.92527,-83.17062 51.8399,-63.6614 z"
         id="path3224"
         sodipodi:nodetypes="cscccccssssscccssscccscccc" />
      <path
         sodipodi:type="inkscape:offset"
         inkscape:radius="0"
         inkscape:original="M 104.53125 455.0625 C 94.254465 455.16441 82.430175 457.39054 77.03125 461.03125 C 74.34748 462.84102 74.19837 462.85361 70.53125 460.90625 C 63.88366 457.37617 52.3901 455.8793 45.84375 457.6875 C 26.1566 463.12537 11.19337 479.44652 3.28125 494.34375 C -13.895638 488.2213 -55.615973 528.03335 -39.15625 571.21875 C -60.35448 573.86729 -78.86991 591.19395 -80.5625 624.25 L -81.21875 637.25 L -87.1875 638 C -94.147 638.8659 -100.2308 641.47645 -105.0625 645.71875 C -108.2117 648.48378 -108.62094 648.60978 -109.875 647.09375 C -147.78963 627.58453 -158.46675 682.00432 -161.6875 710.75 L 348 710.75 L 345.21875 663.75 C 339.9299 647.22623 324.3813 633.84635 310.4375 633.78125 C 308.71216 633.7732 308.25895 633.30291 308.625 632 C 311.92659 599.92842 308.69115 571.96622 273.34375 563.78125 L 255.5 524.4375 C 253.97068 522.1384 252.05358 518.9 251.25 517.25 C 243.52553 501.38921 224.05845 492.7734 214.09375 500.78125 C 209.53931 504.4413 210.40818 504.53947 205.40625 499.78125 C 200.24033 494.86703 193.94552 491.90079 186.65625 490.96875 L 181.09375 490.25 L 177.4375 483.375 C 166.88433 463.55564 138.90043 449.88089 124.625 457.5625 C 122.96278 458.45694 121.8431 458.41785 119.625 457.34375 C 116.29492 455.7312 110.69732 455.00135 104.53125 455.0625 z "
         xlink:href="#path3224"
         style="fill:url(#linearGradient3193);fill-opacity:1;stroke:none;stroke-width:2.52632617999999990;stroke-linejoin:round;stroke-miterlimit:4;stroke-opacity:1;stroke-dasharray:none;filter:url(#filter3209)"
         id="path3610"
         inkscape:href="#path3224"
         d="m 104.53125,455.0625 c -10.276785,0.10191 -22.101075,2.32804 -27.5,5.96875 -2.68377,1.80977 -2.83288,1.82236 -6.5,-0.125 -6.64759,-3.53008 -18.14115,-5.02695 -24.6875,-3.21875 -19.68715,5.43787 -34.65038,21.75902 -42.5625,36.65625 -17.176888,-6.12245 -58.897223,33.6896 -42.4375,76.875 -21.19823,2.64854 -39.71366,19.9752 -41.40625,53.03125 l -0.65625,13 -5.96875,0.75 c -6.9595,0.8659 -13.0433,3.47645 -17.875,7.71875 -3.1492,2.76503 -3.55844,2.89103 -4.8125,1.375 -37.91463,-19.50922 -48.59175,34.91057 -51.8125,63.65625 l 509.6875,0 -2.78125,-47 c -5.28885,-16.52377 -20.83745,-29.90365 -34.78125,-29.96875 -1.72534,-0.008 -2.17855,-0.47834 -1.8125,-1.78125 3.30159,-32.07158 0.0661,-60.03378 -35.28125,-68.21875 L 255.5,524.4375 c -1.52932,-2.2991 -3.44642,-5.5375 -4.25,-7.1875 -7.72447,-15.86079 -27.19155,-24.4766 -37.15625,-16.46875 -4.55444,3.66005 -3.68557,3.75822 -8.6875,-1 -5.16592,-4.91422 -11.46073,-7.88046 -18.75,-8.8125 l -5.5625,-0.71875 -3.65625,-6.875 c -10.55317,-19.81936 -38.53707,-33.49411 -52.8125,-25.8125 -1.66222,0.89444 -2.7819,0.85535 -5,-0.21875 -3.33008,-1.61255 -8.92768,-2.3424 -15.09375,-2.28125 z" />
      <path
         sodipodi:type="inkscape:offset"
         inkscape:radius="0"
         inkscape:original="M 104.53125 455.0625 C 94.254465 455.16441 82.430175 457.39054 77.03125 461.03125 C 74.34748 462.84102 74.19837 462.85361 70.53125 460.90625 C 63.88366 457.37617 52.3901 455.8793 45.84375 457.6875 C 26.1566 463.12537 11.19337 479.44652 3.28125 494.34375 C -13.895638 488.2213 -55.615973 528.03335 -39.15625 571.21875 C -60.35448 573.86729 -78.86991 591.19395 -80.5625 624.25 L -81.21875 637.25 L -87.1875 638 C -94.147 638.8659 -100.2308 641.47645 -105.0625 645.71875 C -108.2117 648.48378 -108.62094 648.60978 -109.875 647.09375 C -147.78963 627.58453 -158.46675 682.00432 -161.6875 710.75 L 348 710.75 L 345.21875 663.75 C 339.9299 647.22623 324.3813 633.84635 310.4375 633.78125 C 308.71216 633.7732 308.25895 633.30291 308.625 632 C 311.92659 599.92842 308.69115 571.96622 273.34375 563.78125 L 255.5 524.4375 C 253.97068 522.1384 252.05358 518.9 251.25 517.25 C 243.52553 501.38921 224.05845 492.7734 214.09375 500.78125 C 209.53931 504.4413 210.40818 504.53947 205.40625 499.78125 C 200.24033 494.86703 193.94552 491.90079 186.65625 490.96875 L 181.09375 490.25 L 177.4375 483.375 C 166.88433 463.55564 138.90043 449.88089 124.625 457.5625 C 122.96278 458.45694 121.8431 458.41785 119.625 457.34375 C 116.29492 455.7312 110.69732 455.00135 104.53125 455.0625 z "
         xlink:href="#path3224"
         style="opacity:0.2;fill:#00e305;fill-opacity:1;stroke:none;filter:url(#filter3192)"
         id="path3197"
         inkscape:href="#path3224"
         d="m 104.53125,455.0625 c -10.276785,0.10191 -22.101075,2.32804 -27.5,5.96875 -2.68377,1.80977 -2.83288,1.82236 -6.5,-0.125 -6.64759,-3.53008 -18.14115,-5.02695 -24.6875,-3.21875 -19.68715,5.43787 -34.65038,21.75902 -42.5625,36.65625 -17.176888,-6.12245 -58.897223,33.6896 -42.4375,76.875 -21.19823,2.64854 -39.71366,19.9752 -41.40625,53.03125 l -0.65625,13 -5.96875,0.75 c -6.9595,0.8659 -13.0433,3.47645 -17.875,7.71875 -3.1492,2.76503 -3.55844,2.89103 -4.8125,1.375 -37.91463,-19.50922 -48.59175,34.91057 -51.8125,63.65625 l 509.6875,0 -2.78125,-47 c -5.28885,-16.52377 -20.83745,-29.90365 -34.78125,-29.96875 -1.72534,-0.008 -2.17855,-0.47834 -1.8125,-1.78125 3.30159,-32.07158 0.0661,-60.03378 -35.28125,-68.21875 L 255.5,524.4375 c -1.52932,-2.2991 -3.44642,-5.5375 -4.25,-7.1875 -7.72447,-15.86079 -27.19155,-24.4766 -37.15625,-16.46875 -4.55444,3.66005 -3.68557,3.75822 -8.6875,-1 -5.16592,-4.91422 -11.46073,-7.88046 -18.75,-8.8125 l -5.5625,-0.71875 -3.65625,-6.875 c -10.55317,-19.81936 -38.53707,-33.49411 -52.8125,-25.8125 -1.66222,0.89444 -2.7819,0.85535 -5,-0.21875 -3.33008,-1.61255 -8.92768,-2.3424 -15.09375,-2.28125 z"
         transform="translate(0,2.016516)" />
    </g>
  </g>
</svg>
