<?xml version="1.0" encoding="UTF-8" standalone="no"?>
<!-- Created with Inkscape (http://www.inkscape.org/) -->
<svg
   xmlns:dc="http://purl.org/dc/elements/1.1/"
   xmlns:cc="http://creativecommons.org/ns#"
   xmlns:rdf="http://www.w3.org/1999/02/22-rdf-syntax-ns#"
   xmlns:svg="http://www.w3.org/2000/svg"
   xmlns="http://www.w3.org/2000/svg"
   xmlns:xlink="http://www.w3.org/1999/xlink"
   xmlns:sodipodi="http://sodipodi.sourceforge.net/DTD/sodipodi-0.dtd"
   xmlns:inkscape="http://www.inkscape.org/namespaces/inkscape"
   width="128"
   height="128"
   id="svg2"
   sodipodi:version="0.32"
   inkscape:version="0.46"
   version="1.0"
   sodipodi:docbase="D:\Dateien\Desktop\Secret Maryo Chronicles\Drafts\Game\Frostbringer\level\ground\green_2\hedges"
   sodipodi:docname="big_3.svg"
   inkscape:export-filename="D:\Dateien\Desktop\Secret Maryo Chronicles\SMC\data\pixmaps\ground\green_2\hedges\big_3.png"
   inkscape:export-xdpi="360"
   inkscape:export-ydpi="360"
   inkscape:output_extension="org.inkscape.output.svg.inkscape">
  <defs
     id="defs4">
    <linearGradient
       id="linearGradient3200">
      <stop
         style="stop-color:#38d217;stop-opacity:1;"
         offset="0"
         id="stop3202" />
      <stop
         id="stop3204"
         offset="1"
         style="stop-color:#259525;stop-opacity:1;" />
    </linearGradient>
    <inkscape:perspective
       sodipodi:type="inkscape:persp3d"
       inkscape:vp_x="0 : 64 : 1"
       inkscape:vp_y="0 : 1000 : 0"
       inkscape:vp_z="128 : 64 : 1"
       inkscape:persp3d-origin="64 : 42.666667 : 1"
       id="perspective22" />
    <linearGradient
       id="linearGradient2766">
      <stop
         id="stop3167"
         offset="0"
         style="stop-color:#d1ec51;stop-opacity:1;" />
      <stop
         style="stop-color:#1f801f;stop-opacity:1;"
         offset="1"
         id="stop2770" />
    </linearGradient>
    <radialGradient
       inkscape:collect="always"
       xlink:href="#linearGradient3200"
       id="radialGradient3165"
       cx="28.677069"
       cy="66.401688"
       fx="28.677069"
       fy="66.401688"
       r="27.376406"
       gradientTransform="matrix(1.5968591,0,0,1.8218072,-14.337688,-54.313107)"
       gradientUnits="userSpaceOnUse" />
    <radialGradient
       inkscape:collect="always"
       xlink:href="#linearGradient3200"
       id="radialGradient3169"
       cx="56.678352"
       cy="42.036148"
       fx="56.678352"
       fy="42.036148"
       r="45.427795"
       gradientTransform="matrix(1.5132286,0,0,1.6531884,-31.091206,-36.431173)"
       gradientUnits="userSpaceOnUse" />
    <radialGradient
       inkscape:collect="always"
       xlink:href="#linearGradient3200"
       id="radialGradient3171"
       cx="96.114944"
       cy="88.509514"
       fx="96.114944"
       fy="88.509514"
       r="20.59"
       gradientTransform="matrix(1.4761955,0,0,1.7027836,-49.537613,-62.83937)"
       gradientUnits="userSpaceOnUse" />
    <filter
       inkscape:collect="always"
       id="filter3207"
       x="-0.13843657"
       width="1.2768731"
       y="-0.073476419"
       height="1.1469528">
      <feGaussianBlur
         inkscape:collect="always"
         stdDeviation="1.3577438"
         id="feGaussianBlur3209" />
    </filter>
    <radialGradient
       inkscape:collect="always"
       xlink:href="#linearGradient3200"
       id="radialGradient3289"
       gradientUnits="userSpaceOnUse"
       gradientTransform="matrix(1.1016158,0,0,1.2255312,-68.508332,-9.4317964)"
       cx="96.114944"
       cy="88.509514"
       fx="96.114944"
       fy="88.509514"
       r="20.59" />
    <filter
       inkscape:collect="always"
       id="filter3309">
      <feGaussianBlur
         inkscape:collect="always"
         stdDeviation="0.51066133"
         id="feGaussianBlur3311" />
    </filter>
    <radialGradient
       inkscape:collect="always"
       xlink:href="#linearGradient2766"
       id="radialGradient3198"
       gradientUnits="userSpaceOnUse"
       gradientTransform="matrix(1.1016158,0,0,1.2255312,-68.508332,-9.4317964)"
       cx="95.492516"
       cy="87.390526"
       fx="95.492516"
       fy="87.390526"
       r="20.59" />
    <filter
       inkscape:collect="always"
       id="filter3218"
       x="-0.10183261"
       width="1.2036652"
       y="-0.090799338"
       height="1.1815987">
      <feGaussianBlur
         inkscape:collect="always"
         stdDeviation="1.5050463"
         id="feGaussianBlur3220" />
    </filter>
    <radialGradient
       inkscape:collect="always"
       xlink:href="#linearGradient2766"
       id="radialGradient3224"
       gradientUnits="userSpaceOnUse"
       gradientTransform="matrix(1.4761955,0,0,1.7027836,-49.537613,-62.83937)"
       cx="96.114944"
       cy="88.509514"
       fx="96.114944"
       fy="88.509514"
       r="20.59" />
    <filter
       inkscape:collect="always"
       id="filter3226"
       x="-0.10379678"
       width="1.2075936"
       y="-0.089292705"
       height="1.1785854">
      <feGaussianBlur
         inkscape:collect="always"
         stdDeviation="2.0567553"
         id="feGaussianBlur3228" />
    </filter>
    <radialGradient
       inkscape:collect="always"
       xlink:href="#linearGradient2766"
       id="radialGradient3232"
       gradientUnits="userSpaceOnUse"
       gradientTransform="matrix(1.5968591,0,0,1.8218072,-14.337688,-54.313107)"
       cx="28.677069"
       cy="66.401688"
       fx="28.677069"
       fy="66.401688"
       r="27.376406" />
    <radialGradient
       inkscape:collect="always"
       xlink:href="#linearGradient3200"
       id="radialGradient3254"
       gradientUnits="userSpaceOnUse"
       gradientTransform="matrix(1.8968044,1.765683,-1.768356,1.8996759,95.014848,-108.97971)"
       cx="31.478781"
       cy="66.66729"
       fx="31.478781"
       fy="66.66729"
       r="27.376406" />
    <filter
       inkscape:collect="always"
       id="filter3256"
       x="-0.089914198"
       width="1.1798284"
       y="-0.10296944"
       height="1.2059389">
      <feGaussianBlur
         inkscape:collect="always"
         stdDeviation="3.1564245"
         id="feGaussianBlur3258" />
    </filter>
    <radialGradient
       inkscape:collect="always"
       xlink:href="#linearGradient2766"
       id="radialGradient3260"
       gradientUnits="userSpaceOnUse"
       gradientTransform="matrix(3.0991439,0.3420257,-0.184673,1.6733483,-45.153286,-54.29389)"
       cx="30.547247"
       cy="66.242485"
       fx="30.547247"
       fy="66.242485"
       r="27.376406" />
    <radialGradient
       inkscape:collect="always"
       xlink:href="#linearGradient2766"
       id="radialGradient3264"
       gradientUnits="userSpaceOnUse"
       gradientTransform="matrix(1.5393599,5.9097652e-3,-7.4187826e-3,1.9324247,-32.245607,-47.044391)"
       cx="54.639297"
       cy="36.851627"
       fx="54.639297"
       fy="36.851627"
       r="45.427795" />
    <filter
       inkscape:collect="always"
       id="filter3266"
       x="-0.10059345"
       width="1.2011869"
       y="-0.091807732"
       height="1.1836155">
      <feGaussianBlur
         inkscape:collect="always"
         stdDeviation="4.7386179"
         id="feGaussianBlur3268" />
    </filter>
    <radialGradient
       inkscape:collect="always"
       xlink:href="#linearGradient2766"
       id="radialGradient3238"
       gradientUnits="userSpaceOnUse"
       gradientTransform="matrix(1.1016158,0,0,1.2255312,-68.508332,-9.4317964)"
       cx="95.492516"
       cy="87.390526"
       fx="95.492516"
       fy="87.390526"
       r="20.59" />
    <radialGradient
       inkscape:collect="always"
       xlink:href="#linearGradient3200"
       id="radialGradient3240"
       gradientUnits="userSpaceOnUse"
       gradientTransform="matrix(1.1016158,0,0,1.2255312,-68.508332,-9.4317964)"
       cx="96.114944"
       cy="88.509514"
       fx="96.114944"
       fy="88.509514"
       r="20.59" />
    <radialGradient
       inkscape:collect="always"
       xlink:href="#linearGradient2766"
       id="radialGradient3242"
       gradientUnits="userSpaceOnUse"
       gradientTransform="matrix(1.4761955,0,0,1.7027836,-49.537613,-62.83937)"
       cx="96.114944"
       cy="88.509514"
       fx="96.114944"
       fy="88.509514"
       r="20.59" />
    <radialGradient
       inkscape:collect="always"
       xlink:href="#linearGradient3200"
       id="radialGradient3244"
       gradientUnits="userSpaceOnUse"
       gradientTransform="matrix(1.4761955,0,0,1.7027836,-49.537613,-62.83937)"
       cx="96.114944"
       cy="88.509514"
       fx="96.114944"
       fy="88.509514"
       r="20.59" />
    <radialGradient
       inkscape:collect="always"
       xlink:href="#linearGradient2766"
       id="radialGradient3246"
       gradientUnits="userSpaceOnUse"
       gradientTransform="matrix(1.5393599,5.9097652e-3,-7.4187826e-3,1.9324247,-32.245607,-47.044391)"
       cx="54.639297"
       cy="36.851627"
       fx="54.639297"
       fy="36.851627"
       r="45.427795" />
    <radialGradient
       inkscape:collect="always"
       xlink:href="#linearGradient3200"
       id="radialGradient3248"
       gradientUnits="userSpaceOnUse"
       gradientTransform="matrix(1.5132286,0,0,1.6531884,-31.091206,-36.431173)"
       cx="56.678352"
       cy="42.036148"
       fx="56.678352"
       fy="42.036148"
       r="45.427795" />
    <radialGradient
       inkscape:collect="always"
       xlink:href="#linearGradient2766"
       id="radialGradient3250"
       gradientUnits="userSpaceOnUse"
       gradientTransform="matrix(3.0991439,0.3420257,-0.184673,1.6733483,-45.153286,-54.29389)"
       cx="30.547247"
       cy="66.242485"
       fx="30.547247"
       fy="66.242485"
       r="27.376406" />
    <radialGradient
       inkscape:collect="always"
       xlink:href="#linearGradient3200"
       id="radialGradient3252"
       gradientUnits="userSpaceOnUse"
       gradientTransform="matrix(1.8968044,1.765683,-1.768356,1.8996759,95.014848,-108.97971)"
       cx="31.478781"
       cy="66.66729"
       fx="31.478781"
       fy="66.66729"
       r="27.376406" />
  </defs>
  <sodipodi:namedview
     id="base"
     pagecolor="#000000"
     bordercolor="#666666"
     borderopacity="1.0"
     inkscape:pageopacity="0"
     inkscape:pageshadow="2"
     inkscape:zoom="2.9168155"
     inkscape:cx="37.611144"
     inkscape:cy="81.884395"
     inkscape:document-units="px"
     inkscape:current-layer="layer2"
     width="128px"
     height="128px"
     showgrid="false"
     gridtolerance="10000"
     inkscape:grid-points="true"
     inkscape:window-width="1106"
     inkscape:window-height="848"
     inkscape:window-x="77"
     inkscape:window-y="43">
    <inkscape:grid
       id="GridFromPre046Settings"
       type="xygrid"
       originx="0px"
       originy="0px"
       spacingx="4px"
       spacingy="4px"
       color="#0000ff"
       empcolor="#0000ff"
       opacity="0.2"
       empopacity="0.4"
       empspacing="5" />
  </sodipodi:namedview>
  <metadata
     id="metadata7">
    <rdf:RDF>
      <cc:Work
         rdf:about="">
        <dc:format>image/svg+xml</dc:format>
        <dc:type
           rdf:resource="http://purl.org/dc/dcmitype/StillImage" />
      </cc:Work>
    </rdf:RDF>
  </metadata>
  <g
     inkscape:label="hill_back"
     inkscape:groupmode="layer"
     id="layer1"
     style="display:inline">
    <g
       id="g3230"
       transform="translate(0,-0.300002)">
      <path
         sodipodi:nodetypes="cssssc"
         id="path1874"
         d="M 119.24401,81.984374 C 119.24401,124.99832 129.67117,127.93945 99.114367,127.93945 C 83.835965,127.93945 38.725426,127.93945 23.628191,127.93945 C 3.2351526,127.93945 8.5309558,103.49135 8.5309558,81.984374 C 8.5309558,38.970424 33.330681,4.060552 63.887485,4.060552 C 94.444289,4.060552 119.24401,38.970424 119.24401,81.984374 z"
         style="fill:url(#radialGradient3246);fill-opacity:1;stroke:#000000;stroke-width:1.121104;stroke-miterlimit:4;stroke-dashoffset:0;stroke-opacity:1;display:inline" />
      <path
         transform="matrix(0.9232015,0,0,0.9232015,4.9488504,5.0686993)"
         d="M 63.875,4.0625 C 33.318196,4.0625 8.5312495,38.954799 8.53125,81.96875 C 8.53125,103.47573 3.2319616,127.9375 23.625,127.9375 C 38.722235,127.9375 83.8466,127.9375 99.125,127.9375 C 129.6818,127.9375 119.25,125.01395 119.25,82 C 119.25,38.98605 94.431803,4.0624999 63.875,4.0625 z"
         inkscape:href="#path1874"
         id="path3262"
         style="fill:url(#radialGradient3248);fill-opacity:1;stroke:none;stroke-width:1.121104;stroke-miterlimit:4;stroke-dashoffset:0;stroke-opacity:1;display:inline;filter:url(#filter3266)"
         xlink:href="#path1874"
         inkscape:original="M 63.875 4.0625 C 33.318196 4.0625 8.5312495 38.954799 8.53125 81.96875 C 8.53125 103.47573 3.2319616 127.9375 23.625 127.9375 C 38.722235 127.9375 83.8466 127.9375 99.125 127.9375 C 129.6818 127.9375 119.25 125.01395 119.25 82 C 119.25 38.98605 94.431803 4.0624999 63.875 4.0625 z "
         inkscape:radius="0"
         sodipodi:type="inkscape:offset" />
      <path
         transform="translate(33.063502,16.570023)"
         d="M 58.933387,41.149444 C 57.203909,41.158829 56.906747,33.348564 55.642498,32.195635 C 54.37825,31.042707 46.64382,29.579095 46.656834,27.829258 C 46.669849,26.079421 54.224478,24.208091 55.492084,23.088585 C 56.759689,21.969079 58.228065,15.782999 59.942451,15.776115 C 61.656836,15.76923 62.189679,22.294531 63.361969,23.57747 C 64.534258,24.860409 72.27295,26.375231 72.34886,28.046894 C 72.42477,29.718556 64.639892,31.095066 63.364112,32.188227 C 62.088332,33.281387 60.662866,41.140059 58.933387,41.149444 z"
         inkscape:randomized="0.047"
         inkscape:rounded="0.18"
         inkscape:flatsided="false"
         sodipodi:arg2="2.3832149"
         sodipodi:arg1="1.5978168"
         sodipodi:r2="5.8372617"
         sodipodi:r1="12.689699"
         sodipodi:cy="27.890821"
         sodipodi:cx="59.31126"
         sodipodi:sides="4"
         id="path3313"
         style="opacity:0.98999999;fill:#efff70;fill-opacity:1;fill-rule:nonzero;stroke:#a9be00;stroke-width:0.99900001;stroke-linecap:round;stroke-linejoin:round;stroke-miterlimit:4;stroke-dasharray:none;stroke-dashoffset:0;stroke-opacity:1;display:inline;filter:url(#filter3309)"
         sodipodi:type="star" />
      <path
         transform="translate(-4.6488594,2.8564376)"
         d="M 58.933387,41.149444 C 57.043114,41.159701 55.594926,33.601956 54.225418,32.294087 C 52.855911,30.986218 46.64261,29.741783 46.656834,27.829258 C 46.671059,25.916734 53.534159,23.903666 54.927202,22.715543 C 56.320245,21.52742 58.068674,15.78364 59.942451,15.776115 C 61.816227,15.76859 62.360287,22.684264 63.566555,24.083859 C 64.772823,25.483454 72.265892,26.219812 72.34886,28.046894 C 72.431828,29.873975 65.495122,31.355735 64.05883,32.572618 C 62.622538,33.789501 60.823661,41.139186 58.933387,41.149444 z"
         inkscape:randomized="0.047"
         inkscape:rounded="0.2"
         inkscape:flatsided="false"
         sodipodi:arg2="2.3832149"
         sodipodi:arg1="1.5978168"
         sodipodi:r2="6.3448496"
         sodipodi:r1="12.689699"
         sodipodi:cy="27.890821"
         sodipodi:cx="59.31126"
         sodipodi:sides="4"
         id="path3303"
         style="opacity:0.98999999;fill:#efff70;fill-opacity:1;fill-rule:nonzero;stroke:#a9be00;stroke-width:0.99900001;stroke-linecap:round;stroke-linejoin:round;stroke-miterlimit:4;stroke-dasharray:none;stroke-dashoffset:0;stroke-opacity:1;display:inline;filter:url(#filter3309)"
         sodipodi:type="star" />
      <path
         transform="translate(-0.8776238,36.111883)"
         d="M 58.933387,41.149444 C 56.579359,41.162218 56.22767,33.859065 54.677269,32.123647 C 53.126867,30.388228 46.639121,30.210997 46.656834,27.829258 C 46.674548,25.447519 52.897871,24.481989 54.575631,22.916249 C 56.253392,21.35051 57.608966,15.785486 59.942451,15.776115 C 62.275936,15.766744 62.34276,21.313357 64.000938,22.939575 C 65.659115,24.565793 72.245537,25.77156 72.34886,28.046894 C 72.452183,30.322227 66.000264,31.417719 64.344888,33.043206 C 62.689512,34.668693 61.287416,41.136669 58.933387,41.149444 z"
         inkscape:randomized="0.047"
         inkscape:rounded="0.25"
         inkscape:flatsided="false"
         sodipodi:arg2="2.3832149"
         sodipodi:arg1="1.5978168"
         sodipodi:r2="6.4717464"
         sodipodi:r1="12.689699"
         sodipodi:cy="27.890821"
         sodipodi:cx="59.31126"
         sodipodi:sides="4"
         id="path3317"
         style="opacity:0.98999999;fill:#efff70;fill-opacity:1;fill-rule:nonzero;stroke:#a9be00;stroke-width:0.99900001;stroke-linecap:round;stroke-linejoin:round;stroke-miterlimit:4;stroke-dasharray:none;stroke-dashoffset:0;stroke-opacity:1;display:inline;filter:url(#filter3309)"
         sodipodi:type="star" />
      <path
         transform="translate(39.577455,50.168309)"
         d="M 58.933387,41.149444 C 57.094615,41.159422 54.968369,34.54934 53.667974,33.333515 C 52.367578,32.11769 46.642998,29.689676 46.656834,27.829258 C 46.670671,25.96884 52.537562,23.219666 53.918533,21.999622 C 55.299504,20.779578 58.119725,15.783435 59.942451,15.776115 C 61.765177,15.768795 63.795434,21.104968 65.075765,22.38332 C 66.356096,23.661672 72.268153,26.269591 72.34886,28.046894 C 72.429568,29.824196 66.249865,32.420576 64.823978,33.614167 C 63.398092,34.807758 60.77216,41.139465 58.933387,41.149444 z"
         inkscape:randomized="0.047"
         inkscape:rounded="0.2"
         inkscape:flatsided="false"
         sodipodi:arg2="2.3832149"
         sodipodi:arg1="1.5978168"
         sodipodi:r2="7.4869223"
         sodipodi:r1="12.689699"
         sodipodi:cy="27.890821"
         sodipodi:cx="59.31126"
         sodipodi:sides="4"
         id="path3325"
         style="opacity:0.98999999;fill:#efff70;fill-opacity:1;fill-rule:nonzero;stroke:#a9be00;stroke-width:0.99900001;stroke-linecap:round;stroke-linejoin:round;stroke-miterlimit:4;stroke-dasharray:none;stroke-dashoffset:0;stroke-opacity:1;display:inline;filter:url(#filter3309)"
         sodipodi:type="star" />
    </g>
  </g>
  <g
     inkscape:groupmode="layer"
     id="layer3"
     inkscape:label="hill_middle"
     style="display:inline">
    <path
       sodipodi:nodetypes="csssc"
       id="path3281"
       d="M 17.862019,43.322172 C 12.623166,51.495291 7.3332673,64.114072 5.7304326,66.097114 C 4.6873654,67.387607 -1.5491424,74.479845 5.2129227,56.467693 C 14.532958,31.641862 25.328472,22.872806 32.439241,26.733433 C 37.396171,29.424683 24.03188,35.315515 17.862019,43.322172 z"
       style="fill:#ffeb70;fill-opacity:0.32478632;stroke:none;stroke-width:0;stroke-miterlimit:4;stroke-dasharray:none;stroke-dashoffset:0;stroke-opacity:1;display:inline;filter:url(#filter3207)"
       transform="matrix(0.5976416,0,0,0.4733422,64.621185,44.638917)" />
    <g
       id="g3222"
       transform="translate(0,-0.3673197)">
      <path
         sodipodi:nodetypes="cssssscsc"
         id="path1876"
         d="M 96.50696,98.652964 C 95.801621,129.67355 98.83871,127.33704 85.87403,127.70966 C 65.130806,128.30584 40.174332,127.45771 14.234216,128.0525 C 6.1088264,128.2388 4.4993813,127.26022 4.4993813,93.853209 C 4.4993813,68.399714 19.630914,47.054467 38.246808,47.741805 C 56.817769,48.427484 64.734958,65.017662 64.848956,75.651712 C 64.950526,85.126396 64.61362,89.371762 64.975614,76.165876 C 65.534312,71.891017 74.286682,56.088212 82.997392,56.139792 C 93.11948,56.199729 95.786669,80.87272 96.50696,98.652964 z"
         style="fill:url(#radialGradient3250);fill-opacity:1;stroke:#000000;stroke-width:0.99900001;stroke-linecap:round;stroke-linejoin:round;stroke-miterlimit:4;stroke-dasharray:none;stroke-dashoffset:0;stroke-opacity:1" />
      <path
         sodipodi:nodetypes="cssssscsc"
         id="path3250"
         d="M 92.628992,97.746249 C 91.98311,126.1519 94.764183,124.01235 82.892383,124.35356 C 63.897744,124.89949 41.045019,124.12285 17.29157,124.6675 C 9.8511238,124.8381 8.3773496,123.94201 8.3773496,93.351098 C 8.3773496,70.043249 22.233344,50.497336 39.279979,51.126734 C 56.285469,51.754612 63.878105,75.174445 63.982493,84.912079 C 64.075501,93.588079 63.766995,97.475574 64.098475,85.382901 C 64.610076,81.468399 74.338848,59.112406 82.315274,59.159638 C 91.584103,59.214523 91.969419,81.464822 92.628992,97.746249 z"
         style="fill:url(#radialGradient3252);fill-opacity:1;stroke:none;stroke-width:0.91478759;stroke-linecap:round;stroke-linejoin:round;stroke-miterlimit:4;stroke-dasharray:none;stroke-dashoffset:0;stroke-opacity:1;display:inline;filter:url(#filter3256)" />
      <path
         transform="matrix(0.7479413,0,0,0.7585592,-21.124641,61.263559)"
         d="M 58.928915,41.222663 C 57.165043,41.239542 55.031352,34.428112 53.836842,33.099323 C 52.642332,31.770534 46.651922,29.652506 46.660746,27.865166 C 46.669571,26.077826 53.601942,24.738682 54.865192,23.570983 C 56.128441,22.403284 58.232713,15.862861 59.979262,15.848927 C 61.72581,15.834992 63.720622,22.210534 64.849879,23.482431 C 65.979137,24.754328 72.301082,26.326088 72.393864,28.023051 C 72.486647,29.720014 65.159313,31.85582 63.821529,33.010771 C 62.483745,34.165723 60.692787,41.205785 58.928915,41.222663 z"
         inkscape:randomized="0.053"
         inkscape:rounded="0.189"
         inkscape:flatsided="false"
         sodipodi:arg2="2.3832149"
         sodipodi:arg1="1.5978168"
         sodipodi:r2="6.8524375"
         sodipodi:r1="12.689699"
         sodipodi:cy="27.890821"
         sodipodi:cx="59.31126"
         sodipodi:sides="4"
         id="path3327"
         style="opacity:0.98999999;fill:#efff70;fill-opacity:1;fill-rule:nonzero;stroke:#a9be00;stroke-width:0.99900001;stroke-linecap:round;stroke-linejoin:round;stroke-miterlimit:4;stroke-dasharray:none;stroke-dashoffset:0;stroke-opacity:1;display:inline;filter:url(#filter3309)"
         sodipodi:type="star" />
      <path
         transform="matrix(0.7479507,0,0,0.7585596,7.3117948,72.170732)"
         d="M 58.928915,41.222663 C 57.51512,41.236192 54.958078,33.726343 53.951329,32.765811 C 52.94458,31.80528 46.653673,29.297771 46.660746,27.865166 C 46.667819,26.432561 54.141577,24.7594 55.224187,23.832628 C 56.306797,22.905856 58.579352,15.860095 59.979262,15.848927 C 61.379171,15.837758 62.480046,22.002654 63.462776,22.94275 C 64.445506,23.882847 72.319496,26.662886 72.393864,28.023051 C 72.468232,29.383216 64.905855,31.836692 63.808251,32.737644 C 62.710648,33.638595 60.34271,41.209135 58.928915,41.222663 z"
         inkscape:randomized="0.053"
         inkscape:rounded="0.15"
         inkscape:flatsided="false"
         sodipodi:arg2="2.3832149"
         sodipodi:arg1="1.5978168"
         sodipodi:r2="6.484436"
         sodipodi:r1="12.689699"
         sodipodi:cy="27.890821"
         sodipodi:cx="59.31126"
         sodipodi:sides="4"
         id="path3335"
         style="opacity:0.98999999;fill:#efff70;fill-opacity:1;fill-rule:nonzero;stroke:#a9be00;stroke-width:0.99900001;stroke-linecap:round;stroke-linejoin:round;stroke-miterlimit:4;stroke-dasharray:none;stroke-dashoffset:0;stroke-opacity:1;display:inline;filter:url(#filter3309)"
         sodipodi:type="star" />
      <path
         transform="matrix(0.7479409,0,0,0.7585594,35.425103,71.485064)"
         d="M 58.928915,41.222663 C 57.093938,41.240222 56.439762,32.578244 55.206915,31.218149 C 53.974068,29.858053 46.651566,29.724557 46.660746,27.865166 C 46.669926,26.005774 54.245524,25.056202 55.619251,23.920323 C 56.992978,22.784444 58.162306,15.863423 59.979262,15.848927 C 61.796217,15.834431 62.669475,23.32022 63.847695,24.670068 C 65.025915,26.019915 72.297341,26.25768 72.393864,28.023051 C 72.490387,29.788422 64.677799,31.123555 63.36144,32.427011 C 62.045081,33.730467 60.763893,41.205105 58.928915,41.222663 z"
         inkscape:randomized="0.053"
         inkscape:rounded="0.189"
         inkscape:flatsided="false"
         sodipodi:arg2="2.3832149"
         sodipodi:arg1="1.5978168"
         sodipodi:r2="5.5834675"
         sodipodi:r1="12.689699"
         sodipodi:cy="27.890821"
         sodipodi:cx="59.31126"
         sodipodi:sides="4"
         id="path3337"
         style="opacity:0.98999999;fill:#efff70;fill-opacity:1;fill-rule:nonzero;stroke:#a9be00;stroke-width:0.99900001;stroke-linecap:round;stroke-linejoin:round;stroke-miterlimit:4;stroke-dasharray:none;stroke-dashoffset:0;stroke-opacity:1;display:inline;filter:url(#filter3309)"
         sodipodi:type="star" />
      <path
         transform="matrix(0.747905,0,0,0.7585599,-17.094397,93.66882)"
         d="M 58.928915,41.222663 C 56.172019,41.249044 56.75331,34.659246 54.856052,32.733116 C 52.958795,30.806986 46.646954,30.658742 46.660746,27.865166 C 46.674539,25.07159 53.622591,25.628664 55.559869,23.652258 C 57.497148,21.675851 57.249441,15.870705 59.979262,15.848927 C 62.709081,15.827148 62.109029,21.994661 64.029974,23.824358 C 65.950918,25.654055 72.248847,25.370732 72.393864,28.023051 C 72.538882,30.675369 65.244376,29.774314 63.471228,31.754578 C 61.698081,33.734843 61.685811,41.196283 58.928915,41.222663 z"
         inkscape:randomized="0.053"
         inkscape:rounded="0.289"
         inkscape:flatsided="false"
         sodipodi:arg2="2.3832149"
         sodipodi:arg1="1.5978168"
         sodipodi:r2="6.0910554"
         sodipodi:r1="12.689699"
         sodipodi:cy="27.890821"
         sodipodi:cx="59.31126"
         sodipodi:sides="4"
         id="path3343"
         style="opacity:0.98999999;fill:#efff70;fill-opacity:1;fill-rule:nonzero;stroke:#a9be00;stroke-width:0.99900001;stroke-linecap:round;stroke-linejoin:round;stroke-miterlimit:4;stroke-dasharray:none;stroke-dashoffset:0;stroke-opacity:1;display:inline;filter:url(#filter3309)"
         sodipodi:type="star" />
    </g>
  </g>
  <g
     inkscape:groupmode="layer"
     id="layer2"
     style="display:inline">
    <g
       id="g3215"
       transform="translate(0,-0.4420042)">
      <path
         sodipodi:nodetypes="cssssc"
         id="path1878"
         d="M 120.49099,111.86235 C 121.08253,120.68677 121.08253,128.11785 111.61785,128.11785 C 105.08722,128.11785 92.688497,128.11785 83.223821,128.11785 C 73.262361,128.11785 73.167602,122.63 73.167602,111.86235 C 73.167602,90.327066 83.768039,72.849152 96.829296,72.849152 C 109.89055,72.849152 120.49099,90.327066 120.49099,111.86235 z"
         style="fill:url(#radialGradient3242);fill-opacity:1;stroke:#000000;stroke-width:1.04830837;stroke-miterlimit:4;stroke-dashoffset:0;stroke-opacity:1;display:inline" />
      <path
         transform="matrix(0.9026189,0,0,0.9026189,9.439588,9.7852784)"
         d="M 96.84375,72.84375 C 83.782493,72.84375 73.156249,90.339716 73.15625,111.875 C 73.15625,122.64265 73.257287,128.12501 83.21875,128.125 C 92.683426,128.125 105.09437,128.12501 111.625,128.125 C 121.08968,128.125 121.09154,120.69942 120.5,111.875 C 120.5,90.339716 109.90501,72.84375 96.84375,72.84375 z"
         inkscape:href="#path1878"
         id="path3222"
         style="fill:url(#radialGradient3244);fill-opacity:1;stroke:none;stroke-width:1.04830837;stroke-miterlimit:4;stroke-dashoffset:0;stroke-opacity:1;display:inline;filter:url(#filter3226)"
         xlink:href="#path1878"
         inkscape:original="M 96.84375 72.84375 C 83.782493 72.84375 73.156249 90.339716 73.15625 111.875 C 73.15625 122.64265 73.257287 128.12501 83.21875 128.125 C 92.683426 128.125 105.09437 128.12501 111.625 128.125 C 121.08968 128.125 121.09154 120.69942 120.5 111.875 C 120.5 90.339716 109.90501 72.84375 96.84375 72.84375 z "
         inkscape:radius="0"
         sodipodi:type="inkscape:offset" />
      <path
         transform="matrix(0.5609522,0,0,0.5689194,51.32715,90.04823)"
         d="M 58.928915,41.222663 C 56.288449,41.24793 56.08932,34.114278 54.16417,32.299146 C 52.239019,30.484014 46.647536,30.540764 46.660746,27.865166 C 46.673956,25.189568 52.975624,24.28284 54.924595,22.642877 C 56.873567,21.002914 57.364727,15.869786 59.979262,15.848927 C 62.593795,15.828067 61.85336,22.195445 63.521776,24.154924 C 65.190193,26.114403 72.254971,25.482745 72.393864,28.023051 C 72.532757,30.563356 66.125153,30.897545 64.107843,32.582286 C 62.090534,34.267028 61.569382,41.197397 58.928915,41.222663 z"
         inkscape:randomized="0.053"
         inkscape:rounded="0.279"
         inkscape:flatsided="false"
         sodipodi:arg2="2.3832149"
         sodipodi:arg1="1.5978168"
         sodipodi:r2="6.3448496"
         sodipodi:r1="12.689699"
         sodipodi:cy="27.890821"
         sodipodi:cx="59.31126"
         sodipodi:sides="4"
         id="path3345"
         style="opacity:0.98999999;fill:#efff70;fill-opacity:1;fill-rule:nonzero;stroke:#a9be00;stroke-width:0.99900001;stroke-linecap:round;stroke-linejoin:round;stroke-miterlimit:4;stroke-dasharray:none;stroke-dashoffset:0;stroke-opacity:1;display:inline;filter:url(#filter3309)"
         sodipodi:type="star" />
      <path
         transform="matrix(0.5609522,0,0,0.5689194,68.126289,98.962063)"
         d="M 58.928915,41.222663 C 57.698328,41.234439 55.702925,33.592876 54.856052,32.733116 C 54.00918,31.873355 46.65459,29.112125 46.660746,27.865166 C 46.666903,26.618206 54.695132,24.53446 55.559869,23.652258 C 56.424606,22.770055 58.760761,15.858648 59.979262,15.848927 C 61.197762,15.839205 63.172528,23.007642 64.029974,23.824358 C 64.88742,24.641074 72.329133,26.839144 72.393864,28.023051 C 72.458595,29.206958 64.262702,30.870654 63.471228,31.754578 C 62.679754,32.638502 60.159502,41.210888 58.928915,41.222663 z"
         inkscape:randomized="0.053"
         inkscape:rounded="0.129"
         inkscape:flatsided="false"
         sodipodi:arg2="2.3832149"
         sodipodi:arg1="1.5978168"
         sodipodi:r2="6.0910554"
         sodipodi:r1="12.689699"
         sodipodi:cy="27.890821"
         sodipodi:cx="59.31126"
         sodipodi:sides="4"
         id="path3347"
         style="opacity:0.98999999;fill:#efff70;fill-opacity:1;fill-rule:nonzero;stroke:#a9be00;stroke-width:0.99900001;stroke-linecap:round;stroke-linejoin:round;stroke-miterlimit:4;stroke-dasharray:none;stroke-dashoffset:0;stroke-opacity:1;display:inline;filter:url(#filter3309)"
         sodipodi:type="star" />
      <path
         transform="matrix(0.5609522,0,0,0.5689194,69.154809,77.020327)"
         d="M 58.928915,41.222663 C 57.096883,41.240194 54.940993,34.567355 53.641403,33.370996 C 52.341813,32.174637 46.651581,29.721573 46.660746,27.865166 C 46.669912,26.008759 52.505727,23.151216 53.88743,21.941403 C 55.269134,20.731589 58.165222,15.863399 59.979262,15.848927 C 61.793301,15.834454 63.840258,21.071007 65.11781,22.337565 C 66.395363,23.604124 72.297496,26.260513 72.393864,28.023051 C 72.490232,29.785588 66.302394,32.471227 64.870399,33.650957 C 63.438404,34.830688 60.760947,41.205133 58.928915,41.222663 z"
         inkscape:randomized="0.053"
         inkscape:rounded="0.199"
         inkscape:flatsided="false"
         sodipodi:arg2="2.3832149"
         sodipodi:arg1="1.5978168"
         sodipodi:r2="7.4869223"
         sodipodi:r1="12.689699"
         sodipodi:cy="27.890821"
         sodipodi:cx="59.31126"
         sodipodi:sides="4"
         id="path3349"
         style="opacity:0.98999999;fill:#efff70;fill-opacity:1;fill-rule:nonzero;stroke:#a9be00;stroke-width:0.99900001;stroke-linecap:round;stroke-linejoin:round;stroke-miterlimit:4;stroke-dasharray:none;stroke-dashoffset:0;stroke-opacity:1;display:inline;filter:url(#filter3309)"
         sodipodi:type="star" />
    </g>
  </g>
  <g
     inkscape:groupmode="layer"
     id="layer4"
     inkscape:label="hill_very_small"
     style="display:inline">
    <g
       id="g3209"
       transform="translate(0,-0.1884857)">
      <path
         sodipodi:nodetypes="cssssc"
         id="path3283"
         d="M 58.37608,116.3049 C 58.817519,122.65603 58.817519,128.00435 51.75447,128.00435 C 46.880966,128.00435 37.628372,128.00435 30.565329,128.00435 C 23.131556,128.00435 23.060842,124.05462 23.060842,116.3049 C 23.060842,100.80549 30.971453,88.226245 40.718458,88.226245 C 50.465467,88.226245 58.37608,100.80549 58.37608,116.3049 z"
         style="fill:url(#radialGradient3238);fill-opacity:1;stroke:#000000;stroke-width:0.76827133;stroke-miterlimit:4;stroke-dashoffset:0;stroke-opacity:1;display:inline" />
      <path
         transform="matrix(0.8809791,0,0,0.8809791,4.8558173,12.867272)"
         d="M 40.71875,88.21875 C 30.971745,88.21875 23.062499,100.81309 23.0625,116.3125 C 23.0625,124.06222 23.128727,128 30.5625,128 C 37.625543,128 46.876495,128 51.75,128 C 58.813049,128 58.816439,122.66363 58.375,116.3125 C 58.375,100.81309 50.465761,88.218753 40.71875,88.21875 z"
         inkscape:href="#path3283"
         id="path3196"
         style="fill:url(#radialGradient3240);fill-opacity:1;stroke:none;stroke-width:0.76827133;stroke-miterlimit:4;stroke-dashoffset:0;stroke-opacity:1;display:inline;filter:url(#filter3218)"
         xlink:href="#path3283"
         inkscape:original="M 40.71875 88.21875 C 30.971745 88.21875 23.062499 100.81309 23.0625 116.3125 C 23.0625 124.06222 23.128727 128 30.5625 128 C 37.625543 128 46.876495 128 51.75 128 C 58.813049 128 58.816439 122.66363 58.375 116.3125 C 58.375 100.81309 50.465761 88.218753 40.71875 88.21875 z "
         inkscape:radius="0"
         sodipodi:type="inkscape:offset" />
      <path
         transform="matrix(0.4113649,0,0,0.4172076,9.0270143,94.54355)"
         d="M 58.928915,41.222663 C 57.045572,41.240685 55.537306,33.59381 54.16417,32.299146 C 52.791034,31.004482 46.651324,29.773567 46.660746,27.865166 C 46.670168,25.956765 53.534469,23.812599 54.924595,22.642877 C 56.314722,21.473155 58.114415,15.863805 59.979262,15.848927 C 61.844108,15.834049 62.331759,22.757302 63.521776,24.154924 C 64.711794,25.552545 72.294797,26.211148 72.393864,28.023051 C 72.492931,29.834953 65.546713,31.380625 64.107843,32.582286 C 62.668974,33.783948 60.812259,41.204642 58.928915,41.222663 z"
         inkscape:randomized="0.053"
         inkscape:rounded="0.199"
         inkscape:flatsided="false"
         sodipodi:arg2="2.3832149"
         sodipodi:arg1="1.5978168"
         sodipodi:r2="6.3448496"
         sodipodi:r1="12.689699"
         sodipodi:cy="27.890821"
         sodipodi:cx="59.31126"
         sodipodi:sides="4"
         id="path3339"
         style="opacity:0.98999999;fill:#efff70;fill-opacity:1;fill-rule:nonzero;stroke:#a9be00;stroke-width:0.99900001;stroke-linecap:round;stroke-linejoin:round;stroke-miterlimit:4;stroke-dasharray:none;stroke-dashoffset:0;stroke-opacity:1;display:inline;filter:url(#filter3309)"
         sodipodi:type="star" />
      <path
         transform="matrix(0.4113576,0,0,0.4172073,22.055262,105.1716)"
         d="M 58.928915,41.222663 C 56.810291,41.242936 54.936918,34.968756 53.59376,33.335206 C 52.250602,31.701656 46.650147,30.011978 46.660746,27.865166 C 46.671345,25.718353 52.232331,24.15944 53.844607,22.799691 C 55.456883,21.439942 57.881444,15.865663 59.979262,15.848927 C 62.077079,15.83219 62.914728,21.818113 64.2809,23.352107 C 65.647073,24.886101 72.282421,25.984792 72.393864,28.023051 C 72.505308,30.06131 66.436604,32.277461 64.84073,33.665862 C 63.244855,35.054263 61.04754,41.20239 58.928915,41.222663 z"
         inkscape:randomized="0.053"
         inkscape:rounded="0.229"
         inkscape:flatsided="false"
         sodipodi:arg2="2.3832149"
         sodipodi:arg1="1.5978168"
         sodipodi:r2="7.2331285"
         sodipodi:r1="12.689699"
         sodipodi:cy="27.890821"
         sodipodi:cx="59.31126"
         sodipodi:sides="4"
         id="path3341"
         style="opacity:0.98999999;fill:#efff70;fill-opacity:1;fill-rule:nonzero;stroke:#a9be00;stroke-width:0.99900001;stroke-linecap:round;stroke-linejoin:round;stroke-miterlimit:4;stroke-dasharray:none;stroke-dashoffset:0;stroke-opacity:1;display:inline;filter:url(#filter3309)"
         sodipodi:type="star" />
    </g>
  </g>
</svg>
