<?xml version="1.0" encoding="UTF-8" standalone="no"?>
<!-- Created with Inkscape (http://www.inkscape.org/) -->

<svg
   xmlns:dc="http://purl.org/dc/elements/1.1/"
   xmlns:cc="http://creativecommons.org/ns#"
   xmlns:rdf="http://www.w3.org/1999/02/22-rdf-syntax-ns#"
   xmlns:svg="http://www.w3.org/2000/svg"
   xmlns="http://www.w3.org/2000/svg"
   xmlns:xlink="http://www.w3.org/1999/xlink"
   xmlns:sodipodi="http://sodipodi.sourceforge.net/DTD/sodipodi-0.dtd"
   xmlns:inkscape="http://www.inkscape.org/namespaces/inkscape"
   width="512"
   height="256"
   id="svg2"
   sodipodi:version="0.32"
   inkscape:version="0.46+devel 22040"
   version="1.0"
   sodipodi:docname="big_2.svg"
   inkscape:output_extension="org.inkscape.output.svg.inkscape"
   inkscape:export-filename="C:\Dateien\Desktop\Secret Maryo Chronicles\SMC\data\pixmaps\ground\green_1\hedges\big_2.png"
   inkscape:export-xdpi="180"
   inkscape:export-ydpi="180">
  <sodipodi:namedview
     id="base"
     pagecolor="#000000"
     bordercolor="#666666"
     borderopacity="1.0"
     inkscape:pageopacity="0"
     inkscape:pageshadow="2"
     inkscape:zoom="0.25"
     inkscape:cx="234.10299"
     inkscape:cy="223.28404"
     inkscape:document-units="px"
     inkscape:current-layer="g3210"
     showgrid="false"
     inkscape:showpageshadow="false"
     inkscape:window-width="1254"
     inkscape:window-height="945"
     inkscape:window-x="20"
     inkscape:window-y="15"
     showguides="true"
     inkscape:guide-bbox="true"
     inkscape:window-maximized="0"
     inkscape:snap-nodes="false" />
  <defs
     id="defs4">
    <inkscape:perspective
       sodipodi:type="inkscape:persp3d"
       inkscape:vp_x="0 : 128 : 1"
       inkscape:vp_y="0 : 1000 : 0"
       inkscape:vp_z="512 : 128 : 1"
       inkscape:persp3d-origin="256 : 85.333333 : 1"
       id="perspective32" />
    <linearGradient
       id="linearGradient3187">
      <stop
         style="stop-color:#21bc16;stop-opacity:1;"
         offset="0"
         id="stop3189" />
      <stop
         style="stop-color:#1b9a12;stop-opacity:1"
         offset="1"
         id="stop3191" />
    </linearGradient>
    <linearGradient
       id="linearGradient3173">
      <stop
         style="stop-color:#25ff07;stop-opacity:1;"
         offset="0"
         id="stop3175" />
      <stop
         id="stop3183"
         offset="0.5"
         style="stop-color:#07f307;stop-opacity:0.82710278;" />
      <stop
         style="stop-color:#06d206;stop-opacity:0.63084114;"
         offset="1"
         id="stop3177" />
    </linearGradient>
    <filter
       id="filter3192"
       inkscape:label="filter2"
       width="1"
       height="1"
       x="0"
       y="0">
      <feTurbulence
         id="feTurbulence3194"
         type="turbulence"
         baseFrequency="0.21039755351681957"
         numOctaves="1"
         seed="398"
         result="result0"
         in="SourceGraphic" />
      <feColorMatrix
         id="feColorMatrix3198"
         type="matrix"
         values="0 1.3 0 0 0 0.2 2.8 0.1 0.9 0 0 0 0 0 0 0.5 0.2 1 0.1 0 "
         result="result1" />
      <feComposite
         id="feComposite3216"
         in2="SourceGraphic"
         operator="in" />
    </filter>
    <filter
       id="filter3209"
       inkscape:label="filter4">
      <feGaussianBlur
         stdDeviation="18"
         id="feGaussianBlur3174"
         in="SourceGraphic" />
      <feDiffuseLighting
         id="feDiffuseLighting3225"
         surfaceScale="10"
         diffuseConstant="1.1000000000000001"
         kernelUnitLength="0.01"
         lighting-color="rgb(255,255,255)">
        <feDistantLight
           id="feDistantLight3982"
           azimuth="237"
           elevation="60" />
      </feDiffuseLighting>
      <feComposite
         id="feComposite3217"
         in="result0"
         in2="SourceGraphic"
         operator="arithmetic"
         k1="1"
         k2="0"
         k3="0"
         k4="2.7755575615628914e-017" />
      <feMorphology
         id="feMorphology3614"
         operator="erode"
         radius="6.5" />
      <feGaussianBlur
         stdDeviation="6"
         id="feGaussianBlur3185" />
    </filter>
    <linearGradient
       inkscape:collect="always"
       xlink:href="#linearGradient3173"
       id="linearGradient3181"
       x1="65.097069"
       y1="265.52466"
       x2="116.92813"
       y2="449.17441"
       gradientUnits="userSpaceOnUse"
       gradientTransform="translate(0,505.26486)" />
    <filter
       inkscape:collect="always"
       id="filter3215">
      <feGaussianBlur
         inkscape:collect="always"
         stdDeviation="0.96305695"
         id="feGaussianBlur3217" />
    </filter>
    <linearGradient
       inkscape:collect="always"
       xlink:href="#linearGradient3187"
       id="linearGradient3612"
       gradientUnits="userSpaceOnUse"
       x1="45.946941"
       y1="454.07269"
       x2="130.35196"
       y2="711.75793" />
    <linearGradient
       inkscape:collect="always"
       xlink:href="#linearGradient3187"
       id="linearGradient3657"
       gradientUnits="userSpaceOnUse"
       x1="45.946941"
       y1="454.07269"
       x2="130.35196"
       y2="711.75793"
       gradientTransform="matrix(0.88096806,0,0,0.99229233,175.12433,-448.20461)" />
    <linearGradient
       inkscape:collect="always"
       xlink:href="#linearGradient3187"
       id="linearGradient3660"
       gradientUnits="userSpaceOnUse"
       gradientTransform="matrix(0.88096806,0,0,0.99229233,175.12433,-448.20461)"
       x1="45.946941"
       y1="454.07269"
       x2="130.35196"
       y2="711.75793" />
    <linearGradient
       inkscape:collect="always"
       xlink:href="#linearGradient3173"
       id="linearGradient2846"
       gradientUnits="userSpaceOnUse"
       gradientTransform="matrix(0.88096806,0,0,0.99229233,15.06447,6.1327156)"
       x1="254.30391"
       y1="42.173641"
       x2="286.74789"
       y2="241.78101" />
    <linearGradient
       inkscape:collect="always"
       xlink:href="#linearGradient3187"
       id="linearGradient3661"
       gradientUnits="userSpaceOnUse"
       gradientTransform="matrix(0.87178767,0,0,0.98195186,177.91451,-440.27015)"
       x1="45.946941"
       y1="454.07269"
       x2="130.35196"
       y2="711.75793" />
    <linearGradient
       inkscape:collect="always"
       xlink:href="#linearGradient3187"
       id="linearGradient3698"
       gradientUnits="userSpaceOnUse"
       gradientTransform="matrix(0.87178764,0,0,0.98195183,177.9145,-440.27014)"
       x1="45.946941"
       y1="454.07269"
       x2="130.35196"
       y2="711.75793" />
  </defs>
  <metadata
     id="metadata7">
    <rdf:RDF>
      <cc:Work
         rdf:about="">
        <dc:format>image/svg+xml</dc:format>
        <dc:type
           rdf:resource="http://purl.org/dc/dcmitype/StillImage" />
        <dc:title></dc:title>
      </cc:Work>
      <cc:Work
         rdf:about="">
        <dc:format>image/svg+xml</dc:format>
        <dc:type
           rdf:resource="http://purl.org/dc/dcmitype/StillImage" />
      </cc:Work>
    </rdf:RDF>
  </metadata>
  <g
     transform="translate(-56.847417,-735.33378)"
     inkscape:label="plants"
     id="layer2"
     inkscape:groupmode="layer">
    <g
       id="g3210"
       transform="matrix(0.9895793,0,0,0.9895793,219.85447,288.99479)">
      <path
         style="fill:url(#linearGradient3698);fill-opacity:1;fill-rule:nonzero;stroke:#000000;stroke-width:2.33743691000000010;stroke-linejoin:round;stroke-miterlimit:4;stroke-opacity:1;stroke-dasharray:none;filter:url(#filter3215)"
         d="m 207.8125,14.28125 c -17.19223,0.06129 -34.12375,16.842939 -44.53125,45.75 C 145.44025,37.191544 130.19307,46.603587 121.0625,60.3125 113.55009,40.247484 100.66354,27 86,27 63.728162,27 45.510389,57.546096 44.09375,96.15625 39.389679,98.997697 36,106.80229 36,116 c 0,2.73566 0.299964,5.35326 0.84375,7.75 C 27.304379,128.23117 20,152.59731 20,182 c 0,8.69177 0.637272,16.94543 1.78125,24.375 C 11.599091,211.72948 4,236.3497 4,261.00001 L 503.84375,261 c 0,-20.34668 -5.53564,-47.17829 -14.25,-63.71875 C 491.10633,193.09565 492,188.22454 492,183 c 0,-10.08383 -3.23847,-18.91403 -8.09375,-23.84375 5.7803,-65.051194 -25.61248,-92.080197 -46.46875,-63.375 C 437.79987,91.65734 438,87.380686 438,83 438,48.758347 426.3594,21 412,21 c -7.44491,0 -14.13521,7.479149 -18.875,19.4375 -0.21783,-0.01315 -0.43758,-0.02219 -0.65625,-0.03125 C 387.76071,33.300782 381.65959,29 375,29 c -12.93452,0 -23.7357,16.161031 -26.375,37.75 -13.57667,-33.002138 -55.12806,-29.531231 -68.75,10.5625 -4.96488,-6.817033 -11.22339,-11.696275 -18.1875,-13.875 -1.43477,-8.029556 -7.6292,-14.110436 -15.125,-14.40625 -10.93993,-24.006428 -24.91978,-34.799301 -38.75,-34.75 z"
         transform="matrix(1.0105304,0,0,1.0105304,-164.72359,451.03913)"
         id="path3224"
         sodipodi:nodetypes="cccscscsccccsccssccsccccc" />
      <path
         sodipodi:type="inkscape:offset"
         inkscape:radius="0"
         inkscape:original="M 207.8125 14.28125 C 190.62027 14.34254 173.68875 31.124189 163.28125 60.03125 C 145.44025 37.191544 130.19307 46.603587 121.0625 60.3125 C 113.55009 40.247484 100.66354 27 86 27 C 63.728162 27 45.510389 57.546096 44.09375 96.15625 C 39.389679 98.997697 36 106.80229 36 116 C 36 118.73566 36.299964 121.35326 36.84375 123.75 C 27.304379 128.23117 20 152.59731 20 182 C 20 190.69177 20.637272 198.94543 21.78125 206.375 C 11.599091 211.72948 4 236.34969 4 261 L 503.84375 261 C 503.84375 240.65332 498.30811 213.82171 489.59375 197.28125 C 491.10633 193.09565 492 188.22454 492 183 C 492 172.91617 488.76153 164.08597 483.90625 159.15625 C 489.68655 94.105056 458.29377 67.076053 437.4375 95.78125 C 437.79987 91.65734 438 87.380686 438 83 C 438 48.758347 426.3594 21 412 21 C 404.55509 21 397.86479 28.479149 393.125 40.4375 C 392.90717 40.42435 392.68742 40.41531 392.46875 40.40625 C 387.76071 33.300782 381.65959 29 375 29 C 362.06548 29 351.2643 45.161031 348.625 66.75 C 335.04833 33.747862 293.49694 37.218769 279.875 77.3125 C 274.91012 70.495467 268.65161 65.616225 261.6875 63.4375 C 260.25273 55.407944 254.0583 49.327064 246.5625 49.03125 C 235.62257 25.024822 221.64272 14.231949 207.8125 14.28125 z "
         xlink:href="#path3224"
         style="fill:url(#linearGradient2846);fill-opacity:1;stroke:none;filter:url(#filter3209)"
         id="path2848"
         d="m 207.8125,14.28125 c -17.19223,0.06129 -34.12375,16.842939 -44.53125,45.75 C 145.44025,37.191544 130.19307,46.603587 121.0625,60.3125 113.55009,40.247484 100.66354,27 86,27 63.728162,27 45.510389,57.546096 44.09375,96.15625 39.389679,98.997697 36,106.80229 36,116 c 0,2.73566 0.299964,5.35326 0.84375,7.75 C 27.304379,128.23117 20,152.59731 20,182 c 0,8.69177 0.637272,16.94543 1.78125,24.375 C 11.599091,211.72948 4,236.34969 4,261 l 499.84375,0 c 0,-20.34668 -5.53564,-47.17829 -14.25,-63.71875 C 491.10633,193.09565 492,188.22454 492,183 c 0,-10.08383 -3.23847,-18.91403 -8.09375,-23.84375 5.7803,-65.051194 -25.61248,-92.080197 -46.46875,-63.375 C 437.79987,91.65734 438,87.380686 438,83 438,48.758347 426.3594,21 412,21 c -7.44491,0 -14.13521,7.479149 -18.875,19.4375 -0.21783,-0.01315 -0.43758,-0.02219 -0.65625,-0.03125 C 387.76071,33.300782 381.65959,29 375,29 c -12.93452,0 -23.7357,16.161031 -26.375,37.75 -13.57667,-33.002138 -55.12806,-29.531231 -68.75,10.5625 -4.96488,-6.817033 -11.22339,-11.696275 -18.1875,-13.875 -1.43477,-8.029556 -7.6292,-14.110436 -15.125,-14.40625 -10.93993,-24.006428 -24.91978,-34.799301 -38.75,-34.75 z"
         transform="translate(-162.04969,452.48855)"
         inkscape:href="#path3224" />
      <path
         sodipodi:type="inkscape:offset"
         inkscape:radius="0"
         inkscape:original="M 207.8125 14.28125 C 190.62027 14.34254 173.68875 31.124189 163.28125 60.03125 C 145.44025 37.191544 130.19307 46.603587 121.0625 60.3125 C 113.55009 40.247484 100.66354 27 86 27 C 63.728162 27 45.510389 57.546096 44.09375 96.15625 C 39.389679 98.997697 36 106.80229 36 116 C 36 118.73566 36.299964 121.35326 36.84375 123.75 C 27.304379 128.23117 20 152.59731 20 182 C 20 190.69177 20.637272 198.94543 21.78125 206.375 C 11.599091 211.72948 4 236.34969 4 261 L 503.84375 261 C 503.84375 240.65332 498.30811 213.82171 489.59375 197.28125 C 491.10633 193.09565 492 188.22454 492 183 C 492 172.91617 488.76153 164.08597 483.90625 159.15625 C 489.68655 94.105056 458.29377 67.076053 437.4375 95.78125 C 437.79987 91.65734 438 87.380686 438 83 C 438 48.758347 426.3594 21 412 21 C 404.55509 21 397.86479 28.479149 393.125 40.4375 C 392.90717 40.42435 392.68742 40.41531 392.46875 40.40625 C 387.76071 33.300782 381.65959 29 375 29 C 362.06548 29 351.2643 45.161031 348.625 66.75 C 335.04833 33.747862 293.49694 37.218769 279.875 77.3125 C 274.91012 70.495467 268.65161 65.616225 261.6875 63.4375 C 260.25273 55.407944 254.0583 49.327064 246.5625 49.03125 C 235.62257 25.024822 221.64272 14.231949 207.8125 14.28125 z "
         xlink:href="#path3224"
         style="opacity:0.2;fill:#00e305;fill-opacity:1;stroke:none;filter:url(#filter3192)"
         id="path3624"
         d="m 207.8125,14.28125 c -17.19223,0.06129 -34.12375,16.842939 -44.53125,45.75 C 145.44025,37.191544 130.19307,46.603587 121.0625,60.3125 113.55009,40.247484 100.66354,27 86,27 63.728162,27 45.510389,57.546096 44.09375,96.15625 39.389679,98.997697 36,106.80229 36,116 c 0,2.73566 0.299964,5.35326 0.84375,7.75 C 27.304379,128.23117 20,152.59731 20,182 c 0,8.69177 0.637272,16.94543 1.78125,24.375 C 11.599091,211.72948 4,236.34969 4,261 l 499.84375,0 c 0,-20.34668 -5.53564,-47.17829 -14.25,-63.71875 C 491.10633,193.09565 492,188.22454 492,183 c 0,-10.08383 -3.23847,-18.91403 -8.09375,-23.84375 5.7803,-65.051194 -25.61248,-92.080197 -46.46875,-63.375 C 437.79987,91.65734 438,87.380686 438,83 438,48.758347 426.3594,21 412,21 c -7.44491,0 -14.13521,7.479149 -18.875,19.4375 -0.21783,-0.01315 -0.43758,-0.02219 -0.65625,-0.03125 C 387.76071,33.300782 381.65959,29 375,29 c -12.93452,0 -23.7357,16.161031 -26.375,37.75 -13.57667,-33.002138 -55.12806,-29.531231 -68.75,10.5625 -4.96488,-6.817033 -11.22339,-11.696275 -18.1875,-13.875 -1.43477,-8.029556 -7.6292,-14.110436 -15.125,-14.40625 -10.93993,-24.006428 -24.91978,-34.799301 -38.75,-34.75 z"
         transform="translate(-162.04969,452.48855)"
         inkscape:href="#path3224" />
    </g>
  </g>
</svg>
