<?xml version="1.0" encoding="UTF-8" standalone="no"?>
<!-- Created with Inkscape (http://www.inkscape.org/) -->

<svg
   xmlns:dc="http://purl.org/dc/elements/1.1/"
   xmlns:cc="http://creativecommons.org/ns#"
   xmlns:rdf="http://www.w3.org/1999/02/22-rdf-syntax-ns#"
   xmlns:svg="http://www.w3.org/2000/svg"
   xmlns="http://www.w3.org/2000/svg"
   xmlns:xlink="http://www.w3.org/1999/xlink"
   xmlns:sodipodi="http://sodipodi.sourceforge.net/DTD/sodipodi-0.dtd"
   xmlns:inkscape="http://www.inkscape.org/namespaces/inkscape"
   width="512"
   height="128"
   id="svg2"
   sodipodi:version="0.32"
   inkscape:version="0.46+devel 22040"
   version="1.0"
   sodipodi:docname="medium_1.svg"
   inkscape:output_extension="org.inkscape.output.svg.inkscape"
   inkscape:export-filename="C:\Dateien\Desktop\Secret Maryo Chronicles\SMC\data\pixmaps\ground\green_1\hedges\medium_1.png"
   inkscape:export-xdpi="180"
   inkscape:export-ydpi="180"
   style="display:inline">
  <sodipodi:namedview
     id="base"
     pagecolor="#000000"
     bordercolor="#666666"
     borderopacity="1.0"
     inkscape:pageopacity="0"
     inkscape:pageshadow="2"
     inkscape:zoom="2.0000001"
     inkscape:cx="208.69565"
     inkscape:cy="69.07819"
     inkscape:document-units="px"
     inkscape:current-layer="layer2"
     showgrid="false"
     inkscape:showpageshadow="false"
     inkscape:window-width="1254"
     inkscape:window-height="945"
     inkscape:window-x="9"
     inkscape:window-y="5"
     showguides="true"
     inkscape:guide-bbox="true"
     inkscape:snap-nodes="false"
     inkscape:snap-grids="false"
     inkscape:window-maximized="0" />
  <defs
     id="defs4">
    <inkscape:perspective
       sodipodi:type="inkscape:persp3d"
       inkscape:vp_x="0 : 64 : 1"
       inkscape:vp_y="0 : 1000 : 0"
       inkscape:vp_z="512 : 64 : 1"
       inkscape:persp3d-origin="256 : 42.666667 : 1"
       id="perspective109" />
    <linearGradient
       id="linearGradient3477">
      <stop
         id="stop3479"
         offset="0"
         style="stop-color:#e6ff0b;stop-opacity:1;" />
      <stop
         id="stop3481"
         offset="1"
         style="stop-color:#b2d200;stop-opacity:1;" />
    </linearGradient>
    <linearGradient
       id="linearGradient3409">
      <stop
         id="stop3411"
         offset="0"
         style="stop-color:#ffec40;stop-opacity:1;" />
      <stop
         id="stop3413"
         offset="1"
         style="stop-color:#eed600;stop-opacity:1;" />
    </linearGradient>
    <linearGradient
       id="linearGradient3349">
      <stop
         style="stop-color:#b97718;stop-opacity:1;"
         offset="0"
         id="stop3351" />
      <stop
         style="stop-color:#784f15;stop-opacity:0.90196079;"
         offset="1"
         id="stop3353" />
    </linearGradient>
    <linearGradient
       id="linearGradient3210">
      <stop
         style="stop-color:#fff817;stop-opacity:1;"
         offset="0"
         id="stop3212" />
      <stop
         style="stop-color:#dcdf11;stop-opacity:1;"
         offset="1"
         id="stop3214" />
    </linearGradient>
    <linearGradient
       id="linearGradient3243">
      <stop
         id="stop3245"
         offset="0"
         style="stop-color:#0cff07;stop-opacity:1;" />
      <stop
         style="stop-color:#00e500;stop-opacity:0.90196079;"
         offset="0.63999999"
         id="stop3247" />
      <stop
         id="stop3249"
         offset="1"
         style="stop-color:#00bf00;stop-opacity:0.65098041;" />
    </linearGradient>
    <linearGradient
       id="linearGradient3187">
      <stop
         style="stop-color:#0dd30d;stop-opacity:1;"
         offset="0"
         id="stop3189" />
      <stop
         style="stop-color:#178d17;stop-opacity:1;"
         offset="1"
         id="stop3191" />
    </linearGradient>
    <filter
       id="filter3192"
       inkscape:label="filter2"
       width="1"
       height="1"
       x="0"
       y="0"
       color-interpolation-filters="sRGB">
      <feTurbulence
         id="feTurbulence3194"
         type="turbulence"
         baseFrequency="0.28999999999999998"
         numOctaves="1"
         seed="398"
         result="result0" />
      <feColorMatrix
         id="feColorMatrix3198"
         type="matrix"
         values="0 1.3 0 0 0 0.2 2.8 0.1 0.9 0 0 0 0 0 0 0.3 0.7 0.5 0.1 0 "
         result="result1" />
      <feComposite
         id="feComposite3216"
         in2="SourceGraphic"
         operator="in" />
    </filter>
    <filter
       id="filter3209"
       inkscape:label="filter4"
       color-interpolation-filters="sRGB">
      <feGaussianBlur
         stdDeviation="10"
         id="feGaussianBlur3174"
         in="SourceGraphic" />
      <feDiffuseLighting
         id="feDiffuseLighting3225"
         surfaceScale="10"
         diffuseConstant="1"
         kernelUnitLength="0.01"
         lighting-color="#ffffff">
        <feDistantLight
           id="feDistantLight3982"
           azimuth="237"
           elevation="58" />
      </feDiffuseLighting>
      <feComposite
         id="feComposite3217"
         in2="SourceGraphic"
         operator="arithmetic"
         k1="1"
         k2="0"
         k3="0"
         k4="2.7755576e-17" />
      <feGaussianBlur
         stdDeviation="4"
         id="feGaussianBlur3185" />
    </filter>
    <linearGradient
       inkscape:collect="always"
       xlink:href="#linearGradient3243"
       id="linearGradient3231"
       x1="284.26584"
       y1="759.8537"
       x2="289.85773"
       y2="866.62677"
       gradientUnits="userSpaceOnUse" />
    <linearGradient
       inkscape:collect="always"
       xlink:href="#linearGradient3187"
       id="linearGradient3239"
       gradientUnits="userSpaceOnUse"
       x1="280.70569"
       y1="880.90277"
       x2="286.29758"
       y2="987.67584"
       gradientTransform="translate(0,-126)" />
    <filter
       inkscape:collect="always"
       id="filter3264"
       color-interpolation-filters="sRGB">
      <feGaussianBlur
         inkscape:collect="always"
         stdDeviation="0.64653992"
         id="feGaussianBlur3266" />
    </filter>
    <filter
       inkscape:label="filter4"
       id="filter3194"
       color-interpolation-filters="sRGB">
      <feGaussianBlur
         in="SourceGraphic"
         id="feGaussianBlur3196"
         stdDeviation="3" />
      <feDiffuseLighting
         lighting-color="#ffffff"
         kernelUnitLength="0.01"
         diffuseConstant="0.40000000000000013"
         surfaceScale="50"
         id="feDiffuseLighting3198">
        <feDistantLight
           elevation="59"
           azimuth="240"
           id="feDistantLight3200" />
      </feDiffuseLighting>
      <feComposite
         k4="2.7755576e-17"
         k3="0.59999999999999998"
         k2="0"
         k1="1"
         operator="arithmetic"
         in2="SourceGraphic"
         id="feComposite3202" />
      <feGaussianBlur
         id="feGaussianBlur3204"
         stdDeviation="1" />
    </filter>
    <filter
       inkscape:collect="always"
       id="filter3278"
       color-interpolation-filters="sRGB">
      <feGaussianBlur
         inkscape:collect="always"
         stdDeviation="0.48928543"
         id="feGaussianBlur3280" />
    </filter>
    <filter
       inkscape:collect="always"
       id="filter3282"
       color-interpolation-filters="sRGB">
      <feGaussianBlur
         inkscape:collect="always"
         stdDeviation="0.48928546"
         id="feGaussianBlur3284" />
    </filter>
    <filter
       inkscape:collect="always"
       id="filter3286"
       color-interpolation-filters="sRGB">
      <feGaussianBlur
         inkscape:collect="always"
         stdDeviation="0.48928542"
         id="feGaussianBlur3288" />
    </filter>
    <filter
       inkscape:collect="always"
       id="filter3290"
       color-interpolation-filters="sRGB">
      <feGaussianBlur
         inkscape:collect="always"
         stdDeviation="0.48928543"
         id="feGaussianBlur3292" />
    </filter>
    <filter
       inkscape:collect="always"
       id="filter3294"
       color-interpolation-filters="sRGB">
      <feGaussianBlur
         inkscape:collect="always"
         stdDeviation="0.48928544"
         id="feGaussianBlur3296" />
    </filter>
    <filter
       inkscape:collect="always"
       id="filter3302"
       inkscape:label="filter8"
       color-interpolation-filters="sRGB">
      <feGaussianBlur
         inkscape:collect="always"
         stdDeviation="0.50978397"
         id="feGaussianBlur3304" />
    </filter>
    <filter
       inkscape:collect="always"
       id="filter3326"
       color-interpolation-filters="sRGB">
      <feGaussianBlur
         inkscape:collect="always"
         stdDeviation="0.46462274"
         id="feGaussianBlur3328" />
    </filter>
    <radialGradient
       inkscape:collect="always"
       xlink:href="#linearGradient3477"
       id="radialGradient3463"
       gradientUnits="userSpaceOnUse"
       gradientTransform="matrix(-2.2560409,-0.00843095,-0.03236023,-1.1881381,351.44656,148.01608)"
       cx="107.29253"
       cy="67.481354"
       fx="107.29253"
       fy="67.481354"
       r="6.0104079" />
    <radialGradient
       inkscape:collect="always"
       xlink:href="#linearGradient3477"
       id="radialGradient3465"
       gradientUnits="userSpaceOnUse"
       gradientTransform="matrix(1.9481949,0.16257947,-0.1816207,1.0795299,-90.208741,-22.703284)"
       cx="107.93005"
       cy="67.027016"
       fx="107.93005"
       fy="67.027016"
       r="6.0104079" />
    <radialGradient
       inkscape:collect="always"
       xlink:href="#linearGradient3477"
       id="radialGradient3467"
       gradientUnits="userSpaceOnUse"
       gradientTransform="matrix(3.0998552,-0.76992061,0.25039095,1.029562,-246.8141,81.455913)"
       cx="108.85713"
       cy="67.282585"
       fx="108.85713"
       fy="67.282585"
       r="6.0104079" />
    <radialGradient
       inkscape:collect="always"
       xlink:href="#linearGradient3477"
       id="radialGradient3469"
       gradientUnits="userSpaceOnUse"
       gradientTransform="matrix(-2.4241177,0.16270364,0.01577441,-0.99249904,368.18132,115.62424)"
       cx="107.83379"
       cy="66.835258"
       fx="107.83379"
       fy="66.835258"
       r="6.0104079" />
    <radialGradient
       inkscape:collect="always"
       xlink:href="#linearGradient3477"
       id="radialGradient3471"
       gradientUnits="userSpaceOnUse"
       gradientTransform="matrix(2.5468649,0.12860363,-0.06849476,1.0433941,-162.31371,-16.743398)"
       cx="107.97607"
       cy="66.944389"
       fx="107.97607"
       fy="66.944389"
       r="6.0104079" />
    <radialGradient
       inkscape:collect="always"
       xlink:href="#linearGradient3477"
       id="radialGradient3473"
       gradientUnits="userSpaceOnUse"
       gradientTransform="matrix(1.6959727,0.02881455,0.24972149,0.98152609,-91.36163,-2.3482134)"
       cx="107.94926"
       cy="67.652092"
       fx="107.94926"
       fy="67.652092"
       r="6.0104079" />
    <radialGradient
       inkscape:collect="always"
       xlink:href="#linearGradient3477"
       id="radialGradient3475"
       gradientUnits="userSpaceOnUse"
       gradientTransform="matrix(-2.2138092,-0.05094895,0.09939846,-1.0857399,338.31698,145.62498)"
       cx="107.3645"
       cy="67.469864"
       fx="107.3645"
       fy="67.469864"
       r="6.0104079" />
    <radialGradient
       inkscape:collect="always"
       xlink:href="#linearGradient3409"
       id="radialGradient3719"
       gradientUnits="userSpaceOnUse"
       gradientTransform="matrix(-2.0056668,0.12698285,0.06228288,-0.56094314,319.94976,90.632998)"
       cx="107.83379"
       cy="66.835258"
       fx="107.83379"
       fy="66.835258"
       r="10.378119" />
    <radialGradient
       inkscape:collect="always"
       xlink:href="#linearGradient3409"
       id="radialGradient3721"
       gradientUnits="userSpaceOnUse"
       gradientTransform="matrix(1.7076604,0.05864395,0.08151226,0.69283735,-81.757596,14.205492)"
       cx="107.83379"
       cy="66.835258"
       fx="107.83379"
       fy="66.835258"
       r="9.3148289" />
    <radialGradient
       inkscape:collect="always"
       xlink:href="#linearGradient3409"
       id="radialGradient3723"
       gradientUnits="userSpaceOnUse"
       gradientTransform="matrix(2.2649996,-0.30749036,-0.00429437,0.74295384,-136.12269,50.3376)"
       cx="107.83379"
       cy="66.835258"
       fx="107.83379"
       fy="66.835258"
       r="8.8781195" />
    <radialGradient
       inkscape:collect="always"
       xlink:href="#linearGradient3409"
       id="radialGradient3725"
       gradientUnits="userSpaceOnUse"
       gradientTransform="matrix(-2.0536473,-0.03285085,-0.04191065,-0.68157793,332.08748,115.93113)"
       cx="107.83379"
       cy="66.835258"
       fx="107.83379"
       fy="66.835258"
       r="9.3781195" />
    <radialGradient
       inkscape:collect="always"
       xlink:href="#linearGradient3409"
       id="radialGradient3727"
       gradientUnits="userSpaceOnUse"
       gradientTransform="matrix(1.995572,0.1703961,0.08965179,0.70352584,-113.3482,1.4404701)"
       cx="107.83379"
       cy="66.835258"
       fx="107.83379"
       fy="66.835258"
       r="9.3781195" />
    <radialGradient
       inkscape:collect="always"
       xlink:href="#linearGradient3409"
       id="radialGradient3729"
       gradientUnits="userSpaceOnUse"
       gradientTransform="matrix(1.5043612,-0.05764957,-0.03977132,0.68655393,-51.729058,27.165822)"
       cx="107.83379"
       cy="66.835258"
       fx="107.83379"
       fy="66.835258"
       r="9.3781195" />
    <radialGradient
       inkscape:collect="always"
       xlink:href="#linearGradient3409"
       id="radialGradient3731"
       gradientUnits="userSpaceOnUse"
       gradientTransform="matrix(-1.7072002,-0.02910085,-0.01287317,-0.65521146,292.78804,113.76455)"
       cx="107.83379"
       cy="66.835258"
       fx="107.83379"
       fy="66.835258"
       r="9.3232946" />
    <radialGradient
       inkscape:collect="always"
       xlink:href="#linearGradient3210"
       id="radialGradient2934"
       gradientUnits="userSpaceOnUse"
       gradientTransform="matrix(-2.6586396,0.20517436,-0.09480921,-1.1022017,390.25678,118.1892)"
       cx="103.6505"
       cy="66.548935"
       fx="103.6505"
       fy="66.548935"
       r="6.0104079" />
    <radialGradient
       inkscape:collect="always"
       xlink:href="#linearGradient3210"
       id="radialGradient2936"
       gradientUnits="userSpaceOnUse"
       gradientTransform="matrix(1.7887895,0.28784328,-0.26070825,1.0916797,-67.642222,-37.149859)"
       cx="107.8185"
       cy="66.873375"
       fx="107.8185"
       fy="66.873375"
       r="6.0104079" />
    <radialGradient
       inkscape:collect="always"
       xlink:href="#linearGradient3210"
       id="radialGradient2938"
       gradientUnits="userSpaceOnUse"
       gradientTransform="matrix(2.012943,-0.62514065,0.41286344,1.1034022,-139.47423,60.797479)"
       cx="109.0631"
       cy="67.262474"
       fx="109.0631"
       fy="67.262474"
       r="6.0104079" />
    <radialGradient
       inkscape:collect="always"
       xlink:href="#linearGradient3210"
       id="radialGradient2940"
       gradientUnits="userSpaceOnUse"
       gradientTransform="matrix(-2.7374344,0.20130404,0.01135872,-0.99218849,402.26257,111.44105)"
       cx="107.83379"
       cy="66.835258"
       fx="107.83379"
       fy="66.835258"
       r="6.0104079" />
    <radialGradient
       inkscape:collect="always"
       xlink:href="#linearGradient3210"
       id="radialGradient2942"
       gradientUnits="userSpaceOnUse"
       gradientTransform="matrix(1.8241734,0.05965584,-0.10451869,1.0150727,-81.895184,-7.5327658)"
       cx="108.13851"
       cy="66.697548"
       fx="108.13851"
       fy="66.697548"
       r="6.0104079" />
    <radialGradient
       inkscape:collect="always"
       xlink:href="#linearGradient3210"
       id="radialGradient2944"
       gradientUnits="userSpaceOnUse"
       gradientTransform="matrix(1.8799152,-0.09331303,0.28479336,0.90811471,-113.89406,16.312794)"
       cx="107.76553"
       cy="66.784088"
       fx="107.76553"
       fy="66.784088"
       r="6.0104079" />
    <radialGradient
       inkscape:collect="always"
       xlink:href="#linearGradient3210"
       id="radialGradient2946"
       gradientUnits="userSpaceOnUse"
       gradientTransform="matrix(-3.063335,0.08342629,0.01783791,-1.1558755,421.2906,136.53589)"
       cx="102.86523"
       cy="68.017708"
       fx="102.86523"
       fy="68.017708"
       r="6.0104079" />
  </defs>
  <metadata
     id="metadata7">
    <rdf:RDF>
      <cc:Work
         rdf:about="">
        <dc:format>image/svg+xml</dc:format>
        <dc:type
           rdf:resource="http://purl.org/dc/dcmitype/StillImage" />
        <dc:title />
      </cc:Work>
      <cc:Work
         rdf:about="">
        <dc:format>image/svg+xml</dc:format>
        <dc:type
           rdf:resource="http://purl.org/dc/dcmitype/StillImage" />
      </cc:Work>
    </rdf:RDF>
  </metadata>
  <g
     inkscape:groupmode="layer"
     id="layer1"
     inkscape:label="hedge"
     style="display:inline">
    <path
       id="path2422"
       d="m 85.790058,806.66174 c 4.40859,-11.97606 7.616578,-14.57319 15.571982,-14.94672 9.27085,-0.4353 10.80536,16.01377 12.81786,10.44837 5.76788,-15.9508 11.11348,-47.89949 28.02902,-50.0327 9.45815,-1.19276 15.23903,5.68342 20.46068,16.9495 18.75189,-33.01319 45.04253,-20.31068 51.03491,7.3125 7.75699,-50.35337 44.20683,-39.5224 49.35749,-19.8567 3.28507,12.5427 1.69711,17.81368 7.02406,4.2684 6.82804,-17.3061 40.11762,-16.08725 40.96658,15.7375 1.8695,-8.06593 2.67032,-10.87274 5.9688,-19.1048 5.94076,-14.82644 35.88965,-20.12713 44.4294,3.3111 2.70516,5.7183 4.9269,11.5775 4.93722,13.0206 14.65474,-28.3808 38.30948,-32.7616 51.46422,-4.1424 l 5.24,-8.9414 c 16.89912,-28.8362 30.00864,-27.4698 39.93238,-9.5452 5.5467,8.97022 3.21038,25.48404 11.6352,8.2529 13.61303,-29.13752 38.95555,9.81439 52.69743,42.5587 1.5341,5.0413 0.73826,6.81433 1.33967,3.25831 0.97241,-5.74973 20.29083,-25.48703 34.61492,31.2301 0.55351,10.0019 0.36887,16.16993 4.53554,28.89398 l -508.500003,0 c 6.840301,-27.72638 13.472578,-60.29935 26.442641,-58.67204 z"
       style="fill:url(#linearGradient3239);fill-opacity:1;stroke:#000000;stroke-width:2.79999995;stroke-miterlimit:4;stroke-opacity:1;stroke-dasharray:none;display:inline;filter:url(#filter3264)"
       sodipodi:nodetypes="csssccsccscccccccscccc"
       transform="translate(-56.847417,-735.33378)" />
    <path
       transform="matrix(0.9930947,0,0,0.9287067,-55.449544,-671.42155)"
       style="fill:url(#linearGradient3231);fill-opacity:1;stroke:none;display:inline;filter:url(#filter3209)"
       d="m 447.41298,732.59931 c -7.21512,-0.0189 -11.25336,7.29949 -24.31923,28.08819 l -5.25,8.9375 c -13.15474,-28.6192 -27.55771,-39.45233 -51.46875,4.15625 -0.0103,-1.4431 -3.65638,-9.5971 -6.36154,-15.31542 -9.25178,-26.48378 -28.49718,-26.51419 -38.71007,-4.07389 -3.66497,8.05287 -10.37139,26.72693 -10.24089,24.29284 -5.38025,-31.23225 -26.43061,-51.92892 -38.95484,-17.87228 -5.32695,13.54528 -9.64184,8.51963 -11.89325,-4.28125 -3.72661,-21.18848 -29.48236,-44.18338 -46.49566,19.875 -10.26452,-29.14596 -33.02263,-47.1782 -51.0625,-7.3125 -5.22165,-11.26608 -9.76258,-21.3366 -19.27169,-22.07546 -8.91114,-0.69239 -23.42918,41.02955 -29.19706,56.98035 -2.0125,5.5654 -4.86222,-15.6844 -17.741766,-14.9773 -7.076117,1.5096 -2.52114,13.63433 -18.284086,18.17753 -3.963054,11.50634 -12.40831,39.03993 -14.479467,58.14488 l 502.140539,0 c -2.69963,-19.43947 -3.65802,-13.9513 -3.84007,-29.98061 -10.25301,-45.76284 -19.5125,-47.7152 -29.4796,-32.45331 -4.99209,7.64403 -4.10087,-1.51088 -17.18711,-26.47437 -16.22349,-24.07608 -25.03274,-53.78062 -38.64578,-17.02921 -8.42482,17.23114 -8.09221,2.84252 -13.63891,-6.12772 -4.34164,-9.81076 -3.5983,-20.66455 -15.61827,-20.67922 z"
       id="path3233"
       sodipodi:nodetypes="cccccsccsccsscccccscccc" />
    <path
       sodipodi:type="inkscape:offset"
       inkscape:radius="0"
       inkscape:original="M 448.125 738.25 C 440.90988 737.78619 432.5995 744.46714 423.09375 760.6875 L 417.84375 769.625 C 404.68901 741.0058 381.02974 745.40045 366.375 773.78125 C 366.36468 772.33815 364.14266 766.4683 361.4375 760.75 C 352.89775 737.31177 322.97201 742.61106 317.03125 757.4375 C 313.73277 765.66956 312.932 768.46532 311.0625 776.53125 C 310.21354 744.7065 276.92179 743.5064 270.09375 760.8125 C 264.7668 774.35778 266.34757 769.07395 263.0625 756.53125 C 257.91184 736.86555 221.47574 726.05288 213.71875 776.40625 C 207.72637 748.78307 181.40814 736.08056 162.65625 769.09375 C 157.4346 757.82767 151.6769 750.93224 142.21875 752.125 C 125.30321 754.25821 119.95538 786.20545 114.1875 802.15625 C 112.175 807.72165 110.64585 791.28345 101.375 791.71875 C 93.419596 792.09228 90.18984 794.68019 85.78125 806.65625 C 72.811187 805.02894 66.184051 837.61737 59.34375 865.34375 L 567.84375 865.34375 C 563.67708 852.6197 563.86601 846.4394 563.3125 836.4375 C 548.98841 779.72037 529.65991 799.46902 528.6875 805.21875 C 528.08609 808.77477 528.87785 806.9788 527.34375 801.9375 C 513.60187 769.19319 488.26928 730.26873 474.65625 759.40625 C 466.23143 776.63739 468.57795 760.09522 463.03125 751.125 C 458.68961 743.28299 453.73676 738.61074 448.125 738.25 z "
       xlink:href="#path2422"
       style="opacity:0.4;fill:#0ac20a;fill-opacity:1;stroke:none;display:inline;filter:url(#filter3192)"
       id="path3237"
       inkscape:href="#path2422"
       d="m 448.125,738.25 c -7.21512,-0.46381 -15.5255,6.21714 -25.03125,22.4375 l -5.25,8.9375 c -13.15474,-28.6192 -36.81401,-24.22455 -51.46875,4.15625 -0.0103,-1.4431 -2.23234,-7.31295 -4.9375,-13.03125 -8.53975,-23.43823 -38.46549,-18.13894 -44.40625,-3.3125 -3.29848,8.23206 -4.09925,11.02782 -5.96875,19.09375 -0.84896,-31.82475 -34.14071,-33.02485 -40.96875,-15.71875 -5.32695,13.54528 -3.74618,8.26145 -7.03125,-4.28125 -5.15066,-19.6657 -41.58676,-30.47837 -49.34375,19.875 -5.99238,-27.62318 -32.31061,-40.32569 -51.0625,-7.3125 -5.22165,-11.26608 -10.97935,-18.16151 -20.4375,-16.96875 -16.91554,2.13321 -22.26337,34.08045 -28.03125,50.03125 -2.0125,5.5654 -3.54165,-10.8728 -12.8125,-10.4375 -7.955404,0.37353 -11.18516,2.96144 -15.59375,14.9375 -12.970063,-1.62731 -19.597199,30.96112 -26.4375,58.6875 l 508.5,0 c -4.16667,-12.72405 -3.97774,-18.90435 -4.53125,-28.90625 -14.32409,-56.71713 -33.65259,-36.96848 -34.625,-31.21875 -0.60141,3.55602 0.19035,1.76005 -1.34375,-3.28125 -13.74188,-32.74431 -39.07447,-71.66877 -52.6875,-42.53125 -8.42482,17.23114 -6.0783,0.68897 -11.625,-8.28125 -4.34164,-7.84201 -9.29449,-12.51426 -14.90625,-12.875 z"
       transform="matrix(0.9960905,0,0,0.9772174,-55.619831,-712.74841)" />
  </g>
  <g
     transform="translate(-56.847417,-735.33378)"
     inkscape:label="plants"
     id="layer2"
     inkscape:groupmode="layer"
     style="display:inline">
    <g
       id="g3210"
       transform="matrix(0.9895793,0,0,0.9895793,-293.62513,288.99479)" />
    <g
       id="g3697"
       transform="translate(-8.9289316,1.5441557)">
      <path
         transform="matrix(0.3357566,0.2463227,-0.3008583,0.2748951,159.06922,762.4544)"
         d="m 117.8442,66.835258 c 0,3.319457 -4.48181,6.010408 -10.01041,6.010408 -5.52859,0 -10.010405,-2.690951 -10.010405,-6.010408 0,-3.319456 4.481815,-6.010407 10.010405,-6.010407 5.5286,0 10.01041,2.690951 10.01041,6.010407 z"
         sodipodi:ry="6.0104079"
         sodipodi:rx="10.010408"
         sodipodi:cy="66.835258"
         sodipodi:cx="107.83379"
         id="path3208"
         style="fill:url(#radialGradient2934);fill-opacity:1;fill-rule:nonzero;stroke:#c29600;stroke-width:0.73542207;stroke-linecap:round;stroke-linejoin:round;stroke-miterlimit:4;stroke-opacity:1;stroke-dasharray:none;stroke-dashoffset:0;marker:none;visibility:visible;display:inline;overflow:visible;filter:url(#filter3302);enable-background:accumulate"
         sodipodi:type="arc" />
      <path
         transform="matrix(0.3437084,-0.2388579,0.2917408,0.2814055,128.88176,815.48715)"
         d="m 116.78091,66.835258 c 0,3.319457 -4.00576,6.010408 -8.94712,6.010408 -4.94135,0 -8.947114,-2.690951 -8.947114,-6.010408 0,-3.319456 4.005764,-6.010407 8.947114,-6.010407 4.94136,0 8.94712,2.690951 8.94712,6.010407 z"
         sodipodi:ry="6.0104079"
         sodipodi:rx="8.9471178"
         sodipodi:cy="66.835258"
         sodipodi:cx="107.83379"
         id="path3218"
         style="fill:url(#radialGradient2936);fill-opacity:1;fill-rule:nonzero;stroke:#c29600;stroke-width:0.73542219;stroke-linecap:round;stroke-linejoin:round;stroke-miterlimit:4;stroke-opacity:1;stroke-dasharray:none;stroke-dashoffset:0;marker:none;visibility:visible;display:inline;overflow:visible;filter:url(#filter3294);enable-background:accumulate"
         sodipodi:type="arc" />
      <path
         transform="matrix(0.1316809,0.353014,-0.4311709,0.1078115,196.4157,770.73332)"
         d="m 116.3442,66.835258 c 0,3.319457 -3.81024,6.010408 -8.51041,6.010408 -4.70017,0 -8.510405,-2.690951 -8.510405,-6.010408 0,-3.319456 3.810235,-6.010407 8.510405,-6.010407 4.70017,0 8.51041,2.690951 8.51041,6.010407 z"
         sodipodi:ry="6.0104079"
         sodipodi:rx="8.5104084"
         sodipodi:cy="66.835258"
         sodipodi:cx="107.83379"
         id="path3222"
         style="fill:url(#radialGradient2938);fill-opacity:1;fill-rule:nonzero;stroke:#c29600;stroke-width:0.73542207;stroke-linecap:round;stroke-linejoin:round;stroke-miterlimit:4;stroke-opacity:1;stroke-dasharray:none;stroke-dashoffset:0;marker:none;visibility:visible;display:inline;overflow:visible;filter:url(#filter3286);enable-background:accumulate"
         sodipodi:type="arc" />
      <path
         transform="matrix(0.4426378,-0.0700483,0.08555691,0.3624023,119.89696,795.25661)"
         d="m 116.8442,66.835258 c 0,3.319457 -4.0341,6.010408 -9.01041,6.010408 -4.97631,0 -9.010405,-2.690951 -9.010405,-6.010408 0,-3.319456 4.034095,-6.010407 9.010405,-6.010407 4.97631,0 9.01041,2.690951 9.01041,6.010407 z"
         sodipodi:ry="6.0104079"
         sodipodi:rx="9.0104084"
         sodipodi:cy="66.835258"
         sodipodi:cx="107.83379"
         id="path3226"
         style="fill:url(#radialGradient2940);fill-opacity:1;fill-rule:nonzero;stroke:#c29600;stroke-width:0.73542207;stroke-linecap:round;stroke-linejoin:round;stroke-miterlimit:4;stroke-opacity:1;stroke-dasharray:none;stroke-dashoffset:0;marker:none;visibility:visible;display:inline;overflow:visible;filter:url(#filter3278);enable-background:accumulate"
         sodipodi:type="arc" />
      <path
         transform="matrix(-0.2583343,0.3025013,-0.3694748,-0.2115069,228.543,797.24453)"
         d="m 116.8442,66.835258 c 0,3.319457 -4.0341,6.010408 -9.01041,6.010408 -4.97631,0 -9.010405,-2.690951 -9.010405,-6.010408 0,-3.319456 4.034095,-6.010407 9.010405,-6.010407 4.97631,0 9.01041,2.690951 9.01041,6.010407 z"
         sodipodi:ry="6.0104079"
         sodipodi:rx="9.0104084"
         sodipodi:cy="66.835258"
         sodipodi:cx="107.83379"
         id="path3230"
         style="fill:url(#radialGradient2942);fill-opacity:1;fill-rule:nonzero;stroke:#c29600;stroke-width:0.73542202;stroke-linecap:round;stroke-linejoin:round;stroke-miterlimit:4;stroke-opacity:1;stroke-dasharray:none;stroke-dashoffset:0;marker:none;visibility:visible;display:inline;overflow:visible;filter:url(#filter3282);enable-background:accumulate"
         sodipodi:type="arc" />
      <path
         transform="matrix(0.3889847,0.1865906,-0.2279015,0.3184748,159.29207,771.85783)"
         d="m 116.8442,66.835258 c 0,3.319457 -4.0341,6.010408 -9.01041,6.010408 -4.97631,0 -9.010405,-2.690951 -9.010405,-6.010408 0,-3.319456 4.034095,-6.010407 9.010405,-6.010407 4.97631,0 9.01041,2.690951 9.01041,6.010407 z"
         sodipodi:ry="6.0104079"
         sodipodi:rx="9.0104084"
         sodipodi:cy="66.835258"
         sodipodi:cx="107.83379"
         id="path3234"
         style="fill:url(#radialGradient2944);fill-opacity:1;fill-rule:nonzero;stroke:#c29600;stroke-width:0.73542202;stroke-linecap:round;stroke-linejoin:round;stroke-miterlimit:4;stroke-opacity:1;stroke-dasharray:none;stroke-dashoffset:0;marker:none;visibility:visible;display:inline;overflow:visible;filter:url(#filter3290);enable-background:accumulate"
         sodipodi:type="arc" />
      <path
         transform="matrix(-0.05859751,0.3659789,-0.4470062,-0.04797574,217.14306,769.81536)"
         d="m 117.68814,66.835258 c 0,3.070357 -4.41194,5.559372 -9.85435,5.559372 -5.4424,0 -9.854343,-2.489015 -9.854343,-5.559372 0,-3.070356 4.411943,-5.559371 9.854343,-5.559371 5.44241,0 9.85435,2.489015 9.85435,5.559371 z"
         sodipodi:ry="5.5593715"
         sodipodi:rx="9.8543463"
         sodipodi:cy="66.835258"
         sodipodi:cx="107.83379"
         id="path3306"
         style="fill:url(#radialGradient2946);fill-opacity:1;fill-rule:nonzero;stroke:#c29600;stroke-width:0.73542202;stroke-linecap:round;stroke-linejoin:round;stroke-miterlimit:4;stroke-opacity:1;stroke-dasharray:none;stroke-dashoffset:0;marker:none;visibility:visible;display:inline;overflow:visible;filter:url(#filter3326);enable-background:accumulate"
         sodipodi:type="arc" />
      <path
         transform="matrix(0.4435274,0,0,0.3631307,98.993041,778.44443)"
         d="m 190.21173,90.876892 c 0,4.49103 -3.6407,8.131728 -8.13173,8.131728 -4.49103,0 -8.13173,-3.640698 -8.13173,-8.131728 0,-4.491029 3.6407,-8.131728 8.13173,-8.131728 4.49103,0 8.13173,3.640699 8.13173,8.131728 z"
         sodipodi:ry="8.1317282"
         sodipodi:rx="8.1317282"
         sodipodi:cy="90.876892"
         sodipodi:cx="182.08"
         id="path3188"
         style="fill:#858f14;fill-opacity:1;fill-rule:nonzero;stroke:none;stroke-width:2.80075169;marker:none;visibility:visible;display:inline;overflow:visible;filter:url(#filter3194);enable-background:accumulate"
         sodipodi:type="arc" />
    </g>
    <g
       id="g3709"
       transform="matrix(0.97849682,0,0,0.97849682,-34.755619,30.951948)">
      <path
         sodipodi:type="arc"
         style="fill:url(#radialGradient3719);fill-opacity:1;fill-rule:nonzero;stroke:#ab8a17;stroke-width:0.73542207;stroke-linecap:round;stroke-linejoin:round;stroke-miterlimit:4;stroke-opacity:1;stroke-dasharray:none;stroke-dashoffset:0;marker:none;visibility:visible;display:inline;overflow:visible;filter:url(#filter3302);enable-background:accumulate"
         id="use3361"
         sodipodi:cx="107.83379"
         sodipodi:cy="66.835258"
         sodipodi:rx="10.010408"
         sodipodi:ry="6.0104079"
         d="m 117.8442,66.835258 c 0,3.319457 -4.48181,6.010408 -10.01041,6.010408 -5.52859,0 -10.010405,-2.690951 -10.010405,-6.010408 0,-3.319456 4.481815,-6.010407 10.010405,-6.010407 5.5286,0 10.01041,2.690951 10.01041,6.010407 z"
         transform="matrix(-0.2569964,0.1838897,0.2302844,0.2052202,455.31731,763.63069)" />
      <path
         sodipodi:type="arc"
         style="fill:url(#radialGradient3721);fill-opacity:1;fill-rule:nonzero;stroke:#ab8a17;stroke-width:0.73542219;stroke-linecap:round;stroke-linejoin:round;stroke-miterlimit:4;stroke-opacity:1;stroke-dasharray:none;stroke-dashoffset:0;marker:none;visibility:visible;display:inline;overflow:visible;filter:url(#filter3294);enable-background:accumulate"
         id="use3363"
         sodipodi:cx="107.83379"
         sodipodi:cy="66.835258"
         sodipodi:rx="9.948101"
         sodipodi:ry="6.0104079"
         d="m 117.78189,66.835258 c 0,3.319457 -4.45391,6.010408 -9.9481,6.010408 -5.49418,0 -9.948097,-2.690951 -9.948097,-6.010408 0,-3.319456 4.453917,-6.010407 9.948097,-6.010407 5.49419,0 9.9481,2.690951 9.9481,6.010407 z"
         transform="matrix(-0.2630829,-0.178317,-0.2233056,0.2100805,478.03727,802.60549)" />
      <path
         sodipodi:type="arc"
         style="fill:url(#radialGradient3723);fill-opacity:1;fill-rule:nonzero;stroke:#ab8a17;stroke-width:0.73542207;stroke-linecap:round;stroke-linejoin:round;stroke-miterlimit:4;stroke-opacity:1;stroke-dasharray:none;stroke-dashoffset:0;marker:none;visibility:visible;display:inline;overflow:visible;filter:url(#filter3286);enable-background:accumulate"
         id="use3365"
         sodipodi:cx="107.83379"
         sodipodi:cy="66.835258"
         sodipodi:rx="10.575513"
         sodipodi:ry="6.0104079"
         d="m 118.40931,66.835258 c 0,3.319457 -4.73482,6.010408 -10.57552,6.010408 -5.84069,0 -10.575509,-2.690951 -10.575509,-6.010408 0,-3.319456 4.734819,-6.010407 10.575509,-6.010407 5.8407,0 10.57552,2.690951 10.57552,6.010407 z"
         transform="matrix(-0.1007918,0.2635391,0.3300289,0.0804856,426.12141,770.46986)" />
      <path
         sodipodi:type="arc"
         style="fill:url(#radialGradient3725);fill-opacity:1;fill-rule:nonzero;stroke:#ab8a17;stroke-width:0.73542207;stroke-linecap:round;stroke-linejoin:round;stroke-miterlimit:4;stroke-opacity:1;stroke-dasharray:none;stroke-dashoffset:0;marker:none;visibility:visible;display:inline;overflow:visible;filter:url(#filter3278);enable-background:accumulate"
         id="use3367"
         sodipodi:cx="107.83379"
         sodipodi:cy="66.835258"
         sodipodi:rx="9.0104084"
         sodipodi:ry="6.0104079"
         d="m 116.8442,66.835258 c 0,3.319457 -4.0341,6.010408 -9.01041,6.010408 -4.97631,0 -9.010405,-2.690951 -9.010405,-6.010408 0,-3.319456 4.034095,-6.010407 9.010405,-6.010407 4.97631,0 9.01041,2.690951 9.01041,6.010407 z"
         transform="matrix(-0.3388059,-0.05229386,-0.06548738,0.2705478,485.16542,788.1164)" />
      <path
         sodipodi:type="arc"
         style="fill:url(#radialGradient3727);fill-opacity:1;fill-rule:nonzero;stroke:#ab8a17;stroke-width:0.73542202;stroke-linecap:round;stroke-linejoin:round;stroke-miterlimit:4;stroke-opacity:1;stroke-dasharray:none;stroke-dashoffset:0;marker:none;visibility:visible;display:inline;overflow:visible;filter:url(#filter3282);enable-background:accumulate"
         id="use3369"
         sodipodi:cx="107.83379"
         sodipodi:cy="66.835258"
         sodipodi:rx="9.4200621"
         sodipodi:ry="6.0104079"
         d="m 117.25386,66.835258 c 0,3.319457 -4.21751,6.010408 -9.42007,6.010408 -5.20255,0 -9.420058,-2.690951 -9.420058,-6.010408 0,-3.319456 4.217508,-6.010407 9.420058,-6.010407 5.20256,0 9.42007,2.690951 9.42007,6.010407 z"
         transform="matrix(0.1977355,0.2258293,0.2828052,-0.1578984,401.77044,789.8196)" />
      <path
         sodipodi:type="arc"
         style="fill:url(#radialGradient3729);fill-opacity:1;fill-rule:nonzero;stroke:#ab8a17;stroke-width:0.73542202;stroke-linecap:round;stroke-linejoin:round;stroke-miterlimit:4;stroke-opacity:1;stroke-dasharray:none;stroke-dashoffset:0;marker:none;visibility:visible;display:inline;overflow:visible;filter:url(#filter3290);enable-background:accumulate"
         id="use3371"
         sodipodi:cx="107.83379"
         sodipodi:cy="66.835258"
         sodipodi:rx="9.9977198"
         sodipodi:ry="6.0104079"
         d="m 117.83151,66.835258 c 0,3.319457 -4.47613,6.010408 -9.99772,6.010408 -5.52158,0 -9.997716,-2.690951 -9.997716,-6.010408 0,-3.319456 4.476136,-6.010407 9.997716,-6.010407 5.52159,0 9.99772,2.690951 9.99772,6.010407 z"
         transform="matrix(-0.2977385,0.1392973,0.1744415,0.2377542,454.57822,770.56111)" />
      <path
         sodipodi:type="arc"
         style="fill:url(#radialGradient3731);fill-opacity:1;fill-rule:nonzero;stroke:#ab8a17;stroke-width:0.73542202;stroke-linecap:round;stroke-linejoin:round;stroke-miterlimit:4;stroke-opacity:1;stroke-dasharray:none;stroke-dashoffset:0;marker:none;visibility:visible;display:inline;overflow:visible;filter:url(#filter3326);enable-background:accumulate"
         id="use3373"
         sodipodi:cx="107.83379"
         sodipodi:cy="66.835258"
         sodipodi:rx="10.227757"
         sodipodi:ry="5.7564397"
         d="m 118.06155,66.835258 c 0,3.179194 -4.57912,5.75644 -10.22776,5.75644 -5.64863,0 -10.227754,-2.577246 -10.227754,-5.75644 0,-3.179193 4.579124,-5.756439 10.227754,-5.756439 5.64864,0 10.22776,2.577246 10.22776,5.756439 z"
         transform="matrix(0.04485199,0.2732179,0.3421496,-0.03581581,410.81377,768.55325)" />
      <path
         sodipodi:type="arc"
         style="fill:#957108;fill-opacity:1;fill-rule:nonzero;stroke:none;stroke-width:2.79999995;marker:none;visibility:visible;display:inline;overflow:visible;filter:url(#filter3194);enable-background:accumulate"
         id="use3359"
         sodipodi:cx="182.08"
         sodipodi:cy="90.876892"
         sodipodi:rx="8.1317282"
         sodipodi:ry="8.1317282"
         d="m 190.21173,90.876892 c 0,4.49103 -3.6407,8.131728 -8.13173,8.131728 -4.49103,0 -8.13173,-3.640698 -8.13173,-8.131728 0,-4.491029 3.6407,-8.131728 8.13173,-8.131728 4.49103,0 8.13173,3.640699 8.13173,8.131728 z"
         transform="matrix(-0.3394869,0,0,0.2710916,500.92181,775.47827)" />
    </g>
    <g
       id="g3733"
       transform="matrix(0.91632708,0,0,0.91632708,-96.0518,73.851428)">
      <path
         transform="matrix(0.3357566,0.2463227,-0.3008583,0.2748951,310.78013,772.47585)"
         d="m 117.8442,66.835258 c 0,3.319457 -4.48181,6.010408 -10.01041,6.010408 -5.52859,0 -10.010405,-2.690951 -10.010405,-6.010408 0,-3.319456 4.481815,-6.010407 10.010405,-6.010407 5.5286,0 10.01041,2.690951 10.01041,6.010407 z"
         sodipodi:ry="6.0104079"
         sodipodi:rx="10.010408"
         sodipodi:cy="66.835258"
         sodipodi:cx="107.83379"
         id="path3447"
         style="fill:url(#radialGradient3463);fill-opacity:1;fill-rule:nonzero;stroke:#8d7f13;stroke-width:0.73542207;stroke-linecap:round;stroke-linejoin:round;stroke-miterlimit:4;stroke-opacity:1;stroke-dasharray:none;stroke-dashoffset:0;marker:none;visibility:visible;display:inline;overflow:visible;filter:url(#filter3302);enable-background:accumulate"
         sodipodi:type="arc" />
      <path
         transform="matrix(0.3437084,-0.2388579,0.2917408,0.2814055,280.96399,825.05149)"
         d="m 116.78091,66.835258 c 0,3.319457 -4.00576,6.010408 -8.94712,6.010408 -4.94135,0 -8.947114,-2.690951 -8.947114,-6.010408 0,-3.319456 4.005764,-6.010407 8.947114,-6.010407 4.94136,0 8.94712,2.690951 8.94712,6.010407 z"
         sodipodi:ry="6.0104079"
         sodipodi:rx="8.9471178"
         sodipodi:cy="66.835258"
         sodipodi:cx="107.83379"
         id="path3449"
         style="fill:url(#radialGradient3465);fill-opacity:1;fill-rule:nonzero;stroke:#8d7f13;stroke-width:0.73542219;stroke-linecap:round;stroke-linejoin:round;stroke-miterlimit:4;stroke-opacity:1;stroke-dasharray:none;stroke-dashoffset:0;marker:none;visibility:visible;display:inline;overflow:visible;filter:url(#filter3294);enable-background:accumulate"
         sodipodi:type="arc" />
      <path
         transform="matrix(0.1316809,0.353014,-0.4311709,0.1078115,348.4247,780.9922)"
         d="m 116.3442,66.835258 c 0,3.319457 -3.81024,6.010408 -8.51041,6.010408 -4.70017,0 -8.510405,-2.690951 -8.510405,-6.010408 0,-3.319456 3.810235,-6.010407 8.510405,-6.010407 4.70017,0 8.51041,2.690951 8.51041,6.010407 z"
         sodipodi:ry="6.0104079"
         sodipodi:rx="8.5104084"
         sodipodi:cy="66.835258"
         sodipodi:cx="107.83379"
         id="path3451"
         style="fill:url(#radialGradient3467);fill-opacity:1;fill-rule:nonzero;stroke:#8d7f13;stroke-width:0.73542207;stroke-linecap:round;stroke-linejoin:round;stroke-miterlimit:4;stroke-opacity:1;stroke-dasharray:none;stroke-dashoffset:0;marker:none;visibility:visible;display:inline;overflow:visible;filter:url(#filter3286);enable-background:accumulate"
         sodipodi:type="arc" />
      <path
         transform="matrix(0.4426378,-0.0700483,0.08555691,0.3624023,271.40964,805.36016)"
         d="m 116.8442,66.835258 c 0,3.319457 -4.0341,6.010408 -9.01041,6.010408 -4.97631,0 -9.010405,-2.690951 -9.010405,-6.010408 0,-3.319456 4.034095,-6.010407 9.010405,-6.010407 4.97631,0 9.01041,2.690951 9.01041,6.010407 z"
         sodipodi:ry="6.0104079"
         sodipodi:rx="9.0104084"
         sodipodi:cy="66.835258"
         sodipodi:cx="107.83379"
         id="path3453"
         style="fill:url(#radialGradient3469);fill-opacity:1;fill-rule:nonzero;stroke:#8d7f13;stroke-width:0.73542207;stroke-linecap:round;stroke-linejoin:round;stroke-miterlimit:4;stroke-opacity:1;stroke-dasharray:none;stroke-dashoffset:0;marker:none;visibility:visible;display:inline;overflow:visible;filter:url(#filter3278);enable-background:accumulate"
         sodipodi:type="arc" />
      <path
         transform="matrix(-0.2583343,0.3025013,-0.3694748,-0.2115069,380.31457,807.25341)"
         d="m 116.8442,66.835258 c 0,3.319457 -4.0341,6.010408 -9.01041,6.010408 -4.97631,0 -9.010405,-2.690951 -9.010405,-6.010408 0,-3.319456 4.034095,-6.010407 9.010405,-6.010407 4.97631,0 9.01041,2.690951 9.01041,6.010407 z"
         sodipodi:ry="6.0104079"
         sodipodi:rx="9.0104084"
         sodipodi:cy="66.835258"
         sodipodi:cx="107.83379"
         id="path3455"
         style="fill:url(#radialGradient3471);fill-opacity:1;fill-rule:nonzero;stroke:#8d7f13;stroke-width:0.73542202;stroke-linecap:round;stroke-linejoin:round;stroke-miterlimit:4;stroke-opacity:1;stroke-dasharray:none;stroke-dashoffset:0;marker:none;visibility:visible;display:inline;overflow:visible;filter:url(#filter3282);enable-background:accumulate"
         sodipodi:type="arc" />
      <path
         transform="matrix(0.3889847,0.1865906,-0.2279015,0.3184748,310.85285,781.73283)"
         d="m 116.8442,66.835258 c 0,3.319457 -4.0341,6.010408 -9.01041,6.010408 -4.97631,0 -9.010405,-2.690951 -9.010405,-6.010408 0,-3.319456 4.034095,-6.010407 9.010405,-6.010407 4.97631,0 9.01041,2.690951 9.01041,6.010407 z"
         sodipodi:ry="6.0104079"
         sodipodi:rx="9.0104084"
         sodipodi:cy="66.835258"
         sodipodi:cx="107.83379"
         id="path3457"
         style="fill:url(#radialGradient3473);fill-opacity:1;fill-rule:nonzero;stroke:#8d7f13;stroke-width:0.73542202;stroke-linecap:round;stroke-linejoin:round;stroke-miterlimit:4;stroke-opacity:1;stroke-dasharray:none;stroke-dashoffset:0;marker:none;visibility:visible;display:inline;overflow:visible;filter:url(#filter3290);enable-background:accumulate"
         sodipodi:type="arc" />
      <path
         transform="matrix(-0.05859751,0.3659789,-0.4470062,-0.04797574,368.8843,779.55647)"
         d="m 118.20457,66.835258 c 0,3.015795 -4.64315,5.46058 -10.37078,5.46058 -5.72762,0 -10.370774,-2.444785 -10.370774,-5.46058 0,-3.015795 4.643154,-5.460579 10.370774,-5.460579 5.72763,0 10.37078,2.444784 10.37078,5.460579 z"
         sodipodi:ry="5.4605799"
         sodipodi:rx="10.370778"
         sodipodi:cy="66.835258"
         sodipodi:cx="107.83379"
         id="path3459"
         style="fill:url(#radialGradient3475);fill-opacity:1;fill-rule:nonzero;stroke:#8d7f13;stroke-width:0.73542202;stroke-linecap:round;stroke-linejoin:round;stroke-miterlimit:4;stroke-opacity:1;stroke-dasharray:none;stroke-dashoffset:0;marker:none;visibility:visible;display:inline;overflow:visible;filter:url(#filter3326);enable-background:accumulate"
         sodipodi:type="arc" />
      <path
         transform="matrix(0.4435274,0,0,0.3631307,250.99316,788.44443)"
         d="m 190.21173,90.876892 c 0,4.49103 -3.6407,8.131728 -8.13173,8.131728 -4.49103,0 -8.13173,-3.640698 -8.13173,-8.131728 0,-4.491029 3.6407,-8.131728 8.13173,-8.131728 4.49103,0 8.13173,3.640699 8.13173,8.131728 z"
         sodipodi:ry="8.1317282"
         sodipodi:rx="8.1317282"
         sodipodi:cy="90.876892"
         sodipodi:cx="182.08"
         id="path3445"
         style="fill:#858f14;fill-opacity:1;fill-rule:nonzero;stroke:none;stroke-width:2.79999995;marker:none;visibility:visible;display:inline;overflow:visible;filter:url(#filter3194);enable-background:accumulate"
         sodipodi:type="arc" />
    </g>
    <use
       x="0"
       y="0"
       xlink:href="#g3697"
       id="use3707"
       transform="matrix(0.96426846,0,0,0.96426846,278.50813,25.032461)"
       width="512"
       height="128" />
  </g>
</svg>
