<?xml version="1.0" encoding="UTF-8" standalone="no"?>
<!-- Created with Inkscape (http://www.inkscape.org/) -->

<svg
   xmlns:dc="http://purl.org/dc/elements/1.1/"
   xmlns:cc="http://creativecommons.org/ns#"
   xmlns:rdf="http://www.w3.org/1999/02/22-rdf-syntax-ns#"
   xmlns:svg="http://www.w3.org/2000/svg"
   xmlns="http://www.w3.org/2000/svg"
   xmlns:xlink="http://www.w3.org/1999/xlink"
   xmlns:sodipodi="http://sodipodi.sourceforge.net/DTD/sodipodi-0.dtd"
   xmlns:inkscape="http://www.inkscape.org/namespaces/inkscape"
   width="512"
   height="128"
   id="svg2"
   sodipodi:version="0.32"
   inkscape:version="0.46+devel 22040"
   version="1.0"
   sodipodi:docname="small_1.svg"
   inkscape:output_extension="org.inkscape.output.svg.inkscape"
   inkscape:export-filename="C:\Dateien\Desktop\Secret Maryo Chronicles\SMC\data\pixmaps\ground\green_1\hedges\small_1.png"
   inkscape:export-xdpi="90"
   inkscape:export-ydpi="90"
   style="display:inline">
  <sodipodi:namedview
     id="base"
     pagecolor="#091708"
     bordercolor="#666666"
     borderopacity="1.0"
     inkscape:pageopacity="0"
     inkscape:pageshadow="2"
     inkscape:zoom="0.94280904"
     inkscape:cx="267.79611"
     inkscape:cy="134.03682"
     inkscape:document-units="px"
     inkscape:current-layer="layer2"
     showgrid="false"
     inkscape:showpageshadow="false"
     inkscape:window-width="1154"
     inkscape:window-height="854"
     inkscape:window-x="64"
     inkscape:window-y="62"
     showguides="true"
     inkscape:guide-bbox="true"
     inkscape:snap-nodes="false"
     inkscape:snap-grids="false"
     inkscape:window-maximized="0" />
  <defs
     id="defs4">
    <inkscape:perspective
       sodipodi:type="inkscape:persp3d"
       inkscape:vp_x="0 : 64 : 1"
       inkscape:vp_y="0 : 1000 : 0"
       inkscape:vp_z="512 : 64 : 1"
       inkscape:persp3d-origin="256 : 42.666667 : 1"
       id="perspective112" />
    <linearGradient
       id="linearGradient3477">
      <stop
         id="stop3479"
         offset="0"
         style="stop-color:#e6ff0b;stop-opacity:1;" />
      <stop
         id="stop3481"
         offset="1"
         style="stop-color:#b2d200;stop-opacity:1;" />
    </linearGradient>
    <linearGradient
       id="linearGradient3409">
      <stop
         id="stop3411"
         offset="0"
         style="stop-color:#ffe817;stop-opacity:1;" />
      <stop
         id="stop3413"
         offset="1"
         style="stop-color:#dcb712;stop-opacity:1;" />
    </linearGradient>
    <linearGradient
       id="linearGradient3210">
      <stop
         style="stop-color:#fff817;stop-opacity:1;"
         offset="0"
         id="stop3212" />
      <stop
         style="stop-color:#dcdf11;stop-opacity:1;"
         offset="1"
         id="stop3214" />
    </linearGradient>
    <linearGradient
       id="linearGradient3243">
      <stop
         id="stop3245"
         offset="0"
         style="stop-color:#13cb00;stop-opacity:1;" />
      <stop
         id="stop3249"
         offset="1"
         style="stop-color:#0ae70a;stop-opacity:0.78971964;" />
    </linearGradient>
    <linearGradient
       id="linearGradient3187">
      <stop
         style="stop-color:#0bb60b;stop-opacity:1;"
         offset="0"
         id="stop3189" />
      <stop
         style="stop-color:#0c850c;stop-opacity:1;"
         offset="1"
         id="stop3191" />
    </linearGradient>
    <filter
       id="filter3192"
       inkscape:label="filter2"
       width="1"
       height="1"
       x="0"
       y="0"
       color-interpolation-filters="sRGB">
      <feTurbulence
         id="feTurbulence3194"
         type="turbulence"
         baseFrequency="0.28999999999999998"
         numOctaves="1"
         seed="398"
         result="result0"
         in="SourceGraphic" />
      <feColorMatrix
         id="feColorMatrix3198"
         type="matrix"
         values="0 1.3 0 0 0 0.2 2.8 0.1 0.9 0 0 0 0 0 0 0.3 0.7 0.5 0.1 0 "
         result="result1" />
      <feMorphology
         id="feMorphology3758"
         radius="1"
         operator="erode"
         in="SourceGraphic"
         result="result2" />
      <feComposite
         id="feComposite3216"
         operator="in"
         in="result1"
         in2="result2" />
    </filter>
    <filter
       id="filter3209"
       inkscape:label="filter4"
       color-interpolation-filters="sRGB">
      <feGaussianBlur
         stdDeviation="13"
         id="feGaussianBlur3174"
         in="SourceGraphic" />
      <feDiffuseLighting
         id="feDiffuseLighting3225"
         surfaceScale="16"
         diffuseConstant="1.1000000000000001"
         kernelUnitLength="0.01"
         lighting-color="#ffffff">
        <feDistantLight
           id="feDistantLight3982"
           azimuth="237"
           elevation="50" />
      </feDiffuseLighting>
      <feComposite
         id="feComposite3217"
         in2="SourceGraphic"
         operator="arithmetic"
         k1="1"
         k2="0"
         k3="0.20000000000000001"
         k4="2.7755576e-17" />
      <feMorphology
         id="feMorphology3727"
         radius="4.0999999999999996" />
      <feGaussianBlur
         stdDeviation="3"
         id="feGaussianBlur3185" />
    </filter>
    <filter
       inkscape:label="filter4"
       id="filter3194"
       color-interpolation-filters="sRGB">
      <feGaussianBlur
         in="SourceGraphic"
         id="feGaussianBlur3196"
         stdDeviation="3" />
      <feDiffuseLighting
         lighting-color="#ffffff"
         kernelUnitLength="0.01"
         diffuseConstant="0.40000000000000013"
         surfaceScale="50"
         id="feDiffuseLighting3198">
        <feDistantLight
           elevation="59"
           azimuth="240"
           id="feDistantLight3200" />
      </feDiffuseLighting>
      <feComposite
         k4="2.7755576e-17"
         k3="0.59999999999999998"
         k2="0"
         k1="1"
         operator="arithmetic"
         in2="SourceGraphic"
         id="feComposite3202" />
      <feGaussianBlur
         id="feGaussianBlur3204"
         stdDeviation="1" />
    </filter>
    <filter
       inkscape:collect="always"
       id="filter3278"
       color-interpolation-filters="sRGB">
      <feGaussianBlur
         inkscape:collect="always"
         stdDeviation="0.48928543"
         id="feGaussianBlur3280" />
    </filter>
    <filter
       inkscape:collect="always"
       id="filter3282"
       color-interpolation-filters="sRGB">
      <feGaussianBlur
         inkscape:collect="always"
         stdDeviation="0.48928546"
         id="feGaussianBlur3284" />
    </filter>
    <filter
       inkscape:collect="always"
       id="filter3286"
       color-interpolation-filters="sRGB">
      <feGaussianBlur
         inkscape:collect="always"
         stdDeviation="0.48928542"
         id="feGaussianBlur3288" />
    </filter>
    <filter
       inkscape:collect="always"
       id="filter3290"
       color-interpolation-filters="sRGB">
      <feGaussianBlur
         inkscape:collect="always"
         stdDeviation="0.48928543"
         id="feGaussianBlur3292" />
    </filter>
    <filter
       inkscape:collect="always"
       id="filter3294"
       color-interpolation-filters="sRGB">
      <feGaussianBlur
         inkscape:collect="always"
         stdDeviation="0.48928544"
         id="feGaussianBlur3296" />
    </filter>
    <filter
       inkscape:collect="always"
       id="filter3302"
       inkscape:label="filter8"
       color-interpolation-filters="sRGB">
      <feGaussianBlur
         inkscape:collect="always"
         stdDeviation="0.50978397"
         id="feGaussianBlur3304" />
    </filter>
    <filter
       inkscape:collect="always"
       id="filter3326"
       color-interpolation-filters="sRGB">
      <feGaussianBlur
         inkscape:collect="always"
         stdDeviation="0.46462274"
         id="feGaussianBlur3328" />
    </filter>
    <radialGradient
       inkscape:collect="always"
       xlink:href="#linearGradient3409"
       id="radialGradient3719"
       gradientUnits="userSpaceOnUse"
       gradientTransform="matrix(-2.0056668,0.12698285,0.06228288,-0.56094314,319.94976,90.632998)"
       cx="107.83379"
       cy="66.835258"
       fx="107.83379"
       fy="66.835258"
       r="10.378119" />
    <radialGradient
       inkscape:collect="always"
       xlink:href="#linearGradient3409"
       id="radialGradient3721"
       gradientUnits="userSpaceOnUse"
       gradientTransform="matrix(1.7076604,0.05864395,0.08151226,0.69283735,-81.757596,14.205492)"
       cx="107.83379"
       cy="66.835258"
       fx="107.83379"
       fy="66.835258"
       r="9.3148289" />
    <radialGradient
       inkscape:collect="always"
       xlink:href="#linearGradient3409"
       id="radialGradient3723"
       gradientUnits="userSpaceOnUse"
       gradientTransform="matrix(2.2649996,-0.30749036,-0.00429437,0.74295384,-136.12269,50.3376)"
       cx="107.83379"
       cy="66.835258"
       fx="107.83379"
       fy="66.835258"
       r="8.8781195" />
    <radialGradient
       inkscape:collect="always"
       xlink:href="#linearGradient3409"
       id="radialGradient3725"
       gradientUnits="userSpaceOnUse"
       gradientTransform="matrix(-2.0536473,-0.03285085,-0.04191065,-0.68157793,332.08748,115.93113)"
       cx="107.83379"
       cy="66.835258"
       fx="107.83379"
       fy="66.835258"
       r="9.3781195" />
    <radialGradient
       inkscape:collect="always"
       xlink:href="#linearGradient3409"
       id="radialGradient3727"
       gradientUnits="userSpaceOnUse"
       gradientTransform="matrix(1.995572,0.1703961,0.08965179,0.70352584,-113.3482,1.4404701)"
       cx="107.83379"
       cy="66.835258"
       fx="107.83379"
       fy="66.835258"
       r="9.3781195" />
    <radialGradient
       inkscape:collect="always"
       xlink:href="#linearGradient3409"
       id="radialGradient3729"
       gradientUnits="userSpaceOnUse"
       gradientTransform="matrix(1.5043612,-0.05764957,-0.03977132,0.68655393,-51.729058,27.165822)"
       cx="107.83379"
       cy="66.835258"
       fx="107.83379"
       fy="66.835258"
       r="9.3781195" />
    <radialGradient
       inkscape:collect="always"
       xlink:href="#linearGradient3409"
       id="radialGradient3731"
       gradientUnits="userSpaceOnUse"
       gradientTransform="matrix(-1.7072002,-0.02910085,-0.01287317,-0.65521146,292.78804,113.76455)"
       cx="107.83379"
       cy="66.835258"
       fx="107.83379"
       fy="66.835258"
       r="9.3232946" />
    <radialGradient
       inkscape:collect="always"
       xlink:href="#linearGradient3477"
       id="radialGradient3743"
       gradientUnits="userSpaceOnUse"
       gradientTransform="matrix(-2.2560409,-0.00843095,-0.03236023,-1.1881381,351.44656,148.01608)"
       cx="107.29253"
       cy="67.481354"
       fx="107.29253"
       fy="67.481354"
       r="6.0104079" />
    <radialGradient
       inkscape:collect="always"
       xlink:href="#linearGradient3477"
       id="radialGradient3745"
       gradientUnits="userSpaceOnUse"
       gradientTransform="matrix(1.9481949,0.16257947,-0.1816207,1.0795299,-90.208741,-22.703284)"
       cx="107.93005"
       cy="67.027016"
       fx="107.93005"
       fy="67.027016"
       r="6.0104079" />
    <radialGradient
       inkscape:collect="always"
       xlink:href="#linearGradient3477"
       id="radialGradient3747"
       gradientUnits="userSpaceOnUse"
       gradientTransform="matrix(3.0998552,-0.76992061,0.25039095,1.029562,-246.8141,81.455913)"
       cx="108.85713"
       cy="67.282585"
       fx="108.85713"
       fy="67.282585"
       r="6.0104079" />
    <radialGradient
       inkscape:collect="always"
       xlink:href="#linearGradient3477"
       id="radialGradient3749"
       gradientUnits="userSpaceOnUse"
       gradientTransform="matrix(-2.4241177,0.16270364,0.01577441,-0.99249904,368.18132,115.62424)"
       cx="107.83379"
       cy="66.835258"
       fx="107.83379"
       fy="66.835258"
       r="6.0104079" />
    <radialGradient
       inkscape:collect="always"
       xlink:href="#linearGradient3477"
       id="radialGradient3751"
       gradientUnits="userSpaceOnUse"
       gradientTransform="matrix(2.5468649,0.12860363,-0.06849476,1.0433941,-162.31371,-16.743398)"
       cx="107.97607"
       cy="66.944389"
       fx="107.97607"
       fy="66.944389"
       r="6.0104079" />
    <radialGradient
       inkscape:collect="always"
       xlink:href="#linearGradient3477"
       id="radialGradient3753"
       gradientUnits="userSpaceOnUse"
       gradientTransform="matrix(1.6959727,0.02881455,0.24972149,0.98152609,-91.36163,-2.3482134)"
       cx="107.94926"
       cy="67.652092"
       fx="107.94926"
       fy="67.652092"
       r="6.0104079" />
    <radialGradient
       inkscape:collect="always"
       xlink:href="#linearGradient3477"
       id="radialGradient3755"
       gradientUnits="userSpaceOnUse"
       gradientTransform="matrix(-2.2138092,-0.05094895,0.09939846,-1.0857399,338.31698,145.62498)"
       cx="107.3645"
       cy="67.469864"
       fx="107.3645"
       fy="67.469864"
       r="6.0104079" />
    <linearGradient
       inkscape:collect="always"
       xlink:href="#linearGradient3243"
       id="linearGradient3725"
       x1="211.91875"
       y1="22.635792"
       x2="213.34724"
       y2="121.37842"
       gradientUnits="userSpaceOnUse" />
    <linearGradient
       inkscape:collect="always"
       xlink:href="#linearGradient3187"
       id="linearGradient3735"
       x1="229.65826"
       y1="12.736298"
       x2="241.20567"
       y2="130.11601"
       gradientUnits="userSpaceOnUse" />
    <linearGradient
       inkscape:collect="always"
       xlink:href="#linearGradient3187"
       id="linearGradient2946"
       gradientUnits="userSpaceOnUse"
       x1="229.65826"
       y1="12.736298"
       x2="241.20567"
       y2="130.11601"
       gradientTransform="matrix(0.98480775,0.17364818,-0.17364818,0.98480775,24.832603,-41.577229)" />
    <radialGradient
       inkscape:collect="always"
       xlink:href="#linearGradient3210"
       id="radialGradient2949"
       gradientUnits="userSpaceOnUse"
       gradientTransform="matrix(-2.6586396,0.20517436,-0.09480921,-1.1022017,390.25678,118.1892)"
       cx="103.6505"
       cy="66.548935"
       fx="103.6505"
       fy="66.548935"
       r="6.0104079" />
    <radialGradient
       inkscape:collect="always"
       xlink:href="#linearGradient3210"
       id="radialGradient2951"
       gradientUnits="userSpaceOnUse"
       gradientTransform="matrix(1.7887895,0.28784328,-0.26070825,1.0916797,-67.642222,-37.149859)"
       cx="107.8185"
       cy="66.873375"
       fx="107.8185"
       fy="66.873375"
       r="6.0104079" />
    <radialGradient
       inkscape:collect="always"
       xlink:href="#linearGradient3210"
       id="radialGradient2953"
       gradientUnits="userSpaceOnUse"
       gradientTransform="matrix(2.012943,-0.62514065,0.41286344,1.1034022,-139.47423,60.797479)"
       cx="109.0631"
       cy="67.262474"
       fx="109.0631"
       fy="67.262474"
       r="6.0104079" />
    <radialGradient
       inkscape:collect="always"
       xlink:href="#linearGradient3210"
       id="radialGradient2955"
       gradientUnits="userSpaceOnUse"
       gradientTransform="matrix(-2.7374344,0.20130404,0.01135872,-0.99218849,402.26257,111.44105)"
       cx="107.83379"
       cy="66.835258"
       fx="107.83379"
       fy="66.835258"
       r="6.0104079" />
    <radialGradient
       inkscape:collect="always"
       xlink:href="#linearGradient3210"
       id="radialGradient2957"
       gradientUnits="userSpaceOnUse"
       gradientTransform="matrix(1.8241734,0.05965584,-0.10451869,1.0150727,-81.895184,-7.5327658)"
       cx="108.13851"
       cy="66.697548"
       fx="108.13851"
       fy="66.697548"
       r="6.0104079" />
    <radialGradient
       inkscape:collect="always"
       xlink:href="#linearGradient3210"
       id="radialGradient2959"
       gradientUnits="userSpaceOnUse"
       gradientTransform="matrix(1.8799152,-0.09331303,0.28479336,0.90811471,-113.89406,16.312794)"
       cx="107.76553"
       cy="66.784088"
       fx="107.76553"
       fy="66.784088"
       r="6.0104079" />
    <radialGradient
       inkscape:collect="always"
       xlink:href="#linearGradient3210"
       id="radialGradient2961"
       gradientUnits="userSpaceOnUse"
       gradientTransform="matrix(-3.063335,0.08342629,0.01783791,-1.1558755,421.2906,136.53589)"
       cx="102.86523"
       cy="68.017708"
       fx="102.86523"
       fy="68.017708"
       r="6.0104079" />
    <radialGradient
       inkscape:collect="always"
       xlink:href="#linearGradient3409"
       id="radialGradient2963"
       gradientUnits="userSpaceOnUse"
       gradientTransform="matrix(-2.0056668,0.12698285,0.06228288,-0.56094314,319.94976,90.632998)"
       cx="107.83379"
       cy="66.835258"
       fx="107.83379"
       fy="66.835258"
       r="10.378119" />
    <radialGradient
       inkscape:collect="always"
       xlink:href="#linearGradient3409"
       id="radialGradient2965"
       gradientUnits="userSpaceOnUse"
       gradientTransform="matrix(1.7076604,0.05864395,0.08151226,0.69283735,-81.757596,14.205492)"
       cx="107.83379"
       cy="66.835258"
       fx="107.83379"
       fy="66.835258"
       r="9.3148289" />
    <radialGradient
       inkscape:collect="always"
       xlink:href="#linearGradient3409"
       id="radialGradient2967"
       gradientUnits="userSpaceOnUse"
       gradientTransform="matrix(2.2649996,-0.30749036,-0.00429437,0.74295384,-136.12269,50.3376)"
       cx="107.83379"
       cy="66.835258"
       fx="107.83379"
       fy="66.835258"
       r="8.8781195" />
    <radialGradient
       inkscape:collect="always"
       xlink:href="#linearGradient3409"
       id="radialGradient2969"
       gradientUnits="userSpaceOnUse"
       gradientTransform="matrix(-2.0536473,-0.03285085,-0.04191065,-0.68157793,332.08748,115.93113)"
       cx="107.83379"
       cy="66.835258"
       fx="107.83379"
       fy="66.835258"
       r="9.3781195" />
    <radialGradient
       inkscape:collect="always"
       xlink:href="#linearGradient3409"
       id="radialGradient2971"
       gradientUnits="userSpaceOnUse"
       gradientTransform="matrix(1.995572,0.1703961,0.08965179,0.70352584,-113.3482,1.4404701)"
       cx="107.83379"
       cy="66.835258"
       fx="107.83379"
       fy="66.835258"
       r="9.3781195" />
    <radialGradient
       inkscape:collect="always"
       xlink:href="#linearGradient3409"
       id="radialGradient2973"
       gradientUnits="userSpaceOnUse"
       gradientTransform="matrix(1.5043612,-0.05764957,-0.03977132,0.68655393,-51.729058,27.165822)"
       cx="107.83379"
       cy="66.835258"
       fx="107.83379"
       fy="66.835258"
       r="9.3781195" />
    <radialGradient
       inkscape:collect="always"
       xlink:href="#linearGradient3409"
       id="radialGradient2975"
       gradientUnits="userSpaceOnUse"
       gradientTransform="matrix(-1.7072002,-0.02910085,-0.01287317,-0.65521146,292.78804,113.76455)"
       cx="107.83379"
       cy="66.835258"
       fx="107.83379"
       fy="66.835258"
       r="9.3232946" />
  </defs>
  <metadata
     id="metadata7">
    <rdf:RDF>
      <cc:Work
         rdf:about="">
        <dc:format>image/svg+xml</dc:format>
        <dc:type
           rdf:resource="http://purl.org/dc/dcmitype/StillImage" />
        <dc:title />
      </cc:Work>
      <cc:Work
         rdf:about="">
        <dc:format>image/svg+xml</dc:format>
        <dc:type
           rdf:resource="http://purl.org/dc/dcmitype/StillImage" />
      </cc:Work>
    </rdf:RDF>
  </metadata>
  <g
     inkscape:groupmode="layer"
     id="layer1"
     inkscape:label="hedge"
     style="display:inline">
    <path
       style="color:#000000;fill:url(#linearGradient2946);fill-opacity:1;fill-rule:evenodd;stroke:#021100;stroke-width:3.40000010000000020;stroke-linecap:round;stroke-linejoin:round;stroke-miterlimit:4;stroke-opacity:1;stroke-dasharray:none;stroke-dashoffset:0;marker:none;visibility:visible;display:inline;overflow:visible;enable-background:accumulate"
       d="m 215,16 c -22.80876,0.623067 -43.61403,12.440748 -56.0625,30.90625 -5.13629,-4.983359 -11.31292,-8.370555 -18.25,-9.59375 C 120.86412,33.817103 100.92289,49.020929 91.0625,72.96875 85.342948,68.356305 78.683649,65.174733 71.3125,63.875 42.960914,58.87585 14.902142,97.577785 8.65625,133 l 498.53125,0 c 4.7891,-27.16036 -12.91478,-52.494299 -39.53125,-57.1875 -6.81411,-1.201512 -13.54,-0.879412 -19.875,0.6875 C 441.1554,56.090625 425.72243,40.574969 405.625,37.03125 386.15846,33.598773 366.96945,42.211112 353.78125,58.125 347.08267,47.994232 337.92991,41.109227 327.03125,39.1875 310.89571,36.342368 294.56263,45.028065 282.3125,60.8125 273.76218,38.707051 254.20041,21.478462 229.15625,17.0625 224.39717,16.223347 219.64952,15.872989 215,16 z"
       id="path3777"
       sodipodi:nodetypes="ccscsccscscscsc" />
    <path
       sodipodi:type="inkscape:offset"
       inkscape:radius="0"
       inkscape:original="M 215 16 C 192.19124 16.623067 171.38597 28.440748 158.9375 46.90625 C 153.80121 41.922891 147.62458 38.535695 140.6875 37.3125 C 120.86412 33.817103 100.92289 49.020929 91.0625 72.96875 C 85.342948 68.356305 78.683649 65.174733 71.3125 63.875 C 42.960914 58.87585 14.902142 97.577785 8.65625 133 L 507.1875 133 C 511.9766 105.83964 494.27272 80.505701 467.65625 75.8125 C 460.84214 74.610988 454.11625 74.933088 447.78125 76.5 C 441.1554 56.090625 425.72243 40.574969 405.625 37.03125 C 386.15846 33.598773 366.96945 42.211112 353.78125 58.125 C 347.08267 47.994232 337.92991 41.109227 327.03125 39.1875 C 310.89571 36.342368 294.56263 45.028065 282.3125 60.8125 C 273.76218 38.707051 254.20041 21.478462 229.15625 17.0625 C 224.39717 16.223347 219.64952 15.872989 215 16 z "
       xlink:href="#path3777"
       style="color:#000000;fill:url(#linearGradient3725);fill-opacity:1;fill-rule:evenodd;stroke:none;stroke-width:3;marker:none;visibility:visible;display:inline;overflow:visible;filter:url(#filter3209);enable-background:accumulate"
       id="path2943"
       inkscape:href="#path3777"
       d="m 215,16 c -22.80876,0.623067 -43.61403,12.440748 -56.0625,30.90625 -5.13629,-4.983359 -11.31292,-8.370555 -18.25,-9.59375 C 120.86412,33.817103 100.92289,49.020929 91.0625,72.96875 85.342948,68.356305 78.683649,65.174733 71.3125,63.875 42.960914,58.87585 14.902142,97.577785 8.65625,133 l 498.53125,0 c 4.7891,-27.16036 -12.91478,-52.494299 -39.53125,-57.1875 -6.81411,-1.201512 -13.54,-0.879412 -19.875,0.6875 C 441.1554,56.090625 425.72243,40.574969 405.625,37.03125 386.15846,33.598773 366.96945,42.211112 353.78125,58.125 347.08267,47.994232 337.92991,41.109227 327.03125,39.1875 310.89571,36.342368 294.56263,45.028065 282.3125,60.8125 273.76218,38.707051 254.20041,21.478462 229.15625,17.0625 224.39717,16.223347 219.64952,15.872989 215,16 z"
       transform="matrix(1,0,0,1.0626401,0,-1.40006)" />
    <path
       sodipodi:type="inkscape:offset"
       inkscape:radius="0"
       inkscape:original="M 215 16 C 192.19124 16.623067 171.38597 28.440748 158.9375 46.90625 C 153.80121 41.922891 147.62458 38.535695 140.6875 37.3125 C 120.86412 33.817103 100.92289 49.020929 91.0625 72.96875 C 85.342948 68.356305 78.683649 65.174733 71.3125 63.875 C 42.960914 58.87585 14.902142 97.577785 8.65625 133 L 507.1875 133 C 511.9766 105.83964 494.27272 80.505701 467.65625 75.8125 C 460.84214 74.610988 454.11625 74.933088 447.78125 76.5 C 441.1554 56.090625 425.72243 40.574969 405.625 37.03125 C 386.15846 33.598773 366.96945 42.211112 353.78125 58.125 C 347.08267 47.994232 337.92991 41.109227 327.03125 39.1875 C 310.89571 36.342368 294.56263 45.028065 282.3125 60.8125 C 273.76218 38.707051 254.20041 21.478462 229.15625 17.0625 C 224.39717 16.223347 219.64952 15.872989 215 16 z "
       xlink:href="#path3777"
       style="opacity:0.4;color:#000000;fill:url(#linearGradient3735);fill-opacity:1;fill-rule:evenodd;stroke:none;stroke-width:3;marker:none;visibility:visible;display:inline;overflow:visible;filter:url(#filter3192);enable-background:accumulate"
       id="path3739"
       inkscape:href="#path3777"
       d="m 215,16 c -22.80876,0.623067 -43.61403,12.440748 -56.0625,30.90625 -5.13629,-4.983359 -11.31292,-8.370555 -18.25,-9.59375 C 120.86412,33.817103 100.92289,49.020929 91.0625,72.96875 85.342948,68.356305 78.683649,65.174733 71.3125,63.875 42.960914,58.87585 14.902142,83.515285 8.65625,118.9375 c -6.2458921,35.42221 11.679664,68.18835 40.03125,73.1875 23.684788,4.17627 47.14809,-12.35785 57.875,-38.5625 3.85346,2.55368 8.14116,4.31234 12.75,5.125 17.15693,3.02523 34.40086,-7.97017 45.125,-26.5 10.13489,11.55038 24.09588,19.87404 40.40625,22.75 21.83336,3.84981 43.07636,-2.88829 58.5,-16.5 4.04522,25.47975 18.06309,44.92571 37.625,48.375 19.94011,3.51598 40.19042,-10.55536 52.65625,-33.90625 7.61688,8.30629 17.44975,14.06996 28.75,16.0625 14.37864,2.53534 28.60075,-1.48846 40.375,-10.1875 7.00622,7.82864 16.53211,13.45578 27.59375,15.40625 26.61647,4.6932 52.05465,-13.52714 56.84375,-40.6875 4.7891,-27.16036 -12.91478,-52.994299 -39.53125,-57.6875 -6.81411,-1.201512 -13.54,-0.879412 -19.875,0.6875 C 441.1554,56.090625 425.72243,40.574969 405.625,37.03125 386.15846,33.598773 366.96945,42.211112 353.78125,58.125 347.08267,47.994232 337.92991,41.109227 327.03125,39.1875 310.89571,36.342368 294.56263,45.028065 282.3125,60.8125 273.76218,38.707051 254.20041,21.478462 229.15625,17.0625 224.39717,16.223347 219.64952,15.872989 215,16 z"
       transform="translate(0,-4.0944443e-4)" />
  </g>
  <g
     transform="translate(-56.847417,-735.33378)"
     inkscape:label="plants"
     id="layer2"
     inkscape:groupmode="layer"
     style="display:inline">
    <g
       id="g3210"
       transform="matrix(0.9895793,0,0,0.9895793,-293.62513,188.99488)" />
    <g
       id="g3697"
       transform="matrix(1.1479386,0,0,1.1479386,-14.121202,-96.943406)">
      <path
         transform="matrix(0.3357566,0.2463227,-0.3008583,0.2748951,159.06922,762.4544)"
         d="m 117.8442,66.835258 c 0,3.319457 -4.48181,6.010408 -10.01041,6.010408 -5.52859,0 -10.010405,-2.690951 -10.010405,-6.010408 0,-3.319456 4.481815,-6.010407 10.010405,-6.010407 5.5286,0 10.01041,2.690951 10.01041,6.010407 z"
         sodipodi:ry="6.0104079"
         sodipodi:rx="10.010408"
         sodipodi:cy="66.835258"
         sodipodi:cx="107.83379"
         id="path3208"
         style="fill:url(#radialGradient2949);fill-opacity:1;fill-rule:nonzero;stroke:#c29600;stroke-width:0.73542207;stroke-linecap:round;stroke-linejoin:round;stroke-miterlimit:4;stroke-opacity:1;stroke-dasharray:none;stroke-dashoffset:0;marker:none;visibility:visible;display:inline;overflow:visible;filter:url(#filter3302);enable-background:accumulate"
         sodipodi:type="arc" />
      <path
         transform="matrix(0.3437084,-0.2388579,0.2917408,0.2814055,128.88176,815.48715)"
         d="m 116.78091,66.835258 c 0,3.319457 -4.00576,6.010408 -8.94712,6.010408 -4.94135,0 -8.947114,-2.690951 -8.947114,-6.010408 0,-3.319456 4.005764,-6.010407 8.947114,-6.010407 4.94136,0 8.94712,2.690951 8.94712,6.010407 z"
         sodipodi:ry="6.0104079"
         sodipodi:rx="8.9471178"
         sodipodi:cy="66.835258"
         sodipodi:cx="107.83379"
         id="path3218"
         style="fill:url(#radialGradient2951);fill-opacity:1;fill-rule:nonzero;stroke:#c29600;stroke-width:0.73542219;stroke-linecap:round;stroke-linejoin:round;stroke-miterlimit:4;stroke-opacity:1;stroke-dasharray:none;stroke-dashoffset:0;marker:none;visibility:visible;display:inline;overflow:visible;filter:url(#filter3294);enable-background:accumulate"
         sodipodi:type="arc" />
      <path
         transform="matrix(0.1316809,0.353014,-0.4311709,0.1078115,196.4157,770.73332)"
         d="m 116.3442,66.835258 c 0,3.319457 -3.81024,6.010408 -8.51041,6.010408 -4.70017,0 -8.510405,-2.690951 -8.510405,-6.010408 0,-3.319456 3.810235,-6.010407 8.510405,-6.010407 4.70017,0 8.51041,2.690951 8.51041,6.010407 z"
         sodipodi:ry="6.0104079"
         sodipodi:rx="8.5104084"
         sodipodi:cy="66.835258"
         sodipodi:cx="107.83379"
         id="path3222"
         style="fill:url(#radialGradient2953);fill-opacity:1;fill-rule:nonzero;stroke:#c29600;stroke-width:0.73542207;stroke-linecap:round;stroke-linejoin:round;stroke-miterlimit:4;stroke-opacity:1;stroke-dasharray:none;stroke-dashoffset:0;marker:none;visibility:visible;display:inline;overflow:visible;filter:url(#filter3286);enable-background:accumulate"
         sodipodi:type="arc" />
      <path
         transform="matrix(0.4426378,-0.0700483,0.08555691,0.3624023,119.89696,795.25661)"
         d="m 116.8442,66.835258 c 0,3.319457 -4.0341,6.010408 -9.01041,6.010408 -4.97631,0 -9.010405,-2.690951 -9.010405,-6.010408 0,-3.319456 4.034095,-6.010407 9.010405,-6.010407 4.97631,0 9.01041,2.690951 9.01041,6.010407 z"
         sodipodi:ry="6.0104079"
         sodipodi:rx="9.0104084"
         sodipodi:cy="66.835258"
         sodipodi:cx="107.83379"
         id="path3226"
         style="fill:url(#radialGradient2955);fill-opacity:1;fill-rule:nonzero;stroke:#c29600;stroke-width:0.73542207;stroke-linecap:round;stroke-linejoin:round;stroke-miterlimit:4;stroke-opacity:1;stroke-dasharray:none;stroke-dashoffset:0;marker:none;visibility:visible;display:inline;overflow:visible;filter:url(#filter3278);enable-background:accumulate"
         sodipodi:type="arc" />
      <path
         transform="matrix(-0.2583343,0.3025013,-0.3694748,-0.2115069,228.543,797.24453)"
         d="m 116.8442,66.835258 c 0,3.319457 -4.0341,6.010408 -9.01041,6.010408 -4.97631,0 -9.010405,-2.690951 -9.010405,-6.010408 0,-3.319456 4.034095,-6.010407 9.010405,-6.010407 4.97631,0 9.01041,2.690951 9.01041,6.010407 z"
         sodipodi:ry="6.0104079"
         sodipodi:rx="9.0104084"
         sodipodi:cy="66.835258"
         sodipodi:cx="107.83379"
         id="path3230"
         style="fill:url(#radialGradient2957);fill-opacity:1;fill-rule:nonzero;stroke:#c29600;stroke-width:0.73542202;stroke-linecap:round;stroke-linejoin:round;stroke-miterlimit:4;stroke-opacity:1;stroke-dasharray:none;stroke-dashoffset:0;marker:none;visibility:visible;display:inline;overflow:visible;filter:url(#filter3282);enable-background:accumulate"
         sodipodi:type="arc" />
      <path
         transform="matrix(0.3889847,0.1865906,-0.2279015,0.3184748,159.29207,771.85783)"
         d="m 116.8442,66.835258 c 0,3.319457 -4.0341,6.010408 -9.01041,6.010408 -4.97631,0 -9.010405,-2.690951 -9.010405,-6.010408 0,-3.319456 4.034095,-6.010407 9.010405,-6.010407 4.97631,0 9.01041,2.690951 9.01041,6.010407 z"
         sodipodi:ry="6.0104079"
         sodipodi:rx="9.0104084"
         sodipodi:cy="66.835258"
         sodipodi:cx="107.83379"
         id="path3234"
         style="fill:url(#radialGradient2959);fill-opacity:1;fill-rule:nonzero;stroke:#c29600;stroke-width:0.73542202;stroke-linecap:round;stroke-linejoin:round;stroke-miterlimit:4;stroke-opacity:1;stroke-dasharray:none;stroke-dashoffset:0;marker:none;visibility:visible;display:inline;overflow:visible;filter:url(#filter3290);enable-background:accumulate"
         sodipodi:type="arc" />
      <path
         transform="matrix(-0.05859751,0.3659789,-0.4470062,-0.04797574,217.14306,769.81536)"
         d="m 117.68814,66.835258 c 0,3.070357 -4.41194,5.559372 -9.85435,5.559372 -5.4424,0 -9.854343,-2.489015 -9.854343,-5.559372 0,-3.070356 4.411943,-5.559371 9.854343,-5.559371 5.44241,0 9.85435,2.489015 9.85435,5.559371 z"
         sodipodi:ry="5.5593715"
         sodipodi:rx="9.8543463"
         sodipodi:cy="66.835258"
         sodipodi:cx="107.83379"
         id="path3306"
         style="fill:url(#radialGradient2961);fill-opacity:1;fill-rule:nonzero;stroke:#c29600;stroke-width:0.73542202;stroke-linecap:round;stroke-linejoin:round;stroke-miterlimit:4;stroke-opacity:1;stroke-dasharray:none;stroke-dashoffset:0;marker:none;visibility:visible;display:inline;overflow:visible;filter:url(#filter3326);enable-background:accumulate"
         sodipodi:type="arc" />
      <path
         transform="matrix(0.4435274,0,0,0.3631307,98.993041,778.44443)"
         d="m 190.21173,90.876892 c 0,4.49103 -3.6407,8.131728 -8.13173,8.131728 -4.49103,0 -8.13173,-3.640698 -8.13173,-8.131728 0,-4.491029 3.6407,-8.131728 8.13173,-8.131728 4.49103,0 8.13173,3.640699 8.13173,8.131728 z"
         sodipodi:ry="8.1317282"
         sodipodi:rx="8.1317282"
         sodipodi:cy="90.876892"
         sodipodi:cx="182.08"
         id="path3188"
         style="fill:#b1a801;fill-opacity:1;fill-rule:nonzero;stroke:none;stroke-width:2.80075169;marker:none;visibility:visible;display:inline;overflow:visible;filter:url(#filter3194);enable-background:accumulate"
         sodipodi:type="arc" />
    </g>
    <g
       id="g3709"
       transform="matrix(1.2087314,0,0,1.2087314,-311.17798,-143.41536)">
      <path
         sodipodi:type="arc"
         style="fill:url(#radialGradient2963);fill-opacity:1;fill-rule:nonzero;stroke:#ab8a17;stroke-width:0.73542207;stroke-linecap:round;stroke-linejoin:round;stroke-miterlimit:4;stroke-opacity:1;stroke-dasharray:none;stroke-dashoffset:0;marker:none;visibility:visible;display:inline;overflow:visible;filter:url(#filter3302);enable-background:accumulate"
         id="use3361"
         sodipodi:cx="107.83379"
         sodipodi:cy="66.835258"
         sodipodi:rx="10.010408"
         sodipodi:ry="6.0104079"
         d="m 117.8442,66.835258 c 0,3.319457 -4.48181,6.010408 -10.01041,6.010408 -5.52859,0 -10.010405,-2.690951 -10.010405,-6.010408 0,-3.319456 4.481815,-6.010407 10.010405,-6.010407 5.5286,0 10.01041,2.690951 10.01041,6.010407 z"
         transform="matrix(-0.2569964,0.1838897,0.2302844,0.2052202,455.31731,763.63069)" />
      <path
         sodipodi:type="arc"
         style="fill:url(#radialGradient2965);fill-opacity:1;fill-rule:nonzero;stroke:#ab8a17;stroke-width:0.73542219;stroke-linecap:round;stroke-linejoin:round;stroke-miterlimit:4;stroke-opacity:1;stroke-dasharray:none;stroke-dashoffset:0;marker:none;visibility:visible;display:inline;overflow:visible;filter:url(#filter3294);enable-background:accumulate"
         id="use3363"
         sodipodi:cx="107.83379"
         sodipodi:cy="66.835258"
         sodipodi:rx="9.948101"
         sodipodi:ry="6.0104079"
         d="m 117.78189,66.835258 c 0,3.319457 -4.45391,6.010408 -9.9481,6.010408 -5.49418,0 -9.948097,-2.690951 -9.948097,-6.010408 0,-3.319456 4.453917,-6.010407 9.948097,-6.010407 5.49419,0 9.9481,2.690951 9.9481,6.010407 z"
         transform="matrix(-0.2630829,-0.178317,-0.2233056,0.2100805,478.03727,802.60549)" />
      <path
         sodipodi:type="arc"
         style="fill:url(#radialGradient2967);fill-opacity:1;fill-rule:nonzero;stroke:#ab8a17;stroke-width:0.73542207;stroke-linecap:round;stroke-linejoin:round;stroke-miterlimit:4;stroke-opacity:1;stroke-dasharray:none;stroke-dashoffset:0;marker:none;visibility:visible;display:inline;overflow:visible;filter:url(#filter3286);enable-background:accumulate"
         id="use3365"
         sodipodi:cx="107.83379"
         sodipodi:cy="66.835258"
         sodipodi:rx="10.575513"
         sodipodi:ry="6.0104079"
         d="m 118.40931,66.835258 c 0,3.319457 -4.73482,6.010408 -10.57552,6.010408 -5.84069,0 -10.575509,-2.690951 -10.575509,-6.010408 0,-3.319456 4.734819,-6.010407 10.575509,-6.010407 5.8407,0 10.57552,2.690951 10.57552,6.010407 z"
         transform="matrix(-0.1007918,0.2635391,0.3300289,0.0804856,426.12141,770.46986)" />
      <path
         sodipodi:type="arc"
         style="fill:url(#radialGradient2969);fill-opacity:1;fill-rule:nonzero;stroke:#ab8a17;stroke-width:0.73542207;stroke-linecap:round;stroke-linejoin:round;stroke-miterlimit:4;stroke-opacity:1;stroke-dasharray:none;stroke-dashoffset:0;marker:none;visibility:visible;display:inline;overflow:visible;filter:url(#filter3278);enable-background:accumulate"
         id="use3367"
         sodipodi:cx="107.83379"
         sodipodi:cy="66.835258"
         sodipodi:rx="9.0104084"
         sodipodi:ry="6.0104079"
         d="m 116.8442,66.835258 c 0,3.319457 -4.0341,6.010408 -9.01041,6.010408 -4.97631,0 -9.010405,-2.690951 -9.010405,-6.010408 0,-3.319456 4.034095,-6.010407 9.010405,-6.010407 4.97631,0 9.01041,2.690951 9.01041,6.010407 z"
         transform="matrix(-0.3388059,-0.05229386,-0.06548738,0.2705478,485.16542,788.1164)" />
      <path
         sodipodi:type="arc"
         style="fill:url(#radialGradient2971);fill-opacity:1;fill-rule:nonzero;stroke:#ab8a17;stroke-width:0.73542202;stroke-linecap:round;stroke-linejoin:round;stroke-miterlimit:4;stroke-opacity:1;stroke-dasharray:none;stroke-dashoffset:0;marker:none;visibility:visible;display:inline;overflow:visible;filter:url(#filter3282);enable-background:accumulate"
         id="use3369"
         sodipodi:cx="107.83379"
         sodipodi:cy="66.835258"
         sodipodi:rx="9.4200621"
         sodipodi:ry="6.0104079"
         d="m 117.25386,66.835258 c 0,3.319457 -4.21751,6.010408 -9.42007,6.010408 -5.20255,0 -9.420058,-2.690951 -9.420058,-6.010408 0,-3.319456 4.217508,-6.010407 9.420058,-6.010407 5.20256,0 9.42007,2.690951 9.42007,6.010407 z"
         transform="matrix(0.1977355,0.2258293,0.2828052,-0.1578984,401.77044,789.8196)" />
      <path
         sodipodi:type="arc"
         style="fill:url(#radialGradient2973);fill-opacity:1;fill-rule:nonzero;stroke:#ab8a17;stroke-width:0.73542202;stroke-linecap:round;stroke-linejoin:round;stroke-miterlimit:4;stroke-opacity:1;stroke-dasharray:none;stroke-dashoffset:0;marker:none;visibility:visible;display:inline;overflow:visible;filter:url(#filter3290);enable-background:accumulate"
         id="use3371"
         sodipodi:cx="107.83379"
         sodipodi:cy="66.835258"
         sodipodi:rx="9.9977198"
         sodipodi:ry="6.0104079"
         d="m 117.83151,66.835258 c 0,3.319457 -4.47613,6.010408 -9.99772,6.010408 -5.52158,0 -9.997716,-2.690951 -9.997716,-6.010408 0,-3.319456 4.476136,-6.010407 9.997716,-6.010407 5.52159,0 9.99772,2.690951 9.99772,6.010407 z"
         transform="matrix(-0.2977385,0.1392973,0.1744415,0.2377542,454.57822,770.56111)" />
      <path
         sodipodi:type="arc"
         style="fill:url(#radialGradient2975);fill-opacity:1;fill-rule:nonzero;stroke:#ab8a17;stroke-width:0.73542202;stroke-linecap:round;stroke-linejoin:round;stroke-miterlimit:4;stroke-opacity:1;stroke-dasharray:none;stroke-dashoffset:0;marker:none;visibility:visible;display:inline;overflow:visible;filter:url(#filter3326);enable-background:accumulate"
         id="use3373"
         sodipodi:cx="107.83379"
         sodipodi:cy="66.835258"
         sodipodi:rx="10.227757"
         sodipodi:ry="5.7564397"
         d="m 118.06155,66.835258 c 0,3.179194 -4.57912,5.75644 -10.22776,5.75644 -5.64863,0 -10.227754,-2.577246 -10.227754,-5.75644 0,-3.179193 4.579124,-5.756439 10.227754,-5.756439 5.64864,0 10.22776,2.577246 10.22776,5.756439 z"
         transform="matrix(0.04485199,0.2732179,0.3421496,-0.03581581,410.81377,768.55325)" />
      <path
         sodipodi:type="arc"
         style="fill:#957108;fill-opacity:1;fill-rule:nonzero;stroke:none;stroke-width:2.79999995;marker:none;visibility:visible;display:inline;overflow:visible;filter:url(#filter3194);enable-background:accumulate"
         id="use3359"
         sodipodi:cx="182.08"
         sodipodi:cy="90.876892"
         sodipodi:rx="8.1317282"
         sodipodi:ry="8.1317282"
         d="m 190.21173,90.876892 c 0,4.49103 -3.6407,8.131728 -8.13173,8.131728 -4.49103,0 -8.13173,-3.640698 -8.13173,-8.131728 0,-4.491029 3.6407,-8.131728 8.13173,-8.131728 4.49103,0 8.13173,3.640699 8.13173,8.131728 z"
         transform="matrix(-0.3394869,0,0,0.2710916,500.92181,775.47827)" />
    </g>
    <g
       id="g3733"
       transform="matrix(1.0537761,0,0,1.0537761,112.648,-29.69858)">
      <path
         transform="matrix(0.3357566,0.2463227,-0.3008583,0.2748951,310.78013,772.47585)"
         d="m 117.8442,66.835258 c 0,3.319457 -4.48181,6.010408 -10.01041,6.010408 -5.52859,0 -10.010405,-2.690951 -10.010405,-6.010408 0,-3.319456 4.481815,-6.010407 10.010405,-6.010407 5.5286,0 10.01041,2.690951 10.01041,6.010407 z"
         sodipodi:ry="6.0104079"
         sodipodi:rx="10.010408"
         sodipodi:cy="66.835258"
         sodipodi:cx="107.83379"
         id="path3447"
         style="fill:url(#radialGradient3743);fill-opacity:1;fill-rule:nonzero;stroke:#8d7f13;stroke-width:0.73542207;stroke-linecap:round;stroke-linejoin:round;stroke-miterlimit:4;stroke-opacity:1;stroke-dasharray:none;stroke-dashoffset:0;marker:none;visibility:visible;display:inline;overflow:visible;filter:url(#filter3302);enable-background:accumulate"
         sodipodi:type="arc" />
      <path
         transform="matrix(0.3437084,-0.2388579,0.2917408,0.2814055,280.96399,825.05149)"
         d="m 116.78091,66.835258 c 0,3.319457 -4.00576,6.010408 -8.94712,6.010408 -4.94135,0 -8.947114,-2.690951 -8.947114,-6.010408 0,-3.319456 4.005764,-6.010407 8.947114,-6.010407 4.94136,0 8.94712,2.690951 8.94712,6.010407 z"
         sodipodi:ry="6.0104079"
         sodipodi:rx="8.9471178"
         sodipodi:cy="66.835258"
         sodipodi:cx="107.83379"
         id="path3449"
         style="fill:url(#radialGradient3745);fill-opacity:1;fill-rule:nonzero;stroke:#8d7f13;stroke-width:0.73542219;stroke-linecap:round;stroke-linejoin:round;stroke-miterlimit:4;stroke-opacity:1;stroke-dasharray:none;stroke-dashoffset:0;marker:none;visibility:visible;display:inline;overflow:visible;filter:url(#filter3294);enable-background:accumulate"
         sodipodi:type="arc" />
      <path
         transform="matrix(0.1316809,0.353014,-0.4311709,0.1078115,348.4247,780.9922)"
         d="m 116.3442,66.835258 c 0,3.319457 -3.81024,6.010408 -8.51041,6.010408 -4.70017,0 -8.510405,-2.690951 -8.510405,-6.010408 0,-3.319456 3.810235,-6.010407 8.510405,-6.010407 4.70017,0 8.51041,2.690951 8.51041,6.010407 z"
         sodipodi:ry="6.0104079"
         sodipodi:rx="8.5104084"
         sodipodi:cy="66.835258"
         sodipodi:cx="107.83379"
         id="path3451"
         style="fill:url(#radialGradient3747);fill-opacity:1;fill-rule:nonzero;stroke:#8d7f13;stroke-width:0.73542207;stroke-linecap:round;stroke-linejoin:round;stroke-miterlimit:4;stroke-opacity:1;stroke-dasharray:none;stroke-dashoffset:0;marker:none;visibility:visible;display:inline;overflow:visible;filter:url(#filter3286);enable-background:accumulate"
         sodipodi:type="arc" />
      <path
         transform="matrix(0.4426378,-0.0700483,0.08555691,0.3624023,271.40964,805.36016)"
         d="m 116.8442,66.835258 c 0,3.319457 -4.0341,6.010408 -9.01041,6.010408 -4.97631,0 -9.010405,-2.690951 -9.010405,-6.010408 0,-3.319456 4.034095,-6.010407 9.010405,-6.010407 4.97631,0 9.01041,2.690951 9.01041,6.010407 z"
         sodipodi:ry="6.0104079"
         sodipodi:rx="9.0104084"
         sodipodi:cy="66.835258"
         sodipodi:cx="107.83379"
         id="path3453"
         style="fill:url(#radialGradient3749);fill-opacity:1;fill-rule:nonzero;stroke:#8d7f13;stroke-width:0.73542207;stroke-linecap:round;stroke-linejoin:round;stroke-miterlimit:4;stroke-opacity:1;stroke-dasharray:none;stroke-dashoffset:0;marker:none;visibility:visible;display:inline;overflow:visible;filter:url(#filter3278);enable-background:accumulate"
         sodipodi:type="arc" />
      <path
         transform="matrix(-0.2583343,0.3025013,-0.3694748,-0.2115069,380.31457,807.25341)"
         d="m 116.8442,66.835258 c 0,3.319457 -4.0341,6.010408 -9.01041,6.010408 -4.97631,0 -9.010405,-2.690951 -9.010405,-6.010408 0,-3.319456 4.034095,-6.010407 9.010405,-6.010407 4.97631,0 9.01041,2.690951 9.01041,6.010407 z"
         sodipodi:ry="6.0104079"
         sodipodi:rx="9.0104084"
         sodipodi:cy="66.835258"
         sodipodi:cx="107.83379"
         id="path3455"
         style="fill:url(#radialGradient3751);fill-opacity:1;fill-rule:nonzero;stroke:#8d7f13;stroke-width:0.73542202;stroke-linecap:round;stroke-linejoin:round;stroke-miterlimit:4;stroke-opacity:1;stroke-dasharray:none;stroke-dashoffset:0;marker:none;visibility:visible;display:inline;overflow:visible;filter:url(#filter3282);enable-background:accumulate"
         sodipodi:type="arc" />
      <path
         transform="matrix(0.3889847,0.1865906,-0.2279015,0.3184748,310.85285,781.73283)"
         d="m 116.8442,66.835258 c 0,3.319457 -4.0341,6.010408 -9.01041,6.010408 -4.97631,0 -9.010405,-2.690951 -9.010405,-6.010408 0,-3.319456 4.034095,-6.010407 9.010405,-6.010407 4.97631,0 9.01041,2.690951 9.01041,6.010407 z"
         sodipodi:ry="6.0104079"
         sodipodi:rx="9.0104084"
         sodipodi:cy="66.835258"
         sodipodi:cx="107.83379"
         id="path3457"
         style="fill:url(#radialGradient3753);fill-opacity:1;fill-rule:nonzero;stroke:#8d7f13;stroke-width:0.73542202;stroke-linecap:round;stroke-linejoin:round;stroke-miterlimit:4;stroke-opacity:1;stroke-dasharray:none;stroke-dashoffset:0;marker:none;visibility:visible;display:inline;overflow:visible;filter:url(#filter3290);enable-background:accumulate"
         sodipodi:type="arc" />
      <path
         transform="matrix(-0.05859751,0.3659789,-0.4470062,-0.04797574,368.8843,779.55647)"
         d="m 118.20457,66.835258 c 0,3.015795 -4.64315,5.46058 -10.37078,5.46058 -5.72762,0 -10.370774,-2.444785 -10.370774,-5.46058 0,-3.015795 4.643154,-5.460579 10.370774,-5.460579 5.72763,0 10.37078,2.444784 10.37078,5.460579 z"
         sodipodi:ry="5.4605799"
         sodipodi:rx="10.370778"
         sodipodi:cy="66.835258"
         sodipodi:cx="107.83379"
         id="path3459"
         style="fill:url(#radialGradient3755);fill-opacity:1;fill-rule:nonzero;stroke:#8d7f13;stroke-width:0.73542202;stroke-linecap:round;stroke-linejoin:round;stroke-miterlimit:4;stroke-opacity:1;stroke-dasharray:none;stroke-dashoffset:0;marker:none;visibility:visible;display:inline;overflow:visible;filter:url(#filter3326);enable-background:accumulate"
         sodipodi:type="arc" />
      <path
         transform="matrix(0.4435274,0,0,0.3631307,250.99316,788.44443)"
         d="m 190.21173,90.876892 c 0,4.49103 -3.6407,8.131728 -8.13173,8.131728 -4.49103,0 -8.13173,-3.640698 -8.13173,-8.131728 0,-4.491029 3.6407,-8.131728 8.13173,-8.131728 4.49103,0 8.13173,3.640699 8.13173,8.131728 z"
         sodipodi:ry="8.1317282"
         sodipodi:rx="8.1317282"
         sodipodi:cy="90.876892"
         sodipodi:cx="182.08"
         id="path3445"
         style="fill:#9aa700;fill-opacity:1;fill-rule:nonzero;stroke:none;stroke-width:2.79999995;marker:none;visibility:visible;display:inline;overflow:visible;filter:url(#filter3194);enable-background:accumulate"
         sodipodi:type="arc" />
    </g>
  </g>
</svg>
