<?xml version="1.0" encoding="UTF-8" standalone="no"?>
<!-- Created with Inkscape (http://www.inkscape.org/) -->
<svg
   xmlns:dc="http://purl.org/dc/elements/1.1/"
   xmlns:cc="http://web.resource.org/cc/"
   xmlns:rdf="http://www.w3.org/1999/02/22-rdf-syntax-ns#"
   xmlns:svg="http://www.w3.org/2000/svg"
   xmlns="http://www.w3.org/2000/svg"
   xmlns:sodipodi="http://sodipodi.sourceforge.net/DTD/sodipodi-0.dtd"
   xmlns:inkscape="http://www.inkscape.org/namespaces/inkscape"
   width="128"
   height="64"
   id="svg2"
   sodipodi:version="0.32"
   inkscape:version="0.45.1"
   version="1.0"
   sodipodi:docbase="D:\Dateien\Desktop\Secret Maryo Chronicles\Drafts\Game\Frostbringer\level\ground\sand"
   sodipodi:docname="sphinx.svg"
   inkscape:export-filename="N:\Dokumente und Einstellungen\FluXy\Desktop\sphinx.png"
   inkscape:export-xdpi="360"
   inkscape:export-ydpi="360"
   inkscape:output_extension="org.inkscape.output.svg.inkscape">
  <defs
     id="defs4" />
  <sodipodi:namedview
     id="base"
     pagecolor="#000000"
     bordercolor="#666666"
     borderopacity="1.0"
     inkscape:pageopacity="0"
     inkscape:pageshadow="2"
     inkscape:zoom="1"
     inkscape:cx="64"
     inkscape:cy="32"
     inkscape:document-units="px"
     inkscape:current-layer="layer1"
     width="128px"
     height="64px"
     inkscape:window-width="1024"
     inkscape:window-height="719"
     inkscape:window-x="66"
     inkscape:window-y="90" />
  <metadata
     id="metadata7">
    <rdf:RDF>
      <cc:Work
         rdf:about="">
        <dc:format>image/svg+xml</dc:format>
        <dc:type
           rdf:resource="http://purl.org/dc/dcmitype/StillImage" />
      </cc:Work>
    </rdf:RDF>
  </metadata>
  <g
     inkscape:label="Ebene 1"
     inkscape:groupmode="layer"
     id="layer1">
    <path
       style="color:black;fill:#dfc96a;fill-opacity:1;fill-rule:evenodd;stroke:black;stroke-width:2.007;stroke-linecap:butt;stroke-linejoin:miter;marker:none;marker-start:none;marker-mid:none;marker-end:none;stroke-miterlimit:4;stroke-dashoffset:0;stroke-opacity:1;visibility:visible;display:inline;overflow:visible;stroke-dasharray:none"
       d="M 42.703663,29.890367 C 39.261084,30.077221 31.846706,30.668092 30.665889,30.068681 C 26.493762,27.950809 27.441837,21.077448 27.277481,20.029959 C 26.8236,17.137251 21.242553,21.713703 21.242553,18.51915 C 21.242553,15.324597 24.414774,12.022469 26.460459,9.9274896 C 28.506144,7.8325106 31.331676,8.306383 34.451063,8.306383 C 37.57045,8.306383 38.4896,7.6963404 41.216136,8.9742981 C 41.491608,11.886299 43.014327,26.707771 42.703663,29.890367 z "
       id="path1872"
       sodipodi:nodetypes="cssssscc" />
    <path
       style="color:black;fill:#ccae2c;fill-opacity:1;fill-rule:evenodd;stroke:black;stroke-width:2.007;stroke-linecap:butt;stroke-linejoin:miter;marker:none;marker-start:none;marker-mid:none;marker-end:none;stroke-miterlimit:4;stroke-dashoffset:0;stroke-opacity:1;visibility:visible;display:inline;overflow:visible;stroke-dasharray:none"
       d="M 120.97342,63.107403 C 113.218,63.304654 70.617734,63.319147 62.434041,63.319147 C 54.250347,63.319147 7.6647984,63.411914 3.0285854,63.391573 C 0.026415163,61.19251 4.4332533,51.558266 6.944679,51.199999 C 9.4529768,50.842178 11.008457,51.47515 14.134736,51.069447 C 15.889968,50.841668 16.094398,45.251236 18.976493,43.99148 C 20.541791,43.307293 25.190936,44.425994 25.08816,43.502041 C 24.882453,41.652741 26.293424,34.682214 29.332323,30.983776 C 30.821503,29.171395 47.717533,30.712317 51.576804,30.467307 C 53.239295,30.361762 53.742328,40.404937 61.234446,40.401089 C 71.134369,40.396003 102.01378,40.446806 107.62874,40.654297 C 123.09708,41.225902 128.8638,62.906719 120.97342,63.107403 z "
       id="path2760"
       sodipodi:nodetypes="cscsssssssss" />
    <path
       style="color:black;fill:#e3b700;fill-opacity:1;fill-rule:evenodd;stroke:black;stroke-width:2.007;stroke-linecap:butt;stroke-linejoin:miter;marker:none;marker-start:none;marker-mid:none;marker-end:none;stroke-miterlimit:4;stroke-dashoffset:0;stroke-opacity:1;visibility:visible;display:inline;overflow:visible;stroke-dasharray:none"
       d="M 52.61978,15.522451 C 52.733514,17.962485 51.772923,29.957448 51.676596,29.957448 C 50.192069,29.957448 45.987814,30.217804 42.835541,30.092664 C 43.226225,26.977986 42.348937,19.7888 42.348937,16.068085 C 42.348937,12.34737 40.22795,6.389923 41.201499,3.9498892 C 42.175048,1.5098552 45.153771,3.6765956 46.638298,3.6765956 C 48.122826,3.6765956 52.49746,12.898218 52.61978,15.522451 z "
       id="path2762"
       sodipodi:nodetypes="cscssss" />
    <path
       style="color:black;fill:#a78800;fill-opacity:1;fill-rule:evenodd;stroke:black;stroke-width:2.007;stroke-linecap:butt;stroke-linejoin:miter;marker:none;marker-start:none;marker-mid:none;marker-end:none;stroke-miterlimit:4;stroke-dashoffset:0;stroke-opacity:1;visibility:visible;display:inline;overflow:visible;stroke-dasharray:none"
       d="M 41.259575,3.8127659 C 41.259575,4.8650894 41.087456,6.2638299 40.578724,7.8978724 C 37.346588,7.8978724 28.731916,8.8140256 28.731916,7.7617021 C 28.731916,6.7093787 32.17212,3.6765957 35.404256,3.6765957 C 38.636392,3.6765957 41.259575,2.7604425 41.259575,3.8127659 z "
       id="path2764"
       sodipodi:nodetypes="ccsss" />
    <path
       style="fill:none;fill-rule:evenodd;stroke:black;stroke-width:2.00700021;stroke-linecap:butt;stroke-linejoin:miter;stroke-miterlimit:4;stroke-dasharray:none;stroke-opacity:1"
       d="M 25.462775,43.638417 C 30.180665,43.597184 37.344184,43.581637 39.218065,43.510533"
       id="path2770"
       sodipodi:nodetypes="cc" />
    <path
       style="fill:none;fill-rule:evenodd;stroke:black;stroke-width:2.00699997;stroke-linecap:butt;stroke-linejoin:miter;stroke-miterlimit:4;stroke-dasharray:none;stroke-opacity:1"
       d="M 14.434043,51.06383 L 39.489361,50.92766"
       id="path2772"
       sodipodi:nodetypes="cc" />
    <path
       style="fill:none;fill-rule:evenodd;stroke:black;stroke-width:1.007;stroke-linecap:butt;stroke-linejoin:miter;stroke-opacity:1;stroke-miterlimit:4;stroke-dasharray:none"
       d="M 13.804255,63.319149 L 13.940426,58.280852"
       id="path2774" />
    <path
       style="fill:none;fill-rule:evenodd;stroke:black;stroke-width:1.007;stroke-linecap:butt;stroke-linejoin:miter;stroke-opacity:1;stroke-miterlimit:4;stroke-dasharray:none"
       d="M 23.021276,63.046809 L 23.021276,58.689362"
       id="path2776"
       sodipodi:nodetypes="cc" />
    <path
       style="fill:none;fill-rule:evenodd;stroke:black;stroke-width:2.007;stroke-linecap:butt;stroke-linejoin:miter;stroke-opacity:1;stroke-miterlimit:4;stroke-dasharray:none"
       d="M 70.4,62.910639 L 70.26383,57.6 C 70.913143,55.084624 72.150178,52.921881 76.391489,52.561703 L 91.778723,52.561703"
       id="path2778"
       sodipodi:nodetypes="cccc" />
    <path
       style="fill:none;fill-rule:evenodd;stroke:black;stroke-width:1.007;stroke-linecap:butt;stroke-linejoin:miter;stroke-opacity:1;stroke-miterlimit:4;stroke-dasharray:none"
       d="M 77.502128,62.842553 L 77.638299,57.804256"
       id="path2780" />
    <path
       style="fill:none;fill-rule:evenodd;stroke:black;stroke-width:1.007;stroke-linecap:butt;stroke-linejoin:miter;stroke-opacity:1;stroke-miterlimit:4;stroke-dasharray:none"
       d="M 86.719149,62.842553 L 86.719149,58.485106"
       id="path2782"
       sodipodi:nodetypes="cc" />
    <path
       sodipodi:type="arc"
       style="opacity:1;color:black;fill:#af9c49;fill-opacity:1;fill-rule:evenodd;stroke:black;stroke-width:1.007;stroke-linecap:butt;stroke-linejoin:miter;marker:none;marker-start:none;marker-mid:none;marker-end:none;stroke-miterlimit:4;stroke-dasharray:none;stroke-dashoffset:0;stroke-opacity:1;visibility:visible;display:inline;overflow:visible"
       id="path2784"
       sodipodi:cx="31.59149"
       sodipodi:cy="13.20851"
       sodipodi:rx="3.6765957"
       sodipodi:ry="1.4978724"
       d="M 35.268085 13.20851 A 3.6765957 1.4978724 0 1 1  27.914894,13.20851 A 3.6765957 1.4978724 0 1 1  35.268085 13.20851 z"
       transform="translate(1.089362,0.544681)" />
  </g>
</svg>
