<?xml version="1.0" encoding="UTF-8" standalone="no"?>
<!-- Created with Inkscape (http://www.inkscape.org/) -->
<svg
   xmlns:dc="http://purl.org/dc/elements/1.1/"
   xmlns:cc="http://web.resource.org/cc/"
   xmlns:rdf="http://www.w3.org/1999/02/22-rdf-syntax-ns#"
   xmlns:svg="http://www.w3.org/2000/svg"
   xmlns="http://www.w3.org/2000/svg"
   xmlns:xlink="http://www.w3.org/1999/xlink"
   xmlns:sodipodi="http://sodipodi.sourceforge.net/DTD/sodipodi-0.dtd"
   xmlns:inkscape="http://www.inkscape.org/namespaces/inkscape"
   width="64"
   height="64"
   id="svg2"
   sodipodi:version="0.32"
   inkscape:version="0.45.1"
   version="1.0"
   sodipodi:docbase="D:\Dateien\Desktop\Secret Maryo Chronicles\Drafts\Game\Frostbringer\level\ground\sand"
   sodipodi:docname="tendril.svg"
   inkscape:output_extension="org.inkscape.output.svg.inkscape"
   inkscape:export-filename="C:\Dokumente und Einstellungen\Frosty\Eigene Dateien\inkscape\monica\smc\archiv\desert_tendril.png"
   inkscape:export-xdpi="90"
   inkscape:export-ydpi="90">
  <defs
     id="defs4">
    <linearGradient
       id="linearGradient2830">
      <stop
         style="stop-color:#6aff63;stop-opacity:1;"
         offset="0"
         id="stop2832" />
      <stop
         style="stop-color:#0b6a00;stop-opacity:1;"
         offset="1"
         id="stop2834" />
    </linearGradient>
    <linearGradient
       id="linearGradient5481">
      <stop
         style="stop-color:#8e681a;stop-opacity:1;"
         offset="0"
         id="stop5483" />
      <stop
         style="stop-color:#ffb213;stop-opacity:1;"
         offset="1"
         id="stop5485" />
    </linearGradient>
    <linearGradient
       inkscape:collect="always"
       xlink:href="#linearGradient5481"
       id="linearGradient5487"
       x1="1.5"
       y1="38"
       x2="26.5"
       y2="38"
       gradientUnits="userSpaceOnUse" />
    <linearGradient
       inkscape:collect="always"
       xlink:href="#linearGradient5481"
       id="linearGradient5489"
       x1="1.6129525"
       y1="38"
       x2="26.387048"
       y2="38"
       gradientUnits="userSpaceOnUse"
       gradientTransform="matrix(1.25,0,0,1.335062,5.5,-24.23235)" />
    <linearGradient
       inkscape:collect="always"
       xlink:href="#linearGradient5481"
       id="linearGradient5491"
       x1="1.5735986"
       y1="38"
       x2="26.426401"
       y2="38"
       gradientUnits="userSpaceOnUse"
       gradientTransform="matrix(1.565299,0,0,1,21.36941,-22.89394)" />
    <linearGradient
       inkscape:collect="always"
       xlink:href="#linearGradient5481"
       id="linearGradient5493"
       x1="1.6197655"
       y1="38"
       x2="26.380235"
       y2="38"
       gradientUnits="userSpaceOnUse"
       gradientTransform="matrix(1.729167,0,0,1,16.54167,-0.606061)" />
    <linearGradient
       inkscape:collect="always"
       xlink:href="#linearGradient5481"
       id="linearGradient5495"
       x1="1.6292321"
       y1="38"
       x2="26.370768"
       y2="38"
       gradientUnits="userSpaceOnUse" />
    <linearGradient
       inkscape:collect="always"
       xlink:href="#linearGradient2830"
       id="linearGradient3735"
       gradientUnits="userSpaceOnUse"
       x1="10.038965"
       y1="34.909092"
       x2="45.597397"
       y2="23.272728"
       gradientTransform="translate(0,66)" />
    <linearGradient
       inkscape:collect="always"
       xlink:href="#linearGradient2830"
       id="linearGradient3737"
       gradientUnits="userSpaceOnUse"
       x1="21.311691"
       y1="19.151516"
       x2="44.506489"
       y2="29.818182"
       gradientTransform="translate(0,66)" />
    <filter
       inkscape:collect="always"
       x="-0.29843343"
       width="1.5968669"
       y="-0.086300335"
       height="1.1726007"
       id="filter7279">
      <feGaussianBlur
         inkscape:collect="always"
         stdDeviation="3.6216924"
         id="feGaussianBlur7281" />
    </filter>
    <filter
       inkscape:collect="always"
       x="-0.56033058"
       width="2.1206612"
       y="-0.56033058"
       height="2.1206612"
       id="filter9649">
      <feGaussianBlur
         inkscape:collect="always"
         stdDeviation="0.86671713"
         id="feGaussianBlur9651" />
    </filter>
  </defs>
  <sodipodi:namedview
     id="base"
     pagecolor="#000000"
     bordercolor="#666666"
     borderopacity="1.0"
     inkscape:pageopacity="0"
     inkscape:pageshadow="2"
     inkscape:zoom="5.6568542"
     inkscape:cx="24.120845"
     inkscape:cy="36.757692"
     inkscape:document-units="px"
     inkscape:current-layer="layer1"
     width="64px"
     height="64px"
     inkscape:grid-points="false"
     gridtolerance="50"
     showgrid="true"
     gridspacingx="2px"
     gridspacingy="2px"
     inkscape:window-width="1024"
     inkscape:window-height="696"
     inkscape:window-x="106"
     inkscape:window-y="77"
     inkscape:grid-bbox="false" />
  <metadata
     id="metadata7">
    <rdf:RDF>
      <cc:Work
         rdf:about="">
        <dc:format>image/svg+xml</dc:format>
        <dc:type
           rdf:resource="http://purl.org/dc/dcmitype/StillImage" />
        <dc:creator>
          <cc:Agent>
            <dc:title>Frostbringer</dc:title>
          </cc:Agent>
        </dc:creator>
        <cc:license
           rdf:resource="http://creativecommons.org/licenses/by-sa/2.5/" />
      </cc:Work>
      <cc:License
         rdf:about="http://creativecommons.org/licenses/by-sa/2.5/">
        <cc:permits
           rdf:resource="http://web.resource.org/cc/Reproduction" />
        <cc:permits
           rdf:resource="http://web.resource.org/cc/Distribution" />
        <cc:requires
           rdf:resource="http://web.resource.org/cc/Notice" />
        <cc:requires
           rdf:resource="http://web.resource.org/cc/Attribution" />
        <cc:permits
           rdf:resource="http://web.resource.org/cc/DerivativeWorks" />
        <cc:requires
           rdf:resource="http://web.resource.org/cc/ShareAlike" />
      </cc:License>
    </rdf:RDF>
  </metadata>
  <g
     inkscape:label="Ebene 1"
     inkscape:groupmode="layer"
     id="layer1">
    <path
       style="fill:#784421;fill-opacity:1;fill-rule:nonzero;stroke:#000000;stroke-width:0.76442903;stroke-linecap:round;stroke-linejoin:round;stroke-miterlimit:4;stroke-dashoffset:59.92000295;stroke-opacity:1"
       d="M 11.656773,-18.368245 L 11.656773,2.1317551 L 11.594273,2.1317551 C 11.594273,2.6382321 11.630615,3.1267211 11.656773,3.6317551 C 12.659236,22.986179 32.344274,41.341675 32.344273,61.881755 L 32.344273,82.350505 L 52.844273,82.350505 L 52.844273,61.881755 L 53.094273,61.881755 C 53.094273,42.545482 32.344274,21.449963 32.344273,2.1317551 L 32.188023,2.1317551 L 32.188023,-18.368245 L 11.656773,-18.368245 z "
       id="path4168" />
    <path
       style="fill:#c8ab37;fill-opacity:1;fill-rule:nonzero;stroke:none;stroke-width:0.76442903;stroke-linecap:round;stroke-linejoin:round;stroke-miterlimit:4;stroke-dashoffset:59.92000295;stroke-opacity:1;filter:url(#filter7279)"
       d="M 2.3027234,-33.2052 L 2.3027234,-12.705198 L 2.3652234,-12.705198 C 2.3652234,-12.198721 2.3288814,-11.710232 2.3027234,-11.205198 C 1.3002604,8.1492243 -18.561554,26.50472 -18.561553,47.044801 L -18.561553,67.51355 L -26.510408,67.51355 L -26.510408,47.044801 L -26.760408,47.044801 C -26.760408,27.708527 -6.0104086,6.6130083 -6.0104076,-12.705198 L -5.8541576,-12.705198 L -5.8541576,-33.2052 L 2.3027234,-33.2052 z "
       id="path7283"
       sodipodi:nodetypes="cccsccccccccc"
       transform="matrix(-1,0,0,1,17.147339,14.318912)" />
    <path
       sodipodi:type="arc"
       style="opacity:1;color:#000000;fill:#ffccaa;fill-opacity:1;fill-rule:evenodd;stroke:none;stroke-width:1;stroke-linecap:round;stroke-linejoin:miter;marker:none;marker-start:none;marker-mid:none;marker-end:none;stroke-miterlimit:4;stroke-dasharray:none;stroke-dashoffset:0;stroke-opacity:1;visibility:visible;display:inline;overflow:visible;filter:url(#filter9649);enable-background:accumulate"
       id="path9653"
       sodipodi:cx="-36.681164"
       sodipodi:cy="23.960079"
       sodipodi:rx="1.8561553"
       sodipodi:ry="1.8561553"
       d="M -34.825009 23.960079 A 1.8561553 1.8561553 0 1 1  -38.537319,23.960079 A 1.8561553 1.8561553 0 1 1  -34.825009 23.960079 z"
       transform="matrix(1.4761905,0,0,1.4761905,79.250675,-25.99364)" />
    <path
       style="fill:#c87137;fill-opacity:1;fill-rule:nonzero;stroke:#000000;stroke-width:0.75;stroke-linecap:round;stroke-linejoin:round;stroke-miterlimit:4;stroke-dashoffset:59.92000295;stroke-opacity:1"
       d="M 29.856155,13.630162 C 29.856155,14.600404 28.180847,13.337215 25.75575,13.337215 C 23.330654,13.337215 22.729261,13.721561 21.069573,12.848968 C 22.375357,11.738209 23.19245,10.173083 25.462864,10.212441 C 28.032885,10.256993 29.856155,12.65992 29.856155,13.630162 z "
       id="path3744"
       sodipodi:nodetypes="cscss" />
    <path
       style="fill:#c87137;fill-opacity:1;fill-rule:nonzero;stroke:#000000;stroke-width:0.75;stroke-linecap:round;stroke-linejoin:round;stroke-miterlimit:4;stroke-dashoffset:59.92000295;stroke-opacity:1"
       d="M 52.680958,45.496606 C 53.009366,46.409571 51.00533,45.787902 48.723306,46.608594 C 46.44128,47.429285 46.005461,47.994462 44.148333,47.735046 C 45.00111,46.247962 45.240234,44.498713 47.390024,43.767404 C 49.823504,42.939591 52.352551,44.58364 52.680958,45.496606 z "
       id="path3748"
       sodipodi:nodetypes="cscss" />
    <path
       style="fill:#784421;fill-opacity:1;fill-rule:nonzero;stroke:#000000;stroke-width:0.76442903;stroke-linecap:round;stroke-linejoin:round;stroke-miterlimit:4;stroke-dashoffset:59.92000295;stroke-opacity:1"
       d="M 52.860858,-18.355957 L 52.860858,2.1440437 L 52.923358,2.1440437 C 52.923358,2.6505207 52.887016,3.1390097 52.860858,3.6440437 C 51.858395,22.998467 32.173357,41.353963 32.173358,61.894043 L 32.173358,82.362793 L 11.673358,82.362793 L 11.673358,61.894043 L 11.423358,61.894043 C 11.423358,42.55777 32.173357,21.462251 32.173358,2.1440437 L 32.329608,2.1440437 L 32.329608,-18.355957 L 52.860858,-18.355957 z "
       id="path5153" />
    <path
       style="fill:#c8ab37;fill-opacity:1;fill-rule:nonzero;stroke:none;stroke-width:0.76442903;stroke-linecap:round;stroke-linejoin:round;stroke-miterlimit:4;stroke-dashoffset:59.92000295;stroke-opacity:1;filter:url(#filter7279)"
       d="M 43.845247,-18.709511 L 43.845247,1.7904904 L 43.907747,1.7904904 C 43.907747,2.2969674 43.871405,2.7854564 43.845247,3.2904904 C 42.842784,22.644913 22.98097,41.000409 22.980971,61.540489 L 22.980971,82.009239 L 15.032116,82.009239 L 15.032116,61.540489 L 14.782116,61.540489 C 14.782116,42.204216 35.532115,21.108697 35.532116,1.7904904 L 35.688366,1.7904904 L 35.688366,-18.709511 L 43.845247,-18.709511 z "
       id="path5155"
       sodipodi:nodetypes="cccsccccccccc" />
    <path
       style="fill:#c87137;fill-opacity:1;fill-rule:nonzero;stroke:#000000;stroke-width:0.75;stroke-linecap:round;stroke-linejoin:round;stroke-miterlimit:4;stroke-dashoffset:59.92000295;stroke-opacity:1"
       d="M 17.723548,47.603839 C 18.021531,48.52716 16.039121,47.839383 13.731061,48.583896 C 11.423002,49.328406 10.968675,49.878795 9.1210927,49.55793 C 10.022719,48.100008 10.319693,46.359722 12.492623,45.700153 C 14.952295,44.953547 17.425565,46.680518 17.723548,47.603839 z "
       id="path3742"
       sodipodi:nodetypes="cscss"
       inkscape:transform-center-y="-1.4142136"
       inkscape:transform-center-x="-2.298097" />
    <path
       sodipodi:type="arc"
       style="opacity:1;color:#000000;fill:#ffccaa;fill-opacity:1;fill-rule:evenodd;stroke:none;stroke-width:1;stroke-linecap:round;stroke-linejoin:miter;marker:none;marker-start:none;marker-mid:none;marker-end:none;stroke-miterlimit:4;stroke-dasharray:none;stroke-dashoffset:0;stroke-opacity:1;visibility:visible;display:inline;overflow:visible;filter:url(#filter9649);enable-background:accumulate"
       id="path7289"
       sodipodi:cx="-36.681164"
       sodipodi:cy="23.960079"
       sodipodi:rx="1.8561553"
       sodipodi:ry="1.8561553"
       d="M -34.825009 23.960079 A 1.8561553 1.8561553 0 1 1  -38.537319,23.960079 A 1.8561553 1.8561553 0 1 1  -34.825009 23.960079 z"
       transform="matrix(1.4761905,0,0,1.4761905,94.01153,20.410244)" />
    <path
       sodipodi:type="arc"
       style="opacity:1;color:#000000;fill:#ffccaa;fill-opacity:1;fill-rule:evenodd;stroke:none;stroke-width:1;stroke-linecap:round;stroke-linejoin:miter;marker:none;marker-start:none;marker-mid:none;marker-end:none;stroke-miterlimit:4;stroke-dasharray:none;stroke-dashoffset:0;stroke-opacity:1;visibility:visible;display:inline;overflow:visible;filter:url(#filter9649);enable-background:accumulate"
       id="path9655"
       sodipodi:cx="-36.681164"
       sodipodi:cy="23.960079"
       sodipodi:rx="1.8561553"
       sodipodi:ry="1.8561553"
       d="M -34.825009 23.960079 A 1.8561553 1.8561553 0 1 1  -38.537319,23.960079 A 1.8561553 1.8561553 0 1 1  -34.825009 23.960079 z"
       transform="matrix(1.4761905,0,0,1.4761905,100.46388,-28.114961)" />
    <path
       sodipodi:type="arc"
       style="opacity:1;color:#000000;fill:#ffccaa;fill-opacity:1;fill-rule:evenodd;stroke:none;stroke-width:1;stroke-linecap:round;stroke-linejoin:miter;marker:none;marker-start:none;marker-mid:none;marker-end:none;stroke-miterlimit:4;stroke-dasharray:none;stroke-dashoffset:0;stroke-opacity:1;visibility:visible;display:inline;overflow:visible;filter:url(#filter9649);enable-background:accumulate"
       id="path9657"
       sodipodi:cx="-36.681164"
       sodipodi:cy="23.960079"
       sodipodi:rx="1.8561553"
       sodipodi:ry="1.8561553"
       d="M -34.825009 23.960079 A 1.8561553 1.8561553 0 1 1  -38.537319,23.960079 A 1.8561553 1.8561553 0 1 1  -34.825009 23.960079 z"
       transform="matrix(1.4761905,0,0,1.4761905,86.498521,-12.735388)" />
    <path
       sodipodi:type="arc"
       style="opacity:1;color:#000000;fill:#ffccaa;fill-opacity:1;fill-rule:evenodd;stroke:none;stroke-width:1;stroke-linecap:round;stroke-linejoin:miter;marker:none;marker-start:none;marker-mid:none;marker-end:none;stroke-miterlimit:4;stroke-dasharray:none;stroke-dashoffset:0;stroke-opacity:1;visibility:visible;display:inline;overflow:visible;filter:url(#filter9649);enable-background:accumulate"
       id="path9659"
       sodipodi:cx="-36.681164"
       sodipodi:cy="23.960079"
       sodipodi:rx="1.8561553"
       sodipodi:ry="1.8561553"
       d="M -34.825009 23.960079 A 1.8561553 1.8561553 0 1 1  -38.537319,23.960079 A 1.8561553 1.8561553 0 1 1  -34.825009 23.960079 z"
       transform="matrix(1.4761905,0,0,1.4761905,84.730754,6.3564951)" />
    <path
       sodipodi:type="arc"
       style="opacity:1;color:#000000;fill:#ffccaa;fill-opacity:1;fill-rule:evenodd;stroke:none;stroke-width:1;stroke-linecap:round;stroke-linejoin:miter;marker:none;marker-start:none;marker-mid:none;marker-end:none;stroke-miterlimit:4;stroke-dasharray:none;stroke-dashoffset:0;stroke-opacity:1;visibility:visible;display:inline;overflow:visible;filter:url(#filter9649);enable-background:accumulate"
       id="path9661"
       sodipodi:cx="-36.681164"
       sodipodi:cy="23.960079"
       sodipodi:rx="1.8561553"
       sodipodi:ry="1.8561553"
       d="M -34.825009 23.960079 A 1.8561553 1.8561553 0 1 1  -38.537319,23.960079 A 1.8561553 1.8561553 0 1 1  -34.825009 23.960079 z"
       transform="matrix(1.4761905,0,0,1.4761905,72.356385,19.791524)" />
  </g>
</svg>
