<?xml version="1.0" encoding="UTF-8" standalone="no"?>
<!-- Created with Inkscape (http://www.inkscape.org/) -->
<svg
   xmlns:dc="http://purl.org/dc/elements/1.1/"
   xmlns:cc="http://creativecommons.org/ns#"
   xmlns:rdf="http://www.w3.org/1999/02/22-rdf-syntax-ns#"
   xmlns:svg="http://www.w3.org/2000/svg"
   xmlns="http://www.w3.org/2000/svg"
   xmlns:xlink="http://www.w3.org/1999/xlink"
   xmlns:sodipodi="http://sodipodi.sourceforge.net/DTD/sodipodi-0.dtd"
   xmlns:inkscape="http://www.inkscape.org/namespaces/inkscape"
   width="256"
   height="256"
   id="svg3160"
   sodipodi:version="0.32"
   inkscape:version="0.46"
   version="1.0"
   sodipodi:docname="Mushroom-Block03.svg"
   inkscape:output_extension="org.inkscape.output.svg.inkscape"
   inkscape:export-filename="D:\Dateien\Desktop\Secret Maryo Chronicles\SMC\data\pixmaps\blocks\extra\mushroom.png"
   inkscape:export-xdpi="90"
   inkscape:export-ydpi="90">
  <defs
     id="defs3162">
    <linearGradient
       id="linearGradient3309">
      <stop
         id="stop3311"
         offset="0"
         style="stop-color:#eeb500;stop-opacity:1;" />
      <stop
         style="stop-color:#f4ed7c;stop-opacity:1;"
         offset="0.4633173"
         id="stop3313" />
      <stop
         id="stop3315"
         offset="1"
         style="stop-color:#d7a800;stop-opacity:1;" />
    </linearGradient>
    <linearGradient
       inkscape:collect="always"
       id="linearGradient3303">
      <stop
         style="stop-color:#000000;stop-opacity:1;"
         offset="0"
         id="stop3305" />
      <stop
         style="stop-color:#000000;stop-opacity:0;"
         offset="1"
         id="stop3307" />
    </linearGradient>
    <linearGradient
       inkscape:collect="always"
       id="linearGradient3253">
      <stop
         style="stop-color:#ffffff;stop-opacity:1;"
         offset="0"
         id="stop3255" />
      <stop
         style="stop-color:#ffffff;stop-opacity:0;"
         offset="1"
         id="stop3257" />
    </linearGradient>
    <linearGradient
       id="linearGradient3710">
      <stop
         style="stop-color:#396116;stop-opacity:1;"
         offset="0"
         id="stop3712" />
      <stop
         id="stop3718"
         offset="1"
         style="stop-color:#82d33c;stop-opacity:1;" />
    </linearGradient>
    <linearGradient
       id="linearGradient5494">
      <stop
         style="stop-color:#cc0000;stop-opacity:1;"
         offset="0"
         id="stop5496" />
      <stop
         style="stop-color:#800000;stop-opacity:1;"
         offset="1"
         id="stop5498" />
    </linearGradient>
    <linearGradient
       id="linearGradient3681">
      <stop
         style="stop-color:#eeb500;stop-opacity:1;"
         offset="0"
         id="stop3683" />
      <stop
         id="stop3729"
         offset="0.56182212"
         style="stop-color:#f6ff71;stop-opacity:1;" />
      <stop
         style="stop-color:#d7a800;stop-opacity:1;"
         offset="1"
         id="stop3685" />
    </linearGradient>
    <inkscape:perspective
       sodipodi:type="inkscape:persp3d"
       inkscape:vp_x="0 : 526.18109 : 1"
       inkscape:vp_y="0 : 1000 : 0"
       inkscape:vp_z="744.09448 : 526.18109 : 1"
       inkscape:persp3d-origin="372.04724 : 350.78739 : 1"
       id="perspective3168" />
    <linearGradient
       inkscape:collect="always"
       xlink:href="#linearGradient3681"
       id="linearGradient3687"
       x1="127.78429"
       y1="257"
       x2="127.78429"
       y2="120.64971"
       gradientUnits="userSpaceOnUse"
       gradientTransform="matrix(1.1393752,0,0,1.1983597,-17.594286,-52.280083)" />
    <linearGradient
       inkscape:collect="always"
       xlink:href="#linearGradient5494"
       id="linearGradient5500"
       x1="80.714287"
       y1="57.285713"
       x2="3.0627362e-08"
       y2="96"
       gradientUnits="userSpaceOnUse" />
    <linearGradient
       inkscape:collect="always"
       xlink:href="#linearGradient5494"
       id="linearGradient2448"
       gradientUnits="userSpaceOnUse"
       x1="80.714287"
       y1="57.285713"
       x2="3.0627362e-08"
       y2="96"
       gradientTransform="matrix(4,0,0,3.9999984,0,3.9934009e-4)" />
    <linearGradient
       inkscape:collect="always"
       xlink:href="#linearGradient3681"
       id="linearGradient2451"
       gradientUnits="userSpaceOnUse"
       gradientTransform="matrix(4.5575008,0,0,4.7934369,-70.377144,-209.11985)"
       x1="127.78429"
       y1="257"
       x2="127.78429"
       y2="120.64971" />
    <linearGradient
       inkscape:collect="always"
       xlink:href="#linearGradient5494"
       id="linearGradient2453"
       gradientUnits="userSpaceOnUse"
       gradientTransform="translate(1.2023575e-6,-4.1722876e-6)"
       x1="80.714287"
       y1="57.285713"
       x2="3.0627362e-08"
       y2="96" />
    <linearGradient
       inkscape:collect="always"
       xlink:href="#linearGradient3681"
       id="linearGradient2456"
       gradientUnits="userSpaceOnUse"
       gradientTransform="matrix(1.1393752,0,0,1.1983597,-17.594285,-52.280087)"
       x1="127.78429"
       y1="257"
       x2="127.78429"
       y2="120.64971" />
    <linearGradient
       inkscape:collect="always"
       xlink:href="#linearGradient3309"
       id="linearGradient3648"
       gradientUnits="userSpaceOnUse"
       gradientTransform="matrix(1.1393752,0,0,1.1983597,-17.594285,-52.280087)"
       x1="153.23686"
       y1="177.14221"
       x2="99.698753"
       y2="177.97668" />
    <linearGradient
       inkscape:collect="always"
       xlink:href="#linearGradient3710"
       id="linearGradient3716"
       x1="-179.44506"
       y1="162.5"
       x2="-54.554933"
       y2="162.5"
       gradientUnits="userSpaceOnUse"
       gradientTransform="translate(248.5,53.5)" />
    <linearGradient
       inkscape:collect="always"
       xlink:href="#linearGradient3710"
       id="linearGradient3726"
       x1="178.22049"
       y1="256.35437"
       x2="140.56885"
       y2="186.07433"
       gradientUnits="userSpaceOnUse" />
    <linearGradient
       inkscape:collect="always"
       xlink:href="#linearGradient5494"
       id="linearGradient2418"
       gradientUnits="userSpaceOnUse"
       gradientTransform="translate(1.2023575e-6,-4.1722876e-6)"
       x1="65.157928"
       y1="1.4999059"
       x2="186.65973"
       y2="107.35722" />
    <filter
       inkscape:collect="always"
       id="filter3231"
       x="-0.066712406"
       width="1.1334248"
       y="-0.17112687"
       height="1.3422537">
      <feGaussianBlur
         inkscape:collect="always"
         stdDeviation="6.7349237"
         id="feGaussianBlur3233" />
    </filter>
    <clipPath
       clipPathUnits="userSpaceOnUse"
       id="clipPath3241">
      <path
         sodipodi:nodetypes="csscsscc"
         id="path3243"
         d="M 2.15424,94.500091 C 2.11789,63.930522 -0.9728,44.334936 6.60244,28.040545 C 14.94118,10.104005 42.08323,1.4999018 64.21486,1.4999018 L 127.76494,1.4999018 L 191.31499,1.4999018 C 207.32197,1.4999018 235.35769,3.9217776 246.92133,23.999919 C 258.48495,44.078159 254.5,81.610093 254.5,94.5 C 171.34355,111.75863 87.21543,111.52685 2.15424,94.500091 z"
         style="fill:#000000;fill-opacity:1;fill-rule:nonzero;stroke:#000000;stroke-width:2.9998107;stroke-linecap:butt;stroke-linejoin:miter;marker:none;marker-start:none;marker-mid:none;marker-end:none;stroke-miterlimit:4;stroke-dasharray:none;stroke-dashoffset:0;stroke-opacity:1;visibility:visible;display:inline;overflow:visible;enable-background:accumulate" />
    </clipPath>
    <linearGradient
       inkscape:collect="always"
       xlink:href="#linearGradient3253"
       id="linearGradient3259"
       x1="76.943016"
       y1="-57.042473"
       x2="79.318016"
       y2="-27.071577"
       gradientUnits="userSpaceOnUse"
       gradientTransform="translate(-6.1933386,60.163788)" />
    <filter
       inkscape:collect="always"
       id="filter3281"
       x="-0.013294869"
       width="1.0265897"
       y="-0.12320813"
       height="1.2464163">
      <feGaussianBlur
         inkscape:collect="always"
         stdDeviation="1.2306835"
         id="feGaussianBlur3283" />
    </filter>
    <linearGradient
       inkscape:collect="always"
       xlink:href="#linearGradient3303"
       id="linearGradient3301"
       x1="125.1579"
       y1="127.30656"
       x2="158"
       y2="181"
       gradientUnits="userSpaceOnUse" />
    <linearGradient
       inkscape:collect="always"
       xlink:href="#linearGradient3309"
       id="linearGradient3339"
       gradientUnits="userSpaceOnUse"
       gradientTransform="matrix(1.1393752,0,0,1.1983597,-417.59429,-52.280087)"
       x1="153.23686"
       y1="177.14221"
       x2="99.698753"
       y2="177.97668" />
    <clipPath
       clipPathUnits="userSpaceOnUse"
       id="clipPath3341">
      <rect
         y="93.5"
         x="98.340454"
         height="160.99998"
         width="58.227703"
         id="rect3343"
         style="fill:url(#linearGradient3345);fill-opacity:1;fill-rule:nonzero;stroke:#000000;stroke-width:3.00001979;stroke-linecap:round;stroke-linejoin:round;stroke-miterlimit:4;stroke-dasharray:none;stroke-opacity:1" />
    </clipPath>
    <linearGradient
       inkscape:collect="always"
       xlink:href="#linearGradient3309"
       id="linearGradient3345"
       gradientUnits="userSpaceOnUse"
       gradientTransform="matrix(1.0875938,0,0,1.1983597,-11.523123,-52.280087)"
       x1="153.23686"
       y1="177.14221"
       x2="99.698753"
       y2="177.97668" />
    <filter
       inkscape:collect="always"
       id="filter3439"
       x="-0.10136427"
       width="1.2027285"
       y="-0.070487408"
       height="1.1409748">
      <feGaussianBlur
         inkscape:collect="always"
         stdDeviation="2.4592537"
         id="feGaussianBlur3441" />
    </filter>
    <linearGradient
       inkscape:collect="always"
       xlink:href="#linearGradient3710"
       id="linearGradient3459"
       gradientUnits="userSpaceOnUse"
       x1="171.85652"
       y1="251.05107"
       x2="139.86174"
       y2="173.69995"
       gradientTransform="translate(0,127.9269)" />
    <filter
       inkscape:collect="always"
       id="filter3527">
      <feGaussianBlur
         inkscape:collect="always"
         stdDeviation="0.87576787"
         id="feGaussianBlur3529" />
    </filter>
  </defs>
  <sodipodi:namedview
     id="base"
     pagecolor="#000000"
     bordercolor="#666666"
     borderopacity="1.0"
     inkscape:pageopacity="0"
     inkscape:pageshadow="2"
     inkscape:zoom="1.4142136"
     inkscape:cx="183.09253"
     inkscape:cy="103.45725"
     inkscape:document-units="px"
     inkscape:current-layer="layer1"
     showgrid="false"
     inkscape:window-width="1152"
     inkscape:window-height="808"
     inkscape:window-x="76"
     inkscape:window-y="119" />
  <metadata
     id="metadata3165">
    <rdf:RDF>
      <cc:Work
         rdf:about="">
        <dc:format>image/svg+xml</dc:format>
        <dc:type
           rdf:resource="http://purl.org/dc/dcmitype/StillImage" />
      </cc:Work>
    </rdf:RDF>
  </metadata>
  <g
     inkscape:label="Ebene 1"
     inkscape:groupmode="layer"
     id="layer1"
     style="display:inline">
    <rect
       style="fill:url(#linearGradient3648);fill-opacity:1;fill-rule:nonzero;stroke:#000000;stroke-width:3.00001979;stroke-linecap:round;stroke-linejoin:round;stroke-miterlimit:4;stroke-dasharray:none;stroke-opacity:1"
       id="rect3170"
       width="60.999981"
       height="160.99998"
       x="97.500008"
       y="93.5"
       inkscape:export-filename="C:\Documents and Settings\612645\Desktop\To Be Deleted\Mushroom-Block03.png"
       inkscape:export-xdpi="90"
       inkscape:export-ydpi="90"
       ry="15"
       rx="15" />
    <path
       style="opacity:0.55;fill:url(#linearGradient3301);fill-opacity:1;fill-rule:nonzero;stroke:none;stroke-width:2.53154087;stroke-linecap:round;stroke-linejoin:round;stroke-miterlimit:4;stroke-opacity:1;filter:url(#filter3439)"
       d="M 96.908623,97.26577 L 158,97.26577 L 158,141.57143 C 158,157.19085 118.71929,181 97,181 L 96.908623,97.26577 z"
       id="rect3230"
       sodipodi:nodetypes="ccccc"
       transform="matrix(1.047611,0,0,1,-5.52254,0)"
       clip-path="url(#clipPath3341)"
       inkscape:export-filename="C:\Documents and Settings\612645\Desktop\To Be Deleted\Mushroom-Block03.png"
       inkscape:export-xdpi="90"
       inkscape:export-ydpi="90" />
    <path
       style="fill:url(#linearGradient3459);fill-opacity:1;fill-rule:nonzero;stroke:none;stroke-width:3;stroke-linecap:square;stroke-linejoin:miter;stroke-miterlimit:6;stroke-dasharray:none;stroke-opacity:1"
       d="M 140.48274,304.1875 C 147.91668,320.1282 153.65991,347.6609 152.60589,357.2589 C 147.8551,346.2072 142.71797,324.5386 132.32649,317.8438 C 135.67024,332.6507 137.59874,348.9819 135.23274,361.625 C 133.27169,356.546 130.62485,340.7429 123.35774,330.4062 C 124.46283,343.5258 121.42341,356.6313 118.29524,362.5625 C 115.3347,356.0888 119.22243,333.7014 121.88899,328.5938 C 113.85793,333.7679 108.90043,341.2407 106.29524,350.2188 C 105.98653,339.5922 105.55668,328.8425 108.63899,318.3438 C 100.66859,323.4788 97.230975,336.2247 91.98274,344.9688 C 93.457782,334.4068 97.26185,322.6008 100.73274,310.5938 C 81.71524,320.745 63.68844,351.4944 70.26399,382.5 L 190.98273,382.5 C 196.45982,357.773 193.14382,331.2937 185.38898,314.8438 C 185.25357,319.0805 188.18532,333.6879 184.45148,350.875 C 181.20621,342.4481 181.05437,325.4814 170.70148,313.2188 C 171.03952,316.3706 178.47258,333.4674 167.86049,362.4648 C 161.57657,342.2037 160.44013,321.4523 140.48274,304.1875 z"
       id="rect3252"
       sodipodi:nodetypes="cccccccccccccccccc"
       inkscape:export-filename="C:\Documents and Settings\612645\Desktop\To Be Deleted\Mushroom-Block03.png"
       inkscape:export-xdpi="90"
       inkscape:export-ydpi="90" />
    <path
       style="opacity:0.6;fill:#80e880;fill-opacity:1;fill-rule:nonzero;stroke:none;stroke-width:3;stroke-linecap:square;stroke-linejoin:miter;stroke-miterlimit:6;stroke-opacity:1;filter:url(#filter3527)"
       d="M 94.8125,318.9062 C 88.760057,324.1332 83.048953,331.4531 78.9375,340.1562 C 73.500498,351.6653 70.861616,365.3565 73.125,379.125 L 188.15625,379.125 C 190.60516,366.5163 190.71372,353.5306 189.1875,341.8438 C 188.88077,344.9727 188.48654,348.2034 187.75,351.5938 C 187.44575,353.067 186.38032,358.5806 184.88049,358.6965 C 183.38066,358.8125 181.80828,353.5027 181.28125,352.0938 C 179.39188,347.1877 178.64796,340.9104 176.96875,334.3125 C 176.93919,334.1963 176.87382,334.085 176.84375,333.9688 C 176.72512,341.9399 175.34076,351.8493 171.03125,363.625 C 170.52568,364.9698 168.87092,369.3828 167.43468,369.3476 C 165.99844,369.3124 165.09534,364.8367 164.65625,363.4688 C 159.87239,348.0443 158.08441,333.3249 149.71875,320.0312 C 150.92243,324.1298 152.09607,328.2987 153,332.375 C 155.27457,342.6323 156.57538,351.8164 155.9375,357.625 C 155.75643,359.1335 155.47399,365.9921 153.97161,366.2181 C 152.46923,366.4442 150.117,359.9821 149.5,358.5938 C 146.983,352.7385 144.52504,344.6358 141.4375,337.2188 C 140.39042,334.7034 139.23266,332.3788 138.03125,330.1875 C 139.73108,341.3252 140.33782,352.5963 138.53125,362.25 C 138.25354,363.7339 137.2013,369.2724 135.698,369.4104 C 134.19469,369.5484 132.6057,364.2523 132.0625,362.8438 C 130.84203,359.6828 129.799,354.6927 128.03125,348.9688 C 127.57374,347.4873 126.9544,345.9838 126.40625,344.4688 C 125.53825,352.5596 123.62314,359.6846 121.28125,364.125 C 120.68478,365.2676 119.13623,368.0923 117.84772,368.0591 C 116.5592,368.0258 115.75557,365.1406 115.21875,363.9688 C 114.05632,361.4269 113.85467,358.5601 113.84375,355.25 C 113.83283,351.9399 114.14241,348.2602 114.625,344.625 C 114.89439,342.5958 115.32738,340.8161 115.6875,338.9062 C 112.94363,342.4608 110.88058,346.5062 109.53125,351.1562 C 109.07742,352.7656 105.92293,361.4018 104.26419,361.1905 C 102.60544,360.9793 102.9422,351.9843 102.90625,350.3125 C 102.71838,343.8455 102.58351,337.1616 103.15625,330.4062 C 102.87671,330.9192 102.55452,331.3083 102.28125,331.8438 C 99.863611,336.5808 97.704224,342.005 94.875,346.7188 C 94.055762,348.1163 89.88453,356.1596 88.357931,355.6176 C 86.831333,355.0757 88.379673,346.1013 88.625,344.5 C 89.762588,336.3543 92.237453,327.683 94.8125,318.9062 z"
       id="path3479"
       sodipodi:nodetypes="csccccscsccsccscscscssssccssssccsccscscc"
       inkscape:export-filename="C:\Documents and Settings\612645\Desktop\To Be Deleted\Mushroom-Block03.png"
       inkscape:export-xdpi="90"
       inkscape:export-ydpi="90" />
    <path
       style="fill:url(#linearGradient2418);fill-opacity:1;fill-rule:nonzero;stroke:none;stroke-width:2.9998107;stroke-linecap:butt;stroke-linejoin:miter;marker:none;marker-start:none;marker-mid:none;marker-end:none;stroke-miterlimit:4;stroke-dasharray:none;stroke-dashoffset:0;stroke-opacity:1;visibility:visible;display:inline;overflow:visible;enable-background:accumulate"
       d="M 2.1542382,94.500091 C 2.1178926,63.930522 -0.9727951,44.334936 6.6024407,28.040545 C 14.941179,10.104005 42.083231,1.4999018 64.214859,1.4999018 L 127.76494,1.4999018 L 191.31499,1.4999018 C 207.32197,1.4999018 235.35769,3.9217776 246.92133,23.999919 C 258.48495,44.078159 254.5,81.610093 254.5,94.5 C 171.34355,111.75863 87.215434,111.52685 2.1542382,94.500091 z"
       id="path3696"
       sodipodi:nodetypes="csscsscc"
       inkscape:export-filename="C:\Documents and Settings\612645\Desktop\To Be Deleted\Mushroom-Block03.png"
       inkscape:export-xdpi="90"
       inkscape:export-ydpi="90" />
    <path
       sodipodi:type="inkscape:offset"
       inkscape:radius="-5.6504045"
       inkscape:original="M 64.21875 1.5 C 42.087122 1.5 14.932488 10.09471 6.59375 28.03125 C -0.9814858 44.325641 2.1199044 63.93043 2.15625 94.5 C 87.217446 111.52676 171.34355 111.75863 254.5 94.5 C 254.5 81.610093 258.46987 44.078239 246.90625 24 C 235.34261 3.9218586 207.31948 1.5 191.3125 1.5 L 127.75 1.5 L 64.21875 1.5 z "
       style="opacity:0.8;fill:#ff2e2e;fill-opacity:1;fill-rule:nonzero;stroke:none;stroke-width:2.9998107;stroke-linecap:butt;stroke-linejoin:miter;marker:none;marker-start:none;marker-mid:none;marker-end:none;stroke-miterlimit:4;stroke-dasharray:none;stroke-dashoffset:0;stroke-opacity:1;visibility:visible;display:inline;overflow:visible;filter:url(#filter3231);enable-background:accumulate"
       id="path2422"
       d="M 64.21875,7.15625 C 53.884372,7.15625 42.1751,9.2025628 32.40625,13.25 C 22.6374,17.297437 15.045119,23.251265 11.71875,30.40625 C 5.5310175,43.716111 7.4546425,62.08719 7.75,89.75 C 89.099509,105.46851 169.47775,105.66163 249,89.75 C 249.2201,82.555115 249.7709,72.99576 249.40625,62.125 C 248.96649,49.015154 246.88234,35.289837 242,26.8125 C 237.15432,18.398866 228.75973,13.487301 219.15625,10.625 C 209.55277,7.7626992 199.03102,7.15625 191.3125,7.15625 L 127.75,7.15625 L 64.21875,7.15625 z"
       clip-path="url(#clipPath3241)"
       inkscape:export-filename="C:\Documents and Settings\612645\Desktop\To Be Deleted\Mushroom-Block03.png"
       inkscape:export-xdpi="90"
       inkscape:export-ydpi="90" />
    <path
       sodipodi:type="arc"
       style="fill:#ffffff;fill-opacity:1;fill-rule:nonzero;stroke:#000000;stroke-width:3.99833131;stroke-linecap:butt;stroke-linejoin:miter;marker:none;marker-start:none;marker-mid:none;marker-end:none;stroke-miterlimit:4;stroke-dasharray:none;stroke-dashoffset:0;stroke-opacity:1;visibility:visible;display:inline;overflow:visible;enable-background:accumulate"
       id="path3699"
       sodipodi:cx="-107.58125"
       sodipodi:cy="3.4618638"
       sodipodi:rx="30.809652"
       sodipodi:ry="48.487324"
       d="M -76.771601,3.4618638 A 30.809652,48.487324 0 1 1 -138.39091,3.4618638 A 30.809652,48.487324 0 1 1 -76.771601,3.4618638 z"
       transform="matrix(0.4706339,0,0,0.2990486,89.881454,64.714664)"
       inkscape:export-filename="C:\Documents and Settings\612645\Desktop\To Be Deleted\Mushroom-Block03.png"
       inkscape:export-xdpi="90"
       inkscape:export-ydpi="90" />
    <path
       sodipodi:type="arc"
       style="fill:#ffffff;fill-opacity:1;fill-rule:nonzero;stroke:#000000;stroke-width:3.99833131;stroke-linecap:butt;stroke-linejoin:miter;marker:none;marker-start:none;marker-mid:none;marker-end:none;stroke-miterlimit:4;stroke-dasharray:none;stroke-dashoffset:0;stroke-opacity:1;visibility:visible;display:inline;overflow:visible;enable-background:accumulate"
       id="path3721"
       sodipodi:cx="-107.58125"
       sodipodi:cy="3.4618638"
       sodipodi:rx="30.809652"
       sodipodi:ry="48.487324"
       d="M -76.771601,3.4618638 A 30.809652,48.487324 0 1 1 -138.39091,3.4618638 A 30.809652,48.487324 0 1 1 -76.771601,3.4618638 z"
       transform="matrix(0.4706339,0,0,0.2990486,133.88145,23.714664)"
       inkscape:export-filename="C:\Documents and Settings\612645\Desktop\To Be Deleted\Mushroom-Block03.png"
       inkscape:export-xdpi="90"
       inkscape:export-ydpi="90" />
    <path
       sodipodi:type="arc"
       style="fill:#ffffff;fill-opacity:1;fill-rule:nonzero;stroke:#000000;stroke-width:3.99833131;stroke-linecap:butt;stroke-linejoin:miter;marker:none;marker-start:none;marker-mid:none;marker-end:none;stroke-miterlimit:4;stroke-dasharray:none;stroke-dashoffset:0;stroke-opacity:1;visibility:visible;display:inline;overflow:visible;enable-background:accumulate"
       id="path3723"
       sodipodi:cx="-107.58125"
       sodipodi:cy="3.4618638"
       sodipodi:rx="30.809652"
       sodipodi:ry="48.487324"
       d="M -76.771601,3.4618638 A 30.809652,48.487324 0 1 1 -138.39091,3.4618638 A 30.809652,48.487324 0 1 1 -76.771601,3.4618638 z"
       transform="matrix(0.4706339,0,0,0.2990486,177.88145,64.714664)"
       inkscape:export-filename="C:\Documents and Settings\612645\Desktop\To Be Deleted\Mushroom-Block03.png"
       inkscape:export-xdpi="90"
       inkscape:export-ydpi="90" />
    <path
       sodipodi:type="arc"
       style="fill:#ffffff;fill-opacity:1;fill-rule:nonzero;stroke:#000000;stroke-width:3.99833131;stroke-linecap:butt;stroke-linejoin:miter;marker:none;marker-start:none;marker-mid:none;marker-end:none;stroke-miterlimit:4;stroke-dasharray:none;stroke-dashoffset:0;stroke-opacity:1;visibility:visible;display:inline;overflow:visible;enable-background:accumulate"
       id="path3727"
       sodipodi:cx="-107.58125"
       sodipodi:cy="3.4618638"
       sodipodi:rx="30.809652"
       sodipodi:ry="48.487324"
       d="M -76.771601,3.4618638 A 30.809652,48.487324 0 1 1 -138.39091,3.4618638 A 30.809652,48.487324 0 1 1 -76.771601,3.4618638 z"
       transform="matrix(0.4706339,0,0,0.2990486,265.88145,64.714664)"
       inkscape:export-filename="C:\Documents and Settings\612645\Desktop\To Be Deleted\Mushroom-Block03.png"
       inkscape:export-xdpi="90"
       inkscape:export-ydpi="90" />
    <path
       sodipodi:type="arc"
       style="fill:#ffffff;fill-opacity:1;fill-rule:nonzero;stroke:#000000;stroke-width:3.99833131;stroke-linecap:butt;stroke-linejoin:miter;marker:none;marker-start:none;marker-mid:none;marker-end:none;stroke-miterlimit:4;stroke-dasharray:none;stroke-dashoffset:0;stroke-opacity:1;visibility:visible;display:inline;overflow:visible;enable-background:accumulate"
       id="path3725"
       sodipodi:cx="-107.58125"
       sodipodi:cy="3.4618638"
       sodipodi:rx="30.809652"
       sodipodi:ry="48.487324"
       d="M -76.771601,3.4618638 A 30.809652,48.487324 0 1 1 -138.39091,3.4618638 A 30.809652,48.487324 0 1 1 -76.771601,3.4618638 z"
       transform="matrix(0.4706339,0,0,0.2990486,221.88145,23.714664)"
       inkscape:export-filename="C:\Documents and Settings\612645\Desktop\To Be Deleted\Mushroom-Block03.png"
       inkscape:export-xdpi="90"
       inkscape:export-ydpi="90" />
    <path
       style="opacity:0.8;fill:url(#linearGradient3259);fill-opacity:1;fill-rule:nonzero;stroke:none;stroke-width:1;stroke-linecap:butt;stroke-linejoin:miter;marker:none;marker-start:none;marker-mid:none;marker-end:none;stroke-miterlimit:4;stroke-dashoffset:0;stroke-opacity:1;visibility:visible;display:inline;overflow:visible;filter:url(#filter3281);enable-background:accumulate"
       d="M 235.91361,26.413471 C 236.09912,35.128465 15.003597,35.391249 13.770648,26.749584 C 13.051469,21.708901 30.941323,7.2113562 50.897957,4.6849092 C 70.85459,2.1584612 92.700425,4.5947732 122.97761,3.9439832 C 150.52623,3.3518412 184.82386,2.0271082 206.09499,4.9159102 C 227.36613,7.8047132 235.79629,20.901954 235.91361,26.413471 z"
       id="path5491"
       sodipodi:nodetypes="csssss"
       inkscape:export-filename="C:\Documents and Settings\612645\Desktop\To Be Deleted\Mushroom-Block03.png"
       inkscape:export-xdpi="90"
       inkscape:export-ydpi="90" />
    <path
       sodipodi:nodetypes="csscsscc"
       id="path3285"
       d="M 2.1525321,94.500091 C 2.1162816,63.930522 -0.96632434,44.334936 6.589103,28.040545 C 14.906036,10.104005 41.977115,1.4999014 64.050871,1.4999014 L 127.43477,1.4999014 L 190.81864,1.4999014 C 206.78377,1.4999014 234.74618,3.9217774 246.27958,23.999919 C 257.81296,44.078159 253.83843,81.610093 253.83843,94.5 C 170.89943,111.75863 86.991301,111.52685 2.1525321,94.500091 z"
       style="fill:none;fill-opacity:1;fill-rule:nonzero;stroke:#000000;stroke-width:2.9998107;stroke-linecap:butt;stroke-linejoin:miter;marker:none;marker-start:none;marker-mid:none;marker-end:none;stroke-miterlimit:4;stroke-dasharray:none;stroke-dashoffset:0;stroke-opacity:1;visibility:visible;display:inline;overflow:visible;enable-background:accumulate"
       inkscape:export-filename="C:\Documents and Settings\612645\Desktop\To Be Deleted\Mushroom-Block03.png"
       inkscape:export-xdpi="90"
       inkscape:export-ydpi="90" />
    <path
       sodipodi:nodetypes="cccccccccccccccccc"
       id="path3475"
       d="M 140.48274,304.1875 C 147.91668,320.1282 153.65991,347.6609 152.60589,357.2589 C 147.8551,346.2072 142.71797,324.5386 132.32649,317.8438 C 135.67024,332.6507 137.59874,348.9819 135.23274,361.625 C 133.27169,356.546 130.62485,340.7429 123.35774,330.4062 C 124.46283,343.5258 121.42341,356.6313 118.29524,362.5625 C 115.3347,356.0888 119.22243,333.7014 121.88899,328.5938 C 113.85793,333.7679 108.90043,341.2407 106.29524,350.2188 C 105.98653,339.5922 105.55668,328.8425 108.63899,318.3438 C 100.66859,323.4788 97.23098,336.2247 91.98274,344.9688 C 93.45778,334.4068 97.26185,322.6008 100.73274,310.5938 C 81.71524,320.745 63.68844,351.4944 70.26399,382.5 L 190.98273,382.5 C 196.45982,357.773 193.14382,331.2937 185.38898,314.8438 C 185.25357,319.0805 188.18532,333.6879 184.45148,350.875 C 181.20621,342.4481 181.05437,325.4814 170.70148,313.2188 C 171.03952,316.3706 178.47258,333.4674 167.86049,362.4648 C 161.57657,342.2037 160.44013,321.4523 140.48274,304.1875 z"
       style="fill:none;fill-opacity:1;fill-rule:nonzero;stroke:#000000;stroke-width:3;stroke-linecap:square;stroke-linejoin:miter;stroke-miterlimit:10;stroke-dasharray:none;stroke-opacity:1"
       inkscape:export-filename="C:\Documents and Settings\612645\Desktop\To Be Deleted\Mushroom-Block03.png"
       inkscape:export-xdpi="90"
       inkscape:export-ydpi="90" />
  </g>
</svg>
