<?xml version="1.0" encoding="UTF-8" standalone="no"?>
<!-- Created with Inkscape (http://www.inkscape.org/) -->

<svg
   xmlns:dc="http://purl.org/dc/elements/1.1/"
   xmlns:cc="http://creativecommons.org/ns#"
   xmlns:rdf="http://www.w3.org/1999/02/22-rdf-syntax-ns#"
   xmlns:svg="http://www.w3.org/2000/svg"
   xmlns="http://www.w3.org/2000/svg"
   xmlns:xlink="http://www.w3.org/1999/xlink"
   xmlns:sodipodi="http://sodipodi.sourceforge.net/DTD/sodipodi-0.dtd"
   xmlns:inkscape="http://www.inkscape.org/namespaces/inkscape"
   width="1024"
   height="256"
   id="svg2"
   version="1.1"
   inkscape:version="0.47pre2 r22153"
   sodipodi:docname="game_over.svg"
   inkscape:export-filename="C:\Dateien\Desktop\Secret Maryo Chronicles\Drafts\Game\FluXy\core\gui\menu\text\game_over.png"
   inkscape:export-xdpi="22.5"
   inkscape:export-ydpi="22.5">
  <defs
     id="defs4">
    <linearGradient
       id="linearGradient3602">
      <stop
         style="stop-color:#fc4000;stop-opacity:1;"
         offset="0"
         id="stop3604" />
      <stop
         style="stop-color:#d3220b;stop-opacity:1"
         offset="1"
         id="stop3606" />
    </linearGradient>
    <inkscape:perspective
       sodipodi:type="inkscape:persp3d"
       inkscape:vp_x="0 : 526.18109 : 1"
       inkscape:vp_y="0 : 1000 : 0"
       inkscape:vp_z="744.09448 : 526.18109 : 1"
       inkscape:persp3d-origin="372.04724 : 350.78739 : 1"
       id="perspective10" />
    <filter
       id="filter2814"
       inkscape:menu-tooltip="Draws a black outline around"
       inkscape:menu="ABCs"
       inkscape:label="Black outline">
      <feGaussianBlur
         id="feGaussianBlur2816"
         stdDeviation="6"
         result="result0"
         in="SourceAlpha" />
      <feComposite
         id="feComposite2818"
         in2="result0"
         result="result3"
         operator="arithmetic"
         in="SourceGraphic"
         k2="1"
         k3="10" />
      <feComposite
         id="feComposite2820"
         in2="result3"
         k2="1"
         operator="in"
         in="result3"
         result="result4" />
    </filter>
    <filter
       id="filter2820"
       inkscape:label="lighting"
       inkscape:menu="ABCs"
       inkscape:menu-tooltip="Basic diffuse bevel to use for building textures">
      <feGaussianBlur
         id="feGaussianBlur2822"
         stdDeviation="9"
         in="SourceGraphic"
         result="result0" />
      <feDiffuseLighting
         id="feDiffuseLighting2824"
         diffuseConstant="0.80000000000000004"
         surfaceScale="10"
         result="result5">
        <feDistantLight
           id="feDistantLight2826"
           elevation="45"
           azimuth="235" />
      </feDiffuseLighting>
      <feComposite
         id="feComposite2828"
         in2="SourceGraphic"
         k1="1"
         in="result5"
         result="result4"
         operator="arithmetic"
         k2="0"
         k3="0.5" />
      <feGaussianBlur
         stdDeviation="1"
         id="feGaussianBlur3626" />
    </filter>
    <linearGradient
       inkscape:collect="always"
       xlink:href="#linearGradient3602"
       id="linearGradient3608"
       x1="507.26562"
       y1="848.69714"
       x2="507.26562"
       y2="1002.2403"
       gradientUnits="userSpaceOnUse" />
  </defs>
  <sodipodi:namedview
     id="base"
     pagecolor="#000000"
     bordercolor="#666666"
     borderopacity="1.0"
     inkscape:pageopacity="0"
     inkscape:pageshadow="2"
     inkscape:zoom="0.7"
     inkscape:cx="477.20446"
     inkscape:cy="205.71429"
     inkscape:document-units="px"
     inkscape:current-layer="layer1"
     showgrid="false"
     inkscape:window-width="1032"
     inkscape:window-height="812"
     inkscape:window-x="110"
     inkscape:window-y="64"
     inkscape:window-maximized="0" />
  <metadata
     id="metadata7">
    <rdf:RDF>
      <cc:Work
         rdf:about="">
        <dc:format>image/svg+xml</dc:format>
        <dc:type
           rdf:resource="http://purl.org/dc/dcmitype/StillImage" />
        <dc:title></dc:title>
      </cc:Work>
    </rdf:RDF>
  </metadata>
  <g
     inkscape:label="Layer 1"
     inkscape:groupmode="layer"
     id="layer1"
     transform="translate(0,-796.36218)">
    <text
       xml:space="preserve"
       style="font-size:12px;fill:#000000;stroke:none;filter:url(#filter2814);font-family:Liberation Sans;-inkscape-font-specification:Liberation Sans;fill-opacity:1"
       x="8.5714283"
       y="989.505"
       id="text2816"
       sodipodi:linespacing="125%"><tspan
         sodipodi:role="line"
         id="tspan2818"
         x="8.5714283"
         y="989.505"
         style="font-size:186px;fill:#000000;fill-opacity:1;stroke:none;font-family:Liberation Sans;-inkscape-font-specification:Liberation Sans Bold;font-weight:bold;font-style:normal;font-stretch:normal;font-variant:normal;text-anchor:start;text-align:start;writing-mode:lr;line-height:125%">Game Over</tspan></text>
    <path
       sodipodi:type="inkscape:offset"
       inkscape:radius="0"
       inkscape:original="M 81.6875 859.625 C 70.60736 859.62513 60.954049 861.16126 52.75 864.21875 C 44.545862 867.27649 37.731416 871.62024 32.3125 877.28125 C 26.893536 882.94249 22.851548 889.82237 20.1875 897.875 C 17.523429 905.92782 16.187492 914.94734 16.1875 924.9375 C 16.187492 934.56451 17.456046 943.41801 19.96875 951.53125 C 22.481431 959.64456 26.357404 966.6592 31.625 972.5625 C 36.89255 978.46583 43.638637 983.0752 51.8125 986.375 C 59.986277 989.6748 69.708923 991.3125 81.03125 991.3125 C 87.872968 991.3125 94.352453 990.71094 100.4375 989.5 C 106.52236 988.28906 112.13466 986.68457 117.28125 984.65625 C 122.42762 982.62794 127.07019 980.25685 131.1875 977.5625 C 135.30456 974.86818 138.81237 972.02931 141.71875 969.0625 L 141.71875 922.03125 L 85.9375 922.03125 L 85.9375 941.8125 L 117.1875 941.8125 L 117.1875 959.53125 C 115.61317 960.92386 113.60829 962.26077 111.15625 963.5625 C 108.704 964.86428 105.93252 966.03225 102.875 967.03125 C 99.817292 968.03029 96.509678 968.83205 92.9375 969.4375 C 89.365154 970.04299 85.656173 970.34377 81.78125 970.34375 C 75.181574 970.34377 69.437439 969.209 64.59375 966.96875 C 59.749949 964.72854 55.741164 961.62112 52.5625 957.625 C 49.383748 953.62894 47.043907 948.8516 45.5 943.28125 C 43.956019 937.71099 43.187465 931.59771 43.1875 924.9375 C 43.187465 918.21687 43.923793 912.13777 45.4375 906.71875 C 46.951133 901.29989 49.289022 896.65634 52.4375 892.78125 C 55.58589 888.90635 59.593699 885.93272 64.4375 883.84375 C 69.281189 881.75499 75.027277 880.68761 81.6875 880.6875 C 86.228438 880.68761 90.270426 881.22179 93.8125 882.28125 C 97.354403 883.34093 100.46182 884.77647 103.15625 886.5625 C 105.85049 888.34873 108.12099 890.421 109.9375 892.8125 C 111.7538 895.2042 113.1913 897.74228 114.28125 900.40625 L 139 892.96875 C 137.12292 887.88291 134.58483 883.30577 131.40625 879.21875 C 128.22742 875.13195 124.28602 871.62512 119.59375 868.71875 C 114.90126 865.81262 109.42275 863.57434 103.15625 862 C 96.88956 860.42591 89.740153 859.62513 81.6875 859.625 z M 649.3125 859.625 C 638.89838 859.62513 629.67866 861.16126 621.65625 864.21875 C 613.63375 867.27649 606.88571 871.62024 601.40625 877.28125 C 595.92674 882.94249 591.78417 889.82237 588.96875 897.875 C 586.15331 905.92782 584.74999 914.94734 584.75 924.9375 C 584.74999 934.56451 586.08691 943.41801 588.78125 951.53125 C 591.47557 959.64456 595.51756 966.6592 600.90625 972.5625 C 606.29489 978.46583 613.00875 983.0752 621.03125 986.375 C 629.05366 989.6748 638.40814 991.3125 649.125 991.3125 C 659.23625 991.3125 668.28995 989.74219 676.3125 986.59375 C 684.33485 983.44532 691.14832 978.96876 696.71875 973.15625 C 702.28894 967.34377 706.56432 960.36136 709.53125 952.1875 C 712.49791 944.01372 713.96861 934.92779 713.96875 924.9375 C 713.96861 915.00789 712.56432 906.02254 709.71875 898 C 706.87292 889.97764 702.69812 883.12901 697.21875 877.4375 C 691.73914 871.74621 684.9911 867.33801 676.96875 864.25 C 668.9462 861.16224 659.72648 859.62513 649.3125 859.625 z M 649.3125 880.6875 C 655.42766 880.68761 660.80558 881.75499 665.4375 883.84375 C 670.06924 885.93272 673.94522 888.90635 677.09375 892.78125 C 680.24208 896.65634 682.61415 901.29989 684.21875 906.71875 C 685.82313 912.13777 686.62489 918.21687 686.625 924.9375 C 686.62489 931.47662 685.92177 937.52251 684.46875 943.0625 C 683.01552 948.60258 680.74501 953.37992 677.6875 957.40625 C 674.62979 961.43265 670.75381 964.57327 666.03125 966.84375 C 661.30851 969.11428 655.66398 970.25002 649.125 970.25 C 643.0097 970.25002 637.6308 969.1465 632.96875 966.90625 C 628.30659 964.66604 624.39839 961.52737 621.25 957.53125 C 618.10152 953.53519 615.72945 948.75883 614.125 943.21875 C 612.52047 937.67876 611.71872 931.59771 611.71875 924.9375 C 611.71872 918.21687 612.48825 912.13777 614.0625 906.71875 C 615.63668 901.29989 618.00777 896.65634 621.15625 892.78125 C 624.30464 888.90635 628.21382 885.93272 632.90625 883.84375 C 637.59857 881.75499 643.07611 880.68761 649.3125 880.6875 z M 323.4375 889.34375 C 316.89838 889.34385 311.28608 891.01572 306.59375 894.40625 C 301.90132 897.79697 297.99215 903.24227 294.84375 910.75 L 294.46875 910.75 C 294.46871 909.41805 294.43453 907.81258 294.34375 905.875 C 294.25289 903.93759 294.15231 902.00009 294.03125 900.0625 C 293.91012 898.12509 293.77731 896.32334 293.65625 894.71875 C 293.53512 893.11435 293.40231 891.97666 293.28125 891.25 L 268.96875 891.25 C 269.08983 892.03721 269.15819 893.2081 269.21875 894.8125 C 269.27928 896.41709 269.34667 898.25302 269.4375 900.28125 C 269.52831 902.30966 269.59471 904.44735 269.625 906.6875 C 269.65526 908.92781 269.68749 911.09969 269.6875 913.21875 L 269.6875 989.5 L 295.1875 989.5 L 295.1875 936.84375 C 295.18746 932.66607 295.62105 928.82526 296.46875 925.34375 C 297.31637 921.86237 298.51851 918.85652 300.0625 916.34375 C 301.6064 913.83113 303.44331 911.89363 305.5625 910.53125 C 307.68159 909.16903 310.02143 908.50008 312.625 908.5 C 315.34955 908.50008 317.68646 909.13485 319.59375 910.40625 C 321.50091 911.67781 323.03802 913.44832 324.21875 915.71875 C 325.39935 917.98933 326.23528 920.69636 326.75 923.875 C 327.26458 927.05377 327.53118 930.56061 327.53125 934.375 L 327.53125 989.5 L 352.875 989.5 L 352.875 935.65625 C 352.996 931.59967 353.46475 927.89264 354.3125 924.5625 C 355.16006 921.23249 356.36221 918.39167 357.90625 916 C 359.45009 913.60847 361.28603 911.73934 363.375 910.4375 C 365.46376 909.13582 367.76942 908.50008 370.3125 908.5 C 373.03699 908.50008 375.34265 909.13485 377.25 910.40625 C 379.1571 911.67781 380.69421 913.44832 381.875 915.71875 C 383.05554 917.98933 383.92272 920.69636 384.4375 923.875 C 384.95202 927.05377 385.21862 930.56061 385.21875 934.375 L 385.21875 989.5 L 410.53125 989.5 L 410.53125 927.125 C 410.5311 921.79694 409.99692 916.82039 408.9375 912.21875 C 407.87778 907.61727 406.20591 903.60946 403.875 900.21875 C 401.5438 896.82822 398.50474 894.1876 394.78125 892.25 C 391.05748 890.3126 386.51354 889.34385 381.125 889.34375 C 377.73425 889.34385 374.59461 889.67979 371.71875 890.40625 C 368.84266 891.13291 366.17079 892.33506 363.71875 894 C 361.2665 895.66513 359.02822 897.86923 357 900.59375 C 354.97158 903.31845 353.06826 906.69344 351.3125 910.75 L 350.78125 910.75 C 349.20694 903.7872 346.1337 898.47568 341.5625 894.8125 C 336.99113 891.14951 330.94524 889.34385 323.4375 889.34375 z M 990.4375 889.34375 C 986.86518 889.34385 983.85932 889.84678 981.4375 890.90625 C 979.01557 891.96592 976.94429 893.50107 975.21875 895.46875 C 973.49312 897.43662 971.99019 899.80966 970.71875 902.625 C 969.44722 905.44051 968.17769 908.64657 966.90625 912.21875 L 966.53125 912.21875 C 966.53121 910.94734 966.49703 909.27645 966.40625 907.1875 C 966.31539 905.09872 966.21481 902.99423 966.09375 900.875 C 965.97262 898.75595 965.83981 896.78623 965.71875 895 C 965.59762 893.21396 965.49606 891.97666 965.375 891.25 L 941.03125 891.25 C 941.15233 892.03721 941.22069 893.27451 941.28125 895 C 941.34178 896.72568 941.44042 898.66318 941.53125 900.8125 C 941.62206 902.962 941.68846 905.23251 941.71875 907.59375 C 941.74901 909.95516 941.74999 912.19344 941.75 914.3125 L 941.75 989.5 L 967.28125 989.5 L 967.28125 941.28125 C 967.28121 931.16998 969.05172 923.5528 972.59375 918.40625 C 976.13569 913.25984 981.08003 910.68758 987.4375 910.6875 C 989.73822 910.68758 991.7099 910.82137 993.375 911.09375 C 995.03997 911.36629 996.70892 911.66805 998.34375 912.03125 L 998.34375 890.6875 C 997.55657 890.32432 996.42083 890.02256 994.9375 889.75 C 993.45404 889.47764 991.95111 889.34385 990.4375 889.34375 z M 205.28125 889.40625 C 198.5605 889.40635 192.71383 890.13975 187.71875 891.5625 C 182.7236 892.98545 178.51462 894.99033 175.09375 897.59375 C 171.67283 900.19735 168.99998 903.27059 167.0625 906.8125 C 165.12499 910.35457 163.78905 914.26375 163.0625 918.5625 L 189.65625 919.84375 C 189.95895 917.11921 190.49313 914.87996 191.25 913.09375 C 192.0068 911.3077 193.00777 909.87215 194.21875 908.8125 C 195.42965 907.75301 196.86617 907.01766 198.53125 906.59375 C 200.19624 906.17001 202.06831 905.93758 204.1875 905.9375 C 206.48823 905.93758 208.55756 906.27059 210.34375 906.90625 C 212.12982 907.54207 213.6015 908.61141 214.8125 910.125 C 216.02337 911.63875 216.95794 913.60847 217.59375 916 C 218.22943 918.39167 218.56243 921.3653 218.5625 924.9375 L 218.5625 929.9375 L 197.375 930.28125 C 192.04684 930.34186 187.03512 930.94244 182.3125 932.0625 C 177.58982 933.18267 173.48045 934.95416 169.96875 937.40625 C 166.45702 939.85845 163.68456 943.06548 161.65625 947.03125 C 159.62792 950.99711 158.59374 955.90628 158.59375 961.71875 C 158.59374 966.44143 159.29492 970.65041 160.6875 974.34375 C 162.08007 978.03712 164.08397 981.14356 166.6875 983.65625 C 169.291 986.16895 172.46385 988.07324 176.1875 989.375 C 179.91111 990.67676 184.12106 991.3125 188.84375 991.3125 C 196.41207 991.3125 202.85835 989.64062 208.15625 986.25 C 213.45404 982.85938 217.79681 978.084 221.1875 971.96875 L 221.71875 971.96875 C 222.32415 978.084 224.16106 982.72657 227.21875 985.875 C 230.27629 989.02344 235.01945 990.59375 241.4375 990.59375 C 243.25382 990.59375 244.8251 990.52734 246.1875 990.40625 C 247.54971 990.28516 248.85147 990.15039 250.0625 989.96875 C 251.27334 989.78711 252.47646 989.52148 253.6875 989.21875 C 254.89834 988.91602 256.26748 988.58203 257.78125 988.21875 L 257.78125 974.4375 C 255.96474 974.8008 254.09365 974.96876 252.15625 974.96875 C 250.46084 974.96876 249.09072 974.66701 248.03125 974.03125 C 246.97159 973.39552 246.1376 972.45998 245.5625 971.21875 C 244.98721 969.97756 244.58682 968.44143 244.375 966.625 C 244.16299 964.80862 244.06241 962.73831 244.0625 960.4375 L 244.0625 924.65625 C 244.06241 918.90437 243.19327 913.85945 241.4375 909.5 C 239.68155 905.14071 237.14249 901.46591 233.8125 898.46875 C 230.48234 895.47177 226.40813 893.20127 221.625 891.6875 C 216.84173 890.17393 211.39643 889.40635 205.28125 889.40625 z M 475.5625 889.40625 C 469.38667 889.40635 463.50777 890.30674 457.9375 892.0625 C 452.36716 893.81846 447.45603 896.65927 443.1875 900.625 C 438.91893 904.59091 435.54393 909.80086 433.03125 916.21875 C 430.51855 922.63679 429.24999 930.52154 429.25 939.90625 C 429.24999 948.56449 430.31835 956.11429 432.4375 962.5625 C 434.55663 969.01076 437.59764 974.38771 441.59375 978.65625 C 445.58982 982.92481 450.43259 986.09864 456.09375 988.1875 C 461.75484 990.27637 468.13472 991.3125 475.21875 991.3125 C 482.18158 991.3125 488.09466 990.44433 492.96875 988.71875 C 497.8427 986.99317 501.91789 984.82129 505.1875 982.1875 C 508.45694 979.55372 511.06339 976.6797 513.03125 973.53125 C 514.99893 970.38283 516.53506 967.41018 517.625 964.625 L 493.5625 962.53125 C 492.35149 966.52737 490.31438 969.46779 487.46875 971.375 C 484.62298 973.28224 480.94916 974.25002 476.46875 974.25 C 472.77534 974.25002 469.63472 973.51466 467.03125 972.03125 C 464.42769 970.54787 462.32223 968.51076 460.6875 965.9375 C 459.0527 963.36428 457.85153 960.29202 457.125 956.75 C 456.3984 953.20804 456.03122 949.39848 456.03125 945.28125 L 519.0625 945.28125 L 519.0625 944.5625 C 519.0624 936.38873 518.25967 928.90729 516.625 922.15625 C 514.99014 915.40535 512.41788 909.62508 508.90625 904.78125 C 505.39445 899.93759 500.88566 896.16318 495.40625 893.46875 C 489.92669 890.77451 483.31244 889.40635 475.5625 889.40625 z M 878.8125 889.40625 C 872.63667 889.40635 866.75777 890.30674 861.1875 892.0625 C 855.61716 893.81846 850.70603 896.65927 846.4375 900.625 C 842.16893 904.59091 838.76268 909.80086 836.25 916.21875 C 833.7373 922.63679 832.49999 930.52154 832.5 939.90625 C 832.49999 948.56449 833.56835 956.11429 835.6875 962.5625 C 837.80663 969.01076 840.84764 974.38771 844.84375 978.65625 C 848.83982 982.92481 853.68259 986.09864 859.34375 988.1875 C 865.00484 990.27637 871.35347 991.3125 878.4375 991.3125 C 885.40033 991.3125 891.34466 990.44433 896.21875 988.71875 C 901.0927 986.99317 905.13664 984.82129 908.40625 982.1875 C 911.67569 979.55372 914.31339 976.6797 916.28125 973.53125 C 918.24893 970.38283 919.78506 967.41018 920.875 964.625 L 896.78125 962.53125 C 895.57024 966.52737 893.56438 969.46779 890.71875 971.375 C 887.87298 973.28224 884.19916 974.25002 879.71875 974.25 C 876.02534 974.25002 872.88472 973.51466 870.28125 972.03125 C 867.67769 970.54787 865.54098 968.51076 863.90625 965.9375 C 862.27145 963.36428 861.10153 960.29202 860.375 956.75 C 859.6484 953.20804 859.28122 949.39848 859.28125 945.28125 L 922.3125 945.28125 L 922.3125 944.5625 C 922.3124 936.38873 921.50967 928.90729 919.875 922.15625 C 918.24014 915.40535 915.66788 909.62508 912.15625 904.78125 C 908.64445 899.93759 904.13566 896.16318 898.65625 893.46875 C 893.17669 890.77451 886.56244 889.40635 878.8125 889.40625 z M 722.40625 891.25 L 757.5625 989.5 L 788.09375 989.5 L 824.3125 891.25 L 797.625 891.25 L 779.71875 946.46875 C 779.11322 948.2852 778.51069 950.18949 777.875 952.1875 C 777.2392 954.18558 776.63764 956.18949 776.0625 958.1875 C 775.48725 960.18558 774.91987 962.09085 774.375 963.9375 C 773.83003 965.7842 773.36323 967.4219 773 968.875 C 772.57612 967.36135 772.10835 965.68948 771.59375 963.8125 C 771.07905 961.93557 770.54487 959.99808 770 958 C 769.45503 956.00199 768.88667 953.96586 768.28125 951.9375 C 767.67574 949.90922 767.10738 948.00395 766.5625 946.1875 L 749.40625 891.25 L 722.40625 891.25 z M 475.21875 905.5 C 480.84955 905.50008 485.32611 907.47176 488.65625 911.4375 C 491.98626 915.40339 493.89055 921.34968 494.375 929.28125 L 456.21875 929.28125 C 456.33981 925.04303 456.90817 921.43366 457.9375 918.40625 C 458.96676 915.37898 460.33492 912.9073 462 911 C 463.665 909.09285 465.6357 907.69051 467.90625 906.8125 C 470.17671 905.93465 472.61518 905.50008 475.21875 905.5 z M 878.4375 905.5 C 884.0683 905.50008 888.54486 907.47176 891.875 911.4375 C 895.20501 915.40339 897.14055 921.34968 897.625 929.28125 L 859.46875 929.28125 C 859.58981 925.04303 860.15817 921.43366 861.1875 918.40625 C 862.21676 915.37898 863.55367 912.9073 865.21875 911 C 866.88375 909.09285 868.85445 907.69051 871.125 906.8125 C 873.39546 905.93465 875.83393 905.50008 878.4375 905.5 z M 218.5625 944 L 218.5625 949 C 218.56243 952.08793 218.02923 955.12699 217 958.09375 C 215.97064 961.06058 214.53412 963.66702 212.6875 965.9375 C 210.84076 968.20803 208.60151 970.04494 205.9375 971.4375 C 203.27339 972.83009 200.30073 973.53127 197.03125 973.53125 C 193.45894 973.53127 190.58688 972.39552 188.4375 970.125 C 186.28805 967.85451 185.21872 964.38088 185.21875 959.71875 C 185.21872 956.26761 185.75387 953.52933 186.84375 951.53125 C 187.93356 949.53324 189.40328 948.02836 191.25 946.96875 C 193.09664 945.90922 195.26656 945.20805 197.71875 944.875 C 200.17085 944.54204 202.74409 944.30864 205.46875 944.1875 L 218.5625 944 z "
       xlink:href="#text2816"
       style="font-size:12px;fill:url(#linearGradient3608);stroke:none;font-family:Liberation Sans;-inkscape-font-specification:Liberation Sans;filter:url(#filter2820);fill-opacity:1"
       id="path2818"
       inkscape:href="#text2816"
       d="m 81.6875,859.625 c -11.08014,1.3e-4 -20.733451,1.53626 -28.9375,4.59375 -8.204138,3.05774 -15.018584,7.40149 -20.4375,13.0625 -5.418964,5.66124 -9.460952,12.54112 -12.125,20.59375 -2.664071,8.05282 -4.000008,17.07234 -4,27.0625 -8e-6,9.62701 1.268546,18.48051 3.78125,26.59375 2.512681,8.11331 6.388654,15.12795 11.65625,21.03125 5.26755,5.90333 12.013637,10.5127 20.1875,13.8125 8.173777,3.2998 17.896423,4.9375 29.21875,4.9375 6.841718,0 13.321203,-0.60156 19.40625,-1.8125 6.08486,-1.21094 11.69716,-2.81543 16.84375,-4.84375 5.14637,-2.02831 9.78894,-4.3994 13.90625,-7.09375 4.11706,-2.69432 7.62487,-5.53319 10.53125,-8.5 l 0,-47.03125 -55.78125,0 0,19.78125 31.25,0 0,17.71875 c -1.57433,1.39261 -3.57921,2.72952 -6.03125,4.03125 -2.45225,1.30178 -5.22373,2.46975 -8.28125,3.46875 -3.057708,0.99904 -6.365322,1.8008 -9.9375,2.40625 -3.572346,0.60549 -7.281327,0.90627 -11.15625,0.90625 -6.599676,2e-5 -12.343811,-1.13475 -17.1875,-3.375 -4.843801,-2.24021 -8.852586,-5.34763 -12.03125,-9.34375 -3.178752,-3.99606 -5.518593,-8.7734 -7.0625,-14.34375 -1.543981,-5.57026 -2.312535,-11.68354 -2.3125,-18.34375 -3.5e-5,-6.72063 0.736293,-12.79973 2.25,-18.21875 1.513633,-5.41886 3.851522,-10.06241 7,-13.9375 3.14839,-3.8749 7.156199,-6.84853 12,-8.9375 4.843689,-2.08876 10.589777,-3.15614 17.25,-3.15625 4.540938,1.1e-4 8.582926,0.53429 12.125,1.59375 3.541903,1.05968 6.64932,2.49522 9.34375,4.28125 2.69424,1.78623 4.96474,3.8585 6.78125,6.25 1.8163,2.3917 3.2538,4.92978 4.34375,7.59375 L 139,892.96875 c -1.87708,-5.08584 -4.41517,-9.66298 -7.59375,-13.75 -3.17883,-4.0868 -7.12023,-7.59363 -11.8125,-10.5 -4.69249,-2.90613 -10.171,-5.14441 -16.4375,-6.71875 -6.26669,-1.57409 -13.416097,-2.37487 -21.46875,-2.375 z m 567.625,0 c -10.41412,1.3e-4 -19.63384,1.53626 -27.65625,4.59375 -8.0225,3.05774 -14.77054,7.40149 -20.25,13.0625 -5.47951,5.66124 -9.62208,12.54112 -12.4375,20.59375 -2.81544,8.05282 -4.21876,17.07234 -4.21875,27.0625 -10e-6,9.62701 1.33691,18.48051 4.03125,26.59375 2.69432,8.11331 6.73631,15.12795 12.125,21.03125 5.38864,5.90333 12.1025,10.5127 20.125,13.8125 8.02241,3.2998 17.37689,4.9375 28.09375,4.9375 10.11125,0 19.16495,-1.57031 27.1875,-4.71875 8.02235,-3.14843 14.83582,-7.62499 20.40625,-13.4375 5.57019,-5.81248 9.84557,-12.79489 12.8125,-20.96875 2.96666,-8.17378 4.43736,-17.25971 4.4375,-27.25 -1.4e-4,-9.92961 -1.40443,-18.91496 -4.25,-26.9375 -2.84583,-8.02236 -7.02063,-14.87099 -12.5,-20.5625 -5.47961,-5.69129 -12.22765,-10.09949 -20.25,-13.1875 -8.02255,-3.08776 -17.24227,-4.62487 -27.65625,-4.625 z m 0,21.0625 c 6.11516,1.1e-4 11.49308,1.06749 16.125,3.15625 4.63174,2.08897 8.50772,5.0626 11.65625,8.9375 3.14833,3.87509 5.5204,8.51864 7.125,13.9375 1.60438,5.41902 2.40614,11.49812 2.40625,18.21875 -1.1e-4,6.53912 -0.70323,12.58501 -2.15625,18.125 -1.45323,5.54008 -3.72374,10.31742 -6.78125,14.34375 -3.05771,4.0264 -6.93369,7.16702 -11.65625,9.4375 -4.72274,2.27053 -10.36727,3.40627 -16.90625,3.40625 -6.1153,2e-5 -11.4942,-1.1035 -16.15625,-3.34375 -4.66216,-2.24021 -8.57036,-5.37888 -11.71875,-9.375 -3.14848,-3.99606 -5.52055,-8.77242 -7.125,-14.3125 -1.60453,-5.53999 -2.40628,-11.62104 -2.40625,-18.28125 -3e-5,-6.72063 0.7695,-12.79973 2.34375,-18.21875 1.57418,-5.41886 3.94527,-10.06241 7.09375,-13.9375 3.14839,-3.8749 7.05757,-6.84853 11.75,-8.9375 4.69232,-2.08876 10.16986,-3.15614 16.40625,-3.15625 z m -325.875,8.65625 c -6.53912,10e-5 -12.15142,1.67197 -16.84375,5.0625 -4.69243,3.39072 -8.6016,8.83602 -11.75,16.34375 l -0.375,0 c -4e-5,-1.33195 -0.0342,-2.93742 -0.125,-4.875 -0.0909,-1.93741 -0.19144,-3.87491 -0.3125,-5.8125 -0.12113,-1.93741 -0.25394,-3.73916 -0.375,-5.34375 -0.12113,-1.6044 -0.25394,-2.74209 -0.375,-3.46875 l -24.3125,0 c 0.12108,0.78721 0.18944,1.9581 0.25,3.5625 0.0605,1.60459 0.12792,3.44052 0.21875,5.46875 0.0908,2.02841 0.15721,4.1661 0.1875,6.40625 0.0303,2.24031 0.0625,4.41219 0.0625,6.53125 l 0,76.28125 25.5,0 0,-52.65625 c -4e-5,-4.17768 0.43355,-8.01849 1.28125,-11.5 0.84762,-3.48138 2.04976,-6.48723 3.59375,-9 1.5439,-2.51262 3.38081,-4.45012 5.5,-5.8125 2.11909,-1.36222 4.45893,-2.03117 7.0625,-2.03125 2.72455,8e-5 5.06146,0.63485 6.96875,1.90625 1.90716,1.27156 3.44427,3.04207 4.625,5.3125 1.1806,2.27058 2.01653,4.97761 2.53125,8.15625 0.51458,3.17877 0.78118,6.68561 0.78125,10.5 l 0,55.125 25.34375,0 0,-53.84375 c 0.121,-4.05658 0.58975,-7.76361 1.4375,-11.09375 0.84756,-3.33001 2.04971,-6.17083 3.59375,-8.5625 1.54384,-2.39153 3.37978,-4.26066 5.46875,-5.5625 2.08876,-1.30168 4.39442,-1.93742 6.9375,-1.9375 2.72449,8e-5 5.03015,0.63485 6.9375,1.90625 1.9071,1.27156 3.44421,3.04207 4.625,5.3125 1.18054,2.27058 2.04772,4.97761 2.5625,8.15625 0.51452,3.17877 0.78112,6.68561 0.78125,10.5 l 0,55.125 25.3125,0 0,-62.375 c -1.5e-4,-5.32806 -0.53433,-10.30461 -1.59375,-14.90625 -1.05972,-4.60148 -2.73159,-8.60929 -5.0625,-12 -2.3312,-3.39053 -5.37026,-6.03115 -9.09375,-7.96875 -3.72377,-1.9374 -8.26771,-2.90615 -13.65625,-2.90625 -3.39075,10e-5 -6.53039,0.33604 -9.40625,1.0625 -2.87609,0.72666 -5.54796,1.92881 -8,3.59375 -2.45225,1.66513 -4.69053,3.86923 -6.71875,6.59375 -2.02842,2.7247 -3.93174,6.09969 -5.6875,10.15625 l -0.53125,0 c -1.57431,-6.9628 -4.64755,-12.27432 -9.21875,-15.9375 -4.57137,-3.66299 -10.61726,-5.46865 -18.125,-5.46875 z m 667,0 c -3.57232,10e-5 -6.57818,0.50303 -9,1.5625 -2.42193,1.05967 -4.49321,2.59482 -6.21875,4.5625 -1.72563,1.96787 -3.22856,4.34091 -4.5,7.15625 -1.27153,2.81551 -2.54106,6.02157 -3.8125,9.59375 l -0.375,0 c -4e-5,-1.27141 -0.0342,-2.9423 -0.125,-5.03125 -0.0909,-2.08878 -0.19144,-4.19327 -0.3125,-6.3125 -0.12113,-2.11905 -0.25394,-4.08877 -0.375,-5.875 -0.12113,-1.78604 -0.22269,-3.02334 -0.34375,-3.75 l -24.34375,0 c 0.12108,0.78721 0.18944,2.02451 0.25,3.75 0.0605,1.72568 0.15917,3.66318 0.25,5.8125 0.0908,2.1495 0.15721,4.42001 0.1875,6.78125 0.0303,2.36141 0.0312,4.59969 0.0312,6.71875 l 0,75.1875 25.53125,0 0,-48.21875 c -4e-5,-10.11127 1.77047,-17.72845 5.3125,-22.875 3.54194,-5.14641 8.48628,-7.71867 14.84375,-7.71875 2.30072,8e-5 4.2724,0.13387 5.9375,0.40625 1.66497,0.27254 3.33392,0.5743 4.96875,0.9375 l 0,-21.34375 c -0.78718,-0.36318 -1.92292,-0.66494 -3.40625,-0.9375 -1.48346,-0.27236 -2.98639,-0.40615 -4.5,-0.40625 z m -785.15625,0.0625 c -6.72075,10e-5 -12.56742,0.7335 -17.5625,2.15625 -4.99515,1.42295 -9.20413,3.42783 -12.625,6.03125 -3.42092,2.6036 -6.09377,5.67684 -8.03125,9.21875 -1.93751,3.54207 -3.27345,7.45125 -4,11.75 l 26.59375,1.28125 c 0.3027,-2.72454 0.83688,-4.96379 1.59375,-6.75 0.7568,-1.78605 1.75777,-3.2216 2.96875,-4.28125 1.2109,-1.05949 2.64742,-1.79484 4.3125,-2.21875 1.66499,-0.42374 3.53706,-0.65617 5.65625,-0.65625 2.30073,8e-5 4.37006,0.33309 6.15625,0.96875 1.78607,0.63582 3.25775,1.70516 4.46875,3.21875 1.21087,1.51375 2.14544,3.48347 2.78125,5.875 0.63568,2.39167 0.96868,5.3653 0.96875,8.9375 l 0,5 -21.1875,0.34375 c -5.32816,0.0606 -10.33988,0.66119 -15.0625,1.78125 -4.72268,1.12017 -8.83205,2.89166 -12.34375,5.34375 -3.51173,2.4522 -6.28419,5.65923 -8.3125,9.625 -2.02833,3.96586 -3.06251,8.87503 -3.0625,14.6875 -1e-5,4.72268 0.70117,8.93166 2.09375,12.625 1.39257,3.69337 3.39647,6.79981 6,9.3125 2.6035,2.5127 5.77635,4.41699 9.5,5.71875 3.72361,1.30176 7.93356,1.9375 12.65625,1.9375 7.56832,0 14.0146,-1.67188 19.3125,-5.0625 5.29779,-3.39062 9.64056,-8.166 13.03125,-14.28125 l 0.53125,0 c 0.6054,6.11525 2.44231,10.75782 5.5,13.90625 3.05754,3.14844 7.8007,4.71875 14.21875,4.71875 1.81632,0 3.3876,-0.0664 4.75,-0.1875 1.36221,-0.12109 2.66397,-0.25586 3.875,-0.4375 1.21084,-0.18164 2.41396,-0.44727 3.625,-0.75 1.21084,-0.30273 2.57998,-0.63672 4.09375,-1 l 0,-13.78125 c -1.81651,0.3633 -3.6876,0.53126 -5.625,0.53125 -1.69541,10e-6 -3.06553,-0.30174 -4.125,-0.9375 -1.05966,-0.63573 -1.89365,-1.57127 -2.46875,-2.8125 -0.57529,-1.24119 -0.97568,-2.77732 -1.1875,-4.59375 -0.21201,-1.81638 -0.31259,-3.88669 -0.3125,-6.1875 l 0,-35.78125 c -9e-5,-5.75188 -0.86923,-10.7968 -2.625,-15.15625 -1.75595,-4.35929 -4.29501,-8.03409 -7.625,-11.03125 -3.33016,-2.99698 -7.40437,-5.26748 -12.1875,-6.78125 -4.78327,-1.51357 -10.22857,-2.28115 -16.34375,-2.28125 z m 270.28125,0 c -6.17583,10e-5 -12.05473,0.90049 -17.625,2.65625 -5.57034,1.75596 -10.48147,4.59677 -14.75,8.5625 -4.26857,3.96591 -7.64357,9.17586 -10.15625,15.59375 -2.5127,6.41804 -3.78126,14.30279 -3.78125,23.6875 -10e-6,8.65824 1.06835,16.20804 3.1875,22.65625 2.11913,6.44826 5.16014,11.82521 9.15625,16.09375 3.99607,4.26856 8.83884,7.44239 14.5,9.53125 5.66109,2.08887 12.04097,3.125 19.125,3.125 6.96283,0 12.87591,-0.86817 17.75,-2.59375 4.87395,-1.72558 8.94914,-3.89746 12.21875,-6.53125 3.26944,-2.63378 5.87589,-5.5078 7.84375,-8.65625 1.96768,-3.14842 3.50381,-6.12107 4.59375,-8.90625 l -24.0625,-2.09375 c -1.21101,3.99612 -3.24812,6.93654 -6.09375,8.84375 -2.84577,1.90724 -6.51959,2.87502 -11,2.875 -3.69341,2e-5 -6.83403,-0.73534 -9.4375,-2.21875 -2.60356,-1.48338 -4.70902,-3.52049 -6.34375,-6.09375 -1.6348,-2.57322 -2.83597,-5.64548 -3.5625,-9.1875 -0.7266,-3.54196 -1.09378,-7.35152 -1.09375,-11.46875 l 63.03125,0 0,-0.71875 c -10e-5,-8.17377 -0.80283,-15.65521 -2.4375,-22.40625 -1.63486,-6.7509 -4.20712,-12.53117 -7.71875,-17.375 -3.5118,-4.84366 -8.02059,-8.61807 -13.5,-11.3125 -5.47956,-2.69424 -12.09381,-4.0624 -19.84375,-4.0625 z m 403.25,0 c -6.17583,10e-5 -12.05473,0.90049 -17.625,2.65625 -5.57034,1.75596 -10.48147,4.59677 -14.75,8.5625 -4.26857,3.96591 -7.67482,9.17586 -10.1875,15.59375 -2.5127,6.41804 -3.75001,14.30279 -3.75,23.6875 -10e-6,8.65824 1.06835,16.20804 3.1875,22.65625 2.11913,6.44826 5.16014,11.82521 9.15625,16.09375 3.99607,4.26856 8.83884,7.44239 14.5,9.53125 5.66109,2.08887 12.00972,3.125 19.09375,3.125 6.96283,0 12.90716,-0.86817 17.78125,-2.59375 4.87395,-1.72558 8.91789,-3.89746 12.1875,-6.53125 3.26944,-2.63378 5.90714,-5.5078 7.875,-8.65625 1.96768,-3.14842 3.50381,-6.12107 4.59375,-8.90625 l -24.09375,-2.09375 c -1.21101,3.99612 -3.21687,6.93654 -6.0625,8.84375 -2.84577,1.90724 -6.51959,2.87502 -11,2.875 -3.69341,2e-5 -6.83403,-0.73534 -9.4375,-2.21875 -2.60356,-1.48338 -4.74027,-3.52049 -6.375,-6.09375 -1.6348,-2.57322 -2.80472,-5.64548 -3.53125,-9.1875 -0.7266,-3.54196 -1.09378,-7.35152 -1.09375,-11.46875 l 63.03125,0 0,-0.71875 c -10e-5,-8.17377 -0.80283,-15.65521 -2.4375,-22.40625 -1.63486,-6.7509 -4.20712,-12.53117 -7.71875,-17.375 -3.5118,-4.84366 -8.02059,-8.61807 -13.5,-11.3125 -5.47956,-2.69424 -12.09381,-4.0624 -19.84375,-4.0625 z m -156.40625,1.84375 35.15625,98.25 30.53125,0 36.21875,-98.25 -26.6875,0 -17.90625,55.21875 c -0.60553,1.81645 -1.20806,3.72074 -1.84375,5.71875 -0.6358,1.99808 -1.23736,4.00199 -1.8125,6 -0.57525,1.99808 -1.14263,3.90335 -1.6875,5.75 -0.54497,1.8467 -1.01177,3.4844 -1.375,4.9375 -0.42388,-1.51365 -0.89165,-3.18552 -1.40625,-5.0625 -0.5147,-1.87693 -1.04888,-3.81442 -1.59375,-5.8125 -0.54497,-1.99801 -1.11333,-4.03414 -1.71875,-6.0625 -0.60551,-2.02828 -1.17387,-3.93355 -1.71875,-5.75 l -17.15625,-54.9375 -27,0 z m -247.1875,14.25 c 5.6308,8e-5 10.10736,1.97176 13.4375,5.9375 3.33001,3.96589 5.2343,9.91218 5.71875,17.84375 l -38.15625,0 c 0.12106,-4.23822 0.68942,-7.84759 1.71875,-10.875 1.02926,-3.02727 2.39742,-5.49895 4.0625,-7.40625 1.665,-1.90715 3.6357,-3.30949 5.90625,-4.1875 2.27046,-0.87785 4.70893,-1.31242 7.3125,-1.3125 z m 403.21875,0 c 5.6308,8e-5 10.10736,1.97176 13.4375,5.9375 3.33001,3.96589 5.26555,9.91218 5.75,17.84375 l -38.15625,0 c 0.12106,-4.23822 0.68942,-7.84759 1.71875,-10.875 1.02926,-3.02727 2.36617,-5.49895 4.03125,-7.40625 1.665,-1.90715 3.6357,-3.30949 5.90625,-4.1875 2.27046,-0.87785 4.70893,-1.31242 7.3125,-1.3125 z m -659.875,38.5 0,5 c -7e-5,3.08793 -0.53327,6.12699 -1.5625,9.09375 -1.02936,2.96683 -2.46588,5.57327 -4.3125,7.84375 -1.84674,2.27053 -4.08599,4.10744 -6.75,5.5 -2.66411,1.39259 -5.63677,2.09377 -8.90625,2.09375 -3.57231,2e-5 -6.44437,-1.13573 -8.59375,-3.40625 -2.14945,-2.27049 -3.21878,-5.74412 -3.21875,-10.40625 -3e-5,-3.45114 0.53512,-6.18942 1.625,-8.1875 1.08981,-1.99801 2.55953,-3.50289 4.40625,-4.5625 1.84664,-1.05953 4.01656,-1.7607 6.46875,-2.09375 2.4521,-0.33296 5.02534,-0.56636 7.75,-0.6875 L 218.5625,944 z" />
  </g>
</svg>
