<?xml version="1.0" encoding="UTF-8" standalone="no"?>
<!-- Created with Inkscape (http://www.inkscape.org/) -->
<svg
   xmlns:dc="http://purl.org/dc/elements/1.1/"
   xmlns:cc="http://creativecommons.org/ns#"
   xmlns:rdf="http://www.w3.org/1999/02/22-rdf-syntax-ns#"
   xmlns:svg="http://www.w3.org/2000/svg"
   xmlns="http://www.w3.org/2000/svg"
   xmlns:xlink="http://www.w3.org/1999/xlink"
   xmlns:sodipodi="http://sodipodi.sourceforge.net/DTD/sodipodi-0.dtd"
   xmlns:inkscape="http://www.inkscape.org/namespaces/inkscape"
   width="256"
   height="256"
   id="svg2"
   sodipodi:version="0.32"
   inkscape:version="0.46"
   sodipodi:docname="closed_2_ice.svg"
   inkscape:output_extension="org.inkscape.output.svg.inkscape"
   inkscape:export-filename="D:\Dateien\Desktop\Secret Maryo Chronicles\SMC\data\pixmaps\enemy\jpiranha\blue\closed_2.png"
   inkscape:export-xdpi="90"
   inkscape:export-ydpi="90"
   version="1.0">
  <defs
     id="defs4">
    <linearGradient
       id="linearGradient3174">
      <stop
         style="stop-color:#009c02;stop-opacity:1;"
         offset="0"
         id="stop3176" />
      <stop
         style="stop-color:#c3ff17;stop-opacity:1;"
         offset="1"
         id="stop3178" />
    </linearGradient>
    <filter
       inkscape:collect="always"
       id="filter3341"
       x="-0.14616126"
       width="1.2923225"
       y="-0.037254725"
       height="1.0745095">
      <feGaussianBlur
         inkscape:collect="always"
         stdDeviation="6.1247871"
         id="feGaussianBlur3343" />
    </filter>
    <filter
       inkscape:collect="always"
       id="filter3451">
      <feGaussianBlur
         inkscape:collect="always"
         stdDeviation="9.2316893"
         id="feGaussianBlur3453" />
    </filter>
    <linearGradient
       id="linearGradient3986">
      <stop
         id="stop3988"
         offset="0"
         style="stop-color:#6f6f6f;stop-opacity:1;" />
      <stop
         id="stop3990"
         offset="1"
         style="stop-color:#fbf0f0;stop-opacity:1;" />
    </linearGradient>
    <filter
       inkscape:collect="always"
       id="filter3943"
       x="-0.21197091"
       width="1.4239419"
       y="-0.11417203"
       height="1.2283441">
      <feGaussianBlur
         inkscape:collect="always"
         stdDeviation="1.4508244"
         id="feGaussianBlur3945" />
    </filter>
    <filter
       inkscape:collect="always"
       id="filter3947"
       x="-0.24700864"
       width="1.4940172"
       y="-0.1103778"
       height="1.2207556">
      <feGaussianBlur
         inkscape:collect="always"
         stdDeviation="1.4508243"
         id="feGaussianBlur3949" />
    </filter>
    <filter
       inkscape:collect="always"
       id="filter3951"
       x="-0.13375291"
       width="1.2675058"
       y="-0.066128559"
       height="1.1322571">
      <feGaussianBlur
         inkscape:collect="always"
         stdDeviation="0.8298043"
         id="feGaussianBlur3953" />
    </filter>
    <filter
       inkscape:collect="always"
       id="filter3955"
       x="-0.14801925"
       width="1.2960385"
       y="-0.072408229"
       height="1.1448165">
      <feGaussianBlur
         inkscape:collect="always"
         stdDeviation="0.90843549"
         id="feGaussianBlur3957" />
    </filter>
    <filter
       inkscape:collect="always"
       id="filter3959">
      <feGaussianBlur
         inkscape:collect="always"
         stdDeviation="0.51697376"
         id="feGaussianBlur3961" />
    </filter>
    <filter
       inkscape:collect="always"
       id="filter3963"
       x="-0.13051733"
       width="1.2610347"
       y="-0.073665485"
       height="1.147331">
      <feGaussianBlur
         inkscape:collect="always"
         stdDeviation="0.9266149"
         id="feGaussianBlur3965" />
    </filter>
    <filter
       inkscape:collect="always"
       id="filter3967"
       x="-0.15118702"
       width="1.302374"
       y="-0.071075149"
       height="1.1421503">
      <feGaussianBlur
         inkscape:collect="always"
         stdDeviation="0.92661487"
         id="feGaussianBlur3969" />
    </filter>
    <filter
       height="1.6750995"
       y="-0.33754974"
       width="1.2095354"
       x="-0.10476768"
       id="filter3311"
       inkscape:collect="always">
      <feGaussianBlur
         id="feGaussianBlur3313"
         stdDeviation="19.690226"
         inkscape:collect="always" />
    </filter>
    <linearGradient
       inkscape:collect="always"
       xlink:href="#linearGradient3174"
       id="linearGradient2892"
       gradientUnits="userSpaceOnUse"
       gradientTransform="matrix(1.134112,0,0,0.2407507,-276.29603,15.11968)"
       x1="350.99493"
       y1="875.91211"
       x2="326.70215"
       y2="675.90186" />
    <linearGradient
       inkscape:collect="always"
       xlink:href="#linearGradient3986"
       id="linearGradient3014"
       gradientUnits="userSpaceOnUse"
       gradientTransform="matrix(-0.222461,0.118842,7.6902187e-2,0.2042236,-34.835655,-124.86842)"
       x1="330.5"
       y1="318.29318"
       x2="328.18765"
       y2="293.99188" />
    <linearGradient
       inkscape:collect="always"
       xlink:href="#linearGradient3986"
       id="linearGradient3016"
       gradientUnits="userSpaceOnUse"
       gradientTransform="matrix(0.5074354,0.2006228,-0.1152166,0.4085827,-210.2845,-298.4876)"
       x1="330.5"
       y1="318.29318"
       x2="328.18765"
       y2="293.99188" />
    <linearGradient
       inkscape:collect="always"
       xlink:href="#linearGradient3986"
       id="linearGradient3018"
       gradientUnits="userSpaceOnUse"
       gradientTransform="matrix(0.3405281,0.2096369,-0.1438134,0.2920652,-148.28856,-228.03097)"
       x1="330.5"
       y1="318.29318"
       x2="328.18765"
       y2="293.99188" />
    <linearGradient
       inkscape:collect="always"
       xlink:href="#linearGradient3986"
       id="linearGradient3020"
       gradientUnits="userSpaceOnUse"
       gradientTransform="matrix(-0.4845388,0.2565757,0.1734913,0.3837271,16.824315,-289.46738)"
       x1="330.5"
       y1="318.29318"
       x2="328.18765"
       y2="293.99188" />
    <linearGradient
       inkscape:collect="always"
       xlink:href="#linearGradient3986"
       id="linearGradient3022"
       gradientUnits="userSpaceOnUse"
       gradientTransform="matrix(0.2303444,0.1060097,-7.0032817e-2,0.20468,-134.48047,-134.67263)"
       x1="330.5"
       y1="318.29318"
       x2="328.18765"
       y2="293.99188" />
    <linearGradient
       inkscape:collect="always"
       xlink:href="#linearGradient3986"
       id="linearGradient3024"
       gradientUnits="userSpaceOnUse"
       gradientTransform="matrix(-0.3417936,0.2036954,0.1320049,0.3005213,-15.109495,-210.32544)"
       x1="330.5"
       y1="318.29318"
       x2="328.18765"
       y2="293.99188" />
  </defs>
  <sodipodi:namedview
     id="base"
     pagecolor="#000000"
     bordercolor="#666666"
     borderopacity="1.0"
     inkscape:pageopacity="0"
     inkscape:pageshadow="2"
     inkscape:zoom="1.4"
     inkscape:cx="126.22075"
     inkscape:cy="116.75653"
     inkscape:document-units="px"
     inkscape:current-layer="layer1"
     showgrid="false"
     inkscape:window-width="1151"
     inkscape:window-height="912"
     inkscape:window-x="33"
     inkscape:window-y="9"
     showguides="true"
     inkscape:guide-bbox="true" />
  <metadata
     id="metadata7">
    <rdf:RDF>
      <cc:Work
         rdf:about="">
        <dc:format>image/svg+xml</dc:format>
        <dc:type
           rdf:resource="http://purl.org/dc/dcmitype/StillImage" />
        <cc:license
           rdf:resource="http://creativecommons.org/licenses/publicdomain/" />
      </cc:Work>
      <cc:License
         rdf:about="http://creativecommons.org/licenses/publicdomain/">
        <cc:permits
           rdf:resource="http://creativecommons.org/ns#Reproduction" />
        <cc:permits
           rdf:resource="http://creativecommons.org/ns#Distribution" />
        <cc:permits
           rdf:resource="http://creativecommons.org/ns#DerivativeWorks" />
      </cc:License>
    </rdf:RDF>
  </metadata>
  <g
     inkscape:label="Ebene 1"
     inkscape:groupmode="layer"
     id="layer1">
    <g
       id="g2966"
       inkscape:label="Ebene 1"
       transform="translate(209.50324,164.81166)">
      <path
         sodipodi:nodetypes="ccssccc"
         id="path2968"
         d="M -120.5855,-30.337344 C -131.22675,-61.702574 -115.76142,-105.67983 -108.55641,-126.95677 C -108.55641,-126.95677 -103.19739,-137.57512 -95.230715,-142.31613 C -83.763065,-149.14059 -51.754005,-162.08794 -49.723245,-157.92772 C -47.190185,-152.73848 -73.176195,-139.00167 -73.176195,-139.00167 L -86.190455,-128.49943 C -102.83182,-110.8417 -115.81831,-25.804024 -120.5855,-30.337344 z"
         style="fill:#2852fe;fill-opacity:1;fill-rule:evenodd;stroke:#000000;stroke-width:4.20456362;stroke-linecap:butt;stroke-linejoin:miter;stroke-miterlimit:4;stroke-dasharray:none;stroke-opacity:1" />
      <path
         transform="matrix(0.3338533,0.2433645,-0.2123416,0.2912952,-188.09423,-173.47214)"
         sodipodi:nodetypes="ccsccc"
         id="path2970"
         d="M 322.10568,184.4288 C 287.52591,141.19293 246.36132,26.124524 232.42452,-32.270056 C 232.42452,-32.270056 233.42367,-74.267806 240.99318,-88.914966 C 257.13229,-120.14449 270.78917,-138.10086 270.78917,-138.10086 L 253.91709,-65.733247 C 247.59114,-0.16405745 307.52929,151.62725 322.10568,184.4288 z"
         style="fill:#4bd9fe;fill-opacity:1;fill-rule:evenodd;stroke:none;stroke-width:10;stroke-linecap:butt;stroke-linejoin:miter;stroke-miterlimit:4;stroke-dasharray:none;stroke-opacity:1;filter:url(#filter3341)" />
      <path
         sodipodi:nodetypes="ccssccc"
         id="path2972"
         d="M -89.934125,-22.742814 C -64.613675,-44.094364 -55.124335,-89.735662 -50.295775,-111.67434 C -50.295775,-111.67434 -49.395625,-123.53428 -53.765455,-131.71045 C -60.055615,-143.47965 -83.291855,-163.02585 -85.160185,-161.01899 C -89.094895,-156.79256 -74.359025,-140.27152 -74.359025,-140.27152 L -68.645635,-124.55449 C -63.525345,-100.83714 -96.358225,-21.325754 -89.934125,-22.742814 z"
         style="fill:#2751fe;fill-opacity:1;fill-rule:evenodd;stroke:#000000;stroke-width:4.20456362;stroke-linecap:butt;stroke-linejoin:miter;stroke-miterlimit:4;stroke-dasharray:none;stroke-opacity:1" />
      <path
         transform="matrix(-0.4115861,3.5793873e-2,3.1231035e-2,0.359119,41.836125,-110.38756)"
         sodipodi:nodetypes="ccsccc"
         id="path2974"
         d="M 322.10568,184.4288 C 287.52591,141.19293 246.36132,26.124524 232.42452,-32.270056 C 232.42452,-32.270056 233.42367,-74.267806 240.99318,-88.914966 C 257.13229,-120.14449 270.78917,-138.10086 270.78917,-138.10086 L 253.91709,-65.733247 C 247.59114,-0.16405745 307.52929,151.62725 322.10568,184.4288 z"
         style="fill:#4bd9fe;fill-opacity:1;fill-rule:evenodd;stroke:none;stroke-width:10;stroke-linecap:butt;stroke-linejoin:miter;stroke-miterlimit:4;stroke-dasharray:none;stroke-opacity:1;filter:url(#filter3341)" />
      <path
         sodipodi:nodetypes="ccssccc"
         id="path2976"
         d="M -122.30696,-57.359554 C -130.35763,-85.264456 -113.13538,-99.231446 -102.72087,-119.32717 C -102.72087,-119.32717 -95.582615,-129.4986 -86.260335,-134.49071 C -72.841375,-141.67661 -36.098055,-156.1386 -34.348555,-152.48743 C -32.166325,-147.93314 -62.372365,-133.23408 -62.372365,-133.23408 L -77.923025,-122.55023 C -98.301385,-105.01078 -117.58908,-53.587444 -122.30696,-57.359554 z"
         style="fill:#264cfe;fill-opacity:1;fill-rule:evenodd;stroke:#000000;stroke-width:4.20456314;stroke-linecap:butt;stroke-linejoin:miter;stroke-miterlimit:4;stroke-dasharray:none;stroke-opacity:1" />
      <path
         transform="matrix(0.3390522,0.1961993,-0.2677289,0.2843161,-184.83576,-155.55612)"
         sodipodi:nodetypes="ccsccc"
         id="path2978"
         d="M 287.8121,112.03595 C 253.23233,68.800083 246.36132,26.124524 232.42452,-32.270056 C 232.42452,-32.270056 233.42367,-74.267806 240.99318,-88.914966 C 257.13229,-120.14449 270.78917,-138.10086 270.78917,-138.10086 L 253.91709,-65.733247 C 247.59114,-0.16405745 273.23571,79.234403 287.8121,112.03595 z"
         style="fill:#4bd9fe;fill-opacity:1;fill-rule:evenodd;stroke:none;stroke-width:10;stroke-linecap:butt;stroke-linejoin:miter;stroke-miterlimit:4;stroke-dasharray:none;stroke-opacity:1;filter:url(#filter3341)" />
      <path
         sodipodi:nodetypes="csscscccsssss"
         id="path2980"
         d="M -81.026875,36.480125 C -97.202695,36.148405 -136.79818,43.346445 -150.0999,27.950605 C -170.38006,4.4776361 -148.30702,-64.188094 -116.74784,-104.37146 C -113.46854,-108.54688 -103.26299,-118.53481 -98.656715,-123.71922 C -88.020885,-138.97395 -87.514745,-126.64287 -86.585965,-120.05199 C -86.027815,-116.09117 -84.528865,-103.81091 -83.820605,-94.999146 C -84.212685,-68.106443 -82.931895,-32.405064 -82.972585,-11.359254 C -79.909025,-15.157334 -82.909825,-73.529206 -83.339055,-108.83971 C -82.168595,-133.6508 -104.24458,-141.36968 -105.52833,-159.44794 C -105.80426,-163.33374 -74.986275,-142.61819 -63.769985,-132.30552 C -58.338685,-127.31174 -52.927755,-121.38418 -49.177095,-113.76311 C -27.741255,-70.20691 10.030825,12.893476 -8.0624046,31.288225 C -22.043975,45.502855 -60.898915,36.892855 -81.026875,36.480125 z"
         style="fill:#2549fe;fill-opacity:1;fill-rule:evenodd;stroke:#000000;stroke-width:4.20456219;stroke-linecap:butt;stroke-linejoin:miter;stroke-miterlimit:4;stroke-dasharray:none;stroke-opacity:1" />
      <path
         transform="matrix(0.4611108,0,0,0.3546517,-189.68531,-88.72342)"
         sodipodi:nodetypes="cscsccsccccccss"
         id="path2982"
         d="M 234.36333,343.01909 C 200.77154,342.11555 105.67549,339.38175 91.90313,287.15199 C 72.790265,214.66908 88.530218,263.80155 107.89525,139.27284 C 107.89525,139.27284 148.3551,2.231415 159.21789,-10.171675 C 182.37867,-36.616585 214.22747,-90.039381 214.22747,-90.039381 L 209.61547,2.9307071 C 209.61547,2.9307071 209.06851,57.339695 209.26252,68.07468 C 210.78284,152.19531 196.0559,228.35147 228.7162,249.52703 C 259.32593,227.82285 250.33437,172.87898 249.74512,93.799456 C 249.35457,41.386729 249.35597,-68.381209 244.18281,-93.496674 C 229.12094,-125.08388 231.21751,-120.20577 203.82774,-170.65579 C 241.03714,-139.09143 295.28362,-63.842439 305.43198,-20.086058 C 316.71102,-6.4835484 356.54815,174.31511 356.54815,174.31511 C 366.6832,211.24517 398.24791,259.11214 377.45752,316.65307 C 359.44128,366.51606 276.16238,344.14338 234.36333,343.01909 z"
         style="fill:#4bd9fe;fill-opacity:1;fill-rule:evenodd;stroke:none;stroke-width:10;stroke-linecap:butt;stroke-linejoin:miter;stroke-miterlimit:4;stroke-dasharray:none;stroke-opacity:1;filter:url(#filter3451)" />
      <path
         sodipodi:nodetypes="csc"
         id="path2984"
         d="M -81.275445,-29.633654 C -95.375655,-23.082324 -94.920775,-22.667824 -94.414925,-21.169194 C -93.886475,-19.603604 -85.436275,-21.523554 -81.253405,-21.059734"
         style="fill:url(#linearGradient3014);fill-opacity:1;fill-rule:evenodd;stroke:#000000;stroke-width:2.10228109;stroke-linecap:butt;stroke-linejoin:miter;stroke-miterlimit:4;stroke-dasharray:none;stroke-opacity:1" />
      <path
         style="fill:url(#linearGradient3016);fill-opacity:1;fill-rule:evenodd;stroke:#000000;stroke-width:2.10228109;stroke-linecap:butt;stroke-linejoin:miter;stroke-miterlimit:4;stroke-dasharray:none;stroke-opacity:1"
         d="M -87.072535,-119.39403 C -55.150675,-108.58977 -55.484195,-103.82454 -55.679755,-102.76988 C -56.290925,-99.473867 -76.136975,-104.17124 -85.015895,-102.68616"
         id="path2986"
         sodipodi:nodetypes="csc" />
      <path
         sodipodi:nodetypes="csc"
         id="path2988"
         d="M -84.693895,-79.612532 C -63.005905,-67.783276 -63.640305,-65.252601 -63.813975,-64.196014 C -64.236855,-61.623174 -77.590895,-68.540044 -84.280775,-68.471886"
         style="fill:url(#linearGradient3018);fill-opacity:1;fill-rule:evenodd;stroke:#000000;stroke-width:2.10228109;stroke-linecap:butt;stroke-linejoin:miter;stroke-miterlimit:4;stroke-dasharray:none;stroke-opacity:1" />
      <path
         sodipodi:nodetypes="csc"
         id="path2990"
         d="M -82.605135,-100.27615 C -113.3405,-85.903367 -114.69309,-81.689548 -114.1251,-80.915934 C -113.06623,-79.473718 -91.523915,-84.139172 -82.347415,-83.766806"
         style="fill:url(#linearGradient3020);fill-opacity:1;fill-rule:evenodd;stroke:#000000;stroke-width:2.10228109;stroke-linecap:butt;stroke-linejoin:miter;stroke-miterlimit:4;stroke-dasharray:none;stroke-opacity:1" />
      <path
         style="fill:url(#linearGradient3022);fill-opacity:1;fill-rule:evenodd;stroke:#000000;stroke-width:2.10228109;stroke-linecap:butt;stroke-linejoin:miter;stroke-miterlimit:4;stroke-dasharray:none;stroke-opacity:1"
         d="M -83.640385,-43.259194 C -69.078895,-37.505294 -70.119255,-36.846814 -70.060605,-35.087154 C -70.002825,-33.354854 -79.101855,-35.484624 -83.327415,-34.823274"
         id="path2992"
         sodipodi:nodetypes="csc" />
      <path
         inkscape:transform-center-y="4.0406102"
         style="fill:url(#linearGradient3024);fill-opacity:1;fill-rule:evenodd;stroke:#000000;stroke-width:2.10228109;stroke-linecap:butt;stroke-linejoin:miter;stroke-miterlimit:4;stroke-dasharray:none;stroke-opacity:1"
         d="M -82.484065,-61.309304 C -104.2033,-49.882274 -103.14166,-49.878784 -102.19533,-47.736914 C -101.17932,-45.437284 -88.544375,-48.597004 -81.965405,-48.346704"
         id="path2994"
         sodipodi:nodetypes="csc" />
      <path
         transform="matrix(1.3192753,-5.0973167e-2,3.1758279e-2,0.9555522,-671.36073,-392.25976)"
         d="M 473.76156,418.82535 A 7.0710678,15.152288 0 1 1 459.61942,418.82535 A 7.0710678,15.152288 0 1 1 473.76156,418.82535 z"
         sodipodi:ry="15.152288"
         sodipodi:rx="7.0710678"
         sodipodi:cy="418.82535"
         sodipodi:cx="466.69049"
         id="path2996"
         style="opacity:1;fill:#b5fff3;fill-opacity:1;fill-rule:evenodd;stroke:none;stroke-width:1;stroke-miterlimit:4;stroke-dasharray:none;stroke-opacity:1;filter:url(#filter3959)"
         sodipodi:type="arc" />
      <path
         transform="matrix(0.6312616,-0.2815215,0.2072857,0.5299669,-423.49379,-161.02137)"
         d="M 473.76156,418.82535 A 7.0710678,15.152288 0 1 1 459.61942,418.82535 A 7.0710678,15.152288 0 1 1 473.76156,418.82535 z"
         sodipodi:ry="15.152288"
         sodipodi:rx="7.0710678"
         sodipodi:cy="418.82535"
         sodipodi:cx="466.69049"
         id="path2998"
         style="opacity:1;fill:#b5fff3;fill-opacity:1;fill-rule:evenodd;stroke:none;stroke-width:1;stroke-miterlimit:4;stroke-dasharray:none;stroke-opacity:1;filter:url(#filter3967)"
         sodipodi:type="arc" />
      <path
         sodipodi:type="arc"
         style="opacity:1;fill:#b5fff3;fill-opacity:1;fill-rule:evenodd;stroke:none;stroke-width:1;stroke-miterlimit:4;stroke-dasharray:none;stroke-opacity:1;filter:url(#filter3963)"
         id="path3000"
         sodipodi:cx="466.69049"
         sodipodi:cy="418.82535"
         sodipodi:rx="7.0710678"
         sodipodi:ry="15.152288"
         d="M 473.76156,418.82535 A 7.0710678,15.152288 0 1 1 459.61942,418.82535 A 7.0710678,15.152288 0 1 1 473.76156,418.82535 z"
         transform="matrix(0.6876155,-0.1958311,7.0972767e-2,0.5511865,-418.43017,-189.0864)" />
      <path
         transform="matrix(-0.7975545,3.0458586e-2,-6.7333958e-3,0.6145458,234.25534,-285.05828)"
         d="M 473.76156,418.82535 A 7.0710678,15.152288 0 1 1 459.61942,418.82535 A 7.0710678,15.152288 0 1 1 473.76156,418.82535 z"
         sodipodi:ry="15.152288"
         sodipodi:rx="7.0710678"
         sodipodi:cy="418.82535"
         sodipodi:cx="466.69049"
         id="path3002"
         style="opacity:1;fill:#b5fff3;fill-opacity:1;fill-rule:evenodd;stroke:none;stroke-width:1;stroke-miterlimit:4;stroke-dasharray:none;stroke-opacity:1;filter:url(#filter3951)"
         sodipodi:type="arc" />
      <path
         transform="matrix(0.446692,-8.1877721e-2,6.3212127e-3,0.357636,-326.83555,-177.73625)"
         d="M 473.76156,418.82535 A 7.0710678,15.152288 0 1 1 459.61942,418.82535 A 7.0710678,15.152288 0 1 1 473.76156,418.82535 z"
         sodipodi:ry="15.152288"
         sodipodi:rx="7.0710678"
         sodipodi:cy="418.82535"
         sodipodi:cx="466.69049"
         id="path3004"
         style="opacity:1;fill:#b5fff3;fill-opacity:1;fill-rule:evenodd;stroke:none;stroke-width:1;stroke-miterlimit:4;stroke-dasharray:none;stroke-opacity:1;filter:url(#filter3943)"
         sodipodi:type="arc" />
      <path
         sodipodi:type="arc"
         style="opacity:1;fill:#b5fff3;fill-opacity:1;fill-rule:evenodd;stroke:none;stroke-width:1;stroke-miterlimit:4;stroke-dasharray:none;stroke-opacity:1;filter:url(#filter3947)"
         id="path3006"
         sodipodi:cx="466.69049"
         sodipodi:cy="418.82535"
         sodipodi:rx="7.0710678"
         sodipodi:ry="15.152288"
         d="M 473.76156,418.82535 A 7.0710678,15.152288 0 1 1 459.61942,418.82535 A 7.0710678,15.152288 0 1 1 473.76156,418.82535 z"
         transform="matrix(0.4402712,-9.7694318e-2,2.9570493e-2,0.3574658,-336.17273,-139.86971)" />
      <path
         sodipodi:type="arc"
         style="opacity:1;fill:#b5fff3;fill-opacity:1;fill-rule:evenodd;stroke:none;stroke-width:1;stroke-miterlimit:4;stroke-dasharray:none;stroke-opacity:1;filter:url(#filter3955)"
         id="path3008"
         sodipodi:cx="466.69049"
         sodipodi:cy="418.82535"
         sodipodi:rx="7.0710678"
         sodipodi:ry="15.152288"
         d="M 473.76156,418.82535 A 7.0710678,15.152288 0 1 1 459.61942,418.82535 A 7.0710678,15.152288 0 1 1 473.76156,418.82535 z"
         transform="matrix(-0.7788185,0.1190111,9.5167692e-2,0.5103373,224.89934,-267.46019)" />
    </g>
    <path
       style="fill:url(#linearGradient2892);fill-opacity:1;fill-rule:evenodd;stroke:#000000;stroke-width:4.126;stroke-linecap:butt;stroke-linejoin:miter;stroke-miterlimit:4;stroke-dasharray:none;stroke-opacity:1"
       d="M 23.19587,204.05486 C 103.75574,180.2043 156.02854,179.93891 239.09836,207.03442 C 264.31887,218.91738 237.12308,238.74913 195.64359,239.46195 C 147.18946,240.29463 100.5703,240.20432 55.756457,238.63916 C 18.294588,237.34842 -12.371632,214.40548 23.19587,204.05486 z"
       id="path2854"
       sodipodi:nodetypes="ccssc" />
    <path
       style="fill:#00f502;fill-opacity:1;fill-rule:evenodd;stroke:none;stroke-width:10;stroke-linecap:butt;stroke-linejoin:miter;stroke-miterlimit:4;stroke-dasharray:none;stroke-opacity:1;filter:url(#filter3311)"
       d="M 671.90801,657.87366 C 825.10591,608.46659 922.0695,615.81361 1085.399,655.54938 C 1139.3909,712.5506 1069.1744,738.6941 1023.82,763.25524 C 914.5727,763.25524 826.07447,755.50296 730.52476,755.50296 C 691.28125,745.10942 620.55902,712.55256 671.90801,657.87366 z"
       id="path2858"
       sodipodi:nodetypes="ccccc"
       transform="matrix(0.4370921,0,0,0.2395241,-256.72527,51.551885)" />
  </g>
</svg>
