<?xml version="1.0" encoding="UTF-8" standalone="no"?>
<!-- Created with Inkscape (http://www.inkscape.org/) -->
<svg
   xmlns:dc="http://purl.org/dc/elements/1.1/"
   xmlns:cc="http://creativecommons.org/ns#"
   xmlns:rdf="http://www.w3.org/1999/02/22-rdf-syntax-ns#"
   xmlns:svg="http://www.w3.org/2000/svg"
   xmlns="http://www.w3.org/2000/svg"
   xmlns:xlink="http://www.w3.org/1999/xlink"
   xmlns:sodipodi="http://sodipodi.sourceforge.net/DTD/sodipodi-0.dtd"
   xmlns:inkscape="http://www.inkscape.org/namespaces/inkscape"
   width="256"
   height="256"
   id="svg2"
   sodipodi:version="0.32"
   inkscape:version="0.46"
   sodipodi:docname="open_1_ice.svg"
   inkscape:output_extension="org.inkscape.output.svg.inkscape"
   inkscape:export-filename="D:\Dateien\Desktop\Secret Maryo Chronicles\SMC\data\pixmaps\enemy\jpiranha\blue\open_1.png"
   inkscape:export-xdpi="90"
   inkscape:export-ydpi="90"
   version="1.0">
  <defs
     id="defs4">
    <linearGradient
       id="linearGradient3229">
      <stop
         style="stop-color:#00f502;stop-opacity:0.49411765;"
         offset="0"
         id="stop3231" />
      <stop
         style="stop-color:#00f502;stop-opacity:1;"
         offset="1"
         id="stop3233" />
    </linearGradient>
    <linearGradient
       id="linearGradient3174">
      <stop
         style="stop-color:#009c02;stop-opacity:1;"
         offset="0"
         id="stop3176" />
      <stop
         style="stop-color:#c3ff17;stop-opacity:1;"
         offset="1"
         id="stop3178" />
    </linearGradient>
    <filter
       inkscape:collect="always"
       id="filter3341"
       x="-0.14616126"
       width="1.2923225"
       y="-0.037254725"
       height="1.0745095">
      <feGaussianBlur
         inkscape:collect="always"
         stdDeviation="6.1247871"
         id="feGaussianBlur3343" />
    </filter>
    <filter
       inkscape:collect="always"
       id="filter3451">
      <feGaussianBlur
         inkscape:collect="always"
         stdDeviation="9.2316893"
         id="feGaussianBlur3453" />
    </filter>
    <linearGradient
       inkscape:collect="always"
       xlink:href="#linearGradient3174"
       id="linearGradient3180"
       x1="350.99493"
       y1="875.91211"
       x2="326.70215"
       y2="675.90186"
       gradientUnits="userSpaceOnUse"
       gradientTransform="matrix(0.4002669,0,0,0.4252894,-18.019386,-139.97306)" />
    <filter
       inkscape:collect="always"
       id="filter3182"
       x="-0.066060141"
       width="1.1321203"
       y="-0.21283838"
       height="1.4256768">
      <feGaussianBlur
         inkscape:collect="always"
         stdDeviation="12.415461"
         id="feGaussianBlur3184" />
    </filter>
    <linearGradient
       id="linearGradient3986">
      <stop
         id="stop3988"
         offset="0"
         style="stop-color:#6f6f6f;stop-opacity:1;" />
      <stop
         id="stop3990"
         offset="1"
         style="stop-color:#fbf0f0;stop-opacity:1;" />
    </linearGradient>
    <filter
       inkscape:collect="always"
       id="filter3943"
       x="-0.21197091"
       width="1.4239419"
       y="-0.11417203"
       height="1.2283441">
      <feGaussianBlur
         inkscape:collect="always"
         stdDeviation="1.4508244"
         id="feGaussianBlur3945" />
    </filter>
    <filter
       inkscape:collect="always"
       id="filter3947"
       x="-0.24700864"
       width="1.4940172"
       y="-0.1103778"
       height="1.2207556">
      <feGaussianBlur
         inkscape:collect="always"
         stdDeviation="1.4508243"
         id="feGaussianBlur3949" />
    </filter>
    <filter
       inkscape:collect="always"
       id="filter3951"
       x="-0.13375291"
       width="1.2675058"
       y="-0.066128559"
       height="1.1322571">
      <feGaussianBlur
         inkscape:collect="always"
         stdDeviation="0.8298043"
         id="feGaussianBlur3953" />
    </filter>
    <filter
       inkscape:collect="always"
       id="filter3955"
       x="-0.14801925"
       width="1.2960385"
       y="-0.072408229"
       height="1.1448165">
      <feGaussianBlur
         inkscape:collect="always"
         stdDeviation="0.90843549"
         id="feGaussianBlur3957" />
    </filter>
    <filter
       inkscape:collect="always"
       id="filter3959">
      <feGaussianBlur
         inkscape:collect="always"
         stdDeviation="0.51697376"
         id="feGaussianBlur3961" />
    </filter>
    <filter
       inkscape:collect="always"
       id="filter3963"
       x="-0.13051733"
       width="1.2610347"
       y="-0.073665485"
       height="1.147331">
      <feGaussianBlur
         inkscape:collect="always"
         stdDeviation="0.9266149"
         id="feGaussianBlur3965" />
    </filter>
    <filter
       inkscape:collect="always"
       id="filter3967"
       x="-0.15118702"
       width="1.302374"
       y="-0.071075149"
       height="1.1421503">
      <feGaussianBlur
         inkscape:collect="always"
         stdDeviation="0.92661487"
         id="feGaussianBlur3969" />
    </filter>
    <radialGradient
       inkscape:collect="always"
       xlink:href="#linearGradient3229"
       id="radialGradient3235"
       cx="879.41547"
       cy="634.71802"
       fx="879.41547"
       fy="634.71802"
       r="225.53016"
       gradientTransform="matrix(1,0,0,0.310377,0,478.08519)"
       gradientUnits="userSpaceOnUse" />
    <linearGradient
       inkscape:collect="always"
       xlink:href="#linearGradient3986"
       id="linearGradient2823"
       gradientUnits="userSpaceOnUse"
       gradientTransform="matrix(0.5398675,-7.9267704e-2,0.103973,0.4115876,116.19478,-17.997653)"
       x1="330.5"
       y1="318.29318"
       x2="328.18765"
       y2="293.99188" />
    <linearGradient
       inkscape:collect="always"
       xlink:href="#linearGradient3986"
       id="linearGradient2825"
       gradientUnits="userSpaceOnUse"
       gradientTransform="matrix(0.3962688,-5.3647392e-2,7.3850981e-2,0.3170653,191.98163,30.803023)"
       x1="330.5"
       y1="318.29318"
       x2="328.18765"
       y2="293.99188" />
    <linearGradient
       inkscape:collect="always"
       xlink:href="#linearGradient3986"
       id="linearGradient2827"
       gradientUnits="userSpaceOnUse"
       gradientTransform="matrix(0.2508779,-3.6835952e-2,5.2983603e-2,0.2097409,261.81684,85.993222)"
       x1="330.5"
       y1="318.29318"
       x2="328.18765"
       y2="293.99188" />
    <linearGradient
       inkscape:collect="always"
       xlink:href="#linearGradient3986"
       id="linearGradient2829"
       gradientUnits="userSpaceOnUse"
       gradientTransform="matrix(-0.5461754,-4.7972e-2,-6.2923421e-2,0.4163969,626.49212,-12.305192)"
       x1="330.5"
       y1="318.29318"
       x2="328.18765"
       y2="293.99188" />
    <linearGradient
       inkscape:collect="always"
       xlink:href="#linearGradient3986"
       id="linearGradient2831"
       gradientUnits="userSpaceOnUse"
       gradientTransform="matrix(-0.3914415,-7.1331584e-2,-9.8195095e-2,0.3132029,567.91276,54.725067)"
       x1="330.5"
       y1="318.29318"
       x2="328.18765"
       y2="293.99188" />
    <linearGradient
       inkscape:collect="always"
       xlink:href="#linearGradient3986"
       id="linearGradient2833"
       gradientUnits="userSpaceOnUse"
       gradientTransform="matrix(-0.2476001,-4.8026373e-2,-6.9079535e-2,0.2070006,493.97919,104.95718)"
       x1="330.5"
       y1="318.29318"
       x2="328.18765"
       y2="293.99188" />
  </defs>
  <sodipodi:namedview
     id="base"
     pagecolor="#000000"
     bordercolor="#666666"
     borderopacity="1.0"
     inkscape:pageopacity="0"
     inkscape:pageshadow="2"
     inkscape:zoom="0.9899495"
     inkscape:cx="145.76269"
     inkscape:cy="197.84256"
     inkscape:document-units="px"
     inkscape:current-layer="layer1"
     showgrid="false"
     inkscape:window-width="1151"
     inkscape:window-height="912"
     inkscape:window-x="92"
     inkscape:window-y="32"
     showguides="true"
     inkscape:guide-bbox="true" />
  <metadata
     id="metadata7">
    <rdf:RDF>
      <cc:Work
         rdf:about="">
        <dc:format>image/svg+xml</dc:format>
        <dc:type
           rdf:resource="http://purl.org/dc/dcmitype/StillImage" />
        <cc:license
           rdf:resource="http://creativecommons.org/licenses/publicdomain/" />
      </cc:Work>
      <cc:License
         rdf:about="http://creativecommons.org/licenses/publicdomain/">
        <cc:permits
           rdf:resource="http://creativecommons.org/ns#Reproduction" />
        <cc:permits
           rdf:resource="http://creativecommons.org/ns#Distribution" />
        <cc:permits
           rdf:resource="http://creativecommons.org/ns#DerivativeWorks" />
      </cc:License>
    </rdf:RDF>
  </metadata>
  <g
     inkscape:label="Ebene 1"
     inkscape:groupmode="layer"
     id="layer1">
    <g
       id="g2771"
       inkscape:label="Ebene 1"
       transform="translate(-252.97554,-13.562933)">
      <path
         sodipodi:nodetypes="ccssccc"
         id="path2773"
         d="M 302.25099,146.16683 C 290.95186,119.4119 306.39859,103.50337 314.35961,82.315582 C 314.35961,82.315582 320.24289,71.370282 328.90827,65.309158 C 341.38165,56.584461 376.15342,37.872296 378.32306,41.29055 C 381.02936,45.55431 352.77693,63.727579 352.77693,63.727579 L 338.60115,76.178091 C 320.44365,96.00774 307.38244,149.35358 302.25099,146.16683 z"
         style="fill:#2b62fe;fill-opacity:1;fill-rule:evenodd;stroke:#000000;stroke-width:4.20456266;stroke-linecap:butt;stroke-linejoin:miter;stroke-miterlimit:4;stroke-dasharray:none;stroke-opacity:1" />
      <path
         transform="matrix(0.3599039,0.1546599,-0.2321693,0.3140253,228.53168,56.067563)"
         sodipodi:nodetypes="ccsccc"
         id="path2775"
         d="M 287.8121,112.03595 C 253.23233,68.800083 246.36132,26.124524 232.42452,-32.270056 C 232.42452,-32.270056 233.42367,-74.267806 240.99318,-88.914966 C 257.13229,-120.14449 270.78917,-138.10086 270.78917,-138.10086 L 253.91709,-65.733247 C 247.59114,-0.16405745 273.23571,79.234403 287.8121,112.03595 z"
         style="fill:#4bd9fe;fill-opacity:1;fill-rule:evenodd;stroke:none;stroke-width:10;stroke-linecap:butt;stroke-linejoin:miter;stroke-miterlimit:4;stroke-dasharray:none;stroke-opacity:1;filter:url(#filter3341)" />
      <path
         sodipodi:nodetypes="ccssccc"
         id="path2777"
         d="M 340.19205,164.24535 C 313.11693,145.16782 299.70898,100.52029 292.99784,79.08245 C 292.99784,79.08245 291.07354,67.345093 294.71857,58.821075 C 299.96541,46.551162 318.20478,17.233265 322.29643,19.398846 C 327.40015,22.100085 314.49298,48.507991 314.49298,48.507991 L 310.16278,64.660922 C 307.11658,88.732709 346.71476,165.10051 340.19205,164.24535 z"
         style="fill:#2958fe;fill-opacity:1;fill-rule:evenodd;stroke:#000000;stroke-width:4.20456314;stroke-linecap:butt;stroke-linejoin:miter;stroke-miterlimit:4;stroke-dasharray:none;stroke-opacity:1" />
      <path
         transform="matrix(0.4131395,0,0,0.3604744,201.32385,88.346575)"
         sodipodi:nodetypes="ccsccc"
         id="path2779"
         d="M 322.10568,184.4288 C 287.52591,141.19293 246.36132,26.124524 232.42452,-32.270056 C 232.42452,-32.270056 233.42367,-74.267806 240.99318,-88.914966 C 257.13229,-120.14449 270.78917,-138.10086 270.78917,-138.10086 L 253.91709,-65.733247 C 247.59114,-0.16405745 307.52929,151.62725 322.10568,184.4288 z"
         style="fill:#4bd9fe;fill-opacity:1;fill-rule:evenodd;stroke:none;stroke-width:10;stroke-linecap:butt;stroke-linejoin:miter;stroke-miterlimit:4;stroke-dasharray:none;stroke-opacity:1;filter:url(#filter3341)" />
      <path
         style="fill:url(#linearGradient2823);fill-opacity:1;fill-rule:evenodd;stroke:#000000;stroke-width:2.10228109;stroke-linecap:butt;stroke-linejoin:miter;stroke-miterlimit:4;stroke-dasharray:none;stroke-opacity:1"
         d="M 312.32388,75.752407 C 345.37976,69.191446 347.46792,73.487749 347.82456,74.499367 C 348.93915,77.66084 329.39565,83.490274 322.44135,89.206753"
         id="path2781"
         sodipodi:nodetypes="csc" />
      <path
         sodipodi:nodetypes="csc"
         id="path2783"
         d="M 335.23468,105.3073 C 359.50795,100.71291 360.62103,103.07255 361.15631,103.99992 C 362.45973,106.2581 347.74631,109.37076 342.61462,113.6632"
         style="fill:url(#linearGradient2825);fill-opacity:1;fill-rule:evenodd;stroke:#000000;stroke-width:2.10228109;stroke-linecap:butt;stroke-linejoin:miter;stroke-miterlimit:4;stroke-dasharray:none;stroke-opacity:1" />
      <path
         style="fill:url(#linearGradient2827);fill-opacity:1;fill-rule:evenodd;stroke:#000000;stroke-width:2.10228109;stroke-linecap:butt;stroke-linejoin:miter;stroke-miterlimit:4;stroke-dasharray:none;stroke-opacity:1"
         d="M 354.29853,134.86315 C 369.64103,131.74037 369.12844,132.85983 370.13766,134.3025 C 371.13124,135.72272 362.34384,138.90234 359.16348,141.76206"
         id="path2785"
         sodipodi:nodetypes="csc" />
      <path
         sodipodi:nodetypes="ccssccc"
         id="path2787"
         d="M 466.41096,146.6731 C 477.71009,119.91817 462.26336,104.00965 454.30234,82.82186 C 454.30234,82.82186 448.41905,71.87656 439.75368,65.815436 C 427.2803,57.090739 392.50853,38.378574 390.33889,41.796828 C 387.6326,46.060588 415.88502,64.233857 415.88502,64.233857 L 430.0608,76.684369 C 448.2183,96.514018 461.27951,149.85986 466.41096,146.6731 z"
         style="fill:#295cfe;fill-opacity:1;fill-rule:evenodd;stroke:#000000;stroke-width:4.20456266;stroke-linecap:butt;stroke-linejoin:miter;stroke-miterlimit:4;stroke-dasharray:none;stroke-opacity:1" />
      <path
         transform="matrix(-0.3599039,0.1546599,0.2321693,0.3140253,540.13027,56.573841)"
         sodipodi:nodetypes="ccsccc"
         id="path2789"
         d="M 287.8121,112.03595 C 253.23233,68.800083 246.36132,26.124524 232.42452,-32.270056 C 232.42452,-32.270056 233.42367,-74.267806 240.99318,-88.914966 C 257.13229,-120.14449 270.78917,-138.10086 270.78917,-138.10086 L 253.91709,-65.733247 C 247.59114,-0.16405745 273.23571,79.234403 287.8121,112.03595 z"
         style="fill:#4bd9fe;fill-opacity:1;fill-rule:evenodd;stroke:none;stroke-width:10;stroke-linecap:butt;stroke-linejoin:miter;stroke-miterlimit:4;stroke-dasharray:none;stroke-opacity:1;filter:url(#filter3341)" />
      <path
         sodipodi:nodetypes="csc"
         id="path2791"
         d="M 440.20523,92.464706 C 406.59405,87.824851 403.16848,90.626864 403.2248,91.58495 C 403.32979,93.371043 423.94832,101.16296 431.44881,106.46293"
         style="fill:url(#linearGradient2829);fill-opacity:1;fill-rule:evenodd;stroke:#000000;stroke-width:2.10228109;stroke-linecap:butt;stroke-linejoin:miter;stroke-miterlimit:4;stroke-dasharray:none;stroke-opacity:1" />
      <path
         style="fill:url(#linearGradient2831);fill-opacity:1;fill-rule:evenodd;stroke:#000000;stroke-width:2.10228109;stroke-linecap:butt;stroke-linejoin:miter;stroke-miterlimit:4;stroke-dasharray:none;stroke-opacity:1"
         d="M 419.1575,122.67373 C 395.2809,116.99835 396.07836,117.69916 395.38265,119.93504 C 394.63569,122.33559 406.23189,128.26466 411.02338,132.77987"
         id="path2793"
         sodipodi:nodetypes="csc" />
      <path
         sodipodi:nodetypes="csc"
         id="path2795"
         d="M 397.88602,149.59378 C 382.81112,145.78814 382.90283,146.39667 382.35052,147.87882 C 381.77354,149.42717 389.54289,153.26505 392.49704,156.26246"
         style="fill:url(#linearGradient2833);fill-opacity:1;fill-rule:evenodd;stroke:#000000;stroke-width:2.10228109;stroke-linecap:butt;stroke-linejoin:miter;stroke-miterlimit:4;stroke-dasharray:none;stroke-opacity:1" />
      <path
         sodipodi:nodetypes="ccssccc"
         id="path2797"
         d="M 428.80682,164.47596 C 455.88194,145.39843 469.28989,100.7509 476.00103,79.31306 C 476.00103,79.31306 477.92533,67.575703 474.2803,59.051685 C 469.03346,46.781772 450.79409,17.463875 446.70244,19.629456 C 441.59872,22.330695 454.50589,48.738601 454.50589,48.738601 L 458.83609,64.891532 C 461.88229,88.963319 422.28411,165.33112 428.80682,164.47596 z"
         style="fill:#2956fe;fill-opacity:1;fill-rule:evenodd;stroke:#000000;stroke-width:4.20456314;stroke-linecap:butt;stroke-linejoin:miter;stroke-miterlimit:4;stroke-dasharray:none;stroke-opacity:1" />
      <path
         transform="matrix(-0.4131395,0,0,0.3604744,567.67502,88.577185)"
         sodipodi:nodetypes="ccsccc"
         id="path2799"
         d="M 322.10568,184.4288 C 287.52591,141.19293 246.36132,26.124524 232.42452,-32.270056 C 232.42452,-32.270056 233.42367,-74.267806 240.99318,-88.914966 C 257.13229,-120.14449 270.78917,-138.10086 270.78917,-138.10086 L 253.91709,-65.733247 C 247.59114,-0.16405745 307.52929,151.62725 322.10568,184.4288 z"
         style="fill:#4bd9fe;fill-opacity:1;fill-rule:evenodd;stroke:none;stroke-width:10;stroke-linecap:butt;stroke-linejoin:miter;stroke-miterlimit:4;stroke-dasharray:none;stroke-opacity:1;filter:url(#filter3341)" />
      <path
         sodipodi:nodetypes="cssssssssssssss"
         id="path2801"
         d="M 381.45221,214.85472 C 365.27639,214.523 325.68089,221.72104 312.37918,206.3252 C 292.09901,182.85223 267.19996,116.71189 298.75914,76.528514 C 302.03844,72.353095 309.09402,64.764651 314.3249,60.211212 C 325.47775,50.502751 350.55099,27.421774 355.18499,30.54341 C 358.50243,32.778184 334.00858,58.906313 329.16101,72.263768 C 327.81667,75.968098 326.47255,81.22203 327.55104,85.016404 C 335.14005,111.71616 372.56613,167.27188 379.5065,167.01534 C 386.61067,166.75279 433.10735,112.42153 441.76949,84.687174 C 442.98828,80.784933 442.12853,75.217333 440.79664,71.336654 C 436.26999,58.147638 411.19344,33.477371 414.52944,30.54341 C 417.71566,27.741201 447.09181,49.898542 458.3081,60.211212 C 463.7394,65.204986 469.15033,71.132547 472.90099,78.753614 C 494.33683,122.30982 472.50991,191.26807 454.41668,209.66282 C 440.43511,223.87745 401.58017,215.26745 381.45221,214.85472 z"
         style="fill:#2549fe;fill-opacity:1;fill-rule:evenodd;stroke:#000000;stroke-width:4.20456219;stroke-linecap:butt;stroke-linejoin:miter;stroke-miterlimit:4;stroke-dasharray:none;stroke-opacity:1" />
      <path
         transform="matrix(0.4611108,0,0,0.3546517,269.25823,73.488729)"
         sodipodi:nodetypes="cscsccscsccscss"
         id="path2803"
         d="M 234.36333,343.01909 C 200.77154,342.11555 137.05191,400.29614 109.42868,358.35935 C 67.313531,294.42133 38.144262,201.13906 57.509291,76.610354 C 57.509291,76.610354 96.873792,-21.97909 107.73658,-34.38218 C 130.89736,-60.82709 164.93685,-94.311823 164.93685,-94.311823 L 112.1296,-18.431503 C 112.1296,-18.431503 112.823,42.073499 115.06269,52.409059 C 130.82252,125.13651 236.38363,297.94804 236.38363,297.94804 C 236.38363,297.94804 373.05647,115.22756 391.04487,39.68186 C 393.57584,29.05257 388.76859,-15.16857 388.76859,-15.16857 L 337.46006,-93.751833 C 337.46006,-93.751833 375.24394,-60.994144 398.53646,-32.903384 C 409.8155,-19.300874 428.84104,19.083042 428.84104,19.083042 C 447.73887,185.61051 430.01297,321.77463 375.26683,385.01214 C 343.59033,421.6018 276.16238,344.14338 234.36333,343.01909 z"
         style="fill:#4bd9fe;fill-opacity:1;fill-rule:evenodd;stroke:none;stroke-width:10;stroke-linecap:butt;stroke-linejoin:miter;stroke-miterlimit:4;stroke-dasharray:none;stroke-opacity:1;filter:url(#filter3451)" />
      <path
         transform="matrix(1.2134787,0.3262551,-0.4279391,0.9251402,52.476296,-363.7057)"
         d="M 473.76156,418.82535 A 7.0710678,15.152288 0 1 1 459.61942,418.82535 A 7.0710678,15.152288 0 1 1 473.76156,418.82535 z"
         sodipodi:ry="15.152288"
         sodipodi:rx="7.0710678"
         sodipodi:cy="418.82535"
         sodipodi:cx="466.69049"
         id="path2805"
         style="opacity:1;fill:#b5fff3;fill-opacity:1;fill-rule:evenodd;stroke:none;stroke-width:1;stroke-miterlimit:4;stroke-dasharray:none;stroke-opacity:1;filter:url(#filter3959)"
         sodipodi:type="arc" />
      <path
         transform="matrix(0.7034966,-9.0407489e-2,-6.6382822e-2,0.5670314,165.40414,-71.53333)"
         d="M 473.76156,418.82535 A 7.0710678,15.152288 0 1 1 459.61942,418.82535 A 7.0710678,15.152288 0 1 1 473.76156,418.82535 z"
         sodipodi:ry="15.152288"
         sodipodi:rx="7.0710678"
         sodipodi:cy="418.82535"
         sodipodi:cx="466.69049"
         id="path2809"
         style="opacity:1;fill:#b5fff3;fill-opacity:1;fill-rule:evenodd;stroke:none;stroke-width:1;stroke-miterlimit:4;stroke-dasharray:none;stroke-opacity:1;filter:url(#filter3967)"
         sodipodi:type="arc" />
      <path
         sodipodi:type="arc"
         style="opacity:1;fill:#b5fff3;fill-opacity:1;fill-rule:evenodd;stroke:none;stroke-width:1;stroke-miterlimit:4;stroke-dasharray:none;stroke-opacity:1;filter:url(#filter3963)"
         id="path2813"
         sodipodi:cx="466.69049"
         sodipodi:cy="418.82535"
         sodipodi:rx="7.0710678"
         sodipodi:ry="15.152288"
         d="M 473.76156,418.82535 A 7.0710678,15.152288 0 1 1 459.61942,418.82535 A 7.0710678,15.152288 0 1 1 473.76156,418.82535 z"
         transform="matrix(0.7133479,7.7695959e-3,-0.1993867,0.5486157,183.37772,-97.000132)" />
      <path
         transform="matrix(-0.7287006,0.2260564,0.2420172,0.5972537,548.89177,-185.93857)"
         d="M 473.76156,418.82535 A 7.0710678,15.152288 0 1 1 459.61942,418.82535 A 7.0710678,15.152288 0 1 1 473.76156,418.82535 z"
         sodipodi:ry="15.152288"
         sodipodi:rx="7.0710678"
         sodipodi:cy="418.82535"
         sodipodi:cx="466.69049"
         id="path2815"
         style="opacity:1;fill:#b5fff3;fill-opacity:1;fill-rule:evenodd;stroke:none;stroke-width:1;stroke-miterlimit:4;stroke-dasharray:none;stroke-opacity:1;filter:url(#filter3951)"
         sodipodi:type="arc" />
      <path
         transform="matrix(0.3819422,-0.1894287,0.150356,0.3450495,70.941236,56.340484)"
         d="M 473.76156,418.82535 A 7.0710678,15.152288 0 1 1 459.61942,418.82535 A 7.0710678,15.152288 0 1 1 473.76156,418.82535 z"
         sodipodi:ry="15.152288"
         sodipodi:rx="7.0710678"
         sodipodi:cy="418.82535"
         sodipodi:cx="466.69049"
         id="path2817"
         style="opacity:1;fill:#b5fff3;fill-opacity:1;fill-rule:evenodd;stroke:none;stroke-width:1;stroke-miterlimit:4;stroke-dasharray:none;stroke-opacity:1;filter:url(#filter3943)"
         sodipodi:type="arc" />
      <path
         sodipodi:type="arc"
         style="opacity:1;fill:#b5fff3;fill-opacity:1;fill-rule:evenodd;stroke:none;stroke-width:1;stroke-miterlimit:4;stroke-dasharray:none;stroke-opacity:1;filter:url(#filter3947)"
         id="path2819"
         sodipodi:cx="466.69049"
         sodipodi:cy="418.82535"
         sodipodi:rx="7.0710678"
         sodipodi:ry="15.152288"
         d="M 473.76156,418.82535 A 7.0710678,15.152288 0 1 1 459.61942,418.82535 A 7.0710678,15.152288 0 1 1 473.76156,418.82535 z"
         transform="matrix(0.3695868,-0.2031753,0.1718881,0.3391554,77.563956,95.340203)" />
      <path
         sodipodi:type="arc"
         style="opacity:1;fill:#b5fff3;fill-opacity:1;fill-rule:evenodd;stroke:none;stroke-width:1;stroke-miterlimit:4;stroke-dasharray:none;stroke-opacity:1;filter:url(#filter3955)"
         id="path2821"
         sodipodi:cx="466.69049"
         sodipodi:cy="418.82535"
         sodipodi:rx="7.0710678"
         sodipodi:ry="15.152288"
         d="M 473.76156,418.82535 A 7.0710678,15.152288 0 1 1 459.61942,418.82535 A 7.0710678,15.152288 0 1 1 473.76156,418.82535 z"
         transform="matrix(-0.6755184,0.3072611,0.2945935,0.4711478,547.30868,-166.57762)" />
    </g>
    <path
       style="fill:url(#linearGradient3180);fill-opacity:1;fill-rule:evenodd;stroke:#000000;stroke-width:4.12588549;stroke-linecap:butt;stroke-linejoin:miter;stroke-miterlimit:4;stroke-dasharray:none;stroke-opacity:1"
       d="M 38.899804,199.61568 C 95.570485,170.02009 149.84261,175.02117 212.50132,199.15556 C 216.22319,200.58913 219.13304,202.26946 221.33811,204.13387 C 242.64951,222.15325 198.13212,257.37445 184.61868,253.30707 C 140.85415,240.13447 104.39166,241.86656 66.413593,252.0594 C 51.427075,256.08153 8.8451483,215.31142 38.899804,199.61568 z"
       id="path3296"
       sodipodi:nodetypes="csssss" />
    <path
       style="fill:url(#radialGradient3235);fill-opacity:1;fill-rule:evenodd;stroke:none;stroke-width:10;stroke-linecap:butt;stroke-linejoin:miter;stroke-miterlimit:4;stroke-dasharray:none;stroke-opacity:1;filter:url(#filter3182)"
       d="M 671.90801,657.87366 C 825.10591,608.46659 922.0695,615.81361 1085.399,655.54938 C 1139.3909,712.5506 1069.1744,738.6941 1023.82,763.25524 C 916.52077,711.62328 823.60436,711.68511 730.52476,755.50296 C 691.28125,745.10942 620.55902,712.55256 671.90801,657.87366 z"
       id="path3298"
       sodipodi:nodetypes="ccccc"
       transform="matrix(0.4077211,0,0,0.3632671,-231.48856,-32.189988)" />
  </g>
</svg>
