<?xml version="1.0" encoding="UTF-8" standalone="no"?>
<!-- Created with Inkscape (http://www.inkscape.org/) -->
<svg
   xmlns:dc="http://purl.org/dc/elements/1.1/"
   xmlns:cc="http://creativecommons.org/ns#"
   xmlns:rdf="http://www.w3.org/1999/02/22-rdf-syntax-ns#"
   xmlns:svg="http://www.w3.org/2000/svg"
   xmlns="http://www.w3.org/2000/svg"
   xmlns:xlink="http://www.w3.org/1999/xlink"
   xmlns:sodipodi="http://sodipodi.sourceforge.net/DTD/sodipodi-0.dtd"
   xmlns:inkscape="http://www.inkscape.org/namespaces/inkscape"
   width="256"
   height="256"
   id="svg2"
   sodipodi:version="0.32"
   inkscape:version="0.46"
   sodipodi:docname="open_2_ice.svg"
   inkscape:output_extension="org.inkscape.output.svg.inkscape"
   inkscape:export-filename="D:\Dateien\Desktop\Secret Maryo Chronicles\SMC\data\pixmaps\enemy\jpiranha\blue\open_2.png"
   inkscape:export-xdpi="90"
   inkscape:export-ydpi="90"
   version="1.0">
  <defs
     id="defs4">
    <linearGradient
       id="linearGradient3174">
      <stop
         style="stop-color:#009c02;stop-opacity:1;"
         offset="0"
         id="stop3176" />
      <stop
         style="stop-color:#c3ff17;stop-opacity:1;"
         offset="1"
         id="stop3178" />
    </linearGradient>
    <filter
       inkscape:collect="always"
       id="filter3341"
       x="-0.14616126"
       width="1.2923225"
       y="-0.037254725"
       height="1.0745095">
      <feGaussianBlur
         inkscape:collect="always"
         stdDeviation="6.1247871"
         id="feGaussianBlur3343" />
    </filter>
    <filter
       inkscape:collect="always"
       id="filter3451">
      <feGaussianBlur
         inkscape:collect="always"
         stdDeviation="9.2316893"
         id="feGaussianBlur3453" />
    </filter>
    <linearGradient
       id="linearGradient3986">
      <stop
         id="stop3988"
         offset="0"
         style="stop-color:#6f6f6f;stop-opacity:1;" />
      <stop
         id="stop3990"
         offset="1"
         style="stop-color:#fbf0f0;stop-opacity:1;" />
    </linearGradient>
    <filter
       inkscape:collect="always"
       id="filter3943"
       x="-0.21197091"
       width="1.4239419"
       y="-0.11417203"
       height="1.2283441">
      <feGaussianBlur
         inkscape:collect="always"
         stdDeviation="1.4508244"
         id="feGaussianBlur3945" />
    </filter>
    <filter
       inkscape:collect="always"
       id="filter3947"
       x="-0.24700864"
       width="1.4940172"
       y="-0.1103778"
       height="1.2207556">
      <feGaussianBlur
         inkscape:collect="always"
         stdDeviation="1.4508243"
         id="feGaussianBlur3949" />
    </filter>
    <filter
       inkscape:collect="always"
       id="filter3951"
       x="-0.13375291"
       width="1.2675058"
       y="-0.066128559"
       height="1.1322571">
      <feGaussianBlur
         inkscape:collect="always"
         stdDeviation="0.8298043"
         id="feGaussianBlur3953" />
    </filter>
    <filter
       inkscape:collect="always"
       id="filter3955"
       x="-0.14801925"
       width="1.2960385"
       y="-0.072408229"
       height="1.1448165">
      <feGaussianBlur
         inkscape:collect="always"
         stdDeviation="0.90843549"
         id="feGaussianBlur3957" />
    </filter>
    <filter
       inkscape:collect="always"
       id="filter3959">
      <feGaussianBlur
         inkscape:collect="always"
         stdDeviation="0.51697376"
         id="feGaussianBlur3961" />
    </filter>
    <filter
       inkscape:collect="always"
       id="filter3963"
       x="-0.13051733"
       width="1.2610347"
       y="-0.073665485"
       height="1.147331">
      <feGaussianBlur
         inkscape:collect="always"
         stdDeviation="0.9266149"
         id="feGaussianBlur3965" />
    </filter>
    <filter
       inkscape:collect="always"
       id="filter3967"
       x="-0.15118702"
       width="1.302374"
       y="-0.071075149"
       height="1.1421503">
      <feGaussianBlur
         inkscape:collect="always"
         stdDeviation="0.92661487"
         id="feGaussianBlur3969" />
    </filter>
    <filter
       inkscape:collect="always"
       id="filter3311"
       x="-0.10476768"
       width="1.2095354"
       y="-0.33754974"
       height="1.6750995">
      <feGaussianBlur
         inkscape:collect="always"
         stdDeviation="19.690226"
         id="feGaussianBlur3313" />
    </filter>
    <linearGradient
       inkscape:collect="always"
       xlink:href="#linearGradient3174"
       id="linearGradient3229"
       gradientUnits="userSpaceOnUse"
       gradientTransform="matrix(0.4735998,0,0,0.2826264,-48.243261,-20.724048)"
       x1="350.99493"
       y1="875.91211"
       x2="331.71545"
       y2="675.90186" />
    <linearGradient
       inkscape:collect="always"
       xlink:href="#linearGradient3986"
       id="linearGradient2910"
       gradientUnits="userSpaceOnUse"
       gradientTransform="matrix(0.5398675,-7.9267704e-2,0.103973,0.4115876,-136.78082,-31.560951)"
       x1="330.5"
       y1="318.29318"
       x2="328.18765"
       y2="293.99188" />
    <linearGradient
       inkscape:collect="always"
       xlink:href="#linearGradient3986"
       id="linearGradient2912"
       gradientUnits="userSpaceOnUse"
       gradientTransform="matrix(0.3962688,-5.3647392e-2,7.3850981e-2,0.3170653,-60.993963,17.239725)"
       x1="330.5"
       y1="318.29318"
       x2="328.18765"
       y2="293.99188" />
    <linearGradient
       inkscape:collect="always"
       xlink:href="#linearGradient3986"
       id="linearGradient2914"
       gradientUnits="userSpaceOnUse"
       gradientTransform="matrix(0.2508779,-3.6835952e-2,5.2983603e-2,0.2097409,8.8412393,72.429924)"
       x1="330.5"
       y1="318.29318"
       x2="328.18765"
       y2="293.99188" />
    <linearGradient
       inkscape:collect="always"
       xlink:href="#linearGradient3986"
       id="linearGradient2916"
       gradientUnits="userSpaceOnUse"
       gradientTransform="matrix(-0.5461754,-4.7972e-2,-6.2923421e-2,0.4163969,373.51652,-25.86849)"
       x1="330.5"
       y1="318.29318"
       x2="328.18765"
       y2="293.99188" />
    <linearGradient
       inkscape:collect="always"
       xlink:href="#linearGradient3986"
       id="linearGradient2918"
       gradientUnits="userSpaceOnUse"
       gradientTransform="matrix(-0.3914415,-7.1331584e-2,-9.8195095e-2,0.3132029,314.93716,41.161769)"
       x1="330.5"
       y1="318.29318"
       x2="328.18765"
       y2="293.99188" />
    <linearGradient
       inkscape:collect="always"
       xlink:href="#linearGradient3986"
       id="linearGradient2920"
       gradientUnits="userSpaceOnUse"
       gradientTransform="matrix(-0.2476001,-4.8026373e-2,-6.9079535e-2,0.2070006,241.00359,91.393884)"
       x1="330.5"
       y1="318.29318"
       x2="328.18765"
       y2="293.99188" />
  </defs>
  <sodipodi:namedview
     id="base"
     pagecolor="#000000"
     bordercolor="#666666"
     borderopacity="1.0"
     inkscape:pageopacity="0"
     inkscape:pageshadow="2"
     inkscape:zoom="0.70000001"
     inkscape:cx="112.68734"
     inkscape:cy="151.35074"
     inkscape:document-units="px"
     inkscape:current-layer="layer1"
     showgrid="false"
     inkscape:window-width="1151"
     inkscape:window-height="912"
     inkscape:window-x="92"
     inkscape:window-y="36"
     showguides="true"
     inkscape:guide-bbox="true" />
  <metadata
     id="metadata7">
    <rdf:RDF>
      <cc:Work
         rdf:about="">
        <dc:format>image/svg+xml</dc:format>
        <dc:type
           rdf:resource="http://purl.org/dc/dcmitype/StillImage" />
        <cc:license
           rdf:resource="http://creativecommons.org/licenses/publicdomain/" />
      </cc:Work>
      <cc:License
         rdf:about="http://creativecommons.org/licenses/publicdomain/">
        <cc:permits
           rdf:resource="http://creativecommons.org/ns#Reproduction" />
        <cc:permits
           rdf:resource="http://creativecommons.org/ns#Distribution" />
        <cc:permits
           rdf:resource="http://creativecommons.org/ns#DerivativeWorks" />
      </cc:License>
    </rdf:RDF>
  </metadata>
  <g
     inkscape:label="Ebene 1"
     inkscape:groupmode="layer"
     id="layer1">
    <g
       id="g2858"
       inkscape:label="Ebene 1"
       transform="translate(5.6138412e-5,-3.7819714e-4)">
      <path
         sodipodi:nodetypes="ccssccc"
         id="path2860"
         d="M 49.275389,132.60353 C 37.976262,105.8486 53.422997,89.940075 61.38401,68.752284 C 61.38401,68.752284 67.267298,57.806984 75.932671,51.74586 C 88.406056,43.021163 123.17782,24.308998 125.34746,27.727252 C 128.05376,31.991012 99.801334,50.164281 99.801334,50.164281 L 85.625554,62.614793 C 67.468057,82.444442 54.40684,135.79028 49.275389,132.60353 z"
         style="fill:#2857fe;fill-opacity:1;fill-rule:evenodd;stroke:#000000;stroke-width:4.20456266;stroke-linecap:butt;stroke-linejoin:miter;stroke-miterlimit:4;stroke-dasharray:none;stroke-opacity:1" />
      <path
         transform="matrix(0.3599039,0.1546599,-0.2321693,0.3140253,-24.443913,42.504265)"
         sodipodi:nodetypes="ccsccc"
         id="path2862"
         d="M 287.8121,112.03595 C 253.23233,68.800083 246.36132,26.124524 232.42452,-32.270056 C 232.42452,-32.270056 233.42367,-74.267806 240.99318,-88.914966 C 257.13229,-120.14449 270.78917,-138.10086 270.78917,-138.10086 L 253.91709,-65.733247 C 247.59114,-0.16405745 273.23571,79.234403 287.8121,112.03595 z"
         style="fill:#4bd9fe;fill-opacity:1;fill-rule:evenodd;stroke:none;stroke-width:10;stroke-linecap:butt;stroke-linejoin:miter;stroke-miterlimit:4;stroke-dasharray:none;stroke-opacity:1;filter:url(#filter3341)" />
      <path
         sodipodi:nodetypes="ccssccc"
         id="path2864"
         d="M 87.216449,150.68205 C 60.141337,131.60452 46.733383,86.956994 40.022242,65.519152 C 40.022242,65.519152 38.097942,53.781795 41.742971,45.257777 C 46.989813,32.987864 65.229184,3.6699671 69.320832,5.8355479 C 74.42455,8.5367868 61.517387,34.944693 61.517387,34.944693 L 57.187184,51.097624 C 54.140979,75.169411 93.739168,151.53721 87.216449,150.68205 z"
         style="fill:#2857fe;fill-opacity:1;fill-rule:evenodd;stroke:#000000;stroke-width:4.20456314;stroke-linecap:butt;stroke-linejoin:miter;stroke-miterlimit:4;stroke-dasharray:none;stroke-opacity:1" />
      <path
         transform="matrix(0.4131395,0,0,0.3604744,-51.651747,74.783277)"
         sodipodi:nodetypes="ccsccc"
         id="path2866"
         d="M 322.10568,184.4288 C 287.52591,141.19293 246.36132,26.124524 232.42452,-32.270056 C 232.42452,-32.270056 233.42367,-74.267806 240.99318,-88.914966 C 257.13229,-120.14449 270.78917,-138.10086 270.78917,-138.10086 L 253.91709,-65.733247 C 247.59114,-0.16405745 307.52929,151.62725 322.10568,184.4288 z"
         style="fill:#4bd9fe;fill-opacity:1;fill-rule:evenodd;stroke:none;stroke-width:10;stroke-linecap:butt;stroke-linejoin:miter;stroke-miterlimit:4;stroke-dasharray:none;stroke-opacity:1;filter:url(#filter3341)" />
      <path
         style="fill:url(#linearGradient2910);fill-opacity:1;fill-rule:evenodd;stroke:#000000;stroke-width:2.10228109;stroke-linecap:butt;stroke-linejoin:miter;stroke-miterlimit:4;stroke-dasharray:none;stroke-opacity:1"
         d="M 59.348283,62.189109 C 92.40416,55.628148 94.49232,59.924451 94.848965,60.936069 C 95.963552,64.097542 76.420054,69.926976 69.465753,75.643455"
         id="path2868"
         sodipodi:nodetypes="csc" />
      <path
         sodipodi:nodetypes="csc"
         id="path2870"
         d="M 82.25908,91.744002 C 106.53235,87.149614 107.64543,89.50925 108.18071,90.436626 C 109.48413,92.694806 94.770712,95.807466 89.639025,100.0999"
         style="fill:url(#linearGradient2912);fill-opacity:1;fill-rule:evenodd;stroke:#000000;stroke-width:2.10228109;stroke-linecap:butt;stroke-linejoin:miter;stroke-miterlimit:4;stroke-dasharray:none;stroke-opacity:1" />
      <path
         style="fill:url(#linearGradient2914);fill-opacity:1;fill-rule:evenodd;stroke:#000000;stroke-width:2.10228109;stroke-linecap:butt;stroke-linejoin:miter;stroke-miterlimit:4;stroke-dasharray:none;stroke-opacity:1"
         d="M 101.32293,121.29985 C 116.66543,118.17707 116.15284,119.29653 117.16206,120.7392 C 118.15564,122.15942 109.36824,125.33904 106.18788,128.19876"
         id="path2872"
         sodipodi:nodetypes="csc" />
      <path
         sodipodi:nodetypes="ccssccc"
         id="path2874"
         d="M 213.43536,133.1098 C 224.73449,106.35487 209.28776,90.446353 201.32674,69.258562 C 201.32674,69.258562 195.44345,58.313262 186.77808,52.252138 C 174.3047,43.527441 139.53293,24.815276 137.36329,28.23353 C 134.657,32.49729 162.90942,50.670559 162.90942,50.670559 L 177.0852,63.121071 C 195.2427,82.95072 208.30391,136.29656 213.43536,133.1098 z"
         style="fill:#2857fe;fill-opacity:1;fill-rule:evenodd;stroke:#000000;stroke-width:4.20456266;stroke-linecap:butt;stroke-linejoin:miter;stroke-miterlimit:4;stroke-dasharray:none;stroke-opacity:1" />
      <path
         transform="matrix(-0.3599039,0.1546599,0.2321693,0.3140253,287.15467,43.010543)"
         sodipodi:nodetypes="ccsccc"
         id="path2876"
         d="M 287.8121,112.03595 C 253.23233,68.800083 246.36132,26.124524 232.42452,-32.270056 C 232.42452,-32.270056 233.42367,-74.267806 240.99318,-88.914966 C 257.13229,-120.14449 270.78917,-138.10086 270.78917,-138.10086 L 253.91709,-65.733247 C 247.59114,-0.16405745 273.23571,79.234403 287.8121,112.03595 z"
         style="fill:#4bd9fe;fill-opacity:1;fill-rule:evenodd;stroke:none;stroke-width:10;stroke-linecap:butt;stroke-linejoin:miter;stroke-miterlimit:4;stroke-dasharray:none;stroke-opacity:1;filter:url(#filter3341)" />
      <path
         sodipodi:nodetypes="csc"
         id="path2878"
         d="M 187.22963,78.901408 C 153.61845,74.261553 150.19288,77.063566 150.2492,78.021652 C 150.35419,79.807745 170.97272,87.599663 178.47321,92.89963"
         style="fill:url(#linearGradient2916);fill-opacity:1;fill-rule:evenodd;stroke:#000000;stroke-width:2.10228109;stroke-linecap:butt;stroke-linejoin:miter;stroke-miterlimit:4;stroke-dasharray:none;stroke-opacity:1" />
      <path
         style="fill:url(#linearGradient2918);fill-opacity:1;fill-rule:evenodd;stroke:#000000;stroke-width:2.10228109;stroke-linecap:butt;stroke-linejoin:miter;stroke-miterlimit:4;stroke-dasharray:none;stroke-opacity:1"
         d="M 166.1819,109.11043 C 142.3053,103.43505 143.10276,104.13586 142.40705,106.37174 C 141.66009,108.77229 153.25629,114.70136 158.04778,119.21657"
         id="path2880"
         sodipodi:nodetypes="csc" />
      <path
         sodipodi:nodetypes="csc"
         id="path2882"
         d="M 144.91042,136.03048 C 129.83552,132.22484 129.92723,132.83337 129.37492,134.31552 C 128.79794,135.86387 136.56729,139.70175 139.52144,142.69916"
         style="fill:url(#linearGradient2920);fill-opacity:1;fill-rule:evenodd;stroke:#000000;stroke-width:2.10228109;stroke-linecap:butt;stroke-linejoin:miter;stroke-miterlimit:4;stroke-dasharray:none;stroke-opacity:1" />
      <path
         sodipodi:nodetypes="ccssccc"
         id="path2884"
         d="M 175.83122,150.91266 C 202.90634,131.83513 216.31429,87.187604 223.02543,65.749762 C 223.02543,65.749762 224.94973,54.012405 221.3047,45.488387 C 216.05786,33.218474 197.81849,3.9005771 193.72684,6.0661579 C 188.62312,8.7673968 201.53029,35.175303 201.53029,35.175303 L 205.86049,51.328234 C 208.90669,75.400021 169.30851,151.76782 175.83122,150.91266 z"
         style="fill:#2857fe;fill-opacity:1;fill-rule:evenodd;stroke:#000000;stroke-width:4.20456314;stroke-linecap:butt;stroke-linejoin:miter;stroke-miterlimit:4;stroke-dasharray:none;stroke-opacity:1" />
      <path
         transform="matrix(-0.4131395,0,0,0.3604744,314.69942,75.013887)"
         sodipodi:nodetypes="ccsccc"
         id="path2886"
         d="M 322.10568,184.4288 C 287.52591,141.19293 246.36132,26.124524 232.42452,-32.270056 C 232.42452,-32.270056 233.42367,-74.267806 240.99318,-88.914966 C 257.13229,-120.14449 270.78917,-138.10086 270.78917,-138.10086 L 253.91709,-65.733247 C 247.59114,-0.16405745 307.52929,151.62725 322.10568,184.4288 z"
         style="fill:#4bd9fe;fill-opacity:1;fill-rule:evenodd;stroke:none;stroke-width:10;stroke-linecap:butt;stroke-linejoin:miter;stroke-miterlimit:4;stroke-dasharray:none;stroke-opacity:1;filter:url(#filter3341)" />
      <path
         sodipodi:nodetypes="cssssssssssssss"
         id="path2888"
         d="M 128.47661,201.29142 C 112.30079,200.9597 72.705297,208.15774 59.403582,192.7619 C 39.123418,169.28893 14.224363,103.14859 45.783544,62.965216 C 49.062841,58.789797 56.118421,51.201353 61.349302,46.647914 C 72.502157,36.939453 97.575395,13.858476 102.20939,16.980112 C 105.52683,19.214886 81.032986,45.343015 76.185413,58.70047 C 74.84107,62.4048 73.496949,67.658732 74.575441,71.453106 C 82.164454,98.152865 119.59053,153.70858 126.5309,153.45204 C 133.63507,153.18949 180.13175,98.858232 188.79389,71.123876 C 190.01268,67.221635 189.15293,61.654035 187.82104,57.773356 C 183.29439,44.58434 158.21784,19.914073 161.55384,16.980112 C 164.74006,14.177903 194.11621,36.335244 205.3325,46.647914 C 210.7638,51.641688 216.17473,57.569249 219.92539,65.190316 C 241.36123,108.74652 213.47339,175.68447 195.38016,194.07922 C 181.39859,208.29385 148.60457,201.70415 128.47661,201.29142 z"
         style="fill:#2549fe;fill-opacity:1;fill-rule:evenodd;stroke:#000000;stroke-width:4.20456219;stroke-linecap:butt;stroke-linejoin:miter;stroke-miterlimit:4;stroke-dasharray:none;stroke-opacity:1" />
      <path
         transform="matrix(0.4611108,0,0,0.3546517,16.282632,59.925431)"
         sodipodi:nodetypes="cscsccscsccscss"
         id="path2890"
         d="M 234.36333,343.01909 C 200.77154,342.11555 137.05191,400.29614 109.42868,358.35935 C 67.313531,294.42133 38.144262,201.13906 57.509291,76.610354 C 57.509291,76.610354 96.873792,-21.97909 107.73658,-34.38218 C 130.89736,-60.82709 164.93685,-94.311823 164.93685,-94.311823 L 112.1296,-18.431503 C 112.1296,-18.431503 112.823,42.073499 115.06269,52.409059 C 130.82252,125.13651 236.38363,297.94804 236.38363,297.94804 C 236.38363,297.94804 373.05647,115.22756 391.04487,39.68186 C 393.57584,29.05257 388.76859,-15.16857 388.76859,-15.16857 L 337.46006,-93.751833 C 337.46006,-93.751833 375.24394,-60.994144 398.53646,-32.903384 C 409.8155,-19.300874 428.84104,19.083042 428.84104,19.083042 C 447.73887,185.61051 423.44089,304.68486 368.69475,367.92237 C 337.01825,404.51203 276.16238,344.14338 234.36333,343.01909 z"
         style="fill:#4bd9fe;fill-opacity:1;fill-rule:evenodd;stroke:none;stroke-width:10;stroke-linecap:butt;stroke-linejoin:miter;stroke-miterlimit:4;stroke-dasharray:none;stroke-opacity:1;filter:url(#filter3451)" />
      <path
         transform="matrix(1.2134787,0.3262551,-0.4279391,0.9251402,-200.4993,-377.269)"
         d="M 473.76156,418.82535 A 7.0710678,15.152288 0 1 1 459.61942,418.82535 A 7.0710678,15.152288 0 1 1 473.76156,418.82535 z"
         sodipodi:ry="15.152288"
         sodipodi:rx="7.0710678"
         sodipodi:cy="418.82535"
         sodipodi:cx="466.69049"
         id="path2892"
         style="opacity:1;fill:#b5fff3;fill-opacity:1;fill-rule:evenodd;stroke:none;stroke-width:1;stroke-miterlimit:4;stroke-dasharray:none;stroke-opacity:1;filter:url(#filter3959)"
         sodipodi:type="arc" />
      <path
         transform="matrix(0.7034966,-9.0407489e-2,-6.6382822e-2,0.5670314,-87.571461,-85.096628)"
         d="M 473.76156,418.82535 A 7.0710678,15.152288 0 1 1 459.61942,418.82535 A 7.0710678,15.152288 0 1 1 473.76156,418.82535 z"
         sodipodi:ry="15.152288"
         sodipodi:rx="7.0710678"
         sodipodi:cy="418.82535"
         sodipodi:cx="466.69049"
         id="path2896"
         style="opacity:1;fill:#b5fff3;fill-opacity:1;fill-rule:evenodd;stroke:none;stroke-width:1;stroke-miterlimit:4;stroke-dasharray:none;stroke-opacity:1;filter:url(#filter3967)"
         sodipodi:type="arc" />
      <path
         sodipodi:type="arc"
         style="opacity:1;fill:#b5fff3;fill-opacity:1;fill-rule:evenodd;stroke:none;stroke-width:1;stroke-miterlimit:4;stroke-dasharray:none;stroke-opacity:1;filter:url(#filter3963)"
         id="path2900"
         sodipodi:cx="466.69049"
         sodipodi:cy="418.82535"
         sodipodi:rx="7.0710678"
         sodipodi:ry="15.152288"
         d="M 473.76156,418.82535 A 7.0710678,15.152288 0 1 1 459.61942,418.82535 A 7.0710678,15.152288 0 1 1 473.76156,418.82535 z"
         transform="matrix(0.7133479,7.7695959e-3,-0.1993867,0.5486157,-69.597873,-110.56343)" />
      <path
         transform="matrix(-0.7287006,0.2260564,0.2420172,0.5972537,295.91617,-199.50187)"
         d="M 473.76156,418.82535 A 7.0710678,15.152288 0 1 1 459.61942,418.82535 A 7.0710678,15.152288 0 1 1 473.76156,418.82535 z"
         sodipodi:ry="15.152288"
         sodipodi:rx="7.0710678"
         sodipodi:cy="418.82535"
         sodipodi:cx="466.69049"
         id="path2902"
         style="opacity:1;fill:#b5fff3;fill-opacity:1;fill-rule:evenodd;stroke:none;stroke-width:1;stroke-miterlimit:4;stroke-dasharray:none;stroke-opacity:1;filter:url(#filter3951)"
         sodipodi:type="arc" />
      <path
         transform="matrix(0.3819422,-0.1894287,0.150356,0.3450495,-182.03436,42.777186)"
         d="M 473.76156,418.82535 A 7.0710678,15.152288 0 1 1 459.61942,418.82535 A 7.0710678,15.152288 0 1 1 473.76156,418.82535 z"
         sodipodi:ry="15.152288"
         sodipodi:rx="7.0710678"
         sodipodi:cy="418.82535"
         sodipodi:cx="466.69049"
         id="path2904"
         style="opacity:1;fill:#b5fff3;fill-opacity:1;fill-rule:evenodd;stroke:none;stroke-width:1;stroke-miterlimit:4;stroke-dasharray:none;stroke-opacity:1;filter:url(#filter3943)"
         sodipodi:type="arc" />
      <path
         sodipodi:type="arc"
         style="opacity:1;fill:#b5fff3;fill-opacity:1;fill-rule:evenodd;stroke:none;stroke-width:1;stroke-miterlimit:4;stroke-dasharray:none;stroke-opacity:1;filter:url(#filter3947)"
         id="path2906"
         sodipodi:cx="466.69049"
         sodipodi:cy="418.82535"
         sodipodi:rx="7.0710678"
         sodipodi:ry="15.152288"
         d="M 473.76156,418.82535 A 7.0710678,15.152288 0 1 1 459.61942,418.82535 A 7.0710678,15.152288 0 1 1 473.76156,418.82535 z"
         transform="matrix(0.3695868,-0.2031753,0.1718881,0.3391554,-175.41164,81.776905)" />
      <path
         sodipodi:type="arc"
         style="opacity:1;fill:#b5fff3;fill-opacity:1;fill-rule:evenodd;stroke:none;stroke-width:1;stroke-miterlimit:4;stroke-dasharray:none;stroke-opacity:1;filter:url(#filter3955)"
         id="path2908"
         sodipodi:cx="466.69049"
         sodipodi:cy="418.82535"
         sodipodi:rx="7.0710678"
         sodipodi:ry="15.152288"
         d="M 473.76156,418.82535 A 7.0710678,15.152288 0 1 1 459.61942,418.82535 A 7.0710678,15.152288 0 1 1 473.76156,418.82535 z"
         transform="matrix(-0.6755184,0.3072611,0.2945935,0.4711478,294.33308,-180.14092)" />
    </g>
    <path
       style="fill:url(#linearGradient3229);fill-opacity:1;fill-rule:evenodd;stroke:#000000;stroke-width:4.126;stroke-linecap:butt;stroke-linejoin:miter;stroke-miterlimit:4;stroke-dasharray:none;stroke-opacity:1"
       d="M 19.104097,204.94988 C 99.649169,180.91505 151.9124,180.64761 234.96696,207.95245 C 260.18284,219.92725 237.21037,240.61828 191.52015,240.63053 C 140.15512,240.6443 101.95506,240.52318 51.658697,239.80141 C 20.080613,239.34825 -16.456881,215.3805 19.104097,204.94988 z"
       id="path3296"
       sodipodi:nodetypes="ccssc" />
    <path
       style="fill:#00f502;fill-opacity:1;fill-rule:evenodd;stroke:none;stroke-width:10;stroke-linecap:butt;stroke-linejoin:miter;stroke-miterlimit:4;stroke-dasharray:none;stroke-opacity:1;filter:url(#filter3311)"
       d="M 671.90801,657.87366 C 825.10591,608.46659 922.0695,615.81361 1085.399,655.54938 C 1139.3909,712.5506 1069.1744,738.6941 1023.82,763.25524 C 918.04551,763.25524 835.55073,755.50296 730.52476,755.50296 C 691.28125,745.10942 620.55902,712.55256 671.90801,657.87366 z"
       id="path3298"
       sodipodi:nodetypes="ccccc"
       transform="matrix(0.4370121,0,0,0.2413747,-260.7657,51.268624)" />
  </g>
</svg>
