<?xml version="1.0" encoding="UTF-8" standalone="no"?>
<!-- Created with Inkscape (http://www.inkscape.org/) -->
<svg
   xmlns:dc="http://purl.org/dc/elements/1.1/"
   xmlns:cc="http://creativecommons.org/ns#"
   xmlns:rdf="http://www.w3.org/1999/02/22-rdf-syntax-ns#"
   xmlns:svg="http://www.w3.org/2000/svg"
   xmlns="http://www.w3.org/2000/svg"
   xmlns:xlink="http://www.w3.org/1999/xlink"
   xmlns:sodipodi="http://sodipodi.sourceforge.net/DTD/sodipodi-0.dtd"
   xmlns:inkscape="http://www.inkscape.org/namespaces/inkscape"
   width="744.09448819"
   height="1052.3622047"
   id="svg2"
   sodipodi:version="0.32"
   inkscape:version="0.46"
   sodipodi:docname="overworld_objects.svg"
   inkscape:output_extension="org.inkscape.output.svg.inkscape">
  <defs
     id="defs4">
    <inkscape:perspective
       sodipodi:type="inkscape:persp3d"
       inkscape:vp_x="0 : 526.18109 : 1"
       inkscape:vp_y="0 : 1000 : 0"
       inkscape:vp_z="744.09448 : 526.18109 : 1"
       inkscape:persp3d-origin="372.04724 : 350.78739 : 1"
       id="perspective10" />
    <filter
       inkscape:collect="always"
       id="filter3261"
       x="-0.10277255"
       width="1.2055451"
       y="-0.15796836"
       height="1.3159367">
      <feGaussianBlur
         inkscape:collect="always"
         stdDeviation="11.631497"
         id="feGaussianBlur3263" />
    </filter>
    <filter
       inkscape:collect="always"
       id="filter3337">
      <feGaussianBlur
         inkscape:collect="always"
         stdDeviation="0.98289002"
         id="feGaussianBlur3339" />
    </filter>
    <clipPath
       clipPathUnits="userSpaceOnUse"
       id="clipPath3423">
      <path
         style="fill:#008000;fill-rule:evenodd;stroke:none;stroke-width:3;stroke-linecap:butt;stroke-linejoin:miter;stroke-opacity:1"
         d="M -325.71429,540.93361 C -258.94072,415.66027 -217.11972,187.4576 -34.28571,540.93361"
         id="path3425"
         sodipodi:nodetypes="cc" />
    </clipPath>
    <inkscape:perspective
       id="perspective3458"
       inkscape:persp3d-origin="372.04724 : 350.78739 : 1"
       inkscape:vp_z="744.09448 : 526.18109 : 1"
       inkscape:vp_y="0 : 1000 : 0"
       inkscape:vp_x="0 : 526.18109 : 1"
       sodipodi:type="inkscape:persp3d" />
  </defs>
  <sodipodi:namedview
     id="base"
     pagecolor="#ffffff"
     bordercolor="#666666"
     borderopacity="1.0"
     gridtolerance="10000"
     guidetolerance="10"
     objecttolerance="10"
     inkscape:pageopacity="0.0"
     inkscape:pageshadow="2"
     inkscape:zoom="0.24748737"
     inkscape:cx="-34.811478"
     inkscape:cy="966.92445"
     inkscape:document-units="px"
     inkscape:current-layer="layer1"
     showgrid="false"
     inkscape:window-width="662"
     inkscape:window-height="667"
     inkscape:window-x="364"
     inkscape:window-y="122" />
  <metadata
     id="metadata7">
    <rdf:RDF>
      <cc:Work
         rdf:about="">
        <dc:format>image/svg+xml</dc:format>
        <dc:type
           rdf:resource="http://purl.org/dc/dcmitype/StillImage" />
      </cc:Work>
    </rdf:RDF>
  </metadata>
  <g
     inkscape:label="Layer 1"
     inkscape:groupmode="layer"
     id="layer1">
    <path
       style="fill:#008000;fill-rule:evenodd;stroke:none;stroke-width:3;stroke-linecap:butt;stroke-linejoin:miter;stroke-opacity:1"
       d="M 74.285714,540.93361 C 141.05928,415.66027 182.88028,187.4576 365.71429,540.93361"
       id="path2383"
       sodipodi:nodetypes="cc"
       clip-path="none" />
    <path
       sodipodi:nodetypes="cc"
       id="path3299"
       d="M 74.285714,540.93361 C 141.05928,415.66027 180.73742,395.31474 365.71429,540.93361"
       style="fill:#00b200;fill-rule:evenodd;stroke:none;stroke-width:3;stroke-linecap:butt;stroke-linejoin:miter;stroke-opacity:1;fill-opacity:1;filter:url(#filter3337)"
       clip-path="none" />
    <path
       style="opacity:0.75;fill:#00ff00;fill-rule:evenodd;stroke:none;stroke-width:3;stroke-linecap:butt;stroke-linejoin:miter;stroke-opacity:1;filter:url(#filter3261)"
       d="M -204.02967,352.18908 C -227.82509,354.33769 -243.7966,375.00664 -255.74606,393.72527 C -282.70394,436.14944 -302.03557,502.37401 -324.90387,547.05933 C -234.36221,547.05933 -127.65811,548.06948 -37.11644,548.06948 C -66.21253,494.23819 -109.01903,419.98164 -152.9537,376.82518 C -166.79321,363.88022 -184.10402,351.48206 -204.02967,352.18908 z"
       id="path2385"
       sodipodi:nodetypes="cccccc"
       clip-path="url(#clipPath3423)"
       transform="translate(400,0)" />
    <path
       id="path3406"
       style="fill:#000000;fill-rule:evenodd;stroke:none;stroke-width:3;stroke-linecap:butt;stroke-linejoin:miter;stroke-opacity:1"
       d="M 355.8125,534.9375 C 347.52424,539.33259 359.669,543.26522 365.71429,540.93361 C 185.45767,192.44051 140.83782,408.62768 75.66663,534.86198 C 74.734783,536.66694 65.630564,540.93361 74.285714,540.93361 C 84.581522,540.93361 84.164011,535.15508 84.1875,534.9375 C 109.91295,486.68075 121.21412,441.49607 148.172,399.0719 C 160.12146,380.35327 178.23583,360.39861 202.03125,358.25 C 221.9569,357.54298 239.26771,369.94114 253.10722,382.8861 C 282.29681,416.17631 328.6696,476.29588 355.8125,534.9375 z"
       sodipodi:nodetypes="ccscccccc" />
    <path
       clip-path="none"
       sodipodi:nodetypes="cc"
       id="path3427"
       d="M 74.285714,825.79663 C 141.05928,700.52329 182.88028,472.32062 365.71429,825.79663"
       style="fill:#000080;fill-rule:evenodd;stroke:none;stroke-width:3;stroke-linecap:butt;stroke-linejoin:miter;stroke-opacity:1" />
    <path
       clip-path="none"
       style="fill:#0000ff;fill-opacity:1;fill-rule:evenodd;stroke:none;stroke-width:3;stroke-linecap:butt;stroke-linejoin:miter;stroke-opacity:1;filter:url(#filter3337)"
       d="M 74.285714,825.79663 C 141.05928,700.52329 180.73742,680.17776 365.71429,825.79663"
       id="path3429"
       sodipodi:nodetypes="cc" />
    <path
       transform="translate(400,284.86302)"
       clip-path="url(#clipPath3423)"
       sodipodi:nodetypes="cccccc"
       id="path3431"
       d="M -204.02967,352.18908 C -227.82509,354.33769 -243.7966,375.00664 -255.74606,393.72527 C -282.70394,436.14944 -302.03557,502.37401 -324.90387,547.05933 C -234.36221,547.05933 -127.65811,548.06948 -37.11644,548.06948 C -66.21253,494.23819 -109.01903,419.98164 -152.9537,376.82518 C -166.79321,363.88022 -184.10402,351.48206 -204.02967,352.18908 z"
       style="opacity:0.75000000000000000;fill:#b9b9ff;fill-rule:evenodd;stroke:none;stroke-width:3;stroke-linecap:butt;stroke-linejoin:miter;stroke-opacity:1;filter:url(#filter3261);fill-opacity:1" />
    <path
       sodipodi:nodetypes="ccscccccc"
       d="M 355.8125,819.80052 C 347.52424,824.19561 359.669,828.12824 365.71429,825.79663 C 185.45767,477.30353 140.83782,693.4907 75.66663,819.725 C 74.734783,821.52996 65.630564,825.79663 74.285714,825.79663 C 84.581522,825.79663 84.164011,820.0181 84.1875,819.80052 C 109.91295,771.54377 121.21412,726.35909 148.172,683.93492 C 160.12146,665.21629 178.23583,645.26163 202.03125,643.11302 C 221.9569,642.406 239.26771,654.80416 253.10722,667.74912 C 282.29681,701.03933 328.6696,761.1589 355.8125,819.80052 z"
       style="fill:#000000;fill-rule:evenodd;stroke:none;stroke-width:3;stroke-linecap:butt;stroke-linejoin:miter;stroke-opacity:1"
       id="path3433" />
    <path
       style="fill:#550000;fill-rule:evenodd;stroke:none;stroke-width:3;stroke-linecap:butt;stroke-linejoin:miter;stroke-opacity:1"
       d="M 433.90002,825.79663 C 500.67359,700.52329 542.49459,472.32062 725.3286,825.79663"
       id="path3435"
       sodipodi:nodetypes="cc"
       clip-path="none" />
    <path
       sodipodi:nodetypes="cc"
       id="path3437"
       d="M 433.90002,825.79663 C 500.67359,700.52329 540.35173,680.17776 725.3286,825.79663"
       style="fill:#aa0000;fill-opacity:1;fill-rule:evenodd;stroke:none;stroke-width:3;stroke-linecap:butt;stroke-linejoin:miter;stroke-opacity:1;filter:url(#filter3337)"
       clip-path="none" />
    <path
       style="opacity:0.75000000000000000;fill:#ffaaaa;fill-opacity:1;fill-rule:evenodd;stroke:none;stroke-width:3;stroke-linecap:butt;stroke-linejoin:miter;stroke-opacity:1;filter:url(#filter3261)"
       d="M -204.02967,352.18908 C -227.82509,354.33769 -243.7966,375.00664 -255.74606,393.72527 C -282.70394,436.14944 -302.03557,502.37401 -324.90387,547.05933 C -234.36221,547.05933 -127.65811,548.06948 -37.11644,548.06948 C -66.21253,494.23819 -109.01903,419.98164 -152.9537,376.82518 C -166.79321,363.88022 -184.10402,351.48206 -204.02967,352.18908 z"
       id="path3439"
       sodipodi:nodetypes="cccccc"
       clip-path="url(#clipPath3423)"
       transform="translate(759.61431,284.86302)" />
    <path
       id="path3441"
       style="fill:#000000;fill-rule:evenodd;stroke:none;stroke-width:3;stroke-linecap:butt;stroke-linejoin:miter;stroke-opacity:1"
       d="M 715.42681,819.80052 C 707.13855,824.19561 719.28331,828.12824 725.3286,825.79663 C 545.07198,477.30353 500.45213,693.4907 435.28094,819.725 C 434.34909,821.52996 425.24487,825.79663 433.90002,825.79663 C 444.19583,825.79663 443.77832,820.0181 443.80181,819.80052 C 469.52726,771.54377 480.82843,726.35909 507.78631,683.93492 C 519.73577,665.21629 537.85014,645.26163 561.64556,643.11302 C 581.57121,642.406 598.88202,654.80416 612.72153,667.74912 C 641.91112,701.03933 688.28391,761.1589 715.42681,819.80052 z"
       sodipodi:nodetypes="ccscccccc" />
    <path
       clip-path="none"
       sodipodi:nodetypes="cc"
       id="path3443"
       d="M 433.90002,551.03514 C 500.67359,425.7618 542.49459,197.55913 725.3286,551.03514"
       style="fill:#554400;fill-rule:evenodd;stroke:none;stroke-width:3;stroke-linecap:butt;stroke-linejoin:miter;stroke-opacity:1" />
    <path
       clip-path="none"
       style="fill:#806600;fill-opacity:1;fill-rule:evenodd;stroke:none;stroke-width:3;stroke-linecap:butt;stroke-linejoin:miter;stroke-opacity:1;filter:url(#filter3337)"
       d="M 433.90002,551.03514 C 500.67359,425.7618 540.35173,405.41627 725.3286,551.03514"
       id="path3445"
       sodipodi:nodetypes="cc" />
    <path
       transform="translate(759.61431,10.101528)"
       clip-path="url(#clipPath3423)"
       sodipodi:nodetypes="cccccc"
       id="path3447"
       d="M -204.02967,352.18908 C -227.82509,354.33769 -243.7966,375.00664 -255.74606,393.72527 C -282.70394,436.14944 -302.03557,502.37401 -324.90387,547.05933 C -234.36221,547.05933 -127.65811,548.06948 -37.11644,548.06948 C -66.21253,494.23819 -109.01903,419.98164 -152.9537,376.82518 C -166.79321,363.88022 -184.10402,351.48206 -204.02967,352.18908 z"
       style="opacity:0.75000000000000000;fill:#ffcc00;fill-opacity:1;fill-rule:evenodd;stroke:none;stroke-width:3;stroke-linecap:butt;stroke-linejoin:miter;stroke-opacity:1;filter:url(#filter3261)" />
    <path
       sodipodi:nodetypes="ccscccccc"
       d="M 715.42681,545.03903 C 707.13855,549.43412 719.28331,553.36675 725.3286,551.03514 C 545.07198,202.54204 500.45213,418.72921 435.28094,544.96351 C 434.34909,546.76847 425.24487,551.03514 433.90002,551.03514 C 444.19583,551.03514 443.77832,545.25661 443.80181,545.03903 C 469.52726,496.78228 480.82843,451.5976 507.78631,409.17343 C 519.73577,390.4548 537.85014,370.50014 561.64556,368.35153 C 581.57121,367.64451 598.88202,380.04267 612.72153,392.98763 C 641.91112,426.27784 688.28391,486.39741 715.42681,545.03903 z"
       style="fill:#000000;fill-rule:evenodd;stroke:none;stroke-width:3;stroke-linecap:butt;stroke-linejoin:miter;stroke-opacity:1"
       id="path3449" />
    <image
       y="-647.43518"
       x="-313.86807"
       id="image3460"
       height="256"
       width="256"
       sodipodi:absref="C:\Documents and Settings\612645\My Documents\F Drive\PortableApps\SecretMaryoChroniclesPortable\App\SecretMaryoChronicles\data\pixmaps\world\objects\castle\2.png"
       xlink:href="C:\Documents and Settings\612645\My Documents\F Drive\PortableApps\SecretMaryoChroniclesPortable\App\SecretMaryoChronicles\data\pixmaps\world\objects\castle\2.png" />
  </g>
</svg>
