<?xml version="1.0" encoding="UTF-8" standalone="no"?>
<!-- Created with Inkscape (http://www.inkscape.org/) -->
<svg
   xmlns:dc="http://purl.org/dc/elements/1.1/"
   xmlns:cc="http://web.resource.org/cc/"
   xmlns:rdf="http://www.w3.org/1999/02/22-rdf-syntax-ns#"
   xmlns:svg="http://www.w3.org/2000/svg"
   xmlns="http://www.w3.org/2000/svg"
   xmlns:xlink="http://www.w3.org/1999/xlink"
   xmlns:sodipodi="http://sodipodi.sourceforge.net/DTD/sodipodi-0.dtd"
   xmlns:inkscape="http://www.inkscape.org/namespaces/inkscape"
   width="64"
   height="64"
   id="svg2"
   sodipodi:version="0.32"
   inkscape:version="0.45.1"
   version="1.0"
   sodipodi:docbase="D:\Dateien\Desktop\Secret Maryo Chronicles\Drafts\Game\Frostbringer\level\ground\desert"
   sodipodi:docname="cactus2.svg"
   inkscape:output_extension="org.inkscape.output.svg.inkscape"
   inkscape:export-filename="N:\Dokumente und Einstellungen\FluXy\Desktop\cactus_2.png"
   inkscape:export-xdpi="360"
   inkscape:export-ydpi="360">
  <defs
     id="defs4">
    <linearGradient
       id="linearGradient4105">
      <stop
         style="stop-color:#12a400;stop-opacity:1;"
         offset="0"
         id="stop4107" />
      <stop
         style="stop-color:#204d00;stop-opacity:1;"
         offset="1"
         id="stop4109" />
    </linearGradient>
    <radialGradient
       inkscape:collect="always"
       xlink:href="#linearGradient4105"
       id="radialGradient4119"
       cx="27.927273"
       cy="50.035877"
       fx="27.927273"
       fy="50.035877"
       r="7.6146107"
       gradientTransform="matrix(1.1188571,0,0,1.9354254,-3.3193537,-48.834009)"
       gradientUnits="userSpaceOnUse" />
    <radialGradient
       inkscape:collect="always"
       xlink:href="#linearGradient4105"
       id="radialGradient4123"
       gradientUnits="userSpaceOnUse"
       gradientTransform="matrix(1.0353976,-0.4500435,0.6910663,1.7910552,-45.935225,-45.390024)"
       cx="27.426701"
       cy="49.756859"
       fx="27.426701"
       fy="49.756859"
       r="7.6146107" />
    <radialGradient
       inkscape:collect="always"
       xlink:href="#linearGradient4105"
       id="radialGradient4127"
       gradientUnits="userSpaceOnUse"
       gradientTransform="matrix(1.038815,0.4410831,-0.6773072,1.7969666,43.801213,-71.028563)"
       cx="26.210642"
       cy="50.839073"
       fx="26.210642"
       fy="50.839073"
       r="7.6146107" />
    <radialGradient
       inkscape:collect="always"
       xlink:href="#linearGradient4105"
       id="radialGradient4131"
       gradientUnits="userSpaceOnUse"
       gradientTransform="matrix(1.1795662,0.1196668,-0.1735067,1.9266442,28.351242,-86.533102)"
       cx="24.491499"
       cy="51.631542"
       fx="24.491499"
       fy="51.631542"
       r="7.6146107" />
    <radialGradient
       inkscape:collect="always"
       xlink:href="#linearGradient4105"
       id="radialGradient4135"
       gradientUnits="userSpaceOnUse"
       gradientTransform="matrix(1.0585075,-0.3847432,0.5907941,1.8310312,-28.230701,-66.485451)"
       cx="27.358173"
       cy="48.867054"
       fx="27.358173"
       fy="48.867054"
       r="7.6146107" />
    <radialGradient
       inkscape:collect="always"
       xlink:href="#linearGradient4105"
       id="radialGradient4139"
       gradientUnits="userSpaceOnUse"
       gradientTransform="matrix(1.095069,-0.2435734,0.3740203,1.894276,-38.509645,-74.221458)"
       cx="27.358173"
       cy="48.867054"
       fx="27.358173"
       fy="48.867054"
       r="7.6146107" />
    <radialGradient
       inkscape:collect="always"
       xlink:href="#linearGradient4105"
       id="radialGradient2222"
       gradientUnits="userSpaceOnUse"
       gradientTransform="matrix(1.1188571,0,0,1.9354254,-3.4411813,-48.743414)"
       cx="27.927273"
       cy="50.035877"
       fx="27.927273"
       fy="50.035877"
       r="7.6146107" />
  </defs>
  <sodipodi:namedview
     id="base"
     pagecolor="#000000"
     bordercolor="#666666"
     borderopacity="1.0"
     inkscape:pageopacity="0"
     inkscape:pageshadow="2"
     inkscape:zoom="5.469029"
     inkscape:cx="25.921521"
     inkscape:cy="22.565646"
     inkscape:document-units="px"
     inkscape:current-layer="layer1"
     width="64px"
     height="64px"
     inkscape:window-width="1024"
     inkscape:window-height="696"
     inkscape:window-x="66"
     inkscape:window-y="90" />
  <metadata
     id="metadata7">
    <rdf:RDF>
      <cc:Work
         rdf:about="">
        <dc:format>image/svg+xml</dc:format>
        <dc:type
           rdf:resource="http://purl.org/dc/dcmitype/StillImage" />
      </cc:Work>
    </rdf:RDF>
  </metadata>
  <g
     inkscape:label="Ebene 1"
     inkscape:groupmode="layer"
     id="layer1">
    <path
       style="color:#000000;fill:url(#radialGradient2222);fill-opacity:1;fill-rule:evenodd;stroke:#000000;stroke-width:1.5;stroke-linecap:butt;stroke-linejoin:miter;marker:none;marker-start:none;marker-mid:none;marker-end:none;stroke-miterlimit:4;stroke-dasharray:none;stroke-dashoffset:0;stroke-opacity:1;visibility:visible;display:inline;overflow:visible;enable-background:accumulate"
       d="M 10.517975,4.618244 C 10.275989,4.6292016 10.039342,4.6643395 9.7992247,4.7177478 C 5.9573487,5.5722873 3.8953167,11.647953 5.2054747,18.283429 C 5.8605537,21.601167 7.2348807,24.447674 8.9242247,26.343235 C 9.7688957,27.291014 10.547643,27.727289 11.580475,27.736287 C 11.840028,27.738548 12.082286,27.713151 12.330475,27.703119 C 11.594167,27.851134 11.086246,28.278397 10.924225,29.328348 C 10.526882,31.903273 11.620106,34.019029 12.830475,37.155978 C 14.040846,40.292929 15.652135,43.209683 17.861725,44.353418 C 19.750921,45.331311 21.213682,45.399721 22.549225,44.519257 C 22.046222,45.102932 21.978506,45.237043 21.892975,46.476165 C 21.788468,47.990203 21.611726,49.55744 21.611725,51.252346 C 21.611725,54.642155 22.512114,59.643056 23.799225,61.866082 C 25.086336,64.089109 26.742809,63.524477 28.705475,63.524478 C 30.668142,63.524478 32.574614,64.08911 33.861725,61.866082 C 35.148836,59.643055 35.830474,54.642153 35.830475,51.252346 C 35.830475,49.557442 35.795525,48.209728 35.330475,46.708341 C 35.144081,46.106578 34.778455,45.543765 34.392975,45.016776 C 34.69015,45.312283 35.000757,45.573303 35.330475,45.713303 C 36.241604,46.10017 36.135573,46.419591 37.142975,46.177654 C 38.150377,45.935718 39.187733,45.397053 40.174225,44.618761 C 42.147212,43.062181 43.463849,40.271665 45.142975,37.388154 C 46.059343,35.814502 46.494312,34.15118 46.674225,32.64514 C 46.830073,31.340547 47.505608,29.743329 46.955475,28.996669 C 46.9866,29.008876 47.017761,29.018756 47.049225,29.029836 C 48.029533,29.375088 48.61854,29.495587 49.736725,28.797661 C 51.855818,27.475005 54.666835,26.41541 56.830475,23.921976 C 61.157755,18.93511 62.311571,12.5817 59.424224,9.7592721 C 56.536878,6.936843 50.689006,8.6862202 46.361725,13.673087 C 44.198085,16.16652 42.313264,18.958328 42.361725,21.567053 C 42.374562,22.258068 42.340288,22.847454 42.424225,23.391289 C 42.035671,22.729148 41.399451,22.715245 40.517975,22.926938 C 40.111275,23.02461 39.645842,23.302291 39.174225,23.656633 C 39.382187,23.362155 39.578886,23.002051 39.799225,22.528923 C 40.888558,20.189837 40.365223,17.908259 39.330475,14.701293 C 37.260978,8.2873581 32.544081,4.1971366 28.830475,5.5469459 C 25.116868,6.8967559 23.792228,13.196212 25.861725,19.610146 C 26.896474,22.817113 28.527954,24.948059 30.424225,26.608578 C 31.37236,27.438837 31.863319,27.855829 32.892975,27.769455 C 33.869204,27.687563 34.386792,27.60929 34.892975,27.37144 C 34.527325,27.651272 34.178746,27.933483 33.924225,28.300142 C 33.075821,29.522337 32.517362,30.209121 31.924225,31.782774 C 31.331089,33.356426 30.947887,34.920248 30.767975,36.426284 C 30.588062,37.932323 30.871934,38.291532 31.080475,39.577237 C 31.125419,39.854327 31.211655,40.118887 31.330475,40.406435 C 31.130697,40.107904 30.924662,39.840068 30.705475,39.643572 C 29.976021,38.989638 29.484283,38.781209 28.955475,38.781206 C 28.158142,38.781206 27.45057,38.553809 26.924225,38.980214 C 27.924424,36.756987 27.156282,34.482268 25.986725,31.451095 C 24.129889,28.451372 23.204411,27.294807 21.736725,25.480869 C 20.93591,24.491129 20.214697,23.724017 19.205475,23.490793 C 19.185018,23.486066 19.163955,23.493129 19.142975,23.490793 C 19.163951,23.453481 19.18486,23.430535 19.205475,23.391289 C 20.402605,21.112329 19.766805,18.516548 19.111725,15.198812 C 17.883451,8.9780533 14.14776,4.4538797 10.517975,4.618244 z M 43.080475,24.950182 C 43.512314,25.715308 43.836388,26.401426 44.455475,27.006593 C 44.776907,27.320799 45.143401,27.693303 45.517975,28.034799 C 44.798347,27.527903 44.218947,26.962816 43.830475,26.343235 C 43.474599,25.775641 43.299065,25.434938 43.080475,24.950182 z "
       id="path2210" />
    <path
       style="color:#000000;fill:url(#radialGradient4119);fill-opacity:1;fill-rule:evenodd;stroke:#000000;stroke-width:0.5;stroke-linecap:butt;stroke-linejoin:miter;marker:none;marker-start:none;marker-mid:none;marker-end:none;stroke-miterlimit:4;stroke-dashoffset:0;stroke-opacity:1;visibility:visible;display:inline;overflow:visible;enable-background:accumulate"
       d="M 35.943434,51.162939 C 35.943434,54.552748 35.276282,59.54442 33.989171,61.767447 C 32.70206,63.990473 30.79499,63.444854 28.832323,63.444854 C 26.869656,63.444854 25.221172,63.990473 23.934061,61.767447 C 22.646949,59.54442 21.721212,54.552748 21.721212,51.162939 C 21.721212,49.468035 21.91723,47.897777 22.021737,46.38374 C 22.123151,44.914515 22.133063,45.018755 22.964364,44.057749 C 23.866505,43.01485 26.248888,40.125392 26.711677,39.297777 C 27.238834,38.355051 28.109576,38.675183 29.090909,38.675183 C 29.619717,38.675183 30.110384,38.90329 30.839838,39.557224 C 31.569293,40.211159 32.149656,41.565377 32.857858,42.719775 C 33.56606,43.874172 34.983919,45.103204 35.448969,46.60459 C 35.91402,48.105977 35.943434,49.468035 35.943434,51.162939 z "
       id="path2160"
       sodipodi:nodetypes="csssssssssssc" />
    <path
       style="color:#000000;fill:url(#radialGradient4123);fill-opacity:1;fill-rule:evenodd;stroke:#000000;stroke-width:0.49999997;stroke-linecap:butt;stroke-linejoin:miter;marker:none;marker-start:none;marker-mid:none;marker-end:none;stroke-miterlimit:4;stroke-dashoffset:0;stroke-opacity:1;visibility:visible;display:inline;overflow:visible;enable-background:accumulate"
       d="M 26.103898,31.354932 C 27.314269,34.491883 28.119275,36.833863 26.953009,39.130781 C 25.715261,41.568477 24.690552,42.664545 23.262167,43.934296 C 21.757522,45.271837 20.149975,45.400921 17.971177,44.273123 C 15.761588,43.129387 14.152932,40.212558 12.942561,37.075607 C 11.73219,33.938656 10.661764,31.806068 11.059107,29.231144 C 11.257778,27.943682 11.954328,27.570131 12.986574,27.532116 C 13.681069,27.506539 14.632235,27.249557 15.46106,26.691893 C 16.670119,25.878393 18.327039,23.151641 19.336262,23.384865 C 20.345485,23.618088 21.050225,24.402729 21.85104,25.392469 C 23.318728,27.206406 24.247062,28.355209 26.103898,31.354932 z "
       id="path4121"
       sodipodi:nodetypes="csssssssssc" />
    <path
       style="color:#000000;fill:url(#radialGradient4127);fill-opacity:1;fill-rule:evenodd;stroke:#000000;stroke-width:0.5;stroke-linecap:butt;stroke-linejoin:miter;marker:none;marker-start:none;marker-mid:none;marker-end:none;stroke-miterlimit:4;stroke-dashoffset:0;stroke-opacity:1;visibility:visible;display:inline;overflow:visible;enable-background:accumulate"
       d="M 45.260976,37.293117 C 43.58185,40.176628 42.260714,42.977261 40.287727,44.53384 C 39.301235,45.31213 38.274992,45.845356 37.267591,46.087291 C 36.260189,46.329226 36.370618,46.005416 35.459489,45.618549 C 34.54836,45.231681 33.735846,44.063446 33.163626,43.1508 C 32.591406,42.238154 31.419076,40.757727 31.210537,39.472025 C 31.001998,38.186322 30.722906,37.850095 30.902819,36.344056 C 31.082732,34.838018 31.463064,33.259992 32.0562,31.68634 C 32.649337,30.112688 33.205462,29.446406 34.053867,28.224211 C 34.902272,27.002015 36.650025,26.42542 37.417328,25.406213 C 38.209881,24.353467 39.624003,23.065486 40.631404,22.823551 C 41.638806,22.581616 42.338591,22.666211 42.698091,23.635364 C 43.350634,25.394512 43.387391,25.327695 43.959611,26.240342 C 44.531831,27.152988 45.445575,28.015887 46.753103,28.615449 C 47.881477,29.13286 46.982149,31.060748 46.802236,32.566786 C 46.622323,34.072824 46.177345,35.719465 45.260976,37.293117 z "
       id="path4125"
       sodipodi:nodetypes="csssssssssssssss" />
    <path
       style="color:#000000;fill:url(#radialGradient4131);fill-opacity:1;fill-rule:evenodd;stroke:#000000;stroke-width:0.5;stroke-linecap:butt;stroke-linejoin:miter;marker:none;marker-start:none;marker-mid:none;marker-end:none;stroke-miterlimit:4;stroke-dashoffset:0;stroke-opacity:1;visibility:visible;display:inline;overflow:visible;enable-background:accumulate"
       d="M 56.947873,23.821585 C 54.784233,26.315018 51.992002,27.387955 49.872909,28.710611 C 48.754723,29.408539 48.156428,29.298625 47.176119,28.953374 C 46.153533,28.593232 45.310842,27.624905 44.589005,26.919298 C 43.867169,26.213692 43.528124,25.425591 42.976032,24.49381 C 42.426177,23.565804 42.499206,22.692409 42.476696,21.480695 C 42.428235,18.87197 44.322828,16.088828 46.486468,13.595395 C 50.813749,8.6085287 56.669099,6.8518843 59.556446,9.6743125 C 62.443794,12.496741 61.275153,18.834719 56.947873,23.821585 z "
       id="path4129"
       sodipodi:nodetypes="csssssssc" />
    <path
       style="color:#000000;fill:url(#radialGradient4135);fill-opacity:1;fill-rule:evenodd;stroke:#000000;stroke-width:0.5;stroke-linecap:butt;stroke-linejoin:miter;marker:none;marker-start:none;marker-mid:none;marker-end:none;stroke-miterlimit:4;stroke-dashoffset:0;stroke-opacity:1;visibility:visible;display:inline;overflow:visible;enable-background:accumulate"
       d="M 39.438659,14.616445 C 40.473408,17.823413 41.013488,20.110959 39.924154,22.450045 C 39.331372,23.722905 38.816452,24.082757 38.201467,24.963511 C 37.586482,25.844266 36.612845,26.285327 35.684443,26.897235 C 34.850774,27.446705 34.412859,27.573972 33.0304,27.689942 C 32.000742,27.776316 31.48883,27.355497 30.540695,26.525238 C 28.644423,24.864719 27.018312,22.714031 25.983564,19.507064 C 23.914066,13.093129 25.248416,6.7921194 28.962022,5.4423088 C 32.675628,4.0924983 37.369161,8.2025112 39.438659,14.616445 z "
       id="path4133"
       sodipodi:nodetypes="csssssssc" />
    <path
       style="color:#000000;fill:url(#radialGradient4139);fill-opacity:1;fill-rule:evenodd;stroke:#000000;stroke-width:0.5;stroke-linecap:butt;stroke-linejoin:miter;marker:none;marker-start:none;marker-mid:none;marker-end:none;stroke-miterlimit:4;stroke-dashoffset:0;stroke-opacity:1;visibility:visible;display:inline;overflow:visible;enable-background:accumulate"
       d="M 19.24275,15.101997 C 19.897829,18.419734 20.531196,21.020565 19.334066,23.299525 C 18.725054,24.458894 17.955039,24.751467 17.242616,25.545208 C 16.530193,26.338949 16.069299,26.467419 15.108831,27.024124 C 14.247556,27.523334 13.037381,27.653662 11.696764,27.641982 C 10.663931,27.632984 9.8848848,27.191042 9.040213,26.243262 C 7.3508682,24.347701 5.9779875,21.515889 5.3229081,18.198151 C 4.0127493,11.562677 6.0674769,5.4838252 9.909353,4.6292864 C 13.751229,3.7747477 17.932591,8.4665216 19.24275,15.101997 z "
       id="path4137"
       sodipodi:nodetypes="csssssssc" />
    <path
       style="color:#000000;fill:#96ffa4;fill-opacity:1;fill-rule:evenodd;stroke:#000000;stroke-width:0.5;stroke-linecap:butt;stroke-linejoin:miter;marker:none;marker-start:none;marker-mid:none;marker-end:none;stroke-miterlimit:4;stroke-dasharray:none;stroke-dashoffset:0;stroke-opacity:1;visibility:visible;display:inline;overflow:visible;enable-background:accumulate"
       d="M 15.794241,10.504284 C 14.330295,11.036785 13.878041,10.55987 14.125543,8.9859011 L 20.835565,2.6273356 L 15.794241,10.504284 z "
       id="rect6106"
       sodipodi:nodetypes="cccc"
       inkscape:transform-center-x="1.0970869" />
    <path
       style="color:#000000;fill:#96ffa4;fill-opacity:1;fill-rule:evenodd;stroke:#000000;stroke-width:0.5;stroke-linecap:butt;stroke-linejoin:miter;marker:none;marker-start:none;marker-mid:none;marker-end:none;stroke-miterlimit:4;stroke-dasharray:none;stroke-dashoffset:0;stroke-opacity:1;visibility:visible;display:inline;overflow:visible;enable-background:accumulate"
       d="M 8.3810989,8.1266237 C 8.5384069,9.7606232 7.9983609,10.12022 6.6099229,9.508063 L 2.2934185,1.1317574 L 8.3810989,8.1266237 z "
       id="path7078"
       sodipodi:nodetypes="cccc"
       inkscape:transform-center-x="0.13497526"
       inkscape:transform-center-y="1.0457834" />
    <path
       style="color:#000000;fill:#96ffa4;fill-opacity:1;fill-rule:evenodd;stroke:#000000;stroke-width:0.5;stroke-linecap:butt;stroke-linejoin:miter;marker:none;marker-start:none;marker-mid:none;marker-end:none;stroke-miterlimit:4;stroke-dasharray:none;stroke-dashoffset:0;stroke-opacity:1;visibility:visible;display:inline;overflow:visible;enable-background:accumulate"
       d="M 29.449655,8.3867801 C 29.468555,10.029163 28.900355,10.336021 27.569104,9.5944375 L 23.976206,0.84172909 L 29.449655,8.3867801 z "
       id="path7080"
       sodipodi:nodetypes="cccc"
       inkscape:transform-center-x="0.16547012"
       inkscape:transform-center-y="0.99452914" />
    <path
       style="color:#000000;fill:#96ffa4;fill-opacity:1;fill-rule:evenodd;stroke:#000000;stroke-width:0.5;stroke-linecap:butt;stroke-linejoin:miter;marker:none;marker-start:none;marker-mid:none;marker-end:none;stroke-miterlimit:4;stroke-dasharray:none;stroke-dashoffset:0;stroke-opacity:1;visibility:visible;display:inline;overflow:visible;enable-background:accumulate"
       d="M 35.817857,10.387716 C 34.618596,11.381932 34.032196,11.085087 33.735427,9.5196593 L 37.913446,1.2734548 L 35.817857,10.387716 z "
       id="path7082"
       sodipodi:nodetypes="cccc"
       inkscape:transform-center-x="1.2936699"
       inkscape:transform-center-y="0.26696991" />
    <path
       style="color:#000000;fill:#96ffa4;fill-opacity:1;fill-rule:evenodd;stroke:#000000;stroke-width:0.5;stroke-linecap:butt;stroke-linejoin:miter;marker:none;marker-start:none;marker-mid:none;marker-end:none;stroke-miterlimit:4;stroke-dasharray:none;stroke-dashoffset:0;stroke-opacity:1;visibility:visible;display:inline;overflow:visible;enable-background:accumulate"
       d="M 44.139509,34.572559 C 42.747655,33.854585 42.743783,33.177946 43.964917,32.247051 L 52.947221,32.759711 L 44.139509,34.572559 z "
       id="path7084"
       sodipodi:nodetypes="cccc"
       inkscape:transform-center-x="0.62830843"
       inkscape:transform-center-y="-0.50313658" />
    <path
       style="color:#000000;fill:#96ffa4;fill-opacity:1;fill-rule:evenodd;stroke:#000000;stroke-width:0.5;stroke-linecap:butt;stroke-linejoin:miter;marker:none;marker-start:none;marker-mid:none;marker-end:none;stroke-miterlimit:4;stroke-dasharray:none;stroke-dashoffset:0;stroke-opacity:1;visibility:visible;display:inline;overflow:visible;enable-background:accumulate"
       d="M 39.30865,40.323653 C 38.876902,38.746363 39.347172,38.2895 40.816728,38.626509 L 46.482792,46.041766 L 39.30865,40.323653 z "
       id="path7086"
       sodipodi:nodetypes="cccc"
       inkscape:transform-center-x="-0.032491101"
       inkscape:transform-center-y="-1.1404079" />
    <path
       style="color:#000000;fill:#96ffa4;fill-opacity:1;fill-rule:evenodd;stroke:#000000;stroke-width:0.5;stroke-linecap:butt;stroke-linejoin:miter;marker:none;marker-start:none;marker-mid:none;marker-end:none;stroke-miterlimit:4;stroke-dasharray:none;stroke-dashoffset:0;stroke-opacity:1;visibility:visible;display:inline;overflow:visible;enable-background:accumulate"
       d="M 56.087317,11.01897 C 54.930437,12.109905 54.339801,11.855205 53.995774,10.301802 L 57.873682,1.6872078 L 56.087317,11.01897 z "
       id="path7088"
       sodipodi:nodetypes="cccc"
       inkscape:transform-center-x="1.2966374"
       inkscape:transform-center-y="0.33131091" />
    <path
       style="color:#000000;fill:#96ffa4;fill-opacity:1;fill-rule:evenodd;stroke:#000000;stroke-width:0.5;stroke-linecap:butt;stroke-linejoin:miter;marker:none;marker-start:none;marker-mid:none;marker-end:none;stroke-miterlimit:4;stroke-dasharray:none;stroke-dashoffset:0;stroke-opacity:1;visibility:visible;display:inline;overflow:visible;enable-background:accumulate"
       d="M 50.580904,12.89589 C 50.643107,14.537071 50.083222,14.860687 48.732936,14.158942 L 44.910627,5.5164006 L 50.580904,12.89589 z "
       id="path7090"
       sodipodi:nodetypes="cccc"
       inkscape:transform-center-x="0.15803894"
       inkscape:transform-center-y="1.0109326" />
    <path
       style="color:#000000;fill:#96ffa4;fill-opacity:1;fill-rule:evenodd;stroke:#000000;stroke-width:0.5;stroke-linecap:butt;stroke-linejoin:miter;marker:none;marker-start:none;marker-mid:none;marker-end:none;stroke-miterlimit:4;stroke-dasharray:none;stroke-dashoffset:0;stroke-opacity:1;visibility:visible;display:inline;overflow:visible;enable-background:accumulate"
       d="M 51.17356,25.202788 C 50.99247,23.571565 51.527213,23.203149 52.924403,23.792449 L 57.362402,32.096927 L 51.17356,25.202788 z "
       id="path7092"
       sodipodi:nodetypes="cccc"
       inkscape:transform-center-x="-0.1279937"
       inkscape:transform-center-y="-1.054272" />
    <path
       style="color:#000000;fill:#96ffa4;fill-opacity:1;fill-rule:evenodd;stroke:#000000;stroke-width:0.5;stroke-linecap:butt;stroke-linejoin:miter;marker:none;marker-start:none;marker-mid:none;marker-end:none;stroke-miterlimit:4;stroke-dasharray:none;stroke-dashoffset:0;stroke-opacity:1;visibility:visible;display:inline;overflow:visible;enable-background:accumulate"
       d="M 55.784308,19.711891 C 54.824849,18.423169 55.098466,17.812007 56.57944,17.537011 L 64.458881,22.142626 L 55.784308,19.711891 z "
       id="path7094"
       sodipodi:nodetypes="cccc" />
    <path
       style="color:#000000;fill:#96ffa4;fill-opacity:1;fill-rule:evenodd;stroke:#000000;stroke-width:0.5;stroke-linecap:butt;stroke-linejoin:miter;marker:none;marker-start:none;marker-mid:none;marker-end:none;stroke-miterlimit:4;stroke-dasharray:none;stroke-dashoffset:0;stroke-opacity:1;visibility:visible;display:inline;overflow:visible;enable-background:accumulate"
       d="M 33.956376,50.980342 C 32.422572,50.76206 32.218897,50.120869 33.103234,48.830367 L 41.783612,46.326307 L 33.956376,50.980342 z "
       id="path7096"
       sodipodi:nodetypes="cccc"
       inkscape:transform-center-x="0.85084797"
       inkscape:transform-center-y="-0.2029963" />
    <path
       style="color:#000000;fill:#96ffa4;fill-opacity:1;fill-rule:evenodd;stroke:#000000;stroke-width:0.5;stroke-linecap:butt;stroke-linejoin:miter;marker:none;marker-start:none;marker-mid:none;marker-end:none;stroke-miterlimit:4;stroke-dasharray:none;stroke-dashoffset:0;stroke-opacity:1;visibility:visible;display:inline;overflow:visible;enable-background:accumulate"
       d="M 32.300373,56.835592 C 31.208598,55.671522 31.414705,55.031207 32.856428,54.5786 L 41.17965,58.199589 L 32.300373,56.835592 z "
       id="path7098"
       sodipodi:nodetypes="cccc"
       inkscape:transform-center-x="0.35914953"
       inkscape:transform-center-y="-1.3944391" />
    <path
       style="color:#000000;fill:#96ffa4;fill-opacity:1;fill-rule:evenodd;stroke:#000000;stroke-width:0.5;stroke-linecap:butt;stroke-linejoin:miter;marker:none;marker-start:none;marker-mid:none;marker-end:none;stroke-miterlimit:4;stroke-dasharray:none;stroke-dashoffset:0;stroke-opacity:1;visibility:visible;display:inline;overflow:visible;enable-background:accumulate"
       d="M 34.482976,34.394311 C 34.701694,36.020331 34.175622,36.40255 32.765239,35.849786 L 28.136739,27.663295 L 34.482976,34.394311 z "
       id="path7100"
       sodipodi:nodetypes="cccc"
       inkscape:transform-center-x="0.11609622"
       inkscape:transform-center-y="1.0675427" />
    <path
       style="color:#000000;fill:#96ffa4;fill-opacity:1;fill-rule:evenodd;stroke:#000000;stroke-width:0.5;stroke-linecap:butt;stroke-linejoin:miter;marker:none;marker-start:none;marker-mid:none;marker-end:none;stroke-miterlimit:4;stroke-dasharray:none;stroke-dashoffset:0;stroke-opacity:1;visibility:visible;display:inline;overflow:visible;enable-background:accumulate"
       d="M 22.115915,33.089189 C 20.651969,33.62169 20.199715,33.144776 20.447217,31.570806 L 27.157239,25.212241 L 22.115915,33.089189 z "
       id="path7102"
       sodipodi:nodetypes="cccc"
       inkscape:transform-center-x="1.0970869" />
    <path
       style="color:#000000;fill:#96ffa4;fill-opacity:1;fill-rule:evenodd;stroke:#000000;stroke-width:0.5;stroke-linecap:butt;stroke-linejoin:miter;marker:none;marker-start:none;marker-mid:none;marker-end:none;stroke-miterlimit:4;stroke-dasharray:none;stroke-dashoffset:0;stroke-opacity:1;visibility:visible;display:inline;overflow:visible;enable-background:accumulate"
       d="M 17.157281,19.851926 C 16.204263,18.55783 16.480926,17.948214 17.96325,17.681544 L 25.819605,22.331374 L 17.157281,19.851926 z "
       id="path7104"
       sodipodi:nodetypes="cccc"
       inkscape:transform-center-x="0.26007054"
       inkscape:transform-center-y="-1.350805" />
    <path
       style="color:#000000;fill:#96ffa4;fill-opacity:1;fill-rule:evenodd;stroke:#000000;stroke-width:0.49999997;stroke-linecap:butt;stroke-linejoin:miter;marker:none;marker-start:none;marker-mid:none;marker-end:none;stroke-miterlimit:4;stroke-dasharray:none;stroke-dashoffset:0;stroke-opacity:1;visibility:visible;display:inline;overflow:visible;enable-background:accumulate"
       d="M 27.791588,15.967867 C 28.530981,17.410767 28.163577,17.963754 26.660115,17.967898 L 19.631751,12.00933 L 27.791588,15.967867 z "
       id="path7106"
       sodipodi:nodetypes="cccc"
       inkscape:transform-center-x="-0.12614254"
       inkscape:transform-center-y="1.2589352" />
    <path
       style="color:#000000;fill:#96ffa4;fill-opacity:1;fill-rule:evenodd;stroke:#000000;stroke-width:0.49999997;stroke-linecap:butt;stroke-linejoin:miter;marker:none;marker-start:none;marker-mid:none;marker-end:none;stroke-miterlimit:4;stroke-dasharray:none;stroke-dashoffset:0;stroke-opacity:1;visibility:visible;display:inline;overflow:visible;enable-background:accumulate"
       d="M 39.762077,17.666377 C 37.993235,17.990328 37.296054,17.587156 37.246367,16.368102 L 44.433162,11.809367 L 39.762077,17.666377 z "
       id="path7108"
       sodipodi:nodetypes="cccc"
       inkscape:transform-center-x="1.580928"
       inkscape:transform-center-y="-0.043177534" />
    <path
       style="color:#000000;fill:#96ffa4;fill-opacity:1;fill-rule:evenodd;stroke:#000000;stroke-width:0.5;stroke-linecap:butt;stroke-linejoin:miter;marker:none;marker-start:none;marker-mid:none;marker-end:none;stroke-miterlimit:4;stroke-dasharray:none;stroke-dashoffset:0;stroke-opacity:1;visibility:visible;display:inline;overflow:visible;enable-background:accumulate"
       d="M 24.386862,56.514838 C 25.928635,56.373288 26.259005,56.951998 25.66074,58.415959 L 17.702665,62.866661 L 24.386862,56.514838 z "
       id="path7110"
       sodipodi:nodetypes="cccc"
       inkscape:transform-center-x="-0.97717767"
       inkscape:transform-center-y="0.15023386" />
    <path
       style="color:#000000;fill:#96ffa4;fill-opacity:1;fill-rule:evenodd;stroke:#000000;stroke-width:0.49999997;stroke-linecap:butt;stroke-linejoin:miter;marker:none;marker-start:none;marker-mid:none;marker-end:none;stroke-miterlimit:4;stroke-dasharray:none;stroke-dashoffset:0;stroke-opacity:1;visibility:visible;display:inline;overflow:visible;enable-background:accumulate"
       d="M 24.534762,51.117924 C 25.591239,52.318125 25.366121,52.951186 23.91161,53.355083 L 15.700661,49.456016 L 24.534762,51.117924 z "
       id="path7112"
       sodipodi:nodetypes="cccc"
       inkscape:transform-center-x="-0.33289139"
       inkscape:transform-center-y="1.38481" />
    <path
       style="color:#000000;fill:#96ffa4;fill-opacity:1;fill-rule:evenodd;stroke:#000000;stroke-width:0.5;stroke-linecap:butt;stroke-linejoin:miter;marker:none;marker-start:none;marker-mid:none;marker-end:none;stroke-miterlimit:4;stroke-dasharray:none;stroke-dashoffset:0;stroke-opacity:1;visibility:visible;display:inline;overflow:visible;enable-background:accumulate"
       d="M 16.942176,41.212061 C 18.476431,40.997374 18.830885,41.559801 18.294986,43.050728 L 10.532673,47.875203 L 16.942176,41.212061 z "
       id="path7114"
       sodipodi:nodetypes="cccc"
       inkscape:transform-center-x="-1.0003687"
       inkscape:transform-center-y="0.12887277" />
    <path
       style="color:#000000;fill:#96ffa4;fill-opacity:1;fill-rule:evenodd;stroke:#000000;stroke-width:0.5;stroke-linecap:butt;stroke-linejoin:miter;marker:none;marker-start:none;marker-mid:none;marker-end:none;stroke-miterlimit:4;stroke-dasharray:none;stroke-dashoffset:0;stroke-opacity:1;visibility:visible;display:inline;overflow:visible;enable-background:accumulate"
       d="M 14.621376,32.06717 C 16.088186,32.590718 16.173395,33.2613 15.074194,34.350007 L 6.1037056,35.058361 L 14.621376,32.06717 z "
       id="path7116"
       sodipodi:nodetypes="cccc"
       inkscape:transform-center-x="-0.72269706"
       inkscape:transform-center-y="0.23203244" />
    <path
       style="color:#000000;fill:#96ffa4;fill-opacity:1;fill-rule:evenodd;stroke:#000000;stroke-width:0.5;stroke-linecap:butt;stroke-linejoin:miter;marker:none;marker-start:none;marker-mid:none;marker-end:none;stroke-miterlimit:4;stroke-dasharray:none;stroke-dashoffset:0;stroke-opacity:1;visibility:visible;display:inline;overflow:visible;enable-background:accumulate"
       d="M 8.8875026,22.372665 C 10.387439,21.968448 10.801605,22.482863 10.434177,24.030216 L 3.2586347,29.787781 L 8.8875026,22.372665 z "
       id="path7118"
       sodipodi:nodetypes="cccc"
       inkscape:transform-center-x="-1.0581979"
       inkscape:transform-center-y="0.058041559" />
    <path
       style="color:#000000;fill:#96ffa4;fill-opacity:1;fill-rule:evenodd;stroke:#000000;stroke-width:0.5;stroke-linecap:butt;stroke-linejoin:miter;marker:none;marker-start:none;marker-mid:none;marker-end:none;stroke-miterlimit:4;stroke-dasharray:none;stroke-dashoffset:0;stroke-opacity:1;visibility:visible;display:inline;overflow:visible;enable-background:accumulate"
       d="M 9.5110289,16.508521 C 10.535895,17.739211 10.294401,18.365438 8.8299419,18.726573 L 0.72350732,14.58847 L 9.5110289,16.508521 z "
       id="path7120"
       sodipodi:nodetypes="cccc"
       inkscape:transform-center-x="-0.31001661"
       inkscape:transform-center-y="1.375284" />
  </g>
</svg>
