<?xml version="1.0" encoding="UTF-8" standalone="no"?>
<!-- Created with Inkscape (http://www.inkscape.org/) -->

<svg
   xmlns:dc="http://purl.org/dc/elements/1.1/"
   xmlns:cc="http://creativecommons.org/ns#"
   xmlns:rdf="http://www.w3.org/1999/02/22-rdf-syntax-ns#"
   xmlns:svg="http://www.w3.org/2000/svg"
   xmlns="http://www.w3.org/2000/svg"
   xmlns:xlink="http://www.w3.org/1999/xlink"
   xmlns:sodipodi="http://sodipodi.sourceforge.net/DTD/sodipodi-0.dtd"
   xmlns:inkscape="http://www.inkscape.org/namespaces/inkscape"
   width="512"
   height="512"
   id="svg8930"
   version="1.1"
   inkscape:version="0.47 r22583"
   sodipodi:docname="Axis.svg"
   inkscape:export-filename="axis.png"
   inkscape:export-xdpi="22.5"
   inkscape:export-ydpi="22.5">
  <defs
     id="defs8932">
    <inkscape:perspective
       sodipodi:type="inkscape:persp3d"
       inkscape:vp_x="0 : 526.18109 : 1"
       inkscape:vp_y="0 : 1000 : 0"
       inkscape:vp_z="744.09448 : 526.18109 : 1"
       inkscape:persp3d-origin="372.04724 : 350.78739 : 1"
       id="perspective8938" />
    <inkscape:perspective
       id="perspective8987"
       inkscape:persp3d-origin="0.5 : 0.33333333 : 1"
       inkscape:vp_z="1 : 0.5 : 1"
       inkscape:vp_y="0 : 1000 : 0"
       inkscape:vp_x="0 : 0.5 : 1"
       sodipodi:type="inkscape:persp3d" />
    <filter
       id="filter9526"
       inkscape:label="Diffuse light reverse"
       inkscape:menu="ABCs"
       inkscape:menu-tooltip="Basic diffuse bevel to use for building textures"
       color-interpolation-filters="sRGB">
      <feGaussianBlur
         id="feGaussianBlur9528"
         stdDeviation="6"
         in="SourceGraphic"
         result="result0" />
      <feDiffuseLighting
         id="feDiffuseLighting9530"
         diffuseConstant="1"
         surfaceScale="-10"
         result="result5">
        <feDistantLight
           id="feDistantLight9532"
           elevation="25"
           azimuth="235" />
      </feDiffuseLighting>
      <feComposite
         id="feComposite9534"
         in2="SourceGraphic"
         k1="1"
         in="result5"
         result="result4"
         operator="arithmetic"
         k2="0"
         k3="0.6"
         k4="0" />
    </filter>
    <filter
       id="filter9598"
       inkscape:label="Diffuse light"
       inkscape:menu="ABCs"
       inkscape:menu-tooltip="Basic diffuse bevel to use for building textures"
       color-interpolation-filters="sRGB">
      <feGaussianBlur
         id="feGaussianBlur9600"
         stdDeviation="10"
         in="SourceGraphic"
         result="result0" />
      <feDiffuseLighting
         id="feDiffuseLighting9602"
         diffuseConstant="1"
         surfaceScale="4"
         result="result5">
        <feDistantLight
           id="feDistantLight9604"
           elevation="25"
           azimuth="235" />
      </feDiffuseLighting>
      <feComposite
         id="feComposite9606"
         in2="SourceGraphic"
         k1="1"
         in="result5"
         result="result4"
         operator="arithmetic"
         k2="0"
         k3="0.6"
         k4="0" />
      <feGaussianBlur
         stdDeviation="1"
         id="feGaussianBlur3728" />
    </filter>
    <filter
       color-interpolation-filters="sRGB"
       inkscape:menu-tooltip="Basic diffuse bevel to use for building textures"
       inkscape:menu="ABCs"
       inkscape:label="Diffuse light"
       id="filter3714">
      <feGaussianBlur
         result="result0"
         in="SourceGraphic"
         stdDeviation="6"
         id="feGaussianBlur3716" />
      <feDiffuseLighting
         result="result5"
         surfaceScale="4"
         diffuseConstant="1"
         id="feDiffuseLighting3718">
        <feDistantLight
           azimuth="235"
           elevation="25"
           id="feDistantLight3720" />
      </feDiffuseLighting>
      <feComposite
         k4="0"
         k3="0.6"
         k2="0"
         operator="arithmetic"
         result="result4"
         in="result5"
         k1="1"
         in2="SourceGraphic"
         id="feComposite3722" />
    </filter>
  </defs>
  <sodipodi:namedview
     id="base"
     pagecolor="#000000"
     bordercolor="#666666"
     borderopacity="1.0"
     inkscape:pageopacity="0"
     inkscape:pageshadow="2"
     inkscape:zoom="0.35"
     inkscape:cx="260.5907"
     inkscape:cy="535.25946"
     inkscape:document-units="px"
     inkscape:current-layer="layer1"
     showgrid="false"
     inkscape:window-width="1280"
     inkscape:window-height="967"
     inkscape:window-x="-4"
     inkscape:window-y="-4"
     inkscape:window-maximized="1" />
  <metadata
     id="metadata8935">
    <rdf:RDF>
      <cc:Work
         rdf:about="">
        <dc:format>image/svg+xml</dc:format>
        <dc:type
           rdf:resource="http://purl.org/dc/dcmitype/StillImage" />
        <dc:title></dc:title>
      </cc:Work>
    </rdf:RDF>
  </metadata>
  <g
     inkscape:label="Layer 1"
     inkscape:groupmode="layer"
     id="layer1"
     transform="translate(0,-540.36218)">
    <path
       style="fill:#767676;fill-opacity:1;stroke:#767676;stroke-width:4;stroke-linecap:round;stroke-linejoin:round;stroke-miterlimit:4;stroke-opacity:1;stroke-dasharray:none"
       d="m 493.87496,558.66056 c -16.66241,-16.66193 -43.47153,-16.66155 -60.13346,8.7e-4 L 256.27137,736.13665 78.796162,558.66652 C 62.133748,542.00458 35.324628,542.00497 18.66269,558.66738 2.0007519,575.3298 2.001139,602.13892 18.663553,618.80084 L 196.13878,796.27097 18.701545,973.71328 c -16.6619382,16.66242 -16.6944513,43.50442 -0.03201,60.16642 16.662414,16.6619 43.504419,16.6286 60.166357,-0.034 L 256.27313,856.40354 433.71544,1033.8408 c 16.66241,16.6619 43.50443,16.6944 60.16637,0.032 16.66194,-16.6624 16.62865,-43.50444 -0.0338,-60.16638 L 316.40569,796.26925 493.87583,618.79404 c 16.66193,-16.66242 16.66155,-43.47154 -8.7e-4,-60.13348 z"
       id="rect8993"
       sodipodi:nodetypes="ccccscccscccscccc" />
    <path
       sodipodi:type="inkscape:offset"
       inkscape:radius="0"
       inkscape:original="M 48.71875 546.15625 C 37.850926 546.15641 26.987219 550.32505 18.65625 558.65625 C 1.9943119 575.31867 1.993836 602.15058 18.65625 618.8125 L 196.125 796.28125 L 18.6875 973.71875 C 2.0255618 990.38117 1.9938087 1017.213 18.65625 1033.875 C 35.318664 1050.5369 62.181812 1050.5064 78.84375 1033.8438 L 256.28125 856.40625 L 433.71875 1033.8438 C 450.38116 1050.5057 477.21306 1050.5374 493.875 1033.875 C 510.53694 1017.2126 510.5062 990.38069 493.84375 973.71875 L 316.40625 796.28125 L 493.875 618.78125 C 510.53693 602.11883 510.53742 575.31819 493.875 558.65625 C 477.21259 541.99432 450.41193 541.99383 433.75 558.65625 L 256.28125 736.125 L 78.78125 558.65625 C 70.450043 550.32528 59.586574 546.15609 48.71875 546.15625 z "
       xlink:href="#rect8993"
       style="opacity:0.50000000000000000;fill:#ffffff;fill-opacity:1;stroke:none;filter:url(#filter9598)"
       id="path3726"
       inkscape:href="#rect8993"
       d="m 49.21875,546.15625 c -10.867824,1.6e-4 -21.731531,4.1688 -30.0625,12.5 -16.6619381,16.66242 -16.662414,43.49433 0,60.15625 L 196.625,796.28125 19.1875,973.71875 C 2.5255618,990.38117 2.4938087,1017.213 19.15625,1033.875 c 16.662414,16.6619 43.525562,16.6314 60.1875,-0.031 l 177.4375,-177.43755 177.4375,177.43755 c 16.66241,16.6619 43.49431,16.6936 60.15625,0.031 16.66194,-16.6624 16.6312,-43.49431 -0.0312,-60.15625 l -177.4375,-177.4375 177.46875,-177.5 c 16.66193,-16.66242 16.66242,-43.46306 0,-60.125 -16.66241,-16.66193 -43.46307,-16.66242 -60.125,0 L 256.78125,736.125 79.28125,558.65625 c -8.331207,-8.33097 -19.194676,-12.50016 -30.0625,-12.5 z" />
    <g
       transform="matrix(-1.0612909,0,0,-1.0612909,-6.7782881,1013.683)"
       id="use9590">
      <path
         sodipodi:type="arc"
         style="fill:#333333;fill-opacity:1;stroke:none;filter:url(#filter9526)"
         id="path2914"
         sodipodi:cx="-247.85715"
         sodipodi:cy="204.86218"
         sodipodi:rx="13.571428"
         sodipodi:ry="14.642858"
         d="m -234.28572,204.86218 c 0,8.08703 -6.07613,14.64286 -13.57143,14.64286 -7.49529,0 -13.57143,-6.55583 -13.57143,-14.64286 0,-8.08702 6.07614,-14.64285 13.57143,-14.64285 7.4953,0 13.57143,6.55583 13.57143,14.64285 z" />
      <path
         d="m -234.28572,204.86218 c 0,8.08703 -6.07613,14.64286 -13.57143,14.64286 -7.49529,0 -13.57143,-6.55583 -13.57143,-14.64286 0,-8.08702 6.07614,-14.64285 13.57143,-14.64285 7.4953,0 13.57143,6.55583 13.57143,14.64285 z"
         sodipodi:ry="14.642858"
         sodipodi:rx="13.571428"
         sodipodi:cy="204.86218"
         sodipodi:cx="-247.85715"
         id="path2916"
         style="fill:#939393;fill-opacity:1;stroke:none;filter:url(#filter3714)"
         sodipodi:type="arc"
         transform="matrix(0.64,0,0,0.64,-89.228573,73.750386)" />
    </g>
    <use
       x="0"
       y="0"
       xlink:href="#use9590"
       id="use3724"
       transform="translate(48.428571,-46.5)"
       width="512"
       height="512" />
    <use
       x="0"
       y="0"
       xlink:href="#use9590"
       id="use3842"
       transform="translate(47.779194,51.473176)"
       width="512"
       height="512" />
    <use
       x="0"
       y="0"
       xlink:href="#use9590"
       id="use3844"
       transform="translate(-51.646489,-51.228072)"
       width="512"
       height="512" />
    <use
       x="0"
       y="0"
       xlink:href="#use9590"
       id="use3846"
       transform="translate(-48.70269,47.692537)"
       width="512"
       height="512" />
    <use
       x="0"
       y="0"
       xlink:href="#use9590"
       id="use3848"
       transform="translate(202.92171,-203.4268)"
       width="512"
       height="512" />
    <use
       x="0"
       y="0"
       xlink:href="#use9590"
       id="use3850"
       transform="translate(-197.7125,-197.7125)"
       width="512"
       height="512" />
    <use
       x="0"
       y="0"
       xlink:href="#use9590"
       id="use3852"
       transform="translate(-200.4471,201.07473)"
       width="512"
       height="512" />
    <use
       x="0"
       y="0"
       xlink:href="#use9590"
       id="use3854"
       transform="translate(200.56966,201.49315)"
       width="512"
       height="512" />
  </g>
</svg>
