<?xml version="1.0" encoding="UTF-8" standalone="no"?>
<!-- Created with Inkscape (http://www.inkscape.org/) -->

<svg
   xmlns:dc="http://purl.org/dc/elements/1.1/"
   xmlns:cc="http://creativecommons.org/ns#"
   xmlns:rdf="http://www.w3.org/1999/02/22-rdf-syntax-ns#"
   xmlns:svg="http://www.w3.org/2000/svg"
   xmlns="http://www.w3.org/2000/svg"
   xmlns:xlink="http://www.w3.org/1999/xlink"
   xmlns:sodipodi="http://sodipodi.sourceforge.net/DTD/sodipodi-0.dtd"
   xmlns:inkscape="http://www.inkscape.org/namespaces/inkscape"
   width="256"
   height="128"
   id="svg2"
   version="1.1"
   inkscape:version="0.47 r22583"
   sodipodi:docname="cloud.svg"
   inkscape:export-filename="cloud.png"
   inkscape:export-xdpi="45"
   inkscape:export-ydpi="45">
  <defs
     id="defs4">
    <filter
       id="filter3018"
       inkscape:label="Diffuse light"
       inkscape:menu="ABCs"
       inkscape:menu-tooltip="Basic diffuse bevel to use for building textures"
       color-interpolation-filters="sRGB">
      <feGaussianBlur
         id="feGaussianBlur3020"
         stdDeviation="12"
         in="SourceGraphic"
         result="result0" />
      <feDiffuseLighting
         id="feDiffuseLighting3022"
         diffuseConstant="1"
         surfaceScale="2"
         result="result5">
        <feDistantLight
           id="feDistantLight3024"
           elevation="25"
           azimuth="235" />
      </feDiffuseLighting>
      <feComposite
         id="feComposite3026"
         in2="SourceGraphic"
         k1="1"
         in="result5"
         result="result4"
         operator="arithmetic"
         k2="0"
         k3="0.6"
         k4="0" />
    </filter>
    <filter
       inkscape:collect="always"
       id="filter3832"
       x="-0.11000665"
       width="1.2200133"
       y="-0.29561672"
       height="1.5912334"
       color-interpolation-filters="sRGB">
      <feGaussianBlur
         inkscape:collect="always"
         stdDeviation="22.523178"
         id="feGaussianBlur3834" />
    </filter>
    <filter
       inkscape:collect="always"
       id="filter3946"
       x="-0.11710385"
       width="1.2342077"
       y="-0.31468877"
       height="1.6293775"
       color-interpolation-filters="sRGB">
      <feGaussianBlur
         inkscape:collect="always"
         stdDeviation="23.976287"
         id="feGaussianBlur3948" />
    </filter>
  </defs>
  <sodipodi:namedview
     id="base"
     pagecolor="#ffffff"
     bordercolor="#666666"
     borderopacity="1.0"
     inkscape:pageopacity="0.0"
     inkscape:pageshadow="2"
     inkscape:zoom="0.98994949"
     inkscape:cx="-123.3748"
     inkscape:cy="136.73676"
     inkscape:document-units="px"
     inkscape:current-layer="g3836"
     showgrid="false"
     inkscape:window-width="1280"
     inkscape:window-height="967"
     inkscape:window-x="-4"
     inkscape:window-y="-4"
     inkscape:window-maximized="1" />
  <metadata
     id="metadata7">
    <rdf:RDF>
      <cc:Work
         rdf:about="">
        <dc:format>image/svg+xml</dc:format>
        <dc:type
           rdf:resource="http://purl.org/dc/dcmitype/StillImage" />
        <dc:title></dc:title>
      </cc:Work>
    </rdf:RDF>
  </metadata>
  <g
     inkscape:label="Layer 1"
     inkscape:groupmode="layer"
     id="layer1"
     transform="translate(0,-924.36218)">
    <use
       x="0"
       y="0"
       xlink:href="#g3836"
       id="use3950"
       transform="matrix(1,0,0,-1,-24.304581,1967.6266)"
       width="744.09448"
       height="1052.3622" />
    <g
       id="g3836"
       style="filter:url(#filter3946)"
       transform="matrix(0.36325025,0,0,0.36796317,34.287669,728.31552)">
      <path
         id="path3004"
         d="m 120.28231,773.36218 c 2.21804,-35.85969 -14.80239,-66.73892 -45.386143,-82.34159 -14.33232,-7.3118 -41.27245,-10.34433 -53.62908,-6.03678 -7.62205,2.65706 -8.83467,2.41341 -8.81061,-1.77025 0.0526,-9.13834 13.49965,-33.41994 24.59446,-44.41063 13.81743,-13.68776 27.47174,-21.3013 29.15357,-16.25581 0.6438,1.93141 4.87796,7.73417 9.40924,12.89501 23.42979,26.68506 82.529113,15.02182 82.529113,-16.28711 l 0,-7.93569 121.37414,0 121.37415,0 1.72817,7.85714 c 6.165,28.02889 20.15031,42.4649 38.38068,39.6175 9.45855,-1.47733 23.27689,-13.01954 26.24412,-21.92124 2.14945,-6.4484 9.63588,-0.9049 20.11891,14.89752 11.68703,17.61731 16.45566,32.54546 16.47817,51.58475 0.02,15.68145 -8.33337,39.8233 -18.58323,53.71623 l -7.18037,9.73243 -56.39594,0.3035 c -44.27203,0.23826 -60.06331,1.36538 -73.45523,5.24295 -18.49971,5.35652 -28.26303,12.14681 -25.98828,18.07466 1.17211,3.05447 -17.57918,3.7517 -100.89871,3.7517 l -102.33837,0 1.28124,-20.71429 0,0 z"
         style="fill:#ffffff;fill-opacity:1;stroke:none;filter:url(#filter3018)" />
      <path
         transform="matrix(0.8,0,0,0.8,54.410609,124.05805)"
         style="opacity:0.7982456;fill:#f8f8f8;fill-opacity:1;stroke:none;filter:url(#filter3832)"
         d="m 120.28231,773.36218 c 2.21804,-35.85969 -59.991564,-1.53913 -90.575317,-17.1418 -14.33232,-7.3118 3.916724,-75.54412 -8.439906,-71.23657 -7.62205,2.65706 -8.83467,2.41341 -8.81061,-1.77025 0.0526,-9.13834 13.49965,-33.41994 24.59446,-44.41063 13.81743,-13.68776 27.47174,-21.3013 29.15357,-16.25581 0.6438,1.93141 4.87796,7.73417 9.40924,12.89501 23.42979,26.68506 82.529113,15.02182 82.529113,-16.28711 l 0,-7.93569 121.37414,0 121.37415,0 1.72817,7.85714 c 6.165,28.02889 20.15031,42.4649 38.38068,39.6175 9.45855,-1.47733 23.27689,-13.01954 26.24412,-21.92124 2.14945,-6.4484 9.63588,-0.9049 20.11891,14.89752 11.68703,17.61731 16.45566,32.54546 16.47817,51.58475 0.02,15.68145 -8.33337,39.8233 -18.58323,53.71623 l -7.18037,9.73243 -56.39594,0.3035 c -44.27203,0.23826 -60.06331,1.36538 -73.45523,5.24295 -18.49971,5.35652 -28.26303,12.14681 -25.98828,18.07466 1.17211,3.05447 -17.57918,3.7517 -100.89871,3.7517 l -102.33837,0 1.28124,-20.71429 0,0 z"
         id="use3056"
         sodipodi:nodetypes="csssssscccccsssscccsscccc" />
    </g>
  </g>
</svg>
