<?xml version="1.0" encoding="UTF-8" standalone="no"?>
<!-- Created with Inkscape (http://www.inkscape.org/) -->

<svg
   xmlns:dc="http://purl.org/dc/elements/1.1/"
   xmlns:cc="http://creativecommons.org/ns#"
   xmlns:rdf="http://www.w3.org/1999/02/22-rdf-syntax-ns#"
   xmlns:svg="http://www.w3.org/2000/svg"
   xmlns="http://www.w3.org/2000/svg"
   xmlns:xlink="http://www.w3.org/1999/xlink"
   xmlns:sodipodi="http://sodipodi.sourceforge.net/DTD/sodipodi-0.dtd"
   xmlns:inkscape="http://www.inkscape.org/namespaces/inkscape"
   width="64"
   height="16"
   id="svg6278"
   version="1.1"
   inkscape:version="0.47 r22583"
   sodipodi:docname="fire_1 idea.svg">
  <defs
     id="defs6280">
    <linearGradient
       id="linearGradient3632">
      <stop
         style="stop-color:#ff0000;stop-opacity:1;"
         offset="0"
         id="stop3634" />
      <stop
         style="stop-color:#fd5319;stop-opacity:0.33725491;"
         offset="1"
         id="stop3636" />
    </linearGradient>
    <inkscape:perspective
       sodipodi:type="inkscape:persp3d"
       inkscape:vp_x="0 : 526.18109 : 1"
       inkscape:vp_y="0 : 1000 : 0"
       inkscape:vp_z="744.09448 : 526.18109 : 1"
       inkscape:persp3d-origin="372.04724 : 350.78739 : 1"
       id="perspective6286" />
    <inkscape:perspective
       id="perspective6467"
       inkscape:persp3d-origin="0.5 : 0.33333333 : 1"
       inkscape:vp_z="1 : 0.5 : 1"
       inkscape:vp_y="0 : 1000 : 0"
       inkscape:vp_x="0 : 0.5 : 1"
       sodipodi:type="inkscape:persp3d" />
    <inkscape:perspective
       id="perspective6574"
       inkscape:persp3d-origin="0.5 : 0.33333333 : 1"
       inkscape:vp_z="1 : 0.5 : 1"
       inkscape:vp_y="0 : 1000 : 0"
       inkscape:vp_x="0 : 0.5 : 1"
       sodipodi:type="inkscape:persp3d" />
    <inkscape:perspective
       id="perspective6699"
       inkscape:persp3d-origin="0.5 : 0.33333333 : 1"
       inkscape:vp_z="1 : 0.5 : 1"
       inkscape:vp_y="0 : 1000 : 0"
       inkscape:vp_x="0 : 0.5 : 1"
       sodipodi:type="inkscape:persp3d" />
    <inkscape:perspective
       id="perspective6806"
       inkscape:persp3d-origin="0.5 : 0.33333333 : 1"
       inkscape:vp_z="1 : 0.5 : 1"
       inkscape:vp_y="0 : 1000 : 0"
       inkscape:vp_x="0 : 0.5 : 1"
       sodipodi:type="inkscape:persp3d" />
    <filter
       inkscape:collect="always"
       id="filter7594"
       x="-0.15360001"
       width="1.3072"
       y="-0.15360001"
       height="1.3072"
       color-interpolation-filters="sRGB">
      <feGaussianBlur
         inkscape:collect="always"
         stdDeviation="0.56"
         id="feGaussianBlur7596" />
    </filter>
    <filter
       inkscape:collect="always"
       id="filter7620"
       color-interpolation-filters="sRGB">
      <feGaussianBlur
         inkscape:collect="always"
         stdDeviation="1.4565308"
         id="feGaussianBlur7622" />
    </filter>
    <filter
       inkscape:collect="always"
       id="filter7660"
       x="-0.11896552"
       width="1.237931"
       y="-0.11896552"
       height="1.237931"
       color-interpolation-filters="sRGB">
      <feGaussianBlur
         inkscape:collect="always"
         stdDeviation="0.49126385"
         id="feGaussianBlur7662" />
    </filter>
    <filter
       inkscape:collect="always"
       id="filter7679"
       x="-0.16551724"
       width="1.3310345"
       y="-0.16551724"
       height="1.3310345"
       color-interpolation-filters="sRGB">
      <feGaussianBlur
         inkscape:collect="always"
         stdDeviation="0.69999999999999996"
         id="feGaussianBlur7681" />
    </filter>
    <filter
       inkscape:collect="always"
       id="filter7687"
       x="-0.23275863"
       width="1.4655172"
       y="-0.23275863"
       height="1.4655172"
       color-interpolation-filters="sRGB">
      <feMorphology
         id="feMorphology2858"
         operator="dilate"
         radius="0.5" />
      <feGaussianBlur
         inkscape:collect="always"
         stdDeviation="0.80000000000000004"
         id="feGaussianBlur7689" />
    </filter>
    <filter
       inkscape:collect="always"
       id="filter7699"
       x="-0.27413794"
       width="1.5482759"
       y="-0.27413794"
       height="1.5482759"
       color-interpolation-filters="sRGB">
      <feGaussianBlur
         inkscape:collect="always"
         stdDeviation="1"
         id="feGaussianBlur7701" />
    </filter>
    <filter
       inkscape:collect="always"
       id="filter7719"
       x="-0.19655173"
       width="1.3931034"
       y="-0.19655173"
       height="1.3931034"
       color-interpolation-filters="sRGB">
      <feGaussianBlur
         inkscape:collect="always"
         stdDeviation="0.59999999999999998"
         id="feGaussianBlur7721" />
    </filter>
    <radialGradient
       inkscape:collect="always"
       xlink:href="#linearGradient3632"
       id="radialGradient3638"
       cx="337.31198"
       cy="501.78073"
       fx="337.31198"
       fy="501.78073"
       r="8.9103851"
       gradientUnits="userSpaceOnUse"
       gradientTransform="matrix(0.72943607,0.00432973,-0.00432963,0.72941883,93.436975,134.31195)" />
    <filter
       inkscape:collect="always"
       id="filter3684"
       x="-0.192"
       width="1.384"
       y="-0.192"
       height="1.384">
      <feGaussianBlur
         inkscape:collect="always"
         stdDeviation="0.7"
         id="feGaussianBlur3686" />
    </filter>
    <filter
       inkscape:collect="always"
       id="filter3710"
       x="-0.192"
       width="1.384"
       y="-0.192"
       height="1.384">
      <feGaussianBlur
         inkscape:collect="always"
         stdDeviation="0.7"
         id="feGaussianBlur3712" />
    </filter>
    <filter
       inkscape:collect="always"
       id="filter3754"
       x="-0.228"
       width="1.456"
       y="-0.228"
       height="1.456">
      <feGaussianBlur
         inkscape:collect="always"
         stdDeviation="0.83125"
         id="feGaussianBlur3756" />
    </filter>
    <filter
       inkscape:collect="always"
       id="filter3769"
       x="-0.228"
       width="1.456"
       y="-0.228"
       height="1.456">
      <feGaussianBlur
         inkscape:collect="always"
         stdDeviation="0.83125"
         id="feGaussianBlur3771" />
    </filter>
  </defs>
  <sodipodi:namedview
     id="base"
     pagecolor="#ff8b55"
     bordercolor="#666666"
     borderopacity="1.0"
     inkscape:pageopacity="0"
     inkscape:pageshadow="2"
     inkscape:zoom="11.2"
     inkscape:cx="27.824136"
     inkscape:cy="16.642677"
     inkscape:document-units="px"
     inkscape:current-layer="layer2"
     showgrid="false"
     inkscape:window-width="1280"
     inkscape:window-height="967"
     inkscape:window-x="-4"
     inkscape:window-y="-4"
     inkscape:window-maximized="1" />
  <metadata
     id="metadata6283">
    <rdf:RDF>
      <cc:Work
         rdf:about="">
        <dc:format>image/svg+xml</dc:format>
        <dc:type
           rdf:resource="http://purl.org/dc/dcmitype/StillImage" />
        <dc:title></dc:title>
      </cc:Work>
    </rdf:RDF>
  </metadata>
  <g
     inkscape:label="Layer 1"
     inkscape:groupmode="layer"
     id="layer1"
     transform="translate(-275.26316,-497.4517)"
     style="display:inline">
    <g
       id="g7738"
       transform="translate(9.785714,4.2812187)">
      <path
         style="fill:#ff0000;fill-opacity:1;stroke:none;filter:url(#filter7594)"
         d="m 283.57379,503.34433 c 0,1.70519 -3.32026,1.14958 -4.70259,2.53191 -1.38233,1.38233 -0.82672,4.70259 -2.53191,4.70259 -1.70518,0 -1.14957,-3.32026 -2.53191,-4.70259 -1.38233,-1.38233 -4.70259,-0.82672 -4.70259,-2.53191 0,-1.70518 3.32026,-1.14957 4.70259,-2.53191 1.38234,-1.38233 0.82673,-4.70259 2.53191,-4.70259 1.70519,0 1.14958,3.32026 2.53191,4.70259 1.38233,1.38234 4.70259,0.82673 4.70259,2.53191 z"
         id="path3660"
         sodipodi:nodetypes="cscscscsc"
         transform="matrix(0.69942298,0,0,0.69942298,96.12796,149.11989)" />
      <path
         transform="matrix(0.52456724,0,0,0.52456724,144.44747,237.13254)"
         style="fill:#ffd42a;fill-opacity:0.50196078;stroke:none;filter:url(#filter7594)"
         d="m 280.71429,503.34433 c 0,2.41625 -1.95875,4.375 -4.375,4.375 -2.41624,0 -4.375,-1.95875 -4.375,-4.375 0,-2.41625 1.95876,-4.375 4.375,-4.375 2.41625,0 4.375,1.95875 4.375,4.375 z"
         id="path3662" />
      <path
         transform="matrix(1.449484,0,0,1.449484,-111.14337,-228.41908)"
         style="fill:#ffa200;fill-opacity:1;stroke:none;filter:url(#filter7594)"
         d="m 280.71429,503.34433 c 0,1.0312 -2.0079,0.6952 -2.84385,1.53115 -0.83595,0.83595 -0.49995,2.84385 -1.53115,2.84385 -1.03119,0 -0.69519,-2.0079 -1.53115,-2.84385 -0.83595,-0.83595 -2.84385,-0.49995 -2.84385,-1.53115 0,-1.03119 2.0079,-0.69519 2.84385,-1.53115 0.83596,-0.83595 0.49996,-2.84385 1.53115,-2.84385 1.0312,0 0.6952,2.0079 1.53115,2.84385 0.83595,0.83596 2.84385,0.49996 2.84385,1.53115 z"
         id="use3664"
         sodipodi:nodetypes="cscscscsc" />
      <path
         id="use3666"
         d="m 280.71429,503.34433 c 0,2.41625 -1.95875,4.375 -4.375,4.375 -2.41624,0 -4.375,-1.95875 -4.375,-4.375 0,-2.41625 1.95876,-4.375 4.375,-4.375 2.41625,0 4.375,1.95875 4.375,4.375 z"
         style="fill:#ffab2a;fill-opacity:0.25098041;stroke:none;filter:url(#filter3684)"
         transform="matrix(0.77681087,0,0,0.77681087,74.742653,110.16714)" />
      <path
         transform="matrix(0.02674692,0,0,0.02674692,279.96623,488.14195)"
         d="m 354.82144,493.07648 c 0.37115,-1.00052 1.66581,0.18095 1.84122,0.683 0.7471,2.13832 -1.67385,3.78191 -3.52298,3.8506 -3.87657,0.144 -6.30088,-3.87422 -5.99826,-7.38254 0.49612,-5.75147 6.4619,-9.13061 11.821,-8.3141 7.77128,1.18402 12.20439,9.33265 10.77891,16.69763 -1.92001,9.92 -12.432,15.48238 -21.93479,13.37583 -12.18296,-2.70069 -18.9377,-15.72577 -16.09148,-27.48183 3.52227,-14.54843 19.19013,-22.55085 33.30266,-18.91522 17.00709,4.38131 26.30687,22.80736 21.83836,39.37001 -5.27487,19.55139 -26.56362,30.19389 -45.6624,24.85369 -22.1751,-6.20037 -34.2022,-30.4478 -27.95516,-52.16243 7.15565,-24.87296 34.45071,-38.32367 58.85562,-31.13756 27.6405,8.13885 42.55144,38.56466 34.3964,65.72978 -9.14832,30.47383 -42.78301,46.87953 -72.77438,37.72773 -33.36957,-10.18266 -51.30276,-47.10007 -41.12807,-79.98031 11.24058,-36.32472 51.51081,-55.81654 87.33953,-44.59431 39.33662,12.32097 60.4168,56.01079 48.12367,94.84494 -13.42283,42.40286 -60.59607,65.09987 -102.49016,51.71361 -45.5213,-14.54525 -69.86247,-65.26308 -55.36187,-110.26946 15.68741,-48.68995 70.00861,-74.7016 118.17768,-59.06634 51.90702,16.84857 79.6145,74.82974 62.8251,126.21005 -18.02804,55.17088 -79.72379,84.59869 -134.36228,66.63639 -58.48,-19.22518 -89.65183,-84.68831 -70.49857,-142.63036 20.43944,-61.83298 89.72103,-94.77182 151.01063,-74.41014 65.22852,21.67027 99.95666,94.81987 78.36968,159.49971 -22.91717,68.66541 -99.98288,105.2045 -168.09441,82.37587 -72.14252,-24.17969 -110.51363,-105.20825 -86.42747,-176.7918 25.45737,-75.65879 110.49428,-115.88244 185.58911,-90.52335 79.21323,26.74984 121.3094,115.83939 94.6624,194.48379 -28.0567,82.8049 -121.24211,126.79309 -203.47338,98.84359 -86.43293,-29.3776 -132.33219,-126.70102 -103.06597,-212.55561 30.7122,-90.09648 132.2148,-137.92543 221.72833,-107.32862"
         sodipodi:t0="0"
         sodipodi:argument="-1.2155775"
         sodipodi:radius="177.74426"
         sodipodi:revolution="8"
         sodipodi:expansion="1.3"
         sodipodi:cy="493.07648"
         sodipodi:cx="354.82144"
         id="path7618"
         style="fill:none;stroke:#ffd42a;stroke-width:1.47072017000000010;stroke-linecap:round;stroke-linejoin:round;stroke-miterlimit:4;stroke-opacity:0.50196081;stroke-dasharray:none;filter:url(#filter7620)"
         sodipodi:type="spiral" />
    </g>
    <g
       id="g7606"
       transform="matrix(1.3488872,0,0,1.3488872,-89.487377,-173.50302)">
      <path
         sodipodi:nodetypes="cscscscsc"
         id="path6812"
         d="m 280.71429,503.34433 c 0,1.0312 -2.0079,0.6952 -2.84385,1.53115 -0.83595,0.83595 -0.49995,2.84385 -1.53115,2.84385 -1.03119,0 -0.69519,-2.0079 -1.53115,-2.84385 -0.83595,-0.83595 -2.84385,-0.49995 -2.84385,-1.53115 0,-1.03119 2.0079,-0.69519 2.84385,-1.53115 0.83596,-0.83595 0.49996,-2.84385 1.53115,-2.84385 1.0312,0 0.6952,2.0079 1.53115,2.84385 0.83595,0.83596 2.84385,0.49996 2.84385,1.53115 z"
         style="fill:#ff5100;fill-opacity:1;stroke:none;filter:url(#filter7594)" />
      <path
         id="use7598"
         d="m 280.71429,503.34433 c -0.0323,1.03431 -1.25336,1.53362 -2.04902,2.33216 -0.79566,0.79855 -1.75092,1.63106 -2.82021,1.54861 -0.77578,-0.0598 -1.05462,-0.5847 -1.84964,-1.42392 -0.79503,-0.83922 -2.02955,-1.39428 -2.03113,-2.45685 -0.002,-1.00779 1.07981,-1.54352 1.91947,-2.33588 0.83967,-0.79236 1.39175,-2.02074 2.45553,-2.03912 1.03941,-0.018 1.63071,1.07239 2.46666,1.90834 0.83595,0.83595 1.94077,1.42761 1.90834,2.46666 z"
         style="fill:#ffac07;fill-opacity:0.50196081;stroke:none;filter:url(#filter7594)"
         transform="matrix(0.75,0,0,0.75,69.084824,125.83608)"
         sodipodi:nodetypes="csasasasa" />
      <use
         height="1052.3622"
         width="744.09448"
         transform="matrix(0.5,0,0,0.5,138.16965,251.67216)"
         id="use7602"
         xlink:href="#path6812"
         y="0"
         x="0" />
      <path
         sodipodi:nodetypes="caaaa"
         transform="matrix(0.375,0,0,0.375,172.71206,314.5902)"
         style="fill:#ff7207;fill-opacity:0.50196081000000004;stroke:none;filter:url(#filter3769)"
         d="m 280.71429,503.34433 c 0,2.06239 -2.31261,4.375 -4.375,4.375 -2.06239,0 -4.375,-2.31261 -4.375,-4.375 0,-2.06239 2.31261,-4.375 4.375,-4.375 2.06239,0 4.375,2.31261 4.375,4.375 z"
         id="use7604" />
    </g>
    <g
       id="g7731"
       transform="translate(10.5,3.3491175)">
      <path
         style="fill:#ff0000;fill-opacity:1;stroke:none;filter:url(#filter7594)"
         d="m 280.71429,503.34433 c 0,1.0312 -2.0079,0.6952 -2.84385,1.53115 -0.83595,0.83595 -0.49995,2.84385 -1.53115,2.84385 -1.03119,0 -0.69519,-2.0079 -1.53115,-2.84385 -0.83595,-0.83595 -2.84385,-0.49995 -2.84385,-1.53115 0,-1.03119 2.0079,-0.69519 2.84385,-1.53115 0.83596,-0.83595 0.49996,-2.84385 1.53115,-2.84385 1.0312,0 0.6952,2.0079 1.53115,2.84385 0.83595,0.83596 2.84385,0.49996 2.84385,1.53115 z"
         id="path3650"
         sodipodi:nodetypes="cscscscsc"
         transform="matrix(1.398846,0,0,1.398846,-81.18707,-201.9986)" />
      <path
         transform="matrix(1.0491345,0,0,1.0491345,15.45196,-25.973303)"
         style="fill:#ffd42a;fill-opacity:0.50196078;stroke:none;filter:url(#filter7594)"
         d="m 280.71429,503.34433 c 0,2.41625 -1.95875,4.375 -4.375,4.375 -2.41624,0 -4.375,-1.95875 -4.375,-4.375 0,-2.41625 1.95876,-4.375 4.375,-4.375 2.41625,0 4.375,1.95875 4.375,4.375 z"
         id="path3652" />
      <path
         sodipodi:nodetypes="cscscscsc"
         id="use3654"
         d="m 280.71429,503.34433 c 0,1.0312 -2.0079,0.6952 -2.84385,1.53115 -0.83595,0.83595 -0.49995,2.84385 -1.53115,2.84385 -1.03119,0 -0.69519,-2.0079 -1.53115,-2.84385 -0.83595,-0.83595 -2.84385,-0.49995 -2.84385,-1.53115 0,-1.03119 2.0079,-0.69519 2.84385,-1.53115 0.83596,-0.83595 0.49996,-2.84385 1.53115,-2.84385 1.0312,0 0.6952,2.0079 1.53115,2.84385 0.83595,0.83596 2.84385,0.49996 2.84385,1.53115 z"
         style="fill:#ffcf2a;fill-opacity:0.75294118;stroke:none;filter:url(#filter3710)"
         transform="matrix(0.69942301,0,0,0.69942301,112.09099,150.05199)" />
      <path
         sodipodi:type="spiral"
         style="fill:none;stroke:#ffdc4e;stroke-width:1px;stroke-linecap:round;stroke-linejoin:round;stroke-opacity:0.50196081;filter:url(#filter7620)"
         id="use7628"
         sodipodi:cx="354.82144"
         sodipodi:cy="493.07648"
         sodipodi:expansion="1"
         sodipodi:revolution="11.628942"
         sodipodi:radius="177.74426"
         sodipodi:argument="-1.2155775"
         sodipodi:t0="0"
         d="m 354.82144,493.07648 c 0.7996,-2.15552 3.30009,0.0144 3.58261,1.32898 0.76562,3.56248 -3.1371,5.98236 -6.24057,5.83623 -5.55139,-0.26138 -8.84144,-6.04503 -8.08986,-11.15216 1.10297,-7.49492 8.98313,-11.75955 16.06375,-10.34349 9.43737,1.8874 14.70128,11.93072 12.59711,20.97535 -2.64787,11.38176 -14.88251,17.65489 -25.88694,14.85074 -13.32783,-3.39622 -20.61534,-17.83665 -17.10435,-30.79853 4.13757,-15.27514 20.7922,-23.58008 35.71012,-19.35799 17.22332,4.87458 26.54767,23.74873 21.6116,40.62171 -5.60866,19.17216 -26.70593,29.51726 -45.5333,23.86524 -21.12147,-6.34072 -32.4883,-29.66363 -26.11886,-50.4449 7.07129,-23.07114 32.6217,-35.46043 55.35649,-28.37248 25.02111,7.80076 38.43341,35.58006 30.62611,60.26808 -8.52937,26.9713 -38.53865,41.40704 -65.17967,32.87973 -28.92167,-9.25731 -44.3812,-41.49743 -35.13336,-70.09126 9.98471,-30.87219 44.45636,-47.35578 75.00285,-37.38698 32.82284,10.71168 50.33072,47.41541 39.64061,79.91444 -11.4383,34.77358 -50.37457,53.30595 -84.82603,41.89423 -36.72441,-12.16461 -56.28143,-53.33382 -44.14786,-89.73762 12.89067,-38.67531 56.29314,-59.25712 94.64921,-46.40148 40.62628,13.61652 62.23298,59.25253 48.65511,99.5608 -14.3422,42.5773 -62.21198,65.209 -104.4724,50.90873 -44.52837,-15.0677 -68.18515,-65.17147 -53.16235,-109.38398 15.79308,-46.47948 68.13101,-71.16143 114.29557,-55.41599 48.43063,16.51834 74.13781,71.0906 57.66961,119.20717 -17.24348,50.38181 -74.0502,77.11428 -124.11876,59.92324 -52.33301,-17.96855 -80.09082,-77.00985 -62.17686,-129.03036 18.69352,-54.28424 79.96952,-83.06744 133.94195,-64.43048 56.23549,19.41842 86.04413,82.92921 66.68411,138.85354 -20.14325,58.18677 -85.88893,89.02088 -143.76513,68.93773 C 254.81388,579.6867 222.95427,511.70606 243.76059,451.878 265.35333,389.78862 335.569,356.90347 397.3489,378.43302 c 64.0407,22.31741 97.95142,94.76818 75.69861,158.4999 -23.04204,65.99204 -97.72796,100.92835 -163.41149,77.95223 C 241.69262,591.11853 205.7307,514.19739 229.43016,446.56207 253.92133,376.66731 333.07773,339.67975 402.66483,364.10259 474.51097,389.31827 512.52418,470.70998 487.37794,542.24885 461.43777,616.04637 377.81071,655.08526 304.32009,629.21558 228.57117,602.55096 188.50659,516.68852 215.09973,441.24614 242.48878,363.54582 330.58665,322.45553 407.98076,349.77215 487.6325,377.88561 529.7485,468.21893 501.70837,547.56478 472.87053,629.16793 380.30172,672.30967 299.00415,643.54602 215.44958,613.98382 171.28209,519.17949 200.76929,435.93021 231.05584,350.4242 328.0957,305.23096 413.2967,335.44172 500.75414,366.45259 546.97315,465.72802 516.0388,552.88071 484.30364,642.2896 382.79261,689.53439 293.68822,657.87645 248.39836,641.78539 211.03623,607.06484 191.48527,563.17867"
         transform="matrix(0.03125,0,0,0.03125,294.22517,486.85496)" />
    </g>
    <g
       id="g7723"
       transform="translate(-6,3.6797281)">
      <path
         transform="matrix(0.98749017,-0.15768053,0.15768053,0.98749017,-74.917598,59.457961)"
         id="use7683"
         d="m 336.25,500.71875 c 0,0 -4.84911,-1.69573 -5.1875,0 -0.36646,1.83639 2.53843,2.15625 5.1875,2.15625 0,0 -1.68516,4.81809 0,5.15625 1.82657,0.36654 2.15625,-2.50922 2.15625,-5.15625 0,0 4.81809,1.68516 5.15625,0 0.36654,-1.82657 -2.50922,-2.15625 -5.15625,-2.15625 0,0 1.69573,-4.84911 0,-5.1875 -1.83639,-0.36646 -2.15625,2.53843 -2.15625,5.1875 z"
         style="fill:#ffcc00;fill-opacity:1;stroke:none;filter:url(#filter7687)"
         sodipodi:nodetypes="cacacacac" />
      <path
         style="fill:#ff6600;fill-opacity:1;stroke:none;filter:url(#filter7679)"
         d="m 336.25,500.71875 c 0,0 -3.90166,-0.78077 -5.12437,0.44194 -0.26781,1.87201 3.38158,1.73687 5.12437,1.71431 0,0 -1.68516,4.81809 0,5.15625 1.82657,0.36654 2.15625,-2.50922 2.15625,-5.15625 0,0 4.81809,1.68516 5.15625,0 0.36654,-1.82657 -2.50922,-2.15625 -5.15625,-2.15625 0,0 1.69573,-4.84911 0,-5.1875 -1.83639,-0.36646 -2.15625,5.1875 -2.15625,5.1875 z"
         id="use7671"
         sodipodi:nodetypes="cccacacac"
         transform="matrix(0.98642063,-0.1642387,0.1642387,0.98642063,-77.829454,62.210272)" />
      <path
         transform="matrix(0.99998229,-0.00595049,0.00595049,0.99998229,-2.9813126,2.0140314)"
         id="rect7664"
         d="m 336.25,495.53125 c -1.09254,0.60501 -1.98806,3.17563 -1.98806,3.17563 0,0 -2.59024,0.90915 -3.19944,2.01187 -0.34757,0.62913 -0.34819,1.52747 0,2.15625 0.60501,1.09254 3.17563,1.98806 3.17563,1.98806 0,0 0.91552,2.56567 2.01187,3.16819 0.6299,0.34617 1.5267,0.34679 2.15625,0 1.08616,-0.59831 1.98806,-3.14438 1.98806,-3.14438 0,0 2.56567,-0.91552 3.16819,-2.01187 0.34617,-0.6299 0.34679,-1.5267 0,-2.15625 -0.59831,-1.08616 -3.14438,-1.98806 -3.14438,-1.98806 0,0 -0.90915,-2.59024 -2.01187,-3.19944 -0.62913,-0.34757 -1.52747,-0.34819 -2.15625,0 z"
         style="fill:url(#radialGradient3638);fill-opacity:1;stroke:none;filter:url(#filter7699)"
         sodipodi:nodetypes="ccaacaacaacaa" />
      <path
         style="fill:#ff5800;fill-opacity:1;stroke:none;filter:url(#filter7594)"
         d="m 280.71429,503.34433 c 0,1.0312 -2.0079,0.6952 -2.84385,1.53115 -0.83595,0.83595 -0.49995,2.84385 -1.53115,2.84385 -1.03119,0 -0.69519,-2.0079 -1.53115,-2.84385 -0.83595,-0.83595 -2.84385,-0.49995 -2.84385,-1.53115 0,-1.03119 2.0079,-0.69519 2.84385,-1.53115 0.83596,-0.83595 0.49996,-2.84385 1.53115,-2.84385 1.0312,0 0.6952,2.0079 1.53115,2.84385 0.83595,0.83596 2.84385,0.49996 2.84385,1.53115 z"
         id="path3738"
         sodipodi:nodetypes="cscscscsc"
         transform="matrix(0.34971149,0,0,0.34971149,240.71342,325.8059)" />
      <path
         transform="matrix(0.54330178,0,0,0.54330178,187.21682,228.36332)"
         style="fill:#ffab2a;fill-opacity:0.50196081;stroke:none;filter:url(#filter3754)"
         d="m 280.71429,503.34433 c 0,2.41625 -1.95875,4.375 -4.375,4.375 -2.41624,0 -4.375,-1.95875 -4.375,-4.375 0,-2.41625 1.95876,-4.375 4.375,-4.375 2.41625,0 4.375,1.95875 4.375,4.375 z"
         id="path3740" />
    </g>
  </g>
  <g
     inkscape:groupmode="layer"
     id="layer2"
     inkscape:label="export"
     style="opacity:0;display:inline"
     transform="translate(0,-16)">
    <rect
       style="fill:#ffcc00;fill-opacity:1;stroke:none"
       id="rect7771"
       width="16"
       height="16"
       x="0"
       y="16"
       inkscape:export-filename="1.png"
       inkscape:export-xdpi="360"
       inkscape:export-ydpi="360" />
    <rect
       style="fill:#ffcc00;fill-opacity:1;stroke:none"
       id="rect7775"
       width="16"
       height="16"
       x="16"
       y="16"
       inkscape:export-filename="2.png"
       inkscape:export-xdpi="360"
       inkscape:export-ydpi="360" />
    <rect
       style="fill:#ffcc00;fill-opacity:1;stroke:none"
       id="rect7779"
       width="16"
       height="16"
       x="32"
       y="16"
       inkscape:export-filename="3.png"
       inkscape:export-xdpi="360"
       inkscape:export-ydpi="360" />
    <rect
       style="fill:#ffcc00;fill-opacity:1;stroke:none"
       id="rect7781"
       width="16"
       height="16"
       x="48"
       y="16"
       inkscape:export-filename="4.png"
       inkscape:export-xdpi="360"
       inkscape:export-ydpi="360" />
  </g>
</svg>
