<?xml version="1.0" encoding="UTF-8" standalone="no"?>
<!-- Created with Inkscape (http://www.inkscape.org/) -->
<svg
   xmlns:dc="http://purl.org/dc/elements/1.1/"
   xmlns:cc="http://creativecommons.org/ns#"
   xmlns:rdf="http://www.w3.org/1999/02/22-rdf-syntax-ns#"
   xmlns:svg="http://www.w3.org/2000/svg"
   xmlns="http://www.w3.org/2000/svg"
   xmlns:xlink="http://www.w3.org/1999/xlink"
   xmlns:sodipodi="http://sodipodi.sourceforge.net/DTD/sodipodi-0.dtd"
   xmlns:inkscape="http://www.inkscape.org/namespaces/inkscape"
   width="128"
   height="256"
   id="svg2"
   sodipodi:version="0.32"
   inkscape:version="0.46"
   version="1.0"
   sodipodi:docname="beanstalk.svg"
   inkscape:output_extension="org.inkscape.output.svg.inkscape"
   inkscape:export-filename="D:\Dateien\Desktop\Secret Maryo Chronicles\SMC\data\pixmaps\ground\jungle_1\beanstalk.png"
   inkscape:export-xdpi="360"
   inkscape:export-ydpi="360">
  <defs
     id="defs4">
    <linearGradient
       inkscape:collect="always"
       id="linearGradient7480">
      <stop
         style="stop-color:#74fd00;stop-opacity:1;"
         offset="0"
         id="stop7482" />
      <stop
         style="stop-color:#74fd00;stop-opacity:0;"
         offset="1"
         id="stop7484" />
    </linearGradient>
    <linearGradient
       inkscape:collect="always"
       id="linearGradient7282">
      <stop
         style="stop-color:#1a1a1a;stop-opacity:1;"
         offset="0"
         id="stop7284" />
      <stop
         style="stop-color:#1a1a1a;stop-opacity:0;"
         offset="1"
         id="stop7286" />
    </linearGradient>
    <linearGradient
       id="linearGradient6908">
      <stop
         style="stop-color:#f1f3ee;stop-opacity:1;"
         offset="0"
         id="stop6910" />
      <stop
         style="stop-color:#f1f3ee;stop-opacity:0;"
         offset="1"
         id="stop6912" />
    </linearGradient>
    <linearGradient
       id="linearGradient6614">
      <stop
         style="stop-color:#73e073;stop-opacity:1;"
         offset="0"
         id="stop6616" />
      <stop
         style="stop-color:#1c7d1c;stop-opacity:1;"
         offset="1"
         id="stop6618" />
    </linearGradient>
    <linearGradient
       id="linearGradient6556">
      <stop
         style="stop-color:#74fd00;stop-opacity:1;"
         offset="0"
         id="stop6558" />
      <stop
         style="stop-color:#008000;stop-opacity:1;"
         offset="1"
         id="stop6560" />
    </linearGradient>
    <linearGradient
       id="linearGradient6451">
      <stop
         style="stop-color:#59ea3d;stop-opacity:1;"
         offset="0"
         id="stop6453" />
      <stop
         style="stop-color:#59ea3d;stop-opacity:0;"
         offset="1"
         id="stop6455" />
    </linearGradient>
    <inkscape:perspective
       sodipodi:type="inkscape:persp3d"
       inkscape:vp_x="0 : 526.18109 : 1"
       inkscape:vp_y="0 : 1000 : 0"
       inkscape:vp_z="744.09448 : 526.18109 : 1"
       inkscape:persp3d-origin="372.04724 : 350.78739 : 1"
       id="perspective10" />
    <inkscape:perspective
       id="perspective4042"
       inkscape:persp3d-origin="372.04724 : 350.78739 : 1"
       inkscape:vp_z="744.09448 : 526.18109 : 1"
       inkscape:vp_y="0 : 1000 : 0"
       inkscape:vp_x="0 : 526.18109 : 1"
       sodipodi:type="inkscape:persp3d" />
    <inkscape:perspective
       id="perspective4455"
       inkscape:persp3d-origin="372.04724 : 350.78739 : 1"
       inkscape:vp_z="744.09448 : 526.18109 : 1"
       inkscape:vp_y="0 : 1000 : 0"
       inkscape:vp_x="0 : 526.18109 : 1"
       sodipodi:type="inkscape:persp3d" />
    <inkscape:perspective
       id="perspective5560"
       inkscape:persp3d-origin="372.04724 : 350.78739 : 1"
       inkscape:vp_z="744.09448 : 526.18109 : 1"
       inkscape:vp_y="0 : 1000 : 0"
       inkscape:vp_x="0 : 526.18109 : 1"
       sodipodi:type="inkscape:persp3d" />
    <filter
       inkscape:collect="always"
       id="filter6435"
       x="-0.11332345"
       width="1.2266469"
       y="-0.013421191"
       height="1.0268424">
      <feGaussianBlur
         inkscape:collect="always"
         stdDeviation="1.3798662"
         id="feGaussianBlur6437" />
    </filter>
    <filter
       inkscape:collect="always"
       id="filter6447">
      <feGaussianBlur
         inkscape:collect="always"
         stdDeviation="0.55476248"
         id="feGaussianBlur6449" />
    </filter>
    <linearGradient
       inkscape:collect="always"
       xlink:href="#linearGradient6556"
       id="linearGradient6457"
       x1="202.256"
       y1="158.30005"
       x2="224.7319"
       y2="192.93614"
       gradientUnits="userSpaceOnUse" />
    <linearGradient
       inkscape:collect="always"
       xlink:href="#linearGradient6556"
       id="linearGradient6562"
       x1="88.388351"
       y1="18.614151"
       x2="87.596207"
       y2="45.888275"
       gradientUnits="userSpaceOnUse" />
    <linearGradient
       inkscape:collect="always"
       xlink:href="#linearGradient6556"
       id="linearGradient6566"
       gradientUnits="userSpaceOnUse"
       x1="80.415451"
       y1="23.531212"
       x2="89.363976"
       y2="48.792465" />
    <linearGradient
       inkscape:collect="always"
       xlink:href="#linearGradient6614"
       id="linearGradient6620"
       x1="95"
       y1="34.377186"
       x2="97.14286"
       y2="39.928574"
       gradientUnits="userSpaceOnUse" />
    <filter
       inkscape:collect="always"
       id="filter6770"
       x="-0.15048183"
       width="1.3009637"
       y="-0.22767597"
       height="1.4553519">
      <feGaussianBlur
         inkscape:collect="always"
         stdDeviation="0.4930902"
         id="feGaussianBlur6772" />
    </filter>
    <linearGradient
       inkscape:collect="always"
       xlink:href="#linearGradient6908"
       id="linearGradient6914"
       x1="223.974"
       y1="248.01855"
       x2="225.69051"
       y2="235.90572"
       gradientUnits="userSpaceOnUse" />
    <filter
       inkscape:collect="always"
       id="filter7011"
       x="-0.11231964"
       width="1.2246393"
       y="-0.030521768"
       height="1.0610435">
      <feGaussianBlur
         inkscape:collect="always"
         stdDeviation="0.84769441"
         id="feGaussianBlur7013" />
    </filter>
    <linearGradient
       inkscape:collect="always"
       xlink:href="#linearGradient6556"
       id="linearGradient7117"
       gradientUnits="userSpaceOnUse"
       x1="88.388351"
       y1="18.614151"
       x2="87.596207"
       y2="45.888275" />
    <linearGradient
       inkscape:collect="always"
       xlink:href="#linearGradient6556"
       id="linearGradient7119"
       gradientUnits="userSpaceOnUse"
       x1="80.415451"
       y1="23.531212"
       x2="89.363976"
       y2="48.792465" />
    <linearGradient
       inkscape:collect="always"
       xlink:href="#linearGradient6614"
       id="linearGradient7121"
       gradientUnits="userSpaceOnUse"
       x1="95"
       y1="34.377186"
       x2="97.14286"
       y2="39.928574" />
    <linearGradient
       inkscape:collect="always"
       xlink:href="#linearGradient6556"
       id="linearGradient7139"
       gradientUnits="userSpaceOnUse"
       x1="88.388351"
       y1="18.614151"
       x2="87.596207"
       y2="45.888275" />
    <linearGradient
       inkscape:collect="always"
       xlink:href="#linearGradient6556"
       id="linearGradient7141"
       gradientUnits="userSpaceOnUse"
       x1="80.415451"
       y1="23.531212"
       x2="89.363976"
       y2="48.792465" />
    <linearGradient
       inkscape:collect="always"
       xlink:href="#linearGradient6614"
       id="linearGradient7143"
       gradientUnits="userSpaceOnUse"
       x1="95"
       y1="34.377186"
       x2="97.14286"
       y2="39.928574" />
    <linearGradient
       inkscape:collect="always"
       xlink:href="#linearGradient6556"
       id="linearGradient7167"
       gradientUnits="userSpaceOnUse"
       x1="88.388351"
       y1="18.614151"
       x2="87.596207"
       y2="45.888275" />
    <linearGradient
       inkscape:collect="always"
       xlink:href="#linearGradient6556"
       id="linearGradient7169"
       gradientUnits="userSpaceOnUse"
       x1="80.415451"
       y1="23.531212"
       x2="89.363976"
       y2="48.792465" />
    <linearGradient
       inkscape:collect="always"
       xlink:href="#linearGradient6614"
       id="linearGradient7171"
       gradientUnits="userSpaceOnUse"
       x1="95"
       y1="34.377186"
       x2="97.14286"
       y2="39.928574" />
    <linearGradient
       inkscape:collect="always"
       xlink:href="#linearGradient6556"
       id="linearGradient7211"
       gradientUnits="userSpaceOnUse"
       x1="88.388351"
       y1="18.614151"
       x2="87.596207"
       y2="45.888275" />
    <linearGradient
       inkscape:collect="always"
       xlink:href="#linearGradient6556"
       id="linearGradient7213"
       gradientUnits="userSpaceOnUse"
       x1="80.415451"
       y1="23.531212"
       x2="89.363976"
       y2="48.792465" />
    <linearGradient
       inkscape:collect="always"
       xlink:href="#linearGradient6614"
       id="linearGradient7215"
       gradientUnits="userSpaceOnUse"
       x1="95"
       y1="34.377186"
       x2="97.14286"
       y2="39.928574" />
    <filter
       inkscape:collect="always"
       id="filter7255"
       x="-0.042650689"
       width="1.0853014"
       y="-0.10114237"
       height="1.2022847">
      <feGaussianBlur
         inkscape:collect="always"
         stdDeviation="0.32150321"
         id="feGaussianBlur7257" />
    </filter>
    <linearGradient
       inkscape:collect="always"
       xlink:href="#linearGradient7282"
       id="linearGradient7288"
       x1="223.32144"
       y1="231.07646"
       x2="229.5491"
       y2="240.71933"
       gradientUnits="userSpaceOnUse" />
    <filter
       inkscape:collect="always"
       id="filter7347"
       x="-0.1389888"
       width="1.2779776"
       y="-0.038257729"
       height="1.0765155">
      <feGaussianBlur
         inkscape:collect="always"
         stdDeviation="0.72580093"
         id="feGaussianBlur7349" />
    </filter>
    <filter
       inkscape:collect="always"
       id="filter7383"
       x="-0.15418526"
       width="1.3083705"
       y="-0.037247237"
       height="1.0744945">
      <feGaussianBlur
         inkscape:collect="always"
         stdDeviation="0.77355915"
         id="feGaussianBlur7385" />
    </filter>
    <linearGradient
       inkscape:collect="always"
       xlink:href="#linearGradient7282"
       id="linearGradient7388"
       gradientUnits="userSpaceOnUse"
       x1="223.50002"
       y1="317.32648"
       x2="224.15085"
       y2="333.20566" />
    <linearGradient
       inkscape:collect="always"
       xlink:href="#linearGradient6908"
       id="linearGradient7390"
       gradientUnits="userSpaceOnUse"
       x1="220.04306"
       y1="308.04074"
       x2="217.72011"
       y2="334.7254" />
    <linearGradient
       inkscape:collect="always"
       xlink:href="#linearGradient6908"
       id="linearGradient7392"
       gradientUnits="userSpaceOnUse"
       x1="226.03648"
       y1="378.42355"
       x2="218.90228"
       y2="400.02774" />
    <linearGradient
       inkscape:collect="always"
       xlink:href="#linearGradient7480"
       id="linearGradient7511"
       gradientUnits="userSpaceOnUse"
       x1="80.805801"
       y1="264.46875"
       x2="91.1875"
       y2="279.64789" />
    <linearGradient
       inkscape:collect="always"
       xlink:href="#linearGradient7480"
       id="linearGradient7521"
       gradientUnits="userSpaceOnUse"
       x1="80.805801"
       y1="264.46875"
       x2="91.1875"
       y2="279.64789" />
    <linearGradient
       inkscape:collect="always"
       xlink:href="#linearGradient7480"
       id="linearGradient7531"
       gradientUnits="userSpaceOnUse"
       x1="80.805801"
       y1="264.46875"
       x2="91.1875"
       y2="279.64789" />
    <linearGradient
       inkscape:collect="always"
       xlink:href="#linearGradient6556"
       id="linearGradient7549"
       gradientUnits="userSpaceOnUse"
       x1="88.388351"
       y1="18.614151"
       x2="87.596207"
       y2="45.888275" />
    <linearGradient
       inkscape:collect="always"
       xlink:href="#linearGradient6556"
       id="linearGradient7551"
       gradientUnits="userSpaceOnUse"
       x1="80.415451"
       y1="23.531212"
       x2="89.363976"
       y2="48.792465" />
    <linearGradient
       inkscape:collect="always"
       xlink:href="#linearGradient6614"
       id="linearGradient7553"
       gradientUnits="userSpaceOnUse"
       x1="95"
       y1="34.377186"
       x2="97.14286"
       y2="39.928574" />
    <linearGradient
       inkscape:collect="always"
       xlink:href="#linearGradient6908"
       id="linearGradient2535"
       gradientUnits="userSpaceOnUse"
       x1="220.04306"
       y1="308.04074"
       x2="217.72011"
       y2="334.7254" />
    <linearGradient
       inkscape:collect="always"
       xlink:href="#linearGradient7282"
       id="linearGradient2539"
       gradientUnits="userSpaceOnUse"
       x1="223.50002"
       y1="317.32648"
       x2="224.15085"
       y2="333.20566" />
    <linearGradient
       inkscape:collect="always"
       xlink:href="#linearGradient6908"
       id="linearGradient2475"
       gradientUnits="userSpaceOnUse"
       x1="220.04306"
       y1="308.04074"
       x2="217.72011"
       y2="334.7254" />
    <linearGradient
       inkscape:collect="always"
       xlink:href="#linearGradient7282"
       id="linearGradient2479"
       gradientUnits="userSpaceOnUse"
       x1="223.32144"
       y1="231.07646"
       x2="229.5491"
       y2="240.71933" />
    <linearGradient
       inkscape:collect="always"
       xlink:href="#linearGradient6556"
       id="linearGradient2476"
       gradientUnits="userSpaceOnUse"
       x1="202.256"
       y1="158.30005"
       x2="224.7319"
       y2="192.93614" />
    <linearGradient
       inkscape:collect="always"
       xlink:href="#linearGradient6908"
       id="linearGradient2478"
       gradientUnits="userSpaceOnUse"
       x1="220.04306"
       y1="308.04074"
       x2="217.72011"
       y2="334.7254" />
    <linearGradient
       inkscape:collect="always"
       xlink:href="#linearGradient7282"
       id="linearGradient2480"
       gradientUnits="userSpaceOnUse"
       x1="223.32144"
       y1="231.07646"
       x2="229.5491"
       y2="240.71933" />
    <linearGradient
       inkscape:collect="always"
       xlink:href="#linearGradient7282"
       id="linearGradient2482"
       gradientUnits="userSpaceOnUse"
       x1="223.50002"
       y1="317.32648"
       x2="224.15085"
       y2="333.20566" />
    <linearGradient
       inkscape:collect="always"
       xlink:href="#linearGradient6908"
       id="linearGradient2484"
       gradientUnits="userSpaceOnUse"
       x1="220.04306"
       y1="308.04074"
       x2="217.72011"
       y2="334.7254" />
    <linearGradient
       inkscape:collect="always"
       xlink:href="#linearGradient7282"
       id="linearGradient2486"
       gradientUnits="userSpaceOnUse"
       x1="223.50002"
       y1="317.32648"
       x2="224.15085"
       y2="333.20566" />
    <linearGradient
       inkscape:collect="always"
       xlink:href="#linearGradient6908"
       id="linearGradient2488"
       gradientUnits="userSpaceOnUse"
       x1="220.04306"
       y1="308.04074"
       x2="217.72011"
       y2="334.7254" />
    <linearGradient
       inkscape:collect="always"
       xlink:href="#linearGradient7282"
       id="linearGradient2490"
       gradientUnits="userSpaceOnUse"
       x1="223.32144"
       y1="231.07646"
       x2="229.5491"
       y2="240.71933" />
  </defs>
  <sodipodi:namedview
     id="base"
     pagecolor="#000000"
     bordercolor="#666666"
     borderopacity="1.0"
     gridtolerance="10000"
     guidetolerance="10"
     objecttolerance="10"
     inkscape:pageopacity="0"
     inkscape:pageshadow="2"
     inkscape:zoom="1.979899"
     inkscape:cx="88.866167"
     inkscape:cy="130.67001"
     inkscape:document-units="px"
     inkscape:current-layer="layer1"
     showgrid="false"
     inkscape:window-width="1152"
     inkscape:window-height="808"
     inkscape:window-x="69"
     inkscape:window-y="91" />
  <metadata
     id="metadata7">
    <rdf:RDF>
      <cc:Work
         rdf:about="">
        <dc:format>image/svg+xml</dc:format>
        <dc:type
           rdf:resource="http://purl.org/dc/dcmitype/StillImage" />
      </cc:Work>
    </rdf:RDF>
  </metadata>
  <g
     inkscape:label="Layer 1"
     inkscape:groupmode="layer"
     id="layer1"
     transform="translate(-164.57144,-150.07646)">
    <g
       id="g2459"
       transform="matrix(0.7604326,0,0,1,45.291157,0)">
      <path
         style="fill:#00ff00;fill-rule:evenodd;stroke:none;stroke-width:1px;stroke-linecap:butt;stroke-linejoin:miter;stroke-opacity:1"
         d="M 244.0612,153.13072 C 252.02282,153.13072 261.06137,155.36625 267.91259,159.16166 C 274.76383,162.9571 279.40611,168.21811 278.96702,174.33233 C 278.70768,177.89407 274.91618,181.8715 269.43734,184.87096 C 263.95849,187.87041 256.89931,189.84493 250.65027,189.84493 C 241.65758,189.84493 235.31076,187.65427 231.31867,184.31138 C 227.32658,180.96849 225.79125,176.41798 227.23453,171.78315 C 227.86121,169.77067 230.57505,167.35913 234.15033,165.56568 C 237.72563,163.77222 242.08911,162.63784 245.58595,162.67455 C 248.19307,162.70191 250.98588,163.46147 253.26414,164.69523 C 255.54239,165.929 257.24393,167.5898 257.83837,169.14073 C 258.20206,170.0896 257.82092,171.79403 256.47701,173.08883 C 255.13305,174.38363 253.15807,175.29603 249.99681,175.29603 C 246.96358,175.29603 243.73591,174.76973 242.37308,174.08363 C 241.69166,173.74057 241.40018,173.46448 241.39289,173.05775 C 241.3856,172.65101 241.72626,172.00453 242.97208,171.09924 C 243.62738,170.62306 243.5645,170.70238 243.78892,170.72618 C 244.01332,170.75 244.74579,170.99869 245.47703,171.37902 C 246.20828,171.75936 246.93884,172.21321 247.81862,172.62252 C 248.25848,172.82718 248.70404,173.06108 249.67008,173.15101 C 250.63613,173.24093 252.02855,172.85044 252.50176,172.4049 C 253.93694,171.05362 253.99313,169.27207 253.04633,167.55527 C 252.57292,166.69689 251.77039,165.85133 250.48692,165.19263 C 249.20345,164.53393 247.39412,164.10457 245.36812,164.10457 C 240.54499,164.10457 236.51552,166.12918 233.71469,168.51898 C 230.91387,170.90879 229.19756,173.79339 229.84838,176.35301 C 230.4277,178.63135 231.63331,181.37148 234.74935,183.62746 C 237.86538,185.88344 242.99304,187.54447 250.32355,187.54447 C 259.53926,187.54447 265.73666,185.04416 269.27398,181.85548 C 272.8113,178.66678 273.95711,174.8634 273.95713,171.90751 C 273.95713,167.49236 270.04783,163.58094 264.59083,160.68495 C 259.13381,157.78896 252.06144,155.85958 245.25921,155.43118 C 239.41762,155.06327 234.08029,156.16124 229.57609,158.19796 C 225.07191,160.23467 221.29785,163.17258 218.19494,166.62265 C 211.98917,173.52277 208.33666,182.48372 207.35836,190.65321 C 206.53025,197.6449 213.63847,204.60934 220.64544,211.41959 C 227.6524,218.22986 234.59457,224.9346 234.74935,230.88032 C 234.93591,238.04651 227.87879,246.08633 220.59099,254.25804 C 213.30317,262.42976 205.77902,270.71773 206.21479,278.81709 C 206.49866,283.94994 213.06797,290.16914 219.44743,296.81671 C 225.82688,303.46426 232.07915,310.45704 232.57114,316.15306 C 233.21104,323.56174 226.38743,331.39228 219.6108,339.59296 C 212.83413,347.79366 206.16027,356.41542 208.44745,365.48877 C 210.35106,373.04034 219.07348,381.14626 226.30879,386.78365 C 231.26506,390.64535 237.73635,398.15832 242.80873,404.31695 L 204.41778,404.31695 C 205.48195,403.51281 205.93527,403.25838 207.35836,401.95429 C 208.67766,400.74534 209.97297,399.4387 210.84349,398.13055 C 211.71401,396.82239 212.29371,395.51386 211.60587,394.21354 C 206.15805,383.91494 192.62443,375.57703 192.43762,365.76857 C 192.21477,353.94539 198.29625,344.26258 204.52668,336.32879 C 210.75712,328.395 217.34923,322.34602 217.32368,317.14786 C 217.29001,309.9298 210.784,303.79286 204.52668,297.18974 C 198.26937,290.58665 192.14544,283.49815 191.89306,274.24725 C 191.62803,264.65315 198.13292,256.88006 205.01678,250.03015 C 211.90065,243.18025 219.34168,237.35908 219.82861,231.37771 C 220.19794,226.84078 216.03935,222.05671 211.71477,217.35729 C 207.39021,212.65786 202.79602,208.01356 201.64056,204.39385 C 199.14917,196.58916 200.05811,182.00264 204.79895,174.8608 C 209.31824,168.0527 214.94169,162.57932 221.51673,158.8508 C 228.09176,155.12227 235.52065,153.13072 244.0612,153.13072 z"
         id="path6429" />
      <path
         sodipodi:nodetypes="cssssssssssssssssssssssssssscc"
         id="path5586"
         d="M 246.27829,405.56102 C 241.06814,399.15379 233.73493,390.49606 228.05134,386.06766 C 220.91916,380.51062 212.38988,372.42525 210.59101,365.28918 C 206.2426,348.03893 236.10283,331.82651 234.74277,316.07988 C 233.68182,303.79633 208.88974,287.8198 208.39068,278.79609 C 207.56985,263.54033 237.34036,246.12095 236.94311,230.85979 C 236.60687,217.94352 208.0334,203.62359 209.5599,190.73531 C 211.48074,174.69503 224.04962,155.32569 245.03357,156.64726 C 257.53064,157.43432 271.80115,163.90463 271.80115,171.89875 C 271.80115,177.44428 267.45171,186.29676 250.32352,186.29676 C 236.74145,186.29676 233.06436,180.50301 231.96433,176.17686 C 230.90696,172.0184 237.98,165.34682 245.34477,165.34682 C 251.49563,165.34682 252.37905,170.09593 250.63471,171.73832 C 249.26632,173.02671 245.2162,167.47192 241.29953,170.31799 C 235.53264,174.5085 243.19569,176.53195 250.01235,176.53195 C 257.91296,176.53195 261.00694,171.60337 259.96989,168.89764 C 258.55859,165.21542 252.26107,161.51023 245.65595,161.44089 C 237.05078,161.35055 226.62408,166.72593 225.11853,171.56078 C 222.05657,181.39375 231.37964,191.09038 250.63471,191.09038 C 264.69091,191.09038 280.54623,182.41441 281.12965,174.40146 C 282.06315,161.40252 261.38715,151.88779 244.07797,151.88779 C 225.79628,151.88779 211.98058,160.579 202.7941,174.41802 C 197.75765,182.00519 196.93962,196.49647 199.52686,204.60142 C 202.06804,212.56215 218.30839,223.23588 217.65039,231.31886 C 216.77024,242.13035 189.17197,254.43521 189.72031,274.28399 C 190.24151,293.3892 215.09769,303.56627 215.16101,317.14514 C 215.20566,326.22526 189.78081,341.61265 190.2359,365.75807 C 190.43443,376.18224 204.31793,384.64401 209.5599,394.55342 C 211.32122,397.88308 200.22469,405.56102 200.22469,405.56102 L 246.27829,405.56102 z"
         style="fill:#008000;fill-rule:evenodd;stroke:#000000;stroke-width:1.316625px;stroke-linecap:butt;stroke-linejoin:miter;stroke-opacity:1" />
      <path
         transform="matrix(-1.7425681,0,0,0.994797,611.47078,1.952665)"
         sodipodi:nodetypes="cscsssssssssssssssssssssssssssssccc"
         id="path5634"
         d="M 210.84375,151.96875 C 206.27484,151.96875 201.08794,154.21597 197.15625,158.03125 C 193.22456,161.84653 190.56052,167.13506 190.8125,173.28125 C 190.96132,176.86162 193.13713,180.85986 196.28125,183.875 C 199.42537,186.89014 203.4764,188.875 207.0625,188.875 C 212.22311,188.875 215.86533,186.67287 218.15625,183.3125 C 220.44717,179.95213 221.32825,175.37782 220.5,170.71875 C 220.14037,168.69574 218.58299,166.27158 216.53125,164.46875 C 214.47951,162.66592 211.97546,161.5256 209.96875,161.5625 C 208.47261,161.59001 206.86991,162.35353 205.5625,163.59375 C 204.25509,164.83397 203.27863,166.50346 202.9375,168.0625 C 202.7288,169.01633 202.94751,170.72968 203.71875,172.03125 C 204.48999,173.33282 205.62337,174.25 207.4375,174.25 C 209.17817,174.25 211.03042,173.72095 211.8125,173.03125 C 212.20354,172.6864 212.37082,172.40886 212.375,172 C 212.37918,171.59114 212.1837,170.94128 211.46875,170.03125 C 211.0927,169.55259 211.12878,169.63231 211,169.65625 C 210.87122,169.68019 210.45088,169.93017 210.03125,170.3125 C 209.61162,170.69483 209.19237,171.15104 208.6875,171.5625 C 208.43507,171.76823 208.17938,172.00335 207.625,172.09375 C 207.07062,172.18415 206.27156,171.79162 206,171.34375 C 205.1764,169.9854 205.14416,168.19452 205.6875,166.46875 C 205.95917,165.60587 206.41971,164.7559 207.15625,164.09375 C 207.89279,163.4316 208.9311,163 210.09375,163 C 212.86158,163 215.17395,165.0352 216.78125,167.4375 C 218.38855,169.8398 219.37348,172.73949 219,175.3125 C 218.66754,177.60277 217.97568,180.35722 216.1875,182.625 C 214.39932,184.89278 211.45673,186.5625 207.25,186.5625 C 201.96141,186.5625 198.40495,184.04912 196.375,180.84375 C 194.34505,177.63838 193.68751,173.81511 193.6875,170.84375 C 193.6875,166.40551 195.93091,162.47364 199.0625,159.5625 C 202.19409,156.65136 206.25268,154.71189 210.15625,154.28125 C 213.50854,153.91142 216.57145,155.01513 219.15625,157.0625 C 229.98088,168.58302 226.73991,160.87084 223.78125,157.71875 C 220.00806,153.97073 215.74488,151.96875 210.84375,151.96875 z"
         style="opacity:0.9;fill:url(#linearGradient2476);fill-opacity:1;fill-rule:evenodd;stroke:none;stroke-width:1px;stroke-linecap:butt;stroke-linejoin:miter;stroke-opacity:1;filter:url(#filter6447)" />
      <path
         transform="matrix(-1.7425681,0,0,0.994797,611.47078,1.952665)"
         sodipodi:nodetypes="ccssscsssssccssscssscssssscc"
         style="opacity:0.7;fill:#74fd00;fill-opacity:1;fill-rule:evenodd;stroke:none;stroke-width:1px;stroke-linecap:butt;stroke-linejoin:miter;stroke-opacity:1;filter:url(#filter6435)"
         d="M 225.6875,165.53125 C 229.24879,172.46747 231.34483,181.47528 231.90625,189.6875 C 232.38147,196.71577 228.30231,203.71662 224.28125,210.5625 C 220.26019,217.40838 216.27632,224.14819 216.1875,230.125 C 216.08045,237.32869 220.13028,245.41055 224.3125,253.625 C 228.49472,261.83945 232.81258,270.17078 232.5625,278.3125 C 232.3996,283.4722 228.6297,289.72392 224.96875,296.40625 C 221.3078,303.08858 217.71983,310.11793 217.4375,315.84375 C 217.07028,323.29117 220.98611,331.16267 224.875,339.40625 C 228.76389,347.64983 232.59379,356.31669 231.28125,365.4375 C 230.18884,373.02857 225.18334,381.17687 221.03125,386.84375 C 218.18702,390.72565 214.47336,398.27792 211.5625,404.46875 L 233.59375,404.46875 C 232.98306,403.66042 232.72291,403.40465 231.90625,402.09375 C 231.14915,400.87847 230.40581,399.565 229.90625,398.25 C 229.40669,396.935 229.07402,395.61963 229.46875,394.3125 C 232.59506,383.96004 240.36155,375.57852 240.46875,365.71875 C 240.59663,353.83374 237.10668,344.10028 233.53125,336.125 C 229.95582,328.14972 226.17283,322.0691 226.1875,316.84375 C 226.20681,309.58794 229.94039,303.41889 233.53125,296.78125 C 237.12211,290.14361 240.63642,283.01803 240.78125,273.71875 C 240.93335,264.07447 237.20041,256.26073 233.25,249.375 C 229.29959,242.48927 225.02943,236.63766 224.75,230.625 C 224.53805,226.06434 226.92453,221.25525 229.40625,216.53125 C 231.88797,211.80725 234.52442,207.13865 235.1875,203.5 C 236.61722,195.65448 236.09561,180.99168 233.375,173.8125 C 230.78154,166.96879 227.55444,161.46677 223.78125,157.71875 C 221.68124,158.57148 223.25354,161.13009 225.6875,165.53125 z"
         id="path6419" />
      <path
         transform="matrix(-1.7425681,0,0,0.994797,611.47078,1.952665)"
         style="opacity:0.8;fill:#f1f3ee;fill-opacity:1;fill-rule:evenodd;stroke:none;stroke-width:1px;stroke-linecap:butt;stroke-linejoin:miter;stroke-opacity:1;filter:url(#filter6447)"
         d="M 210.90688,151.46367 C 206.33797,151.46367 202.35063,153.20581 197.59819,156.95796 C 195.6872,160.15081 196.7541,159.67811 199.18876,157.98413 C 205.03514,153.87344 206.44207,153.76487 210.28251,152.76601 C 214.80704,153.4593 217.95117,152.85703 210.90688,151.46367 z"
         id="path6682"
         sodipodi:nodetypes="ccccc" />
      <path
         transform="matrix(1.7425681,0,0,0.994797,-120.9174,2.1303615)"
         style="opacity:0.8;fill:#f1f3ee;fill-opacity:1;fill-rule:evenodd;stroke:none;stroke-width:1px;stroke-linecap:butt;stroke-linejoin:miter;stroke-opacity:1;filter:url(#filter6770)"
         d="M 209.61161,161.29464 C 208.11547,161.32215 206.51277,162.08567 205.20536,163.32589 C 203.6876,164.94408 204.61426,167.77134 205.0625,165.84375 C 205.33417,164.98087 206.06257,164.48804 206.79911,163.82589 C 207.53565,163.16374 208.57396,162.73214 209.73661,162.73214 C 211.22614,163.29574 214.58552,161.6766 209.61161,161.29464 z"
         id="path6684"
         sodipodi:nodetypes="cccscc" />
      <path
         sodipodi:nodetypes="cscssscscc"
         id="path6989"
         d="M 228.04973,296.07987 C 224.41439,302.71546 221.21805,311.23568 220.98467,315.96875 C 220.67292,322.29129 223.23747,329.76598 227.0625,337.875 C 227.71976,338.63322 228.42018,339.32233 229.03125,339.75 C 229.64059,340.17646 230.02955,340.26689 230.0625,340.28125 C 230.07108,340.24481 230.0486,340.26685 230.125,340.125 C 230.35999,339.68868 230.66234,338.29801 230.8125,336.53125 C 227.39554,329.08671 223.54482,323.14163 223.5625,316.84375 C 223.58421,308.68626 227.82025,301.38289 231.37244,294.81674 C 241.42827,271.73216 238.14338,278.2275 228.04973,296.07987 z"
         style="opacity:0.7;fill:url(#linearGradient2478);fill-opacity:1;fill-rule:evenodd;stroke:none;stroke-width:1px;stroke-linecap:butt;stroke-linejoin:miter;stroke-opacity:1;filter:url(#filter7011)"
         transform="matrix(1.7425681,0,0,0.994797,-192.96636,-41.938203)" />
      <path
         sodipodi:nodetypes="ccccccc"
         id="path7259"
         d="M 216.5,182.84375 C 216.48959,182.84419 216.47916,182.84419 216.46875,182.84375 C 214.61277,185.19751 211.55504,186.9375 207.25,186.9375 C 198.43673,185.86546 201.95025,187.59472 207.09375,188.00893 C 212.11213,187.99984 215.58593,186.36844 217.8125,183.125 C 217.81685,183.11156 217.83959,183.1071 217.84375,183.09375 C 219.22327,179.18585 218.56828,179.52805 216.5,182.84375 z"
         style="opacity:0.5;fill:#f1f3ee;fill-opacity:1;fill-rule:evenodd;stroke:none;stroke-width:1px;stroke-linecap:butt;stroke-linejoin:miter;stroke-opacity:1;filter:url(#filter7255)"
         transform="matrix(1.7425681,0,0,0.994797,-110.48037,1.1532745)" />
      <path
         transform="matrix(1.7425681,0,0,0.994797,-180.29802,46.364159)"
         d="M 230.5625,207.40625 C 229.24131,208.99228 227.87862,210.68314 226.875,212.09375 C 222.85118,218.94432 219.25705,225.47592 219.1875,230.15625 C 219.10174,235.92707 222.53149,243.39542 226.46875,251.1875 C 228.51229,251.90064 230.3802,252.54878 231.71875,252.9375 C 231.35281,252.22303 231.31279,251.95705 230.6875,250.9375 C 230.67684,250.91679 230.66642,250.89595 230.65625,250.875 C 226.80492,244.16198 222.09091,238.08556 221.75,230.75 C 221.48514,225.05083 224.24673,219.89002 226.75,215.125 C 228.21041,212.34509 229.50696,209.75369 230.5625,207.40625 z"
         id="path7270"
         style="opacity:0.3;fill:url(#linearGradient2480);fill-opacity:1;fill-rule:evenodd;stroke:none;stroke-width:1px;stroke-linecap:butt;stroke-linejoin:miter;stroke-opacity:1;filter:url(#filter7347)"
         inkscape:original="M 234.40625 200.34375 C 232.34412 199.91673 227.08944 206.592 224.28125 210.5625 C 220.26019 217.40838 216.27632 224.14819 216.1875 230.125 C 216.08045 237.32869 220.13028 245.41055 224.3125 253.625 C 235.61094 257.59946 238.90801 258.60048 233.25 249.375 C 229.29959 242.48927 225.02943 236.63766 224.75 230.625 C 224.53805 226.06434 226.92453 221.25525 229.40625 216.53125 C 231.88797 211.80725 234.52442 207.13865 235.1875 203.5 C 235.41451 201.41544 235.09363 200.48609 234.40625 200.34375 z "
         inkscape:radius="-2.9938107"
         sodipodi:type="inkscape:offset" />
      <path
         sodipodi:nodetypes="cscsscssscc"
         id="path7357"
         d="M 227.3125,298.09375 C 223.74728,304.62884 220.50732,311.38397 220.28125,315.96875 C 219.96774,322.32695 223.5324,329.90955 227.4375,338.1875 C 227.60769,338.53914 227.70344,338.92214 227.71875,339.3125 C 227.73813,339.96167 228.28981,341.21801 229.28125,342.25 C 230.27269,343.28199 231.65065,344.0147 232.25,344.125 C 232.39158,343.50728 232.34512,341.17292 230.875,337.1875 C 230.86665,337.16896 230.88335,337.14353 230.875,337.125 C 227.40111,329.41971 223.32535,323.39782 223.34375,316.84375 C 223.36564,308.61887 227.48195,301.99831 231.03125,295.4375 C 233.8901,291.40439 235.39992,287.7394 227.3125,298.09375 z"
         style="opacity:0.3;fill:url(#linearGradient2482);fill-opacity:1;fill-rule:evenodd;stroke:none;stroke-width:1px;stroke-linecap:butt;stroke-linejoin:miter;stroke-opacity:1;filter:url(#filter7383)"
         transform="matrix(-1.7425681,0,0,0.994797,617.03163,1.9527734)" />
      <path
         sodipodi:nodetypes="cscssscscc"
         id="path2533"
         d="M 227.89603,291.97147 C 224.26069,298.60706 222.29392,311.05705 222.06054,315.79012 C 221.74879,322.11266 223.23747,329.76598 227.0625,337.875 C 227.71976,338.63322 228.42018,339.32233 229.03125,339.75 C 229.64059,340.17646 230.02955,340.26689 230.0625,340.28125 C 230.07108,340.24481 230.0486,340.26685 230.125,340.125 C 230.35999,339.68868 230.66234,338.29801 230.8125,336.53125 C 227.39554,329.08671 224.1596,323.14163 224.17728,316.84375 C 224.19899,308.68626 227.05177,295.66686 230.60396,289.10071 C 234.35827,284.4146 232.14925,285.55116 227.89603,291.97147 z"
         style="opacity:0.7;fill:url(#linearGradient2484);fill-opacity:1;fill-rule:evenodd;stroke:none;stroke-width:1px;stroke-linecap:butt;stroke-linejoin:miter;stroke-opacity:1;filter:url(#filter7011)"
         transform="matrix(1.7425681,0,0,0.994797,-186.43813,-123.4292)" />
      <path
         sodipodi:nodetypes="cscsscssscc"
         id="path2537"
         d="M 227.3125,298.09375 C 223.74728,304.62884 220.50732,311.38397 220.28125,315.96875 C 219.96774,322.32695 223.5324,329.90955 227.4375,338.1875 C 227.60769,338.53914 227.70344,338.92214 227.71875,339.3125 C 227.73813,339.96167 228.28981,341.21801 229.28125,342.25 C 230.27269,343.28199 231.65065,344.0147 232.25,344.125 C 232.39158,343.50728 232.34512,341.17292 230.875,337.1875 C 230.86665,337.16896 230.88335,337.14353 230.875,337.125 C 227.40111,329.41971 223.32535,323.39782 223.34375,316.84375 C 223.36564,308.61887 227.48195,301.99831 231.03125,295.4375 C 233.8901,291.40439 235.39992,287.7394 227.3125,298.09375 z"
         style="opacity:0.3;fill:url(#linearGradient2486);fill-opacity:1;fill-rule:evenodd;stroke:none;stroke-width:1px;stroke-linecap:butt;stroke-linejoin:miter;stroke-opacity:1;filter:url(#filter7383)"
         transform="matrix(-1.7425681,0,0,0.994797,618.62465,-83.034751)" />
      <path
         sodipodi:nodetypes="cscssscscc"
         id="path2473"
         d="M 228.04973,296.07987 C 224.41439,302.71546 221.21805,311.23568 220.98467,315.96875 C 220.67292,322.29129 223.23747,329.76598 227.0625,337.875 C 227.71976,338.63322 228.42018,339.32233 229.03125,339.75 C 229.64059,340.17646 230.02955,340.26689 230.0625,340.28125 C 230.07108,340.24481 230.0486,340.26685 230.125,340.125 C 230.35999,339.68868 230.66234,338.29801 230.8125,336.53125 C 227.39554,329.08671 223.54482,323.14163 223.5625,316.84375 C 223.58421,308.68626 227.82025,301.38289 231.37244,294.81674 C 241.42827,271.73216 238.14338,278.2275 228.04973,296.07987 z"
         style="opacity:0.7;fill:url(#linearGradient2488);fill-opacity:1;fill-rule:evenodd;stroke:none;stroke-width:1px;stroke-linecap:butt;stroke-linejoin:miter;stroke-opacity:1;filter:url(#filter7011)"
         transform="matrix(1.7353927,-0.1579734,9.0183827e-2,0.9907007,-220.25977,84.541163)" />
      <path
         transform="matrix(1.7323573,-0.1883657,0.1075342,0.9889679,-201.75152,176.46465)"
         d="M 230.5625,207.40625 C 229.24131,208.99228 227.87862,210.68314 226.875,212.09375 C 222.85118,218.94432 219.25705,225.47592 219.1875,230.15625 C 219.10174,235.92707 222.53149,243.39542 226.46875,251.1875 C 228.51229,251.90064 230.3802,252.54878 231.71875,252.9375 C 231.35281,252.22303 231.31279,251.95705 230.6875,250.9375 C 230.67684,250.91679 230.66642,250.89595 230.65625,250.875 C 226.80492,244.16198 222.09091,238.08556 221.75,230.75 C 221.48514,225.05083 224.24673,219.89002 226.75,215.125 C 228.21041,212.34509 229.50696,209.75369 230.5625,207.40625 z"
         id="path2477"
         style="opacity:0.3;fill:url(#linearGradient2490);fill-opacity:1;fill-rule:evenodd;stroke:none;stroke-width:1px;stroke-linecap:butt;stroke-linejoin:miter;stroke-opacity:1;filter:url(#filter7347)"
         inkscape:original="M 234.40625 200.34375 C 232.34412 199.91673 227.08944 206.592 224.28125 210.5625 C 220.26019 217.40838 216.27632 224.14819 216.1875 230.125 C 216.08045 237.32869 220.13028 245.41055 224.3125 253.625 C 235.61094 257.59946 238.90801 258.60048 233.25 249.375 C 229.29959 242.48927 225.02943 236.63766 224.75 230.625 C 224.53805 226.06434 226.92453 221.25525 229.40625 216.53125 C 231.88797 211.80725 234.52442 207.13865 235.1875 203.5 C 235.41451 201.41544 235.09363 200.48609 234.40625 200.34375 z "
         inkscape:radius="-2.9938107"
         sodipodi:type="inkscape:offset" />
    </g>
  </g>
</svg>
