<?xml version="1.0" encoding="UTF-8" standalone="no"?>
<!-- Created with Inkscape (http://www.inkscape.org/) -->
<svg
   xmlns:dc="http://purl.org/dc/elements/1.1/"
   xmlns:cc="http://creativecommons.org/ns#"
   xmlns:rdf="http://www.w3.org/1999/02/22-rdf-syntax-ns#"
   xmlns:svg="http://www.w3.org/2000/svg"
   xmlns="http://www.w3.org/2000/svg"
   xmlns:xlink="http://www.w3.org/1999/xlink"
   xmlns:sodipodi="http://sodipodi.sourceforge.net/DTD/sodipodi-0.dtd"
   xmlns:inkscape="http://www.inkscape.org/namespaces/inkscape"
   width="128"
   height="256"
   id="svg2"
   sodipodi:version="0.32"
   inkscape:version="0.46"
   version="1.0"
   sodipodi:docname="beanstalk_2.svg"
   inkscape:output_extension="org.inkscape.output.svg.inkscape"
   inkscape:export-filename="D:\Dateien\Desktop\Secret Maryo Chronicles\SMC\data\pixmaps\ground\jungle_1\beanstalk_2.png"
   inkscape:export-xdpi="180"
   inkscape:export-ydpi="180">
  <defs
     id="defs4">
    <linearGradient
       inkscape:collect="always"
       id="linearGradient7480">
      <stop
         style="stop-color:#74fd00;stop-opacity:1;"
         offset="0"
         id="stop7482" />
      <stop
         style="stop-color:#74fd00;stop-opacity:0;"
         offset="1"
         id="stop7484" />
    </linearGradient>
    <linearGradient
       inkscape:collect="always"
       id="linearGradient7282">
      <stop
         style="stop-color:#1a1a1a;stop-opacity:1;"
         offset="0"
         id="stop7284" />
      <stop
         style="stop-color:#1a1a1a;stop-opacity:0;"
         offset="1"
         id="stop7286" />
    </linearGradient>
    <linearGradient
       id="linearGradient6908">
      <stop
         style="stop-color:#f1f3ee;stop-opacity:1;"
         offset="0"
         id="stop6910" />
      <stop
         style="stop-color:#f1f3ee;stop-opacity:0;"
         offset="1"
         id="stop6912" />
    </linearGradient>
    <linearGradient
       id="linearGradient6614">
      <stop
         style="stop-color:#73e073;stop-opacity:1;"
         offset="0"
         id="stop6616" />
      <stop
         style="stop-color:#1c7d1c;stop-opacity:1;"
         offset="1"
         id="stop6618" />
    </linearGradient>
    <linearGradient
       id="linearGradient6556">
      <stop
         style="stop-color:#74fd00;stop-opacity:1;"
         offset="0"
         id="stop6558" />
      <stop
         style="stop-color:#008000;stop-opacity:1;"
         offset="1"
         id="stop6560" />
    </linearGradient>
    <linearGradient
       id="linearGradient6451">
      <stop
         style="stop-color:#59ea3d;stop-opacity:1;"
         offset="0"
         id="stop6453" />
      <stop
         style="stop-color:#59ea3d;stop-opacity:0;"
         offset="1"
         id="stop6455" />
    </linearGradient>
    <inkscape:perspective
       sodipodi:type="inkscape:persp3d"
       inkscape:vp_x="0 : 526.18109 : 1"
       inkscape:vp_y="0 : 1000 : 0"
       inkscape:vp_z="744.09448 : 526.18109 : 1"
       inkscape:persp3d-origin="372.04724 : 350.78739 : 1"
       id="perspective10" />
    <inkscape:perspective
       id="perspective4042"
       inkscape:persp3d-origin="372.04724 : 350.78739 : 1"
       inkscape:vp_z="744.09448 : 526.18109 : 1"
       inkscape:vp_y="0 : 1000 : 0"
       inkscape:vp_x="0 : 526.18109 : 1"
       sodipodi:type="inkscape:persp3d" />
    <inkscape:perspective
       id="perspective4455"
       inkscape:persp3d-origin="372.04724 : 350.78739 : 1"
       inkscape:vp_z="744.09448 : 526.18109 : 1"
       inkscape:vp_y="0 : 1000 : 0"
       inkscape:vp_x="0 : 526.18109 : 1"
       sodipodi:type="inkscape:persp3d" />
    <inkscape:perspective
       id="perspective5560"
       inkscape:persp3d-origin="372.04724 : 350.78739 : 1"
       inkscape:vp_z="744.09448 : 526.18109 : 1"
       inkscape:vp_y="0 : 1000 : 0"
       inkscape:vp_x="0 : 526.18109 : 1"
       sodipodi:type="inkscape:persp3d" />
    <filter
       inkscape:collect="always"
       id="filter6435"
       x="-0.11332345"
       width="1.2266469"
       y="-0.013421191"
       height="1.0268424">
      <feGaussianBlur
         inkscape:collect="always"
         stdDeviation="1.3798662"
         id="feGaussianBlur6437" />
    </filter>
    <filter
       inkscape:collect="always"
       id="filter6447">
      <feGaussianBlur
         inkscape:collect="always"
         stdDeviation="0.55476248"
         id="feGaussianBlur6449" />
    </filter>
    <linearGradient
       inkscape:collect="always"
       xlink:href="#linearGradient6556"
       id="linearGradient6457"
       x1="202.256"
       y1="158.30005"
       x2="224.7319"
       y2="192.93614"
       gradientUnits="userSpaceOnUse" />
    <linearGradient
       inkscape:collect="always"
       xlink:href="#linearGradient6556"
       id="linearGradient6562"
       x1="88.388351"
       y1="18.614151"
       x2="87.596207"
       y2="45.888275"
       gradientUnits="userSpaceOnUse" />
    <linearGradient
       inkscape:collect="always"
       xlink:href="#linearGradient6556"
       id="linearGradient6566"
       gradientUnits="userSpaceOnUse"
       x1="80.415451"
       y1="23.531212"
       x2="89.363976"
       y2="48.792465" />
    <filter
       inkscape:collect="always"
       id="filter6582">
      <feGaussianBlur
         inkscape:collect="always"
         stdDeviation="0.22508699"
         id="feGaussianBlur6584" />
    </filter>
    <filter
       inkscape:collect="always"
       id="filter6606">
      <feGaussianBlur
         inkscape:collect="always"
         stdDeviation="0.47226563"
         id="feGaussianBlur6608" />
    </filter>
    <linearGradient
       inkscape:collect="always"
       xlink:href="#linearGradient6614"
       id="linearGradient6620"
       x1="95"
       y1="34.377186"
       x2="97.14286"
       y2="39.928574"
       gradientUnits="userSpaceOnUse" />
    <filter
       inkscape:collect="always"
       id="filter6622">
      <feGaussianBlur
         inkscape:collect="always"
         stdDeviation="0.2055769"
         id="feGaussianBlur6624" />
    </filter>
    <filter
       inkscape:collect="always"
       id="filter6770"
       x="-0.15048183"
       width="1.3009637"
       y="-0.22767597"
       height="1.4553519">
      <feGaussianBlur
         inkscape:collect="always"
         stdDeviation="0.4930902"
         id="feGaussianBlur6772" />
    </filter>
    <filter
       inkscape:collect="always"
       id="filter6892"
       x="-0.23312316"
       width="1.4662463"
       y="-0.30594253"
       height="1.6118851">
      <feGaussianBlur
         inkscape:collect="always"
         stdDeviation="0.29156971"
         id="feGaussianBlur6894" />
    </filter>
    <filter
       inkscape:collect="always"
       id="filter6896">
      <feGaussianBlur
         inkscape:collect="always"
         stdDeviation="0.70878942"
         id="feGaussianBlur6898" />
    </filter>
    <linearGradient
       inkscape:collect="always"
       xlink:href="#linearGradient6908"
       id="linearGradient6914"
       x1="218.74834"
       y1="225.51169"
       x2="225.67203"
       y2="249.12402"
       gradientUnits="userSpaceOnUse" />
    <filter
       inkscape:collect="always"
       id="filter6932"
       x="-0.12067899"
       width="1.241358"
       y="-0.029957861"
       height="1.0599157">
      <feGaussianBlur
         inkscape:collect="always"
         stdDeviation="0.69628622"
         id="feGaussianBlur6934" />
    </filter>
    <filter
       inkscape:collect="always"
       id="filter7011"
       x="-0.11231964"
       width="1.2246393"
       y="-0.030521768"
       height="1.0610435">
      <feGaussianBlur
         inkscape:collect="always"
         stdDeviation="0.84769441"
         id="feGaussianBlur7013" />
    </filter>
    <filter
       inkscape:collect="always"
       id="filter7088">
      <feGaussianBlur
         inkscape:collect="always"
         stdDeviation="0.5670098"
         id="feGaussianBlur7090" />
    </filter>
    <linearGradient
       inkscape:collect="always"
       xlink:href="#linearGradient6556"
       id="linearGradient7117"
       gradientUnits="userSpaceOnUse"
       x1="88.388351"
       y1="18.614151"
       x2="87.596207"
       y2="45.888275" />
    <linearGradient
       inkscape:collect="always"
       xlink:href="#linearGradient6556"
       id="linearGradient7119"
       gradientUnits="userSpaceOnUse"
       x1="80.415451"
       y1="23.531212"
       x2="89.363976"
       y2="48.792465" />
    <linearGradient
       inkscape:collect="always"
       xlink:href="#linearGradient6614"
       id="linearGradient7121"
       gradientUnits="userSpaceOnUse"
       x1="95"
       y1="34.377186"
       x2="97.14286"
       y2="39.928574" />
    <linearGradient
       inkscape:collect="always"
       xlink:href="#linearGradient6556"
       id="linearGradient7139"
       gradientUnits="userSpaceOnUse"
       x1="88.388351"
       y1="18.614151"
       x2="87.596207"
       y2="45.888275" />
    <linearGradient
       inkscape:collect="always"
       xlink:href="#linearGradient6556"
       id="linearGradient7141"
       gradientUnits="userSpaceOnUse"
       x1="80.415451"
       y1="23.531212"
       x2="89.363976"
       y2="48.792465" />
    <linearGradient
       inkscape:collect="always"
       xlink:href="#linearGradient6614"
       id="linearGradient7143"
       gradientUnits="userSpaceOnUse"
       x1="95"
       y1="34.377186"
       x2="97.14286"
       y2="39.928574" />
    <linearGradient
       inkscape:collect="always"
       xlink:href="#linearGradient6556"
       id="linearGradient7167"
       gradientUnits="userSpaceOnUse"
       x1="88.388351"
       y1="18.614151"
       x2="87.596207"
       y2="45.888275" />
    <linearGradient
       inkscape:collect="always"
       xlink:href="#linearGradient6556"
       id="linearGradient7169"
       gradientUnits="userSpaceOnUse"
       x1="80.415451"
       y1="23.531212"
       x2="89.363976"
       y2="48.792465" />
    <linearGradient
       inkscape:collect="always"
       xlink:href="#linearGradient6614"
       id="linearGradient7171"
       gradientUnits="userSpaceOnUse"
       x1="95"
       y1="34.377186"
       x2="97.14286"
       y2="39.928574" />
    <linearGradient
       inkscape:collect="always"
       xlink:href="#linearGradient6556"
       id="linearGradient7211"
       gradientUnits="userSpaceOnUse"
       x1="88.388351"
       y1="18.614151"
       x2="87.596207"
       y2="45.888275" />
    <linearGradient
       inkscape:collect="always"
       xlink:href="#linearGradient6556"
       id="linearGradient7213"
       gradientUnits="userSpaceOnUse"
       x1="80.415451"
       y1="23.531212"
       x2="89.363976"
       y2="48.792465" />
    <linearGradient
       inkscape:collect="always"
       xlink:href="#linearGradient6614"
       id="linearGradient7215"
       gradientUnits="userSpaceOnUse"
       x1="95"
       y1="34.377186"
       x2="97.14286"
       y2="39.928574" />
    <filter
       inkscape:collect="always"
       id="filter7255"
       x="-0.042650689"
       width="1.0853014"
       y="-0.10114237"
       height="1.2022847">
      <feGaussianBlur
         inkscape:collect="always"
         stdDeviation="0.32150321"
         id="feGaussianBlur7257" />
    </filter>
    <linearGradient
       inkscape:collect="always"
       xlink:href="#linearGradient7282"
       id="linearGradient7288"
       x1="223.32144"
       y1="231.07646"
       x2="229.5491"
       y2="240.71933"
       gradientUnits="userSpaceOnUse" />
    <filter
       inkscape:collect="always"
       id="filter7347"
       x="-0.1389888"
       width="1.2779776"
       y="-0.038257729"
       height="1.0765155">
      <feGaussianBlur
         inkscape:collect="always"
         stdDeviation="0.72580093"
         id="feGaussianBlur7349" />
    </filter>
    <filter
       inkscape:collect="always"
       id="filter7383"
       x="-0.15418526"
       width="1.3083705"
       y="-0.037247237"
       height="1.0744945">
      <feGaussianBlur
         inkscape:collect="always"
         stdDeviation="0.77355915"
         id="feGaussianBlur7385" />
    </filter>
    <linearGradient
       inkscape:collect="always"
       xlink:href="#linearGradient7282"
       id="linearGradient7388"
       gradientUnits="userSpaceOnUse"
       x1="223.50002"
       y1="317.32648"
       x2="224.15085"
       y2="333.20566" />
    <linearGradient
       inkscape:collect="always"
       xlink:href="#linearGradient6908"
       id="linearGradient7390"
       gradientUnits="userSpaceOnUse"
       x1="220.04306"
       y1="308.04074"
       x2="217.72011"
       y2="334.7254" />
    <linearGradient
       inkscape:collect="always"
       xlink:href="#linearGradient6908"
       id="linearGradient7392"
       gradientUnits="userSpaceOnUse"
       x1="226.03648"
       y1="378.42355"
       x2="218.90228"
       y2="400.02774" />
    <filter
       inkscape:collect="always"
       id="filter7427">
      <feGaussianBlur
         inkscape:collect="always"
         stdDeviation="0.76617425"
         id="feGaussianBlur7429" />
    </filter>
    <filter
       inkscape:collect="always"
       id="filter7476">
      <feGaussianBlur
         inkscape:collect="always"
         stdDeviation="0.38476563"
         id="feGaussianBlur7478" />
    </filter>
    <linearGradient
       inkscape:collect="always"
       xlink:href="#linearGradient7480"
       id="linearGradient7511"
       gradientUnits="userSpaceOnUse"
       x1="80.805801"
       y1="264.46875"
       x2="91.1875"
       y2="279.64789" />
    <linearGradient
       inkscape:collect="always"
       xlink:href="#linearGradient7480"
       id="linearGradient7521"
       gradientUnits="userSpaceOnUse"
       x1="80.805801"
       y1="264.46875"
       x2="91.1875"
       y2="279.64789" />
    <linearGradient
       inkscape:collect="always"
       xlink:href="#linearGradient7480"
       id="linearGradient7531"
       gradientUnits="userSpaceOnUse"
       x1="80.805801"
       y1="264.46875"
       x2="91.1875"
       y2="279.64789" />
    <linearGradient
       inkscape:collect="always"
       xlink:href="#linearGradient6556"
       id="linearGradient7549"
       gradientUnits="userSpaceOnUse"
       x1="88.388351"
       y1="18.614151"
       x2="87.596207"
       y2="45.888275" />
    <linearGradient
       inkscape:collect="always"
       xlink:href="#linearGradient6556"
       id="linearGradient7551"
       gradientUnits="userSpaceOnUse"
       x1="80.415451"
       y1="23.531212"
       x2="89.363976"
       y2="48.792465" />
    <linearGradient
       inkscape:collect="always"
       xlink:href="#linearGradient6614"
       id="linearGradient7553"
       gradientUnits="userSpaceOnUse"
       x1="95"
       y1="34.377186"
       x2="97.14286"
       y2="39.928574" />
  </defs>
  <sodipodi:namedview
     id="base"
     pagecolor="#000000"
     bordercolor="#666666"
     borderopacity="1.0"
     gridtolerance="10000"
     guidetolerance="10"
     objecttolerance="10"
     inkscape:pageopacity="0"
     inkscape:pageshadow="2"
     inkscape:zoom="1.4"
     inkscape:cx="88.866167"
     inkscape:cy="127.75636"
     inkscape:document-units="px"
     inkscape:current-layer="layer1"
     showgrid="false"
     inkscape:window-width="1152"
     inkscape:window-height="808"
     inkscape:window-x="72"
     inkscape:window-y="102" />
  <metadata
     id="metadata7">
    <rdf:RDF>
      <cc:Work
         rdf:about="">
        <dc:format>image/svg+xml</dc:format>
        <dc:type
           rdf:resource="http://purl.org/dc/dcmitype/StillImage" />
      </cc:Work>
    </rdf:RDF>
  </metadata>
  <g
     inkscape:label="Layer 1"
     inkscape:groupmode="layer"
     id="layer1"
     transform="translate(-164.57144,-150.07646)">
    <g
       id="g7092">
      <path
         sodipodi:nodetypes="ccc"
         transform="translate(164.57144,150.07646)"
         id="path6461"
         d="M 121.36624,17.037646 C 122.45779,41.557728 98.254922,68.560712 70.45814,49.928881 C 82.636458,11.448612 96.050712,37.646843 121.36624,17.037646 z"
         style="fill:url(#linearGradient6562);fill-rule:evenodd;stroke:none;stroke-width:1px;stroke-linecap:butt;stroke-linejoin:miter;stroke-opacity:1;fill-opacity:1" />
      <path
         sodipodi:nodetypes="csscc"
         id="path6529"
         d="M 119.5625,20.53125 C 107.86357,28.73155 98.291908,27.788648 91.1875,28.53125 C 87.339989,28.933419 84.259713,29.756319 81.21875,32.71875 C 78.3352,35.527833 75.473161,40.574347 72.625,49.15625 C 81.58827,19.227114 110.82483,33.871613 119.5625,20.53125 z"
         style="fill:#f1f3ee;fill-opacity:1;fill-rule:evenodd;stroke:none;stroke-width:1px;stroke-linecap:butt;stroke-linejoin:miter;stroke-opacity:1;opacity:0.8;filter:url(#filter6606)"
         transform="translate(164.30358,149.27289)" />
      <path
         transform="translate(164.57144,150.07646)"
         style="fill:url(#linearGradient6566);fill-rule:evenodd;stroke:none;stroke-width:1px;stroke-linecap:butt;stroke-linejoin:miter;stroke-opacity:1;fill-opacity:1;filter:url(#filter6582)"
         d="M 121.36624,17.037646 C 122.45779,41.557728 98.254922,68.560712 70.45814,49.928881 C 90.086333,35.060928 108.04627,42.445068 121.36624,17.037646 z"
         id="path6564"
         sodipodi:nodetypes="ccc" />
      <path
         sodipodi:nodetypes="ccccsccscsscccscccccccccccccccc"
         transform="translate(164.57144,150.07646)"
         id="path6459"
         d="M 71.067712,48.386422 C 73.310687,46.656284 80.14042,44.473785 80.885743,43.251178 C 81.73072,40.084446 82.370481,35.461667 84.464286,32.607142 C 83.65783,34.977212 81.172536,43.14741 83.658086,41.833439 C 84.96761,41.395929 88.14944,41.769923 88.533676,39.85832 C 89.091363,37.083788 89.884772,31.892856 93.571429,28.857142 C 91.829373,30.645768 87.852019,40.237812 90.979515,38.767086 C 93.468341,38.020052 96.499843,37.6727 97.427891,35.698877 C 99.001429,32.352192 101.45562,28.92502 103.57143,27.071428 C 102.28566,29.295613 97.352486,35.348115 99.565177,35.6376 C 100.8,35.799151 105.38532,33.958088 105.53571,33.343092 C 106.35055,30.010927 107.66985,28.938904 108.75,27.25 C 108.35266,29.207036 106.11202,31.538602 107.25644,32.76405 C 112.67492,29.559988 117.65855,22.321383 120.76713,18.111514 C 118.85764,24.687937 110.39476,33.47379 107.76064,34.067287 C 106.22026,34.414353 108.03847,36.315031 111.8016,38.190933 C 109.97793,38.575457 105.7981,35.997908 105.83243,34.88731 C 104.62453,35.046777 102.03323,37.191506 100.27389,37.399792 C 99.131559,38.646946 104.68168,40.76225 105.98106,42.619833 C 103.50861,40.911942 98.871359,40.078953 97.891179,38.072608 C 96.410287,38.420404 95.333818,40.107737 91.794688,40.657405 C 92.873093,44.767796 98.456231,45.417452 102.25644,48.334119 C 97.733384,45.974449 93.643065,45.332067 90.315672,41.328363 C 88.465292,43.098653 86.673051,42.959915 84.318211,43.216823 C 84.369175,46.330466 89.00287,48.126315 91.785714,50.642857 C 88.391849,48.825529 84.464222,48.05979 82.41706,44.297225 L 77.898613,46.734091 C 78.715356,48.148807 81.109728,49.500829 82.678572,50.464285 C 80.446047,50.257097 78.078783,49.128302 76.313135,47.520485 L 71.572788,50.642857 L 71.067712,48.386422 z"
         style="fill:url(#linearGradient6620);fill-rule:evenodd;stroke:none;stroke-width:1px;stroke-linecap:butt;stroke-linejoin:miter;stroke-opacity:1;fill-opacity:1;filter:url(#filter6622)" />
      <path
         style="fill:none;fill-rule:evenodd;stroke:#000000;stroke-width:1px;stroke-linecap:butt;stroke-linejoin:miter;stroke-opacity:1;fill-opacity:1"
         d="M 121.36624,17.037646 C 122.45779,41.557728 98.254922,68.560712 70.45814,49.928881 C 82.636458,11.448612 96.050712,37.646843 121.36624,17.037646 z"
         id="path6568"
         transform="translate(164.57144,150.07646)"
         sodipodi:nodetypes="ccc" />
      <path
         transform="translate(164.57144,150.07646)"
         sodipodi:nodetypes="ccc"
         id="path6626"
         d="M 121.36624,17.037646 C 122.45779,41.557728 98.254922,68.560712 70.45814,49.928881 C 82.636458,11.448612 96.050712,37.646843 121.36624,17.037646 z"
         style="fill:none;fill-rule:evenodd;stroke:#000000;stroke-width:1px;stroke-linecap:butt;stroke-linejoin:miter;stroke-opacity:1;fill-opacity:1" />
      <path
         sodipodi:nodetypes="ccc"
         id="path6630"
         d="M 120.15625,20.96875 C 112.65013,54.124461 96.472189,54.956339 72.65625,49.90625 C 96.862214,63.399563 116.55016,44.977721 120.15625,20.96875 z"
         style="fill:#1a1a1a;fill-opacity:1;fill-rule:evenodd;stroke:none;stroke-width:1px;stroke-linecap:butt;stroke-linejoin:miter;stroke-opacity:1;opacity:0.29999999999999999;filter:url(#filter6896)"
         transform="translate(164.57144,150.07646)" />
    </g>
    <g
       id="g7101"
       transform="translate(4.7041332,75)">
      <path
         style="fill:url(#linearGradient7117);fill-opacity:1;fill-rule:evenodd;stroke:none;stroke-width:1px;stroke-linecap:butt;stroke-linejoin:miter;stroke-opacity:1"
         d="M 121.36624,17.037646 C 122.45779,41.557728 98.254922,68.560712 70.45814,49.928881 C 82.636458,11.448612 96.050712,37.646843 121.36624,17.037646 z"
         id="path7103"
         transform="translate(164.57144,150.07646)"
         sodipodi:nodetypes="ccc" />
      <path
         transform="translate(164.30358,149.27289)"
         style="opacity:0.8;fill:#f1f3ee;fill-opacity:1;fill-rule:evenodd;stroke:none;stroke-width:1px;stroke-linecap:butt;stroke-linejoin:miter;stroke-opacity:1;filter:url(#filter6606)"
         d="M 119.5625,20.53125 C 107.86357,28.73155 98.291908,27.788648 91.1875,28.53125 C 87.339989,28.933419 84.259713,29.756319 81.21875,32.71875 C 78.3352,35.527833 75.473161,40.574347 72.625,49.15625 C 81.58827,19.227114 110.82483,33.871613 119.5625,20.53125 z"
         id="path7105"
         sodipodi:nodetypes="csscc" />
      <path
         sodipodi:nodetypes="ccc"
         id="path7107"
         d="M 121.36624,17.037646 C 122.45779,41.557728 98.254922,68.560712 70.45814,49.928881 C 90.086333,35.060928 108.04627,42.445068 121.36624,17.037646 z"
         style="fill:url(#linearGradient7119);fill-opacity:1;fill-rule:evenodd;stroke:none;stroke-width:1px;stroke-linecap:butt;stroke-linejoin:miter;stroke-opacity:1;filter:url(#filter6582)"
         transform="translate(164.57144,150.07646)" />
      <path
         style="fill:url(#linearGradient7121);fill-opacity:1;fill-rule:evenodd;stroke:none;stroke-width:1px;stroke-linecap:butt;stroke-linejoin:miter;stroke-opacity:1;filter:url(#filter6622)"
         d="M 71.067712,48.386422 C 73.310687,46.656284 80.14042,44.473785 80.885743,43.251178 C 81.73072,40.084446 82.370481,35.461667 84.464286,32.607142 C 83.65783,34.977212 81.172536,43.14741 83.658086,41.833439 C 84.96761,41.395929 88.14944,41.769923 88.533676,39.85832 C 89.091363,37.083788 89.884772,31.892856 93.571429,28.857142 C 91.829373,30.645768 87.852019,40.237812 90.979515,38.767086 C 93.468341,38.020052 96.499843,37.6727 97.427891,35.698877 C 99.001429,32.352192 101.45562,28.92502 103.57143,27.071428 C 102.28566,29.295613 97.352486,35.348115 99.565177,35.6376 C 100.8,35.799151 105.38532,33.958088 105.53571,33.343092 C 106.35055,30.010927 107.66985,28.938904 108.75,27.25 C 108.35266,29.207036 106.11202,31.538602 107.25644,32.76405 C 112.67492,29.559988 117.65855,22.321383 120.76713,18.111514 C 118.85764,24.687937 110.39476,33.47379 107.76064,34.067287 C 106.22026,34.414353 108.03847,36.315031 111.8016,38.190933 C 109.97793,38.575457 105.7981,35.997908 105.83243,34.88731 C 104.62453,35.046777 102.03323,37.191506 100.27389,37.399792 C 99.131559,38.646946 104.68168,40.76225 105.98106,42.619833 C 103.50861,40.911942 98.871359,40.078953 97.891179,38.072608 C 96.410287,38.420404 95.333818,40.107737 91.794688,40.657405 C 92.873093,44.767796 98.456231,45.417452 102.25644,48.334119 C 97.733384,45.974449 93.643065,45.332067 90.315672,41.328363 C 88.465292,43.098653 86.673051,42.959915 84.318211,43.216823 C 84.369175,46.330466 89.00287,48.126315 91.785714,50.642857 C 88.391849,48.825529 84.464222,48.05979 82.41706,44.297225 L 77.898613,46.734091 C 78.715356,48.148807 81.109728,49.500829 82.678572,50.464285 C 80.446047,50.257097 78.078783,49.128302 76.313135,47.520485 L 71.572788,50.642857 L 71.067712,48.386422 z"
         id="path7109"
         transform="translate(164.57144,150.07646)"
         sodipodi:nodetypes="ccccsccscsscccscccccccccccccccc" />
      <path
         sodipodi:nodetypes="ccc"
         transform="translate(164.57144,150.07646)"
         id="path7111"
         d="M 121.36624,17.037646 C 122.45779,41.557728 98.254922,68.560712 70.45814,49.928881 C 82.636458,11.448612 96.050712,37.646843 121.36624,17.037646 z"
         style="fill:none;fill-opacity:1;fill-rule:evenodd;stroke:#000000;stroke-width:1px;stroke-linecap:butt;stroke-linejoin:miter;stroke-opacity:1" />
      <path
         style="fill:none;fill-opacity:1;fill-rule:evenodd;stroke:#000000;stroke-width:1px;stroke-linecap:butt;stroke-linejoin:miter;stroke-opacity:1"
         d="M 121.36624,17.037646 C 122.45779,41.557728 98.254922,68.560712 70.45814,49.928881 C 82.636458,11.448612 96.050712,37.646843 121.36624,17.037646 z"
         id="path7113"
         sodipodi:nodetypes="ccc"
         transform="translate(164.57144,150.07646)" />
      <path
         transform="translate(164.57144,150.07646)"
         style="opacity:0.3;fill:#1a1a1a;fill-opacity:1;fill-rule:evenodd;stroke:none;stroke-width:1px;stroke-linecap:butt;stroke-linejoin:miter;stroke-opacity:1;filter:url(#filter6896)"
         d="M 120.15625,20.96875 C 112.65013,54.124461 96.472189,54.956339 72.65625,49.90625 C 96.862214,63.399563 116.55016,44.977721 120.15625,20.96875 z"
         id="path7115"
         sodipodi:nodetypes="ccc" />
    </g>
    <g
       transform="translate(6.0982105,163.57143)"
       id="g7123">
      <path
         sodipodi:nodetypes="ccc"
         transform="translate(164.57144,150.07646)"
         id="path7125"
         d="M 121.36624,17.037646 C 122.45779,41.557728 98.254922,68.560712 70.45814,49.928881 C 82.636458,11.448612 96.050712,37.646843 121.36624,17.037646 z"
         style="fill:url(#linearGradient7139);fill-opacity:1;fill-rule:evenodd;stroke:none;stroke-width:1px;stroke-linecap:butt;stroke-linejoin:miter;stroke-opacity:1" />
      <path
         sodipodi:nodetypes="csscc"
         id="path7127"
         d="M 119.5625,20.53125 C 107.86357,28.73155 98.291908,27.788648 91.1875,28.53125 C 87.339989,28.933419 84.259713,29.756319 81.21875,32.71875 C 78.3352,35.527833 75.473161,40.574347 72.625,49.15625 C 81.58827,19.227114 110.82483,33.871613 119.5625,20.53125 z"
         style="opacity:0.8;fill:#f1f3ee;fill-opacity:1;fill-rule:evenodd;stroke:none;stroke-width:1px;stroke-linecap:butt;stroke-linejoin:miter;stroke-opacity:1;filter:url(#filter6606)"
         transform="translate(164.30358,149.27289)" />
      <path
         transform="translate(164.57144,150.07646)"
         style="fill:url(#linearGradient7141);fill-opacity:1;fill-rule:evenodd;stroke:none;stroke-width:1px;stroke-linecap:butt;stroke-linejoin:miter;stroke-opacity:1;filter:url(#filter6582)"
         d="M 121.36624,17.037646 C 122.45779,41.557728 98.254922,68.560712 70.45814,49.928881 C 90.086333,35.060928 108.04627,42.445068 121.36624,17.037646 z"
         id="path7129"
         sodipodi:nodetypes="ccc" />
      <path
         sodipodi:nodetypes="ccccsccscsscccscccccccccccccccc"
         transform="translate(164.57144,150.07646)"
         id="path7131"
         d="M 71.067712,48.386422 C 73.310687,46.656284 80.14042,44.473785 80.885743,43.251178 C 81.73072,40.084446 82.370481,35.461667 84.464286,32.607142 C 83.65783,34.977212 81.172536,43.14741 83.658086,41.833439 C 84.96761,41.395929 88.14944,41.769923 88.533676,39.85832 C 89.091363,37.083788 89.884772,31.892856 93.571429,28.857142 C 91.829373,30.645768 87.852019,40.237812 90.979515,38.767086 C 93.468341,38.020052 96.499843,37.6727 97.427891,35.698877 C 99.001429,32.352192 101.45562,28.92502 103.57143,27.071428 C 102.28566,29.295613 97.352486,35.348115 99.565177,35.6376 C 100.8,35.799151 105.38532,33.958088 105.53571,33.343092 C 106.35055,30.010927 107.66985,28.938904 108.75,27.25 C 108.35266,29.207036 106.11202,31.538602 107.25644,32.76405 C 112.67492,29.559988 117.65855,22.321383 120.76713,18.111514 C 118.85764,24.687937 110.39476,33.47379 107.76064,34.067287 C 106.22026,34.414353 108.03847,36.315031 111.8016,38.190933 C 109.97793,38.575457 105.7981,35.997908 105.83243,34.88731 C 104.62453,35.046777 102.03323,37.191506 100.27389,37.399792 C 99.131559,38.646946 104.68168,40.76225 105.98106,42.619833 C 103.50861,40.911942 98.871359,40.078953 97.891179,38.072608 C 96.410287,38.420404 95.333818,40.107737 91.794688,40.657405 C 92.873093,44.767796 98.456231,45.417452 102.25644,48.334119 C 97.733384,45.974449 93.643065,45.332067 90.315672,41.328363 C 88.465292,43.098653 86.673051,42.959915 84.318211,43.216823 C 84.369175,46.330466 89.00287,48.126315 91.785714,50.642857 C 88.391849,48.825529 84.464222,48.05979 82.41706,44.297225 L 77.898613,46.734091 C 78.715356,48.148807 81.109728,49.500829 82.678572,50.464285 C 80.446047,50.257097 78.078783,49.128302 76.313135,47.520485 L 71.572788,50.642857 L 71.067712,48.386422 z"
         style="fill:url(#linearGradient7143);fill-opacity:1;fill-rule:evenodd;stroke:none;stroke-width:1px;stroke-linecap:butt;stroke-linejoin:miter;stroke-opacity:1;filter:url(#filter6622)" />
      <path
         style="fill:none;fill-opacity:1;fill-rule:evenodd;stroke:#000000;stroke-width:1px;stroke-linecap:butt;stroke-linejoin:miter;stroke-opacity:1"
         d="M 121.36624,17.037646 C 122.45779,41.557728 98.254922,68.560712 70.45814,49.928881 C 82.636458,11.448612 96.050712,37.646843 121.36624,17.037646 z"
         id="path7133"
         transform="translate(164.57144,150.07646)"
         sodipodi:nodetypes="ccc" />
      <path
         transform="translate(164.57144,150.07646)"
         sodipodi:nodetypes="ccc"
         id="path7135"
         d="M 121.36624,17.037646 C 122.45779,41.557728 98.254922,68.560712 70.45814,49.928881 C 82.636458,11.448612 96.050712,37.646843 121.36624,17.037646 z"
         style="fill:none;fill-opacity:1;fill-rule:evenodd;stroke:#000000;stroke-width:1px;stroke-linecap:butt;stroke-linejoin:miter;stroke-opacity:1" />
      <path
         sodipodi:nodetypes="ccc"
         id="path7137"
         d="M 120.15625,20.96875 C 112.65013,54.124461 96.472189,54.956339 72.65625,49.90625 C 96.862214,63.399563 116.55016,44.977721 120.15625,20.96875 z"
         style="opacity:0.3;fill:#1a1a1a;fill-opacity:1;fill-rule:evenodd;stroke:none;stroke-width:1px;stroke-linecap:butt;stroke-linejoin:miter;stroke-opacity:1;filter:url(#filter6896)"
         transform="translate(164.57144,150.07646)" />
    </g>
    <path
       id="path6429"
       d="M 210.84375,151.96875 C 206.27484,151.96875 201.08794,154.21597 197.15625,158.03125 C 193.22456,161.84653 190.56052,167.13506 190.8125,173.28125 C 190.96132,176.86162 193.13713,180.85986 196.28125,183.875 C 199.42537,186.89014 203.4764,188.875 207.0625,188.875 C 212.22311,188.875 215.86533,186.67287 218.15625,183.3125 C 220.44717,179.95213 221.32825,175.37782 220.5,170.71875 C 220.14037,168.69574 218.58299,166.27158 216.53125,164.46875 C 214.47951,162.66592 211.97546,161.5256 209.96875,161.5625 C 208.47261,161.59001 206.86991,162.35353 205.5625,163.59375 C 204.25509,164.83397 203.27863,166.50346 202.9375,168.0625 C 202.7288,169.01633 202.94751,170.72968 203.71875,172.03125 C 204.48999,173.33282 205.62337,174.25 207.4375,174.25 C 209.17817,174.25 211.03042,173.72095 211.8125,173.03125 C 212.20354,172.6864 212.37082,172.40886 212.375,172 C 212.37918,171.59114 212.1837,170.94128 211.46875,170.03125 C 211.0927,169.55259 211.12878,169.63231 211,169.65625 C 210.87122,169.68019 210.45088,169.93017 210.03125,170.3125 C 209.61162,170.69483 209.19237,171.15104 208.6875,171.5625 C 208.43507,171.76823 208.17938,172.00335 207.625,172.09375 C 207.07062,172.18415 206.27156,171.79162 206,171.34375 C 205.1764,169.9854 205.14416,168.19452 205.6875,166.46875 C 205.95917,165.60587 206.41971,164.7559 207.15625,164.09375 C 207.89279,163.4316 208.9311,163 210.09375,163 C 212.86158,163 215.17395,165.0352 216.78125,167.4375 C 218.38855,169.8398 219.37348,172.73949 219,175.3125 C 218.66754,177.60277 217.97568,180.35722 216.1875,182.625 C 214.39932,184.89278 211.45673,186.5625 207.25,186.5625 C 201.96141,186.5625 198.40495,184.04912 196.375,180.84375 C 194.34505,177.63838 193.68751,173.81511 193.6875,170.84375 C 193.6875,166.40551 195.93091,162.47364 199.0625,159.5625 C 202.19409,156.65136 206.25268,154.71189 210.15625,154.28125 C 213.50854,153.91142 216.57145,155.01513 219.15625,157.0625 C 221.74105,159.10987 223.90685,162.06314 225.6875,165.53125 C 229.24879,172.46747 231.34483,181.47528 231.90625,189.6875 C 232.38147,196.71577 228.30231,203.71662 224.28125,210.5625 C 220.26019,217.40838 216.27632,224.14819 216.1875,230.125 C 216.08045,237.32869 220.13028,245.41055 224.3125,253.625 C 228.49472,261.83945 232.81258,270.17078 232.5625,278.3125 C 232.3996,283.4722 228.6297,289.72392 224.96875,296.40625 C 221.3078,303.08858 217.71983,310.11793 217.4375,315.84375 C 217.07028,323.29117 220.98611,331.16267 224.875,339.40625 C 228.76389,347.64983 232.59379,356.31669 231.28125,365.4375 C 230.18884,373.02857 225.18334,381.17687 221.03125,386.84375 C 218.18702,390.72565 214.47336,398.27792 211.5625,404.46875 L 233.59375,404.46875 C 232.98306,403.66042 232.72291,403.40465 231.90625,402.09375 C 231.14915,400.87847 230.40581,399.565 229.90625,398.25 C 229.40669,396.935 229.07402,395.61963 229.46875,394.3125 C 232.59506,383.96004 240.36155,375.57852 240.46875,365.71875 C 240.59663,353.83374 237.10668,344.10028 233.53125,336.125 C 229.95582,328.14972 226.17283,322.0691 226.1875,316.84375 C 226.20681,309.58794 229.94039,303.41889 233.53125,296.78125 C 237.12211,290.14361 240.63642,283.01803 240.78125,273.71875 C 240.93335,264.07447 237.20041,256.26073 233.25,249.375 C 229.29959,242.48927 225.02943,236.63766 224.75,230.625 C 224.53805,226.06434 226.92453,221.25525 229.40625,216.53125 C 231.88797,211.80725 234.52442,207.13865 235.1875,203.5 C 236.61722,195.65448 236.09561,180.99168 233.375,173.8125 C 230.78154,166.96879 227.55444,161.46677 223.78125,157.71875 C 220.00806,153.97073 215.74488,151.96875 210.84375,151.96875 z"
       style="fill:#00ff00;fill-rule:evenodd;stroke:none;stroke-width:1px;stroke-linecap:butt;stroke-linejoin:miter;stroke-opacity:1" />
    <path
       style="fill:#008000;fill-rule:evenodd;stroke:#000000;stroke-width:1px;stroke-linecap:butt;stroke-linejoin:miter;stroke-opacity:1"
       d="M 209.57144,405.71933 C 212.56136,399.27858 216.76964,390.57558 220.03126,386.12402 C 224.12417,380.53792 229.01884,372.41025 230.05114,365.23686 C 232.54655,347.89639 215.41078,331.59917 216.19127,315.7702 C 216.80012,303.42239 231.02744,287.3623 231.31383,278.29139 C 231.78488,262.95583 214.7006,245.44536 214.92858,230.10436 C 215.12153,217.12054 231.51887,202.72572 230.64287,189.77002 C 229.54056,173.64584 222.32771,154.17521 210.28573,155.50369 C 203.1141,156.29486 194.92475,162.79901 194.92475,170.83495 C 194.92475,176.40948 197.42074,185.30826 207.25001,185.30826 C 215.04431,185.30826 217.15446,179.48421 217.78573,175.13544 C 218.39252,170.95522 214.33353,164.24874 210.10715,164.24874 C 206.57739,164.24874 206.07042,169.0227 207.07144,170.67368 C 207.85671,171.96881 210.18093,166.38496 212.42858,169.24592 C 215.73799,173.45834 211.34044,175.49238 207.42858,175.49238 C 202.8947,175.49238 201.11917,170.53802 201.7143,167.81815 C 202.5242,164.11666 206.13812,160.39209 209.92858,160.32239 C 214.86679,160.23158 220.85031,165.63507 221.7143,170.49521 C 223.47145,180.37961 218.12126,190.12696 207.07144,190.12696 C 199.00507,190.12696 189.90624,181.4056 189.57144,173.35074 C 189.03573,160.28382 200.90098,150.71932 210.83413,150.71932 C 221.32536,150.71932 229.25371,159.45599 234.52552,173.3674 C 237.41576,180.99424 237.8852,195.56132 236.40048,203.70866 C 234.94218,211.71104 225.6224,222.44059 226.00001,230.56584 C 226.50509,241.43389 242.34279,253.8031 242.02812,273.7557 C 241.72902,292.96082 227.46491,303.19112 227.42858,316.84102 C 227.40295,325.96862 241.9934,341.4365 241.73224,365.7082 C 241.61831,376.18689 233.65104,384.69291 230.64287,394.65416 C 229.6321,398.00124 236.00001,405.71933 236.00001,405.71933 L 209.57144,405.71933 z"
       id="path5586"
       sodipodi:nodetypes="cssssssssssssssssssssssssssscc" />
    <path
       style="fill:url(#linearGradient6457);fill-rule:evenodd;stroke:none;stroke-width:1px;stroke-linecap:butt;stroke-linejoin:miter;stroke-opacity:1;filter:url(#filter6447);opacity:0.90000000000000002;fill-opacity:1"
       d="M 210.84375,151.96875 C 206.27484,151.96875 201.08794,154.21597 197.15625,158.03125 C 193.22456,161.84653 190.56052,167.13506 190.8125,173.28125 C 190.96132,176.86162 193.13713,180.85986 196.28125,183.875 C 199.42537,186.89014 203.4764,188.875 207.0625,188.875 C 212.22311,188.875 215.86533,186.67287 218.15625,183.3125 C 220.44717,179.95213 221.32825,175.37782 220.5,170.71875 C 220.14037,168.69574 218.58299,166.27158 216.53125,164.46875 C 214.47951,162.66592 211.97546,161.5256 209.96875,161.5625 C 208.47261,161.59001 206.86991,162.35353 205.5625,163.59375 C 204.25509,164.83397 203.27863,166.50346 202.9375,168.0625 C 202.7288,169.01633 202.94751,170.72968 203.71875,172.03125 C 204.48999,173.33282 205.62337,174.25 207.4375,174.25 C 209.17817,174.25 211.03042,173.72095 211.8125,173.03125 C 212.20354,172.6864 212.37082,172.40886 212.375,172 C 212.37918,171.59114 212.1837,170.94128 211.46875,170.03125 C 211.0927,169.55259 211.12878,169.63231 211,169.65625 C 210.87122,169.68019 210.45088,169.93017 210.03125,170.3125 C 209.61162,170.69483 209.19237,171.15104 208.6875,171.5625 C 208.43507,171.76823 208.17938,172.00335 207.625,172.09375 C 207.07062,172.18415 206.27156,171.79162 206,171.34375 C 205.1764,169.9854 205.14416,168.19452 205.6875,166.46875 C 205.95917,165.60587 206.41971,164.7559 207.15625,164.09375 C 207.89279,163.4316 208.9311,163 210.09375,163 C 212.86158,163 215.17395,165.0352 216.78125,167.4375 C 218.38855,169.8398 219.37348,172.73949 219,175.3125 C 218.66754,177.60277 217.97568,180.35722 216.1875,182.625 C 214.39932,184.89278 211.45673,186.5625 207.25,186.5625 C 201.96141,186.5625 198.40495,184.04912 196.375,180.84375 C 194.34505,177.63838 193.68751,173.81511 193.6875,170.84375 C 193.6875,166.40551 195.93091,162.47364 199.0625,159.5625 C 202.19409,156.65136 206.25268,154.71189 210.15625,154.28125 C 213.50854,153.91142 216.57145,155.01513 219.15625,157.0625 C 229.98088,168.58302 226.73991,160.87084 223.78125,157.71875 C 220.00806,153.97073 215.74488,151.96875 210.84375,151.96875 z"
       id="path5634"
       sodipodi:nodetypes="cscsssssssssssssssssssssssssssssccc" />
    <path
       id="path6419"
       d="M 225.6875,165.53125 C 229.24879,172.46747 231.34483,181.47528 231.90625,189.6875 C 232.38147,196.71577 228.30231,203.71662 224.28125,210.5625 C 220.26019,217.40838 216.27632,224.14819 216.1875,230.125 C 216.08045,237.32869 220.13028,245.41055 224.3125,253.625 C 228.49472,261.83945 232.81258,270.17078 232.5625,278.3125 C 232.3996,283.4722 228.6297,289.72392 224.96875,296.40625 C 221.3078,303.08858 217.71983,310.11793 217.4375,315.84375 C 217.07028,323.29117 220.98611,331.16267 224.875,339.40625 C 228.76389,347.64983 232.59379,356.31669 231.28125,365.4375 C 230.18884,373.02857 225.18334,381.17687 221.03125,386.84375 C 218.18702,390.72565 214.47336,398.27792 211.5625,404.46875 L 233.59375,404.46875 C 232.98306,403.66042 232.72291,403.40465 231.90625,402.09375 C 231.14915,400.87847 230.40581,399.565 229.90625,398.25 C 229.40669,396.935 229.07402,395.61963 229.46875,394.3125 C 232.59506,383.96004 240.36155,375.57852 240.46875,365.71875 C 240.59663,353.83374 237.10668,344.10028 233.53125,336.125 C 229.95582,328.14972 226.17283,322.0691 226.1875,316.84375 C 226.20681,309.58794 229.94039,303.41889 233.53125,296.78125 C 237.12211,290.14361 240.63642,283.01803 240.78125,273.71875 C 240.93335,264.07447 237.20041,256.26073 233.25,249.375 C 229.29959,242.48927 225.02943,236.63766 224.75,230.625 C 224.53805,226.06434 226.92453,221.25525 229.40625,216.53125 C 231.88797,211.80725 234.52442,207.13865 235.1875,203.5 C 236.61722,195.65448 236.09561,180.99168 233.375,173.8125 C 230.78154,166.96879 227.55444,161.46677 223.78125,157.71875 C 221.68124,158.57148 223.25354,161.13009 225.6875,165.53125 z"
       style="fill:#74fd00;fill-rule:evenodd;stroke:none;stroke-width:1px;stroke-linecap:butt;stroke-linejoin:miter;stroke-opacity:1;filter:url(#filter6435);fill-opacity:1;opacity:0.69999999999999996"
       sodipodi:nodetypes="ccssscsssssccssscssscssssscc" />
    <path
       sodipodi:nodetypes="ccccc"
       id="path6682"
       d="M 210.90688,151.46367 C 206.33797,151.46367 202.35063,153.20581 197.59819,156.95796 C 195.6872,160.15081 196.7541,159.67811 199.18876,157.98413 C 205.03514,153.87344 206.44207,153.76487 210.28251,152.76601 C 214.80704,153.4593 217.95117,152.85703 210.90688,151.46367 z"
       style="opacity:0.8;fill:#f1f3ee;fill-opacity:1;fill-rule:evenodd;stroke:none;stroke-width:1px;stroke-linecap:butt;stroke-linejoin:miter;stroke-opacity:1;filter:url(#filter6447)" />
    <path
       sodipodi:nodetypes="cccscc"
       id="path6684"
       d="M 209.61161,161.29464 C 208.11547,161.32215 206.51277,162.08567 205.20536,163.32589 C 203.6876,164.94408 204.61426,167.77134 205.0625,165.84375 C 205.33417,164.98087 206.06257,164.48804 206.79911,163.82589 C 207.53565,163.16374 208.57396,162.73214 209.73661,162.73214 C 211.22614,163.29574 214.58552,161.6766 209.61161,161.29464 z"
       style="opacity:0.80000000000000004;fill:#f1f3ee;fill-opacity:1;fill-rule:evenodd;stroke:none;stroke-width:1px;stroke-linecap:butt;stroke-linejoin:miter;stroke-opacity:1;filter:url(#filter6770)" />
    <path
       sodipodi:nodetypes="csscc"
       id="path6774"
       d="M 211.29018,169.76339 C 210.91413,169.28473 210.95021,169.36445 210.82143,169.38839 C 210.69265,169.41233 210.27231,169.66231 209.85268,170.04464 C 209.43305,170.42697 209.0138,170.88318 208.50893,171.29464 C 207.43188,172.40017 211.86008,170.69973 211.29018,169.76339 z"
       style="opacity:0.80000000000000004;fill:#f1f3ee;fill-opacity:1;fill-rule:evenodd;stroke:none;stroke-width:1px;stroke-linecap:butt;stroke-linejoin:miter;stroke-opacity:1;filter:url(#filter6892)"
       transform="matrix(1.1338524,0,0,1.0975906,-28.065301,-16.528766)" />
    <path
       transform="translate(-2.8571429,-0.5357143)"
       style="opacity:0.69999999999999996;fill:url(#linearGradient7390);fill-opacity:1;fill-rule:evenodd;stroke:none;stroke-width:1px;stroke-linecap:butt;stroke-linejoin:miter;stroke-opacity:1;filter:url(#filter7011)"
       d="M 227.28125,297.6875 C 223.64591,304.32309 220.29588,311.23568 220.0625,315.96875 C 219.75075,322.29129 223.23747,329.76598 227.0625,337.875 C 227.71976,338.63322 228.42018,339.32233 229.03125,339.75 C 229.64059,340.17646 230.02955,340.26689 230.0625,340.28125 C 230.07108,340.24481 230.0486,340.26685 230.125,340.125 C 230.35999,339.68868 230.66234,338.29801 230.8125,336.53125 C 227.39554,329.08671 223.54482,323.14163 223.5625,316.84375 C 223.58421,308.68626 227.66656,302.0974 231.21875,295.53125 C 239.43023,269.58865 235.83794,279.47788 227.28125,297.6875 z"
       id="path6989"
       sodipodi:nodetypes="cscssscscc" />
    <path
       sodipodi:type="inkscape:offset"
       inkscape:radius="-2.5676966"
       inkscape:original="M 233.8125 198.15625 C 232.10811 197.33413 228.86749 200.61069 224.28125 210.5625 C 220.26019 217.40838 216.27632 224.14819 216.1875 230.125 C 216.08045 237.32869 220.13028 245.41055 224.3125 253.625 C 229.94429 264.63415 232.24275 263.39168 233.25 249.375 C 229.29959 242.48927 225.02943 236.63766 224.75 230.625 C 224.53805 226.06434 226.92453 221.25525 229.40625 216.53125 C 231.88797 211.80725 234.52442 207.13865 235.1875 203.5 C 235.29545 200.62593 234.83513 198.64952 233.8125 198.15625 z "
       style="opacity:0.69999999999999996;fill:url(#linearGradient6914);fill-opacity:1;fill-rule:evenodd;stroke:none;stroke-width:1px;stroke-linecap:butt;stroke-linejoin:miter;stroke-opacity:1;filter:url(#filter6932)"
       id="path6906"
       d="M 232.5,201.5625 C 232.33815,201.73212 232.3115,201.70849 232.125,201.9375 C 230.7727,203.59801 228.86674,206.76059 226.625,211.625 C 226.5879,211.71054 226.54617,211.794 226.5,211.875 C 222.47658,218.72491 218.8223,225.29139 218.75,230.15625 C 218.65767,236.36938 222.4164,244.26387 226.59375,252.46875 C 227.81902,254.86393 228.80033,256.34851 229.5625,257.34375 C 229.62256,257.16556 229.66696,257.12911 229.71875,256.90625 C 230.07085,255.39102 230.3553,252.88412 230.59375,249.90625 C 226.82611,243.47568 222.50698,237.62444 222.1875,230.75 C 221.93017,225.21288 224.6248,220.10293 227.125,215.34375 C 229.60096,210.63071 232.03584,206.00454 232.59375,203.15625 C 232.60656,202.46677 232.5543,202.04002 232.5,201.5625 z"
       transform="translate(-2.6516504,-0.2525382)" />
    <path
       transform="translate(-3.0304576,-0.2525381)"
       style="opacity:0.69999999999999996;fill:url(#linearGradient7392);fill-opacity:1;fill-rule:evenodd;stroke:none;stroke-width:1px;stroke-linecap:butt;stroke-linejoin:miter;stroke-opacity:1;filter:url(#filter7088)"
       d="M 234.53125,364.40625 C 231.02315,380.9597 220.7423,387.47047 216.1875,401.59375 C 236.83553,402.07129 221.40068,402.46044 221.00446,399.71875 C 225.02821,387.17047 233.9843,382.66853 234.53125,364.40625 z"
       id="path7021"
       sodipodi:nodetypes="cccc" />
    <g
       id="g7523"
       transform="matrix(0.4115695,7.6986166e-2,-0.1095882,0.5157347,155.43558,251.52476)">
      <path
         transform="matrix(0.3375474,0,0,0.3375474,263.33013,200.46713)"
         d="M -127.85715,101.71429 A 8.5714283,8.5714283 0 1 1 -145,101.71429 A 8.5714283,8.5714283 0 1 1 -127.85715,101.71429 z"
         sodipodi:ry="8.5714283"
         sodipodi:rx="8.5714283"
         sodipodi:cy="101.71429"
         sodipodi:cx="-136.42857"
         id="path7525"
         style="fill:#008000;fill-opacity:1;stroke:none;stroke-width:0.25;stroke-linecap:square;stroke-miterlimit:4;stroke-dasharray:none;stroke-dashoffset:0;stroke-opacity:1"
         sodipodi:type="arc" />
      <path
         style="fill:#1c7d1c;fill-opacity:1;stroke:#000000;stroke-width:0.53215897;stroke-linecap:square;stroke-miterlimit:4;stroke-dashoffset:0;stroke-opacity:1"
         d="M 217.27375,231.91027 C 215.67667,231.91027 214.3835,233.20344 214.3835,234.80052 C 214.3835,236.3976 215.67667,237.69077 217.27375,237.69077 C 218.87083,237.69077 220.17455,236.3976 220.17455,234.80052 C 220.17455,233.20344 218.87083,231.91027 217.27375,231.91027 z M 217.27375,232.9862 C 218.27192,232.9862 219.08807,233.80234 219.08807,234.80052 C 219.08807,235.7987 218.27192,236.60429 217.27375,236.60429 C 216.27557,236.60429 215.46998,235.7987 215.46998,234.80052 C 215.46998,233.80234 216.27557,232.9862 217.27375,232.9862 z"
         id="path7527" />
      <path
         transform="matrix(0.3375474,0,0,0.3375474,189.09909,144.20069)"
         sodipodi:type="inkscape:offset"
         inkscape:radius="-0.87456268"
         inkscape:original="M 83.46875 259.84375 C 78.73732 259.84374 74.90625 263.67482 74.90625 268.40625 C 74.90625 273.13767 78.73732 276.96875 83.46875 276.96875 C 88.20017 276.96874 92.0625 273.13768 92.0625 268.40625 C 92.0625 263.6748 88.20017 259.84374 83.46875 259.84375 z M 83.46875 263.03125 C 86.42588 263.03124 88.84375 265.4491 88.84375 268.40625 C 88.84375 271.36338 86.42589 273.75 83.46875 273.75 C 80.5116 273.74999 78.125 271.36339 78.125 268.40625 C 78.125 265.44909 80.51161 263.03125 83.46875 263.03125 z "
         style="fill:url(#linearGradient7531);fill-opacity:1;stroke:none;stroke-width:0.5;stroke-linecap:square;stroke-miterlimit:4;stroke-dashoffset:0;stroke-opacity:1;filter:url(#filter7476)"
         id="path7529"
         d="M 83.46875,260.71875 C 79.209415,260.71874 75.78125,264.14691 75.78125,268.40625 C 75.78125,272.66558 79.209414,276.09375 83.46875,276.09375 C 87.728078,276.09374 91.1875,272.66174 91.1875,268.40625 C 91.1875,264.15074 87.728076,260.71874 83.46875,260.71875 z M 83.46875,262.15625 C 86.902598,262.15624 89.71875,264.97238 89.71875,268.40625 C 89.71875,271.8401 86.896446,274.625 83.46875,274.625 C 80.041051,274.62499 77.25,271.83394 77.25,268.40625 C 77.25,264.97854 80.034899,262.15625 83.46875,262.15625 z" />
    </g>
    <g
       id="g7145"
       transform="matrix(-1,0,0,1,453.85996,189.28572)">
      <path
         style="fill:url(#linearGradient7167);fill-opacity:1;fill-rule:evenodd;stroke:none;stroke-width:1px;stroke-linecap:butt;stroke-linejoin:miter;stroke-opacity:1"
         d="M 121.36624,17.037646 C 122.45779,41.557728 98.254922,68.560712 70.45814,49.928881 C 82.636458,11.448612 96.050712,37.646843 121.36624,17.037646 z"
         id="path7147"
         transform="translate(164.57144,150.07646)"
         sodipodi:nodetypes="ccc" />
      <path
         transform="translate(164.30358,149.27289)"
         style="opacity:0.8;fill:#f1f3ee;fill-opacity:1;fill-rule:evenodd;stroke:none;stroke-width:1px;stroke-linecap:butt;stroke-linejoin:miter;stroke-opacity:1;filter:url(#filter6606)"
         d="M 119.5625,20.53125 C 107.86357,28.73155 98.291908,27.788648 91.1875,28.53125 C 87.339989,28.933419 84.259713,29.756319 81.21875,32.71875 C 78.3352,35.527833 75.473161,40.574347 72.625,49.15625 C 81.58827,19.227114 110.82483,33.871613 119.5625,20.53125 z"
         id="path7149"
         sodipodi:nodetypes="csscc" />
      <path
         sodipodi:nodetypes="ccc"
         id="path7151"
         d="M 121.36624,17.037646 C 122.45779,41.557728 98.254922,68.560712 70.45814,49.928881 C 90.086333,35.060928 108.04627,42.445068 121.36624,17.037646 z"
         style="fill:url(#linearGradient7169);fill-opacity:1;fill-rule:evenodd;stroke:none;stroke-width:1px;stroke-linecap:butt;stroke-linejoin:miter;stroke-opacity:1;filter:url(#filter6582)"
         transform="translate(164.57144,150.07646)" />
      <path
         style="fill:url(#linearGradient7171);fill-opacity:1;fill-rule:evenodd;stroke:none;stroke-width:1px;stroke-linecap:butt;stroke-linejoin:miter;stroke-opacity:1;filter:url(#filter6622)"
         d="M 71.067712,48.386422 C 73.310687,46.656284 80.14042,44.473785 80.885743,43.251178 C 81.73072,40.084446 82.370481,35.461667 84.464286,32.607142 C 83.65783,34.977212 81.172536,43.14741 83.658086,41.833439 C 84.96761,41.395929 88.14944,41.769923 88.533676,39.85832 C 89.091363,37.083788 89.884772,31.892856 93.571429,28.857142 C 91.829373,30.645768 87.852019,40.237812 90.979515,38.767086 C 93.468341,38.020052 96.499843,37.6727 97.427891,35.698877 C 99.001429,32.352192 101.45562,28.92502 103.57143,27.071428 C 102.28566,29.295613 97.352486,35.348115 99.565177,35.6376 C 100.8,35.799151 105.38532,33.958088 105.53571,33.343092 C 106.35055,30.010927 107.66985,28.938904 108.75,27.25 C 108.35266,29.207036 106.11202,31.538602 107.25644,32.76405 C 112.67492,29.559988 117.65855,22.321383 120.76713,18.111514 C 118.85764,24.687937 110.39476,33.47379 107.76064,34.067287 C 106.22026,34.414353 108.03847,36.315031 111.8016,38.190933 C 109.97793,38.575457 105.7981,35.997908 105.83243,34.88731 C 104.62453,35.046777 102.03323,37.191506 100.27389,37.399792 C 99.131559,38.646946 104.68168,40.76225 105.98106,42.619833 C 103.50861,40.911942 98.871359,40.078953 97.891179,38.072608 C 96.410287,38.420404 95.333818,40.107737 91.794688,40.657405 C 92.873093,44.767796 98.456231,45.417452 102.25644,48.334119 C 97.733384,45.974449 93.643065,45.332067 90.315672,41.328363 C 88.465292,43.098653 86.673051,42.959915 84.318211,43.216823 C 84.369175,46.330466 89.00287,48.126315 91.785714,50.642857 C 88.391849,48.825529 84.464222,48.05979 82.41706,44.297225 L 77.898613,46.734091 C 78.715356,48.148807 81.109728,49.500829 82.678572,50.464285 C 80.446047,50.257097 78.078783,49.128302 76.313135,47.520485 L 71.572788,50.642857 L 71.067712,48.386422 z"
         id="path7153"
         transform="translate(164.57144,150.07646)"
         sodipodi:nodetypes="ccccsccscsscccscccccccccccccccc" />
      <path
         sodipodi:nodetypes="ccc"
         transform="translate(164.57144,150.07646)"
         id="path7155"
         d="M 121.36624,17.037646 C 122.45779,41.557728 98.254922,68.560712 70.45814,49.928881 C 82.636458,11.448612 96.050712,37.646843 121.36624,17.037646 z"
         style="fill:none;fill-opacity:1;fill-rule:evenodd;stroke:#000000;stroke-width:1px;stroke-linecap:butt;stroke-linejoin:miter;stroke-opacity:1" />
      <path
         style="fill:none;fill-opacity:1;fill-rule:evenodd;stroke:#000000;stroke-width:1px;stroke-linecap:butt;stroke-linejoin:miter;stroke-opacity:1"
         d="M 121.36624,17.037646 C 122.45779,41.557728 98.254922,68.560712 70.45814,49.928881 C 82.636458,11.448612 96.050712,37.646843 121.36624,17.037646 z"
         id="path7157"
         sodipodi:nodetypes="ccc"
         transform="translate(164.57144,150.07646)" />
      <path
         transform="translate(164.57144,150.07646)"
         style="opacity:0.3;fill:#1a1a1a;fill-opacity:1;fill-rule:evenodd;stroke:none;stroke-width:1px;stroke-linecap:butt;stroke-linejoin:miter;stroke-opacity:1;filter:url(#filter6896)"
         d="M 120.15625,20.96875 C 112.65013,54.124461 96.472189,54.956339 72.65625,49.90625 C 96.862214,63.399563 116.55016,44.977721 120.15625,20.96875 z"
         id="path7159"
         sodipodi:nodetypes="ccc" />
    </g>
    <g
       transform="matrix(0.4115695,7.6986166e-2,-0.1095882,0.5157347,153.56058,178.04261)"
       id="g7513">
      <path
         sodipodi:type="arc"
         style="fill:#008000;fill-opacity:1;stroke:none;stroke-width:0.25;stroke-linecap:square;stroke-miterlimit:4;stroke-dasharray:none;stroke-dashoffset:0;stroke-opacity:1"
         id="path7515"
         sodipodi:cx="-136.42857"
         sodipodi:cy="101.71429"
         sodipodi:rx="8.5714283"
         sodipodi:ry="8.5714283"
         d="M -127.85715,101.71429 A 8.5714283,8.5714283 0 1 1 -145,101.71429 A 8.5714283,8.5714283 0 1 1 -127.85715,101.71429 z"
         transform="matrix(0.3375474,0,0,0.3375474,263.33013,200.46713)" />
      <path
         id="path7517"
         d="M 217.27375,231.91027 C 215.67667,231.91027 214.3835,233.20344 214.3835,234.80052 C 214.3835,236.3976 215.67667,237.69077 217.27375,237.69077 C 218.87083,237.69077 220.17455,236.3976 220.17455,234.80052 C 220.17455,233.20344 218.87083,231.91027 217.27375,231.91027 z M 217.27375,232.9862 C 218.27192,232.9862 219.08807,233.80234 219.08807,234.80052 C 219.08807,235.7987 218.27192,236.60429 217.27375,236.60429 C 216.27557,236.60429 215.46998,235.7987 215.46998,234.80052 C 215.46998,233.80234 216.27557,232.9862 217.27375,232.9862 z"
         style="fill:#1c7d1c;fill-opacity:1;stroke:#000000;stroke-width:0.53215897;stroke-linecap:square;stroke-miterlimit:4;stroke-dashoffset:0;stroke-opacity:1" />
      <path
         d="M 83.46875,260.71875 C 79.209415,260.71874 75.78125,264.14691 75.78125,268.40625 C 75.78125,272.66558 79.209414,276.09375 83.46875,276.09375 C 87.728078,276.09374 91.1875,272.66174 91.1875,268.40625 C 91.1875,264.15074 87.728076,260.71874 83.46875,260.71875 z M 83.46875,262.15625 C 86.902598,262.15624 89.71875,264.97238 89.71875,268.40625 C 89.71875,271.8401 86.896446,274.625 83.46875,274.625 C 80.041051,274.62499 77.25,271.83394 77.25,268.40625 C 77.25,264.97854 80.034899,262.15625 83.46875,262.15625 z"
         id="path7519"
         style="fill:url(#linearGradient7521);fill-opacity:1;stroke:none;stroke-width:0.5;stroke-linecap:square;stroke-miterlimit:4;stroke-dashoffset:0;stroke-opacity:1;filter:url(#filter7476)"
         inkscape:original="M 83.46875 259.84375 C 78.73732 259.84374 74.90625 263.67482 74.90625 268.40625 C 74.90625 273.13767 78.73732 276.96875 83.46875 276.96875 C 88.20017 276.96874 92.0625 273.13768 92.0625 268.40625 C 92.0625 263.6748 88.20017 259.84374 83.46875 259.84375 z M 83.46875 263.03125 C 86.42588 263.03124 88.84375 265.4491 88.84375 268.40625 C 88.84375 271.36338 86.42589 273.75 83.46875 273.75 C 80.5116 273.74999 78.125 271.36339 78.125 268.40625 C 78.125 265.44909 80.51161 263.03125 83.46875 263.03125 z "
         inkscape:radius="-0.87456268"
         sodipodi:type="inkscape:offset"
         transform="matrix(0.3375474,0,0,0.3375474,189.09909,144.20069)" />
    </g>
    <g
       id="g7506"
       transform="matrix(0.444212,8.3092105e-2,-0.1182799,0.5566387,147.66647,86.459583)">
      <path
         transform="matrix(0.3375474,0,0,0.3375474,263.33013,200.46713)"
         d="M -127.85715,101.71429 A 8.5714283,8.5714283 0 1 1 -145,101.71429 A 8.5714283,8.5714283 0 1 1 -127.85715,101.71429 z"
         sodipodi:ry="8.5714283"
         sodipodi:rx="8.5714283"
         sodipodi:cy="101.71429"
         sodipodi:cx="-136.42857"
         id="path7495"
         style="fill:#008000;fill-opacity:1;stroke:none;stroke-width:0.25;stroke-linecap:square;stroke-miterlimit:4;stroke-dasharray:none;stroke-dashoffset:0;stroke-opacity:1"
         sodipodi:type="arc" />
      <path
         style="fill:#1c7d1c;fill-opacity:1;stroke:#000000;stroke-width:0.49305379;stroke-linecap:square;stroke-miterlimit:4;stroke-dashoffset:0;stroke-opacity:1"
         d="M 217.27375,231.91027 C 215.67667,231.91027 214.3835,233.20344 214.3835,234.80052 C 214.3835,236.3976 215.67667,237.69077 217.27375,237.69077 C 218.87083,237.69077 220.17455,236.3976 220.17455,234.80052 C 220.17455,233.20344 218.87083,231.91027 217.27375,231.91027 z M 217.27375,232.9862 C 218.27192,232.9862 219.08807,233.80234 219.08807,234.80052 C 219.08807,235.7987 218.27192,236.60429 217.27375,236.60429 C 216.27557,236.60429 215.46998,235.7987 215.46998,234.80052 C 215.46998,233.80234 216.27557,232.9862 217.27375,232.9862 z"
         id="path7497" />
      <path
         transform="matrix(0.3375474,0,0,0.3375474,189.09909,144.20069)"
         sodipodi:type="inkscape:offset"
         inkscape:radius="-0.87456268"
         inkscape:original="M 83.46875 259.84375 C 78.73732 259.84374 74.90625 263.67482 74.90625 268.40625 C 74.90625 273.13767 78.73732 276.96875 83.46875 276.96875 C 88.20017 276.96874 92.0625 273.13768 92.0625 268.40625 C 92.0625 263.6748 88.20017 259.84374 83.46875 259.84375 z M 83.46875 263.03125 C 86.42588 263.03124 88.84375 265.4491 88.84375 268.40625 C 88.84375 271.36338 86.42589 273.75 83.46875 273.75 C 80.5116 273.74999 78.125 271.36339 78.125 268.40625 C 78.125 265.44909 80.51161 263.03125 83.46875 263.03125 z "
         style="fill:url(#linearGradient7511);fill-opacity:1;stroke:none;stroke-width:0.5;stroke-linecap:square;stroke-miterlimit:4;stroke-dashoffset:0;stroke-opacity:1;filter:url(#filter7476)"
         id="path7499"
         d="M 83.46875,260.71875 C 79.209415,260.71874 75.78125,264.14691 75.78125,268.40625 C 75.78125,272.66558 79.209414,276.09375 83.46875,276.09375 C 87.728078,276.09374 91.1875,272.66174 91.1875,268.40625 C 91.1875,264.15074 87.728076,260.71874 83.46875,260.71875 z M 83.46875,262.15625 C 86.902598,262.15624 89.71875,264.97238 89.71875,268.40625 C 89.71875,271.8401 86.896446,274.625 83.46875,274.625 C 80.041051,274.62499 77.25,271.83394 77.25,268.40625 C 77.25,264.97854 80.034899,262.15625 83.46875,262.15625 z" />
    </g>
    <g
       id="g7195"
       transform="matrix(-1,0,0,1,451.04467,35.000004)">
      <path
         style="fill:url(#linearGradient7211);fill-opacity:1;fill-rule:evenodd;stroke:none;stroke-width:1px;stroke-linecap:butt;stroke-linejoin:miter;stroke-opacity:1"
         d="M 121.36624,17.037646 C 122.45779,41.557728 98.254922,68.560712 70.45814,49.928881 C 82.636458,11.448612 96.050712,37.646843 121.36624,17.037646 z"
         id="path7197"
         transform="translate(164.57144,150.07646)"
         sodipodi:nodetypes="ccc" />
      <path
         transform="translate(164.30358,149.27289)"
         style="opacity:0.8;fill:#f1f3ee;fill-opacity:1;fill-rule:evenodd;stroke:none;stroke-width:1px;stroke-linecap:butt;stroke-linejoin:miter;stroke-opacity:1;filter:url(#filter6606)"
         d="M 119.5625,20.53125 C 107.86357,28.73155 98.291908,27.788648 91.1875,28.53125 C 87.339989,28.933419 84.259713,29.756319 81.21875,32.71875 C 78.3352,35.527833 75.473161,40.574347 72.625,49.15625 C 81.58827,19.227114 110.82483,33.871613 119.5625,20.53125 z"
         id="path7199"
         sodipodi:nodetypes="csscc" />
      <path
         sodipodi:nodetypes="ccc"
         id="path7201"
         d="M 121.36624,17.037646 C 122.45779,41.557728 98.254922,68.560712 70.45814,49.928881 C 90.086333,35.060928 108.04627,42.445068 121.36624,17.037646 z"
         style="fill:url(#linearGradient7213);fill-opacity:1;fill-rule:evenodd;stroke:none;stroke-width:1px;stroke-linecap:butt;stroke-linejoin:miter;stroke-opacity:1;filter:url(#filter6582)"
         transform="translate(164.57144,150.07646)" />
      <path
         style="fill:url(#linearGradient7215);fill-opacity:1;fill-rule:evenodd;stroke:none;stroke-width:1px;stroke-linecap:butt;stroke-linejoin:miter;stroke-opacity:1;filter:url(#filter6622)"
         d="M 71.067712,48.386422 C 73.310687,46.656284 80.14042,44.473785 80.885743,43.251178 C 81.73072,40.084446 82.370481,35.461667 84.464286,32.607142 C 83.65783,34.977212 81.172536,43.14741 83.658086,41.833439 C 84.96761,41.395929 88.14944,41.769923 88.533676,39.85832 C 89.091363,37.083788 89.884772,31.892856 93.571429,28.857142 C 91.829373,30.645768 87.852019,40.237812 90.979515,38.767086 C 93.468341,38.020052 96.499843,37.6727 97.427891,35.698877 C 99.001429,32.352192 101.45562,28.92502 103.57143,27.071428 C 102.28566,29.295613 97.352486,35.348115 99.565177,35.6376 C 100.8,35.799151 105.38532,33.958088 105.53571,33.343092 C 106.35055,30.010927 107.66985,28.938904 108.75,27.25 C 108.35266,29.207036 106.11202,31.538602 107.25644,32.76405 C 112.67492,29.559988 117.65855,22.321383 120.76713,18.111514 C 118.85764,24.687937 110.39476,33.47379 107.76064,34.067287 C 106.22026,34.414353 108.03847,36.315031 111.8016,38.190933 C 109.97793,38.575457 105.7981,35.997908 105.83243,34.88731 C 104.62453,35.046777 102.03323,37.191506 100.27389,37.399792 C 99.131559,38.646946 104.68168,40.76225 105.98106,42.619833 C 103.50861,40.911942 98.871359,40.078953 97.891179,38.072608 C 96.410287,38.420404 95.333818,40.107737 91.794688,40.657405 C 92.873093,44.767796 98.456231,45.417452 102.25644,48.334119 C 97.733384,45.974449 93.643065,45.332067 90.315672,41.328363 C 88.465292,43.098653 86.673051,42.959915 84.318211,43.216823 C 84.369175,46.330466 89.00287,48.126315 91.785714,50.642857 C 88.391849,48.825529 84.464222,48.05979 82.41706,44.297225 L 77.898613,46.734091 C 78.715356,48.148807 81.109728,49.500829 82.678572,50.464285 C 80.446047,50.257097 78.078783,49.128302 76.313135,47.520485 L 71.572788,50.642857 L 71.067712,48.386422 z"
         id="path7203"
         transform="translate(164.57144,150.07646)"
         sodipodi:nodetypes="ccccsccscsscccscccccccccccccccc" />
      <path
         sodipodi:nodetypes="ccc"
         transform="translate(164.57144,150.07646)"
         id="path7205"
         d="M 121.36624,17.037646 C 122.45779,41.557728 98.254922,68.560712 70.45814,49.928881 C 82.636458,11.448612 96.050712,37.646843 121.36624,17.037646 z"
         style="fill:none;fill-opacity:1;fill-rule:evenodd;stroke:#000000;stroke-width:1px;stroke-linecap:butt;stroke-linejoin:miter;stroke-opacity:1" />
      <path
         style="fill:none;fill-opacity:1;fill-rule:evenodd;stroke:#000000;stroke-width:1px;stroke-linecap:butt;stroke-linejoin:miter;stroke-opacity:1"
         d="M 121.36624,17.037646 C 122.45779,41.557728 98.254922,68.560712 70.45814,49.928881 C 82.636458,11.448612 96.050712,37.646843 121.36624,17.037646 z"
         id="path7207"
         sodipodi:nodetypes="ccc"
         transform="translate(164.57144,150.07646)" />
      <path
         transform="translate(164.57144,150.07646)"
         style="opacity:0.3;fill:#1a1a1a;fill-opacity:1;fill-rule:evenodd;stroke:none;stroke-width:1px;stroke-linecap:butt;stroke-linejoin:miter;stroke-opacity:1;filter:url(#filter6896)"
         d="M 120.15625,20.96875 C 112.65013,54.124461 96.472189,54.956339 72.65625,49.90625 C 96.862214,63.399563 116.55016,44.977721 120.15625,20.96875 z"
         id="path7209"
         sodipodi:nodetypes="ccc" />
    </g>
    <path
       transform="translate(-0.4464286,-0.8035715)"
       style="opacity:0.5;fill:#f1f3ee;fill-opacity:1;fill-rule:evenodd;stroke:none;stroke-width:1px;stroke-linecap:butt;stroke-linejoin:miter;stroke-opacity:1;filter:url(#filter7255)"
       d="M 216.5,182.84375 C 216.48959,182.84419 216.47916,182.84419 216.46875,182.84375 C 214.61277,185.19751 211.55504,186.9375 207.25,186.9375 C 198.43673,185.86546 201.95025,187.59472 207.09375,188.00893 C 212.11213,187.99984 215.58593,186.36844 217.8125,183.125 C 217.81685,183.11156 217.83959,183.1071 217.84375,183.09375 C 219.22327,179.18585 218.56828,179.52805 216.5,182.84375 z"
       id="path7259"
       sodipodi:nodetypes="ccccccc" />
    <path
       sodipodi:type="inkscape:offset"
       inkscape:radius="-2.9938107"
       inkscape:original="M 234.40625 200.34375 C 232.34412 199.91673 227.08944 206.592 224.28125 210.5625 C 220.26019 217.40838 216.27632 224.14819 216.1875 230.125 C 216.08045 237.32869 220.13028 245.41055 224.3125 253.625 C 235.61094 257.59946 238.90801 258.60048 233.25 249.375 C 229.29959 242.48927 225.02943 236.63766 224.75 230.625 C 224.53805 226.06434 226.92453 221.25525 229.40625 216.53125 C 231.88797 211.80725 234.52442 207.13865 235.1875 203.5 C 235.41451 201.41544 235.09363 200.48609 234.40625 200.34375 z "
       style="opacity:0.29999999999999999;fill:url(#linearGradient7288);fill-opacity:1;fill-rule:evenodd;stroke:none;stroke-width:1px;stroke-linecap:butt;stroke-linejoin:miter;stroke-opacity:1;filter:url(#filter7347)"
       id="path7270"
       d="M 230.5625,207.40625 C 229.24131,208.99228 227.87862,210.68314 226.875,212.09375 C 222.85118,218.94432 219.25705,225.47592 219.1875,230.15625 C 219.10174,235.92707 222.53149,243.39542 226.46875,251.1875 C 228.51229,251.90064 230.3802,252.54878 231.71875,252.9375 C 231.35281,252.22303 231.31279,251.95705 230.6875,250.9375 C 230.67684,250.91679 230.66642,250.89595 230.65625,250.875 C 226.80492,244.16198 222.09091,238.08556 221.75,230.75 C 221.48514,225.05083 224.24673,219.89002 226.75,215.125 C 228.21041,212.34509 229.50696,209.75369 230.5625,207.40625 z"
       transform="translate(3.7716643,-1.2690715e-2)" />
    <path
       transform="translate(3.5714286,-0.3571429)"
       style="opacity:0.29999999999999999;fill:url(#linearGradient7388);fill-opacity:1;fill-rule:evenodd;stroke:none;stroke-width:1px;stroke-linecap:butt;stroke-linejoin:miter;stroke-opacity:1;filter:url(#filter7383)"
       d="M 227.3125,298.09375 C 223.74728,304.62884 220.50732,311.38397 220.28125,315.96875 C 219.96774,322.32695 223.5324,329.90955 227.4375,338.1875 C 227.60769,338.53914 227.70344,338.92214 227.71875,339.3125 C 227.73813,339.96167 228.28981,341.21801 229.28125,342.25 C 230.27269,343.28199 231.65065,344.0147 232.25,344.125 C 232.39158,343.50728 232.34512,341.17292 230.875,337.1875 C 230.86665,337.16896 230.88335,337.14353 230.875,337.125 C 227.40111,329.41971 223.32535,323.39782 223.34375,316.84375 C 223.36564,308.61887 227.48195,301.99831 231.03125,295.4375 C 233.8901,291.40439 235.39992,287.7394 227.3125,298.09375 z"
       id="path7357"
       sodipodi:nodetypes="cscsscssscc" />
    <path
       transform="translate(3.0357143,1.7857143)"
       style="opacity:0.29999999999999999;fill:#1a1a1a;fill-opacity:1;fill-rule:evenodd;stroke:none;stroke-width:1px;stroke-linecap:butt;stroke-linejoin:miter;stroke-opacity:1;filter:url(#filter7427)"
       d="M 237.09375,363.1875 C 228.96998,376.33295 230.45755,391.29155 216.94638,403.80282 L 231.41006,403.20211 C 219.33907,391.15042 235.11959,383.47815 237.625,365.875 C 237.39824,364.75031 237.25001,363.9845 237.09375,363.1875 z"
       id="path7400"
       sodipodi:nodetypes="ccccc" />
    <g
       transform="matrix(-1,0,0,1,452.16353,115.80357)"
       id="g7533">
      <path
         sodipodi:nodetypes="ccc"
         transform="translate(164.57144,150.07646)"
         id="path7535"
         d="M 121.36624,17.037646 C 122.45779,41.557728 98.254922,68.560712 70.45814,49.928881 C 82.636458,11.448612 96.050712,37.646843 121.36624,17.037646 z"
         style="fill:url(#linearGradient7549);fill-opacity:1;fill-rule:evenodd;stroke:none;stroke-width:1px;stroke-linecap:butt;stroke-linejoin:miter;stroke-opacity:1" />
      <path
         sodipodi:nodetypes="csscc"
         id="path7537"
         d="M 119.5625,20.53125 C 107.86357,28.73155 98.291908,27.788648 91.1875,28.53125 C 87.339989,28.933419 84.259713,29.756319 81.21875,32.71875 C 78.3352,35.527833 75.473161,40.574347 72.625,49.15625 C 81.58827,19.227114 110.82483,33.871613 119.5625,20.53125 z"
         style="opacity:0.8;fill:#f1f3ee;fill-opacity:1;fill-rule:evenodd;stroke:none;stroke-width:1px;stroke-linecap:butt;stroke-linejoin:miter;stroke-opacity:1;filter:url(#filter6606)"
         transform="translate(164.30358,149.27289)" />
      <path
         transform="translate(164.57144,150.07646)"
         style="fill:url(#linearGradient7551);fill-opacity:1;fill-rule:evenodd;stroke:none;stroke-width:1px;stroke-linecap:butt;stroke-linejoin:miter;stroke-opacity:1;filter:url(#filter6582)"
         d="M 121.36624,17.037646 C 122.45779,41.557728 98.254922,68.560712 70.45814,49.928881 C 90.086333,35.060928 108.04627,42.445068 121.36624,17.037646 z"
         id="path7539"
         sodipodi:nodetypes="ccc" />
      <path
         sodipodi:nodetypes="ccccsccscsscccscccccccccccccccc"
         transform="translate(164.57144,150.07646)"
         id="path7541"
         d="M 71.067712,48.386422 C 73.310687,46.656284 80.14042,44.473785 80.885743,43.251178 C 81.73072,40.084446 82.370481,35.461667 84.464286,32.607142 C 83.65783,34.977212 81.172536,43.14741 83.658086,41.833439 C 84.96761,41.395929 88.14944,41.769923 88.533676,39.85832 C 89.091363,37.083788 89.884772,31.892856 93.571429,28.857142 C 91.829373,30.645768 87.852019,40.237812 90.979515,38.767086 C 93.468341,38.020052 96.499843,37.6727 97.427891,35.698877 C 99.001429,32.352192 101.45562,28.92502 103.57143,27.071428 C 102.28566,29.295613 97.352486,35.348115 99.565177,35.6376 C 100.8,35.799151 105.38532,33.958088 105.53571,33.343092 C 106.35055,30.010927 107.66985,28.938904 108.75,27.25 C 108.35266,29.207036 106.11202,31.538602 107.25644,32.76405 C 112.67492,29.559988 117.65855,22.321383 120.76713,18.111514 C 118.85764,24.687937 110.39476,33.47379 107.76064,34.067287 C 106.22026,34.414353 108.03847,36.315031 111.8016,38.190933 C 109.97793,38.575457 105.7981,35.997908 105.83243,34.88731 C 104.62453,35.046777 102.03323,37.191506 100.27389,37.399792 C 99.131559,38.646946 104.68168,40.76225 105.98106,42.619833 C 103.50861,40.911942 98.871359,40.078953 97.891179,38.072608 C 96.410287,38.420404 95.333818,40.107737 91.794688,40.657405 C 92.873093,44.767796 98.456231,45.417452 102.25644,48.334119 C 97.733384,45.974449 93.643065,45.332067 90.315672,41.328363 C 88.465292,43.098653 86.673051,42.959915 84.318211,43.216823 C 84.369175,46.330466 89.00287,48.126315 91.785714,50.642857 C 88.391849,48.825529 84.464222,48.05979 82.41706,44.297225 L 77.898613,46.734091 C 78.715356,48.148807 81.109728,49.500829 82.678572,50.464285 C 80.446047,50.257097 78.078783,49.128302 76.313135,47.520485 L 71.572788,50.642857 L 71.067712,48.386422 z"
         style="fill:url(#linearGradient7553);fill-opacity:1;fill-rule:evenodd;stroke:none;stroke-width:1px;stroke-linecap:butt;stroke-linejoin:miter;stroke-opacity:1;filter:url(#filter6622)" />
      <path
         style="fill:none;fill-opacity:1;fill-rule:evenodd;stroke:#000000;stroke-width:1px;stroke-linecap:butt;stroke-linejoin:miter;stroke-opacity:1"
         d="M 121.36624,17.037646 C 122.45779,41.557728 98.254922,68.560712 70.45814,49.928881 C 82.636458,11.448612 96.050712,37.646843 121.36624,17.037646 z"
         id="path7543"
         transform="translate(164.57144,150.07646)"
         sodipodi:nodetypes="ccc" />
      <path
         transform="translate(164.57144,150.07646)"
         sodipodi:nodetypes="ccc"
         id="path7545"
         d="M 121.36624,17.037646 C 122.45779,41.557728 98.254922,68.560712 70.45814,49.928881 C 82.636458,11.448612 96.050712,37.646843 121.36624,17.037646 z"
         style="fill:none;fill-opacity:1;fill-rule:evenodd;stroke:#000000;stroke-width:1px;stroke-linecap:butt;stroke-linejoin:miter;stroke-opacity:1" />
      <path
         sodipodi:nodetypes="ccc"
         id="path7547"
         d="M 120.15625,20.96875 C 112.65013,54.124461 96.472189,54.956339 72.65625,49.90625 C 96.862214,63.399563 116.55016,44.977721 120.15625,20.96875 z"
         style="opacity:0.3;fill:#1a1a1a;fill-opacity:1;fill-rule:evenodd;stroke:none;stroke-width:1px;stroke-linecap:butt;stroke-linejoin:miter;stroke-opacity:1;filter:url(#filter6896)"
         transform="translate(164.57144,150.07646)" />
    </g>
  </g>
</svg>
