<?xml version="1.0" encoding="UTF-8" standalone="no"?>
<!-- Created with Inkscape (http://www.inkscape.org/) -->
<svg
   xmlns:dc="http://purl.org/dc/elements/1.1/"
   xmlns:cc="http://web.resource.org/cc/"
   xmlns:rdf="http://www.w3.org/1999/02/22-rdf-syntax-ns#"
   xmlns:svg="http://www.w3.org/2000/svg"
   xmlns="http://www.w3.org/2000/svg"
   xmlns:xlink="http://www.w3.org/1999/xlink"
   xmlns:sodipodi="http://sodipodi.sourceforge.net/DTD/sodipodi-0.dtd"
   xmlns:inkscape="http://www.inkscape.org/namespaces/inkscape"
   width="744.09448819"
   height="1052.3622047"
   id="svg2"
   sodipodi:version="0.32"
   inkscape:version="0.45.1"
   sodipodi:docbase="/media/home/piers/Documents/Maryo"
   sodipodi:docname="fireflower.1-alpha.svg"
   inkscape:output_extension="org.inkscape.output.svg.inkscape">
  <defs
     id="defs4">
    <linearGradient
       id="linearGradient3215">
      <stop
         style="stop-color:#7cff00;stop-opacity:1;"
         offset="0"
         id="stop3217" />
      <stop
         style="stop-color:#004c00;stop-opacity:1;"
         offset="1"
         id="stop3219" />
    </linearGradient>
    <linearGradient
       id="linearGradient3136">
      <stop
         style="stop-color:#ffff00;stop-opacity:1;"
         offset="0"
         id="stop3138" />
      <stop
         style="stop-color:#ff0000;stop-opacity:1;"
         offset="1"
         id="stop3140" />
    </linearGradient>
    <radialGradient
       inkscape:collect="always"
       xlink:href="#linearGradient3136"
       id="radialGradient3142"
       cx="413.49677"
       cy="419.10059"
       fx="413.49677"
       fy="419.10059"
       r="93.773317"
       gradientTransform="matrix(1.3351547,-4.570292e-2,8.5543878e-2,2.4990585,-174.43689,-581.4908)"
       gradientUnits="userSpaceOnUse" />
    <linearGradient
       inkscape:collect="always"
       xlink:href="#linearGradient3215"
       id="linearGradient3221"
       x1="371.64286"
       y1="662.36218"
       x2="413.35714"
       y2="662.36218"
       gradientUnits="userSpaceOnUse"
       gradientTransform="translate(10.714286,-2.1428571)" />
    <linearGradient
       inkscape:collect="always"
       xlink:href="#linearGradient3215"
       id="linearGradient3229"
       gradientUnits="userSpaceOnUse"
       gradientTransform="matrix(0.2343304,0.3789782,-0.4660198,0.1905629,668.30487,353.84884)"
       x1="371.64286"
       y1="662.36218"
       x2="413.35714"
       y2="662.36218" />
    <linearGradient
       inkscape:collect="always"
       xlink:href="#linearGradient3215"
       id="linearGradient3233"
       gradientUnits="userSpaceOnUse"
       gradientTransform="matrix(0.1667311,-0.3065899,0.3317807,0.2321023,82.21656,621.63168)"
       x1="371.64286"
       y1="662.36218"
       x2="413.35714"
       y2="662.36218" />
    <radialGradient
       inkscape:collect="always"
       xlink:href="#linearGradient3136"
       id="radialGradient3241"
       gradientUnits="userSpaceOnUse"
       gradientTransform="matrix(1.3351547,-4.570292e-2,8.5543878e-2,2.4990585,-174.43689,-581.4908)"
       cx="413.49677"
       cy="419.10059"
       fx="413.49677"
       fy="419.10059"
       r="93.773317" />
    <radialGradient
       inkscape:collect="always"
       xlink:href="#linearGradient3136"
       id="radialGradient3341"
       gradientUnits="userSpaceOnUse"
       gradientTransform="matrix(1.3351547,-4.570292e-2,8.5543878e-2,2.4990585,-174.43689,-581.4908)"
       cx="413.49677"
       cy="419.10059"
       fx="413.49677"
       fy="419.10059"
       r="93.773317" />
  </defs>
  <sodipodi:namedview
     id="base"
     pagecolor="#ffffff"
     bordercolor="#666666"
     borderopacity="1.0"
     gridtolerance="10000"
     guidetolerance="10"
     objecttolerance="10"
     inkscape:pageopacity="0.0"
     inkscape:pageshadow="2"
     inkscape:zoom="0.24748737"
     inkscape:cx="1201.0222"
     inkscape:cy="992.722"
     inkscape:document-units="px"
     inkscape:current-layer="layer1"
     inkscape:window-width="1069"
     inkscape:window-height="939"
     inkscape:window-x="1"
     inkscape:window-y="26" />
  <metadata
     id="metadata7">
    <rdf:RDF>
      <cc:Work
         rdf:about="">
        <dc:format>image/svg+xml</dc:format>
        <dc:type
           rdf:resource="http://purl.org/dc/dcmitype/StillImage" />
      </cc:Work>
    </rdf:RDF>
  </metadata>
  <g
     inkscape:label="Layer 1"
     inkscape:groupmode="layer"
     id="layer1">
    <g
       id="g3223">
      <path
         sodipodi:nodetypes="csssssczc"
         id="path2160"
         d="M 365.71429,274.50504 C 338.57143,344.50504 357.85714,396.64789 330.71428,440.21933 C 305.77617,480.25156 324.28571,570.93361 397.14286,569.50504 C 470,568.07647 514.28571,515.21933 505.71429,450.93361 C 497.14286,386.6479 393.04179,279.04396 415.71428,210.93361 C 420.78974,195.68644 389.99727,262.10059 391.42856,300.93361 C 392.47798,329.40562 389.28571,328.61217 402.85715,366.64789 C 395,361.11218 375.73315,345.98531 369.28572,331.6479 C 362.05764,315.57455 366.42857,273.07647 366.42857,273.07647"
         style="fill:url(#radialGradient3142);fill-rule:evenodd;stroke:#000000;stroke-width:10;stroke-linecap:butt;stroke-linejoin:miter;stroke-opacity:1;fill-opacity:1.0;stroke-miterlimit:4;stroke-dasharray:none" />
      <path
         sodipodi:nodetypes="ccccccccccc"
         id="path3149"
         d="M 411.59375,303.71875 C 413.19716,345.54215 416.4974,341.52743 426.95536,381.41518 C 429.4874,390.01478 419.59255,396.5523 408.54911,398.19196 C 398.53964,397.88557 390.12352,398.96118 368.65625,365.5625 C 366.82367,396.46871 362.0366,428.35807 345.75,455.09375 C 333.42579,484.63357 341.5172,523.1574 368.15625,541.9375 C 389.79785,554.89838 417.49482,550.02709 439.59375,540.4375 C 466.33179,528.3949 486.39637,501.23812 486.78125,471.5 C 488.02353,441.5744 473.20585,414.51723 458.62668,389.41426 C 442.57366,361.00297 425.05146,333.17522 411.59375,303.34375 L 411.59375,303.71875 z "
         style="fill:#ffff00;fill-opacity:1;fill-rule:evenodd;stroke:#000000;stroke-width:1px;stroke-linecap:butt;stroke-linejoin:miter;stroke-opacity:1" />
    </g>
    <path
       sodipodi:type="arc"
       style="fill:#000000;fill-opacity:1"
       id="path3193"
       sodipodi:cx="442.5"
       sodipodi:cy="433.43362"
       sodipodi:rx="13.214286"
       sodipodi:ry="26.071428"
       d="M 455.71429 433.43362 A 13.214286 26.071428 0 1 1  429.28571,433.43362 A 13.214286 26.071428 0 1 1  455.71429 433.43362 z"
       transform="translate(-10.714286,4.2857143)" />
    <path
       sodipodi:type="arc"
       style="fill:#000000;fill-opacity:1"
       id="path3195"
       sodipodi:cx="442.5"
       sodipodi:cy="433.43362"
       sodipodi:rx="13.214286"
       sodipodi:ry="26.071428"
       d="M 455.71429 433.43362 A 13.214286 26.071428 0 1 1  429.28571,433.43362 A 13.214286 26.071428 0 1 1  455.71429 433.43362 z"
       transform="matrix(1.2162162,0,0,1.0821918,-144.60424,-29.553268)" />
    <path
       sodipodi:type="arc"
       style="fill:#ffffff;fill-opacity:1"
       id="path3197"
       sodipodi:cx="445"
       sodipodi:cy="425.57648"
       sodipodi:rx="5.7142859"
       sodipodi:ry="10.357142"
       d="M 450.71429 425.57648 A 5.7142859 10.357142 0 1 1  439.28571,425.57648 A 5.7142859 10.357142 0 1 1  450.71429 425.57648 z"
       transform="translate(-15.714286,0.7142857)" />
    <path
       sodipodi:type="arc"
       style="fill:#ffffff;fill-opacity:1"
       id="path3199"
       sodipodi:cx="413.92856"
       sodipodi:cy="430.21933"
       sodipodi:rx="5.3571429"
       sodipodi:ry="8.5714283"
       d="M 419.2857 430.21933 A 5.3571429 8.5714283 0 1 1  408.57142,430.21933 A 5.3571429 8.5714283 0 1 1  419.2857 430.21933 z"
       transform="translate(-17.857143,-4.2857143)" />
    <path
       style="fill:none;fill-rule:evenodd;stroke:#000000;stroke-width:5;stroke-linecap:butt;stroke-linejoin:miter;stroke-opacity:1;stroke-miterlimit:4;stroke-dasharray:none"
       d="M 440.71429,495.93361 C 409.28571,504.50504 379.08433,480.4771 362.14286,481.64789 C 341.7375,483.05807 370.78552,517.0264 381.42857,520.21932 C 395.71428,524.50504 418.57143,506.6479 418.57143,506.6479"
       id="path3203"
       sodipodi:nodetypes="cssc" />
    <path
       style="fill:#000000;fill-rule:evenodd;stroke:#000000;stroke-width:1px;stroke-linecap:butt;stroke-linejoin:miter;stroke-opacity:1;fill-opacity:1"
       d="M 411.42857,495.93361 C 407.14286,501.11218 410.71429,511.6479 410.71429,511.6479 C 410.71429,511.6479 396.63457,520.75504 387.32143,520.75504 C 373.75001,520.75504 351.07143,493.96932 355.89286,484.68361 C 360.73112,475.3655 388.21429,489.68361 398.03572,492.8979 C 407.85714,496.11218 411.78572,495.93361 411.42857,495.93361 z "
       id="path3209"
       sodipodi:nodetypes="ccsssc" />
    <path
       style="fill:#ff0000;fill-rule:evenodd;stroke:#000000;stroke-width:1px;stroke-linecap:butt;stroke-linejoin:miter;stroke-opacity:1;fill-opacity:1"
       d="M 362.67857,503.61218 C 377.85714,499.86218 388.75,512.36218 388.75,512.36218 C 388.75,512.36218 385.41462,505.40787 377.32143,502.71932 C 389.06304,501.4605 400.71428,503.07646 408.39286,513.43361 C 395.71429,520.57646 391.10962,520.95937 384.64286,520.84432 C 375.88696,520.68853 362.5,503.96932 362.67857,503.61218 z "
       id="path3207"
       sodipodi:nodetypes="ccccsc" />
    <path
       style="fill:url(#linearGradient3229);fill-opacity:1;fill-rule:evenodd;stroke:#000000;stroke-width:4.70389223;stroke-linecap:butt;stroke-linejoin:miter;stroke-miterlimit:4;stroke-dasharray:none;stroke-opacity:1"
       d="M 493.61596,606.38401 C 407.90631,643.12775 400.56617,640.02469 400.56617,640.02469 L 410.43963,655.31839 C 410.43963,655.31839 417.0406,647.27766 499.42907,614.60514"
       id="path3227"
       sodipodi:nodetypes="cccc" />
    <path
       style="fill:url(#linearGradient3221);fill-opacity:1;fill-rule:evenodd;stroke:#000000;stroke-width:10;stroke-linecap:butt;stroke-linejoin:miter;stroke-miterlimit:4;stroke-dasharray:none;stroke-opacity:1"
       d="M 392.14286,564.50504 C 395.71428,750.21933 382.85715,759.50504 382.85715,759.50504 L 423.57143,758.79075 C 423.57143,758.79075 412.32143,738.96932 414.46429,563.25504"
       id="path3213"
       sodipodi:nodetypes="cccc" />
    <path
       style="fill:url(#linearGradient3233);fill-opacity:1;fill-rule:evenodd;stroke:#000000;stroke-width:3.7472558;stroke-linecap:butt;stroke-linejoin:miter;stroke-miterlimit:4;stroke-dasharray:none;stroke-opacity:1"
       d="M 333.81541,636.20992 C 396.02729,678.21968 396.96443,684.31679 396.96443,684.31679 L 403.51577,671.66842 C 403.51577,671.66842 395.06367,670.51695 337.12236,629.07628"
       id="path3231"
       sodipodi:nodetypes="cccc" />
    <g
       id="g3313">
      <g
         transform="matrix(0.1954382,0.1790413,-0.2614713,0.2854173,558.55393,380.76173)"
         id="g3235">
        <path
           style="fill:url(#radialGradient3241);fill-opacity:1;fill-rule:evenodd;stroke:#000000;stroke-width:10;stroke-linecap:butt;stroke-linejoin:miter;stroke-miterlimit:4;stroke-dasharray:none;stroke-opacity:1"
           d="M 365.71429,274.50504 C 338.57143,344.50504 357.85714,396.64789 330.71428,440.21933 C 305.77617,480.25156 324.28571,570.93361 397.14286,569.50504 C 470,568.07647 514.28571,515.21933 505.71429,450.93361 C 497.14286,386.6479 393.04179,279.04396 415.71428,210.93361 C 420.78974,195.68644 389.99727,262.10059 391.42856,300.93361 C 392.47798,329.40562 389.28571,328.61217 402.85715,366.64789 C 395,361.11218 375.73315,345.98531 369.28572,331.6479 C 362.05764,315.57455 366.42857,273.07647 366.42857,273.07647"
           id="path3237"
           sodipodi:nodetypes="csssssczc" />
        <path
           style="fill:#ffff00;fill-opacity:1;fill-rule:evenodd;stroke:#000000;stroke-width:1px;stroke-linecap:butt;stroke-linejoin:miter;stroke-opacity:1"
           d="M 411.59375,303.71875 C 413.19716,345.54215 416.4974,341.52743 426.95536,381.41518 C 429.4874,390.01478 419.59255,396.5523 408.54911,398.19196 C 398.53964,397.88557 390.12352,398.96118 368.65625,365.5625 C 366.82367,396.46871 362.0366,428.35807 345.75,455.09375 C 333.42579,484.63357 341.5172,523.1574 368.15625,541.9375 C 389.79785,554.89838 417.49482,550.02709 439.59375,540.4375 C 466.33179,528.3949 486.39637,501.23812 486.78125,471.5 C 488.02353,441.5744 473.20585,414.51723 458.62668,389.41426 C 442.57366,361.00297 425.05146,333.17522 411.59375,303.34375 L 411.59375,303.71875 z "
           id="path3239"
           sodipodi:nodetypes="ccccccccccc" />
      </g>
      <path
         sodipodi:nodetypes="cc"
         id="path3251"
         d="M 492.17888,608.31348 C 510.90259,587.56946 536.89607,591.94183 559.62451,541.73007"
         style="fill:none;fill-rule:evenodd;stroke:#006b00;stroke-width:5;stroke-linecap:butt;stroke-linejoin:miter;stroke-opacity:1;stroke-miterlimit:4;stroke-dasharray:none" />
      <path
         id="path3253"
         d="M 534.3707,550.82144 C 525.27932,578.60064 513.66257,592.2377 513.66257,592.2377"
         style="fill:none;fill-rule:evenodd;stroke:#005b00;stroke-width:5;stroke-linecap:butt;stroke-linejoin:miter;stroke-opacity:1;stroke-miterlimit:4;stroke-dasharray:none" />
      <path
         id="path3255"
         d="M 505.07627,574.56003 C 505.58135,587.69201 501.54074,600.31892 501.54074,600.31892"
         style="fill:none;fill-rule:evenodd;stroke:#006200;stroke-width:5;stroke-linecap:butt;stroke-linejoin:miter;stroke-opacity:1;stroke-miterlimit:4;stroke-dasharray:none" />
      <path
         id="path3257"
         d="M 514.67272,592.74277 C 537.90623,588.70216 541.44176,585.16663 541.44176,585.16663"
         style="fill:none;fill-rule:evenodd;stroke:#006200;stroke-width:5;stroke-linecap:butt;stroke-linejoin:miter;stroke-opacity:1;stroke-miterlimit:4;stroke-dasharray:none" />
      <path
         id="path3259"
         d="M 501.03566,600.82399 C 510.63211,606.37983 526.28948,605.36968 526.28948,605.36968"
         style="fill:none;fill-rule:evenodd;stroke:#006200;stroke-width:5;stroke-linecap:butt;stroke-linejoin:miter;stroke-opacity:1;stroke-miterlimit:4;stroke-dasharray:none" />
    </g>
    <path
       style="fill:#ff6b00;fill-rule:evenodd;stroke:#000000;stroke-width:3;stroke-linecap:butt;stroke-linejoin:miter;stroke-opacity:1;stroke-miterlimit:4;stroke-dasharray:none;fill-opacity:1"
       d="M 396.2765,131.11883 C 401.964,166.74227 347.8734,177.5934 385.43326,229.37428 C 373.42762,200.3018 433.31937,184.54223 396.2765,131.11883 z "
       id="path3293"
       sodipodi:nodetypes="ccc" />
    <path
       style="fill:#ffff00;fill-opacity:1;fill-rule:evenodd;stroke:#000000;stroke-width:1;stroke-linecap:butt;stroke-linejoin:miter;stroke-miterlimit:4;stroke-dasharray:none;stroke-opacity:1"
       d="M 398.90625,157.78125 C 391.50084,171.45854 377.3638,184.39505 380.5625,201.375 C 380.73889,206.66788 382.53219,200.83022 383.84375,199.34375 C 392.25758,186.68803 404.35405,172.71203 399.625,156.40625 L 399.16175,157.29248 L 398.90625,157.78125 z "
       id="path3295" />
    <g
       id="g3323"
       transform="matrix(0.357377,-0.7694225,1.0483276,0.2622977,-482.68583,851.2324)">
      <g
         id="g3325"
         transform="matrix(0.1954382,0.1790413,-0.2614713,0.2854173,558.55393,380.76173)">
        <path
           sodipodi:nodetypes="csssssczc"
           id="path3327"
           d="M 365.71429,274.50504 C 338.57143,344.50504 357.85714,396.64789 330.71428,440.21933 C 305.77617,480.25156 324.28571,570.93361 397.14286,569.50504 C 470,568.07647 514.28571,515.21933 505.71429,450.93361 C 497.14286,386.6479 393.04179,279.04396 415.71428,210.93361 C 420.78974,195.68644 389.99727,262.10059 391.42856,300.93361 C 392.47798,329.40562 389.28571,328.61217 402.85715,366.64789 C 395,361.11218 375.73315,345.98531 369.28572,331.6479 C 362.05764,315.57455 366.42857,273.07647 366.42857,273.07647"
           style="fill:url(#radialGradient3341);fill-opacity:1;fill-rule:evenodd;stroke:#000000;stroke-width:10;stroke-linecap:butt;stroke-linejoin:miter;stroke-miterlimit:4;stroke-dasharray:none;stroke-opacity:1" />
        <path
           sodipodi:nodetypes="ccccccccccc"
           id="path3329"
           d="M 411.59375,303.71875 C 413.19716,345.54215 416.4974,341.52743 426.95536,381.41518 C 429.4874,390.01478 419.59255,396.5523 408.54911,398.19196 C 398.53964,397.88557 390.12352,398.96118 368.65625,365.5625 C 366.82367,396.46871 362.0366,428.35807 345.75,455.09375 C 333.42579,484.63357 341.5172,523.1574 368.15625,541.9375 C 389.79785,554.89838 417.49482,550.02709 439.59375,540.4375 C 466.33179,528.3949 486.39637,501.23812 486.78125,471.5 C 488.02353,441.5744 473.20585,414.51723 458.62668,389.41426 C 442.57366,361.00297 425.05146,333.17522 411.59375,303.34375 L 411.59375,303.71875 z "
           style="fill:#ffff00;fill-opacity:1;fill-rule:evenodd;stroke:#000000;stroke-width:1px;stroke-linecap:butt;stroke-linejoin:miter;stroke-opacity:1" />
      </g>
      <path
         style="fill:none;fill-rule:evenodd;stroke:#006b00;stroke-width:5;stroke-linecap:butt;stroke-linejoin:miter;stroke-miterlimit:4;stroke-dasharray:none;stroke-opacity:1"
         d="M 492.17888,608.31348 C 510.90259,587.56946 536.89607,591.94183 559.62451,541.73007"
         id="path3331"
         sodipodi:nodetypes="cc" />
      <path
         style="fill:none;fill-rule:evenodd;stroke:#005b00;stroke-width:5;stroke-linecap:butt;stroke-linejoin:miter;stroke-miterlimit:4;stroke-dasharray:none;stroke-opacity:1"
         d="M 534.3707,550.82144 C 525.27932,578.60064 513.66257,592.2377 513.66257,592.2377"
         id="path3333" />
      <path
         style="fill:none;fill-rule:evenodd;stroke:#006200;stroke-width:5;stroke-linecap:butt;stroke-linejoin:miter;stroke-miterlimit:4;stroke-dasharray:none;stroke-opacity:1"
         d="M 505.07627,574.56003 C 505.58135,587.69201 501.54074,600.31892 501.54074,600.31892"
         id="path3335" />
      <path
         style="fill:none;fill-rule:evenodd;stroke:#006200;stroke-width:5;stroke-linecap:butt;stroke-linejoin:miter;stroke-miterlimit:4;stroke-dasharray:none;stroke-opacity:1"
         d="M 514.67272,592.74277 C 537.90623,588.70216 541.44176,585.16663 541.44176,585.16663"
         id="path3337" />
      <path
         style="fill:none;fill-rule:evenodd;stroke:#006200;stroke-width:5;stroke-linecap:butt;stroke-linejoin:miter;stroke-miterlimit:4;stroke-dasharray:none;stroke-opacity:1"
         d="M 501.03566,600.82399 C 510.63211,606.37983 526.28948,605.36968 526.28948,605.36968"
         id="path3339" />
    </g>
  </g>
</svg>
